<svg width="256" height="256" viewBox="0 0 256 256" fill="none" xmlns="http://www.w3.org/2000/svg">
<g clip-path="url(#clip0_66_743)">
<path d="M193.857 254.05C190.88 255.489 187.528 255.961 184.269 255.4C181.011 254.839 178.01 253.272 175.686 250.92L74.807 158.428L30.8645 191.956C28.8839 193.462 26.4377 194.226 23.9519 194.115C21.466 194.003 19.0981 193.023 17.2604 191.346L3.16414 178.45C2.06815 177.442 1.1933 176.217 0.594888 174.853C-0.00352791 173.489 -0.3125 172.015 -0.3125 170.526C-0.3125 169.037 -0.00352791 167.563 0.594888 166.199C1.1933 164.835 2.06815 163.61 3.16414 162.602L41.2594 127.656L3.16414 92.7112C2.06815 91.7026 1.1933 90.4776 0.594888 89.1136C-0.00352791 87.7497 -0.3125 86.2764 -0.3125 84.787C-0.3125 83.2975 -0.00352791 81.8242 0.594888 80.4603C1.1933 79.0963 2.06815 77.8713 3.16414 76.8627L17.2604 63.9674C19.1004 62.2926 21.4696 61.3162 23.9554 61.2083C26.4413 61.1004 28.8862 61.8677 30.8645 63.3768L74.807 96.8849L175.686 4.41274C178.02 2.07656 181.021 0.522593 184.276 -0.0345984C187.531 -0.59179 190.879 -0.124722 193.857 1.30212L246.561 26.7777C252.093 29.4552 255.617 35.0859 255.617 41.2677V137.5H191.672V69.2634L115.127 127.656L191.672 186.05V137.5H255.617V214.065C255.617 220.247 252.093 225.877 246.561 228.555L193.857 254.05Z" fill="#0066FF"/>
</g>
<defs>
<clipPath id="clip0_66_743">
<rect width="256" height="256" fill="white"/>
</clipPath>
</defs>
</svg>
