<svg width="1399" height="281" viewBox="0 0 1399 281" fill="none" xmlns="http://www.w3.org/2000/svg">
<rect width="1399" height="281" rx="20" fill="#0066FF" fill-opacity="0.2"/>
<rect x="1.5" y="1.5" width="1396" height="278" rx="18.5" stroke="#0066FF" stroke-opacity="0.5" stroke-width="3"/>
<path d="M46.0547 49.5352C46.0547 49.055 46.2012 48.644 46.4941 48.3022C46.7871 47.9604 47.2306 47.7896 47.8247 47.7896C48.4106 47.7896 48.8542 47.9604 49.1553 48.3022C49.4645 48.6359 49.6191 49.0469 49.6191 49.5352C49.6191 50.0153 49.4645 50.4181 49.1553 50.7437C48.846 51.0692 48.4025 51.2319 47.8247 51.2319C47.2388 51.2319 46.7952 51.0692 46.4941 50.7437C46.2012 50.41 46.0547 50.0072 46.0547 49.5352ZM65.6655 47.4966C65.6655 47.228 65.6126 46.988 65.5068 46.7764C65.401 46.5566 65.222 46.3573 64.9697 46.1782C64.7174 45.9992 64.3838 45.8364 63.9688 45.6899C63.5537 45.5353 63.0369 45.397 62.4185 45.2749C61.6616 45.1203 60.9699 44.9331 60.3433 44.7134C59.7248 44.4937 59.1958 44.2292 58.7563 43.9199C58.3088 43.6188 57.9629 43.2648 57.7188 42.8579C57.4746 42.4429 57.3525 41.9627 57.3525 41.4175C57.3525 40.8804 57.4787 40.3799 57.731 39.916C57.9832 39.444 58.3372 39.033 58.793 38.6831C59.2487 38.3332 59.7899 38.0565 60.4165 37.853C61.0513 37.6496 61.7471 37.5479 62.5039 37.5479C63.3177 37.5479 64.0501 37.6536 64.7012 37.8652C65.3522 38.0768 65.9056 38.3698 66.3613 38.7441C66.8171 39.1185 67.167 39.5579 67.4111 40.0625C67.6634 40.5589 67.7896 41.096 67.7896 41.6738H65.5312C65.5312 41.389 65.458 41.1123 65.3115 40.8438C65.165 40.5671 64.9616 40.3229 64.7012 40.1113C64.4408 39.8997 64.1234 39.7288 63.749 39.5986C63.3828 39.4684 62.9678 39.4033 62.5039 39.4033C62.0238 39.4033 61.6006 39.4562 61.2344 39.562C60.8763 39.6678 60.5793 39.8102 60.3433 39.9893C60.0991 40.1683 59.916 40.3758 59.7939 40.6118C59.6719 40.8478 59.6108 41.092 59.6108 41.3442C59.6108 41.6047 59.6597 41.8366 59.7573 42.04C59.855 42.2435 60.0259 42.4266 60.27 42.5894C60.506 42.7521 60.8234 42.8986 61.2222 43.0288C61.6291 43.159 62.1418 43.2852 62.7603 43.4072C63.5741 43.5781 64.3024 43.7775 64.9453 44.0054C65.5882 44.2251 66.1294 44.4896 66.5688 44.7988C67.0083 45.1162 67.342 45.4824 67.5698 45.8975C67.8058 46.3125 67.9238 46.7926 67.9238 47.3379C67.9238 47.9238 67.7896 48.4569 67.521 48.937C67.2606 49.4172 66.8944 49.8281 66.4224 50.1699C65.9504 50.5117 65.3848 50.7762 64.7256 50.9634C64.0664 51.1506 63.3462 51.2441 62.5649 51.2441C61.6698 51.2441 60.8722 51.1261 60.1724 50.8901C59.4725 50.646 58.8825 50.3245 58.4023 49.9258C57.9141 49.5352 57.5397 49.0794 57.2793 48.5586C57.027 48.0378 56.9009 47.4966 56.9009 46.9351H59.1592C59.1917 47.3989 59.3138 47.7896 59.5254 48.1069C59.7451 48.4243 60.0177 48.6807 60.3433 48.876C60.6606 49.0713 61.0146 49.2096 61.4053 49.291C61.7959 49.3724 62.1825 49.4131 62.5649 49.4131C63.1672 49.4131 63.6921 49.3439 64.1396 49.2056C64.5872 49.0591 64.9372 48.8597 65.1895 48.6074C65.3441 48.4528 65.4621 48.2819 65.5435 48.0947C65.6248 47.9076 65.6655 47.7082 65.6655 47.4966ZM75.6084 44.8354L73.9482 46.4346V51H71.6777V32.25H73.9482V43.7246L75.4253 42.1377L79.7588 37.792H82.5054L77.1587 43.2974L83.3232 51H80.4546L75.6084 44.8354ZM86.772 37.792H93.5225V49.0469H97.8315V51H86.772V49.0469H91.2642V39.7573H86.772V37.792ZM90.9712 34.3252C90.9712 34.1299 90.9997 33.9468 91.0566 33.7759C91.1217 33.605 91.2194 33.4585 91.3496 33.3364C91.4554 33.2306 91.5897 33.1493 91.7524 33.0923C91.9233 33.0272 92.1146 32.9946 92.3262 32.9946C92.5378 32.9946 92.7249 33.0272 92.8877 33.0923C93.0505 33.1493 93.1847 33.2306 93.2905 33.3364C93.4207 33.4504 93.5184 33.5928 93.5835 33.7637C93.6486 33.9346 93.6812 34.1217 93.6812 34.3252C93.6812 34.6914 93.5672 34.9966 93.3394 35.2407C93.1115 35.4849 92.7738 35.6069 92.3262 35.6069C91.8704 35.6069 91.5286 35.4849 91.3008 35.2407C91.0811 34.9966 90.9712 34.6914 90.9712 34.3252ZM101.537 32.25H108.287V49.0469H112.596V51H101.537V49.0469H106.029V34.2153H101.537V32.25ZM116.301 32.25H123.052V49.0469H127.361V51H116.301V49.0469H120.793V34.2153H116.301V32.25ZM139.489 47.4966C139.489 47.228 139.436 46.988 139.33 46.7764C139.224 46.5566 139.045 46.3573 138.793 46.1782C138.541 45.9992 138.207 45.8364 137.792 45.6899C137.377 45.5353 136.86 45.397 136.242 45.2749C135.485 45.1203 134.793 44.9331 134.167 44.7134C133.548 44.4937 133.019 44.2292 132.58 43.9199C132.132 43.6188 131.786 43.2648 131.542 42.8579C131.298 42.4429 131.176 41.9627 131.176 41.4175C131.176 40.8804 131.302 40.3799 131.554 39.916C131.806 39.444 132.16 39.033 132.616 38.6831C133.072 38.3332 133.613 38.0565 134.24 37.853C134.875 37.6496 135.57 37.5479 136.327 37.5479C137.141 37.5479 137.873 37.6536 138.524 37.8652C139.175 38.0768 139.729 38.3698 140.185 38.7441C140.64 39.1185 140.99 39.5579 141.234 40.0625C141.487 40.5589 141.613 41.096 141.613 41.6738H139.354C139.354 41.389 139.281 41.1123 139.135 40.8438C138.988 40.5671 138.785 40.3229 138.524 40.1113C138.264 39.8997 137.947 39.7288 137.572 39.5986C137.206 39.4684 136.791 39.4033 136.327 39.4033C135.847 39.4033 135.424 39.4562 135.058 39.562C134.7 39.6678 134.403 39.8102 134.167 39.9893C133.922 40.1683 133.739 40.3758 133.617 40.6118C133.495 40.8478 133.434 41.092 133.434 41.3442C133.434 41.6047 133.483 41.8366 133.581 42.04C133.678 42.2435 133.849 42.4266 134.093 42.5894C134.329 42.7521 134.647 42.8986 135.045 43.0288C135.452 43.159 135.965 43.2852 136.583 43.4072C137.397 43.5781 138.126 43.7775 138.769 44.0054C139.411 44.2251 139.953 44.4896 140.392 44.7988C140.832 45.1162 141.165 45.4824 141.393 45.8975C141.629 46.3125 141.747 46.7926 141.747 47.3379C141.747 47.9238 141.613 48.4569 141.344 48.937C141.084 49.4172 140.718 49.8281 140.246 50.1699C139.774 50.5117 139.208 50.7762 138.549 50.9634C137.89 51.1506 137.169 51.2441 136.388 51.2441C135.493 51.2441 134.695 51.1261 133.996 50.8901C133.296 50.646 132.706 50.3245 132.226 49.9258C131.737 49.5352 131.363 49.0794 131.103 48.5586C130.85 48.0378 130.724 47.4966 130.724 46.9351H132.982C133.015 47.3989 133.137 47.7896 133.349 48.1069C133.568 48.4243 133.841 48.6807 134.167 48.876C134.484 49.0713 134.838 49.2096 135.229 49.291C135.619 49.3724 136.006 49.4131 136.388 49.4131C136.99 49.4131 137.515 49.3439 137.963 49.2056C138.41 49.0591 138.76 48.8597 139.013 48.6074C139.167 48.4528 139.285 48.2819 139.367 48.0947C139.448 47.9076 139.489 47.7082 139.489 47.4966ZM170.056 55.4678C169.266 55.4434 168.583 55.2603 168.005 54.9185C167.427 54.5767 166.947 54.125 166.564 53.5635C166.198 53.0264 165.922 52.4242 165.734 51.7568C165.547 51.0977 165.454 50.4425 165.454 49.7915V47.7285C165.454 46.5566 165.173 45.7062 164.611 45.1772C164.058 44.6483 163.208 44.3797 162.06 44.3716V42.6016C163.208 42.6016 164.058 42.3411 164.611 41.8203C165.173 41.2913 165.454 40.4368 165.454 39.2568V37.1816C165.454 36.5225 165.539 35.8511 165.71 35.1675C165.889 34.4757 166.17 33.8573 166.552 33.312C166.91 32.7912 167.378 32.368 167.956 32.0425C168.534 31.7088 169.234 31.5298 170.056 31.5054L170.312 32.9092C169.726 32.9255 169.258 33.0638 168.908 33.3242C168.566 33.5846 168.31 33.9142 168.139 34.313C167.96 34.7199 167.846 35.1756 167.797 35.6802C167.749 36.1847 167.724 36.6852 167.724 37.1816V39.2568C167.724 40.2334 167.496 41.092 167.041 41.8325C166.593 42.5649 165.897 43.1224 164.953 43.5049C165.897 43.8792 166.593 44.4367 167.041 45.1772C167.488 45.9097 167.716 46.7601 167.724 47.7285V49.7915C167.724 50.2961 167.765 50.7965 167.846 51.293C167.928 51.7975 168.07 52.2492 168.273 52.6479C168.469 53.0549 168.729 53.3885 169.055 53.6489C169.388 53.9093 169.807 54.0477 170.312 54.064L170.056 55.4678ZM112.376 77.5425C112.376 78.1203 112.332 78.6777 112.242 79.2148C112.161 79.7438 112.039 80.2402 111.876 80.7041C111.656 81.3145 111.367 81.8638 111.009 82.3521C110.659 82.8322 110.236 83.231 109.74 83.5483C109.382 83.7681 108.987 83.939 108.556 84.061C108.132 84.1831 107.673 84.2441 107.176 84.2441C106.607 84.2441 106.086 84.175 105.614 84.0366C105.15 83.8983 104.731 83.6989 104.356 83.4385C104.177 83.3083 104.007 83.1659 103.844 83.0112C103.681 82.8566 103.526 82.6857 103.38 82.4985L103.27 84H101.195V65.25H103.453V72.208C103.64 71.972 103.848 71.7604 104.076 71.5732C104.304 71.3779 104.548 71.2111 104.808 71.0728C105.134 70.9019 105.492 70.7716 105.882 70.6821C106.273 70.5926 106.696 70.5479 107.152 70.5479C107.722 70.5479 108.246 70.6252 108.727 70.7798C109.207 70.9344 109.642 71.1501 110.033 71.4268C110.383 71.6872 110.696 72.0046 110.973 72.3789C111.249 72.7451 111.493 73.1561 111.705 73.6118C111.925 74.1245 112.092 74.6942 112.206 75.3208C112.319 75.9393 112.376 76.5944 112.376 77.2861V77.5425ZM110.118 77.2861C110.118 76.8711 110.09 76.4683 110.033 76.0776C109.984 75.6789 109.907 75.3045 109.801 74.9546C109.654 74.5233 109.463 74.1286 109.227 73.7705C108.991 73.4124 108.702 73.1317 108.36 72.9282C108.124 72.7817 107.86 72.6678 107.567 72.5864C107.274 72.505 106.948 72.4644 106.59 72.4644C106.2 72.4644 105.842 72.5173 105.516 72.623C105.191 72.7207 104.902 72.859 104.649 73.0381C104.389 73.2253 104.157 73.445 103.954 73.6973C103.758 73.9414 103.591 74.21 103.453 74.5029V80.2769C103.6 80.5698 103.771 80.8424 103.966 81.0947C104.169 81.3389 104.401 81.5545 104.662 81.7417C104.922 81.9289 105.215 82.0754 105.541 82.1812C105.866 82.2788 106.224 82.3276 106.615 82.3276C106.989 82.3276 107.331 82.2829 107.64 82.1934C107.949 82.0957 108.226 81.9574 108.47 81.7783C108.796 81.5505 109.068 81.2616 109.288 80.9116C109.508 80.5617 109.683 80.1711 109.813 79.7397C109.919 79.4142 109.996 79.0643 110.045 78.6899C110.094 78.3156 110.118 77.9331 110.118 77.5425V77.2861ZM124.626 84C124.537 83.8291 124.464 83.6175 124.407 83.3652C124.358 83.1048 124.321 82.8363 124.297 82.5596C124.069 82.7874 123.813 83.0031 123.528 83.2065C123.251 83.41 122.946 83.589 122.612 83.7437C122.271 83.8983 121.908 84.0203 121.526 84.1099C121.143 84.1994 120.736 84.2441 120.305 84.2441C119.605 84.2441 118.971 84.1424 118.401 83.939C117.839 83.7355 117.363 83.4588 116.973 83.1089C116.574 82.7671 116.265 82.3602 116.045 81.8882C115.833 81.408 115.728 80.8913 115.728 80.3379C115.728 79.6136 115.87 78.9788 116.155 78.4336C116.448 77.8883 116.859 77.4326 117.388 77.0664C117.917 76.7083 118.551 76.4398 119.292 76.2607C120.041 76.0817 120.875 75.9922 121.794 75.9922H124.26V74.9546C124.26 74.5558 124.187 74.1978 124.041 73.8804C123.894 73.563 123.687 73.2904 123.418 73.0625C123.149 72.8428 122.82 72.6719 122.429 72.5498C122.047 72.4277 121.615 72.3667 121.135 72.3667C120.688 72.3667 120.285 72.4237 119.927 72.5376C119.577 72.6515 119.28 72.8021 119.036 72.9893C118.792 73.1764 118.6 73.4002 118.462 73.6606C118.332 73.9129 118.267 74.1774 118.267 74.4541H115.996C116.004 73.974 116.126 73.502 116.362 73.0381C116.606 72.5742 116.956 72.1551 117.412 71.7808C117.86 71.4146 118.405 71.1175 119.048 70.8896C119.699 70.6618 120.435 70.5479 121.257 70.5479C122.006 70.5479 122.702 70.6414 123.345 70.8286C123.988 71.0076 124.545 71.2803 125.017 71.6465C125.481 72.0208 125.847 72.4847 126.116 73.0381C126.384 73.5915 126.519 74.2384 126.519 74.979V81.1191C126.519 81.5586 126.559 82.0265 126.641 82.5229C126.722 83.0112 126.836 83.4385 126.982 83.8047V84H124.626ZM120.635 82.2788C121.074 82.2788 121.485 82.2218 121.868 82.1079C122.25 81.994 122.6 81.8434 122.917 81.6562C123.227 81.4691 123.495 81.2575 123.723 81.0215C123.951 80.7773 124.13 80.5251 124.26 80.2646V77.5913H122.161C121.379 77.5913 120.696 77.6605 120.11 77.7988C119.532 77.929 119.072 78.1325 118.73 78.4092C118.486 78.6045 118.299 78.8364 118.169 79.105C118.047 79.3735 117.986 79.6787 117.986 80.0205C117.986 80.346 118.039 80.6471 118.145 80.9238C118.258 81.2005 118.425 81.4365 118.645 81.6318C118.865 81.8353 119.141 81.994 119.475 82.1079C119.809 82.2218 120.195 82.2788 120.635 82.2788ZM136.339 82.4131C136.746 82.4131 137.141 82.348 137.523 82.2178C137.914 82.0876 138.26 81.9045 138.561 81.6685C138.862 81.4406 139.102 81.172 139.281 80.8628C139.468 80.5454 139.566 80.2036 139.574 79.8374H141.71C141.702 80.4233 141.548 80.9849 141.247 81.522C140.954 82.0509 140.559 82.5148 140.062 82.9136C139.566 83.3205 138.996 83.646 138.354 83.8901C137.711 84.1261 137.039 84.2441 136.339 84.2441C135.338 84.2441 134.464 84.0651 133.715 83.707C132.966 83.349 132.344 82.8647 131.847 82.2544C131.343 81.6522 130.964 80.9564 130.712 80.167C130.46 79.3695 130.333 78.5312 130.333 77.6523V77.1396C130.333 76.2689 130.46 75.4347 130.712 74.6372C130.964 73.8397 131.343 73.1357 131.847 72.5254C132.344 71.9232 132.966 71.443 133.715 71.085C134.464 70.7269 135.338 70.5479 136.339 70.5479C137.121 70.5479 137.837 70.674 138.488 70.9263C139.147 71.1704 139.717 71.5041 140.197 71.9272C140.669 72.3586 141.039 72.8672 141.308 73.4531C141.576 74.0391 141.71 74.6657 141.71 75.333H139.574C139.566 74.9342 139.477 74.5599 139.306 74.21C139.143 73.8519 138.919 73.5386 138.634 73.27C138.349 73.0015 138.008 72.7899 137.609 72.6353C137.218 72.4806 136.795 72.4033 136.339 72.4033C135.639 72.4033 135.049 72.5457 134.569 72.8306C134.097 73.1073 133.715 73.4694 133.422 73.917C133.129 74.3727 132.917 74.8813 132.787 75.4429C132.665 76.0044 132.604 76.57 132.604 77.1396V77.6523C132.604 78.2301 132.665 78.8039 132.787 79.3735C132.917 79.9351 133.129 80.4396 133.422 80.8872C133.707 81.3429 134.085 81.7132 134.557 81.998C135.037 82.2747 135.631 82.4131 136.339 82.4131ZM149.432 77.8354L147.771 79.4346V84H145.501V65.25H147.771V76.7246L149.249 75.1377L153.582 70.792H156.329L150.982 76.2974L157.146 84H154.278L149.432 77.8354ZM159.826 77.2861C159.826 76.3014 159.944 75.3981 160.18 74.5762C160.424 73.7461 160.774 73.034 161.23 72.4399C161.686 71.8459 162.239 71.382 162.89 71.0483C163.541 70.7147 164.278 70.5479 165.1 70.5479C165.629 70.5479 166.113 70.6089 166.552 70.731C167 70.853 167.403 71.0321 167.761 71.2681C167.956 71.3901 168.139 71.5326 168.31 71.6953C168.489 71.8581 168.656 72.0371 168.811 72.2324L168.92 70.792H170.971V83.7192C170.971 84.59 170.833 85.3631 170.556 86.0386C170.288 86.714 169.909 87.2878 169.421 87.7598C168.924 88.2318 168.334 88.5898 167.651 88.834C166.967 89.0781 166.21 89.2002 165.38 89.2002C165.039 89.2002 164.648 89.1595 164.208 89.0781C163.769 89.0049 163.326 88.8787 162.878 88.6997C162.422 88.5288 161.983 88.2969 161.56 88.0039C161.145 87.7109 160.786 87.3488 160.485 86.9175L161.657 85.5625C161.934 85.8962 162.219 86.1769 162.512 86.4048C162.805 86.6408 163.102 86.828 163.403 86.9663C163.704 87.1047 164.005 87.2023 164.306 87.2593C164.607 87.3244 164.908 87.3569 165.209 87.3569C165.747 87.3569 166.231 87.2796 166.662 87.125C167.093 86.9704 167.464 86.7425 167.773 86.4414C168.074 86.1484 168.306 85.7822 168.469 85.3428C168.632 84.9033 168.713 84.3988 168.713 83.8291V82.6938C168.542 82.8892 168.359 83.0682 168.164 83.231C167.976 83.3937 167.773 83.5361 167.553 83.6582C167.211 83.8454 166.833 83.9878 166.418 84.0854C166.003 84.1912 165.555 84.2441 165.075 84.2441C164.27 84.2441 163.541 84.0732 162.89 83.7314C162.239 83.3896 161.69 82.9176 161.242 82.3154C160.786 81.7132 160.437 81.0052 160.192 80.1914C159.948 79.3695 159.826 78.4865 159.826 77.5425V77.2861ZM162.084 77.5425C162.084 78.1854 162.15 78.7957 162.28 79.3735C162.418 79.9513 162.634 80.46 162.927 80.8994C163.212 81.3389 163.578 81.6888 164.025 81.9492C164.473 82.2015 165.01 82.3276 165.637 82.3276C166.027 82.3276 166.377 82.2829 166.687 82.1934C167.004 82.0957 167.289 81.9614 167.541 81.7905C167.785 81.6196 168.005 81.4162 168.2 81.1802C168.396 80.9442 168.566 80.6838 168.713 80.3989V74.3442C168.566 74.0675 168.396 73.8153 168.2 73.5874C168.005 73.3595 167.781 73.1602 167.529 72.9893C167.277 72.8265 166.996 72.7004 166.687 72.6108C166.377 72.5132 166.035 72.4644 165.661 72.4644C165.026 72.4644 164.481 72.5946 164.025 72.855C163.578 73.1154 163.212 73.4653 162.927 73.9048C162.634 74.3524 162.418 74.8691 162.28 75.4551C162.15 76.0329 162.084 76.6432 162.084 77.2861V77.5425ZM183.661 70.5479C184.076 70.5479 184.507 70.5763 184.955 70.6333C185.41 70.6903 185.752 70.7676 185.98 70.8652L185.675 73.0747C185.235 72.9771 184.816 72.9079 184.417 72.8672C184.027 72.8184 183.616 72.7939 183.185 72.7939C182.631 72.7939 182.131 72.8631 181.683 73.0015C181.236 73.1317 180.845 73.327 180.511 73.5874C180.21 73.8153 179.946 74.096 179.718 74.4297C179.498 74.7552 179.315 75.1214 179.168 75.5283V84H176.898V70.792H179.046L179.144 72.562L179.156 72.8916C179.693 72.1673 180.336 71.5977 181.085 71.1826C181.842 70.7594 182.7 70.5479 183.661 70.5479ZM189.136 77.2739C189.136 76.3218 189.274 75.4388 189.551 74.625C189.827 73.8031 190.226 73.091 190.747 72.4888C191.26 71.8866 191.886 71.4146 192.627 71.0728C193.368 70.7228 194.202 70.5479 195.129 70.5479C196.065 70.5479 196.903 70.7228 197.644 71.0728C198.393 71.4146 199.028 71.8866 199.548 72.4888C200.061 73.091 200.456 73.8031 200.732 74.625C201.009 75.4388 201.147 76.3218 201.147 77.2739V77.5425C201.147 78.4946 201.009 79.3776 200.732 80.1914C200.456 81.0052 200.061 81.7132 199.548 82.3154C199.028 82.9176 198.397 83.3896 197.656 83.7314C196.916 84.0732 196.082 84.2441 195.154 84.2441C194.218 84.2441 193.376 84.0732 192.627 83.7314C191.886 83.3896 191.26 82.9176 190.747 82.3154C190.226 81.7132 189.827 81.0052 189.551 80.1914C189.274 79.3776 189.136 78.4946 189.136 77.5425V77.2739ZM191.394 77.5425C191.394 78.1935 191.471 78.8161 191.626 79.4102C191.781 79.9961 192.017 80.5129 192.334 80.9604C192.643 81.408 193.034 81.762 193.506 82.0225C193.978 82.2829 194.527 82.4131 195.154 82.4131C195.772 82.4131 196.313 82.2829 196.777 82.0225C197.249 81.762 197.644 81.408 197.961 80.9604C198.271 80.5129 198.503 79.9961 198.657 79.4102C198.812 78.8161 198.889 78.1935 198.889 77.5425V77.2739C198.889 76.631 198.808 76.0166 198.645 75.4307C198.49 74.8366 198.258 74.3158 197.949 73.8682C197.632 73.4206 197.237 73.0666 196.765 72.8062C196.301 72.5376 195.756 72.4033 195.129 72.4033C194.503 72.4033 193.958 72.5376 193.494 72.8062C193.03 73.0666 192.643 73.4206 192.334 73.8682C192.017 74.3158 191.781 74.8366 191.626 75.4307C191.471 76.0166 191.394 76.631 191.394 77.2739V77.5425ZM213.239 84L213.104 82.1812C212.665 82.8322 212.116 83.3408 211.457 83.707C210.797 84.0651 210.036 84.2441 209.174 84.2441C208.482 84.2441 207.855 84.1383 207.294 83.9268C206.732 83.707 206.252 83.3693 205.854 82.9136C205.455 82.4578 205.146 81.88 204.926 81.1802C204.714 80.4722 204.608 79.6258 204.608 78.6411V70.792H206.867V78.6655C206.867 79.3817 206.924 79.9757 207.038 80.4478C207.152 80.9198 207.322 81.2941 207.55 81.5708C207.778 81.8556 208.055 82.055 208.38 82.1689C208.714 82.2829 209.097 82.3398 209.528 82.3398C210.032 82.3398 210.484 82.2829 210.883 82.1689C211.282 82.0469 211.627 81.88 211.92 81.6685C212.165 81.4976 212.376 81.2941 212.555 81.0581C212.742 80.814 212.897 80.5495 213.019 80.2646V70.792H215.29V84H213.239ZM219.3 84V70.792H221.326L221.485 72.7451C221.68 72.4684 221.892 72.2161 222.12 71.9883C222.356 71.7523 222.604 71.5488 222.864 71.3779C223.255 71.1175 223.678 70.9181 224.134 70.7798C224.598 70.6333 225.086 70.556 225.599 70.5479C226.29 70.5479 226.917 70.6455 227.479 70.8408C228.048 71.0361 228.532 71.3413 228.931 71.7563C229.33 72.1714 229.635 72.7004 229.847 73.3433C230.066 73.978 230.176 74.7349 230.176 75.6138V84H227.918V75.6626C227.918 75.0767 227.853 74.5802 227.723 74.1733C227.592 73.7664 227.401 73.4368 227.149 73.1846C226.889 72.9323 226.571 72.7492 226.197 72.6353C225.831 72.5213 225.407 72.4644 224.927 72.4644C224.512 72.4644 224.126 72.5254 223.768 72.6475C223.41 72.7614 223.08 72.9201 222.779 73.1235C222.535 73.3026 222.307 73.5101 222.095 73.7461C221.892 73.9821 221.713 74.2425 221.558 74.5273V84H219.3ZM233.637 77.2861C233.637 76.3014 233.759 75.3981 234.003 74.5762C234.256 73.7461 234.614 73.034 235.078 72.4399C235.533 71.8459 236.087 71.382 236.738 71.0483C237.389 70.7147 238.117 70.5479 238.923 70.5479C239.712 70.5479 240.4 70.6821 240.986 70.9507C241.58 71.2111 242.093 71.5936 242.524 72.0981V65.25H244.782V84H242.707L242.609 82.6084C242.17 83.1455 241.645 83.5524 241.035 83.8291C240.424 84.1058 239.712 84.2441 238.898 84.2441C238.101 84.2441 237.377 84.0732 236.726 83.7314C236.083 83.3896 235.533 82.9176 235.078 82.3154C234.622 81.7132 234.268 81.0052 234.016 80.1914C233.763 79.3695 233.637 78.4865 233.637 77.5425V77.2861ZM235.896 77.5425C235.896 78.1854 235.965 78.7957 236.103 79.3735C236.241 79.9513 236.457 80.46 236.75 80.8994C237.035 81.3389 237.401 81.6888 237.849 81.9492C238.296 82.2015 238.833 82.3276 239.46 82.3276C240.217 82.3276 240.843 82.1567 241.34 81.8149C241.836 81.4731 242.231 81.0133 242.524 80.4355V74.3076C242.231 73.7705 241.836 73.3311 241.34 72.9893C240.843 72.6393 240.225 72.4644 239.484 72.4644C238.85 72.4644 238.304 72.5946 237.849 72.855C237.401 73.1154 237.035 73.4653 236.75 73.9048C236.457 74.3524 236.241 74.8691 236.103 75.4551C235.965 76.0329 235.896 76.6432 235.896 77.2861V77.5425ZM253.37 82.5352C253.37 82.055 253.517 81.644 253.81 81.3022C254.103 80.9604 254.546 80.7896 255.14 80.7896C255.726 80.7896 256.17 80.9604 256.471 81.3022C256.78 81.6359 256.935 82.0469 256.935 82.5352C256.935 83.0153 256.78 83.4181 256.471 83.7437C256.161 84.0692 255.718 84.2319 255.14 84.2319C254.554 84.2319 254.111 84.0692 253.81 83.7437C253.517 83.41 253.37 83.0072 253.37 82.5352ZM253.37 71.8418C253.37 71.3617 253.517 70.9507 253.81 70.6089C254.103 70.2671 254.546 70.0962 255.14 70.0962C255.726 70.0962 256.17 70.2671 256.471 70.6089C256.78 70.9425 256.935 71.3535 256.935 71.8418C256.935 72.3219 256.78 72.7248 256.471 73.0503C256.161 73.3758 255.718 73.5386 255.14 73.5386C254.554 73.5386 254.111 73.3758 253.81 73.0503C253.517 72.7166 253.37 72.3138 253.37 71.8418ZM284.865 78.9951H281.642L280.666 84H278.92L279.896 78.9951H276.979V77.3228H280.214L281.056 73.0015H277.907V71.3047H281.386L282.387 66.2266H284.132L283.131 71.3047H286.354L287.355 66.2266H289.101L288.1 71.3047H290.602V73.0015H287.77L286.928 77.3228H289.687V78.9951H286.61L285.634 84H283.888L284.865 78.9951ZM281.959 77.3228H285.182L286.024 73.0015H282.802L281.959 77.3228ZM304.28 77.2007C304.28 78.3319 304.15 79.3369 303.89 80.2158C303.629 81.0866 303.255 81.819 302.767 82.4131C302.278 83.0153 301.68 83.471 300.972 83.7803C300.264 84.0895 299.454 84.2441 298.543 84.2441C297.64 84.2441 296.83 84.0936 296.114 83.7925C295.398 83.4832 294.791 83.0234 294.295 82.4131C293.799 81.819 293.42 81.0866 293.16 80.2158C292.899 79.3369 292.769 78.3319 292.769 77.2007V73.0381C292.769 71.9069 292.899 70.9059 293.16 70.0352C293.42 69.1562 293.799 68.4157 294.295 67.8135C294.783 67.2113 295.381 66.7555 296.089 66.4463C296.806 66.1289 297.615 65.9702 298.519 65.9702C299.43 65.9702 300.24 66.1289 300.948 66.4463C301.664 66.7555 302.27 67.2113 302.767 67.8135C303.255 68.4157 303.629 69.1562 303.89 70.0352C304.15 70.9059 304.28 71.9069 304.28 73.0381V77.2007ZM295.04 76.749L301.961 71.439C301.896 70.853 301.778 70.3363 301.607 69.8887C301.444 69.4329 301.22 69.0545 300.936 68.7534C300.659 68.4442 300.317 68.2122 299.91 68.0576C299.511 67.903 299.048 67.8257 298.519 67.8257C297.981 67.8257 297.505 67.9111 297.09 68.082C296.683 68.2448 296.338 68.4849 296.053 68.8022C295.711 69.201 295.455 69.7178 295.284 70.3525C295.121 70.9792 295.04 71.7075 295.04 72.5376V75.5161C295.04 75.7196 295.04 75.923 295.04 76.1265C295.04 76.3299 295.04 76.5374 295.04 76.749ZM302.01 77.6768V75.1621C302.01 75.04 302.01 74.8081 302.01 74.4663C302.01 74.1164 302.01 73.8275 302.01 73.5996L295.101 78.8853C295.174 79.4793 295.304 80.0042 295.491 80.46C295.678 80.9076 295.923 81.2778 296.224 81.5708C296.5 81.8475 296.834 82.0591 297.225 82.2056C297.615 82.3439 298.055 82.4131 298.543 82.4131C299.056 82.4131 299.511 82.3358 299.91 82.1812C300.309 82.0265 300.647 81.8027 300.923 81.5098C301.298 81.111 301.57 80.5902 301.741 79.9473C301.92 79.3044 302.01 78.5475 302.01 77.6768ZM319.045 77.2007C319.045 78.3319 318.915 79.3369 318.654 80.2158C318.394 81.0866 318.02 81.819 317.531 82.4131C317.043 83.0153 316.445 83.471 315.737 83.7803C315.029 84.0895 314.219 84.2441 313.308 84.2441C312.404 84.2441 311.595 84.0936 310.878 83.7925C310.162 83.4832 309.556 83.0234 309.06 82.4131C308.563 81.819 308.185 81.0866 307.924 80.2158C307.664 79.3369 307.534 78.3319 307.534 77.2007V73.0381C307.534 71.9069 307.664 70.9059 307.924 70.0352C308.185 69.1562 308.563 68.4157 309.06 67.8135C309.548 67.2113 310.146 66.7555 310.854 66.4463C311.57 66.1289 312.38 65.9702 313.283 65.9702C314.195 65.9702 315.004 66.1289 315.712 66.4463C316.429 66.7555 317.035 67.2113 317.531 67.8135C318.02 68.4157 318.394 69.1562 318.654 70.0352C318.915 70.9059 319.045 71.9069 319.045 73.0381V77.2007ZM309.804 76.749L316.726 71.439C316.66 70.853 316.542 70.3363 316.372 69.8887C316.209 69.4329 315.985 69.0545 315.7 68.7534C315.424 68.4442 315.082 68.2122 314.675 68.0576C314.276 67.903 313.812 67.8257 313.283 67.8257C312.746 67.8257 312.27 67.9111 311.855 68.082C311.448 68.2448 311.102 68.4849 310.817 68.8022C310.476 69.201 310.219 69.7178 310.048 70.3525C309.886 70.9792 309.804 71.7075 309.804 72.5376V75.5161C309.804 75.7196 309.804 75.923 309.804 76.1265C309.804 76.3299 309.804 76.5374 309.804 76.749ZM316.774 77.6768V75.1621C316.774 75.04 316.774 74.8081 316.774 74.4663C316.774 74.1164 316.774 73.8275 316.774 73.5996L309.865 78.8853C309.938 79.4793 310.069 80.0042 310.256 80.46C310.443 80.9076 310.687 81.2778 310.988 81.5708C311.265 81.8475 311.599 82.0591 311.989 82.2056C312.38 82.3439 312.819 82.4131 313.308 82.4131C313.82 82.4131 314.276 82.3358 314.675 82.1812C315.074 82.0265 315.411 81.8027 315.688 81.5098C316.062 81.111 316.335 80.5902 316.506 79.9473C316.685 79.3044 316.774 78.5475 316.774 77.6768ZM333.907 67.4961L326.546 84H324.178L331.515 68.2041H321.896V66.2266H333.907V67.4961ZM340.054 74.0269H341.665C342.235 74.0269 342.735 73.9495 343.167 73.7949C343.606 73.6403 343.976 73.4287 344.277 73.1602C344.57 72.8916 344.794 72.5701 344.949 72.1958C345.103 71.8215 345.181 71.4105 345.181 70.9629C345.181 70.4339 345.111 69.9741 344.973 69.5835C344.835 69.1847 344.631 68.8551 344.363 68.5947C344.102 68.3424 343.777 68.1553 343.386 68.0332C343.004 67.903 342.564 67.8379 342.068 67.8379C341.588 67.8379 341.148 67.9111 340.75 68.0576C340.359 68.196 340.025 68.3994 339.749 68.668C339.464 68.9365 339.244 69.258 339.089 69.6323C338.935 70.0067 338.857 70.4258 338.857 70.8896H336.587C336.587 70.2142 336.717 69.5794 336.978 68.9854C337.246 68.3831 337.62 67.8582 338.101 67.4106C338.581 66.9712 339.154 66.6253 339.822 66.373C340.497 66.1126 341.246 65.9824 342.068 65.9824C342.865 65.9824 343.594 66.0923 344.253 66.312C344.912 66.5236 345.478 66.841 345.95 67.2642C346.422 67.6873 346.788 68.2122 347.048 68.8389C347.309 69.4655 347.439 70.1898 347.439 71.0117C347.439 71.3535 347.386 71.7075 347.28 72.0737C347.174 72.4399 347.012 72.7939 346.792 73.1357C346.572 73.4857 346.287 73.8153 345.938 74.1245C345.596 74.4256 345.185 74.6779 344.705 74.8813C345.282 75.0685 345.763 75.3127 346.145 75.6138C346.536 75.9149 346.849 76.2526 347.085 76.627C347.313 77.0013 347.472 77.396 347.561 77.811C347.659 78.2261 347.708 78.637 347.708 79.0439C347.708 79.874 347.565 80.6105 347.28 81.2534C346.995 81.8963 346.601 82.4375 346.096 82.877C345.592 83.3245 344.993 83.6663 344.302 83.9023C343.618 84.1302 342.878 84.2441 342.08 84.2441C341.299 84.2441 340.562 84.1343 339.871 83.9146C339.187 83.6948 338.593 83.3734 338.088 82.9502C337.584 82.527 337.181 82.0103 336.88 81.3999C336.587 80.7896 336.44 80.0938 336.44 79.3125H338.699C338.699 79.7764 338.776 80.1995 338.931 80.582C339.093 80.9645 339.321 81.29 339.614 81.5586C339.907 81.8271 340.261 82.0347 340.676 82.1812C341.099 82.3276 341.567 82.4009 342.08 82.4009C342.593 82.4009 343.057 82.3358 343.472 82.2056C343.887 82.0672 344.241 81.8597 344.534 81.583C344.827 81.3063 345.05 80.9645 345.205 80.5576C345.368 80.1426 345.449 79.6543 345.449 79.0928C345.449 78.5394 345.356 78.0633 345.168 77.6646C344.989 77.2576 344.737 76.9199 344.412 76.6514C344.078 76.3828 343.675 76.1834 343.203 76.0532C342.739 75.923 342.227 75.8579 341.665 75.8579H340.054V74.0269ZM362.069 76.1509H354.672V84H352.389V66.2266H363.302V68.1553H354.672V74.2344H362.069V76.1509ZM376.834 76.1509H369.437V84H367.154V66.2266H378.067V68.1553H369.437V74.2344H376.834V76.1509ZM386.142 71.8418C386.142 71.3617 386.289 70.9507 386.582 70.6089C386.875 70.2671 387.318 70.0962 387.912 70.0962C388.498 70.0962 388.942 70.2671 389.243 70.6089C389.552 70.9425 389.707 71.3535 389.707 71.8418C389.707 72.3219 389.552 72.7248 389.243 73.0503C388.933 73.3758 388.49 73.5386 387.912 73.5386C387.326 73.5386 386.883 73.3758 386.582 73.0503C386.289 72.7166 386.142 72.3138 386.142 71.8418ZM389.047 83.4751C389.047 84.2889 388.856 85.119 388.474 85.9653C388.091 86.8117 387.574 87.5238 386.923 88.1016L385.52 87.3325C385.91 86.7629 386.187 86.1566 386.35 85.5137C386.512 84.8708 386.594 84.2035 386.594 83.5117V81.3267H389.047V83.4751ZM106.81 115.413C107.217 115.413 107.612 115.348 107.994 115.218C108.385 115.088 108.731 114.904 109.032 114.668C109.333 114.441 109.573 114.172 109.752 113.863C109.939 113.545 110.037 113.204 110.045 112.837H112.181C112.173 113.423 112.018 113.985 111.717 114.522C111.424 115.051 111.03 115.515 110.533 115.914C110.037 116.32 109.467 116.646 108.824 116.89C108.181 117.126 107.51 117.244 106.81 117.244C105.809 117.244 104.934 117.065 104.186 116.707C103.437 116.349 102.814 115.865 102.318 115.254C101.813 114.652 101.435 113.956 101.183 113.167C100.93 112.369 100.804 111.531 100.804 110.652V110.14C100.804 109.269 100.93 108.435 101.183 107.637C101.435 106.84 101.813 106.136 102.318 105.525C102.814 104.923 103.437 104.443 104.186 104.085C104.934 103.727 105.809 103.548 106.81 103.548C107.591 103.548 108.307 103.674 108.958 103.926C109.618 104.17 110.187 104.504 110.667 104.927C111.139 105.359 111.51 105.867 111.778 106.453C112.047 107.039 112.181 107.666 112.181 108.333H110.045C110.037 107.934 109.947 107.56 109.776 107.21C109.614 106.852 109.39 106.539 109.105 106.27C108.82 106.001 108.478 105.79 108.08 105.635C107.689 105.481 107.266 105.403 106.81 105.403C106.11 105.403 105.52 105.546 105.04 105.831C104.568 106.107 104.186 106.469 103.893 106.917C103.6 107.373 103.388 107.881 103.258 108.443C103.136 109.004 103.075 109.57 103.075 110.14V110.652C103.075 111.23 103.136 111.804 103.258 112.374C103.388 112.935 103.6 113.44 103.893 113.887C104.177 114.343 104.556 114.713 105.028 114.998C105.508 115.275 106.102 115.413 106.81 115.413ZM115.312 110.274C115.312 109.322 115.451 108.439 115.728 107.625C116.004 106.803 116.403 106.091 116.924 105.489C117.437 104.887 118.063 104.415 118.804 104.073C119.544 103.723 120.378 103.548 121.306 103.548C122.242 103.548 123.08 103.723 123.821 104.073C124.569 104.415 125.204 104.887 125.725 105.489C126.238 106.091 126.632 106.803 126.909 107.625C127.186 108.439 127.324 109.322 127.324 110.274V110.542C127.324 111.495 127.186 112.378 126.909 113.191C126.632 114.005 126.238 114.713 125.725 115.315C125.204 115.918 124.574 116.39 123.833 116.731C123.092 117.073 122.258 117.244 121.331 117.244C120.395 117.244 119.552 117.073 118.804 116.731C118.063 116.39 117.437 115.918 116.924 115.315C116.403 114.713 116.004 114.005 115.728 113.191C115.451 112.378 115.312 111.495 115.312 110.542V110.274ZM117.571 110.542C117.571 111.194 117.648 111.816 117.803 112.41C117.957 112.996 118.193 113.513 118.511 113.96C118.82 114.408 119.211 114.762 119.683 115.022C120.155 115.283 120.704 115.413 121.331 115.413C121.949 115.413 122.49 115.283 122.954 115.022C123.426 114.762 123.821 114.408 124.138 113.96C124.447 113.513 124.679 112.996 124.834 112.41C124.989 111.816 125.066 111.194 125.066 110.542V110.274C125.066 109.631 124.985 109.017 124.822 108.431C124.667 107.837 124.435 107.316 124.126 106.868C123.809 106.421 123.414 106.067 122.942 105.806C122.478 105.538 121.933 105.403 121.306 105.403C120.68 105.403 120.134 105.538 119.67 105.806C119.207 106.067 118.82 106.421 118.511 106.868C118.193 107.316 117.957 107.837 117.803 108.431C117.648 109.017 117.571 109.631 117.571 110.274V110.542ZM131.066 98.25H137.816V115.047H142.125V117H131.066V115.047H135.558V100.215H131.066V98.25ZM144.842 110.274C144.842 109.322 144.98 108.439 145.257 107.625C145.534 106.803 145.932 106.091 146.453 105.489C146.966 104.887 147.592 104.415 148.333 104.073C149.074 103.723 149.908 103.548 150.835 103.548C151.771 103.548 152.61 103.723 153.35 104.073C154.099 104.415 154.734 104.887 155.254 105.489C155.767 106.091 156.162 106.803 156.438 107.625C156.715 108.439 156.854 109.322 156.854 110.274V110.542C156.854 111.495 156.715 112.378 156.438 113.191C156.162 114.005 155.767 114.713 155.254 115.315C154.734 115.918 154.103 116.39 153.362 116.731C152.622 117.073 151.788 117.244 150.86 117.244C149.924 117.244 149.082 117.073 148.333 116.731C147.592 116.39 146.966 115.918 146.453 115.315C145.932 114.713 145.534 114.005 145.257 113.191C144.98 112.378 144.842 111.495 144.842 110.542V110.274ZM147.1 110.542C147.1 111.194 147.177 111.816 147.332 112.41C147.487 112.996 147.723 113.513 148.04 113.96C148.349 114.408 148.74 114.762 149.212 115.022C149.684 115.283 150.233 115.413 150.86 115.413C151.478 115.413 152.02 115.283 152.483 115.022C152.955 114.762 153.35 114.408 153.667 113.96C153.977 113.513 154.209 112.996 154.363 112.41C154.518 111.816 154.595 111.194 154.595 110.542V110.274C154.595 109.631 154.514 109.017 154.351 108.431C154.196 107.837 153.965 107.316 153.655 106.868C153.338 106.421 152.943 106.067 152.471 105.806C152.007 105.538 151.462 105.403 150.835 105.403C150.209 105.403 149.664 105.538 149.2 105.806C148.736 106.067 148.349 106.421 148.04 106.868C147.723 107.316 147.487 107.837 147.332 108.431C147.177 109.017 147.1 109.631 147.1 110.274V110.542ZM168.896 103.548C169.311 103.548 169.742 103.576 170.19 103.633C170.646 103.69 170.987 103.768 171.215 103.865L170.91 106.075C170.471 105.977 170.052 105.908 169.653 105.867C169.262 105.818 168.851 105.794 168.42 105.794C167.867 105.794 167.366 105.863 166.918 106.001C166.471 106.132 166.08 106.327 165.747 106.587C165.445 106.815 165.181 107.096 164.953 107.43C164.733 107.755 164.55 108.121 164.404 108.528V117H162.133V103.792H164.282L164.379 105.562L164.392 105.892C164.929 105.167 165.572 104.598 166.32 104.183C167.077 103.759 167.936 103.548 168.896 103.548ZM179.547 115.535C179.547 115.055 179.693 114.644 179.986 114.302C180.279 113.96 180.723 113.79 181.317 113.79C181.903 113.79 182.346 113.96 182.647 114.302C182.957 114.636 183.111 115.047 183.111 115.535C183.111 116.015 182.957 116.418 182.647 116.744C182.338 117.069 181.895 117.232 181.317 117.232C180.731 117.232 180.287 117.069 179.986 116.744C179.693 116.41 179.547 116.007 179.547 115.535ZM179.547 104.842C179.547 104.362 179.693 103.951 179.986 103.609C180.279 103.267 180.723 103.096 181.317 103.096C181.903 103.096 182.346 103.267 182.647 103.609C182.957 103.943 183.111 104.354 183.111 104.842C183.111 105.322 182.957 105.725 182.647 106.05C182.338 106.376 181.895 106.539 181.317 106.539C180.731 106.539 180.287 106.376 179.986 106.05C179.693 105.717 179.547 105.314 179.547 104.842ZM205.805 117L202.997 103.792H204.999L206.537 112.215L206.806 114.107L207.135 112.215L209.247 103.792H210.7L212.799 112.215L213.153 114.29L213.483 112.215L214.948 103.792H216.95L214.142 117H212.36L210.297 108.907L209.955 106.856L209.625 108.907L207.587 117H205.805ZM221.558 105.757C221.737 105.489 221.937 105.245 222.156 105.025C222.376 104.797 222.608 104.598 222.852 104.427C223.243 104.142 223.67 103.926 224.134 103.78C224.606 103.633 225.106 103.556 225.635 103.548C226.327 103.548 226.954 103.65 227.515 103.853C228.085 104.048 228.569 104.358 228.968 104.781C229.367 105.204 229.672 105.741 229.883 106.392C230.103 107.035 230.213 107.8 230.213 108.687V117H227.955V108.663C227.955 108.142 227.894 107.686 227.771 107.295C227.649 106.897 227.47 106.567 227.234 106.307C226.982 106.022 226.665 105.81 226.282 105.672C225.9 105.525 225.46 105.456 224.964 105.464C224.557 105.464 224.17 105.521 223.804 105.635C223.438 105.749 223.1 105.912 222.791 106.124C222.547 106.286 222.319 106.478 222.107 106.697C221.904 106.909 221.721 107.145 221.558 107.405V117H219.3V98.25H221.558V105.757ZM234.418 103.792H241.169V115.047H245.478V117H234.418V115.047H238.911V105.757H234.418V103.792ZM238.618 100.325C238.618 100.13 238.646 99.9468 238.703 99.7759C238.768 99.605 238.866 99.4585 238.996 99.3364C239.102 99.2306 239.236 99.1493 239.399 99.0923C239.57 99.0272 239.761 98.9946 239.973 98.9946C240.184 98.9946 240.371 99.0272 240.534 99.0923C240.697 99.1493 240.831 99.2306 240.937 99.3364C241.067 99.4504 241.165 99.5928 241.23 99.7637C241.295 99.9346 241.328 100.122 241.328 100.325C241.328 100.691 241.214 100.997 240.986 101.241C240.758 101.485 240.42 101.607 239.973 101.607C239.517 101.607 239.175 101.485 238.947 101.241C238.728 100.997 238.618 100.691 238.618 100.325ZM254.176 100.594V103.792H259.205V105.538H254.176V112.715C254.176 113.228 254.241 113.651 254.371 113.985C254.501 114.319 254.68 114.583 254.908 114.778C255.136 114.982 255.396 115.124 255.689 115.206C255.991 115.287 256.308 115.328 256.642 115.328C256.886 115.328 257.138 115.315 257.398 115.291C257.659 115.258 257.915 115.222 258.167 115.181C258.412 115.14 258.639 115.1 258.851 115.059C259.071 115.01 259.25 114.97 259.388 114.937L259.706 116.536C259.518 116.65 259.291 116.752 259.022 116.841C258.753 116.923 258.46 116.992 258.143 117.049C257.826 117.114 257.488 117.163 257.13 117.195C256.78 117.228 256.43 117.244 256.08 117.244C255.494 117.244 254.945 117.163 254.432 117C253.928 116.829 253.488 116.561 253.114 116.194C252.739 115.836 252.442 115.372 252.223 114.803C252.011 114.225 251.905 113.529 251.905 112.715V105.538H248.438V103.792H251.905V100.594H254.176ZM269.429 117.244C268.501 117.244 267.646 117.085 266.865 116.768C266.092 116.451 265.429 116.007 264.875 115.438C264.322 114.868 263.891 114.192 263.582 113.411C263.272 112.63 263.118 111.779 263.118 110.86V110.347C263.118 109.281 263.289 108.329 263.63 107.491C263.972 106.644 264.428 105.928 264.998 105.342C265.559 104.764 266.198 104.321 266.914 104.012C267.638 103.702 268.379 103.548 269.136 103.548C270.088 103.548 270.918 103.715 271.626 104.048C272.342 104.374 272.936 104.826 273.408 105.403C273.88 105.989 274.23 106.677 274.458 107.466C274.694 108.256 274.812 109.11 274.812 110.03V111.043H265.376V111.128C265.433 111.771 265.559 112.337 265.754 112.825C265.958 113.313 266.235 113.745 266.584 114.119C266.943 114.518 267.374 114.831 267.878 115.059C268.383 115.287 268.94 115.401 269.551 115.401C270.356 115.401 271.073 115.238 271.699 114.913C272.326 114.587 272.847 114.156 273.262 113.619L274.641 114.693C274.202 115.36 273.542 115.954 272.664 116.475C271.793 116.988 270.715 117.244 269.429 117.244ZM269.136 105.403C268.68 105.403 268.249 105.489 267.842 105.66C267.435 105.822 267.069 106.062 266.743 106.38C266.418 106.705 266.141 107.104 265.913 107.576C265.693 108.04 265.539 108.577 265.449 109.188H272.554V109.078C272.554 108.671 272.476 108.235 272.322 107.771C272.167 107.299 271.951 106.893 271.675 106.551C271.398 106.209 271.048 105.932 270.625 105.721C270.21 105.509 269.714 105.403 269.136 105.403ZM282.79 104.842C282.79 104.362 282.936 103.951 283.229 103.609C283.522 103.267 283.965 103.096 284.56 103.096C285.146 103.096 285.589 103.267 285.89 103.609C286.199 103.943 286.354 104.354 286.354 104.842C286.354 105.322 286.199 105.725 285.89 106.05C285.581 106.376 285.137 106.539 284.56 106.539C283.974 106.539 283.53 106.376 283.229 106.05C282.936 105.717 282.79 105.314 282.79 104.842ZM285.695 116.475C285.695 117.289 285.504 118.119 285.121 118.965C284.739 119.812 284.222 120.524 283.571 121.102L282.167 120.333C282.558 119.763 282.834 119.157 282.997 118.514C283.16 117.871 283.241 117.203 283.241 116.512V114.327H285.695V116.475ZM101.17 155.078V136.792H103.233L103.343 138.232C103.522 138.005 103.718 137.801 103.929 137.622C104.141 137.435 104.369 137.276 104.613 137.146C104.955 136.951 105.333 136.804 105.748 136.707C106.171 136.601 106.623 136.548 107.103 136.548C107.949 136.548 108.698 136.715 109.349 137.048C110 137.382 110.545 137.846 110.985 138.44C111.424 139.034 111.758 139.746 111.986 140.576C112.214 141.398 112.328 142.301 112.328 143.286V143.542C112.328 144.486 112.214 145.369 111.986 146.191C111.758 147.005 111.424 147.713 110.985 148.315C110.545 148.918 110 149.39 109.349 149.731C108.706 150.073 107.97 150.244 107.14 150.244C106.635 150.244 106.163 150.191 105.724 150.085C105.292 149.98 104.902 149.829 104.552 149.634C104.34 149.512 104.141 149.377 103.954 149.231C103.766 149.076 103.591 148.91 103.429 148.73V155.078H101.17ZM110.069 143.286C110.069 142.643 109.996 142.033 109.85 141.455C109.711 140.869 109.496 140.352 109.203 139.905C108.902 139.465 108.523 139.115 108.067 138.855C107.612 138.595 107.066 138.464 106.432 138.464C106.082 138.464 105.756 138.505 105.455 138.586C105.162 138.668 104.898 138.786 104.662 138.94C104.401 139.095 104.169 139.286 103.966 139.514C103.762 139.742 103.583 139.994 103.429 140.271V146.631C103.567 146.875 103.726 147.103 103.905 147.314C104.084 147.526 104.287 147.705 104.515 147.852C104.776 148.022 105.064 148.157 105.382 148.254C105.707 148.352 106.065 148.401 106.456 148.401C107.083 148.401 107.624 148.271 108.08 148.01C108.535 147.742 108.91 147.384 109.203 146.936C109.496 146.488 109.711 145.972 109.85 145.386C109.996 144.8 110.069 144.185 110.069 143.542V143.286ZM124.626 150C124.537 149.829 124.464 149.618 124.407 149.365C124.358 149.105 124.321 148.836 124.297 148.56C124.069 148.787 123.813 149.003 123.528 149.207C123.251 149.41 122.946 149.589 122.612 149.744C122.271 149.898 121.908 150.02 121.526 150.11C121.143 150.199 120.736 150.244 120.305 150.244C119.605 150.244 118.971 150.142 118.401 149.939C117.839 149.736 117.363 149.459 116.973 149.109C116.574 148.767 116.265 148.36 116.045 147.888C115.833 147.408 115.728 146.891 115.728 146.338C115.728 145.614 115.87 144.979 116.155 144.434C116.448 143.888 116.859 143.433 117.388 143.066C117.917 142.708 118.551 142.44 119.292 142.261C120.041 142.082 120.875 141.992 121.794 141.992H124.26V140.955C124.26 140.556 124.187 140.198 124.041 139.88C123.894 139.563 123.687 139.29 123.418 139.062C123.149 138.843 122.82 138.672 122.429 138.55C122.047 138.428 121.615 138.367 121.135 138.367C120.688 138.367 120.285 138.424 119.927 138.538C119.577 138.652 119.28 138.802 119.036 138.989C118.792 139.176 118.6 139.4 118.462 139.661C118.332 139.913 118.267 140.177 118.267 140.454H115.996C116.004 139.974 116.126 139.502 116.362 139.038C116.606 138.574 116.956 138.155 117.412 137.781C117.86 137.415 118.405 137.118 119.048 136.89C119.699 136.662 120.435 136.548 121.257 136.548C122.006 136.548 122.702 136.641 123.345 136.829C123.988 137.008 124.545 137.28 125.017 137.646C125.481 138.021 125.847 138.485 126.116 139.038C126.384 139.591 126.519 140.238 126.519 140.979V147.119C126.519 147.559 126.559 148.027 126.641 148.523C126.722 149.011 126.836 149.438 126.982 149.805V150H124.626ZM120.635 148.279C121.074 148.279 121.485 148.222 121.868 148.108C122.25 147.994 122.6 147.843 122.917 147.656C123.227 147.469 123.495 147.257 123.723 147.021C123.951 146.777 124.13 146.525 124.26 146.265V143.591H122.161C121.379 143.591 120.696 143.66 120.11 143.799C119.532 143.929 119.072 144.132 118.73 144.409C118.486 144.604 118.299 144.836 118.169 145.105C118.047 145.374 117.986 145.679 117.986 146.021C117.986 146.346 118.039 146.647 118.145 146.924C118.258 147.201 118.425 147.437 118.645 147.632C118.865 147.835 119.141 147.994 119.475 148.108C119.809 148.222 120.195 148.279 120.635 148.279ZM130.285 143.286C130.285 142.301 130.407 141.398 130.651 140.576C130.903 139.746 131.261 139.034 131.725 138.44C132.181 137.846 132.734 137.382 133.385 137.048C134.036 136.715 134.765 136.548 135.57 136.548C136.36 136.548 137.047 136.682 137.633 136.951C138.227 137.211 138.74 137.594 139.171 138.098V131.25H141.43V150H139.354L139.257 148.608C138.817 149.146 138.292 149.552 137.682 149.829C137.072 150.106 136.36 150.244 135.546 150.244C134.748 150.244 134.024 150.073 133.373 149.731C132.73 149.39 132.181 148.918 131.725 148.315C131.269 147.713 130.915 147.005 130.663 146.191C130.411 145.369 130.285 144.486 130.285 143.542V143.286ZM132.543 143.542C132.543 144.185 132.612 144.796 132.75 145.374C132.889 145.951 133.104 146.46 133.397 146.899C133.682 147.339 134.049 147.689 134.496 147.949C134.944 148.201 135.481 148.328 136.107 148.328C136.864 148.328 137.491 148.157 137.987 147.815C138.484 147.473 138.878 147.013 139.171 146.436V140.308C138.878 139.771 138.484 139.331 137.987 138.989C137.491 138.639 136.872 138.464 136.132 138.464C135.497 138.464 134.952 138.595 134.496 138.855C134.049 139.115 133.682 139.465 133.397 139.905C133.104 140.352 132.889 140.869 132.75 141.455C132.612 142.033 132.543 142.643 132.543 143.286V143.542ZM145.049 143.286C145.049 142.301 145.171 141.398 145.416 140.576C145.668 139.746 146.026 139.034 146.49 138.44C146.945 137.846 147.499 137.382 148.15 137.048C148.801 136.715 149.529 136.548 150.335 136.548C151.124 136.548 151.812 136.682 152.398 136.951C152.992 137.211 153.505 137.594 153.936 138.098V131.25H156.194V150H154.119L154.021 148.608C153.582 149.146 153.057 149.552 152.447 149.829C151.836 150.106 151.124 150.244 150.311 150.244C149.513 150.244 148.789 150.073 148.138 149.731C147.495 149.39 146.945 148.918 146.49 148.315C146.034 147.713 145.68 147.005 145.428 146.191C145.175 145.369 145.049 144.486 145.049 143.542V143.286ZM147.308 143.542C147.308 144.185 147.377 144.796 147.515 145.374C147.653 145.951 147.869 146.46 148.162 146.899C148.447 147.339 148.813 147.689 149.261 147.949C149.708 148.201 150.245 148.328 150.872 148.328C151.629 148.328 152.256 148.157 152.752 147.815C153.248 147.473 153.643 147.013 153.936 146.436V140.308C153.643 139.771 153.248 139.331 152.752 138.989C152.256 138.639 151.637 138.464 150.896 138.464C150.262 138.464 149.716 138.595 149.261 138.855C148.813 139.115 148.447 139.465 148.162 139.905C147.869 140.352 147.653 140.869 147.515 141.455C147.377 142.033 147.308 142.643 147.308 143.286V143.542ZM160.595 136.792H167.346V148.047H171.655V150H160.595V148.047H165.087V138.757H160.595V136.792ZM164.794 133.325C164.794 133.13 164.823 132.947 164.88 132.776C164.945 132.605 165.043 132.458 165.173 132.336C165.279 132.231 165.413 132.149 165.576 132.092C165.747 132.027 165.938 131.995 166.149 131.995C166.361 131.995 166.548 132.027 166.711 132.092C166.874 132.149 167.008 132.231 167.114 132.336C167.244 132.45 167.342 132.593 167.407 132.764C167.472 132.935 167.504 133.122 167.504 133.325C167.504 133.691 167.39 133.997 167.163 134.241C166.935 134.485 166.597 134.607 166.149 134.607C165.694 134.607 165.352 134.485 165.124 134.241C164.904 133.997 164.794 133.691 164.794 133.325ZM175.006 150V136.792H177.032L177.191 138.745C177.386 138.468 177.598 138.216 177.826 137.988C178.062 137.752 178.31 137.549 178.57 137.378C178.961 137.118 179.384 136.918 179.84 136.78C180.304 136.633 180.792 136.556 181.305 136.548C181.996 136.548 182.623 136.646 183.185 136.841C183.754 137.036 184.238 137.341 184.637 137.756C185.036 138.171 185.341 138.7 185.553 139.343C185.772 139.978 185.882 140.735 185.882 141.614V150H183.624V141.663C183.624 141.077 183.559 140.58 183.429 140.173C183.299 139.766 183.107 139.437 182.855 139.185C182.595 138.932 182.277 138.749 181.903 138.635C181.537 138.521 181.113 138.464 180.633 138.464C180.218 138.464 179.832 138.525 179.474 138.647C179.116 138.761 178.786 138.92 178.485 139.124C178.241 139.303 178.013 139.51 177.801 139.746C177.598 139.982 177.419 140.243 177.264 140.527V150H175.006ZM189.355 143.286C189.355 142.301 189.473 141.398 189.709 140.576C189.954 139.746 190.304 139.034 190.759 138.44C191.215 137.846 191.768 137.382 192.419 137.048C193.07 136.715 193.807 136.548 194.629 136.548C195.158 136.548 195.642 136.609 196.082 136.731C196.529 136.853 196.932 137.032 197.29 137.268C197.485 137.39 197.668 137.533 197.839 137.695C198.018 137.858 198.185 138.037 198.34 138.232L198.45 136.792H200.5V149.719C200.5 150.59 200.362 151.363 200.085 152.039C199.817 152.714 199.438 153.288 198.95 153.76C198.454 154.232 197.864 154.59 197.18 154.834C196.497 155.078 195.74 155.2 194.91 155.2C194.568 155.2 194.177 155.16 193.738 155.078C193.298 155.005 192.855 154.879 192.407 154.7C191.951 154.529 191.512 154.297 191.089 154.004C190.674 153.711 190.316 153.349 190.015 152.917L191.187 151.562C191.463 151.896 191.748 152.177 192.041 152.405C192.334 152.641 192.631 152.828 192.932 152.966C193.233 153.105 193.534 153.202 193.835 153.259C194.137 153.324 194.438 153.357 194.739 153.357C195.276 153.357 195.76 153.28 196.191 153.125C196.623 152.97 196.993 152.743 197.302 152.441C197.603 152.148 197.835 151.782 197.998 151.343C198.161 150.903 198.242 150.399 198.242 149.829V148.694C198.071 148.889 197.888 149.068 197.693 149.231C197.506 149.394 197.302 149.536 197.083 149.658C196.741 149.845 196.362 149.988 195.947 150.085C195.532 150.191 195.085 150.244 194.604 150.244C193.799 150.244 193.07 150.073 192.419 149.731C191.768 149.39 191.219 148.918 190.771 148.315C190.316 147.713 189.966 147.005 189.722 146.191C189.478 145.369 189.355 144.486 189.355 143.542V143.286ZM191.614 143.542C191.614 144.185 191.679 144.796 191.809 145.374C191.947 145.951 192.163 146.46 192.456 146.899C192.741 147.339 193.107 147.689 193.555 147.949C194.002 148.201 194.539 148.328 195.166 148.328C195.557 148.328 195.907 148.283 196.216 148.193C196.533 148.096 196.818 147.961 197.07 147.791C197.314 147.62 197.534 147.416 197.729 147.18C197.925 146.944 198.096 146.684 198.242 146.399V140.344C198.096 140.068 197.925 139.815 197.729 139.587C197.534 139.36 197.31 139.16 197.058 138.989C196.806 138.826 196.525 138.7 196.216 138.611C195.907 138.513 195.565 138.464 195.19 138.464C194.556 138.464 194.01 138.595 193.555 138.855C193.107 139.115 192.741 139.465 192.456 139.905C192.163 140.352 191.947 140.869 191.809 141.455C191.679 142.033 191.614 142.643 191.614 143.286V143.542ZM209.076 148.535C209.076 148.055 209.223 147.644 209.516 147.302C209.809 146.96 210.252 146.79 210.846 146.79C211.432 146.79 211.876 146.96 212.177 147.302C212.486 147.636 212.641 148.047 212.641 148.535C212.641 149.015 212.486 149.418 212.177 149.744C211.868 150.069 211.424 150.232 210.846 150.232C210.26 150.232 209.817 150.069 209.516 149.744C209.223 149.41 209.076 149.007 209.076 148.535ZM209.076 137.842C209.076 137.362 209.223 136.951 209.516 136.609C209.809 136.267 210.252 136.096 210.846 136.096C211.432 136.096 211.876 136.267 212.177 136.609C212.486 136.943 212.641 137.354 212.641 137.842C212.641 138.322 212.486 138.725 212.177 139.05C211.868 139.376 211.424 139.539 210.846 139.539C210.26 139.539 209.817 139.376 209.516 139.05C209.223 138.717 209.076 138.314 209.076 137.842ZM244.965 150H233.32V148.376L239.143 141.907C239.663 141.329 240.099 140.816 240.449 140.369C240.799 139.921 241.079 139.506 241.291 139.124C241.503 138.749 241.653 138.395 241.743 138.062C241.832 137.72 241.877 137.37 241.877 137.012C241.877 136.572 241.804 136.161 241.657 135.779C241.519 135.388 241.315 135.05 241.047 134.766C240.77 134.481 240.437 134.257 240.046 134.094C239.663 133.923 239.228 133.838 238.74 133.838C238.146 133.838 237.629 133.923 237.189 134.094C236.758 134.265 236.4 134.505 236.115 134.814C235.822 135.132 235.603 135.514 235.456 135.962C235.318 136.41 235.249 136.91 235.249 137.463H232.978C232.978 136.715 233.108 136.011 233.369 135.352C233.629 134.684 234.007 134.102 234.504 133.606C234.992 133.11 235.59 132.715 236.298 132.422C237.014 132.129 237.828 131.982 238.74 131.982C239.578 131.982 240.331 132.109 240.998 132.361C241.674 132.605 242.243 132.947 242.707 133.386C243.171 133.826 243.525 134.347 243.769 134.949C244.021 135.551 244.147 136.206 244.147 136.914C244.147 137.443 244.058 137.968 243.879 138.489C243.7 139.001 243.46 139.51 243.159 140.015C242.849 140.519 242.491 141.02 242.084 141.516C241.686 142.004 241.263 142.493 240.815 142.981L236.042 148.157H244.965V150ZM259.986 143.201C259.986 144.332 259.856 145.337 259.596 146.216C259.335 147.087 258.961 147.819 258.473 148.413C257.984 149.015 257.386 149.471 256.678 149.78C255.97 150.09 255.16 150.244 254.249 150.244C253.346 150.244 252.536 150.094 251.82 149.792C251.104 149.483 250.497 149.023 250.001 148.413C249.505 147.819 249.126 147.087 248.866 146.216C248.605 145.337 248.475 144.332 248.475 143.201V139.038C248.475 137.907 248.605 136.906 248.866 136.035C249.126 135.156 249.505 134.416 250.001 133.813C250.489 133.211 251.087 132.756 251.795 132.446C252.512 132.129 253.321 131.97 254.225 131.97C255.136 131.97 255.946 132.129 256.654 132.446C257.37 132.756 257.976 133.211 258.473 133.813C258.961 134.416 259.335 135.156 259.596 136.035C259.856 136.906 259.986 137.907 259.986 139.038V143.201ZM250.746 142.749L257.667 137.439C257.602 136.853 257.484 136.336 257.313 135.889C257.15 135.433 256.926 135.055 256.642 134.753C256.365 134.444 256.023 134.212 255.616 134.058C255.217 133.903 254.754 133.826 254.225 133.826C253.688 133.826 253.211 133.911 252.796 134.082C252.389 134.245 252.044 134.485 251.759 134.802C251.417 135.201 251.161 135.718 250.99 136.353C250.827 136.979 250.746 137.708 250.746 138.538V141.516C250.746 141.72 250.746 141.923 250.746 142.126C250.746 142.33 250.746 142.537 250.746 142.749ZM257.716 143.677V141.162C257.716 141.04 257.716 140.808 257.716 140.466C257.716 140.116 257.716 139.827 257.716 139.6L250.807 144.885C250.88 145.479 251.01 146.004 251.197 146.46C251.384 146.908 251.629 147.278 251.93 147.571C252.206 147.847 252.54 148.059 252.931 148.206C253.321 148.344 253.761 148.413 254.249 148.413C254.762 148.413 255.217 148.336 255.616 148.181C256.015 148.027 256.353 147.803 256.629 147.51C257.004 147.111 257.276 146.59 257.447 145.947C257.626 145.304 257.716 144.548 257.716 143.677ZM263.582 155.078V136.792H265.645L265.754 138.232C265.933 138.005 266.129 137.801 266.34 137.622C266.552 137.435 266.78 137.276 267.024 137.146C267.366 136.951 267.744 136.804 268.159 136.707C268.582 136.601 269.034 136.548 269.514 136.548C270.361 136.548 271.109 136.715 271.76 137.048C272.411 137.382 272.957 137.846 273.396 138.44C273.835 139.034 274.169 139.746 274.397 140.576C274.625 141.398 274.739 142.301 274.739 143.286V143.542C274.739 144.486 274.625 145.369 274.397 146.191C274.169 147.005 273.835 147.713 273.396 148.315C272.957 148.918 272.411 149.39 271.76 149.731C271.117 150.073 270.381 150.244 269.551 150.244C269.046 150.244 268.574 150.191 268.135 150.085C267.703 149.98 267.313 149.829 266.963 149.634C266.751 149.512 266.552 149.377 266.365 149.231C266.178 149.076 266.003 148.91 265.84 148.73V155.078H263.582ZM272.48 143.286C272.48 142.643 272.407 142.033 272.261 141.455C272.122 140.869 271.907 140.352 271.614 139.905C271.313 139.465 270.934 139.115 270.479 138.855C270.023 138.595 269.478 138.464 268.843 138.464C268.493 138.464 268.167 138.505 267.866 138.586C267.573 138.668 267.309 138.786 267.073 138.94C266.812 139.095 266.58 139.286 266.377 139.514C266.174 139.742 265.994 139.994 265.84 140.271V146.631C265.978 146.875 266.137 147.103 266.316 147.314C266.495 147.526 266.698 147.705 266.926 147.852C267.187 148.022 267.476 148.157 267.793 148.254C268.118 148.352 268.477 148.401 268.867 148.401C269.494 148.401 270.035 148.271 270.491 148.01C270.946 147.742 271.321 147.384 271.614 146.936C271.907 146.488 272.122 145.972 272.261 145.386C272.407 144.8 272.48 144.185 272.48 143.542V143.286ZM283.815 141.687L287.343 136.792H289.992L285.072 143.323L290.126 150H287.514L283.864 144.971L280.214 150H277.577L282.631 143.323L277.711 136.792H280.324L283.815 141.687ZM297.554 137.842C297.554 137.362 297.701 136.951 297.994 136.609C298.287 136.267 298.73 136.096 299.324 136.096C299.91 136.096 300.354 136.267 300.655 136.609C300.964 136.943 301.119 137.354 301.119 137.842C301.119 138.322 300.964 138.725 300.655 139.05C300.346 139.376 299.902 139.539 299.324 139.539C298.738 139.539 298.295 139.376 297.994 139.05C297.701 138.717 297.554 138.314 297.554 137.842ZM300.459 149.475C300.459 150.289 300.268 151.119 299.886 151.965C299.503 152.812 298.986 153.524 298.335 154.102L296.932 153.333C297.322 152.763 297.599 152.157 297.762 151.514C297.924 150.871 298.006 150.203 298.006 149.512V147.327H300.459V149.475ZM112.376 176.542C112.376 177.12 112.332 177.678 112.242 178.215C112.161 178.744 112.039 179.24 111.876 179.704C111.656 180.314 111.367 180.864 111.009 181.352C110.659 181.832 110.236 182.231 109.74 182.548C109.382 182.768 108.987 182.939 108.556 183.061C108.132 183.183 107.673 183.244 107.176 183.244C106.607 183.244 106.086 183.175 105.614 183.037C105.15 182.898 104.731 182.699 104.356 182.438C104.177 182.308 104.007 182.166 103.844 182.011C103.681 181.857 103.526 181.686 103.38 181.499L103.27 183H101.195V164.25H103.453V171.208C103.64 170.972 103.848 170.76 104.076 170.573C104.304 170.378 104.548 170.211 104.808 170.073C105.134 169.902 105.492 169.772 105.882 169.682C106.273 169.593 106.696 169.548 107.152 169.548C107.722 169.548 108.246 169.625 108.727 169.78C109.207 169.934 109.642 170.15 110.033 170.427C110.383 170.687 110.696 171.005 110.973 171.379C111.249 171.745 111.493 172.156 111.705 172.612C111.925 173.125 112.092 173.694 112.206 174.321C112.319 174.939 112.376 175.594 112.376 176.286V176.542ZM110.118 176.286C110.118 175.871 110.09 175.468 110.033 175.078C109.984 174.679 109.907 174.305 109.801 173.955C109.654 173.523 109.463 173.129 109.227 172.771C108.991 172.412 108.702 172.132 108.36 171.928C108.124 171.782 107.86 171.668 107.567 171.586C107.274 171.505 106.948 171.464 106.59 171.464C106.2 171.464 105.842 171.517 105.516 171.623C105.191 171.721 104.902 171.859 104.649 172.038C104.389 172.225 104.157 172.445 103.954 172.697C103.758 172.941 103.591 173.21 103.453 173.503V179.277C103.6 179.57 103.771 179.842 103.966 180.095C104.169 180.339 104.401 180.555 104.662 180.742C104.922 180.929 105.215 181.075 105.541 181.181C105.866 181.279 106.224 181.328 106.615 181.328C106.989 181.328 107.331 181.283 107.64 181.193C107.949 181.096 108.226 180.957 108.47 180.778C108.796 180.55 109.068 180.262 109.288 179.912C109.508 179.562 109.683 179.171 109.813 178.74C109.919 178.414 109.996 178.064 110.045 177.69C110.094 177.316 110.118 176.933 110.118 176.542V176.286ZM115.312 176.274C115.312 175.322 115.451 174.439 115.728 173.625C116.004 172.803 116.403 172.091 116.924 171.489C117.437 170.887 118.063 170.415 118.804 170.073C119.544 169.723 120.378 169.548 121.306 169.548C122.242 169.548 123.08 169.723 123.821 170.073C124.569 170.415 125.204 170.887 125.725 171.489C126.238 172.091 126.632 172.803 126.909 173.625C127.186 174.439 127.324 175.322 127.324 176.274V176.542C127.324 177.495 127.186 178.378 126.909 179.191C126.632 180.005 126.238 180.713 125.725 181.315C125.204 181.918 124.574 182.39 123.833 182.731C123.092 183.073 122.258 183.244 121.331 183.244C120.395 183.244 119.552 183.073 118.804 182.731C118.063 182.39 117.437 181.918 116.924 181.315C116.403 180.713 116.004 180.005 115.728 179.191C115.451 178.378 115.312 177.495 115.312 176.542V176.274ZM117.571 176.542C117.571 177.194 117.648 177.816 117.803 178.41C117.957 178.996 118.193 179.513 118.511 179.96C118.82 180.408 119.211 180.762 119.683 181.022C120.155 181.283 120.704 181.413 121.331 181.413C121.949 181.413 122.49 181.283 122.954 181.022C123.426 180.762 123.821 180.408 124.138 179.96C124.447 179.513 124.679 178.996 124.834 178.41C124.989 177.816 125.066 177.194 125.066 176.542V176.274C125.066 175.631 124.985 175.017 124.822 174.431C124.667 173.837 124.435 173.316 124.126 172.868C123.809 172.421 123.414 172.067 122.942 171.806C122.478 171.538 121.933 171.403 121.306 171.403C120.68 171.403 120.134 171.538 119.67 171.806C119.207 172.067 118.82 172.421 118.511 172.868C118.193 173.316 117.957 173.837 117.803 174.431C117.648 175.017 117.571 175.631 117.571 176.274V176.542ZM139.367 169.548C139.782 169.548 140.213 169.576 140.661 169.633C141.116 169.69 141.458 169.768 141.686 169.865L141.381 172.075C140.941 171.977 140.522 171.908 140.124 171.867C139.733 171.818 139.322 171.794 138.891 171.794C138.337 171.794 137.837 171.863 137.389 172.001C136.942 172.132 136.551 172.327 136.217 172.587C135.916 172.815 135.652 173.096 135.424 173.43C135.204 173.755 135.021 174.121 134.875 174.528V183H132.604V169.792H134.752L134.85 171.562L134.862 171.892C135.399 171.167 136.042 170.598 136.791 170.183C137.548 169.759 138.406 169.548 139.367 169.548ZM145.049 176.286C145.049 175.301 145.171 174.398 145.416 173.576C145.668 172.746 146.026 172.034 146.49 171.44C146.945 170.846 147.499 170.382 148.15 170.048C148.801 169.715 149.529 169.548 150.335 169.548C151.124 169.548 151.812 169.682 152.398 169.951C152.992 170.211 153.505 170.594 153.936 171.098V164.25H156.194V183H154.119L154.021 181.608C153.582 182.146 153.057 182.552 152.447 182.829C151.836 183.106 151.124 183.244 150.311 183.244C149.513 183.244 148.789 183.073 148.138 182.731C147.495 182.39 146.945 181.918 146.49 181.315C146.034 180.713 145.68 180.005 145.428 179.191C145.175 178.369 145.049 177.486 145.049 176.542V176.286ZM147.308 176.542C147.308 177.185 147.377 177.796 147.515 178.374C147.653 178.951 147.869 179.46 148.162 179.899C148.447 180.339 148.813 180.689 149.261 180.949C149.708 181.201 150.245 181.328 150.872 181.328C151.629 181.328 152.256 181.157 152.752 180.815C153.248 180.473 153.643 180.013 153.936 179.436V173.308C153.643 172.771 153.248 172.331 152.752 171.989C152.256 171.639 151.637 171.464 150.896 171.464C150.262 171.464 149.716 171.595 149.261 171.855C148.813 172.115 148.447 172.465 148.162 172.905C147.869 173.352 147.653 173.869 147.515 174.455C147.377 175.033 147.308 175.643 147.308 176.286V176.542ZM166.076 183.244C165.148 183.244 164.294 183.085 163.513 182.768C162.74 182.451 162.076 182.007 161.523 181.438C160.97 180.868 160.538 180.192 160.229 179.411C159.92 178.63 159.765 177.779 159.765 176.86V176.347C159.765 175.281 159.936 174.329 160.278 173.491C160.62 172.644 161.075 171.928 161.645 171.342C162.207 170.764 162.845 170.321 163.562 170.012C164.286 169.702 165.026 169.548 165.783 169.548C166.735 169.548 167.565 169.715 168.273 170.048C168.99 170.374 169.584 170.826 170.056 171.403C170.528 171.989 170.878 172.677 171.105 173.466C171.341 174.256 171.459 175.11 171.459 176.03V177.043H162.023V177.128C162.08 177.771 162.207 178.337 162.402 178.825C162.605 179.313 162.882 179.745 163.232 180.119C163.59 180.518 164.021 180.831 164.526 181.059C165.03 181.287 165.588 181.401 166.198 181.401C167.004 181.401 167.72 181.238 168.347 180.913C168.973 180.587 169.494 180.156 169.909 179.619L171.289 180.693C170.849 181.36 170.19 181.954 169.311 182.475C168.44 182.988 167.362 183.244 166.076 183.244ZM165.783 171.403C165.327 171.403 164.896 171.489 164.489 171.66C164.082 171.822 163.716 172.062 163.391 172.38C163.065 172.705 162.788 173.104 162.561 173.576C162.341 174.04 162.186 174.577 162.097 175.188H169.201V175.078C169.201 174.671 169.124 174.235 168.969 173.771C168.815 173.299 168.599 172.893 168.322 172.551C168.046 172.209 167.696 171.932 167.272 171.721C166.857 171.509 166.361 171.403 165.783 171.403ZM183.661 169.548C184.076 169.548 184.507 169.576 184.955 169.633C185.41 169.69 185.752 169.768 185.98 169.865L185.675 172.075C185.235 171.977 184.816 171.908 184.417 171.867C184.027 171.818 183.616 171.794 183.185 171.794C182.631 171.794 182.131 171.863 181.683 172.001C181.236 172.132 180.845 172.327 180.511 172.587C180.21 172.815 179.946 173.096 179.718 173.43C179.498 173.755 179.315 174.121 179.168 174.528V183H176.898V169.792H179.046L179.144 171.562L179.156 171.892C179.693 171.167 180.336 170.598 181.085 170.183C181.842 169.759 182.7 169.548 183.661 169.548ZM199.646 176.152H190.308V174.296H199.646V176.152ZM213.19 169.548C213.605 169.548 214.036 169.576 214.484 169.633C214.94 169.69 215.281 169.768 215.509 169.865L215.204 172.075C214.765 171.977 214.346 171.908 213.947 171.867C213.556 171.818 213.145 171.794 212.714 171.794C212.16 171.794 211.66 171.863 211.212 172.001C210.765 172.132 210.374 172.327 210.041 172.587C209.739 172.815 209.475 173.096 209.247 173.43C209.027 173.755 208.844 174.121 208.698 174.528V183H206.427V169.792H208.576L208.673 171.562L208.686 171.892C209.223 171.167 209.866 170.598 210.614 170.183C211.371 169.759 212.23 169.548 213.19 169.548ZM227.979 183C227.889 182.829 227.816 182.618 227.759 182.365C227.71 182.105 227.674 181.836 227.649 181.56C227.422 181.787 227.165 182.003 226.88 182.207C226.604 182.41 226.299 182.589 225.965 182.744C225.623 182.898 225.261 183.02 224.878 183.11C224.496 183.199 224.089 183.244 223.658 183.244C222.958 183.244 222.323 183.142 221.753 182.939C221.192 182.736 220.716 182.459 220.325 182.109C219.926 181.767 219.617 181.36 219.397 180.888C219.186 180.408 219.08 179.891 219.08 179.338C219.08 178.614 219.222 177.979 219.507 177.434C219.8 176.888 220.211 176.433 220.74 176.066C221.269 175.708 221.904 175.44 222.645 175.261C223.393 175.082 224.227 174.992 225.147 174.992H227.613V173.955C227.613 173.556 227.54 173.198 227.393 172.88C227.247 172.563 227.039 172.29 226.771 172.062C226.502 171.843 226.172 171.672 225.782 171.55C225.399 171.428 224.968 171.367 224.488 171.367C224.04 171.367 223.637 171.424 223.279 171.538C222.929 171.652 222.632 171.802 222.388 171.989C222.144 172.176 221.953 172.4 221.814 172.661C221.684 172.913 221.619 173.177 221.619 173.454H219.349C219.357 172.974 219.479 172.502 219.715 172.038C219.959 171.574 220.309 171.155 220.765 170.781C221.212 170.415 221.757 170.118 222.4 169.89C223.051 169.662 223.788 169.548 224.61 169.548C225.359 169.548 226.054 169.641 226.697 169.829C227.34 170.008 227.898 170.28 228.37 170.646C228.833 171.021 229.2 171.485 229.468 172.038C229.737 172.591 229.871 173.238 229.871 173.979V180.119C229.871 180.559 229.912 181.027 229.993 181.523C230.075 182.011 230.188 182.438 230.335 182.805V183H227.979ZM223.987 181.279C224.427 181.279 224.838 181.222 225.22 181.108C225.603 180.994 225.953 180.843 226.27 180.656C226.579 180.469 226.848 180.257 227.076 180.021C227.304 179.777 227.483 179.525 227.613 179.265V176.591H225.513C224.732 176.591 224.048 176.66 223.462 176.799C222.885 176.929 222.425 177.132 222.083 177.409C221.839 177.604 221.652 177.836 221.521 178.105C221.399 178.374 221.338 178.679 221.338 179.021C221.338 179.346 221.391 179.647 221.497 179.924C221.611 180.201 221.778 180.437 221.998 180.632C222.217 180.835 222.494 180.994 222.828 181.108C223.161 181.222 223.548 181.279 223.987 181.279ZM233.637 176.286C233.637 175.301 233.759 174.398 234.003 173.576C234.256 172.746 234.614 172.034 235.078 171.44C235.533 170.846 236.087 170.382 236.738 170.048C237.389 169.715 238.117 169.548 238.923 169.548C239.712 169.548 240.4 169.682 240.986 169.951C241.58 170.211 242.093 170.594 242.524 171.098V164.25H244.782V183H242.707L242.609 181.608C242.17 182.146 241.645 182.552 241.035 182.829C240.424 183.106 239.712 183.244 238.898 183.244C238.101 183.244 237.377 183.073 236.726 182.731C236.083 182.39 235.533 181.918 235.078 181.315C234.622 180.713 234.268 180.005 234.016 179.191C233.763 178.369 233.637 177.486 233.637 176.542V176.286ZM235.896 176.542C235.896 177.185 235.965 177.796 236.103 178.374C236.241 178.951 236.457 179.46 236.75 179.899C237.035 180.339 237.401 180.689 237.849 180.949C238.296 181.201 238.833 181.328 239.46 181.328C240.217 181.328 240.843 181.157 241.34 180.815C241.836 180.473 242.231 180.013 242.524 179.436V173.308C242.231 172.771 241.836 172.331 241.34 171.989C240.843 171.639 240.225 171.464 239.484 171.464C238.85 171.464 238.304 171.595 237.849 171.855C237.401 172.115 237.035 172.465 236.75 172.905C236.457 173.352 236.241 173.869 236.103 174.455C235.965 175.033 235.896 175.643 235.896 176.286V176.542ZM249.183 169.792H255.934V181.047H260.243V183H249.183V181.047H253.675V171.757H249.183V169.792ZM253.382 166.325C253.382 166.13 253.411 165.947 253.468 165.776C253.533 165.605 253.631 165.458 253.761 165.336C253.867 165.231 254.001 165.149 254.164 165.092C254.334 165.027 254.526 164.995 254.737 164.995C254.949 164.995 255.136 165.027 255.299 165.092C255.462 165.149 255.596 165.231 255.702 165.336C255.832 165.45 255.93 165.593 255.995 165.764C256.06 165.935 256.092 166.122 256.092 166.325C256.092 166.691 255.978 166.997 255.75 167.241C255.523 167.485 255.185 167.607 254.737 167.607C254.282 167.607 253.94 167.485 253.712 167.241C253.492 166.997 253.382 166.691 253.382 166.325ZM272.297 183L272.163 181.181C271.724 181.832 271.174 182.341 270.515 182.707C269.856 183.065 269.095 183.244 268.232 183.244C267.541 183.244 266.914 183.138 266.353 182.927C265.791 182.707 265.311 182.369 264.912 181.914C264.513 181.458 264.204 180.88 263.984 180.18C263.773 179.472 263.667 178.626 263.667 177.641V169.792H265.925V177.666C265.925 178.382 265.982 178.976 266.096 179.448C266.21 179.92 266.381 180.294 266.609 180.571C266.837 180.856 267.113 181.055 267.439 181.169C267.773 181.283 268.155 181.34 268.586 181.34C269.091 181.34 269.543 181.283 269.941 181.169C270.34 181.047 270.686 180.88 270.979 180.668C271.223 180.498 271.435 180.294 271.614 180.058C271.801 179.814 271.956 179.549 272.078 179.265V169.792H274.348V183H272.297ZM287.135 179.497C287.135 179.228 287.082 178.988 286.977 178.776C286.871 178.557 286.692 178.357 286.439 178.178C286.187 177.999 285.854 177.836 285.438 177.69C285.023 177.535 284.507 177.397 283.888 177.275C283.131 177.12 282.44 176.933 281.813 176.713C281.194 176.494 280.666 176.229 280.226 175.92C279.778 175.619 279.433 175.265 279.188 174.858C278.944 174.443 278.822 173.963 278.822 173.417C278.822 172.88 278.948 172.38 279.201 171.916C279.453 171.444 279.807 171.033 280.263 170.683C280.718 170.333 281.26 170.056 281.886 169.853C282.521 169.65 283.217 169.548 283.974 169.548C284.787 169.548 285.52 169.654 286.171 169.865C286.822 170.077 287.375 170.37 287.831 170.744C288.287 171.118 288.637 171.558 288.881 172.062C289.133 172.559 289.259 173.096 289.259 173.674H287.001C287.001 173.389 286.928 173.112 286.781 172.844C286.635 172.567 286.431 172.323 286.171 172.111C285.91 171.9 285.593 171.729 285.219 171.599C284.853 171.468 284.438 171.403 283.974 171.403C283.493 171.403 283.07 171.456 282.704 171.562C282.346 171.668 282.049 171.81 281.813 171.989C281.569 172.168 281.386 172.376 281.264 172.612C281.142 172.848 281.081 173.092 281.081 173.344C281.081 173.605 281.129 173.837 281.227 174.04C281.325 174.243 281.496 174.427 281.74 174.589C281.976 174.752 282.293 174.899 282.692 175.029C283.099 175.159 283.611 175.285 284.23 175.407C285.044 175.578 285.772 175.778 286.415 176.005C287.058 176.225 287.599 176.49 288.039 176.799C288.478 177.116 288.812 177.482 289.04 177.897C289.276 178.312 289.394 178.793 289.394 179.338C289.394 179.924 289.259 180.457 288.991 180.937C288.73 181.417 288.364 181.828 287.892 182.17C287.42 182.512 286.854 182.776 286.195 182.963C285.536 183.151 284.816 183.244 284.035 183.244C283.139 183.244 282.342 183.126 281.642 182.89C280.942 182.646 280.352 182.325 279.872 181.926C279.384 181.535 279.009 181.079 278.749 180.559C278.497 180.038 278.371 179.497 278.371 178.935H280.629C280.661 179.399 280.784 179.79 280.995 180.107C281.215 180.424 281.487 180.681 281.813 180.876C282.13 181.071 282.484 181.21 282.875 181.291C283.266 181.372 283.652 181.413 284.035 181.413C284.637 181.413 285.162 181.344 285.609 181.206C286.057 181.059 286.407 180.86 286.659 180.607C286.814 180.453 286.932 180.282 287.013 180.095C287.095 179.908 287.135 179.708 287.135 179.497ZM297.664 181.535C297.664 181.055 297.811 180.644 298.104 180.302C298.396 179.96 298.84 179.79 299.434 179.79C300.02 179.79 300.464 179.96 300.765 180.302C301.074 180.636 301.229 181.047 301.229 181.535C301.229 182.015 301.074 182.418 300.765 182.744C300.455 183.069 300.012 183.232 299.434 183.232C298.848 183.232 298.405 183.069 298.104 182.744C297.811 182.41 297.664 182.007 297.664 181.535ZM297.664 170.842C297.664 170.362 297.811 169.951 298.104 169.609C298.396 169.267 298.84 169.096 299.434 169.096C300.02 169.096 300.464 169.267 300.765 169.609C301.074 169.943 301.229 170.354 301.229 170.842C301.229 171.322 301.074 171.725 300.765 172.05C300.455 172.376 300.012 172.539 299.434 172.539C298.848 172.539 298.405 172.376 298.104 172.05C297.811 171.717 297.664 171.314 297.664 170.842ZM329.977 183H327.718V168.107L323.067 169.877V167.814L329.793 165.227H329.977V183ZM348.574 176.201C348.574 177.332 348.444 178.337 348.184 179.216C347.923 180.087 347.549 180.819 347.061 181.413C346.572 182.015 345.974 182.471 345.266 182.78C344.558 183.09 343.748 183.244 342.837 183.244C341.934 183.244 341.124 183.094 340.408 182.792C339.692 182.483 339.085 182.023 338.589 181.413C338.092 180.819 337.714 180.087 337.454 179.216C337.193 178.337 337.063 177.332 337.063 176.201V172.038C337.063 170.907 337.193 169.906 337.454 169.035C337.714 168.156 338.092 167.416 338.589 166.813C339.077 166.211 339.675 165.756 340.383 165.446C341.099 165.129 341.909 164.97 342.812 164.97C343.724 164.97 344.534 165.129 345.242 165.446C345.958 165.756 346.564 166.211 347.061 166.813C347.549 167.416 347.923 168.156 348.184 169.035C348.444 169.906 348.574 170.907 348.574 172.038V176.201ZM339.333 175.749L346.255 170.439C346.19 169.853 346.072 169.336 345.901 168.889C345.738 168.433 345.514 168.055 345.229 167.753C344.953 167.444 344.611 167.212 344.204 167.058C343.805 166.903 343.341 166.826 342.812 166.826C342.275 166.826 341.799 166.911 341.384 167.082C340.977 167.245 340.632 167.485 340.347 167.802C340.005 168.201 339.749 168.718 339.578 169.353C339.415 169.979 339.333 170.708 339.333 171.538V174.516C339.333 174.72 339.333 174.923 339.333 175.126C339.333 175.33 339.333 175.537 339.333 175.749ZM346.304 176.677V174.162C346.304 174.04 346.304 173.808 346.304 173.466C346.304 173.116 346.304 172.827 346.304 172.6L339.395 177.885C339.468 178.479 339.598 179.004 339.785 179.46C339.972 179.908 340.216 180.278 340.518 180.571C340.794 180.847 341.128 181.059 341.519 181.206C341.909 181.344 342.349 181.413 342.837 181.413C343.35 181.413 343.805 181.336 344.204 181.181C344.603 181.027 344.941 180.803 345.217 180.51C345.592 180.111 345.864 179.59 346.035 178.947C346.214 178.304 346.304 177.548 346.304 176.677ZM352.169 188.078V169.792H354.232L354.342 171.232C354.521 171.005 354.717 170.801 354.928 170.622C355.14 170.435 355.368 170.276 355.612 170.146C355.954 169.951 356.332 169.804 356.747 169.707C357.17 169.601 357.622 169.548 358.102 169.548C358.948 169.548 359.697 169.715 360.348 170.048C360.999 170.382 361.544 170.846 361.984 171.44C362.423 172.034 362.757 172.746 362.985 173.576C363.213 174.398 363.327 175.301 363.327 176.286V176.542C363.327 177.486 363.213 178.369 362.985 179.191C362.757 180.005 362.423 180.713 361.984 181.315C361.544 181.918 360.999 182.39 360.348 182.731C359.705 183.073 358.969 183.244 358.139 183.244C357.634 183.244 357.162 183.191 356.723 183.085C356.291 182.98 355.901 182.829 355.551 182.634C355.339 182.512 355.14 182.377 354.953 182.231C354.765 182.076 354.59 181.91 354.428 181.73V188.078H352.169ZM361.068 176.286C361.068 175.643 360.995 175.033 360.849 174.455C360.71 173.869 360.495 173.352 360.202 172.905C359.901 172.465 359.522 172.115 359.066 171.855C358.611 171.595 358.065 171.464 357.431 171.464C357.081 171.464 356.755 171.505 356.454 171.586C356.161 171.668 355.897 171.786 355.661 171.94C355.4 172.095 355.168 172.286 354.965 172.514C354.761 172.742 354.582 172.994 354.428 173.271V179.631C354.566 179.875 354.725 180.103 354.904 180.314C355.083 180.526 355.286 180.705 355.514 180.852C355.775 181.022 356.063 181.157 356.381 181.254C356.706 181.352 357.064 181.401 357.455 181.401C358.082 181.401 358.623 181.271 359.079 181.01C359.534 180.742 359.909 180.384 360.202 179.936C360.495 179.488 360.71 178.972 360.849 178.386C360.995 177.8 361.068 177.185 361.068 176.542V176.286ZM372.403 174.687L375.931 169.792H378.58L373.66 176.323L378.714 183H376.102L372.452 177.971L368.802 183H366.165L371.219 176.323L366.299 169.792H368.912L372.403 174.687ZM386.142 170.842C386.142 170.362 386.289 169.951 386.582 169.609C386.875 169.267 387.318 169.096 387.912 169.096C388.498 169.096 388.942 169.267 389.243 169.609C389.552 169.943 389.707 170.354 389.707 170.842C389.707 171.322 389.552 171.725 389.243 172.05C388.933 172.376 388.49 172.539 387.912 172.539C387.326 172.539 386.883 172.376 386.582 172.05C386.289 171.717 386.142 171.314 386.142 170.842ZM389.047 182.475C389.047 183.289 388.856 184.119 388.474 184.965C388.091 185.812 387.574 186.524 386.923 187.102L385.52 186.333C385.91 185.763 386.187 185.157 386.35 184.514C386.512 183.871 386.594 183.203 386.594 182.512V180.327H389.047V182.475ZM102.22 202.792L102.281 204.037C102.55 203.573 102.9 203.211 103.331 202.951C103.771 202.69 104.299 202.556 104.918 202.548C105.268 202.548 105.581 202.589 105.858 202.67C106.143 202.743 106.391 202.853 106.603 203C106.757 203.113 106.896 203.252 107.018 203.415C107.148 203.577 107.258 203.76 107.347 203.964C107.461 203.777 107.595 203.602 107.75 203.439C107.905 203.276 108.071 203.134 108.25 203.012C108.478 202.873 108.731 202.764 109.007 202.682C109.292 202.601 109.601 202.556 109.935 202.548C110.391 202.548 110.802 202.617 111.168 202.755C111.534 202.886 111.843 203.081 112.096 203.341C112.372 203.634 112.584 204.017 112.73 204.489C112.877 204.953 112.95 205.502 112.95 206.137V216H110.802V206.112C110.802 205.836 110.769 205.591 110.704 205.38C110.639 205.168 110.545 204.993 110.423 204.855C110.293 204.725 110.13 204.627 109.935 204.562C109.748 204.497 109.528 204.464 109.276 204.464C109.007 204.464 108.775 204.501 108.58 204.574C108.385 204.647 108.222 204.745 108.092 204.867C107.962 204.997 107.86 205.148 107.787 205.319C107.713 205.482 107.665 205.665 107.64 205.868C107.64 205.909 107.64 205.95 107.64 205.99C107.64 206.023 107.64 206.063 107.64 206.112V216H105.492V206.1C105.492 205.823 105.459 205.579 105.394 205.368C105.337 205.156 105.243 204.981 105.113 204.843C104.991 204.713 104.837 204.619 104.649 204.562C104.47 204.497 104.259 204.464 104.015 204.464C103.746 204.464 103.51 204.497 103.307 204.562C103.111 204.619 102.944 204.704 102.806 204.818C102.7 204.908 102.607 205.01 102.525 205.124C102.452 205.237 102.391 205.36 102.342 205.49V216H100.194V202.792H102.22ZM124.626 216C124.537 215.829 124.464 215.618 124.407 215.365C124.358 215.105 124.321 214.836 124.297 214.56C124.069 214.787 123.813 215.003 123.528 215.207C123.251 215.41 122.946 215.589 122.612 215.744C122.271 215.898 121.908 216.02 121.526 216.11C121.143 216.199 120.736 216.244 120.305 216.244C119.605 216.244 118.971 216.142 118.401 215.939C117.839 215.736 117.363 215.459 116.973 215.109C116.574 214.767 116.265 214.36 116.045 213.888C115.833 213.408 115.728 212.891 115.728 212.338C115.728 211.614 115.87 210.979 116.155 210.434C116.448 209.888 116.859 209.433 117.388 209.066C117.917 208.708 118.551 208.44 119.292 208.261C120.041 208.082 120.875 207.992 121.794 207.992H124.26V206.955C124.26 206.556 124.187 206.198 124.041 205.88C123.894 205.563 123.687 205.29 123.418 205.062C123.149 204.843 122.82 204.672 122.429 204.55C122.047 204.428 121.615 204.367 121.135 204.367C120.688 204.367 120.285 204.424 119.927 204.538C119.577 204.652 119.28 204.802 119.036 204.989C118.792 205.176 118.6 205.4 118.462 205.661C118.332 205.913 118.267 206.177 118.267 206.454H115.996C116.004 205.974 116.126 205.502 116.362 205.038C116.606 204.574 116.956 204.155 117.412 203.781C117.86 203.415 118.405 203.118 119.048 202.89C119.699 202.662 120.435 202.548 121.257 202.548C122.006 202.548 122.702 202.641 123.345 202.829C123.988 203.008 124.545 203.28 125.017 203.646C125.481 204.021 125.847 204.485 126.116 205.038C126.384 205.591 126.519 206.238 126.519 206.979V213.119C126.519 213.559 126.559 214.027 126.641 214.523C126.722 215.011 126.836 215.438 126.982 215.805V216H124.626ZM120.635 214.279C121.074 214.279 121.485 214.222 121.868 214.108C122.25 213.994 122.6 213.843 122.917 213.656C123.227 213.469 123.495 213.257 123.723 213.021C123.951 212.777 124.13 212.525 124.26 212.265V209.591H122.161C121.379 209.591 120.696 209.66 120.11 209.799C119.532 209.929 119.072 210.132 118.73 210.409C118.486 210.604 118.299 210.836 118.169 211.105C118.047 211.374 117.986 211.679 117.986 212.021C117.986 212.346 118.039 212.647 118.145 212.924C118.258 213.201 118.425 213.437 118.645 213.632C118.865 213.835 119.141 213.994 119.475 214.108C119.809 214.222 120.195 214.279 120.635 214.279ZM139.367 202.548C139.782 202.548 140.213 202.576 140.661 202.633C141.116 202.69 141.458 202.768 141.686 202.865L141.381 205.075C140.941 204.977 140.522 204.908 140.124 204.867C139.733 204.818 139.322 204.794 138.891 204.794C138.337 204.794 137.837 204.863 137.389 205.001C136.942 205.132 136.551 205.327 136.217 205.587C135.916 205.815 135.652 206.096 135.424 206.43C135.204 206.755 135.021 207.121 134.875 207.528V216H132.604V202.792H134.752L134.85 204.562L134.862 204.892C135.399 204.167 136.042 203.598 136.791 203.183C137.548 202.759 138.406 202.548 139.367 202.548ZM145.062 209.286C145.062 208.301 145.18 207.398 145.416 206.576C145.66 205.746 146.01 205.034 146.465 204.44C146.921 203.846 147.474 203.382 148.125 203.048C148.777 202.715 149.513 202.548 150.335 202.548C150.864 202.548 151.348 202.609 151.788 202.731C152.235 202.853 152.638 203.032 152.996 203.268C153.191 203.39 153.375 203.533 153.545 203.695C153.724 203.858 153.891 204.037 154.046 204.232L154.156 202.792H156.207V215.719C156.207 216.59 156.068 217.363 155.792 218.039C155.523 218.714 155.145 219.288 154.656 219.76C154.16 220.232 153.57 220.59 152.886 220.834C152.203 221.078 151.446 221.2 150.616 221.2C150.274 221.2 149.883 221.16 149.444 221.078C149.004 221.005 148.561 220.879 148.113 220.7C147.658 220.529 147.218 220.297 146.795 220.004C146.38 219.711 146.022 219.349 145.721 218.917L146.893 217.562C147.169 217.896 147.454 218.177 147.747 218.405C148.04 218.641 148.337 218.828 148.638 218.966C148.939 219.105 149.24 219.202 149.542 219.259C149.843 219.324 150.144 219.357 150.445 219.357C150.982 219.357 151.466 219.28 151.897 219.125C152.329 218.97 152.699 218.743 153.008 218.441C153.309 218.148 153.541 217.782 153.704 217.343C153.867 216.903 153.948 216.399 153.948 215.829V214.694C153.777 214.889 153.594 215.068 153.399 215.231C153.212 215.394 153.008 215.536 152.789 215.658C152.447 215.845 152.068 215.988 151.653 216.085C151.238 216.191 150.791 216.244 150.311 216.244C149.505 216.244 148.777 216.073 148.125 215.731C147.474 215.39 146.925 214.918 146.478 214.315C146.022 213.713 145.672 213.005 145.428 212.191C145.184 211.369 145.062 210.486 145.062 209.542V209.286ZM147.32 209.542C147.32 210.185 147.385 210.796 147.515 211.374C147.653 211.951 147.869 212.46 148.162 212.899C148.447 213.339 148.813 213.689 149.261 213.949C149.708 214.201 150.245 214.328 150.872 214.328C151.263 214.328 151.613 214.283 151.922 214.193C152.239 214.096 152.524 213.961 152.776 213.791C153.021 213.62 153.24 213.416 153.436 213.18C153.631 212.944 153.802 212.684 153.948 212.399V206.344C153.802 206.068 153.631 205.815 153.436 205.587C153.24 205.36 153.016 205.16 152.764 204.989C152.512 204.826 152.231 204.7 151.922 204.611C151.613 204.513 151.271 204.464 150.896 204.464C150.262 204.464 149.716 204.595 149.261 204.855C148.813 205.115 148.447 205.465 148.162 205.905C147.869 206.352 147.653 206.869 147.515 207.455C147.385 208.033 147.32 208.643 147.32 209.286V209.542ZM160.595 202.792H167.346V214.047H171.655V216H160.595V214.047H165.087V204.757H160.595V202.792ZM164.794 199.325C164.794 199.13 164.823 198.947 164.88 198.776C164.945 198.605 165.043 198.458 165.173 198.336C165.279 198.231 165.413 198.149 165.576 198.092C165.747 198.027 165.938 197.995 166.149 197.995C166.361 197.995 166.548 198.027 166.711 198.092C166.874 198.149 167.008 198.231 167.114 198.336C167.244 198.45 167.342 198.593 167.407 198.764C167.472 198.935 167.504 199.122 167.504 199.325C167.504 199.691 167.39 199.997 167.163 200.241C166.935 200.485 166.597 200.607 166.149 200.607C165.694 200.607 165.352 200.485 165.124 200.241C164.904 199.997 164.794 199.691 164.794 199.325ZM175.006 216V202.792H177.032L177.191 204.745C177.386 204.468 177.598 204.216 177.826 203.988C178.062 203.752 178.31 203.549 178.57 203.378C178.961 203.118 179.384 202.918 179.84 202.78C180.304 202.633 180.792 202.556 181.305 202.548C181.996 202.548 182.623 202.646 183.185 202.841C183.754 203.036 184.238 203.341 184.637 203.756C185.036 204.171 185.341 204.7 185.553 205.343C185.772 205.978 185.882 206.735 185.882 207.614V216H183.624V207.663C183.624 207.077 183.559 206.58 183.429 206.173C183.299 205.766 183.107 205.437 182.855 205.185C182.595 204.932 182.277 204.749 181.903 204.635C181.537 204.521 181.113 204.464 180.633 204.464C180.218 204.464 179.832 204.525 179.474 204.647C179.116 204.761 178.786 204.92 178.485 205.124C178.241 205.303 178.013 205.51 177.801 205.746C177.598 205.982 177.419 206.243 177.264 206.527V216H175.006ZM194.312 214.535C194.312 214.055 194.458 213.644 194.751 213.302C195.044 212.96 195.487 212.79 196.082 212.79C196.667 212.79 197.111 212.96 197.412 213.302C197.721 213.636 197.876 214.047 197.876 214.535C197.876 215.015 197.721 215.418 197.412 215.744C197.103 216.069 196.659 216.232 196.082 216.232C195.496 216.232 195.052 216.069 194.751 215.744C194.458 215.41 194.312 215.007 194.312 214.535ZM194.312 203.842C194.312 203.362 194.458 202.951 194.751 202.609C195.044 202.267 195.487 202.096 196.082 202.096C196.667 202.096 197.111 202.267 197.412 202.609C197.721 202.943 197.876 203.354 197.876 203.842C197.876 204.322 197.721 204.725 197.412 205.05C197.103 205.376 196.659 205.539 196.082 205.539C195.496 205.539 195.052 205.376 194.751 205.05C194.458 204.717 194.312 204.314 194.312 203.842ZM226.624 216H224.366V201.107L219.715 202.877V200.814L226.441 198.227H226.624V216ZM245.222 209.201C245.222 210.332 245.091 211.337 244.831 212.216C244.571 213.087 244.196 213.819 243.708 214.413C243.22 215.015 242.622 215.471 241.914 215.78C241.206 216.09 240.396 216.244 239.484 216.244C238.581 216.244 237.771 216.094 237.055 215.792C236.339 215.483 235.733 215.023 235.236 214.413C234.74 213.819 234.361 213.087 234.101 212.216C233.841 211.337 233.71 210.332 233.71 209.201V205.038C233.71 203.907 233.841 202.906 234.101 202.035C234.361 201.156 234.74 200.416 235.236 199.813C235.725 199.211 236.323 198.756 237.031 198.446C237.747 198.129 238.557 197.97 239.46 197.97C240.371 197.97 241.181 198.129 241.889 198.446C242.605 198.756 243.212 199.211 243.708 199.813C244.196 200.416 244.571 201.156 244.831 202.035C245.091 202.906 245.222 203.907 245.222 205.038V209.201ZM235.981 208.749L242.902 203.439C242.837 202.853 242.719 202.336 242.548 201.889C242.386 201.433 242.162 201.055 241.877 200.753C241.6 200.444 241.258 200.212 240.852 200.058C240.453 199.903 239.989 199.826 239.46 199.826C238.923 199.826 238.447 199.911 238.032 200.082C237.625 200.245 237.279 200.485 236.994 200.802C236.652 201.201 236.396 201.718 236.225 202.353C236.062 202.979 235.981 203.708 235.981 204.538V207.516C235.981 207.72 235.981 207.923 235.981 208.126C235.981 208.33 235.981 208.537 235.981 208.749ZM242.951 209.677V207.162C242.951 207.04 242.951 206.808 242.951 206.466C242.951 206.116 242.951 205.827 242.951 205.6L236.042 210.885C236.115 211.479 236.245 212.004 236.433 212.46C236.62 212.908 236.864 213.278 237.165 213.571C237.442 213.847 237.775 214.059 238.166 214.206C238.557 214.344 238.996 214.413 239.484 214.413C239.997 214.413 240.453 214.336 240.852 214.181C241.25 214.027 241.588 213.803 241.865 213.51C242.239 213.111 242.512 212.59 242.683 211.947C242.862 211.304 242.951 210.548 242.951 209.677ZM248.817 221.078V202.792H250.88L250.99 204.232C251.169 204.005 251.364 203.801 251.576 203.622C251.787 203.435 252.015 203.276 252.259 203.146C252.601 202.951 252.979 202.804 253.395 202.707C253.818 202.601 254.269 202.548 254.75 202.548C255.596 202.548 256.345 202.715 256.996 203.048C257.647 203.382 258.192 203.846 258.631 204.44C259.071 205.034 259.404 205.746 259.632 206.576C259.86 207.398 259.974 208.301 259.974 209.286V209.542C259.974 210.486 259.86 211.369 259.632 212.191C259.404 213.005 259.071 213.713 258.631 214.315C258.192 214.918 257.647 215.39 256.996 215.731C256.353 216.073 255.616 216.244 254.786 216.244C254.282 216.244 253.81 216.191 253.37 216.085C252.939 215.98 252.548 215.829 252.198 215.634C251.987 215.512 251.787 215.377 251.6 215.231C251.413 215.076 251.238 214.91 251.075 214.73V221.078H248.817ZM257.716 209.286C257.716 208.643 257.643 208.033 257.496 207.455C257.358 206.869 257.142 206.352 256.849 205.905C256.548 205.465 256.17 205.115 255.714 204.855C255.258 204.595 254.713 204.464 254.078 204.464C253.728 204.464 253.403 204.505 253.102 204.586C252.809 204.668 252.544 204.786 252.308 204.94C252.048 205.095 251.816 205.286 251.612 205.514C251.409 205.742 251.23 205.994 251.075 206.271V212.631C251.214 212.875 251.372 213.103 251.551 213.314C251.73 213.526 251.934 213.705 252.162 213.852C252.422 214.022 252.711 214.157 253.028 214.254C253.354 214.352 253.712 214.401 254.103 214.401C254.729 214.401 255.27 214.271 255.726 214.01C256.182 213.742 256.556 213.384 256.849 212.936C257.142 212.488 257.358 211.972 257.496 211.386C257.643 210.8 257.716 210.185 257.716 209.542V209.286ZM269.05 207.687L272.578 202.792H275.227L270.308 209.323L275.361 216H272.749L269.099 210.971L265.449 216H262.812L267.866 209.323L262.947 202.792H265.559L269.05 207.687ZM282.79 203.842C282.79 203.362 282.936 202.951 283.229 202.609C283.522 202.267 283.965 202.096 284.56 202.096C285.146 202.096 285.589 202.267 285.89 202.609C286.199 202.943 286.354 203.354 286.354 203.842C286.354 204.322 286.199 204.725 285.89 205.05C285.581 205.376 285.137 205.539 284.56 205.539C283.974 205.539 283.53 205.376 283.229 205.05C282.936 204.717 282.79 204.314 282.79 203.842ZM285.695 215.475C285.695 216.289 285.504 217.119 285.121 217.965C284.739 218.812 284.222 219.524 283.571 220.102L282.167 219.333C282.558 218.763 282.834 218.157 282.997 217.514C283.16 216.871 283.241 216.203 283.241 215.512V213.327H285.695V215.475ZM43.9429 252.064C44.4393 252.048 44.8543 251.909 45.188 251.649C45.5216 251.389 45.7902 251.055 45.9937 250.648C46.189 250.249 46.3273 249.798 46.4087 249.293C46.4982 248.797 46.543 248.296 46.543 247.792V245.729C46.543 245.086 46.6366 244.492 46.8237 243.946C47.019 243.401 47.3161 242.929 47.7148 242.53C47.9264 242.319 48.1624 242.127 48.4229 241.957C48.6914 241.786 48.9844 241.635 49.3018 241.505C48.9762 241.375 48.6751 241.22 48.3984 241.041C48.1299 240.862 47.8939 240.663 47.6904 240.443C47.2998 240.036 47.0109 239.564 46.8237 239.027C46.6366 238.482 46.543 237.892 46.543 237.257V235.182C46.543 234.685 46.5145 234.185 46.4575 233.68C46.4087 233.176 46.2988 232.72 46.1279 232.313C45.9489 231.914 45.6885 231.585 45.3467 231.324C45.0049 231.064 44.541 230.925 43.9551 230.909L44.1992 229.505C44.9886 229.53 45.6641 229.697 46.2256 230.006C46.7952 230.315 47.2632 230.718 47.6294 231.214C48.0444 231.776 48.3415 232.407 48.5205 233.106C48.7077 233.806 48.8013 234.498 48.8013 235.182V237.257C48.8013 237.745 48.846 238.176 48.9355 238.551C49.0332 238.917 49.1756 239.234 49.3628 239.503C49.6313 239.885 50.0016 240.166 50.4736 240.345C50.9538 240.516 51.5275 240.602 52.1948 240.602V242.372C51.6089 242.38 51.0962 242.453 50.6567 242.591C50.2254 242.722 49.8714 242.929 49.5947 243.214C49.3262 243.491 49.1268 243.836 48.9966 244.251C48.8664 244.667 48.8013 245.159 48.8013 245.729V247.792C48.8013 248.443 48.7118 249.098 48.5327 249.757C48.3537 250.424 48.077 251.03 47.7026 251.576C47.3201 252.121 46.84 252.569 46.2622 252.918C45.6844 253.268 44.9967 253.451 44.1992 253.468L43.9429 252.064Z" fill="white"/>
</svg>
