<svg width="1399" height="270" viewBox="0 0 1399 270" fill="none" xmlns="http://www.w3.org/2000/svg">
<rect width="1399" height="270" rx="20" fill="#0066FF" fill-opacity="0.2"/>
<rect x="1.5" y="1.5" width="1396" height="267" rx="18.5" stroke="#0066FF" stroke-opacity="0.5" stroke-width="3"/>
<rect x="423" y="25" width="553" height="220" rx="11" fill="#0066FF"/>
<path d="M460.531 71H457.182V61.7528H450.201V71H446.867V50.2543H450.201V58.9316H457.182V50.2543H460.531V71ZM473.996 71C473.892 70.81 473.806 70.582 473.74 70.3161C473.683 70.0406 473.63 69.7556 473.583 69.4612C473.345 69.7081 473.075 69.9456 472.771 70.1736C472.476 70.3921 472.144 70.582 471.773 70.7435C471.403 70.9145 471.004 71.0475 470.576 71.1425C470.149 71.2375 469.688 71.285 469.194 71.285C468.396 71.285 467.665 71.171 467 70.943C466.345 70.7055 465.784 70.3826 465.319 69.9741C464.844 69.5752 464.473 69.0955 464.207 68.535C463.951 67.9651 463.823 67.3524 463.823 66.697C463.823 65.8516 463.989 65.1059 464.321 64.46C464.663 63.8046 465.157 63.2631 465.803 62.8357C466.402 62.4367 467.138 62.1327 468.012 61.9238C468.895 61.7148 469.893 61.6103 471.004 61.6103H473.483V60.5702C473.483 60.1712 473.412 59.8102 473.269 59.4873C473.136 59.1643 472.942 58.8841 472.685 58.6466C472.41 58.4092 472.073 58.2287 471.674 58.1052C471.284 57.9722 470.833 57.9057 470.32 57.9057C469.855 57.9057 469.446 57.9627 469.095 58.0767C468.753 58.1907 468.468 58.3474 468.24 58.5469C468.012 58.7274 467.841 58.9506 467.727 59.2166C467.622 59.473 467.57 59.7485 467.57 60.043H464.15C464.16 59.4255 464.307 58.8319 464.592 58.2619C464.877 57.692 465.295 57.1885 465.846 56.7516C466.378 56.3051 467.033 55.9537 467.812 55.6972C468.601 55.4312 469.498 55.2983 470.505 55.2983C471.408 55.2983 472.248 55.4122 473.027 55.6402C473.816 55.8587 474.495 56.1864 475.065 56.6234C475.635 57.0603 476.081 57.616 476.404 58.2904C476.727 58.9553 476.889 59.7248 476.889 60.5987V67.4521C476.889 68.1456 476.936 68.7725 477.031 69.3329C477.135 69.8839 477.283 70.3588 477.473 70.7578V71H473.996ZM469.85 68.5493C470.296 68.5493 470.709 68.4923 471.089 68.3783C471.479 68.2643 471.83 68.1171 472.144 67.9366C472.457 67.7561 472.728 67.5519 472.956 67.3239C473.184 67.0959 473.36 66.8585 473.483 66.6115V63.7618H471.289C470.548 63.7618 469.907 63.833 469.365 63.9755C468.824 64.1085 468.392 64.3032 468.069 64.5597C467.784 64.7782 467.57 65.0394 467.428 65.3434C467.295 65.6473 467.228 65.9893 467.228 66.3693C467.228 66.6827 467.285 66.9772 467.399 67.2527C467.513 67.5186 467.679 67.7466 467.898 67.9366C468.116 68.1266 468.387 68.2786 468.71 68.3925C469.033 68.497 469.413 68.5493 469.85 68.5493ZM481.007 71V55.5832H487.262C488.24 55.5832 489.124 55.6735 489.912 55.8539C490.71 56.0249 491.389 56.2814 491.95 56.6234C492.51 56.9748 492.938 57.4213 493.232 57.9627C493.536 58.4946 493.688 59.1263 493.688 59.8577C493.688 60.2852 493.607 60.6889 493.446 61.0689C493.284 61.4488 493.047 61.7908 492.733 62.0947C492.524 62.2942 492.277 62.4795 491.992 62.6504C491.707 62.8119 491.394 62.9544 491.052 63.0779L491.194 63.1064C491.707 63.2299 492.154 63.4056 492.534 63.6336C492.923 63.852 493.256 64.1085 493.531 64.403C493.807 64.7165 494.011 65.0584 494.144 65.4289C494.286 65.7993 494.358 66.1935 494.358 66.6115C494.358 67.3429 494.215 67.9841 493.93 68.535C493.655 69.0765 493.256 69.5277 492.733 69.8886C492.211 70.2591 491.57 70.5393 490.81 70.7293C490.059 70.9098 489.204 71 488.245 71H481.007ZM484.412 64.4315V68.2786H488.245C488.72 68.2786 489.128 68.2358 489.47 68.1503C489.822 68.0553 490.107 67.9271 490.325 67.7656C490.534 67.6041 490.691 67.4047 490.796 67.1672C490.9 66.9297 490.952 66.659 490.952 66.355C490.952 66.0606 490.9 65.7993 490.796 65.5714C490.691 65.3339 490.534 65.1344 490.325 64.9729C490.107 64.8019 489.822 64.669 489.47 64.574C489.128 64.479 488.72 64.4315 488.245 64.4315H484.412ZM484.412 61.9808H487.39C487.922 61.9808 488.383 61.938 488.772 61.8525C489.162 61.7575 489.475 61.615 489.713 61.4251C489.903 61.2826 490.045 61.1116 490.14 60.9121C490.235 60.7126 490.283 60.4799 490.283 60.214C490.283 59.9005 490.221 59.6298 490.097 59.4018C489.983 59.1643 489.803 58.9648 489.556 58.8034C489.318 58.6419 489.005 58.5231 488.616 58.4472C488.226 58.3617 487.775 58.3189 487.262 58.3189H484.412V61.9808ZM500.798 61.2113H501.739C502.622 61.2113 503.396 61.3348 504.061 61.5818C504.726 61.8288 505.282 62.166 505.728 62.5934C506.175 63.0209 506.507 63.5291 506.726 64.118C506.944 64.707 507.054 65.3386 507.054 66.0131C507.054 66.7065 506.944 67.3572 506.726 67.9651C506.507 68.573 506.175 69.1002 505.728 69.5467C505.282 69.9931 504.726 70.3493 504.061 70.6153C503.396 70.8718 502.622 71 501.739 71H497.507V55.5832H500.798V61.2113ZM511.813 71H508.393V55.5832H511.813V71ZM500.798 63.7191V68.3071H501.739C502.176 68.3071 502.532 68.2453 502.808 68.1218C503.092 67.9888 503.311 67.8179 503.463 67.6089C503.615 67.4094 503.719 67.1814 503.776 66.925C503.833 66.659 503.862 66.393 503.862 66.127C503.862 65.8516 503.833 65.5714 503.776 65.2864C503.719 65.0014 503.615 64.7402 503.463 64.5027C503.311 64.2748 503.092 64.0895 502.808 63.947C502.532 63.7951 502.176 63.7191 501.739 63.7191H500.798ZM520.647 64.8874H518.253V71H514.848V55.5832H518.253V61.7385H520.405L525.221 55.5832H529.453L523.397 63.0066L529.937 71H525.492L520.647 64.8874ZM541.621 55.5832H545.027V71H541.621V60.5274L535.096 71H531.69V55.5832H535.096V66.0701L541.621 55.5832Z" fill="white"/>
<path d="M457.25 102.356C457.25 102.007 457.307 101.685 457.421 101.392C457.543 101.091 457.71 100.835 457.921 100.623C458.133 100.411 458.389 100.245 458.69 100.123C459 100 459.346 99.9395 459.728 99.9395C460.111 99.9395 460.456 100 460.766 100.123C461.075 100.245 461.339 100.411 461.559 100.623C461.771 100.835 461.933 101.091 462.047 101.392C462.161 101.685 462.218 102.007 462.218 102.356V103.064C462.218 103.414 462.161 103.736 462.047 104.029C461.933 104.322 461.771 104.574 461.559 104.786C461.339 105.005 461.075 105.176 460.766 105.298C460.465 105.412 460.123 105.469 459.74 105.469C459.358 105.469 459.012 105.412 458.703 105.298C458.402 105.176 458.145 105.005 457.934 104.786C457.714 104.574 457.543 104.322 457.421 104.029C457.307 103.736 457.25 103.414 457.25 103.064V102.356ZM488.14 106.653C488.034 107.475 487.823 108.232 487.505 108.924C487.188 109.607 486.777 110.193 486.272 110.682C485.76 111.178 485.153 111.565 484.454 111.841C483.762 112.11 482.989 112.244 482.134 112.244C481.402 112.244 480.735 112.142 480.132 111.939C479.538 111.727 479.009 111.438 478.545 111.072C478.073 110.706 477.667 110.275 477.325 109.778C476.991 109.282 476.714 108.741 476.495 108.155C476.267 107.569 476.096 106.954 475.982 106.312C475.876 105.669 475.819 105.018 475.811 104.358V101.88C475.819 101.221 475.876 100.57 475.982 99.9272C476.096 99.2843 476.267 98.6699 476.495 98.084C476.714 97.498 476.991 96.9569 477.325 96.4604C477.667 95.9559 478.073 95.5205 478.545 95.1543C479.009 94.7881 479.538 94.5033 480.132 94.2998C480.726 94.0882 481.394 93.9824 482.134 93.9824C483.021 93.9824 483.815 94.1208 484.515 94.3975C485.215 94.666 485.817 95.0485 486.321 95.5449C486.826 96.0495 487.229 96.6517 487.53 97.3516C487.839 98.0514 488.042 98.8245 488.14 99.6709H485.882C485.809 99.1338 485.682 98.6333 485.503 98.1694C485.324 97.7056 485.084 97.2987 484.783 96.9487C484.482 96.5988 484.112 96.3262 483.672 96.1309C483.241 95.9274 482.728 95.8257 482.134 95.8257C481.597 95.8257 481.121 95.9152 480.706 96.0942C480.299 96.2651 479.949 96.5011 479.656 96.8022C479.355 97.1034 479.103 97.4533 478.899 97.8521C478.704 98.2508 478.545 98.674 478.423 99.1216C478.301 99.5692 478.212 100.029 478.155 100.501C478.106 100.965 478.082 101.417 478.082 101.856V104.358C478.082 104.798 478.106 105.254 478.155 105.726C478.212 106.189 478.301 106.645 478.423 107.093C478.545 107.549 478.704 107.976 478.899 108.375C479.095 108.773 479.343 109.123 479.644 109.424C479.945 109.734 480.299 109.978 480.706 110.157C481.113 110.328 481.589 110.413 482.134 110.413C482.728 110.413 483.241 110.319 483.672 110.132C484.112 109.945 484.482 109.681 484.783 109.339C485.084 109.005 485.324 108.611 485.503 108.155C485.682 107.691 485.809 107.19 485.882 106.653H488.14ZM491.021 112V98.792H496.209C497.023 98.792 497.764 98.8652 498.431 99.0117C499.098 99.1582 499.672 99.3779 500.152 99.6709C500.624 99.9639 500.986 100.338 501.239 100.794C501.499 101.25 501.629 101.791 501.629 102.417C501.629 102.816 501.552 103.191 501.397 103.541C501.251 103.882 501.031 104.183 500.738 104.444C500.576 104.598 500.388 104.737 500.177 104.859C499.965 104.981 499.733 105.091 499.481 105.188L499.579 105.213C499.986 105.319 500.34 105.469 500.641 105.665C500.95 105.852 501.214 106.076 501.434 106.336C501.654 106.604 501.821 106.902 501.935 107.227C502.049 107.553 502.105 107.894 502.105 108.252C502.105 108.879 501.987 109.428 501.751 109.9C501.515 110.364 501.178 110.751 500.738 111.06C500.299 111.377 499.766 111.613 499.139 111.768C498.521 111.923 497.825 112 497.052 112H491.021ZM493.292 106.202V110.181H497.052C497.532 110.181 497.951 110.132 498.309 110.035C498.675 109.937 498.976 109.795 499.212 109.607C499.416 109.445 499.57 109.245 499.676 109.009C499.782 108.765 499.835 108.488 499.835 108.179C499.835 107.862 499.774 107.581 499.652 107.337C499.538 107.093 499.367 106.889 499.139 106.727C498.903 106.556 498.61 106.425 498.26 106.336C497.91 106.246 497.507 106.202 497.052 106.202H493.292ZM493.292 104.395H496.234C496.844 104.395 497.369 104.342 497.809 104.236C498.248 104.131 498.598 103.964 498.858 103.736C499.021 103.589 499.147 103.418 499.237 103.223C499.326 103.02 499.371 102.792 499.371 102.54C499.371 102.206 499.298 101.917 499.151 101.673C499.013 101.429 498.806 101.229 498.529 101.075C498.268 100.92 497.939 100.806 497.54 100.733C497.149 100.66 496.706 100.623 496.209 100.623H493.292V104.395ZM505.023 105.274C505.023 104.322 505.162 103.439 505.438 102.625C505.715 101.803 506.114 101.091 506.635 100.489C507.147 99.8866 507.774 99.4146 508.515 99.0728C509.255 98.7228 510.089 98.5479 511.017 98.5479C511.953 98.5479 512.791 98.7228 513.532 99.0728C514.28 99.4146 514.915 99.8866 515.436 100.489C515.949 101.091 516.343 101.803 516.62 102.625C516.897 103.439 517.035 104.322 517.035 105.274V105.542C517.035 106.495 516.897 107.378 516.62 108.191C516.343 109.005 515.949 109.713 515.436 110.315C514.915 110.918 514.285 111.39 513.544 111.731C512.803 112.073 511.969 112.244 511.042 112.244C510.106 112.244 509.263 112.073 508.515 111.731C507.774 111.39 507.147 110.918 506.635 110.315C506.114 109.713 505.715 109.005 505.438 108.191C505.162 107.378 505.023 106.495 505.023 105.542V105.274ZM507.282 105.542C507.282 106.194 507.359 106.816 507.514 107.41C507.668 107.996 507.904 108.513 508.222 108.96C508.531 109.408 508.922 109.762 509.394 110.022C509.866 110.283 510.415 110.413 511.042 110.413C511.66 110.413 512.201 110.283 512.665 110.022C513.137 109.762 513.532 109.408 513.849 108.96C514.158 108.513 514.39 107.996 514.545 107.41C514.7 106.816 514.777 106.194 514.777 105.542V105.274C514.777 104.631 514.695 104.017 514.533 103.431C514.378 102.837 514.146 102.316 513.837 101.868C513.52 101.421 513.125 101.067 512.653 100.806C512.189 100.538 511.644 100.403 511.017 100.403C510.39 100.403 509.845 100.538 509.381 100.806C508.917 101.067 508.531 101.421 508.222 101.868C507.904 102.316 507.668 102.837 507.514 103.431C507.359 104.017 507.282 104.631 507.282 105.274V105.542ZM525.935 99.5488C526.797 99.5488 527.566 99.7035 528.242 100.013C528.917 100.314 529.491 100.729 529.963 101.258C530.435 101.795 530.793 102.43 531.037 103.162C531.289 103.886 531.416 104.676 531.416 105.53V105.811C531.416 106.731 531.281 107.581 531.013 108.362C530.752 109.144 530.37 109.823 529.865 110.401C529.361 110.979 528.742 111.43 528.01 111.756C527.285 112.081 526.459 112.244 525.532 112.244C524.604 112.244 523.774 112.081 523.042 111.756C522.309 111.43 521.691 110.979 521.186 110.401C520.681 109.823 520.295 109.144 520.026 108.362C519.758 107.581 519.624 106.731 519.624 105.811V104.603C519.624 103.838 519.66 103.121 519.733 102.454C519.815 101.779 519.929 101.156 520.075 100.586C520.214 100.057 520.38 99.5651 520.576 99.1094C520.771 98.6536 520.995 98.2345 521.247 97.8521C521.76 97.0708 522.382 96.4482 523.115 95.9844C523.855 95.5124 524.677 95.1909 525.581 95.02C526.012 94.9386 526.411 94.8532 526.777 94.7637C527.151 94.666 527.477 94.5439 527.753 94.3975C528.022 94.2591 528.234 94.0841 528.388 93.8726C528.543 93.6528 528.62 93.3761 528.62 93.0425H530.476C530.476 93.7993 530.358 94.4097 530.122 94.8735C529.894 95.3374 529.572 95.7077 529.157 95.9844C528.791 96.2285 528.384 96.4116 527.937 96.5337C527.497 96.6558 526.875 96.8022 526.069 96.9731C525.499 97.0952 524.966 97.2661 524.47 97.4858C523.973 97.6974 523.53 97.9863 523.139 98.3525C522.749 98.7188 522.419 99.1704 522.15 99.7075C521.882 100.236 521.687 100.875 521.564 101.624C521.825 101.323 522.114 101.046 522.431 100.794C522.749 100.534 523.09 100.31 523.457 100.123C523.823 99.9435 524.213 99.8052 524.628 99.7075C525.043 99.6017 525.479 99.5488 525.935 99.5488ZM525.507 101.404C524.889 101.404 524.352 101.518 523.896 101.746C523.44 101.966 523.066 102.263 522.773 102.637C522.472 103.02 522.248 103.459 522.102 103.956C521.955 104.452 521.882 104.977 521.882 105.53V105.811C521.882 106.43 521.955 107.02 522.102 107.581C522.248 108.134 522.472 108.619 522.773 109.034C523.066 109.457 523.44 109.795 523.896 110.047C524.36 110.291 524.905 110.413 525.532 110.413C526.15 110.413 526.683 110.291 527.131 110.047C527.587 109.795 527.965 109.457 528.266 109.034C528.567 108.619 528.791 108.134 528.938 107.581C529.084 107.02 529.157 106.43 529.157 105.811V105.53C529.157 104.977 529.084 104.452 528.938 103.956C528.791 103.459 528.567 103.02 528.266 102.637C527.965 102.263 527.583 101.966 527.119 101.746C526.663 101.518 526.126 101.404 525.507 101.404ZM534.053 105.274C534.053 104.322 534.191 103.439 534.468 102.625C534.744 101.803 535.143 101.091 535.664 100.489C536.177 99.8866 536.803 99.4146 537.544 99.0728C538.285 98.7228 539.119 98.5479 540.046 98.5479C540.982 98.5479 541.82 98.7228 542.561 99.0728C543.31 99.4146 543.944 99.8866 544.465 100.489C544.978 101.091 545.373 101.803 545.649 102.625C545.926 103.439 546.064 104.322 546.064 105.274V105.542C546.064 106.495 545.926 107.378 545.649 108.191C545.373 109.005 544.978 109.713 544.465 110.315C543.944 110.918 543.314 111.39 542.573 111.731C541.833 112.073 540.999 112.244 540.071 112.244C539.135 112.244 538.293 112.073 537.544 111.731C536.803 111.39 536.177 110.918 535.664 110.315C535.143 109.713 534.744 109.005 534.468 108.191C534.191 107.378 534.053 106.495 534.053 105.542V105.274ZM536.311 105.542C536.311 106.194 536.388 106.816 536.543 107.41C536.698 107.996 536.934 108.513 537.251 108.96C537.56 109.408 537.951 109.762 538.423 110.022C538.895 110.283 539.444 110.413 540.071 110.413C540.689 110.413 541.23 110.283 541.694 110.022C542.166 109.762 542.561 109.408 542.878 108.96C543.188 108.513 543.42 107.996 543.574 107.41C543.729 106.816 543.806 106.194 543.806 105.542V105.274C543.806 104.631 543.725 104.017 543.562 103.431C543.407 102.837 543.175 102.316 542.866 101.868C542.549 101.421 542.154 101.067 541.682 100.806C541.218 100.538 540.673 100.403 540.046 100.403C539.42 100.403 538.875 100.538 538.411 100.806C537.947 101.067 537.56 101.421 537.251 101.868C536.934 102.316 536.698 102.837 536.543 103.431C536.388 104.017 536.311 104.631 536.311 105.274V105.542ZM548.982 110.157C549.332 110.108 549.625 109.925 549.861 109.607C550.105 109.282 550.305 108.842 550.459 108.289C550.614 107.736 550.736 107.076 550.826 106.312C550.923 105.547 551.001 104.692 551.058 103.748L551.253 98.792H559.761V110.157H561.458L561.238 115.882H559.2V112H549.983V115.882H547.957L547.737 110.157H548.982ZM553.316 103.748C553.275 104.432 553.222 105.083 553.157 105.701C553.1 106.32 553.027 106.897 552.938 107.435C552.848 107.98 552.734 108.48 552.596 108.936C552.465 109.392 552.303 109.799 552.107 110.157H557.503V100.879H553.426L553.316 103.748ZM574.569 112H572.311V106.36H565.865V112H563.607V98.792H565.865V104.517H572.311V98.792H574.569V112ZM577.597 105.274C577.597 104.322 577.735 103.439 578.012 102.625C578.288 101.803 578.687 101.091 579.208 100.489C579.721 99.8866 580.347 99.4146 581.088 99.0728C581.828 98.7228 582.663 98.5479 583.59 98.5479C584.526 98.5479 585.364 98.7228 586.105 99.0728C586.854 99.4146 587.488 99.8866 588.009 100.489C588.522 101.091 588.917 101.803 589.193 102.625C589.47 103.439 589.608 104.322 589.608 105.274V105.542C589.608 106.495 589.47 107.378 589.193 108.191C588.917 109.005 588.522 109.713 588.009 110.315C587.488 110.918 586.858 111.39 586.117 111.731C585.377 112.073 584.542 112.244 583.615 112.244C582.679 112.244 581.837 112.073 581.088 111.731C580.347 111.39 579.721 110.918 579.208 110.315C578.687 109.713 578.288 109.005 578.012 108.191C577.735 107.378 577.597 106.495 577.597 105.542V105.274ZM579.855 105.542C579.855 106.194 579.932 106.816 580.087 107.41C580.242 107.996 580.478 108.513 580.795 108.96C581.104 109.408 581.495 109.762 581.967 110.022C582.439 110.283 582.988 110.413 583.615 110.413C584.233 110.413 584.774 110.283 585.238 110.022C585.71 109.762 586.105 109.408 586.422 108.96C586.732 108.513 586.964 107.996 587.118 107.41C587.273 106.816 587.35 106.194 587.35 105.542V105.274C587.35 104.631 587.269 104.017 587.106 103.431C586.951 102.837 586.719 102.316 586.41 101.868C586.093 101.421 585.698 101.067 585.226 100.806C584.762 100.538 584.217 100.403 583.59 100.403C582.964 100.403 582.418 100.538 581.955 100.806C581.491 101.067 581.104 101.421 580.795 101.868C580.478 102.316 580.242 102.837 580.087 103.431C579.932 104.017 579.855 104.631 579.855 105.274V105.542ZM607.139 112V98.792H612.327C613.14 98.792 613.881 98.8652 614.548 99.0117C615.216 99.1582 615.789 99.3779 616.27 99.6709C616.742 99.9639 617.104 100.338 617.356 100.794C617.616 101.25 617.747 101.791 617.747 102.417C617.747 102.816 617.669 103.191 617.515 103.541C617.368 103.882 617.148 104.183 616.855 104.444C616.693 104.598 616.506 104.737 616.294 104.859C616.082 104.981 615.85 105.091 615.598 105.188L615.696 105.213C616.103 105.319 616.457 105.469 616.758 105.665C617.067 105.852 617.332 106.076 617.551 106.336C617.771 106.604 617.938 106.902 618.052 107.227C618.166 107.553 618.223 107.894 618.223 108.252C618.223 108.879 618.105 109.428 617.869 109.9C617.633 110.364 617.295 110.751 616.855 111.06C616.416 111.377 615.883 111.613 615.256 111.768C614.638 111.923 613.942 112 613.169 112H607.139ZM609.409 106.202V110.181H613.169C613.649 110.181 614.068 110.132 614.426 110.035C614.792 109.937 615.094 109.795 615.33 109.607C615.533 109.445 615.688 109.245 615.793 109.009C615.899 108.765 615.952 108.488 615.952 108.179C615.952 107.862 615.891 107.581 615.769 107.337C615.655 107.093 615.484 106.889 615.256 106.727C615.02 106.556 614.727 106.425 614.377 106.336C614.028 106.246 613.625 106.202 613.169 106.202H609.409ZM609.409 104.395H612.351C612.961 104.395 613.486 104.342 613.926 104.236C614.365 104.131 614.715 103.964 614.976 103.736C615.138 103.589 615.264 103.418 615.354 103.223C615.444 103.02 615.488 102.792 615.488 102.54C615.488 102.206 615.415 101.917 615.269 101.673C615.13 101.429 614.923 101.229 614.646 101.075C614.386 100.92 614.056 100.806 613.657 100.733C613.267 100.66 612.823 100.623 612.327 100.623H609.409V104.395ZM632.615 98.792V112H630.345V100.66H625.486L625.474 104.444C625.474 104.891 625.462 105.327 625.438 105.75C625.421 106.165 625.393 106.56 625.352 106.934C625.287 107.553 625.185 108.122 625.047 108.643C624.909 109.164 624.734 109.624 624.522 110.022C624.18 110.665 623.72 111.158 623.143 111.5C622.565 111.833 621.845 112 620.982 112H620.323L620.359 109.986L620.86 109.974C621.324 109.974 621.706 109.86 622.007 109.632C622.317 109.396 622.561 109.046 622.74 108.582C622.829 108.33 622.907 108.041 622.972 107.715C623.037 107.382 623.09 107.015 623.13 106.617C623.155 106.299 623.171 105.962 623.179 105.604C623.195 105.237 623.204 104.851 623.204 104.444L623.228 98.792H632.615ZM644.969 112C644.88 111.829 644.806 111.618 644.75 111.365C644.701 111.105 644.664 110.836 644.64 110.56C644.412 110.787 644.155 111.003 643.871 111.207C643.594 111.41 643.289 111.589 642.955 111.744C642.613 111.898 642.251 112.02 641.869 112.11C641.486 112.199 641.079 112.244 640.648 112.244C639.948 112.244 639.313 112.142 638.744 111.939C638.182 111.736 637.706 111.459 637.315 111.109C636.917 110.767 636.607 110.36 636.388 109.888C636.176 109.408 636.07 108.891 636.07 108.338C636.07 107.614 636.213 106.979 636.498 106.434C636.791 105.888 637.201 105.433 637.73 105.066C638.259 104.708 638.894 104.44 639.635 104.261C640.383 104.082 641.218 103.992 642.137 103.992H644.603V102.955C644.603 102.556 644.53 102.198 644.383 101.88C644.237 101.563 644.029 101.29 643.761 101.062C643.492 100.843 643.163 100.672 642.772 100.55C642.389 100.428 641.958 100.367 641.478 100.367C641.03 100.367 640.628 100.424 640.27 100.538C639.92 100.652 639.623 100.802 639.378 100.989C639.134 101.176 638.943 101.4 638.805 101.661C638.674 101.913 638.609 102.177 638.609 102.454H636.339C636.347 101.974 636.469 101.502 636.705 101.038C636.949 100.574 637.299 100.155 637.755 99.7808C638.202 99.4146 638.748 99.1175 639.391 98.8896C640.042 98.6618 640.778 98.5479 641.6 98.5479C642.349 98.5479 643.045 98.6414 643.688 98.8286C644.33 99.0076 644.888 99.2803 645.36 99.6465C645.824 100.021 646.19 100.485 646.458 101.038C646.727 101.591 646.861 102.238 646.861 102.979V109.119C646.861 109.559 646.902 110.027 646.983 110.523C647.065 111.011 647.179 111.438 647.325 111.805V112H644.969ZM640.978 110.279C641.417 110.279 641.828 110.222 642.21 110.108C642.593 109.994 642.943 109.843 643.26 109.656C643.569 109.469 643.838 109.257 644.066 109.021C644.294 108.777 644.473 108.525 644.603 108.265V105.591H642.503C641.722 105.591 641.039 105.66 640.453 105.799C639.875 105.929 639.415 106.132 639.073 106.409C638.829 106.604 638.642 106.836 638.512 107.105C638.39 107.374 638.329 107.679 638.329 108.021C638.329 108.346 638.382 108.647 638.487 108.924C638.601 109.201 638.768 109.437 638.988 109.632C639.208 109.835 639.484 109.994 639.818 110.108C640.152 110.222 640.538 110.279 640.978 110.279ZM650.585 110.157C650.935 110.108 651.228 109.925 651.464 109.607C651.708 109.282 651.907 108.842 652.062 108.289C652.217 107.736 652.339 107.076 652.428 106.312C652.526 105.547 652.603 104.692 652.66 103.748L652.855 98.792H661.364V110.157H663.061L662.841 115.882H660.802V112H651.586V115.882H649.56L649.34 110.157H650.585ZM654.918 103.748C654.878 104.432 654.825 105.083 654.76 105.701C654.703 106.32 654.63 106.897 654.54 107.435C654.451 107.98 654.337 108.48 654.198 108.936C654.068 109.392 653.905 109.799 653.71 110.157H659.105V100.879H655.028L654.918 103.748ZM671.154 112.244C670.227 112.244 669.372 112.085 668.591 111.768C667.818 111.451 667.154 111.007 666.601 110.438C666.048 109.868 665.616 109.192 665.307 108.411C664.998 107.63 664.843 106.779 664.843 105.86V105.347C664.843 104.281 665.014 103.329 665.356 102.491C665.698 101.644 666.153 100.928 666.723 100.342C667.285 99.7645 667.924 99.321 668.64 99.0117C669.364 98.7025 670.104 98.5479 670.861 98.5479C671.813 98.5479 672.644 98.7147 673.352 99.0483C674.068 99.3739 674.662 99.8255 675.134 100.403C675.606 100.989 675.956 101.677 676.184 102.466C676.42 103.256 676.538 104.11 676.538 105.03V106.043H667.102V106.128C667.159 106.771 667.285 107.337 667.48 107.825C667.683 108.313 667.96 108.745 668.31 109.119C668.668 109.518 669.099 109.831 669.604 110.059C670.109 110.287 670.666 110.401 671.276 110.401C672.082 110.401 672.798 110.238 673.425 109.913C674.051 109.587 674.572 109.156 674.987 108.619L676.367 109.693C675.927 110.36 675.268 110.954 674.389 111.475C673.518 111.988 672.44 112.244 671.154 112.244ZM670.861 100.403C670.406 100.403 669.974 100.489 669.567 100.66C669.16 100.822 668.794 101.062 668.469 101.38C668.143 101.705 667.867 102.104 667.639 102.576C667.419 103.04 667.264 103.577 667.175 104.188H674.279V104.078C674.279 103.671 674.202 103.235 674.047 102.771C673.893 102.299 673.677 101.893 673.4 101.551C673.124 101.209 672.774 100.932 672.351 100.721C671.936 100.509 671.439 100.403 670.861 100.403ZM681.348 104.395H682.935C682.992 103.565 683.122 102.796 683.325 102.088C683.529 101.372 683.813 100.749 684.18 100.22C684.546 99.6994 684.989 99.2925 685.51 98.9995C686.031 98.6984 686.637 98.5479 687.329 98.5479C688.086 98.5479 688.745 98.7228 689.307 99.0728C689.868 99.4227 690.332 99.9028 690.698 100.513C691.064 101.124 691.337 101.84 691.516 102.662C691.695 103.475 691.785 104.346 691.785 105.274V105.542C691.785 106.47 691.695 107.345 691.516 108.167C691.337 108.981 691.069 109.689 690.71 110.291C690.344 110.893 689.88 111.369 689.319 111.719C688.765 112.069 688.11 112.244 687.354 112.244C686.646 112.244 686.023 112.094 685.486 111.792C684.957 111.483 684.509 111.06 684.143 110.523C683.777 109.986 683.492 109.351 683.289 108.619C683.093 107.886 682.971 107.097 682.922 106.25H681.348V112H679.089V98.792H681.348V104.395ZM685.181 105.542C685.181 106.177 685.213 106.792 685.278 107.386C685.343 107.972 685.461 108.488 685.632 108.936C685.795 109.384 686.015 109.742 686.292 110.01C686.568 110.279 686.922 110.413 687.354 110.413C687.777 110.413 688.127 110.279 688.403 110.01C688.688 109.742 688.912 109.384 689.075 108.936C689.237 108.488 689.351 107.972 689.417 107.386C689.49 106.792 689.526 106.177 689.526 105.542V105.274C689.526 104.639 689.49 104.029 689.417 103.443C689.351 102.857 689.237 102.336 689.075 101.88C688.904 101.433 688.676 101.075 688.391 100.806C688.114 100.538 687.76 100.403 687.329 100.403C686.906 100.403 686.556 100.538 686.279 100.806C686.003 101.075 685.783 101.433 685.62 101.88C685.457 102.336 685.343 102.857 685.278 103.443C685.213 104.029 685.181 104.639 685.181 105.274V105.542ZM708.741 112V98.792H713.929C714.743 98.792 715.484 98.8652 716.151 99.0117C716.818 99.1582 717.392 99.3779 717.872 99.6709C718.344 99.9639 718.706 100.338 718.958 100.794C719.219 101.25 719.349 101.791 719.349 102.417C719.349 102.816 719.272 103.191 719.117 103.541C718.971 103.882 718.751 104.183 718.458 104.444C718.295 104.598 718.108 104.737 717.896 104.859C717.685 104.981 717.453 105.091 717.201 105.188L717.298 105.213C717.705 105.319 718.059 105.469 718.36 105.665C718.67 105.852 718.934 106.076 719.154 106.336C719.374 106.604 719.54 106.902 719.654 107.227C719.768 107.553 719.825 107.894 719.825 108.252C719.825 108.879 719.707 109.428 719.471 109.9C719.235 110.364 718.897 110.751 718.458 111.06C718.019 111.377 717.486 111.613 716.859 111.768C716.24 111.923 715.545 112 714.771 112H708.741ZM711.012 106.202V110.181H714.771C715.252 110.181 715.671 110.132 716.029 110.035C716.395 109.937 716.696 109.795 716.932 109.607C717.136 109.445 717.29 109.245 717.396 109.009C717.502 108.765 717.555 108.488 717.555 108.179C717.555 107.862 717.494 107.581 717.372 107.337C717.258 107.093 717.087 106.889 716.859 106.727C716.623 106.556 716.33 106.425 715.98 106.336C715.63 106.246 715.227 106.202 714.771 106.202H711.012ZM711.012 104.395H713.954C714.564 104.395 715.089 104.342 715.528 104.236C715.968 104.131 716.318 103.964 716.578 103.736C716.741 103.589 716.867 103.418 716.957 103.223C717.046 103.02 717.091 102.792 717.091 102.54C717.091 102.206 717.018 101.917 716.871 101.673C716.733 101.429 716.525 101.229 716.249 101.075C715.988 100.92 715.659 100.806 715.26 100.733C714.869 100.66 714.426 100.623 713.929 100.623H711.012V104.395ZM729.213 112.244C728.285 112.244 727.431 112.085 726.649 111.768C725.876 111.451 725.213 111.007 724.66 110.438C724.106 109.868 723.675 109.192 723.366 108.411C723.056 107.63 722.902 106.779 722.902 105.86V105.347C722.902 104.281 723.073 103.329 723.415 102.491C723.756 101.644 724.212 100.928 724.782 100.342C725.343 99.7645 725.982 99.321 726.698 99.0117C727.423 98.7025 728.163 98.5479 728.92 98.5479C729.872 98.5479 730.702 98.7147 731.41 99.0483C732.126 99.3739 732.72 99.8255 733.192 100.403C733.664 100.989 734.014 101.677 734.242 102.466C734.478 103.256 734.596 104.11 734.596 105.03V106.043H725.16V106.128C725.217 106.771 725.343 107.337 725.539 107.825C725.742 108.313 726.019 108.745 726.369 109.119C726.727 109.518 727.158 109.831 727.663 110.059C728.167 110.287 728.725 110.401 729.335 110.401C730.141 110.401 730.857 110.238 731.483 109.913C732.11 109.587 732.631 109.156 733.046 108.619L734.425 109.693C733.986 110.36 733.327 110.954 732.448 111.475C731.577 111.988 730.499 112.244 729.213 112.244ZM728.92 100.403C728.464 100.403 728.033 100.489 727.626 100.66C727.219 100.822 726.853 101.062 726.527 101.38C726.202 101.705 725.925 102.104 725.697 102.576C725.478 103.04 725.323 103.577 725.233 104.188H732.338V104.078C732.338 103.671 732.261 103.235 732.106 102.771C731.951 102.299 731.736 101.893 731.459 101.551C731.182 101.209 730.832 100.932 730.409 100.721C729.994 100.509 729.498 100.403 728.92 100.403ZM737.88 117.078V98.792H739.943L740.053 100.232C740.232 100.005 740.428 99.8011 740.639 99.6221C740.851 99.4349 741.079 99.2762 741.323 99.146C741.665 98.9507 742.043 98.8042 742.458 98.7065C742.881 98.6007 743.333 98.5479 743.813 98.5479C744.659 98.5479 745.408 98.7147 746.059 99.0483C746.71 99.382 747.255 99.8459 747.695 100.44C748.134 101.034 748.468 101.746 748.696 102.576C748.924 103.398 749.038 104.301 749.038 105.286V105.542C749.038 106.486 748.924 107.369 748.696 108.191C748.468 109.005 748.134 109.713 747.695 110.315C747.255 110.918 746.71 111.39 746.059 111.731C745.416 112.073 744.68 112.244 743.85 112.244C743.345 112.244 742.873 112.191 742.434 112.085C742.002 111.98 741.612 111.829 741.262 111.634C741.05 111.512 740.851 111.377 740.664 111.231C740.476 111.076 740.301 110.91 740.139 110.73V117.078H737.88ZM746.779 105.286C746.779 104.643 746.706 104.033 746.56 103.455C746.421 102.869 746.206 102.352 745.913 101.905C745.611 101.465 745.233 101.115 744.777 100.855C744.322 100.595 743.776 100.464 743.142 100.464C742.792 100.464 742.466 100.505 742.165 100.586C741.872 100.668 741.608 100.786 741.372 100.94C741.111 101.095 740.879 101.286 740.676 101.514C740.472 101.742 740.293 101.994 740.139 102.271V108.631C740.277 108.875 740.436 109.103 740.615 109.314C740.794 109.526 740.997 109.705 741.225 109.852C741.486 110.022 741.774 110.157 742.092 110.254C742.417 110.352 742.775 110.401 743.166 110.401C743.793 110.401 744.334 110.271 744.79 110.01C745.245 109.742 745.62 109.384 745.913 108.936C746.206 108.488 746.421 107.972 746.56 107.386C746.706 106.8 746.779 106.185 746.779 105.542V105.286ZM758.035 110.413C758.442 110.413 758.836 110.348 759.219 110.218C759.609 110.088 759.955 109.904 760.256 109.668C760.557 109.441 760.798 109.172 760.977 108.863C761.164 108.545 761.261 108.204 761.27 107.837H763.406C763.398 108.423 763.243 108.985 762.942 109.522C762.649 110.051 762.254 110.515 761.758 110.914C761.261 111.32 760.692 111.646 760.049 111.89C759.406 112.126 758.735 112.244 758.035 112.244C757.034 112.244 756.159 112.065 755.41 111.707C754.661 111.349 754.039 110.865 753.542 110.254C753.038 109.652 752.66 108.956 752.407 108.167C752.155 107.369 752.029 106.531 752.029 105.652V105.14C752.029 104.269 752.155 103.435 752.407 102.637C752.66 101.84 753.038 101.136 753.542 100.525C754.039 99.9232 754.661 99.443 755.41 99.085C756.159 98.7269 757.034 98.5479 758.035 98.5479C758.816 98.5479 759.532 98.674 760.183 98.9263C760.842 99.1704 761.412 99.5041 761.892 99.9272C762.364 100.359 762.734 100.867 763.003 101.453C763.271 102.039 763.406 102.666 763.406 103.333H761.27C761.261 102.934 761.172 102.56 761.001 102.21C760.838 101.852 760.614 101.539 760.33 101.27C760.045 101.001 759.703 100.79 759.304 100.635C758.914 100.481 758.49 100.403 758.035 100.403C757.335 100.403 756.745 100.546 756.265 100.831C755.793 101.107 755.41 101.469 755.117 101.917C754.824 102.373 754.613 102.881 754.482 103.443C754.36 104.004 754.299 104.57 754.299 105.14V105.652C754.299 106.23 754.36 106.804 754.482 107.374C754.613 107.935 754.824 108.44 755.117 108.887C755.402 109.343 755.78 109.713 756.252 109.998C756.733 110.275 757.327 110.413 758.035 110.413ZM778.799 100.623H773.526V112H771.255V100.623H766.067V98.792H778.799V100.623ZM785.721 106.373H783.573V112H781.314V98.792H783.573V104.383H785.526L790.445 98.792H793.192L787.528 105.152L793.631 112H790.763L785.721 106.373ZM795.316 105.274C795.316 104.322 795.455 103.439 795.731 102.625C796.008 101.803 796.407 101.091 796.928 100.489C797.44 99.8866 798.067 99.4146 798.808 99.0728C799.548 98.7228 800.382 98.5479 801.31 98.5479C802.246 98.5479 803.084 98.7228 803.825 99.0728C804.573 99.4146 805.208 99.8866 805.729 100.489C806.242 101.091 806.636 101.803 806.913 102.625C807.19 103.439 807.328 104.322 807.328 105.274V105.542C807.328 106.495 807.19 107.378 806.913 108.191C806.636 109.005 806.242 109.713 805.729 110.315C805.208 110.918 804.577 111.39 803.837 111.731C803.096 112.073 802.262 112.244 801.334 112.244C800.399 112.244 799.556 112.073 798.808 111.731C798.067 111.39 797.44 110.918 796.928 110.315C796.407 109.713 796.008 109.005 795.731 108.191C795.455 107.378 795.316 106.495 795.316 105.542V105.274ZM797.575 105.542C797.575 106.194 797.652 106.816 797.807 107.41C797.961 107.996 798.197 108.513 798.515 108.96C798.824 109.408 799.215 109.762 799.687 110.022C800.159 110.283 800.708 110.413 801.334 110.413C801.953 110.413 802.494 110.283 802.958 110.022C803.43 109.762 803.825 109.408 804.142 108.96C804.451 108.513 804.683 107.996 804.838 107.41C804.993 106.816 805.07 106.194 805.07 105.542V105.274C805.07 104.631 804.988 104.017 804.826 103.431C804.671 102.837 804.439 102.316 804.13 101.868C803.812 101.421 803.418 101.067 802.946 100.806C802.482 100.538 801.937 100.403 801.31 100.403C800.683 100.403 800.138 100.538 799.674 100.806C799.21 101.067 798.824 101.421 798.515 101.868C798.197 102.316 797.961 102.837 797.807 103.431C797.652 104.017 797.575 104.631 797.575 105.274V105.542ZM819.06 98.792H821.318V112H819.06V102.259L812.602 112H810.356V98.792H812.602V108.545L819.06 98.792ZM819.34 93.4087C819.34 93.8888 819.255 94.3324 819.084 94.7393C818.913 95.138 818.669 95.4798 818.352 95.7646C818.034 96.0495 817.652 96.2733 817.204 96.436C816.757 96.5907 816.256 96.668 815.703 96.668C815.141 96.668 814.637 96.5907 814.189 96.436C813.741 96.2733 813.359 96.0495 813.042 95.7646C812.724 95.4798 812.476 95.138 812.297 94.7393C812.126 94.3324 812.041 93.8888 812.041 93.4087H813.872C813.872 93.6528 813.908 93.8888 813.981 94.1167C814.055 94.3364 814.165 94.5277 814.311 94.6904C814.458 94.8532 814.645 94.9834 814.873 95.0811C815.1 95.1787 815.377 95.2275 815.703 95.2275C816.02 95.2275 816.289 95.1787 816.508 95.0811C816.736 94.9834 816.923 94.8532 817.07 94.6904C817.216 94.5277 817.326 94.3364 817.399 94.1167C817.473 93.8888 817.509 93.6528 817.509 93.4087H819.34ZM845.123 110.413C845.529 110.413 845.924 110.348 846.307 110.218C846.697 110.088 847.043 109.904 847.344 109.668C847.645 109.441 847.885 109.172 848.064 108.863C848.252 108.545 848.349 108.204 848.357 107.837H850.494C850.486 108.423 850.331 108.985 850.03 109.522C849.737 110.051 849.342 110.515 848.846 110.914C848.349 111.32 847.78 111.646 847.137 111.89C846.494 112.126 845.822 112.244 845.123 112.244C844.122 112.244 843.247 112.065 842.498 111.707C841.749 111.349 841.127 110.865 840.63 110.254C840.126 109.652 839.747 108.956 839.495 108.167C839.243 107.369 839.117 106.531 839.117 105.652V105.14C839.117 104.269 839.243 103.435 839.495 102.637C839.747 101.84 840.126 101.136 840.63 100.525C841.127 99.9232 841.749 99.443 842.498 99.085C843.247 98.7269 844.122 98.5479 845.123 98.5479C845.904 98.5479 846.62 98.674 847.271 98.9263C847.93 99.1704 848.5 99.5041 848.98 99.9272C849.452 100.359 849.822 100.867 850.091 101.453C850.359 102.039 850.494 102.666 850.494 103.333H848.357C848.349 102.934 848.26 102.56 848.089 102.21C847.926 101.852 847.702 101.539 847.417 101.27C847.133 101.001 846.791 100.79 846.392 100.635C846.001 100.481 845.578 100.403 845.123 100.403C844.423 100.403 843.833 100.546 843.353 100.831C842.881 101.107 842.498 101.469 842.205 101.917C841.912 102.373 841.701 102.881 841.57 103.443C841.448 104.004 841.387 104.57 841.387 105.14V105.652C841.387 106.23 841.448 106.804 841.57 107.374C841.701 107.935 841.912 108.44 842.205 108.887C842.49 109.343 842.868 109.713 843.34 109.998C843.82 110.275 844.415 110.413 845.123 110.413ZM865.887 100.623H860.614V112H858.343V100.623H853.155V98.792H865.887V100.623ZM868.512 117.078V98.792H870.575L870.685 100.232C870.864 100.005 871.059 99.8011 871.271 99.6221C871.483 99.4349 871.71 99.2762 871.955 99.146C872.296 98.9507 872.675 98.8042 873.09 98.7065C873.513 98.6007 873.965 98.5479 874.445 98.5479C875.291 98.5479 876.04 98.7147 876.691 99.0483C877.342 99.382 877.887 99.8459 878.327 100.44C878.766 101.034 879.1 101.746 879.328 102.576C879.556 103.398 879.669 104.301 879.669 105.286V105.542C879.669 106.486 879.556 107.369 879.328 108.191C879.1 109.005 878.766 109.713 878.327 110.315C877.887 110.918 877.342 111.39 876.691 111.731C876.048 112.073 875.312 112.244 874.481 112.244C873.977 112.244 873.505 112.191 873.065 112.085C872.634 111.98 872.243 111.829 871.894 111.634C871.682 111.512 871.483 111.377 871.295 111.231C871.108 111.076 870.933 110.91 870.771 110.73V117.078H868.512ZM877.411 105.286C877.411 104.643 877.338 104.033 877.191 103.455C877.053 102.869 876.837 102.352 876.544 101.905C876.243 101.465 875.865 101.115 875.409 100.855C874.953 100.595 874.408 100.464 873.773 100.464C873.424 100.464 873.098 100.505 872.797 100.586C872.504 100.668 872.239 100.786 872.003 100.94C871.743 101.095 871.511 101.286 871.308 101.514C871.104 101.742 870.925 101.994 870.771 102.271V108.631C870.909 108.875 871.068 109.103 871.247 109.314C871.426 109.526 871.629 109.705 871.857 109.852C872.117 110.022 872.406 110.157 872.724 110.254C873.049 110.352 873.407 110.401 873.798 110.401C874.424 110.401 874.966 110.271 875.421 110.01C875.877 109.742 876.251 109.384 876.544 108.936C876.837 108.488 877.053 107.972 877.191 107.386C877.338 106.8 877.411 106.185 877.411 105.542V105.286ZM891.718 112C891.629 111.829 891.556 111.618 891.499 111.365C891.45 111.105 891.413 110.836 891.389 110.56C891.161 110.787 890.904 111.003 890.62 111.207C890.343 111.41 890.038 111.589 889.704 111.744C889.362 111.898 889 112.02 888.618 112.11C888.235 112.199 887.828 112.244 887.397 112.244C886.697 112.244 886.062 112.142 885.493 111.939C884.931 111.736 884.455 111.459 884.064 111.109C883.666 110.767 883.356 110.36 883.137 109.888C882.925 109.408 882.819 108.891 882.819 108.338C882.819 107.614 882.962 106.979 883.247 106.434C883.54 105.888 883.951 105.433 884.479 105.066C885.008 104.708 885.643 104.44 886.384 104.261C887.132 104.082 887.967 103.992 888.886 103.992H891.352V102.955C891.352 102.556 891.279 102.198 891.132 101.88C890.986 101.563 890.778 101.29 890.51 101.062C890.241 100.843 889.912 100.672 889.521 100.55C889.139 100.428 888.707 100.367 888.227 100.367C887.779 100.367 887.377 100.424 887.019 100.538C886.669 100.652 886.372 100.802 886.127 100.989C885.883 101.176 885.692 101.4 885.554 101.661C885.424 101.913 885.358 102.177 885.358 102.454H883.088C883.096 101.974 883.218 101.502 883.454 101.038C883.698 100.574 884.048 100.155 884.504 99.7808C884.951 99.4146 885.497 99.1175 886.14 98.8896C886.791 98.6618 887.527 98.5479 888.349 98.5479C889.098 98.5479 889.794 98.6414 890.437 98.8286C891.079 99.0076 891.637 99.2803 892.109 99.6465C892.573 100.021 892.939 100.485 893.208 101.038C893.476 101.591 893.61 102.238 893.61 102.979V109.119C893.61 109.559 893.651 110.027 893.732 110.523C893.814 111.011 893.928 111.438 894.074 111.805V112H891.718ZM887.727 110.279C888.166 110.279 888.577 110.222 888.959 110.108C889.342 109.994 889.692 109.843 890.009 109.656C890.319 109.469 890.587 109.257 890.815 109.021C891.043 108.777 891.222 108.525 891.352 108.265V105.591H889.252C888.471 105.591 887.788 105.66 887.202 105.799C886.624 105.929 886.164 106.132 885.822 106.409C885.578 106.604 885.391 106.836 885.261 107.105C885.139 107.374 885.078 107.679 885.078 108.021C885.078 108.346 885.131 108.647 885.236 108.924C885.35 109.201 885.517 109.437 885.737 109.632C885.957 109.835 886.233 109.994 886.567 110.108C886.901 110.222 887.287 110.279 887.727 110.279ZM908.406 112H906.147V106.36H899.702V112H897.444V98.792H899.702V104.517H906.147V98.792H908.406V112ZM920.662 98.792H922.92V112H920.662V102.259L914.205 112H911.958V98.792H914.205V108.545L920.662 98.792ZM926.534 98.792H928.792V110.157H934.872V98.792H937.142V110.157H938.717L938.497 115.918H936.471V112H926.534V98.792ZM487.481 145H485.223V139.36H478.777V145H476.519V131.792H478.777V137.517H485.223V131.792H487.481V145ZM499.823 145C499.733 144.829 499.66 144.618 499.603 144.365C499.554 144.105 499.518 143.836 499.493 143.56C499.265 143.787 499.009 144.003 498.724 144.207C498.447 144.41 498.142 144.589 497.809 144.744C497.467 144.898 497.105 145.02 496.722 145.11C496.34 145.199 495.933 145.244 495.501 145.244C494.802 145.244 494.167 145.142 493.597 144.939C493.036 144.736 492.56 144.459 492.169 144.109C491.77 143.767 491.461 143.36 491.241 142.888C491.03 142.408 490.924 141.891 490.924 141.338C490.924 140.614 491.066 139.979 491.351 139.434C491.644 138.888 492.055 138.433 492.584 138.066C493.113 137.708 493.748 137.44 494.488 137.261C495.237 137.082 496.071 136.992 496.991 136.992H499.457V135.955C499.457 135.556 499.383 135.198 499.237 134.88C499.09 134.563 498.883 134.29 498.614 134.062C498.346 133.843 498.016 133.672 497.625 133.55C497.243 133.428 496.812 133.367 496.332 133.367C495.884 133.367 495.481 133.424 495.123 133.538C494.773 133.652 494.476 133.802 494.232 133.989C493.988 134.176 493.797 134.4 493.658 134.661C493.528 134.913 493.463 135.177 493.463 135.454H491.192C491.201 134.974 491.323 134.502 491.559 134.038C491.803 133.574 492.153 133.155 492.608 132.781C493.056 132.415 493.601 132.118 494.244 131.89C494.895 131.662 495.632 131.548 496.454 131.548C497.202 131.548 497.898 131.641 498.541 131.829C499.184 132.008 499.741 132.28 500.213 132.646C500.677 133.021 501.043 133.485 501.312 134.038C501.581 134.591 501.715 135.238 501.715 135.979V142.119C501.715 142.559 501.756 143.027 501.837 143.523C501.918 144.011 502.032 144.438 502.179 144.805V145H499.823ZM495.831 143.279C496.271 143.279 496.681 143.222 497.064 143.108C497.446 142.994 497.796 142.843 498.114 142.656C498.423 142.469 498.692 142.257 498.919 142.021C499.147 141.777 499.326 141.525 499.457 141.265V138.591H497.357C496.576 138.591 495.892 138.66 495.306 138.799C494.728 138.929 494.269 139.132 493.927 139.409C493.683 139.604 493.495 139.836 493.365 140.105C493.243 140.374 493.182 140.679 493.182 141.021C493.182 141.346 493.235 141.647 493.341 141.924C493.455 142.201 493.622 142.437 493.841 142.632C494.061 142.835 494.338 142.994 494.671 143.108C495.005 143.222 495.392 143.279 495.831 143.279ZM531.318 145H529.182V136.785H521.894V145H519.77V127.227H521.894V134.868H529.182V127.227H531.318V145ZM546.675 129.155H541.182V145H538.984V129.155H533.491V127.227H546.675V129.155ZM551.68 127.227L554.573 136.113L557.698 127.227H560.506V145H558.309V137.908L558.492 130.486L555.208 140.056H553.914L550.899 130.742L551.082 137.908V145H548.885V127.227H551.68ZM566.268 143.083H574.959V145H564.01V127.227H566.268V143.083ZM457.25 168.356C457.25 168.007 457.307 167.685 457.421 167.392C457.543 167.091 457.71 166.835 457.921 166.623C458.133 166.411 458.389 166.245 458.69 166.123C459 166 459.346 165.939 459.728 165.939C460.111 165.939 460.456 166 460.766 166.123C461.075 166.245 461.339 166.411 461.559 166.623C461.771 166.835 461.933 167.091 462.047 167.392C462.161 167.685 462.218 168.007 462.218 168.356V169.064C462.218 169.414 462.161 169.736 462.047 170.029C461.933 170.322 461.771 170.574 461.559 170.786C461.339 171.005 461.075 171.176 460.766 171.298C460.465 171.412 460.123 171.469 459.74 171.469C459.358 171.469 459.012 171.412 458.703 171.298C458.402 171.176 458.145 171.005 457.934 170.786C457.714 170.574 457.543 170.322 457.421 170.029C457.307 169.736 457.25 169.414 457.25 169.064V168.356ZM480.914 169.956H478.826V178H476.568V160.227H478.826V168.112H480.73L486.138 160.227H488.726L482.684 168.833L489.227 178H486.456L480.914 169.956ZM491.131 183.078V164.792H493.194L493.304 166.232C493.483 166.005 493.679 165.801 493.89 165.622C494.102 165.435 494.33 165.276 494.574 165.146C494.916 164.951 495.294 164.804 495.709 164.707C496.132 164.601 496.584 164.548 497.064 164.548C497.91 164.548 498.659 164.715 499.31 165.048C499.961 165.382 500.506 165.846 500.946 166.44C501.385 167.034 501.719 167.746 501.947 168.576C502.175 169.398 502.289 170.301 502.289 171.286V171.542C502.289 172.486 502.175 173.369 501.947 174.191C501.719 175.005 501.385 175.713 500.946 176.315C500.506 176.918 499.961 177.39 499.31 177.731C498.667 178.073 497.931 178.244 497.101 178.244C496.596 178.244 496.124 178.191 495.685 178.085C495.253 177.98 494.863 177.829 494.513 177.634C494.301 177.512 494.102 177.377 493.915 177.231C493.727 177.076 493.552 176.91 493.39 176.73V183.078H491.131ZM500.03 171.286C500.03 170.643 499.957 170.033 499.811 169.455C499.672 168.869 499.457 168.352 499.164 167.905C498.862 167.465 498.484 167.115 498.028 166.855C497.573 166.595 497.027 166.464 496.393 166.464C496.043 166.464 495.717 166.505 495.416 166.586C495.123 166.668 494.859 166.786 494.623 166.94C494.362 167.095 494.13 167.286 493.927 167.514C493.723 167.742 493.544 167.994 493.39 168.271V174.631C493.528 174.875 493.687 175.103 493.866 175.314C494.045 175.526 494.248 175.705 494.476 175.852C494.736 176.022 495.025 176.157 495.343 176.254C495.668 176.352 496.026 176.401 496.417 176.401C497.044 176.401 497.585 176.271 498.041 176.01C498.496 175.742 498.871 175.384 499.164 174.936C499.457 174.488 499.672 173.972 499.811 173.386C499.957 172.8 500.03 172.185 500.03 171.542V171.286ZM514.337 178C514.248 177.829 514.175 177.618 514.118 177.365C514.069 177.105 514.032 176.836 514.008 176.56C513.78 176.787 513.524 177.003 513.239 177.207C512.962 177.41 512.657 177.589 512.323 177.744C511.981 177.898 511.619 178.02 511.237 178.11C510.854 178.199 510.447 178.244 510.016 178.244C509.316 178.244 508.681 178.142 508.112 177.939C507.55 177.736 507.074 177.459 506.684 177.109C506.285 176.767 505.976 176.36 505.756 175.888C505.544 175.408 505.438 174.891 505.438 174.338C505.438 173.614 505.581 172.979 505.866 172.434C506.159 171.888 506.57 171.433 507.099 171.066C507.628 170.708 508.262 170.44 509.003 170.261C509.752 170.082 510.586 169.992 511.505 169.992H513.971V168.955C513.971 168.556 513.898 168.198 513.751 167.88C513.605 167.563 513.397 167.29 513.129 167.062C512.86 166.843 512.531 166.672 512.14 166.55C511.758 166.428 511.326 166.367 510.846 166.367C510.399 166.367 509.996 166.424 509.638 166.538C509.288 166.652 508.991 166.802 508.747 166.989C508.502 167.176 508.311 167.4 508.173 167.661C508.043 167.913 507.978 168.177 507.978 168.454H505.707C505.715 167.974 505.837 167.502 506.073 167.038C506.317 166.574 506.667 166.155 507.123 165.781C507.571 165.415 508.116 165.118 508.759 164.89C509.41 164.662 510.146 164.548 510.968 164.548C511.717 164.548 512.413 164.641 513.056 164.829C513.699 165.008 514.256 165.28 514.728 165.646C515.192 166.021 515.558 166.485 515.827 167.038C516.095 167.591 516.229 168.238 516.229 168.979V175.119C516.229 175.559 516.27 176.027 516.352 176.523C516.433 177.011 516.547 177.438 516.693 177.805V178H514.337ZM510.346 176.279C510.785 176.279 511.196 176.222 511.579 176.108C511.961 175.994 512.311 175.843 512.628 175.656C512.938 175.469 513.206 175.257 513.434 175.021C513.662 174.777 513.841 174.525 513.971 174.265V171.591H511.872C511.09 171.591 510.407 171.66 509.821 171.799C509.243 171.929 508.783 172.132 508.441 172.409C508.197 172.604 508.01 172.836 507.88 173.105C507.758 173.374 507.697 173.679 507.697 174.021C507.697 174.346 507.75 174.647 507.855 174.924C507.969 175.201 508.136 175.437 508.356 175.632C508.576 175.835 508.852 175.994 509.186 176.108C509.52 176.222 509.906 176.279 510.346 176.279ZM525.8 176.413C526.207 176.413 526.602 176.348 526.984 176.218C527.375 176.088 527.721 175.904 528.022 175.668C528.323 175.441 528.563 175.172 528.742 174.863C528.929 174.545 529.027 174.204 529.035 173.837H531.171C531.163 174.423 531.009 174.985 530.708 175.522C530.415 176.051 530.02 176.515 529.523 176.914C529.027 177.32 528.457 177.646 527.814 177.89C527.172 178.126 526.5 178.244 525.8 178.244C524.799 178.244 523.924 178.065 523.176 177.707C522.427 177.349 521.805 176.865 521.308 176.254C520.804 175.652 520.425 174.956 520.173 174.167C519.921 173.369 519.794 172.531 519.794 171.652V171.14C519.794 170.269 519.921 169.435 520.173 168.637C520.425 167.84 520.804 167.136 521.308 166.525C521.805 165.923 522.427 165.443 523.176 165.085C523.924 164.727 524.799 164.548 525.8 164.548C526.582 164.548 527.298 164.674 527.949 164.926C528.608 165.17 529.178 165.504 529.658 165.927C530.13 166.359 530.5 166.867 530.769 167.453C531.037 168.039 531.171 168.666 531.171 169.333H529.035C529.027 168.934 528.938 168.56 528.767 168.21C528.604 167.852 528.38 167.539 528.095 167.27C527.81 167.001 527.469 166.79 527.07 166.635C526.679 166.481 526.256 166.403 525.8 166.403C525.1 166.403 524.51 166.546 524.03 166.831C523.558 167.107 523.176 167.469 522.883 167.917C522.59 168.373 522.378 168.881 522.248 169.443C522.126 170.004 522.065 170.57 522.065 171.14V171.652C522.065 172.23 522.126 172.804 522.248 173.374C522.378 173.935 522.59 174.44 522.883 174.887C523.168 175.343 523.546 175.713 524.018 175.998C524.498 176.275 525.092 176.413 525.8 176.413ZM543.281 164.792H545.54V178H543.281V168.259L536.824 178H534.578V164.792H536.824V174.545L543.281 164.792ZM549.08 178V164.792H554.268C555.082 164.792 555.822 164.865 556.49 165.012C557.157 165.158 557.731 165.378 558.211 165.671C558.683 165.964 559.045 166.338 559.297 166.794C559.558 167.25 559.688 167.791 559.688 168.417C559.688 168.816 559.611 169.191 559.456 169.541C559.31 169.882 559.09 170.183 558.797 170.444C558.634 170.598 558.447 170.737 558.235 170.859C558.024 170.981 557.792 171.091 557.54 171.188L557.637 171.213C558.044 171.319 558.398 171.469 558.699 171.665C559.008 171.852 559.273 172.076 559.493 172.336C559.712 172.604 559.879 172.902 559.993 173.227C560.107 173.553 560.164 173.894 560.164 174.252C560.164 174.879 560.046 175.428 559.81 175.9C559.574 176.364 559.236 176.751 558.797 177.06C558.357 177.377 557.824 177.613 557.198 177.768C556.579 177.923 555.883 178 555.11 178H549.08ZM551.351 172.202V176.181H555.11C555.59 176.181 556.01 176.132 556.368 176.035C556.734 175.937 557.035 175.795 557.271 175.607C557.474 175.445 557.629 175.245 557.735 175.009C557.841 174.765 557.894 174.488 557.894 174.179C557.894 173.862 557.833 173.581 557.71 173.337C557.597 173.093 557.426 172.889 557.198 172.727C556.962 172.556 556.669 172.425 556.319 172.336C555.969 172.246 555.566 172.202 555.11 172.202H551.351ZM551.351 170.395H554.292C554.903 170.395 555.428 170.342 555.867 170.236C556.307 170.131 556.657 169.964 556.917 169.736C557.08 169.589 557.206 169.418 557.295 169.223C557.385 169.02 557.43 168.792 557.43 168.54C557.43 168.206 557.356 167.917 557.21 167.673C557.072 167.429 556.864 167.229 556.587 167.075C556.327 166.92 555.997 166.806 555.599 166.733C555.208 166.66 554.764 166.623 554.268 166.623H551.351V170.395ZM563.082 171.274C563.082 170.322 563.22 169.439 563.497 168.625C563.774 167.803 564.173 167.091 564.693 166.489C565.206 165.887 565.833 165.415 566.573 165.073C567.314 164.723 568.148 164.548 569.076 164.548C570.012 164.548 570.85 164.723 571.59 165.073C572.339 165.415 572.974 165.887 573.495 166.489C574.007 167.091 574.402 167.803 574.679 168.625C574.955 169.439 575.094 170.322 575.094 171.274V171.542C575.094 172.495 574.955 173.378 574.679 174.191C574.402 175.005 574.007 175.713 573.495 176.315C572.974 176.918 572.343 177.39 571.603 177.731C570.862 178.073 570.028 178.244 569.1 178.244C568.164 178.244 567.322 178.073 566.573 177.731C565.833 177.39 565.206 176.918 564.693 176.315C564.173 175.713 563.774 175.005 563.497 174.191C563.22 173.378 563.082 172.495 563.082 171.542V171.274ZM565.34 171.542C565.34 172.194 565.418 172.816 565.572 173.41C565.727 173.996 565.963 174.513 566.28 174.96C566.59 175.408 566.98 175.762 567.452 176.022C567.924 176.283 568.473 176.413 569.1 176.413C569.719 176.413 570.26 176.283 570.724 176.022C571.196 175.762 571.59 175.408 571.908 174.96C572.217 174.513 572.449 173.996 572.604 173.41C572.758 172.816 572.835 172.194 572.835 171.542V171.274C572.835 170.631 572.754 170.017 572.591 169.431C572.437 168.837 572.205 168.316 571.896 167.868C571.578 167.421 571.183 167.067 570.711 166.806C570.248 166.538 569.702 166.403 569.076 166.403C568.449 166.403 567.904 166.538 567.44 166.806C566.976 167.067 566.59 167.421 566.28 167.868C565.963 168.316 565.727 168.837 565.572 169.431C565.418 170.017 565.34 170.631 565.34 171.274V171.542ZM592.111 171.274C592.111 170.322 592.25 169.439 592.526 168.625C592.803 167.803 593.202 167.091 593.723 166.489C594.235 165.887 594.862 165.415 595.603 165.073C596.343 164.723 597.177 164.548 598.105 164.548C599.041 164.548 599.879 164.723 600.62 165.073C601.368 165.415 602.003 165.887 602.524 166.489C603.037 167.091 603.431 167.803 603.708 168.625C603.985 169.439 604.123 170.322 604.123 171.274V171.542C604.123 172.495 603.985 173.378 603.708 174.191C603.431 175.005 603.037 175.713 602.524 176.315C602.003 176.918 601.372 177.39 600.632 177.731C599.891 178.073 599.057 178.244 598.129 178.244C597.194 178.244 596.351 178.073 595.603 177.731C594.862 177.39 594.235 176.918 593.723 176.315C593.202 175.713 592.803 175.005 592.526 174.191C592.25 173.378 592.111 172.495 592.111 171.542V171.274ZM594.37 171.542C594.37 172.194 594.447 172.816 594.602 173.41C594.756 173.996 594.992 174.513 595.31 174.96C595.619 175.408 596.009 175.762 596.481 176.022C596.953 176.283 597.503 176.413 598.129 176.413C598.748 176.413 599.289 176.283 599.753 176.022C600.225 175.762 600.62 175.408 600.937 174.96C601.246 174.513 601.478 173.996 601.633 173.41C601.787 172.816 601.865 172.194 601.865 171.542V171.274C601.865 170.631 601.783 170.017 601.621 169.431C601.466 168.837 601.234 168.316 600.925 167.868C600.607 167.421 600.213 167.067 599.741 166.806C599.277 166.538 598.732 166.403 598.105 166.403C597.478 166.403 596.933 166.538 596.469 166.806C596.005 167.067 595.619 167.421 595.31 167.868C594.992 168.316 594.756 168.837 594.602 169.431C594.447 170.017 594.37 170.631 594.37 171.274V171.542ZM606.626 171.274C606.626 170.428 606.736 169.63 606.956 168.881C607.175 168.133 607.497 167.465 607.92 166.879C608.335 166.302 608.844 165.821 609.446 165.439C610.048 165.048 610.728 164.784 611.484 164.646V159.25H613.743V164.646C614.508 164.776 615.191 165.036 615.793 165.427C616.404 165.817 616.921 166.302 617.344 166.879C617.767 167.465 618.088 168.133 618.308 168.881C618.528 169.63 618.638 170.428 618.638 171.274V171.542C618.638 172.397 618.524 173.199 618.296 173.947C618.076 174.688 617.759 175.347 617.344 175.925C616.921 176.511 616.404 176.999 615.793 177.39C615.191 177.772 614.508 178.024 613.743 178.146V183.078H611.484V178.134C610.728 178.004 610.048 177.748 609.446 177.365C608.844 176.975 608.335 176.49 607.92 175.913C607.497 175.335 607.175 174.676 606.956 173.935C606.736 173.186 606.626 172.389 606.626 171.542V171.274ZM608.884 171.542C608.884 172.088 608.937 172.613 609.043 173.117C609.149 173.614 609.312 174.069 609.531 174.484C609.743 174.899 610.011 175.257 610.337 175.559C610.662 175.86 611.045 176.083 611.484 176.23V166.586C611.053 166.733 610.675 166.961 610.349 167.27C610.024 167.571 609.755 167.929 609.543 168.344C609.324 168.759 609.157 169.219 609.043 169.724C608.937 170.22 608.884 170.737 608.884 171.274V171.542ZM616.379 171.274C616.379 170.737 616.322 170.216 616.208 169.711C616.103 169.207 615.94 168.747 615.72 168.332C615.5 167.917 615.224 167.559 614.89 167.258C614.565 166.957 614.182 166.733 613.743 166.586V176.254C614.182 176.108 614.565 175.884 614.89 175.583C615.224 175.282 615.5 174.924 615.72 174.509C615.94 174.094 616.103 173.634 616.208 173.129C616.322 172.625 616.379 172.096 616.379 171.542V171.274ZM621.141 171.274C621.141 170.322 621.279 169.439 621.556 168.625C621.832 167.803 622.231 167.091 622.752 166.489C623.265 165.887 623.891 165.415 624.632 165.073C625.372 164.723 626.207 164.548 627.134 164.548C628.07 164.548 628.908 164.723 629.649 165.073C630.398 165.415 631.032 165.887 631.553 166.489C632.066 167.091 632.461 167.803 632.737 168.625C633.014 169.439 633.152 170.322 633.152 171.274V171.542C633.152 172.495 633.014 173.378 632.737 174.191C632.461 175.005 632.066 175.713 631.553 176.315C631.032 176.918 630.402 177.39 629.661 177.731C628.921 178.073 628.086 178.244 627.159 178.244C626.223 178.244 625.381 178.073 624.632 177.731C623.891 177.39 623.265 176.918 622.752 176.315C622.231 175.713 621.832 175.005 621.556 174.191C621.279 173.378 621.141 172.495 621.141 171.542V171.274ZM623.399 171.542C623.399 172.194 623.476 172.816 623.631 173.41C623.785 173.996 624.021 174.513 624.339 174.96C624.648 175.408 625.039 175.762 625.511 176.022C625.983 176.283 626.532 176.413 627.159 176.413C627.777 176.413 628.318 176.283 628.782 176.022C629.254 175.762 629.649 175.408 629.966 174.96C630.276 174.513 630.507 173.996 630.662 173.41C630.817 172.816 630.894 172.194 630.894 171.542V171.274C630.894 170.631 630.813 170.017 630.65 169.431C630.495 168.837 630.263 168.316 629.954 167.868C629.637 167.421 629.242 167.067 628.77 166.806C628.306 166.538 627.761 166.403 627.134 166.403C626.508 166.403 625.962 166.538 625.499 166.806C625.035 167.067 624.648 167.421 624.339 167.868C624.021 168.316 623.785 168.837 623.631 169.431C623.476 170.017 623.399 170.631 623.399 171.274V171.542ZM636.278 183.078V164.792H638.341L638.451 166.232C638.63 166.005 638.825 165.801 639.037 165.622C639.248 165.435 639.476 165.276 639.72 165.146C640.062 164.951 640.44 164.804 640.855 164.707C641.279 164.601 641.73 164.548 642.21 164.548C643.057 164.548 643.806 164.715 644.457 165.048C645.108 165.382 645.653 165.846 646.092 166.44C646.532 167.034 646.865 167.746 647.093 168.576C647.321 169.398 647.435 170.301 647.435 171.286V171.542C647.435 172.486 647.321 173.369 647.093 174.191C646.865 175.005 646.532 175.713 646.092 176.315C645.653 176.918 645.108 177.39 644.457 177.731C643.814 178.073 643.077 178.244 642.247 178.244C641.743 178.244 641.271 178.191 640.831 178.085C640.4 177.98 640.009 177.829 639.659 177.634C639.448 177.512 639.248 177.377 639.061 177.231C638.874 177.076 638.699 176.91 638.536 176.73V183.078H636.278ZM645.177 171.286C645.177 170.643 645.104 170.033 644.957 169.455C644.819 168.869 644.603 168.352 644.31 167.905C644.009 167.465 643.631 167.115 643.175 166.855C642.719 166.595 642.174 166.464 641.539 166.464C641.189 166.464 640.864 166.505 640.562 166.586C640.27 166.668 640.005 166.786 639.769 166.94C639.509 167.095 639.277 167.286 639.073 167.514C638.87 167.742 638.691 167.994 638.536 168.271V174.631C638.674 174.875 638.833 175.103 639.012 175.314C639.191 175.526 639.395 175.705 639.623 175.852C639.883 176.022 640.172 176.157 640.489 176.254C640.815 176.352 641.173 176.401 641.563 176.401C642.19 176.401 642.731 176.271 643.187 176.01C643.643 175.742 644.017 175.384 644.31 174.936C644.603 174.488 644.819 173.972 644.957 173.386C645.104 172.8 645.177 172.185 645.177 171.542V171.286ZM656.054 175.009L658.861 164.792H661.681V178H659.423V169.858L656.835 178H655.272L652.611 169.565V178H650.353V164.792H653.271L656.054 175.009ZM676.159 164.792V178H673.889V166.66H669.03L669.018 170.444C669.018 170.891 669.006 171.327 668.981 171.75C668.965 172.165 668.937 172.56 668.896 172.934C668.831 173.553 668.729 174.122 668.591 174.643C668.452 175.164 668.278 175.624 668.066 176.022C667.724 176.665 667.264 177.158 666.687 177.5C666.109 177.833 665.389 178 664.526 178H663.867L663.903 175.986L664.404 175.974C664.868 175.974 665.25 175.86 665.551 175.632C665.861 175.396 666.105 175.046 666.284 174.582C666.373 174.33 666.451 174.041 666.516 173.715C666.581 173.382 666.634 173.015 666.674 172.617C666.699 172.299 666.715 171.962 666.723 171.604C666.739 171.237 666.748 170.851 666.748 170.444L666.772 164.792H676.159ZM690.613 164.792V178H688.354V172.861H684.253L681.116 178H678.674L682.007 172.519C681.16 172.21 680.509 171.734 680.054 171.091C679.598 170.44 679.37 169.683 679.37 168.82C679.37 168.234 679.484 167.697 679.712 167.209C679.948 166.713 680.282 166.285 680.713 165.927C681.144 165.577 681.673 165.301 682.3 165.097C682.926 164.894 683.63 164.792 684.412 164.792H690.613ZM681.641 168.845C681.641 169.121 681.689 169.39 681.787 169.65C681.885 169.911 682.039 170.139 682.251 170.334C682.454 170.537 682.711 170.7 683.02 170.822C683.329 170.944 683.7 171.005 684.131 171.005H688.354V166.623H684.412C683.948 166.623 683.541 166.688 683.191 166.818C682.841 166.94 682.552 167.103 682.324 167.307C682.096 167.518 681.925 167.758 681.812 168.027C681.698 168.287 681.641 168.56 681.641 168.845ZM695.862 170.395H697.449C697.506 169.565 697.636 168.796 697.84 168.088C698.043 167.372 698.328 166.749 698.694 166.22C699.061 165.699 699.504 165.292 700.025 165C700.546 164.698 701.152 164.548 701.844 164.548C702.601 164.548 703.26 164.723 703.821 165.073C704.383 165.423 704.847 165.903 705.213 166.513C705.579 167.124 705.852 167.84 706.031 168.662C706.21 169.475 706.299 170.346 706.299 171.274V171.542C706.299 172.47 706.21 173.345 706.031 174.167C705.852 174.981 705.583 175.689 705.225 176.291C704.859 176.893 704.395 177.369 703.833 177.719C703.28 178.069 702.625 178.244 701.868 178.244C701.16 178.244 700.538 178.094 700 177.792C699.472 177.483 699.024 177.06 698.658 176.523C698.292 175.986 698.007 175.351 697.803 174.619C697.608 173.886 697.486 173.097 697.437 172.25H695.862V178H693.604V164.792H695.862V170.395ZM699.695 171.542C699.695 172.177 699.728 172.792 699.793 173.386C699.858 173.972 699.976 174.488 700.147 174.936C700.31 175.384 700.529 175.742 700.806 176.01C701.083 176.279 701.437 176.413 701.868 176.413C702.291 176.413 702.641 176.279 702.918 176.01C703.203 175.742 703.427 175.384 703.589 174.936C703.752 174.488 703.866 173.972 703.931 173.386C704.004 172.792 704.041 172.177 704.041 171.542V171.274C704.041 170.639 704.004 170.029 703.931 169.443C703.866 168.857 703.752 168.336 703.589 167.88C703.418 167.433 703.191 167.075 702.906 166.806C702.629 166.538 702.275 166.403 701.844 166.403C701.421 166.403 701.071 166.538 700.794 166.806C700.517 167.075 700.298 167.433 700.135 167.88C699.972 168.336 699.858 168.857 699.793 169.443C699.728 170.029 699.695 170.639 699.695 171.274V171.542ZM729.005 176.413C729.412 176.413 729.807 176.348 730.189 176.218C730.58 176.088 730.926 175.904 731.227 175.668C731.528 175.441 731.768 175.172 731.947 174.863C732.134 174.545 732.232 174.204 732.24 173.837H734.376C734.368 174.423 734.214 174.985 733.913 175.522C733.62 176.051 733.225 176.515 732.729 176.914C732.232 177.32 731.662 177.646 731.02 177.89C730.377 178.126 729.705 178.244 729.005 178.244C728.004 178.244 727.13 178.065 726.381 177.707C725.632 177.349 725.01 176.865 724.513 176.254C724.009 175.652 723.63 174.956 723.378 174.167C723.126 173.369 723 172.531 723 171.652V171.14C723 170.269 723.126 169.435 723.378 168.637C723.63 167.84 724.009 167.136 724.513 166.525C725.01 165.923 725.632 165.443 726.381 165.085C727.13 164.727 728.004 164.548 729.005 164.548C729.787 164.548 730.503 164.674 731.154 164.926C731.813 165.17 732.383 165.504 732.863 165.927C733.335 166.359 733.705 166.867 733.974 167.453C734.242 168.039 734.376 168.666 734.376 169.333H732.24C732.232 168.934 732.143 168.56 731.972 168.21C731.809 167.852 731.585 167.539 731.3 167.27C731.015 167.001 730.674 166.79 730.275 166.635C729.884 166.481 729.461 166.403 729.005 166.403C728.306 166.403 727.715 166.546 727.235 166.831C726.763 167.107 726.381 167.469 726.088 167.917C725.795 168.373 725.583 168.881 725.453 169.443C725.331 170.004 725.27 170.57 725.27 171.14V171.652C725.27 172.23 725.331 172.804 725.453 173.374C725.583 173.935 725.795 174.44 726.088 174.887C726.373 175.343 726.751 175.713 727.223 175.998C727.703 176.275 728.297 176.413 729.005 176.413ZM746.572 178C746.482 177.829 746.409 177.618 746.352 177.365C746.303 177.105 746.267 176.836 746.242 176.56C746.014 176.787 745.758 177.003 745.473 177.207C745.196 177.41 744.891 177.589 744.558 177.744C744.216 177.898 743.854 178.02 743.471 178.11C743.089 178.199 742.682 178.244 742.25 178.244C741.551 178.244 740.916 178.142 740.346 177.939C739.785 177.736 739.309 177.459 738.918 177.109C738.519 176.767 738.21 176.36 737.99 175.888C737.779 175.408 737.673 174.891 737.673 174.338C737.673 173.614 737.815 172.979 738.1 172.434C738.393 171.888 738.804 171.433 739.333 171.066C739.862 170.708 740.497 170.44 741.237 170.261C741.986 170.082 742.82 169.992 743.74 169.992H746.206V168.955C746.206 168.556 746.132 168.198 745.986 167.88C745.839 167.563 745.632 167.29 745.363 167.062C745.095 166.843 744.765 166.672 744.375 166.55C743.992 166.428 743.561 166.367 743.081 166.367C742.633 166.367 742.23 166.424 741.872 166.538C741.522 166.652 741.225 166.802 740.981 166.989C740.737 167.176 740.546 167.4 740.407 167.661C740.277 167.913 740.212 168.177 740.212 168.454H737.941C737.95 167.974 738.072 167.502 738.308 167.038C738.552 166.574 738.902 166.155 739.357 165.781C739.805 165.415 740.35 165.118 740.993 164.89C741.644 164.662 742.381 164.548 743.203 164.548C743.951 164.548 744.647 164.641 745.29 164.829C745.933 165.008 746.49 165.28 746.962 165.646C747.426 166.021 747.792 166.485 748.061 167.038C748.33 167.591 748.464 168.238 748.464 168.979V175.119C748.464 175.559 748.505 176.027 748.586 176.523C748.667 177.011 748.781 177.438 748.928 177.805V178H746.572ZM742.58 176.279C743.02 176.279 743.431 176.222 743.813 176.108C744.195 175.994 744.545 175.843 744.863 175.656C745.172 175.469 745.441 175.257 745.668 175.021C745.896 174.777 746.075 174.525 746.206 174.265V171.591H744.106C743.325 171.591 742.641 171.66 742.055 171.799C741.477 171.929 741.018 172.132 740.676 172.409C740.432 172.604 740.244 172.836 740.114 173.105C739.992 173.374 739.931 173.679 739.931 174.021C739.931 174.346 739.984 174.647 740.09 174.924C740.204 175.201 740.371 175.437 740.59 175.632C740.81 175.835 741.087 175.994 741.42 176.108C741.754 176.222 742.141 176.279 742.58 176.279ZM761.001 164.792H763.259V178H761.001V168.259L754.543 178H752.297V164.792H754.543V174.545L761.001 164.792ZM761.282 159.409C761.282 159.889 761.196 160.332 761.025 160.739C760.854 161.138 760.61 161.48 760.293 161.765C759.976 162.049 759.593 162.273 759.146 162.436C758.698 162.591 758.197 162.668 757.644 162.668C757.083 162.668 756.578 162.591 756.13 162.436C755.683 162.273 755.3 162.049 754.983 161.765C754.666 161.48 754.417 161.138 754.238 160.739C754.067 160.332 753.982 159.889 753.982 159.409H755.813C755.813 159.653 755.85 159.889 755.923 160.117C755.996 160.336 756.106 160.528 756.252 160.69C756.399 160.853 756.586 160.983 756.814 161.081C757.042 161.179 757.319 161.228 757.644 161.228C757.961 161.228 758.23 161.179 758.45 161.081C758.678 160.983 758.865 160.853 759.011 160.69C759.158 160.528 759.268 160.336 759.341 160.117C759.414 159.889 759.451 159.653 759.451 159.409H761.282ZM778.799 166.623H773.526V178H771.255V166.623H766.067V164.792H778.799V166.623ZM783.329 169.797H784.537C785.245 169.797 785.872 169.899 786.417 170.102C786.97 170.306 787.434 170.586 787.809 170.944C788.175 171.311 788.451 171.742 788.639 172.238C788.834 172.735 788.932 173.272 788.932 173.85C788.932 174.427 788.834 174.969 788.639 175.473C788.451 175.978 788.175 176.417 787.809 176.792C787.434 177.166 786.974 177.463 786.429 177.683C785.884 177.894 785.253 178 784.537 178H781.07V164.792H783.329V169.797ZM792.582 178H790.323V164.792H792.582V178ZM783.329 171.64V176.157H784.537C784.92 176.157 785.245 176.096 785.514 175.974C785.782 175.843 786.002 175.673 786.173 175.461C786.336 175.257 786.454 175.026 786.527 174.765C786.608 174.497 786.649 174.22 786.649 173.935C786.649 173.667 786.608 173.398 786.527 173.129C786.454 172.853 786.336 172.604 786.173 172.385C786.002 172.165 785.782 171.986 785.514 171.848C785.245 171.709 784.92 171.64 784.537 171.64H783.329ZM816.093 176.413C816.5 176.413 816.895 176.348 817.277 176.218C817.668 176.088 818.014 175.904 818.315 175.668C818.616 175.441 818.856 175.172 819.035 174.863C819.222 174.545 819.32 174.204 819.328 173.837H821.464C821.456 174.423 821.302 174.985 821 175.522C820.708 176.051 820.313 176.515 819.816 176.914C819.32 177.32 818.75 177.646 818.107 177.89C817.465 178.126 816.793 178.244 816.093 178.244C815.092 178.244 814.217 178.065 813.469 177.707C812.72 177.349 812.097 176.865 811.601 176.254C811.097 175.652 810.718 174.956 810.466 174.167C810.214 173.369 810.087 172.531 810.087 171.652V171.14C810.087 170.269 810.214 169.435 810.466 168.637C810.718 167.84 811.097 167.136 811.601 166.525C812.097 165.923 812.72 165.443 813.469 165.085C814.217 164.727 815.092 164.548 816.093 164.548C816.875 164.548 817.591 164.674 818.242 164.926C818.901 165.17 819.471 165.504 819.951 165.927C820.423 166.359 820.793 166.867 821.062 167.453C821.33 168.039 821.464 168.666 821.464 169.333H819.328C819.32 168.934 819.23 168.56 819.06 168.21C818.897 167.852 818.673 167.539 818.388 167.27C818.103 167.001 817.762 166.79 817.363 166.635C816.972 166.481 816.549 166.403 816.093 166.403C815.393 166.403 814.803 166.546 814.323 166.831C813.851 167.107 813.469 167.469 813.176 167.917C812.883 168.373 812.671 168.881 812.541 169.443C812.419 170.004 812.358 170.57 812.358 171.14V171.652C812.358 172.23 812.419 172.804 812.541 173.374C812.671 173.935 812.883 174.44 813.176 174.887C813.461 175.343 813.839 175.713 814.311 175.998C814.791 176.275 815.385 176.413 816.093 176.413ZM850.347 178H848.089V166.66H841.644V178H839.385V164.792H850.347V178ZM853.375 171.274C853.375 170.322 853.513 169.439 853.79 168.625C854.067 167.803 854.465 167.091 854.986 166.489C855.499 165.887 856.126 165.415 856.866 165.073C857.607 164.723 858.441 164.548 859.369 164.548C860.305 164.548 861.143 164.723 861.883 165.073C862.632 165.415 863.267 165.887 863.788 166.489C864.3 167.091 864.695 167.803 864.972 168.625C865.248 169.439 865.387 170.322 865.387 171.274V171.542C865.387 172.495 865.248 173.378 864.972 174.191C864.695 175.005 864.3 175.713 863.788 176.315C863.267 176.918 862.636 177.39 861.896 177.731C861.155 178.073 860.321 178.244 859.393 178.244C858.457 178.244 857.615 178.073 856.866 177.731C856.126 177.39 855.499 176.918 854.986 176.315C854.465 175.713 854.067 175.005 853.79 174.191C853.513 173.378 853.375 172.495 853.375 171.542V171.274ZM855.633 171.542C855.633 172.194 855.711 172.816 855.865 173.41C856.02 173.996 856.256 174.513 856.573 174.96C856.882 175.408 857.273 175.762 857.745 176.022C858.217 176.283 858.766 176.413 859.393 176.413C860.012 176.413 860.553 176.283 861.017 176.022C861.489 175.762 861.883 175.408 862.201 174.96C862.51 174.513 862.742 173.996 862.896 173.41C863.051 172.816 863.128 172.194 863.128 171.542V171.274C863.128 170.631 863.047 170.017 862.884 169.431C862.73 168.837 862.498 168.316 862.188 167.868C861.871 167.421 861.476 167.067 861.004 166.806C860.541 166.538 859.995 166.403 859.369 166.403C858.742 166.403 858.197 166.538 857.733 166.806C857.269 167.067 856.882 167.421 856.573 167.868C856.256 168.316 856.02 168.837 855.865 169.431C855.711 170.017 855.633 170.631 855.633 171.274V171.542ZM873.773 175.009L876.581 164.792H879.401V178H877.143V169.858L874.555 178H872.992L870.331 169.565V178H868.073V164.792H870.99L873.773 175.009ZM882.404 171.274C882.404 170.322 882.543 169.439 882.819 168.625C883.096 167.803 883.495 167.091 884.016 166.489C884.528 165.887 885.155 165.415 885.896 165.073C886.636 164.723 887.47 164.548 888.398 164.548C889.334 164.548 890.172 164.723 890.913 165.073C891.661 165.415 892.296 165.887 892.817 166.489C893.33 167.091 893.724 167.803 894.001 168.625C894.278 169.439 894.416 170.322 894.416 171.274V171.542C894.416 172.495 894.278 173.378 894.001 174.191C893.724 175.005 893.33 175.713 892.817 176.315C892.296 176.918 891.665 177.39 890.925 177.731C890.184 178.073 889.35 178.244 888.422 178.244C887.486 178.244 886.644 178.073 885.896 177.731C885.155 177.39 884.528 176.918 884.016 176.315C883.495 175.713 883.096 175.005 882.819 174.191C882.543 173.378 882.404 172.495 882.404 171.542V171.274ZM884.663 171.542C884.663 172.194 884.74 172.816 884.895 173.41C885.049 173.996 885.285 174.513 885.603 174.96C885.912 175.408 886.302 175.762 886.774 176.022C887.246 176.283 887.796 176.413 888.422 176.413C889.041 176.413 889.582 176.283 890.046 176.022C890.518 175.762 890.913 175.408 891.23 174.96C891.539 174.513 891.771 173.996 891.926 173.41C892.08 172.816 892.158 172.194 892.158 171.542V171.274C892.158 170.631 892.076 170.017 891.914 169.431C891.759 168.837 891.527 168.316 891.218 167.868C890.9 167.421 890.506 167.067 890.034 166.806C889.57 166.538 889.025 166.403 888.398 166.403C887.771 166.403 887.226 166.538 886.762 166.806C886.298 167.067 885.912 167.421 885.603 167.868C885.285 168.316 885.049 168.837 884.895 169.431C884.74 170.017 884.663 170.631 884.663 171.274V171.542ZM899.128 164.792V176.157H901.667V164.792H903.926V176.157L906.465 176.145V164.792H908.723V176.145H909.785L909.565 181.918H907.551V178H896.87V164.792H899.128ZM914.217 169.797H918.257C919.047 169.797 919.747 169.899 920.357 170.102C920.975 170.297 921.496 170.574 921.919 170.932C922.343 171.29 922.664 171.717 922.884 172.214C923.112 172.71 923.226 173.256 923.226 173.85C923.226 174.436 923.116 174.985 922.896 175.498C922.676 176.002 922.355 176.438 921.932 176.804C921.508 177.178 920.988 177.471 920.369 177.683C919.751 177.894 919.047 178 918.257 178H911.958V164.792H914.217V169.797ZM914.217 171.64V176.157H918.257C918.729 176.157 919.136 176.096 919.478 175.974C919.82 175.852 920.101 175.689 920.32 175.485C920.54 175.282 920.699 175.046 920.796 174.777C920.902 174.509 920.955 174.228 920.955 173.935C920.955 173.65 920.902 173.374 920.796 173.105C920.691 172.828 920.528 172.58 920.308 172.36C920.088 172.149 919.808 171.978 919.466 171.848C919.132 171.709 918.729 171.64 918.257 171.64H914.217ZM928.097 170.395H929.684C929.741 169.565 929.871 168.796 930.074 168.088C930.278 167.372 930.562 166.749 930.929 166.22C931.295 165.699 931.738 165.292 932.259 165C932.78 164.698 933.386 164.548 934.078 164.548C934.835 164.548 935.494 164.723 936.056 165.073C936.617 165.423 937.081 165.903 937.447 166.513C937.813 167.124 938.086 167.84 938.265 168.662C938.444 169.475 938.534 170.346 938.534 171.274V171.542C938.534 172.47 938.444 173.345 938.265 174.167C938.086 174.981 937.818 175.689 937.459 176.291C937.093 176.893 936.629 177.369 936.068 177.719C935.514 178.069 934.859 178.244 934.103 178.244C933.395 178.244 932.772 178.094 932.235 177.792C931.706 177.483 931.258 177.06 930.892 176.523C930.526 175.986 930.241 175.351 930.038 174.619C929.842 173.886 929.72 173.097 929.671 172.25H928.097V178H925.838V164.792H928.097V170.395ZM931.93 171.542C931.93 172.177 931.962 172.792 932.027 173.386C932.092 173.972 932.21 174.488 932.381 174.936C932.544 175.384 932.764 175.742 933.041 176.01C933.317 176.279 933.671 176.413 934.103 176.413C934.526 176.413 934.876 176.279 935.152 176.01C935.437 175.742 935.661 175.384 935.824 174.936C935.986 174.488 936.1 173.972 936.166 173.386C936.239 172.792 936.275 172.177 936.275 171.542V171.274C936.275 170.639 936.239 170.029 936.166 169.443C936.1 168.857 935.986 168.336 935.824 167.88C935.653 167.433 935.425 167.075 935.14 166.806C934.863 166.538 934.509 166.403 934.078 166.403C933.655 166.403 933.305 166.538 933.028 166.806C932.752 167.075 932.532 167.433 932.369 167.88C932.206 168.336 932.092 168.857 932.027 169.443C931.962 170.029 931.93 170.639 931.93 171.274V171.542ZM488.14 205.653C488.034 206.475 487.823 207.232 487.505 207.924C487.188 208.607 486.777 209.193 486.272 209.682C485.76 210.178 485.153 210.565 484.454 210.841C483.762 211.11 482.989 211.244 482.134 211.244C481.402 211.244 480.735 211.142 480.132 210.939C479.538 210.727 479.009 210.438 478.545 210.072C478.073 209.706 477.667 209.275 477.325 208.778C476.991 208.282 476.714 207.741 476.495 207.155C476.267 206.569 476.096 205.954 475.982 205.312C475.876 204.669 475.819 204.018 475.811 203.358V200.88C475.819 200.221 475.876 199.57 475.982 198.927C476.096 198.284 476.267 197.67 476.495 197.084C476.714 196.498 476.991 195.957 477.325 195.46C477.667 194.956 478.073 194.521 478.545 194.154C479.009 193.788 479.538 193.503 480.132 193.3C480.726 193.088 481.394 192.982 482.134 192.982C483.021 192.982 483.815 193.121 484.515 193.397C485.215 193.666 485.817 194.049 486.321 194.545C486.826 195.049 487.229 195.652 487.53 196.352C487.839 197.051 488.042 197.825 488.14 198.671H485.882C485.809 198.134 485.682 197.633 485.503 197.169C485.324 196.706 485.084 196.299 484.783 195.949C484.482 195.599 484.112 195.326 483.672 195.131C483.241 194.927 482.728 194.826 482.134 194.826C481.597 194.826 481.121 194.915 480.706 195.094C480.299 195.265 479.949 195.501 479.656 195.802C479.355 196.103 479.103 196.453 478.899 196.852C478.704 197.251 478.545 197.674 478.423 198.122C478.301 198.569 478.212 199.029 478.155 199.501C478.106 199.965 478.082 200.417 478.082 200.856V203.358C478.082 203.798 478.106 204.254 478.155 204.726C478.212 205.189 478.301 205.645 478.423 206.093C478.545 206.549 478.704 206.976 478.899 207.375C479.095 207.773 479.343 208.123 479.644 208.424C479.945 208.734 480.299 208.978 480.706 209.157C481.113 209.328 481.589 209.413 482.134 209.413C482.728 209.413 483.241 209.319 483.672 209.132C484.112 208.945 484.482 208.681 484.783 208.339C485.084 208.005 485.324 207.611 485.503 207.155C485.682 206.691 485.809 206.19 485.882 205.653H488.14ZM500.445 206.508C500.445 205.963 500.319 205.503 500.067 205.128C499.823 204.754 499.505 204.437 499.115 204.176C498.724 203.924 498.293 203.712 497.821 203.542C497.357 203.371 496.909 203.216 496.478 203.078C495.851 202.874 495.213 202.63 494.562 202.345C493.919 202.052 493.333 201.702 492.804 201.295C492.267 200.88 491.827 200.392 491.485 199.831C491.152 199.261 490.985 198.594 490.985 197.829C490.985 197.064 491.152 196.38 491.485 195.778C491.827 195.176 492.271 194.667 492.816 194.252C493.361 193.837 493.98 193.524 494.671 193.312C495.363 193.092 496.059 192.982 496.759 192.982C497.532 192.982 498.277 193.113 498.993 193.373C499.709 193.625 500.344 193.983 500.897 194.447C501.45 194.911 501.894 195.473 502.228 196.132C502.561 196.791 502.736 197.528 502.752 198.341H500.433C500.368 197.829 500.242 197.365 500.055 196.95C499.868 196.527 499.619 196.164 499.31 195.863C499.001 195.562 498.631 195.33 498.199 195.167C497.776 194.997 497.296 194.911 496.759 194.911C496.327 194.911 495.904 194.972 495.489 195.094C495.082 195.216 494.72 195.399 494.403 195.644C494.077 195.888 493.817 196.189 493.622 196.547C493.434 196.905 493.341 197.32 493.341 197.792C493.349 198.305 493.479 198.74 493.731 199.098C493.984 199.448 494.305 199.745 494.696 199.989C495.078 200.233 495.493 200.437 495.941 200.6C496.397 200.762 496.824 200.905 497.223 201.027C497.882 201.23 498.541 201.479 499.2 201.771C499.859 202.056 500.462 202.423 501.007 202.87C501.544 203.285 501.975 203.794 502.301 204.396C502.634 204.998 502.801 205.694 502.801 206.483C502.801 207.281 502.622 207.977 502.264 208.571C501.914 209.165 501.458 209.657 500.897 210.048C500.335 210.447 499.701 210.748 498.993 210.951C498.285 211.146 497.577 211.244 496.869 211.244C496.022 211.244 495.188 211.102 494.366 210.817C493.552 210.532 492.844 210.121 492.242 209.584C491.705 209.12 491.278 208.579 490.96 207.96C490.651 207.334 490.484 206.638 490.46 205.873H492.767C492.84 206.426 492.991 206.919 493.219 207.35C493.447 207.773 493.74 208.131 494.098 208.424C494.456 208.725 494.867 208.953 495.331 209.108C495.803 209.254 496.315 209.328 496.869 209.328C497.308 209.328 497.739 209.275 498.163 209.169C498.594 209.055 498.976 208.88 499.31 208.644C499.644 208.416 499.916 208.127 500.128 207.777C500.34 207.419 500.445 206.996 500.445 206.508ZM514.96 206.508C514.96 205.963 514.834 205.503 514.582 205.128C514.337 204.754 514.02 204.437 513.629 204.176C513.239 203.924 512.807 203.712 512.335 203.542C511.872 203.371 511.424 203.216 510.993 203.078C510.366 202.874 509.727 202.63 509.076 202.345C508.433 202.052 507.847 201.702 507.318 201.295C506.781 200.88 506.342 200.392 506 199.831C505.666 199.261 505.5 198.594 505.5 197.829C505.5 197.064 505.666 196.38 506 195.778C506.342 195.176 506.785 194.667 507.331 194.252C507.876 193.837 508.494 193.524 509.186 193.312C509.878 193.092 510.574 192.982 511.273 192.982C512.047 192.982 512.791 193.113 513.507 193.373C514.223 193.625 514.858 193.983 515.412 194.447C515.965 194.911 516.409 195.473 516.742 196.132C517.076 196.791 517.251 197.528 517.267 198.341H514.948C514.883 197.829 514.757 197.365 514.569 196.95C514.382 196.527 514.134 196.164 513.825 195.863C513.515 195.562 513.145 195.33 512.714 195.167C512.291 194.997 511.811 194.911 511.273 194.911C510.842 194.911 510.419 194.972 510.004 195.094C509.597 195.216 509.235 195.399 508.917 195.644C508.592 195.888 508.332 196.189 508.136 196.547C507.949 196.905 507.855 197.32 507.855 197.792C507.864 198.305 507.994 198.74 508.246 199.098C508.498 199.448 508.82 199.745 509.21 199.989C509.593 200.233 510.008 200.437 510.456 200.6C510.911 200.762 511.339 200.905 511.737 201.027C512.396 201.23 513.056 201.479 513.715 201.771C514.374 202.056 514.976 202.423 515.521 202.87C516.059 203.285 516.49 203.794 516.815 204.396C517.149 204.998 517.316 205.694 517.316 206.483C517.316 207.281 517.137 207.977 516.779 208.571C516.429 209.165 515.973 209.657 515.412 210.048C514.85 210.447 514.215 210.748 513.507 210.951C512.799 211.146 512.091 211.244 511.383 211.244C510.537 211.244 509.703 211.102 508.881 210.817C508.067 210.532 507.359 210.121 506.757 209.584C506.22 209.12 505.792 208.579 505.475 207.96C505.166 207.334 504.999 206.638 504.975 205.873H507.282C507.355 206.426 507.506 206.919 507.733 207.35C507.961 207.773 508.254 208.131 508.612 208.424C508.97 208.725 509.381 208.953 509.845 209.108C510.317 209.254 510.83 209.328 511.383 209.328C511.823 209.328 512.254 209.275 512.677 209.169C513.109 209.055 513.491 208.88 513.825 208.644C514.158 208.416 514.431 208.127 514.643 207.777C514.854 207.419 514.96 206.996 514.96 206.508Z" fill="white"/>
</svg>
