<svg width="1399" height="215" viewBox="0 0 1399 215" fill="none" xmlns="http://www.w3.org/2000/svg">
<rect width="1399" height="215" rx="20" fill="#0066FF" fill-opacity="0.2"/>
<rect x="1.5" y="1.5" width="1396" height="212" rx="18.5" stroke="#0066FF" stroke-opacity="0.5" stroke-width="3"/>
<path d="M52.4268 48.6074L42.0752 43.981V42.1987L52.4268 37.5845V39.9771L44.9561 42.9067L44.3091 43.1143L44.9561 43.334L52.4268 46.2148V48.6074ZM60.2578 51V39.5376H56.6201V37.792H60.2578V36.8643C60.2578 36.0179 60.3799 35.2773 60.624 34.6426C60.8763 33.9997 61.2303 33.4626 61.686 33.0312C62.1336 32.5999 62.6748 32.2744 63.3096 32.0547C63.9443 31.835 64.6523 31.7251 65.4336 31.7251C65.7591 31.7251 66.0806 31.7454 66.3979 31.7861C66.7153 31.8187 67.0286 31.8634 67.3379 31.9204C67.5413 31.9611 67.7448 32.0059 67.9482 32.0547C68.1517 32.0954 68.3592 32.1442 68.5708 32.2012L68.3022 34.0688C67.9686 33.9549 67.578 33.8573 67.1304 33.7759C66.6909 33.6864 66.2189 33.6416 65.7144 33.6416C65.2017 33.6416 64.7459 33.7067 64.3472 33.8369C63.9565 33.959 63.631 34.1462 63.3706 34.3984C63.0939 34.6589 62.8823 34.9966 62.7358 35.4116C62.5975 35.8267 62.5283 36.3109 62.5283 36.8643V37.792H67.6187V39.5376H62.5283V51H60.2578ZM71.0186 44.2739C71.0186 43.3218 71.1569 42.4388 71.4336 41.625C71.7103 40.8031 72.109 40.091 72.6299 39.4888C73.1426 38.8866 73.7692 38.4146 74.5098 38.0728C75.2503 37.7228 76.0845 37.5479 77.0122 37.5479C77.9481 37.5479 78.7863 37.7228 79.5269 38.0728C80.2756 38.4146 80.9103 38.8866 81.4312 39.4888C81.9438 40.091 82.3385 40.8031 82.6152 41.625C82.8919 42.4388 83.0303 43.3218 83.0303 44.2739V44.5425C83.0303 45.4946 82.8919 46.3776 82.6152 47.1914C82.3385 48.0052 81.9438 48.7132 81.4312 49.3154C80.9103 49.9176 80.2796 50.3896 79.5391 50.7314C78.7985 51.0732 77.9644 51.2441 77.0366 51.2441C76.1007 51.2441 75.2585 51.0732 74.5098 50.7314C73.7692 50.3896 73.1426 49.9176 72.6299 49.3154C72.109 48.7132 71.7103 48.0052 71.4336 47.1914C71.1569 46.3776 71.0186 45.4946 71.0186 44.5425V44.2739ZM73.2769 44.5425C73.2769 45.1935 73.3542 45.8161 73.5088 46.4102C73.6634 46.9961 73.8994 47.5129 74.2168 47.9604C74.526 48.408 74.9167 48.762 75.3887 49.0225C75.8607 49.2829 76.41 49.4131 77.0366 49.4131C77.6551 49.4131 78.1963 49.2829 78.6602 49.0225C79.1322 48.762 79.5269 48.408 79.8442 47.9604C80.1535 47.5129 80.3854 46.9961 80.54 46.4102C80.6947 45.8161 80.772 45.1935 80.772 44.5425V44.2739C80.772 43.631 80.6906 43.0166 80.5278 42.4307C80.3732 41.8366 80.1413 41.3158 79.832 40.8682C79.5146 40.4206 79.12 40.0666 78.6479 39.8062C78.1841 39.5376 77.6388 39.4033 77.0122 39.4033C76.3856 39.4033 75.8403 39.5376 75.3765 39.8062C74.9126 40.0666 74.526 40.4206 74.2168 40.8682C73.8994 41.3158 73.6634 41.8366 73.5088 42.4307C73.3542 43.0166 73.2769 43.631 73.2769 44.2739V44.5425ZM85.7832 44.2739C85.7832 43.3218 85.9215 42.4388 86.1982 41.625C86.4749 40.8031 86.8737 40.091 87.3945 39.4888C87.9072 38.8866 88.5339 38.4146 89.2744 38.0728C90.015 37.7228 90.8491 37.5479 91.7769 37.5479C92.7127 37.5479 93.5509 37.7228 94.2915 38.0728C95.0402 38.4146 95.675 38.8866 96.1958 39.4888C96.7085 40.091 97.1032 40.8031 97.3799 41.625C97.6566 42.4388 97.7949 43.3218 97.7949 44.2739V44.5425C97.7949 45.4946 97.6566 46.3776 97.3799 47.1914C97.1032 48.0052 96.7085 48.7132 96.1958 49.3154C95.675 49.9176 95.0443 50.3896 94.3037 50.7314C93.5632 51.0732 92.729 51.2441 91.8013 51.2441C90.8654 51.2441 90.0231 51.0732 89.2744 50.7314C88.5339 50.3896 87.9072 49.9176 87.3945 49.3154C86.8737 48.7132 86.4749 48.0052 86.1982 47.1914C85.9215 46.3776 85.7832 45.4946 85.7832 44.5425V44.2739ZM88.0415 44.5425C88.0415 45.1935 88.1188 45.8161 88.2734 46.4102C88.4281 46.9961 88.6641 47.5129 88.9814 47.9604C89.2907 48.408 89.6813 48.762 90.1533 49.0225C90.6253 49.2829 91.1746 49.4131 91.8013 49.4131C92.4198 49.4131 92.9609 49.2829 93.4248 49.0225C93.8968 48.762 94.2915 48.408 94.6089 47.9604C94.9181 47.5129 95.1501 46.9961 95.3047 46.4102C95.4593 45.8161 95.5366 45.1935 95.5366 44.5425V44.2739C95.5366 43.631 95.4552 43.0166 95.2925 42.4307C95.1379 41.8366 94.9059 41.3158 94.5967 40.8682C94.2793 40.4206 93.8846 40.0666 93.4126 39.8062C92.9487 39.5376 92.4035 39.4033 91.7769 39.4033C91.1502 39.4033 90.605 39.5376 90.1411 39.8062C89.6772 40.0666 89.2907 40.4206 88.9814 40.8682C88.6641 41.3158 88.4281 41.8366 88.2734 42.4307C88.1188 43.0166 88.0415 43.631 88.0415 44.2739V44.5425ZM106.529 34.5938V37.792H111.559V39.5376H106.529V46.7153C106.529 47.228 106.594 47.6512 106.725 47.9849C106.855 48.3185 107.034 48.583 107.262 48.7783C107.49 48.9818 107.75 49.1242 108.043 49.2056C108.344 49.2869 108.661 49.3276 108.995 49.3276C109.239 49.3276 109.492 49.3154 109.752 49.291C110.012 49.2585 110.269 49.2218 110.521 49.1812C110.765 49.1405 110.993 49.0998 111.205 49.0591C111.424 49.0103 111.603 48.9696 111.742 48.937L112.059 50.5361C111.872 50.6501 111.644 50.7518 111.375 50.8413C111.107 50.9227 110.814 50.9919 110.497 51.0488C110.179 51.1139 109.841 51.1628 109.483 51.1953C109.133 51.2279 108.784 51.2441 108.434 51.2441C107.848 51.2441 107.298 51.1628 106.786 51C106.281 50.8291 105.842 50.5605 105.467 50.1943C105.093 49.8363 104.796 49.3724 104.576 48.8027C104.365 48.2249 104.259 47.5291 104.259 46.7153V39.5376H100.792V37.792H104.259V34.5938H106.529ZM121.782 51.2441C120.854 51.2441 120 51.0854 119.219 50.7681C118.446 50.4507 117.782 50.0072 117.229 49.4375C116.676 48.8678 116.244 48.1924 115.935 47.4111C115.626 46.6299 115.471 45.7795 115.471 44.8599V44.3472C115.471 43.2811 115.642 42.3289 115.984 41.4907C116.326 40.6444 116.781 39.9282 117.351 39.3423C117.913 38.7645 118.551 38.321 119.268 38.0117C119.992 37.7025 120.732 37.5479 121.489 37.5479C122.441 37.5479 123.271 37.7147 123.979 38.0483C124.696 38.3739 125.29 38.8255 125.762 39.4033C126.234 39.9893 126.584 40.6769 126.812 41.4663C127.048 42.2557 127.166 43.1102 127.166 44.0298V45.043H117.729V45.1284C117.786 45.7713 117.913 46.3369 118.108 46.8252C118.311 47.3135 118.588 47.7448 118.938 48.1191C119.296 48.5179 119.727 48.8312 120.232 49.0591C120.736 49.2869 121.294 49.4009 121.904 49.4009C122.71 49.4009 123.426 49.2381 124.053 48.9126C124.679 48.5871 125.2 48.1558 125.615 47.6187L126.995 48.6929C126.555 49.3602 125.896 49.9543 125.017 50.4751C124.146 50.9878 123.068 51.2441 121.782 51.2441ZM121.489 39.4033C121.034 39.4033 120.602 39.4888 120.195 39.6597C119.788 39.8224 119.422 40.0625 119.097 40.3799C118.771 40.7054 118.494 41.1042 118.267 41.5762C118.047 42.04 117.892 42.5771 117.803 43.1875H124.907V43.0776C124.907 42.6707 124.83 42.2354 124.675 41.7715C124.521 41.2995 124.305 40.8926 124.028 40.5508C123.752 40.209 123.402 39.9323 122.979 39.7207C122.563 39.5091 122.067 39.4033 121.489 39.4033ZM139.367 37.5479C139.782 37.5479 140.213 37.5763 140.661 37.6333C141.116 37.6903 141.458 37.7676 141.686 37.8652L141.381 40.0747C140.941 39.9771 140.522 39.9079 140.124 39.8672C139.733 39.8184 139.322 39.7939 138.891 39.7939C138.337 39.7939 137.837 39.8631 137.389 40.0015C136.942 40.1317 136.551 40.327 136.217 40.5874C135.916 40.8153 135.652 41.096 135.424 41.4297C135.204 41.7552 135.021 42.1214 134.875 42.5283V51H132.604V37.792H134.752L134.85 39.562L134.862 39.8916C135.399 39.1673 136.042 38.5977 136.791 38.1826C137.548 37.7594 138.406 37.5479 139.367 37.5479ZM145.525 48.5952V46.2515L153.423 43.2729L154.156 43.0654L153.423 42.8335L145.525 39.9038V37.5723L156.304 42.1865V43.9688L145.525 48.5952ZM170.544 81.6074L160.192 76.981V75.1987L170.544 70.5845V72.9771L163.073 75.9067L162.426 76.1143L163.073 76.334L170.544 79.2148V81.6074ZM174.579 77.2861C174.579 76.3014 174.701 75.3981 174.945 74.5762C175.197 73.7461 175.555 73.034 176.019 72.4399C176.475 71.8459 177.028 71.382 177.679 71.0483C178.33 70.7147 179.059 70.5479 179.864 70.5479C180.654 70.5479 181.341 70.6821 181.927 70.9507C182.521 71.2111 183.034 71.5936 183.465 72.0981V65.25H185.724V84H183.648L183.551 82.6084C183.111 83.1455 182.586 83.5524 181.976 83.8291C181.366 84.1058 180.654 84.2441 179.84 84.2441C179.042 84.2441 178.318 84.0732 177.667 83.7314C177.024 83.3896 176.475 82.9176 176.019 82.3154C175.563 81.7132 175.209 81.0052 174.957 80.1914C174.705 79.3695 174.579 78.4865 174.579 77.5425V77.2861ZM176.837 77.5425C176.837 78.1854 176.906 78.7957 177.044 79.3735C177.183 79.9513 177.398 80.46 177.691 80.8994C177.976 81.3389 178.342 81.6888 178.79 81.9492C179.238 82.2015 179.775 82.3276 180.401 82.3276C181.158 82.3276 181.785 82.1567 182.281 81.8149C182.778 81.4731 183.172 81.0133 183.465 80.4355V74.3076C183.172 73.7705 182.778 73.3311 182.281 72.9893C181.785 72.6393 181.166 72.4644 180.426 72.4644C179.791 72.4644 179.246 72.5946 178.79 72.855C178.342 73.1154 177.976 73.4653 177.691 73.9048C177.398 74.3524 177.183 74.8691 177.044 75.4551C176.906 76.0329 176.837 76.6432 176.837 77.2861V77.5425ZM190.125 70.792H196.875V82.0469H201.184V84H190.125V82.0469H194.617V72.7573H190.125V70.792ZM194.324 67.3252C194.324 67.1299 194.352 66.9468 194.409 66.7759C194.474 66.605 194.572 66.4585 194.702 66.3364C194.808 66.2306 194.942 66.1493 195.105 66.0923C195.276 66.0272 195.467 65.9946 195.679 65.9946C195.89 65.9946 196.077 66.0272 196.24 66.0923C196.403 66.1493 196.537 66.2306 196.643 66.3364C196.773 66.4504 196.871 66.5928 196.936 66.7637C197.001 66.9346 197.034 67.1217 197.034 67.3252C197.034 67.6914 196.92 67.9966 196.692 68.2407C196.464 68.4849 196.126 68.6069 195.679 68.6069C195.223 68.6069 194.881 68.4849 194.653 68.2407C194.434 67.9966 194.324 67.6914 194.324 67.3252ZM209.04 84L203.607 70.792H205.927L209.711 80.7529L209.918 81.5708L210.138 80.7529L213.837 70.792H216.144L210.761 84H209.04ZM239.692 82.4131C240.099 82.4131 240.493 82.348 240.876 82.2178C241.267 82.0876 241.612 81.9045 241.914 81.6685C242.215 81.4406 242.455 81.172 242.634 80.8628C242.821 80.5454 242.919 80.2036 242.927 79.8374H245.063C245.055 80.4233 244.9 80.9849 244.599 81.522C244.306 82.0509 243.911 82.5148 243.415 82.9136C242.919 83.3205 242.349 83.646 241.706 83.8901C241.063 84.1261 240.392 84.2441 239.692 84.2441C238.691 84.2441 237.816 84.0651 237.067 83.707C236.319 83.349 235.696 82.8647 235.2 82.2544C234.695 81.6522 234.317 80.9564 234.064 80.167C233.812 79.3695 233.686 78.5312 233.686 77.6523V77.1396C233.686 76.2689 233.812 75.4347 234.064 74.6372C234.317 73.8397 234.695 73.1357 235.2 72.5254C235.696 71.9232 236.319 71.443 237.067 71.085C237.816 70.7269 238.691 70.5479 239.692 70.5479C240.473 70.5479 241.189 70.674 241.84 70.9263C242.5 71.1704 243.069 71.5041 243.549 71.9272C244.021 72.3586 244.392 72.8672 244.66 73.4531C244.929 74.0391 245.063 74.6657 245.063 75.333H242.927C242.919 74.9342 242.829 74.5599 242.658 74.21C242.495 73.8519 242.272 73.5386 241.987 73.27C241.702 73.0015 241.36 72.7899 240.961 72.6353C240.571 72.4806 240.148 72.4033 239.692 72.4033C238.992 72.4033 238.402 72.5457 237.922 72.8306C237.45 73.1073 237.067 73.4694 236.774 73.917C236.481 74.3727 236.27 74.8813 236.14 75.4429C236.018 76.0044 235.957 76.57 235.957 77.1396V77.6523C235.957 78.2301 236.018 78.8039 236.14 79.3735C236.27 79.9351 236.481 80.4396 236.774 80.8872C237.059 81.3429 237.438 81.7132 237.91 81.998C238.39 82.2747 238.984 82.4131 239.692 82.4131ZM249.183 65.25H255.934V82.0469H260.243V84H249.183V82.0469H253.675V67.2153H249.183V65.25ZM272.273 84C272.183 83.8291 272.11 83.6175 272.053 83.3652C272.004 83.1048 271.968 82.8363 271.943 82.5596C271.715 82.7874 271.459 83.0031 271.174 83.2065C270.898 83.41 270.592 83.589 270.259 83.7437C269.917 83.8983 269.555 84.0203 269.172 84.1099C268.79 84.1994 268.383 84.2441 267.952 84.2441C267.252 84.2441 266.617 84.1424 266.047 83.939C265.486 83.7355 265.01 83.4588 264.619 83.1089C264.22 82.7671 263.911 82.3602 263.691 81.8882C263.48 81.408 263.374 80.8913 263.374 80.3379C263.374 79.6136 263.516 78.9788 263.801 78.4336C264.094 77.8883 264.505 77.4326 265.034 77.0664C265.563 76.7083 266.198 76.4398 266.938 76.2607C267.687 76.0817 268.521 75.9922 269.441 75.9922H271.907V74.9546C271.907 74.5558 271.833 74.1978 271.687 73.8804C271.541 73.563 271.333 73.2904 271.064 73.0625C270.796 72.8428 270.466 72.6719 270.076 72.5498C269.693 72.4277 269.262 72.3667 268.782 72.3667C268.334 72.3667 267.931 72.4237 267.573 72.5376C267.223 72.6515 266.926 72.8021 266.682 72.9893C266.438 73.1764 266.247 73.4002 266.108 73.6606C265.978 73.9129 265.913 74.1774 265.913 74.4541H263.643C263.651 73.974 263.773 73.502 264.009 73.0381C264.253 72.5742 264.603 72.1551 265.059 71.7808C265.506 71.4146 266.051 71.1175 266.694 70.8896C267.345 70.6618 268.082 70.5479 268.904 70.5479C269.653 70.5479 270.348 70.6414 270.991 70.8286C271.634 71.0076 272.192 71.2803 272.664 71.6465C273.127 72.0208 273.494 72.4847 273.762 73.0381C274.031 73.5915 274.165 74.2384 274.165 74.979V81.1191C274.165 81.5586 274.206 82.0265 274.287 82.5229C274.368 83.0112 274.482 83.4385 274.629 83.8047V84H272.273ZM268.281 82.2788C268.721 82.2788 269.132 82.2218 269.514 82.1079C269.897 81.994 270.247 81.8434 270.564 81.6562C270.873 81.4691 271.142 81.2575 271.37 81.0215C271.597 80.7773 271.777 80.5251 271.907 80.2646V77.5913H269.807C269.026 77.5913 268.342 77.6605 267.756 77.7988C267.179 77.929 266.719 78.1325 266.377 78.4092C266.133 78.6045 265.946 78.8364 265.815 79.105C265.693 79.3735 265.632 79.6787 265.632 80.0205C265.632 80.346 265.685 80.6471 265.791 80.9238C265.905 81.2005 266.072 81.4365 266.292 81.6318C266.511 81.8353 266.788 81.994 267.122 82.1079C267.455 82.2218 267.842 82.2788 268.281 82.2788ZM287.135 80.4966C287.135 80.228 287.082 79.988 286.977 79.7764C286.871 79.5566 286.692 79.3573 286.439 79.1782C286.187 78.9992 285.854 78.8364 285.438 78.6899C285.023 78.5353 284.507 78.397 283.888 78.2749C283.131 78.1203 282.44 77.9331 281.813 77.7134C281.194 77.4937 280.666 77.2292 280.226 76.9199C279.778 76.6188 279.433 76.2648 279.188 75.8579C278.944 75.4429 278.822 74.9627 278.822 74.4175C278.822 73.8804 278.948 73.3799 279.201 72.916C279.453 72.444 279.807 72.033 280.263 71.6831C280.718 71.3332 281.26 71.0565 281.886 70.853C282.521 70.6496 283.217 70.5479 283.974 70.5479C284.787 70.5479 285.52 70.6536 286.171 70.8652C286.822 71.0768 287.375 71.3698 287.831 71.7441C288.287 72.1185 288.637 72.5579 288.881 73.0625C289.133 73.5589 289.259 74.096 289.259 74.6738H287.001C287.001 74.389 286.928 74.1123 286.781 73.8438C286.635 73.5671 286.431 73.3229 286.171 73.1113C285.91 72.8997 285.593 72.7288 285.219 72.5986C284.853 72.4684 284.438 72.4033 283.974 72.4033C283.493 72.4033 283.07 72.4562 282.704 72.562C282.346 72.6678 282.049 72.8102 281.813 72.9893C281.569 73.1683 281.386 73.3758 281.264 73.6118C281.142 73.8478 281.081 74.092 281.081 74.3442C281.081 74.6047 281.129 74.8366 281.227 75.04C281.325 75.2435 281.496 75.4266 281.74 75.5894C281.976 75.7521 282.293 75.8986 282.692 76.0288C283.099 76.159 283.611 76.2852 284.23 76.4072C285.044 76.5781 285.772 76.7775 286.415 77.0054C287.058 77.2251 287.599 77.4896 288.039 77.7988C288.478 78.1162 288.812 78.4824 289.04 78.8975C289.276 79.3125 289.394 79.7926 289.394 80.3379C289.394 80.9238 289.259 81.4569 288.991 81.937C288.73 82.4172 288.364 82.8281 287.892 83.1699C287.42 83.5117 286.854 83.7762 286.195 83.9634C285.536 84.1506 284.816 84.2441 284.035 84.2441C283.139 84.2441 282.342 84.1261 281.642 83.8901C280.942 83.646 280.352 83.3245 279.872 82.9258C279.384 82.5352 279.009 82.0794 278.749 81.5586C278.497 81.0378 278.371 80.4966 278.371 79.9351H280.629C280.661 80.3989 280.784 80.7896 280.995 81.1069C281.215 81.4243 281.487 81.6807 281.813 81.876C282.13 82.0713 282.484 82.2096 282.875 82.291C283.266 82.3724 283.652 82.4131 284.035 82.4131C284.637 82.4131 285.162 82.3439 285.609 82.2056C286.057 82.0591 286.407 81.8597 286.659 81.6074C286.814 81.4528 286.932 81.2819 287.013 81.0947C287.095 80.9076 287.135 80.7082 287.135 80.4966ZM301.9 80.4966C301.9 80.228 301.847 79.988 301.741 79.7764C301.635 79.5566 301.456 79.3573 301.204 79.1782C300.952 78.9992 300.618 78.8364 300.203 78.6899C299.788 78.5353 299.271 78.397 298.653 78.2749C297.896 78.1203 297.204 77.9331 296.578 77.7134C295.959 77.4937 295.43 77.2292 294.991 76.9199C294.543 76.6188 294.197 76.2648 293.953 75.8579C293.709 75.4429 293.587 74.9627 293.587 74.4175C293.587 73.8804 293.713 73.3799 293.965 72.916C294.218 72.444 294.572 72.033 295.027 71.6831C295.483 71.3332 296.024 71.0565 296.651 70.853C297.286 70.6496 297.981 70.5479 298.738 70.5479C299.552 70.5479 300.285 70.6536 300.936 70.8652C301.587 71.0768 302.14 71.3698 302.596 71.7441C303.051 72.1185 303.401 72.5579 303.646 73.0625C303.898 73.5589 304.024 74.096 304.024 74.6738H301.766C301.766 74.389 301.692 74.1123 301.546 73.8438C301.399 73.5671 301.196 73.3229 300.936 73.1113C300.675 72.8997 300.358 72.7288 299.983 72.5986C299.617 72.4684 299.202 72.4033 298.738 72.4033C298.258 72.4033 297.835 72.4562 297.469 72.562C297.111 72.6678 296.814 72.8102 296.578 72.9893C296.333 73.1683 296.15 73.3758 296.028 73.6118C295.906 73.8478 295.845 74.092 295.845 74.3442C295.845 74.6047 295.894 74.8366 295.992 75.04C296.089 75.2435 296.26 75.4266 296.504 75.5894C296.74 75.7521 297.058 75.8986 297.457 76.0288C297.863 76.159 298.376 76.2852 298.995 76.4072C299.808 76.5781 300.537 76.7775 301.18 77.0054C301.823 77.2251 302.364 77.4896 302.803 77.7988C303.243 78.1162 303.576 78.4824 303.804 78.8975C304.04 79.3125 304.158 79.7926 304.158 80.3379C304.158 80.9238 304.024 81.4569 303.755 81.937C303.495 82.4172 303.129 82.8281 302.657 83.1699C302.185 83.5117 301.619 83.7762 300.96 83.9634C300.301 84.1506 299.581 84.2441 298.799 84.2441C297.904 84.2441 297.107 84.1261 296.407 83.8901C295.707 83.646 295.117 83.3245 294.637 82.9258C294.148 82.5352 293.774 82.0794 293.514 81.5586C293.261 81.0378 293.135 80.4966 293.135 79.9351H295.394C295.426 80.3989 295.548 80.7896 295.76 81.1069C295.979 81.4243 296.252 81.6807 296.578 81.876C296.895 82.0713 297.249 82.2096 297.64 82.291C298.03 82.3724 298.417 82.4131 298.799 82.4131C299.402 82.4131 299.926 82.3439 300.374 82.2056C300.822 82.0591 301.172 81.8597 301.424 81.6074C301.578 81.4528 301.696 81.2819 301.778 81.0947C301.859 80.9076 301.9 80.7082 301.9 80.4966ZM318.776 74.4785H307.875V72.5132H318.776V74.4785ZM318.776 79.5444H307.875V77.5913H318.776V79.5444ZM326.693 66.5806L326.437 71.0972H324.85L324.862 66.7759V65.25H326.693V66.5806ZM331.051 66.5806L330.794 71.0972H329.22L329.232 66.7759V65.25H331.063L331.051 66.5806ZM340.786 84V72.5376H337.148V70.792H340.786V69.8643C340.786 69.0179 340.908 68.2773 341.152 67.6426C341.405 66.9997 341.759 66.4626 342.214 66.0312C342.662 65.5999 343.203 65.2744 343.838 65.0547C344.473 64.835 345.181 64.7251 345.962 64.7251C346.287 64.7251 346.609 64.7454 346.926 64.7861C347.244 64.8187 347.557 64.8634 347.866 64.9204C348.07 64.9611 348.273 65.0059 348.477 65.0547C348.68 65.0954 348.888 65.1442 349.099 65.2012L348.831 67.0688C348.497 66.9549 348.106 66.8573 347.659 66.7759C347.219 66.6864 346.747 66.6416 346.243 66.6416C345.73 66.6416 345.274 66.7067 344.875 66.8369C344.485 66.959 344.159 67.1462 343.899 67.3984C343.622 67.6589 343.411 67.9966 343.264 68.4116C343.126 68.8267 343.057 69.3109 343.057 69.8643V70.792H348.147V72.5376H343.057V84H340.786ZM351.547 77.2739C351.547 76.3218 351.685 75.4388 351.962 74.625C352.239 73.8031 352.637 73.091 353.158 72.4888C353.671 71.8866 354.298 71.4146 355.038 71.0728C355.779 70.7228 356.613 70.5479 357.541 70.5479C358.476 70.5479 359.315 70.7228 360.055 71.0728C360.804 71.4146 361.439 71.8866 361.959 72.4888C362.472 73.091 362.867 73.8031 363.144 74.625C363.42 75.4388 363.559 76.3218 363.559 77.2739V77.5425C363.559 78.4946 363.42 79.3776 363.144 80.1914C362.867 81.0052 362.472 81.7132 361.959 82.3154C361.439 82.9176 360.808 83.3896 360.067 83.7314C359.327 84.0732 358.493 84.2441 357.565 84.2441C356.629 84.2441 355.787 84.0732 355.038 83.7314C354.298 83.3896 353.671 82.9176 353.158 82.3154C352.637 81.7132 352.239 81.0052 351.962 80.1914C351.685 79.3776 351.547 78.4946 351.547 77.5425V77.2739ZM353.805 77.5425C353.805 78.1935 353.882 78.8161 354.037 79.4102C354.192 79.9961 354.428 80.5129 354.745 80.9604C355.054 81.408 355.445 81.762 355.917 82.0225C356.389 82.2829 356.938 82.4131 357.565 82.4131C358.183 82.4131 358.725 82.2829 359.188 82.0225C359.66 81.762 360.055 81.408 360.373 80.9604C360.682 80.5129 360.914 79.9961 361.068 79.4102C361.223 78.8161 361.3 78.1935 361.3 77.5425V77.2739C361.3 76.631 361.219 76.0166 361.056 75.4307C360.902 74.8366 360.67 74.3158 360.36 73.8682C360.043 73.4206 359.648 73.0666 359.176 72.8062C358.712 72.5376 358.167 72.4033 357.541 72.4033C356.914 72.4033 356.369 72.5376 355.905 72.8062C355.441 73.0666 355.054 73.4206 354.745 73.8682C354.428 74.3158 354.192 74.8366 354.037 75.4307C353.882 76.0166 353.805 76.631 353.805 77.2739V77.5425ZM366.312 77.2739C366.312 76.3218 366.45 75.4388 366.727 74.625C367.003 73.8031 367.402 73.091 367.923 72.4888C368.436 71.8866 369.062 71.4146 369.803 71.0728C370.543 70.7228 371.377 70.5479 372.305 70.5479C373.241 70.5479 374.079 70.7228 374.82 71.0728C375.569 71.4146 376.203 71.8866 376.724 72.4888C377.237 73.091 377.632 73.8031 377.908 74.625C378.185 75.4388 378.323 76.3218 378.323 77.2739V77.5425C378.323 78.4946 378.185 79.3776 377.908 80.1914C377.632 81.0052 377.237 81.7132 376.724 82.3154C376.203 82.9176 375.573 83.3896 374.832 83.7314C374.091 84.0732 373.257 84.2441 372.33 84.2441C371.394 84.2441 370.551 84.0732 369.803 83.7314C369.062 83.3896 368.436 82.9176 367.923 82.3154C367.402 81.7132 367.003 81.0052 366.727 80.1914C366.45 79.3776 366.312 78.4946 366.312 77.5425V77.2739ZM368.57 77.5425C368.57 78.1935 368.647 78.8161 368.802 79.4102C368.956 79.9961 369.192 80.5129 369.51 80.9604C369.819 81.408 370.21 81.762 370.682 82.0225C371.154 82.2829 371.703 82.4131 372.33 82.4131C372.948 82.4131 373.489 82.2829 373.953 82.0225C374.425 81.762 374.82 81.408 375.137 80.9604C375.446 80.5129 375.678 79.9961 375.833 79.4102C375.988 78.8161 376.065 78.1935 376.065 77.5425V77.2739C376.065 76.631 375.984 76.0166 375.821 75.4307C375.666 74.8366 375.434 74.3158 375.125 73.8682C374.808 73.4206 374.413 73.0666 373.941 72.8062C373.477 72.5376 372.932 72.4033 372.305 72.4033C371.679 72.4033 371.133 72.5376 370.669 72.8062C370.206 73.0666 369.819 73.4206 369.51 73.8682C369.192 74.3158 368.956 74.8366 368.802 75.4307C368.647 76.0166 368.57 76.631 368.57 77.2739V77.5425ZM387.058 67.5938V70.792H392.087V72.5376H387.058V79.7153C387.058 80.228 387.123 80.6512 387.253 80.9849C387.383 81.3185 387.562 81.583 387.79 81.7783C388.018 81.9818 388.278 82.1242 388.571 82.2056C388.872 82.2869 389.19 82.3276 389.523 82.3276C389.768 82.3276 390.02 82.3154 390.28 82.291C390.541 82.2585 390.797 82.2218 391.049 82.1812C391.293 82.1405 391.521 82.0998 391.733 82.0591C391.953 82.0103 392.132 81.9696 392.27 81.937L392.587 83.5361C392.4 83.6501 392.172 83.7518 391.904 83.8413C391.635 83.9227 391.342 83.9919 391.025 84.0488C390.708 84.1139 390.37 84.1628 390.012 84.1953C389.662 84.2279 389.312 84.2441 388.962 84.2441C388.376 84.2441 387.827 84.1628 387.314 84C386.809 83.8291 386.37 83.5605 385.996 83.1943C385.621 82.8363 385.324 82.3724 385.104 81.8027C384.893 81.2249 384.787 80.5291 384.787 79.7153V72.5376H381.32V70.792H384.787V67.5938H387.058ZM402.311 84.2441C401.383 84.2441 400.528 84.0854 399.747 83.7681C398.974 83.4507 398.311 83.0072 397.757 82.4375C397.204 81.8678 396.773 81.1924 396.463 80.4111C396.154 79.6299 396 78.7795 396 77.8599V77.3472C396 76.2811 396.17 75.3289 396.512 74.4907C396.854 73.6444 397.31 72.9282 397.879 72.3423C398.441 71.7645 399.08 71.321 399.796 71.0117C400.52 70.7025 401.261 70.5479 402.018 70.5479C402.97 70.5479 403.8 70.7147 404.508 71.0483C405.224 71.3739 405.818 71.8255 406.29 72.4033C406.762 72.9893 407.112 73.6769 407.34 74.4663C407.576 75.2557 407.694 76.1102 407.694 77.0298V78.043H398.258V78.1284C398.315 78.7713 398.441 79.3369 398.636 79.8252C398.84 80.3135 399.116 80.7448 399.466 81.1191C399.824 81.5179 400.256 81.8312 400.76 82.0591C401.265 82.2869 401.822 82.4009 402.433 82.4009C403.238 82.4009 403.954 82.2381 404.581 81.9126C405.208 81.5871 405.729 81.1558 406.144 80.6187L407.523 81.6929C407.083 82.3602 406.424 82.9543 405.545 83.4751C404.675 83.9878 403.596 84.2441 402.311 84.2441ZM402.018 72.4033C401.562 72.4033 401.131 72.4888 400.724 72.6597C400.317 72.8224 399.951 73.0625 399.625 73.3799C399.299 73.7054 399.023 74.1042 398.795 74.5762C398.575 75.04 398.421 75.5771 398.331 76.1875H405.436V76.0776C405.436 75.6707 405.358 75.2354 405.204 74.7715C405.049 74.2995 404.833 73.8926 404.557 73.5508C404.28 73.209 403.93 72.9323 403.507 72.7207C403.092 72.5091 402.595 72.4033 402.018 72.4033ZM419.895 70.5479C420.31 70.5479 420.741 70.5763 421.189 70.6333C421.645 70.6903 421.986 70.7676 422.214 70.8652L421.909 73.0747C421.47 72.9771 421.051 72.9079 420.652 72.8672C420.261 72.8184 419.85 72.7939 419.419 72.7939C418.866 72.7939 418.365 72.8631 417.917 73.0015C417.47 73.1317 417.079 73.327 416.746 73.5874C416.444 73.8153 416.18 74.096 415.952 74.4297C415.732 74.7552 415.549 75.1214 415.403 75.5283V84H413.132V70.792H415.281L415.378 72.562L415.391 72.8916C415.928 72.1673 416.571 71.5977 417.319 71.1826C418.076 70.7594 418.935 70.5479 419.895 70.5479ZM430.045 66.5806L429.789 71.0972H428.202L428.214 66.7759V65.25H430.045V66.5806ZM434.403 66.5806L434.147 71.0972H432.572L432.584 66.7759V65.25H434.416L434.403 66.5806ZM440.818 81.5952V79.2515L448.716 76.2729L449.449 76.0654L448.716 75.8335L440.818 72.9038V70.5723L451.597 75.1865V76.9688L440.818 81.5952ZM229.603 114.607L219.251 109.981V108.199L229.603 103.584V105.977L222.132 108.907L221.485 109.114L222.132 109.334L229.603 112.215V114.607ZM234.052 122.078V103.792H236.115L236.225 105.232C236.404 105.005 236.599 104.801 236.811 104.622C237.023 104.435 237.25 104.276 237.495 104.146C237.836 103.951 238.215 103.804 238.63 103.707C239.053 103.601 239.505 103.548 239.985 103.548C240.831 103.548 241.58 103.715 242.231 104.048C242.882 104.382 243.427 104.846 243.867 105.44C244.306 106.034 244.64 106.746 244.868 107.576C245.096 108.398 245.209 109.301 245.209 110.286V110.542C245.209 111.486 245.096 112.369 244.868 113.191C244.64 114.005 244.306 114.713 243.867 115.315C243.427 115.918 242.882 116.39 242.231 116.731C241.588 117.073 240.852 117.244 240.021 117.244C239.517 117.244 239.045 117.191 238.605 117.085C238.174 116.98 237.784 116.829 237.434 116.634C237.222 116.512 237.023 116.377 236.835 116.231C236.648 116.076 236.473 115.91 236.311 115.73V122.078H234.052ZM242.951 110.286C242.951 109.643 242.878 109.033 242.731 108.455C242.593 107.869 242.377 107.352 242.084 106.905C241.783 106.465 241.405 106.115 240.949 105.855C240.493 105.595 239.948 105.464 239.313 105.464C238.964 105.464 238.638 105.505 238.337 105.586C238.044 105.668 237.779 105.786 237.543 105.94C237.283 106.095 237.051 106.286 236.848 106.514C236.644 106.742 236.465 106.994 236.311 107.271V113.631C236.449 113.875 236.608 114.103 236.787 114.314C236.966 114.526 237.169 114.705 237.397 114.852C237.657 115.022 237.946 115.157 238.264 115.254C238.589 115.352 238.947 115.401 239.338 115.401C239.965 115.401 240.506 115.271 240.961 115.01C241.417 114.742 241.792 114.384 242.084 113.936C242.377 113.488 242.593 112.972 242.731 112.386C242.878 111.8 242.951 111.185 242.951 110.542V110.286ZM248.878 114.595V112.251L256.776 109.273L257.508 109.065L256.776 108.833L248.878 105.904V103.572L259.657 108.187V109.969L248.878 114.595ZM274.495 117H262.849V115.376L268.672 108.907C269.193 108.329 269.628 107.816 269.978 107.369C270.328 106.921 270.609 106.506 270.82 106.124C271.032 105.749 271.182 105.395 271.272 105.062C271.361 104.72 271.406 104.37 271.406 104.012C271.406 103.572 271.333 103.161 271.187 102.779C271.048 102.388 270.845 102.05 270.576 101.766C270.299 101.481 269.966 101.257 269.575 101.094C269.193 100.923 268.757 100.838 268.269 100.838C267.675 100.838 267.158 100.923 266.719 101.094C266.287 101.265 265.929 101.505 265.645 101.814C265.352 102.132 265.132 102.514 264.985 102.962C264.847 103.41 264.778 103.91 264.778 104.463H262.507C262.507 103.715 262.638 103.011 262.898 102.352C263.158 101.684 263.537 101.102 264.033 100.606C264.521 100.11 265.12 99.7148 265.828 99.4219C266.544 99.1289 267.358 98.9824 268.269 98.9824C269.107 98.9824 269.86 99.1086 270.527 99.3608C271.203 99.605 271.772 99.9468 272.236 100.386C272.7 100.826 273.054 101.347 273.298 101.949C273.551 102.551 273.677 103.206 273.677 103.914C273.677 104.443 273.587 104.968 273.408 105.489C273.229 106.001 272.989 106.51 272.688 107.015C272.379 107.519 272.021 108.02 271.614 108.516C271.215 109.004 270.792 109.493 270.344 109.981L265.571 115.157H274.495V117ZM289.516 110.201C289.516 111.332 289.385 112.337 289.125 113.216C288.865 114.087 288.49 114.819 288.002 115.413C287.514 116.015 286.916 116.471 286.208 116.78C285.5 117.09 284.69 117.244 283.778 117.244C282.875 117.244 282.065 117.094 281.349 116.792C280.633 116.483 280.027 116.023 279.53 115.413C279.034 114.819 278.655 114.087 278.395 113.216C278.135 112.337 278.004 111.332 278.004 110.201V106.038C278.004 104.907 278.135 103.906 278.395 103.035C278.655 102.156 279.034 101.416 279.53 100.813C280.019 100.211 280.617 99.7555 281.325 99.4463C282.041 99.1289 282.851 98.9702 283.754 98.9702C284.665 98.9702 285.475 99.1289 286.183 99.4463C286.899 99.7555 287.506 100.211 288.002 100.813C288.49 101.416 288.865 102.156 289.125 103.035C289.385 103.906 289.516 104.907 289.516 106.038V110.201ZM280.275 109.749L287.196 104.439C287.131 103.853 287.013 103.336 286.842 102.889C286.68 102.433 286.456 102.055 286.171 101.753C285.894 101.444 285.552 101.212 285.146 101.058C284.747 100.903 284.283 100.826 283.754 100.826C283.217 100.826 282.741 100.911 282.326 101.082C281.919 101.245 281.573 101.485 281.288 101.802C280.946 102.201 280.69 102.718 280.519 103.353C280.356 103.979 280.275 104.708 280.275 105.538V108.516C280.275 108.72 280.275 108.923 280.275 109.126C280.275 109.33 280.275 109.537 280.275 109.749ZM287.245 110.677V108.162C287.245 108.04 287.245 107.808 287.245 107.466C287.245 107.116 287.245 106.827 287.245 106.6L280.336 111.885C280.409 112.479 280.539 113.004 280.727 113.46C280.914 113.908 281.158 114.278 281.459 114.571C281.736 114.847 282.069 115.059 282.46 115.206C282.851 115.344 283.29 115.413 283.778 115.413C284.291 115.413 284.747 115.336 285.146 115.181C285.544 115.027 285.882 114.803 286.159 114.51C286.533 114.111 286.806 113.59 286.977 112.947C287.156 112.304 287.245 111.548 287.245 110.677ZM304.024 117H292.378V115.376L298.201 108.907C298.722 108.329 299.157 107.816 299.507 107.369C299.857 106.921 300.138 106.506 300.35 106.124C300.561 105.749 300.712 105.395 300.801 105.062C300.891 104.72 300.936 104.37 300.936 104.012C300.936 103.572 300.862 103.161 300.716 102.779C300.577 102.388 300.374 102.05 300.105 101.766C299.829 101.481 299.495 101.257 299.104 101.094C298.722 100.923 298.287 100.838 297.798 100.838C297.204 100.838 296.688 100.923 296.248 101.094C295.817 101.265 295.459 101.505 295.174 101.814C294.881 102.132 294.661 102.514 294.515 102.962C294.376 103.41 294.307 103.91 294.307 104.463H292.037C292.037 103.715 292.167 103.011 292.427 102.352C292.688 101.684 293.066 101.102 293.562 100.606C294.051 100.11 294.649 99.7148 295.357 99.4219C296.073 99.1289 296.887 98.9824 297.798 98.9824C298.637 98.9824 299.389 99.1086 300.057 99.3608C300.732 99.605 301.302 99.9468 301.766 100.386C302.229 100.826 302.583 101.347 302.828 101.949C303.08 102.551 303.206 103.206 303.206 103.914C303.206 104.443 303.117 104.968 302.938 105.489C302.758 106.001 302.518 106.51 302.217 107.015C301.908 107.519 301.55 108.02 301.143 108.516C300.744 109.004 300.321 109.493 299.874 109.981L295.101 115.157H304.024V117ZM308.693 108.089L309.584 99.2266H318.703V101.424H311.489L310.988 106.16C311.338 105.957 311.757 105.778 312.246 105.623C312.734 105.468 313.299 105.391 313.942 105.391C314.764 105.391 315.501 105.534 316.152 105.818C316.803 106.103 317.356 106.502 317.812 107.015C318.268 107.535 318.618 108.162 318.862 108.895C319.106 109.627 319.228 110.441 319.228 111.336C319.228 112.182 319.114 112.968 318.886 113.692C318.658 114.416 318.317 115.039 317.861 115.56C317.397 116.089 316.815 116.504 316.115 116.805C315.415 117.098 314.593 117.244 313.649 117.244C312.925 117.244 312.242 117.142 311.599 116.939C310.956 116.736 310.386 116.43 309.89 116.023C309.385 115.617 308.97 115.104 308.645 114.485C308.327 113.867 308.128 113.147 308.046 112.325H310.195C310.333 113.334 310.703 114.099 311.306 114.62C311.916 115.14 312.697 115.401 313.649 115.401C314.187 115.401 314.663 115.307 315.078 115.12C315.493 114.925 315.843 114.648 316.127 114.29C316.404 113.94 316.612 113.517 316.75 113.021C316.896 112.524 316.97 111.971 316.97 111.36C316.97 110.807 316.888 110.29 316.726 109.81C316.571 109.33 316.343 108.911 316.042 108.553C315.741 108.203 315.371 107.926 314.931 107.723C314.492 107.519 313.987 107.417 313.417 107.417C313.043 107.417 312.718 107.446 312.441 107.503C312.172 107.552 311.928 107.625 311.708 107.723C311.489 107.82 311.281 107.938 311.086 108.077C310.899 108.215 310.703 108.374 310.5 108.553L308.693 108.089ZM326.583 115.535C326.583 115.055 326.729 114.644 327.022 114.302C327.315 113.96 327.759 113.79 328.353 113.79C328.939 113.79 329.382 113.96 329.684 114.302C329.993 114.636 330.147 115.047 330.147 115.535C330.147 116.015 329.993 116.418 329.684 116.744C329.374 117.069 328.931 117.232 328.353 117.232C327.767 117.232 327.324 117.069 327.022 116.744C326.729 116.41 326.583 116.007 326.583 115.535ZM352.157 117V99.2266H357.443C358.175 99.2347 358.891 99.3324 359.591 99.5195C360.291 99.6986 360.914 99.9793 361.459 100.362C362.004 100.744 362.44 101.233 362.765 101.827C363.091 102.421 363.249 103.133 363.241 103.963C363.233 104.427 363.156 104.85 363.009 105.232C362.871 105.615 362.68 105.957 362.436 106.258C362.183 106.567 361.903 106.827 361.593 107.039C361.292 107.251 360.926 107.45 360.495 107.637V107.674C360.942 107.78 361.374 107.971 361.789 108.248C362.204 108.524 362.545 108.829 362.814 109.163C363.099 109.529 363.319 109.94 363.473 110.396C363.636 110.852 363.717 111.344 363.717 111.873C363.725 112.703 363.567 113.436 363.241 114.07C362.916 114.705 362.48 115.234 361.935 115.657C361.39 116.089 360.759 116.418 360.043 116.646C359.335 116.874 358.603 116.992 357.846 117H352.157ZM354.428 108.687V115.083H357.907C358.379 115.075 358.826 114.998 359.25 114.852C359.673 114.697 360.047 114.485 360.373 114.217C360.698 113.948 360.954 113.619 361.142 113.228C361.337 112.837 361.435 112.394 361.435 111.897C361.443 111.393 361.357 110.945 361.178 110.555C361.007 110.164 360.767 109.83 360.458 109.554C360.149 109.285 359.787 109.078 359.372 108.931C358.957 108.785 358.509 108.703 358.029 108.687H354.428ZM354.428 106.807H357.577C358 106.799 358.415 106.734 358.822 106.612C359.229 106.482 359.591 106.294 359.909 106.05C360.226 105.814 360.482 105.521 360.678 105.171C360.873 104.821 360.971 104.415 360.971 103.951C360.971 103.454 360.873 103.031 360.678 102.681C360.491 102.331 360.238 102.042 359.921 101.814C359.595 101.595 359.221 101.432 358.798 101.326C358.383 101.22 357.956 101.163 357.516 101.155H354.428V106.807ZM372.574 115.413C372.981 115.413 373.375 115.348 373.758 115.218C374.148 115.088 374.494 114.904 374.795 114.668C375.097 114.441 375.337 114.172 375.516 113.863C375.703 113.545 375.8 113.204 375.809 112.837H377.945C377.937 113.423 377.782 113.985 377.481 114.522C377.188 115.051 376.793 115.515 376.297 115.914C375.8 116.32 375.231 116.646 374.588 116.89C373.945 117.126 373.274 117.244 372.574 117.244C371.573 117.244 370.698 117.065 369.949 116.707C369.201 116.349 368.578 115.865 368.082 115.254C367.577 114.652 367.199 113.956 366.946 113.167C366.694 112.369 366.568 111.531 366.568 110.652V110.14C366.568 109.269 366.694 108.435 366.946 107.637C367.199 106.84 367.577 106.136 368.082 105.525C368.578 104.923 369.201 104.443 369.949 104.085C370.698 103.727 371.573 103.548 372.574 103.548C373.355 103.548 374.071 103.674 374.722 103.926C375.381 104.17 375.951 104.504 376.431 104.927C376.903 105.359 377.273 105.867 377.542 106.453C377.811 107.039 377.945 107.666 377.945 108.333H375.809C375.8 107.934 375.711 107.56 375.54 107.21C375.377 106.852 375.153 106.539 374.869 106.27C374.584 106.001 374.242 105.79 373.843 105.635C373.453 105.481 373.029 105.403 372.574 105.403C371.874 105.403 371.284 105.546 370.804 105.831C370.332 106.107 369.949 106.469 369.656 106.917C369.363 107.373 369.152 107.881 369.021 108.443C368.899 109.004 368.838 109.57 368.838 110.14V110.652C368.838 111.23 368.899 111.804 369.021 112.374C369.152 112.935 369.363 113.44 369.656 113.887C369.941 114.343 370.319 114.713 370.792 114.998C371.272 115.275 371.866 115.413 372.574 115.413ZM387.546 117.244C386.618 117.244 385.764 117.085 384.982 116.768C384.209 116.451 383.546 116.007 382.993 115.438C382.439 114.868 382.008 114.192 381.699 113.411C381.389 112.63 381.235 111.779 381.235 110.86V110.347C381.235 109.281 381.406 108.329 381.748 107.491C382.089 106.644 382.545 105.928 383.115 105.342C383.676 104.764 384.315 104.321 385.031 104.012C385.756 103.702 386.496 103.548 387.253 103.548C388.205 103.548 389.035 103.715 389.743 104.048C390.459 104.374 391.053 104.826 391.525 105.403C391.997 105.989 392.347 106.677 392.575 107.466C392.811 108.256 392.929 109.11 392.929 110.03V111.043H383.493V111.128C383.55 111.771 383.676 112.337 383.872 112.825C384.075 113.313 384.352 113.745 384.702 114.119C385.06 114.518 385.491 114.831 385.996 115.059C386.5 115.287 387.058 115.401 387.668 115.401C388.474 115.401 389.19 115.238 389.816 114.913C390.443 114.587 390.964 114.156 391.379 113.619L392.758 114.693C392.319 115.36 391.66 115.954 390.781 116.475C389.91 116.988 388.832 117.244 387.546 117.244ZM387.253 105.403C386.797 105.403 386.366 105.489 385.959 105.66C385.552 105.822 385.186 106.062 384.86 106.38C384.535 106.705 384.258 107.104 384.03 107.576C383.811 108.04 383.656 108.577 383.566 109.188H390.671V109.078C390.671 108.671 390.594 108.235 390.439 107.771C390.284 107.299 390.069 106.893 389.792 106.551C389.515 106.209 389.165 105.932 388.742 105.721C388.327 105.509 387.831 105.403 387.253 105.403ZM422.092 117H419.834V105.66H413.389V117H411.13V103.792H422.092V117ZM425.993 122.078V103.792H428.056L428.166 105.232C428.345 105.005 428.54 104.801 428.751 104.622C428.963 104.435 429.191 104.276 429.435 104.146C429.777 103.951 430.155 103.804 430.57 103.707C430.993 103.601 431.445 103.548 431.925 103.548C432.772 103.548 433.52 103.715 434.171 104.048C434.822 104.382 435.368 104.846 435.807 105.44C436.247 106.034 436.58 106.746 436.808 107.576C437.036 108.398 437.15 109.301 437.15 110.286V110.542C437.15 111.486 437.036 112.369 436.808 113.191C436.58 114.005 436.247 114.713 435.807 115.315C435.368 115.918 434.822 116.39 434.171 116.731C433.528 117.073 432.792 117.244 431.962 117.244C431.457 117.244 430.985 117.191 430.546 117.085C430.115 116.98 429.724 116.829 429.374 116.634C429.162 116.512 428.963 116.377 428.776 116.231C428.589 116.076 428.414 115.91 428.251 115.73V122.078H425.993ZM434.892 110.286C434.892 109.643 434.818 109.033 434.672 108.455C434.534 107.869 434.318 107.352 434.025 106.905C433.724 106.465 433.345 106.115 432.89 105.855C432.434 105.595 431.889 105.464 431.254 105.464C430.904 105.464 430.578 105.505 430.277 105.586C429.984 105.668 429.72 105.786 429.484 105.94C429.223 106.095 428.992 106.286 428.788 106.514C428.585 106.742 428.406 106.994 428.251 107.271V113.631C428.389 113.875 428.548 114.103 428.727 114.314C428.906 114.526 429.11 114.705 429.337 114.852C429.598 115.022 429.887 115.157 430.204 115.254C430.53 115.352 430.888 115.401 431.278 115.401C431.905 115.401 432.446 115.271 432.902 115.01C433.358 114.742 433.732 114.384 434.025 113.936C434.318 113.488 434.534 112.972 434.672 112.386C434.818 111.8 434.892 111.185 434.892 110.542V110.286ZM449.449 117C449.359 116.829 449.286 116.618 449.229 116.365C449.18 116.105 449.144 115.836 449.119 115.56C448.891 115.787 448.635 116.003 448.35 116.207C448.073 116.41 447.768 116.589 447.435 116.744C447.093 116.898 446.731 117.02 446.348 117.11C445.966 117.199 445.559 117.244 445.127 117.244C444.428 117.244 443.793 117.142 443.223 116.939C442.662 116.736 442.186 116.459 441.795 116.109C441.396 115.767 441.087 115.36 440.867 114.888C440.656 114.408 440.55 113.891 440.55 113.338C440.55 112.614 440.692 111.979 440.977 111.434C441.27 110.888 441.681 110.433 442.21 110.066C442.739 109.708 443.374 109.44 444.114 109.261C444.863 109.082 445.697 108.992 446.617 108.992H449.083V107.955C449.083 107.556 449.009 107.198 448.863 106.88C448.716 106.563 448.509 106.29 448.24 106.062C447.972 105.843 447.642 105.672 447.251 105.55C446.869 105.428 446.438 105.367 445.958 105.367C445.51 105.367 445.107 105.424 444.749 105.538C444.399 105.652 444.102 105.802 443.858 105.989C443.614 106.176 443.423 106.4 443.284 106.661C443.154 106.913 443.089 107.177 443.089 107.454H440.818C440.826 106.974 440.949 106.502 441.185 106.038C441.429 105.574 441.779 105.155 442.234 104.781C442.682 104.415 443.227 104.118 443.87 103.89C444.521 103.662 445.258 103.548 446.08 103.548C446.828 103.548 447.524 103.641 448.167 103.829C448.81 104.008 449.367 104.28 449.839 104.646C450.303 105.021 450.669 105.485 450.938 106.038C451.207 106.591 451.341 107.238 451.341 107.979V114.119C451.341 114.559 451.382 115.027 451.463 115.523C451.544 116.011 451.658 116.438 451.805 116.805V117H449.449ZM445.457 115.279C445.896 115.279 446.307 115.222 446.69 115.108C447.072 114.994 447.422 114.843 447.74 114.656C448.049 114.469 448.318 114.257 448.545 114.021C448.773 113.777 448.952 113.525 449.083 113.265V110.591H446.983C446.202 110.591 445.518 110.66 444.932 110.799C444.354 110.929 443.895 111.132 443.553 111.409C443.309 111.604 443.121 111.836 442.991 112.105C442.869 112.374 442.808 112.679 442.808 113.021C442.808 113.346 442.861 113.647 442.967 113.924C443.081 114.201 443.248 114.437 443.467 114.632C443.687 114.835 443.964 114.994 444.297 115.108C444.631 115.222 445.018 115.279 445.457 115.279ZM455.412 117V103.792H460.6C461.414 103.792 462.154 103.865 462.822 104.012C463.489 104.158 464.063 104.378 464.543 104.671C465.015 104.964 465.377 105.338 465.629 105.794C465.89 106.25 466.02 106.791 466.02 107.417C466.02 107.816 465.943 108.191 465.788 108.541C465.642 108.882 465.422 109.183 465.129 109.444C464.966 109.598 464.779 109.737 464.567 109.859C464.356 109.981 464.124 110.091 463.872 110.188L463.969 110.213C464.376 110.319 464.73 110.469 465.031 110.665C465.34 110.852 465.605 111.076 465.825 111.336C466.044 111.604 466.211 111.902 466.325 112.227C466.439 112.553 466.496 112.894 466.496 113.252C466.496 113.879 466.378 114.428 466.142 114.9C465.906 115.364 465.568 115.751 465.129 116.06C464.689 116.377 464.156 116.613 463.53 116.768C462.911 116.923 462.215 117 461.442 117H455.412ZM457.683 111.202V115.181H461.442C461.923 115.181 462.342 115.132 462.7 115.035C463.066 114.937 463.367 114.795 463.603 114.607C463.806 114.445 463.961 114.245 464.067 114.009C464.173 113.765 464.226 113.488 464.226 113.179C464.226 112.862 464.165 112.581 464.042 112.337C463.929 112.093 463.758 111.889 463.53 111.727C463.294 111.556 463.001 111.425 462.651 111.336C462.301 111.246 461.898 111.202 461.442 111.202H457.683ZM457.683 109.395H460.625C461.235 109.395 461.76 109.342 462.199 109.236C462.639 109.131 462.989 108.964 463.249 108.736C463.412 108.589 463.538 108.418 463.627 108.223C463.717 108.02 463.762 107.792 463.762 107.54C463.762 107.206 463.688 106.917 463.542 106.673C463.404 106.429 463.196 106.229 462.919 106.075C462.659 105.92 462.329 105.806 461.931 105.733C461.54 105.66 461.097 105.623 460.6 105.623H457.683V109.395ZM478.978 117C478.889 116.829 478.815 116.618 478.758 116.365C478.709 116.105 478.673 115.836 478.648 115.56C478.421 115.787 478.164 116.003 477.879 116.207C477.603 116.41 477.298 116.589 476.964 116.744C476.622 116.898 476.26 117.02 475.877 117.11C475.495 117.199 475.088 117.244 474.657 117.244C473.957 117.244 473.322 117.142 472.752 116.939C472.191 116.736 471.715 116.459 471.324 116.109C470.925 115.767 470.616 115.36 470.396 114.888C470.185 114.408 470.079 113.891 470.079 113.338C470.079 112.614 470.222 111.979 470.506 111.434C470.799 110.888 471.21 110.433 471.739 110.066C472.268 109.708 472.903 109.44 473.644 109.261C474.392 109.082 475.226 108.992 476.146 108.992H478.612V107.955C478.612 107.556 478.539 107.198 478.392 106.88C478.246 106.563 478.038 106.29 477.77 106.062C477.501 105.843 477.171 105.672 476.781 105.55C476.398 105.428 475.967 105.367 475.487 105.367C475.039 105.367 474.636 105.424 474.278 105.538C473.928 105.652 473.631 105.802 473.387 105.989C473.143 106.176 472.952 106.4 472.813 106.661C472.683 106.913 472.618 107.177 472.618 107.454H470.348C470.356 106.974 470.478 106.502 470.714 106.038C470.958 105.574 471.308 105.155 471.764 104.781C472.211 104.415 472.757 104.118 473.399 103.89C474.05 103.662 474.787 103.548 475.609 103.548C476.358 103.548 477.053 103.641 477.696 103.829C478.339 104.008 478.897 104.28 479.369 104.646C479.833 105.021 480.199 105.485 480.467 106.038C480.736 106.591 480.87 107.238 480.87 107.979V114.119C480.87 114.559 480.911 115.027 480.992 115.523C481.074 116.011 481.188 116.438 481.334 116.805V117H478.978ZM474.986 115.279C475.426 115.279 475.837 115.222 476.219 115.108C476.602 114.994 476.952 114.843 477.269 114.656C477.578 114.469 477.847 114.257 478.075 114.021C478.303 113.777 478.482 113.525 478.612 113.265V110.591H476.512C475.731 110.591 475.047 110.66 474.461 110.799C473.884 110.929 473.424 111.132 473.082 111.409C472.838 111.604 472.651 111.836 472.521 112.105C472.398 112.374 472.337 112.679 472.337 113.021C472.337 113.346 472.39 113.647 472.496 113.924C472.61 114.201 472.777 114.437 472.997 114.632C473.216 114.835 473.493 114.994 473.827 115.108C474.16 115.222 474.547 115.279 474.986 115.279ZM499.352 113.094H501.61C501.61 113.411 501.704 113.712 501.891 113.997C502.078 114.274 502.339 114.518 502.672 114.729C503.006 114.949 503.401 115.124 503.856 115.254C504.312 115.376 504.805 115.438 505.333 115.438C505.854 115.438 506.33 115.385 506.762 115.279C507.193 115.165 507.563 115.01 507.873 114.815C508.174 114.62 508.406 114.392 508.568 114.131C508.739 113.871 508.825 113.59 508.825 113.289C508.825 112.915 508.747 112.597 508.593 112.337C508.438 112.068 508.214 111.849 507.921 111.678C507.775 111.596 507.612 111.527 507.433 111.47C507.254 111.413 507.063 111.364 506.859 111.324C506.656 111.283 506.436 111.255 506.2 111.238C505.964 111.222 505.72 111.214 505.468 111.214H502.526V109.31H505.468C505.728 109.31 505.972 109.301 506.2 109.285C506.428 109.261 506.636 109.228 506.823 109.188C507.059 109.139 507.27 109.074 507.458 108.992C507.653 108.911 507.824 108.817 507.97 108.711C508.174 108.557 508.328 108.37 508.434 108.15C508.54 107.93 508.593 107.682 508.593 107.405C508.593 107.129 508.52 106.868 508.373 106.624C508.235 106.38 508.031 106.164 507.763 105.977C507.486 105.798 507.144 105.656 506.737 105.55C506.33 105.444 505.862 105.391 505.333 105.391C504.861 105.391 504.414 105.444 503.991 105.55C503.568 105.656 503.197 105.798 502.88 105.977C502.554 106.164 502.294 106.388 502.099 106.648C501.911 106.901 501.818 107.177 501.818 107.479H499.56C499.568 106.868 499.726 106.323 500.036 105.843C500.353 105.354 500.776 104.939 501.305 104.598C501.826 104.264 502.432 104.008 503.124 103.829C503.824 103.65 504.56 103.56 505.333 103.56C506.147 103.56 506.892 103.641 507.567 103.804C508.243 103.967 508.825 104.207 509.313 104.524C509.801 104.85 510.18 105.253 510.448 105.733C510.717 106.205 510.851 106.758 510.851 107.393C510.851 107.784 510.762 108.15 510.583 108.492C510.403 108.833 510.151 109.143 509.826 109.419C509.647 109.574 509.439 109.721 509.203 109.859C508.967 109.989 508.715 110.107 508.446 110.213C508.829 110.327 509.171 110.469 509.472 110.64C509.781 110.803 510.049 110.994 510.277 111.214C510.546 111.482 510.749 111.792 510.888 112.142C511.034 112.483 511.107 112.866 511.107 113.289C511.107 113.924 510.957 114.485 510.656 114.974C510.363 115.462 509.956 115.873 509.435 116.207C508.914 116.548 508.304 116.805 507.604 116.976C506.904 117.146 506.147 117.232 505.333 117.232C504.536 117.232 503.755 117.138 502.99 116.951C502.225 116.764 501.557 116.471 500.988 116.072C500.508 115.747 500.113 115.336 499.804 114.839C499.503 114.335 499.352 113.753 499.352 113.094ZM523.272 117C523.182 116.829 523.109 116.618 523.052 116.365C523.003 116.105 522.967 115.836 522.942 115.56C522.715 115.787 522.458 116.003 522.173 116.207C521.897 116.41 521.591 116.589 521.258 116.744C520.916 116.898 520.554 117.02 520.171 117.11C519.789 117.199 519.382 117.244 518.951 117.244C518.251 117.244 517.616 117.142 517.046 116.939C516.485 116.736 516.009 116.459 515.618 116.109C515.219 115.767 514.91 115.36 514.69 114.888C514.479 114.408 514.373 113.891 514.373 113.338C514.373 112.614 514.515 111.979 514.8 111.434C515.093 110.888 515.504 110.433 516.033 110.066C516.562 109.708 517.197 109.44 517.938 109.261C518.686 109.082 519.52 108.992 520.44 108.992H522.906V107.955C522.906 107.556 522.833 107.198 522.686 106.88C522.54 106.563 522.332 106.29 522.063 106.062C521.795 105.843 521.465 105.672 521.075 105.55C520.692 105.428 520.261 105.367 519.781 105.367C519.333 105.367 518.93 105.424 518.572 105.538C518.222 105.652 517.925 105.802 517.681 105.989C517.437 106.176 517.246 106.4 517.107 106.661C516.977 106.913 516.912 107.177 516.912 107.454H514.642C514.65 106.974 514.772 106.502 515.008 106.038C515.252 105.574 515.602 105.155 516.058 104.781C516.505 104.415 517.05 104.118 517.693 103.89C518.344 103.662 519.081 103.548 519.903 103.548C520.652 103.548 521.347 103.641 521.99 103.829C522.633 104.008 523.191 104.28 523.663 104.646C524.126 105.021 524.493 105.485 524.761 106.038C525.03 106.591 525.164 107.238 525.164 107.979V114.119C525.164 114.559 525.205 115.027 525.286 115.523C525.368 116.011 525.481 116.438 525.628 116.805V117H523.272ZM519.28 115.279C519.72 115.279 520.131 115.222 520.513 115.108C520.896 114.994 521.246 114.843 521.563 114.656C521.872 114.469 522.141 114.257 522.369 114.021C522.597 113.777 522.776 113.525 522.906 113.265V110.591H520.806C520.025 110.591 519.341 110.66 518.755 110.799C518.178 110.929 517.718 111.132 517.376 111.409C517.132 111.604 516.945 111.836 516.814 112.105C516.692 112.374 516.631 112.679 516.631 113.021C516.631 113.346 516.684 113.647 516.79 113.924C516.904 114.201 517.071 114.437 517.291 114.632C517.51 114.835 517.787 114.994 518.121 115.108C518.454 115.222 518.841 115.279 519.28 115.279ZM530.932 103.792V115.157H533.471V103.792H535.729V115.157L538.269 115.145V103.792H540.527V115.145H541.589L541.369 120.918H539.355V117H528.674V103.792H530.932ZM552.716 103.792H554.974V117H552.716V107.259L546.258 117H544.012V103.792H546.258V113.545L552.716 103.792ZM560.461 103.792V115.157H563V103.792H565.259V115.157L567.798 115.145V103.792H570.056V115.145H571.118L570.898 120.918H568.884V117H558.203V103.792H560.461ZM579.486 117.244C578.559 117.244 577.704 117.085 576.923 116.768C576.15 116.451 575.486 116.007 574.933 115.438C574.38 114.868 573.948 114.192 573.639 113.411C573.33 112.63 573.175 111.779 573.175 110.86V110.347C573.175 109.281 573.346 108.329 573.688 107.491C574.03 106.644 574.486 105.928 575.055 105.342C575.617 104.764 576.256 104.321 576.972 104.012C577.696 103.702 578.437 103.548 579.193 103.548C580.146 103.548 580.976 103.715 581.684 104.048C582.4 104.374 582.994 104.826 583.466 105.403C583.938 105.989 584.288 106.677 584.516 107.466C584.752 108.256 584.87 109.11 584.87 110.03V111.043H575.434V111.128C575.491 111.771 575.617 112.337 575.812 112.825C576.015 113.313 576.292 113.745 576.642 114.119C577 114.518 577.431 114.831 577.936 115.059C578.441 115.287 578.998 115.401 579.608 115.401C580.414 115.401 581.13 115.238 581.757 114.913C582.383 114.587 582.904 114.156 583.319 113.619L584.699 114.693C584.259 115.36 583.6 115.954 582.721 116.475C581.85 116.988 580.772 117.244 579.486 117.244ZM579.193 105.403C578.738 105.403 578.306 105.489 577.899 105.66C577.493 105.822 577.126 106.062 576.801 106.38C576.475 106.705 576.199 107.104 575.971 107.576C575.751 108.04 575.596 108.577 575.507 109.188H582.611V109.078C582.611 108.671 582.534 108.235 582.379 107.771C582.225 107.299 582.009 106.893 581.732 106.551C581.456 106.209 581.106 105.932 580.683 105.721C580.268 105.509 579.771 105.403 579.193 105.403ZM599.268 117H597.01V111.36H590.564V117H588.306V103.792H590.564V109.517H597.01V103.792H599.268V117ZM605.073 108.797H606.281C606.989 108.797 607.616 108.899 608.161 109.102C608.715 109.306 609.178 109.586 609.553 109.944C609.919 110.311 610.196 110.742 610.383 111.238C610.578 111.735 610.676 112.272 610.676 112.85C610.676 113.427 610.578 113.969 610.383 114.473C610.196 114.978 609.919 115.417 609.553 115.792C609.178 116.166 608.719 116.463 608.173 116.683C607.628 116.894 606.997 117 606.281 117H602.814V103.792H605.073V108.797ZM614.326 117H612.067V103.792H614.326V117ZM605.073 110.64V115.157H606.281C606.664 115.157 606.989 115.096 607.258 114.974C607.526 114.843 607.746 114.673 607.917 114.461C608.08 114.257 608.198 114.026 608.271 113.765C608.352 113.497 608.393 113.22 608.393 112.935C608.393 112.667 608.352 112.398 608.271 112.129C608.198 111.853 608.08 111.604 607.917 111.385C607.746 111.165 607.526 110.986 607.258 110.848C606.989 110.709 606.664 110.64 606.281 110.64H605.073ZM621.876 115.535C621.876 115.055 622.022 114.644 622.315 114.302C622.608 113.96 623.052 113.79 623.646 113.79C624.232 113.79 624.675 113.96 624.977 114.302C625.286 114.636 625.44 115.047 625.44 115.535C625.44 116.015 625.286 116.418 624.977 116.744C624.667 117.069 624.224 117.232 623.646 117.232C623.06 117.232 622.617 117.069 622.315 116.744C622.022 116.41 621.876 116.007 621.876 115.535ZM643.013 114.607L632.661 109.981V108.199L643.013 103.584V105.977L635.542 108.907L634.895 109.114L635.542 109.334L643.013 112.215V114.607ZM650.453 118.526H648.427L655.849 99.2266H657.863L650.453 118.526ZM662.227 122.078V103.792H664.29L664.4 105.232C664.579 105.005 664.774 104.801 664.986 104.622C665.197 104.435 665.425 104.276 665.669 104.146C666.011 103.951 666.39 103.804 666.805 103.707C667.228 103.601 667.68 103.548 668.16 103.548C669.006 103.548 669.755 103.715 670.406 104.048C671.057 104.382 671.602 104.846 672.042 105.44C672.481 106.034 672.815 106.746 673.042 107.576C673.27 108.398 673.384 109.301 673.384 110.286V110.542C673.384 111.486 673.27 112.369 673.042 113.191C672.815 114.005 672.481 114.713 672.042 115.315C671.602 115.918 671.057 116.39 670.406 116.731C669.763 117.073 669.026 117.244 668.196 117.244C667.692 117.244 667.22 117.191 666.78 117.085C666.349 116.98 665.958 116.829 665.608 116.634C665.397 116.512 665.197 116.377 665.01 116.231C664.823 116.076 664.648 115.91 664.485 115.73V122.078H662.227ZM671.126 110.286C671.126 109.643 671.053 109.033 670.906 108.455C670.768 107.869 670.552 107.352 670.259 106.905C669.958 106.465 669.58 106.115 669.124 105.855C668.668 105.595 668.123 105.464 667.488 105.464C667.138 105.464 666.813 105.505 666.512 105.586C666.219 105.668 665.954 105.786 665.718 105.94C665.458 106.095 665.226 106.286 665.022 106.514C664.819 106.742 664.64 106.994 664.485 107.271V113.631C664.624 113.875 664.782 114.103 664.961 114.314C665.14 114.526 665.344 114.705 665.572 114.852C665.832 115.022 666.121 115.157 666.438 115.254C666.764 115.352 667.122 115.401 667.513 115.401C668.139 115.401 668.681 115.271 669.136 115.01C669.592 114.742 669.966 114.384 670.259 113.936C670.552 113.488 670.768 112.972 670.906 112.386C671.053 111.8 671.126 111.185 671.126 110.542V110.286ZM677.053 114.595V112.251L684.951 109.273L685.683 109.065L684.951 108.833L677.053 105.904V103.572L687.832 108.187V109.969L677.053 114.595ZM170.544 147.607L160.192 142.981V141.199L170.544 136.584V138.977L163.073 141.907L162.426 142.114L163.073 142.334L170.544 145.215V147.607ZM177.984 151.526H175.958L183.38 132.227H185.394L177.984 151.526ZM189.343 143.286C189.343 142.301 189.465 141.398 189.709 140.576C189.962 139.746 190.32 139.034 190.784 138.44C191.239 137.846 191.793 137.382 192.444 137.048C193.095 136.715 193.823 136.548 194.629 136.548C195.418 136.548 196.106 136.682 196.692 136.951C197.286 137.211 197.799 137.594 198.23 138.098V131.25H200.488V150H198.413L198.315 148.608C197.876 149.146 197.351 149.552 196.741 149.829C196.13 150.106 195.418 150.244 194.604 150.244C193.807 150.244 193.083 150.073 192.432 149.731C191.789 149.39 191.239 148.918 190.784 148.315C190.328 147.713 189.974 147.005 189.722 146.191C189.469 145.369 189.343 144.486 189.343 143.542V143.286ZM191.602 143.542C191.602 144.185 191.671 144.796 191.809 145.374C191.947 145.951 192.163 146.46 192.456 146.899C192.741 147.339 193.107 147.689 193.555 147.949C194.002 148.201 194.539 148.328 195.166 148.328C195.923 148.328 196.549 148.157 197.046 147.815C197.542 147.473 197.937 147.013 198.23 146.436V140.308C197.937 139.771 197.542 139.331 197.046 138.989C196.549 138.639 195.931 138.464 195.19 138.464C194.556 138.464 194.01 138.595 193.555 138.855C193.107 139.115 192.741 139.465 192.456 139.905C192.163 140.352 191.947 140.869 191.809 141.455C191.671 142.033 191.602 142.643 191.602 143.286V143.542ZM204.889 136.792H211.64V148.047H215.949V150H204.889V148.047H209.381V138.757H204.889V136.792ZM209.088 133.325C209.088 133.13 209.117 132.947 209.174 132.776C209.239 132.605 209.337 132.458 209.467 132.336C209.573 132.231 209.707 132.149 209.87 132.092C210.041 132.027 210.232 131.995 210.443 131.995C210.655 131.995 210.842 132.027 211.005 132.092C211.168 132.149 211.302 132.231 211.408 132.336C211.538 132.45 211.636 132.593 211.701 132.764C211.766 132.935 211.798 133.122 211.798 133.325C211.798 133.691 211.684 133.997 211.457 134.241C211.229 134.485 210.891 134.607 210.443 134.607C209.988 134.607 209.646 134.485 209.418 134.241C209.198 133.997 209.088 133.691 209.088 133.325ZM223.804 150L218.372 136.792H220.691L224.476 146.753L224.683 147.571L224.903 146.753L228.602 136.792H230.909L225.525 150H223.804ZM234.113 147.595V145.251L242.011 142.273L242.744 142.065L242.011 141.833L234.113 138.904V136.572L244.892 141.187V142.969L234.113 147.595ZM111.485 180.607L101.134 175.981V174.199L111.485 169.584V171.977L104.015 174.907L103.368 175.114L104.015 175.334L111.485 178.215V180.607ZM118.926 184.526H116.899L124.321 165.227H126.335L118.926 184.526ZM134.081 183V171.538H130.443V169.792H134.081V168.864C134.081 168.018 134.203 167.277 134.447 166.643C134.7 166 135.054 165.463 135.509 165.031C135.957 164.6 136.498 164.274 137.133 164.055C137.768 163.835 138.476 163.725 139.257 163.725C139.582 163.725 139.904 163.745 140.221 163.786C140.539 163.819 140.852 163.863 141.161 163.92C141.365 163.961 141.568 164.006 141.771 164.055C141.975 164.095 142.182 164.144 142.394 164.201L142.125 166.069C141.792 165.955 141.401 165.857 140.954 165.776C140.514 165.686 140.042 165.642 139.538 165.642C139.025 165.642 138.569 165.707 138.17 165.837C137.78 165.959 137.454 166.146 137.194 166.398C136.917 166.659 136.706 166.997 136.559 167.412C136.421 167.827 136.352 168.311 136.352 168.864V169.792H141.442V171.538H136.352V183H134.081ZM144.842 176.274C144.842 175.322 144.98 174.439 145.257 173.625C145.534 172.803 145.932 172.091 146.453 171.489C146.966 170.887 147.592 170.415 148.333 170.073C149.074 169.723 149.908 169.548 150.835 169.548C151.771 169.548 152.61 169.723 153.35 170.073C154.099 170.415 154.734 170.887 155.254 171.489C155.767 172.091 156.162 172.803 156.438 173.625C156.715 174.439 156.854 175.322 156.854 176.274V176.542C156.854 177.495 156.715 178.378 156.438 179.191C156.162 180.005 155.767 180.713 155.254 181.315C154.734 181.918 154.103 182.39 153.362 182.731C152.622 183.073 151.788 183.244 150.86 183.244C149.924 183.244 149.082 183.073 148.333 182.731C147.592 182.39 146.966 181.918 146.453 181.315C145.932 180.713 145.534 180.005 145.257 179.191C144.98 178.378 144.842 177.495 144.842 176.542V176.274ZM147.1 176.542C147.1 177.194 147.177 177.816 147.332 178.41C147.487 178.996 147.723 179.513 148.04 179.96C148.349 180.408 148.74 180.762 149.212 181.022C149.684 181.283 150.233 181.413 150.86 181.413C151.478 181.413 152.02 181.283 152.483 181.022C152.955 180.762 153.35 180.408 153.667 179.96C153.977 179.513 154.209 178.996 154.363 178.41C154.518 177.816 154.595 177.194 154.595 176.542V176.274C154.595 175.631 154.514 175.017 154.351 174.431C154.196 173.837 153.965 173.316 153.655 172.868C153.338 172.421 152.943 172.067 152.471 171.806C152.007 171.538 151.462 171.403 150.835 171.403C150.209 171.403 149.664 171.538 149.2 171.806C148.736 172.067 148.349 172.421 148.04 172.868C147.723 173.316 147.487 173.837 147.332 174.431C147.177 175.017 147.1 175.631 147.1 176.274V176.542ZM159.606 176.274C159.606 175.322 159.745 174.439 160.021 173.625C160.298 172.803 160.697 172.091 161.218 171.489C161.73 170.887 162.357 170.415 163.098 170.073C163.838 169.723 164.672 169.548 165.6 169.548C166.536 169.548 167.374 169.723 168.115 170.073C168.863 170.415 169.498 170.887 170.019 171.489C170.532 172.091 170.926 172.803 171.203 173.625C171.48 174.439 171.618 175.322 171.618 176.274V176.542C171.618 177.495 171.48 178.378 171.203 179.191C170.926 180.005 170.532 180.713 170.019 181.315C169.498 181.918 168.868 182.39 168.127 182.731C167.386 183.073 166.552 183.244 165.625 183.244C164.689 183.244 163.846 183.073 163.098 182.731C162.357 182.39 161.73 181.918 161.218 181.315C160.697 180.713 160.298 180.005 160.021 179.191C159.745 178.378 159.606 177.495 159.606 176.542V176.274ZM161.865 176.542C161.865 177.194 161.942 177.816 162.097 178.41C162.251 178.996 162.487 179.513 162.805 179.96C163.114 180.408 163.505 180.762 163.977 181.022C164.449 181.283 164.998 181.413 165.625 181.413C166.243 181.413 166.784 181.283 167.248 181.022C167.72 180.762 168.115 180.408 168.432 179.96C168.741 179.513 168.973 178.996 169.128 178.41C169.283 177.816 169.36 177.194 169.36 176.542V176.274C169.36 175.631 169.278 175.017 169.116 174.431C168.961 173.837 168.729 173.316 168.42 172.868C168.103 172.421 167.708 172.067 167.236 171.806C166.772 171.538 166.227 171.403 165.6 171.403C164.973 171.403 164.428 171.538 163.964 171.806C163.5 172.067 163.114 172.421 162.805 172.868C162.487 173.316 162.251 173.837 162.097 174.431C161.942 175.017 161.865 175.631 161.865 176.274V176.542ZM180.353 166.594V169.792H185.382V171.538H180.353V178.715C180.353 179.228 180.418 179.651 180.548 179.985C180.678 180.319 180.857 180.583 181.085 180.778C181.313 180.982 181.573 181.124 181.866 181.206C182.167 181.287 182.485 181.328 182.818 181.328C183.062 181.328 183.315 181.315 183.575 181.291C183.836 181.258 184.092 181.222 184.344 181.181C184.588 181.14 184.816 181.1 185.028 181.059C185.248 181.01 185.427 180.97 185.565 180.937L185.882 182.536C185.695 182.65 185.467 182.752 185.199 182.841C184.93 182.923 184.637 182.992 184.32 183.049C184.002 183.114 183.665 183.163 183.307 183.195C182.957 183.228 182.607 183.244 182.257 183.244C181.671 183.244 181.122 183.163 180.609 183C180.104 182.829 179.665 182.561 179.291 182.194C178.916 181.836 178.619 181.372 178.399 180.803C178.188 180.225 178.082 179.529 178.082 178.715V171.538H174.615V169.792H178.082V166.594H180.353ZM195.605 183.244C194.678 183.244 193.823 183.085 193.042 182.768C192.269 182.451 191.606 182.007 191.052 181.438C190.499 180.868 190.068 180.192 189.758 179.411C189.449 178.63 189.294 177.779 189.294 176.86V176.347C189.294 175.281 189.465 174.329 189.807 173.491C190.149 172.644 190.605 171.928 191.174 171.342C191.736 170.764 192.375 170.321 193.091 170.012C193.815 169.702 194.556 169.548 195.312 169.548C196.265 169.548 197.095 169.715 197.803 170.048C198.519 170.374 199.113 170.826 199.585 171.403C200.057 171.989 200.407 172.677 200.635 173.466C200.871 174.256 200.989 175.11 200.989 176.03V177.043H191.553V177.128C191.61 177.771 191.736 178.337 191.931 178.825C192.135 179.313 192.411 179.745 192.761 180.119C193.119 180.518 193.551 180.831 194.055 181.059C194.56 181.287 195.117 181.401 195.728 181.401C196.533 181.401 197.249 181.238 197.876 180.913C198.503 180.587 199.023 180.156 199.438 179.619L200.818 180.693C200.378 181.36 199.719 181.954 198.84 182.475C197.97 182.988 196.891 183.244 195.605 183.244ZM195.312 171.403C194.857 171.403 194.425 171.489 194.019 171.66C193.612 171.822 193.245 172.062 192.92 172.38C192.594 172.705 192.318 173.104 192.09 173.576C191.87 174.04 191.715 174.577 191.626 175.188H198.73V175.078C198.73 174.671 198.653 174.235 198.499 173.771C198.344 173.299 198.128 172.893 197.852 172.551C197.575 172.209 197.225 171.932 196.802 171.721C196.387 171.509 195.89 171.403 195.312 171.403ZM213.19 169.548C213.605 169.548 214.036 169.576 214.484 169.633C214.94 169.69 215.281 169.768 215.509 169.865L215.204 172.075C214.765 171.977 214.346 171.908 213.947 171.867C213.556 171.818 213.145 171.794 212.714 171.794C212.16 171.794 211.66 171.863 211.212 172.001C210.765 172.132 210.374 172.327 210.041 172.587C209.739 172.815 209.475 173.096 209.247 173.43C209.027 173.755 208.844 174.121 208.698 174.528V183H206.427V169.792H208.576L208.673 171.562L208.686 171.892C209.223 171.167 209.866 170.598 210.614 170.183C211.371 169.759 212.23 169.548 213.19 169.548ZM219.349 180.595V178.251L227.247 175.273L227.979 175.065L227.247 174.833L219.349 171.904V169.572L230.127 174.187V175.969L219.349 180.595Z" fill="white"/>
</svg>
