<svg width="1400" height="163" viewBox="0 0 1400 163" fill="none" xmlns="http://www.w3.org/2000/svg">
<rect width="1400" height="163" rx="20" fill="#0066FF" fill-opacity="0.2"/>
<rect x="1.5" y="1.5" width="1397" height="160" rx="18.5" stroke="#0066FF" stroke-opacity="0.5" stroke-width="3"/>
<rect x="32" y="34" width="1337" height="95" rx="11" fill="#0066FF"/>
<path d="M403.204 59.4014C403.491 61.8554 403.634 63.0824 403.871 64.159C405.706 72.4911 412.213 78.9987 420.546 80.8336C421.622 81.0707 422.849 81.2139 425.303 81.5002C422.849 81.7865 421.622 81.9297 420.546 82.1668C412.213 84.0017 405.706 90.5092 403.871 98.8414C403.634 99.918 403.491 101.145 403.204 103.599L403.119 103.008C402.768 100.563 402.593 99.3406 402.325 98.265C400.325 90.2211 393.954 83.9964 385.865 82.1836C384.784 81.9412 383.558 81.7942 381.105 81.5002C383.558 81.2062 384.784 81.0592 385.865 80.8168C393.954 79.004 400.325 72.7793 402.325 64.7353C402.593 63.6598 402.768 62.4375 403.119 59.9928L403.204 59.4014Z" fill="white"/>
<path d="M441.402 59.4014C441.688 61.8554 441.831 63.0824 442.068 64.159C443.903 72.4911 450.411 78.9987 458.743 80.8336C459.819 81.0707 461.046 81.2139 463.5 81.5002C461.046 81.7865 459.819 81.9297 458.743 82.1668C450.411 84.0017 443.903 90.5092 442.068 98.8414C441.831 99.918 441.688 101.145 441.402 103.599L441.317 103.008C440.966 100.563 440.79 99.3406 440.523 98.265C438.522 90.2211 432.151 83.9964 424.062 82.1836C422.981 81.9412 421.755 81.7942 419.303 81.5002C421.755 81.2062 422.981 81.0592 424.062 80.8168C432.151 79.004 438.522 72.7793 440.523 64.7353C440.79 63.6598 440.966 62.4375 441.317 59.9928L441.402 59.4014Z" fill="white"/>
<path d="M479.599 59.4014C479.885 61.8554 480.028 63.0824 480.265 64.159C482.1 72.4911 488.608 78.9987 496.94 80.8336C498.017 81.0707 499.244 81.2139 501.698 81.5002C499.244 81.7865 498.017 81.9297 496.94 82.1668C488.608 84.0017 482.1 90.5092 480.265 98.8414C480.028 99.918 479.885 101.145 479.599 103.599L479.514 103.008C479.163 100.563 478.987 99.3406 478.72 98.265C476.719 90.2211 470.348 83.9964 462.26 82.1836C461.178 81.9412 459.952 81.7942 457.5 81.5002C459.952 81.2062 461.178 81.0592 462.26 80.8168C470.348 79.004 476.719 72.7793 478.72 64.7353C478.987 63.6598 479.163 62.4375 479.514 59.9928L479.599 59.4014Z" fill="white"/>
<path d="M517.798 59.4014C518.084 61.8554 518.228 63.0824 518.465 64.159C520.3 72.4911 526.807 78.9987 535.139 80.8336C536.216 81.0707 537.443 81.2139 539.897 81.5002C537.443 81.7865 536.216 81.9297 535.139 82.1668C526.807 84.0017 520.3 90.5092 518.465 98.8414C518.228 99.918 518.084 101.145 517.798 103.599L517.713 103.008C517.362 100.563 517.187 99.3406 516.919 98.265C514.919 90.2211 508.547 83.9964 500.459 82.1836C499.377 81.9412 498.151 81.7942 495.699 81.5002C498.151 81.2062 499.377 81.0592 500.459 80.8168C508.547 79.004 514.919 72.7793 516.919 64.7353C517.187 63.6598 517.362 62.4375 517.713 59.9928L517.798 59.4014Z" fill="white"/>
<path d="M605.311 92.5H591.391V90.1348L598.144 82.7826C598.705 82.1652 599.175 81.6142 599.555 81.1298C599.935 80.6358 600.244 80.1846 600.481 79.7762C600.709 79.3677 600.871 78.9878 600.966 78.6363C601.07 78.2753 601.122 77.9144 601.122 77.5534C601.122 77.069 601.051 76.6273 600.909 76.2283C600.766 75.8294 600.557 75.4874 600.282 75.2024C600.006 74.9175 599.674 74.6942 599.284 74.5328C598.904 74.3713 598.477 74.2905 598.002 74.2905C597.394 74.2905 596.867 74.376 596.42 74.547C595.974 74.718 595.603 74.9602 595.309 75.2737C595.005 75.6061 594.777 76.0098 594.625 76.4848C594.473 76.9502 594.397 77.4822 594.397 78.0806H590.977C590.977 77.1782 591.144 76.3281 591.476 75.5301C591.809 74.7227 592.284 74.0198 592.901 73.4214C593.509 72.8229 594.25 72.348 595.124 71.9965C596.007 71.6451 596.99 71.4693 598.073 71.4693C599.09 71.4693 599.997 71.6166 600.795 71.911C601.602 72.2055 602.281 72.614 602.832 73.1364C603.374 73.6589 603.787 74.2858 604.072 75.0172C604.357 75.7391 604.499 76.537 604.499 77.4109C604.499 78.0664 604.39 78.7028 604.171 79.3202C603.962 79.9282 603.673 80.5313 603.302 81.1298C602.922 81.7282 602.471 82.3314 601.949 82.9393C601.436 83.5472 600.875 84.1742 600.267 84.8201L595.651 89.7501H605.311V92.5ZM622.353 84.5921C622.353 85.922 622.196 87.0999 621.883 88.1257C621.579 89.1421 621.137 89.9923 620.558 90.6762C619.988 91.3791 619.285 91.9111 618.449 92.272C617.623 92.6235 616.682 92.7992 615.628 92.7992C614.583 92.7992 613.642 92.6235 612.807 92.272C611.971 91.9111 611.263 91.3791 610.684 90.6762C610.095 89.9923 609.643 89.1421 609.33 88.1257C609.026 87.0999 608.874 85.922 608.874 84.5921V79.6764C608.874 78.3466 609.026 77.1735 609.33 76.1571C609.643 75.1312 610.09 74.2668 610.669 73.5639C611.249 72.8704 611.952 72.348 612.778 71.9965C613.614 71.6356 614.554 71.4551 615.599 71.4551C616.654 71.4551 617.594 71.6356 618.42 71.9965C619.256 72.348 619.969 72.8704 620.558 73.5639C621.128 74.2668 621.569 75.1312 621.883 76.1571C622.196 77.1735 622.353 78.3466 622.353 79.6764V84.5921ZM612.294 83.381L618.891 78.3798C618.853 77.6389 618.748 76.9977 618.577 76.4563C618.416 75.9149 618.183 75.4731 617.879 75.1312C617.613 74.8272 617.285 74.5992 616.896 74.4473C616.516 74.2953 616.084 74.2193 615.599 74.2193C615.077 74.2193 614.616 74.3095 614.217 74.49C613.818 74.6705 613.486 74.9365 613.22 75.2879C612.906 75.6869 612.674 76.2046 612.522 76.841C612.37 77.4679 612.294 78.2088 612.294 79.0637V81.8564C612.294 82.2174 612.294 82.4929 612.294 82.6828C612.294 82.8728 612.294 83.1055 612.294 83.381ZM618.919 85.1621V82.5404C618.919 82.3029 618.919 82.0559 618.919 81.7994C618.919 81.543 618.919 81.277 618.919 81.0015L612.322 85.9742C612.37 86.6297 612.469 87.2091 612.621 87.7125C612.783 88.216 612.997 88.6339 613.262 88.9664C613.528 89.3274 613.856 89.5981 614.246 89.7786C614.645 89.959 615.105 90.0493 615.628 90.0493C616.141 90.0493 616.592 89.9638 616.981 89.7928C617.371 89.6123 617.703 89.3511 617.979 89.0091C618.292 88.6102 618.525 88.0877 618.677 87.4418C618.838 86.7959 618.919 86.036 618.919 85.1621ZM639.195 92.5H625.274V90.1348L632.028 82.7826C632.589 82.1652 633.059 81.6142 633.439 81.1298C633.819 80.6358 634.127 80.1846 634.365 79.7762C634.593 79.3677 634.754 78.9878 634.849 78.6363C634.954 78.2753 635.006 77.9144 635.006 77.5534C635.006 77.069 634.935 76.6273 634.792 76.2283C634.65 75.8294 634.441 75.4874 634.165 75.2024C633.89 74.9175 633.558 74.6942 633.168 74.5328C632.788 74.3713 632.361 74.2905 631.886 74.2905C631.278 74.2905 630.751 74.376 630.304 74.547C629.858 74.718 629.487 74.9602 629.193 75.2737C628.889 75.6061 628.661 76.0098 628.509 76.4848C628.357 76.9502 628.281 77.4822 628.281 78.0806H624.861C624.861 77.1782 625.028 76.3281 625.36 75.5301C625.692 74.7227 626.167 74.0198 626.785 73.4214C627.393 72.8229 628.134 72.348 629.008 71.9965C629.891 71.6451 630.874 71.4693 631.957 71.4693C632.973 71.4693 633.881 71.6166 634.678 71.911C635.486 72.2055 636.165 72.614 636.716 73.1364C637.257 73.6589 637.671 74.2858 637.956 75.0172C638.241 75.7391 638.383 76.537 638.383 77.4109C638.383 78.0664 638.274 78.7028 638.055 79.3202C637.846 79.9282 637.557 80.5313 637.186 81.1298C636.806 81.7282 636.355 82.3314 635.833 82.9393C635.32 83.5472 634.759 84.1742 634.151 84.8201L629.535 89.7501H639.195V92.5ZM643.442 82.2126L644.553 71.7543H655.71V74.775H647.389L646.847 79.7477C647.189 79.5482 647.636 79.3582 648.186 79.1777C648.747 78.9973 649.388 78.907 650.11 78.907C651.088 78.907 651.962 79.0685 652.732 79.3915C653.511 79.7144 654.171 80.1751 654.712 80.7736C655.244 81.3815 655.653 82.1177 655.938 82.9821C656.223 83.837 656.365 84.8011 656.365 85.8745C656.365 86.8244 656.227 87.722 655.952 88.5674C655.686 89.4033 655.273 90.1348 654.712 90.7617C654.161 91.3886 653.463 91.8826 652.618 92.2435C651.772 92.6045 650.775 92.785 649.626 92.785C648.752 92.785 647.916 92.6615 647.118 92.4145C646.32 92.158 645.612 91.7781 644.995 91.2746C644.377 90.7807 643.869 90.168 643.47 89.4366C643.081 88.6957 642.858 87.8455 642.801 86.8861H646.12C646.244 87.9025 646.614 88.6814 647.232 89.2229C647.859 89.7643 648.657 90.035 649.626 90.035C650.196 90.035 650.689 89.9305 651.107 89.7216C651.525 89.5126 651.877 89.2181 652.162 88.8382C652.428 88.4677 652.627 88.0212 652.76 87.4988C652.893 86.9669 652.96 86.3922 652.96 85.7748C652.96 85.1763 652.879 84.6301 652.717 84.1362C652.566 83.6327 652.333 83.1958 652.019 82.8253C651.706 82.4549 651.316 82.1699 650.851 81.9704C650.385 81.7614 649.844 81.657 649.227 81.657C648.818 81.657 648.462 81.6902 648.158 81.7567C647.864 81.8232 647.602 81.9087 647.374 82.0132C647.137 82.1272 646.918 82.2601 646.719 82.4121C646.529 82.5546 646.344 82.7113 646.163 82.8823L643.442 82.2126ZM664.117 90.4482C664.117 89.7928 664.326 89.2324 664.744 88.7669C665.171 88.3015 665.784 88.0687 666.582 88.0687C667.361 88.0687 667.969 88.3015 668.406 88.7669C668.843 89.2229 669.061 89.7833 669.061 90.4482C669.061 91.1132 668.838 91.6688 668.391 92.1153C667.954 92.5617 667.351 92.785 666.582 92.785C665.803 92.785 665.195 92.5617 664.758 92.1153C664.331 91.6593 664.117 91.1037 664.117 90.4482ZM694.224 92.5V71.7543H700.864C701.871 71.7543 702.816 71.8683 703.699 72.0963C704.583 72.3148 705.348 72.652 705.993 73.1079C706.639 73.5639 707.143 74.148 707.504 74.8605C707.874 75.5634 708.059 76.3993 708.059 77.3682C708.05 77.9571 707.945 78.5081 707.746 79.021C707.556 79.5244 707.281 79.9709 706.92 80.3604C706.663 80.6453 706.373 80.897 706.05 81.1155C705.737 81.3245 705.371 81.5145 704.953 81.6855V81.714C705.571 81.8754 706.098 82.1129 706.535 82.4264C706.972 82.7303 707.338 83.0771 707.632 83.4665C707.936 83.8845 708.164 84.3499 708.316 84.8629C708.477 85.3663 708.558 85.8982 708.558 86.4587C708.568 87.4466 708.392 88.3157 708.031 89.0661C707.67 89.8165 707.171 90.4435 706.535 90.9469C705.898 91.4599 705.139 91.8493 704.255 92.1153C703.381 92.3718 702.431 92.5 701.405 92.5H694.224ZM697.672 83.1245V89.6788H701.434C701.975 89.6788 702.469 89.6028 702.916 89.4508C703.362 89.2989 703.742 89.0899 704.056 88.8239C704.398 88.5484 704.659 88.2112 704.839 87.8123C705.029 87.4038 705.124 86.9526 705.124 86.4587C705.124 85.9362 705.048 85.4755 704.896 85.0766C704.744 84.6681 704.516 84.3214 704.212 84.0364C703.908 83.7515 703.538 83.533 703.101 83.381C702.664 83.2195 702.165 83.134 701.605 83.1245H697.672ZM697.672 80.5171H700.935C701.496 80.5076 702.009 80.4316 702.474 80.2891C702.949 80.1466 703.348 79.9377 703.671 79.6622C703.965 79.4152 704.198 79.116 704.369 78.7645C704.54 78.4131 704.626 78.0094 704.626 77.5534C704.626 77.069 704.545 76.651 704.383 76.2996C704.231 75.9386 704.013 75.6441 703.728 75.4162C703.405 75.1312 703.001 74.927 702.517 74.8035C702.032 74.6705 701.496 74.5992 700.907 74.5897H697.672V80.5171ZM718.283 90.0493C718.71 90.0493 719.119 89.9875 719.508 89.864C719.907 89.7311 720.259 89.5458 720.563 89.3084C720.857 89.0709 721.09 88.7907 721.261 88.4677C721.441 88.1447 721.532 87.7885 721.532 87.3991H724.737C724.747 88.1495 724.576 88.8572 724.225 89.5221C723.883 90.1775 723.417 90.7427 722.828 91.2176C722.23 91.7116 721.541 92.101 720.762 92.386C719.993 92.6615 719.181 92.7992 718.326 92.7992C717.138 92.7992 716.098 92.595 715.205 92.1865C714.322 91.7686 713.586 91.2081 712.997 90.5052C712.398 89.8023 711.947 88.9854 711.643 88.0545C711.339 87.1141 711.187 86.112 711.187 85.0481V84.5494C711.187 83.495 711.334 82.4976 711.629 81.5572C711.933 80.6168 712.384 79.7952 712.983 79.0922C713.581 78.3893 714.322 77.8336 715.205 77.4252C716.098 77.0072 717.134 76.7983 718.311 76.7983C719.242 76.7983 720.102 76.9407 720.89 77.2257C721.688 77.5107 722.372 77.9096 722.942 78.4226C723.512 78.9355 723.954 79.5482 724.267 80.2606C724.59 80.973 724.747 81.7567 724.737 82.6116H721.532C721.532 82.1936 721.451 81.7994 721.289 81.429C721.137 81.0585 720.919 80.7356 720.634 80.4601C720.339 80.1846 719.988 79.9661 719.58 79.8047C719.181 79.6432 718.748 79.5624 718.283 79.5624C717.571 79.5624 716.977 79.7097 716.502 80.0041C716.036 80.2891 715.666 80.6643 715.391 81.1298C715.096 81.5952 714.887 82.1272 714.764 82.7256C714.65 83.324 714.593 83.932 714.593 84.5494V85.0481C714.593 85.675 714.65 86.2924 714.764 86.9004C714.887 87.4988 715.091 88.026 715.376 88.4819C715.652 88.9569 716.027 89.3369 716.502 89.6218C716.977 89.9068 717.571 90.0493 718.283 90.0493ZM736.001 92.785C734.861 92.785 733.816 92.595 732.866 92.215C731.926 91.8351 731.119 91.3079 730.444 90.6335C729.77 89.9685 729.247 89.1849 728.877 88.2825C728.516 87.3706 728.336 86.3874 728.336 85.333V84.7489C728.336 83.5425 728.525 82.4501 728.905 81.4717C729.285 80.4933 729.808 79.6574 730.473 78.964C731.138 78.2706 731.907 77.7386 732.781 77.3682C733.664 76.9882 734.605 76.7983 735.602 76.7983C736.714 76.7983 737.697 76.9882 738.552 77.3682C739.407 77.7386 740.124 78.2563 740.703 78.9213C741.283 79.5957 741.72 80.3984 742.014 81.3292C742.308 82.2601 742.456 83.2765 742.456 84.3784V85.846H731.769V85.9172C731.874 86.5917 732.035 87.1568 732.254 87.6128C732.472 88.0687 732.772 88.4772 733.151 88.8382C733.531 89.2181 733.978 89.5126 734.491 89.7216C735.013 89.9305 735.583 90.035 736.201 90.035C737.046 90.035 737.834 89.8735 738.566 89.5506C739.297 89.2181 739.9 88.7479 740.375 88.14L742.199 89.9068C741.686 90.6477 740.898 91.3126 739.834 91.9016C738.78 92.4905 737.502 92.785 736.001 92.785ZM735.588 79.5624C735.103 79.5624 734.652 79.6527 734.234 79.8332C733.826 80.0041 733.46 80.2511 733.137 80.5741C732.814 80.9065 732.544 81.3055 732.325 81.7709C732.107 82.2364 731.945 82.7636 731.841 83.3525H739.093V83.1245C739.093 82.6781 739.012 82.2364 738.851 81.7994C738.689 81.353 738.461 80.9635 738.167 80.6311C737.882 80.3081 737.521 80.0516 737.084 79.8617C736.657 79.6622 736.158 79.5624 735.588 79.5624ZM776.382 92.5H772.976V79.8617H766.465V92.5H763.045V77.0832H776.382V92.5ZM780.535 98.4273V77.0832H783.67L783.798 78.6648C784.007 78.4083 784.235 78.1756 784.482 77.9666C784.729 77.7576 784.995 77.5772 785.28 77.4252C785.651 77.2257 786.059 77.0737 786.506 76.9692C786.952 76.8552 787.427 76.7983 787.93 76.7983C788.918 76.7983 789.787 76.9882 790.538 77.3682C791.298 77.7481 791.934 78.2848 792.447 78.9783C792.951 79.6717 793.335 80.5028 793.601 81.4717C793.867 82.4311 794 83.4903 794 84.6491V84.9483C794 86.0597 793.867 87.0951 793.601 88.0545C793.345 89.0139 792.96 89.8403 792.447 90.5337C791.934 91.2366 791.302 91.7876 790.552 92.1865C789.802 92.5855 788.942 92.785 787.973 92.785C787.422 92.785 786.914 92.728 786.449 92.614C785.993 92.5 785.57 92.3338 785.18 92.1153C784.952 91.9823 784.734 91.8303 784.525 91.6593C784.316 91.4884 784.121 91.3031 783.941 91.1037V98.4273H780.535ZM790.595 84.6491C790.595 83.9557 790.524 83.305 790.381 82.6971C790.248 82.0797 790.039 81.543 789.754 81.087C789.46 80.6311 789.084 80.2701 788.629 80.0041C788.173 79.7382 787.626 79.6052 786.99 79.6052C786.638 79.6052 786.311 79.6432 786.007 79.7192C785.703 79.7952 785.432 79.9044 785.195 80.0469C784.919 80.1989 784.677 80.3889 784.468 80.6168C784.269 80.8448 784.093 81.1013 783.941 81.3862V88.2397C784.074 88.5057 784.235 88.7479 784.425 88.9664C784.615 89.1849 784.834 89.3748 785.081 89.5363C785.337 89.6883 785.627 89.8118 785.95 89.9068C786.273 89.9923 786.629 90.035 787.018 90.035C787.655 90.035 788.196 89.902 788.643 89.6361C789.099 89.3606 789.469 88.9901 789.754 88.5247C790.049 88.0497 790.262 87.5083 790.395 86.9004C790.528 86.2829 790.595 85.6323 790.595 84.9483V84.6491ZM807.586 92.5C807.482 92.31 807.396 92.082 807.33 91.8161C807.273 91.5406 807.221 91.2556 807.173 90.9612C806.936 91.2081 806.665 91.4456 806.361 91.6736C806.066 91.8921 805.734 92.082 805.364 92.2435C804.993 92.4145 804.594 92.5475 804.167 92.6425C803.739 92.7375 803.279 92.785 802.785 92.785C801.987 92.785 801.255 92.671 800.59 92.443C799.935 92.2055 799.374 91.8826 798.909 91.4741C798.434 91.0752 798.064 90.5955 797.798 90.035C797.541 89.4651 797.413 88.8524 797.413 88.197C797.413 87.3516 797.579 86.6059 797.912 85.96C798.254 85.3046 798.748 84.7631 799.393 84.3357C799.992 83.9367 800.728 83.6327 801.602 83.4238C802.485 83.2148 803.483 83.1103 804.594 83.1103H807.073V82.0702C807.073 81.6712 807.002 81.3102 806.86 80.9873C806.727 80.6643 806.532 80.3841 806.275 80.1466C806 79.9092 805.663 79.7287 805.264 79.6052C804.874 79.4722 804.423 79.4057 803.91 79.4057C803.445 79.4057 803.036 79.4627 802.685 79.5767C802.343 79.6907 802.058 79.8474 801.83 80.0469C801.602 80.2274 801.431 80.4506 801.317 80.7166C801.213 80.973 801.16 81.2485 801.16 81.543H797.741C797.75 80.9255 797.897 80.3319 798.182 79.7619C798.467 79.192 798.885 78.6885 799.436 78.2516C799.968 77.8051 800.624 77.4537 801.402 77.1972C802.191 76.9312 803.089 76.7983 804.095 76.7983C804.998 76.7983 805.839 76.9122 806.617 77.1402C807.406 77.3587 808.085 77.6864 808.655 78.1234C809.225 78.5603 809.671 79.116 809.994 79.7904C810.317 80.4553 810.479 81.2248 810.479 82.0987V88.9521C810.479 89.6456 810.526 90.2725 810.621 90.8329C810.726 91.3839 810.873 91.8588 811.063 92.2578V92.5H807.586ZM803.44 90.0493C803.886 90.0493 804.3 89.9923 804.68 89.8783C805.069 89.7643 805.421 89.6171 805.734 89.4366C806.047 89.2561 806.318 89.0519 806.546 88.8239C806.774 88.5959 806.95 88.3585 807.073 88.1115V85.2618H804.879C804.138 85.2618 803.497 85.333 802.956 85.4755C802.414 85.6085 801.982 85.8032 801.659 86.0597C801.374 86.2782 801.16 86.5394 801.018 86.8434C800.885 87.1473 800.818 87.4893 800.818 87.8693C800.818 88.1827 800.875 88.4772 800.989 88.7527C801.103 89.0186 801.27 89.2466 801.488 89.4366C801.706 89.6266 801.977 89.7786 802.3 89.8925C802.623 89.997 803.003 90.0493 803.44 90.0493ZM814.889 92.5V77.0832H821.144C822.122 77.0832 823.006 77.1735 823.794 77.3539C824.592 77.5249 825.271 77.7814 825.832 78.1234C826.392 78.4748 826.82 78.9213 827.114 79.4627C827.418 79.9946 827.57 80.6263 827.57 81.3577C827.57 81.7852 827.489 82.1889 827.328 82.5689C827.166 82.9488 826.929 83.2908 826.615 83.5947C826.406 83.7942 826.159 83.9795 825.874 84.1504C825.589 84.3119 825.276 84.4544 824.934 84.5779L825.077 84.6064C825.589 84.7299 826.036 84.9056 826.416 85.1336C826.805 85.352 827.138 85.6085 827.413 85.903C827.689 86.2165 827.893 86.5584 828.026 86.9289C828.168 87.2993 828.24 87.6935 828.24 88.1115C828.24 88.8429 828.097 89.4841 827.812 90.035C827.537 90.5765 827.138 91.0277 826.615 91.3886C826.093 91.7591 825.452 92.0393 824.692 92.2293C823.941 92.4098 823.086 92.5 822.127 92.5H814.889ZM818.294 85.9315V89.7786H822.127C822.602 89.7786 823.01 89.7358 823.352 89.6503C823.704 89.5553 823.989 89.4271 824.207 89.2656C824.416 89.1041 824.573 88.9047 824.678 88.6672C824.782 88.4297 824.834 88.159 824.834 87.855C824.834 87.5606 824.782 87.2993 824.678 87.0714C824.573 86.8339 824.416 86.6344 824.207 86.4729C823.989 86.3019 823.704 86.169 823.352 86.074C823.01 85.979 822.602 85.9315 822.127 85.9315H818.294ZM818.294 83.4808H821.272C821.804 83.4808 822.265 83.438 822.654 83.3525C823.044 83.2575 823.357 83.115 823.595 82.9251C823.785 82.7826 823.927 82.6116 824.022 82.4121C824.117 82.2126 824.165 81.9799 824.165 81.714C824.165 81.4005 824.103 81.1298 823.979 80.9018C823.865 80.6643 823.685 80.4648 823.438 80.3034C823.2 80.1419 822.887 80.0231 822.498 79.9472C822.108 79.8617 821.657 79.8189 821.144 79.8189H818.294V83.4808ZM842.054 92.5C841.949 92.31 841.864 92.082 841.797 91.8161C841.74 91.5406 841.688 91.2556 841.641 90.9612C841.403 91.2081 841.132 91.4456 840.828 91.6736C840.534 91.8921 840.201 92.082 839.831 92.2435C839.461 92.4145 839.062 92.5475 838.634 92.6425C838.207 92.7375 837.746 92.785 837.252 92.785C836.454 92.785 835.723 92.671 835.058 92.443C834.402 92.2055 833.842 91.8826 833.377 91.4741C832.902 91.0752 832.531 90.5955 832.265 90.035C832.009 89.4651 831.88 88.8524 831.88 88.197C831.88 87.3516 832.047 86.6059 832.379 85.96C832.721 85.3046 833.215 84.7631 833.861 84.3357C834.459 83.9367 835.196 83.6327 836.069 83.4238C836.953 83.2148 837.95 83.1103 839.062 83.1103H841.541V82.0702C841.541 81.6712 841.47 81.3102 841.327 80.9873C841.194 80.6643 840.999 80.3841 840.743 80.1466C840.467 79.9092 840.13 79.7287 839.731 79.6052C839.342 79.4722 838.891 79.4057 838.378 79.4057C837.912 79.4057 837.504 79.4627 837.152 79.5767C836.81 79.6907 836.525 79.8474 836.297 80.0469C836.069 80.2274 835.898 80.4506 835.784 80.7166C835.68 80.973 835.628 81.2485 835.628 81.543H832.208C832.218 80.9255 832.365 80.3319 832.65 79.7619C832.935 79.192 833.353 78.6885 833.904 78.2516C834.436 77.8051 835.091 77.4537 835.87 77.1972C836.658 76.9312 837.556 76.7983 838.563 76.7983C839.465 76.7983 840.306 76.9122 841.085 77.1402C841.873 77.3587 842.552 77.6864 843.122 78.1234C843.692 78.5603 844.139 79.116 844.462 79.7904C844.785 80.4553 844.946 81.2248 844.946 82.0987V88.9521C844.946 89.6456 844.994 90.2725 845.089 90.8329C845.193 91.3839 845.34 91.8588 845.53 92.2578V92.5H842.054ZM837.908 90.0493C838.354 90.0493 838.767 89.9923 839.147 89.8783C839.537 89.7643 839.888 89.6171 840.201 89.4366C840.515 89.2561 840.786 89.0519 841.014 88.8239C841.242 88.5959 841.417 88.3585 841.541 88.1115V85.2618H839.347C838.606 85.2618 837.964 85.333 837.423 85.4755C836.882 85.6085 836.449 85.8032 836.126 86.0597C835.841 86.2782 835.628 86.5394 835.485 86.8434C835.352 87.1473 835.286 87.4893 835.286 87.8693C835.286 88.1827 835.343 88.4772 835.457 88.7527C835.571 89.0186 835.737 89.2466 835.955 89.4366C836.174 89.6266 836.445 89.7786 836.768 89.8925C837.091 89.997 837.471 90.0493 837.908 90.0493ZM866.22 87.9405H869.611C869.611 88.235 869.696 88.5199 869.867 88.7954C870.048 89.0614 870.304 89.2941 870.637 89.4936C870.96 89.7026 871.349 89.8688 871.805 89.9923C872.261 90.1158 872.769 90.1775 873.33 90.1775C873.89 90.1775 874.389 90.1205 874.826 90.0065C875.272 89.883 875.647 89.7216 875.951 89.5221C876.246 89.3226 876.469 89.0946 876.621 88.8382C876.782 88.5722 876.863 88.292 876.863 87.9975C876.863 87.6745 876.801 87.3896 876.678 87.1426C876.564 86.8956 876.398 86.6914 876.179 86.5299C876.018 86.3969 875.823 86.2877 875.595 86.2022C875.377 86.1072 875.13 86.0312 874.854 85.9742C874.636 85.9362 874.403 85.9077 874.156 85.8887C873.919 85.8697 873.667 85.8602 873.401 85.8602H870.266V83.3953H873.401C873.657 83.3953 873.9 83.3858 874.128 83.3668C874.355 83.3478 874.564 83.3193 874.754 83.2813C875.011 83.2243 875.239 83.153 875.438 83.0676C875.647 82.9821 875.828 82.8823 875.98 82.7683C876.179 82.6069 876.331 82.4169 876.436 82.1984C876.54 81.9799 876.592 81.7377 876.592 81.4717C876.592 81.2153 876.526 80.9635 876.393 80.7166C876.26 80.4696 876.065 80.2511 875.809 80.0611C875.533 79.8807 875.187 79.7334 874.769 79.6194C874.36 79.5054 873.881 79.4485 873.33 79.4485C872.845 79.4485 872.394 79.5007 871.976 79.6052C871.558 79.7002 871.192 79.8332 870.879 80.0041C870.556 80.1751 870.304 80.3841 870.124 80.6311C869.943 80.878 869.853 81.1535 869.853 81.4575H866.462C866.462 80.7356 866.642 80.0896 867.003 79.5197C867.364 78.9403 867.853 78.4463 868.471 78.0379C869.079 77.6484 869.791 77.3492 870.608 77.1402C871.435 76.9217 872.308 76.8125 873.23 76.8125C874.227 76.8125 875.144 76.9122 875.98 77.1117C876.816 77.3017 877.533 77.5819 878.131 77.9524C878.72 78.3323 879.176 78.8025 879.499 79.363C879.832 79.9139 879.998 80.5598 879.998 81.3007C879.998 81.7377 879.898 82.1557 879.699 82.5546C879.499 82.9441 879.219 83.2955 878.858 83.609C878.649 83.799 878.407 83.9747 878.131 84.1362C877.856 84.2977 877.557 84.4401 877.234 84.5636C877.652 84.6966 878.027 84.8534 878.359 85.0338C878.692 85.2143 878.986 85.4233 879.243 85.6608C879.575 85.9742 879.832 86.3399 880.012 86.7579C880.193 87.1758 880.283 87.6413 880.283 88.1542C880.283 88.8857 880.102 89.5411 879.741 90.1205C879.38 90.6905 878.886 91.1701 878.26 91.5596C877.633 91.9586 876.887 92.2625 876.023 92.4715C875.168 92.6805 874.237 92.785 873.23 92.785C872.337 92.785 871.458 92.6852 870.594 92.4858C869.73 92.2768 868.97 91.9586 868.314 91.5311C867.687 91.1512 867.179 90.662 866.79 90.0635C866.41 89.4651 866.22 88.7574 866.22 87.9405ZM893.755 92.5C893.651 92.31 893.565 92.082 893.499 91.8161C893.442 91.5406 893.389 91.2556 893.342 90.9612C893.104 91.2081 892.834 91.4456 892.53 91.6736C892.235 91.8921 891.903 92.082 891.532 92.2435C891.162 92.4145 890.763 92.5475 890.335 92.6425C889.908 92.7375 889.447 92.785 888.953 92.785C888.155 92.785 887.424 92.671 886.759 92.443C886.104 92.2055 885.543 91.8826 885.078 91.4741C884.603 91.0752 884.232 90.5955 883.966 90.035C883.71 89.4651 883.582 88.8524 883.582 88.197C883.582 87.3516 883.748 86.6059 884.08 85.96C884.422 85.3046 884.916 84.7631 885.562 84.3357C886.161 83.9367 886.897 83.6327 887.771 83.4238C888.654 83.2148 889.651 83.1103 890.763 83.1103H893.242V82.0702C893.242 81.6712 893.171 81.3102 893.028 80.9873C892.895 80.6643 892.701 80.3841 892.444 80.1466C892.169 79.9092 891.831 79.7287 891.433 79.6052C891.043 79.4722 890.592 79.4057 890.079 79.4057C889.613 79.4057 889.205 79.4627 888.854 79.5767C888.512 79.6907 888.227 79.8474 887.999 80.0469C887.771 80.2274 887.6 80.4506 887.486 80.7166C887.381 80.973 887.329 81.2485 887.329 81.543H883.909C883.919 80.9255 884.066 80.3319 884.351 79.7619C884.636 79.192 885.054 78.6885 885.605 78.2516C886.137 77.8051 886.792 77.4537 887.571 77.1972C888.36 76.9312 889.257 76.7983 890.264 76.7983C891.167 76.7983 892.007 76.9122 892.786 77.1402C893.575 77.3587 894.254 77.6864 894.824 78.1234C895.394 78.5603 895.84 79.116 896.163 79.7904C896.486 80.4553 896.647 81.2248 896.647 82.0987V88.9521C896.647 89.6456 896.695 90.2725 896.79 90.8329C896.894 91.3839 897.042 91.8588 897.232 92.2578V92.5H893.755ZM889.609 90.0493C890.055 90.0493 890.468 89.9923 890.848 89.8783C891.238 89.7643 891.589 89.6171 891.903 89.4366C892.216 89.2561 892.487 89.0519 892.715 88.8239C892.943 88.5959 893.119 88.3585 893.242 88.1115V85.2618H891.048C890.307 85.2618 889.666 85.333 889.124 85.4755C888.583 85.6085 888.151 85.8032 887.828 86.0597C887.543 86.2782 887.329 86.5394 887.186 86.8434C887.053 87.1473 886.987 87.4893 886.987 87.8693C886.987 88.1827 887.044 88.4772 887.158 88.7527C887.272 89.0186 887.438 89.2466 887.657 89.4366C887.875 89.6266 888.146 89.7786 888.469 89.8925C888.792 89.997 889.172 90.0493 889.609 90.0493ZM903.637 77.0832V89.7501H905.973V77.0832H909.25V89.7501H911.587V77.0832H914.936V89.7501H916.375L916.104 97.0737H913.254V92.5H900.288V77.0832H903.637ZM928.08 77.0832H931.485V92.5H928.08V82.0274L921.554 92.5H918.149V77.0832H921.554V87.5701L928.08 77.0832ZM938.104 77.0832V89.7501H940.441V77.0832H943.718V89.7501H946.055V77.0832H949.403V89.7501H950.842L950.571 97.0737H947.722V92.5H934.756V77.0832H938.104ZM960.04 92.785C958.9 92.785 957.855 92.595 956.905 92.215C955.965 91.8351 955.157 91.3079 954.483 90.6335C953.808 89.9685 953.286 89.1849 952.916 88.2825C952.555 87.3706 952.374 86.3874 952.374 85.333V84.7489C952.374 83.5425 952.564 82.4501 952.944 81.4717C953.324 80.4933 953.846 79.6574 954.511 78.964C955.176 78.2706 955.946 77.7386 956.82 77.3682C957.703 76.9882 958.643 76.7983 959.641 76.7983C960.752 76.7983 961.735 76.9882 962.59 77.3682C963.445 77.7386 964.162 78.2563 964.742 78.9213C965.321 79.5957 965.758 80.3984 966.053 81.3292C966.347 82.2601 966.494 83.2765 966.494 84.3784V85.846H955.808V85.9172C955.912 86.5917 956.074 87.1568 956.292 87.6128C956.511 88.0687 956.81 88.4772 957.19 88.8382C957.57 89.2181 958.016 89.5126 958.529 89.7216C959.052 89.9305 959.622 90.035 960.239 90.035C961.085 90.035 961.873 89.8735 962.604 89.5506C963.336 89.2181 963.939 88.7479 964.414 88.14L966.238 89.9068C965.725 90.6477 964.936 91.3126 963.873 91.9016C962.818 92.4905 961.541 92.785 960.04 92.785ZM959.627 79.5624C959.142 79.5624 958.691 79.6527 958.273 79.8332C957.864 80.0041 957.499 80.2511 957.176 80.5741C956.853 80.9065 956.582 81.3055 956.364 81.7709C956.145 82.2364 955.984 82.7636 955.879 83.3525H963.132V83.1245C963.132 82.6781 963.051 82.2364 962.889 81.7994C962.728 81.353 962.5 80.9635 962.206 80.6311C961.921 80.3081 961.56 80.0516 961.123 79.8617C960.695 79.6622 960.196 79.5624 959.627 79.5624ZM983.187 92.5H979.767V86.2592H973.27V92.5H969.85V77.0832H973.27V83.5093H979.767V77.0832H983.187V92.5ZM990.076 82.7113H991.016C991.9 82.7113 992.674 82.8348 993.339 83.0818C994.004 83.3288 994.559 83.666 995.006 84.0934C995.452 84.5209 995.785 85.0291 996.003 85.618C996.222 86.207 996.331 86.8386 996.331 87.5131C996.331 88.2065 996.222 88.8572 996.003 89.4651C995.785 90.073 995.452 90.6002 995.006 91.0467C994.559 91.4931 994.004 91.8493 993.339 92.1153C992.674 92.3718 991.9 92.5 991.016 92.5H986.785V77.0832H990.076V82.7113ZM1001.09 92.5H997.67V77.0832H1001.09V92.5ZM990.076 85.2191V89.8071H991.016C991.453 89.8071 991.81 89.7453 992.085 89.6218C992.37 89.4888 992.588 89.3179 992.74 89.1089C992.892 88.9094 992.997 88.6814 993.054 88.425C993.111 88.159 993.139 87.893 993.139 87.627C993.139 87.3516 993.111 87.0714 993.054 86.7864C992.997 86.5014 992.892 86.2402 992.74 86.0027C992.588 85.7748 992.37 85.5895 992.085 85.447C991.81 85.2951 991.453 85.2191 991.016 85.2191H990.076ZM1008.79 90.4482C1008.79 89.7928 1009 89.2324 1009.42 88.7669C1009.85 88.3015 1010.46 88.0687 1011.26 88.0687C1012.04 88.0687 1012.64 88.3015 1013.08 88.7669C1013.52 89.2229 1013.74 89.7833 1013.74 90.4482C1013.74 91.1132 1013.51 91.6688 1013.07 92.1153C1012.63 92.5617 1012.03 92.785 1011.26 92.785C1010.48 92.785 1009.87 92.5617 1009.43 92.1153C1009.01 91.6593 1008.79 91.1037 1008.79 90.4482Z" fill="white"/>
</svg>
