<svg width="1399" height="182" viewBox="0 0 1399 182" fill="none" xmlns="http://www.w3.org/2000/svg">
<rect width="1399" height="182" rx="20" fill="#0066FF" fill-opacity="0.2"/>
<rect x="1.5" y="1.5" width="1396" height="179" rx="18.5" stroke="#0066FF" stroke-opacity="0.5" stroke-width="3"/>
<path d="M52.4268 48.6074L42.0752 43.981V42.1987L52.4268 37.5845V39.9771L44.9561 42.9067L44.3091 43.1143L44.9561 43.334L52.4268 46.2148V48.6074ZM59.147 39.7573C59.326 39.4888 59.5254 39.2446 59.7451 39.0249C59.9648 38.797 60.1968 38.5977 60.4409 38.4268C60.8315 38.1419 61.2588 37.9263 61.7227 37.7798C62.1947 37.6333 62.6951 37.556 63.2241 37.5479C63.9159 37.5479 64.5425 37.6496 65.104 37.853C65.6737 38.0483 66.1579 38.3576 66.5566 38.7808C66.9554 39.2039 67.2606 39.741 67.4722 40.3921C67.6919 41.035 67.8018 41.8 67.8018 42.687V51H65.5435V42.6626C65.5435 42.1418 65.4824 41.686 65.3604 41.2954C65.2383 40.8966 65.0592 40.5671 64.8232 40.3066C64.571 40.0218 64.2536 39.8102 63.8711 39.6719C63.4886 39.5254 63.0492 39.4562 62.5527 39.4644C62.1458 39.4644 61.7593 39.5213 61.3931 39.6353C61.0269 39.7492 60.6891 39.9119 60.3799 40.1235C60.1357 40.2863 59.9079 40.4775 59.6963 40.6973C59.4928 40.9089 59.3097 41.1449 59.147 41.4053V51H56.8887V32.25H59.147V39.7573ZM77.4883 51.2441C76.5605 51.2441 75.7061 51.0854 74.9248 50.7681C74.1517 50.4507 73.4884 50.0072 72.9351 49.4375C72.3817 48.8678 71.9504 48.1924 71.6411 47.4111C71.3319 46.6299 71.1772 45.7795 71.1772 44.8599V44.3472C71.1772 43.2811 71.3481 42.3289 71.6899 41.4907C72.0317 40.6444 72.4875 39.9282 73.0571 39.3423C73.6187 38.7645 74.2575 38.321 74.9736 38.0117C75.6979 37.7025 76.4385 37.5479 77.1953 37.5479C78.1475 37.5479 78.9775 37.7147 79.6855 38.0483C80.4017 38.3739 80.9958 38.8255 81.4678 39.4033C81.9398 39.9893 82.2897 40.6769 82.5176 41.4663C82.7536 42.2557 82.8716 43.1102 82.8716 44.0298V45.043H73.4355V45.1284C73.4925 45.7713 73.6187 46.3369 73.814 46.8252C74.0174 47.3135 74.2941 47.7448 74.644 48.1191C75.0021 48.5179 75.4334 48.8312 75.938 49.0591C76.4425 49.2869 77 49.4009 77.6104 49.4009C78.416 49.4009 79.1322 49.2381 79.7588 48.9126C80.3854 48.5871 80.9062 48.1558 81.3213 47.6187L82.7007 48.6929C82.2612 49.3602 81.6021 49.9543 80.7231 50.4751C79.8524 50.9878 78.7741 51.2441 77.4883 51.2441ZM77.1953 39.4033C76.7396 39.4033 76.3083 39.4888 75.9014 39.6597C75.4945 39.8224 75.1283 40.0625 74.8027 40.3799C74.4772 40.7054 74.2005 41.1042 73.9727 41.5762C73.7529 42.04 73.5983 42.5771 73.5088 43.1875H80.6133V43.0776C80.6133 42.6707 80.536 42.2354 80.3813 41.7715C80.2267 41.2995 80.0111 40.8926 79.7344 40.5508C79.4577 40.209 79.1077 39.9323 78.6846 39.7207C78.2695 39.5091 77.7731 39.4033 77.1953 39.4033ZM95.0972 51C95.0076 50.8291 94.9344 50.6175 94.8774 50.3652C94.8286 50.1048 94.792 49.8363 94.7676 49.5596C94.5397 49.7874 94.2834 50.0031 93.9985 50.2065C93.7218 50.41 93.4167 50.589 93.083 50.7437C92.7412 50.8983 92.3791 51.0203 91.9966 51.1099C91.6141 51.1994 91.2072 51.2441 90.7759 51.2441C90.076 51.2441 89.4412 51.1424 88.8716 50.939C88.3101 50.7355 87.834 50.4588 87.4434 50.1089C87.0446 49.7671 86.7354 49.3602 86.5156 48.8882C86.304 48.408 86.1982 47.8913 86.1982 47.3379C86.1982 46.6136 86.3407 45.9788 86.6255 45.4336C86.9185 44.8883 87.3294 44.4326 87.8584 44.0664C88.3874 43.7083 89.0221 43.4398 89.7627 43.2607C90.5114 43.0817 91.3455 42.9922 92.2651 42.9922H94.731V41.9546C94.731 41.5558 94.6577 41.1978 94.5112 40.8804C94.3647 40.563 94.1572 40.2904 93.8887 40.0625C93.6201 39.8428 93.2905 39.6719 92.8999 39.5498C92.5174 39.4277 92.0861 39.3667 91.606 39.3667C91.1584 39.3667 90.7555 39.4237 90.3975 39.5376C90.0475 39.6515 89.7505 39.8021 89.5063 39.9893C89.2622 40.1764 89.071 40.4002 88.9326 40.6606C88.8024 40.9129 88.7373 41.1774 88.7373 41.4541H86.4668C86.4749 40.974 86.597 40.502 86.833 40.0381C87.0771 39.5742 87.4271 39.1551 87.8828 38.7808C88.3304 38.4146 88.8757 38.1175 89.5186 37.8896C90.1696 37.6618 90.9061 37.5479 91.728 37.5479C92.4767 37.5479 93.1725 37.6414 93.8154 37.8286C94.4583 38.0076 95.0158 38.2803 95.4878 38.6465C95.9517 39.0208 96.3179 39.4847 96.5864 40.0381C96.855 40.5915 96.9893 41.2384 96.9893 41.979V48.1191C96.9893 48.5586 97.0299 49.0265 97.1113 49.5229C97.1927 50.0112 97.3066 50.4385 97.4531 50.8047V51H95.0972ZM91.1055 49.2788C91.5449 49.2788 91.9559 49.2218 92.3384 49.1079C92.7209 48.994 93.0708 48.8434 93.3882 48.6562C93.6974 48.4691 93.966 48.2575 94.1938 48.0215C94.4217 47.7773 94.6007 47.5251 94.731 47.2646V44.5913H92.6313C91.8501 44.5913 91.1665 44.6605 90.5806 44.7988C90.0028 44.929 89.543 45.1325 89.2012 45.4092C88.957 45.6045 88.7699 45.8364 88.6396 46.105C88.5176 46.3735 88.4565 46.6787 88.4565 47.0205C88.4565 47.346 88.5094 47.6471 88.6152 47.9238C88.7292 48.2005 88.896 48.4365 89.1157 48.6318C89.3354 48.8353 89.6121 48.994 89.9458 49.1079C90.2795 49.2218 90.666 49.2788 91.1055 49.2788ZM100.755 44.2861C100.755 43.3014 100.877 42.3981 101.122 41.5762C101.374 40.7461 101.732 40.034 102.196 39.4399C102.652 38.8459 103.205 38.382 103.856 38.0483C104.507 37.7147 105.235 37.5479 106.041 37.5479C106.83 37.5479 107.518 37.6821 108.104 37.9507C108.698 38.2111 109.211 38.5936 109.642 39.0981V32.25H111.9V51H109.825L109.728 49.6084C109.288 50.1455 108.763 50.5524 108.153 50.8291C107.542 51.1058 106.83 51.2441 106.017 51.2441C105.219 51.2441 104.495 51.0732 103.844 50.7314C103.201 50.3896 102.652 49.9176 102.196 49.3154C101.74 48.7132 101.386 48.0052 101.134 47.1914C100.882 46.3695 100.755 45.4865 100.755 44.5425V44.2861ZM103.014 44.5425C103.014 45.1854 103.083 45.7957 103.221 46.3735C103.36 46.9513 103.575 47.46 103.868 47.8994C104.153 48.3389 104.519 48.6888 104.967 48.9492C105.414 49.2015 105.951 49.3276 106.578 49.3276C107.335 49.3276 107.962 49.1567 108.458 48.8149C108.954 48.4731 109.349 48.0133 109.642 47.4355V41.3076C109.349 40.7705 108.954 40.3311 108.458 39.9893C107.962 39.6393 107.343 39.4644 106.603 39.4644C105.968 39.4644 105.423 39.5946 104.967 39.855C104.519 40.1154 104.153 40.4653 103.868 40.9048C103.575 41.3524 103.36 41.8691 103.221 42.4551C103.083 43.0329 103.014 43.6432 103.014 44.2861V44.5425ZM121.782 51.2441C120.854 51.2441 120 51.0854 119.219 50.7681C118.446 50.4507 117.782 50.0072 117.229 49.4375C116.676 48.8678 116.244 48.1924 115.935 47.4111C115.626 46.6299 115.471 45.7795 115.471 44.8599V44.3472C115.471 43.2811 115.642 42.3289 115.984 41.4907C116.326 40.6444 116.781 39.9282 117.351 39.3423C117.913 38.7645 118.551 38.321 119.268 38.0117C119.992 37.7025 120.732 37.5479 121.489 37.5479C122.441 37.5479 123.271 37.7147 123.979 38.0483C124.696 38.3739 125.29 38.8255 125.762 39.4033C126.234 39.9893 126.584 40.6769 126.812 41.4663C127.048 42.2557 127.166 43.1102 127.166 44.0298V45.043H117.729V45.1284C117.786 45.7713 117.913 46.3369 118.108 46.8252C118.311 47.3135 118.588 47.7448 118.938 48.1191C119.296 48.5179 119.727 48.8312 120.232 49.0591C120.736 49.2869 121.294 49.4009 121.904 49.4009C122.71 49.4009 123.426 49.2381 124.053 48.9126C124.679 48.5871 125.2 48.1558 125.615 47.6187L126.995 48.6929C126.555 49.3602 125.896 49.9543 125.017 50.4751C124.146 50.9878 123.068 51.2441 121.782 51.2441ZM121.489 39.4033C121.034 39.4033 120.602 39.4888 120.195 39.6597C119.788 39.8224 119.422 40.0625 119.097 40.3799C118.771 40.7054 118.494 41.1042 118.267 41.5762C118.047 42.04 117.892 42.5771 117.803 43.1875H124.907V43.0776C124.907 42.6707 124.83 42.2354 124.675 41.7715C124.521 41.2995 124.305 40.8926 124.028 40.5508C123.752 40.209 123.402 39.9323 122.979 39.7207C122.563 39.5091 122.067 39.4033 121.489 39.4033ZM139.367 37.5479C139.782 37.5479 140.213 37.5763 140.661 37.6333C141.116 37.6903 141.458 37.7676 141.686 37.8652L141.381 40.0747C140.941 39.9771 140.522 39.9079 140.124 39.8672C139.733 39.8184 139.322 39.7939 138.891 39.7939C138.337 39.7939 137.837 39.8631 137.389 40.0015C136.942 40.1317 136.551 40.327 136.217 40.5874C135.916 40.8153 135.652 41.096 135.424 41.4297C135.204 41.7552 135.021 42.1214 134.875 42.5283V51H132.604V37.792H134.752L134.85 39.562L134.862 39.8916C135.399 39.1673 136.042 38.5977 136.791 38.1826C137.548 37.7594 138.406 37.5479 139.367 37.5479ZM145.525 48.5952V46.2515L153.423 43.2729L154.156 43.0654L153.423 42.8335L145.525 39.9038V37.5723L156.304 42.1865V43.9688L145.525 48.5952ZM170.544 81.6074L160.192 76.981V75.1987L170.544 70.5845V72.9771L163.073 75.9067L162.426 76.1143L163.073 76.334L170.544 79.2148V81.6074ZM177.264 72.7573C177.443 72.4888 177.643 72.2446 177.862 72.0249C178.082 71.797 178.314 71.5977 178.558 71.4268C178.949 71.1419 179.376 70.9263 179.84 70.7798C180.312 70.6333 180.812 70.556 181.341 70.5479C182.033 70.5479 182.66 70.6496 183.221 70.853C183.791 71.0483 184.275 71.3576 184.674 71.7808C185.073 72.2039 185.378 72.741 185.589 73.3921C185.809 74.035 185.919 74.8 185.919 75.687V84H183.661V75.6626C183.661 75.1418 183.6 74.686 183.478 74.2954C183.355 73.8966 183.176 73.5671 182.94 73.3066C182.688 73.0218 182.371 72.8102 181.988 72.6719C181.606 72.5254 181.166 72.4562 180.67 72.4644C180.263 72.4644 179.876 72.5213 179.51 72.6353C179.144 72.7492 178.806 72.9119 178.497 73.1235C178.253 73.2863 178.025 73.4775 177.813 73.6973C177.61 73.9089 177.427 74.1449 177.264 74.4053V84H175.006V65.25H177.264V72.7573ZM197.095 84H194.836V69.1074L190.186 70.8774V68.8145L196.912 66.2266H197.095V84ZM204.584 81.5952V79.2515L212.482 76.2729L213.214 76.0654L212.482 75.8335L204.584 72.9038V70.5723L215.363 75.1865V76.9688L204.584 81.5952ZM230.188 84H227.93V68.082H221.412V84H219.153V66.2266H230.188V84ZM233.43 77.2739C233.43 76.3218 233.568 75.4388 233.845 74.625C234.121 73.8031 234.52 73.091 235.041 72.4888C235.554 71.8866 236.18 71.4146 236.921 71.0728C237.661 70.7228 238.496 70.5479 239.423 70.5479C240.359 70.5479 241.197 70.7228 241.938 71.0728C242.687 71.4146 243.321 71.8866 243.842 72.4888C244.355 73.091 244.75 73.8031 245.026 74.625C245.303 75.4388 245.441 76.3218 245.441 77.2739V77.5425C245.441 78.4946 245.303 79.3776 245.026 80.1914C244.75 81.0052 244.355 81.7132 243.842 82.3154C243.321 82.9176 242.691 83.3896 241.95 83.7314C241.21 84.0732 240.375 84.2441 239.448 84.2441C238.512 84.2441 237.67 84.0732 236.921 83.7314C236.18 83.3896 235.554 82.9176 235.041 82.3154C234.52 81.7132 234.121 81.0052 233.845 80.1914C233.568 79.3776 233.43 78.4946 233.43 77.5425V77.2739ZM235.688 77.5425C235.688 78.1935 235.765 78.8161 235.92 79.4102C236.075 79.9961 236.311 80.5129 236.628 80.9604C236.937 81.408 237.328 81.762 237.8 82.0225C238.272 82.2829 238.821 82.4131 239.448 82.4131C240.066 82.4131 240.607 82.2829 241.071 82.0225C241.543 81.762 241.938 81.408 242.255 80.9604C242.565 80.5129 242.797 79.9961 242.951 79.4102C243.106 78.8161 243.183 78.1935 243.183 77.5425V77.2739C243.183 76.631 243.102 76.0166 242.939 75.4307C242.784 74.8366 242.552 74.3158 242.243 73.8682C241.926 73.4206 241.531 73.0666 241.059 72.8062C240.595 72.5376 240.05 72.4033 239.423 72.4033C238.797 72.4033 238.251 72.5376 237.788 72.8062C237.324 73.0666 236.937 73.4206 236.628 73.8682C236.311 74.3158 236.075 74.8366 235.92 75.4307C235.765 76.0166 235.688 76.631 235.688 77.2739V77.5425ZM248.817 89.0781V70.792H250.88L250.99 72.2324C251.169 72.0046 251.364 71.8011 251.576 71.6221C251.787 71.4349 252.015 71.2762 252.259 71.146C252.601 70.9507 252.979 70.8042 253.395 70.7065C253.818 70.6007 254.269 70.5479 254.75 70.5479C255.596 70.5479 256.345 70.7147 256.996 71.0483C257.647 71.382 258.192 71.8459 258.631 72.4399C259.071 73.034 259.404 73.7461 259.632 74.5762C259.86 75.3981 259.974 76.3014 259.974 77.2861V77.5425C259.974 78.4865 259.86 79.3695 259.632 80.1914C259.404 81.0052 259.071 81.7132 258.631 82.3154C258.192 82.9176 257.647 83.3896 256.996 83.7314C256.353 84.0732 255.616 84.2441 254.786 84.2441C254.282 84.2441 253.81 84.1912 253.37 84.0854C252.939 83.9797 252.548 83.8291 252.198 83.6338C251.987 83.5117 251.787 83.3774 251.6 83.231C251.413 83.0763 251.238 82.9095 251.075 82.7305V89.0781H248.817ZM257.716 77.2861C257.716 76.6432 257.643 76.0329 257.496 75.4551C257.358 74.8691 257.142 74.3524 256.849 73.9048C256.548 73.4653 256.17 73.1154 255.714 72.855C255.258 72.5946 254.713 72.4644 254.078 72.4644C253.728 72.4644 253.403 72.505 253.102 72.5864C252.809 72.6678 252.544 72.7858 252.308 72.9404C252.048 73.0951 251.816 73.2863 251.612 73.5142C251.409 73.742 251.23 73.9943 251.075 74.271V80.6309C251.214 80.875 251.372 81.1029 251.551 81.3145C251.73 81.526 251.934 81.7051 252.162 81.8516C252.422 82.0225 252.711 82.1567 253.028 82.2544C253.354 82.3521 253.712 82.4009 254.103 82.4009C254.729 82.4009 255.27 82.2707 255.726 82.0103C256.182 81.7417 256.556 81.3836 256.849 80.936C257.142 80.4884 257.358 79.9717 257.496 79.3857C257.643 78.7998 257.716 78.1854 257.716 77.5425V77.2861ZM275.471 72.623H270.198V84H267.927V72.623H262.739V70.792H275.471V72.623ZM277.724 77.2739C277.724 76.4276 277.833 75.63 278.053 74.8813C278.273 74.1326 278.594 73.4653 279.018 72.8794C279.433 72.3016 279.941 71.8215 280.543 71.439C281.146 71.0483 281.825 70.7839 282.582 70.6455V65.25H284.84V70.6455C285.605 70.7757 286.289 71.0361 286.891 71.4268C287.501 71.8174 288.018 72.3016 288.441 72.8794C288.865 73.4653 289.186 74.1326 289.406 74.8813C289.625 75.63 289.735 76.4276 289.735 77.2739V77.5425C289.735 78.397 289.621 79.1986 289.394 79.9473C289.174 80.6878 288.856 81.347 288.441 81.9248C288.018 82.5107 287.501 82.999 286.891 83.3896C286.289 83.7721 285.605 84.0244 284.84 84.1465V89.0781H282.582V84.1343C281.825 84.0041 281.146 83.7477 280.543 83.3652C279.941 82.9746 279.433 82.4904 279.018 81.9126C278.594 81.3348 278.273 80.6756 278.053 79.9351C277.833 79.1864 277.724 78.3888 277.724 77.5425V77.2739ZM279.982 77.5425C279.982 78.0877 280.035 78.6126 280.141 79.1172C280.246 79.6136 280.409 80.0693 280.629 80.4844C280.84 80.8994 281.109 81.2575 281.435 81.5586C281.76 81.8597 282.143 82.0835 282.582 82.23V72.5864C282.151 72.7329 281.772 72.9608 281.447 73.27C281.121 73.5711 280.853 73.9292 280.641 74.3442C280.421 74.7593 280.255 75.2191 280.141 75.7236C280.035 76.2201 279.982 76.7368 279.982 77.2739V77.5425ZM287.477 77.2739C287.477 76.7368 287.42 76.216 287.306 75.7114C287.2 75.2069 287.038 74.7471 286.818 74.332C286.598 73.917 286.321 73.5589 285.988 73.2578C285.662 72.9567 285.28 72.7329 284.84 72.5864V82.2544C285.28 82.1079 285.662 81.8841 285.988 81.583C286.321 81.2819 286.598 80.9238 286.818 80.5088C287.038 80.0938 287.2 79.634 287.306 79.1294C287.42 78.6248 287.477 78.0959 287.477 77.5425V77.2739ZM292.488 77.2739C292.488 76.3218 292.627 75.4388 292.903 74.625C293.18 73.8031 293.579 73.091 294.1 72.4888C294.612 71.8866 295.239 71.4146 295.979 71.0728C296.72 70.7228 297.554 70.5479 298.482 70.5479C299.418 70.5479 300.256 70.7228 300.997 71.0728C301.745 71.4146 302.38 71.8866 302.901 72.4888C303.414 73.091 303.808 73.8031 304.085 74.625C304.362 75.4388 304.5 76.3218 304.5 77.2739V77.5425C304.5 78.4946 304.362 79.3776 304.085 80.1914C303.808 81.0052 303.414 81.7132 302.901 82.3154C302.38 82.9176 301.749 83.3896 301.009 83.7314C300.268 84.0732 299.434 84.2441 298.506 84.2441C297.57 84.2441 296.728 84.0732 295.979 83.7314C295.239 83.3896 294.612 82.9176 294.1 82.3154C293.579 81.7132 293.18 81.0052 292.903 80.1914C292.627 79.3776 292.488 78.4946 292.488 77.5425V77.2739ZM294.747 77.5425C294.747 78.1935 294.824 78.8161 294.979 79.4102C295.133 79.9961 295.369 80.5129 295.687 80.9604C295.996 81.408 296.386 81.762 296.858 82.0225C297.33 82.2829 297.88 82.4131 298.506 82.4131C299.125 82.4131 299.666 82.2829 300.13 82.0225C300.602 81.762 300.997 81.408 301.314 80.9604C301.623 80.5129 301.855 79.9961 302.01 79.4102C302.164 78.8161 302.242 78.1935 302.242 77.5425V77.2739C302.242 76.631 302.16 76.0166 301.998 75.4307C301.843 74.8366 301.611 74.3158 301.302 73.8682C300.984 73.4206 300.59 73.0666 300.118 72.8062C299.654 72.5376 299.109 72.4033 298.482 72.4033C297.855 72.4033 297.31 72.5376 296.846 72.8062C296.382 73.0666 295.996 73.4206 295.687 73.8682C295.369 74.3158 295.133 74.8366 294.979 75.4307C294.824 76.0166 294.747 76.631 294.747 77.2739V77.5425ZM318.728 70.792V84H316.457V72.6597H311.599L311.586 76.4438C311.586 76.8914 311.574 77.3268 311.55 77.75C311.534 78.165 311.505 78.5597 311.464 78.9341C311.399 79.5526 311.298 80.1222 311.159 80.6431C311.021 81.1639 310.846 81.6237 310.634 82.0225C310.292 82.6654 309.833 83.1577 309.255 83.4995C308.677 83.8332 307.957 84 307.094 84H306.435L306.472 81.9858L306.972 81.9736C307.436 81.9736 307.819 81.8597 308.12 81.6318C308.429 81.3958 308.673 81.0459 308.852 80.582C308.942 80.3298 309.019 80.0409 309.084 79.7153C309.149 79.3817 309.202 79.0155 309.243 78.6167C309.267 78.2993 309.283 77.9616 309.292 77.6035C309.308 77.2373 309.316 76.8507 309.316 76.4438L309.34 70.792H318.728ZM331.246 70.792H333.504V84H331.246V74.2588L324.789 84H322.542V70.792H324.789V80.5454L331.246 70.792ZM336.782 77.2739C336.782 76.3218 336.921 75.4388 337.197 74.625C337.474 73.8031 337.873 73.091 338.394 72.4888C338.906 71.8866 339.533 71.4146 340.273 71.0728C341.014 70.7228 341.848 70.5479 342.776 70.5479C343.712 70.5479 344.55 70.7228 345.291 71.0728C346.039 71.4146 346.674 71.8866 347.195 72.4888C347.708 73.091 348.102 73.8031 348.379 74.625C348.656 75.4388 348.794 76.3218 348.794 77.2739V77.5425C348.794 78.4946 348.656 79.3776 348.379 80.1914C348.102 81.0052 347.708 81.7132 347.195 82.3154C346.674 82.9176 346.043 83.3896 345.303 83.7314C344.562 84.0732 343.728 84.2441 342.8 84.2441C341.864 84.2441 341.022 84.0732 340.273 83.7314C339.533 83.3896 338.906 82.9176 338.394 82.3154C337.873 81.7132 337.474 81.0052 337.197 80.1914C336.921 79.3776 336.782 78.4946 336.782 77.5425V77.2739ZM339.041 77.5425C339.041 78.1935 339.118 78.8161 339.272 79.4102C339.427 79.9961 339.663 80.5129 339.98 80.9604C340.29 81.408 340.68 81.762 341.152 82.0225C341.624 82.2829 342.174 82.4131 342.8 82.4131C343.419 82.4131 343.96 82.2829 344.424 82.0225C344.896 81.762 345.291 81.408 345.608 80.9604C345.917 80.5129 346.149 79.9961 346.304 79.4102C346.458 78.8161 346.536 78.1935 346.536 77.5425V77.2739C346.536 76.631 346.454 76.0166 346.292 75.4307C346.137 74.8366 345.905 74.3158 345.596 73.8682C345.278 73.4206 344.884 73.0666 344.412 72.8062C343.948 72.5376 343.403 72.4033 342.776 72.4033C342.149 72.4033 341.604 72.5376 341.14 72.8062C340.676 73.0666 340.29 73.4206 339.98 73.8682C339.663 74.3158 339.427 74.8366 339.272 75.4307C339.118 76.0166 339.041 76.631 339.041 77.2739V77.5425ZM373.233 88.8584H371.414V66.2266H373.233V88.8584ZM408.036 76.1387C408.028 76.7734 407.971 77.4163 407.865 78.0674C407.767 78.7103 407.612 79.3328 407.401 79.9351C407.189 80.5373 406.917 81.0988 406.583 81.6196C406.257 82.1405 405.867 82.5962 405.411 82.9868C404.955 83.3774 404.431 83.6867 403.836 83.9146C403.25 84.1343 402.591 84.2441 401.859 84.2441C401.126 84.2441 400.463 84.1343 399.869 83.9146C399.283 83.6867 398.762 83.3774 398.307 82.9868C397.851 82.5962 397.456 82.1405 397.123 81.6196C396.789 81.0907 396.516 80.5251 396.305 79.9229C396.085 79.3206 395.922 78.6981 395.816 78.0552C395.711 77.4123 395.654 76.7734 395.646 76.1387V74.1123C395.654 73.4775 395.707 72.8387 395.804 72.1958C395.91 71.5448 396.073 70.9181 396.292 70.3159C396.504 69.7137 396.773 69.1522 397.098 68.6313C397.432 68.1024 397.826 67.6385 398.282 67.2397C398.738 66.8491 399.259 66.5439 399.845 66.3242C400.439 66.0964 401.102 65.9824 401.834 65.9824C402.567 65.9824 403.23 66.0964 403.824 66.3242C404.418 66.5439 404.943 66.8491 405.399 67.2397C405.855 67.6304 406.245 68.0902 406.571 68.6191C406.904 69.14 407.181 69.7015 407.401 70.3037C407.612 70.9059 407.767 71.5326 407.865 72.1836C407.971 72.8346 408.028 73.4775 408.036 74.1123V76.1387ZM405.802 74.0879C405.794 73.6647 405.765 73.2253 405.716 72.7695C405.667 72.3057 405.586 71.8459 405.472 71.3901C405.35 70.9425 405.191 70.5153 404.996 70.1084C404.801 69.6934 404.557 69.3271 404.264 69.0098C403.971 68.7005 403.625 68.4564 403.226 68.2773C402.827 68.0902 402.363 67.9966 401.834 67.9966C401.314 67.9966 400.854 68.0902 400.455 68.2773C400.056 68.4645 399.71 68.7127 399.417 69.022C399.125 69.3394 398.88 69.7056 398.685 70.1206C398.49 70.5275 398.335 70.9548 398.221 71.4023C398.099 71.8581 398.01 72.3179 397.953 72.7817C397.904 73.2375 397.875 73.6729 397.867 74.0879V76.1387C397.875 76.5537 397.904 76.9932 397.953 77.457C398.01 77.9209 398.099 78.3766 398.221 78.8242C398.343 79.2799 398.502 79.7153 398.697 80.1304C398.893 80.5454 399.137 80.9076 399.43 81.2168C399.723 81.5342 400.069 81.7865 400.467 81.9736C400.866 82.1608 401.33 82.2544 401.859 82.2544C402.388 82.2544 402.852 82.1608 403.25 81.9736C403.657 81.7865 404.007 81.5342 404.3 81.2168C404.585 80.9076 404.821 80.5495 405.008 80.1426C405.204 79.7275 405.362 79.2922 405.484 78.8364C405.598 78.3888 405.676 77.9331 405.716 77.4692C405.765 77.0054 405.794 76.5618 405.802 76.1387V74.0879ZM423.118 72.623H417.844V84H415.574V72.623H410.386V70.792H423.118V72.623ZM425.529 80.0938H427.787C427.787 80.4111 427.881 80.7122 428.068 80.9971C428.255 81.2738 428.515 81.5179 428.849 81.7295C429.183 81.9492 429.577 82.1242 430.033 82.2544C430.489 82.3765 430.981 82.4375 431.51 82.4375C432.031 82.4375 432.507 82.3846 432.938 82.2788C433.37 82.1649 433.74 82.0103 434.049 81.8149C434.35 81.6196 434.582 81.3918 434.745 81.1313C434.916 80.8709 435.001 80.5902 435.001 80.2891C435.001 79.9147 434.924 79.5973 434.77 79.3369C434.615 79.0684 434.391 78.8486 434.098 78.6777C433.952 78.5964 433.789 78.5272 433.61 78.4702C433.431 78.4132 433.24 78.3644 433.036 78.3237C432.833 78.283 432.613 78.2546 432.377 78.2383C432.141 78.222 431.897 78.2139 431.645 78.2139H428.703V76.3096H431.645C431.905 76.3096 432.149 76.3014 432.377 76.2852C432.605 76.2607 432.812 76.2282 433 76.1875C433.236 76.1387 433.447 76.0736 433.634 75.9922C433.83 75.9108 434 75.8172 434.147 75.7114C434.35 75.5568 434.505 75.3696 434.611 75.1499C434.717 74.9302 434.77 74.682 434.77 74.4053C434.77 74.1286 434.696 73.8682 434.55 73.624C434.411 73.3799 434.208 73.1642 433.939 72.9771C433.663 72.798 433.321 72.6556 432.914 72.5498C432.507 72.444 432.039 72.3911 431.51 72.3911C431.038 72.3911 430.591 72.444 430.167 72.5498C429.744 72.6556 429.374 72.798 429.057 72.9771C428.731 73.1642 428.471 73.388 428.275 73.6484C428.088 73.9007 427.995 74.1774 427.995 74.4785H425.736C425.744 73.8682 425.903 73.3229 426.212 72.8428C426.53 72.3545 426.953 71.9395 427.482 71.5977C428.003 71.264 428.609 71.0076 429.301 70.8286C430.001 70.6496 430.737 70.5601 431.51 70.5601C432.324 70.5601 433.069 70.6414 433.744 70.8042C434.42 70.967 435.001 71.207 435.49 71.5244C435.978 71.8499 436.356 72.2528 436.625 72.7329C436.894 73.2049 437.028 73.7583 437.028 74.3931C437.028 74.7837 436.938 75.1499 436.759 75.4917C436.58 75.8335 436.328 76.1427 436.002 76.4194C435.823 76.5741 435.616 76.7205 435.38 76.8589C435.144 76.9891 434.892 77.1071 434.623 77.2129C435.006 77.3268 435.347 77.4692 435.648 77.6401C435.958 77.8029 436.226 77.9941 436.454 78.2139C436.723 78.4824 436.926 78.7917 437.064 79.1416C437.211 79.4834 437.284 79.8659 437.284 80.2891C437.284 80.9238 437.134 81.4854 436.833 81.9736C436.54 82.4619 436.133 82.8729 435.612 83.2065C435.091 83.5483 434.481 83.8047 433.781 83.9756C433.081 84.1465 432.324 84.2319 431.51 84.2319C430.713 84.2319 429.931 84.1383 429.167 83.9512C428.402 83.764 427.734 83.471 427.165 83.0723C426.684 82.7467 426.29 82.3358 425.98 81.8394C425.679 81.3348 425.529 80.7529 425.529 80.0938ZM442.662 75.7969H443.87C444.578 75.7969 445.205 75.8986 445.75 76.1021C446.303 76.3055 446.767 76.5863 447.142 76.9443C447.508 77.3105 447.785 77.7419 447.972 78.2383C448.167 78.7347 448.265 79.2718 448.265 79.8496C448.265 80.4274 448.167 80.9686 447.972 81.4731C447.785 81.9777 447.508 82.4172 447.142 82.7915C446.767 83.1659 446.307 83.4629 445.762 83.6826C445.217 83.8942 444.586 84 443.87 84H440.403V70.792H442.662V75.7969ZM451.915 84H449.656V70.792H451.915V84ZM442.662 77.6401V82.1567H443.87C444.253 82.1567 444.578 82.0957 444.847 81.9736C445.115 81.8434 445.335 81.6725 445.506 81.4609C445.669 81.2575 445.787 81.0256 445.86 80.7651C445.941 80.4966 445.982 80.2199 445.982 79.9351C445.982 79.6665 445.941 79.3979 445.86 79.1294C445.787 78.8527 445.669 78.6045 445.506 78.3848C445.335 78.165 445.115 77.986 444.847 77.8477C444.578 77.7093 444.253 77.6401 443.87 77.6401H442.662ZM455.412 84V70.792H460.6C461.414 70.792 462.154 70.8652 462.822 71.0117C463.489 71.1582 464.063 71.3779 464.543 71.6709C465.015 71.9639 465.377 72.3382 465.629 72.7939C465.89 73.2497 466.02 73.7909 466.02 74.4175C466.02 74.8162 465.943 75.1906 465.788 75.5405C465.642 75.8823 465.422 76.1834 465.129 76.4438C464.966 76.5985 464.779 76.7368 464.567 76.8589C464.356 76.981 464.124 77.0908 463.872 77.1885L463.969 77.2129C464.376 77.3187 464.73 77.4692 465.031 77.6646C465.34 77.8517 465.605 78.0755 465.825 78.3359C466.044 78.6045 466.211 78.9015 466.325 79.2271C466.439 79.5526 466.496 79.8944 466.496 80.2524C466.496 80.8791 466.378 81.4284 466.142 81.9004C465.906 82.3643 465.568 82.7508 465.129 83.0601C464.689 83.3774 464.156 83.6134 463.53 83.7681C462.911 83.9227 462.215 84 461.442 84H455.412ZM457.683 78.2017V82.1812H461.442C461.923 82.1812 462.342 82.1323 462.7 82.0347C463.066 81.937 463.367 81.7946 463.603 81.6074C463.806 81.4447 463.961 81.2453 464.067 81.0093C464.173 80.7651 464.226 80.4884 464.226 80.1792C464.226 79.8618 464.165 79.5811 464.042 79.3369C463.929 79.0928 463.758 78.8893 463.53 78.7266C463.294 78.5557 463.001 78.4255 462.651 78.3359C462.301 78.2464 461.898 78.2017 461.442 78.2017H457.683ZM457.683 76.395H460.625C461.235 76.395 461.76 76.3421 462.199 76.2363C462.639 76.1305 462.989 75.9637 463.249 75.7358C463.412 75.5894 463.538 75.4185 463.627 75.2231C463.717 75.0197 463.762 74.7918 463.762 74.5396C463.762 74.2059 463.688 73.917 463.542 73.6729C463.404 73.4287 463.196 73.2293 462.919 73.0747C462.659 72.9201 462.329 72.8062 461.931 72.7329C461.54 72.6597 461.097 72.623 460.6 72.623H457.683V76.395ZM472.191 75.7969H473.399C474.107 75.7969 474.734 75.8986 475.279 76.1021C475.833 76.3055 476.297 76.5863 476.671 76.9443C477.037 77.3105 477.314 77.7419 477.501 78.2383C477.696 78.7347 477.794 79.2718 477.794 79.8496C477.794 80.4274 477.696 80.9686 477.501 81.4731C477.314 81.9777 477.037 82.4172 476.671 82.7915C476.297 83.1659 475.837 83.4629 475.292 83.6826C474.746 83.8942 474.116 84 473.399 84H469.933V70.792H472.191V75.7969ZM481.444 84H479.186V70.792H481.444V84ZM472.191 77.6401V82.1567H473.399C473.782 82.1567 474.107 82.0957 474.376 81.9736C474.645 81.8434 474.864 81.6725 475.035 81.4609C475.198 81.2575 475.316 81.0256 475.389 80.7651C475.471 80.4966 475.511 80.2199 475.511 79.9351C475.511 79.6665 475.471 79.3979 475.389 79.1294C475.316 78.8527 475.198 78.6045 475.035 78.3848C474.864 78.165 474.645 77.986 474.376 77.8477C474.107 77.7093 473.782 77.6401 473.399 77.6401H472.191ZM499.193 77.2739C499.193 76.3218 499.332 75.4388 499.608 74.625C499.885 73.8031 500.284 73.091 500.805 72.4888C501.317 71.8866 501.944 71.4146 502.685 71.0728C503.425 70.7228 504.259 70.5479 505.187 70.5479C506.123 70.5479 506.961 70.7228 507.702 71.0728C508.45 71.4146 509.085 71.8866 509.606 72.4888C510.119 73.091 510.513 73.8031 510.79 74.625C511.067 75.4388 511.205 76.3218 511.205 77.2739V77.5425C511.205 78.4946 511.067 79.3776 510.79 80.1914C510.513 81.0052 510.119 81.7132 509.606 82.3154C509.085 82.9176 508.454 83.3896 507.714 83.7314C506.973 84.0732 506.139 84.2441 505.211 84.2441C504.276 84.2441 503.433 84.0732 502.685 83.7314C501.944 83.3896 501.317 82.9176 500.805 82.3154C500.284 81.7132 499.885 81.0052 499.608 80.1914C499.332 79.3776 499.193 78.4946 499.193 77.5425V77.2739ZM501.452 77.5425C501.452 78.1935 501.529 78.8161 501.684 79.4102C501.838 79.9961 502.074 80.5129 502.392 80.9604C502.701 81.408 503.091 81.762 503.563 82.0225C504.035 82.2829 504.585 82.4131 505.211 82.4131C505.83 82.4131 506.371 82.2829 506.835 82.0225C507.307 81.762 507.702 81.408 508.019 80.9604C508.328 80.5129 508.56 79.9961 508.715 79.4102C508.869 78.8161 508.947 78.1935 508.947 77.5425V77.2739C508.947 76.631 508.865 76.0166 508.703 75.4307C508.548 74.8366 508.316 74.3158 508.007 73.8682C507.689 73.4206 507.295 73.0666 506.823 72.8062C506.359 72.5376 505.814 72.4033 505.187 72.4033C504.56 72.4033 504.015 72.5376 503.551 72.8062C503.087 73.0666 502.701 73.4206 502.392 73.8682C502.074 74.3158 501.838 74.8366 501.684 75.4307C501.529 76.0166 501.452 76.631 501.452 77.2739V77.5425ZM534.606 81.0093L537.414 70.792H540.234V84H537.976V75.8579L535.388 84H533.825L531.164 75.5649V84H528.906V70.792H531.823L534.606 81.0093ZM543.487 77.2739C543.487 76.3218 543.626 75.4388 543.902 74.625C544.179 73.8031 544.578 73.091 545.099 72.4888C545.611 71.8866 546.238 71.4146 546.979 71.0728C547.719 70.7228 548.553 70.5479 549.481 70.5479C550.417 70.5479 551.255 70.7228 551.996 71.0728C552.744 71.4146 553.379 71.8866 553.9 72.4888C554.413 73.091 554.807 73.8031 555.084 74.625C555.361 75.4388 555.499 76.3218 555.499 77.2739V77.5425C555.499 78.4946 555.361 79.3776 555.084 80.1914C554.807 81.0052 554.413 81.7132 553.9 82.3154C553.379 82.9176 552.748 83.3896 552.008 83.7314C551.267 84.0732 550.433 84.2441 549.505 84.2441C548.569 84.2441 547.727 84.0732 546.979 83.7314C546.238 83.3896 545.611 82.9176 545.099 82.3154C544.578 81.7132 544.179 81.0052 543.902 80.1914C543.626 79.3776 543.487 78.4946 543.487 77.5425V77.2739ZM545.746 77.5425C545.746 78.1935 545.823 78.8161 545.978 79.4102C546.132 79.9961 546.368 80.5129 546.686 80.9604C546.995 81.408 547.385 81.762 547.857 82.0225C548.329 82.2829 548.879 82.4131 549.505 82.4131C550.124 82.4131 550.665 82.2829 551.129 82.0225C551.601 81.762 551.996 81.408 552.313 80.9604C552.622 80.5129 552.854 79.9961 553.009 79.4102C553.163 78.8161 553.241 78.1935 553.241 77.5425V77.2739C553.241 76.631 553.159 76.0166 552.997 75.4307C552.842 74.8366 552.61 74.3158 552.301 73.8682C551.983 73.4206 551.589 73.0666 551.117 72.8062C550.653 72.5376 550.108 72.4033 549.481 72.4033C548.854 72.4033 548.309 72.5376 547.845 72.8062C547.381 73.0666 546.995 73.4206 546.686 73.8682C546.368 74.3158 546.132 74.8366 545.978 75.4307C545.823 76.0166 545.746 76.631 545.746 77.2739V77.5425ZM564.722 84.2441C563.794 84.2441 562.939 84.0854 562.158 83.7681C561.385 83.4507 560.722 83.0072 560.168 82.4375C559.615 81.8678 559.184 81.1924 558.875 80.4111C558.565 79.6299 558.411 78.7795 558.411 77.8599V77.3472C558.411 76.2811 558.582 75.3289 558.923 74.4907C559.265 73.6444 559.721 72.9282 560.291 72.3423C560.852 71.7645 561.491 71.321 562.207 71.0117C562.931 70.7025 563.672 70.5479 564.429 70.5479C565.381 70.5479 566.211 70.7147 566.919 71.0483C567.635 71.3739 568.229 71.8255 568.701 72.4033C569.173 72.9893 569.523 73.6769 569.751 74.4663C569.987 75.2557 570.105 76.1102 570.105 77.0298V78.043H560.669V78.1284C560.726 78.7713 560.852 79.3369 561.047 79.8252C561.251 80.3135 561.528 80.7448 561.877 81.1191C562.236 81.5179 562.667 81.8312 563.171 82.0591C563.676 82.2869 564.233 82.4009 564.844 82.4009C565.649 82.4009 566.366 82.2381 566.992 81.9126C567.619 81.5871 568.14 81.1558 568.555 80.6187L569.934 81.6929C569.495 82.3602 568.835 82.9543 567.957 83.4751C567.086 83.9878 566.007 84.2441 564.722 84.2441ZM564.429 72.4033C563.973 72.4033 563.542 72.4888 563.135 72.6597C562.728 72.8224 562.362 73.0625 562.036 73.3799C561.711 73.7054 561.434 74.1042 561.206 74.5762C560.986 75.04 560.832 75.5771 560.742 76.1875H567.847V76.0776C567.847 75.6707 567.769 75.2354 567.615 74.7715C567.46 74.2995 567.244 73.8926 566.968 73.5508C566.691 73.209 566.341 72.9323 565.918 72.7207C565.503 72.5091 565.007 72.4033 564.429 72.4033ZM582.245 70.792H584.503V84H582.245V74.2588L575.788 84H573.542V70.792H575.788V80.5454L582.245 70.792ZM582.526 65.4087C582.526 65.8888 582.44 66.3324 582.27 66.7393C582.099 67.138 581.854 67.4798 581.537 67.7646C581.22 68.0495 580.837 68.2733 580.39 68.436C579.942 68.5907 579.442 68.668 578.888 68.668C578.327 68.668 577.822 68.5907 577.375 68.436C576.927 68.2733 576.544 68.0495 576.227 67.7646C575.91 67.4798 575.661 67.138 575.482 66.7393C575.312 66.3324 575.226 65.8888 575.226 65.4087H577.057C577.057 65.6528 577.094 65.8888 577.167 66.1167C577.24 66.3364 577.35 66.5277 577.497 66.6904C577.643 66.8532 577.83 66.9834 578.058 67.0811C578.286 67.1787 578.563 67.2275 578.888 67.2275C579.206 67.2275 579.474 67.1787 579.694 67.0811C579.922 66.9834 580.109 66.8532 580.255 66.6904C580.402 66.5277 580.512 66.3364 580.585 66.1167C580.658 65.8888 580.695 65.6528 580.695 65.4087H582.526ZM603.168 89.0781V70.792H605.231L605.341 72.2324C605.52 72.0046 605.716 71.8011 605.927 71.6221C606.139 71.4349 606.367 71.2762 606.611 71.146C606.953 70.9507 607.331 70.8042 607.746 70.7065C608.169 70.6007 608.621 70.5479 609.101 70.5479C609.947 70.5479 610.696 70.7147 611.347 71.0483C611.998 71.382 612.543 71.8459 612.983 72.4399C613.422 73.034 613.756 73.7461 613.984 74.5762C614.212 75.3981 614.326 76.3014 614.326 77.2861V77.5425C614.326 78.4865 614.212 79.3695 613.984 80.1914C613.756 81.0052 613.422 81.7132 612.983 82.3154C612.543 82.9176 611.998 83.3896 611.347 83.7314C610.704 84.0732 609.968 84.2441 609.138 84.2441C608.633 84.2441 608.161 84.1912 607.722 84.0854C607.29 83.9797 606.9 83.8291 606.55 83.6338C606.338 83.5117 606.139 83.3774 605.952 83.231C605.764 83.0763 605.59 82.9095 605.427 82.7305V89.0781H603.168ZM612.067 77.2861C612.067 76.6432 611.994 76.0329 611.848 75.4551C611.709 74.8691 611.494 74.3524 611.201 73.9048C610.9 73.4653 610.521 73.1154 610.065 72.855C609.61 72.5946 609.064 72.4644 608.43 72.4644C608.08 72.4644 607.754 72.505 607.453 72.5864C607.16 72.6678 606.896 72.7858 606.66 72.9404C606.399 73.0951 606.167 73.2863 605.964 73.5142C605.76 73.742 605.581 73.9943 605.427 74.271V80.6309C605.565 80.875 605.724 81.1029 605.903 81.3145C606.082 81.526 606.285 81.7051 606.513 81.8516C606.774 82.0225 607.062 82.1567 607.38 82.2544C607.705 82.3521 608.063 82.4009 608.454 82.4009C609.081 82.4009 609.622 82.2707 610.078 82.0103C610.533 81.7417 610.908 81.3836 611.201 80.936C611.494 80.4884 611.709 79.9717 611.848 79.3857C611.994 78.7998 612.067 78.1854 612.067 77.5425V77.2861ZM626.625 84C626.535 83.8291 626.462 83.6175 626.405 83.3652C626.356 83.1048 626.319 82.8363 626.295 82.5596C626.067 82.7874 625.811 83.0031 625.526 83.2065C625.249 83.41 624.944 83.589 624.61 83.7437C624.269 83.8983 623.906 84.0203 623.524 84.1099C623.141 84.1994 622.735 84.2441 622.303 84.2441C621.603 84.2441 620.969 84.1424 620.399 83.939C619.837 83.7355 619.361 83.4588 618.971 83.1089C618.572 82.7671 618.263 82.3602 618.043 81.8882C617.831 81.408 617.726 80.8913 617.726 80.3379C617.726 79.6136 617.868 78.9788 618.153 78.4336C618.446 77.8883 618.857 77.4326 619.386 77.0664C619.915 76.7083 620.549 76.4398 621.29 76.2607C622.039 76.0817 622.873 75.9922 623.792 75.9922H626.258V74.9546C626.258 74.5558 626.185 74.1978 626.039 73.8804C625.892 73.563 625.685 73.2904 625.416 73.0625C625.147 72.8428 624.818 72.6719 624.427 72.5498C624.045 72.4277 623.613 72.3667 623.133 72.3667C622.686 72.3667 622.283 72.4237 621.925 72.5376C621.575 72.6515 621.278 72.8021 621.034 72.9893C620.79 73.1764 620.598 73.4002 620.46 73.6606C620.33 73.9129 620.265 74.1774 620.265 74.4541H617.994C618.002 73.974 618.124 73.502 618.36 73.0381C618.604 72.5742 618.954 72.1551 619.41 71.7808C619.858 71.4146 620.403 71.1175 621.046 70.8896C621.697 70.6618 622.433 70.5479 623.255 70.5479C624.004 70.5479 624.7 70.6414 625.343 70.8286C625.986 71.0076 626.543 71.2803 627.015 71.6465C627.479 72.0208 627.845 72.4847 628.114 73.0381C628.382 73.5915 628.517 74.2384 628.517 74.979V81.1191C628.517 81.5586 628.557 82.0265 628.639 82.5229C628.72 83.0112 628.834 83.4385 628.98 83.8047V84H626.625ZM622.633 82.2788C623.072 82.2788 623.483 82.2218 623.866 82.1079C624.248 81.994 624.598 81.8434 624.916 81.6562C625.225 81.4691 625.493 81.2575 625.721 81.0215C625.949 80.7773 626.128 80.5251 626.258 80.2646V77.5913H624.159C623.377 77.5913 622.694 77.6605 622.108 77.7988C621.53 77.929 621.07 78.1325 620.729 78.4092C620.484 78.6045 620.297 78.8364 620.167 79.105C620.045 79.3735 619.984 79.6787 619.984 80.0205C619.984 80.346 620.037 80.6471 620.143 80.9238C620.257 81.2005 620.423 81.4365 620.643 81.6318C620.863 81.8353 621.139 81.994 621.473 82.1079C621.807 82.2218 622.193 82.2788 622.633 82.2788ZM638.472 71.5488C639.334 71.5488 640.103 71.7035 640.779 72.0127C641.454 72.3138 642.028 72.7288 642.5 73.2578C642.972 73.7949 643.33 74.4297 643.574 75.1621C643.826 75.8864 643.953 76.6758 643.953 77.5303V77.811C643.953 78.7306 643.818 79.5811 643.55 80.3623C643.289 81.1436 642.907 81.8231 642.402 82.4009C641.898 82.9787 641.279 83.4303 640.547 83.7559C639.823 84.0814 638.997 84.2441 638.069 84.2441C637.141 84.2441 636.311 84.0814 635.579 83.7559C634.846 83.4303 634.228 82.9787 633.723 82.4009C633.219 81.8231 632.832 81.1436 632.563 80.3623C632.295 79.5811 632.161 78.7306 632.161 77.811V76.6025C632.161 75.8376 632.197 75.1214 632.271 74.4541C632.352 73.7786 632.466 73.1561 632.612 72.5864C632.751 72.0575 632.917 71.5651 633.113 71.1094C633.308 70.6536 633.532 70.2345 633.784 69.8521C634.297 69.0708 634.919 68.4482 635.652 67.9844C636.392 67.5124 637.214 67.1909 638.118 67.02C638.549 66.9386 638.948 66.8532 639.314 66.7637C639.688 66.666 640.014 66.5439 640.291 66.3975C640.559 66.2591 640.771 66.0841 640.925 65.8726C641.08 65.6528 641.157 65.3761 641.157 65.0425H643.013C643.013 65.7993 642.895 66.4097 642.659 66.8735C642.431 67.3374 642.109 67.7077 641.694 67.9844C641.328 68.2285 640.921 68.4116 640.474 68.5337C640.034 68.6558 639.412 68.8022 638.606 68.9731C638.036 69.0952 637.503 69.2661 637.007 69.4858C636.51 69.6974 636.067 69.9863 635.676 70.3525C635.286 70.7188 634.956 71.1704 634.688 71.7075C634.419 72.2365 634.224 72.8753 634.102 73.624C634.362 73.3229 634.651 73.0462 634.968 72.7939C635.286 72.5335 635.627 72.3097 635.994 72.1226C636.36 71.9435 636.75 71.8052 637.166 71.7075C637.581 71.6017 638.016 71.5488 638.472 71.5488ZM638.044 73.4043C637.426 73.4043 636.889 73.5182 636.433 73.7461C635.977 73.9658 635.603 74.2629 635.31 74.6372C635.009 75.0197 634.785 75.4591 634.639 75.9556C634.492 76.452 634.419 76.9769 634.419 77.5303V77.811C634.419 78.4295 634.492 79.0195 634.639 79.5811C634.785 80.1344 635.009 80.6187 635.31 81.0337C635.603 81.4569 635.977 81.7946 636.433 82.0469C636.897 82.291 637.442 82.4131 638.069 82.4131C638.687 82.4131 639.22 82.291 639.668 82.0469C640.124 81.7946 640.502 81.4569 640.803 81.0337C641.104 80.6187 641.328 80.1344 641.475 79.5811C641.621 79.0195 641.694 78.4295 641.694 77.811V77.5303C641.694 76.9769 641.621 76.452 641.475 75.9556C641.328 75.4591 641.104 75.0197 640.803 74.6372C640.502 74.2629 640.12 73.9658 639.656 73.7461C639.2 73.5182 638.663 73.4043 638.044 73.4043ZM646.84 77.2739C646.84 76.3218 646.978 75.4388 647.255 74.625C647.532 73.8031 647.93 73.091 648.451 72.4888C648.964 71.8866 649.59 71.4146 650.331 71.0728C651.072 70.7228 651.906 70.5479 652.833 70.5479C653.769 70.5479 654.608 70.7228 655.348 71.0728C656.097 71.4146 656.732 71.8866 657.252 72.4888C657.765 73.091 658.16 73.8031 658.437 74.625C658.713 75.4388 658.852 76.3218 658.852 77.2739V77.5425C658.852 78.4946 658.713 79.3776 658.437 80.1914C658.16 81.0052 657.765 81.7132 657.252 82.3154C656.732 82.9176 656.101 83.3896 655.36 83.7314C654.62 84.0732 653.786 84.2441 652.858 84.2441C651.922 84.2441 651.08 84.0732 650.331 83.7314C649.59 83.3896 648.964 82.9176 648.451 82.3154C647.93 81.7132 647.532 81.0052 647.255 80.1914C646.978 79.3776 646.84 78.4946 646.84 77.5425V77.2739ZM649.098 77.5425C649.098 78.1935 649.175 78.8161 649.33 79.4102C649.485 79.9961 649.721 80.5129 650.038 80.9604C650.347 81.408 650.738 81.762 651.21 82.0225C651.682 82.2829 652.231 82.4131 652.858 82.4131C653.476 82.4131 654.018 82.2829 654.481 82.0225C654.953 81.762 655.348 81.408 655.666 80.9604C655.975 80.5129 656.207 79.9961 656.361 79.4102C656.516 78.8161 656.593 78.1935 656.593 77.5425V77.2739C656.593 76.631 656.512 76.0166 656.349 75.4307C656.194 74.8366 655.963 74.3158 655.653 73.8682C655.336 73.4206 654.941 73.0666 654.469 72.8062C654.005 72.5376 653.46 72.4033 652.833 72.4033C652.207 72.4033 651.662 72.5376 651.198 72.8062C650.734 73.0666 650.347 73.4206 650.038 73.8682C649.721 74.3158 649.485 74.8366 649.33 75.4307C649.175 76.0166 649.098 76.631 649.098 77.2739V77.5425ZM674.117 72.623H668.843V84H666.573V72.623H661.385V70.792H674.117V72.623ZM682.839 84.2441C681.911 84.2441 681.057 84.0854 680.275 83.7681C679.502 83.4507 678.839 83.0072 678.286 82.4375C677.732 81.8678 677.301 81.1924 676.992 80.4111C676.682 79.6299 676.528 78.7795 676.528 77.8599V77.3472C676.528 76.2811 676.699 75.3289 677.041 74.4907C677.382 73.6444 677.838 72.9282 678.408 72.3423C678.969 71.7645 679.608 71.321 680.324 71.0117C681.049 70.7025 681.789 70.5479 682.546 70.5479C683.498 70.5479 684.328 70.7147 685.036 71.0483C685.752 71.3739 686.346 71.8255 686.818 72.4033C687.29 72.9893 687.64 73.6769 687.868 74.4663C688.104 75.2557 688.222 76.1102 688.222 77.0298V78.043H678.786V78.1284C678.843 78.7713 678.969 79.3369 679.165 79.8252C679.368 80.3135 679.645 80.7448 679.995 81.1191C680.353 81.5179 680.784 81.8312 681.289 82.0591C681.793 82.2869 682.351 82.4009 682.961 82.4009C683.767 82.4009 684.483 82.2381 685.109 81.9126C685.736 81.5871 686.257 81.1558 686.672 80.6187L688.051 81.6929C687.612 82.3602 686.953 82.9543 686.074 83.4751C685.203 83.9878 684.125 84.2441 682.839 84.2441ZM682.546 72.4033C682.09 72.4033 681.659 72.4888 681.252 72.6597C680.845 72.8224 680.479 73.0625 680.153 73.3799C679.828 73.7054 679.551 74.1042 679.323 74.5762C679.104 75.04 678.949 75.5771 678.859 76.1875H685.964V76.0776C685.964 75.6707 685.887 75.2354 685.732 74.7715C685.577 74.2995 685.362 73.8926 685.085 73.5508C684.808 73.209 684.458 72.9323 684.035 72.7207C683.62 72.5091 683.124 72.4033 682.546 72.4033ZM702.071 81.6074L691.72 76.981V75.1987L702.071 70.5845V72.9771L694.601 75.9067L693.954 76.1143L694.601 76.334L702.071 79.2148V81.6074ZM709.512 85.5259H707.485L714.907 66.2266H716.921L709.512 85.5259ZM723.556 72.7573C723.735 72.4888 723.935 72.2446 724.154 72.0249C724.374 71.797 724.606 71.5977 724.85 71.4268C725.241 71.1419 725.668 70.9263 726.132 70.7798C726.604 70.6333 727.104 70.556 727.633 70.5479C728.325 70.5479 728.952 70.6496 729.513 70.853C730.083 71.0483 730.567 71.3576 730.966 71.7808C731.365 72.2039 731.67 72.741 731.881 73.3921C732.101 74.035 732.211 74.8 732.211 75.687V84H729.953V75.6626C729.953 75.1418 729.892 74.686 729.77 74.2954C729.647 73.8966 729.468 73.5671 729.232 73.3066C728.98 73.0218 728.663 72.8102 728.28 72.6719C727.898 72.5254 727.458 72.4562 726.962 72.4644C726.555 72.4644 726.168 72.5213 725.802 72.6353C725.436 72.7492 725.098 72.9119 724.789 73.1235C724.545 73.2863 724.317 73.4775 724.105 73.6973C723.902 73.9089 723.719 74.1449 723.556 74.4053V84H721.298V65.25H723.556V72.7573ZM743.387 84H741.128V69.1074L736.478 70.8774V68.8145L743.204 66.2266H743.387V84ZM750.876 81.5952V79.2515L758.774 76.2729L759.506 76.0654L758.774 75.8335L750.876 72.9038V70.5723L761.655 75.1865V76.9688L750.876 81.5952ZM170.544 114.607L160.192 109.981V108.199L170.544 103.584V105.977L163.073 108.907L162.426 109.114L163.073 109.334L170.544 112.215V114.607ZM177.264 105.757C177.443 105.489 177.643 105.245 177.862 105.025C178.082 104.797 178.314 104.598 178.558 104.427C178.949 104.142 179.376 103.926 179.84 103.78C180.312 103.633 180.812 103.556 181.341 103.548C182.033 103.548 182.66 103.65 183.221 103.853C183.791 104.048 184.275 104.358 184.674 104.781C185.073 105.204 185.378 105.741 185.589 106.392C185.809 107.035 185.919 107.8 185.919 108.687V117H183.661V108.663C183.661 108.142 183.6 107.686 183.478 107.295C183.355 106.897 183.176 106.567 182.94 106.307C182.688 106.022 182.371 105.81 181.988 105.672C181.606 105.525 181.166 105.456 180.67 105.464C180.263 105.464 179.876 105.521 179.51 105.635C179.144 105.749 178.806 105.912 178.497 106.124C178.253 106.286 178.025 106.478 177.813 106.697C177.61 106.909 177.427 107.145 177.264 107.405V117H175.006V98.25H177.264V105.757ZM200.671 117H189.026V115.376L194.849 108.907C195.369 108.329 195.805 107.816 196.155 107.369C196.505 106.921 196.785 106.506 196.997 106.124C197.209 105.749 197.359 105.395 197.449 105.062C197.538 104.72 197.583 104.37 197.583 104.012C197.583 103.572 197.51 103.161 197.363 102.779C197.225 102.388 197.021 102.05 196.753 101.766C196.476 101.481 196.143 101.257 195.752 101.094C195.369 100.923 194.934 100.838 194.446 100.838C193.852 100.838 193.335 100.923 192.896 101.094C192.464 101.265 192.106 101.505 191.821 101.814C191.528 102.132 191.309 102.514 191.162 102.962C191.024 103.41 190.955 103.91 190.955 104.463H188.684C188.684 103.715 188.814 103.011 189.075 102.352C189.335 101.684 189.714 101.102 190.21 100.606C190.698 100.11 191.296 99.7148 192.004 99.4219C192.721 99.1289 193.534 98.9824 194.446 98.9824C195.284 98.9824 196.037 99.1086 196.704 99.3608C197.38 99.605 197.949 99.9468 198.413 100.386C198.877 100.826 199.231 101.347 199.475 101.949C199.727 102.551 199.854 103.206 199.854 103.914C199.854 104.443 199.764 104.968 199.585 105.489C199.406 106.001 199.166 106.51 198.865 107.015C198.556 107.519 198.197 108.02 197.791 108.516C197.392 109.004 196.969 109.493 196.521 109.981L191.748 115.157H200.671V117ZM204.584 114.595V112.251L212.482 109.273L213.214 109.065L212.482 108.833L204.584 105.904V103.572L215.363 108.187V109.969L204.584 114.595ZM221.778 99.2266L224.671 108.113L227.796 99.2266H230.604V117H228.406V109.908L228.589 102.486L225.306 112.056H224.012L220.997 102.742L221.18 109.908V117H218.982V99.2266H221.778ZM233.43 110.274C233.43 109.322 233.568 108.439 233.845 107.625C234.121 106.803 234.52 106.091 235.041 105.489C235.554 104.887 236.18 104.415 236.921 104.073C237.661 103.723 238.496 103.548 239.423 103.548C240.359 103.548 241.197 103.723 241.938 104.073C242.687 104.415 243.321 104.887 243.842 105.489C244.355 106.091 244.75 106.803 245.026 107.625C245.303 108.439 245.441 109.322 245.441 110.274V110.542C245.441 111.495 245.303 112.378 245.026 113.191C244.75 114.005 244.355 114.713 243.842 115.315C243.321 115.918 242.691 116.39 241.95 116.731C241.21 117.073 240.375 117.244 239.448 117.244C238.512 117.244 237.67 117.073 236.921 116.731C236.18 116.39 235.554 115.918 235.041 115.315C234.52 114.713 234.121 114.005 233.845 113.191C233.568 112.378 233.43 111.495 233.43 110.542V110.274ZM235.688 110.542C235.688 111.194 235.765 111.816 235.92 112.41C236.075 112.996 236.311 113.513 236.628 113.96C236.937 114.408 237.328 114.762 237.8 115.022C238.272 115.283 238.821 115.413 239.448 115.413C240.066 115.413 240.607 115.283 241.071 115.022C241.543 114.762 241.938 114.408 242.255 113.96C242.565 113.513 242.797 112.996 242.951 112.41C243.106 111.816 243.183 111.194 243.183 110.542V110.274C243.183 109.631 243.102 109.017 242.939 108.431C242.784 107.837 242.552 107.316 242.243 106.868C241.926 106.421 241.531 106.067 241.059 105.806C240.595 105.538 240.05 105.403 239.423 105.403C238.797 105.403 238.251 105.538 237.788 105.806C237.324 106.067 236.937 106.421 236.628 106.868C236.311 107.316 236.075 107.837 235.92 108.431C235.765 109.017 235.688 109.631 235.688 110.274V110.542ZM257.423 103.792H259.681V117H257.423V107.259L250.965 117H248.719V103.792H250.965V113.545L257.423 103.792ZM257.704 98.4087C257.704 98.8888 257.618 99.3324 257.447 99.7393C257.276 100.138 257.032 100.48 256.715 100.765C256.397 101.049 256.015 101.273 255.567 101.436C255.12 101.591 254.619 101.668 254.066 101.668C253.504 101.668 253 101.591 252.552 101.436C252.105 101.273 251.722 101.049 251.405 100.765C251.087 100.48 250.839 100.138 250.66 99.7393C250.489 99.3324 250.404 98.8888 250.404 98.4087H252.235C252.235 98.6528 252.271 98.8888 252.345 99.1167C252.418 99.3364 252.528 99.5277 252.674 99.6904C252.821 99.8532 253.008 99.9834 253.236 100.081C253.464 100.179 253.74 100.228 254.066 100.228C254.383 100.228 254.652 100.179 254.872 100.081C255.099 99.9834 255.287 99.8532 255.433 99.6904C255.58 99.5277 255.689 99.3364 255.763 99.1167C255.836 98.8888 255.873 98.6528 255.873 98.4087H257.704ZM289.21 117H286.952V105.66H280.507V117H278.249V103.792H289.21V117ZM298.75 115.413C299.157 115.413 299.552 115.348 299.935 115.218C300.325 115.088 300.671 114.904 300.972 114.668C301.273 114.441 301.513 114.172 301.692 113.863C301.88 113.545 301.977 113.204 301.985 112.837H304.122C304.113 113.423 303.959 113.985 303.658 114.522C303.365 115.051 302.97 115.515 302.474 115.914C301.977 116.32 301.408 116.646 300.765 116.89C300.122 117.126 299.45 117.244 298.75 117.244C297.75 117.244 296.875 117.065 296.126 116.707C295.377 116.349 294.755 115.865 294.258 115.254C293.754 114.652 293.375 113.956 293.123 113.167C292.871 112.369 292.745 111.531 292.745 110.652V110.14C292.745 109.269 292.871 108.435 293.123 107.637C293.375 106.84 293.754 106.136 294.258 105.525C294.755 104.923 295.377 104.443 296.126 104.085C296.875 103.727 297.75 103.548 298.75 103.548C299.532 103.548 300.248 103.674 300.899 103.926C301.558 104.17 302.128 104.504 302.608 104.927C303.08 105.359 303.45 105.867 303.719 106.453C303.987 107.039 304.122 107.666 304.122 108.333H301.985C301.977 107.934 301.888 107.56 301.717 107.21C301.554 106.852 301.33 106.539 301.045 106.27C300.761 106.001 300.419 105.79 300.02 105.635C299.629 105.481 299.206 105.403 298.75 105.403C298.051 105.403 297.461 105.546 296.98 105.831C296.508 106.107 296.126 106.469 295.833 106.917C295.54 107.373 295.328 107.881 295.198 108.443C295.076 109.004 295.015 109.57 295.015 110.14V110.652C295.015 111.23 295.076 111.804 295.198 112.374C295.328 112.935 295.54 113.44 295.833 113.887C296.118 114.343 296.496 114.713 296.968 114.998C297.448 115.275 298.042 115.413 298.75 115.413ZM313.723 117.244C312.795 117.244 311.94 117.085 311.159 116.768C310.386 116.451 309.723 116.007 309.169 115.438C308.616 114.868 308.185 114.192 307.875 113.411C307.566 112.63 307.412 111.779 307.412 110.86V110.347C307.412 109.281 307.583 108.329 307.924 107.491C308.266 106.644 308.722 105.928 309.292 105.342C309.853 104.764 310.492 104.321 311.208 104.012C311.932 103.702 312.673 103.548 313.43 103.548C314.382 103.548 315.212 103.715 315.92 104.048C316.636 104.374 317.23 104.826 317.702 105.403C318.174 105.989 318.524 106.677 318.752 107.466C318.988 108.256 319.106 109.11 319.106 110.03V111.043H309.67V111.128C309.727 111.771 309.853 112.337 310.048 112.825C310.252 113.313 310.528 113.745 310.878 114.119C311.236 114.518 311.668 114.831 312.172 115.059C312.677 115.287 313.234 115.401 313.845 115.401C314.65 115.401 315.367 115.238 315.993 114.913C316.62 114.587 317.141 114.156 317.556 113.619L318.935 114.693C318.496 115.36 317.836 115.954 316.958 116.475C316.087 116.988 315.008 117.244 313.723 117.244ZM313.43 105.403C312.974 105.403 312.543 105.489 312.136 105.66C311.729 105.822 311.363 106.062 311.037 106.38C310.712 106.705 310.435 107.104 310.207 107.576C309.987 108.04 309.833 108.577 309.743 109.188H316.848V109.078C316.848 108.671 316.77 108.235 316.616 107.771C316.461 107.299 316.245 106.893 315.969 106.551C315.692 106.209 315.342 105.932 314.919 105.721C314.504 105.509 314.007 105.403 313.43 105.403ZM322.53 117V103.792H327.718C328.532 103.792 329.273 103.865 329.94 104.012C330.607 104.158 331.181 104.378 331.661 104.671C332.133 104.964 332.495 105.338 332.748 105.794C333.008 106.25 333.138 106.791 333.138 107.417C333.138 107.816 333.061 108.191 332.906 108.541C332.76 108.882 332.54 109.183 332.247 109.444C332.084 109.598 331.897 109.737 331.686 109.859C331.474 109.981 331.242 110.091 330.99 110.188L331.087 110.213C331.494 110.319 331.848 110.469 332.149 110.665C332.459 110.852 332.723 111.076 332.943 111.336C333.163 111.604 333.329 111.902 333.443 112.227C333.557 112.553 333.614 112.894 333.614 113.252C333.614 113.879 333.496 114.428 333.26 114.9C333.024 115.364 332.687 115.751 332.247 116.06C331.808 116.377 331.275 116.613 330.648 116.768C330.029 116.923 329.334 117 328.561 117H322.53ZM324.801 111.202V115.181H328.561C329.041 115.181 329.46 115.132 329.818 115.035C330.184 114.937 330.485 114.795 330.721 114.607C330.925 114.445 331.079 114.245 331.185 114.009C331.291 113.765 331.344 113.488 331.344 113.179C331.344 112.862 331.283 112.581 331.161 112.337C331.047 112.093 330.876 111.889 330.648 111.727C330.412 111.556 330.119 111.425 329.769 111.336C329.419 111.246 329.016 111.202 328.561 111.202H324.801ZM324.801 109.395H327.743C328.353 109.395 328.878 109.342 329.317 109.236C329.757 109.131 330.107 108.964 330.367 108.736C330.53 108.589 330.656 108.418 330.746 108.223C330.835 108.02 330.88 107.792 330.88 107.54C330.88 107.206 330.807 106.917 330.66 106.673C330.522 106.429 330.314 106.229 330.038 106.075C329.777 105.92 329.448 105.806 329.049 105.733C328.658 105.66 328.215 105.623 327.718 105.623H324.801V109.395ZM337.197 115.157C337.547 115.108 337.84 114.925 338.076 114.607C338.32 114.282 338.52 113.842 338.674 113.289C338.829 112.736 338.951 112.076 339.041 111.312C339.138 110.547 339.215 109.692 339.272 108.748L339.468 103.792H347.976V115.157H349.673L349.453 120.882H347.415V117H338.198V120.882H336.172L335.952 115.157H337.197ZM341.531 108.748C341.49 109.432 341.437 110.083 341.372 110.701C341.315 111.32 341.242 111.897 341.152 112.435C341.063 112.98 340.949 113.48 340.811 113.936C340.68 114.392 340.518 114.799 340.322 115.157H345.718V105.879H341.641L341.531 108.748ZM351.547 110.274C351.547 109.322 351.685 108.439 351.962 107.625C352.239 106.803 352.637 106.091 353.158 105.489C353.671 104.887 354.298 104.415 355.038 104.073C355.779 103.723 356.613 103.548 357.541 103.548C358.476 103.548 359.315 103.723 360.055 104.073C360.804 104.415 361.439 104.887 361.959 105.489C362.472 106.091 362.867 106.803 363.144 107.625C363.42 108.439 363.559 109.322 363.559 110.274V110.542C363.559 111.495 363.42 112.378 363.144 113.191C362.867 114.005 362.472 114.713 361.959 115.315C361.439 115.918 360.808 116.39 360.067 116.731C359.327 117.073 358.493 117.244 357.565 117.244C356.629 117.244 355.787 117.073 355.038 116.731C354.298 116.39 353.671 115.918 353.158 115.315C352.637 114.713 352.239 114.005 351.962 113.191C351.685 112.378 351.547 111.495 351.547 110.542V110.274ZM353.805 110.542C353.805 111.194 353.882 111.816 354.037 112.41C354.192 112.996 354.428 113.513 354.745 113.96C355.054 114.408 355.445 114.762 355.917 115.022C356.389 115.283 356.938 115.413 357.565 115.413C358.183 115.413 358.725 115.283 359.188 115.022C359.66 114.762 360.055 114.408 360.373 113.96C360.682 113.513 360.914 112.996 361.068 112.41C361.223 111.816 361.3 111.194 361.3 110.542V110.274C361.3 109.631 361.219 109.017 361.056 108.431C360.902 107.837 360.67 107.316 360.36 106.868C360.043 106.421 359.648 106.067 359.176 105.806C358.712 105.538 358.167 105.403 357.541 105.403C356.914 105.403 356.369 105.538 355.905 105.806C355.441 106.067 355.054 106.421 354.745 106.868C354.428 107.316 354.192 107.837 354.037 108.431C353.882 109.017 353.805 109.631 353.805 110.274V110.542ZM377.798 117H375.54V111.36H369.095V117H366.836V103.792H369.095V109.517H375.54V103.792H377.798V117ZM390.305 103.792H392.563V117H390.305V107.259L383.847 117H381.601V103.792H383.847V113.545L390.305 103.792ZM401.725 114.009L404.532 103.792H407.352V117H405.094V108.858L402.506 117H400.943L398.282 108.565V117H396.024V103.792H398.941L401.725 114.009ZM421.543 114.607L411.191 109.981V108.199L421.543 103.584V105.977L414.072 108.907L413.425 109.114L414.072 109.334L421.543 112.215V114.607ZM428.983 118.526H426.957L434.379 99.2266H436.393L428.983 118.526ZM443.028 105.757C443.207 105.489 443.406 105.245 443.626 105.025C443.846 104.797 444.078 104.598 444.322 104.427C444.712 104.142 445.14 103.926 445.604 103.78C446.076 103.633 446.576 103.556 447.105 103.548C447.797 103.548 448.423 103.65 448.985 103.853C449.555 104.048 450.039 104.358 450.438 104.781C450.836 105.204 451.141 105.741 451.353 106.392C451.573 107.035 451.683 107.8 451.683 108.687V117H449.424V108.663C449.424 108.142 449.363 107.686 449.241 107.295C449.119 106.897 448.94 106.567 448.704 106.307C448.452 106.022 448.134 105.81 447.752 105.672C447.369 105.525 446.93 105.456 446.434 105.464C446.027 105.464 445.64 105.521 445.274 105.635C444.908 105.749 444.57 105.912 444.261 106.124C444.017 106.286 443.789 106.478 443.577 106.697C443.374 106.909 443.191 107.145 443.028 107.405V117H440.77V98.25H443.028V105.757ZM466.435 117H454.79V115.376L460.612 108.907C461.133 108.329 461.569 107.816 461.918 107.369C462.268 106.921 462.549 106.506 462.761 106.124C462.972 105.749 463.123 105.395 463.212 105.062C463.302 104.72 463.347 104.37 463.347 104.012C463.347 103.572 463.273 103.161 463.127 102.779C462.989 102.388 462.785 102.05 462.517 101.766C462.24 101.481 461.906 101.257 461.516 101.094C461.133 100.923 460.698 100.838 460.209 100.838C459.615 100.838 459.099 100.923 458.659 101.094C458.228 101.265 457.87 101.505 457.585 101.814C457.292 102.132 457.072 102.514 456.926 102.962C456.787 103.41 456.718 103.91 456.718 104.463H454.448C454.448 103.715 454.578 103.011 454.838 102.352C455.099 101.684 455.477 101.102 455.974 100.606C456.462 100.11 457.06 99.7148 457.768 99.4219C458.484 99.1289 459.298 98.9824 460.209 98.9824C461.048 98.9824 461.8 99.1086 462.468 99.3608C463.143 99.605 463.713 99.9468 464.177 100.386C464.641 100.826 464.995 101.347 465.239 101.949C465.491 102.551 465.617 103.206 465.617 103.914C465.617 104.443 465.528 104.968 465.349 105.489C465.17 106.001 464.93 106.51 464.628 107.015C464.319 107.519 463.961 108.02 463.554 108.516C463.155 109.004 462.732 109.493 462.285 109.981L457.512 115.157H466.435V117ZM470.348 114.595V112.251L478.246 109.273L478.978 109.065L478.246 108.833L470.348 105.904V103.572L481.126 108.187V109.969L470.348 114.595ZM52.4268 147.607L42.0752 142.981V141.199L52.4268 136.584V138.977L44.9561 141.907L44.3091 142.114L44.9561 142.334L52.4268 145.215V147.607ZM59.8672 151.526H57.8408L65.2627 132.227H67.2769L59.8672 151.526ZM73.9116 138.757C74.0907 138.489 74.29 138.245 74.5098 138.025C74.7295 137.797 74.9614 137.598 75.2056 137.427C75.5962 137.142 76.0234 136.926 76.4873 136.78C76.9593 136.633 77.4598 136.556 77.9888 136.548C78.6805 136.548 79.3071 136.65 79.8687 136.853C80.4383 137.048 80.9225 137.358 81.3213 137.781C81.7201 138.204 82.0252 138.741 82.2368 139.392C82.4565 140.035 82.5664 140.8 82.5664 141.687V150H80.3081V141.663C80.3081 141.142 80.2471 140.686 80.125 140.295C80.0029 139.897 79.8239 139.567 79.5879 139.307C79.3356 139.022 79.0182 138.81 78.6357 138.672C78.2533 138.525 77.8138 138.456 77.3174 138.464C76.9105 138.464 76.5239 138.521 76.1577 138.635C75.7915 138.749 75.4538 138.912 75.1445 139.124C74.9004 139.286 74.6725 139.478 74.4609 139.697C74.2575 139.909 74.0744 140.145 73.9116 140.405V150H71.6533V131.25H73.9116V138.757ZM92.2529 150.244C91.3252 150.244 90.4707 150.085 89.6895 149.768C88.9163 149.451 88.2531 149.007 87.6997 148.438C87.1463 147.868 86.715 147.192 86.4058 146.411C86.0965 145.63 85.9419 144.779 85.9419 143.86V143.347C85.9419 142.281 86.1128 141.329 86.4546 140.491C86.7964 139.644 87.2521 138.928 87.8218 138.342C88.3833 137.764 89.0221 137.321 89.7383 137.012C90.4626 136.702 91.2031 136.548 91.96 136.548C92.9121 136.548 93.7422 136.715 94.4502 137.048C95.1663 137.374 95.7604 137.826 96.2324 138.403C96.7044 138.989 97.0544 139.677 97.2822 140.466C97.5182 141.256 97.6362 142.11 97.6362 143.03V144.043H88.2002V144.128C88.2572 144.771 88.3833 145.337 88.5786 145.825C88.7821 146.313 89.0588 146.745 89.4087 147.119C89.7668 147.518 90.1981 147.831 90.7026 148.059C91.2072 148.287 91.7646 148.401 92.375 148.401C93.1807 148.401 93.8968 148.238 94.5234 147.913C95.1501 147.587 95.6709 147.156 96.0859 146.619L97.4653 147.693C97.0259 148.36 96.3667 148.954 95.4878 149.475C94.617 149.988 93.5387 150.244 92.2529 150.244ZM91.96 138.403C91.5042 138.403 91.0729 138.489 90.666 138.66C90.2591 138.822 89.8929 139.062 89.5674 139.38C89.2419 139.705 88.9652 140.104 88.7373 140.576C88.5176 141.04 88.363 141.577 88.2734 142.188H95.3779V142.078C95.3779 141.671 95.3006 141.235 95.146 140.771C94.9914 140.299 94.7757 139.893 94.499 139.551C94.2223 139.209 93.8724 138.932 93.4492 138.721C93.0342 138.509 92.5378 138.403 91.96 138.403ZM109.862 150C109.772 149.829 109.699 149.618 109.642 149.365C109.593 149.105 109.557 148.836 109.532 148.56C109.304 148.787 109.048 149.003 108.763 149.207C108.486 149.41 108.181 149.589 107.848 149.744C107.506 149.898 107.144 150.02 106.761 150.11C106.379 150.199 105.972 150.244 105.541 150.244C104.841 150.244 104.206 150.142 103.636 149.939C103.075 149.736 102.599 149.459 102.208 149.109C101.809 148.767 101.5 148.36 101.28 147.888C101.069 147.408 100.963 146.891 100.963 146.338C100.963 145.614 101.105 144.979 101.39 144.434C101.683 143.888 102.094 143.433 102.623 143.066C103.152 142.708 103.787 142.44 104.527 142.261C105.276 142.082 106.11 141.992 107.03 141.992H109.496V140.955C109.496 140.556 109.422 140.198 109.276 139.88C109.129 139.563 108.922 139.29 108.653 139.062C108.385 138.843 108.055 138.672 107.665 138.55C107.282 138.428 106.851 138.367 106.371 138.367C105.923 138.367 105.52 138.424 105.162 138.538C104.812 138.652 104.515 138.802 104.271 138.989C104.027 139.176 103.836 139.4 103.697 139.661C103.567 139.913 103.502 140.177 103.502 140.454H101.231C101.24 139.974 101.362 139.502 101.598 139.038C101.842 138.574 102.192 138.155 102.647 137.781C103.095 137.415 103.64 137.118 104.283 136.89C104.934 136.662 105.671 136.548 106.493 136.548C107.241 136.548 107.937 136.641 108.58 136.829C109.223 137.008 109.78 137.28 110.252 137.646C110.716 138.021 111.083 138.485 111.351 139.038C111.62 139.591 111.754 140.238 111.754 140.979V147.119C111.754 147.559 111.795 148.027 111.876 148.523C111.957 149.011 112.071 149.438 112.218 149.805V150H109.862ZM105.87 148.279C106.31 148.279 106.721 148.222 107.103 148.108C107.486 147.994 107.835 147.843 108.153 147.656C108.462 147.469 108.731 147.257 108.958 147.021C109.186 146.777 109.365 146.525 109.496 146.265V143.591H107.396C106.615 143.591 105.931 143.66 105.345 143.799C104.767 143.929 104.308 144.132 103.966 144.409C103.722 144.604 103.535 144.836 103.404 145.105C103.282 145.374 103.221 145.679 103.221 146.021C103.221 146.346 103.274 146.647 103.38 146.924C103.494 147.201 103.661 147.437 103.88 147.632C104.1 147.835 104.377 147.994 104.71 148.108C105.044 148.222 105.431 148.279 105.87 148.279ZM115.52 143.286C115.52 142.301 115.642 141.398 115.886 140.576C116.139 139.746 116.497 139.034 116.96 138.44C117.416 137.846 117.97 137.382 118.621 137.048C119.272 136.715 120 136.548 120.806 136.548C121.595 136.548 122.283 136.682 122.869 136.951C123.463 137.211 123.975 137.594 124.407 138.098V131.25H126.665V150H124.59L124.492 148.608C124.053 149.146 123.528 149.552 122.917 149.829C122.307 150.106 121.595 150.244 120.781 150.244C119.984 150.244 119.259 150.073 118.608 149.731C117.965 149.39 117.416 148.918 116.96 148.315C116.505 147.713 116.151 147.005 115.898 146.191C115.646 145.369 115.52 144.486 115.52 143.542V143.286ZM117.778 143.542C117.778 144.185 117.847 144.796 117.986 145.374C118.124 145.951 118.34 146.46 118.633 146.899C118.918 147.339 119.284 147.689 119.731 147.949C120.179 148.201 120.716 148.328 121.343 148.328C122.1 148.328 122.726 148.157 123.223 147.815C123.719 147.473 124.114 147.013 124.407 146.436V140.308C124.114 139.771 123.719 139.331 123.223 138.989C122.726 138.639 122.108 138.464 121.367 138.464C120.732 138.464 120.187 138.595 119.731 138.855C119.284 139.115 118.918 139.465 118.633 139.905C118.34 140.352 118.124 140.869 117.986 141.455C117.847 142.033 117.778 142.643 117.778 143.286V143.542ZM136.547 150.244C135.619 150.244 134.765 150.085 133.983 149.768C133.21 149.451 132.547 149.007 131.994 148.438C131.44 147.868 131.009 147.192 130.7 146.411C130.39 145.63 130.236 144.779 130.236 143.86V143.347C130.236 142.281 130.407 141.329 130.749 140.491C131.09 139.644 131.546 138.928 132.116 138.342C132.677 137.764 133.316 137.321 134.032 137.012C134.757 136.702 135.497 136.548 136.254 136.548C137.206 136.548 138.036 136.715 138.744 137.048C139.46 137.374 140.054 137.826 140.526 138.403C140.998 138.989 141.348 139.677 141.576 140.466C141.812 141.256 141.93 142.11 141.93 143.03V144.043H132.494V144.128C132.551 144.771 132.677 145.337 132.873 145.825C133.076 146.313 133.353 146.745 133.703 147.119C134.061 147.518 134.492 147.831 134.997 148.059C135.501 148.287 136.059 148.401 136.669 148.401C137.475 148.401 138.191 148.238 138.817 147.913C139.444 147.587 139.965 147.156 140.38 146.619L141.759 147.693C141.32 148.36 140.661 148.954 139.782 149.475C138.911 149.988 137.833 150.244 136.547 150.244ZM136.254 138.403C135.798 138.403 135.367 138.489 134.96 138.66C134.553 138.822 134.187 139.062 133.861 139.38C133.536 139.705 133.259 140.104 133.031 140.576C132.812 141.04 132.657 141.577 132.567 142.188H139.672V142.078C139.672 141.671 139.595 141.235 139.44 140.771C139.285 140.299 139.07 139.893 138.793 139.551C138.516 139.209 138.166 138.932 137.743 138.721C137.328 138.509 136.832 138.403 136.254 138.403ZM154.131 136.548C154.546 136.548 154.978 136.576 155.425 136.633C155.881 136.69 156.223 136.768 156.451 136.865L156.146 139.075C155.706 138.977 155.287 138.908 154.888 138.867C154.498 138.818 154.087 138.794 153.655 138.794C153.102 138.794 152.601 138.863 152.154 139.001C151.706 139.132 151.316 139.327 150.982 139.587C150.681 139.815 150.416 140.096 150.188 140.43C149.969 140.755 149.786 141.121 149.639 141.528V150H147.369V136.792H149.517L149.615 138.562L149.627 138.892C150.164 138.167 150.807 137.598 151.556 137.183C152.312 136.759 153.171 136.548 154.131 136.548ZM160.29 147.595V145.251L168.188 142.273L168.92 142.065L168.188 141.833L160.29 138.904V136.572L171.069 141.187V142.969L160.29 147.595Z" fill="white"/>
</svg>
