<svg width="1400" height="163" viewBox="0 0 1400 163" fill="none" xmlns="http://www.w3.org/2000/svg">
<rect width="1400" height="163" rx="20" fill="#0066FF" fill-opacity="0.2"/>
<rect x="1.5" y="1.5" width="1397" height="160" rx="18.5" stroke="#0066FF" stroke-opacity="0.5" stroke-width="3"/>
<rect x="32" y="34" width="1337" height="95" rx="11" fill="#0066FF"/>
<path d="M92.431 92.5H88.9972V74.547H82.4001V92.5H78.9663V71.7543H92.431V92.5ZM95.5235 84.6491C95.5235 83.5283 95.685 82.4929 96.008 81.543C96.3309 80.5836 96.8011 79.7524 97.4185 79.0495C98.0265 78.3466 98.7721 77.7956 99.6555 77.3967C100.539 76.9977 101.546 76.7983 102.676 76.7983C103.807 76.7983 104.813 76.9977 105.697 77.3967C106.59 77.7956 107.345 78.3466 107.962 79.0495C108.57 79.7524 109.036 80.5836 109.359 81.543C109.682 82.4929 109.843 83.5283 109.843 84.6491V84.9483C109.843 86.0787 109.682 87.1189 109.359 88.0687C109.036 89.0186 108.57 89.845 107.962 90.548C107.354 91.2509 106.604 91.8018 105.711 92.2008C104.828 92.5997 103.826 92.7992 102.705 92.7992C101.574 92.7992 100.563 92.5997 99.6698 92.2008C98.7769 91.8018 98.0265 91.2509 97.4185 90.548C96.8011 89.845 96.3309 89.0186 96.008 88.0687C95.685 87.1189 95.5235 86.0787 95.5235 84.9483V84.6491ZM98.9289 84.9483C98.9289 85.6418 99.0001 86.2972 99.1426 86.9146C99.2946 87.5321 99.5273 88.0735 99.8408 88.5389C100.145 89.0044 100.534 89.3748 101.009 89.6503C101.484 89.9163 102.049 90.0493 102.705 90.0493C103.341 90.0493 103.897 89.9163 104.372 89.6503C104.847 89.3748 105.236 89.0044 105.54 88.5389C105.844 88.0735 106.067 87.5321 106.21 86.9146C106.362 86.2972 106.438 85.6418 106.438 84.9483V84.6491C106.438 83.9747 106.362 83.3288 106.21 82.7113C106.058 82.0939 105.835 81.5525 105.54 81.087C105.227 80.6216 104.832 80.2511 104.358 79.9756C103.892 79.7002 103.332 79.5624 102.676 79.5624C102.03 79.5624 101.47 79.7002 100.995 79.9756C100.529 80.2511 100.145 80.6216 99.8408 81.087C99.5273 81.5525 99.2946 82.0939 99.1426 82.7113C99.0001 83.3288 98.9289 83.9747 98.9289 84.6491V84.9483ZM113.121 98.4273V77.0832H116.256L116.384 78.6648C116.593 78.4083 116.821 78.1756 117.068 77.9666C117.315 77.7576 117.581 77.5772 117.866 77.4252C118.236 77.2257 118.644 77.0737 119.091 76.9692C119.537 76.8552 120.012 76.7983 120.516 76.7983C121.504 76.7983 122.373 76.9882 123.123 77.3682C123.883 77.7481 124.52 78.2848 125.033 78.9783C125.536 79.6717 125.921 80.5028 126.187 81.4717C126.453 82.4311 126.586 83.4903 126.586 84.6491V84.9483C126.586 86.0597 126.453 87.0951 126.187 88.0545C125.93 89.0139 125.545 89.8403 125.033 90.5337C124.52 91.2366 123.888 91.7876 123.137 92.1865C122.387 92.5855 121.527 92.785 120.559 92.785C120.008 92.785 119.499 92.728 119.034 92.614C118.578 92.5 118.155 92.3338 117.766 92.1153C117.538 91.9823 117.319 91.8303 117.11 91.6593C116.901 91.4884 116.707 91.3031 116.526 91.1037V98.4273H113.121ZM123.18 84.6491C123.18 83.9557 123.109 83.305 122.967 82.6971C122.834 82.0797 122.625 81.543 122.34 81.087C122.045 80.6311 121.67 80.2701 121.214 80.0041C120.758 79.7382 120.212 79.6052 119.575 79.6052C119.224 79.6052 118.896 79.6432 118.592 79.7192C118.288 79.7952 118.018 79.9044 117.78 80.0469C117.505 80.1989 117.262 80.3889 117.053 80.6168C116.854 80.8448 116.678 81.1013 116.526 81.3862V88.2397C116.659 88.5057 116.821 88.7479 117.011 88.9664C117.201 89.1849 117.419 89.3748 117.666 89.5363C117.923 89.6883 118.212 89.8118 118.535 89.9068C118.858 89.9923 119.214 90.035 119.604 90.035C120.24 90.035 120.782 89.902 121.228 89.6361C121.684 89.3606 122.055 88.9901 122.34 88.5247C122.634 88.0497 122.848 87.5083 122.981 86.9004C123.114 86.2829 123.18 85.6323 123.18 84.9483V84.6491ZM144.625 79.8189H138.598V92.5H135.178V79.8189H129.222V77.0832H144.625V79.8189ZM145.95 84.6491C145.95 83.6802 146.079 82.7683 146.335 81.9134C146.601 81.0585 146.986 80.2891 147.489 79.6052C147.983 78.9403 148.591 78.3798 149.313 77.9239C150.035 77.4679 150.857 77.145 151.778 76.955V70.6144H155.212V76.955C156.143 77.1355 156.969 77.4537 157.691 77.9096C158.422 78.3656 159.04 78.9308 159.543 79.6052C160.047 80.2796 160.427 81.049 160.683 81.9134C160.949 82.7683 161.082 83.6802 161.082 84.6491V84.9483C161.082 85.9267 160.949 86.8434 160.683 87.6983C160.417 88.5532 160.037 89.3179 159.543 89.9923C159.04 90.6667 158.422 91.2319 157.691 91.6878C156.96 92.1438 156.133 92.4573 155.212 92.6282V98.4273H151.778V92.614C150.857 92.4335 150.035 92.1153 149.313 91.6593C148.591 91.2034 147.983 90.643 147.489 89.978C146.986 89.3036 146.601 88.5437 146.335 87.6983C146.079 86.8434 145.95 85.9267 145.95 84.9483V84.6491ZM149.256 84.9483C149.256 85.4803 149.303 85.9932 149.398 86.4872C149.493 86.9811 149.65 87.4371 149.869 87.855C150.068 88.273 150.325 88.6434 150.638 88.9664C150.961 89.2799 151.341 89.5268 151.778 89.7073V79.9187C151.35 80.0991 150.975 80.3509 150.652 80.6738C150.339 80.9873 150.082 81.3482 149.883 81.7567C149.664 82.1747 149.503 82.6306 149.398 83.1245C149.303 83.609 149.256 84.1172 149.256 84.6491V84.9483ZM157.777 84.6491C157.777 84.1172 157.724 83.609 157.62 83.1245C157.525 82.6306 157.368 82.1747 157.15 81.7567C156.931 81.3387 156.66 80.973 156.337 80.6596C156.014 80.3366 155.635 80.0849 155.198 79.9044V89.7358C155.635 89.5553 156.014 89.3084 156.337 88.9949C156.66 88.6719 156.931 88.3015 157.15 87.8835C157.368 87.4656 157.525 87.0096 157.62 86.5157C157.724 86.0122 157.777 85.4898 157.777 84.9483V84.6491ZM163.291 84.6491C163.291 83.5283 163.453 82.4929 163.776 81.543C164.099 80.5836 164.569 79.7524 165.186 79.0495C165.794 78.3466 166.54 77.7956 167.423 77.3967C168.307 76.9977 169.314 76.7983 170.444 76.7983C171.574 76.7983 172.581 76.9977 173.465 77.3967C174.357 77.7956 175.113 78.3466 175.73 79.0495C176.338 79.7524 176.803 80.5836 177.126 81.543C177.449 82.4929 177.611 83.5283 177.611 84.6491V84.9483C177.611 86.0787 177.449 87.1189 177.126 88.0687C176.803 89.0186 176.338 89.845 175.73 90.548C175.122 91.2509 174.372 91.8018 173.479 92.2008C172.595 92.5997 171.593 92.7992 170.472 92.7992C169.342 92.7992 168.33 92.5997 167.438 92.2008C166.545 91.8018 165.794 91.2509 165.186 90.548C164.569 89.845 164.099 89.0186 163.776 88.0687C163.453 87.1189 163.291 86.0787 163.291 84.9483V84.6491ZM166.697 84.9483C166.697 85.6418 166.768 86.2972 166.91 86.9146C167.062 87.5321 167.295 88.0735 167.608 88.5389C167.912 89.0044 168.302 89.3748 168.777 89.6503C169.252 89.9163 169.817 90.0493 170.472 90.0493C171.109 90.0493 171.665 89.9163 172.139 89.6503C172.614 89.3748 173.004 89.0044 173.308 88.5389C173.612 88.0735 173.835 87.5321 173.978 86.9146C174.13 86.2972 174.206 85.6418 174.206 84.9483V84.6491C174.206 83.9747 174.13 83.3288 173.978 82.7113C173.826 82.0939 173.602 81.5525 173.308 81.087C172.994 80.6216 172.6 80.2511 172.125 79.9756C171.66 79.7002 171.099 79.5624 170.444 79.5624C169.798 79.5624 169.238 79.7002 168.763 79.9756C168.297 80.2511 167.912 80.6216 167.608 81.087C167.295 81.5525 167.062 82.0939 166.91 82.7113C166.768 83.3288 166.697 83.9747 166.697 84.6491V84.9483ZM193.954 77.0832V92.5H190.535V79.8617H185.733L185.719 83.666C185.719 84.1884 185.705 84.6966 185.676 85.1906C185.657 85.6845 185.624 86.15 185.576 86.5869C185.481 87.3278 185.344 88.007 185.163 88.6244C184.992 89.2324 184.769 89.7691 184.493 90.2345C184.047 90.9849 183.458 91.5501 182.727 91.9301C181.995 92.31 181.088 92.5 180.005 92.5H179.279V89.6218L179.791 89.6076C180.314 89.6076 180.737 89.4936 181.06 89.2656C181.392 89.0376 181.653 88.6814 181.843 88.197C181.938 87.931 182.019 87.6223 182.085 87.2708C182.152 86.9194 182.199 86.5299 182.228 86.1025C182.256 85.751 182.275 85.3758 182.285 84.9768C182.294 84.5684 182.299 84.1314 182.299 83.666L182.313 77.0832H193.954ZM207.505 77.0832H210.911V92.5H207.505V82.0274L200.979 92.5H197.574V77.0832H200.979V87.5701L207.505 77.0832ZM214.117 84.6491C214.117 83.5283 214.279 82.4929 214.601 81.543C214.924 80.5836 215.395 79.7524 216.012 79.0495C216.62 78.3466 217.366 77.7956 218.249 77.3967C219.132 76.9977 220.139 76.7983 221.27 76.7983C222.4 76.7983 223.407 76.9977 224.29 77.3967C225.183 77.7956 225.938 78.3466 226.556 79.0495C227.164 79.7524 227.629 80.5836 227.952 81.543C228.275 82.4929 228.437 83.5283 228.437 84.6491V84.9483C228.437 86.0787 228.275 87.1189 227.952 88.0687C227.629 89.0186 227.164 89.845 226.556 90.548C225.948 91.2509 225.198 91.8018 224.305 92.2008C223.421 92.5997 222.419 92.7992 221.298 92.7992C220.168 92.7992 219.156 92.5997 218.263 92.2008C217.37 91.8018 216.62 91.2509 216.012 90.548C215.395 89.845 214.924 89.0186 214.601 88.0687C214.279 87.1189 214.117 86.0787 214.117 84.9483V84.6491ZM217.522 84.9483C217.522 85.6418 217.594 86.2972 217.736 86.9146C217.888 87.5321 218.121 88.0735 218.434 88.5389C218.738 89.0044 219.128 89.3748 219.603 89.6503C220.078 89.9163 220.643 90.0493 221.298 90.0493C221.935 90.0493 222.49 89.9163 222.965 89.6503C223.44 89.3748 223.83 89.0044 224.134 88.5389C224.438 88.0735 224.661 87.5321 224.803 86.9146C224.955 86.2972 225.031 85.6418 225.031 84.9483V84.6491C225.031 83.9747 224.955 83.3288 224.803 82.7113C224.651 82.0939 224.428 81.5525 224.134 81.087C223.82 80.6216 223.426 80.2511 222.951 79.9756C222.486 79.7002 221.925 79.5624 221.27 79.5624C220.624 79.5624 220.063 79.7002 219.588 79.9756C219.123 80.2511 218.738 80.6216 218.434 81.087C218.121 81.5525 217.888 82.0939 217.736 82.7113C217.594 83.3288 217.522 83.9747 217.522 84.6491V84.9483ZM256.379 98.2706H254.056V71.7543H256.379V98.2706ZM296.489 83.5093C296.489 84.3452 296.413 85.1526 296.261 85.9315C296.119 86.7104 295.91 87.4466 295.634 88.14C295.34 88.8334 294.974 89.4746 294.537 90.0635C294.1 90.643 293.597 91.1417 293.027 91.5596C292.476 91.9396 291.863 92.2388 291.189 92.4573C290.524 92.6757 289.793 92.785 288.995 92.785C288.168 92.785 287.408 92.671 286.715 92.443C286.031 92.2055 285.418 91.8826 284.877 91.4741C284.326 91.0562 283.842 90.5527 283.424 89.9638C283.015 89.3748 282.673 88.7289 282.398 88.026C282.132 87.3516 281.932 86.6344 281.799 85.8745C281.666 85.1051 281.6 84.3167 281.6 83.5093V80.7736C281.6 79.9282 281.671 79.1112 281.813 78.3228C281.956 77.5344 282.17 76.7888 282.455 76.0858C282.73 75.4114 283.067 74.794 283.466 74.2335C283.875 73.6636 284.354 73.1697 284.905 72.7517C285.437 72.3432 286.041 72.0298 286.715 71.8113C287.399 71.5833 288.149 71.4693 288.966 71.4693C289.793 71.4693 290.553 71.5833 291.246 71.8113C291.939 72.0393 292.562 72.3575 293.112 72.766C293.663 73.1744 294.143 73.6541 294.552 74.205C294.96 74.756 295.302 75.3592 295.577 76.0146C295.881 76.7175 296.109 77.4727 296.261 78.2801C296.413 79.078 296.489 79.9092 296.489 80.7736V83.5093ZM293.041 80.7451C293.032 80.2226 292.998 79.7097 292.942 79.2062C292.894 78.7028 292.809 78.2231 292.685 77.7671C292.543 77.2447 292.353 76.7698 292.115 76.3423C291.887 75.9054 291.607 75.5349 291.274 75.2309C290.98 74.965 290.643 74.756 290.263 74.604C289.883 74.452 289.451 74.376 288.966 74.376C288.501 74.376 288.083 74.452 287.712 74.604C287.342 74.7465 287.019 74.946 286.743 75.2024C286.411 75.5159 286.131 75.8911 285.903 76.3281C285.675 76.7555 285.499 77.2352 285.376 77.7671C285.262 78.2231 285.176 78.7075 285.119 79.2205C285.072 79.7239 285.048 80.2321 285.048 80.7451V83.5093C285.048 84.0127 285.072 84.5114 285.119 85.0053C285.167 85.4993 285.247 85.9742 285.361 86.4302C285.485 86.9431 285.651 87.4228 285.86 87.8693C286.079 88.3062 286.34 88.6767 286.644 88.9806C286.938 89.2656 287.275 89.4936 287.655 89.6646C288.045 89.826 288.491 89.9068 288.995 89.9068C289.479 89.9068 289.916 89.826 290.306 89.6646C290.705 89.5031 291.046 89.2846 291.331 89.0091C291.664 88.6957 291.939 88.3252 292.158 87.8978C292.386 87.4608 292.566 86.9811 292.699 86.4587C292.813 86.0027 292.894 85.5278 292.942 85.0338C292.998 84.5304 293.032 84.0222 293.041 83.5093V80.7451ZM314.044 79.8189H308.017V92.5H304.597V79.8189H298.641V77.0832H314.044V79.8189ZM315.94 87.9405H319.331C319.331 88.235 319.416 88.5199 319.587 88.7954C319.768 89.0614 320.024 89.2941 320.357 89.4936C320.68 89.7026 321.069 89.8688 321.525 89.9923C321.981 90.1158 322.489 90.1775 323.05 90.1775C323.61 90.1775 324.109 90.1205 324.546 90.0065C324.992 89.883 325.367 89.7216 325.671 89.5221C325.966 89.3226 326.189 89.0946 326.341 88.8382C326.502 88.5722 326.583 88.292 326.583 87.9975C326.583 87.6745 326.521 87.3896 326.398 87.1426C326.284 86.8956 326.118 86.6914 325.899 86.5299C325.738 86.3969 325.543 86.2877 325.315 86.2022C325.097 86.1072 324.85 86.0312 324.574 85.9742C324.356 85.9362 324.123 85.9077 323.876 85.8887C323.638 85.8697 323.387 85.8602 323.121 85.8602H319.986V83.3953H323.121C323.377 83.3953 323.619 83.3858 323.847 83.3668C324.075 83.3478 324.284 83.3193 324.474 83.2813C324.731 83.2243 324.959 83.153 325.158 83.0676C325.367 82.9821 325.548 82.8823 325.7 82.7683C325.899 82.6069 326.051 82.4169 326.156 82.1984C326.26 81.9799 326.312 81.7377 326.312 81.4717C326.312 81.2153 326.246 80.9635 326.113 80.7166C325.98 80.4696 325.785 80.2511 325.529 80.0611C325.253 79.8807 324.907 79.7334 324.489 79.6194C324.08 79.5054 323.6 79.4485 323.05 79.4485C322.565 79.4485 322.114 79.5007 321.696 79.6052C321.278 79.7002 320.912 79.8332 320.599 80.0041C320.276 80.1751 320.024 80.3841 319.844 80.6311C319.663 80.878 319.573 81.1535 319.573 81.4575H316.182C316.182 80.7356 316.362 80.0896 316.723 79.5197C317.084 78.9403 317.573 78.4463 318.191 78.0379C318.799 77.6484 319.511 77.3492 320.328 77.1402C321.154 76.9217 322.028 76.8125 322.95 76.8125C323.947 76.8125 324.864 76.9122 325.7 77.1117C326.536 77.3017 327.253 77.5819 327.851 77.9524C328.44 78.3323 328.896 78.8025 329.219 79.363C329.552 79.9139 329.718 80.5598 329.718 81.3007C329.718 81.7377 329.618 82.1557 329.419 82.5546C329.219 82.9441 328.939 83.2955 328.578 83.609C328.369 83.799 328.127 83.9747 327.851 84.1362C327.576 84.2977 327.277 84.4401 326.954 84.5636C327.372 84.6966 327.747 84.8534 328.079 85.0338C328.412 85.2143 328.706 85.4233 328.963 85.6608C329.295 85.9742 329.552 86.3399 329.732 86.7579C329.913 87.1758 330.003 87.6413 330.003 88.1542C330.003 88.8857 329.822 89.5411 329.461 90.1205C329.1 90.6905 328.606 91.1701 327.979 91.5596C327.353 91.9586 326.607 92.2625 325.742 92.4715C324.888 92.6805 323.957 92.785 322.95 92.785C322.057 92.785 321.178 92.6852 320.314 92.4858C319.449 92.2768 318.69 91.9586 318.034 91.5311C317.407 91.1512 316.899 90.662 316.51 90.0635C316.13 89.4651 315.94 88.7574 315.94 87.9405ZM336.102 82.7113H337.042C337.925 82.7113 338.7 82.8348 339.365 83.0818C340.029 83.3288 340.585 83.666 341.032 84.0934C341.478 84.5209 341.811 85.0291 342.029 85.618C342.247 86.207 342.357 86.8386 342.357 87.5131C342.357 88.2065 342.247 88.8572 342.029 89.4651C341.811 90.073 341.478 90.6002 341.032 91.0467C340.585 91.4931 340.029 91.8493 339.365 92.1153C338.7 92.3718 337.925 92.5 337.042 92.5H332.81V77.0832H336.102V82.7113ZM347.116 92.5H343.696V77.0832H347.116V92.5ZM336.102 85.2191V89.8071H337.042C337.479 89.8071 337.835 89.7453 338.111 89.6218C338.396 89.4888 338.614 89.3179 338.766 89.1089C338.918 88.9094 339.023 88.6814 339.08 88.425C339.137 88.159 339.165 87.893 339.165 87.627C339.165 87.3516 339.137 87.0714 339.08 86.7864C339.023 86.5014 338.918 86.2402 338.766 86.0027C338.614 85.7748 338.396 85.5895 338.111 85.447C337.835 85.2951 337.479 85.2191 337.042 85.2191H336.102ZM350.194 92.5V77.0832H356.449C357.427 77.0832 358.311 77.1735 359.099 77.3539C359.897 77.5249 360.576 77.7814 361.137 78.1234C361.697 78.4748 362.125 78.9213 362.419 79.4627C362.723 79.9946 362.875 80.6263 362.875 81.3577C362.875 81.7852 362.794 82.1889 362.633 82.5689C362.471 82.9488 362.234 83.2908 361.92 83.5947C361.711 83.7942 361.464 83.9795 361.179 84.1504C360.894 84.3119 360.581 84.4544 360.239 84.5779L360.382 84.6064C360.894 84.7299 361.341 84.9056 361.721 85.1336C362.11 85.352 362.443 85.6085 362.718 85.903C362.994 86.2165 363.198 86.5584 363.331 86.9289C363.473 87.2993 363.545 87.6935 363.545 88.1115C363.545 88.8429 363.402 89.4841 363.117 90.035C362.842 90.5765 362.443 91.0277 361.92 91.3886C361.398 91.7591 360.757 92.0393 359.997 92.2293C359.246 92.4098 358.391 92.5 357.432 92.5H350.194ZM353.599 85.9315V89.7786H357.432C357.907 89.7786 358.315 89.7358 358.657 89.6503C359.009 89.5553 359.294 89.4271 359.512 89.2656C359.721 89.1041 359.878 88.9047 359.983 88.6672C360.087 88.4297 360.139 88.159 360.139 87.855C360.139 87.5606 360.087 87.2993 359.983 87.0714C359.878 86.8339 359.721 86.6344 359.512 86.4729C359.294 86.3019 359.009 86.169 358.657 86.074C358.315 85.979 357.907 85.9315 357.432 85.9315H353.599ZM353.599 83.4808H356.577C357.109 83.4808 357.57 83.438 357.959 83.3525C358.349 83.2575 358.662 83.115 358.9 82.9251C359.09 82.7826 359.232 82.6116 359.327 82.4121C359.422 82.2126 359.47 81.9799 359.47 81.714C359.47 81.4005 359.408 81.1298 359.284 80.9018C359.17 80.6643 358.99 80.4648 358.743 80.3034C358.505 80.1419 358.192 80.0231 357.803 79.9472C357.413 79.8617 356.962 79.8189 356.449 79.8189H353.599V83.4808ZM369.986 82.7113H370.926C371.809 82.7113 372.583 82.8348 373.248 83.0818C373.913 83.3288 374.469 83.666 374.915 84.0934C375.362 84.5209 375.694 85.0291 375.913 85.618C376.131 86.207 376.241 86.8386 376.241 87.5131C376.241 88.2065 376.131 88.8572 375.913 89.4651C375.694 90.073 375.362 90.6002 374.915 91.0467C374.469 91.4931 373.913 91.8493 373.248 92.1153C372.583 92.3718 371.809 92.5 370.926 92.5H366.694V77.0832H369.986V82.7113ZM381 92.5H377.58V77.0832H381V92.5ZM369.986 85.2191V89.8071H370.926C371.363 89.8071 371.719 89.7453 371.995 89.6218C372.28 89.4888 372.498 89.3179 372.65 89.1089C372.802 88.9094 372.906 88.6814 372.963 88.425C373.02 88.159 373.049 87.893 373.049 87.627C373.049 87.3516 373.02 87.0714 372.963 86.7864C372.906 86.5014 372.802 86.2402 372.65 86.0027C372.498 85.7748 372.28 85.5895 371.995 85.447C371.719 85.2951 371.363 85.2191 370.926 85.2191H369.986ZM400.478 84.6491C400.478 83.5283 400.64 82.4929 400.963 81.543C401.286 80.5836 401.756 79.7524 402.373 79.0495C402.981 78.3466 403.727 77.7956 404.61 77.3967C405.494 76.9977 406.501 76.7983 407.631 76.7983C408.761 76.7983 409.768 76.9977 410.652 77.3967C411.545 77.7956 412.3 78.3466 412.917 79.0495C413.525 79.7524 413.99 80.5836 414.313 81.543C414.636 82.4929 414.798 83.5283 414.798 84.6491V84.9483C414.798 86.0787 414.636 87.1189 414.313 88.0687C413.99 89.0186 413.525 89.845 412.917 90.548C412.309 91.2509 411.559 91.8018 410.666 92.2008C409.782 92.5997 408.78 92.7992 407.659 92.7992C406.529 92.7992 405.517 92.5997 404.625 92.2008C403.732 91.8018 402.981 91.2509 402.373 90.548C401.756 89.845 401.286 89.0186 400.963 88.0687C400.64 87.1189 400.478 86.0787 400.478 84.9483V84.6491ZM403.884 84.9483C403.884 85.6418 403.955 86.2972 404.097 86.9146C404.249 87.5321 404.482 88.0735 404.796 88.5389C405.099 89.0044 405.489 89.3748 405.964 89.6503C406.439 89.9163 407.004 90.0493 407.659 90.0493C408.296 90.0493 408.852 89.9163 409.327 89.6503C409.801 89.3748 410.191 89.0044 410.495 88.5389C410.799 88.0735 411.022 87.5321 411.165 86.9146C411.317 86.2972 411.393 85.6418 411.393 84.9483V84.6491C411.393 83.9747 411.317 83.3288 411.165 82.7113C411.013 82.0939 410.789 81.5525 410.495 81.087C410.181 80.6216 409.787 80.2511 409.312 79.9756C408.847 79.7002 408.286 79.5624 407.631 79.5624C406.985 79.5624 406.425 79.7002 405.95 79.9756C405.484 80.2511 405.099 80.6216 404.796 81.087C404.482 81.5525 404.249 82.0939 404.097 82.7113C403.955 83.3288 403.884 83.9747 403.884 84.6491V84.9483ZM441.429 88.2967L444.065 77.0832H448.326V92.5H445.177V83.5235L442.583 92.5H440.261L437.668 83.5093V92.5H434.533V77.0832H438.822L441.429 88.2967ZM451.304 84.6491C451.304 83.5283 451.466 82.4929 451.788 81.543C452.111 80.5836 452.582 79.7524 453.199 79.0495C453.807 78.3466 454.553 77.7956 455.436 77.3967C456.319 76.9977 457.326 76.7983 458.457 76.7983C459.587 76.7983 460.594 76.9977 461.477 77.3967C462.37 77.7956 463.125 78.3466 463.743 79.0495C464.351 79.7524 464.816 80.5836 465.139 81.543C465.462 82.4929 465.624 83.5283 465.624 84.6491V84.9483C465.624 86.0787 465.462 87.1189 465.139 88.0687C464.816 89.0186 464.351 89.845 463.743 90.548C463.135 91.2509 462.385 91.8018 461.492 92.2008C460.608 92.5997 459.606 92.7992 458.485 92.7992C457.355 92.7992 456.343 92.5997 455.45 92.2008C454.557 91.8018 453.807 91.2509 453.199 90.548C452.582 89.845 452.111 89.0186 451.788 88.0687C451.466 87.1189 451.304 86.0787 451.304 84.9483V84.6491ZM454.709 84.9483C454.709 85.6418 454.781 86.2972 454.923 86.9146C455.075 87.5321 455.308 88.0735 455.621 88.5389C455.925 89.0044 456.315 89.3748 456.79 89.6503C457.265 89.9163 457.83 90.0493 458.485 90.0493C459.122 90.0493 459.677 89.9163 460.152 89.6503C460.627 89.3748 461.017 89.0044 461.321 88.5389C461.625 88.0735 461.848 87.5321 461.99 86.9146C462.142 86.2972 462.218 85.6418 462.218 84.9483V84.6491C462.218 83.9747 462.142 83.3288 461.99 82.7113C461.838 82.0939 461.615 81.5525 461.321 81.087C461.007 80.6216 460.613 80.2511 460.138 79.9756C459.673 79.7002 459.112 79.5624 458.457 79.5624C457.811 79.5624 457.25 79.7002 456.775 79.9756C456.31 80.2511 455.925 80.6216 455.621 81.087C455.308 81.5525 455.075 82.0939 454.923 82.7113C454.781 83.3288 454.709 83.9747 454.709 84.6491V84.9483ZM476.068 92.785C474.928 92.785 473.884 92.595 472.934 92.215C471.993 91.8351 471.186 91.3079 470.511 90.6335C469.837 89.9685 469.315 89.1849 468.944 88.2825C468.583 87.3706 468.403 86.3874 468.403 85.333V84.7489C468.403 83.5425 468.593 82.4501 468.973 81.4717C469.353 80.4933 469.875 79.6574 470.54 78.964C471.205 78.2706 471.974 77.7386 472.848 77.3682C473.732 76.9882 474.672 76.7983 475.669 76.7983C476.781 76.7983 477.764 76.9882 478.619 77.3682C479.474 77.7386 480.191 78.2563 480.77 78.9213C481.35 79.5957 481.787 80.3984 482.081 81.3292C482.376 82.2601 482.523 83.2765 482.523 84.3784V85.846H471.837V85.9172C471.941 86.5917 472.103 87.1568 472.321 87.6128C472.539 88.0687 472.839 88.4772 473.219 88.8382C473.599 89.2181 474.045 89.5126 474.558 89.7216C475.08 89.9305 475.65 90.035 476.268 90.035C477.113 90.035 477.902 89.8735 478.633 89.5506C479.364 89.2181 479.968 88.7479 480.443 88.14L482.266 89.9068C481.753 90.6477 480.965 91.3126 479.901 91.9016C478.847 92.4905 477.569 92.785 476.068 92.785ZM475.655 79.5624C475.171 79.5624 474.719 79.6527 474.302 79.8332C473.893 80.0041 473.527 80.2511 473.204 80.5741C472.881 80.9065 472.611 81.3055 472.392 81.7709C472.174 82.2364 472.012 82.7636 471.908 83.3525H479.16V83.1245C479.16 82.6781 479.08 82.2364 478.918 81.7994C478.757 81.353 478.529 80.9635 478.234 80.6311C477.949 80.3081 477.588 80.0516 477.151 79.8617C476.724 79.6622 476.225 79.5624 475.655 79.5624ZM495.518 77.0832H498.923V92.5H495.518V82.0274L488.992 92.5H485.587V77.0832H488.992V87.5701L495.518 77.0832ZM496.715 70.7712C496.715 71.3601 496.606 71.9063 496.387 72.4097C496.178 72.9037 495.879 73.3264 495.489 73.6779C495.081 74.0293 494.592 74.3048 494.022 74.5043C493.461 74.6942 492.83 74.7892 492.127 74.7892C491.414 74.7892 490.773 74.6942 490.203 74.5043C489.643 74.3048 489.163 74.0293 488.764 73.6779C488.365 73.3264 488.057 72.9037 487.838 72.4097C487.62 71.9158 487.51 71.3696 487.51 70.7712H490.061C490.061 71.0371 490.099 71.2936 490.175 71.5406C490.26 71.7781 490.384 71.9918 490.545 72.1818C490.707 72.3622 490.916 72.5095 491.172 72.6235C491.438 72.728 491.756 72.7802 492.127 72.7802C492.488 72.7802 492.797 72.728 493.053 72.6235C493.309 72.5095 493.523 72.3575 493.694 72.1675C493.856 71.987 493.974 71.7781 494.05 71.5406C494.126 71.2936 494.164 71.0371 494.164 70.7712H496.715ZM519.727 98.4273V77.0832H522.862L522.99 78.6648C523.199 78.4083 523.427 78.1756 523.674 77.9666C523.921 77.7576 524.187 77.5772 524.472 77.4252C524.842 77.2257 525.251 77.0737 525.697 76.9692C526.144 76.8552 526.619 76.7983 527.122 76.7983C528.11 76.7983 528.979 76.9882 529.73 77.3682C530.489 77.7481 531.126 78.2848 531.639 78.9783C532.142 79.6717 532.527 80.5028 532.793 81.4717C533.059 82.4311 533.192 83.4903 533.192 84.6491V84.9483C533.192 86.0597 533.059 87.0951 532.793 88.0545C532.536 89.0139 532.152 89.8403 531.639 90.5337C531.126 91.2366 530.494 91.7876 529.744 92.1865C528.993 92.5855 528.134 92.785 527.165 92.785C526.614 92.785 526.106 92.728 525.64 92.614C525.184 92.5 524.762 92.3338 524.372 92.1153C524.144 91.9823 523.926 91.8303 523.717 91.6593C523.508 91.4884 523.313 91.3031 523.133 91.1037V98.4273H519.727ZM529.787 84.6491C529.787 83.9557 529.715 83.305 529.573 82.6971C529.44 82.0797 529.231 81.543 528.946 81.087C528.651 80.6311 528.276 80.2701 527.82 80.0041C527.364 79.7382 526.818 79.6052 526.182 79.6052C525.83 79.6052 525.503 79.6432 525.199 79.7192C524.895 79.7952 524.624 79.9044 524.386 80.0469C524.111 80.1989 523.869 80.3889 523.66 80.6168C523.46 80.8448 523.285 81.1013 523.133 81.3862V88.2397C523.266 88.5057 523.427 88.7479 523.617 88.9664C523.807 89.1849 524.025 89.3748 524.272 89.5363C524.529 89.6883 524.819 89.8118 525.142 89.9068C525.465 89.9923 525.821 90.035 526.21 90.035C526.847 90.035 527.388 89.902 527.835 89.6361C528.29 89.3606 528.661 88.9901 528.946 88.5247C529.24 88.0497 529.454 87.5083 529.587 86.9004C529.72 86.2829 529.787 85.6323 529.787 84.9483V84.6491ZM546.486 92.5C546.382 92.31 546.296 92.082 546.23 91.8161C546.173 91.5406 546.121 91.2556 546.073 90.9612C545.836 91.2081 545.565 91.4456 545.261 91.6736C544.966 91.8921 544.634 92.082 544.264 92.2435C543.893 92.4145 543.494 92.5475 543.067 92.6425C542.639 92.7375 542.179 92.785 541.685 92.785C540.887 92.785 540.155 92.671 539.49 92.443C538.835 92.2055 538.274 91.8826 537.809 91.4741C537.334 91.0752 536.964 90.5955 536.698 90.035C536.441 89.4651 536.313 88.8524 536.313 88.197C536.313 87.3516 536.479 86.6059 536.812 85.96C537.154 85.3046 537.648 84.7631 538.293 84.3357C538.892 83.9367 539.628 83.6327 540.502 83.4238C541.385 83.2148 542.383 83.1103 543.494 83.1103H545.973V82.0702C545.973 81.6712 545.902 81.3102 545.76 80.9873C545.627 80.6643 545.432 80.3841 545.175 80.1466C544.9 79.9092 544.563 79.7287 544.164 79.6052C543.774 79.4722 543.323 79.4057 542.81 79.4057C542.345 79.4057 541.936 79.4627 541.585 79.5767C541.243 79.6907 540.958 79.8474 540.73 80.0469C540.502 80.2274 540.331 80.4506 540.217 80.7166C540.112 80.973 540.06 81.2485 540.06 81.543H536.641C536.65 80.9255 536.797 80.3319 537.082 79.7619C537.367 79.192 537.785 78.6885 538.336 78.2516C538.868 77.8051 539.524 77.4537 540.302 77.1972C541.091 76.9312 541.989 76.7983 542.995 76.7983C543.898 76.7983 544.738 76.9122 545.517 77.1402C546.306 77.3587 546.985 77.6864 547.555 78.1234C548.125 78.5603 548.571 79.116 548.894 79.7904C549.217 80.4553 549.379 81.2248 549.379 82.0987V88.9521C549.379 89.6456 549.426 90.2725 549.521 90.8329C549.626 91.3839 549.773 91.8588 549.963 92.2578V92.5H546.486ZM542.34 90.0493C542.786 90.0493 543.2 89.9923 543.58 89.8783C543.969 89.7643 544.321 89.6171 544.634 89.4366C544.947 89.2561 545.218 89.0519 545.446 88.8239C545.674 88.5959 545.85 88.3585 545.973 88.1115V85.2618H543.779C543.038 85.2618 542.397 85.333 541.856 85.4755C541.314 85.6085 540.882 85.8032 540.559 86.0597C540.274 86.2782 540.06 86.5394 539.918 86.8434C539.785 87.1473 539.718 87.4893 539.718 87.8693C539.718 88.1827 539.775 88.4772 539.889 88.7527C540.003 89.0186 540.169 89.2466 540.388 89.4366C540.606 89.6266 540.877 89.7786 541.2 89.8925C541.523 89.997 541.903 90.0493 542.34 90.0493ZM560.821 77.9524C561.847 77.9524 562.754 78.1329 563.542 78.4938C564.34 78.8548 565.015 79.3487 565.565 79.9756C566.116 80.6121 566.534 81.3625 566.819 82.2269C567.114 83.0913 567.261 84.0317 567.261 85.0481V85.3615C567.261 86.4254 567.104 87.4133 566.791 88.3252C566.477 89.2276 566.017 90.0113 565.409 90.6762C564.81 91.3411 564.069 91.8636 563.186 92.2435C562.312 92.614 561.315 92.7992 560.194 92.7992C559.063 92.7992 558.057 92.6045 557.173 92.215C556.299 91.8161 555.558 91.2746 554.95 90.5907C554.342 89.8973 553.882 89.0804 553.568 88.14C553.255 87.1901 553.098 86.1595 553.098 85.0481V83.951C553.098 83.0676 553.141 82.2364 553.226 81.4575C553.312 80.6786 553.435 79.9566 553.597 79.2917C553.758 78.6078 553.953 77.9761 554.181 77.3967C554.418 76.8172 554.694 76.2901 555.007 75.8151C555.606 74.8747 556.333 74.129 557.187 73.5781C558.042 73.0272 558.997 72.6425 560.051 72.424C560.564 72.3195 561.015 72.215 561.405 72.1105C561.804 72.006 562.146 71.8778 562.431 71.7258C562.697 71.5738 562.901 71.3886 563.044 71.1701C563.186 70.9422 563.257 70.6667 563.257 70.3437H566.021C566.021 71.1701 565.907 71.8588 565.679 72.4097C565.451 72.9512 565.105 73.4024 564.639 73.7633C564.202 74.1053 563.675 74.3808 563.058 74.5897C562.45 74.7987 561.666 74.9982 560.707 75.1882C560.089 75.3212 559.519 75.5064 558.997 75.7439C558.484 75.9813 558.023 76.2948 557.615 76.6843C557.206 77.0642 556.86 77.5344 556.575 78.0949C556.299 78.6553 556.095 79.325 555.962 80.1039C556.266 79.7809 556.589 79.4912 556.931 79.2347C557.282 78.9688 557.653 78.7408 558.042 78.5508C558.451 78.3608 558.888 78.2136 559.353 78.1091C559.819 78.0046 560.308 77.9524 560.821 77.9524ZM560.165 80.7166C559.519 80.7166 558.964 80.8353 558.498 81.0728C558.033 81.3007 557.658 81.6142 557.373 82.0132C557.069 82.4121 556.845 82.8728 556.703 83.3953C556.57 83.9177 556.503 84.4686 556.503 85.0481V85.3615C556.503 85.998 556.57 86.6012 556.703 87.1711C556.845 87.741 557.069 88.2397 557.373 88.6672C557.658 89.0946 558.033 89.4318 558.498 89.6788C558.973 89.9258 559.538 90.0493 560.194 90.0493C560.84 90.0493 561.391 89.9258 561.847 89.6788C562.312 89.4318 562.692 89.0946 562.987 88.6672C563.281 88.2397 563.499 87.741 563.642 87.1711C563.784 86.6012 563.856 85.998 563.856 85.3615V85.0481C563.856 84.4686 563.784 83.9177 563.642 83.3953C563.499 82.8728 563.281 82.4121 562.987 82.0132C562.692 81.6142 562.307 81.3007 561.832 81.0728C561.367 80.8353 560.811 80.7166 560.165 80.7166ZM569.898 84.6491C569.898 83.5283 570.059 82.4929 570.382 81.543C570.705 80.5836 571.175 79.7524 571.793 79.0495C572.401 78.3466 573.146 77.7956 574.03 77.3967C574.913 76.9977 575.92 76.7983 577.05 76.7983C578.181 76.7983 579.188 76.9977 580.071 77.3967C580.964 77.7956 581.719 78.3466 582.336 79.0495C582.944 79.7524 583.41 80.5836 583.733 81.543C584.056 82.4929 584.217 83.5283 584.217 84.6491V84.9483C584.217 86.0787 584.056 87.1189 583.733 88.0687C583.41 89.0186 582.944 89.845 582.336 90.548C581.728 91.2509 580.978 91.8018 580.085 92.2008C579.202 92.5997 578.2 92.7992 577.079 92.7992C575.948 92.7992 574.937 92.5997 574.044 92.2008C573.151 91.8018 572.401 91.2509 571.793 90.548C571.175 89.845 570.705 89.0186 570.382 88.0687C570.059 87.1189 569.898 86.0787 569.898 84.9483V84.6491ZM573.303 84.9483C573.303 85.6418 573.374 86.2972 573.517 86.9146C573.669 87.5321 573.901 88.0735 574.215 88.5389C574.519 89.0044 574.908 89.3748 575.383 89.6503C575.858 89.9163 576.423 90.0493 577.079 90.0493C577.715 90.0493 578.271 89.9163 578.746 89.6503C579.221 89.3748 579.61 89.0044 579.914 88.5389C580.218 88.0735 580.441 87.5321 580.584 86.9146C580.736 86.2972 580.812 85.6418 580.812 84.9483V84.6491C580.812 83.9747 580.736 83.3288 580.584 82.7113C580.432 82.0939 580.209 81.5525 579.914 81.087C579.601 80.6216 579.207 80.2511 578.732 79.9756C578.266 79.7002 577.706 79.5624 577.05 79.5624C576.404 79.5624 575.844 79.7002 575.369 79.9756C574.903 80.2511 574.519 80.6216 574.215 81.087C573.901 81.5525 573.669 82.0939 573.517 82.7113C573.374 83.3288 573.303 83.9747 573.303 84.6491V84.9483ZM602.057 79.8189H596.03V92.5H592.61V79.8189H586.654V77.0832H602.057V79.8189ZM611.604 92.785C610.464 92.785 609.419 92.595 608.469 92.215C607.529 91.8351 606.721 91.3079 606.047 90.6335C605.372 89.9685 604.85 89.1849 604.48 88.2825C604.119 87.3706 603.938 86.3874 603.938 85.333V84.7489C603.938 83.5425 604.128 82.4501 604.508 81.4717C604.888 80.4933 605.41 79.6574 606.075 78.964C606.74 78.2706 607.51 77.7386 608.384 77.3682C609.267 76.9882 610.207 76.7983 611.205 76.7983C612.316 76.7983 613.299 76.9882 614.154 77.3682C615.009 77.7386 615.726 78.2563 616.306 78.9213C616.885 79.5957 617.322 80.3984 617.617 81.3292C617.911 82.2601 618.058 83.2765 618.058 84.3784V85.846H607.372V85.9172C607.476 86.5917 607.638 87.1568 607.856 87.6128C608.075 88.0687 608.374 88.4772 608.754 88.8382C609.134 89.2181 609.581 89.5126 610.093 89.7216C610.616 89.9305 611.186 90.035 611.803 90.035C612.649 90.035 613.437 89.8735 614.168 89.5506C614.9 89.2181 615.503 88.7479 615.978 88.14L617.802 89.9068C617.289 90.6477 616.5 91.3126 615.437 91.9016C614.382 92.4905 613.105 92.785 611.604 92.785ZM611.191 79.5624C610.706 79.5624 610.255 79.6527 609.837 79.8332C609.429 80.0041 609.063 80.2511 608.74 80.5741C608.417 80.9065 608.146 81.3055 607.928 81.7709C607.709 82.2364 607.548 82.7636 607.443 83.3525H614.696V83.1245C614.696 82.6781 614.615 82.2364 614.453 81.7994C614.292 81.353 614.064 80.9635 613.77 80.6311C613.485 80.3081 613.124 80.0516 612.687 79.8617C612.259 79.6622 611.761 79.5624 611.191 79.5624Z" fill="white"/>
<path d="M1187.31 59.4014C1187.59 61.8554 1187.74 63.0824 1187.97 64.159C1189.81 72.4911 1196.32 78.9987 1204.65 80.8336C1205.73 81.0707 1206.95 81.2139 1209.41 81.5002C1206.95 81.7865 1205.73 81.9297 1204.65 82.1668C1196.32 84.0017 1189.81 90.5092 1187.97 98.8414C1187.74 99.918 1187.59 101.145 1187.31 103.599L1187.22 103.008C1186.87 100.563 1186.7 99.3406 1186.43 98.265C1184.43 90.2211 1178.06 83.9964 1169.97 82.1836C1168.89 81.9412 1167.66 81.7942 1165.21 81.5002C1167.66 81.2062 1168.89 81.0592 1169.97 80.8168C1178.06 79.004 1184.43 72.7793 1186.43 64.7353C1186.7 63.6598 1186.87 62.4375 1187.22 59.9928L1187.31 59.4014Z" fill="white"/>
<path d="M1225.51 59.4014C1225.79 61.8554 1225.93 63.0824 1226.17 64.159C1228.01 72.4911 1234.51 78.9987 1242.85 80.8336C1243.92 81.0707 1245.15 81.2139 1247.6 81.5002C1245.15 81.7865 1243.92 81.9297 1242.85 82.1668C1234.51 84.0017 1228.01 90.5092 1226.17 98.8414C1225.93 99.918 1225.79 101.145 1225.51 103.599L1225.42 103.008C1225.07 100.563 1224.89 99.3406 1224.63 98.265C1222.63 90.2211 1216.25 83.9964 1208.17 82.1836C1207.08 81.9412 1205.86 81.7942 1203.41 81.5002C1205.86 81.2062 1207.08 81.0592 1208.17 80.8168C1216.25 79.004 1222.63 72.7793 1224.63 64.7353C1224.89 63.6598 1225.07 62.4375 1225.42 59.9928L1225.51 59.4014Z" fill="white"/>
<path d="M1263.7 59.4014C1263.99 61.8554 1264.13 63.0824 1264.37 64.159C1266.2 72.4911 1272.71 78.9987 1281.04 80.8336C1282.12 81.0707 1283.35 81.2139 1285.8 81.5002C1283.35 81.7865 1282.12 81.9297 1281.04 82.1668C1272.71 84.0017 1266.2 90.5092 1264.37 98.8414C1264.13 99.918 1263.99 101.145 1263.7 103.599L1263.62 103.008C1263.27 100.563 1263.09 99.3406 1262.82 98.265C1260.82 90.2211 1254.45 83.9964 1246.36 82.1836C1245.28 81.9412 1244.06 81.7942 1241.6 81.5002C1244.06 81.2062 1245.28 81.0592 1246.36 80.8168C1254.45 79.004 1260.82 72.7793 1262.82 64.7353C1263.09 63.6598 1263.27 62.4375 1263.62 59.9928L1263.7 59.4014Z" fill="white"/>
<path d="M1301.9 59.4014C1302.19 61.8554 1302.33 63.0824 1302.57 64.159C1304.4 72.4911 1310.91 78.9987 1319.24 80.8336C1320.32 81.0707 1321.55 81.2139 1324 81.5002C1321.55 81.7865 1320.32 81.9297 1319.24 82.1668C1310.91 84.0017 1304.4 90.5092 1302.57 98.8414C1302.33 99.918 1302.19 101.145 1301.9 103.599L1301.82 103.008C1301.47 100.563 1301.29 99.3406 1301.02 98.265C1299.02 90.2211 1292.65 83.9964 1284.56 82.1836C1283.48 81.9412 1282.25 81.7942 1279.8 81.5002C1282.25 81.2062 1283.48 81.0592 1284.56 80.8168C1292.65 79.004 1299.02 72.7793 1301.02 64.7353C1301.29 63.6598 1301.47 62.4375 1301.82 59.9928L1301.9 59.4014Z" fill="white"/>
</svg>
