<svg width="1399" height="270" viewBox="0 0 1399 270" fill="none" xmlns="http://www.w3.org/2000/svg">
<rect width="1399" height="270" rx="20" fill="#0066FF" fill-opacity="0.2"/>
<rect x="1.5" y="1.5" width="1396" height="267" rx="18.5" stroke="#0066FF" stroke-opacity="0.5" stroke-width="3"/>
<rect x="423" y="25" width="553" height="220" rx="11" fill="white"/>
<path d="M458.22 76H455.278V60.6191H449.626V76H446.685V58.2266H458.22V76ZM461.431 81.0781V62.792H464.117L464.227 64.147C464.406 63.9272 464.601 63.7279 464.812 63.5488C465.024 63.3698 465.252 63.2152 465.496 63.085C465.813 62.9141 466.163 62.7839 466.546 62.6943C466.928 62.5967 467.335 62.5479 467.767 62.5479C468.613 62.5479 469.358 62.7106 470 63.0361C470.652 63.3617 471.197 63.8215 471.636 64.4155C472.068 65.0096 472.397 65.7217 472.625 66.5518C472.853 67.3737 472.967 68.2811 472.967 69.2739V69.5303C472.967 70.4824 472.853 71.3695 472.625 72.1914C472.405 73.0133 472.076 73.7214 471.636 74.3154C471.197 74.9176 470.656 75.3896 470.013 75.7314C469.37 76.0732 468.633 76.2441 467.803 76.2441C467.331 76.2441 466.896 76.1953 466.497 76.0977C466.106 76 465.744 75.8576 465.411 75.6704C465.215 75.5565 465.028 75.4263 464.849 75.2798C464.67 75.1333 464.503 74.9746 464.349 74.8037V81.0781H461.431ZM470.049 69.2739C470.049 68.6799 469.988 68.1224 469.866 67.6016C469.752 67.0726 469.573 66.6128 469.329 66.2222C469.077 65.8315 468.755 65.5223 468.365 65.2944C467.974 65.0666 467.506 64.9526 466.961 64.9526C466.66 64.9526 466.379 64.9852 466.119 65.0503C465.858 65.1154 465.626 65.209 465.423 65.3311C465.187 65.4613 464.979 65.624 464.8 65.8193C464.629 66.0146 464.479 66.2344 464.349 66.4785V72.3501C464.463 72.578 464.601 72.7855 464.764 72.9727C464.926 73.1598 465.114 73.3226 465.325 73.4609C465.545 73.5911 465.793 73.6969 466.07 73.7783C466.347 73.8516 466.652 73.8882 466.985 73.8882C467.531 73.8882 467.994 73.7743 468.377 73.5464C468.768 73.3104 469.085 72.993 469.329 72.5942C469.581 72.1873 469.764 71.7235 469.878 71.2026C469.992 70.6737 470.049 70.1162 470.049 69.5303V69.2739ZM484.234 62.792H487.152V76H484.234V67.0278L478.644 76H475.726V62.792H478.644V71.7764L484.234 62.792ZM490.363 76V62.792H495.722C496.56 62.792 497.317 62.8693 497.992 63.0239C498.676 63.1704 499.258 63.3901 499.738 63.6831C500.218 63.9842 500.584 64.3667 500.836 64.8306C501.097 65.2863 501.227 65.8275 501.227 66.4541C501.227 66.8203 501.158 67.1662 501.02 67.4917C500.881 67.8172 500.678 68.1102 500.409 68.3706C500.23 68.5415 500.019 68.7002 499.774 68.8467C499.53 68.985 499.262 69.1071 498.969 69.2129L499.091 69.2373C499.53 69.3431 499.913 69.4937 500.238 69.689C500.572 69.8761 500.857 70.0959 501.093 70.3481C501.329 70.6167 501.504 70.9097 501.618 71.2271C501.74 71.5444 501.801 71.8822 501.801 72.2402C501.801 72.8669 501.679 73.4162 501.435 73.8882C501.199 74.3521 500.857 74.7386 500.409 75.0479C499.962 75.3652 499.412 75.6053 498.761 75.7681C498.118 75.9227 497.386 76 496.564 76H490.363ZM493.28 70.3726V73.6685H496.564C496.971 73.6685 497.321 73.6318 497.614 73.5586C497.915 73.4772 498.159 73.3674 498.346 73.229C498.525 73.0907 498.66 72.9198 498.749 72.7163C498.839 72.5129 498.883 72.2809 498.883 72.0205C498.883 71.7682 498.839 71.5444 498.749 71.3491C498.66 71.1457 498.525 70.9748 498.346 70.8364C498.159 70.6899 497.915 70.576 497.614 70.4946C497.321 70.4132 496.971 70.3726 496.564 70.3726H493.28ZM493.28 68.2729H495.832C496.287 68.2729 496.682 68.2363 497.016 68.1631C497.349 68.0817 497.618 67.9596 497.821 67.7969C497.984 67.6748 498.106 67.5283 498.188 67.3574C498.269 67.1865 498.31 66.9871 498.31 66.7593C498.31 66.4907 498.257 66.2588 498.151 66.0635C498.053 65.86 497.899 65.6891 497.687 65.5508C497.484 65.4124 497.215 65.3107 496.881 65.2456C496.548 65.1724 496.161 65.1357 495.722 65.1357H493.28V68.2729ZM511.115 76.2441C510.139 76.2441 509.243 76.0814 508.43 75.7559C507.624 75.4303 506.932 74.9787 506.354 74.4009C505.777 73.8312 505.329 73.1598 505.012 72.3867C504.702 71.6055 504.548 70.7632 504.548 69.8599V69.3594C504.548 68.3258 504.711 67.39 505.036 66.5518C505.362 65.7135 505.809 64.9974 506.379 64.4033C506.949 63.8092 507.608 63.3535 508.356 63.0361C509.113 62.7106 509.919 62.5479 510.773 62.5479C511.726 62.5479 512.568 62.7106 513.3 63.0361C514.033 63.3535 514.647 63.797 515.144 64.3667C515.64 64.9445 516.014 65.6322 516.267 66.4297C516.519 67.2272 516.645 68.098 516.645 69.042V70.2993H507.49V70.3604C507.579 70.9382 507.718 71.4224 507.905 71.813C508.092 72.2036 508.348 72.5535 508.674 72.8628C508.999 73.1883 509.382 73.4406 509.821 73.6196C510.269 73.7987 510.757 73.8882 511.286 73.8882C512.01 73.8882 512.686 73.7498 513.312 73.4731C513.939 73.1883 514.456 72.7855 514.863 72.2646L516.425 73.7783C515.986 74.4131 515.31 74.9827 514.399 75.4873C513.496 75.9919 512.401 76.2441 511.115 76.2441ZM510.761 64.916C510.346 64.916 509.96 64.9933 509.602 65.1479C509.252 65.2944 508.938 65.506 508.662 65.7827C508.385 66.0675 508.153 66.4093 507.966 66.8081C507.779 67.2069 507.64 67.6585 507.551 68.1631H513.764V67.9678C513.764 67.5853 513.695 67.2069 513.557 66.8325C513.418 66.45 513.223 66.1164 512.971 65.8315C512.727 65.5549 512.417 65.3351 512.043 65.1724C511.677 65.0015 511.25 64.916 510.761 64.916ZM531.965 65.1357H526.802V76H523.872V65.1357H518.77V62.792H531.965V65.1357ZM540.413 75.6216C540.413 76.5005 540.197 77.3916 539.766 78.2949C539.343 79.2064 538.781 79.9754 538.082 80.6021L536.446 79.7354C536.796 79.1576 537.064 78.5472 537.251 77.9043C537.447 77.2614 537.544 76.5371 537.544 75.7314V73.1558H540.413V75.6216ZM568.027 72.3989L570.285 62.792H573.935V76H571.237V68.3096L569.016 76H567.026L564.804 68.2974V76H562.119V62.792H565.793L568.027 72.3989ZM582.938 76.2441C581.962 76.2441 581.067 76.0814 580.253 75.7559C579.447 75.4303 578.756 74.9787 578.178 74.4009C577.6 73.8312 577.152 73.1598 576.835 72.3867C576.526 71.6055 576.371 70.7632 576.371 69.8599V69.3594C576.371 68.3258 576.534 67.39 576.859 66.5518C577.185 65.7135 577.632 64.9974 578.202 64.4033C578.772 63.8092 579.431 63.3535 580.18 63.0361C580.937 62.7106 581.742 62.5479 582.597 62.5479C583.549 62.5479 584.391 62.7106 585.124 63.0361C585.856 63.3535 586.47 63.797 586.967 64.3667C587.463 64.9445 587.838 65.6322 588.09 66.4297C588.342 67.2272 588.468 68.098 588.468 69.042V70.2993H579.313V70.3604C579.403 70.9382 579.541 71.4224 579.728 71.813C579.915 72.2036 580.172 72.5535 580.497 72.8628C580.823 73.1883 581.205 73.4406 581.645 73.6196C582.092 73.7987 582.58 73.8882 583.109 73.8882C583.834 73.8882 584.509 73.7498 585.136 73.4731C585.762 73.1883 586.279 72.7855 586.686 72.2646L588.249 73.7783C587.809 74.4131 587.134 74.9827 586.222 75.4873C585.319 75.9919 584.224 76.2441 582.938 76.2441ZM582.584 64.916C582.169 64.916 581.783 64.9933 581.425 65.1479C581.075 65.2944 580.762 65.506 580.485 65.7827C580.208 66.0675 579.976 66.4093 579.789 66.8081C579.602 67.2069 579.464 67.6585 579.374 68.1631H585.587V67.9678C585.587 67.5853 585.518 67.2069 585.38 66.8325C585.242 66.45 585.046 66.1164 584.794 65.8315C584.55 65.5549 584.241 65.3351 583.866 65.1724C583.5 65.0015 583.073 64.916 582.584 64.916ZM602.269 76H599.339V70.6533H593.773V76H590.843V62.792H593.773V68.2974H599.339V62.792H602.269V76ZM616.656 62.792V76H613.738V71.1538H610.235L607.403 76H604.363L607.464 70.6777C606.658 70.3522 606.032 69.8721 605.584 69.2373C605.136 68.5944 604.913 67.8579 604.913 67.0278C604.913 66.4093 605.035 65.8438 605.279 65.3311C605.531 64.8184 605.885 64.3708 606.341 63.9883C606.805 63.6139 607.366 63.321 608.025 63.1094C608.685 62.8978 609.433 62.792 610.271 62.792H616.656ZM607.842 67.0889C607.842 67.3249 607.887 67.5568 607.977 67.7847C608.066 68.0125 608.204 68.216 608.392 68.395C608.579 68.5741 608.811 68.7205 609.087 68.8345C609.372 68.9403 609.706 68.9932 610.088 68.9932H613.738V65.1357H610.271C609.856 65.1357 609.494 65.1927 609.185 65.3066C608.884 65.4206 608.636 65.5711 608.44 65.7583C608.237 65.9455 608.086 66.1571 607.989 66.3931C607.891 66.6209 607.842 66.8529 607.842 67.0889ZM633.442 72.0938H636.347C636.347 72.346 636.42 72.5902 636.567 72.8262C636.722 73.054 636.941 73.2534 637.226 73.4243C637.503 73.6034 637.836 73.7458 638.227 73.8516C638.618 73.9574 639.053 74.0103 639.533 74.0103C640.013 74.0103 640.441 73.9614 640.815 73.8638C641.197 73.758 641.519 73.6196 641.779 73.4487C642.032 73.2778 642.223 73.0825 642.353 72.8628C642.491 72.6349 642.561 72.3949 642.561 72.1426C642.561 71.8659 642.508 71.6217 642.402 71.4102C642.304 71.1986 642.162 71.0236 641.975 70.8853C641.836 70.7713 641.669 70.6777 641.474 70.6045C641.287 70.5231 641.075 70.458 640.839 70.4092C640.652 70.3766 640.453 70.3522 640.241 70.3359C640.038 70.3197 639.822 70.3115 639.594 70.3115H636.909V68.1997H639.594C639.814 68.1997 640.021 68.1916 640.217 68.1753C640.412 68.159 640.591 68.1346 640.754 68.1021C640.974 68.0532 641.169 67.9922 641.34 67.9189C641.519 67.8457 641.674 67.7603 641.804 67.6626C641.975 67.5243 642.105 67.3615 642.194 67.1743C642.284 66.9871 642.329 66.7796 642.329 66.5518C642.329 66.332 642.272 66.1164 642.158 65.9048C642.044 65.6932 641.877 65.506 641.657 65.3433C641.421 65.1886 641.124 65.0625 640.766 64.9648C640.416 64.8672 640.005 64.8184 639.533 64.8184C639.118 64.8184 638.732 64.8631 638.374 64.9526C638.015 65.034 637.702 65.1479 637.434 65.2944C637.157 65.4409 636.941 65.62 636.787 65.8315C636.632 66.0431 636.555 66.2791 636.555 66.5396H633.649C633.649 65.9211 633.804 65.3677 634.113 64.8794C634.423 64.383 634.842 63.9598 635.371 63.6099C635.891 63.2762 636.502 63.0199 637.202 62.8408C637.91 62.6536 638.658 62.5601 639.448 62.5601C640.302 62.5601 641.088 62.6455 641.804 62.8164C642.52 62.9792 643.134 63.2192 643.647 63.5366C644.152 63.8621 644.542 64.265 644.819 64.7451C645.104 65.2171 645.246 65.7705 645.246 66.4053C645.246 66.7796 645.161 67.1377 644.99 67.4795C644.819 67.8132 644.579 68.1143 644.27 68.3828C644.09 68.5456 643.883 68.6961 643.647 68.8345C643.411 68.9728 643.155 69.0949 642.878 69.2007C643.236 69.3146 643.557 69.4489 643.842 69.6035C644.127 69.7581 644.379 69.9372 644.599 70.1406C644.884 70.4092 645.104 70.7225 645.258 71.0806C645.413 71.4386 645.49 71.8374 645.49 72.2769C645.49 72.9035 645.336 73.465 645.026 73.9614C644.717 74.4497 644.294 74.8607 643.757 75.1943C643.22 75.5361 642.581 75.7965 641.84 75.9756C641.108 76.1546 640.31 76.2441 639.448 76.2441C638.683 76.2441 637.93 76.1587 637.189 75.9878C636.449 75.8088 635.798 75.5361 635.236 75.1699C634.699 74.8444 634.264 74.4253 633.93 73.9126C633.605 73.3999 633.442 72.7936 633.442 72.0938ZM647.56 69.2739C647.56 68.3136 647.698 67.4266 647.975 66.6128C648.252 65.7909 648.655 65.0788 649.184 64.4766C649.704 63.8743 650.343 63.4023 651.1 63.0605C651.857 62.7188 652.72 62.5479 653.688 62.5479C654.656 62.5479 655.519 62.7188 656.276 63.0605C657.041 63.4023 657.688 63.8743 658.217 64.4766C658.738 65.0788 659.136 65.7909 659.413 66.6128C659.69 67.4266 659.828 68.3136 659.828 69.2739V69.5303C659.828 70.4987 659.69 71.3898 659.413 72.2036C659.136 73.0174 658.738 73.7254 658.217 74.3276C657.696 74.9299 657.053 75.4019 656.288 75.7437C655.531 76.0854 654.673 76.2563 653.712 76.2563C652.744 76.2563 651.877 76.0854 651.112 75.7437C650.347 75.4019 649.704 74.9299 649.184 74.3276C648.655 73.7254 648.252 73.0174 647.975 72.2036C647.698 71.3898 647.56 70.4987 647.56 69.5303V69.2739ZM650.478 69.5303C650.478 70.1243 650.539 70.6859 650.661 71.2148C650.791 71.7438 650.99 72.2077 651.259 72.6064C651.519 73.0052 651.853 73.3226 652.26 73.5586C652.667 73.7865 653.151 73.9004 653.712 73.9004C654.258 73.9004 654.734 73.7865 655.141 73.5586C655.548 73.3226 655.881 73.0052 656.142 72.6064C656.402 72.2077 656.593 71.7438 656.715 71.2148C656.846 70.6859 656.911 70.1243 656.911 69.5303V69.2739C656.911 68.6961 656.846 68.1427 656.715 67.6138C656.585 67.0848 656.394 66.6209 656.142 66.2222C655.873 65.8234 655.535 65.506 655.128 65.27C654.73 65.034 654.25 64.916 653.688 64.916C653.135 64.916 652.654 65.034 652.248 65.27C651.849 65.506 651.519 65.8234 651.259 66.2222C650.99 66.6209 650.791 67.0848 650.661 67.6138C650.539 68.1427 650.478 68.6961 650.478 69.2739V69.5303ZM662.289 76V62.792H667.647C668.486 62.792 669.243 62.8693 669.918 63.0239C670.602 63.1704 671.183 63.3901 671.664 63.6831C672.144 63.9842 672.51 64.3667 672.762 64.8306C673.023 65.2863 673.153 65.8275 673.153 66.4541C673.153 66.8203 673.084 67.1662 672.945 67.4917C672.807 67.8172 672.604 68.1102 672.335 68.3706C672.156 68.5415 671.944 68.7002 671.7 68.8467C671.456 68.985 671.188 69.1071 670.895 69.2129L671.017 69.2373C671.456 69.3431 671.839 69.4937 672.164 69.689C672.498 69.8761 672.783 70.0959 673.019 70.3481C673.255 70.6167 673.43 70.9097 673.543 71.2271C673.666 71.5444 673.727 71.8822 673.727 72.2402C673.727 72.8669 673.604 73.4162 673.36 73.8882C673.124 74.3521 672.783 74.7386 672.335 75.0479C671.887 75.3652 671.338 75.6053 670.687 75.7681C670.044 75.9227 669.312 76 668.49 76H662.289ZM665.206 70.3726V73.6685H668.49C668.897 73.6685 669.247 73.6318 669.54 73.5586C669.841 73.4772 670.085 73.3674 670.272 73.229C670.451 73.0907 670.585 72.9198 670.675 72.7163C670.764 72.5129 670.809 72.2809 670.809 72.0205C670.809 71.7682 670.764 71.5444 670.675 71.3491C670.585 71.1457 670.451 70.9748 670.272 70.8364C670.085 70.6899 669.841 70.576 669.54 70.4946C669.247 70.4132 668.897 70.3726 668.49 70.3726H665.206ZM665.206 68.2729H667.757C668.213 68.2729 668.608 68.2363 668.941 68.1631C669.275 68.0817 669.544 67.9596 669.747 67.7969C669.91 67.6748 670.032 67.5283 670.113 67.3574C670.195 67.1865 670.235 66.9871 670.235 66.7593C670.235 66.4907 670.182 66.2588 670.077 66.0635C669.979 65.86 669.824 65.6891 669.613 65.5508C669.409 65.4124 669.141 65.3107 668.807 65.2456C668.473 65.1724 668.087 65.1357 667.647 65.1357H665.206V68.2729ZM678.287 81.3345C678.002 81.3345 677.729 81.3101 677.469 81.2612C677.216 81.2205 676.972 81.1717 676.736 81.1147L677.139 78.832C677.302 78.8402 677.485 78.8483 677.688 78.8564C677.9 78.8727 678.071 78.8809 678.201 78.8809C678.486 78.8809 678.742 78.7954 678.97 78.6245C679.198 78.4618 679.397 78.2746 679.568 78.063C679.731 77.8514 679.861 77.6642 679.959 77.5015C680.065 77.3387 680.162 77.1678 680.252 76.9888L681.082 75.4141L675.455 62.792H678.665L681.949 70.8608L682.4 72.3135L682.95 70.8975L686.136 62.792H689.371L682.669 78.002C682.514 78.3438 682.319 78.7059 682.083 79.0884C681.855 79.479 681.566 79.8371 681.216 80.1626C680.866 80.4963 680.451 80.7729 679.971 80.9927C679.491 81.2205 678.93 81.3345 678.287 81.3345ZM703.391 65.1357H698.228V76H695.298V65.1357H690.195V62.792H703.391V65.1357ZM455.217 90.7993H452.874V110.672H455.217V112.967H450.017V88.5044H455.217V90.7993ZM549.76 88.5044H554.972V112.967H549.76V110.672H552.116V90.7993H549.76V88.5044ZM567.442 108.622C567.442 109.5 567.227 110.392 566.795 111.295C566.372 112.206 565.811 112.975 565.111 113.602L563.475 112.735C563.825 112.158 564.094 111.547 564.281 110.904C564.476 110.261 564.574 109.537 564.574 108.731V106.156H567.442V108.622ZM600.391 95.792V109H597.474V104.154H593.97L591.138 109H588.099L591.199 103.678C590.394 103.352 589.767 102.872 589.319 102.237C588.872 101.594 588.648 100.858 588.648 100.028C588.648 99.4093 588.77 98.8438 589.014 98.3311C589.266 97.8184 589.62 97.3708 590.076 96.9883C590.54 96.6139 591.102 96.321 591.761 96.1094C592.42 95.8978 593.169 95.792 594.007 95.792H600.391ZM591.578 100.089C591.578 100.325 591.622 100.557 591.712 100.785C591.801 101.013 591.94 101.216 592.127 101.395C592.314 101.574 592.546 101.721 592.823 101.834C593.108 101.94 593.441 101.993 593.824 101.993H597.474V98.1357H594.007C593.592 98.1357 593.23 98.1927 592.92 98.3066C592.619 98.4206 592.371 98.5711 592.176 98.7583C591.972 98.9455 591.822 99.1571 591.724 99.3931C591.626 99.6209 591.578 99.8529 591.578 100.089ZM618.728 114.334C618.443 114.334 618.171 114.31 617.91 114.261C617.658 114.221 617.414 114.172 617.178 114.115L617.581 111.832C617.743 111.84 617.926 111.848 618.13 111.856C618.341 111.873 618.512 111.881 618.643 111.881C618.927 111.881 619.184 111.795 619.412 111.625C619.639 111.462 619.839 111.275 620.01 111.063C620.173 110.851 620.303 110.664 620.4 110.501C620.506 110.339 620.604 110.168 620.693 109.989L621.523 108.414L615.896 95.792H619.106L622.39 103.861L622.842 105.313L623.391 103.897L626.577 95.792H629.812L623.11 111.002C622.956 111.344 622.76 111.706 622.524 112.088C622.297 112.479 622.008 112.837 621.658 113.163C621.308 113.496 620.893 113.773 620.413 113.993C619.932 114.221 619.371 114.334 618.728 114.334ZM631.009 109V95.792H636.368C637.206 95.792 637.963 95.8693 638.639 96.0239C639.322 96.1704 639.904 96.3901 640.384 96.6831C640.864 96.9842 641.231 97.3667 641.483 97.8306C641.743 98.2863 641.874 98.8275 641.874 99.4541C641.874 99.8203 641.804 100.166 641.666 100.492C641.528 100.817 641.324 101.11 641.056 101.371C640.877 101.542 640.665 101.7 640.421 101.847C640.177 101.985 639.908 102.107 639.615 102.213L639.737 102.237C640.177 102.343 640.559 102.494 640.885 102.689C641.218 102.876 641.503 103.096 641.739 103.348C641.975 103.617 642.15 103.91 642.264 104.227C642.386 104.544 642.447 104.882 642.447 105.24C642.447 105.867 642.325 106.416 642.081 106.888C641.845 107.352 641.503 107.739 641.056 108.048C640.608 108.365 640.059 108.605 639.408 108.768C638.765 108.923 638.032 109 637.21 109H631.009ZM633.927 103.373V106.668H637.21C637.617 106.668 637.967 106.632 638.26 106.559C638.561 106.477 638.806 106.367 638.993 106.229C639.172 106.091 639.306 105.92 639.396 105.716C639.485 105.513 639.53 105.281 639.53 105.021C639.53 104.768 639.485 104.544 639.396 104.349C639.306 104.146 639.172 103.975 638.993 103.836C638.806 103.69 638.561 103.576 638.26 103.495C637.967 103.413 637.617 103.373 637.21 103.373H633.927ZM633.927 101.273H636.478C636.934 101.273 637.328 101.236 637.662 101.163C637.996 101.082 638.264 100.96 638.468 100.797C638.631 100.675 638.753 100.528 638.834 100.357C638.915 100.187 638.956 99.9871 638.956 99.7593C638.956 99.4907 638.903 99.2588 638.797 99.0635C638.7 98.86 638.545 98.6891 638.333 98.5508C638.13 98.4124 637.861 98.3107 637.528 98.2456C637.194 98.1724 636.808 98.1357 636.368 98.1357H633.927V101.273ZM656.315 95.792V109H653.386V98.1724H649.272L649.26 101.432C649.26 101.879 649.248 102.315 649.223 102.738C649.207 103.161 649.178 103.56 649.138 103.934C649.056 104.569 648.938 105.151 648.784 105.68C648.637 106.201 648.446 106.66 648.21 107.059C647.827 107.702 647.323 108.186 646.696 108.512C646.07 108.837 645.292 109 644.365 109H643.742V106.534L644.182 106.522C644.629 106.522 644.991 106.424 645.268 106.229C645.553 106.034 645.777 105.729 645.939 105.313C646.021 105.086 646.09 104.821 646.147 104.52C646.204 104.219 646.245 103.885 646.269 103.519C646.293 103.218 646.31 102.896 646.318 102.555C646.326 102.205 646.33 101.83 646.33 101.432L646.342 95.792H656.315ZM665.276 109.244C664.3 109.244 663.405 109.081 662.591 108.756C661.785 108.43 661.093 107.979 660.516 107.401C659.938 106.831 659.49 106.16 659.173 105.387C658.864 104.605 658.709 103.763 658.709 102.86V102.359C658.709 101.326 658.872 100.39 659.197 99.5518C659.523 98.7135 659.97 97.9974 660.54 97.4033C661.11 96.8092 661.769 96.3535 662.518 96.0361C663.274 95.7106 664.08 95.5479 664.935 95.5479C665.887 95.5479 666.729 95.7106 667.461 96.0361C668.194 96.3535 668.808 96.797 669.305 97.3667C669.801 97.9445 670.175 98.6322 670.428 99.4297C670.68 100.227 670.806 101.098 670.806 102.042V103.299H661.651V103.36C661.74 103.938 661.879 104.422 662.066 104.813C662.253 105.204 662.509 105.554 662.835 105.863C663.16 106.188 663.543 106.441 663.982 106.62C664.43 106.799 664.918 106.888 665.447 106.888C666.172 106.888 666.847 106.75 667.474 106.473C668.1 106.188 668.617 105.785 669.024 105.265L670.586 106.778C670.147 107.413 669.472 107.983 668.56 108.487C667.657 108.992 666.562 109.244 665.276 109.244ZM664.922 97.916C664.507 97.916 664.121 97.9933 663.763 98.1479C663.413 98.2944 663.099 98.506 662.823 98.7827C662.546 99.0675 662.314 99.4093 662.127 99.8081C661.94 100.207 661.801 100.659 661.712 101.163H667.925V100.968C667.925 100.585 667.856 100.207 667.718 99.8325C667.579 99.45 667.384 99.1164 667.132 98.8315C666.888 98.5549 666.578 98.3351 666.204 98.1724C665.838 98.0015 665.411 97.916 664.922 97.916ZM677.985 103.763H675.934V109H673.017V95.792H675.934V101.065H677.777L681.903 95.792H685.529L680.341 102.152L685.944 109H682.135L677.985 103.763ZM695.576 109C695.487 108.837 695.413 108.642 695.356 108.414C695.308 108.178 695.263 107.934 695.222 107.682C695.019 107.893 694.787 108.097 694.526 108.292C694.274 108.479 693.989 108.642 693.672 108.78C693.354 108.927 693.013 109.041 692.646 109.122C692.28 109.203 691.886 109.244 691.462 109.244C690.779 109.244 690.152 109.146 689.583 108.951C689.021 108.748 688.541 108.471 688.142 108.121C687.735 107.779 687.418 107.368 687.19 106.888C686.97 106.4 686.86 105.875 686.86 105.313C686.86 104.589 687.003 103.95 687.288 103.397C687.581 102.835 688.004 102.372 688.557 102.005C689.07 101.664 689.701 101.403 690.449 101.224C691.206 101.045 692.061 100.956 693.013 100.956H695.137V100.064C695.137 99.7227 695.076 99.4134 694.954 99.1367C694.84 98.86 694.673 98.62 694.453 98.4165C694.217 98.2131 693.928 98.0584 693.586 97.9526C693.253 97.8387 692.866 97.7817 692.427 97.7817C692.028 97.7817 691.678 97.8306 691.377 97.9282C691.084 98.0259 690.84 98.1602 690.645 98.3311C690.449 98.4857 690.303 98.6769 690.205 98.9048C690.116 99.1245 690.071 99.3605 690.071 99.6128H687.141C687.149 99.0838 687.275 98.5752 687.52 98.0869C687.764 97.5986 688.122 97.1673 688.594 96.793C689.049 96.4105 689.611 96.1094 690.278 95.8896C690.954 95.6618 691.723 95.5479 692.585 95.5479C693.359 95.5479 694.079 95.6455 694.746 95.8408C695.422 96.028 696.003 96.3088 696.492 96.6831C696.98 97.0575 697.362 97.5335 697.639 98.1113C697.916 98.681 698.054 99.3402 698.054 100.089V105.96C698.054 106.555 698.095 107.092 698.176 107.572C698.266 108.044 698.392 108.451 698.555 108.792V109H695.576ZM692.024 106.9C692.406 106.9 692.76 106.852 693.086 106.754C693.42 106.656 693.721 106.53 693.989 106.375C694.258 106.221 694.49 106.046 694.685 105.851C694.88 105.655 695.031 105.452 695.137 105.24V102.799H693.257C692.622 102.799 692.073 102.86 691.609 102.982C691.145 103.096 690.775 103.263 690.498 103.482C690.254 103.67 690.071 103.893 689.949 104.154C689.835 104.414 689.778 104.707 689.778 105.033C689.778 105.301 689.827 105.554 689.924 105.79C690.022 106.017 690.164 106.213 690.352 106.375C690.539 106.538 690.771 106.668 691.047 106.766C691.324 106.856 691.65 106.9 692.024 106.9ZM703.219 101.358H704.476C704.517 100.528 704.639 99.7593 704.842 99.0513C705.046 98.3433 705.335 97.7288 705.709 97.208C706.083 96.6872 706.543 96.2803 707.088 95.9873C707.642 95.6943 708.281 95.5479 709.005 95.5479C709.778 95.5479 710.449 95.7147 711.019 96.0483C711.597 96.3739 712.073 96.8215 712.447 97.3911C712.83 97.9689 713.115 98.6484 713.302 99.4297C713.489 100.203 713.583 101.037 713.583 101.932V102.884C713.583 103.779 713.489 104.618 713.302 105.399C713.115 106.172 712.834 106.843 712.459 107.413C712.085 107.983 711.613 108.434 711.043 108.768C710.474 109.094 709.802 109.256 709.029 109.256C708.281 109.256 707.625 109.11 707.064 108.817C706.511 108.524 706.047 108.121 705.672 107.608C705.298 107.096 705.009 106.493 704.806 105.802C704.61 105.11 704.496 104.361 704.464 103.556H703.219V109H700.228V95.792H703.219V101.358ZM707.284 102.884C707.284 103.413 707.308 103.926 707.357 104.422C707.414 104.911 707.512 105.342 707.65 105.716C707.78 106.091 707.955 106.392 708.175 106.62C708.395 106.839 708.679 106.949 709.029 106.949C709.363 106.949 709.64 106.839 709.859 106.62C710.087 106.392 710.266 106.091 710.396 105.716C710.527 105.342 710.616 104.911 710.665 104.422C710.722 103.926 710.75 103.413 710.75 102.884V101.932C710.75 101.403 710.722 100.895 710.665 100.406C710.616 99.918 710.527 99.4826 710.396 99.1001C710.258 98.7257 710.075 98.4287 709.847 98.209C709.627 97.9811 709.347 97.8672 709.005 97.8672C708.663 97.8672 708.382 97.9811 708.163 98.209C707.943 98.4287 707.768 98.7298 707.638 99.1123C707.507 99.4867 707.414 99.918 707.357 100.406C707.308 100.895 707.284 101.403 707.284 101.932V102.884ZM720.92 106.9C721.286 106.9 721.636 106.847 721.97 106.742C722.312 106.628 722.613 106.469 722.873 106.266C723.125 106.062 723.325 105.822 723.471 105.545C723.626 105.269 723.703 104.964 723.703 104.63H726.45C726.458 105.273 726.311 105.879 726.01 106.449C725.717 107.01 725.319 107.494 724.814 107.901C724.301 108.325 723.711 108.658 723.044 108.902C722.385 109.138 721.689 109.256 720.957 109.256C719.939 109.256 719.048 109.081 718.283 108.731C717.526 108.373 716.896 107.893 716.391 107.291C715.878 106.689 715.492 105.989 715.231 105.191C714.971 104.386 714.841 103.527 714.841 102.616V102.188C714.841 101.285 714.967 100.431 715.219 99.625C715.48 98.8193 715.866 98.1154 716.379 97.5132C716.892 96.911 717.526 96.4349 718.283 96.085C719.048 95.7269 719.935 95.5479 720.944 95.5479C721.742 95.5479 722.478 95.6699 723.154 95.9141C723.837 96.1582 724.423 96.5 724.912 96.9395C725.4 97.3789 725.778 97.9038 726.047 98.5142C726.324 99.1245 726.458 99.7959 726.45 100.528H723.703C723.703 100.17 723.634 99.8325 723.496 99.5151C723.365 99.1978 723.178 98.9211 722.934 98.6851C722.682 98.4491 722.381 98.2619 722.031 98.1235C721.689 97.9852 721.319 97.916 720.92 97.916C720.31 97.916 719.801 98.0422 719.394 98.2944C718.995 98.5386 718.678 98.86 718.442 99.2588C718.19 99.6576 718.011 100.113 717.905 100.626C717.807 101.139 717.758 101.66 717.758 102.188V102.616C717.758 103.153 717.807 103.682 717.905 104.203C718.011 104.715 718.186 105.167 718.43 105.558C718.666 105.965 718.987 106.29 719.394 106.534C719.801 106.778 720.31 106.9 720.92 106.9ZM732.029 100.467H735.667C736.513 100.467 737.266 100.573 737.925 100.785C738.593 100.988 739.154 101.277 739.61 101.651C740.066 102.034 740.411 102.486 740.647 103.006C740.883 103.527 741.001 104.101 741.001 104.728C741.001 105.338 740.883 105.908 740.647 106.437C740.411 106.957 740.066 107.405 739.61 107.779C739.154 108.162 738.593 108.463 737.925 108.683C737.266 108.894 736.513 109 735.667 109H729.112V95.792H732.029V100.467ZM732.029 102.823V106.656H735.667C736.09 106.656 736.456 106.603 736.766 106.498C737.075 106.392 737.327 106.253 737.522 106.083C737.718 105.912 737.86 105.712 737.95 105.484C738.039 105.257 738.084 105.021 738.084 104.776C738.084 104.524 738.035 104.28 737.938 104.044C737.848 103.808 737.706 103.596 737.51 103.409C737.315 103.238 737.063 103.1 736.753 102.994C736.452 102.88 736.09 102.823 735.667 102.823H732.029ZM446.819 142V128.792H452.178C453.016 128.792 453.773 128.869 454.448 129.024C455.132 129.17 455.714 129.39 456.194 129.683C456.674 129.984 457.04 130.367 457.292 130.831C457.553 131.286 457.683 131.827 457.683 132.454C457.683 132.82 457.614 133.166 457.476 133.492C457.337 133.817 457.134 134.11 456.865 134.371C456.686 134.542 456.475 134.7 456.23 134.847C455.986 134.985 455.718 135.107 455.425 135.213L455.547 135.237C455.986 135.343 456.369 135.494 456.694 135.689C457.028 135.876 457.313 136.096 457.549 136.348C457.785 136.617 457.96 136.91 458.074 137.227C458.196 137.544 458.257 137.882 458.257 138.24C458.257 138.867 458.135 139.416 457.891 139.888C457.655 140.352 457.313 140.739 456.865 141.048C456.418 141.365 455.868 141.605 455.217 141.768C454.574 141.923 453.842 142 453.02 142H446.819ZM449.736 136.373V139.668H453.02C453.427 139.668 453.777 139.632 454.07 139.559C454.371 139.477 454.615 139.367 454.802 139.229C454.981 139.091 455.116 138.92 455.205 138.716C455.295 138.513 455.339 138.281 455.339 138.021C455.339 137.768 455.295 137.544 455.205 137.349C455.116 137.146 454.981 136.975 454.802 136.836C454.615 136.69 454.371 136.576 454.07 136.495C453.777 136.413 453.427 136.373 453.02 136.373H449.736ZM449.736 134.273H452.288C452.743 134.273 453.138 134.236 453.472 134.163C453.805 134.082 454.074 133.96 454.277 133.797C454.44 133.675 454.562 133.528 454.644 133.357C454.725 133.187 454.766 132.987 454.766 132.759C454.766 132.491 454.713 132.259 454.607 132.063C454.509 131.86 454.355 131.689 454.143 131.551C453.94 131.412 453.671 131.311 453.337 131.246C453.004 131.172 452.617 131.136 452.178 131.136H449.736V134.273ZM467.071 142.244C466.095 142.244 465.2 142.081 464.386 141.756C463.58 141.43 462.888 140.979 462.311 140.401C461.733 139.831 461.285 139.16 460.968 138.387C460.659 137.605 460.504 136.763 460.504 135.86V135.359C460.504 134.326 460.667 133.39 460.992 132.552C461.318 131.714 461.765 130.997 462.335 130.403C462.905 129.809 463.564 129.354 464.312 129.036C465.069 128.711 465.875 128.548 466.729 128.548C467.682 128.548 468.524 128.711 469.256 129.036C469.989 129.354 470.603 129.797 471.1 130.367C471.596 130.944 471.97 131.632 472.223 132.43C472.475 133.227 472.601 134.098 472.601 135.042V136.299H463.446V136.36C463.535 136.938 463.674 137.422 463.861 137.813C464.048 138.204 464.304 138.554 464.63 138.863C464.955 139.188 465.338 139.441 465.777 139.62C466.225 139.799 466.713 139.888 467.242 139.888C467.966 139.888 468.642 139.75 469.269 139.473C469.895 139.188 470.412 138.785 470.819 138.265L472.381 139.778C471.942 140.413 471.266 140.983 470.355 141.487C469.452 141.992 468.357 142.244 467.071 142.244ZM466.717 130.916C466.302 130.916 465.916 130.993 465.558 131.148C465.208 131.294 464.894 131.506 464.618 131.783C464.341 132.068 464.109 132.409 463.922 132.808C463.735 133.207 463.596 133.659 463.507 134.163H469.72V133.968C469.72 133.585 469.651 133.207 469.513 132.833C469.374 132.45 469.179 132.116 468.927 131.832C468.683 131.555 468.373 131.335 467.999 131.172C467.633 131.001 467.206 130.916 466.717 130.916ZM481.123 129.537C482.001 129.537 482.779 129.691 483.454 130C484.138 130.31 484.715 130.733 485.188 131.27C485.66 131.815 486.018 132.458 486.262 133.199C486.514 133.939 486.64 134.745 486.64 135.616V135.884C486.64 136.796 486.506 137.642 486.237 138.423C485.969 139.196 485.574 139.868 485.053 140.438C484.541 141.007 483.906 141.455 483.149 141.78C482.4 142.098 481.546 142.256 480.585 142.256C479.617 142.256 478.754 142.09 477.998 141.756C477.249 141.414 476.614 140.95 476.093 140.364C475.572 139.77 475.178 139.07 474.909 138.265C474.641 137.451 474.506 136.568 474.506 135.616V134.676C474.506 133.919 474.543 133.207 474.616 132.54C474.689 131.872 474.795 131.254 474.934 130.684C475.072 130.098 475.239 129.557 475.434 129.061C475.638 128.564 475.874 128.112 476.142 127.706C476.655 126.9 477.277 126.261 478.01 125.789C478.742 125.317 479.56 124.987 480.463 124.8C480.903 124.711 481.289 124.621 481.623 124.532C481.965 124.442 482.258 124.332 482.502 124.202C482.73 124.072 482.905 123.913 483.027 123.726C483.149 123.531 483.21 123.295 483.21 123.018H485.578C485.578 123.726 485.48 124.316 485.285 124.788C485.09 125.252 484.793 125.639 484.394 125.948C484.02 126.241 483.568 126.477 483.039 126.656C482.518 126.835 481.847 127.006 481.025 127.168C480.496 127.282 480.008 127.441 479.56 127.645C479.121 127.848 478.726 128.117 478.376 128.45C478.026 128.776 477.729 129.179 477.485 129.659C477.249 130.139 477.074 130.713 476.96 131.38C477.22 131.103 477.497 130.855 477.79 130.635C478.091 130.407 478.409 130.212 478.742 130.049C479.092 129.887 479.466 129.76 479.865 129.671C480.264 129.581 480.683 129.537 481.123 129.537ZM480.561 131.905C480.008 131.905 479.532 132.007 479.133 132.21C478.734 132.405 478.413 132.674 478.168 133.016C477.908 133.357 477.717 133.752 477.595 134.2C477.481 134.647 477.424 135.119 477.424 135.616V135.884C477.424 136.43 477.481 136.946 477.595 137.435C477.717 137.923 477.908 138.35 478.168 138.716C478.413 139.083 478.734 139.371 479.133 139.583C479.54 139.795 480.024 139.9 480.585 139.9C481.139 139.9 481.611 139.795 482.001 139.583C482.4 139.371 482.726 139.083 482.978 138.716C483.23 138.35 483.417 137.923 483.54 137.435C483.662 136.946 483.723 136.43 483.723 135.884V135.616C483.723 135.119 483.662 134.647 483.54 134.2C483.417 133.752 483.23 133.357 482.978 133.016C482.726 132.674 482.396 132.405 481.989 132.21C481.59 132.007 481.114 131.905 480.561 131.905ZM499.983 135.372H490.157V133.003H499.983V135.372ZM502.975 147.078V128.792H505.661L505.771 130.147C505.95 129.927 506.145 129.728 506.356 129.549C506.568 129.37 506.796 129.215 507.04 129.085C507.357 128.914 507.707 128.784 508.09 128.694C508.472 128.597 508.879 128.548 509.311 128.548C510.157 128.548 510.902 128.711 511.544 129.036C512.195 129.362 512.741 129.821 513.18 130.416C513.611 131.01 513.941 131.722 514.169 132.552C514.397 133.374 514.511 134.281 514.511 135.274V135.53C514.511 136.482 514.397 137.369 514.169 138.191C513.949 139.013 513.62 139.721 513.18 140.315C512.741 140.918 512.2 141.39 511.557 141.731C510.914 142.073 510.177 142.244 509.347 142.244C508.875 142.244 508.44 142.195 508.041 142.098C507.65 142 507.288 141.858 506.955 141.67C506.759 141.556 506.572 141.426 506.393 141.28C506.214 141.133 506.047 140.975 505.893 140.804V147.078H502.975ZM511.593 135.274C511.593 134.68 511.532 134.122 511.41 133.602C511.296 133.073 511.117 132.613 510.873 132.222C510.621 131.832 510.299 131.522 509.909 131.294C509.518 131.067 509.05 130.953 508.505 130.953C508.204 130.953 507.923 130.985 507.663 131.05C507.402 131.115 507.17 131.209 506.967 131.331C506.731 131.461 506.523 131.624 506.344 131.819C506.173 132.015 506.023 132.234 505.893 132.479V138.35C506.007 138.578 506.145 138.785 506.308 138.973C506.47 139.16 506.658 139.323 506.869 139.461C507.089 139.591 507.337 139.697 507.614 139.778C507.89 139.852 508.196 139.888 508.529 139.888C509.075 139.888 509.538 139.774 509.921 139.546C510.312 139.31 510.629 138.993 510.873 138.594C511.125 138.187 511.308 137.723 511.422 137.203C511.536 136.674 511.593 136.116 511.593 135.53V135.274ZM525.4 142C525.311 141.837 525.238 141.642 525.181 141.414C525.132 141.178 525.087 140.934 525.046 140.682C524.843 140.893 524.611 141.097 524.351 141.292C524.098 141.479 523.813 141.642 523.496 141.78C523.179 141.927 522.837 142.041 522.471 142.122C522.104 142.203 521.71 142.244 521.287 142.244C520.603 142.244 519.976 142.146 519.407 141.951C518.845 141.748 518.365 141.471 517.966 141.121C517.559 140.779 517.242 140.368 517.014 139.888C516.794 139.4 516.685 138.875 516.685 138.313C516.685 137.589 516.827 136.95 517.112 136.397C517.405 135.835 517.828 135.372 518.381 135.005C518.894 134.664 519.525 134.403 520.273 134.224C521.03 134.045 521.885 133.956 522.837 133.956H524.961V133.064C524.961 132.723 524.9 132.413 524.778 132.137C524.664 131.86 524.497 131.62 524.277 131.417C524.041 131.213 523.752 131.058 523.411 130.953C523.077 130.839 522.69 130.782 522.251 130.782C521.852 130.782 521.502 130.831 521.201 130.928C520.908 131.026 520.664 131.16 520.469 131.331C520.273 131.486 520.127 131.677 520.029 131.905C519.94 132.125 519.895 132.361 519.895 132.613H516.965C516.973 132.084 517.1 131.575 517.344 131.087C517.588 130.599 517.946 130.167 518.418 129.793C518.874 129.41 519.435 129.109 520.103 128.89C520.778 128.662 521.547 128.548 522.41 128.548C523.183 128.548 523.903 128.646 524.57 128.841C525.246 129.028 525.828 129.309 526.316 129.683C526.804 130.057 527.187 130.534 527.463 131.111C527.74 131.681 527.878 132.34 527.878 133.089V138.96C527.878 139.555 527.919 140.092 528 140.572C528.09 141.044 528.216 141.451 528.379 141.792V142H525.4ZM521.848 139.9C522.231 139.9 522.585 139.852 522.91 139.754C523.244 139.656 523.545 139.53 523.813 139.375C524.082 139.221 524.314 139.046 524.509 138.851C524.705 138.655 524.855 138.452 524.961 138.24V135.799H523.081C522.446 135.799 521.897 135.86 521.433 135.982C520.969 136.096 520.599 136.263 520.322 136.482C520.078 136.67 519.895 136.893 519.773 137.154C519.659 137.414 519.602 137.707 519.602 138.033C519.602 138.301 519.651 138.554 519.749 138.79C519.846 139.017 519.989 139.213 520.176 139.375C520.363 139.538 520.595 139.668 520.872 139.766C521.148 139.856 521.474 139.9 521.848 139.9ZM530.589 138.094H533.495C533.495 138.346 533.568 138.59 533.714 138.826C533.869 139.054 534.089 139.253 534.374 139.424C534.65 139.603 534.984 139.746 535.375 139.852C535.765 139.957 536.201 140.01 536.681 140.01C537.161 140.01 537.588 139.961 537.962 139.864C538.345 139.758 538.666 139.62 538.927 139.449C539.179 139.278 539.37 139.083 539.5 138.863C539.639 138.635 539.708 138.395 539.708 138.143C539.708 137.866 539.655 137.622 539.549 137.41C539.452 137.199 539.309 137.024 539.122 136.885C538.984 136.771 538.817 136.678 538.622 136.604C538.434 136.523 538.223 136.458 537.987 136.409C537.8 136.377 537.6 136.352 537.389 136.336C537.185 136.32 536.97 136.312 536.742 136.312H534.056V134.2H536.742C536.961 134.2 537.169 134.192 537.364 134.175C537.56 134.159 537.739 134.135 537.901 134.102C538.121 134.053 538.316 133.992 538.487 133.919C538.666 133.846 538.821 133.76 538.951 133.663C539.122 133.524 539.252 133.361 539.342 133.174C539.431 132.987 539.476 132.78 539.476 132.552C539.476 132.332 539.419 132.116 539.305 131.905C539.191 131.693 539.024 131.506 538.805 131.343C538.569 131.189 538.272 131.062 537.914 130.965C537.564 130.867 537.153 130.818 536.681 130.818C536.266 130.818 535.879 130.863 535.521 130.953C535.163 131.034 534.85 131.148 534.581 131.294C534.304 131.441 534.089 131.62 533.934 131.832C533.779 132.043 533.702 132.279 533.702 132.54H530.797C530.797 131.921 530.951 131.368 531.261 130.879C531.57 130.383 531.989 129.96 532.518 129.61C533.039 129.276 533.649 129.02 534.349 128.841C535.057 128.654 535.806 128.56 536.595 128.56C537.45 128.56 538.235 128.646 538.951 128.816C539.667 128.979 540.282 129.219 540.794 129.537C541.299 129.862 541.69 130.265 541.966 130.745C542.251 131.217 542.394 131.771 542.394 132.405C542.394 132.78 542.308 133.138 542.137 133.479C541.966 133.813 541.726 134.114 541.417 134.383C541.238 134.546 541.03 134.696 540.794 134.834C540.558 134.973 540.302 135.095 540.025 135.201C540.383 135.315 540.705 135.449 540.99 135.604C541.275 135.758 541.527 135.937 541.747 136.141C542.031 136.409 542.251 136.722 542.406 137.081C542.56 137.439 542.638 137.837 542.638 138.277C542.638 138.903 542.483 139.465 542.174 139.961C541.865 140.45 541.441 140.861 540.904 141.194C540.367 141.536 539.728 141.797 538.988 141.976C538.255 142.155 537.458 142.244 536.595 142.244C535.83 142.244 535.077 142.159 534.337 141.988C533.596 141.809 532.945 141.536 532.384 141.17C531.847 140.844 531.411 140.425 531.078 139.913C530.752 139.4 530.589 138.794 530.589 138.094ZM545.019 147.078V128.792H547.705L547.814 130.147C547.993 129.927 548.189 129.728 548.4 129.549C548.612 129.37 548.84 129.215 549.084 129.085C549.401 128.914 549.751 128.784 550.134 128.694C550.516 128.597 550.923 128.548 551.354 128.548C552.201 128.548 552.945 128.711 553.588 129.036C554.239 129.362 554.785 129.821 555.224 130.416C555.655 131.01 555.985 131.722 556.213 132.552C556.441 133.374 556.555 134.281 556.555 135.274V135.53C556.555 136.482 556.441 137.369 556.213 138.191C555.993 139.013 555.664 139.721 555.224 140.315C554.785 140.918 554.243 141.39 553.601 141.731C552.958 142.073 552.221 142.244 551.391 142.244C550.919 142.244 550.484 142.195 550.085 142.098C549.694 142 549.332 141.858 548.999 141.67C548.803 141.556 548.616 141.426 548.437 141.28C548.258 141.133 548.091 140.975 547.937 140.804V147.078H545.019ZM553.637 135.274C553.637 134.68 553.576 134.122 553.454 133.602C553.34 133.073 553.161 132.613 552.917 132.222C552.665 131.832 552.343 131.522 551.953 131.294C551.562 131.067 551.094 130.953 550.549 130.953C550.248 130.953 549.967 130.985 549.707 131.05C549.446 131.115 549.214 131.209 549.011 131.331C548.775 131.461 548.567 131.624 548.388 131.819C548.217 132.015 548.067 132.234 547.937 132.479V138.35C548.05 138.578 548.189 138.785 548.352 138.973C548.514 139.16 548.701 139.323 548.913 139.461C549.133 139.591 549.381 139.697 549.658 139.778C549.934 139.852 550.24 139.888 550.573 139.888C551.118 139.888 551.582 139.774 551.965 139.546C552.355 139.31 552.673 138.993 552.917 138.594C553.169 138.187 553.352 137.723 553.466 137.203C553.58 136.674 553.637 136.116 553.637 135.53V135.274ZM567.444 142C567.355 141.837 567.282 141.642 567.225 141.414C567.176 141.178 567.131 140.934 567.09 140.682C566.887 140.893 566.655 141.097 566.395 141.292C566.142 141.479 565.857 141.642 565.54 141.78C565.223 141.927 564.881 142.041 564.515 142.122C564.148 142.203 563.754 142.244 563.331 142.244C562.647 142.244 562.02 142.146 561.451 141.951C560.889 141.748 560.409 141.471 560.01 141.121C559.603 140.779 559.286 140.368 559.058 139.888C558.838 139.4 558.729 138.875 558.729 138.313C558.729 137.589 558.871 136.95 559.156 136.397C559.449 135.835 559.872 135.372 560.425 135.005C560.938 134.664 561.569 134.403 562.317 134.224C563.074 134.045 563.929 133.956 564.881 133.956H567.005V133.064C567.005 132.723 566.944 132.413 566.822 132.137C566.708 131.86 566.541 131.62 566.321 131.417C566.085 131.213 565.796 131.058 565.455 130.953C565.121 130.839 564.734 130.782 564.295 130.782C563.896 130.782 563.546 130.831 563.245 130.928C562.952 131.026 562.708 131.16 562.513 131.331C562.317 131.486 562.171 131.677 562.073 131.905C561.984 132.125 561.939 132.361 561.939 132.613H559.009C559.017 132.084 559.144 131.575 559.388 131.087C559.632 130.599 559.99 130.167 560.462 129.793C560.918 129.41 561.479 129.109 562.146 128.89C562.822 128.662 563.591 128.548 564.454 128.548C565.227 128.548 565.947 128.646 566.614 128.841C567.29 129.028 567.872 129.309 568.36 129.683C568.848 130.057 569.231 130.534 569.507 131.111C569.784 131.681 569.922 132.34 569.922 133.089V138.96C569.922 139.555 569.963 140.092 570.044 140.572C570.134 141.044 570.26 141.451 570.423 141.792V142H567.444ZM563.892 139.9C564.275 139.9 564.629 139.852 564.954 139.754C565.288 139.656 565.589 139.53 565.857 139.375C566.126 139.221 566.358 139.046 566.553 138.851C566.749 138.655 566.899 138.452 567.005 138.24V135.799H565.125C564.49 135.799 563.941 135.86 563.477 135.982C563.013 136.096 562.643 136.263 562.366 136.482C562.122 136.67 561.939 136.893 561.817 137.154C561.703 137.414 561.646 137.707 561.646 138.033C561.646 138.301 561.695 138.554 561.792 138.79C561.89 139.017 562.033 139.213 562.22 139.375C562.407 139.538 562.639 139.668 562.916 139.766C563.192 139.856 563.518 139.9 563.892 139.9ZM579.225 129.537C580.104 129.537 580.881 129.691 581.557 130C582.24 130.31 582.818 130.733 583.29 131.27C583.762 131.815 584.12 132.458 584.364 133.199C584.617 133.939 584.743 134.745 584.743 135.616V135.884C584.743 136.796 584.608 137.642 584.34 138.423C584.071 139.196 583.677 139.868 583.156 140.438C582.643 141.007 582.008 141.455 581.251 141.78C580.503 142.098 579.648 142.256 578.688 142.256C577.72 142.256 576.857 142.09 576.1 141.756C575.351 141.414 574.717 140.95 574.196 140.364C573.675 139.77 573.28 139.07 573.012 138.265C572.743 137.451 572.609 136.568 572.609 135.616V134.676C572.609 133.919 572.646 133.207 572.719 132.54C572.792 131.872 572.898 131.254 573.036 130.684C573.174 130.098 573.341 129.557 573.537 129.061C573.74 128.564 573.976 128.112 574.245 127.706C574.757 126.9 575.38 126.261 576.112 125.789C576.845 125.317 577.663 124.987 578.566 124.8C579.005 124.711 579.392 124.621 579.726 124.532C580.067 124.442 580.36 124.332 580.604 124.202C580.832 124.072 581.007 123.913 581.129 123.726C581.251 123.531 581.312 123.295 581.312 123.018H583.681C583.681 123.726 583.583 124.316 583.388 124.788C583.192 125.252 582.895 125.639 582.497 125.948C582.122 126.241 581.671 126.477 581.142 126.656C580.621 126.835 579.949 127.006 579.127 127.168C578.598 127.282 578.11 127.441 577.663 127.645C577.223 127.848 576.828 128.117 576.479 128.45C576.129 128.776 575.832 129.179 575.587 129.659C575.351 130.139 575.176 130.713 575.062 131.38C575.323 131.103 575.6 130.855 575.893 130.635C576.194 130.407 576.511 130.212 576.845 130.049C577.195 129.887 577.569 129.76 577.968 129.671C578.367 129.581 578.786 129.537 579.225 129.537ZM578.664 131.905C578.11 131.905 577.634 132.007 577.235 132.21C576.837 132.405 576.515 132.674 576.271 133.016C576.011 133.357 575.819 133.752 575.697 134.2C575.583 134.647 575.526 135.119 575.526 135.616V135.884C575.526 136.43 575.583 136.946 575.697 137.435C575.819 137.923 576.011 138.35 576.271 138.716C576.515 139.083 576.837 139.371 577.235 139.583C577.642 139.795 578.126 139.9 578.688 139.9C579.241 139.9 579.713 139.795 580.104 139.583C580.503 139.371 580.828 139.083 581.081 138.716C581.333 138.35 581.52 137.923 581.642 137.435C581.764 136.946 581.825 136.43 581.825 135.884V135.616C581.825 135.119 581.764 134.647 581.642 134.2C581.52 133.752 581.333 133.357 581.081 133.016C580.828 132.674 580.499 132.405 580.092 132.21C579.693 132.007 579.217 131.905 578.664 131.905ZM586.501 135.274C586.501 134.314 586.64 133.427 586.917 132.613C587.193 131.791 587.596 131.079 588.125 130.477C588.646 129.874 589.285 129.402 590.042 129.061C590.798 128.719 591.661 128.548 592.629 128.548C593.598 128.548 594.46 128.719 595.217 129.061C595.982 129.402 596.629 129.874 597.158 130.477C597.679 131.079 598.078 131.791 598.354 132.613C598.631 133.427 598.77 134.314 598.77 135.274V135.53C598.77 136.499 598.631 137.39 598.354 138.204C598.078 139.017 597.679 139.725 597.158 140.328C596.637 140.93 595.994 141.402 595.229 141.744C594.473 142.085 593.614 142.256 592.654 142.256C591.685 142.256 590.819 142.085 590.054 141.744C589.289 141.402 588.646 140.93 588.125 140.328C587.596 139.725 587.193 139.017 586.917 138.204C586.64 137.39 586.501 136.499 586.501 135.53V135.274ZM589.419 135.53C589.419 136.124 589.48 136.686 589.602 137.215C589.732 137.744 589.932 138.208 590.2 138.606C590.461 139.005 590.794 139.323 591.201 139.559C591.608 139.786 592.092 139.9 592.654 139.9C593.199 139.9 593.675 139.786 594.082 139.559C594.489 139.323 594.823 139.005 595.083 138.606C595.343 138.208 595.535 137.744 595.657 137.215C595.787 136.686 595.852 136.124 595.852 135.53V135.274C595.852 134.696 595.787 134.143 595.657 133.614C595.527 133.085 595.335 132.621 595.083 132.222C594.814 131.823 594.477 131.506 594.07 131.27C593.671 131.034 593.191 130.916 592.629 130.916C592.076 130.916 591.596 131.034 591.189 131.27C590.79 131.506 590.461 131.823 590.2 132.222C589.932 132.621 589.732 133.085 589.602 133.614C589.48 134.143 589.419 134.696 589.419 135.274V135.53ZM613.553 131.136H608.39V142H605.46V131.136H600.357V128.792H613.553V131.136ZM619.926 136.763H617.875V142H614.958V128.792H617.875V134.065H619.719L623.845 128.792H627.47L622.282 135.152L627.885 142H624.077L619.926 136.763ZM628.545 135.274C628.545 134.314 628.684 133.427 628.96 132.613C629.237 131.791 629.64 131.079 630.169 130.477C630.69 129.874 631.329 129.402 632.085 129.061C632.842 128.719 633.705 128.548 634.673 128.548C635.642 128.548 636.504 128.719 637.261 129.061C638.026 129.402 638.673 129.874 639.202 130.477C639.723 131.079 640.122 131.791 640.398 132.613C640.675 133.427 640.813 134.314 640.813 135.274V135.53C640.813 136.499 640.675 137.39 640.398 138.204C640.122 139.017 639.723 139.725 639.202 140.328C638.681 140.93 638.038 141.402 637.273 141.744C636.517 142.085 635.658 142.256 634.698 142.256C633.729 142.256 632.863 142.085 632.098 141.744C631.333 141.402 630.69 140.93 630.169 140.328C629.64 139.725 629.237 139.017 628.96 138.204C628.684 137.39 628.545 136.499 628.545 135.53V135.274ZM631.463 135.53C631.463 136.124 631.524 136.686 631.646 137.215C631.776 137.744 631.976 138.208 632.244 138.606C632.505 139.005 632.838 139.323 633.245 139.559C633.652 139.786 634.136 139.9 634.698 139.9C635.243 139.9 635.719 139.786 636.126 139.559C636.533 139.323 636.867 139.005 637.127 138.606C637.387 138.208 637.579 137.744 637.701 137.215C637.831 136.686 637.896 136.124 637.896 135.53V135.274C637.896 134.696 637.831 134.143 637.701 133.614C637.57 133.085 637.379 132.621 637.127 132.222C636.858 131.823 636.521 131.506 636.114 131.27C635.715 131.034 635.235 130.916 634.673 130.916C634.12 130.916 633.64 131.034 633.233 131.27C632.834 131.506 632.505 131.823 632.244 132.222C631.976 132.621 631.776 133.085 631.646 133.614C631.524 134.143 631.463 134.696 631.463 135.274V135.53ZM651.41 128.792H654.328V142H651.41V133.028L645.819 142H642.902V128.792H645.819V137.776L651.41 128.792ZM652.436 123.384C652.436 123.889 652.342 124.357 652.155 124.788C651.976 125.211 651.719 125.573 651.386 125.875C651.036 126.176 650.617 126.412 650.128 126.583C649.648 126.745 649.107 126.827 648.505 126.827C647.895 126.827 647.345 126.745 646.857 126.583C646.377 126.412 645.966 126.176 645.624 125.875C645.282 125.573 645.018 125.211 644.831 124.788C644.643 124.365 644.55 123.897 644.55 123.384H646.735C646.735 123.612 646.767 123.832 646.833 124.043C646.906 124.247 647.012 124.43 647.15 124.593C647.288 124.747 647.467 124.874 647.687 124.971C647.915 125.061 648.188 125.105 648.505 125.105C648.814 125.105 649.079 125.061 649.298 124.971C649.518 124.874 649.701 124.743 649.848 124.581C649.986 124.426 650.088 124.247 650.153 124.043C650.218 123.832 650.25 123.612 650.25 123.384H652.436ZM679.439 128.792H682.357V142H679.439V133.028L673.849 142H670.931V128.792H673.849V137.776L679.439 128.792ZM710.374 128.792V142H707.444V131.172H703.331L703.318 134.432C703.318 134.879 703.306 135.315 703.282 135.738C703.265 136.161 703.237 136.56 703.196 136.934C703.115 137.569 702.997 138.151 702.842 138.68C702.696 139.201 702.505 139.66 702.269 140.059C701.886 140.702 701.382 141.186 700.755 141.512C700.128 141.837 699.351 142 698.423 142H697.801V139.534L698.24 139.522C698.688 139.522 699.05 139.424 699.327 139.229C699.611 139.034 699.835 138.729 699.998 138.313C700.079 138.086 700.149 137.821 700.206 137.52C700.263 137.219 700.303 136.885 700.328 136.519C700.352 136.218 700.368 135.896 700.376 135.555C700.385 135.205 700.389 134.83 700.389 134.432L700.401 128.792H710.374ZM715.233 134.358H716.491C716.531 133.528 716.653 132.759 716.857 132.051C717.06 131.343 717.349 130.729 717.724 130.208C718.098 129.687 718.558 129.28 719.103 128.987C719.656 128.694 720.295 128.548 721.02 128.548C721.793 128.548 722.464 128.715 723.034 129.048C723.611 129.374 724.088 129.821 724.462 130.391C724.844 130.969 725.129 131.648 725.316 132.43C725.504 133.203 725.597 134.037 725.597 134.932V135.884C725.597 136.779 725.504 137.618 725.316 138.399C725.129 139.172 724.848 139.843 724.474 140.413C724.1 140.983 723.628 141.434 723.058 141.768C722.488 142.094 721.817 142.256 721.044 142.256C720.295 142.256 719.64 142.11 719.079 141.817C718.525 141.524 718.061 141.121 717.687 140.608C717.313 140.096 717.024 139.493 716.82 138.802C716.625 138.11 716.511 137.361 716.479 136.556H715.233V142H712.243V128.792H715.233V134.358ZM719.298 135.884C719.298 136.413 719.323 136.926 719.372 137.422C719.429 137.911 719.526 138.342 719.665 138.716C719.795 139.091 719.97 139.392 720.189 139.62C720.409 139.839 720.694 139.949 721.044 139.949C721.378 139.949 721.654 139.839 721.874 139.62C722.102 139.392 722.281 139.091 722.411 138.716C722.541 138.342 722.631 137.911 722.68 137.422C722.737 136.926 722.765 136.413 722.765 135.884V134.932C722.765 134.403 722.737 133.895 722.68 133.406C722.631 132.918 722.541 132.483 722.411 132.1C722.273 131.726 722.09 131.429 721.862 131.209C721.642 130.981 721.361 130.867 721.02 130.867C720.678 130.867 720.397 130.981 720.177 131.209C719.958 131.429 719.783 131.73 719.652 132.112C719.522 132.487 719.429 132.918 719.372 133.406C719.323 133.895 719.298 134.403 719.298 134.932V135.884ZM733.386 129.537C734.265 129.537 735.042 129.691 735.718 130C736.401 130.31 736.979 130.733 737.451 131.27C737.923 131.815 738.281 132.458 738.525 133.199C738.778 133.939 738.904 134.745 738.904 135.616V135.884C738.904 136.796 738.77 137.642 738.501 138.423C738.232 139.196 737.838 139.868 737.317 140.438C736.804 141.007 736.169 141.455 735.413 141.78C734.664 142.098 733.809 142.256 732.849 142.256C731.881 142.256 731.018 142.09 730.261 141.756C729.513 141.414 728.878 140.95 728.357 140.364C727.836 139.77 727.441 139.07 727.173 138.265C726.904 137.451 726.77 136.568 726.77 135.616V134.676C726.77 133.919 726.807 133.207 726.88 132.54C726.953 131.872 727.059 131.254 727.197 130.684C727.336 130.098 727.502 129.557 727.698 129.061C727.901 128.564 728.137 128.112 728.406 127.706C728.918 126.9 729.541 126.261 730.273 125.789C731.006 125.317 731.824 124.987 732.727 124.8C733.167 124.711 733.553 124.621 733.887 124.532C734.229 124.442 734.521 124.332 734.766 124.202C734.993 124.072 735.168 123.913 735.291 123.726C735.413 123.531 735.474 123.295 735.474 123.018H737.842C737.842 123.726 737.744 124.316 737.549 124.788C737.354 125.252 737.056 125.639 736.658 125.948C736.283 126.241 735.832 126.477 735.303 126.656C734.782 126.835 734.111 127.006 733.289 127.168C732.76 127.282 732.271 127.441 731.824 127.645C731.384 127.848 730.99 128.117 730.64 128.45C730.29 128.776 729.993 129.179 729.749 129.659C729.513 130.139 729.338 130.713 729.224 131.38C729.484 131.103 729.761 130.855 730.054 130.635C730.355 130.407 730.672 130.212 731.006 130.049C731.356 129.887 731.73 129.76 732.129 129.671C732.528 129.581 732.947 129.537 733.386 129.537ZM732.825 131.905C732.271 131.905 731.795 132.007 731.396 132.21C730.998 132.405 730.676 132.674 730.432 133.016C730.172 133.357 729.98 133.752 729.858 134.2C729.744 134.647 729.688 135.119 729.688 135.616V135.884C729.688 136.43 729.744 136.946 729.858 137.435C729.98 137.923 730.172 138.35 730.432 138.716C730.676 139.083 730.998 139.371 731.396 139.583C731.803 139.795 732.288 139.9 732.849 139.9C733.403 139.9 733.875 139.795 734.265 139.583C734.664 139.371 734.989 139.083 735.242 138.716C735.494 138.35 735.681 137.923 735.803 137.435C735.925 136.946 735.986 136.43 735.986 135.884V135.616C735.986 135.119 735.925 134.647 735.803 134.2C735.681 133.752 735.494 133.357 735.242 133.016C734.989 132.674 734.66 132.405 734.253 132.21C733.854 132.007 733.378 131.905 732.825 131.905ZM752.418 128.792V142H749.488V131.172H745.375L745.362 134.432C745.362 134.879 745.35 135.315 745.326 135.738C745.309 136.161 745.281 136.56 745.24 136.934C745.159 137.569 745.041 138.151 744.886 138.68C744.74 139.201 744.549 139.66 744.312 140.059C743.93 140.702 743.425 141.186 742.799 141.512C742.172 141.837 741.395 142 740.467 142H739.845V139.534L740.284 139.522C740.732 139.522 741.094 139.424 741.371 139.229C741.655 139.034 741.879 138.729 742.042 138.313C742.123 138.086 742.193 137.821 742.25 137.52C742.306 137.219 742.347 136.885 742.372 136.519C742.396 136.218 742.412 135.896 742.42 135.555C742.429 135.205 742.433 134.83 742.433 134.432L742.445 128.792H752.418ZM757.277 134.358H758.535C758.575 133.528 758.697 132.759 758.901 132.051C759.104 131.343 759.393 130.729 759.768 130.208C760.142 129.687 760.602 129.28 761.147 128.987C761.7 128.694 762.339 128.548 763.063 128.548C763.837 128.548 764.508 128.715 765.078 129.048C765.655 129.374 766.132 129.821 766.506 130.391C766.888 130.969 767.173 131.648 767.36 132.43C767.548 133.203 767.641 134.037 767.641 134.932V135.884C767.641 136.779 767.548 137.618 767.36 138.399C767.173 139.172 766.892 139.843 766.518 140.413C766.144 140.983 765.672 141.434 765.102 141.768C764.532 142.094 763.861 142.256 763.088 142.256C762.339 142.256 761.684 142.11 761.123 141.817C760.569 141.524 760.105 141.121 759.731 140.608C759.357 140.096 759.068 139.493 758.864 138.802C758.669 138.11 758.555 137.361 758.522 136.556H757.277V142H754.287V128.792H757.277V134.358ZM761.342 135.884C761.342 136.413 761.367 136.926 761.416 137.422C761.472 137.911 761.57 138.342 761.708 138.716C761.839 139.091 762.014 139.392 762.233 139.62C762.453 139.839 762.738 139.949 763.088 139.949C763.422 139.949 763.698 139.839 763.918 139.62C764.146 139.392 764.325 139.091 764.455 138.716C764.585 138.342 764.675 137.911 764.724 137.422C764.781 136.926 764.809 136.413 764.809 135.884V134.932C764.809 134.403 764.781 133.895 764.724 133.406C764.675 132.918 764.585 132.483 764.455 132.1C764.317 131.726 764.134 131.429 763.906 131.209C763.686 130.981 763.405 130.867 763.063 130.867C762.722 130.867 762.441 130.981 762.221 131.209C762.001 131.429 761.826 131.73 761.696 132.112C761.566 132.487 761.472 132.918 761.416 133.406C761.367 133.895 761.342 134.403 761.342 134.932V135.884ZM452.092 163.916C451.702 163.916 451.331 163.973 450.981 164.087C450.632 164.201 450.326 164.355 450.066 164.551C449.797 164.754 449.586 164.994 449.431 165.271C449.277 165.548 449.199 165.853 449.199 166.187H446.453C446.453 165.535 446.603 164.929 446.904 164.368C447.205 163.806 447.616 163.314 448.137 162.891C448.65 162.476 449.248 162.15 449.932 161.914C450.615 161.67 451.335 161.548 452.092 161.548C453.15 161.548 454.074 161.727 454.863 162.085C455.653 162.435 456.312 162.911 456.841 163.513C457.354 164.115 457.74 164.819 458 165.625C458.261 166.431 458.391 167.285 458.391 168.188V168.616C458.391 169.527 458.261 170.386 458 171.191C457.74 171.989 457.349 172.689 456.829 173.291C456.308 173.893 455.653 174.369 454.863 174.719C454.074 175.069 453.15 175.244 452.092 175.244C451.262 175.244 450.501 175.126 449.81 174.89C449.126 174.646 448.536 174.3 448.04 173.853C447.535 173.421 447.144 172.904 446.868 172.302C446.591 171.692 446.453 171.016 446.453 170.276H449.199C449.199 170.642 449.268 170.984 449.407 171.301C449.553 171.619 449.753 171.895 450.005 172.131C450.265 172.367 450.57 172.555 450.92 172.693C451.278 172.831 451.669 172.9 452.092 172.9C452.678 172.9 453.175 172.803 453.582 172.607C453.988 172.404 454.326 172.135 454.595 171.802C454.847 171.476 455.038 171.098 455.168 170.667C455.307 170.235 455.396 169.788 455.437 169.324H450.957V167.31H455.425C455.376 166.854 455.282 166.423 455.144 166.016C455.006 165.609 454.806 165.251 454.546 164.941C454.285 164.632 453.952 164.384 453.545 164.197C453.146 164.01 452.662 163.916 452.092 163.916ZM465.765 169.763H463.714V175H460.797V161.792H463.714V167.065H465.558L469.684 161.792H473.309L468.121 168.152L473.724 175H469.916L465.765 169.763ZM480.671 172.9C481.037 172.9 481.387 172.847 481.721 172.742C482.062 172.628 482.364 172.469 482.624 172.266C482.876 172.062 483.076 171.822 483.222 171.545C483.377 171.269 483.454 170.964 483.454 170.63H486.201C486.209 171.273 486.062 171.879 485.761 172.449C485.468 173.01 485.069 173.494 484.565 173.901C484.052 174.325 483.462 174.658 482.795 174.902C482.136 175.138 481.44 175.256 480.708 175.256C479.69 175.256 478.799 175.081 478.034 174.731C477.277 174.373 476.647 173.893 476.142 173.291C475.629 172.689 475.243 171.989 474.982 171.191C474.722 170.386 474.592 169.527 474.592 168.616V168.188C474.592 167.285 474.718 166.431 474.97 165.625C475.231 164.819 475.617 164.115 476.13 163.513C476.643 162.911 477.277 162.435 478.034 162.085C478.799 161.727 479.686 161.548 480.695 161.548C481.493 161.548 482.229 161.67 482.905 161.914C483.588 162.158 484.174 162.5 484.663 162.939C485.151 163.379 485.529 163.904 485.798 164.514C486.075 165.125 486.209 165.796 486.201 166.528H483.454C483.454 166.17 483.385 165.833 483.247 165.515C483.116 165.198 482.929 164.921 482.685 164.685C482.433 164.449 482.132 164.262 481.782 164.124C481.44 163.985 481.07 163.916 480.671 163.916C480.061 163.916 479.552 164.042 479.145 164.294C478.746 164.539 478.429 164.86 478.193 165.259C477.941 165.658 477.762 166.113 477.656 166.626C477.558 167.139 477.509 167.66 477.509 168.188V168.616C477.509 169.153 477.558 169.682 477.656 170.203C477.762 170.715 477.937 171.167 478.181 171.558C478.417 171.965 478.738 172.29 479.145 172.534C479.552 172.778 480.061 172.9 480.671 172.9ZM500.167 175H497.249V164.172H491.67V175H488.741V161.792H500.167V175ZM509.115 175.244C508.139 175.244 507.243 175.081 506.43 174.756C505.624 174.43 504.932 173.979 504.354 173.401C503.777 172.831 503.329 172.16 503.012 171.387C502.702 170.605 502.548 169.763 502.548 168.86V168.359C502.548 167.326 502.711 166.39 503.036 165.552C503.362 164.714 503.809 163.997 504.379 163.403C504.949 162.809 505.608 162.354 506.356 162.036C507.113 161.711 507.919 161.548 508.773 161.548C509.726 161.548 510.568 161.711 511.3 162.036C512.033 162.354 512.647 162.797 513.144 163.367C513.64 163.944 514.014 164.632 514.267 165.43C514.519 166.227 514.645 167.098 514.645 168.042V169.299H505.49V169.36C505.579 169.938 505.718 170.422 505.905 170.813C506.092 171.204 506.348 171.554 506.674 171.863C506.999 172.188 507.382 172.441 507.821 172.62C508.269 172.799 508.757 172.888 509.286 172.888C510.01 172.888 510.686 172.75 511.312 172.473C511.939 172.188 512.456 171.785 512.863 171.265L514.425 172.778C513.986 173.413 513.31 173.983 512.399 174.487C511.496 174.992 510.401 175.244 509.115 175.244ZM508.761 163.916C508.346 163.916 507.96 163.993 507.602 164.148C507.252 164.294 506.938 164.506 506.662 164.783C506.385 165.068 506.153 165.409 505.966 165.808C505.779 166.207 505.64 166.659 505.551 167.163H511.764V166.968C511.764 166.585 511.695 166.207 511.557 165.833C511.418 165.45 511.223 165.116 510.971 164.832C510.727 164.555 510.417 164.335 510.043 164.172C509.677 164.001 509.25 163.916 508.761 163.916ZM516.99 180.078V161.792H519.675L519.785 163.147C519.964 162.927 520.16 162.728 520.371 162.549C520.583 162.37 520.811 162.215 521.055 162.085C521.372 161.914 521.722 161.784 522.104 161.694C522.487 161.597 522.894 161.548 523.325 161.548C524.172 161.548 524.916 161.711 525.559 162.036C526.21 162.362 526.755 162.821 527.195 163.416C527.626 164.01 527.956 164.722 528.184 165.552C528.411 166.374 528.525 167.281 528.525 168.274V168.53C528.525 169.482 528.411 170.369 528.184 171.191C527.964 172.013 527.634 172.721 527.195 173.315C526.755 173.918 526.214 174.39 525.571 174.731C524.928 175.073 524.192 175.244 523.362 175.244C522.89 175.244 522.454 175.195 522.056 175.098C521.665 175 521.303 174.858 520.969 174.67C520.774 174.556 520.587 174.426 520.408 174.28C520.229 174.133 520.062 173.975 519.907 173.804V180.078H516.99ZM525.608 168.274C525.608 167.68 525.547 167.122 525.425 166.602C525.311 166.073 525.132 165.613 524.888 165.222C524.635 164.832 524.314 164.522 523.923 164.294C523.533 164.067 523.065 163.953 522.52 163.953C522.218 163.953 521.938 163.985 521.677 164.05C521.417 164.115 521.185 164.209 520.981 164.331C520.745 164.461 520.538 164.624 520.359 164.819C520.188 165.015 520.037 165.234 519.907 165.479V171.35C520.021 171.578 520.16 171.785 520.322 171.973C520.485 172.16 520.672 172.323 520.884 172.461C521.104 172.591 521.352 172.697 521.628 172.778C521.905 172.852 522.21 172.888 522.544 172.888C523.089 172.888 523.553 172.774 523.936 172.546C524.326 172.31 524.644 171.993 524.888 171.594C525.14 171.187 525.323 170.723 525.437 170.203C525.551 169.674 525.608 169.116 525.608 168.53V168.274ZM537.145 175.244C536.168 175.244 535.273 175.081 534.459 174.756C533.653 174.43 532.962 173.979 532.384 173.401C531.806 172.831 531.358 172.16 531.041 171.387C530.732 170.605 530.577 169.763 530.577 168.86V168.359C530.577 167.326 530.74 166.39 531.065 165.552C531.391 164.714 531.839 163.997 532.408 163.403C532.978 162.809 533.637 162.354 534.386 162.036C535.143 161.711 535.948 161.548 536.803 161.548C537.755 161.548 538.597 161.711 539.33 162.036C540.062 162.354 540.676 162.797 541.173 163.367C541.669 163.944 542.044 164.632 542.296 165.43C542.548 166.227 542.674 167.098 542.674 168.042V169.299H533.519V169.36C533.609 169.938 533.747 170.422 533.934 170.813C534.121 171.204 534.378 171.554 534.703 171.863C535.029 172.188 535.411 172.441 535.851 172.62C536.298 172.799 536.786 172.888 537.315 172.888C538.04 172.888 538.715 172.75 539.342 172.473C539.968 172.188 540.485 171.785 540.892 171.265L542.455 172.778C542.015 173.413 541.34 173.983 540.428 174.487C539.525 174.992 538.43 175.244 537.145 175.244ZM536.791 163.916C536.375 163.916 535.989 163.993 535.631 164.148C535.281 164.294 534.968 164.506 534.691 164.783C534.414 165.068 534.182 165.409 533.995 165.808C533.808 166.207 533.67 166.659 533.58 167.163H539.793V166.968C539.793 166.585 539.724 166.207 539.586 165.833C539.448 165.45 539.252 165.116 539 164.832C538.756 164.555 538.447 164.335 538.072 164.172C537.706 164.001 537.279 163.916 536.791 163.916ZM550.512 171.399L552.771 161.792H556.42V175H553.723V167.31L551.501 175H549.511L547.29 167.297V175H544.604V161.792H548.278L550.512 171.399ZM565.174 175.244C564.197 175.244 563.302 175.081 562.488 174.756C561.683 174.43 560.991 173.979 560.413 173.401C559.835 172.831 559.388 172.16 559.07 171.387C558.761 170.605 558.606 169.763 558.606 168.86V168.359C558.606 167.326 558.769 166.39 559.095 165.552C559.42 164.714 559.868 163.997 560.438 163.403C561.007 162.809 561.666 162.354 562.415 162.036C563.172 161.711 563.978 161.548 564.832 161.548C565.784 161.548 566.626 161.711 567.359 162.036C568.091 162.354 568.706 162.797 569.202 163.367C569.699 163.944 570.073 164.632 570.325 165.43C570.577 166.227 570.704 167.098 570.704 168.042V169.299H561.548V169.36C561.638 169.938 561.776 170.422 561.963 170.813C562.151 171.204 562.407 171.554 562.732 171.863C563.058 172.188 563.44 172.441 563.88 172.62C564.327 172.799 564.816 172.888 565.345 172.888C566.069 172.888 566.744 172.75 567.371 172.473C567.998 172.188 568.514 171.785 568.921 171.265L570.484 172.778C570.044 173.413 569.369 173.983 568.458 174.487C567.554 174.992 566.46 175.244 565.174 175.244ZM564.82 163.916C564.405 163.916 564.018 163.993 563.66 164.148C563.31 164.294 562.997 164.506 562.72 164.783C562.444 165.068 562.212 165.409 562.024 165.808C561.837 166.207 561.699 166.659 561.609 167.163H567.823V166.968C567.823 166.585 567.754 166.207 567.615 165.833C567.477 165.45 567.282 165.116 567.029 164.832C566.785 164.555 566.476 164.335 566.102 164.172C565.735 164.001 565.308 163.916 564.82 163.916ZM584.254 175H581.325V169.653H575.758V175H572.829V161.792H575.758V167.297H581.325V161.792H584.254V175ZM599.539 164.136H594.375V175H591.445V164.136H586.343V161.792H599.539V164.136ZM609.366 161.792H612.284V175H609.366V166.028L603.775 175H600.858V161.792H603.775V170.776L609.366 161.792ZM615.092 180.078V161.792H617.778L617.888 163.147C618.067 162.927 618.262 162.728 618.474 162.549C618.685 162.37 618.913 162.215 619.157 162.085C619.475 161.914 619.825 161.784 620.207 161.694C620.59 161.597 620.996 161.548 621.428 161.548C622.274 161.548 623.019 161.711 623.662 162.036C624.313 162.362 624.858 162.821 625.297 163.416C625.729 164.01 626.058 164.722 626.286 165.552C626.514 166.374 626.628 167.281 626.628 168.274V168.53C626.628 169.482 626.514 170.369 626.286 171.191C626.066 172.013 625.737 172.721 625.297 173.315C624.858 173.918 624.317 174.39 623.674 174.731C623.031 175.073 622.294 175.244 621.464 175.244C620.992 175.244 620.557 175.195 620.158 175.098C619.768 175 619.405 174.858 619.072 174.67C618.876 174.556 618.689 174.426 618.51 174.28C618.331 174.133 618.164 173.975 618.01 173.804V180.078H615.092ZM623.71 168.274C623.71 167.68 623.649 167.122 623.527 166.602C623.413 166.073 623.234 165.613 622.99 165.222C622.738 164.832 622.417 164.522 622.026 164.294C621.635 164.067 621.167 163.953 620.622 163.953C620.321 163.953 620.04 163.985 619.78 164.05C619.519 164.115 619.287 164.209 619.084 164.331C618.848 164.461 618.64 164.624 618.461 164.819C618.291 165.015 618.14 165.234 618.01 165.479V171.35C618.124 171.578 618.262 171.785 618.425 171.973C618.588 172.16 618.775 172.323 618.986 172.461C619.206 172.591 619.454 172.697 619.731 172.778C620.008 172.852 620.313 172.888 620.646 172.888C621.192 172.888 621.656 172.774 622.038 172.546C622.429 172.31 622.746 171.993 622.99 171.594C623.243 171.187 623.426 170.723 623.54 170.203C623.653 169.674 623.71 169.116 623.71 168.53V168.274ZM628.545 168.274C628.545 167.314 628.684 166.427 628.96 165.613C629.237 164.791 629.64 164.079 630.169 163.477C630.69 162.874 631.329 162.402 632.085 162.061C632.842 161.719 633.705 161.548 634.673 161.548C635.642 161.548 636.504 161.719 637.261 162.061C638.026 162.402 638.673 162.874 639.202 163.477C639.723 164.079 640.122 164.791 640.398 165.613C640.675 166.427 640.813 167.314 640.813 168.274V168.53C640.813 169.499 640.675 170.39 640.398 171.204C640.122 172.017 639.723 172.725 639.202 173.328C638.681 173.93 638.038 174.402 637.273 174.744C636.517 175.085 635.658 175.256 634.698 175.256C633.729 175.256 632.863 175.085 632.098 174.744C631.333 174.402 630.69 173.93 630.169 173.328C629.64 172.725 629.237 172.017 628.96 171.204C628.684 170.39 628.545 169.499 628.545 168.53V168.274ZM631.463 168.53C631.463 169.124 631.524 169.686 631.646 170.215C631.776 170.744 631.976 171.208 632.244 171.606C632.505 172.005 632.838 172.323 633.245 172.559C633.652 172.786 634.136 172.9 634.698 172.9C635.243 172.9 635.719 172.786 636.126 172.559C636.533 172.323 636.867 172.005 637.127 171.606C637.387 171.208 637.579 170.744 637.701 170.215C637.831 169.686 637.896 169.124 637.896 168.53V168.274C637.896 167.696 637.831 167.143 637.701 166.614C637.57 166.085 637.379 165.621 637.127 165.222C636.858 164.823 636.521 164.506 636.114 164.27C635.715 164.034 635.235 163.916 634.673 163.916C634.12 163.916 633.64 164.034 633.233 164.27C632.834 164.506 632.505 164.823 632.244 165.222C631.976 165.621 631.776 166.085 631.646 166.614C631.524 167.143 631.463 167.696 631.463 168.274V168.53ZM643.024 175V161.792H648.383C649.221 161.792 649.978 161.869 650.653 162.024C651.337 162.17 651.919 162.39 652.399 162.683C652.879 162.984 653.245 163.367 653.498 163.831C653.758 164.286 653.888 164.827 653.888 165.454C653.888 165.82 653.819 166.166 653.681 166.492C653.542 166.817 653.339 167.11 653.07 167.371C652.891 167.542 652.68 167.7 652.436 167.847C652.191 167.985 651.923 168.107 651.63 168.213L651.752 168.237C652.191 168.343 652.574 168.494 652.899 168.689C653.233 168.876 653.518 169.096 653.754 169.348C653.99 169.617 654.165 169.91 654.279 170.227C654.401 170.544 654.462 170.882 654.462 171.24C654.462 171.867 654.34 172.416 654.096 172.888C653.86 173.352 653.518 173.739 653.07 174.048C652.623 174.365 652.073 174.605 651.422 174.768C650.779 174.923 650.047 175 649.225 175H643.024ZM645.941 169.373V172.668H649.225C649.632 172.668 649.982 172.632 650.275 172.559C650.576 172.477 650.82 172.367 651.007 172.229C651.186 172.091 651.321 171.92 651.41 171.716C651.5 171.513 651.544 171.281 651.544 171.021C651.544 170.768 651.5 170.544 651.41 170.349C651.321 170.146 651.186 169.975 651.007 169.836C650.82 169.69 650.576 169.576 650.275 169.495C649.982 169.413 649.632 169.373 649.225 169.373H645.941ZM645.941 167.273H648.493C648.948 167.273 649.343 167.236 649.677 167.163C650.01 167.082 650.279 166.96 650.482 166.797C650.645 166.675 650.767 166.528 650.849 166.357C650.93 166.187 650.971 165.987 650.971 165.759C650.971 165.491 650.918 165.259 650.812 165.063C650.714 164.86 650.56 164.689 650.348 164.551C650.145 164.412 649.876 164.311 649.542 164.246C649.209 164.172 648.822 164.136 648.383 164.136H645.941V167.273ZM665.547 175C665.457 174.837 665.384 174.642 665.327 174.414C665.278 174.178 665.234 173.934 665.193 173.682C664.989 173.893 664.757 174.097 664.497 174.292C664.245 174.479 663.96 174.642 663.643 174.78C663.325 174.927 662.983 175.041 662.617 175.122C662.251 175.203 661.856 175.244 661.433 175.244C660.75 175.244 660.123 175.146 659.553 174.951C658.992 174.748 658.512 174.471 658.113 174.121C657.706 173.779 657.389 173.368 657.161 172.888C656.941 172.4 656.831 171.875 656.831 171.313C656.831 170.589 656.973 169.95 657.258 169.397C657.551 168.835 657.974 168.372 658.528 168.005C659.041 167.664 659.671 167.403 660.42 167.224C661.177 167.045 662.031 166.956 662.983 166.956H665.107V166.064C665.107 165.723 665.046 165.413 664.924 165.137C664.81 164.86 664.644 164.62 664.424 164.417C664.188 164.213 663.899 164.058 663.557 163.953C663.223 163.839 662.837 163.782 662.397 163.782C661.999 163.782 661.649 163.831 661.348 163.928C661.055 164.026 660.811 164.16 660.615 164.331C660.42 164.486 660.273 164.677 660.176 164.905C660.086 165.125 660.042 165.361 660.042 165.613H657.112C657.12 165.084 657.246 164.575 657.49 164.087C657.734 163.599 658.092 163.167 658.564 162.793C659.02 162.41 659.582 162.109 660.249 161.89C660.924 161.662 661.694 161.548 662.556 161.548C663.329 161.548 664.049 161.646 664.717 161.841C665.392 162.028 665.974 162.309 666.462 162.683C666.951 163.057 667.333 163.534 667.61 164.111C667.887 164.681 668.025 165.34 668.025 166.089V171.96C668.025 172.555 668.066 173.092 668.147 173.572C668.236 174.044 668.363 174.451 668.525 174.792V175H665.547ZM661.995 172.9C662.377 172.9 662.731 172.852 663.057 172.754C663.39 172.656 663.691 172.53 663.96 172.375C664.229 172.221 664.46 172.046 664.656 171.851C664.851 171.655 665.002 171.452 665.107 171.24V168.799H663.228C662.593 168.799 662.043 168.86 661.58 168.982C661.116 169.096 660.745 169.263 660.469 169.482C660.225 169.67 660.042 169.893 659.919 170.154C659.806 170.414 659.749 170.707 659.749 171.033C659.749 171.301 659.797 171.554 659.895 171.79C659.993 172.017 660.135 172.213 660.322 172.375C660.509 172.538 660.741 172.668 661.018 172.766C661.295 172.856 661.62 172.9 661.995 172.9ZM683.626 164.136H678.463V175H675.533V164.136H670.431V161.792H683.626V164.136ZM687.985 166.467H691.623C692.469 166.467 693.222 166.573 693.881 166.785C694.549 166.988 695.11 167.277 695.566 167.651C696.022 168.034 696.368 168.486 696.604 169.006C696.84 169.527 696.958 170.101 696.958 170.728C696.958 171.338 696.84 171.908 696.604 172.437C696.368 172.957 696.022 173.405 695.566 173.779C695.11 174.162 694.549 174.463 693.881 174.683C693.222 174.894 692.469 175 691.623 175H685.068V161.792H687.985V166.467ZM687.985 168.823V172.656H691.623C692.046 172.656 692.412 172.603 692.722 172.498C693.031 172.392 693.283 172.253 693.479 172.083C693.674 171.912 693.816 171.712 693.906 171.484C693.995 171.257 694.04 171.021 694.04 170.776C694.04 170.524 693.991 170.28 693.894 170.044C693.804 169.808 693.662 169.596 693.466 169.409C693.271 169.238 693.019 169.1 692.709 168.994C692.408 168.88 692.046 168.823 691.623 168.823H687.985ZM718.92 172.9C719.286 172.9 719.636 172.847 719.97 172.742C720.312 172.628 720.613 172.469 720.873 172.266C721.125 172.062 721.325 171.822 721.471 171.545C721.626 171.269 721.703 170.964 721.703 170.63H724.45C724.458 171.273 724.311 171.879 724.01 172.449C723.717 173.01 723.319 173.494 722.814 173.901C722.301 174.325 721.711 174.658 721.044 174.902C720.385 175.138 719.689 175.256 718.957 175.256C717.939 175.256 717.048 175.081 716.283 174.731C715.526 174.373 714.896 173.893 714.391 173.291C713.878 172.689 713.492 171.989 713.231 171.191C712.971 170.386 712.841 169.527 712.841 168.616V168.188C712.841 167.285 712.967 166.431 713.219 165.625C713.48 164.819 713.866 164.115 714.379 163.513C714.892 162.911 715.526 162.435 716.283 162.085C717.048 161.727 717.935 161.548 718.944 161.548C719.742 161.548 720.478 161.67 721.154 161.914C721.837 162.158 722.423 162.5 722.912 162.939C723.4 163.379 723.778 163.904 724.047 164.514C724.324 165.125 724.458 165.796 724.45 166.528H721.703C721.703 166.17 721.634 165.833 721.496 165.515C721.365 165.198 721.178 164.921 720.934 164.685C720.682 164.449 720.381 164.262 720.031 164.124C719.689 163.985 719.319 163.916 718.92 163.916C718.31 163.916 717.801 164.042 717.394 164.294C716.995 164.539 716.678 164.86 716.442 165.259C716.19 165.658 716.011 166.113 715.905 166.626C715.807 167.139 715.758 167.66 715.758 168.188V168.616C715.758 169.153 715.807 169.682 715.905 170.203C716.011 170.715 716.186 171.167 716.43 171.558C716.666 171.965 716.987 172.29 717.394 172.534C717.801 172.778 718.31 172.9 718.92 172.9ZM458.306 208H455.437V200.078H449.456V208H446.599V190.227H449.456V197.661H455.437V190.227H458.306V208ZM473.443 192.656H467.962V208H465.045V192.656H459.601V190.227H473.443V192.656ZM478.327 190.227L480.524 197.832L482.954 190.227H486.604V208H483.845V201.97L484.016 194.035L481.281 202.519H479.755L477.277 194.328L477.436 201.97V208H474.689V190.227H478.327ZM492.061 205.583H500.545V208H489.119V190.227H492.061V205.583ZM525.278 194.792H528.196V208H525.278V199.028L519.688 208H516.77V194.792H519.688V203.776L525.278 194.792ZM556.921 202.531C556.84 203.394 556.636 204.179 556.311 204.887C555.985 205.587 555.558 206.185 555.029 206.682C554.492 207.186 553.853 207.577 553.112 207.854C552.38 208.122 551.566 208.256 550.671 208.256C549.938 208.256 549.263 208.159 548.645 207.963C548.034 207.76 547.489 207.475 547.009 207.109C546.545 206.767 546.138 206.356 545.788 205.876C545.446 205.388 545.157 204.855 544.921 204.277C544.685 203.707 544.506 203.089 544.384 202.421C544.27 201.754 544.213 201.058 544.213 200.334V197.905C544.213 197.213 544.27 196.546 544.384 195.903C544.498 195.26 544.669 194.654 544.897 194.084C545.141 193.449 545.454 192.875 545.837 192.363C546.228 191.842 546.675 191.398 547.18 191.032C547.66 190.699 548.189 190.438 548.767 190.251C549.353 190.064 549.991 189.97 550.683 189.97C551.619 189.97 552.453 190.109 553.186 190.385C553.926 190.662 554.557 191.053 555.078 191.557C555.607 192.07 556.022 192.688 556.323 193.413C556.632 194.137 556.831 194.943 556.921 195.83H553.991C553.942 195.301 553.841 194.825 553.686 194.401C553.54 193.97 553.336 193.604 553.076 193.303C552.807 193.002 552.478 192.774 552.087 192.619C551.696 192.456 551.228 192.375 550.683 192.375C550.301 192.375 549.955 192.428 549.646 192.534C549.344 192.639 549.076 192.79 548.84 192.985C548.514 193.221 548.242 193.531 548.022 193.913C547.81 194.287 547.635 194.707 547.497 195.17C547.391 195.577 547.31 196.013 547.253 196.477C547.204 196.932 547.18 197.4 547.18 197.88V200.334C547.18 200.928 547.212 201.486 547.277 202.006C547.351 202.527 547.46 203.003 547.607 203.435C547.721 203.793 547.863 204.118 548.034 204.411C548.213 204.704 548.425 204.956 548.669 205.168C548.921 205.396 549.21 205.571 549.536 205.693C549.869 205.807 550.248 205.864 550.671 205.864C551.175 205.864 551.623 205.791 552.014 205.644C552.404 205.498 552.738 205.282 553.015 204.997C553.283 204.72 553.499 204.375 553.662 203.959C553.824 203.544 553.93 203.068 553.979 202.531H556.921ZM568.201 203.422C568.201 203.007 568.116 202.641 567.945 202.324C567.774 202.006 567.534 201.722 567.225 201.469C566.899 201.233 566.513 201.022 566.065 200.834C565.625 200.639 565.133 200.464 564.588 200.31C563.75 200.074 562.977 199.785 562.269 199.443C561.569 199.093 560.971 198.702 560.474 198.271C559.978 197.832 559.587 197.335 559.302 196.782C559.026 196.22 558.887 195.59 558.887 194.89C558.887 194.133 559.05 193.453 559.375 192.851C559.701 192.241 560.14 191.72 560.694 191.289C561.247 190.865 561.89 190.544 562.623 190.324C563.363 190.096 564.14 189.982 564.954 189.982C565.817 189.982 566.618 190.117 567.359 190.385C568.108 190.646 568.759 191.012 569.312 191.484C569.865 191.964 570.301 192.538 570.618 193.205C570.944 193.864 571.106 194.597 571.106 195.402H568.201C568.16 194.955 568.063 194.548 567.908 194.182C567.762 193.807 567.554 193.486 567.286 193.217C567.009 192.957 566.671 192.753 566.272 192.607C565.882 192.452 565.43 192.375 564.917 192.375C564.47 192.375 564.055 192.436 563.672 192.558C563.298 192.672 562.972 192.835 562.696 193.046C562.419 193.266 562.203 193.531 562.049 193.84C561.894 194.149 561.817 194.495 561.817 194.877C561.825 195.284 561.931 195.642 562.134 195.952C562.338 196.253 562.61 196.517 562.952 196.745C563.302 196.973 563.701 197.172 564.148 197.343C564.604 197.514 565.08 197.673 565.577 197.819C566.203 197.998 566.814 198.222 567.408 198.491C568.01 198.751 568.563 199.069 569.068 199.443C569.694 199.915 570.195 200.48 570.569 201.14C570.952 201.791 571.143 202.543 571.143 203.398C571.143 204.187 570.976 204.883 570.643 205.485C570.317 206.088 569.878 206.588 569.324 206.987C568.763 207.402 568.112 207.715 567.371 207.927C566.631 208.13 565.849 208.232 565.027 208.232C564.157 208.232 563.298 208.098 562.452 207.829C561.605 207.552 560.869 207.154 560.242 206.633C559.664 206.145 559.205 205.571 558.863 204.912C558.529 204.252 558.358 203.496 558.35 202.641H561.28C561.32 203.186 561.434 203.662 561.622 204.069C561.817 204.468 562.081 204.798 562.415 205.058C562.741 205.327 563.123 205.526 563.562 205.656C564.01 205.786 564.498 205.852 565.027 205.852C565.475 205.852 565.89 205.799 566.272 205.693C566.663 205.587 567.001 205.428 567.286 205.217C567.562 205.013 567.782 204.761 567.945 204.46C568.116 204.159 568.201 203.813 568.201 203.422ZM582.216 203.422C582.216 203.007 582.13 202.641 581.959 202.324C581.789 202.006 581.549 201.722 581.239 201.469C580.914 201.233 580.527 201.022 580.08 200.834C579.64 200.639 579.148 200.464 578.603 200.31C577.764 200.074 576.991 199.785 576.283 199.443C575.583 199.093 574.985 198.702 574.489 198.271C573.992 197.832 573.602 197.335 573.317 196.782C573.04 196.22 572.902 195.59 572.902 194.89C572.902 194.133 573.065 193.453 573.39 192.851C573.716 192.241 574.155 191.72 574.708 191.289C575.262 190.865 575.905 190.544 576.637 190.324C577.378 190.096 578.155 189.982 578.969 189.982C579.831 189.982 580.633 190.117 581.374 190.385C582.122 190.646 582.773 191.012 583.327 191.484C583.88 191.964 584.315 192.538 584.633 193.205C584.958 193.864 585.121 194.597 585.121 195.402H582.216C582.175 194.955 582.077 194.548 581.923 194.182C581.776 193.807 581.569 193.486 581.3 193.217C581.024 192.957 580.686 192.753 580.287 192.607C579.896 192.452 579.445 192.375 578.932 192.375C578.485 192.375 578.069 192.436 577.687 192.558C577.313 192.672 576.987 192.835 576.71 193.046C576.434 193.266 576.218 193.531 576.063 193.84C575.909 194.149 575.832 194.495 575.832 194.877C575.84 195.284 575.945 195.642 576.149 195.952C576.352 196.253 576.625 196.517 576.967 196.745C577.317 196.973 577.715 197.172 578.163 197.343C578.619 197.514 579.095 197.673 579.591 197.819C580.218 197.998 580.828 198.222 581.422 198.491C582.025 198.751 582.578 199.069 583.083 199.443C583.709 199.915 584.21 200.48 584.584 201.14C584.966 201.791 585.158 202.543 585.158 203.398C585.158 204.187 584.991 204.883 584.657 205.485C584.332 206.088 583.892 206.588 583.339 206.987C582.777 207.402 582.126 207.715 581.386 207.927C580.645 208.13 579.864 208.232 579.042 208.232C578.171 208.232 577.313 208.098 576.466 207.829C575.62 207.552 574.883 207.154 574.257 206.633C573.679 206.145 573.219 205.571 572.877 204.912C572.544 204.252 572.373 203.496 572.365 202.641H575.294C575.335 203.186 575.449 203.662 575.636 204.069C575.832 204.468 576.096 204.798 576.43 205.058C576.755 205.327 577.138 205.526 577.577 205.656C578.025 205.786 578.513 205.852 579.042 205.852C579.49 205.852 579.905 205.799 580.287 205.693C580.678 205.587 581.015 205.428 581.3 205.217C581.577 205.013 581.797 204.761 581.959 204.46C582.13 204.159 582.216 203.813 582.216 203.422Z" fill="#0066FF"/>
<rect x="797" y="65" width="140" height="140" rx="70" fill="#0066FF"/>
<path d="M866.695 92C868.078 103.934 868.769 109.901 871.006 114.716C874.274 121.749 879.919 127.403 886.947 130.683C891.758 132.928 897.636 133.619 909.39 135C897.636 136.381 891.758 137.072 886.947 139.317C879.919 142.597 874.274 148.251 871.006 155.284C868.769 160.099 868.078 166.066 866.695 178L866.494 176.593C864.852 165.076 864.032 159.318 861.713 154.61C858.397 147.878 852.882 142.48 846.081 139.309C841.324 137.092 835.55 136.395 824 135C835.55 133.605 841.324 132.908 846.081 130.691C852.882 127.52 858.397 122.122 861.713 115.39C864.032 110.682 864.852 104.924 866.494 93.4067L866.695 92Z" fill="white"/>
</svg>
