<svg width="376" height="182" viewBox="0 0 376 182" fill="none" xmlns="http://www.w3.org/2000/svg">
<rect width="376" height="182" rx="20" fill="#0066FF" fill-opacity="0.2"/>
<rect x="1.5" y="1.5" width="373" height="179" rx="18.5" stroke="#0066FF" stroke-opacity="0.5" stroke-width="3"/>
<path d="M40.2515 49.4131C40.6584 49.4131 41.0531 49.348 41.4355 49.2178C41.8262 49.0876 42.172 48.9045 42.4731 48.6685C42.7743 48.4406 43.0143 48.172 43.1934 47.8628C43.3805 47.5454 43.4782 47.2036 43.4863 46.8374H45.6226C45.6144 47.4233 45.4598 47.9849 45.1587 48.522C44.8657 49.0509 44.471 49.5148 43.9746 49.9136C43.4782 50.3205 42.9085 50.646 42.2656 50.8901C41.6227 51.1261 40.9513 51.2441 40.2515 51.2441C39.2505 51.2441 38.3757 51.0651 37.627 50.707C36.8783 50.349 36.2557 49.8647 35.7593 49.2544C35.2547 48.6522 34.8763 47.9564 34.624 47.167C34.3717 46.3695 34.2456 45.5312 34.2456 44.6523V44.1396C34.2456 43.2689 34.3717 42.4347 34.624 41.6372C34.8763 40.8397 35.2547 40.1357 35.7593 39.5254C36.2557 38.9232 36.8783 38.443 37.627 38.085C38.3757 37.7269 39.2505 37.5479 40.2515 37.5479C41.0327 37.5479 41.7489 37.674 42.3999 37.9263C43.0591 38.1704 43.6287 38.5041 44.1089 38.9272C44.5809 39.3586 44.9512 39.8672 45.2197 40.4531C45.4883 41.0391 45.6226 41.6657 45.6226 42.333H43.4863C43.4782 41.9342 43.3887 41.5599 43.2178 41.21C43.055 40.8519 42.8312 40.5386 42.5464 40.27C42.2616 40.0015 41.9198 39.7899 41.521 39.6353C41.1304 39.4806 40.7072 39.4033 40.2515 39.4033C39.5516 39.4033 38.9616 39.5457 38.4814 39.8306C38.0094 40.1073 37.627 40.4694 37.334 40.917C37.041 41.3727 36.8294 41.8813 36.6992 42.4429C36.5771 43.0044 36.5161 43.57 36.5161 44.1396V44.6523C36.5161 45.2301 36.5771 45.8039 36.6992 46.3735C36.8294 46.9351 37.041 47.4396 37.334 47.8872C37.6188 48.3429 37.9972 48.7132 38.4692 48.998C38.9494 49.2747 39.5435 49.4131 40.2515 49.4131ZM55.2236 51.2441C54.2959 51.2441 53.4414 51.0854 52.6602 50.7681C51.887 50.4507 51.2238 50.0072 50.6704 49.4375C50.117 48.8678 49.6857 48.1924 49.3765 47.4111C49.0672 46.6299 48.9126 45.7795 48.9126 44.8599V44.3472C48.9126 43.2811 49.0835 42.3289 49.4253 41.4907C49.7671 40.6444 50.2228 39.9282 50.7925 39.3423C51.354 38.7645 51.9928 38.321 52.709 38.0117C53.4333 37.7025 54.1738 37.5479 54.9307 37.5479C55.8828 37.5479 56.7129 37.7147 57.4209 38.0483C58.137 38.3739 58.7311 38.8255 59.2031 39.4033C59.6751 39.9893 60.0251 40.6769 60.2529 41.4663C60.4889 42.2557 60.6069 43.1102 60.6069 44.0298V45.043H51.1709V45.1284C51.2279 45.7713 51.354 46.3369 51.5493 46.8252C51.7528 47.3135 52.0295 47.7448 52.3794 48.1191C52.7375 48.5179 53.1688 48.8312 53.6733 49.0591C54.1779 49.2869 54.7354 49.4009 55.3457 49.4009C56.1514 49.4009 56.8675 49.2381 57.4941 48.9126C58.1208 48.5871 58.6416 48.1558 59.0566 47.6187L60.436 48.6929C59.9966 49.3602 59.3374 49.9543 58.4585 50.4751C57.5877 50.9878 56.5094 51.2441 55.2236 51.2441ZM54.9307 39.4033C54.4749 39.4033 54.0436 39.4888 53.6367 39.6597C53.2298 39.8224 52.8636 40.0625 52.5381 40.3799C52.2126 40.7054 51.9359 41.1042 51.708 41.5762C51.4883 42.04 51.3337 42.5771 51.2441 43.1875H58.3486V43.0776C58.3486 42.6707 58.2713 42.2354 58.1167 41.7715C57.9621 41.2995 57.7464 40.8926 57.4697 40.5508C57.193 40.209 56.8431 39.9323 56.4199 39.7207C56.0049 39.5091 55.5085 39.4033 54.9307 39.4033ZM74.9932 37.792V51H72.7227V39.6597H67.8643L67.8521 43.4438C67.8521 43.8914 67.8398 44.3268 67.8154 44.75C67.7992 45.165 67.7707 45.5597 67.73 45.9341C67.6649 46.5526 67.5632 47.1222 67.4248 47.6431C67.2865 48.1639 67.1115 48.6237 66.8999 49.0225C66.5581 49.6654 66.0983 50.1577 65.5205 50.4995C64.9427 50.8332 64.2225 51 63.3599 51H62.7007L62.7373 48.9858L63.2378 48.9736C63.7017 48.9736 64.0841 48.8597 64.3853 48.6318C64.6945 48.3958 64.9386 48.0459 65.1177 47.582C65.2072 47.3298 65.2845 47.0409 65.3496 46.7153C65.4147 46.3817 65.4676 46.0155 65.5083 45.6167C65.5327 45.2993 65.549 44.9616 65.5571 44.6035C65.5734 44.2373 65.5815 43.8507 65.5815 43.4438L65.606 37.792H74.9932ZM84.7529 51.2441C83.8252 51.2441 82.9707 51.0854 82.1895 50.7681C81.4163 50.4507 80.7531 50.0072 80.1997 49.4375C79.6463 48.8678 79.215 48.1924 78.9058 47.4111C78.5965 46.6299 78.4419 45.7795 78.4419 44.8599V44.3472C78.4419 43.2811 78.6128 42.3289 78.9546 41.4907C79.2964 40.6444 79.7521 39.9282 80.3218 39.3423C80.8833 38.7645 81.5221 38.321 82.2383 38.0117C82.9626 37.7025 83.7031 37.5479 84.46 37.5479C85.4121 37.5479 86.2422 37.7147 86.9502 38.0483C87.6663 38.3739 88.2604 38.8255 88.7324 39.4033C89.2044 39.9893 89.5544 40.6769 89.7822 41.4663C90.0182 42.2557 90.1362 43.1102 90.1362 44.0298V45.043H80.7002V45.1284C80.7572 45.7713 80.8833 46.3369 81.0786 46.8252C81.2821 47.3135 81.5588 47.7448 81.9087 48.1191C82.2668 48.5179 82.6981 48.8312 83.2026 49.0591C83.7072 49.2869 84.2646 49.4009 84.875 49.4009C85.6807 49.4009 86.3968 49.2381 87.0234 48.9126C87.6501 48.5871 88.1709 48.1558 88.5859 47.6187L89.9653 48.6929C89.5259 49.3602 88.8667 49.9543 87.9878 50.4751C87.117 50.9878 86.0387 51.2441 84.7529 51.2441ZM84.46 39.4033C84.0042 39.4033 83.5729 39.4888 83.166 39.6597C82.7591 39.8224 82.3929 40.0625 82.0674 40.3799C81.7419 40.7054 81.4652 41.1042 81.2373 41.5762C81.0176 42.04 80.863 42.5771 80.7734 43.1875H87.8779V43.0776C87.8779 42.6707 87.8006 42.2354 87.646 41.7715C87.4914 41.2995 87.2757 40.8926 86.999 40.5508C86.7223 40.209 86.3724 39.9323 85.9492 39.7207C85.5342 39.5091 85.0378 39.4033 84.46 39.4033ZM97.9673 45.3726H95.8188V51H93.5605V37.792H95.8188V43.3828H97.772L102.691 37.792H105.438L99.7739 44.1519L105.877 51H103.009L97.9673 45.3726ZM120.325 39.623H115.051V51H112.781V39.623H107.593V37.792H120.325V39.623ZM122.577 44.2739C122.577 43.3218 122.715 42.4388 122.992 41.625C123.269 40.8031 123.668 40.091 124.188 39.4888C124.701 38.8866 125.328 38.4146 126.068 38.0728C126.809 37.7228 127.643 37.5479 128.571 37.5479C129.507 37.5479 130.345 37.7228 131.085 38.0728C131.834 38.4146 132.469 38.8866 132.99 39.4888C133.502 40.091 133.897 40.8031 134.174 41.625C134.451 42.4388 134.589 43.3218 134.589 44.2739V44.5425C134.589 45.4946 134.451 46.3776 134.174 47.1914C133.897 48.0052 133.502 48.7132 132.99 49.3154C132.469 49.9176 131.838 50.3896 131.098 50.7314C130.357 51.0732 129.523 51.2441 128.595 51.2441C127.659 51.2441 126.817 51.0732 126.068 50.7314C125.328 50.3896 124.701 49.9176 124.188 49.3154C123.668 48.7132 123.269 48.0052 122.992 47.1914C122.715 46.3776 122.577 45.4946 122.577 44.5425V44.2739ZM124.835 44.5425C124.835 45.1935 124.913 45.8161 125.067 46.4102C125.222 46.9961 125.458 47.5129 125.775 47.9604C126.085 48.408 126.475 48.762 126.947 49.0225C127.419 49.2829 127.969 49.4131 128.595 49.4131C129.214 49.4131 129.755 49.2829 130.219 49.0225C130.691 48.762 131.085 48.408 131.403 47.9604C131.712 47.5129 131.944 46.9961 132.099 46.4102C132.253 45.8161 132.331 45.1935 132.331 44.5425V44.2739C132.331 43.631 132.249 43.0166 132.086 42.4307C131.932 41.8366 131.7 41.3158 131.391 40.8682C131.073 40.4206 130.679 40.0666 130.207 39.8062C129.743 39.5376 129.197 39.4033 128.571 39.4033C127.944 39.4033 127.399 39.5376 126.935 39.8062C126.471 40.0666 126.085 40.4206 125.775 40.8682C125.458 41.3158 125.222 41.8366 125.067 42.4307C124.913 43.0166 124.835 43.631 124.835 44.2739V44.5425ZM137.964 56.0781V37.792H140.027L140.137 39.2324C140.316 39.0046 140.512 38.8011 140.723 38.6221C140.935 38.4349 141.163 38.2762 141.407 38.146C141.749 37.9507 142.127 37.8042 142.542 37.7065C142.965 37.6007 143.417 37.5479 143.897 37.5479C144.743 37.5479 145.492 37.7147 146.143 38.0483C146.794 38.382 147.339 38.8459 147.779 39.4399C148.218 40.034 148.552 40.7461 148.78 41.5762C149.008 42.3981 149.122 43.3014 149.122 44.2861V44.5425C149.122 45.4865 149.008 46.3695 148.78 47.1914C148.552 48.0052 148.218 48.7132 147.779 49.3154C147.339 49.9176 146.794 50.3896 146.143 50.7314C145.5 51.0732 144.764 51.2441 143.934 51.2441C143.429 51.2441 142.957 51.1912 142.518 51.0854C142.086 50.9797 141.696 50.8291 141.346 50.6338C141.134 50.5117 140.935 50.3774 140.748 50.231C140.56 50.0763 140.385 49.9095 140.223 49.7305V56.0781H137.964ZM146.863 44.2861C146.863 43.6432 146.79 43.0329 146.644 42.4551C146.505 41.8691 146.29 41.3524 145.997 40.9048C145.695 40.4653 145.317 40.1154 144.861 39.855C144.406 39.5946 143.86 39.4644 143.226 39.4644C142.876 39.4644 142.55 39.505 142.249 39.5864C141.956 39.6678 141.692 39.7858 141.456 39.9404C141.195 40.0951 140.963 40.2863 140.76 40.5142C140.556 40.742 140.377 40.9943 140.223 41.271V47.6309C140.361 47.875 140.52 48.1029 140.699 48.3145C140.878 48.526 141.081 48.7051 141.309 48.8516C141.569 49.0225 141.858 49.1567 142.176 49.2544C142.501 49.3521 142.859 49.4009 143.25 49.4009C143.877 49.4009 144.418 49.2707 144.874 49.0103C145.329 48.7417 145.704 48.3836 145.997 47.936C146.29 47.4884 146.505 46.9717 146.644 46.3857C146.79 45.7998 146.863 45.1854 146.863 44.5425V44.2861Z" fill="#0066FF"/>
<path d="M177.32 55.4678C176.531 55.4434 175.847 55.2603 175.27 54.9185C174.692 54.5767 174.212 54.125 173.829 53.5635C173.463 53.0264 173.186 52.4242 172.999 51.7568C172.812 51.0977 172.718 50.4425 172.718 49.7915V47.7285C172.718 46.5566 172.438 45.7062 171.876 45.1772C171.323 44.6483 170.472 44.3797 169.325 44.3716V42.6016C170.472 42.6016 171.323 42.3411 171.876 41.8203C172.438 41.2913 172.718 40.4368 172.718 39.2568V37.1816C172.718 36.5225 172.804 35.8511 172.975 35.1675C173.154 34.4757 173.434 33.8573 173.817 33.312C174.175 32.7912 174.643 32.368 175.221 32.0425C175.799 31.7088 176.498 31.5298 177.32 31.5054L177.577 32.9092C176.991 32.9255 176.523 33.0638 176.173 33.3242C175.831 33.5846 175.575 33.9142 175.404 34.313C175.225 34.7199 175.111 35.1756 175.062 35.6802C175.013 36.1847 174.989 36.6852 174.989 37.1816V39.2568C174.989 40.2334 174.761 41.092 174.305 41.8325C173.858 42.5649 173.162 43.1224 172.218 43.5049C173.162 43.8792 173.858 44.4367 174.305 45.1772C174.753 45.9097 174.981 46.7601 174.989 47.7285V49.7915C174.989 50.2961 175.029 50.7965 175.111 51.293C175.192 51.7975 175.335 52.2492 175.538 52.6479C175.733 53.0549 175.994 53.3885 176.319 53.6489C176.653 53.9093 177.072 54.0477 177.577 54.064L177.32 55.4678ZM69.7808 82.4131C70.1877 82.4131 70.5824 82.348 70.9648 82.2178C71.3555 82.0876 71.7013 81.9045 72.0024 81.6685C72.3035 81.4406 72.5436 81.172 72.7227 80.8628C72.9098 80.5454 73.0075 80.2036 73.0156 79.8374H75.1519C75.1437 80.4233 74.9891 80.9849 74.688 81.522C74.395 82.0509 74.0003 82.5148 73.5039 82.9136C73.0075 83.3205 72.4378 83.646 71.7949 83.8901C71.152 84.1261 70.4806 84.2441 69.7808 84.2441C68.7798 84.2441 67.9049 84.0651 67.1562 83.707C66.4076 83.349 65.785 82.8647 65.2886 82.2544C64.784 81.6522 64.4056 80.9564 64.1533 80.167C63.901 79.3695 63.7749 78.5312 63.7749 77.6523V77.1396C63.7749 76.2689 63.901 75.4347 64.1533 74.6372C64.4056 73.8397 64.784 73.1357 65.2886 72.5254C65.785 71.9232 66.4076 71.443 67.1562 71.085C67.9049 70.7269 68.7798 70.5479 69.7808 70.5479C70.562 70.5479 71.2782 70.674 71.9292 70.9263C72.5884 71.1704 73.158 71.5041 73.6382 71.9272C74.1102 72.3586 74.4805 72.8672 74.749 73.4531C75.0176 74.0391 75.1519 74.6657 75.1519 75.333H73.0156C73.0075 74.9342 72.918 74.5599 72.7471 74.21C72.5843 73.8519 72.3605 73.5386 72.0757 73.27C71.7909 73.0015 71.4491 72.7899 71.0503 72.6353C70.6597 72.4806 70.2365 72.4033 69.7808 72.4033C69.0809 72.4033 68.4909 72.5457 68.0107 72.8306C67.5387 73.1073 67.1562 73.4694 66.8633 73.917C66.5703 74.3727 66.3587 74.8813 66.2285 75.4429C66.1064 76.0044 66.0454 76.57 66.0454 77.1396V77.6523C66.0454 78.2301 66.1064 78.8039 66.2285 79.3735C66.3587 79.9351 66.5703 80.4396 66.8633 80.8872C67.1481 81.3429 67.5265 81.7132 67.9985 81.998C68.4787 82.2747 69.0728 82.4131 69.7808 82.4131ZM78.7959 84V70.792H83.9839C84.7977 70.792 85.5382 70.8652 86.2056 71.0117C86.8729 71.1582 87.4466 71.3779 87.9268 71.6709C88.3988 71.9639 88.7609 72.3382 89.0132 72.7939C89.2736 73.2497 89.4038 73.7909 89.4038 74.4175C89.4038 74.8162 89.3265 75.1906 89.1719 75.5405C89.0254 75.8823 88.8057 76.1834 88.5127 76.4438C88.3499 76.5985 88.1628 76.7368 87.9512 76.8589C87.7396 76.981 87.5076 77.0908 87.2554 77.1885L87.353 77.2129C87.7599 77.3187 88.1139 77.4692 88.415 77.6646C88.7243 77.8517 88.9888 78.0755 89.2085 78.3359C89.4282 78.6045 89.5951 78.9015 89.709 79.2271C89.8229 79.5526 89.8799 79.8944 89.8799 80.2524C89.8799 80.8791 89.7619 81.4284 89.5259 81.9004C89.2899 82.3643 88.9521 82.7508 88.5127 83.0601C88.0732 83.3774 87.5402 83.6134 86.9136 83.7681C86.2951 83.9227 85.5993 84 84.8262 84H78.7959ZM81.0664 78.2017V82.1812H84.8262C85.3063 82.1812 85.7254 82.1323 86.0835 82.0347C86.4497 81.937 86.7508 81.7946 86.9868 81.6074C87.1903 81.4447 87.3449 81.2453 87.4507 81.0093C87.5565 80.7651 87.6094 80.4884 87.6094 80.1792C87.6094 79.8618 87.5483 79.5811 87.4263 79.3369C87.3123 79.0928 87.1414 78.8893 86.9136 78.7266C86.6776 78.5557 86.3846 78.4255 86.0347 78.3359C85.6847 78.2464 85.2819 78.2017 84.8262 78.2017H81.0664ZM81.0664 76.395H84.0083C84.6187 76.395 85.1436 76.3421 85.583 76.2363C86.0225 76.1305 86.3724 75.9637 86.6328 75.7358C86.7956 75.5894 86.9217 75.4185 87.0112 75.2231C87.1007 75.0197 87.1455 74.7918 87.1455 74.5396C87.1455 74.2059 87.0723 73.917 86.9258 73.6729C86.7874 73.4287 86.5799 73.2293 86.3032 73.0747C86.0428 72.9201 85.7132 72.8062 85.3145 72.7329C84.9238 72.6597 84.4803 72.623 83.9839 72.623H81.0664V76.395ZM93.0479 77.2739C93.0479 76.3218 93.1862 75.4388 93.4629 74.625C93.7396 73.8031 94.1383 73.091 94.6592 72.4888C95.1719 71.8866 95.7985 71.4146 96.5391 71.0728C97.2796 70.7228 98.1138 70.5479 99.0415 70.5479C99.9774 70.5479 100.816 70.7228 101.556 71.0728C102.305 71.4146 102.94 71.8866 103.46 72.4888C103.973 73.091 104.368 73.8031 104.645 74.625C104.921 75.4388 105.06 76.3218 105.06 77.2739V77.5425C105.06 78.4946 104.921 79.3776 104.645 80.1914C104.368 81.0052 103.973 81.7132 103.46 82.3154C102.94 82.9176 102.309 83.3896 101.568 83.7314C100.828 84.0732 99.9937 84.2441 99.0659 84.2441C98.13 84.2441 97.2878 84.0732 96.5391 83.7314C95.7985 83.3896 95.1719 82.9176 94.6592 82.3154C94.1383 81.7132 93.7396 81.0052 93.4629 80.1914C93.1862 79.3776 93.0479 78.4946 93.0479 77.5425V77.2739ZM95.3062 77.5425C95.3062 78.1935 95.3835 78.8161 95.5381 79.4102C95.6927 79.9961 95.9287 80.5129 96.2461 80.9604C96.5553 81.408 96.946 81.762 97.418 82.0225C97.89 82.2829 98.4393 82.4131 99.0659 82.4131C99.6844 82.4131 100.226 82.2829 100.689 82.0225C101.161 81.762 101.556 81.408 101.874 80.9604C102.183 80.5129 102.415 79.9961 102.569 79.4102C102.724 78.8161 102.801 78.1935 102.801 77.5425V77.2739C102.801 76.631 102.72 76.0166 102.557 75.4307C102.403 74.8366 102.171 74.3158 101.861 73.8682C101.544 73.4206 101.149 73.0666 100.677 72.8062C100.213 72.5376 99.6681 72.4033 99.0415 72.4033C98.4149 72.4033 97.8696 72.5376 97.4058 72.8062C96.9419 73.0666 96.5553 73.4206 96.2461 73.8682C95.9287 74.3158 95.6927 74.8366 95.5381 75.4307C95.3835 76.0166 95.3062 76.631 95.3062 77.2739V77.5425ZM117.041 70.792H119.299V84H117.041V74.2588L110.583 84H108.337V70.792H110.583V80.5454L117.041 70.792ZM117.322 65.4087C117.322 65.8888 117.236 66.3324 117.065 66.7393C116.895 67.138 116.65 67.4798 116.333 67.7646C116.016 68.0495 115.633 68.2733 115.186 68.436C114.738 68.5907 114.237 68.668 113.684 68.668C113.123 68.668 112.618 68.5907 112.17 68.436C111.723 68.2733 111.34 68.0495 111.023 67.7646C110.706 67.4798 110.457 67.138 110.278 66.7393C110.107 66.3324 110.022 65.8888 110.022 65.4087H111.853C111.853 65.6528 111.89 65.8888 111.963 66.1167C112.036 66.3364 112.146 66.5277 112.292 66.6904C112.439 66.8532 112.626 66.9834 112.854 67.0811C113.082 67.1787 113.359 67.2275 113.684 67.2275C114.001 67.2275 114.27 67.1787 114.49 67.0811C114.718 66.9834 114.905 66.8532 115.051 66.6904C115.198 66.5277 115.308 66.3364 115.381 66.1167C115.454 65.8888 115.491 65.6528 115.491 65.4087H117.322ZM128.839 82.4131C129.246 82.4131 129.641 82.348 130.023 82.2178C130.414 82.0876 130.76 81.9045 131.061 81.6685C131.362 81.4406 131.602 81.172 131.781 80.8628C131.968 80.5454 132.066 80.2036 132.074 79.8374H134.21C134.202 80.4233 134.048 80.9849 133.747 81.522C133.454 82.0509 133.059 82.5148 132.562 82.9136C132.066 83.3205 131.496 83.646 130.854 83.8901C130.211 84.1261 129.539 84.2441 128.839 84.2441C127.838 84.2441 126.964 84.0651 126.215 83.707C125.466 83.349 124.844 82.8647 124.347 82.2544C123.843 81.6522 123.464 80.9564 123.212 80.167C122.96 79.3695 122.833 78.5312 122.833 77.6523V77.1396C122.833 76.2689 122.96 75.4347 123.212 74.6372C123.464 73.8397 123.843 73.1357 124.347 72.5254C124.844 71.9232 125.466 71.443 126.215 71.085C126.964 70.7269 127.838 70.5479 128.839 70.5479C129.621 70.5479 130.337 70.674 130.988 70.9263C131.647 71.1704 132.217 71.5041 132.697 71.9272C133.169 72.3586 133.539 72.8672 133.808 73.4531C134.076 74.0391 134.21 74.6657 134.21 75.333H132.074C132.066 74.9342 131.977 74.5599 131.806 74.21C131.643 73.8519 131.419 73.5386 131.134 73.27C130.849 73.0015 130.508 72.7899 130.109 72.6353C129.718 72.4806 129.295 72.4033 128.839 72.4033C128.139 72.4033 127.549 72.5457 127.069 72.8306C126.597 73.1073 126.215 73.4694 125.922 73.917C125.629 74.3727 125.417 74.8813 125.287 75.4429C125.165 76.0044 125.104 76.57 125.104 77.1396V77.6523C125.104 78.2301 125.165 78.8039 125.287 79.3735C125.417 79.9351 125.629 80.4396 125.922 80.8872C126.207 81.3429 126.585 81.7132 127.057 81.998C127.537 82.2747 128.131 82.4131 128.839 82.4131ZM149.854 72.623H144.581V84H142.31V72.623H137.122V70.792H149.854V72.623ZM152.619 84V70.792H157.807C158.621 70.792 159.361 70.8652 160.029 71.0117C160.696 71.1582 161.27 71.3779 161.75 71.6709C162.222 71.9639 162.584 72.3382 162.836 72.7939C163.097 73.2497 163.227 73.7909 163.227 74.4175C163.227 74.8162 163.15 75.1906 162.995 75.5405C162.849 75.8823 162.629 76.1834 162.336 76.4438C162.173 76.5985 161.986 76.7368 161.774 76.8589C161.563 76.981 161.331 77.0908 161.079 77.1885L161.176 77.2129C161.583 77.3187 161.937 77.4692 162.238 77.6646C162.548 77.8517 162.812 78.0755 163.032 78.3359C163.251 78.6045 163.418 78.9015 163.532 79.2271C163.646 79.5526 163.703 79.8944 163.703 80.2524C163.703 80.8791 163.585 81.4284 163.349 81.9004C163.113 82.3643 162.775 82.7508 162.336 83.0601C161.896 83.3774 161.363 83.6134 160.737 83.7681C160.118 83.9227 159.423 84 158.649 84H152.619ZM154.89 78.2017V82.1812H158.649C159.13 82.1812 159.549 82.1323 159.907 82.0347C160.273 81.937 160.574 81.7946 160.81 81.6074C161.014 81.4447 161.168 81.2453 161.274 81.0093C161.38 80.7651 161.433 80.4884 161.433 80.1792C161.433 79.8618 161.372 79.5811 161.25 79.3369C161.136 79.0928 160.965 78.8893 160.737 78.7266C160.501 78.5557 160.208 78.4255 159.858 78.3359C159.508 78.2464 159.105 78.2017 158.649 78.2017H154.89ZM154.89 76.395H157.832C158.442 76.395 158.967 76.3421 159.406 76.2363C159.846 76.1305 160.196 75.9637 160.456 75.7358C160.619 75.5894 160.745 75.4185 160.834 75.2231C160.924 75.0197 160.969 74.7918 160.969 74.5396C160.969 74.2059 160.896 73.917 160.749 73.6729C160.611 73.4287 160.403 73.2293 160.126 73.0747C159.866 72.9201 159.536 72.8062 159.138 72.7329C158.747 72.6597 158.304 72.623 157.807 72.623H154.89V76.395ZM166.871 77.2739C166.871 76.3218 167.009 75.4388 167.286 74.625C167.563 73.8031 167.962 73.091 168.482 72.4888C168.995 71.8866 169.622 71.4146 170.362 71.0728C171.103 70.7228 171.937 70.5479 172.865 70.5479C173.801 70.5479 174.639 70.7228 175.379 71.0728C176.128 71.4146 176.763 71.8866 177.284 72.4888C177.796 73.091 178.191 73.8031 178.468 74.625C178.744 75.4388 178.883 76.3218 178.883 77.2739V77.5425C178.883 78.4946 178.744 79.3776 178.468 80.1914C178.191 81.0052 177.796 81.7132 177.284 82.3154C176.763 82.9176 176.132 83.3896 175.392 83.7314C174.651 84.0732 173.817 84.2441 172.889 84.2441C171.953 84.2441 171.111 84.0732 170.362 83.7314C169.622 83.3896 168.995 82.9176 168.482 82.3154C167.962 81.7132 167.563 81.0052 167.286 80.1914C167.009 79.3776 166.871 78.4946 166.871 77.5425V77.2739ZM169.129 77.5425C169.129 78.1935 169.207 78.8161 169.361 79.4102C169.516 79.9961 169.752 80.5129 170.069 80.9604C170.379 81.408 170.769 81.762 171.241 82.0225C171.713 82.2829 172.263 82.4131 172.889 82.4131C173.508 82.4131 174.049 82.2829 174.513 82.0225C174.985 81.762 175.379 81.408 175.697 80.9604C176.006 80.5129 176.238 79.9961 176.393 79.4102C176.547 78.8161 176.625 78.1935 176.625 77.5425V77.2739C176.625 76.631 176.543 76.0166 176.38 75.4307C176.226 74.8366 175.994 74.3158 175.685 73.8682C175.367 73.4206 174.972 73.0666 174.5 72.8062C174.037 72.5376 173.491 72.4033 172.865 72.4033C172.238 72.4033 171.693 72.5376 171.229 72.8062C170.765 73.0666 170.379 73.4206 170.069 73.8682C169.752 74.3158 169.516 74.8366 169.361 75.4307C169.207 76.0166 169.129 76.631 169.129 77.2739V77.5425ZM186.812 82.5352C186.812 82.055 186.958 81.644 187.251 81.3022C187.544 80.9604 187.987 80.7896 188.582 80.7896C189.167 80.7896 189.611 80.9604 189.912 81.3022C190.221 81.6359 190.376 82.0469 190.376 82.5352C190.376 83.0153 190.221 83.4181 189.912 83.7437C189.603 84.0692 189.159 84.2319 188.582 84.2319C187.996 84.2319 187.552 84.0692 187.251 83.7437C186.958 83.41 186.812 83.0072 186.812 82.5352ZM186.812 71.8418C186.812 71.3617 186.958 70.9507 187.251 70.6089C187.544 70.2671 187.987 70.0962 188.582 70.0962C189.167 70.0962 189.611 70.2671 189.912 70.6089C190.221 70.9425 190.376 71.3535 190.376 71.8418C190.376 72.3219 190.221 72.7248 189.912 73.0503C189.603 73.3758 189.159 73.5386 188.582 73.5386C187.996 73.5386 187.552 73.3758 187.251 73.0503C186.958 72.7166 186.812 72.3138 186.812 71.8418ZM211.324 80.0938H213.582C213.582 80.4111 213.676 80.7122 213.863 80.9971C214.05 81.2738 214.31 81.5179 214.644 81.7295C214.978 81.9492 215.372 82.1242 215.828 82.2544C216.284 82.3765 216.776 82.4375 217.305 82.4375C217.826 82.4375 218.302 82.3846 218.733 82.2788C219.165 82.1649 219.535 82.0103 219.844 81.8149C220.145 81.6196 220.377 81.3918 220.54 81.1313C220.711 80.8709 220.796 80.5902 220.796 80.2891C220.796 79.9147 220.719 79.5973 220.564 79.3369C220.41 79.0684 220.186 78.8486 219.893 78.6777C219.747 78.5964 219.584 78.5272 219.405 78.4702C219.226 78.4132 219.035 78.3644 218.831 78.3237C218.628 78.283 218.408 78.2546 218.172 78.2383C217.936 78.222 217.692 78.2139 217.439 78.2139H214.498V76.3096H217.439C217.7 76.3096 217.944 76.3014 218.172 76.2852C218.4 76.2607 218.607 76.2282 218.794 76.1875C219.03 76.1387 219.242 76.0736 219.429 75.9922C219.625 75.9108 219.795 75.8172 219.942 75.7114C220.145 75.5568 220.3 75.3696 220.406 75.1499C220.512 74.9302 220.564 74.682 220.564 74.4053C220.564 74.1286 220.491 73.8682 220.345 73.624C220.206 73.3799 220.003 73.1642 219.734 72.9771C219.458 72.798 219.116 72.6556 218.709 72.5498C218.302 72.444 217.834 72.3911 217.305 72.3911C216.833 72.3911 216.386 72.444 215.962 72.5498C215.539 72.6556 215.169 72.798 214.852 72.9771C214.526 73.1642 214.266 73.388 214.07 73.6484C213.883 73.9007 213.79 74.1774 213.79 74.4785H211.531C211.539 73.8682 211.698 73.3229 212.007 72.8428C212.325 72.3545 212.748 71.9395 213.277 71.5977C213.798 71.264 214.404 71.0076 215.096 70.8286C215.796 70.6496 216.532 70.5601 217.305 70.5601C218.119 70.5601 218.864 70.6414 219.539 70.8042C220.215 70.967 220.796 71.207 221.285 71.5244C221.773 71.8499 222.151 72.2528 222.42 72.7329C222.688 73.2049 222.823 73.7583 222.823 74.3931C222.823 74.7837 222.733 75.1499 222.554 75.4917C222.375 75.8335 222.123 76.1427 221.797 76.4194C221.618 76.5741 221.411 76.7205 221.175 76.8589C220.939 76.9891 220.687 77.1071 220.418 77.2129C220.8 77.3268 221.142 77.4692 221.443 77.6401C221.753 77.8029 222.021 77.9941 222.249 78.2139C222.518 78.4824 222.721 78.7917 222.859 79.1416C223.006 79.4834 223.079 79.8659 223.079 80.2891C223.079 80.9238 222.929 81.4854 222.627 81.9736C222.334 82.4619 221.928 82.8729 221.407 83.2065C220.886 83.5483 220.276 83.8047 219.576 83.9756C218.876 84.1465 218.119 84.2319 217.305 84.2319C216.508 84.2319 215.726 84.1383 214.961 83.9512C214.196 83.764 213.529 83.471 212.959 83.0723C212.479 82.7467 212.085 82.3358 211.775 81.8394C211.474 81.3348 211.324 80.7529 211.324 80.0938ZM237.417 84H235.158V78.3604H228.713V84H226.455V70.792H228.713V76.5171H235.158V70.792H237.417V84ZM250.008 84C249.919 83.8291 249.846 83.6175 249.789 83.3652C249.74 83.1048 249.703 82.8363 249.679 82.5596C249.451 82.7874 249.194 83.0031 248.91 83.2065C248.633 83.41 248.328 83.589 247.994 83.7437C247.652 83.8983 247.29 84.0203 246.908 84.1099C246.525 84.1994 246.118 84.2441 245.687 84.2441C244.987 84.2441 244.352 84.1424 243.783 83.939C243.221 83.7355 242.745 83.4588 242.354 83.1089C241.956 82.7671 241.646 82.3602 241.427 81.8882C241.215 81.408 241.109 80.8913 241.109 80.3379C241.109 79.6136 241.252 78.9788 241.537 78.4336C241.83 77.8883 242.241 77.4326 242.77 77.0664C243.299 76.7083 243.933 76.4398 244.674 76.2607C245.423 76.0817 246.257 75.9922 247.176 75.9922H249.642V74.9546C249.642 74.5558 249.569 74.1978 249.422 73.8804C249.276 73.563 249.068 73.2904 248.8 73.0625C248.531 72.8428 248.202 72.6719 247.811 72.5498C247.429 72.4277 246.997 72.3667 246.517 72.3667C246.069 72.3667 245.667 72.4237 245.309 72.5376C244.959 72.6515 244.662 72.8021 244.417 72.9893C244.173 73.1764 243.982 73.4002 243.844 73.6606C243.714 73.9129 243.648 74.1774 243.648 74.4541H241.378C241.386 73.974 241.508 73.502 241.744 73.0381C241.988 72.5742 242.338 72.1551 242.794 71.7808C243.242 71.4146 243.787 71.1175 244.43 70.8896C245.081 70.6618 245.817 70.5479 246.639 70.5479C247.388 70.5479 248.084 70.6414 248.727 70.8286C249.369 71.0076 249.927 71.2803 250.399 71.6465C250.863 72.0208 251.229 72.4847 251.498 73.0381C251.766 73.5915 251.9 74.2384 251.9 74.979V81.1191C251.9 81.5586 251.941 82.0265 252.022 82.5229C252.104 83.0112 252.218 83.4385 252.364 83.8047V84H250.008ZM246.017 82.2788C246.456 82.2788 246.867 82.2218 247.25 82.1079C247.632 81.994 247.982 81.8434 248.299 81.6562C248.609 81.4691 248.877 81.2575 249.105 81.0215C249.333 80.7773 249.512 80.5251 249.642 80.2646V77.5913H247.542C246.761 77.5913 246.078 77.6605 245.492 77.7988C244.914 77.929 244.454 78.1325 244.112 78.4092C243.868 78.6045 243.681 78.8364 243.551 79.105C243.429 79.3735 243.368 79.6787 243.368 80.0205C243.368 80.346 243.421 80.6471 243.526 80.9238C243.64 81.2005 243.807 81.4365 244.027 81.6318C244.247 81.8353 244.523 81.994 244.857 82.1079C245.191 82.2218 245.577 82.2788 246.017 82.2788ZM266.946 84H264.688V79.1782C264.134 79.3166 263.56 79.4224 262.966 79.4956C262.38 79.5688 261.742 79.6055 261.05 79.6055C260.236 79.6055 259.5 79.5037 258.84 79.3003C258.181 79.0968 257.62 78.7876 257.156 78.3726C256.684 77.9657 256.322 77.453 256.069 76.8345C255.817 76.2078 255.691 75.4754 255.691 74.6372V70.792H257.949V74.6372C257.949 75.1418 258.01 75.5812 258.132 75.9556C258.254 76.3299 258.425 76.6432 258.645 76.8955C258.905 77.1885 259.239 77.4041 259.646 77.5425C260.053 77.6808 260.521 77.75 261.05 77.75C261.424 77.75 261.79 77.7378 262.148 77.7134C262.507 77.689 262.856 77.6523 263.198 77.6035C263.451 77.571 263.699 77.5303 263.943 77.4814C264.195 77.4326 264.443 77.3797 264.688 77.3228V70.792H266.946V84ZM276.693 84.2441C275.766 84.2441 274.911 84.0854 274.13 83.7681C273.357 83.4507 272.694 83.0072 272.14 82.4375C271.587 81.8678 271.155 81.1924 270.846 80.4111C270.537 79.6299 270.382 78.7795 270.382 77.8599V77.3472C270.382 76.2811 270.553 75.3289 270.895 74.4907C271.237 73.6444 271.693 72.9282 272.262 72.3423C272.824 71.7645 273.463 71.321 274.179 71.0117C274.903 70.7025 275.644 70.5479 276.4 70.5479C277.353 70.5479 278.183 70.7147 278.891 71.0483C279.607 71.3739 280.201 71.8255 280.673 72.4033C281.145 72.9893 281.495 73.6769 281.723 74.4663C281.959 75.2557 282.077 76.1102 282.077 77.0298V78.043H272.641V78.1284C272.698 78.7713 272.824 79.3369 273.019 79.8252C273.222 80.3135 273.499 80.7448 273.849 81.1191C274.207 81.5179 274.639 81.8312 275.143 82.0591C275.648 82.2869 276.205 82.4009 276.815 82.4009C277.621 82.4009 278.337 82.2381 278.964 81.9126C279.59 81.5871 280.111 81.1558 280.526 80.6187L281.906 81.6929C281.466 82.3602 280.807 82.9543 279.928 83.4751C279.057 83.9878 277.979 84.2441 276.693 84.2441ZM276.4 72.4033C275.945 72.4033 275.513 72.4888 275.106 72.6597C274.7 72.8224 274.333 73.0625 274.008 73.3799C273.682 73.7054 273.406 74.1042 273.178 74.5762C272.958 75.04 272.803 75.5771 272.714 76.1875H279.818V76.0776C279.818 75.6707 279.741 75.2354 279.586 74.7715C279.432 74.2995 279.216 73.8926 278.939 73.5508C278.663 73.209 278.313 72.9323 277.89 72.7207C277.475 72.5091 276.978 72.4033 276.4 72.4033ZM296.475 84H294.217V78.3604H287.771V84H285.513V70.792H287.771V76.5171H294.217V70.792H296.475V84ZM308.981 70.792H311.24V84H308.981V74.2588L302.524 84H300.278V70.792H302.524V80.5454L308.981 70.792ZM320.987 84.2441C320.06 84.2441 319.205 84.0854 318.424 83.7681C317.651 83.4507 316.987 83.0072 316.434 82.4375C315.881 81.8678 315.449 81.1924 315.14 80.4111C314.831 79.6299 314.676 78.7795 314.676 77.8599V77.3472C314.676 76.2811 314.847 75.3289 315.189 74.4907C315.531 73.6444 315.986 72.9282 316.556 72.3423C317.118 71.7645 317.757 71.321 318.473 71.0117C319.197 70.7025 319.938 70.5479 320.694 70.5479C321.646 70.5479 322.477 70.7147 323.185 71.0483C323.901 71.3739 324.495 71.8255 324.967 72.4033C325.439 72.9893 325.789 73.6769 326.017 74.4663C326.253 75.2557 326.371 76.1102 326.371 77.0298V78.043H316.935V78.1284C316.992 78.7713 317.118 79.3369 317.313 79.8252C317.516 80.3135 317.793 80.7448 318.143 81.1191C318.501 81.5179 318.932 81.8312 319.437 82.0591C319.942 82.2869 320.499 82.4009 321.109 82.4009C321.915 82.4009 322.631 82.2381 323.258 81.9126C323.884 81.5871 324.405 81.1558 324.82 80.6187L326.2 81.6929C325.76 82.3602 325.101 82.9543 324.222 83.4751C323.351 83.9878 322.273 84.2441 320.987 84.2441ZM320.694 72.4033C320.239 72.4033 319.807 72.4888 319.4 72.6597C318.993 72.8224 318.627 73.0625 318.302 73.3799C317.976 73.7054 317.7 74.1042 317.472 74.5762C317.252 75.04 317.097 75.5771 317.008 76.1875H324.112V76.0776C324.112 75.6707 324.035 75.2354 323.88 74.7715C323.726 74.2995 323.51 73.8926 323.233 73.5508C322.957 73.209 322.607 72.9323 322.184 72.7207C321.769 72.5091 321.272 72.4033 320.694 72.4033ZM334.348 71.8418C334.348 71.3617 334.495 70.9507 334.788 70.6089C335.081 70.2671 335.524 70.0962 336.118 70.0962C336.704 70.0962 337.148 70.2671 337.449 70.6089C337.758 70.9425 337.913 71.3535 337.913 71.8418C337.913 72.3219 337.758 72.7248 337.449 73.0503C337.139 73.3758 336.696 73.5386 336.118 73.5386C335.532 73.5386 335.089 73.3758 334.788 73.0503C334.495 72.7166 334.348 72.3138 334.348 71.8418ZM337.253 83.4751C337.253 84.2889 337.062 85.119 336.68 85.9653C336.297 86.8117 335.78 87.5238 335.129 88.1016L333.726 87.3325C334.116 86.7629 334.393 86.1566 334.556 85.5137C334.718 84.8708 334.8 84.2035 334.8 83.5117V81.3267H337.253V83.4751ZM69.7808 115.413C70.1877 115.413 70.5824 115.348 70.9648 115.218C71.3555 115.088 71.7013 114.904 72.0024 114.668C72.3035 114.441 72.5436 114.172 72.7227 113.863C72.9098 113.545 73.0075 113.204 73.0156 112.837H75.1519C75.1437 113.423 74.9891 113.985 74.688 114.522C74.395 115.051 74.0003 115.515 73.5039 115.914C73.0075 116.32 72.4378 116.646 71.7949 116.89C71.152 117.126 70.4806 117.244 69.7808 117.244C68.7798 117.244 67.9049 117.065 67.1562 116.707C66.4076 116.349 65.785 115.865 65.2886 115.254C64.784 114.652 64.4056 113.956 64.1533 113.167C63.901 112.369 63.7749 111.531 63.7749 110.652V110.14C63.7749 109.269 63.901 108.435 64.1533 107.637C64.4056 106.84 64.784 106.136 65.2886 105.525C65.785 104.923 66.4076 104.443 67.1562 104.085C67.9049 103.727 68.7798 103.548 69.7808 103.548C70.562 103.548 71.2782 103.674 71.9292 103.926C72.5884 104.17 73.158 104.504 73.6382 104.927C74.1102 105.359 74.4805 105.867 74.749 106.453C75.0176 107.039 75.1519 107.666 75.1519 108.333H73.0156C73.0075 107.934 72.918 107.56 72.7471 107.21C72.5843 106.852 72.3605 106.539 72.0757 106.27C71.7909 106.001 71.4491 105.79 71.0503 105.635C70.6597 105.481 70.2365 105.403 69.7808 105.403C69.0809 105.403 68.4909 105.546 68.0107 105.831C67.5387 106.107 67.1562 106.469 66.8633 106.917C66.5703 107.373 66.3587 107.881 66.2285 108.443C66.1064 109.004 66.0454 109.57 66.0454 110.14V110.652C66.0454 111.23 66.1064 111.804 66.2285 112.374C66.3587 112.935 66.5703 113.44 66.8633 113.887C67.1481 114.343 67.5265 114.713 67.9985 114.998C68.4787 115.275 69.0728 115.413 69.7808 115.413ZM78.7959 117V103.792H83.9839C84.7977 103.792 85.5382 103.865 86.2056 104.012C86.8729 104.158 87.4466 104.378 87.9268 104.671C88.3988 104.964 88.7609 105.338 89.0132 105.794C89.2736 106.25 89.4038 106.791 89.4038 107.417C89.4038 107.816 89.3265 108.191 89.1719 108.541C89.0254 108.882 88.8057 109.183 88.5127 109.444C88.3499 109.598 88.1628 109.737 87.9512 109.859C87.7396 109.981 87.5076 110.091 87.2554 110.188L87.353 110.213C87.7599 110.319 88.1139 110.469 88.415 110.665C88.7243 110.852 88.9888 111.076 89.2085 111.336C89.4282 111.604 89.5951 111.902 89.709 112.227C89.8229 112.553 89.8799 112.894 89.8799 113.252C89.8799 113.879 89.7619 114.428 89.5259 114.9C89.2899 115.364 88.9521 115.751 88.5127 116.06C88.0732 116.377 87.5402 116.613 86.9136 116.768C86.2951 116.923 85.5993 117 84.8262 117H78.7959ZM81.0664 111.202V115.181H84.8262C85.3063 115.181 85.7254 115.132 86.0835 115.035C86.4497 114.937 86.7508 114.795 86.9868 114.607C87.1903 114.445 87.3449 114.245 87.4507 114.009C87.5565 113.765 87.6094 113.488 87.6094 113.179C87.6094 112.862 87.5483 112.581 87.4263 112.337C87.3123 112.093 87.1414 111.889 86.9136 111.727C86.6776 111.556 86.3846 111.425 86.0347 111.336C85.6847 111.246 85.2819 111.202 84.8262 111.202H81.0664ZM81.0664 109.395H84.0083C84.6187 109.395 85.1436 109.342 85.583 109.236C86.0225 109.131 86.3724 108.964 86.6328 108.736C86.7956 108.589 86.9217 108.418 87.0112 108.223C87.1007 108.02 87.1455 107.792 87.1455 107.54C87.1455 107.206 87.0723 106.917 86.9258 106.673C86.7874 106.429 86.5799 106.229 86.3032 106.075C86.0428 105.92 85.7132 105.806 85.3145 105.733C84.9238 105.66 84.4803 105.623 83.9839 105.623H81.0664V109.395ZM93.0479 110.274C93.0479 109.322 93.1862 108.439 93.4629 107.625C93.7396 106.803 94.1383 106.091 94.6592 105.489C95.1719 104.887 95.7985 104.415 96.5391 104.073C97.2796 103.723 98.1138 103.548 99.0415 103.548C99.9774 103.548 100.816 103.723 101.556 104.073C102.305 104.415 102.94 104.887 103.46 105.489C103.973 106.091 104.368 106.803 104.645 107.625C104.921 108.439 105.06 109.322 105.06 110.274V110.542C105.06 111.495 104.921 112.378 104.645 113.191C104.368 114.005 103.973 114.713 103.46 115.315C102.94 115.918 102.309 116.39 101.568 116.731C100.828 117.073 99.9937 117.244 99.0659 117.244C98.13 117.244 97.2878 117.073 96.5391 116.731C95.7985 116.39 95.1719 115.918 94.6592 115.315C94.1383 114.713 93.7396 114.005 93.4629 113.191C93.1862 112.378 93.0479 111.495 93.0479 110.542V110.274ZM95.3062 110.542C95.3062 111.194 95.3835 111.816 95.5381 112.41C95.6927 112.996 95.9287 113.513 96.2461 113.96C96.5553 114.408 96.946 114.762 97.418 115.022C97.89 115.283 98.4393 115.413 99.0659 115.413C99.6844 115.413 100.226 115.283 100.689 115.022C101.161 114.762 101.556 114.408 101.874 113.96C102.183 113.513 102.415 112.996 102.569 112.41C102.724 111.816 102.801 111.194 102.801 110.542V110.274C102.801 109.631 102.72 109.017 102.557 108.431C102.403 107.837 102.171 107.316 101.861 106.868C101.544 106.421 101.149 106.067 100.677 105.806C100.213 105.538 99.6681 105.403 99.0415 105.403C98.4149 105.403 97.8696 105.538 97.4058 105.806C96.9419 106.067 96.5553 106.421 96.2461 106.868C95.9287 107.316 95.6927 107.837 95.5381 108.431C95.3835 109.017 95.3062 109.631 95.3062 110.274V110.542ZM117.041 103.792H119.299V117H117.041V107.259L110.583 117H108.337V103.792H110.583V113.545L117.041 103.792ZM117.322 98.4087C117.322 98.8888 117.236 99.3324 117.065 99.7393C116.895 100.138 116.65 100.48 116.333 100.765C116.016 101.049 115.633 101.273 115.186 101.436C114.738 101.591 114.237 101.668 113.684 101.668C113.123 101.668 112.618 101.591 112.17 101.436C111.723 101.273 111.34 101.049 111.023 100.765C110.706 100.48 110.457 100.138 110.278 99.7393C110.107 99.3324 110.022 98.8888 110.022 98.4087H111.853C111.853 98.6528 111.89 98.8888 111.963 99.1167C112.036 99.3364 112.146 99.5277 112.292 99.6904C112.439 99.8532 112.626 99.9834 112.854 100.081C113.082 100.179 113.359 100.228 113.684 100.228C114.001 100.228 114.27 100.179 114.49 100.081C114.718 99.9834 114.905 99.8532 115.051 99.6904C115.198 99.5277 115.308 99.3364 115.381 99.1167C115.454 98.8888 115.491 98.6528 115.491 98.4087H117.322ZM128.839 115.413C129.246 115.413 129.641 115.348 130.023 115.218C130.414 115.088 130.76 114.904 131.061 114.668C131.362 114.441 131.602 114.172 131.781 113.863C131.968 113.545 132.066 113.204 132.074 112.837H134.21C134.202 113.423 134.048 113.985 133.747 114.522C133.454 115.051 133.059 115.515 132.562 115.914C132.066 116.32 131.496 116.646 130.854 116.89C130.211 117.126 129.539 117.244 128.839 117.244C127.838 117.244 126.964 117.065 126.215 116.707C125.466 116.349 124.844 115.865 124.347 115.254C123.843 114.652 123.464 113.956 123.212 113.167C122.96 112.369 122.833 111.531 122.833 110.652V110.14C122.833 109.269 122.96 108.435 123.212 107.637C123.464 106.84 123.843 106.136 124.347 105.525C124.844 104.923 125.466 104.443 126.215 104.085C126.964 103.727 127.838 103.548 128.839 103.548C129.621 103.548 130.337 103.674 130.988 103.926C131.647 104.17 132.217 104.504 132.697 104.927C133.169 105.359 133.539 105.867 133.808 106.453C134.076 107.039 134.21 107.666 134.21 108.333H132.074C132.066 107.934 131.977 107.56 131.806 107.21C131.643 106.852 131.419 106.539 131.134 106.27C130.849 106.001 130.508 105.79 130.109 105.635C129.718 105.481 129.295 105.403 128.839 105.403C128.139 105.403 127.549 105.546 127.069 105.831C126.597 106.107 126.215 106.469 125.922 106.917C125.629 107.373 125.417 107.881 125.287 108.443C125.165 109.004 125.104 109.57 125.104 110.14V110.652C125.104 111.23 125.165 111.804 125.287 112.374C125.417 112.935 125.629 113.44 125.922 113.887C126.207 114.343 126.585 114.713 127.057 114.998C127.537 115.275 128.131 115.413 128.839 115.413ZM149.854 105.623H144.581V117H142.31V105.623H137.122V103.792H149.854V105.623ZM152.619 117V103.792H157.807C158.621 103.792 159.361 103.865 160.029 104.012C160.696 104.158 161.27 104.378 161.75 104.671C162.222 104.964 162.584 105.338 162.836 105.794C163.097 106.25 163.227 106.791 163.227 107.417C163.227 107.816 163.15 108.191 162.995 108.541C162.849 108.882 162.629 109.183 162.336 109.444C162.173 109.598 161.986 109.737 161.774 109.859C161.563 109.981 161.331 110.091 161.079 110.188L161.176 110.213C161.583 110.319 161.937 110.469 162.238 110.665C162.548 110.852 162.812 111.076 163.032 111.336C163.251 111.604 163.418 111.902 163.532 112.227C163.646 112.553 163.703 112.894 163.703 113.252C163.703 113.879 163.585 114.428 163.349 114.9C163.113 115.364 162.775 115.751 162.336 116.06C161.896 116.377 161.363 116.613 160.737 116.768C160.118 116.923 159.423 117 158.649 117H152.619ZM154.89 111.202V115.181H158.649C159.13 115.181 159.549 115.132 159.907 115.035C160.273 114.937 160.574 114.795 160.81 114.607C161.014 114.445 161.168 114.245 161.274 114.009C161.38 113.765 161.433 113.488 161.433 113.179C161.433 112.862 161.372 112.581 161.25 112.337C161.136 112.093 160.965 111.889 160.737 111.727C160.501 111.556 160.208 111.425 159.858 111.336C159.508 111.246 159.105 111.202 158.649 111.202H154.89ZM154.89 109.395H157.832C158.442 109.395 158.967 109.342 159.406 109.236C159.846 109.131 160.196 108.964 160.456 108.736C160.619 108.589 160.745 108.418 160.834 108.223C160.924 108.02 160.969 107.792 160.969 107.54C160.969 107.206 160.896 106.917 160.749 106.673C160.611 106.429 160.403 106.229 160.126 106.075C159.866 105.92 159.536 105.806 159.138 105.733C158.747 105.66 158.304 105.623 157.807 105.623H154.89V109.395ZM166.871 110.274C166.871 109.322 167.009 108.439 167.286 107.625C167.563 106.803 167.962 106.091 168.482 105.489C168.995 104.887 169.622 104.415 170.362 104.073C171.103 103.723 171.937 103.548 172.865 103.548C173.801 103.548 174.639 103.723 175.379 104.073C176.128 104.415 176.763 104.887 177.284 105.489C177.796 106.091 178.191 106.803 178.468 107.625C178.744 108.439 178.883 109.322 178.883 110.274V110.542C178.883 111.495 178.744 112.378 178.468 113.191C178.191 114.005 177.796 114.713 177.284 115.315C176.763 115.918 176.132 116.39 175.392 116.731C174.651 117.073 173.817 117.244 172.889 117.244C171.953 117.244 171.111 117.073 170.362 116.731C169.622 116.39 168.995 115.918 168.482 115.315C167.962 114.713 167.563 114.005 167.286 113.191C167.009 112.378 166.871 111.495 166.871 110.542V110.274ZM169.129 110.542C169.129 111.194 169.207 111.816 169.361 112.41C169.516 112.996 169.752 113.513 170.069 113.96C170.379 114.408 170.769 114.762 171.241 115.022C171.713 115.283 172.263 115.413 172.889 115.413C173.508 115.413 174.049 115.283 174.513 115.022C174.985 114.762 175.379 114.408 175.697 113.96C176.006 113.513 176.238 112.996 176.393 112.41C176.547 111.816 176.625 111.194 176.625 110.542V110.274C176.625 109.631 176.543 109.017 176.38 108.431C176.226 107.837 175.994 107.316 175.685 106.868C175.367 106.421 174.972 106.067 174.5 105.806C174.037 105.538 173.491 105.403 172.865 105.403C172.238 105.403 171.693 105.538 171.229 105.806C170.765 106.067 170.379 106.421 170.069 106.868C169.752 107.316 169.516 107.837 169.361 108.431C169.207 109.017 169.129 109.631 169.129 110.274V110.542ZM186.812 115.535C186.812 115.055 186.958 114.644 187.251 114.302C187.544 113.96 187.987 113.79 188.582 113.79C189.167 113.79 189.611 113.96 189.912 114.302C190.221 114.636 190.376 115.047 190.376 115.535C190.376 116.015 190.221 116.418 189.912 116.744C189.603 117.069 189.159 117.232 188.582 117.232C187.996 117.232 187.552 117.069 187.251 116.744C186.958 116.41 186.812 116.007 186.812 115.535ZM186.812 104.842C186.812 104.362 186.958 103.951 187.251 103.609C187.544 103.267 187.987 103.096 188.582 103.096C189.167 103.096 189.611 103.267 189.912 103.609C190.221 103.943 190.376 104.354 190.376 104.842C190.376 105.322 190.221 105.725 189.912 106.05C189.603 106.376 189.159 106.539 188.582 106.539C187.996 106.539 187.552 106.376 187.251 106.05C186.958 105.717 186.812 105.314 186.812 104.842ZM211.324 113.094H213.582C213.582 113.411 213.676 113.712 213.863 113.997C214.05 114.274 214.31 114.518 214.644 114.729C214.978 114.949 215.372 115.124 215.828 115.254C216.284 115.376 216.776 115.438 217.305 115.438C217.826 115.438 218.302 115.385 218.733 115.279C219.165 115.165 219.535 115.01 219.844 114.815C220.145 114.62 220.377 114.392 220.54 114.131C220.711 113.871 220.796 113.59 220.796 113.289C220.796 112.915 220.719 112.597 220.564 112.337C220.41 112.068 220.186 111.849 219.893 111.678C219.747 111.596 219.584 111.527 219.405 111.47C219.226 111.413 219.035 111.364 218.831 111.324C218.628 111.283 218.408 111.255 218.172 111.238C217.936 111.222 217.692 111.214 217.439 111.214H214.498V109.31H217.439C217.7 109.31 217.944 109.301 218.172 109.285C218.4 109.261 218.607 109.228 218.794 109.188C219.03 109.139 219.242 109.074 219.429 108.992C219.625 108.911 219.795 108.817 219.942 108.711C220.145 108.557 220.3 108.37 220.406 108.15C220.512 107.93 220.564 107.682 220.564 107.405C220.564 107.129 220.491 106.868 220.345 106.624C220.206 106.38 220.003 106.164 219.734 105.977C219.458 105.798 219.116 105.656 218.709 105.55C218.302 105.444 217.834 105.391 217.305 105.391C216.833 105.391 216.386 105.444 215.962 105.55C215.539 105.656 215.169 105.798 214.852 105.977C214.526 106.164 214.266 106.388 214.07 106.648C213.883 106.901 213.79 107.177 213.79 107.479H211.531C211.539 106.868 211.698 106.323 212.007 105.843C212.325 105.354 212.748 104.939 213.277 104.598C213.798 104.264 214.404 104.008 215.096 103.829C215.796 103.65 216.532 103.56 217.305 103.56C218.119 103.56 218.864 103.641 219.539 103.804C220.215 103.967 220.796 104.207 221.285 104.524C221.773 104.85 222.151 105.253 222.42 105.733C222.688 106.205 222.823 106.758 222.823 107.393C222.823 107.784 222.733 108.15 222.554 108.492C222.375 108.833 222.123 109.143 221.797 109.419C221.618 109.574 221.411 109.721 221.175 109.859C220.939 109.989 220.687 110.107 220.418 110.213C220.8 110.327 221.142 110.469 221.443 110.64C221.753 110.803 222.021 110.994 222.249 111.214C222.518 111.482 222.721 111.792 222.859 112.142C223.006 112.483 223.079 112.866 223.079 113.289C223.079 113.924 222.929 114.485 222.627 114.974C222.334 115.462 221.928 115.873 221.407 116.207C220.886 116.548 220.276 116.805 219.576 116.976C218.876 117.146 218.119 117.232 217.305 117.232C216.508 117.232 215.726 117.138 214.961 116.951C214.196 116.764 213.529 116.471 212.959 116.072C212.479 115.747 212.085 115.336 211.775 114.839C211.474 114.335 211.324 113.753 211.324 113.094ZM237.417 117H235.158V111.36H228.713V117H226.455V103.792H228.713V109.517H235.158V103.792H237.417V117ZM250.008 117C249.919 116.829 249.846 116.618 249.789 116.365C249.74 116.105 249.703 115.836 249.679 115.56C249.451 115.787 249.194 116.003 248.91 116.207C248.633 116.41 248.328 116.589 247.994 116.744C247.652 116.898 247.29 117.02 246.908 117.11C246.525 117.199 246.118 117.244 245.687 117.244C244.987 117.244 244.352 117.142 243.783 116.939C243.221 116.736 242.745 116.459 242.354 116.109C241.956 115.767 241.646 115.36 241.427 114.888C241.215 114.408 241.109 113.891 241.109 113.338C241.109 112.614 241.252 111.979 241.537 111.434C241.83 110.888 242.241 110.433 242.77 110.066C243.299 109.708 243.933 109.44 244.674 109.261C245.423 109.082 246.257 108.992 247.176 108.992H249.642V107.955C249.642 107.556 249.569 107.198 249.422 106.88C249.276 106.563 249.068 106.29 248.8 106.062C248.531 105.843 248.202 105.672 247.811 105.55C247.429 105.428 246.997 105.367 246.517 105.367C246.069 105.367 245.667 105.424 245.309 105.538C244.959 105.652 244.662 105.802 244.417 105.989C244.173 106.176 243.982 106.4 243.844 106.661C243.714 106.913 243.648 107.177 243.648 107.454H241.378C241.386 106.974 241.508 106.502 241.744 106.038C241.988 105.574 242.338 105.155 242.794 104.781C243.242 104.415 243.787 104.118 244.43 103.89C245.081 103.662 245.817 103.548 246.639 103.548C247.388 103.548 248.084 103.641 248.727 103.829C249.369 104.008 249.927 104.28 250.399 104.646C250.863 105.021 251.229 105.485 251.498 106.038C251.766 106.591 251.9 107.238 251.9 107.979V114.119C251.9 114.559 251.941 115.027 252.022 115.523C252.104 116.011 252.218 116.438 252.364 116.805V117H250.008ZM246.017 115.279C246.456 115.279 246.867 115.222 247.25 115.108C247.632 114.994 247.982 114.843 248.299 114.656C248.609 114.469 248.877 114.257 249.105 114.021C249.333 113.777 249.512 113.525 249.642 113.265V110.591H247.542C246.761 110.591 246.078 110.66 245.492 110.799C244.914 110.929 244.454 111.132 244.112 111.409C243.868 111.604 243.681 111.836 243.551 112.105C243.429 112.374 243.368 112.679 243.368 113.021C243.368 113.346 243.421 113.647 243.526 113.924C243.64 114.201 243.807 114.437 244.027 114.632C244.247 114.835 244.523 114.994 244.857 115.108C245.191 115.222 245.577 115.279 246.017 115.279ZM266.946 117H264.688V112.178C264.134 112.317 263.56 112.422 262.966 112.496C262.38 112.569 261.742 112.605 261.05 112.605C260.236 112.605 259.5 112.504 258.84 112.3C258.181 112.097 257.62 111.788 257.156 111.373C256.684 110.966 256.322 110.453 256.069 109.834C255.817 109.208 255.691 108.475 255.691 107.637V103.792H257.949V107.637C257.949 108.142 258.01 108.581 258.132 108.956C258.254 109.33 258.425 109.643 258.645 109.896C258.905 110.188 259.239 110.404 259.646 110.542C260.053 110.681 260.521 110.75 261.05 110.75C261.424 110.75 261.79 110.738 262.148 110.713C262.507 110.689 262.856 110.652 263.198 110.604C263.451 110.571 263.699 110.53 263.943 110.481C264.195 110.433 264.443 110.38 264.688 110.323V103.792H266.946V117ZM276.693 117.244C275.766 117.244 274.911 117.085 274.13 116.768C273.357 116.451 272.694 116.007 272.14 115.438C271.587 114.868 271.155 114.192 270.846 113.411C270.537 112.63 270.382 111.779 270.382 110.86V110.347C270.382 109.281 270.553 108.329 270.895 107.491C271.237 106.644 271.693 105.928 272.262 105.342C272.824 104.764 273.463 104.321 274.179 104.012C274.903 103.702 275.644 103.548 276.4 103.548C277.353 103.548 278.183 103.715 278.891 104.048C279.607 104.374 280.201 104.826 280.673 105.403C281.145 105.989 281.495 106.677 281.723 107.466C281.959 108.256 282.077 109.11 282.077 110.03V111.043H272.641V111.128C272.698 111.771 272.824 112.337 273.019 112.825C273.222 113.313 273.499 113.745 273.849 114.119C274.207 114.518 274.639 114.831 275.143 115.059C275.648 115.287 276.205 115.401 276.815 115.401C277.621 115.401 278.337 115.238 278.964 114.913C279.59 114.587 280.111 114.156 280.526 113.619L281.906 114.693C281.466 115.36 280.807 115.954 279.928 116.475C279.057 116.988 277.979 117.244 276.693 117.244ZM276.4 105.403C275.945 105.403 275.513 105.489 275.106 105.66C274.7 105.822 274.333 106.062 274.008 106.38C273.682 106.705 273.406 107.104 273.178 107.576C272.958 108.04 272.803 108.577 272.714 109.188H279.818V109.078C279.818 108.671 279.741 108.235 279.586 107.771C279.432 107.299 279.216 106.893 278.939 106.551C278.663 106.209 278.313 105.932 277.89 105.721C277.475 105.509 276.978 105.403 276.4 105.403ZM296.475 117H294.217V111.36H287.771V117H285.513V103.792H287.771V109.517H294.217V103.792H296.475V117ZM308.981 103.792H311.24V117H308.981V107.259L302.524 117H300.278V103.792H302.524V113.545L308.981 103.792ZM320.987 117.244C320.06 117.244 319.205 117.085 318.424 116.768C317.651 116.451 316.987 116.007 316.434 115.438C315.881 114.868 315.449 114.192 315.14 113.411C314.831 112.63 314.676 111.779 314.676 110.86V110.347C314.676 109.281 314.847 108.329 315.189 107.491C315.531 106.644 315.986 105.928 316.556 105.342C317.118 104.764 317.757 104.321 318.473 104.012C319.197 103.702 319.938 103.548 320.694 103.548C321.646 103.548 322.477 103.715 323.185 104.048C323.901 104.374 324.495 104.826 324.967 105.403C325.439 105.989 325.789 106.677 326.017 107.466C326.253 108.256 326.371 109.11 326.371 110.03V111.043H316.935V111.128C316.992 111.771 317.118 112.337 317.313 112.825C317.516 113.313 317.793 113.745 318.143 114.119C318.501 114.518 318.932 114.831 319.437 115.059C319.942 115.287 320.499 115.401 321.109 115.401C321.915 115.401 322.631 115.238 323.258 114.913C323.884 114.587 324.405 114.156 324.82 113.619L326.2 114.693C325.76 115.36 325.101 115.954 324.222 116.475C323.351 116.988 322.273 117.244 320.987 117.244ZM320.694 105.403C320.239 105.403 319.807 105.489 319.4 105.66C318.993 105.822 318.627 106.062 318.302 106.38C317.976 106.705 317.7 107.104 317.472 107.576C317.252 108.04 317.097 108.577 317.008 109.188H324.112V109.078C324.112 108.671 324.035 108.235 323.88 107.771C323.726 107.299 323.51 106.893 323.233 106.551C322.957 106.209 322.607 105.932 322.184 105.721C321.769 105.509 321.272 105.403 320.694 105.403ZM334.348 104.842C334.348 104.362 334.495 103.951 334.788 103.609C335.081 103.267 335.524 103.096 336.118 103.096C336.704 103.096 337.148 103.267 337.449 103.609C337.758 103.943 337.913 104.354 337.913 104.842C337.913 105.322 337.758 105.725 337.449 106.05C337.139 106.376 336.696 106.539 336.118 106.539C335.532 106.539 335.089 106.376 334.788 106.05C334.495 105.717 334.348 105.314 334.348 104.842ZM337.253 116.475C337.253 117.289 337.062 118.119 336.68 118.965C336.297 119.812 335.78 120.524 335.129 121.102L333.726 120.333C334.116 119.763 334.393 119.157 334.556 118.514C334.718 117.871 334.8 117.203 334.8 116.512V114.327H337.253V116.475ZM36.4429 153.064C36.9393 153.048 37.3543 152.909 37.688 152.649C38.0216 152.389 38.2902 152.055 38.4937 151.648C38.689 151.249 38.8273 150.798 38.9087 150.293C38.9982 149.797 39.043 149.296 39.043 148.792V146.729C39.043 146.086 39.1366 145.492 39.3237 144.946C39.519 144.401 39.8161 143.929 40.2148 143.53C40.4264 143.319 40.6624 143.127 40.9229 142.957C41.1914 142.786 41.4844 142.635 41.8018 142.505C41.4762 142.375 41.1751 142.22 40.8984 142.041C40.6299 141.862 40.3939 141.663 40.1904 141.443C39.7998 141.036 39.5109 140.564 39.3237 140.027C39.1366 139.482 39.043 138.892 39.043 138.257V136.182C39.043 135.685 39.0145 135.185 38.9575 134.68C38.9087 134.176 38.7988 133.72 38.6279 133.313C38.4489 132.914 38.1885 132.585 37.8467 132.324C37.5049 132.064 37.041 131.925 36.4551 131.909L36.6992 130.505C37.4886 130.53 38.1641 130.697 38.7256 131.006C39.2952 131.315 39.7632 131.718 40.1294 132.214C40.5444 132.776 40.8415 133.407 41.0205 134.106C41.2077 134.806 41.3013 135.498 41.3013 136.182V138.257C41.3013 138.745 41.346 139.176 41.4355 139.551C41.5332 139.917 41.6756 140.234 41.8628 140.503C42.1313 140.885 42.5016 141.166 42.9736 141.345C43.4538 141.516 44.0275 141.602 44.6948 141.602V143.372C44.1089 143.38 43.5962 143.453 43.1567 143.591C42.7254 143.722 42.3714 143.929 42.0947 144.214C41.8262 144.491 41.6268 144.836 41.4966 145.251C41.3664 145.667 41.3013 146.159 41.3013 146.729V148.792C41.3013 149.443 41.2118 150.098 41.0327 150.757C40.8537 151.424 40.577 152.03 40.2026 152.576C39.8201 153.121 39.34 153.569 38.7622 153.918C38.1844 154.268 37.4967 154.451 36.6992 154.468L36.4429 153.064Z" fill="white"/>
</svg>
