<svg width="1399" height="182" viewBox="0 0 1399 182" fill="none" xmlns="http://www.w3.org/2000/svg">
<rect width="1399" height="182" rx="20" fill="#0066FF" fill-opacity="0.2"/>
<rect x="1.5" y="1.5" width="1396" height="179" rx="18.5" stroke="#0066FF" stroke-opacity="0.5" stroke-width="3"/>
<path d="M46.0547 49.5352C46.0547 49.055 46.2012 48.644 46.4941 48.3022C46.7871 47.9604 47.2306 47.7896 47.8247 47.7896C48.4106 47.7896 48.8542 47.9604 49.1553 48.3022C49.4645 48.6359 49.6191 49.0469 49.6191 49.5352C49.6191 50.0153 49.4645 50.4181 49.1553 50.7437C48.846 51.0692 48.4025 51.2319 47.8247 51.2319C47.2388 51.2319 46.7952 51.0692 46.4941 50.7437C46.2012 50.41 46.0547 50.0072 46.0547 49.5352ZM60.0078 51V39.5376H56.3701V37.792H60.0078V36.8643C60.0078 36.0179 60.1299 35.2773 60.374 34.6426C60.6263 33.9997 60.9803 33.4626 61.436 33.0312C61.8836 32.5999 62.4248 32.2744 63.0596 32.0547C63.6943 31.835 64.4023 31.7251 65.1836 31.7251C65.5091 31.7251 65.8306 31.7454 66.1479 31.7861C66.4653 31.8187 66.7786 31.8634 67.0879 31.9204C67.2913 31.9611 67.4948 32.0059 67.6982 32.0547C67.9017 32.0954 68.1092 32.1442 68.3208 32.2012L68.0522 34.0688C67.7186 33.9549 67.328 33.8573 66.8804 33.7759C66.4409 33.6864 65.9689 33.6416 65.4644 33.6416C64.9517 33.6416 64.4959 33.7067 64.0972 33.8369C63.7065 33.959 63.381 34.1462 63.1206 34.3984C62.8439 34.6589 62.6323 34.9966 62.4858 35.4116C62.3475 35.8267 62.2783 36.3109 62.2783 36.8643V37.792H67.3687V39.5376H62.2783V51H60.0078ZM70.5186 44.2739C70.5186 43.3218 70.6569 42.4388 70.9336 41.625C71.2103 40.8031 71.609 40.091 72.1299 39.4888C72.6426 38.8866 73.2692 38.4146 74.0098 38.0728C74.7503 37.7228 75.5845 37.5479 76.5122 37.5479C77.4481 37.5479 78.2863 37.7228 79.0269 38.0728C79.7756 38.4146 80.4103 38.8866 80.9312 39.4888C81.4438 40.091 81.8385 40.8031 82.1152 41.625C82.3919 42.4388 82.5303 43.3218 82.5303 44.2739V44.5425C82.5303 45.4946 82.3919 46.3776 82.1152 47.1914C81.8385 48.0052 81.4438 48.7132 80.9312 49.3154C80.4103 49.9176 79.7796 50.3896 79.0391 50.7314C78.2985 51.0732 77.4644 51.2441 76.5366 51.2441C75.6007 51.2441 74.7585 51.0732 74.0098 50.7314C73.2692 50.3896 72.6426 49.9176 72.1299 49.3154C71.609 48.7132 71.2103 48.0052 70.9336 47.1914C70.6569 46.3776 70.5186 45.4946 70.5186 44.5425V44.2739ZM72.7769 44.5425C72.7769 45.1935 72.8542 45.8161 73.0088 46.4102C73.1634 46.9961 73.3994 47.5129 73.7168 47.9604C74.026 48.408 74.4167 48.762 74.8887 49.0225C75.3607 49.2829 75.91 49.4131 76.5366 49.4131C77.1551 49.4131 77.6963 49.2829 78.1602 49.0225C78.6322 48.762 79.0269 48.408 79.3442 47.9604C79.6535 47.5129 79.8854 46.9961 80.04 46.4102C80.1947 45.8161 80.272 45.1935 80.272 44.5425V44.2739C80.272 43.631 80.1906 43.0166 80.0278 42.4307C79.8732 41.8366 79.6413 41.3158 79.332 40.8682C79.0146 40.4206 78.62 40.0666 78.1479 39.8062C77.6841 39.5376 77.1388 39.4033 76.5122 39.4033C75.8856 39.4033 75.3403 39.5376 74.8765 39.8062C74.4126 40.0666 74.026 40.4206 73.7168 40.8682C73.3994 41.3158 73.1634 41.8366 73.0088 42.4307C72.8542 43.0166 72.7769 43.631 72.7769 44.2739V44.5425ZM85.0332 44.2739C85.0332 43.3218 85.1715 42.4388 85.4482 41.625C85.7249 40.8031 86.1237 40.091 86.6445 39.4888C87.1572 38.8866 87.7839 38.4146 88.5244 38.0728C89.265 37.7228 90.0991 37.5479 91.0269 37.5479C91.9627 37.5479 92.8009 37.7228 93.5415 38.0728C94.2902 38.4146 94.925 38.8866 95.4458 39.4888C95.9585 40.091 96.3532 40.8031 96.6299 41.625C96.9066 42.4388 97.0449 43.3218 97.0449 44.2739V44.5425C97.0449 45.4946 96.9066 46.3776 96.6299 47.1914C96.3532 48.0052 95.9585 48.7132 95.4458 49.3154C94.925 49.9176 94.2943 50.3896 93.5537 50.7314C92.8132 51.0732 91.979 51.2441 91.0513 51.2441C90.1154 51.2441 89.2731 51.0732 88.5244 50.7314C87.7839 50.3896 87.1572 49.9176 86.6445 49.3154C86.1237 48.7132 85.7249 48.0052 85.4482 47.1914C85.1715 46.3776 85.0332 45.4946 85.0332 44.5425V44.2739ZM87.2915 44.5425C87.2915 45.1935 87.3688 45.8161 87.5234 46.4102C87.6781 46.9961 87.9141 47.5129 88.2314 47.9604C88.5407 48.408 88.9313 48.762 89.4033 49.0225C89.8753 49.2829 90.4246 49.4131 91.0513 49.4131C91.6698 49.4131 92.2109 49.2829 92.6748 49.0225C93.1468 48.762 93.5415 48.408 93.8589 47.9604C94.1681 47.5129 94.4001 46.9961 94.5547 46.4102C94.7093 45.8161 94.7866 45.1935 94.7866 44.5425V44.2739C94.7866 43.631 94.7052 43.0166 94.5425 42.4307C94.3879 41.8366 94.1559 41.3158 93.8467 40.8682C93.5293 40.4206 93.1346 40.0666 92.6626 39.8062C92.1987 39.5376 91.6535 39.4033 91.0269 39.4033C90.4002 39.4033 89.855 39.5376 89.3911 39.8062C88.9272 40.0666 88.5407 40.4206 88.2314 40.8682C87.9141 41.3158 87.6781 41.8366 87.5234 42.4307C87.3688 43.0166 87.2915 43.631 87.2915 44.2739V44.5425ZM105.529 34.5938V37.792H110.559V39.5376H105.529V46.7153C105.529 47.228 105.594 47.6512 105.725 47.9849C105.855 48.3185 106.034 48.583 106.262 48.7783C106.49 48.9818 106.75 49.1242 107.043 49.2056C107.344 49.2869 107.661 49.3276 107.995 49.3276C108.239 49.3276 108.492 49.3154 108.752 49.291C109.012 49.2585 109.269 49.2218 109.521 49.1812C109.765 49.1405 109.993 49.0998 110.205 49.0591C110.424 49.0103 110.603 48.9696 110.742 48.937L111.059 50.5361C110.872 50.6501 110.644 50.7518 110.375 50.8413C110.107 50.9227 109.814 50.9919 109.497 51.0488C109.179 51.1139 108.841 51.1628 108.483 51.1953C108.133 51.2279 107.784 51.2441 107.434 51.2441C106.848 51.2441 106.298 51.1628 105.786 51C105.281 50.8291 104.842 50.5605 104.467 50.1943C104.093 49.8363 103.796 49.3724 103.576 48.8027C103.365 48.2249 103.259 47.5291 103.259 46.7153V39.5376H99.792V37.792H103.259V34.5938H105.529ZM120.532 51.2441C119.604 51.2441 118.75 51.0854 117.969 50.7681C117.196 50.4507 116.532 50.0072 115.979 49.4375C115.426 48.8678 114.994 48.1924 114.685 47.4111C114.376 46.6299 114.221 45.7795 114.221 44.8599V44.3472C114.221 43.2811 114.392 42.3289 114.734 41.4907C115.076 40.6444 115.531 39.9282 116.101 39.3423C116.663 38.7645 117.301 38.321 118.018 38.0117C118.742 37.7025 119.482 37.5479 120.239 37.5479C121.191 37.5479 122.021 37.7147 122.729 38.0483C123.446 38.3739 124.04 38.8255 124.512 39.4033C124.984 39.9893 125.334 40.6769 125.562 41.4663C125.798 42.2557 125.916 43.1102 125.916 44.0298V45.043H116.479V45.1284C116.536 45.7713 116.663 46.3369 116.858 46.8252C117.061 47.3135 117.338 47.7448 117.688 48.1191C118.046 48.5179 118.477 48.8312 118.982 49.0591C119.486 49.2869 120.044 49.4009 120.654 49.4009C121.46 49.4009 122.176 49.2381 122.803 48.9126C123.429 48.5871 123.95 48.1558 124.365 47.6187L125.745 48.6929C125.305 49.3602 124.646 49.9543 123.767 50.4751C122.896 50.9878 121.818 51.2441 120.532 51.2441ZM120.239 39.4033C119.784 39.4033 119.352 39.4888 118.945 39.6597C118.538 39.8224 118.172 40.0625 117.847 40.3799C117.521 40.7054 117.244 41.1042 117.017 41.5762C116.797 42.04 116.642 42.5771 116.553 43.1875H123.657V43.0776C123.657 42.6707 123.58 42.2354 123.425 41.7715C123.271 41.2995 123.055 40.8926 122.778 40.5508C122.502 40.209 122.152 39.9323 121.729 39.7207C121.313 39.5091 120.817 39.4033 120.239 39.4033ZM137.867 37.5479C138.282 37.5479 138.713 37.5763 139.161 37.6333C139.616 37.6903 139.958 37.7676 140.186 37.8652L139.881 40.0747C139.441 39.9771 139.022 39.9079 138.624 39.8672C138.233 39.8184 137.822 39.7939 137.391 39.7939C136.837 39.7939 136.337 39.8631 135.889 40.0015C135.442 40.1317 135.051 40.327 134.717 40.5874C134.416 40.8153 134.152 41.096 133.924 41.4297C133.704 41.7552 133.521 42.1214 133.375 42.5283V51H131.104V37.792H133.252L133.35 39.562L133.362 39.8916C133.899 39.1673 134.542 38.5977 135.291 38.1826C136.048 37.7594 136.906 37.5479 137.867 37.5479ZM260.869 118.514H259.465L270 99.2388H271.392L260.869 118.514ZM279.327 105.171L274.969 103.841L275.591 102.486L279.852 104.231L280.499 99.2266H281.915L280.914 104.195L285.564 102.437L285.821 103.89L280.987 105.306L283.587 109.236L282.354 110.066L280.108 105.892L276.69 110.005L275.604 109.126L279.327 105.171ZM302.851 111.446C302.826 112.024 302.859 112.585 302.948 113.13C303.046 113.676 303.225 114.16 303.485 114.583C303.746 115.006 304.096 115.348 304.535 115.608C304.983 115.861 305.54 115.991 306.208 115.999C306.875 116.007 307.477 115.881 308.014 115.621C308.559 115.36 309.04 115.014 309.455 114.583C309.756 114.29 310.028 113.96 310.272 113.594C310.525 113.22 310.744 112.829 310.932 112.422C311.127 111.999 311.29 111.564 311.42 111.116C311.558 110.66 311.664 110.221 311.737 109.798L311.92 108.687H305.695L305.902 107.442H312.128L312.287 106.417C312.352 106.042 312.388 105.647 312.396 105.232C312.413 104.809 312.401 104.39 312.36 103.975C312.319 103.576 312.242 103.186 312.128 102.803C312.014 102.421 311.859 102.071 311.664 101.753C311.412 101.314 311.07 100.952 310.639 100.667C310.207 100.382 309.666 100.232 309.015 100.215C308.323 100.199 307.705 100.317 307.16 100.569C306.623 100.813 306.151 101.143 305.744 101.558C305.329 101.981 304.983 102.47 304.706 103.023C304.429 103.576 304.21 104.158 304.047 104.769L302.655 104.781C302.802 103.983 303.058 103.23 303.424 102.522C303.791 101.814 304.25 101.196 304.804 100.667C305.357 100.138 305.992 99.723 306.708 99.4219C307.432 99.1126 308.222 98.9661 309.076 98.9824C309.906 98.9906 310.618 99.1574 311.212 99.4829C311.806 99.8084 312.291 100.236 312.665 100.765C312.95 101.155 313.178 101.591 313.349 102.071C313.528 102.551 313.654 103.051 313.727 103.572C313.8 104.044 313.833 104.524 313.825 105.013C313.817 105.501 313.78 105.977 313.715 106.441L313.166 109.786C313.076 110.306 312.95 110.835 312.787 111.373C312.624 111.902 312.429 112.418 312.201 112.923C311.965 113.427 311.688 113.903 311.371 114.351C311.062 114.799 310.716 115.201 310.333 115.56C309.796 116.08 309.178 116.495 308.478 116.805C307.778 117.106 307.005 117.252 306.159 117.244C305.312 117.244 304.58 117.085 303.961 116.768C303.351 116.451 302.851 116.028 302.46 115.499C302.069 114.97 301.789 114.355 301.618 113.655C301.447 112.955 301.39 112.219 301.447 111.446H302.851ZM327.656 103.792L325.361 117H323.92L325.983 105.062H320.515L319.611 109.627C319.522 110.123 319.42 110.648 319.306 111.202C319.2 111.755 319.066 112.3 318.903 112.837C318.732 113.383 318.525 113.903 318.281 114.4C318.045 114.896 317.752 115.336 317.402 115.718C317.06 116.101 316.649 116.41 316.169 116.646C315.697 116.874 315.144 116.992 314.509 117H313.947L314.13 115.682H314.558C315.038 115.665 315.449 115.556 315.791 115.352C316.14 115.14 316.438 114.868 316.682 114.534C316.926 114.209 317.129 113.838 317.292 113.423C317.455 113 317.593 112.565 317.707 112.117C317.821 111.678 317.91 111.242 317.976 110.811C318.049 110.372 318.118 109.977 318.183 109.627L319.306 103.792H327.656ZM335.151 117.244C334.24 117.236 333.442 117.037 332.759 116.646C332.083 116.255 331.538 115.747 331.123 115.12C330.732 114.542 330.452 113.875 330.281 113.118C330.118 112.361 330.085 111.584 330.183 110.787L330.256 110.25C330.338 109.696 330.476 109.147 330.671 108.602C330.867 108.048 331.115 107.519 331.416 107.015C331.717 106.518 332.063 106.058 332.454 105.635C332.844 105.204 333.276 104.834 333.748 104.524C334.22 104.215 334.728 103.975 335.273 103.804C335.827 103.625 336.409 103.54 337.019 103.548C337.865 103.556 338.586 103.735 339.18 104.085C339.774 104.427 340.254 104.882 340.62 105.452C340.978 106.014 341.218 106.657 341.34 107.381C341.462 108.105 341.475 108.846 341.377 109.603L341.23 110.494H331.672C331.534 111.234 331.51 111.922 331.599 112.557C331.689 113.191 331.904 113.785 332.246 114.339C332.539 114.827 332.938 115.222 333.442 115.523C333.955 115.824 334.553 115.983 335.237 115.999C336.042 116.015 336.787 115.861 337.471 115.535C338.154 115.21 338.777 114.77 339.338 114.217L340.193 114.937C339.574 115.686 338.822 116.259 337.935 116.658C337.056 117.057 336.128 117.252 335.151 117.244ZM336.97 104.805C336.319 104.789 335.721 104.911 335.176 105.171C334.639 105.424 334.163 105.757 333.748 106.172C333.316 106.587 332.946 107.063 332.637 107.601C332.327 108.138 332.071 108.687 331.868 109.249L339.973 109.261L340.01 109.065C340.107 108.545 340.111 108.032 340.022 107.527C339.932 107.015 339.757 106.559 339.497 106.16C339.229 105.761 338.883 105.44 338.459 105.196C338.036 104.944 337.54 104.813 336.97 104.805ZM348.946 114.974L354.476 103.804L356.209 103.792L353.938 117H352.535L354.219 107.259L349.166 117H348.165L346.443 106.758L344.661 117H343.257L345.54 103.792H347.322L348.946 114.974ZM363.497 117.244C362.586 117.236 361.788 117.037 361.104 116.646C360.429 116.255 359.884 115.747 359.469 115.12C359.078 114.542 358.797 113.875 358.626 113.118C358.464 112.361 358.431 111.584 358.529 110.787L358.602 110.25C358.683 109.696 358.822 109.147 359.017 108.602C359.212 108.048 359.461 107.519 359.762 107.015C360.063 106.518 360.409 106.058 360.799 105.635C361.19 105.204 361.621 104.834 362.093 104.524C362.565 104.215 363.074 103.975 363.619 103.804C364.173 103.625 364.754 103.54 365.365 103.548C366.211 103.556 366.931 103.735 367.525 104.085C368.119 104.427 368.6 104.882 368.966 105.452C369.324 106.014 369.564 106.657 369.686 107.381C369.808 108.105 369.82 108.846 369.723 109.603L369.576 110.494H360.018C359.88 111.234 359.855 111.922 359.945 112.557C360.034 113.191 360.25 113.785 360.592 114.339C360.885 114.827 361.284 115.222 361.788 115.523C362.301 115.824 362.899 115.983 363.583 115.999C364.388 116.015 365.133 115.861 365.816 115.535C366.5 115.21 367.123 114.77 367.684 114.217L368.539 114.937C367.92 115.686 367.167 116.259 366.28 116.658C365.401 117.057 364.474 117.252 363.497 117.244ZM365.316 104.805C364.665 104.789 364.067 104.911 363.521 105.171C362.984 105.424 362.508 105.757 362.093 106.172C361.662 106.587 361.292 107.063 360.982 107.601C360.673 108.138 360.417 108.687 360.213 109.249L368.319 109.261L368.355 109.065C368.453 108.545 368.457 108.032 368.368 107.527C368.278 107.015 368.103 106.559 367.843 106.16C367.574 105.761 367.228 105.44 366.805 105.196C366.382 104.944 365.886 104.813 365.316 104.805ZM382.162 117H380.722L381.771 110.945H374.545L373.495 117H372.067L374.35 103.792H375.778L374.752 109.7H381.979L383.004 103.792H384.445L382.162 117ZM399.606 105.037H394.138L392.062 117H390.622L392.685 105.037H387.424L387.619 103.792H399.802L399.606 105.037ZM421.727 104.659C422.557 104.667 423.281 104.838 423.899 105.171C424.518 105.497 425.027 105.928 425.425 106.465C425.824 107.011 426.105 107.637 426.268 108.345C426.438 109.053 426.479 109.794 426.39 110.567L426.341 110.97C426.219 111.808 425.979 112.61 425.621 113.375C425.271 114.131 424.811 114.799 424.241 115.376C423.68 115.954 423.025 116.414 422.276 116.756C421.527 117.09 420.709 117.252 419.822 117.244C418.951 117.236 418.191 117.057 417.54 116.707C416.897 116.349 416.372 115.881 415.965 115.303C415.558 114.725 415.273 114.062 415.11 113.313C414.948 112.557 414.915 111.779 415.013 110.982L415.062 110.579L415.074 110.481L415.196 109.688C415.293 108.996 415.432 108.3 415.611 107.601C415.798 106.901 416.03 106.221 416.307 105.562C416.575 104.911 416.901 104.292 417.283 103.707C417.666 103.112 418.105 102.579 418.602 102.107C419.098 101.644 419.655 101.249 420.274 100.923C420.901 100.59 421.592 100.354 422.349 100.215C422.715 100.15 423.09 100.081 423.472 100.008C423.863 99.9264 424.225 99.8084 424.559 99.6538C424.892 99.5073 425.189 99.3079 425.45 99.0557C425.71 98.8034 425.897 98.4697 426.011 98.0547H427.244C427.138 98.6813 426.943 99.1981 426.658 99.605C426.373 100.004 426.028 100.329 425.621 100.582C425.197 100.826 424.729 101.017 424.217 101.155C423.704 101.294 423.167 101.412 422.605 101.509C421.849 101.631 421.173 101.863 420.579 102.205C419.993 102.539 419.472 102.946 419.017 103.426C418.561 103.922 418.162 104.476 417.82 105.086C417.479 105.688 417.177 106.327 416.917 107.002C417.535 106.294 418.252 105.725 419.065 105.293C419.879 104.862 420.766 104.651 421.727 104.659ZM421.482 105.904C420.815 105.896 420.197 106.018 419.627 106.27C419.057 106.522 418.557 106.864 418.125 107.295C417.694 107.727 417.336 108.227 417.051 108.797C416.775 109.367 416.583 109.965 416.478 110.591L416.417 110.994C416.343 111.588 416.351 112.182 416.441 112.776C416.539 113.37 416.726 113.903 417.002 114.375C417.279 114.847 417.653 115.234 418.125 115.535C418.597 115.836 419.175 115.991 419.859 115.999C420.559 116.015 421.198 115.881 421.775 115.596C422.353 115.311 422.858 114.933 423.289 114.461C423.72 113.989 424.07 113.448 424.339 112.837C424.616 112.227 424.807 111.604 424.913 110.97L424.961 110.567C425.035 109.973 425.014 109.399 424.9 108.846C424.795 108.284 424.595 107.788 424.302 107.356C424.009 106.925 423.627 106.579 423.155 106.319C422.683 106.05 422.125 105.912 421.482 105.904ZM434.056 114.266L434.288 114.803L440.77 103.804H442.455L433.202 119.124C432.958 119.547 432.681 119.95 432.372 120.333C432.062 120.723 431.725 121.069 431.358 121.37C430.984 121.663 430.573 121.899 430.125 122.078C429.686 122.257 429.202 122.347 428.673 122.347C428.461 122.347 428.25 122.33 428.038 122.298C427.835 122.265 427.627 122.229 427.416 122.188L427.696 120.943C427.867 120.967 428.034 120.992 428.197 121.016C428.368 121.041 428.535 121.053 428.697 121.053C429.072 121.045 429.422 120.967 429.747 120.821C430.073 120.682 430.37 120.499 430.638 120.271C430.907 120.044 431.151 119.783 431.371 119.49C431.598 119.197 431.806 118.904 431.993 118.611L433.263 116.585L429.735 103.78H431.285L434.056 114.266ZM442.992 115.767C443.367 115.556 443.704 115.279 444.005 114.937C444.315 114.595 444.591 114.217 444.835 113.802C445.063 113.403 445.267 112.98 445.446 112.532C445.625 112.085 445.784 111.629 445.922 111.165C446.052 110.709 446.17 110.258 446.276 109.81C446.382 109.362 446.475 108.947 446.557 108.565L447.594 103.792H455.163L453.1 115.755H454.43L453.441 120.882H452.111L452.782 117H443.175L442.504 120.882H441.259L442.028 115.755L442.992 115.767ZM447.997 108.565C447.859 109.208 447.704 109.851 447.533 110.494C447.37 111.137 447.171 111.767 446.935 112.386C446.691 113.004 446.41 113.598 446.093 114.168C445.775 114.738 445.393 115.275 444.945 115.779L451.671 115.755L453.502 105.159H448.729L447.997 108.565ZM462.707 117.244C461.796 117.236 460.998 117.037 460.314 116.646C459.639 116.255 459.094 115.747 458.679 115.12C458.288 114.542 458.007 113.875 457.836 113.118C457.674 112.361 457.641 111.584 457.739 110.787L457.812 110.25C457.893 109.696 458.032 109.147 458.227 108.602C458.422 108.048 458.671 107.519 458.972 107.015C459.273 106.518 459.619 106.058 460.009 105.635C460.4 105.204 460.831 104.834 461.303 104.524C461.775 104.215 462.284 103.975 462.829 103.804C463.382 103.625 463.964 103.54 464.575 103.548C465.421 103.556 466.141 103.735 466.735 104.085C467.329 104.427 467.81 104.882 468.176 105.452C468.534 106.014 468.774 106.657 468.896 107.381C469.018 108.105 469.03 108.846 468.933 109.603L468.786 110.494H459.228C459.09 111.234 459.065 111.922 459.155 112.557C459.244 113.191 459.46 113.785 459.802 114.339C460.095 114.827 460.493 115.222 460.998 115.523C461.511 115.824 462.109 115.983 462.792 115.999C463.598 116.015 464.343 115.861 465.026 115.535C465.71 115.21 466.333 114.77 466.894 114.217L467.749 114.937C467.13 115.686 466.377 116.259 465.49 116.658C464.611 117.057 463.684 117.252 462.707 117.244ZM464.526 104.805C463.875 104.789 463.277 104.911 462.731 105.171C462.194 105.424 461.718 105.757 461.303 106.172C460.872 106.587 460.502 107.063 460.192 107.601C459.883 108.138 459.627 108.687 459.423 109.249L467.529 109.261L467.565 109.065C467.663 108.545 467.667 108.032 467.578 107.527C467.488 107.015 467.313 106.559 467.053 106.16C466.784 105.761 466.438 105.44 466.015 105.196C465.592 104.944 465.096 104.813 464.526 104.805ZM484.644 105.037H479.175L477.1 117H475.659L477.722 105.037H472.461L472.656 103.792H484.839L484.644 105.037ZM509.718 117H508.277L510.34 105.062H503.126L501.063 117H499.623L501.917 103.792H511.988L509.718 117ZM525.343 110.494C525.262 111.006 525.144 111.527 524.989 112.056C524.843 112.577 524.652 113.077 524.416 113.558C524.163 114.111 523.85 114.628 523.476 115.108C523.109 115.588 522.69 115.991 522.218 116.316C521.803 116.609 521.347 116.837 520.851 117C520.363 117.171 519.83 117.252 519.252 117.244C518.845 117.244 518.45 117.195 518.068 117.098C517.685 117 517.327 116.858 516.994 116.67C516.725 116.516 516.473 116.333 516.237 116.121C516.009 115.91 515.81 115.665 515.639 115.389L514.43 122.078H513.014L516.176 103.792H517.494L517.165 105.611C517.401 105.334 517.657 105.078 517.934 104.842C518.21 104.598 518.503 104.39 518.812 104.219C519.195 104 519.598 103.833 520.021 103.719C520.444 103.605 520.888 103.548 521.352 103.548C521.954 103.556 522.483 103.658 522.938 103.853C523.394 104.048 523.781 104.309 524.098 104.634C524.416 104.968 524.672 105.354 524.867 105.794C525.071 106.233 525.221 106.697 525.319 107.186C525.408 107.682 525.453 108.191 525.453 108.711C525.461 109.232 525.433 109.741 525.368 110.237L525.343 110.494ZM523.939 110.237C523.996 109.814 524.025 109.375 524.025 108.919C524.033 108.455 523.996 108.007 523.915 107.576C523.842 107.21 523.74 106.872 523.61 106.563C523.48 106.246 523.309 105.965 523.097 105.721C522.861 105.452 522.568 105.241 522.218 105.086C521.868 104.923 521.453 104.838 520.973 104.83C520.526 104.83 520.098 104.899 519.691 105.037C519.293 105.167 518.922 105.354 518.581 105.599C518.263 105.818 517.97 106.075 517.702 106.368C517.441 106.661 517.209 106.974 517.006 107.308L515.871 113.765C515.976 114.123 516.127 114.441 516.322 114.717C516.526 114.986 516.762 115.214 517.03 115.401C517.299 115.596 517.596 115.743 517.921 115.84C518.255 115.938 518.609 115.991 518.983 115.999C519.472 116.007 519.919 115.938 520.326 115.792C520.741 115.645 521.116 115.442 521.449 115.181C521.815 114.913 522.137 114.591 522.414 114.217C522.69 113.834 522.93 113.431 523.134 113.008C523.321 112.61 523.48 112.194 523.61 111.763C523.74 111.332 523.838 110.909 523.903 110.494L523.939 110.237ZM538.857 103.804L540.346 103.792L538.063 117H536.623L538.491 106.221L529.445 117H527.98L530.251 103.792H531.679L529.787 114.62L538.857 103.804ZM547.219 110.958H544.827L543.777 117H542.336L544.619 103.792H546.06L545.046 109.639H547.268L553.42 103.792L555.386 103.804L548.501 110.286L553.579 117H551.821L547.219 110.958ZM567.862 110.494C567.78 111.006 567.662 111.527 567.508 112.056C567.361 112.577 567.17 113.077 566.934 113.558C566.682 114.111 566.368 114.628 565.994 115.108C565.628 115.588 565.209 115.991 564.737 116.316C564.322 116.609 563.866 116.837 563.37 117C562.881 117.171 562.348 117.252 561.771 117.244C561.364 117.244 560.969 117.195 560.586 117.098C560.204 117 559.846 116.858 559.512 116.67C559.244 116.516 558.991 116.333 558.755 116.121C558.528 115.91 558.328 115.665 558.157 115.389L556.949 122.078H555.533L558.694 103.792H560.013L559.683 105.611C559.919 105.334 560.175 105.078 560.452 104.842C560.729 104.598 561.022 104.39 561.331 104.219C561.714 104 562.116 103.833 562.54 103.719C562.963 103.605 563.406 103.548 563.87 103.548C564.472 103.556 565.001 103.658 565.457 103.853C565.913 104.048 566.299 104.309 566.617 104.634C566.934 104.968 567.19 105.354 567.386 105.794C567.589 106.233 567.74 106.697 567.837 107.186C567.927 107.682 567.972 108.191 567.972 108.711C567.98 109.232 567.951 109.741 567.886 110.237L567.862 110.494ZM566.458 110.237C566.515 109.814 566.543 109.375 566.543 108.919C566.552 108.455 566.515 108.007 566.434 107.576C566.36 107.21 566.259 106.872 566.128 106.563C565.998 106.246 565.827 105.965 565.616 105.721C565.38 105.452 565.087 105.241 564.737 105.086C564.387 104.923 563.972 104.838 563.492 104.83C563.044 104.83 562.617 104.899 562.21 105.037C561.811 105.167 561.441 105.354 561.099 105.599C560.782 105.818 560.489 106.075 560.22 106.368C559.96 106.661 559.728 106.974 559.524 107.308L558.389 113.765C558.495 114.123 558.646 114.441 558.841 114.717C559.044 114.986 559.28 115.214 559.549 115.401C559.817 115.596 560.114 115.743 560.44 115.84C560.774 115.938 561.128 115.991 561.502 115.999C561.99 116.007 562.438 115.938 562.845 115.792C563.26 115.645 563.634 115.442 563.968 115.181C564.334 114.913 564.655 114.591 564.932 114.217C565.209 113.834 565.449 113.431 565.652 113.008C565.84 112.61 565.998 112.194 566.128 111.763C566.259 111.332 566.356 110.909 566.421 110.494L566.458 110.237ZM576.09 117.244C575.178 117.236 574.381 117.037 573.697 116.646C573.022 116.255 572.477 115.747 572.062 115.12C571.671 114.542 571.39 113.875 571.219 113.118C571.056 112.361 571.024 111.584 571.122 110.787L571.195 110.25C571.276 109.696 571.415 109.147 571.61 108.602C571.805 108.048 572.053 107.519 572.354 107.015C572.656 106.518 573.001 106.058 573.392 105.635C573.783 105.204 574.214 104.834 574.686 104.524C575.158 104.215 575.667 103.975 576.212 103.804C576.765 103.625 577.347 103.54 577.958 103.548C578.804 103.556 579.524 103.735 580.118 104.085C580.712 104.427 581.192 104.882 581.559 105.452C581.917 106.014 582.157 106.657 582.279 107.381C582.401 108.105 582.413 108.846 582.315 109.603L582.169 110.494H572.611C572.472 111.234 572.448 111.922 572.538 112.557C572.627 113.191 572.843 113.785 573.185 114.339C573.478 114.827 573.876 115.222 574.381 115.523C574.894 115.824 575.492 115.983 576.175 115.999C576.981 116.015 577.726 115.861 578.409 115.535C579.093 115.21 579.715 114.77 580.277 114.217L581.131 114.937C580.513 115.686 579.76 116.259 578.873 116.658C577.994 117.057 577.066 117.252 576.09 117.244ZM577.909 104.805C577.258 104.789 576.66 104.911 576.114 105.171C575.577 105.424 575.101 105.757 574.686 106.172C574.255 106.587 573.884 107.063 573.575 107.601C573.266 108.138 573.01 108.687 572.806 109.249L580.912 109.261L580.948 109.065C581.046 108.545 581.05 108.032 580.96 107.527C580.871 107.015 580.696 106.559 580.436 106.16C580.167 105.761 579.821 105.44 579.398 105.196C578.975 104.944 578.478 104.813 577.909 104.805ZM594.755 117H593.314L595.377 105.062H588.163L586.1 117H584.66L586.955 103.792H597.025L594.755 117ZM611.113 103.792L608.818 117H607.377L609.44 105.062H603.972L603.068 109.627C602.979 110.123 602.877 110.648 602.763 111.202C602.657 111.755 602.523 112.3 602.36 112.837C602.189 113.383 601.982 113.903 601.738 114.4C601.502 114.896 601.209 115.336 600.859 115.718C600.517 116.101 600.106 116.41 599.626 116.646C599.154 116.874 598.601 116.992 597.966 117H597.404L597.587 115.682H598.015C598.495 115.665 598.906 115.556 599.248 115.352C599.597 115.14 599.895 114.868 600.139 114.534C600.383 114.209 600.586 113.838 600.749 113.423C600.912 113 601.05 112.565 601.164 112.117C601.278 111.678 601.368 111.242 601.433 110.811C601.506 110.372 601.575 109.977 601.64 109.627L602.763 103.792H611.113ZM618.608 117.244C617.697 117.236 616.899 117.037 616.216 116.646C615.54 116.255 614.995 115.747 614.58 115.12C614.189 114.542 613.909 113.875 613.738 113.118C613.575 112.361 613.542 111.584 613.64 110.787L613.713 110.25C613.795 109.696 613.933 109.147 614.128 108.602C614.324 108.048 614.572 107.519 614.873 107.015C615.174 106.518 615.52 106.058 615.911 105.635C616.301 105.204 616.733 104.834 617.205 104.524C617.677 104.215 618.185 103.975 618.73 103.804C619.284 103.625 619.866 103.54 620.476 103.548C621.322 103.556 622.043 103.735 622.637 104.085C623.231 104.427 623.711 104.882 624.077 105.452C624.435 106.014 624.675 106.657 624.797 107.381C624.919 108.105 624.932 108.846 624.834 109.603L624.688 110.494H615.129C614.991 111.234 614.967 111.922 615.056 112.557C615.146 113.191 615.361 113.785 615.703 114.339C615.996 114.827 616.395 115.222 616.899 115.523C617.412 115.824 618.01 115.983 618.694 115.999C619.5 116.015 620.244 115.861 620.928 115.535C621.611 115.21 622.234 114.77 622.795 114.217L623.65 114.937C623.031 115.686 622.279 116.259 621.392 116.658C620.513 117.057 619.585 117.252 618.608 117.244ZM620.427 104.805C619.776 104.789 619.178 104.911 618.633 105.171C618.096 105.424 617.62 105.757 617.205 106.172C616.773 106.587 616.403 107.063 616.094 107.601C615.785 108.138 615.528 108.687 615.325 109.249L623.43 109.261L623.467 109.065C623.564 108.545 623.569 108.032 623.479 107.527C623.389 107.015 623.215 106.559 622.954 106.16C622.686 105.761 622.34 105.44 621.917 105.196C621.493 104.944 620.997 104.813 620.427 104.805ZM617.498 99.8125C617.514 99.5439 617.62 99.312 617.815 99.1167C618.01 98.9214 618.246 98.8237 618.523 98.8237C618.8 98.8156 619.028 98.9092 619.207 99.1045C619.394 99.2998 619.479 99.5317 619.463 99.8003C619.447 100.069 619.337 100.301 619.133 100.496C618.938 100.683 618.706 100.781 618.438 100.789C618.161 100.789 617.933 100.695 617.754 100.508C617.575 100.321 617.489 100.089 617.498 99.8125ZM622.673 99.8247C622.69 99.5562 622.795 99.3242 622.991 99.1289C623.194 98.9336 623.43 98.8319 623.699 98.8237C623.975 98.8237 624.203 98.9214 624.382 99.1167C624.569 99.3039 624.659 99.5358 624.651 99.8125C624.635 100.081 624.525 100.313 624.321 100.508C624.118 100.695 623.882 100.793 623.613 100.801C623.345 100.801 623.117 100.708 622.93 100.521C622.751 100.333 622.665 100.101 622.673 99.8247ZM637.273 117H635.833L636.883 110.945H629.656L628.606 117H627.178L629.461 103.792H630.889L629.864 109.7H637.09L638.116 103.792H639.556L637.273 117ZM660.602 110.958H658.209L657.16 117H655.719L658.002 103.792H659.442L658.429 109.639H660.651L666.803 103.792L668.769 103.804L661.884 110.286L666.962 117H665.204L660.602 110.958ZM693.965 117H692.524L693.574 110.945H686.348L685.298 117H683.87L686.152 103.792H687.581L686.555 109.7H693.782L694.807 103.792H696.248L693.965 117ZM708.931 103.804L710.42 103.792L708.138 117H706.697L708.565 106.221L699.52 117H698.055L700.325 103.792H701.753L699.861 114.62L708.931 103.804ZM719.955 110.909L718.941 110.896L717.867 117H716.463L717.55 110.896H716.585L711.922 117H710.152L715.511 110.115L712.997 103.78H714.547L716.634 109.578L717.721 109.59L718.746 103.792H720.15L719.112 109.59H720.15L724.276 103.804H725.985L721.163 110.298L724.129 117H722.518L719.955 110.909ZM736.483 117H735.043L736.093 110.945H728.866L727.816 117H726.388L728.671 103.792H730.099L729.074 109.7H736.3L737.326 103.792H738.766L736.483 117ZM746.164 117.244C745.253 117.236 744.455 117.037 743.771 116.646C743.096 116.255 742.551 115.747 742.136 115.12C741.745 114.542 741.464 113.875 741.293 113.118C741.131 112.361 741.098 111.584 741.196 110.787L741.269 110.25C741.35 109.696 741.489 109.147 741.684 108.602C741.879 108.048 742.128 107.519 742.429 107.015C742.73 106.518 743.076 106.058 743.466 105.635C743.857 105.204 744.288 104.834 744.76 104.524C745.232 104.215 745.741 103.975 746.286 103.804C746.84 103.625 747.421 103.54 748.032 103.548C748.878 103.556 749.598 103.735 750.192 104.085C750.786 104.427 751.267 104.882 751.633 105.452C751.991 106.014 752.231 106.657 752.353 107.381C752.475 108.105 752.487 108.846 752.39 109.603L752.243 110.494H742.685C742.547 111.234 742.522 111.922 742.612 112.557C742.701 113.191 742.917 113.785 743.259 114.339C743.552 114.827 743.951 115.222 744.455 115.523C744.968 115.824 745.566 115.983 746.25 115.999C747.055 116.015 747.8 115.861 748.483 115.535C749.167 115.21 749.79 114.77 750.351 114.217L751.206 114.937C750.587 115.686 749.834 116.259 748.947 116.658C748.068 117.057 747.141 117.252 746.164 117.244ZM747.983 104.805C747.332 104.789 746.734 104.911 746.188 105.171C745.651 105.424 745.175 105.757 744.76 106.172C744.329 106.587 743.959 107.063 743.649 107.601C743.34 108.138 743.084 108.687 742.88 109.249L750.986 109.261L751.022 109.065C751.12 108.545 751.124 108.032 751.035 107.527C750.945 107.015 750.77 106.559 750.51 106.16C750.241 105.761 749.895 105.44 749.472 105.196C749.049 104.944 748.553 104.813 747.983 104.805ZM765.623 103.804L767.112 103.792L764.829 117H763.389L765.256 106.221L756.211 117H754.746L757.017 103.792H758.445L756.553 114.62L765.623 103.804ZM766.245 98.7505C766.172 99.2306 766.025 99.666 765.806 100.057C765.594 100.447 765.326 100.777 765 101.045C764.674 101.322 764.3 101.534 763.877 101.68C763.454 101.827 762.998 101.896 762.51 101.888C762.03 101.888 761.598 101.81 761.216 101.656C760.833 101.501 760.508 101.285 760.239 101.009C759.963 100.74 759.755 100.415 759.617 100.032C759.478 99.6497 759.413 99.2184 759.421 98.7383L760.63 98.7505C760.614 99.076 760.642 99.373 760.715 99.6416C760.797 99.902 760.923 100.122 761.094 100.301C761.248 100.472 761.444 100.606 761.68 100.704C761.916 100.793 762.192 100.838 762.51 100.838C762.868 100.83 763.189 100.773 763.474 100.667C763.759 100.561 764.011 100.407 764.231 100.203C764.426 100.024 764.589 99.8125 764.719 99.5684C764.858 99.3242 764.963 99.0557 765.037 98.7627L766.245 98.7505ZM793.175 117H791.747L792.772 111.385C792.153 111.613 791.523 111.788 790.88 111.91C790.237 112.032 789.582 112.093 788.915 112.093C788.133 112.093 787.442 111.983 786.839 111.763C786.245 111.535 785.757 111.21 785.375 110.787C784.992 110.372 784.719 109.859 784.557 109.249C784.402 108.63 784.378 107.926 784.483 107.137L785.033 103.792H786.461L785.899 107.149C785.818 107.727 785.818 108.243 785.899 108.699C785.989 109.147 786.164 109.533 786.424 109.859C786.677 110.176 787.014 110.42 787.438 110.591C787.861 110.754 788.369 110.835 788.963 110.835C789.631 110.835 790.294 110.783 790.953 110.677C791.612 110.571 792.259 110.404 792.894 110.176L794.029 103.792H795.458L793.175 117ZM806.176 117C806.135 116.666 806.123 116.341 806.139 116.023C806.164 115.698 806.204 115.372 806.261 115.047C805.985 115.34 805.688 115.612 805.37 115.865C805.053 116.109 804.719 116.32 804.369 116.5C803.913 116.744 803.433 116.931 802.929 117.061C802.424 117.191 801.903 117.252 801.366 117.244C800.837 117.236 800.333 117.146 799.853 116.976C799.372 116.797 798.965 116.548 798.632 116.231C798.282 115.914 798.013 115.531 797.826 115.083C797.647 114.628 797.586 114.115 797.643 113.545C797.7 113 797.838 112.516 798.058 112.093C798.278 111.67 798.559 111.299 798.9 110.982C799.234 110.673 799.612 110.412 800.036 110.201C800.459 109.989 800.906 109.814 801.378 109.676C801.85 109.546 802.331 109.452 802.819 109.395C803.315 109.338 803.799 109.31 804.271 109.31H807.14L807.384 107.82C807.449 107.332 807.417 106.901 807.287 106.526C807.165 106.152 806.969 105.835 806.701 105.574C806.432 105.314 806.103 105.118 805.712 104.988C805.321 104.85 804.894 104.781 804.43 104.781C803.991 104.773 803.559 104.826 803.136 104.939C802.713 105.045 802.322 105.208 801.964 105.428C801.606 105.656 801.293 105.936 801.024 106.27C800.764 106.596 800.573 106.982 800.451 107.43L799.022 107.417C799.136 106.783 799.372 106.225 799.73 105.745C800.097 105.257 800.536 104.85 801.049 104.524C801.553 104.199 802.107 103.955 802.709 103.792C803.319 103.621 803.93 103.54 804.54 103.548C805.183 103.548 805.781 103.646 806.334 103.841C806.888 104.028 807.364 104.305 807.763 104.671C808.153 105.045 808.442 105.501 808.629 106.038C808.825 106.567 808.882 107.169 808.8 107.845L807.714 114.229C807.641 114.668 807.604 115.108 807.604 115.547C807.604 115.979 807.632 116.41 807.689 116.841L807.665 117H806.176ZM801.574 115.95C802.07 115.958 802.554 115.901 803.026 115.779C803.498 115.657 803.942 115.478 804.357 115.242C804.756 115.014 805.13 114.742 805.48 114.424C805.838 114.099 806.155 113.741 806.432 113.35L806.945 110.445L804.467 110.433C804.052 110.433 803.608 110.461 803.136 110.518C802.664 110.567 802.208 110.66 801.769 110.799C801.452 110.888 801.146 111.002 800.854 111.141C800.569 111.271 800.308 111.438 800.072 111.641C799.82 111.861 799.604 112.117 799.425 112.41C799.254 112.695 799.14 113.029 799.083 113.411C799.027 113.81 799.055 114.164 799.169 114.473C799.283 114.782 799.458 115.043 799.694 115.254C799.922 115.474 800.198 115.645 800.524 115.767C800.858 115.881 801.208 115.942 801.574 115.95ZM816.809 116.011C817.297 116.011 817.769 115.942 818.225 115.804C818.68 115.657 819.095 115.446 819.47 115.169C819.836 114.909 820.153 114.587 820.422 114.205C820.69 113.822 820.894 113.399 821.032 112.935L822.399 112.923C822.269 113.574 822.025 114.168 821.667 114.705C821.309 115.242 820.878 115.694 820.373 116.06C819.86 116.443 819.295 116.74 818.676 116.951C818.058 117.155 817.423 117.252 816.772 117.244C816.153 117.244 815.6 117.155 815.112 116.976C814.632 116.788 814.213 116.536 813.854 116.219C813.472 115.893 813.155 115.507 812.902 115.059C812.658 114.611 812.471 114.123 812.341 113.594C812.227 113.139 812.158 112.662 812.133 112.166C812.117 111.67 812.141 111.169 812.207 110.665L812.28 110.152C812.41 109.297 812.654 108.467 813.012 107.662C813.378 106.848 813.846 106.136 814.416 105.525C814.961 104.923 815.608 104.443 816.357 104.085C817.114 103.719 817.952 103.54 818.872 103.548C819.555 103.556 820.17 103.682 820.715 103.926C821.268 104.162 821.74 104.484 822.131 104.891C822.513 105.314 822.802 105.81 822.998 106.38C823.193 106.95 823.274 107.572 823.242 108.248L821.887 108.235C821.911 107.755 821.858 107.308 821.728 106.893C821.606 106.478 821.415 106.111 821.154 105.794C820.886 105.493 820.552 105.253 820.153 105.074C819.763 104.895 819.319 104.801 818.823 104.793C818.066 104.785 817.395 104.939 816.809 105.257C816.231 105.574 815.73 105.977 815.307 106.465C814.892 106.978 814.55 107.556 814.282 108.199C814.013 108.842 813.822 109.493 813.708 110.152L813.635 110.665C813.578 111.063 813.545 111.474 813.537 111.897C813.537 112.312 813.578 112.715 813.659 113.106C813.724 113.497 813.834 113.867 813.989 114.217C814.143 114.567 814.351 114.872 814.611 115.132C814.864 115.393 815.169 115.604 815.527 115.767C815.893 115.922 816.32 116.003 816.809 116.011ZM838.965 105.037H833.496L831.421 117H829.98L832.043 105.037H826.782L826.978 103.792H839.16L838.965 105.037ZM850.66 103.804L852.149 103.792L849.866 117H848.426L850.293 106.221L841.248 117H839.783L842.054 103.792H843.482L841.59 114.62L850.66 103.804ZM868.617 110.25C868.747 109.371 869 108.52 869.374 107.698C869.757 106.876 870.245 106.152 870.839 105.525C871.409 104.931 872.072 104.451 872.829 104.085C873.585 103.719 874.428 103.54 875.355 103.548C875.982 103.556 876.548 103.658 877.052 103.853C877.557 104.04 877.992 104.297 878.358 104.622C878.692 104.923 878.981 105.273 879.225 105.672C879.469 106.071 879.665 106.498 879.811 106.954C879.958 107.45 880.051 107.975 880.092 108.528C880.141 109.082 880.128 109.635 880.055 110.188L879.994 110.591C879.864 111.446 879.612 112.276 879.237 113.082C878.871 113.879 878.403 114.587 877.833 115.206C877.256 115.832 876.58 116.333 875.807 116.707C875.042 117.073 874.192 117.252 873.256 117.244C872.605 117.236 872.019 117.13 871.498 116.927C870.985 116.715 870.542 116.434 870.167 116.084C869.858 115.792 869.59 115.458 869.362 115.083C869.134 114.709 868.955 114.31 868.825 113.887C868.662 113.391 868.556 112.866 868.507 112.312C868.467 111.759 868.483 111.202 868.556 110.64L868.617 110.25ZM869.984 110.64C869.895 111.259 869.887 111.897 869.96 112.557C870.033 113.208 870.212 113.798 870.497 114.327C870.749 114.815 871.107 115.214 871.571 115.523C872.043 115.832 872.621 115.995 873.305 116.011C874.045 116.019 874.713 115.865 875.307 115.547C875.909 115.23 876.434 114.811 876.881 114.29C877.321 113.777 877.687 113.183 877.98 112.508C878.273 111.824 878.468 111.185 878.566 110.591L878.627 110.188C878.716 109.537 878.716 108.866 878.627 108.174C878.537 107.483 878.326 106.872 877.992 106.343C877.724 105.896 877.37 105.529 876.93 105.245C876.491 104.96 875.95 104.809 875.307 104.793C874.566 104.785 873.895 104.944 873.292 105.269C872.69 105.586 872.169 106.006 871.73 106.526C871.291 107.047 870.928 107.633 870.644 108.284C870.359 108.935 870.159 109.59 870.045 110.25L869.984 110.64ZM887.368 110.958H884.975L883.925 117H882.485L884.768 103.792H886.208L885.195 109.639H887.417L893.569 103.792L895.534 103.804L888.649 110.286L893.728 117H891.97L887.368 110.958ZM906.558 117H905.117L906.167 110.945H898.94L897.891 117H896.462L898.745 103.792H900.173L899.148 109.7H906.375L907.4 103.792H908.84L906.558 117ZM919.559 117C919.518 116.666 919.506 116.341 919.522 116.023C919.546 115.698 919.587 115.372 919.644 115.047C919.367 115.34 919.07 115.612 918.753 115.865C918.436 116.109 918.102 116.32 917.752 116.5C917.296 116.744 916.816 116.931 916.312 117.061C915.807 117.191 915.286 117.252 914.749 117.244C914.22 117.236 913.715 117.146 913.235 116.976C912.755 116.797 912.348 116.548 912.015 116.231C911.665 115.914 911.396 115.531 911.209 115.083C911.03 114.628 910.969 114.115 911.026 113.545C911.083 113 911.221 112.516 911.441 112.093C911.661 111.67 911.941 111.299 912.283 110.982C912.617 110.673 912.995 110.412 913.418 110.201C913.842 109.989 914.289 109.814 914.761 109.676C915.233 109.546 915.713 109.452 916.202 109.395C916.698 109.338 917.182 109.31 917.654 109.31H920.523L920.767 107.82C920.832 107.332 920.8 106.901 920.669 106.526C920.547 106.152 920.352 105.835 920.083 105.574C919.815 105.314 919.485 105.118 919.095 104.988C918.704 104.85 918.277 104.781 917.813 104.781C917.374 104.773 916.942 104.826 916.519 104.939C916.096 105.045 915.705 105.208 915.347 105.428C914.989 105.656 914.676 105.936 914.407 106.27C914.147 106.596 913.956 106.982 913.833 107.43L912.405 107.417C912.519 106.783 912.755 106.225 913.113 105.745C913.479 105.257 913.919 104.85 914.432 104.524C914.936 104.199 915.49 103.955 916.092 103.792C916.702 103.621 917.312 103.54 917.923 103.548C918.566 103.548 919.164 103.646 919.717 103.841C920.271 104.028 920.747 104.305 921.146 104.671C921.536 105.045 921.825 105.501 922.012 106.038C922.208 106.567 922.264 107.169 922.183 107.845L921.097 114.229C921.023 114.668 920.987 115.108 920.987 115.547C920.987 115.979 921.015 116.41 921.072 116.841L921.048 117H919.559ZM914.957 115.95C915.453 115.958 915.937 115.901 916.409 115.779C916.881 115.657 917.325 115.478 917.74 115.242C918.139 115.014 918.513 114.742 918.863 114.424C919.221 114.099 919.538 113.741 919.815 113.35L920.328 110.445L917.85 110.433C917.435 110.433 916.991 110.461 916.519 110.518C916.047 110.567 915.591 110.66 915.152 110.799C914.834 110.888 914.529 111.002 914.236 111.141C913.951 111.271 913.691 111.438 913.455 111.641C913.203 111.861 912.987 112.117 912.808 112.41C912.637 112.695 912.523 113.029 912.466 113.411C912.409 113.81 912.438 114.164 912.552 114.473C912.666 114.782 912.841 115.043 913.077 115.254C913.305 115.474 913.581 115.645 913.907 115.767C914.24 115.881 914.59 115.942 914.957 115.95ZM946.122 104.659C946.952 104.667 947.676 104.838 948.295 105.171C948.913 105.497 949.422 105.928 949.821 106.465C950.22 107.011 950.5 107.637 950.663 108.345C950.834 109.053 950.875 109.794 950.785 110.567L950.736 110.97C950.614 111.808 950.374 112.61 950.016 113.375C949.666 114.131 949.206 114.799 948.637 115.376C948.075 115.954 947.42 116.414 946.671 116.756C945.923 117.09 945.105 117.252 944.218 117.244C943.347 117.236 942.586 117.057 941.935 116.707C941.292 116.349 940.767 115.881 940.36 115.303C939.953 114.725 939.669 114.062 939.506 113.313C939.343 112.557 939.311 111.779 939.408 110.982L939.457 110.579L939.469 110.481L939.591 109.688C939.689 108.996 939.827 108.3 940.006 107.601C940.194 106.901 940.425 106.221 940.702 105.562C940.971 104.911 941.296 104.292 941.679 103.707C942.061 103.112 942.501 102.579 942.997 102.107C943.493 101.644 944.051 101.249 944.669 100.923C945.296 100.59 945.988 100.354 946.745 100.215C947.111 100.15 947.485 100.081 947.868 100.008C948.258 99.9264 948.62 99.8084 948.954 99.6538C949.288 99.5073 949.585 99.3079 949.845 99.0557C950.106 98.8034 950.293 98.4697 950.407 98.0547H951.64C951.534 98.6813 951.339 99.1981 951.054 99.605C950.769 100.004 950.423 100.329 950.016 100.582C949.593 100.826 949.125 101.017 948.612 101.155C948.1 101.294 947.562 101.412 947.001 101.509C946.244 101.631 945.569 101.863 944.975 102.205C944.389 102.539 943.868 102.946 943.412 103.426C942.956 103.922 942.558 104.476 942.216 105.086C941.874 105.688 941.573 106.327 941.312 107.002C941.931 106.294 942.647 105.725 943.461 105.293C944.275 104.862 945.162 104.651 946.122 104.659ZM945.878 105.904C945.211 105.896 944.592 106.018 944.022 106.27C943.453 106.522 942.952 106.864 942.521 107.295C942.09 107.727 941.732 108.227 941.447 108.797C941.17 109.367 940.979 109.965 940.873 110.591L940.812 110.994C940.739 111.588 940.747 112.182 940.836 112.776C940.934 113.37 941.121 113.903 941.398 114.375C941.675 114.847 942.049 115.234 942.521 115.535C942.993 115.836 943.571 115.991 944.254 115.999C944.954 116.015 945.593 115.881 946.171 115.596C946.749 115.311 947.253 114.933 947.685 114.461C948.116 113.989 948.466 113.448 948.734 112.837C949.011 112.227 949.202 111.604 949.308 110.97L949.357 110.567C949.43 109.973 949.41 109.399 949.296 108.846C949.19 108.284 948.991 107.788 948.698 107.356C948.405 106.925 948.022 106.579 947.55 106.319C947.078 106.05 946.521 105.912 945.878 105.904ZM964.702 110.494C964.62 111.006 964.502 111.527 964.348 112.056C964.201 112.577 964.01 113.077 963.774 113.558C963.522 114.111 963.208 114.628 962.834 115.108C962.468 115.588 962.049 115.991 961.577 116.316C961.162 116.609 960.706 116.837 960.209 117C959.721 117.171 959.188 117.252 958.61 117.244C958.203 117.244 957.809 117.195 957.426 117.098C957.044 117 956.686 116.858 956.352 116.67C956.083 116.516 955.831 116.333 955.595 116.121C955.367 115.91 955.168 115.665 954.997 115.389L953.789 122.078H952.373L955.534 103.792H956.853L956.523 105.611C956.759 105.334 957.015 105.078 957.292 104.842C957.569 104.598 957.862 104.39 958.171 104.219C958.553 104 958.956 103.833 959.379 103.719C959.803 103.605 960.246 103.548 960.71 103.548C961.312 103.556 961.841 103.658 962.297 103.853C962.753 104.048 963.139 104.309 963.457 104.634C963.774 104.968 964.03 105.354 964.226 105.794C964.429 106.233 964.58 106.697 964.677 107.186C964.767 107.682 964.812 108.191 964.812 108.711C964.82 109.232 964.791 109.741 964.726 110.237L964.702 110.494ZM963.298 110.237C963.355 109.814 963.383 109.375 963.383 108.919C963.391 108.455 963.355 108.007 963.273 107.576C963.2 107.21 963.098 106.872 962.968 106.563C962.838 106.246 962.667 105.965 962.456 105.721C962.22 105.452 961.927 105.241 961.577 105.086C961.227 104.923 960.812 104.838 960.332 104.83C959.884 104.83 959.457 104.899 959.05 105.037C958.651 105.167 958.281 105.354 957.939 105.599C957.622 105.818 957.329 106.075 957.06 106.368C956.8 106.661 956.568 106.974 956.364 107.308L955.229 113.765C955.335 114.123 955.485 114.441 955.681 114.717C955.884 114.986 956.12 115.214 956.389 115.401C956.657 115.596 956.954 115.743 957.28 115.84C957.613 115.938 957.967 115.991 958.342 115.999C958.83 116.007 959.278 115.938 959.685 115.792C960.1 115.645 960.474 115.442 960.808 115.181C961.174 114.913 961.495 114.591 961.772 114.217C962.049 113.834 962.289 113.431 962.492 113.008C962.679 112.61 962.838 112.194 962.968 111.763C963.098 111.332 963.196 110.909 963.261 110.494L963.298 110.237ZM976.25 117C976.209 116.666 976.197 116.341 976.213 116.023C976.238 115.698 976.278 115.372 976.335 115.047C976.059 115.34 975.762 115.612 975.444 115.865C975.127 116.109 974.793 116.32 974.443 116.5C973.988 116.744 973.507 116.931 973.003 117.061C972.498 117.191 971.978 117.252 971.44 117.244C970.911 117.236 970.407 117.146 969.927 116.976C969.447 116.797 969.04 116.548 968.706 116.231C968.356 115.914 968.088 115.531 967.9 115.083C967.721 114.628 967.66 114.115 967.717 113.545C967.774 113 967.913 112.516 968.132 112.093C968.352 111.67 968.633 111.299 968.975 110.982C969.308 110.673 969.687 110.412 970.11 110.201C970.533 109.989 970.981 109.814 971.453 109.676C971.925 109.546 972.405 109.452 972.893 109.395C973.389 109.338 973.874 109.31 974.346 109.31H977.214L977.458 107.82C977.524 107.332 977.491 106.901 977.361 106.526C977.239 106.152 977.043 105.835 976.775 105.574C976.506 105.314 976.177 105.118 975.786 104.988C975.396 104.85 974.968 104.781 974.504 104.781C974.065 104.773 973.634 104.826 973.21 104.939C972.787 105.045 972.397 105.208 972.039 105.428C971.681 105.656 971.367 105.936 971.099 106.27C970.838 106.596 970.647 106.982 970.525 107.43L969.097 107.417C969.211 106.783 969.447 106.225 969.805 105.745C970.171 105.257 970.61 104.85 971.123 104.524C971.628 104.199 972.181 103.955 972.783 103.792C973.394 103.621 974.004 103.54 974.614 103.548C975.257 103.548 975.855 103.646 976.409 103.841C976.962 104.028 977.438 104.305 977.837 104.671C978.228 105.045 978.516 105.501 978.704 106.038C978.899 106.567 978.956 107.169 978.875 107.845L977.788 114.229C977.715 114.668 977.678 115.108 977.678 115.547C977.678 115.979 977.707 116.41 977.764 116.841L977.739 117H976.25ZM971.648 115.95C972.144 115.958 972.629 115.901 973.101 115.779C973.573 115.657 974.016 115.478 974.431 115.242C974.83 115.014 975.204 114.742 975.554 114.424C975.912 114.099 976.23 113.741 976.506 113.35L977.019 110.445L974.541 110.433C974.126 110.433 973.682 110.461 973.21 110.518C972.738 110.567 972.283 110.66 971.843 110.799C971.526 110.888 971.221 111.002 970.928 111.141C970.643 111.271 970.382 111.438 970.146 111.641C969.894 111.861 969.679 112.117 969.5 112.41C969.329 112.695 969.215 113.029 969.158 113.411C969.101 113.81 969.129 114.164 969.243 114.473C969.357 114.782 969.532 115.043 969.768 115.254C969.996 115.474 970.273 115.645 970.598 115.767C970.932 115.881 971.282 115.942 971.648 115.95ZM986.797 114.266L987.029 114.803L993.511 103.804H995.196L985.943 119.124C985.699 119.547 985.422 119.95 985.113 120.333C984.804 120.723 984.466 121.069 984.1 121.37C983.725 121.663 983.314 121.899 982.867 122.078C982.427 122.257 981.943 122.347 981.414 122.347C981.202 122.347 980.991 122.33 980.779 122.298C980.576 122.265 980.368 122.229 980.157 122.188L980.438 120.943C980.608 120.967 980.775 120.992 980.938 121.016C981.109 121.041 981.276 121.053 981.438 121.053C981.813 121.045 982.163 120.967 982.488 120.821C982.814 120.682 983.111 120.499 983.379 120.271C983.648 120.044 983.892 119.783 984.112 119.49C984.34 119.197 984.547 118.904 984.734 118.611L986.004 116.585L982.476 103.78H984.026L986.797 114.266ZM1002.13 110.909L999.603 110.896L999.811 109.615L1002.15 109.627C1002.58 109.619 1003.02 109.586 1003.48 109.529C1003.96 109.464 1004.4 109.346 1004.8 109.175C1005.21 109.004 1005.56 108.764 1005.85 108.455C1006.15 108.146 1006.35 107.743 1006.44 107.247C1006.49 106.937 1006.48 106.665 1006.41 106.429C1006.35 106.193 1006.24 105.985 1006.1 105.806C1005.96 105.652 1005.8 105.517 1005.61 105.403C1005.42 105.289 1005.22 105.196 1005 105.123C1004.7 105 1004.38 104.915 1004.03 104.866C1003.7 104.817 1003.39 104.793 1003.09 104.793C1002.65 104.785 1002.2 104.83 1001.73 104.927C1001.26 105.017 1000.81 105.163 1000.4 105.367C999.981 105.57 999.619 105.835 999.31 106.16C999.001 106.486 998.785 106.88 998.663 107.344L997.198 107.356C997.337 106.681 997.605 106.103 998.004 105.623C998.403 105.143 998.875 104.748 999.42 104.439C999.973 104.13 1000.57 103.906 1001.21 103.768C1001.86 103.629 1002.5 103.556 1003.13 103.548C1003.51 103.556 1003.89 103.589 1004.28 103.646C1004.68 103.694 1005.06 103.78 1005.44 103.902C1005.8 104.024 1006.15 104.183 1006.46 104.378C1006.79 104.565 1007.07 104.793 1007.29 105.062C1007.52 105.338 1007.69 105.66 1007.79 106.026C1007.91 106.384 1007.94 106.791 1007.88 107.247C1007.83 107.662 1007.71 108.032 1007.51 108.357C1007.32 108.675 1007.08 108.956 1006.79 109.2C1006.5 109.444 1006.17 109.651 1005.82 109.822C1005.47 109.993 1005.11 110.14 1004.75 110.262C1005.03 110.343 1005.29 110.445 1005.54 110.567C1005.79 110.689 1006.01 110.84 1006.19 111.019C1006.5 111.287 1006.74 111.617 1006.9 112.007C1007.07 112.39 1007.12 112.829 1007.07 113.326C1007.02 113.822 1006.88 114.266 1006.67 114.656C1006.47 115.047 1006.21 115.385 1005.89 115.669C1005.57 115.954 1005.22 116.198 1004.83 116.402C1004.45 116.605 1004.04 116.764 1003.62 116.878C1003.19 117 1002.75 117.09 1002.3 117.146C1001.86 117.203 1001.43 117.232 1001.02 117.232C1000.38 117.232 999.758 117.155 999.139 117C998.529 116.845 997.984 116.605 997.503 116.28C997.023 115.954 996.633 115.539 996.332 115.035C996.039 114.53 995.9 113.92 995.917 113.204L997.357 113.216C997.308 113.729 997.394 114.16 997.613 114.51C997.841 114.86 998.138 115.14 998.504 115.352C998.862 115.572 999.265 115.735 999.713 115.84C1000.17 115.938 1000.61 115.991 1001.03 115.999C1001.48 116.007 1001.95 115.971 1002.45 115.889C1002.95 115.808 1003.43 115.661 1003.88 115.45C1004.31 115.246 1004.69 114.974 1005.01 114.632C1005.34 114.29 1005.54 113.863 1005.63 113.35C1005.7 112.927 1005.67 112.577 1005.55 112.3C1005.43 112.015 1005.24 111.784 1005 111.604C1004.82 111.458 1004.61 111.34 1004.38 111.25C1004.15 111.161 1003.91 111.092 1003.66 111.043C1003.4 110.994 1003.14 110.962 1002.87 110.945C1002.61 110.921 1002.37 110.909 1002.13 110.909ZM1015.45 117.244C1014.54 117.236 1013.74 117.037 1013.06 116.646C1012.38 116.255 1011.83 115.747 1011.42 115.12C1011.03 114.542 1010.75 113.875 1010.58 113.118C1010.41 112.361 1010.38 111.584 1010.48 110.787L1010.55 110.25C1010.63 109.696 1010.77 109.147 1010.97 108.602C1011.16 108.048 1011.41 107.519 1011.71 107.015C1012.01 106.518 1012.36 106.058 1012.75 105.635C1013.14 105.204 1013.57 104.834 1014.04 104.524C1014.52 104.215 1015.03 103.975 1015.57 103.804C1016.12 103.625 1016.71 103.54 1017.32 103.548C1018.16 103.556 1018.88 103.735 1019.48 104.085C1020.07 104.427 1020.55 104.882 1020.92 105.452C1021.28 106.014 1021.52 106.657 1021.64 107.381C1021.76 108.105 1021.77 108.846 1021.67 109.603L1021.53 110.494H1011.97C1011.83 111.234 1011.81 111.922 1011.9 112.557C1011.99 113.191 1012.2 113.785 1012.54 114.339C1012.84 114.827 1013.23 115.222 1013.74 115.523C1014.25 115.824 1014.85 115.983 1015.53 115.999C1016.34 116.015 1017.08 115.861 1017.77 115.535C1018.45 115.21 1019.07 114.77 1019.64 114.217L1020.49 114.937C1019.87 115.686 1019.12 116.259 1018.23 116.658C1017.35 117.057 1016.42 117.252 1015.45 117.244ZM1017.27 104.805C1016.62 104.789 1016.02 104.911 1015.47 105.171C1014.94 105.424 1014.46 105.757 1014.04 106.172C1013.61 106.587 1013.24 107.063 1012.93 107.601C1012.62 108.138 1012.37 108.687 1012.16 109.249L1020.27 109.261L1020.31 109.065C1020.4 108.545 1020.41 108.032 1020.32 107.527C1020.23 107.015 1020.05 106.559 1019.79 106.16C1019.53 105.761 1019.18 105.44 1018.76 105.196C1018.33 104.944 1017.84 104.813 1017.27 104.805ZM1035.57 110.494C1035.48 111.006 1035.37 111.527 1035.21 112.056C1035.07 112.577 1034.87 113.077 1034.64 113.558C1034.39 114.111 1034.07 114.628 1033.7 115.108C1033.33 115.588 1032.91 115.991 1032.44 116.316C1032.03 116.609 1031.57 116.837 1031.07 117C1030.59 117.171 1030.05 117.252 1029.47 117.244C1029.07 117.244 1028.67 117.195 1028.29 117.098C1027.91 117 1027.55 116.858 1027.22 116.67C1026.95 116.516 1026.7 116.333 1026.46 116.121C1026.23 115.91 1026.03 115.665 1025.86 115.389L1024.65 122.078H1023.24L1026.4 103.792H1027.72L1027.39 105.611C1027.62 105.334 1027.88 105.078 1028.16 104.842C1028.43 104.598 1028.73 104.39 1029.04 104.219C1029.42 104 1029.82 103.833 1030.24 103.719C1030.67 103.605 1031.11 103.548 1031.57 103.548C1032.18 103.556 1032.71 103.658 1033.16 103.853C1033.62 104.048 1034 104.309 1034.32 104.634C1034.64 104.968 1034.89 105.354 1035.09 105.794C1035.29 106.233 1035.44 106.697 1035.54 107.186C1035.63 107.682 1035.68 108.191 1035.68 108.711C1035.68 109.232 1035.66 109.741 1035.59 110.237L1035.57 110.494ZM1034.16 110.237C1034.22 109.814 1034.25 109.375 1034.25 108.919C1034.26 108.455 1034.22 108.007 1034.14 107.576C1034.06 107.21 1033.96 106.872 1033.83 106.563C1033.7 106.246 1033.53 105.965 1033.32 105.721C1033.08 105.452 1032.79 105.241 1032.44 105.086C1032.09 104.923 1031.68 104.838 1031.2 104.83C1030.75 104.83 1030.32 104.899 1029.91 105.037C1029.52 105.167 1029.15 105.354 1028.8 105.599C1028.49 105.818 1028.19 106.075 1027.92 106.368C1027.66 106.661 1027.43 106.974 1027.23 107.308L1026.09 113.765C1026.2 114.123 1026.35 114.441 1026.54 114.717C1026.75 114.986 1026.98 115.214 1027.25 115.401C1027.52 115.596 1027.82 115.743 1028.14 115.84C1028.48 115.938 1028.83 115.991 1029.21 115.999C1029.69 116.007 1030.14 115.938 1030.55 115.792C1030.96 115.645 1031.34 115.442 1031.67 115.181C1032.04 114.913 1032.36 114.591 1032.64 114.217C1032.91 113.834 1033.15 113.431 1033.36 113.008C1033.54 112.61 1033.7 112.194 1033.83 111.763C1033.96 111.332 1034.06 110.909 1034.13 110.494L1034.16 110.237ZM1047.11 117C1047.07 116.666 1047.06 116.341 1047.08 116.023C1047.1 115.698 1047.14 115.372 1047.2 115.047C1046.92 115.34 1046.63 115.612 1046.31 115.865C1045.99 116.109 1045.66 116.32 1045.31 116.5C1044.85 116.744 1044.37 116.931 1043.87 117.061C1043.36 117.191 1042.84 117.252 1042.3 117.244C1041.78 117.236 1041.27 117.146 1040.79 116.976C1040.31 116.797 1039.9 116.548 1039.57 116.231C1039.22 115.914 1038.95 115.531 1038.76 115.083C1038.59 114.628 1038.52 114.115 1038.58 113.545C1038.64 113 1038.78 112.516 1039 112.093C1039.22 111.67 1039.5 111.299 1039.84 110.982C1040.17 110.673 1040.55 110.412 1040.97 110.201C1041.4 109.989 1041.84 109.814 1042.32 109.676C1042.79 109.546 1043.27 109.452 1043.76 109.395C1044.25 109.338 1044.74 109.31 1045.21 109.31H1048.08L1048.32 107.82C1048.39 107.332 1048.36 106.901 1048.23 106.526C1048.1 106.152 1047.91 105.835 1047.64 105.574C1047.37 105.314 1047.04 105.118 1046.65 104.988C1046.26 104.85 1045.83 104.781 1045.37 104.781C1044.93 104.773 1044.5 104.826 1044.07 104.939C1043.65 105.045 1043.26 105.208 1042.9 105.428C1042.54 105.656 1042.23 105.936 1041.96 106.27C1041.7 106.596 1041.51 106.982 1041.39 107.43L1039.96 107.417C1040.07 106.783 1040.31 106.225 1040.67 105.745C1041.04 105.257 1041.47 104.85 1041.99 104.524C1042.49 104.199 1043.05 103.955 1043.65 103.792C1044.26 103.621 1044.87 103.54 1045.48 103.548C1046.12 103.548 1046.72 103.646 1047.27 103.841C1047.83 104.028 1048.3 104.305 1048.7 104.671C1049.09 105.045 1049.38 105.501 1049.57 106.038C1049.76 106.567 1049.82 107.169 1049.74 107.845L1048.65 114.229C1048.58 114.668 1048.54 115.108 1048.54 115.547C1048.54 115.979 1048.57 116.41 1048.63 116.841L1048.6 117H1047.11ZM1042.51 115.95C1043.01 115.958 1043.49 115.901 1043.96 115.779C1044.44 115.657 1044.88 115.478 1045.3 115.242C1045.69 115.014 1046.07 114.742 1046.42 114.424C1046.78 114.099 1047.09 113.741 1047.37 113.35L1047.88 110.445L1045.41 110.433C1044.99 110.433 1044.55 110.461 1044.07 110.518C1043.6 110.567 1043.15 110.66 1042.71 110.799C1042.39 110.888 1042.08 111.002 1041.79 111.141C1041.51 111.271 1041.25 111.438 1041.01 111.641C1040.76 111.861 1040.54 112.117 1040.36 112.41C1040.19 112.695 1040.08 113.029 1040.02 113.411C1039.97 113.81 1039.99 114.164 1040.11 114.473C1040.22 114.782 1040.4 115.043 1040.63 115.254C1040.86 115.474 1041.14 115.645 1041.46 115.767C1041.8 115.881 1042.15 115.942 1042.51 115.95ZM1073.01 105.171L1068.65 103.841L1069.27 102.486L1073.53 104.231L1074.18 99.2266H1075.59L1074.59 104.195L1079.24 102.437L1079.5 103.89L1074.67 105.306L1077.27 109.236L1076.03 110.066L1073.79 105.892L1070.37 110.005L1069.28 109.126L1073.01 105.171ZM1082.89 118.514H1081.49L1092.03 99.2388H1093.42L1082.89 118.514Z" fill="#0066FF"/>
<path d="M168.056 55.4678C167.266 55.4434 166.583 55.2603 166.005 54.9185C165.427 54.5767 164.947 54.125 164.564 53.5635C164.198 53.0264 163.922 52.4242 163.734 51.7568C163.547 51.0977 163.454 50.4425 163.454 49.7915V47.7285C163.454 46.5566 163.173 45.7062 162.611 45.1772C162.058 44.6483 161.208 44.3797 160.06 44.3716V42.6016C161.208 42.6016 162.058 42.3411 162.611 41.8203C163.173 41.2913 163.454 40.4368 163.454 39.2568V37.1816C163.454 36.5225 163.539 35.8511 163.71 35.1675C163.889 34.4757 164.17 33.8573 164.552 33.312C164.91 32.7912 165.378 32.368 165.956 32.0425C166.534 31.7088 167.234 31.5298 168.056 31.5054L168.312 32.9092C167.726 32.9255 167.258 33.0638 166.908 33.3242C166.566 33.5846 166.31 33.9142 166.139 34.313C165.96 34.7199 165.846 35.1756 165.797 35.6802C165.749 36.1847 165.724 36.6852 165.724 37.1816V39.2568C165.724 40.2334 165.496 41.092 165.041 41.8325C164.593 42.5649 163.897 43.1224 162.953 43.5049C163.897 43.8792 164.593 44.4367 165.041 45.1772C165.488 45.9097 165.716 46.7601 165.724 47.7285V49.7915C165.724 50.2961 165.765 50.7965 165.846 51.293C165.928 51.7975 166.07 52.2492 166.273 52.6479C166.469 53.0549 166.729 53.3885 167.055 53.6489C167.388 53.9093 167.807 54.0477 168.312 54.064L168.056 55.4678ZM100.17 89.0781V70.792H102.233L102.343 72.2324C102.522 72.0046 102.718 71.8011 102.929 71.6221C103.141 71.4349 103.369 71.2762 103.613 71.146C103.955 70.9507 104.333 70.8042 104.748 70.7065C105.171 70.6007 105.623 70.5479 106.103 70.5479C106.949 70.5479 107.698 70.7147 108.349 71.0483C109 71.382 109.545 71.8459 109.985 72.4399C110.424 73.034 110.758 73.7461 110.986 74.5762C111.214 75.3981 111.328 76.3014 111.328 77.2861V77.5425C111.328 78.4865 111.214 79.3695 110.986 80.1914C110.758 81.0052 110.424 81.7132 109.985 82.3154C109.545 82.9176 109 83.3896 108.349 83.7314C107.706 84.0732 106.97 84.2441 106.14 84.2441C105.635 84.2441 105.163 84.1912 104.724 84.0854C104.292 83.9797 103.902 83.8291 103.552 83.6338C103.34 83.5117 103.141 83.3774 102.954 83.231C102.766 83.0763 102.591 82.9095 102.429 82.7305V89.0781H100.17ZM109.069 77.2861C109.069 76.6432 108.996 76.0329 108.85 75.4551C108.711 74.8691 108.496 74.3524 108.203 73.9048C107.902 73.4653 107.523 73.1154 107.067 72.855C106.612 72.5946 106.066 72.4644 105.432 72.4644C105.082 72.4644 104.756 72.505 104.455 72.5864C104.162 72.6678 103.898 72.7858 103.662 72.9404C103.401 73.0951 103.169 73.2863 102.966 73.5142C102.762 73.742 102.583 73.9943 102.429 74.271V80.6309C102.567 80.875 102.726 81.1029 102.905 81.3145C103.084 81.526 103.287 81.7051 103.515 81.8516C103.776 82.0225 104.064 82.1567 104.382 82.2544C104.707 82.3521 105.065 82.4009 105.456 82.4009C106.083 82.4009 106.624 82.2707 107.08 82.0103C107.535 81.7417 107.91 81.3836 108.203 80.936C108.496 80.4884 108.711 79.9717 108.85 79.3857C108.996 78.7998 109.069 78.1854 109.069 77.5425V77.2861ZM114.062 77.2739C114.062 76.3218 114.201 75.4388 114.478 74.625C114.754 73.8031 115.153 73.091 115.674 72.4888C116.187 71.8866 116.813 71.4146 117.554 71.0728C118.294 70.7228 119.128 70.5479 120.056 70.5479C120.992 70.5479 121.83 70.7228 122.571 71.0728C123.319 71.4146 123.954 71.8866 124.475 72.4888C124.988 73.091 125.382 73.8031 125.659 74.625C125.936 75.4388 126.074 76.3218 126.074 77.2739V77.5425C126.074 78.4946 125.936 79.3776 125.659 80.1914C125.382 81.0052 124.988 81.7132 124.475 82.3154C123.954 82.9176 123.324 83.3896 122.583 83.7314C121.842 84.0732 121.008 84.2441 120.081 84.2441C119.145 84.2441 118.302 84.0732 117.554 83.7314C116.813 83.3896 116.187 82.9176 115.674 82.3154C115.153 81.7132 114.754 81.0052 114.478 80.1914C114.201 79.3776 114.062 78.4946 114.062 77.5425V77.2739ZM116.321 77.5425C116.321 78.1935 116.398 78.8161 116.553 79.4102C116.707 79.9961 116.943 80.5129 117.261 80.9604C117.57 81.408 117.961 81.762 118.433 82.0225C118.905 82.2829 119.454 82.4131 120.081 82.4131C120.699 82.4131 121.24 82.2829 121.704 82.0225C122.176 81.762 122.571 81.408 122.888 80.9604C123.197 80.5129 123.429 79.9961 123.584 79.4102C123.739 78.8161 123.816 78.1935 123.816 77.5425V77.2739C123.816 76.631 123.735 76.0166 123.572 75.4307C123.417 74.8366 123.185 74.3158 122.876 73.8682C122.559 73.4206 122.164 73.0666 121.692 72.8062C121.228 72.5376 120.683 72.4033 120.056 72.4033C119.43 72.4033 118.884 72.5376 118.42 72.8062C117.957 73.0666 117.57 73.4206 117.261 73.8682C116.943 74.3158 116.707 74.8366 116.553 75.4307C116.398 76.0166 116.321 76.631 116.321 77.2739V77.5425ZM137.989 80.4966C137.989 80.228 137.936 79.988 137.83 79.7764C137.724 79.5566 137.545 79.3573 137.293 79.1782C137.041 78.9992 136.707 78.8364 136.292 78.6899C135.877 78.5353 135.36 78.397 134.742 78.2749C133.985 78.1203 133.293 77.9331 132.667 77.7134C132.048 77.4937 131.519 77.2292 131.08 76.9199C130.632 76.6188 130.286 76.2648 130.042 75.8579C129.798 75.4429 129.676 74.9627 129.676 74.4175C129.676 73.8804 129.802 73.3799 130.054 72.916C130.306 72.444 130.66 72.033 131.116 71.6831C131.572 71.3332 132.113 71.0565 132.74 70.853C133.375 70.6496 134.07 70.5479 134.827 70.5479C135.641 70.5479 136.373 70.6536 137.024 70.8652C137.675 71.0768 138.229 71.3698 138.685 71.7441C139.14 72.1185 139.49 72.5579 139.734 73.0625C139.987 73.5589 140.113 74.096 140.113 74.6738H137.854C137.854 74.389 137.781 74.1123 137.635 73.8438C137.488 73.5671 137.285 73.3229 137.024 73.1113C136.764 72.8997 136.447 72.7288 136.072 72.5986C135.706 72.4684 135.291 72.4033 134.827 72.4033C134.347 72.4033 133.924 72.4562 133.558 72.562C133.2 72.6678 132.903 72.8102 132.667 72.9893C132.422 73.1683 132.239 73.3758 132.117 73.6118C131.995 73.8478 131.934 74.092 131.934 74.3442C131.934 74.6047 131.983 74.8366 132.081 75.04C132.178 75.2435 132.349 75.4266 132.593 75.5894C132.829 75.7521 133.147 75.8986 133.545 76.0288C133.952 76.159 134.465 76.2852 135.083 76.4072C135.897 76.5781 136.626 76.7775 137.269 77.0054C137.911 77.2251 138.453 77.4896 138.892 77.7988C139.332 78.1162 139.665 78.4824 139.893 78.8975C140.129 79.3125 140.247 79.7926 140.247 80.3379C140.247 80.9238 140.113 81.4569 139.844 81.937C139.584 82.4172 139.218 82.8281 138.746 83.1699C138.274 83.5117 137.708 83.7762 137.049 83.9634C136.39 84.1506 135.669 84.2441 134.888 84.2441C133.993 84.2441 133.195 84.1261 132.496 83.8901C131.796 83.646 131.206 83.3245 130.726 82.9258C130.237 82.5352 129.863 82.0794 129.603 81.5586C129.35 81.0378 129.224 80.4966 129.224 79.9351H131.482C131.515 80.3989 131.637 80.7896 131.849 81.1069C132.068 81.4243 132.341 81.6807 132.667 81.876C132.984 82.0713 133.338 82.2096 133.729 82.291C134.119 82.3724 134.506 82.4131 134.888 82.4131C135.49 82.4131 136.015 82.3439 136.463 82.2056C136.91 82.0591 137.26 81.8597 137.513 81.6074C137.667 81.4528 137.785 81.2819 137.867 81.0947C137.948 80.9076 137.989 80.7082 137.989 80.4966ZM144.081 70.792H150.831V82.0469H155.14V84H144.081V82.0469H148.573V72.7573H144.081V70.792ZM148.28 67.3252C148.28 67.1299 148.308 66.9468 148.365 66.7759C148.43 66.605 148.528 66.4585 148.658 66.3364C148.764 66.2306 148.898 66.1493 149.061 66.0923C149.232 66.0272 149.423 65.9946 149.635 65.9946C149.846 65.9946 150.034 66.0272 150.196 66.0923C150.359 66.1493 150.493 66.2306 150.599 66.3364C150.729 66.4504 150.827 66.5928 150.892 66.7637C150.957 66.9346 150.99 67.1217 150.99 67.3252C150.99 67.6914 150.876 67.9966 150.648 68.2407C150.42 68.4849 150.082 68.6069 149.635 68.6069C149.179 68.6069 148.837 68.4849 148.609 68.2407C148.39 67.9966 148.28 67.6914 148.28 67.3252ZM163.588 67.5938V70.792H168.617V72.5376H163.588V79.7153C163.588 80.228 163.653 80.6512 163.783 80.9849C163.913 81.3185 164.092 81.583 164.32 81.7783C164.548 81.9818 164.809 82.1242 165.102 82.2056C165.403 82.2869 165.72 82.3276 166.054 82.3276C166.298 82.3276 166.55 82.3154 166.811 82.291C167.071 82.2585 167.327 82.2218 167.58 82.1812C167.824 82.1405 168.052 82.0998 168.263 82.0591C168.483 82.0103 168.662 81.9696 168.8 81.937L169.118 83.5361C168.931 83.6501 168.703 83.7518 168.434 83.8413C168.166 83.9227 167.873 83.9919 167.555 84.0488C167.238 84.1139 166.9 84.1628 166.542 84.1953C166.192 84.2279 165.842 84.2441 165.492 84.2441C164.906 84.2441 164.357 84.1628 163.844 84C163.34 83.8291 162.9 83.5605 162.526 83.1943C162.152 82.8363 161.854 82.3724 161.635 81.8027C161.423 81.2249 161.317 80.5291 161.317 79.7153V72.5376H157.851V70.792H161.317V67.5938H163.588ZM173.11 70.792H179.86V82.0469H184.169V84H173.11V82.0469H177.602V72.7573H173.11V70.792ZM177.309 67.3252C177.309 67.1299 177.338 66.9468 177.395 66.7759C177.46 66.605 177.557 66.4585 177.688 66.3364C177.793 66.2306 177.928 66.1493 178.09 66.0923C178.261 66.0272 178.452 65.9946 178.664 65.9946C178.876 65.9946 179.063 66.0272 179.226 66.0923C179.388 66.1493 179.523 66.2306 179.628 66.3364C179.759 66.4504 179.856 66.5928 179.921 66.7637C179.986 66.9346 180.019 67.1217 180.019 67.3252C180.019 67.6914 179.905 67.9966 179.677 68.2407C179.449 68.4849 179.112 68.6069 178.664 68.6069C178.208 68.6069 177.867 68.4849 177.639 68.2407C177.419 67.9966 177.309 67.6914 177.309 67.3252ZM186.636 77.2739C186.636 76.3218 186.774 75.4388 187.051 74.625C187.327 73.8031 187.726 73.091 188.247 72.4888C188.76 71.8866 189.386 71.4146 190.127 71.0728C190.868 70.7228 191.702 70.5479 192.629 70.5479C193.565 70.5479 194.403 70.7228 195.144 71.0728C195.893 71.4146 196.528 71.8866 197.048 72.4888C197.561 73.091 197.956 73.8031 198.232 74.625C198.509 75.4388 198.647 76.3218 198.647 77.2739V77.5425C198.647 78.4946 198.509 79.3776 198.232 80.1914C197.956 81.0052 197.561 81.7132 197.048 82.3154C196.528 82.9176 195.897 83.3896 195.156 83.7314C194.416 84.0732 193.582 84.2441 192.654 84.2441C191.718 84.2441 190.876 84.0732 190.127 83.7314C189.386 83.3896 188.76 82.9176 188.247 82.3154C187.726 81.7132 187.327 81.0052 187.051 80.1914C186.774 79.3776 186.636 78.4946 186.636 77.5425V77.2739ZM188.894 77.5425C188.894 78.1935 188.971 78.8161 189.126 79.4102C189.281 79.9961 189.517 80.5129 189.834 80.9604C190.143 81.408 190.534 81.762 191.006 82.0225C191.478 82.2829 192.027 82.4131 192.654 82.4131C193.272 82.4131 193.813 82.2829 194.277 82.0225C194.749 81.762 195.144 81.408 195.461 80.9604C195.771 80.5129 196.003 79.9961 196.157 79.4102C196.312 78.8161 196.389 78.1935 196.389 77.5425V77.2739C196.389 76.631 196.308 76.0166 196.145 75.4307C195.99 74.8366 195.758 74.3158 195.449 73.8682C195.132 73.4206 194.737 73.0666 194.265 72.8062C193.801 72.5376 193.256 72.4033 192.629 72.4033C192.003 72.4033 191.458 72.5376 190.994 72.8062C190.53 73.0666 190.143 73.4206 189.834 73.8682C189.517 74.3158 189.281 74.8366 189.126 75.4307C188.971 76.0166 188.894 76.631 188.894 77.2739V77.5425ZM201.785 84V70.792H203.812L203.97 72.7451C204.166 72.4684 204.377 72.2161 204.605 71.9883C204.841 71.7523 205.089 71.5488 205.35 71.3779C205.74 71.1175 206.163 70.9181 206.619 70.7798C207.083 70.6333 207.571 70.556 208.084 70.5479C208.776 70.5479 209.402 70.6455 209.964 70.8408C210.534 71.0361 211.018 71.3413 211.417 71.7563C211.815 72.1714 212.12 72.7004 212.332 73.3433C212.552 73.978 212.662 74.7349 212.662 75.6138V84H210.403V75.6626C210.403 75.0767 210.338 74.5802 210.208 74.1733C210.078 73.7664 209.887 73.4368 209.634 73.1846C209.374 72.9323 209.056 72.7492 208.682 72.6353C208.316 72.5213 207.893 72.4644 207.413 72.4644C206.998 72.4644 206.611 72.5254 206.253 72.6475C205.895 72.7614 205.565 72.9201 205.264 73.1235C205.02 73.3026 204.792 73.5101 204.581 73.7461C204.377 73.9821 204.198 74.2425 204.043 74.5273V84H201.785ZM220.841 82.5352C220.841 82.055 220.987 81.644 221.28 81.3022C221.573 80.9604 222.017 80.7896 222.611 80.7896C223.197 80.7896 223.64 80.9604 223.941 81.3022C224.251 81.6359 224.405 82.0469 224.405 82.5352C224.405 83.0153 224.251 83.4181 223.941 83.7437C223.632 84.0692 223.189 84.2319 222.611 84.2319C222.025 84.2319 221.581 84.0692 221.28 83.7437C220.987 83.41 220.841 83.0072 220.841 82.5352ZM220.841 71.8418C220.841 71.3617 220.987 70.9507 221.28 70.6089C221.573 70.2671 222.017 70.0962 222.611 70.0962C223.197 70.0962 223.64 70.2671 223.941 70.6089C224.251 70.9425 224.405 71.3535 224.405 71.8418C224.405 72.3219 224.251 72.7248 223.941 73.0503C223.632 73.3758 223.189 73.5386 222.611 73.5386C222.025 73.5386 221.581 73.3758 221.28 73.0503C220.987 72.7166 220.841 72.3138 220.841 71.8418ZM248.698 84V72.5376H245.061V70.792H248.698V69.8643C248.698 69.0179 248.82 68.2773 249.064 67.6426C249.317 66.9997 249.671 66.4626 250.126 66.0312C250.574 65.5999 251.115 65.2744 251.75 65.0547C252.385 64.835 253.093 64.7251 253.874 64.7251C254.2 64.7251 254.521 64.7454 254.838 64.7861C255.156 64.8187 255.469 64.8634 255.778 64.9204C255.982 64.9611 256.185 65.0059 256.389 65.0547C256.592 65.0954 256.8 65.1442 257.011 65.2012L256.743 67.0688C256.409 66.9549 256.018 66.8573 255.571 66.7759C255.131 66.6864 254.659 66.6416 254.155 66.6416C253.642 66.6416 253.186 66.7067 252.788 66.8369C252.397 66.959 252.071 67.1462 251.811 67.3984C251.534 67.6589 251.323 67.9966 251.176 68.4116C251.038 68.8267 250.969 69.3109 250.969 69.8643V70.792H256.059V72.5376H250.969V84H248.698ZM260.198 70.792H266.948V82.0469H271.257V84H260.198V82.0469H264.69V72.7573H260.198V70.792ZM264.397 67.3252C264.397 67.1299 264.425 66.9468 264.482 66.7759C264.548 66.605 264.645 66.4585 264.775 66.3364C264.881 66.2306 265.015 66.1493 265.178 66.0923C265.349 66.0272 265.54 65.9946 265.752 65.9946C265.964 65.9946 266.151 66.0272 266.313 66.0923C266.476 66.1493 266.611 66.2306 266.716 66.3364C266.847 66.4504 266.944 66.5928 267.009 66.7637C267.074 66.9346 267.107 67.1217 267.107 67.3252C267.107 67.6914 266.993 67.9966 266.765 68.2407C266.537 68.4849 266.2 68.6069 265.752 68.6069C265.296 68.6069 264.954 68.4849 264.727 68.2407C264.507 67.9966 264.397 67.6914 264.397 67.3252ZM279.815 75.687L283.343 70.792H285.992L281.072 77.3228L286.126 84H283.514L279.864 78.9707L276.214 84H273.577L278.631 77.3228L273.711 70.792H276.324L279.815 75.687ZM294.708 84.2441C293.78 84.2441 292.926 84.0854 292.145 83.7681C291.371 83.4507 290.708 83.0072 290.155 82.4375C289.601 81.8678 289.17 81.1924 288.861 80.4111C288.552 79.6299 288.397 78.7795 288.397 77.8599V77.3472C288.397 76.2811 288.568 75.3289 288.91 74.4907C289.251 73.6444 289.707 72.9282 290.277 72.3423C290.838 71.7645 291.477 71.321 292.193 71.0117C292.918 70.7025 293.658 70.5479 294.415 70.5479C295.367 70.5479 296.197 70.7147 296.905 71.0483C297.621 71.3739 298.215 71.8255 298.688 72.4033C299.16 72.9893 299.509 73.6769 299.737 74.4663C299.973 75.2557 300.091 76.1102 300.091 77.0298V78.043H290.655V78.1284C290.712 78.7713 290.838 79.3369 291.034 79.8252C291.237 80.3135 291.514 80.7448 291.864 81.1191C292.222 81.5179 292.653 81.8312 293.158 82.0591C293.662 82.2869 294.22 82.4009 294.83 82.4009C295.636 82.4009 296.352 82.2381 296.979 81.9126C297.605 81.5871 298.126 81.1558 298.541 80.6187L299.92 81.6929C299.481 82.3602 298.822 82.9543 297.943 83.4751C297.072 83.9878 295.994 84.2441 294.708 84.2441ZM294.415 72.4033C293.959 72.4033 293.528 72.4888 293.121 72.6597C292.714 72.8224 292.348 73.0625 292.022 73.3799C291.697 73.7054 291.42 74.1042 291.192 74.5762C290.973 75.04 290.818 75.5771 290.729 76.1875H297.833V76.0776C297.833 75.6707 297.756 75.2354 297.601 74.7715C297.446 74.2995 297.231 73.8926 296.954 73.5508C296.677 73.209 296.327 72.9323 295.904 72.7207C295.489 72.5091 294.993 72.4033 294.415 72.4033ZM302.96 77.2861C302.96 76.3014 303.083 75.3981 303.327 74.5762C303.579 73.7461 303.937 73.034 304.401 72.4399C304.857 71.8459 305.41 71.382 306.061 71.0483C306.712 70.7147 307.44 70.5479 308.246 70.5479C309.035 70.5479 309.723 70.6821 310.309 70.9507C310.903 71.2111 311.416 71.5936 311.847 72.0981V65.25H314.105V84H312.03L311.933 82.6084C311.493 83.1455 310.968 83.5524 310.358 83.8291C309.748 84.1058 309.035 84.2441 308.222 84.2441C307.424 84.2441 306.7 84.0732 306.049 83.7314C305.406 83.3896 304.857 82.9176 304.401 82.3154C303.945 81.7132 303.591 81.0052 303.339 80.1914C303.087 79.3695 302.96 78.4865 302.96 77.5425V77.2861ZM305.219 77.5425C305.219 78.1854 305.288 78.7957 305.426 79.3735C305.565 79.9513 305.78 80.46 306.073 80.8994C306.358 81.3389 306.724 81.6888 307.172 81.9492C307.619 82.2015 308.157 82.3276 308.783 82.3276C309.54 82.3276 310.167 82.1567 310.663 81.8149C311.16 81.4731 311.554 81.0133 311.847 80.4355V74.3076C311.554 73.7705 311.16 73.3311 310.663 72.9893C310.167 72.6393 309.548 72.4644 308.808 72.4644C308.173 72.4644 307.628 72.5946 307.172 72.855C306.724 73.1154 306.358 73.4653 306.073 73.9048C305.78 74.3524 305.565 74.8691 305.426 75.4551C305.288 76.0329 305.219 76.6432 305.219 77.2861V77.5425ZM322.333 71.8418C322.333 71.3617 322.48 70.9507 322.773 70.6089C323.066 70.2671 323.509 70.0962 324.104 70.0962C324.689 70.0962 325.133 70.2671 325.434 70.6089C325.743 70.9425 325.898 71.3535 325.898 71.8418C325.898 72.3219 325.743 72.7248 325.434 73.0503C325.125 73.3758 324.681 73.5386 324.104 73.5386C323.518 73.5386 323.074 73.3758 322.773 73.0503C322.48 72.7166 322.333 72.3138 322.333 71.8418ZM325.239 83.4751C325.239 84.2889 325.048 85.119 324.665 85.9653C324.283 86.8117 323.766 87.5238 323.115 88.1016L321.711 87.3325C322.102 86.7629 322.378 86.1566 322.541 85.5137C322.704 84.8708 322.785 84.2035 322.785 83.5117V81.3267H325.239V83.4751ZM111.376 110.542C111.376 111.12 111.332 111.678 111.242 112.215C111.161 112.744 111.039 113.24 110.876 113.704C110.656 114.314 110.367 114.864 110.009 115.352C109.659 115.832 109.236 116.231 108.74 116.548C108.382 116.768 107.987 116.939 107.556 117.061C107.132 117.183 106.673 117.244 106.176 117.244C105.607 117.244 105.086 117.175 104.614 117.037C104.15 116.898 103.731 116.699 103.356 116.438C103.177 116.308 103.007 116.166 102.844 116.011C102.681 115.857 102.526 115.686 102.38 115.499L102.27 117H100.195V98.25H102.453V105.208C102.64 104.972 102.848 104.76 103.076 104.573C103.304 104.378 103.548 104.211 103.808 104.073C104.134 103.902 104.492 103.772 104.882 103.682C105.273 103.593 105.696 103.548 106.152 103.548C106.722 103.548 107.246 103.625 107.727 103.78C108.207 103.934 108.642 104.15 109.033 104.427C109.383 104.687 109.696 105.005 109.973 105.379C110.249 105.745 110.493 106.156 110.705 106.612C110.925 107.125 111.092 107.694 111.206 108.321C111.319 108.939 111.376 109.594 111.376 110.286V110.542ZM109.118 110.286C109.118 109.871 109.09 109.468 109.033 109.078C108.984 108.679 108.907 108.305 108.801 107.955C108.654 107.523 108.463 107.129 108.227 106.771C107.991 106.412 107.702 106.132 107.36 105.928C107.124 105.782 106.86 105.668 106.567 105.586C106.274 105.505 105.948 105.464 105.59 105.464C105.2 105.464 104.842 105.517 104.516 105.623C104.191 105.721 103.902 105.859 103.649 106.038C103.389 106.225 103.157 106.445 102.954 106.697C102.758 106.941 102.591 107.21 102.453 107.503V113.277C102.6 113.57 102.771 113.842 102.966 114.095C103.169 114.339 103.401 114.555 103.662 114.742C103.922 114.929 104.215 115.075 104.541 115.181C104.866 115.279 105.224 115.328 105.615 115.328C105.989 115.328 106.331 115.283 106.64 115.193C106.949 115.096 107.226 114.957 107.47 114.778C107.796 114.55 108.068 114.262 108.288 113.912C108.508 113.562 108.683 113.171 108.813 112.74C108.919 112.414 108.996 112.064 109.045 111.69C109.094 111.316 109.118 110.933 109.118 110.542V110.286ZM114.062 110.274C114.062 109.322 114.201 108.439 114.478 107.625C114.754 106.803 115.153 106.091 115.674 105.489C116.187 104.887 116.813 104.415 117.554 104.073C118.294 103.723 119.128 103.548 120.056 103.548C120.992 103.548 121.83 103.723 122.571 104.073C123.319 104.415 123.954 104.887 124.475 105.489C124.988 106.091 125.382 106.803 125.659 107.625C125.936 108.439 126.074 109.322 126.074 110.274V110.542C126.074 111.495 125.936 112.378 125.659 113.191C125.382 114.005 124.988 114.713 124.475 115.315C123.954 115.918 123.324 116.39 122.583 116.731C121.842 117.073 121.008 117.244 120.081 117.244C119.145 117.244 118.302 117.073 117.554 116.731C116.813 116.39 116.187 115.918 115.674 115.315C115.153 114.713 114.754 114.005 114.478 113.191C114.201 112.378 114.062 111.495 114.062 110.542V110.274ZM116.321 110.542C116.321 111.194 116.398 111.816 116.553 112.41C116.707 112.996 116.943 113.513 117.261 113.96C117.57 114.408 117.961 114.762 118.433 115.022C118.905 115.283 119.454 115.413 120.081 115.413C120.699 115.413 121.24 115.283 121.704 115.022C122.176 114.762 122.571 114.408 122.888 113.96C123.197 113.513 123.429 112.996 123.584 112.41C123.739 111.816 123.816 111.194 123.816 110.542V110.274C123.816 109.631 123.735 109.017 123.572 108.431C123.417 107.837 123.185 107.316 122.876 106.868C122.559 106.421 122.164 106.067 121.692 105.806C121.228 105.538 120.683 105.403 120.056 105.403C119.43 105.403 118.884 105.538 118.42 105.806C117.957 106.067 117.57 106.421 117.261 106.868C116.943 107.316 116.707 107.837 116.553 108.431C116.398 109.017 116.321 109.631 116.321 110.274V110.542ZM134.559 100.594V103.792H139.588V105.538H134.559V112.715C134.559 113.228 134.624 113.651 134.754 113.985C134.884 114.319 135.063 114.583 135.291 114.778C135.519 114.982 135.779 115.124 136.072 115.206C136.373 115.287 136.691 115.328 137.024 115.328C137.269 115.328 137.521 115.315 137.781 115.291C138.042 115.258 138.298 115.222 138.55 115.181C138.794 115.14 139.022 115.1 139.234 115.059C139.454 115.01 139.633 114.97 139.771 114.937L140.088 116.536C139.901 116.65 139.673 116.752 139.405 116.841C139.136 116.923 138.843 116.992 138.526 117.049C138.208 117.114 137.871 117.163 137.513 117.195C137.163 117.228 136.813 117.244 136.463 117.244C135.877 117.244 135.328 117.163 134.815 117C134.31 116.829 133.871 116.561 133.497 116.194C133.122 115.836 132.825 115.372 132.605 114.803C132.394 114.225 132.288 113.529 132.288 112.715V105.538H128.821V103.792H132.288V100.594H134.559ZM149.073 100.594V103.792H154.103V105.538H149.073V112.715C149.073 113.228 149.138 113.651 149.269 113.985C149.399 114.319 149.578 114.583 149.806 114.778C150.034 114.982 150.294 115.124 150.587 115.206C150.888 115.287 151.205 115.328 151.539 115.328C151.783 115.328 152.035 115.315 152.296 115.291C152.556 115.258 152.813 115.222 153.065 115.181C153.309 115.14 153.537 115.1 153.749 115.059C153.968 115.01 154.147 114.97 154.286 114.937L154.603 116.536C154.416 116.65 154.188 116.752 153.919 116.841C153.651 116.923 153.358 116.992 153.041 117.049C152.723 117.114 152.385 117.163 152.027 117.195C151.677 117.228 151.327 117.244 150.978 117.244C150.392 117.244 149.842 117.163 149.33 117C148.825 116.829 148.386 116.561 148.011 116.194C147.637 115.836 147.34 115.372 147.12 114.803C146.909 114.225 146.803 113.529 146.803 112.715V105.538H143.336V103.792H146.803V100.594H149.073ZM157.606 110.274C157.606 109.322 157.745 108.439 158.021 107.625C158.298 106.803 158.697 106.091 159.218 105.489C159.73 104.887 160.357 104.415 161.098 104.073C161.838 103.723 162.672 103.548 163.6 103.548C164.536 103.548 165.374 103.723 166.115 104.073C166.863 104.415 167.498 104.887 168.019 105.489C168.532 106.091 168.926 106.803 169.203 107.625C169.48 108.439 169.618 109.322 169.618 110.274V110.542C169.618 111.495 169.48 112.378 169.203 113.191C168.926 114.005 168.532 114.713 168.019 115.315C167.498 115.918 166.868 116.39 166.127 116.731C165.386 117.073 164.552 117.244 163.625 117.244C162.689 117.244 161.846 117.073 161.098 116.731C160.357 116.39 159.73 115.918 159.218 115.315C158.697 114.713 158.298 114.005 158.021 113.191C157.745 112.378 157.606 111.495 157.606 110.542V110.274ZM159.865 110.542C159.865 111.194 159.942 111.816 160.097 112.41C160.251 112.996 160.487 113.513 160.805 113.96C161.114 114.408 161.505 114.762 161.977 115.022C162.449 115.283 162.998 115.413 163.625 115.413C164.243 115.413 164.784 115.283 165.248 115.022C165.72 114.762 166.115 114.408 166.432 113.96C166.741 113.513 166.973 112.996 167.128 112.41C167.283 111.816 167.36 111.194 167.36 110.542V110.274C167.36 109.631 167.278 109.017 167.116 108.431C166.961 107.837 166.729 107.316 166.42 106.868C166.103 106.421 165.708 106.067 165.236 105.806C164.772 105.538 164.227 105.403 163.6 105.403C162.973 105.403 162.428 105.538 161.964 105.806C161.5 106.067 161.114 106.421 160.805 106.868C160.487 107.316 160.251 107.837 160.097 108.431C159.942 109.017 159.865 109.631 159.865 110.274V110.542ZM173.793 103.792L173.854 105.037C174.123 104.573 174.473 104.211 174.904 103.951C175.344 103.69 175.873 103.556 176.491 103.548C176.841 103.548 177.154 103.589 177.431 103.67C177.716 103.743 177.964 103.853 178.176 104C178.33 104.113 178.469 104.252 178.591 104.415C178.721 104.577 178.831 104.76 178.92 104.964C179.034 104.777 179.169 104.602 179.323 104.439C179.478 104.276 179.645 104.134 179.824 104.012C180.052 103.873 180.304 103.764 180.581 103.682C180.865 103.601 181.175 103.556 181.508 103.548C181.964 103.548 182.375 103.617 182.741 103.755C183.107 103.886 183.417 104.081 183.669 104.341C183.946 104.634 184.157 105.017 184.304 105.489C184.45 105.953 184.523 106.502 184.523 107.137V117H182.375V107.112C182.375 106.836 182.342 106.591 182.277 106.38C182.212 106.168 182.119 105.993 181.997 105.855C181.866 105.725 181.704 105.627 181.508 105.562C181.321 105.497 181.101 105.464 180.849 105.464C180.581 105.464 180.349 105.501 180.153 105.574C179.958 105.647 179.795 105.745 179.665 105.867C179.535 105.997 179.433 106.148 179.36 106.319C179.287 106.482 179.238 106.665 179.213 106.868C179.213 106.909 179.213 106.95 179.213 106.99C179.213 107.023 179.213 107.063 179.213 107.112V117H177.065V107.1C177.065 106.823 177.032 106.579 176.967 106.368C176.91 106.156 176.817 105.981 176.687 105.843C176.564 105.713 176.41 105.619 176.223 105.562C176.044 105.497 175.832 105.464 175.588 105.464C175.319 105.464 175.083 105.497 174.88 105.562C174.685 105.619 174.518 105.704 174.379 105.818C174.274 105.908 174.18 106.01 174.099 106.124C174.025 106.237 173.964 106.36 173.916 106.49V117H171.767V103.792H173.793ZM191.812 115.535C191.812 115.055 191.958 114.644 192.251 114.302C192.544 113.96 192.987 113.79 193.582 113.79C194.167 113.79 194.611 113.96 194.912 114.302C195.221 114.636 195.376 115.047 195.376 115.535C195.376 116.015 195.221 116.418 194.912 116.744C194.603 117.069 194.159 117.232 193.582 117.232C192.996 117.232 192.552 117.069 192.251 116.744C191.958 116.41 191.812 116.007 191.812 115.535ZM191.812 104.842C191.812 104.362 191.958 103.951 192.251 103.609C192.544 103.267 192.987 103.096 193.582 103.096C194.167 103.096 194.611 103.267 194.912 103.609C195.221 103.943 195.376 104.354 195.376 104.842C195.376 105.322 195.221 105.725 194.912 106.05C194.603 106.376 194.159 106.539 193.582 106.539C192.996 106.539 192.552 106.376 192.251 106.05C191.958 105.717 191.812 105.314 191.812 104.842ZM227.457 110.201C227.457 111.332 227.327 112.337 227.066 113.216C226.806 114.087 226.432 114.819 225.943 115.413C225.455 116.015 224.857 116.471 224.149 116.78C223.441 117.09 222.631 117.244 221.72 117.244C220.816 117.244 220.007 117.094 219.291 116.792C218.574 116.483 217.968 116.023 217.472 115.413C216.975 114.819 216.597 114.087 216.336 113.216C216.076 112.337 215.946 111.332 215.946 110.201V106.038C215.946 104.907 216.076 103.906 216.336 103.035C216.597 102.156 216.975 101.416 217.472 100.813C217.96 100.211 218.558 99.7555 219.266 99.4463C219.982 99.1289 220.792 98.9702 221.695 98.9702C222.607 98.9702 223.417 99.1289 224.125 99.4463C224.841 99.7555 225.447 100.211 225.943 100.813C226.432 101.416 226.806 102.156 227.066 103.035C227.327 103.906 227.457 104.907 227.457 106.038V110.201ZM218.216 109.749L225.138 104.439C225.073 103.853 224.955 103.336 224.784 102.889C224.621 102.433 224.397 102.055 224.112 101.753C223.836 101.444 223.494 101.212 223.087 101.058C222.688 100.903 222.224 100.826 221.695 100.826C221.158 100.826 220.682 100.911 220.267 101.082C219.86 101.245 219.514 101.485 219.229 101.802C218.888 102.201 218.631 102.718 218.46 103.353C218.298 103.979 218.216 104.708 218.216 105.538V108.516C218.216 108.72 218.216 108.923 218.216 109.126C218.216 109.33 218.216 109.537 218.216 109.749ZM225.187 110.677V108.162C225.187 108.04 225.187 107.808 225.187 107.466C225.187 107.116 225.187 106.827 225.187 106.6L218.277 111.885C218.351 112.479 218.481 113.004 218.668 113.46C218.855 113.908 219.099 114.278 219.4 114.571C219.677 114.847 220.011 115.059 220.401 115.206C220.792 115.344 221.231 115.413 221.72 115.413C222.232 115.413 222.688 115.336 223.087 115.181C223.486 115.027 223.823 114.803 224.1 114.51C224.474 114.111 224.747 113.59 224.918 112.947C225.097 112.304 225.187 111.548 225.187 110.677ZM235.246 104.842C235.246 104.362 235.392 103.951 235.685 103.609C235.978 103.267 236.422 103.096 237.016 103.096C237.602 103.096 238.045 103.267 238.346 103.609C238.655 103.943 238.81 104.354 238.81 104.842C238.81 105.322 238.655 105.725 238.346 106.05C238.037 106.376 237.593 106.539 237.016 106.539C236.43 106.539 235.986 106.376 235.685 106.05C235.392 105.717 235.246 105.314 235.246 104.842ZM238.151 116.475C238.151 117.289 237.96 118.119 237.577 118.965C237.195 119.812 236.678 120.524 236.027 121.102L234.623 120.333C235.014 119.763 235.29 119.157 235.453 118.514C235.616 117.871 235.697 117.203 235.697 116.512V114.327H238.151V116.475ZM43.9429 153.064C44.4393 153.048 44.8543 152.909 45.188 152.649C45.5216 152.389 45.7902 152.055 45.9937 151.648C46.189 151.249 46.3273 150.798 46.4087 150.293C46.4982 149.797 46.543 149.296 46.543 148.792V146.729C46.543 146.086 46.6366 145.492 46.8237 144.946C47.019 144.401 47.3161 143.929 47.7148 143.53C47.9264 143.319 48.1624 143.127 48.4229 142.957C48.6914 142.786 48.9844 142.635 49.3018 142.505C48.9762 142.375 48.6751 142.22 48.3984 142.041C48.1299 141.862 47.8939 141.663 47.6904 141.443C47.2998 141.036 47.0109 140.564 46.8237 140.027C46.6366 139.482 46.543 138.892 46.543 138.257V136.182C46.543 135.685 46.5145 135.185 46.4575 134.68C46.4087 134.176 46.2988 133.72 46.1279 133.313C45.9489 132.914 45.6885 132.585 45.3467 132.324C45.0049 132.064 44.541 131.925 43.9551 131.909L44.1992 130.505C44.9886 130.53 45.6641 130.697 46.2256 131.006C46.7952 131.315 47.2632 131.718 47.6294 132.214C48.0444 132.776 48.3415 133.407 48.5205 134.106C48.7077 134.806 48.8013 135.498 48.8013 136.182V138.257C48.8013 138.745 48.846 139.176 48.9355 139.551C49.0332 139.917 49.1756 140.234 49.3628 140.503C49.6313 140.885 50.0016 141.166 50.4736 141.345C50.9538 141.516 51.5275 141.602 52.1948 141.602V143.372C51.6089 143.38 51.0962 143.453 50.6567 143.591C50.2254 143.722 49.8714 143.929 49.5947 144.214C49.3262 144.491 49.1268 144.836 48.9966 145.251C48.8664 145.667 48.8013 146.159 48.8013 146.729V148.792C48.8013 149.443 48.7118 150.098 48.5327 150.757C48.3537 151.424 48.077 152.03 47.7026 152.576C47.3201 153.121 46.84 153.569 46.2622 153.918C45.6844 154.268 44.9967 154.451 44.1992 154.468L43.9429 153.064Z" fill="white"/>
</svg>
