<svg width="543" height="281" viewBox="0 0 543 281" fill="none" xmlns="http://www.w3.org/2000/svg">
<rect width="543" height="281" rx="20" fill="#0066FF" fill-opacity="0.2"/>
<rect x="1.5" y="1.5" width="540" height="278" rx="18.5" stroke="#0066FF" stroke-opacity="0.5" stroke-width="3"/>
<path d="M41.1118 56.0781V37.792H43.1748L43.2847 39.2324C43.4637 39.0046 43.659 38.8011 43.8706 38.6221C44.0822 38.4349 44.3101 38.2762 44.5542 38.146C44.896 37.9507 45.2744 37.8042 45.6895 37.7065C46.1126 37.6007 46.5643 37.5479 47.0444 37.5479C47.8908 37.5479 48.6395 37.7147 49.2905 38.0483C49.9416 38.382 50.4868 38.8459 50.9263 39.4399C51.3657 40.034 51.6994 40.7461 51.9272 41.5762C52.1551 42.3981 52.269 43.3014 52.269 44.2861V44.5425C52.269 45.4865 52.1551 46.3695 51.9272 47.1914C51.6994 48.0052 51.3657 48.7132 50.9263 49.3154C50.4868 49.9176 49.9416 50.3896 49.2905 50.7314C48.6476 51.0732 47.9111 51.2441 47.0811 51.2441C46.5765 51.2441 46.1045 51.1912 45.665 51.0854C45.2337 50.9797 44.8431 50.8291 44.4932 50.6338C44.2816 50.5117 44.0822 50.3774 43.895 50.231C43.7078 50.0763 43.5329 49.9095 43.3701 49.7305V56.0781H41.1118ZM50.0107 44.2861C50.0107 43.6432 49.9375 43.0329 49.791 42.4551C49.6527 41.8691 49.437 41.3524 49.144 40.9048C48.8429 40.4653 48.4645 40.1154 48.0088 39.855C47.5531 39.5946 47.0078 39.4644 46.373 39.4644C46.0231 39.4644 45.6976 39.505 45.3965 39.5864C45.1035 39.6678 44.839 39.7858 44.603 39.9404C44.3426 40.0951 44.1107 40.2863 43.9072 40.5142C43.7038 40.742 43.5247 40.9943 43.3701 41.271V47.6309C43.5085 47.875 43.6672 48.1029 43.8462 48.3145C44.0252 48.526 44.2287 48.7051 44.4565 48.8516C44.717 49.0225 45.0059 49.1567 45.3232 49.2544C45.6488 49.3521 46.0068 49.4009 46.3975 49.4009C47.0241 49.4009 47.5653 49.2707 48.021 49.0103C48.4767 48.7417 48.8511 48.3836 49.144 47.936C49.437 47.4884 49.6527 46.9717 49.791 46.3857C49.9375 45.7998 50.0107 45.1854 50.0107 44.5425V44.2861ZM45.0547 181.535C45.0547 181.055 45.2012 180.644 45.4941 180.302C45.7871 179.96 46.2306 179.79 46.8247 179.79C47.4106 179.79 47.8542 179.96 48.1553 180.302C48.4645 180.636 48.6191 181.047 48.6191 181.535C48.6191 182.015 48.4645 182.418 48.1553 182.744C47.846 183.069 47.4025 183.232 46.8247 183.232C46.2388 183.232 45.7952 183.069 45.4941 182.744C45.2012 182.41 45.0547 182.007 45.0547 181.535ZM66.8325 176.542C66.8325 177.12 66.7878 177.678 66.6982 178.215C66.6169 178.744 66.4948 179.24 66.332 179.704C66.1123 180.314 65.8234 180.864 65.4653 181.352C65.1154 181.832 64.6922 182.231 64.1958 182.548C63.8377 182.768 63.443 182.939 63.0117 183.061C62.5885 183.183 62.1287 183.244 61.6323 183.244C61.0627 183.244 60.5418 183.175 60.0698 183.037C59.606 182.898 59.1868 182.699 58.8125 182.438C58.6335 182.308 58.4626 182.166 58.2998 182.011C58.137 181.857 57.9824 181.686 57.8359 181.499L57.7261 183H55.6509V164.25H57.9092V171.208C58.0964 170.972 58.3039 170.76 58.5317 170.573C58.7596 170.378 59.0037 170.211 59.2642 170.073C59.5897 169.902 59.9478 169.772 60.3384 169.682C60.729 169.593 61.1522 169.548 61.6079 169.548C62.1776 169.548 62.7025 169.625 63.1826 169.78C63.6628 169.934 64.0981 170.15 64.4888 170.427C64.8387 170.687 65.152 171.005 65.4287 171.379C65.7054 171.745 65.9495 172.156 66.1611 172.612C66.3809 173.125 66.5477 173.694 66.6616 174.321C66.7756 174.939 66.8325 175.594 66.8325 176.286V176.542ZM64.5742 176.286C64.5742 175.871 64.5457 175.468 64.4888 175.078C64.4399 174.679 64.3626 174.305 64.2568 173.955C64.1104 173.523 63.9191 173.129 63.6831 172.771C63.4471 172.412 63.1582 172.132 62.8164 171.928C62.5804 171.782 62.3159 171.668 62.0229 171.586C61.73 171.505 61.4045 171.464 61.0464 171.464C60.6558 171.464 60.2977 171.517 59.9722 171.623C59.6466 171.721 59.3577 171.859 59.1055 172.038C58.8451 172.225 58.6131 172.445 58.4097 172.697C58.2144 172.941 58.0475 173.21 57.9092 173.503V179.277C58.0557 179.57 58.2266 179.842 58.4219 180.095C58.6253 180.339 58.8573 180.555 59.1177 180.742C59.3781 180.929 59.6711 181.075 59.9966 181.181C60.3221 181.279 60.6802 181.328 61.0708 181.328C61.4451 181.328 61.7869 181.283 62.0962 181.193C62.4054 181.096 62.6821 180.957 62.9263 180.778C63.2518 180.55 63.5244 180.262 63.7441 179.912C63.9639 179.562 64.1388 179.171 64.269 178.74C64.3748 178.414 64.4521 178.064 64.501 177.69C64.5498 177.316 64.5742 176.933 64.5742 176.542V176.286ZM75.9883 183.244C75.0605 183.244 74.2061 183.085 73.4248 182.768C72.6517 182.451 71.9884 182.007 71.4351 181.438C70.8817 180.868 70.4504 180.192 70.1411 179.411C69.8319 178.63 69.6772 177.779 69.6772 176.86V176.347C69.6772 175.281 69.8481 174.329 70.1899 173.491C70.5317 172.644 70.9875 171.928 71.5571 171.342C72.1187 170.764 72.7575 170.321 73.4736 170.012C74.1979 169.702 74.9385 169.548 75.6953 169.548C76.6475 169.548 77.4775 169.715 78.1855 170.048C78.9017 170.374 79.4958 170.826 79.9678 171.403C80.4398 171.989 80.7897 172.677 81.0176 173.466C81.2536 174.256 81.3716 175.11 81.3716 176.03V177.043H71.9355V177.128C71.9925 177.771 72.1187 178.337 72.314 178.825C72.5174 179.313 72.7941 179.745 73.144 180.119C73.5021 180.518 73.9334 180.831 74.438 181.059C74.9425 181.287 75.5 181.401 76.1104 181.401C76.916 181.401 77.6322 181.238 78.2588 180.913C78.8854 180.587 79.4062 180.156 79.8213 179.619L81.2007 180.693C80.7612 181.36 80.1021 181.954 79.2231 182.475C78.3524 182.988 77.2741 183.244 75.9883 183.244ZM75.6953 171.403C75.2396 171.403 74.8083 171.489 74.4014 171.66C73.9945 171.822 73.6283 172.062 73.3027 172.38C72.9772 172.705 72.7005 173.104 72.4727 173.576C72.2529 174.04 72.0983 174.577 72.0088 175.188H79.1133V175.078C79.1133 174.671 79.036 174.235 78.8813 173.771C78.7267 173.299 78.5111 172.893 78.2344 172.551C77.9577 172.209 77.6077 171.932 77.1846 171.721C76.7695 171.509 76.2731 171.403 75.6953 171.403ZM85.022 164.25H91.7725V181.047H96.0815V183H85.022V181.047H89.5142V166.215H85.022V164.25ZM98.5479 176.274C98.5479 175.322 98.6862 174.439 98.9629 173.625C99.2396 172.803 99.6383 172.091 100.159 171.489C100.672 170.887 101.299 170.415 102.039 170.073C102.78 169.723 103.614 169.548 104.542 169.548C105.477 169.548 106.316 169.723 107.056 170.073C107.805 170.415 108.44 170.887 108.96 171.489C109.473 172.091 109.868 172.803 110.145 173.625C110.421 174.439 110.56 175.322 110.56 176.274V176.542C110.56 177.495 110.421 178.378 110.145 179.191C109.868 180.005 109.473 180.713 108.96 181.315C108.44 181.918 107.809 182.39 107.068 182.731C106.328 183.073 105.494 183.244 104.566 183.244C103.63 183.244 102.788 183.073 102.039 182.731C101.299 182.39 100.672 181.918 100.159 181.315C99.6383 180.713 99.2396 180.005 98.9629 179.191C98.6862 178.378 98.5479 177.495 98.5479 176.542V176.274ZM100.806 176.542C100.806 177.194 100.883 177.816 101.038 178.41C101.193 178.996 101.429 179.513 101.746 179.96C102.055 180.408 102.446 180.762 102.918 181.022C103.39 181.283 103.939 181.413 104.566 181.413C105.184 181.413 105.726 181.283 106.189 181.022C106.661 180.762 107.056 180.408 107.374 179.96C107.683 179.513 107.915 178.996 108.069 178.41C108.224 177.816 108.301 177.194 108.301 176.542V176.274C108.301 175.631 108.22 175.017 108.057 174.431C107.903 173.837 107.671 173.316 107.361 172.868C107.044 172.421 106.649 172.067 106.177 171.806C105.713 171.538 105.168 171.403 104.542 171.403C103.915 171.403 103.37 171.538 102.906 171.806C102.442 172.067 102.055 172.421 101.746 172.868C101.429 173.316 101.193 173.837 101.038 174.431C100.883 175.017 100.806 175.631 100.806 176.274V176.542ZM118.202 183L112.77 169.792H115.089L118.873 179.753L119.081 180.571L119.3 179.753L122.999 169.792H125.306L119.923 183H118.202ZM134.047 183.244C133.119 183.244 132.265 183.085 131.483 182.768C130.71 182.451 130.047 182.007 129.494 181.438C128.94 180.868 128.509 180.192 128.2 179.411C127.89 178.63 127.736 177.779 127.736 176.86V176.347C127.736 175.281 127.907 174.329 128.249 173.491C128.59 172.644 129.046 171.928 129.616 171.342C130.177 170.764 130.816 170.321 131.532 170.012C132.257 169.702 132.997 169.548 133.754 169.548C134.706 169.548 135.536 169.715 136.244 170.048C136.96 170.374 137.554 170.826 138.026 171.403C138.498 171.989 138.848 172.677 139.076 173.466C139.312 174.256 139.43 175.11 139.43 176.03V177.043H129.994V177.128C130.051 177.771 130.177 178.337 130.373 178.825C130.576 179.313 130.853 179.745 131.203 180.119C131.561 180.518 131.992 180.831 132.497 181.059C133.001 181.287 133.559 181.401 134.169 181.401C134.975 181.401 135.691 181.238 136.317 180.913C136.944 180.587 137.465 180.156 137.88 179.619L139.259 180.693C138.82 181.36 138.161 181.954 137.282 182.475C136.411 182.988 135.333 183.244 134.047 183.244ZM133.754 171.403C133.298 171.403 132.867 171.489 132.46 171.66C132.053 171.822 131.687 172.062 131.361 172.38C131.036 172.705 130.759 173.104 130.531 173.576C130.312 174.04 130.157 174.577 130.067 175.188H137.172V175.078C137.172 174.671 137.095 174.235 136.94 173.771C136.785 173.299 136.57 172.893 136.293 172.551C136.016 172.209 135.666 171.932 135.243 171.721C134.828 171.509 134.332 171.403 133.754 171.403ZM142.299 176.286C142.299 175.301 142.421 174.398 142.666 173.576C142.918 172.746 143.276 172.034 143.74 171.44C144.195 170.846 144.749 170.382 145.4 170.048C146.051 169.715 146.779 169.548 147.585 169.548C148.374 169.548 149.062 169.682 149.648 169.951C150.242 170.211 150.755 170.594 151.186 171.098V164.25H153.444V183H151.369L151.271 181.608C150.832 182.146 150.307 182.552 149.697 182.829C149.086 183.106 148.374 183.244 147.561 183.244C146.763 183.244 146.039 183.073 145.388 182.731C144.745 182.39 144.195 181.918 143.74 181.315C143.284 180.713 142.93 180.005 142.678 179.191C142.425 178.369 142.299 177.486 142.299 176.542V176.286ZM144.558 176.542C144.558 177.185 144.627 177.796 144.765 178.374C144.903 178.951 145.119 179.46 145.412 179.899C145.697 180.339 146.063 180.689 146.511 180.949C146.958 181.201 147.495 181.328 148.122 181.328C148.879 181.328 149.506 181.157 150.002 180.815C150.498 180.473 150.893 180.013 151.186 179.436V173.308C150.893 172.771 150.498 172.331 150.002 171.989C149.506 171.639 148.887 171.464 148.146 171.464C147.512 171.464 146.966 171.595 146.511 171.855C146.063 172.115 145.697 172.465 145.412 172.905C145.119 173.352 144.903 173.869 144.765 174.455C144.627 175.033 144.558 175.643 144.558 176.286V176.542ZM167.117 176.152H157.778V174.296H167.117V176.152ZM177.383 181.413C177.79 181.413 178.185 181.348 178.567 181.218C178.958 181.088 179.304 180.904 179.605 180.668C179.906 180.441 180.146 180.172 180.325 179.863C180.512 179.545 180.61 179.204 180.618 178.837H182.754C182.746 179.423 182.592 179.985 182.291 180.522C181.998 181.051 181.603 181.515 181.106 181.914C180.61 182.32 180.04 182.646 179.397 182.89C178.755 183.126 178.083 183.244 177.383 183.244C176.382 183.244 175.507 183.065 174.759 182.707C174.01 182.349 173.388 181.865 172.891 181.254C172.387 180.652 172.008 179.956 171.756 179.167C171.504 178.369 171.377 177.531 171.377 176.652V176.14C171.377 175.269 171.504 174.435 171.756 173.637C172.008 172.84 172.387 172.136 172.891 171.525C173.388 170.923 174.01 170.443 174.759 170.085C175.507 169.727 176.382 169.548 177.383 169.548C178.165 169.548 178.881 169.674 179.532 169.926C180.191 170.17 180.761 170.504 181.241 170.927C181.713 171.359 182.083 171.867 182.352 172.453C182.62 173.039 182.754 173.666 182.754 174.333H180.618C180.61 173.934 180.521 173.56 180.35 173.21C180.187 172.852 179.963 172.539 179.678 172.27C179.393 172.001 179.052 171.79 178.653 171.635C178.262 171.481 177.839 171.403 177.383 171.403C176.683 171.403 176.093 171.546 175.613 171.831C175.141 172.107 174.759 172.469 174.466 172.917C174.173 173.373 173.961 173.881 173.831 174.443C173.709 175.004 173.648 175.57 173.648 176.14V176.652C173.648 177.23 173.709 177.804 173.831 178.374C173.961 178.935 174.173 179.44 174.466 179.887C174.751 180.343 175.129 180.713 175.601 180.998C176.081 181.275 176.675 181.413 177.383 181.413ZM185.636 176.274C185.636 175.322 185.774 174.439 186.051 173.625C186.327 172.803 186.726 172.091 187.247 171.489C187.76 170.887 188.386 170.415 189.127 170.073C189.868 169.723 190.702 169.548 191.629 169.548C192.565 169.548 193.403 169.723 194.144 170.073C194.893 170.415 195.528 170.887 196.048 171.489C196.561 172.091 196.956 172.803 197.232 173.625C197.509 174.439 197.647 175.322 197.647 176.274V176.542C197.647 177.495 197.509 178.378 197.232 179.191C196.956 180.005 196.561 180.713 196.048 181.315C195.528 181.918 194.897 182.39 194.156 182.731C193.416 183.073 192.582 183.244 191.654 183.244C190.718 183.244 189.876 183.073 189.127 182.731C188.386 182.39 187.76 181.918 187.247 181.315C186.726 180.713 186.327 180.005 186.051 179.191C185.774 178.378 185.636 177.495 185.636 176.542V176.274ZM187.894 176.542C187.894 177.194 187.971 177.816 188.126 178.41C188.281 178.996 188.517 179.513 188.834 179.96C189.143 180.408 189.534 180.762 190.006 181.022C190.478 181.283 191.027 181.413 191.654 181.413C192.272 181.413 192.813 181.283 193.277 181.022C193.749 180.762 194.144 180.408 194.461 179.96C194.771 179.513 195.003 178.996 195.157 178.41C195.312 177.816 195.389 177.194 195.389 176.542V176.274C195.389 175.631 195.308 175.017 195.145 174.431C194.99 173.837 194.758 173.316 194.449 172.868C194.132 172.421 193.737 172.067 193.265 171.806C192.801 171.538 192.256 171.403 191.629 171.403C191.003 171.403 190.458 171.538 189.994 171.806C189.53 172.067 189.143 172.421 188.834 172.868C188.517 173.316 188.281 173.837 188.126 174.431C187.971 175.017 187.894 175.631 187.894 176.274V176.542ZM201.139 164.25H207.89V181.047H212.199V183H201.139V181.047H205.631V166.215H201.139V164.25ZM214.665 176.274C214.665 175.322 214.803 174.439 215.08 173.625C215.357 172.803 215.756 172.091 216.276 171.489C216.789 170.887 217.416 170.415 218.156 170.073C218.897 169.723 219.731 169.548 220.659 169.548C221.595 169.548 222.433 169.723 223.173 170.073C223.922 170.415 224.557 170.887 225.078 171.489C225.59 172.091 225.985 172.803 226.262 173.625C226.538 174.439 226.677 175.322 226.677 176.274V176.542C226.677 177.495 226.538 178.378 226.262 179.191C225.985 180.005 225.59 180.713 225.078 181.315C224.557 181.918 223.926 182.39 223.186 182.731C222.445 183.073 221.611 183.244 220.683 183.244C219.747 183.244 218.905 183.073 218.156 182.731C217.416 182.39 216.789 181.918 216.276 181.315C215.756 180.713 215.357 180.005 215.08 179.191C214.803 178.378 214.665 177.495 214.665 176.542V176.274ZM216.923 176.542C216.923 177.194 217.001 177.816 217.155 178.41C217.31 178.996 217.546 179.513 217.863 179.96C218.173 180.408 218.563 180.762 219.035 181.022C219.507 181.283 220.056 181.413 220.683 181.413C221.302 181.413 221.843 181.283 222.307 181.022C222.779 180.762 223.173 180.408 223.491 179.96C223.8 179.513 224.032 178.996 224.187 178.41C224.341 177.816 224.418 177.194 224.418 176.542V176.274C224.418 175.631 224.337 175.017 224.174 174.431C224.02 173.837 223.788 173.316 223.479 172.868C223.161 172.421 222.766 172.067 222.294 171.806C221.831 171.538 221.285 171.403 220.659 171.403C220.032 171.403 219.487 171.538 219.023 171.806C218.559 172.067 218.173 172.421 217.863 172.868C217.546 173.316 217.31 173.837 217.155 174.431C217.001 175.017 216.923 175.631 216.923 176.274V176.542ZM238.469 169.548C238.884 169.548 239.316 169.576 239.763 169.633C240.219 169.69 240.561 169.768 240.789 169.865L240.483 172.075C240.044 171.977 239.625 171.908 239.226 171.867C238.835 171.818 238.424 171.794 237.993 171.794C237.44 171.794 236.939 171.863 236.492 172.001C236.044 172.132 235.653 172.327 235.32 172.587C235.019 172.815 234.754 173.096 234.526 173.43C234.307 173.755 234.124 174.121 233.977 174.528V183H231.707V169.792H233.855L233.953 171.562L233.965 171.892C234.502 171.167 235.145 170.598 235.894 170.183C236.65 169.759 237.509 169.548 238.469 169.548Z" fill="#0066FF"/>
<path d="M79.9678 55.4678C79.1784 55.4434 78.4948 55.2603 77.917 54.9185C77.3392 54.5767 76.859 54.125 76.4766 53.5635C76.1104 53.0264 75.8337 52.4242 75.6465 51.7568C75.4593 51.0977 75.3657 50.4425 75.3657 49.7915V47.7285C75.3657 46.5566 75.085 45.7062 74.5234 45.1772C73.9701 44.6483 73.1196 44.3797 71.9722 44.3716V42.6016C73.1196 42.6016 73.9701 42.3411 74.5234 41.8203C75.085 41.2913 75.3657 40.4368 75.3657 39.2568V37.1816C75.3657 36.5225 75.4512 35.8511 75.6221 35.1675C75.8011 34.4757 76.0819 33.8573 76.4644 33.312C76.8224 32.7912 77.2904 32.368 77.8682 32.0425C78.446 31.7088 79.1458 31.5298 79.9678 31.5054L80.2241 32.9092C79.6382 32.9255 79.1702 33.0638 78.8203 33.3242C78.4785 33.5846 78.2222 33.9142 78.0513 34.313C77.8722 34.7199 77.7583 35.1756 77.7095 35.6802C77.6606 36.1847 77.6362 36.6852 77.6362 37.1816V39.2568C77.6362 40.2334 77.4084 41.092 76.9526 41.8325C76.505 42.5649 75.8092 43.1224 74.8652 43.5049C75.8092 43.8792 76.505 44.4367 76.9526 45.1772C77.4002 45.9097 77.6281 46.7601 77.6362 47.7285V49.7915C77.6362 50.2961 77.6769 50.7965 77.7583 51.293C77.8397 51.7975 77.9821 52.2492 78.1855 52.6479C78.3809 53.0549 78.6413 53.3885 78.9668 53.6489C79.3005 53.9093 79.7196 54.0477 80.2241 54.064L79.9678 55.4678ZM73.5225 84V72.5376H69.8848V70.792H73.5225V69.8643C73.5225 69.0179 73.6445 68.2773 73.8887 67.6426C74.141 66.9997 74.495 66.4626 74.9507 66.0312C75.3983 65.5999 75.9395 65.2744 76.5742 65.0547C77.209 64.835 77.917 64.7251 78.6982 64.7251C79.0238 64.7251 79.3452 64.7454 79.6626 64.7861C79.98 64.8187 80.2933 64.8634 80.6025 64.9204C80.806 64.9611 81.0094 65.0059 81.2129 65.0547C81.4163 65.0954 81.6239 65.1442 81.8354 65.2012L81.5669 67.0688C81.2332 66.9549 80.8426 66.8573 80.395 66.7759C79.9556 66.6864 79.4836 66.6416 78.979 66.6416C78.4663 66.6416 78.0106 66.7067 77.6118 66.8369C77.2212 66.959 76.8957 67.1462 76.6353 67.3984C76.3586 67.6589 76.147 67.9966 76.0005 68.4116C75.8621 68.8267 75.793 69.3109 75.793 69.8643V70.792H80.8833V72.5376H75.793V84H73.5225ZM84.0332 77.2739C84.0332 76.3218 84.1715 75.4388 84.4482 74.625C84.7249 73.8031 85.1237 73.091 85.6445 72.4888C86.1572 71.8866 86.7839 71.4146 87.5244 71.0728C88.265 70.7228 89.0991 70.5479 90.0269 70.5479C90.9627 70.5479 91.8009 70.7228 92.5415 71.0728C93.2902 71.4146 93.925 71.8866 94.4458 72.4888C94.9585 73.091 95.3532 73.8031 95.6299 74.625C95.9066 75.4388 96.0449 76.3218 96.0449 77.2739V77.5425C96.0449 78.4946 95.9066 79.3776 95.6299 80.1914C95.3532 81.0052 94.9585 81.7132 94.4458 82.3154C93.925 82.9176 93.2943 83.3896 92.5537 83.7314C91.8132 84.0732 90.979 84.2441 90.0513 84.2441C89.1154 84.2441 88.2731 84.0732 87.5244 83.7314C86.7839 83.3896 86.1572 82.9176 85.6445 82.3154C85.1237 81.7132 84.7249 81.0052 84.4482 80.1914C84.1715 79.3776 84.0332 78.4946 84.0332 77.5425V77.2739ZM86.2915 77.5425C86.2915 78.1935 86.3688 78.8161 86.5234 79.4102C86.6781 79.9961 86.9141 80.5129 87.2314 80.9604C87.5407 81.408 87.9313 81.762 88.4033 82.0225C88.8753 82.2829 89.4246 82.4131 90.0513 82.4131C90.6698 82.4131 91.2109 82.2829 91.6748 82.0225C92.1468 81.762 92.5415 81.408 92.8589 80.9604C93.1681 80.5129 93.4001 79.9961 93.5547 79.4102C93.7093 78.8161 93.7866 78.1935 93.7866 77.5425V77.2739C93.7866 76.631 93.7052 76.0166 93.5425 75.4307C93.3879 74.8366 93.1559 74.3158 92.8467 73.8682C92.5293 73.4206 92.1346 73.0666 91.6626 72.8062C91.1987 72.5376 90.6535 72.4033 90.0269 72.4033C89.4002 72.4033 88.855 72.5376 88.3911 72.8062C87.9272 73.0666 87.5407 73.4206 87.2314 73.8682C86.9141 74.3158 86.6781 74.8366 86.5234 75.4307C86.3688 76.0166 86.2915 76.631 86.2915 77.2739V77.5425ZM99.1826 84V70.792H101.209L101.368 72.7451C101.563 72.4684 101.775 72.2161 102.002 71.9883C102.238 71.7523 102.487 71.5488 102.747 71.3779C103.138 71.1175 103.561 70.9181 104.017 70.7798C104.48 70.6333 104.969 70.556 105.481 70.5479C106.173 70.5479 106.8 70.6455 107.361 70.8408C107.931 71.0361 108.415 71.3413 108.814 71.7563C109.213 72.1714 109.518 72.7004 109.729 73.3433C109.949 73.978 110.059 74.7349 110.059 75.6138V84H107.801V75.6626C107.801 75.0767 107.736 74.5802 107.605 74.1733C107.475 73.7664 107.284 73.4368 107.032 73.1846C106.771 72.9323 106.454 72.7492 106.08 72.6353C105.713 72.5213 105.29 72.4644 104.81 72.4644C104.395 72.4644 104.008 72.5254 103.65 72.6475C103.292 72.7614 102.963 72.9201 102.662 73.1235C102.417 73.3026 102.19 73.5101 101.978 73.7461C101.775 73.9821 101.596 74.2425 101.441 74.5273V84H99.1826ZM119.044 67.5938V70.792H124.073V72.5376H119.044V79.7153C119.044 80.228 119.109 80.6512 119.239 80.9849C119.369 81.3185 119.549 81.583 119.776 81.7783C120.004 81.9818 120.265 82.1242 120.558 82.2056C120.859 82.2869 121.176 82.3276 121.51 82.3276C121.754 82.3276 122.006 82.3154 122.267 82.291C122.527 82.2585 122.783 82.2218 123.036 82.1812C123.28 82.1405 123.508 82.0998 123.719 82.0591C123.939 82.0103 124.118 81.9696 124.256 81.937L124.574 83.5361C124.387 83.6501 124.159 83.7518 123.89 83.8413C123.622 83.9227 123.329 83.9919 123.011 84.0488C122.694 84.1139 122.356 84.1628 121.998 84.1953C121.648 84.2279 121.298 84.2441 120.948 84.2441C120.362 84.2441 119.813 84.1628 119.3 84C118.796 83.8291 118.356 83.5605 117.982 83.1943C117.608 82.8363 117.311 82.3724 117.091 81.8027C116.879 81.2249 116.773 80.5291 116.773 79.7153V72.5376H113.307V70.792H116.773V67.5938H119.044ZM138.087 77.1519H128.749V75.2964H138.087V77.1519ZM151.503 80.4966C151.503 80.228 151.451 79.988 151.345 79.7764C151.239 79.5566 151.06 79.3573 150.808 79.1782C150.555 78.9992 150.222 78.8364 149.807 78.6899C149.392 78.5353 148.875 78.397 148.256 78.2749C147.5 78.1203 146.808 77.9331 146.181 77.7134C145.563 77.4937 145.034 77.2292 144.594 76.9199C144.147 76.6188 143.801 76.2648 143.557 75.8579C143.312 75.4429 143.19 74.9627 143.19 74.4175C143.19 73.8804 143.317 73.3799 143.569 72.916C143.821 72.444 144.175 72.033 144.631 71.6831C145.087 71.3332 145.628 71.0565 146.254 70.853C146.889 70.6496 147.585 70.5479 148.342 70.5479C149.156 70.5479 149.888 70.6536 150.539 70.8652C151.19 71.0768 151.743 71.3698 152.199 71.7441C152.655 72.1185 153.005 72.5579 153.249 73.0625C153.501 73.5589 153.627 74.096 153.627 74.6738H151.369C151.369 74.389 151.296 74.1123 151.149 73.8438C151.003 73.5671 150.799 73.3229 150.539 73.1113C150.279 72.8997 149.961 72.7288 149.587 72.5986C149.221 72.4684 148.806 72.4033 148.342 72.4033C147.862 72.4033 147.438 72.4562 147.072 72.562C146.714 72.6678 146.417 72.8102 146.181 72.9893C145.937 73.1683 145.754 73.3758 145.632 73.6118C145.51 73.8478 145.449 74.092 145.449 74.3442C145.449 74.6047 145.498 74.8366 145.595 75.04C145.693 75.2435 145.864 75.4266 146.108 75.5894C146.344 75.7521 146.661 75.8986 147.06 76.0288C147.467 76.159 147.98 76.2852 148.598 76.4072C149.412 76.5781 150.14 76.7775 150.783 77.0054C151.426 77.2251 151.967 77.4896 152.407 77.7988C152.846 78.1162 153.18 78.4824 153.408 78.8975C153.644 79.3125 153.762 79.7926 153.762 80.3379C153.762 80.9238 153.627 81.4569 153.359 81.937C153.098 82.4172 152.732 82.8281 152.26 83.1699C151.788 83.5117 151.223 83.7762 150.563 83.9634C149.904 84.1506 149.184 84.2441 148.403 84.2441C147.508 84.2441 146.71 84.1261 146.01 83.8901C145.31 83.646 144.72 83.3245 144.24 82.9258C143.752 82.5352 143.378 82.0794 143.117 81.5586C142.865 81.0378 142.739 80.4966 142.739 79.9351H144.997C145.03 80.3989 145.152 80.7896 145.363 81.1069C145.583 81.4243 145.856 81.6807 146.181 81.876C146.499 82.0713 146.853 82.2096 147.243 82.291C147.634 82.3724 148.02 82.4131 148.403 82.4131C149.005 82.4131 149.53 82.3439 149.978 82.2056C150.425 82.0591 150.775 81.8597 151.027 81.6074C151.182 81.4528 151.3 81.2819 151.381 81.0947C151.463 80.9076 151.503 80.7082 151.503 80.4966ZM157.595 70.792H164.346V82.0469H168.655V84H157.595V82.0469H162.087V72.7573H157.595V70.792ZM161.794 67.3252C161.794 67.1299 161.823 66.9468 161.88 66.7759C161.945 66.605 162.043 66.4585 162.173 66.3364C162.279 66.2306 162.413 66.1493 162.576 66.0923C162.747 66.0272 162.938 65.9946 163.149 65.9946C163.361 65.9946 163.548 66.0272 163.711 66.0923C163.874 66.1493 164.008 66.2306 164.114 66.3364C164.244 66.4504 164.342 66.5928 164.407 66.7637C164.472 66.9346 164.504 67.1217 164.504 67.3252C164.504 67.6914 164.39 67.9966 164.163 68.2407C163.935 68.4849 163.597 68.6069 163.149 68.6069C162.694 68.6069 162.352 68.4849 162.124 68.2407C161.904 67.9966 161.794 67.6914 161.794 67.3252ZM174.466 82.1567H182.876V84H171.585V82.3398L179.471 72.6597H171.695V70.792H182.437V72.3911L174.466 82.1567ZM192.105 84.2441C191.178 84.2441 190.323 84.0854 189.542 83.7681C188.769 83.4507 188.106 83.0072 187.552 82.4375C186.999 81.8678 186.568 81.1924 186.258 80.4111C185.949 79.6299 185.794 78.7795 185.794 77.8599V77.3472C185.794 76.2811 185.965 75.3289 186.307 74.4907C186.649 73.6444 187.105 72.9282 187.674 72.3423C188.236 71.7645 188.875 71.321 189.591 71.0117C190.315 70.7025 191.056 70.5479 191.812 70.5479C192.765 70.5479 193.595 70.7147 194.303 71.0483C195.019 71.3739 195.613 71.8255 196.085 72.4033C196.557 72.9893 196.907 73.6769 197.135 74.4663C197.371 75.2557 197.489 76.1102 197.489 77.0298V78.043H188.053V78.1284C188.11 78.7713 188.236 79.3369 188.431 79.8252C188.635 80.3135 188.911 80.7448 189.261 81.1191C189.619 81.5179 190.051 81.8312 190.555 82.0591C191.06 82.2869 191.617 82.4009 192.228 82.4009C193.033 82.4009 193.749 82.2381 194.376 81.9126C195.003 81.5871 195.523 81.1558 195.938 80.6187L197.318 81.6929C196.878 82.3602 196.219 82.9543 195.34 83.4751C194.47 83.9878 193.391 84.2441 192.105 84.2441ZM191.812 72.4033C191.357 72.4033 190.925 72.4888 190.519 72.6597C190.112 72.8224 189.745 73.0625 189.42 73.3799C189.094 73.7054 188.818 74.1042 188.59 74.5762C188.37 75.04 188.215 75.5771 188.126 76.1875H195.23V76.0776C195.23 75.6707 195.153 75.2354 194.999 74.7715C194.844 74.2995 194.628 73.8926 194.352 73.5508C194.075 73.209 193.725 72.9323 193.302 72.7207C192.887 72.5091 192.39 72.4033 191.812 72.4033ZM205.326 82.5352C205.326 82.055 205.473 81.644 205.766 81.3022C206.059 80.9604 206.502 80.7896 207.096 80.7896C207.682 80.7896 208.126 80.9604 208.427 81.3022C208.736 81.6359 208.891 82.0469 208.891 82.5352C208.891 83.0153 208.736 83.4181 208.427 83.7437C208.118 84.0692 207.674 84.2319 207.096 84.2319C206.51 84.2319 206.067 84.0692 205.766 83.7437C205.473 83.41 205.326 83.0072 205.326 82.5352ZM205.326 71.8418C205.326 71.3617 205.473 70.9507 205.766 70.6089C206.059 70.2671 206.502 70.0962 207.096 70.0962C207.682 70.0962 208.126 70.2671 208.427 70.6089C208.736 70.9425 208.891 71.3535 208.891 71.8418C208.891 72.3219 208.736 72.7248 208.427 73.0503C208.118 73.3758 207.674 73.5386 207.096 73.5386C206.51 73.5386 206.067 73.3758 205.766 73.0503C205.473 72.7166 205.326 72.3138 205.326 71.8418ZM237.139 84H234.88V69.1074L230.229 70.8774V68.8145L236.956 66.2266H237.139V84ZM253.484 78.0308H255.962V79.874H253.484V84H251.226V79.874H243.121V78.5435L251.08 66.2266H253.484V78.0308ZM245.623 78.0308H251.226V69.2295L250.86 69.9131L245.623 78.0308ZM258.832 89.0781V70.792H260.895L261.004 72.2324C261.183 72.0046 261.379 71.8011 261.59 71.6221C261.802 71.4349 262.03 71.2762 262.274 71.146C262.616 70.9507 262.994 70.8042 263.409 70.7065C263.832 70.6007 264.284 70.5479 264.764 70.5479C265.611 70.5479 266.359 70.7147 267.01 71.0483C267.661 71.382 268.207 71.8459 268.646 72.4399C269.085 73.034 269.419 73.7461 269.647 74.5762C269.875 75.3981 269.989 76.3014 269.989 77.2861V77.5425C269.989 78.4865 269.875 79.3695 269.647 80.1914C269.419 81.0052 269.085 81.7132 268.646 82.3154C268.207 82.9176 267.661 83.3896 267.01 83.7314C266.367 84.0732 265.631 84.2441 264.801 84.2441C264.296 84.2441 263.824 84.1912 263.385 84.0854C262.953 83.9797 262.563 83.8291 262.213 83.6338C262.001 83.5117 261.802 83.3774 261.615 83.231C261.428 83.0763 261.253 82.9095 261.09 82.7305V89.0781H258.832ZM267.73 77.2861C267.73 76.6432 267.657 76.0329 267.511 75.4551C267.372 74.8691 267.157 74.3524 266.864 73.9048C266.563 73.4653 266.184 73.1154 265.729 72.855C265.273 72.5946 264.728 72.4644 264.093 72.4644C263.743 72.4644 263.417 72.505 263.116 72.5864C262.823 72.6678 262.559 72.7858 262.323 72.9404C262.062 73.0951 261.83 73.2863 261.627 73.5142C261.424 73.742 261.244 73.9943 261.09 74.271V80.6309C261.228 80.875 261.387 81.1029 261.566 81.3145C261.745 81.526 261.948 81.7051 262.176 81.8516C262.437 82.0225 262.726 82.1567 263.043 82.2544C263.368 82.3521 263.727 82.4009 264.117 82.4009C264.744 82.4009 265.285 82.2707 265.741 82.0103C266.196 81.7417 266.571 81.3836 266.864 80.936C267.157 80.4884 267.372 79.9717 267.511 79.3857C267.657 78.7998 267.73 78.1854 267.73 77.5425V77.2861ZM278.815 75.687L282.343 70.792H284.992L280.072 77.3228L285.126 84H282.514L278.864 78.9707L275.214 84H272.577L277.631 77.3228L272.711 70.792H275.324L278.815 75.687ZM292.304 71.8418C292.304 71.3617 292.451 70.9507 292.744 70.6089C293.037 70.2671 293.48 70.0962 294.074 70.0962C294.66 70.0962 295.104 70.2671 295.405 70.6089C295.714 70.9425 295.869 71.3535 295.869 71.8418C295.869 72.3219 295.714 72.7248 295.405 73.0503C295.096 73.3758 294.652 73.5386 294.074 73.5386C293.488 73.5386 293.045 73.3758 292.744 73.0503C292.451 72.7166 292.304 72.3138 292.304 71.8418ZM295.209 83.4751C295.209 84.2889 295.018 85.119 294.636 85.9653C294.253 86.8117 293.736 87.5238 293.085 88.1016L291.682 87.3325C292.072 86.7629 292.349 86.1566 292.512 85.5137C292.674 84.8708 292.756 84.2035 292.756 83.5117V81.3267H295.209V83.4751ZM42.9429 120.064C43.4393 120.048 43.8543 119.909 44.188 119.649C44.5216 119.389 44.7902 119.055 44.9937 118.648C45.189 118.249 45.3273 117.798 45.4087 117.293C45.4982 116.797 45.543 116.296 45.543 115.792V113.729C45.543 113.086 45.6366 112.492 45.8237 111.946C46.019 111.401 46.3161 110.929 46.7148 110.53C46.9264 110.319 47.1624 110.127 47.4229 109.957C47.6914 109.786 47.9844 109.635 48.3018 109.505C47.9762 109.375 47.6751 109.22 47.3984 109.041C47.1299 108.862 46.8939 108.663 46.6904 108.443C46.2998 108.036 46.0109 107.564 45.8237 107.027C45.6366 106.482 45.543 105.892 45.543 105.257V103.182C45.543 102.685 45.5145 102.185 45.4575 101.68C45.4087 101.176 45.2988 100.72 45.1279 100.313C44.9489 99.9142 44.6885 99.5846 44.3467 99.3242C44.0049 99.0638 43.541 98.9255 42.9551 98.9092L43.1992 97.5054C43.9886 97.5298 44.6641 97.6966 45.2256 98.0059C45.7952 98.3151 46.2632 98.7179 46.6294 99.2144C47.0444 99.7759 47.3415 100.407 47.5205 101.106C47.7077 101.806 47.8013 102.498 47.8013 103.182V105.257C47.8013 105.745 47.846 106.176 47.9355 106.551C48.0332 106.917 48.1756 107.234 48.3628 107.503C48.6313 107.885 49.0016 108.166 49.4736 108.345C49.9538 108.516 50.5275 108.602 51.1948 108.602V110.372C50.6089 110.38 50.0962 110.453 49.6567 110.591C49.2254 110.722 48.8714 110.929 48.5947 111.214C48.3262 111.491 48.1268 111.836 47.9966 112.251C47.8664 112.667 47.8013 113.159 47.8013 113.729V115.792C47.8013 116.443 47.7118 117.098 47.5327 117.757C47.3537 118.424 47.077 119.03 46.7026 119.576C46.3201 120.121 45.84 120.569 45.2622 120.918C44.6844 121.268 43.9967 121.451 43.1992 121.468L42.9429 120.064ZM268.658 187.468C267.869 187.443 267.185 187.26 266.607 186.918C266.03 186.577 265.549 186.125 265.167 185.563C264.801 185.026 264.524 184.424 264.337 183.757C264.15 183.098 264.056 182.443 264.056 181.792V179.729C264.056 178.557 263.775 177.706 263.214 177.177C262.66 176.648 261.81 176.38 260.663 176.372V174.602C261.81 174.602 262.66 174.341 263.214 173.82C263.775 173.291 264.056 172.437 264.056 171.257V169.182C264.056 168.522 264.142 167.851 264.312 167.167C264.492 166.476 264.772 165.857 265.155 165.312C265.513 164.791 265.981 164.368 266.559 164.042C267.136 163.709 267.836 163.53 268.658 163.505L268.915 164.909C268.329 164.925 267.861 165.064 267.511 165.324C267.169 165.585 266.913 165.914 266.742 166.313C266.563 166.72 266.449 167.176 266.4 167.68C266.351 168.185 266.327 168.685 266.327 169.182V171.257C266.327 172.233 266.099 173.092 265.643 173.833C265.195 174.565 264.5 175.122 263.556 175.505C264.5 175.879 265.195 176.437 265.643 177.177C266.091 177.91 266.319 178.76 266.327 179.729V181.792C266.327 182.296 266.367 182.797 266.449 183.293C266.53 183.798 266.673 184.249 266.876 184.648C267.071 185.055 267.332 185.389 267.657 185.649C267.991 185.909 268.41 186.048 268.915 186.064L268.658 187.468ZM75.7808 214.413C76.1877 214.413 76.5824 214.348 76.9648 214.218C77.3555 214.088 77.7013 213.904 78.0024 213.668C78.3035 213.441 78.5436 213.172 78.7227 212.863C78.9098 212.545 79.0075 212.204 79.0156 211.837H81.1519C81.1437 212.423 80.9891 212.985 80.688 213.522C80.395 214.051 80.0003 214.515 79.5039 214.914C79.0075 215.32 78.4378 215.646 77.7949 215.89C77.152 216.126 76.4806 216.244 75.7808 216.244C74.7798 216.244 73.9049 216.065 73.1562 215.707C72.4076 215.349 71.785 214.865 71.2886 214.254C70.784 213.652 70.4056 212.956 70.1533 212.167C69.901 211.369 69.7749 210.531 69.7749 209.652V209.14C69.7749 208.269 69.901 207.435 70.1533 206.637C70.4056 205.84 70.784 205.136 71.2886 204.525C71.785 203.923 72.4076 203.443 73.1562 203.085C73.9049 202.727 74.7798 202.548 75.7808 202.548C76.562 202.548 77.2782 202.674 77.9292 202.926C78.5884 203.17 79.158 203.504 79.6382 203.927C80.1102 204.359 80.4805 204.867 80.749 205.453C81.0176 206.039 81.1519 206.666 81.1519 207.333H79.0156C79.0075 206.934 78.918 206.56 78.7471 206.21C78.5843 205.852 78.3605 205.539 78.0757 205.27C77.7909 205.001 77.4491 204.79 77.0503 204.635C76.6597 204.481 76.2365 204.403 75.7808 204.403C75.0809 204.403 74.4909 204.546 74.0107 204.831C73.5387 205.107 73.1562 205.469 72.8633 205.917C72.5703 206.373 72.3587 206.881 72.2285 207.443C72.1064 208.004 72.0454 208.57 72.0454 209.14V209.652C72.0454 210.23 72.1064 210.804 72.2285 211.374C72.3587 211.935 72.5703 212.44 72.8633 212.887C73.1481 213.343 73.5265 213.713 73.9985 213.998C74.4787 214.275 75.0728 214.413 75.7808 214.413ZM84.0332 209.274C84.0332 208.322 84.1715 207.439 84.4482 206.625C84.7249 205.803 85.1237 205.091 85.6445 204.489C86.1572 203.887 86.7839 203.415 87.5244 203.073C88.265 202.723 89.0991 202.548 90.0269 202.548C90.9627 202.548 91.8009 202.723 92.5415 203.073C93.2902 203.415 93.925 203.887 94.4458 204.489C94.9585 205.091 95.3532 205.803 95.6299 206.625C95.9066 207.439 96.0449 208.322 96.0449 209.274V209.542C96.0449 210.495 95.9066 211.378 95.6299 212.191C95.3532 213.005 94.9585 213.713 94.4458 214.315C93.925 214.918 93.2943 215.39 92.5537 215.731C91.8132 216.073 90.979 216.244 90.0513 216.244C89.1154 216.244 88.2731 216.073 87.5244 215.731C86.7839 215.39 86.1572 214.918 85.6445 214.315C85.1237 213.713 84.7249 213.005 84.4482 212.191C84.1715 211.378 84.0332 210.495 84.0332 209.542V209.274ZM86.2915 209.542C86.2915 210.194 86.3688 210.816 86.5234 211.41C86.6781 211.996 86.9141 212.513 87.2314 212.96C87.5407 213.408 87.9313 213.762 88.4033 214.022C88.8753 214.283 89.4246 214.413 90.0513 214.413C90.6698 214.413 91.2109 214.283 91.6748 214.022C92.1468 213.762 92.5415 213.408 92.8589 212.96C93.1681 212.513 93.4001 211.996 93.5547 211.41C93.7093 210.816 93.7866 210.194 93.7866 209.542V209.274C93.7866 208.631 93.7052 208.017 93.5425 207.431C93.3879 206.837 93.1559 206.316 92.8467 205.868C92.5293 205.421 92.1346 205.067 91.6626 204.806C91.1987 204.538 90.6535 204.403 90.0269 204.403C89.4002 204.403 88.855 204.538 88.3911 204.806C87.9272 205.067 87.5407 205.421 87.2314 205.868C86.9141 206.316 86.6781 206.837 86.5234 207.431C86.3688 208.017 86.2915 208.631 86.2915 209.274V209.542ZM99.5366 197.25H106.287V214.047H110.596V216H99.5366V214.047H104.029V199.215H99.5366V197.25ZM113.062 209.274C113.062 208.322 113.201 207.439 113.478 206.625C113.754 205.803 114.153 205.091 114.674 204.489C115.187 203.887 115.813 203.415 116.554 203.073C117.294 202.723 118.128 202.548 119.056 202.548C119.992 202.548 120.83 202.723 121.571 203.073C122.319 203.415 122.954 203.887 123.475 204.489C123.988 205.091 124.382 205.803 124.659 206.625C124.936 207.439 125.074 208.322 125.074 209.274V209.542C125.074 210.495 124.936 211.378 124.659 212.191C124.382 213.005 123.988 213.713 123.475 214.315C122.954 214.918 122.324 215.39 121.583 215.731C120.842 216.073 120.008 216.244 119.081 216.244C118.145 216.244 117.302 216.073 116.554 215.731C115.813 215.39 115.187 214.918 114.674 214.315C114.153 213.713 113.754 213.005 113.478 212.191C113.201 211.378 113.062 210.495 113.062 209.542V209.274ZM115.321 209.542C115.321 210.194 115.398 210.816 115.553 211.41C115.707 211.996 115.943 212.513 116.261 212.96C116.57 213.408 116.961 213.762 117.433 214.022C117.905 214.283 118.454 214.413 119.081 214.413C119.699 214.413 120.24 214.283 120.704 214.022C121.176 213.762 121.571 213.408 121.888 212.96C122.197 212.513 122.429 211.996 122.584 211.41C122.739 210.816 122.816 210.194 122.816 209.542V209.274C122.816 208.631 122.735 208.017 122.572 207.431C122.417 206.837 122.185 206.316 121.876 205.868C121.559 205.421 121.164 205.067 120.692 204.806C120.228 204.538 119.683 204.403 119.056 204.403C118.43 204.403 117.884 204.538 117.42 204.806C116.957 205.067 116.57 205.421 116.261 205.868C115.943 206.316 115.707 206.837 115.553 207.431C115.398 208.017 115.321 208.631 115.321 209.274V209.542ZM136.867 202.548C137.282 202.548 137.713 202.576 138.161 202.633C138.616 202.69 138.958 202.768 139.186 202.865L138.881 205.075C138.441 204.977 138.022 204.908 137.624 204.867C137.233 204.818 136.822 204.794 136.391 204.794C135.837 204.794 135.337 204.863 134.889 205.001C134.442 205.132 134.051 205.327 133.717 205.587C133.416 205.815 133.152 206.096 132.924 206.43C132.704 206.755 132.521 207.121 132.375 207.528V216H130.104V202.792H132.252L132.35 204.562L132.362 204.892C132.899 204.167 133.542 203.598 134.291 203.183C135.048 202.759 135.906 202.548 136.867 202.548ZM147.268 214.535C147.268 214.055 147.414 213.644 147.707 213.302C148 212.96 148.444 212.79 149.038 212.79C149.624 212.79 150.067 212.96 150.368 213.302C150.677 213.636 150.832 214.047 150.832 214.535C150.832 215.015 150.677 215.418 150.368 215.744C150.059 216.069 149.615 216.232 149.038 216.232C148.452 216.232 148.008 216.069 147.707 215.744C147.414 215.41 147.268 215.007 147.268 214.535ZM147.268 203.842C147.268 203.362 147.414 202.951 147.707 202.609C148 202.267 148.444 202.096 149.038 202.096C149.624 202.096 150.067 202.267 150.368 202.609C150.677 202.943 150.832 203.354 150.832 203.842C150.832 204.322 150.677 204.725 150.368 205.05C150.059 205.376 149.615 205.539 149.038 205.539C148.452 205.539 148.008 205.376 147.707 205.05C147.414 204.717 147.268 204.314 147.268 203.842ZM171.341 209.286C171.341 208.301 171.459 207.398 171.695 206.576C171.939 205.746 172.289 205.034 172.745 204.44C173.2 203.846 173.754 203.382 174.405 203.048C175.056 202.715 175.792 202.548 176.614 202.548C177.143 202.548 177.627 202.609 178.067 202.731C178.514 202.853 178.917 203.032 179.275 203.268C179.471 203.39 179.654 203.533 179.825 203.695C180.004 203.858 180.171 204.037 180.325 204.232L180.435 202.792H182.486V215.719C182.486 216.59 182.347 217.363 182.071 218.039C181.802 218.714 181.424 219.288 180.936 219.76C180.439 220.232 179.849 220.59 179.166 220.834C178.482 221.078 177.725 221.2 176.895 221.2C176.553 221.2 176.163 221.16 175.723 221.078C175.284 221.005 174.84 220.879 174.393 220.7C173.937 220.529 173.497 220.297 173.074 220.004C172.659 219.711 172.301 219.349 172 218.917L173.172 217.562C173.449 217.896 173.733 218.177 174.026 218.405C174.319 218.641 174.616 218.828 174.917 218.966C175.219 219.105 175.52 219.202 175.821 219.259C176.122 219.324 176.423 219.357 176.724 219.357C177.261 219.357 177.745 219.28 178.177 219.125C178.608 218.97 178.978 218.743 179.288 218.441C179.589 218.148 179.821 217.782 179.983 217.343C180.146 216.903 180.228 216.399 180.228 215.829V214.694C180.057 214.889 179.874 215.068 179.678 215.231C179.491 215.394 179.288 215.536 179.068 215.658C178.726 215.845 178.348 215.988 177.933 216.085C177.518 216.191 177.07 216.244 176.59 216.244C175.784 216.244 175.056 216.073 174.405 215.731C173.754 215.39 173.204 214.918 172.757 214.315C172.301 213.713 171.951 213.005 171.707 212.191C171.463 211.369 171.341 210.486 171.341 209.542V209.286ZM173.599 209.542C173.599 210.185 173.664 210.796 173.794 211.374C173.933 211.951 174.148 212.46 174.441 212.899C174.726 213.339 175.092 213.689 175.54 213.949C175.988 214.201 176.525 214.328 177.151 214.328C177.542 214.328 177.892 214.283 178.201 214.193C178.519 214.096 178.803 213.961 179.056 213.791C179.3 213.62 179.52 213.416 179.715 213.18C179.91 212.944 180.081 212.684 180.228 212.399V206.344C180.081 206.068 179.91 205.815 179.715 205.587C179.52 205.36 179.296 205.16 179.043 204.989C178.791 204.826 178.51 204.7 178.201 204.611C177.892 204.513 177.55 204.464 177.176 204.464C176.541 204.464 175.996 204.595 175.54 204.855C175.092 205.115 174.726 205.465 174.441 205.905C174.148 206.352 173.933 206.869 173.794 207.455C173.664 208.033 173.599 208.643 173.599 209.286V209.542ZM194.925 202.548C195.34 202.548 195.772 202.576 196.219 202.633C196.675 202.69 197.017 202.768 197.245 202.865L196.939 205.075C196.5 204.977 196.081 204.908 195.682 204.867C195.292 204.818 194.881 204.794 194.449 204.794C193.896 204.794 193.395 204.863 192.948 205.001C192.5 205.132 192.11 205.327 191.776 205.587C191.475 205.815 191.21 206.096 190.982 206.43C190.763 206.755 190.58 207.121 190.433 207.528V216H188.163V202.792H190.311L190.409 204.562L190.421 204.892C190.958 204.167 191.601 203.598 192.35 203.183C193.106 202.759 193.965 202.548 194.925 202.548ZM206.62 216.244C205.692 216.244 204.838 216.085 204.057 215.768C203.284 215.451 202.62 215.007 202.067 214.438C201.514 213.868 201.082 213.192 200.773 212.411C200.464 211.63 200.309 210.779 200.309 209.86V209.347C200.309 208.281 200.48 207.329 200.822 206.491C201.164 205.644 201.619 204.928 202.189 204.342C202.75 203.764 203.389 203.321 204.105 203.012C204.83 202.702 205.57 202.548 206.327 202.548C207.279 202.548 208.109 202.715 208.817 203.048C209.534 203.374 210.128 203.826 210.6 204.403C211.072 204.989 211.422 205.677 211.649 206.466C211.885 207.256 212.003 208.11 212.003 209.03V210.043H202.567V210.128C202.624 210.771 202.75 211.337 202.946 211.825C203.149 212.313 203.426 212.745 203.776 213.119C204.134 213.518 204.565 213.831 205.07 214.059C205.574 214.287 206.132 214.401 206.742 214.401C207.548 214.401 208.264 214.238 208.891 213.913C209.517 213.587 210.038 213.156 210.453 212.619L211.833 213.693C211.393 214.36 210.734 214.954 209.855 215.475C208.984 215.988 207.906 216.244 206.62 216.244ZM206.327 204.403C205.871 204.403 205.44 204.489 205.033 204.66C204.626 204.822 204.26 205.062 203.935 205.38C203.609 205.705 203.332 206.104 203.104 206.576C202.885 207.04 202.73 207.577 202.641 208.188H209.745V208.078C209.745 207.671 209.668 207.235 209.513 206.771C209.359 206.299 209.143 205.893 208.866 205.551C208.59 205.209 208.24 204.932 207.816 204.721C207.401 204.509 206.905 204.403 206.327 204.403ZM221.135 216.244C220.207 216.244 219.353 216.085 218.571 215.768C217.798 215.451 217.135 215.007 216.582 214.438C216.028 213.868 215.597 213.192 215.288 212.411C214.978 211.63 214.824 210.779 214.824 209.86V209.347C214.824 208.281 214.995 207.329 215.336 206.491C215.678 205.644 216.134 204.928 216.704 204.342C217.265 203.764 217.904 203.321 218.62 203.012C219.344 202.702 220.085 202.548 220.842 202.548C221.794 202.548 222.624 202.715 223.332 203.048C224.048 203.374 224.642 203.826 225.114 204.403C225.586 204.989 225.936 205.677 226.164 206.466C226.4 207.256 226.518 208.11 226.518 209.03V210.043H217.082V210.128C217.139 210.771 217.265 211.337 217.46 211.825C217.664 212.313 217.941 212.745 218.291 213.119C218.649 213.518 219.08 213.831 219.584 214.059C220.089 214.287 220.646 214.401 221.257 214.401C222.062 214.401 222.779 214.238 223.405 213.913C224.032 213.587 224.553 213.156 224.968 212.619L226.347 213.693C225.908 214.36 225.249 214.954 224.37 215.475C223.499 215.988 222.421 216.244 221.135 216.244ZM220.842 204.403C220.386 204.403 219.955 204.489 219.548 204.66C219.141 204.822 218.775 205.062 218.449 205.38C218.124 205.705 217.847 206.104 217.619 206.576C217.399 207.04 217.245 207.577 217.155 208.188H224.26V208.078C224.26 207.671 224.182 207.235 224.028 206.771C223.873 206.299 223.658 205.893 223.381 205.551C223.104 205.209 222.754 204.932 222.331 204.721C221.916 204.509 221.42 204.403 220.842 204.403ZM229.814 216V202.792H231.841L232 204.745C232.195 204.468 232.406 204.216 232.634 203.988C232.87 203.752 233.118 203.549 233.379 203.378C233.77 203.118 234.193 202.918 234.648 202.78C235.112 202.633 235.601 202.556 236.113 202.548C236.805 202.548 237.432 202.646 237.993 202.841C238.563 203.036 239.047 203.341 239.446 203.756C239.845 204.171 240.15 204.7 240.361 205.343C240.581 205.978 240.691 206.735 240.691 207.614V216H238.433V207.663C238.433 207.077 238.368 206.58 238.237 206.173C238.107 205.766 237.916 205.437 237.664 205.185C237.403 204.932 237.086 204.749 236.711 204.635C236.345 204.521 235.922 204.464 235.442 204.464C235.027 204.464 234.64 204.525 234.282 204.647C233.924 204.761 233.595 204.92 233.293 205.124C233.049 205.303 232.821 205.51 232.61 205.746C232.406 205.982 232.227 206.243 232.073 206.527V216H229.814ZM248.76 203.842C248.76 203.362 248.907 202.951 249.2 202.609C249.493 202.267 249.936 202.096 250.53 202.096C251.116 202.096 251.56 202.267 251.861 202.609C252.17 202.943 252.325 203.354 252.325 203.842C252.325 204.322 252.17 204.725 251.861 205.05C251.552 205.376 251.108 205.539 250.53 205.539C249.944 205.539 249.501 205.376 249.2 205.05C248.907 204.717 248.76 204.314 248.76 203.842ZM251.666 215.475C251.666 216.289 251.474 217.119 251.092 217.965C250.709 218.812 250.193 219.524 249.542 220.102L248.138 219.333C248.528 218.763 248.805 218.157 248.968 217.514C249.131 216.871 249.212 216.203 249.212 215.512V213.327H251.666V215.475ZM42.9429 252.064C43.4393 252.048 43.8543 251.909 44.188 251.649C44.5216 251.389 44.7902 251.055 44.9937 250.648C45.189 250.249 45.3273 249.798 45.4087 249.293C45.4982 248.797 45.543 248.296 45.543 247.792V245.729C45.543 245.086 45.6366 244.492 45.8237 243.946C46.019 243.401 46.3161 242.929 46.7148 242.53C46.9264 242.319 47.1624 242.127 47.4229 241.957C47.6914 241.786 47.9844 241.635 48.3018 241.505C47.9762 241.375 47.6751 241.22 47.3984 241.041C47.1299 240.862 46.8939 240.663 46.6904 240.443C46.2998 240.036 46.0109 239.564 45.8237 239.027C45.6366 238.482 45.543 237.892 45.543 237.257V235.182C45.543 234.685 45.5145 234.185 45.4575 233.68C45.4087 233.176 45.2988 232.72 45.1279 232.313C44.9489 231.914 44.6885 231.585 44.3467 231.324C44.0049 231.064 43.541 230.925 42.9551 230.909L43.1992 229.505C43.9886 229.53 44.6641 229.697 45.2256 230.006C45.7952 230.315 46.2632 230.718 46.6294 231.214C47.0444 231.776 47.3415 232.407 47.5205 233.106C47.7077 233.806 47.8013 234.498 47.8013 235.182V237.257C47.8013 237.745 47.846 238.176 47.9355 238.551C48.0332 238.917 48.1756 239.234 48.3628 239.503C48.6313 239.885 49.0016 240.166 49.4736 240.345C49.9538 240.516 50.5275 240.602 51.1948 240.602V242.372C50.6089 242.38 50.0962 242.453 49.6567 242.591C49.2254 242.722 48.8714 242.929 48.5947 243.214C48.3262 243.491 48.1268 243.836 47.9966 244.251C47.8664 244.667 47.8013 245.159 47.8013 245.729V247.792C47.8013 248.443 47.7118 249.098 47.5327 249.757C47.3537 250.424 47.077 251.03 46.7026 251.576C46.3201 252.121 45.84 252.569 45.2622 252.918C44.6844 253.268 43.9967 253.451 43.1992 253.468L42.9429 252.064Z" fill="white"/>
</svg>
