<svg width="1399" height="149" viewBox="0 0 1399 149" fill="none" xmlns="http://www.w3.org/2000/svg">
<rect width="1399" height="149" rx="20" fill="#0066FF" fill-opacity="0.2"/>
<rect x="1.5" y="1.5" width="1396" height="146" rx="18.5" stroke="#0066FF" stroke-opacity="0.5" stroke-width="3"/>
<path d="M46.0547 49.5352C46.0547 49.055 46.2012 48.644 46.4941 48.3022C46.7871 47.9604 47.2306 47.7896 47.8247 47.7896C48.4106 47.7896 48.8542 47.9604 49.1553 48.3022C49.4645 48.6359 49.6191 49.0469 49.6191 49.5352C49.6191 50.0153 49.4645 50.4181 49.1553 50.7437C48.846 51.0692 48.4025 51.2319 47.8247 51.2319C47.2388 51.2319 46.7952 51.0692 46.4941 50.7437C46.2012 50.41 46.0547 50.0072 46.0547 49.5352ZM58.897 39.7573C59.076 39.4888 59.2754 39.2446 59.4951 39.0249C59.7148 38.797 59.9468 38.5977 60.1909 38.4268C60.5815 38.1419 61.0088 37.9263 61.4727 37.7798C61.9447 37.6333 62.4451 37.556 62.9741 37.5479C63.6659 37.5479 64.2925 37.6496 64.854 37.853C65.4237 38.0483 65.9079 38.3576 66.3066 38.7808C66.7054 39.2039 67.0106 39.741 67.2222 40.3921C67.4419 41.035 67.5518 41.8 67.5518 42.687V51H65.2935V42.6626C65.2935 42.1418 65.2324 41.686 65.1104 41.2954C64.9883 40.8966 64.8092 40.5671 64.5732 40.3066C64.321 40.0218 64.0036 39.8102 63.6211 39.6719C63.2386 39.5254 62.7992 39.4562 62.3027 39.4644C61.8958 39.4644 61.5093 39.5213 61.1431 39.6353C60.7769 39.7492 60.4391 39.9119 60.1299 40.1235C59.8857 40.2863 59.6579 40.4775 59.4463 40.6973C59.2428 40.9089 59.0597 41.1449 58.897 41.4053V51H56.6387V32.25H58.897V39.7573ZM76.9883 51.2441C76.0605 51.2441 75.2061 51.0854 74.4248 50.7681C73.6517 50.4507 72.9884 50.0072 72.4351 49.4375C71.8817 48.8678 71.4504 48.1924 71.1411 47.4111C70.8319 46.6299 70.6772 45.7795 70.6772 44.8599V44.3472C70.6772 43.2811 70.8481 42.3289 71.1899 41.4907C71.5317 40.6444 71.9875 39.9282 72.5571 39.3423C73.1187 38.7645 73.7575 38.321 74.4736 38.0117C75.1979 37.7025 75.9385 37.5479 76.6953 37.5479C77.6475 37.5479 78.4775 37.7147 79.1855 38.0483C79.9017 38.3739 80.4958 38.8255 80.9678 39.4033C81.4398 39.9893 81.7897 40.6769 82.0176 41.4663C82.2536 42.2557 82.3716 43.1102 82.3716 44.0298V45.043H72.9355V45.1284C72.9925 45.7713 73.1187 46.3369 73.314 46.8252C73.5174 47.3135 73.7941 47.7448 74.144 48.1191C74.5021 48.5179 74.9334 48.8312 75.438 49.0591C75.9425 49.2869 76.5 49.4009 77.1104 49.4009C77.916 49.4009 78.6322 49.2381 79.2588 48.9126C79.8854 48.5871 80.4062 48.1558 80.8213 47.6187L82.2007 48.6929C81.7612 49.3602 81.1021 49.9543 80.2231 50.4751C79.3524 50.9878 78.2741 51.2441 76.9883 51.2441ZM76.6953 39.4033C76.2396 39.4033 75.8083 39.4888 75.4014 39.6597C74.9945 39.8224 74.6283 40.0625 74.3027 40.3799C73.9772 40.7054 73.7005 41.1042 73.4727 41.5762C73.2529 42.04 73.0983 42.5771 73.0088 43.1875H80.1133V43.0776C80.1133 42.6707 80.036 42.2354 79.8813 41.7715C79.7267 41.2995 79.5111 40.8926 79.2344 40.5508C78.9577 40.209 78.6077 39.9323 78.1846 39.7207C77.7695 39.5091 77.2731 39.4033 76.6953 39.4033ZM94.3472 51C94.2576 50.8291 94.1844 50.6175 94.1274 50.3652C94.0786 50.1048 94.042 49.8363 94.0176 49.5596C93.7897 49.7874 93.5334 50.0031 93.2485 50.2065C92.9718 50.41 92.6667 50.589 92.333 50.7437C91.9912 50.8983 91.6291 51.0203 91.2466 51.1099C90.8641 51.1994 90.4572 51.2441 90.0259 51.2441C89.326 51.2441 88.6912 51.1424 88.1216 50.939C87.5601 50.7355 87.084 50.4588 86.6934 50.1089C86.2946 49.7671 85.9854 49.3602 85.7656 48.8882C85.554 48.408 85.4482 47.8913 85.4482 47.3379C85.4482 46.6136 85.5907 45.9788 85.8755 45.4336C86.1685 44.8883 86.5794 44.4326 87.1084 44.0664C87.6374 43.7083 88.2721 43.4398 89.0127 43.2607C89.7614 43.0817 90.5955 42.9922 91.5151 42.9922H93.981V41.9546C93.981 41.5558 93.9077 41.1978 93.7612 40.8804C93.6147 40.563 93.4072 40.2904 93.1387 40.0625C92.8701 39.8428 92.5405 39.6719 92.1499 39.5498C91.7674 39.4277 91.3361 39.3667 90.856 39.3667C90.4084 39.3667 90.0055 39.4237 89.6475 39.5376C89.2975 39.6515 89.0005 39.8021 88.7563 39.9893C88.5122 40.1764 88.321 40.4002 88.1826 40.6606C88.0524 40.9129 87.9873 41.1774 87.9873 41.4541H85.7168C85.7249 40.974 85.847 40.502 86.083 40.0381C86.3271 39.5742 86.6771 39.1551 87.1328 38.7808C87.5804 38.4146 88.1257 38.1175 88.7686 37.8896C89.4196 37.6618 90.1561 37.5479 90.978 37.5479C91.7267 37.5479 92.4225 37.6414 93.0654 37.8286C93.7083 38.0076 94.2658 38.2803 94.7378 38.6465C95.2017 39.0208 95.5679 39.4847 95.8364 40.0381C96.105 40.5915 96.2393 41.2384 96.2393 41.979V48.1191C96.2393 48.5586 96.2799 49.0265 96.3613 49.5229C96.4427 50.0112 96.5566 50.4385 96.7031 50.8047V51H94.3472ZM90.3555 49.2788C90.7949 49.2788 91.2059 49.2218 91.5884 49.1079C91.9709 48.994 92.3208 48.8434 92.6382 48.6562C92.9474 48.4691 93.216 48.2575 93.4438 48.0215C93.6717 47.7773 93.8507 47.5251 93.981 47.2646V44.5913H91.8813C91.1001 44.5913 90.4165 44.6605 89.8306 44.7988C89.2528 44.929 88.793 45.1325 88.4512 45.4092C88.207 45.6045 88.0199 45.8364 87.8896 46.105C87.7676 46.3735 87.7065 46.6787 87.7065 47.0205C87.7065 47.346 87.7594 47.6471 87.8652 47.9238C87.9792 48.2005 88.146 48.4365 88.3657 48.6318C88.5854 48.8353 88.8621 48.994 89.1958 49.1079C89.5295 49.2218 89.916 49.2788 90.3555 49.2788ZM99.7554 44.2861C99.7554 43.3014 99.8774 42.3981 100.122 41.5762C100.374 40.7461 100.732 40.034 101.196 39.4399C101.652 38.8459 102.205 38.382 102.856 38.0483C103.507 37.7147 104.235 37.5479 105.041 37.5479C105.83 37.5479 106.518 37.6821 107.104 37.9507C107.698 38.2111 108.211 38.5936 108.642 39.0981V32.25H110.9V51H108.825L108.728 49.6084C108.288 50.1455 107.763 50.5524 107.153 50.8291C106.542 51.1058 105.83 51.2441 105.017 51.2441C104.219 51.2441 103.495 51.0732 102.844 50.7314C102.201 50.3896 101.652 49.9176 101.196 49.3154C100.74 48.7132 100.386 48.0052 100.134 47.1914C99.8815 46.3695 99.7554 45.4865 99.7554 44.5425V44.2861ZM102.014 44.5425C102.014 45.1854 102.083 45.7957 102.221 46.3735C102.36 46.9513 102.575 47.46 102.868 47.8994C103.153 48.3389 103.519 48.6888 103.967 48.9492C104.414 49.2015 104.951 49.3276 105.578 49.3276C106.335 49.3276 106.962 49.1567 107.458 48.8149C107.954 48.4731 108.349 48.0133 108.642 47.4355V41.3076C108.349 40.7705 107.954 40.3311 107.458 39.9893C106.962 39.6393 106.343 39.4644 105.603 39.4644C104.968 39.4644 104.423 39.5946 103.967 39.855C103.519 40.1154 103.153 40.4653 102.868 40.9048C102.575 41.3524 102.36 41.8691 102.221 42.4551C102.083 43.0329 102.014 43.6432 102.014 44.2861V44.5425ZM120.532 51.2441C119.604 51.2441 118.75 51.0854 117.969 50.7681C117.196 50.4507 116.532 50.0072 115.979 49.4375C115.426 48.8678 114.994 48.1924 114.685 47.4111C114.376 46.6299 114.221 45.7795 114.221 44.8599V44.3472C114.221 43.2811 114.392 42.3289 114.734 41.4907C115.076 40.6444 115.531 39.9282 116.101 39.3423C116.663 38.7645 117.301 38.321 118.018 38.0117C118.742 37.7025 119.482 37.5479 120.239 37.5479C121.191 37.5479 122.021 37.7147 122.729 38.0483C123.446 38.3739 124.04 38.8255 124.512 39.4033C124.984 39.9893 125.334 40.6769 125.562 41.4663C125.798 42.2557 125.916 43.1102 125.916 44.0298V45.043H116.479V45.1284C116.536 45.7713 116.663 46.3369 116.858 46.8252C117.061 47.3135 117.338 47.7448 117.688 48.1191C118.046 48.5179 118.477 48.8312 118.982 49.0591C119.486 49.2869 120.044 49.4009 120.654 49.4009C121.46 49.4009 122.176 49.2381 122.803 48.9126C123.429 48.5871 123.95 48.1558 124.365 47.6187L125.745 48.6929C125.305 49.3602 124.646 49.9543 123.767 50.4751C122.896 50.9878 121.818 51.2441 120.532 51.2441ZM120.239 39.4033C119.784 39.4033 119.352 39.4888 118.945 39.6597C118.538 39.8224 118.172 40.0625 117.847 40.3799C117.521 40.7054 117.244 41.1042 117.017 41.5762C116.797 42.04 116.642 42.5771 116.553 43.1875H123.657V43.0776C123.657 42.6707 123.58 42.2354 123.425 41.7715C123.271 41.2995 123.055 40.8926 122.778 40.5508C122.502 40.209 122.152 39.9323 121.729 39.7207C121.313 39.5091 120.817 39.4033 120.239 39.4033ZM137.867 37.5479C138.282 37.5479 138.713 37.5763 139.161 37.6333C139.616 37.6903 139.958 37.7676 140.186 37.8652L139.881 40.0747C139.441 39.9771 139.022 39.9079 138.624 39.8672C138.233 39.8184 137.822 39.7939 137.391 39.7939C136.837 39.7939 136.337 39.8631 135.889 40.0015C135.442 40.1317 135.051 40.327 134.717 40.5874C134.416 40.8153 134.152 41.096 133.924 41.4297C133.704 41.7552 133.521 42.1214 133.375 42.5283V51H131.104V37.792H133.252L133.35 39.562L133.362 39.8916C133.899 39.1673 134.542 38.5977 135.291 38.1826C136.048 37.7594 136.906 37.5479 137.867 37.5479ZM304.413 85.5137H303.009L313.544 66.2388H314.936L304.413 85.5137ZM322.871 72.1714L318.513 70.8408L319.135 69.4858L323.396 71.2314L324.042 66.2266H325.458L324.458 71.1948L329.108 69.437L329.365 70.8896L324.531 72.3057L327.131 76.2363L325.898 77.0664L323.652 72.8916L320.234 77.0054L319.147 76.1265L322.871 72.1714ZM344.808 84L347.896 66.2266H352.498C353.174 66.251 353.82 66.3608 354.439 66.5562C355.057 66.7515 355.595 67.0404 356.05 67.4229C356.506 67.8135 356.852 68.2896 357.088 68.8511C357.324 69.4126 357.393 70.0677 357.295 70.8164C357.238 71.321 357.108 71.7767 356.905 72.1836C356.709 72.5824 356.457 72.9445 356.148 73.27C355.839 73.5874 355.489 73.8641 355.098 74.1001C354.716 74.328 354.272 74.5396 353.768 74.7349C354.272 74.8976 354.699 75.1174 355.049 75.394C355.399 75.6707 355.688 75.9881 355.916 76.3462C356.152 76.7205 356.315 77.1274 356.404 77.5669C356.502 78.0063 356.526 78.4621 356.478 78.9341C356.396 79.7153 356.168 80.4152 355.794 81.0337C355.428 81.6522 354.964 82.1812 354.402 82.6206C353.841 83.0601 353.21 83.3978 352.51 83.6338C351.81 83.8698 351.09 83.9919 350.35 84H344.808ZM347.725 75.4551L346.456 82.7183L350.411 82.7305C350.964 82.7142 351.497 82.6165 352.01 82.4375C352.531 82.2503 353.003 81.994 353.426 81.6685C353.841 81.3511 354.191 80.9645 354.476 80.5088C354.769 80.0449 354.96 79.5322 355.049 78.9707C355.131 78.458 355.106 77.9901 354.976 77.5669C354.846 77.1437 354.642 76.7775 354.366 76.4683C354.081 76.1672 353.731 75.9312 353.316 75.7603C352.909 75.5812 352.461 75.4795 351.973 75.4551H347.725ZM347.945 74.1855L351.314 74.1978C351.835 74.1896 352.347 74.1123 352.852 73.9658C353.365 73.8193 353.829 73.5996 354.244 73.3066C354.659 73.0218 355.009 72.6719 355.293 72.2568C355.578 71.8337 355.765 71.3454 355.855 70.792C355.944 70.2467 355.912 69.7747 355.757 69.376C355.603 68.9691 355.367 68.6313 355.049 68.3628C354.732 68.0942 354.349 67.8908 353.902 67.7524C353.462 67.6141 352.999 67.5368 352.51 67.5205H349.092L347.945 74.1855ZM361.41 75.8213H363.448C364.018 75.8457 364.518 75.9637 364.95 76.1753C365.389 76.3869 365.751 76.6717 366.036 77.0298C366.321 77.396 366.524 77.8192 366.646 78.2993C366.769 78.7713 366.801 79.284 366.744 79.8374C366.671 80.4315 366.508 80.9849 366.256 81.4976C366.012 82.0021 365.69 82.4375 365.292 82.8037C364.901 83.1781 364.441 83.471 363.912 83.6826C363.391 83.8861 362.83 83.9919 362.228 84H358.626L360.921 70.792H362.276L361.41 75.8213ZM369.332 84H367.94L370.223 70.792H371.627L369.332 84ZM361.239 77.0542L360.238 82.7549H362.24C362.679 82.7386 363.074 82.6491 363.424 82.4863C363.782 82.3236 364.095 82.1038 364.364 81.8271C364.6 81.5749 364.795 81.2819 364.95 80.9482C365.112 80.6146 365.226 80.2565 365.292 79.874C365.348 79.5241 365.357 79.1864 365.316 78.8608C365.275 78.5272 365.182 78.2301 365.035 77.9697C364.881 77.7093 364.669 77.4977 364.4 77.335C364.132 77.1722 363.806 77.0827 363.424 77.0664L361.239 77.0542ZM378.476 83.0112C378.964 83.0112 379.436 82.9421 379.892 82.8037C380.347 82.6572 380.762 82.4456 381.137 82.1689C381.503 81.9085 381.82 81.5871 382.089 81.2046C382.357 80.8221 382.561 80.3989 382.699 79.9351L384.066 79.9229C383.936 80.5739 383.692 81.168 383.334 81.7051C382.976 82.2422 382.545 82.6938 382.04 83.0601C381.527 83.4425 380.962 83.7396 380.343 83.9512C379.725 84.1546 379.09 84.2523 378.439 84.2441C377.82 84.2441 377.267 84.1546 376.779 83.9756C376.299 83.7884 375.88 83.5361 375.521 83.2188C375.139 82.8932 374.822 82.5067 374.569 82.0591C374.325 81.6115 374.138 81.1232 374.008 80.5942C373.894 80.1385 373.825 79.6624 373.8 79.166C373.784 78.6696 373.808 78.1691 373.874 77.6646L373.947 77.1519C374.077 76.2974 374.321 75.4673 374.679 74.6616C375.045 73.8478 375.513 73.1357 376.083 72.5254C376.628 71.9232 377.275 71.443 378.024 71.085C378.781 70.7188 379.619 70.5397 380.539 70.5479C381.222 70.556 381.837 70.6821 382.382 70.9263C382.935 71.1623 383.407 71.4837 383.798 71.8906C384.18 72.3138 384.469 72.8102 384.665 73.3799C384.86 73.9495 384.941 74.5721 384.909 75.2476L383.554 75.2354C383.578 74.7552 383.525 74.3076 383.395 73.8926C383.273 73.4775 383.082 73.1113 382.821 72.7939C382.553 72.4928 382.219 72.2528 381.82 72.0737C381.43 71.8947 380.986 71.8011 380.49 71.793C379.733 71.7848 379.062 71.9395 378.476 72.2568C377.898 72.5742 377.397 72.9771 376.974 73.4653C376.559 73.978 376.217 74.5558 375.949 75.1987C375.68 75.8416 375.489 76.4927 375.375 77.1519L375.302 77.6646C375.245 78.0633 375.212 78.4743 375.204 78.8975C375.204 79.3125 375.245 79.7153 375.326 80.106C375.391 80.4966 375.501 80.8669 375.656 81.2168C375.81 81.5667 376.018 81.8719 376.278 82.1323C376.531 82.3927 376.836 82.6043 377.194 82.7671C377.56 82.9217 377.987 83.0031 378.476 83.0112ZM387.766 77.2495C387.896 76.3706 388.148 75.5202 388.522 74.6982C388.905 73.8763 389.393 73.152 389.987 72.5254C390.557 71.9313 391.22 71.4512 391.977 71.085C392.734 70.7188 393.576 70.5397 394.504 70.5479C395.131 70.556 395.696 70.6577 396.201 70.853C396.705 71.0402 397.141 71.2965 397.507 71.6221C397.84 71.9232 398.129 72.2731 398.374 72.6719C398.618 73.0706 398.813 73.4979 398.959 73.9536C399.106 74.45 399.2 74.9749 399.24 75.5283C399.289 76.0817 399.277 76.6351 399.204 77.1885L399.143 77.5913C399.012 78.4458 398.76 79.2759 398.386 80.0815C398.02 80.8791 397.552 81.5871 396.982 82.2056C396.404 82.8322 395.729 83.3327 394.956 83.707C394.191 84.0732 393.34 84.2523 392.404 84.2441C391.753 84.236 391.167 84.1302 390.646 83.9268C390.134 83.7152 389.69 83.4344 389.316 83.0845C389.007 82.7915 388.738 82.4578 388.51 82.0835C388.282 81.7091 388.103 81.3104 387.973 80.8872C387.81 80.3908 387.705 79.8659 387.656 79.3125C387.615 78.7591 387.631 78.2017 387.705 77.6401L387.766 77.2495ZM389.133 77.6401C389.043 78.2586 389.035 78.8975 389.108 79.5566C389.182 80.2077 389.361 80.7977 389.646 81.3267C389.898 81.8149 390.256 82.2137 390.72 82.5229C391.192 82.8322 391.77 82.995 392.453 83.0112C393.194 83.0194 393.861 82.8647 394.455 82.5474C395.057 82.23 395.582 81.8109 396.03 81.29C396.469 80.7773 396.835 80.1833 397.128 79.5078C397.421 78.8242 397.617 78.1854 397.714 77.5913L397.775 77.1885C397.865 76.5374 397.865 75.866 397.775 75.1743C397.686 74.4826 397.474 73.8722 397.141 73.3433C396.872 72.8957 396.518 72.5295 396.079 72.2446C395.639 71.9598 395.098 71.8092 394.455 71.793C393.715 71.7848 393.043 71.9435 392.441 72.269C391.839 72.5864 391.318 73.0055 390.878 73.5264C390.439 74.0472 390.077 74.6331 389.792 75.2842C389.507 75.9352 389.308 76.5903 389.194 77.2495L389.133 77.6401ZM414.805 72.0371H409.336L407.261 84H405.82L407.883 72.0371H402.622L402.817 70.792H415L414.805 72.0371ZM424.534 84C424.493 83.6663 424.481 83.3408 424.498 83.0234C424.522 82.6979 424.563 82.3724 424.62 82.0469C424.343 82.3398 424.046 82.6125 423.729 82.8647C423.411 83.1089 423.077 83.3205 422.728 83.4995C422.272 83.7437 421.792 83.9308 421.287 84.061C420.783 84.1912 420.262 84.2523 419.725 84.2441C419.196 84.236 418.691 84.1465 418.211 83.9756C417.731 83.7965 417.324 83.5483 416.99 83.231C416.64 82.9136 416.372 82.5311 416.185 82.0835C416.006 81.6278 415.944 81.1151 416.001 80.5454C416.058 80.0002 416.197 79.516 416.417 79.0928C416.636 78.6696 416.917 78.2993 417.259 77.9819C417.592 77.6727 417.971 77.4123 418.394 77.2007C418.817 76.9891 419.265 76.8141 419.737 76.6758C420.209 76.5456 420.689 76.452 421.177 76.395C421.674 76.3381 422.158 76.3096 422.63 76.3096H425.499L425.743 74.8203C425.808 74.332 425.775 73.9007 425.645 73.5264C425.523 73.152 425.328 72.8346 425.059 72.5742C424.791 72.3138 424.461 72.1185 424.07 71.9883C423.68 71.8499 423.252 71.7808 422.789 71.7808C422.349 71.7726 421.918 71.8255 421.495 71.9395C421.071 72.0452 420.681 72.208 420.323 72.4277C419.965 72.6556 419.651 72.9364 419.383 73.27C419.122 73.5955 418.931 73.9821 418.809 74.4297L417.381 74.4175C417.495 73.7827 417.731 73.2253 418.089 72.7451C418.455 72.2568 418.895 71.8499 419.407 71.5244C419.912 71.1989 420.465 70.9548 421.067 70.792C421.678 70.6211 422.288 70.5397 422.898 70.5479C423.541 70.5479 424.139 70.6455 424.693 70.8408C425.246 71.028 425.722 71.3047 426.121 71.6709C426.512 72.0452 426.801 72.501 426.988 73.0381C427.183 73.5671 427.24 74.1693 427.159 74.8447L426.072 81.229C425.999 81.6685 425.962 82.1079 425.962 82.5474C425.962 82.9787 425.991 83.41 426.048 83.8413L426.023 84H424.534ZM419.932 82.9502C420.429 82.9583 420.913 82.9014 421.385 82.7793C421.857 82.6572 422.3 82.4782 422.715 82.2422C423.114 82.0143 423.488 81.7417 423.838 81.4243C424.196 81.0988 424.514 80.7407 424.791 80.3501L425.303 77.4448L422.825 77.4326C422.41 77.4326 421.967 77.4611 421.495 77.5181C421.023 77.5669 420.567 77.6605 420.127 77.7988C419.81 77.8883 419.505 78.0023 419.212 78.1406C418.927 78.2708 418.667 78.4377 418.431 78.6411C418.178 78.8608 417.963 79.1172 417.784 79.4102C417.613 79.695 417.499 80.0286 417.442 80.4111C417.385 80.8099 417.413 81.1639 417.527 81.4731C417.641 81.7824 417.816 82.0428 418.052 82.2544C418.28 82.4741 418.557 82.645 418.882 82.7671C419.216 82.881 419.566 82.9421 419.932 82.9502ZM450.731 71.793C450.235 71.793 449.751 71.8621 449.279 72.0005C448.815 72.1388 448.392 72.3423 448.009 72.6108C447.619 72.8794 447.285 73.209 447.008 73.5996C446.732 73.9821 446.532 74.4175 446.41 74.9058L445.019 74.918C445.141 74.2425 445.385 73.6362 445.751 73.0991C446.117 72.5539 446.565 72.09 447.094 71.7075C447.615 71.3413 448.192 71.0565 448.827 70.853C449.462 70.6414 450.109 70.5397 450.768 70.5479C451.419 70.5479 452.001 70.6414 452.514 70.8286C453.035 71.0158 453.49 71.2721 453.881 71.5977C454.206 71.8662 454.487 72.1795 454.723 72.5376C454.967 72.8957 455.163 73.2822 455.309 73.6973C455.504 74.21 455.631 74.7593 455.688 75.3452C455.744 75.923 455.736 76.5171 455.663 77.1274L455.59 77.6401C455.451 78.5272 455.191 79.3735 454.809 80.1792C454.434 80.9767 453.95 81.6807 453.356 82.291C452.754 82.8932 452.058 83.3734 451.269 83.7314C450.479 84.0814 449.612 84.2523 448.668 84.2441C447.969 84.236 447.334 84.118 446.764 83.8901C446.194 83.6541 445.714 83.3286 445.324 82.9136C444.925 82.4985 444.624 82.0062 444.42 81.4365C444.217 80.8587 444.14 80.2199 444.188 79.52L445.556 79.5322C445.507 80.0368 445.548 80.5007 445.678 80.9238C445.808 81.3389 446.015 81.701 446.3 82.0103C446.577 82.3195 446.919 82.5636 447.326 82.7427C447.741 82.9136 448.205 82.999 448.717 82.999C449.458 83.0153 450.125 82.8851 450.719 82.6084C451.321 82.3236 451.846 81.9451 452.294 81.4731C452.742 81.0093 453.12 80.4681 453.429 79.8496C453.738 79.2311 453.979 78.5964 454.149 77.9453H447.863L448.083 76.7002H454.271C454.345 76.0817 454.333 75.4795 454.235 74.8936C454.137 74.3076 453.946 73.7827 453.661 73.3188C453.368 72.8713 452.978 72.5091 452.489 72.2324C452.009 71.9476 451.423 71.8011 450.731 71.793ZM470.41 70.792L468.115 84H466.674L468.737 72.0615H463.269L462.365 76.627C462.276 77.1234 462.174 77.6483 462.06 78.2017C461.954 78.755 461.82 79.3003 461.657 79.8374C461.486 80.3826 461.279 80.9035 461.035 81.3999C460.799 81.8963 460.506 82.3358 460.156 82.7183C459.814 83.1007 459.403 83.41 458.923 83.646C458.451 83.8739 457.897 83.9919 457.263 84H456.701L456.884 82.6816H457.312C457.792 82.6654 458.203 82.5555 458.544 82.3521C458.894 82.1405 459.191 81.8678 459.436 81.5342C459.68 81.2087 459.883 80.8384 460.046 80.4233C460.209 80.0002 460.347 79.5648 460.461 79.1172C460.575 78.6777 460.664 78.2424 460.729 77.811C460.803 77.3716 460.872 76.9769 460.937 76.627L462.06 70.792H470.41ZM477.905 84.2441C476.994 84.236 476.196 84.0366 475.513 83.646C474.837 83.2554 474.292 82.7467 473.877 82.1201C473.486 81.5423 473.206 80.875 473.035 80.1182C472.872 79.3613 472.839 78.5841 472.937 77.7866L473.01 77.2495C473.092 76.6961 473.23 76.1468 473.425 75.6016C473.621 75.0482 473.869 74.5192 474.17 74.0146C474.471 73.5182 474.817 73.0584 475.208 72.6353C475.598 72.2039 476.029 71.8337 476.501 71.5244C476.973 71.2152 477.482 70.9751 478.027 70.8042C478.581 70.6252 479.163 70.5397 479.773 70.5479C480.619 70.556 481.34 70.735 481.934 71.085C482.528 71.4268 483.008 71.8825 483.374 72.4521C483.732 73.0137 483.972 73.6566 484.094 74.3809C484.216 75.1051 484.229 75.8457 484.131 76.6025L483.984 77.4937H474.426C474.288 78.2342 474.264 78.9219 474.353 79.5566C474.443 80.1914 474.658 80.7855 475 81.3389C475.293 81.8271 475.692 82.2218 476.196 82.5229C476.709 82.8241 477.307 82.9827 477.991 82.999C478.796 83.0153 479.541 82.8607 480.225 82.5352C480.908 82.2096 481.531 81.7702 482.092 81.2168L482.947 81.937C482.328 82.6857 481.576 83.2594 480.688 83.6582C479.81 84.057 478.882 84.2523 477.905 84.2441ZM479.724 71.8052C479.073 71.7889 478.475 71.911 477.93 72.1714C477.393 72.4237 476.917 72.7573 476.501 73.1724C476.07 73.5874 475.7 74.0635 475.391 74.6006C475.081 75.1377 474.825 75.687 474.622 76.2485L482.727 76.2607L482.764 76.0654C482.861 75.5446 482.865 75.0319 482.776 74.5273C482.686 74.0146 482.511 73.5589 482.251 73.1602C481.982 72.7614 481.637 72.4399 481.213 72.1958C480.79 71.9435 480.294 71.8133 479.724 71.8052ZM491.7 81.9736L497.229 70.8042L498.963 70.792L496.692 84H495.289L496.973 74.2588L491.919 84H490.918L489.197 73.7583L487.415 84H486.011L488.294 70.792H490.076L491.7 81.9736ZM506.251 84.2441C505.34 84.236 504.542 84.0366 503.858 83.646C503.183 83.2554 502.638 82.7467 502.223 82.1201C501.832 81.5423 501.551 80.875 501.38 80.1182C501.218 79.3613 501.185 78.5841 501.283 77.7866L501.356 77.2495C501.437 76.6961 501.576 76.1468 501.771 75.6016C501.966 75.0482 502.215 74.5192 502.516 74.0146C502.817 73.5182 503.163 73.0584 503.553 72.6353C503.944 72.2039 504.375 71.8337 504.847 71.5244C505.319 71.2152 505.828 70.9751 506.373 70.8042C506.926 70.6252 507.508 70.5397 508.119 70.5479C508.965 70.556 509.685 70.735 510.279 71.085C510.873 71.4268 511.354 71.8825 511.72 72.4521C512.078 73.0137 512.318 73.6566 512.44 74.3809C512.562 75.1051 512.574 75.8457 512.477 76.6025L512.33 77.4937H502.772C502.634 78.2342 502.609 78.9219 502.699 79.5566C502.788 80.1914 503.004 80.7855 503.346 81.3389C503.639 81.8271 504.037 82.2218 504.542 82.5229C505.055 82.8241 505.653 82.9827 506.336 82.999C507.142 83.0153 507.887 82.8607 508.57 82.5352C509.254 82.2096 509.876 81.7702 510.438 81.2168L511.292 81.937C510.674 82.6857 509.921 83.2594 509.034 83.6582C508.155 84.057 507.228 84.2523 506.251 84.2441ZM508.07 71.8052C507.419 71.7889 506.821 71.911 506.275 72.1714C505.738 72.4237 505.262 72.7573 504.847 73.1724C504.416 73.5874 504.046 74.0635 503.736 74.6006C503.427 75.1377 503.171 75.687 502.967 76.2485L511.073 76.2607L511.109 76.0654C511.207 75.5446 511.211 75.0319 511.122 74.5273C511.032 74.0146 510.857 73.5589 510.597 73.1602C510.328 72.7614 509.982 72.4399 509.559 72.1958C509.136 71.9435 508.639 71.8133 508.07 71.8052ZM524.916 84H523.476L524.525 77.9453H517.299L516.249 84H514.821L517.104 70.792H518.532L517.506 76.7002H524.733L525.758 70.792H527.199L524.916 84ZM542.36 72.0371H536.892L534.816 84H533.376L535.439 72.0371H530.178L530.373 70.792H542.556L542.36 72.0371ZM552.09 84C552.049 83.6663 552.037 83.3408 552.053 83.0234C552.078 82.6979 552.118 82.3724 552.175 82.0469C551.899 82.3398 551.602 82.6125 551.284 82.8647C550.967 83.1089 550.633 83.3205 550.283 83.4995C549.827 83.7437 549.347 83.9308 548.843 84.061C548.338 84.1912 547.817 84.2523 547.28 84.2441C546.751 84.236 546.247 84.1465 545.767 83.9756C545.286 83.7965 544.88 83.5483 544.546 83.231C544.196 82.9136 543.927 82.5311 543.74 82.0835C543.561 81.6278 543.5 81.1151 543.557 80.5454C543.614 80.0002 543.752 79.516 543.972 79.0928C544.192 78.6696 544.473 78.2993 544.814 77.9819C545.148 77.6727 545.527 77.4123 545.95 77.2007C546.373 76.9891 546.82 76.8141 547.292 76.6758C547.764 76.5456 548.245 76.452 548.733 76.395C549.229 76.3381 549.714 76.3096 550.186 76.3096H553.054L553.298 74.8203C553.363 74.332 553.331 73.9007 553.201 73.5264C553.079 73.152 552.883 72.8346 552.615 72.5742C552.346 72.3138 552.017 72.1185 551.626 71.9883C551.235 71.8499 550.808 71.7808 550.344 71.7808C549.905 71.7726 549.473 71.8255 549.05 71.9395C548.627 72.0452 548.236 72.208 547.878 72.4277C547.52 72.6556 547.207 72.9364 546.938 73.27C546.678 73.5955 546.487 73.9821 546.365 74.4297L544.937 74.4175C545.05 73.7827 545.286 73.2253 545.645 72.7451C546.011 72.2568 546.45 71.8499 546.963 71.5244C547.467 71.1989 548.021 70.9548 548.623 70.792C549.233 70.6211 549.844 70.5397 550.454 70.5479C551.097 70.5479 551.695 70.6455 552.249 70.8408C552.802 71.028 553.278 71.3047 553.677 71.6709C554.067 72.0452 554.356 72.501 554.543 73.0381C554.739 73.5671 554.796 74.1693 554.714 74.8447L553.628 81.229C553.555 81.6685 553.518 82.1079 553.518 82.5474C553.518 82.9787 553.547 83.41 553.604 83.8413L553.579 84H552.09ZM547.488 82.9502C547.984 82.9583 548.468 82.9014 548.94 82.7793C549.412 82.6572 549.856 82.4782 550.271 82.2422C550.67 82.0143 551.044 81.7417 551.394 81.4243C551.752 81.0988 552.069 80.7407 552.346 80.3501L552.859 77.4448L550.381 77.4326C549.966 77.4326 549.522 77.4611 549.05 77.5181C548.578 77.5669 548.123 77.6605 547.683 77.7988C547.366 77.8883 547.061 78.0023 546.768 78.1406C546.483 78.2708 546.222 78.4377 545.986 78.6411C545.734 78.8608 545.518 79.1172 545.339 79.4102C545.168 79.695 545.055 80.0286 544.998 80.4111C544.941 80.8099 544.969 81.1639 545.083 81.4731C545.197 81.7824 545.372 82.0428 545.608 82.2544C545.836 82.4741 546.112 82.645 546.438 82.7671C546.772 82.881 547.122 82.9421 547.488 82.9502ZM578.653 71.6587C579.483 71.6668 580.208 71.8377 580.826 72.1714C581.445 72.4969 581.953 72.9282 582.352 73.4653C582.751 74.0106 583.032 74.6372 583.194 75.3452C583.365 76.0532 583.406 76.7938 583.316 77.5669L583.268 77.9697C583.146 78.8079 582.905 79.6095 582.547 80.3745C582.197 81.1313 581.738 81.7987 581.168 82.3765C580.606 82.9543 579.951 83.4141 579.203 83.7559C578.454 84.0895 577.636 84.2523 576.749 84.2441C575.878 84.236 575.117 84.057 574.466 83.707C573.823 83.349 573.299 82.881 572.892 82.3032C572.485 81.7254 572.2 81.0622 572.037 80.3135C571.874 79.5566 571.842 78.7795 571.939 77.9819L571.988 77.5791L572 77.4814L572.123 76.688C572.22 75.9963 572.359 75.3005 572.538 74.6006C572.725 73.9007 572.957 73.2212 573.233 72.562C573.502 71.911 573.827 71.2925 574.21 70.7065C574.592 70.1125 575.032 69.5794 575.528 69.1074C576.025 68.6436 576.582 68.2489 577.201 67.9233C577.827 67.5897 578.519 67.3537 579.276 67.2153C579.642 67.1502 580.016 67.0811 580.399 67.0078C580.79 66.9264 581.152 66.8084 581.485 66.6538C581.819 66.5073 582.116 66.3079 582.376 66.0557C582.637 65.8034 582.824 65.4697 582.938 65.0547H584.171C584.065 65.6813 583.87 66.1981 583.585 66.605C583.3 67.0037 582.954 67.3293 582.547 67.5815C582.124 67.8257 581.656 68.0169 581.144 68.1553C580.631 68.2936 580.094 68.4116 579.532 68.5093C578.775 68.6313 578.1 68.8633 577.506 69.2051C576.92 69.5387 576.399 69.9456 575.943 70.4258C575.488 70.9222 575.089 71.4756 574.747 72.0859C574.405 72.6882 574.104 73.327 573.844 74.0024C574.462 73.2944 575.178 72.7248 575.992 72.2935C576.806 71.8621 577.693 71.6506 578.653 71.6587ZM578.409 72.9038C577.742 72.8957 577.123 73.0177 576.554 73.27C575.984 73.5223 575.484 73.8641 575.052 74.2954C574.621 74.7267 574.263 75.2272 573.978 75.7969C573.701 76.3665 573.51 76.9647 573.404 77.5913L573.343 77.9941C573.27 78.5882 573.278 79.1823 573.368 79.7764C573.465 80.3704 573.653 80.9035 573.929 81.3755C574.206 81.8475 574.58 82.234 575.052 82.5352C575.524 82.8363 576.102 82.9909 576.786 82.999C577.486 83.0153 578.124 82.881 578.702 82.5962C579.28 82.3114 579.785 81.9329 580.216 81.4609C580.647 80.9889 580.997 80.4478 581.266 79.8374C581.542 79.2271 581.734 78.6045 581.839 77.9697L581.888 77.5669C581.961 76.9728 581.941 76.3991 581.827 75.8457C581.721 75.2842 581.522 74.7878 581.229 74.3564C580.936 73.9251 580.554 73.5793 580.082 73.3188C579.61 73.0503 579.052 72.9119 578.409 72.9038ZM590.983 81.2656L591.215 81.8027L597.697 70.8042H599.381L590.128 86.124C589.884 86.5472 589.608 86.95 589.298 87.3325C588.989 87.7231 588.651 88.069 588.285 88.3701C587.911 88.6631 587.5 88.8991 587.052 89.0781C586.613 89.2572 586.129 89.3467 585.6 89.3467C585.388 89.3467 585.176 89.3304 584.965 89.2979C584.761 89.2653 584.554 89.2287 584.342 89.188L584.623 87.9429C584.794 87.9673 584.961 87.9917 585.124 88.0161C585.294 88.0405 585.461 88.0527 585.624 88.0527C585.998 88.0446 586.348 87.9673 586.674 87.8208C586.999 87.6825 587.296 87.4993 587.565 87.2715C587.833 87.0436 588.078 86.7832 588.297 86.4902C588.525 86.1973 588.733 85.9043 588.92 85.6113L590.189 83.585L586.662 70.7798H588.212L590.983 81.2656ZM599.919 82.7671C600.293 82.5555 600.631 82.2788 600.932 81.937C601.241 81.5952 601.518 81.2168 601.762 80.8018C601.99 80.403 602.194 79.9798 602.373 79.5322C602.552 79.0846 602.71 78.6289 602.849 78.165C602.979 77.7093 603.097 77.2576 603.203 76.8101C603.308 76.3625 603.402 75.9474 603.483 75.5649L604.521 70.792H612.089L610.026 82.7549H611.357L610.368 87.8818H609.038L609.709 84H600.102L599.431 87.8818H598.186L598.955 82.7549L599.919 82.7671ZM604.924 75.5649C604.785 76.2078 604.631 76.8507 604.46 77.4937C604.297 78.1366 604.098 78.7673 603.862 79.3857C603.618 80.0042 603.337 80.5983 603.02 81.168C602.702 81.7376 602.32 82.2747 601.872 82.7793L608.598 82.7549L610.429 72.1592H605.656L604.924 75.5649ZM619.634 84.2441C618.722 84.236 617.925 84.0366 617.241 83.646C616.566 83.2554 616.021 82.7467 615.605 82.1201C615.215 81.5423 614.934 80.875 614.763 80.1182C614.6 79.3613 614.568 78.5841 614.666 77.7866L614.739 77.2495C614.82 76.6961 614.958 76.1468 615.154 75.6016C615.349 75.0482 615.597 74.5192 615.898 74.0146C616.2 73.5182 616.545 73.0584 616.936 72.6353C617.327 72.2039 617.758 71.8337 618.23 71.5244C618.702 71.2152 619.211 70.9751 619.756 70.8042C620.309 70.6252 620.891 70.5397 621.501 70.5479C622.348 70.556 623.068 70.735 623.662 71.085C624.256 71.4268 624.736 71.8825 625.103 72.4521C625.461 73.0137 625.701 73.6566 625.823 74.3809C625.945 75.1051 625.957 75.8457 625.859 76.6025L625.713 77.4937H616.155C616.016 78.2342 615.992 78.9219 616.082 79.5566C616.171 80.1914 616.387 80.7855 616.729 81.3389C617.021 81.8271 617.42 82.2218 617.925 82.5229C618.438 82.8241 619.036 82.9827 619.719 82.999C620.525 83.0153 621.27 82.8607 621.953 82.5352C622.637 82.2096 623.259 81.7702 623.821 81.2168L624.675 81.937C624.057 82.6857 623.304 83.2594 622.417 83.6582C621.538 84.057 620.61 84.2523 619.634 84.2441ZM621.453 71.8052C620.802 71.7889 620.203 71.911 619.658 72.1714C619.121 72.4237 618.645 72.7573 618.23 73.1724C617.799 73.5874 617.428 74.0635 617.119 74.6006C616.81 75.1377 616.554 75.687 616.35 76.2485L624.456 76.2607L624.492 76.0654C624.59 75.5446 624.594 75.0319 624.504 74.5273C624.415 74.0146 624.24 73.5589 623.979 73.1602C623.711 72.7614 623.365 72.4399 622.942 72.1958C622.519 71.9435 622.022 71.8133 621.453 71.8052ZM641.57 72.0371H636.102L634.026 84H632.586L634.649 72.0371H629.388L629.583 70.792H641.766L641.57 72.0371ZM658.979 74.8691L661.31 66.2266H669.953L669.708 67.6426H662.311L660.602 73.5874C661.107 73.2619 661.64 73.0177 662.201 72.855C662.771 72.6922 663.357 72.6108 663.959 72.6108C664.757 72.619 665.44 72.7858 666.01 73.1113C666.588 73.4287 667.056 73.8519 667.414 74.3809C667.764 74.9098 668.004 75.5161 668.134 76.1997C668.264 76.8752 668.284 77.575 668.195 78.2993C668.089 79.105 667.877 79.87 667.56 80.5942C667.243 81.3185 666.828 81.9492 666.315 82.4863C665.802 83.0316 665.196 83.4629 664.496 83.7803C663.796 84.0977 663.019 84.2523 662.165 84.2441C661.432 84.236 660.781 84.1058 660.211 83.8535C659.65 83.6012 659.178 83.2554 658.795 82.8159C658.405 82.3765 658.108 81.8597 657.904 81.2656C657.701 80.6634 657.599 80.0164 657.599 79.3247H658.954C658.954 79.8455 659.019 80.3298 659.149 80.7773C659.28 81.2168 659.483 81.5993 659.76 81.9248C660.02 82.2585 660.354 82.5189 660.761 82.7061C661.176 82.8932 661.656 82.9909 662.201 82.999C662.877 83.0072 663.475 82.881 663.996 82.6206C664.525 82.3602 664.976 82.0103 665.351 81.5708C665.725 81.1313 666.03 80.6309 666.266 80.0693C666.502 79.4997 666.665 78.9137 666.754 78.3115C666.828 77.7663 666.824 77.2332 666.742 76.7124C666.661 76.1916 666.494 75.7277 666.242 75.3208C665.989 74.922 665.648 74.5965 665.216 74.3442C664.785 74.092 664.264 73.9618 663.654 73.9536C662.978 73.9373 662.352 74.0431 661.774 74.271C661.204 74.4989 660.655 74.8081 660.126 75.1987L658.979 74.8691ZM682.465 76.9565C682.368 77.5425 682.233 78.1325 682.062 78.7266C681.892 79.3125 681.676 79.874 681.416 80.4111C681.123 81.0052 680.773 81.5586 680.366 82.0713C679.967 82.5758 679.503 82.999 678.974 83.3408C678.551 83.6338 678.083 83.8576 677.57 84.0122C677.058 84.175 676.5 84.2523 675.898 84.2441C675.239 84.236 674.661 84.1261 674.165 83.9146C673.676 83.6948 673.261 83.4059 672.919 83.0479C672.569 82.6979 672.289 82.2869 672.077 81.8149C671.874 81.3348 671.723 80.8221 671.625 80.2769C671.528 79.7479 671.479 79.2026 671.479 78.6411C671.479 78.0715 671.52 77.514 671.601 76.9688L672.211 73.2578C672.301 72.68 672.431 72.0981 672.602 71.5122C672.781 70.9181 673.005 70.3485 673.273 69.8032C673.534 69.2661 673.839 68.7616 674.189 68.2896C674.547 67.8175 674.958 67.4066 675.422 67.0566C675.869 66.7148 676.374 66.4463 676.936 66.251C677.497 66.0557 678.116 65.9621 678.791 65.9702C679.564 65.9784 680.223 66.1289 680.769 66.4219C681.322 66.7067 681.77 67.0851 682.111 67.5571C682.421 67.9803 682.661 68.4645 682.832 69.0098C683.002 69.555 683.112 70.1125 683.161 70.6821C683.202 71.089 683.214 71.5203 683.198 71.9761C683.181 72.4237 683.141 72.8509 683.076 73.2578L682.465 76.9565ZM678.742 67.2275C678.205 67.2194 677.717 67.2967 677.277 67.4595C676.838 67.6141 676.443 67.8338 676.093 68.1187C675.751 68.4035 675.442 68.7371 675.166 69.1196C674.897 69.494 674.665 69.9009 674.47 70.3403C674.283 70.7716 674.124 71.2152 673.994 71.6709C673.863 72.1185 673.762 72.5661 673.688 73.0137L673.139 76.2607C673.074 76.5944 673.029 76.8955 673.005 77.1641C672.989 77.4245 672.972 77.6971 672.956 77.9819L681.831 70.8774C681.814 70.3892 681.745 69.9253 681.623 69.4858C681.501 69.0464 681.318 68.6598 681.074 68.3262C680.821 67.9925 680.504 67.728 680.122 67.5327C679.739 67.3374 679.279 67.2357 678.742 67.2275ZM675.947 82.999C676.451 83.0072 676.911 82.9421 677.326 82.8037C677.741 82.6572 678.12 82.4538 678.461 82.1934C678.844 81.9085 679.182 81.5627 679.475 81.1558C679.768 80.7407 680.016 80.3013 680.219 79.8374C680.406 79.4142 680.561 78.9788 680.683 78.5312C680.813 78.0755 680.915 77.632 680.988 77.2007L681.489 74.271C681.546 73.9455 681.59 73.6403 681.623 73.3555C681.656 73.0706 681.688 72.7492 681.721 72.3911L672.858 79.459C672.891 79.9391 672.968 80.3908 673.09 80.814C673.221 81.2371 673.412 81.6115 673.664 81.937C673.908 82.2544 674.217 82.5107 674.592 82.7061C674.974 82.8932 675.426 82.9909 675.947 82.999ZM709.163 84H707.723L709.786 72.0615H702.571L700.508 84H699.068L701.363 70.792H711.434L709.163 84ZM724.129 70.8042L725.619 70.792L723.336 84H721.896L723.763 73.2212L714.718 84H713.253L715.523 70.792H716.952L715.06 81.6196L724.129 70.8042ZM732.492 77.9575H730.099L729.049 84H727.609L729.892 70.792H731.332L730.319 76.6392H732.541L738.693 70.792L740.658 70.8042L733.773 77.2861L738.852 84H737.094L732.492 77.9575ZM746.97 83.0112C747.458 83.0112 747.93 82.9421 748.386 82.8037C748.841 82.6572 749.257 82.4456 749.631 82.1689C749.997 81.9085 750.314 81.5871 750.583 81.2046C750.852 80.8221 751.055 80.3989 751.193 79.9351L752.561 79.9229C752.43 80.5739 752.186 81.168 751.828 81.7051C751.47 82.2422 751.039 82.6938 750.534 83.0601C750.021 83.4425 749.456 83.7396 748.837 83.9512C748.219 84.1546 747.584 84.2523 746.933 84.2441C746.315 84.2441 745.761 84.1546 745.273 83.9756C744.793 83.7884 744.374 83.5361 744.016 83.2188C743.633 82.8932 743.316 82.5067 743.063 82.0591C742.819 81.6115 742.632 81.1232 742.502 80.5942C742.388 80.1385 742.319 79.6624 742.294 79.166C742.278 78.6696 742.303 78.1691 742.368 77.6646L742.441 77.1519C742.571 76.2974 742.815 75.4673 743.173 74.6616C743.54 73.8478 744.007 73.1357 744.577 72.5254C745.122 71.9232 745.769 71.443 746.518 71.085C747.275 70.7188 748.113 70.5397 749.033 70.5479C749.716 70.556 750.331 70.6821 750.876 70.9263C751.429 71.1623 751.901 71.4837 752.292 71.8906C752.674 72.3138 752.963 72.8102 753.159 73.3799C753.354 73.9495 753.435 74.5721 753.403 75.2476L752.048 75.2354C752.072 74.7552 752.019 74.3076 751.889 73.8926C751.767 73.4775 751.576 73.1113 751.315 72.7939C751.047 72.4928 750.713 72.2528 750.314 72.0737C749.924 71.8947 749.48 71.8011 748.984 71.793C748.227 71.7848 747.556 71.9395 746.97 72.2568C746.392 72.5742 745.891 72.9771 745.468 73.4653C745.053 73.978 744.711 74.5558 744.443 75.1987C744.174 75.8416 743.983 76.4927 743.869 77.1519L743.796 77.6646C743.739 78.0633 743.706 78.4743 743.698 78.8975C743.698 79.3125 743.739 79.7153 743.82 80.106C743.885 80.4966 743.995 80.8669 744.15 81.2168C744.305 81.5667 744.512 81.8719 744.772 82.1323C745.025 82.3927 745.33 82.6043 745.688 82.7671C746.054 82.9217 746.481 83.0031 746.97 83.0112ZM761.362 84.2441C760.451 84.236 759.653 84.0366 758.97 83.646C758.294 83.2554 757.749 82.7467 757.334 82.1201C756.943 81.5423 756.663 80.875 756.492 80.1182C756.329 79.3613 756.296 78.5841 756.394 77.7866L756.467 77.2495C756.549 76.6961 756.687 76.1468 756.882 75.6016C757.078 75.0482 757.326 74.5192 757.627 74.0146C757.928 73.5182 758.274 73.0584 758.665 72.6353C759.055 72.2039 759.486 71.8337 759.958 71.5244C760.431 71.2152 760.939 70.9751 761.484 70.8042C762.038 70.6252 762.62 70.5397 763.23 70.5479C764.076 70.556 764.797 70.735 765.391 71.085C765.985 71.4268 766.465 71.8825 766.831 72.4521C767.189 73.0137 767.429 73.6566 767.551 74.3809C767.673 75.1051 767.686 75.8457 767.588 76.6025L767.441 77.4937H757.883C757.745 78.2342 757.721 78.9219 757.81 79.5566C757.9 80.1914 758.115 80.7855 758.457 81.3389C758.75 81.8271 759.149 82.2218 759.653 82.5229C760.166 82.8241 760.764 82.9827 761.448 82.999C762.253 83.0153 762.998 82.8607 763.682 82.5352C764.365 82.2096 764.988 81.7702 765.549 81.2168L766.404 81.937C765.785 82.6857 765.033 83.2594 764.146 83.6582C763.267 84.057 762.339 84.2523 761.362 84.2441ZM763.181 71.8052C762.53 71.7889 761.932 71.911 761.387 72.1714C760.85 72.4237 760.374 72.7573 759.958 73.1724C759.527 73.5874 759.157 74.0635 758.848 74.6006C758.538 75.1377 758.282 75.687 758.079 76.2485L766.184 76.2607L766.221 76.0654C766.318 75.5446 766.322 75.0319 766.233 74.5273C766.143 74.0146 765.968 73.5589 765.708 73.1602C765.439 72.7614 765.094 72.4399 764.67 72.1958C764.247 71.9435 763.751 71.8133 763.181 71.8052ZM782.212 70.792L779.917 84H778.477L780.54 72.0615H775.071L774.168 76.627C774.078 77.1234 773.977 77.6483 773.863 78.2017C773.757 78.755 773.623 79.3003 773.46 79.8374C773.289 80.3826 773.082 80.9035 772.837 81.3999C772.601 81.8963 772.308 82.3358 771.958 82.7183C771.617 83.1007 771.206 83.41 770.726 83.646C770.254 83.8739 769.7 83.9919 769.065 84H768.504L768.687 82.6816H769.114C769.594 82.6654 770.005 82.5555 770.347 82.3521C770.697 82.1405 770.994 81.8678 771.238 81.5342C771.482 81.2087 771.686 80.8384 771.849 80.4233C772.011 80.0002 772.15 79.5648 772.264 79.1172C772.378 78.6777 772.467 78.2424 772.532 77.811C772.605 77.3716 772.675 76.9769 772.74 76.627L773.863 70.792H782.212ZM789.708 84.2441C788.797 84.236 787.999 84.0366 787.315 83.646C786.64 83.2554 786.095 82.7467 785.68 82.1201C785.289 81.5423 785.008 80.875 784.837 80.1182C784.675 79.3613 784.642 78.5841 784.74 77.7866L784.813 77.2495C784.894 76.6961 785.033 76.1468 785.228 75.6016C785.423 75.0482 785.672 74.5192 785.973 74.0146C786.274 73.5182 786.62 73.0584 787.01 72.6353C787.401 72.2039 787.832 71.8337 788.304 71.5244C788.776 71.2152 789.285 70.9751 789.83 70.8042C790.383 70.6252 790.965 70.5397 791.576 70.5479C792.422 70.556 793.142 70.735 793.736 71.085C794.33 71.4268 794.811 71.8825 795.177 72.4521C795.535 73.0137 795.775 73.6566 795.897 74.3809C796.019 75.1051 796.031 75.8457 795.934 76.6025L795.787 77.4937H786.229C786.091 78.2342 786.066 78.9219 786.156 79.5566C786.245 80.1914 786.461 80.7855 786.803 81.3389C787.096 81.8271 787.494 82.2218 787.999 82.5229C788.512 82.8241 789.11 82.9827 789.793 82.999C790.599 83.0153 791.344 82.8607 792.027 82.5352C792.711 82.2096 793.333 81.7702 793.895 81.2168L794.75 81.937C794.131 82.6857 793.378 83.2594 792.491 83.6582C791.612 84.057 790.685 84.2523 789.708 84.2441ZM791.527 71.8052C790.876 71.7889 790.278 71.911 789.732 72.1714C789.195 72.4237 788.719 72.7573 788.304 73.1724C787.873 73.5874 787.503 74.0635 787.193 74.6006C786.884 75.1377 786.628 75.687 786.424 76.2485L794.53 76.2607L794.566 76.0654C794.664 75.5446 794.668 75.0319 794.579 74.5273C794.489 74.0146 794.314 73.5589 794.054 73.1602C793.785 72.7614 793.439 72.4399 793.016 72.1958C792.593 71.9435 792.097 71.8133 791.527 71.8052ZM809.167 70.8042L810.656 70.792L808.373 84H806.933L808.8 73.2212L799.755 84H798.29L800.561 70.792H801.989L800.097 81.6196L809.167 70.8042ZM809.789 65.7505C809.716 66.2306 809.569 66.666 809.35 67.0566C809.138 67.4473 808.869 67.7769 808.544 68.0454C808.218 68.3221 807.844 68.5337 807.421 68.6802C806.998 68.8267 806.542 68.8958 806.054 68.8877C805.574 68.8877 805.142 68.8104 804.76 68.6558C804.377 68.5011 804.052 68.2855 803.783 68.0088C803.507 67.7402 803.299 67.4147 803.161 67.0322C803.022 66.6497 802.957 66.2184 802.965 65.7383L804.174 65.7505C804.158 66.076 804.186 66.373 804.259 66.6416C804.341 66.902 804.467 67.1217 804.638 67.3008C804.792 67.4717 804.988 67.606 805.224 67.7036C805.46 67.7931 805.736 67.8379 806.054 67.8379C806.412 67.8298 806.733 67.7728 807.018 67.667C807.303 67.5612 807.555 67.4066 807.775 67.2031C807.97 67.0241 808.133 66.8125 808.263 66.5684C808.402 66.3242 808.507 66.0557 808.581 65.7627L809.789 65.7505ZM833.093 72.1714L828.735 70.8408L829.358 69.4858L833.618 71.2314L834.265 66.2266H835.681L834.68 71.1948L839.331 69.437L839.587 70.8896L834.753 72.3057L837.354 76.2363L836.121 77.0664L833.875 72.8916L830.457 77.0054L829.37 76.1265L833.093 72.1714ZM842.981 85.5137H841.578L852.112 66.2388H853.504L842.981 85.5137Z" fill="#0066FF"/>
<path d="M168.056 55.4678C167.266 55.4434 166.583 55.2603 166.005 54.9185C165.427 54.5767 164.947 54.125 164.564 53.5635C164.198 53.0264 163.922 52.4242 163.734 51.7568C163.547 51.0977 163.454 50.4425 163.454 49.7915V47.7285C163.454 46.5566 163.173 45.7062 162.611 45.1772C162.058 44.6483 161.208 44.3797 160.06 44.3716V42.6016C161.208 42.6016 162.058 42.3411 162.611 41.8203C163.173 41.2913 163.454 40.4368 163.454 39.2568V37.1816C163.454 36.5225 163.539 35.8511 163.71 35.1675C163.889 34.4757 164.17 33.8573 164.552 33.312C164.91 32.7912 165.378 32.368 165.956 32.0425C166.534 31.7088 167.234 31.5298 168.056 31.5054L168.312 32.9092C167.726 32.9255 167.258 33.0638 166.908 33.3242C166.566 33.5846 166.31 33.9142 166.139 34.313C165.96 34.7199 165.846 35.1756 165.797 35.6802C165.749 36.1847 165.724 36.6852 165.724 37.1816V39.2568C165.724 40.2334 165.496 41.092 165.041 41.8325C164.593 42.5649 163.897 43.1224 162.953 43.5049C163.897 43.8792 164.593 44.4367 165.041 45.1772C165.488 45.9097 165.716 46.7601 165.724 47.7285V49.7915C165.724 50.2961 165.765 50.7965 165.846 51.293C165.928 51.7975 166.07 52.2492 166.273 52.6479C166.469 53.0549 166.729 53.3885 167.055 53.6489C167.388 53.9093 167.807 54.0477 168.312 54.064L168.056 55.4678ZM102.441 72.7573C102.62 72.4888 102.819 72.2446 103.039 72.0249C103.259 71.797 103.491 71.5977 103.735 71.4268C104.125 71.1419 104.553 70.9263 105.017 70.7798C105.489 70.6333 105.989 70.556 106.518 70.5479C107.21 70.5479 107.836 70.6496 108.398 70.853C108.968 71.0483 109.452 71.3576 109.851 71.7808C110.249 72.2039 110.555 72.741 110.766 73.3921C110.986 74.035 111.096 74.8 111.096 75.687V84H108.837V75.6626C108.837 75.1418 108.776 74.686 108.654 74.2954C108.532 73.8966 108.353 73.5671 108.117 73.3066C107.865 73.0218 107.548 72.8102 107.165 72.6719C106.783 72.5254 106.343 72.4562 105.847 72.4644C105.44 72.4644 105.053 72.5213 104.687 72.6353C104.321 72.7492 103.983 72.9119 103.674 73.1235C103.43 73.2863 103.202 73.4775 102.99 73.6973C102.787 73.9089 102.604 74.1449 102.441 74.4053V84H100.183V65.25H102.441V72.7573ZM120.532 84.2441C119.604 84.2441 118.75 84.0854 117.969 83.7681C117.196 83.4507 116.532 83.0072 115.979 82.4375C115.426 81.8678 114.994 81.1924 114.685 80.4111C114.376 79.6299 114.221 78.7795 114.221 77.8599V77.3472C114.221 76.2811 114.392 75.3289 114.734 74.4907C115.076 73.6444 115.531 72.9282 116.101 72.3423C116.663 71.7645 117.301 71.321 118.018 71.0117C118.742 70.7025 119.482 70.5479 120.239 70.5479C121.191 70.5479 122.021 70.7147 122.729 71.0483C123.446 71.3739 124.04 71.8255 124.512 72.4033C124.984 72.9893 125.334 73.6769 125.562 74.4663C125.798 75.2557 125.916 76.1102 125.916 77.0298V78.043H116.479V78.1284C116.536 78.7713 116.663 79.3369 116.858 79.8252C117.061 80.3135 117.338 80.7448 117.688 81.1191C118.046 81.5179 118.477 81.8312 118.982 82.0591C119.486 82.2869 120.044 82.4009 120.654 82.4009C121.46 82.4009 122.176 82.2381 122.803 81.9126C123.429 81.5871 123.95 81.1558 124.365 80.6187L125.745 81.6929C125.305 82.3602 124.646 82.9543 123.767 83.4751C122.896 83.9878 121.818 84.2441 120.532 84.2441ZM120.239 72.4033C119.784 72.4033 119.352 72.4888 118.945 72.6597C118.538 72.8224 118.172 73.0625 117.847 73.3799C117.521 73.7054 117.244 74.1042 117.017 74.5762C116.797 75.04 116.642 75.5771 116.553 76.1875H123.657V76.0776C123.657 75.6707 123.58 75.2354 123.425 74.7715C123.271 74.2995 123.055 73.8926 122.778 73.5508C122.502 73.209 122.152 72.9323 121.729 72.7207C121.313 72.5091 120.817 72.4033 120.239 72.4033ZM129.566 70.792H136.316V82.0469H140.625V84H129.566V82.0469H134.058V72.7573H129.566V70.792ZM133.765 67.3252C133.765 67.1299 133.794 66.9468 133.851 66.7759C133.916 66.605 134.013 66.4585 134.144 66.3364C134.249 66.2306 134.384 66.1493 134.546 66.0923C134.717 66.0272 134.909 65.9946 135.12 65.9946C135.332 65.9946 135.519 66.0272 135.682 66.0923C135.844 66.1493 135.979 66.2306 136.084 66.3364C136.215 66.4504 136.312 66.5928 136.377 66.7637C136.443 66.9346 136.475 67.1217 136.475 67.3252C136.475 67.6914 136.361 67.9966 136.133 68.2407C135.905 68.4849 135.568 68.6069 135.12 68.6069C134.664 68.6069 134.323 68.4849 134.095 68.2407C133.875 67.9966 133.765 67.6914 133.765 67.3252ZM143.312 77.2861C143.312 76.3014 143.43 75.3981 143.666 74.5762C143.91 73.7461 144.26 73.034 144.715 72.4399C145.171 71.8459 145.724 71.382 146.375 71.0483C147.027 70.7147 147.763 70.5479 148.585 70.5479C149.114 70.5479 149.598 70.6089 150.038 70.731C150.485 70.853 150.888 71.0321 151.246 71.2681C151.441 71.3901 151.625 71.5326 151.795 71.6953C151.974 71.8581 152.141 72.0371 152.296 72.2324L152.406 70.792H154.457V83.7192C154.457 84.59 154.318 85.3631 154.042 86.0386C153.773 86.714 153.395 87.2878 152.906 87.7598C152.41 88.2318 151.82 88.5898 151.136 88.834C150.453 89.0781 149.696 89.2002 148.866 89.2002C148.524 89.2002 148.133 89.1595 147.694 89.0781C147.254 89.0049 146.811 88.8787 146.363 88.6997C145.908 88.5288 145.468 88.2969 145.045 88.0039C144.63 87.7109 144.272 87.3488 143.971 86.9175L145.143 85.5625C145.419 85.8962 145.704 86.1769 145.997 86.4048C146.29 86.6408 146.587 86.828 146.888 86.9663C147.189 87.1047 147.49 87.2023 147.792 87.2593C148.093 87.3244 148.394 87.3569 148.695 87.3569C149.232 87.3569 149.716 87.2796 150.147 87.125C150.579 86.9704 150.949 86.7425 151.258 86.4414C151.559 86.1484 151.791 85.7822 151.954 85.3428C152.117 84.9033 152.198 84.3988 152.198 83.8291V82.6938C152.027 82.8892 151.844 83.0682 151.649 83.231C151.462 83.3937 151.258 83.5361 151.039 83.6582C150.697 83.8454 150.318 83.9878 149.903 84.0854C149.488 84.1912 149.041 84.2441 148.561 84.2441C147.755 84.2441 147.027 84.0732 146.375 83.7314C145.724 83.3896 145.175 82.9176 144.728 82.3154C144.272 81.7132 143.922 81.0052 143.678 80.1914C143.434 79.3695 143.312 78.4865 143.312 77.5425V77.2861ZM145.57 77.5425C145.57 78.1854 145.635 78.7957 145.765 79.3735C145.903 79.9513 146.119 80.46 146.412 80.8994C146.697 81.3389 147.063 81.6888 147.511 81.9492C147.958 82.2015 148.495 82.3276 149.122 82.3276C149.513 82.3276 149.863 82.2829 150.172 82.1934C150.489 82.0957 150.774 81.9614 151.026 81.7905C151.271 81.6196 151.49 81.4162 151.686 81.1802C151.881 80.9442 152.052 80.6838 152.198 80.3989V74.3442C152.052 74.0675 151.881 73.8153 151.686 73.5874C151.49 73.3595 151.266 73.1602 151.014 72.9893C150.762 72.8265 150.481 72.7004 150.172 72.6108C149.863 72.5132 149.521 72.4644 149.146 72.4644C148.512 72.4644 147.966 72.5946 147.511 72.855C147.063 73.1154 146.697 73.4653 146.412 73.9048C146.119 74.3524 145.903 74.8691 145.765 75.4551C145.635 76.0329 145.57 76.6432 145.57 77.2861V77.5425ZM160.5 72.7573C160.679 72.4888 160.878 72.2446 161.098 72.0249C161.317 71.797 161.549 71.5977 161.793 71.4268C162.184 71.1419 162.611 70.9263 163.075 70.7798C163.547 70.6333 164.048 70.556 164.577 70.5479C165.268 70.5479 165.895 70.6496 166.457 70.853C167.026 71.0483 167.51 71.3576 167.909 71.7808C168.308 72.2039 168.613 72.741 168.825 73.3921C169.044 74.035 169.154 74.8 169.154 75.687V84H166.896V75.6626C166.896 75.1418 166.835 74.686 166.713 74.2954C166.591 73.8966 166.412 73.5671 166.176 73.3066C165.924 73.0218 165.606 72.8102 165.224 72.6719C164.841 72.5254 164.402 72.4562 163.905 72.4644C163.498 72.4644 163.112 72.5213 162.746 72.6353C162.379 72.7492 162.042 72.9119 161.732 73.1235C161.488 73.2863 161.26 73.4775 161.049 73.6973C160.845 73.9089 160.662 74.1449 160.5 74.4053V84H158.241V65.25H160.5V72.7573ZM178.103 67.5938V70.792H183.132V72.5376H178.103V79.7153C178.103 80.228 178.168 80.6512 178.298 80.9849C178.428 81.3185 178.607 81.583 178.835 81.7783C179.063 81.9818 179.323 82.1242 179.616 82.2056C179.917 82.2869 180.235 82.3276 180.568 82.3276C180.812 82.3276 181.065 82.3154 181.325 82.291C181.586 82.2585 181.842 82.2218 182.094 82.1812C182.338 82.1405 182.566 82.0998 182.778 82.0591C182.998 82.0103 183.177 81.9696 183.315 81.937L183.632 83.5361C183.445 83.6501 183.217 83.7518 182.949 83.8413C182.68 83.9227 182.387 83.9919 182.07 84.0488C181.752 84.1139 181.415 84.1628 181.057 84.1953C180.707 84.2279 180.357 84.2441 180.007 84.2441C179.421 84.2441 178.872 84.1628 178.359 84C177.854 83.8291 177.415 83.5605 177.041 83.1943C176.666 82.8363 176.369 82.3724 176.149 81.8027C175.938 81.2249 175.832 80.5291 175.832 79.7153V72.5376H172.365V70.792H175.832V67.5938H178.103ZM191.812 82.5352C191.812 82.055 191.958 81.644 192.251 81.3022C192.544 80.9604 192.987 80.7896 193.582 80.7896C194.167 80.7896 194.611 80.9604 194.912 81.3022C195.221 81.6359 195.376 82.0469 195.376 82.5352C195.376 83.0153 195.221 83.4181 194.912 83.7437C194.603 84.0692 194.159 84.2319 193.582 84.2319C192.996 84.2319 192.552 84.0692 192.251 83.7437C191.958 83.41 191.812 83.0072 191.812 82.5352ZM191.812 71.8418C191.812 71.3617 191.958 70.9507 192.251 70.6089C192.544 70.2671 192.987 70.0962 193.582 70.0962C194.167 70.0962 194.611 70.2671 194.912 70.6089C195.221 70.9425 195.376 71.3535 195.376 71.8418C195.376 72.3219 195.221 72.7248 194.912 73.0503C194.603 73.3758 194.159 73.5386 193.582 73.5386C192.996 73.5386 192.552 73.3758 192.251 73.0503C191.958 72.7166 191.812 72.3138 191.812 71.8418ZM217.105 75.0889L217.997 66.2266H227.115V68.4238H219.901L219.4 73.1602C219.75 72.9567 220.169 72.7777 220.658 72.623C221.146 72.4684 221.712 72.3911 222.354 72.3911C223.176 72.3911 223.913 72.5335 224.564 72.8184C225.215 73.1032 225.768 73.502 226.224 74.0146C226.68 74.5355 227.03 75.1621 227.274 75.8945C227.518 76.627 227.64 77.4408 227.64 78.3359C227.64 79.1823 227.526 79.9676 227.298 80.6919C227.07 81.4162 226.729 82.0387 226.273 82.5596C225.809 83.0885 225.227 83.5036 224.527 83.8047C223.827 84.0977 223.006 84.2441 222.062 84.2441C221.337 84.2441 220.654 84.1424 220.011 83.939C219.368 83.7355 218.798 83.4303 218.302 83.0234C217.797 82.6165 217.382 82.1038 217.057 81.4854C216.739 80.8669 216.54 80.1466 216.458 79.3247H218.607C218.745 80.3338 219.116 81.0988 219.718 81.6196C220.328 82.1405 221.109 82.4009 222.062 82.4009C222.599 82.4009 223.075 82.3073 223.49 82.1201C223.905 81.9248 224.255 81.6481 224.54 81.29C224.816 80.9401 225.024 80.5169 225.162 80.0205C225.309 79.5241 225.382 78.9707 225.382 78.3604C225.382 77.807 225.3 77.2902 225.138 76.8101C224.983 76.3299 224.755 75.9108 224.454 75.5527C224.153 75.2028 223.783 74.9261 223.343 74.7227C222.904 74.5192 222.399 74.4175 221.83 74.4175C221.455 74.4175 221.13 74.446 220.853 74.5029C220.584 74.5518 220.34 74.625 220.121 74.7227C219.901 74.8203 219.693 74.9383 219.498 75.0767C219.311 75.215 219.116 75.3737 218.912 75.5527L217.105 75.0889ZM241.972 77.2007C241.972 78.3319 241.841 79.3369 241.581 80.2158C241.321 81.0866 240.946 81.819 240.458 82.4131C239.97 83.0153 239.372 83.471 238.664 83.7803C237.956 84.0895 237.146 84.2441 236.234 84.2441C235.331 84.2441 234.521 84.0936 233.805 83.7925C233.089 83.4832 232.483 83.0234 231.986 82.4131C231.49 81.819 231.111 81.0866 230.851 80.2158C230.591 79.3369 230.46 78.3319 230.46 77.2007V73.0381C230.46 71.9069 230.591 70.9059 230.851 70.0352C231.111 69.1562 231.49 68.4157 231.986 67.8135C232.475 67.2113 233.073 66.7555 233.781 66.4463C234.497 66.1289 235.307 65.9702 236.21 65.9702C237.121 65.9702 237.931 66.1289 238.639 66.4463C239.355 66.7555 239.962 67.2113 240.458 67.8135C240.946 68.4157 241.321 69.1562 241.581 70.0352C241.841 70.9059 241.972 71.9069 241.972 73.0381V77.2007ZM232.731 76.749L239.652 71.439C239.587 70.853 239.469 70.3363 239.298 69.8887C239.136 69.4329 238.912 69.0545 238.627 68.7534C238.35 68.4442 238.008 68.2122 237.602 68.0576C237.203 67.903 236.739 67.8257 236.21 67.8257C235.673 67.8257 235.197 67.9111 234.782 68.082C234.375 68.2448 234.029 68.4849 233.744 68.8022C233.402 69.201 233.146 69.7178 232.975 70.3525C232.812 70.9792 232.731 71.7075 232.731 72.5376V75.5161C232.731 75.7196 232.731 75.923 232.731 76.1265C232.731 76.3299 232.731 76.5374 232.731 76.749ZM239.701 77.6768V75.1621C239.701 75.04 239.701 74.8081 239.701 74.4663C239.701 74.1164 239.701 73.8275 239.701 73.5996L232.792 78.8853C232.865 79.4793 232.995 80.0042 233.183 80.46C233.37 80.9076 233.614 81.2778 233.915 81.5708C234.192 81.8475 234.525 82.0591 234.916 82.2056C235.307 82.3439 235.746 82.4131 236.234 82.4131C236.747 82.4131 237.203 82.3358 237.602 82.1812C238 82.0265 238.338 81.8027 238.615 81.5098C238.989 81.111 239.262 80.5902 239.433 79.9473C239.612 79.3044 239.701 78.5475 239.701 77.6768ZM245.317 89.0781V70.792H247.38L247.49 72.2324C247.669 72.0046 247.864 71.8011 248.076 71.6221C248.287 71.4349 248.515 71.2762 248.759 71.146C249.101 70.9507 249.479 70.8042 249.895 70.7065C250.318 70.6007 250.769 70.5479 251.25 70.5479C252.096 70.5479 252.845 70.7147 253.496 71.0483C254.147 71.382 254.692 71.8459 255.131 72.4399C255.571 73.034 255.904 73.7461 256.132 74.5762C256.36 75.3981 256.474 76.3014 256.474 77.2861V77.5425C256.474 78.4865 256.36 79.3695 256.132 80.1914C255.904 81.0052 255.571 81.7132 255.131 82.3154C254.692 82.9176 254.147 83.3896 253.496 83.7314C252.853 84.0732 252.116 84.2441 251.286 84.2441C250.782 84.2441 250.31 84.1912 249.87 84.0854C249.439 83.9797 249.048 83.8291 248.698 83.6338C248.487 83.5117 248.287 83.3774 248.1 83.231C247.913 83.0763 247.738 82.9095 247.575 82.7305V89.0781H245.317ZM254.216 77.2861C254.216 76.6432 254.143 76.0329 253.996 75.4551C253.858 74.8691 253.642 74.3524 253.349 73.9048C253.048 73.4653 252.67 73.1154 252.214 72.855C251.758 72.5946 251.213 72.4644 250.578 72.4644C250.228 72.4644 249.903 72.505 249.602 72.5864C249.309 72.6678 249.044 72.7858 248.808 72.9404C248.548 73.0951 248.316 73.2863 248.112 73.5142C247.909 73.742 247.73 73.9943 247.575 74.271V80.6309C247.714 80.875 247.872 81.1029 248.051 81.3145C248.23 81.526 248.434 81.7051 248.662 81.8516C248.922 82.0225 249.211 82.1567 249.528 82.2544C249.854 82.3521 250.212 82.4009 250.603 82.4009C251.229 82.4009 251.77 82.2707 252.226 82.0103C252.682 81.7417 253.056 81.3836 253.349 80.936C253.642 80.4884 253.858 79.9717 253.996 79.3857C254.143 78.7998 254.216 78.1854 254.216 77.5425V77.2861ZM265.3 75.687L268.828 70.792H271.477L266.558 77.3228L271.611 84H268.999L265.349 78.9707L261.699 84H259.062L264.116 77.3228L259.197 70.792H261.809L265.3 75.687ZM278.79 71.8418C278.79 71.3617 278.936 70.9507 279.229 70.6089C279.522 70.2671 279.965 70.0962 280.56 70.0962C281.146 70.0962 281.589 70.2671 281.89 70.6089C282.199 70.9425 282.354 71.3535 282.354 71.8418C282.354 72.3219 282.199 72.7248 281.89 73.0503C281.581 73.3758 281.137 73.5386 280.56 73.5386C279.974 73.5386 279.53 73.3758 279.229 73.0503C278.936 72.7166 278.79 72.3138 278.79 71.8418ZM281.695 83.4751C281.695 84.2889 281.504 85.119 281.121 85.9653C280.739 86.8117 280.222 87.5238 279.571 88.1016L278.167 87.3325C278.558 86.7629 278.834 86.1566 278.997 85.5137C279.16 84.8708 279.241 84.2035 279.241 83.5117V81.3267H281.695V83.4751ZM43.9429 120.064C44.4393 120.048 44.8543 119.909 45.188 119.649C45.5216 119.389 45.7902 119.055 45.9937 118.648C46.189 118.249 46.3273 117.798 46.4087 117.293C46.4982 116.797 46.543 116.296 46.543 115.792V113.729C46.543 113.086 46.6366 112.492 46.8237 111.946C47.019 111.401 47.3161 110.929 47.7148 110.53C47.9264 110.319 48.1624 110.127 48.4229 109.957C48.6914 109.786 48.9844 109.635 49.3018 109.505C48.9762 109.375 48.6751 109.22 48.3984 109.041C48.1299 108.862 47.8939 108.663 47.6904 108.443C47.2998 108.036 47.0109 107.564 46.8237 107.027C46.6366 106.482 46.543 105.892 46.543 105.257V103.182C46.543 102.685 46.5145 102.185 46.4575 101.68C46.4087 101.176 46.2988 100.72 46.1279 100.313C45.9489 99.9142 45.6885 99.5846 45.3467 99.3242C45.0049 99.0638 44.541 98.9255 43.9551 98.9092L44.1992 97.5054C44.9886 97.5298 45.6641 97.6966 46.2256 98.0059C46.7952 98.3151 47.2632 98.7179 47.6294 99.2144C48.0444 99.7759 48.3415 100.407 48.5205 101.106C48.7077 101.806 48.8013 102.498 48.8013 103.182V105.257C48.8013 105.745 48.846 106.176 48.9355 106.551C49.0332 106.917 49.1756 107.234 49.3628 107.503C49.6313 107.885 50.0016 108.166 50.4736 108.345C50.9538 108.516 51.5275 108.602 52.1948 108.602V110.372C51.6089 110.38 51.0962 110.453 50.6567 110.591C50.2254 110.722 49.8714 110.929 49.5947 111.214C49.3262 111.491 49.1268 111.836 48.9966 112.251C48.8664 112.667 48.8013 113.159 48.8013 113.729V115.792C48.8013 116.443 48.7118 117.098 48.5327 117.757C48.3537 118.424 48.077 119.03 47.7026 119.576C47.3201 120.121 46.84 120.569 46.2622 120.918C45.6844 121.268 44.9967 121.451 44.1992 121.468L43.9429 120.064Z" fill="white"/>
</svg>
