<svg width="407" height="213" viewBox="0 0 407 213" fill="none" xmlns="http://www.w3.org/2000/svg">
<rect width="407" height="213" rx="20" fill="#0066FF" fill-opacity="0.2"/>
<rect x="1.5" y="1.5" width="404" height="210" rx="18.5" stroke="#0066FF" stroke-opacity="0.5" stroke-width="3"/>
<path d="M46.0547 49.5352C46.0547 49.055 46.2012 48.644 46.4941 48.3022C46.7871 47.9604 47.2306 47.7896 47.8247 47.7896C48.4106 47.7896 48.8542 47.9604 49.1553 48.3022C49.4645 48.6359 49.6191 49.0469 49.6191 49.5352C49.6191 50.0153 49.4645 50.4181 49.1553 50.7437C48.846 51.0692 48.4025 51.2319 47.8247 51.2319C47.2388 51.2319 46.7952 51.0692 46.4941 50.7437C46.2012 50.41 46.0547 50.0072 46.0547 49.5352ZM211.6 55.4678C210.81 55.4434 210.127 55.2603 209.549 54.9185C208.971 54.5767 208.491 54.125 208.108 53.5635C207.742 53.0264 207.465 52.4242 207.278 51.7568C207.091 51.0977 206.998 50.4425 206.998 49.7915V47.7285C206.998 46.5566 206.717 45.7062 206.155 45.1772C205.602 44.6483 204.751 44.3797 203.604 44.3716V42.6016C204.751 42.6016 205.602 42.3411 206.155 41.8203C206.717 41.2913 206.998 40.4368 206.998 39.2568V37.1816C206.998 36.5225 207.083 35.8511 207.254 35.1675C207.433 34.4757 207.714 33.8573 208.096 33.312C208.454 32.7912 208.922 32.368 209.5 32.0425C210.078 31.7088 210.778 31.5298 211.6 31.5054L211.856 32.9092C211.27 32.9255 210.802 33.0638 210.452 33.3242C210.11 33.5846 209.854 33.9142 209.683 34.313C209.504 34.7199 209.39 35.1756 209.341 35.6802C209.292 36.1847 209.268 36.6852 209.268 37.1816V39.2568C209.268 40.2334 209.04 41.092 208.584 41.8325C208.137 42.5649 207.441 43.1224 206.497 43.5049C207.441 43.8792 208.137 44.4367 208.584 45.1772C209.032 45.9097 209.26 46.7601 209.268 47.7285V49.7915C209.268 50.2961 209.309 50.7965 209.39 51.293C209.472 51.7975 209.614 52.2492 209.817 52.6479C210.013 53.0549 210.273 53.3885 210.599 53.6489C210.932 53.9093 211.351 54.0477 211.856 54.064L211.6 55.4678ZM70.7261 77.2861C70.7261 76.3014 70.8481 75.3981 71.0923 74.5762C71.3446 73.7461 71.7026 73.034 72.1665 72.4399C72.6222 71.8459 73.1756 71.382 73.8267 71.0483C74.4777 70.7147 75.2061 70.5479 76.0117 70.5479C76.8011 70.5479 77.4888 70.6821 78.0747 70.9507C78.6688 71.2111 79.1815 71.5936 79.6128 72.0981V65.25H81.8711V84H79.7959L79.6982 82.6084C79.2588 83.1455 78.7339 83.5524 78.1235 83.8291C77.5132 84.1058 76.8011 84.2441 75.9873 84.2441C75.1898 84.2441 74.4655 84.0732 73.8145 83.7314C73.1715 83.3896 72.6222 82.9176 72.1665 82.3154C71.7108 81.7132 71.3568 81.0052 71.1045 80.1914C70.8522 79.3695 70.7261 78.4865 70.7261 77.5425V77.2861ZM72.9844 77.5425C72.9844 78.1854 73.0535 78.7957 73.1919 79.3735C73.3302 79.9513 73.5459 80.46 73.8389 80.8994C74.1237 81.3389 74.4899 81.6888 74.9375 81.9492C75.3851 82.2015 75.9222 82.3276 76.5488 82.3276C77.3057 82.3276 77.9323 82.1567 78.4287 81.8149C78.9251 81.4731 79.3198 81.0133 79.6128 80.4355V74.3076C79.3198 73.7705 78.9251 73.3311 78.4287 72.9893C77.9323 72.6393 77.3138 72.4644 76.5732 72.4644C75.9385 72.4644 75.3932 72.5946 74.9375 72.855C74.4899 73.1154 74.1237 73.4653 73.8389 73.9048C73.5459 74.3524 73.3302 74.8691 73.1919 75.4551C73.0535 76.0329 72.9844 76.6432 72.9844 77.2861V77.5425ZM86.022 70.792H92.7725V82.0469H97.0815V84H86.022V82.0469H90.5142V72.7573H86.022V70.792ZM90.2212 67.3252C90.2212 67.1299 90.2497 66.9468 90.3066 66.7759C90.3717 66.605 90.4694 66.4585 90.5996 66.3364C90.7054 66.2306 90.8397 66.1493 91.0024 66.0923C91.1733 66.0272 91.3646 65.9946 91.5762 65.9946C91.7878 65.9946 91.9749 66.0272 92.1377 66.0923C92.3005 66.1493 92.4347 66.2306 92.5405 66.3364C92.6707 66.4504 92.7684 66.5928 92.8335 66.7637C92.8986 66.9346 92.9312 67.1217 92.9312 67.3252C92.9312 67.6914 92.8172 67.9966 92.5894 68.2407C92.3615 68.4849 92.0238 68.6069 91.5762 68.6069C91.1204 68.6069 90.7786 68.4849 90.5508 68.2407C90.3311 67.9966 90.2212 67.6914 90.2212 67.3252ZM108.959 80.4966C108.959 80.228 108.907 79.988 108.801 79.7764C108.695 79.5566 108.516 79.3573 108.264 79.1782C108.011 78.9992 107.678 78.8364 107.263 78.6899C106.848 78.5353 106.331 78.397 105.712 78.2749C104.956 78.1203 104.264 77.9331 103.637 77.7134C103.019 77.4937 102.49 77.2292 102.05 76.9199C101.603 76.6188 101.257 76.2648 101.013 75.8579C100.769 75.4429 100.646 74.9627 100.646 74.4175C100.646 73.8804 100.773 73.3799 101.025 72.916C101.277 72.444 101.631 72.033 102.087 71.6831C102.543 71.3332 103.084 71.0565 103.71 70.853C104.345 70.6496 105.041 70.5479 105.798 70.5479C106.612 70.5479 107.344 70.6536 107.995 70.8652C108.646 71.0768 109.2 71.3698 109.655 71.7441C110.111 72.1185 110.461 72.5579 110.705 73.0625C110.957 73.5589 111.083 74.096 111.083 74.6738H108.825C108.825 74.389 108.752 74.1123 108.605 73.8438C108.459 73.5671 108.256 73.3229 107.995 73.1113C107.735 72.8997 107.417 72.7288 107.043 72.5986C106.677 72.4684 106.262 72.4033 105.798 72.4033C105.318 72.4033 104.895 72.4562 104.528 72.562C104.17 72.6678 103.873 72.8102 103.637 72.9893C103.393 73.1683 103.21 73.3758 103.088 73.6118C102.966 73.8478 102.905 74.092 102.905 74.3442C102.905 74.6047 102.954 74.8366 103.051 75.04C103.149 75.2435 103.32 75.4266 103.564 75.5894C103.8 75.7521 104.117 75.8986 104.516 76.0288C104.923 76.159 105.436 76.2852 106.054 76.4072C106.868 76.5781 107.596 76.7775 108.239 77.0054C108.882 77.2251 109.423 77.4896 109.863 77.7988C110.302 78.1162 110.636 78.4824 110.864 78.8975C111.1 79.3125 111.218 79.7926 111.218 80.3379C111.218 80.9238 111.083 81.4569 110.815 81.937C110.555 82.4172 110.188 82.8281 109.716 83.1699C109.244 83.5117 108.679 83.7762 108.02 83.9634C107.36 84.1506 106.64 84.2441 105.859 84.2441C104.964 84.2441 104.166 84.1261 103.466 83.8901C102.766 83.646 102.176 83.3245 101.696 82.9258C101.208 82.5352 100.834 82.0794 100.573 81.5586C100.321 81.0378 100.195 80.4966 100.195 79.9351H102.453C102.486 80.3989 102.608 80.7896 102.819 81.1069C103.039 81.4243 103.312 81.6807 103.637 81.876C103.955 82.0713 104.309 82.2096 104.699 82.291C105.09 82.3724 105.476 82.4131 105.859 82.4131C106.461 82.4131 106.986 82.3439 107.434 82.2056C107.881 82.0591 108.231 81.8597 108.483 81.6074C108.638 81.4528 108.756 81.2819 108.837 81.0947C108.919 80.9076 108.959 80.7082 108.959 80.4966ZM114.685 89.0781V70.792H116.748L116.858 72.2324C117.037 72.0046 117.232 71.8011 117.444 71.6221C117.655 71.4349 117.883 71.2762 118.127 71.146C118.469 70.9507 118.848 70.8042 119.263 70.7065C119.686 70.6007 120.138 70.5479 120.618 70.5479C121.464 70.5479 122.213 70.7147 122.864 71.0483C123.515 71.382 124.06 71.8459 124.5 72.4399C124.939 73.034 125.273 73.7461 125.5 74.5762C125.728 75.3981 125.842 76.3014 125.842 77.2861V77.5425C125.842 78.4865 125.728 79.3695 125.5 80.1914C125.273 81.0052 124.939 81.7132 124.5 82.3154C124.06 82.9176 123.515 83.3896 122.864 83.7314C122.221 84.0732 121.484 84.2441 120.654 84.2441C120.15 84.2441 119.678 84.1912 119.238 84.0854C118.807 83.9797 118.416 83.8291 118.066 83.6338C117.855 83.5117 117.655 83.3774 117.468 83.231C117.281 83.0763 117.106 82.9095 116.943 82.7305V89.0781H114.685ZM123.584 77.2861C123.584 76.6432 123.511 76.0329 123.364 75.4551C123.226 74.8691 123.01 74.3524 122.717 73.9048C122.416 73.4653 122.038 73.1154 121.582 72.855C121.126 72.5946 120.581 72.4644 119.946 72.4644C119.596 72.4644 119.271 72.505 118.97 72.5864C118.677 72.6678 118.412 72.7858 118.176 72.9404C117.916 73.0951 117.684 73.2863 117.48 73.5142C117.277 73.742 117.098 73.9943 116.943 74.271V80.6309C117.082 80.875 117.24 81.1029 117.419 81.3145C117.598 81.526 117.802 81.7051 118.03 81.8516C118.29 82.0225 118.579 82.1567 118.896 82.2544C119.222 82.3521 119.58 82.4009 119.971 82.4009C120.597 82.4009 121.139 82.2707 121.594 82.0103C122.05 81.7417 122.424 81.3836 122.717 80.936C123.01 80.4884 123.226 79.9717 123.364 79.3857C123.511 78.7998 123.584 78.1854 123.584 77.5425V77.2861ZM129.566 65.25H136.316V82.0469H140.625V84H129.566V82.0469H134.058V67.2153H129.566V65.25ZM152.406 84C152.316 83.8291 152.243 83.6175 152.186 83.3652C152.137 83.1048 152.101 82.8363 152.076 82.5596C151.848 82.7874 151.592 83.0031 151.307 83.2065C151.03 83.41 150.725 83.589 150.392 83.7437C150.05 83.8983 149.688 84.0203 149.305 84.1099C148.923 84.1994 148.516 84.2441 148.084 84.2441C147.385 84.2441 146.75 84.1424 146.18 83.939C145.619 83.7355 145.143 83.4588 144.752 83.1089C144.353 82.7671 144.044 82.3602 143.824 81.8882C143.613 81.408 143.507 80.8913 143.507 80.3379C143.507 79.6136 143.649 78.9788 143.934 78.4336C144.227 77.8883 144.638 77.4326 145.167 77.0664C145.696 76.7083 146.331 76.4398 147.071 76.2607C147.82 76.0817 148.654 75.9922 149.574 75.9922H152.04V74.9546C152.04 74.5558 151.966 74.1978 151.82 73.8804C151.673 73.563 151.466 73.2904 151.197 73.0625C150.929 72.8428 150.599 72.6719 150.208 72.5498C149.826 72.4277 149.395 72.3667 148.915 72.3667C148.467 72.3667 148.064 72.4237 147.706 72.5376C147.356 72.6515 147.059 72.8021 146.815 72.9893C146.571 73.1764 146.38 73.4002 146.241 73.6606C146.111 73.9129 146.046 74.1774 146.046 74.4541H143.775C143.784 73.974 143.906 73.502 144.142 73.0381C144.386 72.5742 144.736 72.1551 145.191 71.7808C145.639 71.4146 146.184 71.1175 146.827 70.8896C147.478 70.6618 148.215 70.5479 149.037 70.5479C149.785 70.5479 150.481 70.6414 151.124 70.8286C151.767 71.0076 152.324 71.2803 152.796 71.6465C153.26 72.0208 153.626 72.4847 153.895 73.0381C154.164 73.5915 154.298 74.2384 154.298 74.979V81.1191C154.298 81.5586 154.339 82.0265 154.42 82.5229C154.501 83.0112 154.615 83.4385 154.762 83.8047V84H152.406ZM148.414 82.2788C148.854 82.2788 149.264 82.2218 149.647 82.1079C150.029 81.994 150.379 81.8434 150.697 81.6562C151.006 81.4691 151.275 81.2575 151.502 81.0215C151.73 80.7773 151.909 80.5251 152.04 80.2646V77.5913H149.94C149.159 77.5913 148.475 77.6605 147.889 77.7988C147.311 77.929 146.852 78.1325 146.51 78.4092C146.266 78.6045 146.078 78.8364 145.948 79.105C145.826 79.3735 145.765 79.6787 145.765 80.0205C145.765 80.346 145.818 80.6471 145.924 80.9238C146.038 81.2005 146.205 81.4365 146.424 81.6318C146.644 81.8353 146.921 81.994 147.254 82.1079C147.588 82.2218 147.975 82.2788 148.414 82.2788ZM159.303 89.3345C159.092 89.3345 158.843 89.3101 158.559 89.2612C158.274 89.2124 158.058 89.1717 157.912 89.1392L158.278 87.2959C158.481 87.3122 158.681 87.3244 158.876 87.3325C159.079 87.3488 159.238 87.3569 159.352 87.3569C159.661 87.3569 159.942 87.2715 160.194 87.1006C160.455 86.9297 160.687 86.7262 160.89 86.4902C161.085 86.2542 161.252 86.0101 161.391 85.7578C161.537 85.5055 161.651 85.298 161.732 85.1353L162.636 83.3774L156.947 70.792H159.474L163.1 79.3125L163.686 80.9116L164.308 79.3613L167.714 70.792H170.241L163.539 86.0386C163.384 86.3804 163.185 86.7425 162.941 87.125C162.705 87.5075 162.416 87.8615 162.074 88.187C161.732 88.5125 161.334 88.7852 160.878 89.0049C160.422 89.2246 159.897 89.3345 159.303 89.3345ZM177.297 82.5352C177.297 82.055 177.443 81.644 177.736 81.3022C178.029 80.9604 178.473 80.7896 179.067 80.7896C179.653 80.7896 180.096 80.9604 180.397 81.3022C180.707 81.6359 180.861 82.0469 180.861 82.5352C180.861 83.0153 180.707 83.4181 180.397 83.7437C180.088 84.0692 179.645 84.2319 179.067 84.2319C178.481 84.2319 178.037 84.0692 177.736 83.7437C177.443 83.41 177.297 83.0072 177.297 82.5352ZM177.297 71.8418C177.297 71.3617 177.443 70.9507 177.736 70.6089C178.029 70.2671 178.473 70.0962 179.067 70.0962C179.653 70.0962 180.096 70.2671 180.397 70.6089C180.707 70.9425 180.861 71.3535 180.861 71.8418C180.861 72.3219 180.707 72.7248 180.397 73.0503C180.088 73.3758 179.645 73.5386 179.067 73.5386C178.481 73.5386 178.037 73.3758 177.736 73.0503C177.443 72.7166 177.297 72.3138 177.297 71.8418ZM205.154 84V72.5376H201.517V70.792H205.154V69.8643C205.154 69.0179 205.276 68.2773 205.521 67.6426C205.773 66.9997 206.127 66.4626 206.583 66.0312C207.03 65.5999 207.571 65.2744 208.206 65.0547C208.841 64.835 209.549 64.7251 210.33 64.7251C210.656 64.7251 210.977 64.7454 211.294 64.7861C211.612 64.8187 211.925 64.8634 212.234 64.9204C212.438 64.9611 212.641 65.0059 212.845 65.0547C213.048 65.0954 213.256 65.1442 213.467 65.2012L213.199 67.0688C212.865 66.9549 212.474 66.8573 212.027 66.7759C211.587 66.6864 211.115 66.6416 210.611 66.6416C210.098 66.6416 209.642 66.7067 209.244 66.8369C208.853 66.959 208.528 67.1462 208.267 67.3984C207.99 67.6589 207.779 67.9966 207.632 68.4116C207.494 68.8267 207.425 69.3109 207.425 69.8643V70.792H212.515V72.5376H207.425V84H205.154ZM216.654 65.25H223.404V82.0469H227.713V84H216.654V82.0469H221.146V67.2153H216.654V65.25ZM236.649 84.2441C235.722 84.2441 234.867 84.0854 234.086 83.7681C233.313 83.4507 232.65 83.0072 232.096 82.4375C231.543 81.8678 231.111 81.1924 230.802 80.4111C230.493 79.6299 230.338 78.7795 230.338 77.8599V77.3472C230.338 76.2811 230.509 75.3289 230.851 74.4907C231.193 73.6444 231.649 72.9282 232.218 72.3423C232.78 71.7645 233.419 71.321 234.135 71.0117C234.859 70.7025 235.6 70.5479 236.356 70.5479C237.309 70.5479 238.139 70.7147 238.847 71.0483C239.563 71.3739 240.157 71.8255 240.629 72.4033C241.101 72.9893 241.451 73.6769 241.679 74.4663C241.915 75.2557 242.033 76.1102 242.033 77.0298V78.043H232.597V78.1284C232.654 78.7713 232.78 79.3369 232.975 79.8252C233.179 80.3135 233.455 80.7448 233.805 81.1191C234.163 81.5179 234.595 81.8312 235.099 82.0591C235.604 82.2869 236.161 82.4009 236.771 82.4009C237.577 82.4009 238.293 82.2381 238.92 81.9126C239.547 81.5871 240.067 81.1558 240.482 80.6187L241.862 81.6929C241.422 82.3602 240.763 82.9543 239.884 83.4751C239.014 83.9878 237.935 84.2441 236.649 84.2441ZM236.356 72.4033C235.901 72.4033 235.469 72.4888 235.062 72.6597C234.656 72.8224 234.289 73.0625 233.964 73.3799C233.638 73.7054 233.362 74.1042 233.134 74.5762C232.914 75.04 232.759 75.5771 232.67 76.1875H239.774V76.0776C239.774 75.6707 239.697 75.2354 239.542 74.7715C239.388 74.2995 239.172 73.8926 238.896 73.5508C238.619 73.209 238.269 72.9323 237.846 72.7207C237.431 72.5091 236.934 72.4033 236.356 72.4033ZM250.786 75.687L254.313 70.792H256.962L252.043 77.3228L257.097 84H254.484L250.834 78.9707L247.185 84H244.548L249.602 77.3228L244.682 70.792H247.294L250.786 75.687ZM264.275 71.8418C264.275 71.3617 264.421 70.9507 264.714 70.6089C265.007 70.2671 265.451 70.0962 266.045 70.0962C266.631 70.0962 267.074 70.2671 267.375 70.6089C267.685 70.9425 267.839 71.3535 267.839 71.8418C267.839 72.3219 267.685 72.7248 267.375 73.0503C267.066 73.3758 266.623 73.5386 266.045 73.5386C265.459 73.5386 265.015 73.3758 264.714 73.0503C264.421 72.7166 264.275 72.3138 264.275 71.8418ZM267.18 83.4751C267.18 84.2889 266.989 85.119 266.606 85.9653C266.224 86.8117 265.707 87.5238 265.056 88.1016L263.652 87.3325C264.043 86.7629 264.32 86.1566 264.482 85.5137C264.645 84.8708 264.727 84.2035 264.727 83.5117V81.3267H267.18V83.4751ZM74.5225 117V105.538H70.8848V103.792H74.5225V102.864C74.5225 102.018 74.6445 101.277 74.8887 100.643C75.141 99.9997 75.495 99.4626 75.9507 99.0312C76.3983 98.5999 76.9395 98.2744 77.5742 98.0547C78.209 97.835 78.917 97.7251 79.6982 97.7251C80.0238 97.7251 80.3452 97.7454 80.6626 97.7861C80.98 97.8187 81.2933 97.8634 81.6025 97.9204C81.806 97.9611 82.0094 98.0059 82.2129 98.0547C82.4163 98.0954 82.6239 98.1442 82.8354 98.2012L82.5669 100.069C82.2332 99.9549 81.8426 99.8573 81.395 99.7759C80.9556 99.6864 80.4836 99.6416 79.979 99.6416C79.4663 99.6416 79.0106 99.7067 78.6118 99.8369C78.2212 99.959 77.8957 100.146 77.6353 100.398C77.3586 100.659 77.147 100.997 77.0005 101.412C76.8621 101.827 76.793 102.311 76.793 102.864V103.792H81.8833V105.538H76.793V117H74.5225ZM86.022 98.25H92.7725V115.047H97.0815V117H86.022V115.047H90.5142V100.215H86.022V98.25ZM106.018 117.244C105.09 117.244 104.235 117.085 103.454 116.768C102.681 116.451 102.018 116.007 101.464 115.438C100.911 114.868 100.48 114.192 100.17 113.411C99.8612 112.63 99.7065 111.779 99.7065 110.86V110.347C99.7065 109.281 99.8774 108.329 100.219 107.491C100.561 106.644 101.017 105.928 101.586 105.342C102.148 104.764 102.787 104.321 103.503 104.012C104.227 103.702 104.968 103.548 105.725 103.548C106.677 103.548 107.507 103.715 108.215 104.048C108.931 104.374 109.525 104.826 109.997 105.403C110.469 105.989 110.819 106.677 111.047 107.466C111.283 108.256 111.401 109.11 111.401 110.03V111.043H101.965V111.128C102.022 111.771 102.148 112.337 102.343 112.825C102.547 113.313 102.823 113.745 103.173 114.119C103.531 114.518 103.963 114.831 104.467 115.059C104.972 115.287 105.529 115.401 106.14 115.401C106.945 115.401 107.661 115.238 108.288 114.913C108.915 114.587 109.436 114.156 109.851 113.619L111.23 114.693C110.791 115.36 110.131 115.954 109.252 116.475C108.382 116.988 107.303 117.244 106.018 117.244ZM105.725 105.403C105.269 105.403 104.838 105.489 104.431 105.66C104.024 105.822 103.658 106.062 103.332 106.38C103.007 106.705 102.73 107.104 102.502 107.576C102.282 108.04 102.128 108.577 102.038 109.188H109.143V109.078C109.143 108.671 109.065 108.235 108.911 107.771C108.756 107.299 108.54 106.893 108.264 106.551C107.987 106.209 107.637 105.932 107.214 105.721C106.799 105.509 106.302 105.403 105.725 105.403ZM120.154 108.687L123.682 103.792H126.331L121.411 110.323L126.465 117H123.853L120.203 111.971L116.553 117H113.916L118.97 110.323L114.05 103.792H116.663L120.154 108.687ZM139.087 110.152H129.749V108.296H139.087V110.152ZM143.299 110.286C143.299 109.301 143.421 108.398 143.666 107.576C143.918 106.746 144.276 106.034 144.74 105.44C145.195 104.846 145.749 104.382 146.4 104.048C147.051 103.715 147.779 103.548 148.585 103.548C149.374 103.548 150.062 103.682 150.648 103.951C151.242 104.211 151.755 104.594 152.186 105.098V98.25H154.444V117H152.369L152.271 115.608C151.832 116.146 151.307 116.552 150.697 116.829C150.086 117.106 149.374 117.244 148.561 117.244C147.763 117.244 147.039 117.073 146.388 116.731C145.745 116.39 145.195 115.918 144.74 115.315C144.284 114.713 143.93 114.005 143.678 113.191C143.425 112.369 143.299 111.486 143.299 110.542V110.286ZM145.558 110.542C145.558 111.185 145.627 111.796 145.765 112.374C145.903 112.951 146.119 113.46 146.412 113.899C146.697 114.339 147.063 114.689 147.511 114.949C147.958 115.201 148.495 115.328 149.122 115.328C149.879 115.328 150.506 115.157 151.002 114.815C151.498 114.473 151.893 114.013 152.186 113.436V107.308C151.893 106.771 151.498 106.331 151.002 105.989C150.506 105.639 149.887 105.464 149.146 105.464C148.512 105.464 147.966 105.595 147.511 105.855C147.063 106.115 146.697 106.465 146.412 106.905C146.119 107.352 145.903 107.869 145.765 108.455C145.627 109.033 145.558 109.643 145.558 110.286V110.542ZM158.595 103.792H165.346V115.047H169.655V117H158.595V115.047H163.087V105.757H158.595V103.792ZM162.794 100.325C162.794 100.13 162.823 99.9468 162.88 99.7759C162.945 99.605 163.043 99.4585 163.173 99.3364C163.279 99.2306 163.413 99.1493 163.576 99.0923C163.747 99.0272 163.938 98.9946 164.149 98.9946C164.361 98.9946 164.548 99.0272 164.711 99.0923C164.874 99.1493 165.008 99.2306 165.114 99.3364C165.244 99.4504 165.342 99.5928 165.407 99.7637C165.472 99.9346 165.504 100.122 165.504 100.325C165.504 100.691 165.39 100.997 165.163 101.241C164.935 101.485 164.597 101.607 164.149 101.607C163.694 101.607 163.352 101.485 163.124 101.241C162.904 100.997 162.794 100.691 162.794 100.325ZM181.411 103.548C181.826 103.548 182.257 103.576 182.705 103.633C183.16 103.69 183.502 103.768 183.73 103.865L183.425 106.075C182.985 105.977 182.566 105.908 182.167 105.867C181.777 105.818 181.366 105.794 180.935 105.794C180.381 105.794 179.881 105.863 179.433 106.001C178.986 106.132 178.595 106.327 178.261 106.587C177.96 106.815 177.696 107.096 177.468 107.43C177.248 107.755 177.065 108.121 176.918 108.528V117H174.648V103.792H176.796L176.894 105.562L176.906 105.892C177.443 105.167 178.086 104.598 178.835 104.183C179.592 103.759 180.45 103.548 181.411 103.548ZM193.105 117.244C192.178 117.244 191.323 117.085 190.542 116.768C189.769 116.451 189.106 116.007 188.552 115.438C187.999 114.868 187.568 114.192 187.258 113.411C186.949 112.63 186.794 111.779 186.794 110.86V110.347C186.794 109.281 186.965 108.329 187.307 107.491C187.649 106.644 188.105 105.928 188.674 105.342C189.236 104.764 189.875 104.321 190.591 104.012C191.315 103.702 192.056 103.548 192.812 103.548C193.765 103.548 194.595 103.715 195.303 104.048C196.019 104.374 196.613 104.826 197.085 105.403C197.557 105.989 197.907 106.677 198.135 107.466C198.371 108.256 198.489 109.11 198.489 110.03V111.043H189.053V111.128C189.11 111.771 189.236 112.337 189.431 112.825C189.635 113.313 189.911 113.745 190.261 114.119C190.619 114.518 191.051 114.831 191.555 115.059C192.06 115.287 192.617 115.401 193.228 115.401C194.033 115.401 194.749 115.238 195.376 114.913C196.003 114.587 196.523 114.156 196.938 113.619L198.318 114.693C197.878 115.36 197.219 115.954 196.34 116.475C195.47 116.988 194.391 117.244 193.105 117.244ZM192.812 105.403C192.357 105.403 191.925 105.489 191.519 105.66C191.112 105.822 190.745 106.062 190.42 106.38C190.094 106.705 189.818 107.104 189.59 107.576C189.37 108.04 189.215 108.577 189.126 109.188H196.23V109.078C196.23 108.671 196.153 108.235 195.999 107.771C195.844 107.299 195.628 106.893 195.352 106.551C195.075 106.209 194.725 105.932 194.302 105.721C193.887 105.509 193.39 105.403 192.812 105.403ZM207.413 115.413C207.819 115.413 208.214 115.348 208.597 115.218C208.987 115.088 209.333 114.904 209.634 114.668C209.935 114.441 210.175 114.172 210.354 113.863C210.542 113.545 210.639 113.204 210.647 112.837H212.784C212.776 113.423 212.621 113.985 212.32 114.522C212.027 115.051 211.632 115.515 211.136 115.914C210.639 116.32 210.07 116.646 209.427 116.89C208.784 117.126 208.112 117.244 207.413 117.244C206.412 117.244 205.537 117.065 204.788 116.707C204.039 116.349 203.417 115.865 202.92 115.254C202.416 114.652 202.037 113.956 201.785 113.167C201.533 112.369 201.407 111.531 201.407 110.652V110.14C201.407 109.269 201.533 108.435 201.785 107.637C202.037 106.84 202.416 106.136 202.92 105.525C203.417 104.923 204.039 104.443 204.788 104.085C205.537 103.727 206.412 103.548 207.413 103.548C208.194 103.548 208.91 103.674 209.561 103.926C210.22 104.17 210.79 104.504 211.27 104.927C211.742 105.359 212.112 105.867 212.381 106.453C212.649 107.039 212.784 107.666 212.784 108.333H210.647C210.639 107.934 210.55 107.56 210.379 107.21C210.216 106.852 209.992 106.539 209.708 106.27C209.423 106.001 209.081 105.79 208.682 105.635C208.292 105.481 207.868 105.403 207.413 105.403C206.713 105.403 206.123 105.546 205.643 105.831C205.171 106.107 204.788 106.469 204.495 106.917C204.202 107.373 203.991 107.881 203.86 108.443C203.738 109.004 203.677 109.57 203.677 110.14V110.652C203.677 111.23 203.738 111.804 203.86 112.374C203.991 112.935 204.202 113.44 204.495 113.887C204.78 114.343 205.158 114.713 205.63 114.998C206.111 115.275 206.705 115.413 207.413 115.413ZM221.646 100.594V103.792H226.676V105.538H221.646V112.715C221.646 113.228 221.712 113.651 221.842 113.985C221.972 114.319 222.151 114.583 222.379 114.778C222.607 114.982 222.867 115.124 223.16 115.206C223.461 115.287 223.779 115.328 224.112 115.328C224.356 115.328 224.609 115.315 224.869 115.291C225.13 115.258 225.386 115.222 225.638 115.181C225.882 115.14 226.11 115.1 226.322 115.059C226.542 115.01 226.721 114.97 226.859 114.937L227.176 116.536C226.989 116.65 226.761 116.752 226.493 116.841C226.224 116.923 225.931 116.992 225.614 117.049C225.296 117.114 224.959 117.163 224.601 117.195C224.251 117.228 223.901 117.244 223.551 117.244C222.965 117.244 222.416 117.163 221.903 117C221.398 116.829 220.959 116.561 220.584 116.194C220.21 115.836 219.913 115.372 219.693 114.803C219.482 114.225 219.376 113.529 219.376 112.715V105.538H215.909V103.792H219.376V100.594H221.646ZM231.168 103.792H237.919V115.047H242.228V117H231.168V115.047H235.661V105.757H231.168V103.792ZM235.368 100.325C235.368 100.13 235.396 99.9468 235.453 99.7759C235.518 99.605 235.616 99.4585 235.746 99.3364C235.852 99.2306 235.986 99.1493 236.149 99.0923C236.32 99.0272 236.511 98.9946 236.723 98.9946C236.934 98.9946 237.121 99.0272 237.284 99.0923C237.447 99.1493 237.581 99.2306 237.687 99.3364C237.817 99.4504 237.915 99.5928 237.98 99.7637C238.045 99.9346 238.078 100.122 238.078 100.325C238.078 100.691 237.964 100.997 237.736 101.241C237.508 101.485 237.17 101.607 236.723 101.607C236.267 101.607 235.925 101.485 235.697 101.241C235.478 100.997 235.368 100.691 235.368 100.325ZM244.694 110.274C244.694 109.322 244.833 108.439 245.109 107.625C245.386 106.803 245.785 106.091 246.306 105.489C246.818 104.887 247.445 104.415 248.186 104.073C248.926 103.723 249.76 103.548 250.688 103.548C251.624 103.548 252.462 103.723 253.203 104.073C253.951 104.415 254.586 104.887 255.107 105.489C255.62 106.091 256.014 106.803 256.291 107.625C256.568 108.439 256.706 109.322 256.706 110.274V110.542C256.706 111.495 256.568 112.378 256.291 113.191C256.014 114.005 255.62 114.713 255.107 115.315C254.586 115.918 253.955 116.39 253.215 116.731C252.474 117.073 251.64 117.244 250.712 117.244C249.777 117.244 248.934 117.073 248.186 116.731C247.445 116.39 246.818 115.918 246.306 115.315C245.785 114.713 245.386 114.005 245.109 113.191C244.833 112.378 244.694 111.495 244.694 110.542V110.274ZM246.953 110.542C246.953 111.194 247.03 111.816 247.185 112.41C247.339 112.996 247.575 113.513 247.893 113.96C248.202 114.408 248.592 114.762 249.064 115.022C249.536 115.283 250.086 115.413 250.712 115.413C251.331 115.413 251.872 115.283 252.336 115.022C252.808 114.762 253.203 114.408 253.52 113.96C253.829 113.513 254.061 112.996 254.216 112.41C254.37 111.816 254.448 111.194 254.448 110.542V110.274C254.448 109.631 254.366 109.017 254.204 108.431C254.049 107.837 253.817 107.316 253.508 106.868C253.19 106.421 252.796 106.067 252.324 105.806C251.86 105.538 251.315 105.403 250.688 105.403C250.061 105.403 249.516 105.538 249.052 105.806C248.588 106.067 248.202 106.421 247.893 106.868C247.575 107.316 247.339 107.837 247.185 108.431C247.03 109.017 246.953 109.631 246.953 110.274V110.542ZM259.844 117V103.792H261.87L262.029 105.745C262.224 105.468 262.436 105.216 262.664 104.988C262.9 104.752 263.148 104.549 263.408 104.378C263.799 104.118 264.222 103.918 264.678 103.78C265.142 103.633 265.63 103.556 266.143 103.548C266.834 103.548 267.461 103.646 268.022 103.841C268.592 104.036 269.076 104.341 269.475 104.756C269.874 105.171 270.179 105.7 270.391 106.343C270.61 106.978 270.72 107.735 270.72 108.614V117H268.462V108.663C268.462 108.077 268.397 107.58 268.267 107.173C268.136 106.766 267.945 106.437 267.693 106.185C267.432 105.932 267.115 105.749 266.741 105.635C266.375 105.521 265.951 105.464 265.471 105.464C265.056 105.464 264.67 105.525 264.312 105.647C263.953 105.761 263.624 105.92 263.323 106.124C263.079 106.303 262.851 106.51 262.639 106.746C262.436 106.982 262.257 107.243 262.102 107.527V117H259.844ZM278.899 115.535C278.899 115.055 279.046 114.644 279.339 114.302C279.632 113.96 280.075 113.79 280.669 113.79C281.255 113.79 281.699 113.96 282 114.302C282.309 114.636 282.464 115.047 282.464 115.535C282.464 116.015 282.309 116.418 282 116.744C281.691 117.069 281.247 117.232 280.669 117.232C280.083 117.232 279.64 117.069 279.339 116.744C279.046 116.41 278.899 116.007 278.899 115.535ZM278.899 104.842C278.899 104.362 279.046 103.951 279.339 103.609C279.632 103.267 280.075 103.096 280.669 103.096C281.255 103.096 281.699 103.267 282 103.609C282.309 103.943 282.464 104.354 282.464 104.842C282.464 105.322 282.309 105.725 282 106.05C281.691 106.376 281.247 106.539 280.669 106.539C280.083 106.539 279.64 106.376 279.339 106.05C279.046 105.717 278.899 105.314 278.899 104.842ZM312.042 103.548C312.458 103.548 312.889 103.576 313.336 103.633C313.792 103.69 314.134 103.768 314.362 103.865L314.057 106.075C313.617 105.977 313.198 105.908 312.799 105.867C312.409 105.818 311.998 105.794 311.566 105.794C311.013 105.794 310.513 105.863 310.065 106.001C309.617 106.132 309.227 106.327 308.893 106.587C308.592 106.815 308.327 107.096 308.1 107.43C307.88 107.755 307.697 108.121 307.55 108.528V117H305.28V103.792H307.428L307.526 105.562L307.538 105.892C308.075 105.167 308.718 104.598 309.467 104.183C310.224 103.759 311.082 103.548 312.042 103.548ZM317.268 110.274C317.268 109.322 317.406 108.439 317.683 107.625C317.959 106.803 318.358 106.091 318.879 105.489C319.392 104.887 320.018 104.415 320.759 104.073C321.499 103.723 322.333 103.548 323.261 103.548C324.197 103.548 325.035 103.723 325.776 104.073C326.525 104.415 327.159 104.887 327.68 105.489C328.193 106.091 328.588 106.803 328.864 107.625C329.141 108.439 329.279 109.322 329.279 110.274V110.542C329.279 111.495 329.141 112.378 328.864 113.191C328.588 114.005 328.193 114.713 327.68 115.315C327.159 115.918 326.529 116.39 325.788 116.731C325.048 117.073 324.213 117.244 323.286 117.244C322.35 117.244 321.507 117.073 320.759 116.731C320.018 116.39 319.392 115.918 318.879 115.315C318.358 114.713 317.959 114.005 317.683 113.191C317.406 112.378 317.268 111.495 317.268 110.542V110.274ZM319.526 110.542C319.526 111.194 319.603 111.816 319.758 112.41C319.912 112.996 320.148 113.513 320.466 113.96C320.775 114.408 321.166 114.762 321.638 115.022C322.11 115.283 322.659 115.413 323.286 115.413C323.904 115.413 324.445 115.283 324.909 115.022C325.381 114.762 325.776 114.408 326.093 113.96C326.403 113.513 326.634 112.996 326.789 112.41C326.944 111.816 327.021 111.194 327.021 110.542V110.274C327.021 109.631 326.94 109.017 326.777 108.431C326.622 107.837 326.39 107.316 326.081 106.868C325.764 106.421 325.369 106.067 324.897 105.806C324.433 105.538 323.888 105.403 323.261 105.403C322.635 105.403 322.089 105.538 321.625 105.806C321.162 106.067 320.775 106.421 320.466 106.868C320.148 107.316 319.912 107.837 319.758 108.431C319.603 109.017 319.526 109.631 319.526 110.274V110.542ZM333.687 117L330.879 103.792H332.881L334.419 112.215L334.688 114.107L335.017 112.215L337.129 103.792H338.582L340.681 112.215L341.035 114.29L341.365 112.215L342.83 103.792H344.832L342.024 117H340.242L338.179 108.907L337.837 106.856L337.507 108.907L335.469 117H333.687ZM351.363 104.842C351.363 104.362 351.509 103.951 351.802 103.609C352.095 103.267 352.539 103.096 353.133 103.096C353.719 103.096 354.162 103.267 354.463 103.609C354.773 103.943 354.927 104.354 354.927 104.842C354.927 105.322 354.773 105.725 354.463 106.05C354.154 106.376 353.711 106.539 353.133 106.539C352.547 106.539 352.103 106.376 351.802 106.05C351.509 105.717 351.363 105.314 351.363 104.842ZM354.268 116.475C354.268 117.289 354.077 118.119 353.694 118.965C353.312 119.812 352.795 120.524 352.144 121.102L350.74 120.333C351.131 119.763 351.408 119.157 351.57 118.514C351.733 117.871 351.814 117.203 351.814 116.512V114.327H354.268V116.475ZM73.4116 138.757C73.5907 138.489 73.79 138.245 74.0098 138.025C74.2295 137.797 74.4614 137.598 74.7056 137.427C75.0962 137.142 75.5234 136.926 75.9873 136.78C76.4593 136.633 76.9598 136.556 77.4888 136.548C78.1805 136.548 78.8071 136.65 79.3687 136.853C79.9383 137.048 80.4225 137.358 80.8213 137.781C81.2201 138.204 81.5252 138.741 81.7368 139.392C81.9565 140.035 82.0664 140.8 82.0664 141.687V150H79.8081V141.663C79.8081 141.142 79.7471 140.686 79.625 140.295C79.5029 139.897 79.3239 139.567 79.0879 139.307C78.8356 139.022 78.5182 138.81 78.1357 138.672C77.7533 138.525 77.3138 138.456 76.8174 138.464C76.4105 138.464 76.0239 138.521 75.6577 138.635C75.2915 138.749 74.9538 138.912 74.6445 139.124C74.4004 139.286 74.1725 139.478 73.9609 139.697C73.7575 139.909 73.5744 140.145 73.4116 140.405V150H71.1533V131.25H73.4116V138.757ZM91.5029 150.244C90.5752 150.244 89.7207 150.085 88.9395 149.768C88.1663 149.451 87.5031 149.007 86.9497 148.438C86.3963 147.868 85.965 147.192 85.6558 146.411C85.3465 145.63 85.1919 144.779 85.1919 143.86V143.347C85.1919 142.281 85.3628 141.329 85.7046 140.491C86.0464 139.644 86.5021 138.928 87.0718 138.342C87.6333 137.764 88.2721 137.321 88.9883 137.012C89.7126 136.702 90.4531 136.548 91.21 136.548C92.1621 136.548 92.9922 136.715 93.7002 137.048C94.4163 137.374 95.0104 137.826 95.4824 138.403C95.9544 138.989 96.3044 139.677 96.5322 140.466C96.7682 141.256 96.8862 142.11 96.8862 143.03V144.043H87.4502V144.128C87.5072 144.771 87.6333 145.337 87.8286 145.825C88.0321 146.313 88.3088 146.745 88.6587 147.119C89.0168 147.518 89.4481 147.831 89.9526 148.059C90.4572 148.287 91.0146 148.401 91.625 148.401C92.4307 148.401 93.1468 148.238 93.7734 147.913C94.4001 147.587 94.9209 147.156 95.3359 146.619L96.7153 147.693C96.2759 148.36 95.6167 148.954 94.7378 149.475C93.867 149.988 92.7887 150.244 91.5029 150.244ZM91.21 138.403C90.7542 138.403 90.3229 138.489 89.916 138.66C89.5091 138.822 89.1429 139.062 88.8174 139.38C88.4919 139.705 88.2152 140.104 87.9873 140.576C87.7676 141.04 87.613 141.577 87.5234 142.188H94.6279V142.078C94.6279 141.671 94.5506 141.235 94.396 140.771C94.2414 140.299 94.0257 139.893 93.749 139.551C93.4723 139.209 93.1224 138.932 92.6992 138.721C92.2842 138.509 91.7878 138.403 91.21 138.403ZM100.537 136.792H107.287V148.047H111.596V150H100.537V148.047H105.029V138.757H100.537V136.792ZM104.736 133.325C104.736 133.13 104.764 132.947 104.821 132.776C104.886 132.605 104.984 132.458 105.114 132.336C105.22 132.231 105.354 132.149 105.517 132.092C105.688 132.027 105.879 131.995 106.091 131.995C106.302 131.995 106.49 132.027 106.652 132.092C106.815 132.149 106.949 132.231 107.055 132.336C107.185 132.45 107.283 132.593 107.348 132.764C107.413 132.935 107.446 133.122 107.446 133.325C107.446 133.691 107.332 133.997 107.104 134.241C106.876 134.485 106.538 134.607 106.091 134.607C105.635 134.607 105.293 134.485 105.065 134.241C104.846 133.997 104.736 133.691 104.736 133.325ZM114.282 143.286C114.282 142.301 114.4 141.398 114.636 140.576C114.88 139.746 115.23 139.034 115.686 138.44C116.142 137.846 116.695 137.382 117.346 137.048C117.997 136.715 118.734 136.548 119.556 136.548C120.085 136.548 120.569 136.609 121.008 136.731C121.456 136.853 121.859 137.032 122.217 137.268C122.412 137.39 122.595 137.533 122.766 137.695C122.945 137.858 123.112 138.037 123.267 138.232L123.376 136.792H125.427V149.719C125.427 150.59 125.289 151.363 125.012 152.039C124.744 152.714 124.365 153.288 123.877 153.76C123.381 154.232 122.791 154.59 122.107 154.834C121.423 155.078 120.667 155.2 119.836 155.2C119.495 155.2 119.104 155.16 118.665 155.078C118.225 155.005 117.782 154.879 117.334 154.7C116.878 154.529 116.439 154.297 116.016 154.004C115.601 153.711 115.243 153.349 114.941 152.917L116.113 151.562C116.39 151.896 116.675 152.177 116.968 152.405C117.261 152.641 117.558 152.828 117.859 152.966C118.16 153.105 118.461 153.202 118.762 153.259C119.063 153.324 119.364 153.357 119.666 153.357C120.203 153.357 120.687 153.28 121.118 153.125C121.549 152.97 121.92 152.743 122.229 152.441C122.53 152.148 122.762 151.782 122.925 151.343C123.088 150.903 123.169 150.399 123.169 149.829V148.694C122.998 148.889 122.815 149.068 122.62 149.231C122.432 149.394 122.229 149.536 122.009 149.658C121.667 149.845 121.289 149.988 120.874 150.085C120.459 150.191 120.011 150.244 119.531 150.244C118.726 150.244 117.997 150.073 117.346 149.731C116.695 149.39 116.146 148.918 115.698 148.315C115.243 147.713 114.893 147.005 114.648 146.191C114.404 145.369 114.282 144.486 114.282 143.542V143.286ZM116.541 143.542C116.541 144.185 116.606 144.796 116.736 145.374C116.874 145.951 117.09 146.46 117.383 146.899C117.668 147.339 118.034 147.689 118.481 147.949C118.929 148.201 119.466 148.328 120.093 148.328C120.483 148.328 120.833 148.283 121.143 148.193C121.46 148.096 121.745 147.961 121.997 147.791C122.241 147.62 122.461 147.416 122.656 147.18C122.852 146.944 123.022 146.684 123.169 146.399V140.344C123.022 140.068 122.852 139.815 122.656 139.587C122.461 139.36 122.237 139.16 121.985 138.989C121.733 138.826 121.452 138.7 121.143 138.611C120.833 138.513 120.492 138.464 120.117 138.464C119.482 138.464 118.937 138.595 118.481 138.855C118.034 139.115 117.668 139.465 117.383 139.905C117.09 140.352 116.874 140.869 116.736 141.455C116.606 142.033 116.541 142.643 116.541 143.286V143.542ZM131.47 138.757C131.649 138.489 131.849 138.245 132.068 138.025C132.288 137.797 132.52 137.598 132.764 137.427C133.155 137.142 133.582 136.926 134.046 136.78C134.518 136.633 135.018 136.556 135.547 136.548C136.239 136.548 136.866 136.65 137.427 136.853C137.997 137.048 138.481 137.358 138.88 137.781C139.279 138.204 139.584 138.741 139.795 139.392C140.015 140.035 140.125 140.8 140.125 141.687V150H137.867V141.663C137.867 141.142 137.806 140.686 137.684 140.295C137.562 139.897 137.382 139.567 137.146 139.307C136.894 139.022 136.577 138.81 136.194 138.672C135.812 138.525 135.372 138.456 134.876 138.464C134.469 138.464 134.083 138.521 133.716 138.635C133.35 138.749 133.012 138.912 132.703 139.124C132.459 139.286 132.231 139.478 132.02 139.697C131.816 139.909 131.633 140.145 131.47 140.405V150H129.212V131.25H131.47V138.757ZM149.073 133.594V136.792H154.103V138.538H149.073V145.715C149.073 146.228 149.138 146.651 149.269 146.985C149.399 147.319 149.578 147.583 149.806 147.778C150.034 147.982 150.294 148.124 150.587 148.206C150.888 148.287 151.205 148.328 151.539 148.328C151.783 148.328 152.035 148.315 152.296 148.291C152.556 148.258 152.813 148.222 153.065 148.181C153.309 148.14 153.537 148.1 153.749 148.059C153.968 148.01 154.147 147.97 154.286 147.937L154.603 149.536C154.416 149.65 154.188 149.752 153.919 149.841C153.651 149.923 153.358 149.992 153.041 150.049C152.723 150.114 152.385 150.163 152.027 150.195C151.677 150.228 151.327 150.244 150.978 150.244C150.392 150.244 149.842 150.163 149.33 150C148.825 149.829 148.386 149.561 148.011 149.194C147.637 148.836 147.34 148.372 147.12 147.803C146.909 147.225 146.803 146.529 146.803 145.715V138.538H143.336V136.792H146.803V133.594H149.073ZM162.782 148.535C162.782 148.055 162.929 147.644 163.222 147.302C163.515 146.96 163.958 146.79 164.552 146.79C165.138 146.79 165.582 146.96 165.883 147.302C166.192 147.636 166.347 148.047 166.347 148.535C166.347 149.015 166.192 149.418 165.883 149.744C165.574 150.069 165.13 150.232 164.552 150.232C163.966 150.232 163.523 150.069 163.222 149.744C162.929 149.41 162.782 149.007 162.782 148.535ZM162.782 137.842C162.782 137.362 162.929 136.951 163.222 136.609C163.515 136.267 163.958 136.096 164.552 136.096C165.138 136.096 165.582 136.267 165.883 136.609C166.192 136.943 166.347 137.354 166.347 137.842C166.347 138.322 166.192 138.725 165.883 139.05C165.574 139.376 165.13 139.539 164.552 139.539C163.966 139.539 163.523 139.376 163.222 139.05C162.929 138.717 162.782 138.314 162.782 137.842ZM194.595 150H192.336V135.107L187.686 136.877V134.814L194.412 132.227H194.595V150ZM212.942 143.201C212.942 144.332 212.812 145.337 212.552 146.216C212.291 147.087 211.917 147.819 211.429 148.413C210.94 149.015 210.342 149.471 209.634 149.78C208.926 150.09 208.117 150.244 207.205 150.244C206.302 150.244 205.492 150.094 204.776 149.792C204.06 149.483 203.453 149.023 202.957 148.413C202.461 147.819 202.082 147.087 201.822 146.216C201.561 145.337 201.431 144.332 201.431 143.201V139.038C201.431 137.907 201.561 136.906 201.822 136.035C202.082 135.156 202.461 134.416 202.957 133.813C203.445 133.211 204.043 132.756 204.751 132.446C205.468 132.129 206.277 131.97 207.181 131.97C208.092 131.97 208.902 132.129 209.61 132.446C210.326 132.756 210.932 133.211 211.429 133.813C211.917 134.416 212.291 135.156 212.552 136.035C212.812 136.906 212.942 137.907 212.942 139.038V143.201ZM203.702 142.749L210.623 137.439C210.558 136.853 210.44 136.336 210.269 135.889C210.106 135.433 209.882 135.055 209.598 134.753C209.321 134.444 208.979 134.212 208.572 134.058C208.174 133.903 207.71 133.826 207.181 133.826C206.644 133.826 206.167 133.911 205.752 134.082C205.346 134.245 205 134.485 204.715 134.802C204.373 135.201 204.117 135.718 203.946 136.353C203.783 136.979 203.702 137.708 203.702 138.538V141.516C203.702 141.72 203.702 141.923 203.702 142.126C203.702 142.33 203.702 142.537 203.702 142.749ZM210.672 143.677V141.162C210.672 141.04 210.672 140.808 210.672 140.466C210.672 140.116 210.672 139.827 210.672 139.6L203.763 144.885C203.836 145.479 203.966 146.004 204.153 146.46C204.34 146.908 204.585 147.278 204.886 147.571C205.162 147.847 205.496 148.059 205.887 148.206C206.277 148.344 206.717 148.413 207.205 148.413C207.718 148.413 208.174 148.336 208.572 148.181C208.971 148.027 209.309 147.803 209.585 147.51C209.96 147.111 210.232 146.59 210.403 145.947C210.582 145.304 210.672 144.548 210.672 143.677ZM227.457 143.201C227.457 144.332 227.327 145.337 227.066 146.216C226.806 147.087 226.432 147.819 225.943 148.413C225.455 149.015 224.857 149.471 224.149 149.78C223.441 150.09 222.631 150.244 221.72 150.244C220.816 150.244 220.007 150.094 219.291 149.792C218.574 149.483 217.968 149.023 217.472 148.413C216.975 147.819 216.597 147.087 216.336 146.216C216.076 145.337 215.946 144.332 215.946 143.201V139.038C215.946 137.907 216.076 136.906 216.336 136.035C216.597 135.156 216.975 134.416 217.472 133.813C217.96 133.211 218.558 132.756 219.266 132.446C219.982 132.129 220.792 131.97 221.695 131.97C222.607 131.97 223.417 132.129 224.125 132.446C224.841 132.756 225.447 133.211 225.943 133.813C226.432 134.416 226.806 135.156 227.066 136.035C227.327 136.906 227.457 137.907 227.457 139.038V143.201ZM218.216 142.749L225.138 137.439C225.073 136.853 224.955 136.336 224.784 135.889C224.621 135.433 224.397 135.055 224.112 134.753C223.836 134.444 223.494 134.212 223.087 134.058C222.688 133.903 222.224 133.826 221.695 133.826C221.158 133.826 220.682 133.911 220.267 134.082C219.86 134.245 219.514 134.485 219.229 134.802C218.888 135.201 218.631 135.718 218.46 136.353C218.298 136.979 218.216 137.708 218.216 138.538V141.516C218.216 141.72 218.216 141.923 218.216 142.126C218.216 142.33 218.216 142.537 218.216 142.749ZM225.187 143.677V141.162C225.187 141.04 225.187 140.808 225.187 140.466C225.187 140.116 225.187 139.827 225.187 139.6L218.277 144.885C218.351 145.479 218.481 146.004 218.668 146.46C218.855 146.908 219.099 147.278 219.4 147.571C219.677 147.847 220.011 148.059 220.401 148.206C220.792 148.344 221.231 148.413 221.72 148.413C222.232 148.413 222.688 148.336 223.087 148.181C223.486 148.027 223.823 147.803 224.1 147.51C224.474 147.111 224.747 146.59 224.918 145.947C225.097 145.304 225.187 144.548 225.187 143.677ZM229.228 135.425C229.228 134.961 229.297 134.521 229.435 134.106C229.582 133.683 229.793 133.313 230.07 132.996C230.338 132.678 230.676 132.43 231.083 132.251C231.49 132.064 231.958 131.97 232.487 131.97C233.024 131.97 233.496 132.064 233.903 132.251C234.318 132.43 234.664 132.678 234.94 132.996C235.209 133.313 235.412 133.683 235.551 134.106C235.697 134.521 235.771 134.961 235.771 135.425V136.365C235.771 136.829 235.697 137.268 235.551 137.683C235.412 138.098 235.209 138.46 234.94 138.77C234.664 139.087 234.322 139.339 233.915 139.526C233.508 139.705 233.04 139.795 232.511 139.795C231.982 139.795 231.51 139.705 231.095 139.526C230.688 139.339 230.347 139.087 230.07 138.77C229.793 138.46 229.582 138.098 229.435 137.683C229.297 137.268 229.228 136.829 229.228 136.365V135.425ZM230.912 136.365C230.912 136.617 230.941 136.861 230.998 137.097C231.055 137.325 231.148 137.528 231.278 137.708C231.409 137.895 231.571 138.045 231.767 138.159C231.97 138.265 232.218 138.318 232.511 138.318C232.796 138.318 233.036 138.265 233.231 138.159C233.435 138.045 233.598 137.895 233.72 137.708C233.842 137.528 233.931 137.325 233.988 137.097C234.053 136.861 234.086 136.617 234.086 136.365V135.425C234.086 135.173 234.053 134.928 233.988 134.692C233.931 134.448 233.842 134.233 233.72 134.045C233.59 133.866 233.423 133.724 233.219 133.618C233.024 133.504 232.78 133.447 232.487 133.447C232.202 133.447 231.958 133.504 231.754 133.618C231.559 133.724 231.4 133.866 231.278 134.045C231.148 134.233 231.055 134.448 230.998 134.692C230.941 134.928 230.912 135.173 230.912 135.425V136.365ZM236.564 145.874C236.564 145.41 236.633 144.971 236.771 144.556C236.918 144.141 237.13 143.774 237.406 143.457C237.683 143.14 238.025 142.891 238.432 142.712C238.839 142.525 239.306 142.432 239.835 142.432C240.373 142.432 240.845 142.525 241.251 142.712C241.658 142.891 242 143.14 242.277 143.457C242.554 143.774 242.761 144.141 242.899 144.556C243.046 144.971 243.119 145.41 243.119 145.874V146.826C243.119 147.29 243.046 147.729 242.899 148.145C242.761 148.56 242.554 148.922 242.277 149.231C242 149.548 241.658 149.801 241.251 149.988C240.853 150.167 240.389 150.256 239.86 150.256C239.323 150.256 238.847 150.167 238.432 149.988C238.025 149.801 237.683 149.548 237.406 149.231C237.13 148.922 236.918 148.56 236.771 148.145C236.633 147.729 236.564 147.29 236.564 146.826V145.874ZM238.249 146.826C238.249 147.078 238.277 147.323 238.334 147.559C238.399 147.795 238.497 148.002 238.627 148.181C238.749 148.368 238.912 148.519 239.115 148.633C239.319 148.739 239.567 148.792 239.86 148.792C240.145 148.792 240.385 148.739 240.58 148.633C240.784 148.519 240.946 148.368 241.068 148.181C241.19 148.002 241.28 147.795 241.337 147.559C241.394 147.323 241.422 147.078 241.422 146.826V145.874C241.422 145.622 241.394 145.378 241.337 145.142C241.28 144.906 241.19 144.694 241.068 144.507C240.938 144.328 240.771 144.185 240.568 144.08C240.364 143.966 240.12 143.909 239.835 143.909C239.542 143.909 239.294 143.966 239.091 144.08C238.896 144.185 238.737 144.328 238.615 144.507C238.485 144.694 238.391 144.906 238.334 145.142C238.277 145.378 238.249 145.622 238.249 145.874V146.826ZM233.549 147.705L232.194 146.948L239.115 134.29L240.47 135.046L233.549 147.705ZM249.76 137.842C249.76 137.362 249.907 136.951 250.2 136.609C250.493 136.267 250.936 136.096 251.53 136.096C252.116 136.096 252.56 136.267 252.861 136.609C253.17 136.943 253.325 137.354 253.325 137.842C253.325 138.322 253.17 138.725 252.861 139.05C252.552 139.376 252.108 139.539 251.53 139.539C250.944 139.539 250.501 139.376 250.2 139.05C249.907 138.717 249.76 138.314 249.76 137.842ZM252.666 149.475C252.666 150.289 252.474 151.119 252.092 151.965C251.709 152.812 251.193 153.524 250.542 154.102L249.138 153.333C249.528 152.763 249.805 152.157 249.968 151.514C250.131 150.871 250.212 150.203 250.212 149.512V147.327H252.666V149.475ZM43.9429 186.064C44.4393 186.048 44.8543 185.909 45.188 185.649C45.5216 185.389 45.7902 185.055 45.9937 184.648C46.189 184.249 46.3273 183.798 46.4087 183.293C46.4982 182.797 46.543 182.296 46.543 181.792V179.729C46.543 179.086 46.6366 178.492 46.8237 177.946C47.019 177.401 47.3161 176.929 47.7148 176.53C47.9264 176.319 48.1624 176.127 48.4229 175.957C48.6914 175.786 48.9844 175.635 49.3018 175.505C48.9762 175.375 48.6751 175.22 48.3984 175.041C48.1299 174.862 47.8939 174.663 47.6904 174.443C47.2998 174.036 47.0109 173.564 46.8237 173.027C46.6366 172.482 46.543 171.892 46.543 171.257V169.182C46.543 168.685 46.5145 168.185 46.4575 167.68C46.4087 167.176 46.2988 166.72 46.1279 166.313C45.9489 165.914 45.6885 165.585 45.3467 165.324C45.0049 165.064 44.541 164.925 43.9551 164.909L44.1992 163.505C44.9886 163.53 45.6641 163.697 46.2256 164.006C46.7952 164.315 47.2632 164.718 47.6294 165.214C48.0444 165.776 48.3415 166.407 48.5205 167.106C48.7077 167.806 48.8013 168.498 48.8013 169.182V171.257C48.8013 171.745 48.846 172.176 48.9355 172.551C49.0332 172.917 49.1756 173.234 49.3628 173.503C49.6313 173.885 50.0016 174.166 50.4736 174.345C50.9538 174.516 51.5275 174.602 52.1948 174.602V176.372C51.6089 176.38 51.0962 176.453 50.6567 176.591C50.2254 176.722 49.8714 176.929 49.5947 177.214C49.3262 177.491 49.1268 177.836 48.9966 178.251C48.8664 178.667 48.8013 179.159 48.8013 179.729V181.792C48.8013 182.443 48.7118 183.098 48.5327 183.757C48.3537 184.424 48.077 185.03 47.7026 185.576C47.3201 186.121 46.84 186.569 46.2622 186.918C45.6844 187.268 44.9967 187.451 44.1992 187.468L43.9429 186.064Z" fill="white"/>
<path d="M62.2661 49.4131C62.673 49.4131 63.0677 49.348 63.4502 49.2178C63.8408 49.0876 64.1867 48.9045 64.4878 48.6685C64.7889 48.4406 65.029 48.172 65.208 47.8628C65.3952 47.5454 65.4928 47.2036 65.501 46.8374H67.6372C67.6291 47.4233 67.4744 47.9849 67.1733 48.522C66.8804 49.0509 66.4857 49.5148 65.9893 49.9136C65.4928 50.3205 64.9232 50.646 64.2803 50.8901C63.6374 51.1261 62.966 51.2441 62.2661 51.2441C61.2651 51.2441 60.3903 51.0651 59.6416 50.707C58.8929 50.349 58.2703 49.8647 57.7739 49.2544C57.2694 48.6522 56.891 47.9564 56.6387 47.167C56.3864 46.3695 56.2603 45.5312 56.2603 44.6523V44.1396C56.2603 43.2689 56.3864 42.4347 56.6387 41.6372C56.891 40.8397 57.2694 40.1357 57.7739 39.5254C58.2703 38.9232 58.8929 38.443 59.6416 38.085C60.3903 37.7269 61.2651 37.5479 62.2661 37.5479C63.0474 37.5479 63.7635 37.674 64.4146 37.9263C65.0737 38.1704 65.6434 38.5041 66.1235 38.9272C66.5955 39.3586 66.9658 39.8672 67.2344 40.4531C67.5029 41.0391 67.6372 41.6657 67.6372 42.333H65.501C65.4928 41.9342 65.4033 41.5599 65.2324 41.21C65.0697 40.8519 64.8459 40.5386 64.561 40.27C64.2762 40.0015 63.9344 39.7899 63.5356 39.6353C63.145 39.4806 62.7218 39.4033 62.2661 39.4033C61.5662 39.4033 60.9762 39.5457 60.4961 39.8306C60.0241 40.1073 59.6416 40.4694 59.3486 40.917C59.0557 41.3727 58.8441 41.8813 58.7139 42.4429C58.5918 43.0044 58.5308 43.57 58.5308 44.1396V44.6523C58.5308 45.2301 58.5918 45.8039 58.7139 46.3735C58.8441 46.9351 59.0557 47.4396 59.3486 47.8872C59.6335 48.3429 60.0119 48.7132 60.4839 48.998C60.964 49.2747 61.5581 49.4131 62.2661 49.4131ZM70.5186 44.2739C70.5186 43.3218 70.6569 42.4388 70.9336 41.625C71.2103 40.8031 71.609 40.091 72.1299 39.4888C72.6426 38.8866 73.2692 38.4146 74.0098 38.0728C74.7503 37.7228 75.5845 37.5479 76.5122 37.5479C77.4481 37.5479 78.2863 37.7228 79.0269 38.0728C79.7756 38.4146 80.4103 38.8866 80.9312 39.4888C81.4438 40.091 81.8385 40.8031 82.1152 41.625C82.3919 42.4388 82.5303 43.3218 82.5303 44.2739V44.5425C82.5303 45.4946 82.3919 46.3776 82.1152 47.1914C81.8385 48.0052 81.4438 48.7132 80.9312 49.3154C80.4103 49.9176 79.7796 50.3896 79.0391 50.7314C78.2985 51.0732 77.4644 51.2441 76.5366 51.2441C75.6007 51.2441 74.7585 51.0732 74.0098 50.7314C73.2692 50.3896 72.6426 49.9176 72.1299 49.3154C71.609 48.7132 71.2103 48.0052 70.9336 47.1914C70.6569 46.3776 70.5186 45.4946 70.5186 44.5425V44.2739ZM72.7769 44.5425C72.7769 45.1935 72.8542 45.8161 73.0088 46.4102C73.1634 46.9961 73.3994 47.5129 73.7168 47.9604C74.026 48.408 74.4167 48.762 74.8887 49.0225C75.3607 49.2829 75.91 49.4131 76.5366 49.4131C77.1551 49.4131 77.6963 49.2829 78.1602 49.0225C78.6322 48.762 79.0269 48.408 79.3442 47.9604C79.6535 47.5129 79.8854 46.9961 80.04 46.4102C80.1947 45.8161 80.272 45.1935 80.272 44.5425V44.2739C80.272 43.631 80.1906 43.0166 80.0278 42.4307C79.8732 41.8366 79.6413 41.3158 79.332 40.8682C79.0146 40.4206 78.62 40.0666 78.1479 39.8062C77.6841 39.5376 77.1388 39.4033 76.5122 39.4033C75.8856 39.4033 75.3403 39.5376 74.8765 39.8062C74.4126 40.0666 74.026 40.4206 73.7168 40.8682C73.3994 41.3158 73.1634 41.8366 73.0088 42.4307C72.8542 43.0166 72.7769 43.631 72.7769 44.2739V44.5425ZM85.668 51V37.792H87.6943L87.853 39.7451C88.0483 39.4684 88.2599 39.2161 88.4878 38.9883C88.7238 38.7523 88.972 38.5488 89.2324 38.3779C89.623 38.1175 90.0462 37.9181 90.502 37.7798C90.9658 37.6333 91.4541 37.556 91.9668 37.5479C92.6585 37.5479 93.2852 37.6455 93.8467 37.8408C94.4163 38.0361 94.9006 38.3413 95.2993 38.7563C95.6981 39.1714 96.0033 39.7004 96.2148 40.3433C96.4346 40.978 96.5444 41.7349 96.5444 42.6138V51H94.2861V42.6626C94.2861 42.0767 94.221 41.5802 94.0908 41.1733C93.9606 40.7664 93.7694 40.4368 93.5171 40.1846C93.2567 39.9323 92.9393 39.7492 92.5649 39.6353C92.1987 39.5213 91.7756 39.4644 91.2954 39.4644C90.8804 39.4644 90.4938 39.5254 90.1357 39.6475C89.7777 39.7614 89.4481 39.9201 89.147 40.1235C88.9028 40.3026 88.675 40.5101 88.4634 40.7461C88.2599 40.9821 88.0809 41.2425 87.9263 41.5273V51H85.668ZM105.529 34.5938V37.792H110.559V39.5376H105.529V46.7153C105.529 47.228 105.594 47.6512 105.725 47.9849C105.855 48.3185 106.034 48.583 106.262 48.7783C106.49 48.9818 106.75 49.1242 107.043 49.2056C107.344 49.2869 107.661 49.3276 107.995 49.3276C108.239 49.3276 108.492 49.3154 108.752 49.291C109.012 49.2585 109.269 49.2218 109.521 49.1812C109.765 49.1405 109.993 49.0998 110.205 49.0591C110.424 49.0103 110.603 48.9696 110.742 48.937L111.059 50.5361C110.872 50.6501 110.644 50.7518 110.375 50.8413C110.107 50.9227 109.814 50.9919 109.497 51.0488C109.179 51.1139 108.841 51.1628 108.483 51.1953C108.133 51.2279 107.784 51.2441 107.434 51.2441C106.848 51.2441 106.298 51.1628 105.786 51C105.281 50.8291 104.842 50.5605 104.467 50.1943C104.093 49.8363 103.796 49.3724 103.576 48.8027C103.365 48.2249 103.259 47.5291 103.259 46.7153V39.5376H99.792V37.792H103.259V34.5938H105.529ZM123.376 51C123.287 50.8291 123.214 50.6175 123.157 50.3652C123.108 50.1048 123.071 49.8363 123.047 49.5596C122.819 49.7874 122.563 50.0031 122.278 50.2065C122.001 50.41 121.696 50.589 121.362 50.7437C121.021 50.8983 120.658 51.0203 120.276 51.1099C119.893 51.1994 119.486 51.2441 119.055 51.2441C118.355 51.2441 117.721 51.1424 117.151 50.939C116.589 50.7355 116.113 50.4588 115.723 50.1089C115.324 49.7671 115.015 49.3602 114.795 48.8882C114.583 48.408 114.478 47.8913 114.478 47.3379C114.478 46.6136 114.62 45.9788 114.905 45.4336C115.198 44.8883 115.609 44.4326 116.138 44.0664C116.667 43.7083 117.301 43.4398 118.042 43.2607C118.791 43.0817 119.625 42.9922 120.544 42.9922H123.01V41.9546C123.01 41.5558 122.937 41.1978 122.791 40.8804C122.644 40.563 122.437 40.2904 122.168 40.0625C121.899 39.8428 121.57 39.6719 121.179 39.5498C120.797 39.4277 120.365 39.3667 119.885 39.3667C119.438 39.3667 119.035 39.4237 118.677 39.5376C118.327 39.6515 118.03 39.8021 117.786 39.9893C117.542 40.1764 117.35 40.4002 117.212 40.6606C117.082 40.9129 117.017 41.1774 117.017 41.4541H114.746C114.754 40.974 114.876 40.502 115.112 40.0381C115.356 39.5742 115.706 39.1551 116.162 38.7808C116.61 38.4146 117.155 38.1175 117.798 37.8896C118.449 37.6618 119.185 37.5479 120.007 37.5479C120.756 37.5479 121.452 37.6414 122.095 37.8286C122.738 38.0076 123.295 38.2803 123.767 38.6465C124.231 39.0208 124.597 39.4847 124.866 40.0381C125.134 40.5915 125.269 41.2384 125.269 41.979V48.1191C125.269 48.5586 125.309 49.0265 125.391 49.5229C125.472 50.0112 125.586 50.4385 125.732 50.8047V51H123.376ZM119.385 49.2788C119.824 49.2788 120.235 49.2218 120.618 49.1079C121 48.994 121.35 48.8434 121.667 48.6562C121.977 48.4691 122.245 48.2575 122.473 48.0215C122.701 47.7773 122.88 47.5251 123.01 47.2646V44.5913H120.911C120.129 44.5913 119.446 44.6605 118.86 44.7988C118.282 44.929 117.822 45.1325 117.48 45.4092C117.236 45.6045 117.049 45.8364 116.919 46.105C116.797 46.3735 116.736 46.6787 116.736 47.0205C116.736 47.346 116.789 47.6471 116.895 47.9238C117.008 48.2005 117.175 48.4365 117.395 48.6318C117.615 48.8353 117.891 48.994 118.225 49.1079C118.559 49.2218 118.945 49.2788 119.385 49.2788ZM129.566 37.792H136.316V49.0469H140.625V51H129.566V49.0469H134.058V39.7573H129.566V37.792ZM133.765 34.3252C133.765 34.1299 133.794 33.9468 133.851 33.7759C133.916 33.605 134.013 33.4585 134.144 33.3364C134.249 33.2306 134.384 33.1493 134.546 33.0923C134.717 33.0272 134.909 32.9946 135.12 32.9946C135.332 32.9946 135.519 33.0272 135.682 33.0923C135.844 33.1493 135.979 33.2306 136.084 33.3364C136.215 33.4504 136.312 33.5928 136.377 33.7637C136.443 33.9346 136.475 34.1217 136.475 34.3252C136.475 34.6914 136.361 34.9966 136.133 35.2407C135.905 35.4849 135.568 35.6069 135.12 35.6069C134.664 35.6069 134.323 35.4849 134.095 35.2407C133.875 34.9966 133.765 34.6914 133.765 34.3252ZM143.727 51V37.792H145.753L145.912 39.7451C146.107 39.4684 146.319 39.2161 146.546 38.9883C146.782 38.7523 147.031 38.5488 147.291 38.3779C147.682 38.1175 148.105 37.9181 148.561 37.7798C149.024 37.6333 149.513 37.556 150.025 37.5479C150.717 37.5479 151.344 37.6455 151.905 37.8408C152.475 38.0361 152.959 38.3413 153.358 38.7563C153.757 39.1714 154.062 39.7004 154.273 40.3433C154.493 40.978 154.603 41.7349 154.603 42.6138V51H152.345V42.6626C152.345 42.0767 152.28 41.5802 152.149 41.1733C152.019 40.7664 151.828 40.4368 151.576 40.1846C151.315 39.9323 150.998 39.7492 150.624 39.6353C150.257 39.5213 149.834 39.4644 149.354 39.4644C148.939 39.4644 148.552 39.5254 148.194 39.6475C147.836 39.7614 147.507 39.9201 147.206 40.1235C146.961 40.3026 146.734 40.5101 146.522 40.7461C146.319 40.9821 146.139 41.2425 145.985 41.5273V51H143.727ZM164.076 51.2441C163.148 51.2441 162.294 51.0854 161.513 50.7681C160.74 50.4507 160.076 50.0072 159.523 49.4375C158.97 48.8678 158.538 48.1924 158.229 47.4111C157.92 46.6299 157.765 45.7795 157.765 44.8599V44.3472C157.765 43.2811 157.936 42.3289 158.278 41.4907C158.62 40.6444 159.075 39.9282 159.645 39.3423C160.207 38.7645 160.845 38.321 161.562 38.0117C162.286 37.7025 163.026 37.5479 163.783 37.5479C164.735 37.5479 165.565 37.7147 166.273 38.0483C166.99 38.3739 167.584 38.8255 168.056 39.4033C168.528 39.9893 168.878 40.6769 169.105 41.4663C169.341 42.2557 169.459 43.1102 169.459 44.0298V45.043H160.023V45.1284C160.08 45.7713 160.207 46.3369 160.402 46.8252C160.605 47.3135 160.882 47.7448 161.232 48.1191C161.59 48.5179 162.021 48.8312 162.526 49.0591C163.03 49.2869 163.588 49.4009 164.198 49.4009C165.004 49.4009 165.72 49.2381 166.347 48.9126C166.973 48.5871 167.494 48.1558 167.909 47.6187L169.289 48.6929C168.849 49.3602 168.19 49.9543 167.311 50.4751C166.44 50.9878 165.362 51.2441 164.076 51.2441ZM163.783 39.4033C163.327 39.4033 162.896 39.4888 162.489 39.6597C162.082 39.8224 161.716 40.0625 161.391 40.3799C161.065 40.7054 160.788 41.1042 160.561 41.5762C160.341 42.04 160.186 42.5771 160.097 43.1875H167.201V43.0776C167.201 42.6707 167.124 42.2354 166.969 41.7715C166.815 41.2995 166.599 40.8926 166.322 40.5508C166.046 40.209 165.696 39.9323 165.272 39.7207C164.857 39.5091 164.361 39.4033 163.783 39.4033ZM181.411 37.5479C181.826 37.5479 182.257 37.5763 182.705 37.6333C183.16 37.6903 183.502 37.7676 183.73 37.8652L183.425 40.0747C182.985 39.9771 182.566 39.9079 182.167 39.8672C181.777 39.8184 181.366 39.7939 180.935 39.7939C180.381 39.7939 179.881 39.8631 179.433 40.0015C178.986 40.1317 178.595 40.327 178.261 40.5874C177.96 40.8153 177.696 41.096 177.468 41.4297C177.248 41.7552 177.065 42.1214 176.918 42.5283V51H174.648V37.792H176.796L176.894 39.562L176.906 39.8916C177.443 39.1673 178.086 38.5977 178.835 38.1826C179.592 37.7594 180.45 37.5479 181.411 37.5479Z" fill="#0066FF"/>
</svg>
