<svg width="1399" height="149" viewBox="0 0 1399 149" fill="none" xmlns="http://www.w3.org/2000/svg">
<rect width="1399" height="149" rx="20" fill="#0066FF" fill-opacity="0.2"/>
<rect x="1.5" y="1.5" width="1396" height="146" rx="18.5" stroke="#0066FF" stroke-opacity="0.5" stroke-width="3"/>
<path d="M41.6968 44.2861C41.6968 43.3014 41.8188 42.3981 42.063 41.5762C42.3153 40.7461 42.6733 40.034 43.1372 39.4399C43.5929 38.8459 44.1463 38.382 44.7974 38.0483C45.4484 37.7147 46.1768 37.5479 46.9824 37.5479C47.7718 37.5479 48.4595 37.6821 49.0454 37.9507C49.6395 38.2111 50.1522 38.5936 50.5835 39.0981V32.25H52.8418V51H50.7666L50.6689 49.6084C50.2295 50.1455 49.7046 50.5524 49.0942 50.8291C48.4839 51.1058 47.7718 51.2441 46.958 51.2441C46.1605 51.2441 45.4362 51.0732 44.7852 50.7314C44.1423 50.3896 43.5929 49.9176 43.1372 49.3154C42.6815 48.7132 42.3275 48.0052 42.0752 47.1914C41.8229 46.3695 41.6968 45.4865 41.6968 44.5425V44.2861ZM43.9551 44.5425C43.9551 45.1854 44.0243 45.7957 44.1626 46.3735C44.3009 46.9513 44.5166 47.46 44.8096 47.8994C45.0944 48.3389 45.4606 48.6888 45.9082 48.9492C46.3558 49.2015 46.8929 49.3276 47.5195 49.3276C48.2764 49.3276 48.903 49.1567 49.3994 48.8149C49.8958 48.4731 50.2905 48.0133 50.5835 47.4355V41.3076C50.2905 40.7705 49.8958 40.3311 49.3994 39.9893C48.903 39.6393 48.2845 39.4644 47.5439 39.4644C46.9092 39.4644 46.3639 39.5946 45.9082 39.855C45.4606 40.1154 45.0944 40.4653 44.8096 40.9048C44.5166 41.3524 44.3009 41.8691 44.1626 42.4551C44.0243 43.0329 43.9551 43.6432 43.9551 44.2861V44.5425ZM56.9927 37.792H63.7432V49.0469H68.0522V51H56.9927V49.0469H61.4849V39.7573H56.9927V37.792ZM61.1919 34.3252C61.1919 34.1299 61.2204 33.9468 61.2773 33.7759C61.3424 33.605 61.4401 33.4585 61.5703 33.3364C61.6761 33.2306 61.8104 33.1493 61.9731 33.0923C62.144 33.0272 62.3353 32.9946 62.5469 32.9946C62.7585 32.9946 62.9456 33.0272 63.1084 33.0923C63.2712 33.1493 63.4054 33.2306 63.5112 33.3364C63.6414 33.4504 63.7391 33.5928 63.8042 33.7637C63.8693 33.9346 63.9019 34.1217 63.9019 34.3252C63.9019 34.6914 63.7879 34.9966 63.5601 35.2407C63.3322 35.4849 62.9945 35.6069 62.5469 35.6069C62.0911 35.6069 61.7493 35.4849 61.5215 35.2407C61.3018 34.9966 61.1919 34.6914 61.1919 34.3252ZM75.6577 51L70.2256 37.792H72.5449L76.3291 47.7529L76.5366 48.5708L76.7563 47.7529L80.4551 37.792H82.7622L77.3789 51H75.6577ZM522.133 85.5137H520.729L531.264 66.2388H532.655L522.133 85.5137ZM540.59 72.1714L536.232 70.8408L536.855 69.4858L541.115 71.2314L541.762 66.2266H543.178L542.177 71.1948L546.828 69.437L547.084 70.8896L542.25 72.3057L544.851 76.2363L543.618 77.0664L541.372 72.8916L537.954 77.0054L536.867 76.1265L540.59 72.1714ZM570.828 68.6558C571.658 68.729 572.382 68.9569 573.001 69.3394C573.619 69.7137 574.124 70.1898 574.515 70.7676C574.905 71.3454 575.178 72.0005 575.333 72.7329C575.487 73.4653 575.512 74.2262 575.406 75.0156C575.284 75.8945 575.031 76.7165 574.649 77.4814C574.275 78.2464 573.794 78.9178 573.208 79.4956C572.623 80.0815 571.947 80.5535 571.182 80.9116C570.417 81.2616 569.587 81.465 568.692 81.522L568.216 84H566.812L567.276 81.5098C566.446 81.4365 565.722 81.2127 565.103 80.8384C564.485 80.464 563.98 79.9839 563.589 79.3979C563.199 78.812 562.926 78.1528 562.771 77.4204C562.625 76.688 562.605 75.9271 562.71 75.1377C562.833 74.2588 563.081 73.4368 563.455 72.6719C563.829 71.9069 564.314 71.2355 564.908 70.6577C565.494 70.0799 566.169 69.616 566.934 69.2661C567.699 68.908 568.525 68.7005 569.412 68.6436L569.888 66.2266H571.292L570.828 68.6558ZM564.139 75.1377C564.041 75.7562 564.029 76.3584 564.102 76.9443C564.175 77.5303 564.346 78.0552 564.615 78.519C564.883 78.991 565.245 79.3857 565.701 79.7031C566.165 80.0124 566.735 80.2036 567.41 80.2769L569.278 69.8765C568.578 69.9416 567.935 70.1247 567.349 70.4258C566.763 70.7269 566.25 71.1134 565.811 71.5854C565.363 72.0575 564.997 72.5986 564.712 73.209C564.436 73.8112 564.244 74.4541 564.139 75.1377ZM573.978 75.0156C574.075 74.3971 574.083 73.799 574.002 73.2212C573.929 72.6353 573.758 72.1104 573.489 71.6465C573.221 71.1826 572.854 70.7961 572.391 70.4868C571.927 70.1694 571.365 69.9741 570.706 69.9009L568.838 80.2891C569.546 80.2321 570.193 80.0531 570.779 79.752C571.365 79.4427 571.878 79.0521 572.317 78.5801C572.757 78.1081 573.115 77.5669 573.392 76.9565C573.676 76.3462 573.872 75.6992 573.978 75.0156ZM577.14 77.2495C577.27 76.3706 577.522 75.5202 577.896 74.6982C578.279 73.8763 578.767 73.152 579.361 72.5254C579.931 71.9313 580.594 71.4512 581.351 71.085C582.108 70.7188 582.95 70.5397 583.878 70.5479C584.505 70.556 585.07 70.6577 585.575 70.853C586.079 71.0402 586.515 71.2965 586.881 71.6221C587.215 71.9232 587.503 72.2731 587.748 72.6719C587.992 73.0706 588.187 73.4979 588.333 73.9536C588.48 74.45 588.574 74.9749 588.614 75.5283C588.663 76.0817 588.651 76.6351 588.578 77.1885L588.517 77.5913C588.386 78.4458 588.134 79.2759 587.76 80.0815C587.394 80.8791 586.926 81.5871 586.356 82.2056C585.778 82.8322 585.103 83.3327 584.33 83.707C583.565 84.0732 582.714 84.2523 581.778 84.2441C581.127 84.236 580.541 84.1302 580.021 83.9268C579.508 83.7152 579.064 83.4344 578.69 83.0845C578.381 82.7915 578.112 82.4578 577.884 82.0835C577.656 81.7091 577.477 81.3104 577.347 80.8872C577.184 80.3908 577.079 79.8659 577.03 79.3125C576.989 78.7591 577.005 78.2017 577.079 77.6401L577.14 77.2495ZM578.507 77.6401C578.417 78.2586 578.409 78.8975 578.482 79.5566C578.556 80.2077 578.735 80.7977 579.02 81.3267C579.272 81.8149 579.63 82.2137 580.094 82.5229C580.566 82.8322 581.144 82.995 581.827 83.0112C582.568 83.0194 583.235 82.8647 583.829 82.5474C584.431 82.23 584.956 81.8109 585.404 81.29C585.843 80.7773 586.209 80.1833 586.502 79.5078C586.795 78.8242 586.991 78.1854 587.088 77.5913L587.149 77.1885C587.239 76.5374 587.239 75.866 587.149 75.1743C587.06 74.4826 586.848 73.8722 586.515 73.3433C586.246 72.8957 585.892 72.5295 585.453 72.2446C585.013 71.9598 584.472 71.8092 583.829 71.793C583.089 71.7848 582.417 71.9435 581.815 72.269C581.213 72.5864 580.692 73.0055 580.252 73.5264C579.813 74.0472 579.451 74.6331 579.166 75.2842C578.881 75.9352 578.682 76.5903 578.568 77.2495L578.507 77.6401ZM600.907 84H599.467L600.517 77.9453H593.29L592.24 84H590.812L593.095 70.792H594.523L593.498 76.7002H600.724L601.75 70.792H603.19L600.907 84ZM625.933 71.793C625.436 71.793 624.952 71.8621 624.48 72.0005C624.016 72.1388 623.593 72.3423 623.21 72.6108C622.82 72.8794 622.486 73.209 622.209 73.5996C621.933 73.9821 621.733 74.4175 621.611 74.9058L620.22 74.918C620.342 74.2425 620.586 73.6362 620.952 73.0991C621.318 72.5539 621.766 72.09 622.295 71.7075C622.816 71.3413 623.394 71.0565 624.028 70.853C624.663 70.6414 625.31 70.5397 625.969 70.5479C626.62 70.5479 627.202 70.6414 627.715 70.8286C628.236 71.0158 628.691 71.2721 629.082 71.5977C629.408 71.8662 629.688 72.1795 629.924 72.5376C630.168 72.8957 630.364 73.2822 630.51 73.6973C630.706 74.21 630.832 74.7593 630.889 75.3452C630.946 75.923 630.938 76.5171 630.864 77.1274L630.791 77.6401C630.653 78.5272 630.392 79.3735 630.01 80.1792C629.635 80.9767 629.151 81.6807 628.557 82.291C627.955 82.8932 627.259 83.3734 626.47 83.7314C625.68 84.0814 624.814 84.2523 623.87 84.2441C623.17 84.236 622.535 84.118 621.965 83.8901C621.396 83.6541 620.916 83.3286 620.525 82.9136C620.126 82.4985 619.825 82.0062 619.622 81.4365C619.418 80.8587 619.341 80.2199 619.39 79.52L620.757 79.5322C620.708 80.0368 620.749 80.5007 620.879 80.9238C621.009 81.3389 621.217 81.701 621.501 82.0103C621.778 82.3195 622.12 82.5636 622.527 82.7427C622.942 82.9136 623.406 82.999 623.918 82.999C624.659 83.0153 625.326 82.8851 625.92 82.6084C626.523 82.3236 627.048 81.9451 627.495 81.4731C627.943 81.0093 628.321 80.4681 628.63 79.8496C628.94 79.2311 629.18 78.5964 629.351 77.9453H623.064L623.284 76.7002H629.473C629.546 76.0817 629.534 75.4795 629.436 74.8936C629.338 74.3076 629.147 73.7827 628.862 73.3188C628.569 72.8713 628.179 72.5091 627.69 72.2324C627.21 71.9476 626.624 71.8011 625.933 71.793ZM645.611 70.792L643.316 84H641.875L643.938 72.0615H638.47L637.566 76.627C637.477 77.1234 637.375 77.6483 637.261 78.2017C637.155 78.755 637.021 79.3003 636.858 79.8374C636.688 80.3826 636.48 80.9035 636.236 81.3999C636 81.8963 635.707 82.3358 635.357 82.7183C635.015 83.1007 634.604 83.41 634.124 83.646C633.652 83.8739 633.099 83.9919 632.464 84H631.902L632.085 82.6816H632.513C632.993 82.6654 633.404 82.5555 633.746 82.3521C634.096 82.1405 634.393 81.8678 634.637 81.5342C634.881 81.2087 635.084 80.8384 635.247 80.4233C635.41 80.0002 635.548 79.5648 635.662 79.1172C635.776 78.6777 635.866 78.2424 635.931 77.811C636.004 77.3716 636.073 76.9769 636.138 76.627L637.261 70.792H645.611ZM653.106 84.2441C652.195 84.236 651.397 84.0366 650.714 83.646C650.038 83.2554 649.493 82.7467 649.078 82.1201C648.688 81.5423 648.407 80.875 648.236 80.1182C648.073 79.3613 648.041 78.5841 648.138 77.7866L648.211 77.2495C648.293 76.6961 648.431 76.1468 648.626 75.6016C648.822 75.0482 649.07 74.5192 649.371 74.0146C649.672 73.5182 650.018 73.0584 650.409 72.6353C650.799 72.2039 651.231 71.8337 651.703 71.5244C652.175 71.2152 652.683 70.9751 653.229 70.8042C653.782 70.6252 654.364 70.5397 654.974 70.5479C655.82 70.556 656.541 70.735 657.135 71.085C657.729 71.4268 658.209 71.8825 658.575 72.4521C658.933 73.0137 659.173 73.6566 659.295 74.3809C659.417 75.1051 659.43 75.8457 659.332 76.6025L659.186 77.4937H649.627C649.489 78.2342 649.465 78.9219 649.554 79.5566C649.644 80.1914 649.859 80.7855 650.201 81.3389C650.494 81.8271 650.893 82.2218 651.397 82.5229C651.91 82.8241 652.508 82.9827 653.192 82.999C653.998 83.0153 654.742 82.8607 655.426 82.5352C656.109 82.2096 656.732 81.7702 657.293 81.2168L658.148 81.937C657.529 82.6857 656.777 83.2594 655.89 83.6582C655.011 84.057 654.083 84.2523 653.106 84.2441ZM654.925 71.8052C654.274 71.7889 653.676 71.911 653.131 72.1714C652.594 72.4237 652.118 72.7573 651.703 73.1724C651.271 73.5874 650.901 74.0635 650.592 74.6006C650.283 75.1377 650.026 75.687 649.823 76.2485L657.928 76.2607L657.965 76.0654C658.062 75.5446 658.067 75.0319 657.977 74.5273C657.888 74.0146 657.713 73.5589 657.452 73.1602C657.184 72.7614 656.838 72.4399 656.415 72.1958C655.991 71.9435 655.495 71.8133 654.925 71.8052ZM666.901 81.9736L672.431 70.8042L674.164 70.792L671.894 84H670.49L672.174 74.2588L667.121 84H666.12L664.398 73.7583L662.616 84H661.212L663.495 70.792H665.277L666.901 81.9736ZM681.452 84.2441C680.541 84.236 679.743 84.0366 679.06 83.646C678.384 83.2554 677.839 82.7467 677.424 82.1201C677.033 81.5423 676.752 80.875 676.582 80.1182C676.419 79.3613 676.386 78.5841 676.484 77.7866L676.557 77.2495C676.639 76.6961 676.777 76.1468 676.972 75.6016C677.167 75.0482 677.416 74.5192 677.717 74.0146C678.018 73.5182 678.364 73.0584 678.754 72.6353C679.145 72.2039 679.576 71.8337 680.048 71.5244C680.52 71.2152 681.029 70.9751 681.574 70.8042C682.128 70.6252 682.709 70.5397 683.32 70.5479C684.166 70.556 684.886 70.735 685.48 71.085C686.075 71.4268 686.555 71.8825 686.921 72.4521C687.279 73.0137 687.519 73.6566 687.641 74.3809C687.763 75.1051 687.775 75.8457 687.678 76.6025L687.531 77.4937H677.973C677.835 78.2342 677.81 78.9219 677.9 79.5566C677.989 80.1914 678.205 80.7855 678.547 81.3389C678.84 81.8271 679.239 82.2218 679.743 82.5229C680.256 82.8241 680.854 82.9827 681.538 82.999C682.343 83.0153 683.088 82.8607 683.771 82.5352C684.455 82.2096 685.078 81.7702 685.639 81.2168L686.494 81.937C685.875 82.6857 685.122 83.2594 684.235 83.6582C683.356 84.057 682.429 84.2523 681.452 84.2441ZM683.271 71.8052C682.62 71.7889 682.022 71.911 681.477 72.1714C680.939 72.4237 680.463 72.7573 680.048 73.1724C679.617 73.5874 679.247 74.0635 678.938 74.6006C678.628 75.1377 678.372 75.687 678.168 76.2485L686.274 76.2607L686.311 76.0654C686.408 75.5446 686.412 75.0319 686.323 74.5273C686.233 74.0146 686.058 73.5589 685.798 73.1602C685.529 72.7614 685.183 72.4399 684.76 72.1958C684.337 71.9435 683.841 71.8133 683.271 71.8052ZM700.117 84H698.677L699.727 77.9453H692.5L691.45 84H690.022L692.305 70.792H693.733L692.708 76.7002H699.934L700.959 70.792H702.4L700.117 84ZM717.562 72.0371H712.093L710.018 84H708.577L710.64 72.0371H705.379L705.574 70.792H717.757L717.562 72.0371ZM727.291 84C727.25 83.6663 727.238 83.3408 727.254 83.0234C727.279 82.6979 727.319 82.3724 727.376 82.0469C727.1 82.3398 726.803 82.6125 726.485 82.8647C726.168 83.1089 725.834 83.3205 725.484 83.4995C725.029 83.7437 724.549 83.9308 724.044 84.061C723.539 84.1912 723.019 84.2523 722.481 84.2441C721.952 84.236 721.448 84.1465 720.968 83.9756C720.488 83.7965 720.081 83.5483 719.747 83.231C719.397 82.9136 719.129 82.5311 718.941 82.0835C718.762 81.6278 718.701 81.1151 718.758 80.5454C718.815 80.0002 718.954 79.516 719.173 79.0928C719.393 78.6696 719.674 78.2993 720.016 77.9819C720.349 77.6727 720.728 77.4123 721.151 77.2007C721.574 76.9891 722.022 76.8141 722.494 76.6758C722.966 76.5456 723.446 76.452 723.934 76.395C724.431 76.3381 724.915 76.3096 725.387 76.3096H728.255L728.5 74.8203C728.565 74.332 728.532 73.9007 728.402 73.5264C728.28 73.152 728.084 72.8346 727.816 72.5742C727.547 72.3138 727.218 72.1185 726.827 71.9883C726.437 71.8499 726.009 71.7808 725.545 71.7808C725.106 71.7726 724.675 71.8255 724.251 71.9395C723.828 72.0452 723.438 72.208 723.08 72.4277C722.722 72.6556 722.408 72.9364 722.14 73.27C721.879 73.5955 721.688 73.9821 721.566 74.4297L720.138 74.4175C720.252 73.7827 720.488 73.2253 720.846 72.7451C721.212 72.2568 721.651 71.8499 722.164 71.5244C722.669 71.1989 723.222 70.9548 723.824 70.792C724.435 70.6211 725.045 70.5397 725.655 70.5479C726.298 70.5479 726.896 70.6455 727.45 70.8408C728.003 71.028 728.479 71.3047 728.878 71.6709C729.269 72.0452 729.557 72.501 729.745 73.0381C729.94 73.5671 729.997 74.1693 729.916 74.8447L728.829 81.229C728.756 81.6685 728.719 82.1079 728.719 82.5474C728.719 82.9787 728.748 83.41 728.805 83.8413L728.78 84H727.291ZM722.689 82.9502C723.185 82.9583 723.67 82.9014 724.142 82.7793C724.614 82.6572 725.057 82.4782 725.472 82.2422C725.871 82.0143 726.245 81.7417 726.595 81.4243C726.953 81.0988 727.271 80.7407 727.547 80.3501L728.06 77.4448L725.582 77.4326C725.167 77.4326 724.723 77.4611 724.251 77.5181C723.779 77.5669 723.324 77.6605 722.884 77.7988C722.567 77.8883 722.262 78.0023 721.969 78.1406C721.684 78.2708 721.424 78.4377 721.188 78.6411C720.935 78.8608 720.72 79.1172 720.541 79.4102C720.37 79.695 720.256 80.0286 720.199 80.4111C720.142 80.8099 720.17 81.1639 720.284 81.4731C720.398 81.7824 720.573 82.0428 720.809 82.2544C721.037 82.4741 721.314 82.645 721.639 82.7671C721.973 82.881 722.323 82.9421 722.689 82.9502ZM753.854 71.6587C754.685 71.6668 755.409 71.8377 756.027 72.1714C756.646 72.4969 757.154 72.9282 757.553 73.4653C757.952 74.0106 758.233 74.6372 758.396 75.3452C758.566 76.0532 758.607 76.7938 758.518 77.5669L758.469 77.9697C758.347 78.8079 758.107 79.6095 757.749 80.3745C757.399 81.1313 756.939 81.7987 756.369 82.3765C755.808 82.9543 755.153 83.4141 754.404 83.7559C753.655 84.0895 752.837 84.2523 751.95 84.2441C751.079 84.236 750.319 84.057 749.667 83.707C749.025 83.349 748.5 82.881 748.093 82.3032C747.686 81.7254 747.401 81.0622 747.238 80.3135C747.076 79.5566 747.043 78.7795 747.141 77.9819L747.189 77.5791L747.202 77.4814L747.324 76.688C747.421 75.9963 747.56 75.3005 747.739 74.6006C747.926 73.9007 748.158 73.2212 748.435 72.562C748.703 71.911 749.029 71.2925 749.411 70.7065C749.794 70.1125 750.233 69.5794 750.729 69.1074C751.226 68.6436 751.783 68.2489 752.402 67.9233C753.028 67.5897 753.72 67.3537 754.477 67.2153C754.843 67.1502 755.218 67.0811 755.6 67.0078C755.991 66.9264 756.353 66.8084 756.687 66.6538C757.02 66.5073 757.317 66.3079 757.578 66.0557C757.838 65.8034 758.025 65.4697 758.139 65.0547H759.372C759.266 65.6813 759.071 66.1981 758.786 66.605C758.501 67.0037 758.155 67.3293 757.749 67.5815C757.325 67.8257 756.857 68.0169 756.345 68.1553C755.832 68.2936 755.295 68.4116 754.733 68.5093C753.977 68.6313 753.301 68.8633 752.707 69.2051C752.121 69.5387 751.6 69.9456 751.145 70.4258C750.689 70.9222 750.29 71.4756 749.948 72.0859C749.606 72.6882 749.305 73.327 749.045 74.0024C749.663 73.2944 750.38 72.7248 751.193 72.2935C752.007 71.8621 752.894 71.6506 753.854 71.6587ZM753.61 72.9038C752.943 72.8957 752.325 73.0177 751.755 73.27C751.185 73.5223 750.685 73.8641 750.253 74.2954C749.822 74.7267 749.464 75.2272 749.179 75.7969C748.903 76.3665 748.711 76.9647 748.605 77.5913L748.544 77.9941C748.471 78.5882 748.479 79.1823 748.569 79.7764C748.667 80.3704 748.854 80.9035 749.13 81.3755C749.407 81.8475 749.781 82.234 750.253 82.5352C750.725 82.8363 751.303 82.9909 751.987 82.999C752.687 83.0153 753.326 82.881 753.903 82.5962C754.481 82.3114 754.986 81.9329 755.417 81.4609C755.848 80.9889 756.198 80.4478 756.467 79.8374C756.743 79.2271 756.935 78.6045 757.041 77.9697L757.089 77.5669C757.163 76.9728 757.142 76.3991 757.028 75.8457C756.923 75.2842 756.723 74.7878 756.43 74.3564C756.137 73.9251 755.755 73.5793 755.283 73.3188C754.811 73.0503 754.253 72.9119 753.61 72.9038ZM766.184 81.2656L766.416 81.8027L772.898 70.8042H774.583L765.33 86.124C765.085 86.5472 764.809 86.95 764.5 87.3325C764.19 87.7231 763.853 88.069 763.486 88.3701C763.112 88.6631 762.701 88.8991 762.253 89.0781C761.814 89.2572 761.33 89.3467 760.801 89.3467C760.589 89.3467 760.378 89.3304 760.166 89.2979C759.963 89.2653 759.755 89.2287 759.543 89.188L759.824 87.9429C759.995 87.9673 760.162 87.9917 760.325 88.0161C760.496 88.0405 760.662 88.0527 760.825 88.0527C761.2 88.0446 761.549 87.9673 761.875 87.8208C762.201 87.6825 762.498 87.4993 762.766 87.2715C763.035 87.0436 763.279 86.7832 763.499 86.4902C763.726 86.1973 763.934 85.9043 764.121 85.6113L765.391 83.585L761.863 70.7798H763.413L766.184 81.2656ZM775.12 82.7671C775.494 82.5555 775.832 82.2788 776.133 81.937C776.443 81.5952 776.719 81.2168 776.963 80.8018C777.191 80.403 777.395 79.9798 777.574 79.5322C777.753 79.0846 777.911 78.6289 778.05 78.165C778.18 77.7093 778.298 77.2576 778.404 76.8101C778.51 76.3625 778.603 75.9474 778.685 75.5649L779.722 70.792H787.291L785.228 82.7549H786.558L785.569 87.8818H784.239L784.91 84H775.303L774.632 87.8818H773.387L774.156 82.7549L775.12 82.7671ZM780.125 75.5649C779.987 76.2078 779.832 76.8507 779.661 77.4937C779.498 78.1366 779.299 78.7673 779.063 79.3857C778.819 80.0042 778.538 80.5983 778.221 81.168C777.903 81.7376 777.521 82.2747 777.073 82.7793L783.799 82.7549L785.63 72.1592H780.857L780.125 75.5649ZM794.835 84.2441C793.924 84.236 793.126 84.0366 792.442 83.646C791.767 83.2554 791.222 82.7467 790.807 82.1201C790.416 81.5423 790.135 80.875 789.964 80.1182C789.802 79.3613 789.769 78.5841 789.867 77.7866L789.94 77.2495C790.021 76.6961 790.16 76.1468 790.355 75.6016C790.55 75.0482 790.799 74.5192 791.1 74.0146C791.401 73.5182 791.747 73.0584 792.137 72.6353C792.528 72.2039 792.959 71.8337 793.431 71.5244C793.903 71.2152 794.412 70.9751 794.957 70.8042C795.51 70.6252 796.092 70.5397 796.703 70.5479C797.549 70.556 798.269 70.735 798.863 71.085C799.457 71.4268 799.938 71.8825 800.304 72.4521C800.662 73.0137 800.902 73.6566 801.024 74.3809C801.146 75.1051 801.158 75.8457 801.061 76.6025L800.914 77.4937H791.356C791.218 78.2342 791.193 78.9219 791.283 79.5566C791.372 80.1914 791.588 80.7855 791.93 81.3389C792.223 81.8271 792.621 82.2218 793.126 82.5229C793.639 82.8241 794.237 82.9827 794.92 82.999C795.726 83.0153 796.471 82.8607 797.154 82.5352C797.838 82.2096 798.46 81.7702 799.022 81.2168L799.876 81.937C799.258 82.6857 798.505 83.2594 797.618 83.6582C796.739 84.057 795.812 84.2523 794.835 84.2441ZM796.654 71.8052C796.003 71.7889 795.405 71.911 794.859 72.1714C794.322 72.4237 793.846 72.7573 793.431 73.1724C793 73.5874 792.63 74.0635 792.32 74.6006C792.011 75.1377 791.755 75.687 791.551 76.2485L799.657 76.2607L799.693 76.0654C799.791 75.5446 799.795 75.0319 799.706 74.5273C799.616 74.0146 799.441 73.5589 799.181 73.1602C798.912 72.7614 798.566 72.4399 798.143 72.1958C797.72 71.9435 797.223 71.8133 796.654 71.8052ZM816.771 72.0371H811.303L809.228 84H807.787L809.85 72.0371H804.589L804.784 70.792H816.967L816.771 72.0371ZM837.134 83.0112C837.622 83.0112 838.094 82.9421 838.55 82.8037C839.006 82.6572 839.421 82.4456 839.795 82.1689C840.161 81.9085 840.479 81.5871 840.747 81.2046C841.016 80.8221 841.219 80.3989 841.357 79.9351L842.725 79.9229C842.594 80.5739 842.35 81.168 841.992 81.7051C841.634 82.2422 841.203 82.6938 840.698 83.0601C840.186 83.4425 839.62 83.7396 839.001 83.9512C838.383 84.1546 837.748 84.2523 837.097 84.2441C836.479 84.2441 835.925 84.1546 835.437 83.9756C834.957 83.7884 834.538 83.5361 834.18 83.2188C833.797 82.8932 833.48 82.5067 833.228 82.0591C832.983 81.6115 832.796 81.1232 832.666 80.5942C832.552 80.1385 832.483 79.6624 832.458 79.166C832.442 78.6696 832.467 78.1691 832.532 77.6646L832.605 77.1519C832.735 76.2974 832.979 75.4673 833.337 74.6616C833.704 73.8478 834.172 73.1357 834.741 72.5254C835.286 71.9232 835.933 71.443 836.682 71.085C837.439 70.7188 838.277 70.5397 839.197 70.5479C839.88 70.556 840.495 70.6821 841.04 70.9263C841.593 71.1623 842.065 71.4837 842.456 71.8906C842.839 72.3138 843.127 72.8102 843.323 73.3799C843.518 73.9495 843.599 74.5721 843.567 75.2476L842.212 75.2354C842.236 74.7552 842.183 74.3076 842.053 73.8926C841.931 73.4775 841.74 73.1113 841.479 72.7939C841.211 72.4928 840.877 72.2528 840.479 72.0737C840.088 71.8947 839.644 71.8011 839.148 71.793C838.391 71.7848 837.72 71.9395 837.134 72.2568C836.556 72.5742 836.056 72.9771 835.632 73.4653C835.217 73.978 834.875 74.5558 834.607 75.1987C834.338 75.8416 834.147 76.4927 834.033 77.1519L833.96 77.6646C833.903 78.0633 833.87 78.4743 833.862 78.8975C833.862 79.3125 833.903 79.7153 833.984 80.106C834.049 80.4966 834.159 80.8669 834.314 81.2168C834.469 81.5667 834.676 81.8719 834.937 82.1323C835.189 82.3927 835.494 82.6043 835.852 82.7671C836.218 82.9217 836.646 83.0031 837.134 83.0112ZM845.887 84L848.169 70.792H852.918C853.243 70.8001 853.573 70.8245 853.907 70.8652C854.249 70.9059 854.578 70.971 854.896 71.0605C855.197 71.1501 855.477 71.2599 855.738 71.3901C856.006 71.5203 856.246 71.679 856.458 71.8662C856.767 72.1348 857.003 72.4644 857.166 72.855C857.337 73.2456 857.39 73.7135 857.325 74.2588C857.276 74.6576 857.17 75.0116 857.007 75.3208C856.853 75.63 856.653 75.9027 856.409 76.1387C856.165 76.3747 855.892 76.5822 855.591 76.7612C855.29 76.9321 854.952 77.0827 854.578 77.2129C854.944 77.3105 855.274 77.457 855.567 77.6523C855.86 77.8477 856.104 78.0755 856.299 78.3359C856.486 78.6045 856.621 78.9056 856.702 79.2393C856.792 79.5648 856.816 79.9147 856.775 80.2891C856.718 80.8424 856.572 81.3267 856.336 81.7417C856.108 82.1486 855.815 82.4945 855.457 82.7793C855.229 82.9909 854.973 83.174 854.688 83.3286C854.403 83.4832 854.102 83.6094 853.785 83.707C853.451 83.8047 853.101 83.8779 852.735 83.9268C852.369 83.9756 852.007 84 851.648 84H845.887ZM848.377 77.9209L847.535 82.7671H851.661C852.076 82.7671 852.487 82.7223 852.894 82.6328C853.309 82.5352 853.687 82.3887 854.029 82.1934C854.362 81.998 854.651 81.7417 854.896 81.4243C855.14 81.1069 855.298 80.7204 855.372 80.2646C855.437 79.8415 855.4 79.4834 855.262 79.1904C855.132 78.8893 854.936 78.6452 854.676 78.458C854.415 78.279 854.11 78.1488 853.76 78.0674C853.41 77.9779 853.056 77.929 852.698 77.9209H848.377ZM848.584 76.688L852.1 76.7002C852.507 76.6921 852.918 76.6514 853.333 76.5781C853.748 76.4967 854.135 76.3665 854.493 76.1875C854.843 76.0085 855.144 75.7684 855.396 75.4673C855.648 75.158 855.815 74.7756 855.896 74.3198C855.945 74.0431 855.945 73.799 855.896 73.5874C855.856 73.3677 855.778 73.1764 855.665 73.0137C855.559 72.8509 855.42 72.7166 855.25 72.6108C855.079 72.4969 854.891 72.4033 854.688 72.3301C854.411 72.2243 854.114 72.1551 853.797 72.1226C853.488 72.0819 853.187 72.0575 852.894 72.0493L849.39 72.0371L848.584 76.688ZM865.699 84.2441C864.788 84.236 863.99 84.0366 863.307 83.646C862.631 83.2554 862.086 82.7467 861.671 82.1201C861.28 81.5423 861 80.875 860.829 80.1182C860.666 79.3613 860.633 78.5841 860.731 77.7866L860.804 77.2495C860.886 76.6961 861.024 76.1468 861.219 75.6016C861.415 75.0482 861.663 74.5192 861.964 74.0146C862.265 73.5182 862.611 73.0584 863.001 72.6353C863.392 72.2039 863.823 71.8337 864.295 71.5244C864.767 71.2152 865.276 70.9751 865.821 70.8042C866.375 70.6252 866.957 70.5397 867.567 70.5479C868.413 70.556 869.133 70.735 869.728 71.085C870.322 71.4268 870.802 71.8825 871.168 72.4521C871.526 73.0137 871.766 73.6566 871.888 74.3809C872.01 75.1051 872.022 75.8457 871.925 76.6025L871.778 77.4937H862.22C862.082 78.2342 862.057 78.9219 862.147 79.5566C862.236 80.1914 862.452 80.7855 862.794 81.3389C863.087 81.8271 863.486 82.2218 863.99 82.5229C864.503 82.8241 865.101 82.9827 865.785 82.999C866.59 83.0153 867.335 82.8607 868.019 82.5352C868.702 82.2096 869.325 81.7702 869.886 81.2168L870.741 81.937C870.122 82.6857 869.369 83.2594 868.482 83.6582C867.604 84.057 866.676 84.2523 865.699 84.2441ZM867.518 71.8052C866.867 71.7889 866.269 71.911 865.724 72.1714C865.187 72.4237 864.71 72.7573 864.295 73.1724C863.864 73.5874 863.494 74.0635 863.185 74.6006C862.875 75.1377 862.619 75.687 862.416 76.2485L870.521 76.2607L870.558 76.0654C870.655 75.5446 870.659 75.0319 870.57 74.5273C870.48 74.0146 870.305 73.5589 870.045 73.1602C869.776 72.7614 869.431 72.4399 869.007 72.1958C868.584 71.9435 868.088 71.8133 867.518 71.8052ZM887.636 72.0371H882.167L880.092 84H878.651L880.714 72.0371H875.453L875.648 70.792H887.831L887.636 72.0371ZM900.722 70.792L898.427 84H896.987L899.05 72.0615H893.581L892.678 76.627C892.588 77.1234 892.486 77.6483 892.373 78.2017C892.267 78.755 892.132 79.3003 891.97 79.8374C891.799 80.3826 891.591 80.9035 891.347 81.3999C891.111 81.8963 890.818 82.3358 890.468 82.7183C890.126 83.1007 889.715 83.41 889.235 83.646C888.763 83.8739 888.21 83.9919 887.575 84H887.014L887.197 82.6816H887.624C888.104 82.6654 888.515 82.5555 888.857 82.3521C889.207 82.1405 889.504 81.8678 889.748 81.5342C889.992 81.2087 890.196 80.8384 890.358 80.4233C890.521 80.0002 890.66 79.5648 890.773 79.1172C890.887 78.6777 890.977 78.2424 891.042 77.811C891.115 77.3716 891.184 76.9769 891.25 76.627L892.373 70.792H900.722ZM903.115 77.2495C903.245 76.3706 903.498 75.5202 903.872 74.6982C904.255 73.8763 904.743 73.152 905.337 72.5254C905.907 71.9313 906.57 71.4512 907.327 71.085C908.083 70.7188 908.926 70.5397 909.854 70.5479C910.48 70.556 911.046 70.6577 911.55 70.853C912.055 71.0402 912.49 71.2965 912.856 71.6221C913.19 71.9232 913.479 72.2731 913.723 72.6719C913.967 73.0706 914.163 73.4979 914.309 73.9536C914.456 74.45 914.549 74.9749 914.59 75.5283C914.639 76.0817 914.626 76.6351 914.553 77.1885L914.492 77.5913C914.362 78.4458 914.11 79.2759 913.735 80.0815C913.369 80.8791 912.901 81.5871 912.332 82.2056C911.754 82.8322 911.078 83.3327 910.305 83.707C909.54 84.0732 908.69 84.2523 907.754 84.2441C907.103 84.236 906.517 84.1302 905.996 83.9268C905.483 83.7152 905.04 83.4344 904.666 83.0845C904.356 82.7915 904.088 82.4578 903.86 82.0835C903.632 81.7091 903.453 81.3104 903.323 80.8872C903.16 80.3908 903.054 79.8659 903.005 79.3125C902.965 78.7591 902.981 78.2017 903.054 77.6401L903.115 77.2495ZM904.482 77.6401C904.393 78.2586 904.385 78.8975 904.458 79.5566C904.531 80.2077 904.71 80.7977 904.995 81.3267C905.247 81.8149 905.605 82.2137 906.069 82.5229C906.541 82.8322 907.119 82.995 907.803 83.0112C908.543 83.0194 909.211 82.8647 909.805 82.5474C910.407 82.23 910.932 81.8109 911.379 81.29C911.819 80.7773 912.185 80.1833 912.478 79.5078C912.771 78.8242 912.966 78.1854 913.064 77.5913L913.125 77.1885C913.215 76.5374 913.215 75.866 913.125 75.1743C913.035 74.4826 912.824 73.8722 912.49 73.3433C912.222 72.8957 911.868 72.5295 911.428 72.2446C910.989 71.9598 910.448 71.8092 909.805 71.793C909.064 71.7848 908.393 71.9435 907.791 72.269C907.188 72.5864 906.667 73.0055 906.228 73.5264C905.789 74.0472 905.426 74.6331 905.142 75.2842C904.857 75.9352 904.657 76.5903 904.543 77.2495L904.482 77.6401ZM927.322 76.6758H918.533L918.741 75.4185H927.53L927.322 76.6758ZM936.344 83.0112C936.832 83.0112 937.304 82.9421 937.76 82.8037C938.215 82.6572 938.631 82.4456 939.005 82.1689C939.371 81.9085 939.688 81.5871 939.957 81.2046C940.226 80.8221 940.429 80.3989 940.567 79.9351L941.935 79.9229C941.804 80.5739 941.56 81.168 941.202 81.7051C940.844 82.2422 940.413 82.6938 939.908 83.0601C939.396 83.4425 938.83 83.7396 938.211 83.9512C937.593 84.1546 936.958 84.2523 936.307 84.2441C935.689 84.2441 935.135 84.1546 934.647 83.9756C934.167 83.7884 933.748 83.5361 933.39 83.2188C933.007 82.8932 932.69 82.5067 932.438 82.0591C932.193 81.6115 932.006 81.1232 931.876 80.5942C931.762 80.1385 931.693 79.6624 931.668 79.166C931.652 78.6696 931.677 78.1691 931.742 77.6646L931.815 77.1519C931.945 76.2974 932.189 75.4673 932.547 74.6616C932.914 73.8478 933.382 73.1357 933.951 72.5254C934.496 71.9232 935.143 71.443 935.892 71.085C936.649 70.7188 937.487 70.5397 938.407 70.5479C939.09 70.556 939.705 70.6821 940.25 70.9263C940.803 71.1623 941.275 71.4837 941.666 71.8906C942.049 72.3138 942.337 72.8102 942.533 73.3799C942.728 73.9495 942.809 74.5721 942.777 75.2476L941.422 75.2354C941.446 74.7552 941.393 74.3076 941.263 73.8926C941.141 73.4775 940.95 73.1113 940.689 72.7939C940.421 72.4928 940.087 72.2528 939.688 72.0737C939.298 71.8947 938.854 71.8011 938.358 71.793C937.601 71.7848 936.93 71.9395 936.344 72.2568C935.766 72.5742 935.265 72.9771 934.842 73.4653C934.427 73.978 934.085 74.5558 933.817 75.1987C933.548 75.8416 933.357 76.4927 933.243 77.1519L933.17 77.6646C933.113 78.0633 933.08 78.4743 933.072 78.8975C933.072 79.3125 933.113 79.7153 933.194 80.106C933.259 80.4966 933.369 80.8669 933.524 81.2168C933.679 81.5667 933.886 81.8719 934.146 82.1323C934.399 82.3927 934.704 82.6043 935.062 82.7671C935.428 82.9217 935.855 83.0031 936.344 83.0112ZM950.736 84.2441C949.825 84.236 949.027 84.0366 948.344 83.646C947.668 83.2554 947.123 82.7467 946.708 82.1201C946.317 81.5423 946.037 80.875 945.866 80.1182C945.703 79.3613 945.67 78.5841 945.768 77.7866L945.841 77.2495C945.923 76.6961 946.061 76.1468 946.256 75.6016C946.452 75.0482 946.7 74.5192 947.001 74.0146C947.302 73.5182 947.648 73.0584 948.039 72.6353C948.429 72.2039 948.861 71.8337 949.333 71.5244C949.805 71.2152 950.313 70.9751 950.858 70.8042C951.412 70.6252 951.994 70.5397 952.604 70.5479C953.45 70.556 954.171 70.735 954.765 71.085C955.359 71.4268 955.839 71.8825 956.205 72.4521C956.563 73.0137 956.803 73.6566 956.925 74.3809C957.047 75.1051 957.06 75.8457 956.962 76.6025L956.815 77.4937H947.257C947.119 78.2342 947.095 78.9219 947.184 79.5566C947.274 80.1914 947.489 80.7855 947.831 81.3389C948.124 81.8271 948.523 82.2218 949.027 82.5229C949.54 82.8241 950.138 82.9827 950.822 82.999C951.627 83.0153 952.372 82.8607 953.056 82.5352C953.739 82.2096 954.362 81.7702 954.923 81.2168L955.778 81.937C955.159 82.6857 954.407 83.2594 953.52 83.6582C952.641 84.057 951.713 84.2523 950.736 84.2441ZM952.555 71.8052C951.904 71.7889 951.306 71.911 950.761 72.1714C950.224 72.4237 949.748 72.7573 949.333 73.1724C948.901 73.5874 948.531 74.0635 948.222 74.6006C947.912 75.1377 947.656 75.687 947.453 76.2485L955.558 76.2607L955.595 76.0654C955.692 75.5446 955.696 75.0319 955.607 74.5273C955.517 74.0146 955.342 73.5589 955.082 73.1602C954.813 72.7614 954.468 72.4399 954.044 72.1958C953.621 71.9435 953.125 71.8133 952.555 71.8052ZM970.854 77.4937C970.773 78.0063 970.655 78.5272 970.5 79.0562C970.354 79.577 970.162 80.0775 969.926 80.5576C969.674 81.111 969.361 81.6278 968.986 82.1079C968.62 82.5881 968.201 82.9909 967.729 83.3164C967.314 83.6094 966.858 83.8372 966.362 84C965.874 84.1709 965.34 84.2523 964.763 84.2441C964.356 84.2441 963.961 84.1953 963.579 84.0977C963.196 84 962.838 83.8576 962.504 83.6704C962.236 83.5158 961.984 83.3327 961.748 83.1211C961.52 82.9095 961.32 82.6654 961.149 82.3887L959.941 89.0781H958.525L961.687 70.792H963.005L962.675 72.6108C962.911 72.3341 963.168 72.0778 963.444 71.8418C963.721 71.5977 964.014 71.3901 964.323 71.2192C964.706 70.9995 965.109 70.8327 965.532 70.7188C965.955 70.6048 966.398 70.5479 966.862 70.5479C967.465 70.556 967.993 70.6577 968.449 70.853C968.905 71.0483 969.292 71.3088 969.609 71.6343C969.926 71.9679 970.183 72.3545 970.378 72.7939C970.581 73.2334 970.732 73.6973 970.83 74.1855C970.919 74.682 970.964 75.1906 970.964 75.7114C970.972 76.2323 970.944 76.7409 970.878 77.2373L970.854 77.4937ZM969.45 77.2373C969.507 76.8141 969.536 76.3747 969.536 75.9189C969.544 75.4551 969.507 75.0075 969.426 74.5762C969.353 74.21 969.251 73.8722 969.121 73.563C968.99 73.2456 968.819 72.9648 968.608 72.7207C968.372 72.4521 968.079 72.2406 967.729 72.0859C967.379 71.9232 966.964 71.8377 966.484 71.8296C966.036 71.8296 965.609 71.8988 965.202 72.0371C964.803 72.1673 964.433 72.3545 964.091 72.5986C963.774 72.8184 963.481 73.0747 963.212 73.3677C962.952 73.6606 962.72 73.974 962.517 74.3076L961.381 80.7651C961.487 81.1232 961.638 81.4406 961.833 81.7173C962.036 81.9858 962.272 82.2137 962.541 82.4009C962.81 82.5962 963.107 82.7427 963.432 82.8403C963.766 82.938 964.12 82.9909 964.494 82.999C964.982 83.0072 965.43 82.938 965.837 82.7915C966.252 82.645 966.626 82.4416 966.96 82.1812C967.326 81.9126 967.648 81.5911 967.924 81.2168C968.201 80.8343 968.441 80.4315 968.645 80.0083C968.832 79.6095 968.99 79.1945 969.121 78.7632C969.251 78.3319 969.348 77.9087 969.414 77.4937L969.45 77.2373ZM975.969 75.8213H978.008C978.577 75.8457 979.078 75.9637 979.509 76.1753C979.949 76.3869 980.311 76.6717 980.596 77.0298C980.881 77.396 981.084 77.8192 981.206 78.2993C981.328 78.7713 981.361 79.284 981.304 79.8374C981.23 80.4315 981.068 80.9849 980.815 81.4976C980.571 82.0021 980.25 82.4375 979.851 82.8037C979.46 83.1781 979.001 83.471 978.472 83.6826C977.951 83.8861 977.389 83.9919 976.787 84H973.186L975.481 70.792H976.836L975.969 75.8213ZM983.892 84H982.5L984.783 70.792H986.187L983.892 84ZM975.798 77.0542L974.797 82.7549H976.799C977.239 82.7386 977.633 82.6491 977.983 82.4863C978.341 82.3236 978.655 82.1038 978.923 81.8271C979.159 81.5749 979.355 81.2819 979.509 80.9482C979.672 80.6146 979.786 80.2565 979.851 79.874C979.908 79.5241 979.916 79.1864 979.875 78.8608C979.835 78.5272 979.741 78.2301 979.595 77.9697C979.44 77.7093 979.229 77.4977 978.96 77.335C978.691 77.1722 978.366 77.0827 977.983 77.0664L975.798 77.0542ZM992.876 81.9736L998.406 70.8042L1000.14 70.792L997.869 84H996.465L998.15 74.2588L993.096 84H992.095L990.374 73.7583L988.592 84H987.188L989.471 70.792H991.253L992.876 81.9736ZM1022.47 72.1714L1018.11 70.8408L1018.73 69.4858L1022.99 71.2314L1023.64 66.2266H1025.06L1024.05 71.1948L1028.71 69.437L1028.96 70.8896L1024.13 72.3057L1026.73 76.2363L1025.49 77.0664L1023.25 72.8916L1019.83 77.0054L1018.74 76.1265L1022.47 72.1714ZM1032.36 85.5137H1030.95L1041.49 66.2388H1042.88L1032.36 85.5137Z" fill="#0066FF"/>
<path d="M109.997 55.4678C109.208 55.4434 108.524 55.2603 107.946 54.9185C107.368 54.5767 106.888 54.125 106.506 53.5635C106.14 53.0264 105.863 52.4242 105.676 51.7568C105.489 51.0977 105.395 50.4425 105.395 49.7915V47.7285C105.395 46.5566 105.114 45.7062 104.553 45.1772C103.999 44.6483 103.149 44.3797 102.001 44.3716V42.6016C103.149 42.6016 103.999 42.3411 104.553 41.8203C105.114 41.2913 105.395 40.4368 105.395 39.2568V37.1816C105.395 36.5225 105.48 35.8511 105.651 35.1675C105.83 34.4757 106.111 33.8573 106.494 33.312C106.852 32.7912 107.32 32.368 107.897 32.0425C108.475 31.7088 109.175 31.5298 109.997 31.5054L110.253 32.9092C109.667 32.9255 109.2 33.0638 108.85 33.3242C108.508 33.5846 108.251 33.9142 108.081 34.313C107.902 34.7199 107.788 35.1756 107.739 35.6802C107.69 36.1847 107.666 36.6852 107.666 37.1816V39.2568C107.666 40.2334 107.438 41.092 106.982 41.8325C106.534 42.5649 105.839 43.1224 104.895 43.5049C105.839 43.8792 106.534 44.4367 106.982 45.1772C107.43 45.9097 107.657 46.7601 107.666 47.7285V49.7915C107.666 50.2961 107.706 50.7965 107.788 51.293C107.869 51.7975 108.011 52.2492 108.215 52.6479C108.41 53.0549 108.671 53.3885 108.996 53.6489C109.33 53.9093 109.749 54.0477 110.253 54.064L109.997 55.4678ZM111.376 77.5425C111.376 78.1203 111.332 78.6777 111.242 79.2148C111.161 79.7438 111.039 80.2402 110.876 80.7041C110.656 81.3145 110.367 81.8638 110.009 82.3521C109.659 82.8322 109.236 83.231 108.74 83.5483C108.382 83.7681 107.987 83.939 107.556 84.061C107.132 84.1831 106.673 84.2441 106.176 84.2441C105.607 84.2441 105.086 84.175 104.614 84.0366C104.15 83.8983 103.731 83.6989 103.356 83.4385C103.177 83.3083 103.007 83.1659 102.844 83.0112C102.681 82.8566 102.526 82.6857 102.38 82.4985L102.27 84H100.195V65.25H102.453V72.208C102.64 71.972 102.848 71.7604 103.076 71.5732C103.304 71.3779 103.548 71.2111 103.808 71.0728C104.134 70.9019 104.492 70.7716 104.882 70.6821C105.273 70.5926 105.696 70.5479 106.152 70.5479C106.722 70.5479 107.246 70.6252 107.727 70.7798C108.207 70.9344 108.642 71.1501 109.033 71.4268C109.383 71.6872 109.696 72.0046 109.973 72.3789C110.249 72.7451 110.493 73.1561 110.705 73.6118C110.925 74.1245 111.092 74.6942 111.206 75.3208C111.319 75.9393 111.376 76.5944 111.376 77.2861V77.5425ZM109.118 77.2861C109.118 76.8711 109.09 76.4683 109.033 76.0776C108.984 75.6789 108.907 75.3045 108.801 74.9546C108.654 74.5233 108.463 74.1286 108.227 73.7705C107.991 73.4124 107.702 73.1317 107.36 72.9282C107.124 72.7817 106.86 72.6678 106.567 72.5864C106.274 72.505 105.948 72.4644 105.59 72.4644C105.2 72.4644 104.842 72.5173 104.516 72.623C104.191 72.7207 103.902 72.859 103.649 73.0381C103.389 73.2253 103.157 73.445 102.954 73.6973C102.758 73.9414 102.591 74.21 102.453 74.5029V80.2769C102.6 80.5698 102.771 80.8424 102.966 81.0947C103.169 81.3389 103.401 81.5545 103.662 81.7417C103.922 81.9289 104.215 82.0754 104.541 82.1812C104.866 82.2788 105.224 82.3276 105.615 82.3276C105.989 82.3276 106.331 82.2829 106.64 82.1934C106.949 82.0957 107.226 81.9574 107.47 81.7783C107.796 81.5505 108.068 81.2616 108.288 80.9116C108.508 80.5617 108.683 80.1711 108.813 79.7397C108.919 79.4142 108.996 79.0643 109.045 78.6899C109.094 78.3156 109.118 77.9331 109.118 77.5425V77.2861ZM123.376 84C123.287 83.8291 123.214 83.6175 123.157 83.3652C123.108 83.1048 123.071 82.8363 123.047 82.5596C122.819 82.7874 122.563 83.0031 122.278 83.2065C122.001 83.41 121.696 83.589 121.362 83.7437C121.021 83.8983 120.658 84.0203 120.276 84.1099C119.893 84.1994 119.486 84.2441 119.055 84.2441C118.355 84.2441 117.721 84.1424 117.151 83.939C116.589 83.7355 116.113 83.4588 115.723 83.1089C115.324 82.7671 115.015 82.3602 114.795 81.8882C114.583 81.408 114.478 80.8913 114.478 80.3379C114.478 79.6136 114.62 78.9788 114.905 78.4336C115.198 77.8883 115.609 77.4326 116.138 77.0664C116.667 76.7083 117.301 76.4398 118.042 76.2607C118.791 76.0817 119.625 75.9922 120.544 75.9922H123.01V74.9546C123.01 74.5558 122.937 74.1978 122.791 73.8804C122.644 73.563 122.437 73.2904 122.168 73.0625C121.899 72.8428 121.57 72.6719 121.179 72.5498C120.797 72.4277 120.365 72.3667 119.885 72.3667C119.438 72.3667 119.035 72.4237 118.677 72.5376C118.327 72.6515 118.03 72.8021 117.786 72.9893C117.542 73.1764 117.35 73.4002 117.212 73.6606C117.082 73.9129 117.017 74.1774 117.017 74.4541H114.746C114.754 73.974 114.876 73.502 115.112 73.0381C115.356 72.5742 115.706 72.1551 116.162 71.7808C116.61 71.4146 117.155 71.1175 117.798 70.8896C118.449 70.6618 119.185 70.5479 120.007 70.5479C120.756 70.5479 121.452 70.6414 122.095 70.8286C122.738 71.0076 123.295 71.2803 123.767 71.6465C124.231 72.0208 124.597 72.4847 124.866 73.0381C125.134 73.5915 125.269 74.2384 125.269 74.979V81.1191C125.269 81.5586 125.309 82.0265 125.391 82.5229C125.472 83.0112 125.586 83.4385 125.732 83.8047V84H123.376ZM119.385 82.2788C119.824 82.2788 120.235 82.2218 120.618 82.1079C121 81.994 121.35 81.8434 121.667 81.6562C121.977 81.4691 122.245 81.2575 122.473 81.0215C122.701 80.7773 122.88 80.5251 123.01 80.2646V77.5913H120.911C120.129 77.5913 119.446 77.6605 118.86 77.7988C118.282 77.929 117.822 78.1325 117.48 78.4092C117.236 78.6045 117.049 78.8364 116.919 79.105C116.797 79.3735 116.736 79.6787 116.736 80.0205C116.736 80.346 116.789 80.6471 116.895 80.9238C117.008 81.2005 117.175 81.4365 117.395 81.6318C117.615 81.8353 117.891 81.994 118.225 82.1079C118.559 82.2218 118.945 82.2788 119.385 82.2788ZM134.839 82.4131C135.246 82.4131 135.641 82.348 136.023 82.2178C136.414 82.0876 136.76 81.9045 137.061 81.6685C137.362 81.4406 137.602 81.172 137.781 80.8628C137.968 80.5454 138.066 80.2036 138.074 79.8374H140.21C140.202 80.4233 140.048 80.9849 139.747 81.522C139.454 82.0509 139.059 82.5148 138.562 82.9136C138.066 83.3205 137.496 83.646 136.854 83.8901C136.211 84.1261 135.539 84.2441 134.839 84.2441C133.838 84.2441 132.964 84.0651 132.215 83.707C131.466 83.349 130.844 82.8647 130.347 82.2544C129.843 81.6522 129.464 80.9564 129.212 80.167C128.96 79.3695 128.833 78.5312 128.833 77.6523V77.1396C128.833 76.2689 128.96 75.4347 129.212 74.6372C129.464 73.8397 129.843 73.1357 130.347 72.5254C130.844 71.9232 131.466 71.443 132.215 71.085C132.964 70.7269 133.838 70.5479 134.839 70.5479C135.621 70.5479 136.337 70.674 136.988 70.9263C137.647 71.1704 138.217 71.5041 138.697 71.9272C139.169 72.3586 139.539 72.8672 139.808 73.4531C140.076 74.0391 140.21 74.6657 140.21 75.333H138.074C138.066 74.9342 137.977 74.5599 137.806 74.21C137.643 73.8519 137.419 73.5386 137.134 73.27C136.849 73.0015 136.508 72.7899 136.109 72.6353C135.718 72.4806 135.295 72.4033 134.839 72.4033C134.139 72.4033 133.549 72.5457 133.069 72.8306C132.597 73.1073 132.215 73.4694 131.922 73.917C131.629 74.3727 131.417 74.8813 131.287 75.4429C131.165 76.0044 131.104 76.57 131.104 77.1396V77.6523C131.104 78.2301 131.165 78.8039 131.287 79.3735C131.417 79.9351 131.629 80.4396 131.922 80.8872C132.207 81.3429 132.585 81.7132 133.057 81.998C133.537 82.2747 134.131 82.4131 134.839 82.4131ZM147.682 77.8354L146.021 79.4346V84H143.751V65.25H146.021V76.7246L147.499 75.1377L151.832 70.792H154.579L149.232 76.2974L155.396 84H152.528L147.682 77.8354ZM157.826 77.2861C157.826 76.3014 157.944 75.3981 158.18 74.5762C158.424 73.7461 158.774 73.034 159.23 72.4399C159.686 71.8459 160.239 71.382 160.89 71.0483C161.541 70.7147 162.278 70.5479 163.1 70.5479C163.629 70.5479 164.113 70.6089 164.552 70.731C165 70.853 165.403 71.0321 165.761 71.2681C165.956 71.3901 166.139 71.5326 166.31 71.6953C166.489 71.8581 166.656 72.0371 166.811 72.2324L166.92 70.792H168.971V83.7192C168.971 84.59 168.833 85.3631 168.556 86.0386C168.288 86.714 167.909 87.2878 167.421 87.7598C166.924 88.2318 166.334 88.5898 165.651 88.834C164.967 89.0781 164.21 89.2002 163.38 89.2002C163.039 89.2002 162.648 89.1595 162.208 89.0781C161.769 89.0049 161.326 88.8787 160.878 88.6997C160.422 88.5288 159.983 88.2969 159.56 88.0039C159.145 87.7109 158.786 87.3488 158.485 86.9175L159.657 85.5625C159.934 85.8962 160.219 86.1769 160.512 86.4048C160.805 86.6408 161.102 86.828 161.403 86.9663C161.704 87.1047 162.005 87.2023 162.306 87.2593C162.607 87.3244 162.908 87.3569 163.209 87.3569C163.747 87.3569 164.231 87.2796 164.662 87.125C165.093 86.9704 165.464 86.7425 165.773 86.4414C166.074 86.1484 166.306 85.7822 166.469 85.3428C166.632 84.9033 166.713 84.3988 166.713 83.8291V82.6938C166.542 82.8892 166.359 83.0682 166.164 83.231C165.976 83.3937 165.773 83.5361 165.553 83.6582C165.211 83.8454 164.833 83.9878 164.418 84.0854C164.003 84.1912 163.555 84.2441 163.075 84.2441C162.27 84.2441 161.541 84.0732 160.89 83.7314C160.239 83.3896 159.69 82.9176 159.242 82.3154C158.786 81.7132 158.437 81.0052 158.192 80.1914C157.948 79.3695 157.826 78.4865 157.826 77.5425V77.2861ZM160.084 77.5425C160.084 78.1854 160.15 78.7957 160.28 79.3735C160.418 79.9513 160.634 80.46 160.927 80.8994C161.212 81.3389 161.578 81.6888 162.025 81.9492C162.473 82.2015 163.01 82.3276 163.637 82.3276C164.027 82.3276 164.377 82.2829 164.687 82.1934C165.004 82.0957 165.289 81.9614 165.541 81.7905C165.785 81.6196 166.005 81.4162 166.2 81.1802C166.396 80.9442 166.566 80.6838 166.713 80.3989V74.3442C166.566 74.0675 166.396 73.8153 166.2 73.5874C166.005 73.3595 165.781 73.1602 165.529 72.9893C165.277 72.8265 164.996 72.7004 164.687 72.6108C164.377 72.5132 164.035 72.4644 163.661 72.4644C163.026 72.4644 162.481 72.5946 162.025 72.855C161.578 73.1154 161.212 73.4653 160.927 73.9048C160.634 74.3524 160.418 74.8691 160.28 75.4551C160.15 76.0329 160.084 76.6432 160.084 77.2861V77.5425ZM181.411 70.5479C181.826 70.5479 182.257 70.5763 182.705 70.6333C183.16 70.6903 183.502 70.7676 183.73 70.8652L183.425 73.0747C182.985 72.9771 182.566 72.9079 182.167 72.8672C181.777 72.8184 181.366 72.7939 180.935 72.7939C180.381 72.7939 179.881 72.8631 179.433 73.0015C178.986 73.1317 178.595 73.327 178.261 73.5874C177.96 73.8153 177.696 74.096 177.468 74.4297C177.248 74.7552 177.065 75.1214 176.918 75.5283V84H174.648V70.792H176.796L176.894 72.562L176.906 72.8916C177.443 72.1673 178.086 71.5977 178.835 71.1826C179.592 70.7594 180.45 70.5479 181.411 70.5479ZM186.636 77.2739C186.636 76.3218 186.774 75.4388 187.051 74.625C187.327 73.8031 187.726 73.091 188.247 72.4888C188.76 71.8866 189.386 71.4146 190.127 71.0728C190.868 70.7228 191.702 70.5479 192.629 70.5479C193.565 70.5479 194.403 70.7228 195.144 71.0728C195.893 71.4146 196.528 71.8866 197.048 72.4888C197.561 73.091 197.956 73.8031 198.232 74.625C198.509 75.4388 198.647 76.3218 198.647 77.2739V77.5425C198.647 78.4946 198.509 79.3776 198.232 80.1914C197.956 81.0052 197.561 81.7132 197.048 82.3154C196.528 82.9176 195.897 83.3896 195.156 83.7314C194.416 84.0732 193.582 84.2441 192.654 84.2441C191.718 84.2441 190.876 84.0732 190.127 83.7314C189.386 83.3896 188.76 82.9176 188.247 82.3154C187.726 81.7132 187.327 81.0052 187.051 80.1914C186.774 79.3776 186.636 78.4946 186.636 77.5425V77.2739ZM188.894 77.5425C188.894 78.1935 188.971 78.8161 189.126 79.4102C189.281 79.9961 189.517 80.5129 189.834 80.9604C190.143 81.408 190.534 81.762 191.006 82.0225C191.478 82.2829 192.027 82.4131 192.654 82.4131C193.272 82.4131 193.813 82.2829 194.277 82.0225C194.749 81.762 195.144 81.408 195.461 80.9604C195.771 80.5129 196.003 79.9961 196.157 79.4102C196.312 78.8161 196.389 78.1935 196.389 77.5425V77.2739C196.389 76.631 196.308 76.0166 196.145 75.4307C195.99 74.8366 195.758 74.3158 195.449 73.8682C195.132 73.4206 194.737 73.0666 194.265 72.8062C193.801 72.5376 193.256 72.4033 192.629 72.4033C192.003 72.4033 191.458 72.5376 190.994 72.8062C190.53 73.0666 190.143 73.4206 189.834 73.8682C189.517 74.3158 189.281 74.8366 189.126 75.4307C188.971 76.0166 188.894 76.631 188.894 77.2739V77.5425ZM210.489 84L210.354 82.1812C209.915 82.8322 209.366 83.3408 208.707 83.707C208.047 84.0651 207.286 84.2441 206.424 84.2441C205.732 84.2441 205.105 84.1383 204.544 83.9268C203.982 83.707 203.502 83.3693 203.104 82.9136C202.705 82.4578 202.396 81.88 202.176 81.1802C201.964 80.4722 201.858 79.6258 201.858 78.6411V70.792H204.117V78.6655C204.117 79.3817 204.174 79.9757 204.288 80.4478C204.402 80.9198 204.572 81.2941 204.8 81.5708C205.028 81.8556 205.305 82.055 205.63 82.1689C205.964 82.2829 206.347 82.3398 206.778 82.3398C207.282 82.3398 207.734 82.2829 208.133 82.1689C208.532 82.0469 208.877 81.88 209.17 81.6685C209.415 81.4976 209.626 81.2941 209.805 81.0581C209.992 80.814 210.147 80.5495 210.269 80.2646V70.792H212.54V84H210.489ZM216.3 84V70.792H218.326L218.485 72.7451C218.68 72.4684 218.892 72.2161 219.12 71.9883C219.356 71.7523 219.604 71.5488 219.864 71.3779C220.255 71.1175 220.678 70.9181 221.134 70.7798C221.598 70.6333 222.086 70.556 222.599 70.5479C223.29 70.5479 223.917 70.6455 224.479 70.8408C225.048 71.0361 225.532 71.3413 225.931 71.7563C226.33 72.1714 226.635 72.7004 226.847 73.3433C227.066 73.978 227.176 74.7349 227.176 75.6138V84H224.918V75.6626C224.918 75.0767 224.853 74.5802 224.723 74.1733C224.592 73.7664 224.401 73.4368 224.149 73.1846C223.889 72.9323 223.571 72.7492 223.197 72.6353C222.831 72.5213 222.407 72.4644 221.927 72.4644C221.512 72.4644 221.126 72.5254 220.768 72.6475C220.41 72.7614 220.08 72.9201 219.779 73.1235C219.535 73.3026 219.307 73.5101 219.095 73.7461C218.892 73.9821 218.713 74.2425 218.558 74.5273V84H216.3ZM230.387 77.2861C230.387 76.3014 230.509 75.3981 230.753 74.5762C231.006 73.7461 231.364 73.034 231.828 72.4399C232.283 71.8459 232.837 71.382 233.488 71.0483C234.139 70.7147 234.867 70.5479 235.673 70.5479C236.462 70.5479 237.15 70.6821 237.736 70.9507C238.33 71.2111 238.843 71.5936 239.274 72.0981V65.25H241.532V84H239.457L239.359 82.6084C238.92 83.1455 238.395 83.5524 237.785 83.8291C237.174 84.1058 236.462 84.2441 235.648 84.2441C234.851 84.2441 234.127 84.0732 233.476 83.7314C232.833 83.3896 232.283 82.9176 231.828 82.3154C231.372 81.7132 231.018 81.0052 230.766 80.1914C230.513 79.3695 230.387 78.4865 230.387 77.5425V77.2861ZM232.646 77.5425C232.646 78.1854 232.715 78.7957 232.853 79.3735C232.991 79.9513 233.207 80.46 233.5 80.8994C233.785 81.3389 234.151 81.6888 234.599 81.9492C235.046 82.2015 235.583 82.3276 236.21 82.3276C236.967 82.3276 237.593 82.1567 238.09 81.8149C238.586 81.4731 238.981 81.0133 239.274 80.4355V74.3076C238.981 73.7705 238.586 73.3311 238.09 72.9893C237.593 72.6393 236.975 72.4644 236.234 72.4644C235.6 72.4644 235.054 72.5946 234.599 72.855C234.151 73.1154 233.785 73.4653 233.5 73.9048C233.207 74.3524 232.991 74.8691 232.853 75.4551C232.715 76.0329 232.646 76.6432 232.646 77.2861V77.5425ZM255.205 77.1519H245.866V75.2964H255.205V77.1519ZM265.471 82.4131C265.878 82.4131 266.273 82.348 266.655 82.2178C267.046 82.0876 267.392 81.9045 267.693 81.6685C267.994 81.4406 268.234 81.172 268.413 80.8628C268.6 80.5454 268.698 80.2036 268.706 79.8374H270.842C270.834 80.4233 270.68 80.9849 270.378 81.522C270.085 82.0509 269.691 82.5148 269.194 82.9136C268.698 83.3205 268.128 83.646 267.485 83.8901C266.842 84.1261 266.171 84.2441 265.471 84.2441C264.47 84.2441 263.595 84.0651 262.847 83.707C262.098 83.349 261.475 82.8647 260.979 82.2544C260.474 81.6522 260.096 80.9564 259.844 80.167C259.591 79.3695 259.465 78.5312 259.465 77.6523V77.1396C259.465 76.2689 259.591 75.4347 259.844 74.6372C260.096 73.8397 260.474 73.1357 260.979 72.5254C261.475 71.9232 262.098 71.443 262.847 71.085C263.595 70.7269 264.47 70.5479 265.471 70.5479C266.252 70.5479 266.969 70.674 267.62 70.9263C268.279 71.1704 268.848 71.5041 269.329 71.9272C269.801 72.3586 270.171 72.8672 270.439 73.4531C270.708 74.0391 270.842 74.6657 270.842 75.333H268.706C268.698 74.9342 268.608 74.5599 268.438 74.21C268.275 73.8519 268.051 73.5386 267.766 73.27C267.481 73.0015 267.139 72.7899 266.741 72.6353C266.35 72.4806 265.927 72.4033 265.471 72.4033C264.771 72.4033 264.181 72.5457 263.701 72.8306C263.229 73.1073 262.847 73.4694 262.554 73.917C262.261 74.3727 262.049 74.8813 261.919 75.4429C261.797 76.0044 261.736 76.57 261.736 77.1396V77.6523C261.736 78.2301 261.797 78.8039 261.919 79.3735C262.049 79.9351 262.261 80.4396 262.554 80.8872C262.839 81.3429 263.217 81.7132 263.689 81.998C264.169 82.2747 264.763 82.4131 265.471 82.4131ZM273.724 77.2739C273.724 76.3218 273.862 75.4388 274.139 74.625C274.415 73.8031 274.814 73.091 275.335 72.4888C275.848 71.8866 276.474 71.4146 277.215 71.0728C277.955 70.7228 278.79 70.5479 279.717 70.5479C280.653 70.5479 281.491 70.7228 282.232 71.0728C282.981 71.4146 283.615 71.8866 284.136 72.4888C284.649 73.091 285.044 73.8031 285.32 74.625C285.597 75.4388 285.735 76.3218 285.735 77.2739V77.5425C285.735 78.4946 285.597 79.3776 285.32 80.1914C285.044 81.0052 284.649 81.7132 284.136 82.3154C283.615 82.9176 282.985 83.3896 282.244 83.7314C281.504 84.0732 280.669 84.2441 279.742 84.2441C278.806 84.2441 277.964 84.0732 277.215 83.7314C276.474 83.3896 275.848 82.9176 275.335 82.3154C274.814 81.7132 274.415 81.0052 274.139 80.1914C273.862 79.3776 273.724 78.4946 273.724 77.5425V77.2739ZM275.982 77.5425C275.982 78.1935 276.059 78.8161 276.214 79.4102C276.368 79.9961 276.604 80.5129 276.922 80.9604C277.231 81.408 277.622 81.762 278.094 82.0225C278.566 82.2829 279.115 82.4131 279.742 82.4131C280.36 82.4131 280.901 82.2829 281.365 82.0225C281.837 81.762 282.232 81.408 282.549 80.9604C282.859 80.5129 283.09 79.9961 283.245 79.4102C283.4 78.8161 283.477 78.1935 283.477 77.5425V77.2739C283.477 76.631 283.396 76.0166 283.233 75.4307C283.078 74.8366 282.846 74.3158 282.537 73.8682C282.22 73.4206 281.825 73.0666 281.353 72.8062C280.889 72.5376 280.344 72.4033 279.717 72.4033C279.091 72.4033 278.545 72.5376 278.082 72.8062C277.618 73.0666 277.231 73.4206 276.922 73.8682C276.604 74.3158 276.368 74.8366 276.214 75.4307C276.059 76.0166 275.982 76.631 275.982 77.2739V77.5425ZM289.227 65.25H295.978V82.0469H300.287V84H289.227V82.0469H293.719V67.2153H289.227V65.25ZM302.753 77.2739C302.753 76.3218 302.891 75.4388 303.168 74.625C303.445 73.8031 303.843 73.091 304.364 72.4888C304.877 71.8866 305.504 71.4146 306.244 71.0728C306.985 70.7228 307.819 70.5479 308.747 70.5479C309.682 70.5479 310.521 70.7228 311.261 71.0728C312.01 71.4146 312.645 71.8866 313.166 72.4888C313.678 73.091 314.073 73.8031 314.35 74.625C314.626 75.4388 314.765 76.3218 314.765 77.2739V77.5425C314.765 78.4946 314.626 79.3776 314.35 80.1914C314.073 81.0052 313.678 81.7132 313.166 82.3154C312.645 82.9176 312.014 83.3896 311.273 83.7314C310.533 84.0732 309.699 84.2441 308.771 84.2441C307.835 84.2441 306.993 84.0732 306.244 83.7314C305.504 83.3896 304.877 82.9176 304.364 82.3154C303.843 81.7132 303.445 81.0052 303.168 80.1914C302.891 79.3776 302.753 78.4946 302.753 77.5425V77.2739ZM305.011 77.5425C305.011 78.1935 305.089 78.8161 305.243 79.4102C305.398 79.9961 305.634 80.5129 305.951 80.9604C306.26 81.408 306.651 81.762 307.123 82.0225C307.595 82.2829 308.144 82.4131 308.771 82.4131C309.389 82.4131 309.931 82.2829 310.395 82.0225C310.867 81.762 311.261 81.408 311.579 80.9604C311.888 80.5129 312.12 79.9961 312.274 79.4102C312.429 78.8161 312.506 78.1935 312.506 77.5425V77.2739C312.506 76.631 312.425 76.0166 312.262 75.4307C312.108 74.8366 311.876 74.3158 311.566 73.8682C311.249 73.4206 310.854 73.0666 310.382 72.8062C309.918 72.5376 309.373 72.4033 308.747 72.4033C308.12 72.4033 307.575 72.5376 307.111 72.8062C306.647 73.0666 306.26 73.4206 305.951 73.8682C305.634 74.3158 305.398 74.8366 305.243 75.4307C305.089 76.0166 305.011 76.631 305.011 77.2739V77.5425ZM326.557 70.5479C326.972 70.5479 327.403 70.5763 327.851 70.6333C328.307 70.6903 328.649 70.7676 328.876 70.8652L328.571 73.0747C328.132 72.9771 327.713 72.9079 327.314 72.8672C326.923 72.8184 326.512 72.7939 326.081 72.7939C325.528 72.7939 325.027 72.8631 324.58 73.0015C324.132 73.1317 323.741 73.327 323.408 73.5874C323.107 73.8153 322.842 74.096 322.614 74.4297C322.395 74.7552 322.211 75.1214 322.065 75.5283V84H319.794V70.792H321.943L322.041 72.562L322.053 72.8916C322.59 72.1673 323.233 71.5977 323.981 71.1826C324.738 70.7594 325.597 70.5479 326.557 70.5479ZM336.958 82.5352C336.958 82.055 337.104 81.644 337.397 81.3022C337.69 80.9604 338.134 80.7896 338.728 80.7896C339.314 80.7896 339.757 80.9604 340.059 81.3022C340.368 81.6359 340.522 82.0469 340.522 82.5352C340.522 83.0153 340.368 83.4181 340.059 83.7437C339.749 84.0692 339.306 84.2319 338.728 84.2319C338.142 84.2319 337.699 84.0692 337.397 83.7437C337.104 83.41 336.958 83.0072 336.958 82.5352ZM336.958 71.8418C336.958 71.3617 337.104 70.9507 337.397 70.6089C337.69 70.2671 338.134 70.0962 338.728 70.0962C339.314 70.0962 339.757 70.2671 340.059 70.6089C340.368 70.9425 340.522 71.3535 340.522 71.8418C340.522 72.3219 340.368 72.7248 340.059 73.0503C339.749 73.3758 339.306 73.5386 338.728 73.5386C338.142 73.5386 337.699 73.3758 337.397 73.0503C337.104 72.7166 336.958 72.3138 336.958 71.8418ZM361.8 65.25H368.551V82.0469H372.86V84H361.8V82.0469H366.292V67.2153H361.8V65.25ZM376.315 70.792H383.065V82.0469H387.375V84H376.315V82.0469H380.807V72.7573H376.315V70.792ZM380.514 67.3252C380.514 67.1299 380.543 66.9468 380.6 66.7759C380.665 66.605 380.762 66.4585 380.893 66.3364C380.998 66.2306 381.133 66.1493 381.295 66.0923C381.466 66.0272 381.658 65.9946 381.869 65.9946C382.081 65.9946 382.268 66.0272 382.431 66.0923C382.593 66.1493 382.728 66.2306 382.833 66.3364C382.964 66.4504 383.061 66.5928 383.126 66.7637C383.192 66.9346 383.224 67.1217 383.224 67.3252C383.224 67.6914 383.11 67.9966 382.882 68.2407C382.654 68.4849 382.317 68.6069 381.869 68.6069C381.413 68.6069 381.072 68.4849 380.844 68.2407C380.624 67.9966 380.514 67.6914 380.514 67.3252ZM390.061 77.2861C390.061 76.3014 390.179 75.3981 390.415 74.5762C390.659 73.7461 391.009 73.034 391.464 72.4399C391.92 71.8459 392.473 71.382 393.125 71.0483C393.776 70.7147 394.512 70.5479 395.334 70.5479C395.863 70.5479 396.347 70.6089 396.787 70.731C397.234 70.853 397.637 71.0321 397.995 71.2681C398.19 71.3901 398.374 71.5326 398.544 71.6953C398.723 71.8581 398.89 72.0371 399.045 72.2324L399.155 70.792H401.206V83.7192C401.206 84.59 401.067 85.3631 400.791 86.0386C400.522 86.714 400.144 87.2878 399.655 87.7598C399.159 88.2318 398.569 88.5898 397.885 88.834C397.202 89.0781 396.445 89.2002 395.615 89.2002C395.273 89.2002 394.882 89.1595 394.443 89.0781C394.003 89.0049 393.56 88.8787 393.112 88.6997C392.657 88.5288 392.217 88.2969 391.794 88.0039C391.379 87.7109 391.021 87.3488 390.72 86.9175L391.892 85.5625C392.168 85.8962 392.453 86.1769 392.746 86.4048C393.039 86.6408 393.336 86.828 393.637 86.9663C393.938 87.1047 394.239 87.2023 394.541 87.2593C394.842 87.3244 395.143 87.3569 395.444 87.3569C395.981 87.3569 396.465 87.2796 396.896 87.125C397.328 86.9704 397.698 86.7425 398.007 86.4414C398.308 86.1484 398.54 85.7822 398.703 85.3428C398.866 84.9033 398.947 84.3988 398.947 83.8291V82.6938C398.776 82.8892 398.593 83.0682 398.398 83.231C398.211 83.3937 398.007 83.5361 397.788 83.6582C397.446 83.8454 397.067 83.9878 396.652 84.0854C396.237 84.1912 395.79 84.2441 395.31 84.2441C394.504 84.2441 393.776 84.0732 393.125 83.7314C392.473 83.3896 391.924 82.9176 391.477 82.3154C391.021 81.7132 390.671 81.0052 390.427 80.1914C390.183 79.3695 390.061 78.4865 390.061 77.5425V77.2861ZM392.319 77.5425C392.319 78.1854 392.384 78.7957 392.514 79.3735C392.653 79.9513 392.868 80.46 393.161 80.8994C393.446 81.3389 393.812 81.6888 394.26 81.9492C394.707 82.2015 395.244 82.3276 395.871 82.3276C396.262 82.3276 396.612 82.2829 396.921 82.1934C397.238 82.0957 397.523 81.9614 397.775 81.7905C398.02 81.6196 398.239 81.4162 398.435 81.1802C398.63 80.9442 398.801 80.6838 398.947 80.3989V74.3442C398.801 74.0675 398.63 73.8153 398.435 73.5874C398.239 73.3595 398.015 73.1602 397.763 72.9893C397.511 72.8265 397.23 72.7004 396.921 72.6108C396.612 72.5132 396.27 72.4644 395.896 72.4644C395.261 72.4644 394.715 72.5946 394.26 72.855C393.812 73.1154 393.446 73.4653 393.161 73.9048C392.868 74.3524 392.653 74.8691 392.514 75.4551C392.384 76.0329 392.319 76.6432 392.319 77.2861V77.5425ZM407.249 72.7573C407.428 72.4888 407.627 72.2446 407.847 72.0249C408.066 71.797 408.298 71.5977 408.542 71.4268C408.933 71.1419 409.36 70.9263 409.824 70.7798C410.296 70.6333 410.797 70.556 411.326 70.5479C412.017 70.5479 412.644 70.6496 413.206 70.853C413.775 71.0483 414.259 71.3576 414.658 71.7808C415.057 72.2039 415.362 72.741 415.574 73.3921C415.793 74.035 415.903 74.8 415.903 75.687V84H413.645V75.6626C413.645 75.1418 413.584 74.686 413.462 74.2954C413.34 73.8966 413.161 73.5671 412.925 73.3066C412.673 73.0218 412.355 72.8102 411.973 72.6719C411.59 72.5254 411.151 72.4562 410.654 72.4644C410.247 72.4644 409.861 72.5213 409.495 72.6353C409.128 72.7492 408.791 72.9119 408.481 73.1235C408.237 73.2863 408.009 73.4775 407.798 73.6973C407.594 73.9089 407.411 74.1449 407.249 74.4053V84H404.99V65.25H407.249V72.7573ZM424.852 67.5938V70.792H429.881V72.5376H424.852V79.7153C424.852 80.228 424.917 80.6512 425.047 80.9849C425.177 81.3185 425.356 81.583 425.584 81.7783C425.812 81.9818 426.072 82.1242 426.365 82.2056C426.666 82.2869 426.984 82.3276 427.317 82.3276C427.562 82.3276 427.814 82.3154 428.074 82.291C428.335 82.2585 428.591 82.2218 428.843 82.1812C429.087 82.1405 429.315 82.0998 429.527 82.0591C429.747 82.0103 429.926 81.9696 430.064 81.937L430.381 83.5361C430.194 83.6501 429.966 83.7518 429.698 83.8413C429.429 83.9227 429.136 83.9919 428.819 84.0488C428.501 84.1139 428.164 84.1628 427.806 84.1953C427.456 84.2279 427.106 84.2441 426.756 84.2441C426.17 84.2441 425.621 84.1628 425.108 84C424.603 83.8291 424.164 83.5605 423.79 83.1943C423.415 82.8363 423.118 82.3724 422.898 81.8027C422.687 81.2249 422.581 80.5291 422.581 79.7153V72.5376H419.114V70.792H422.581V67.5938H424.852ZM433.604 77.2861C433.604 76.3014 433.722 75.3981 433.958 74.5762C434.203 73.7461 434.553 73.034 435.008 72.4399C435.464 71.8459 436.017 71.382 436.668 71.0483C437.319 70.7147 438.056 70.5479 438.878 70.5479C439.407 70.5479 439.891 70.6089 440.331 70.731C440.778 70.853 441.181 71.0321 441.539 71.2681C441.734 71.3901 441.917 71.5326 442.088 71.6953C442.267 71.8581 442.434 72.0371 442.589 72.2324L442.699 70.792H444.75V83.7192C444.75 84.59 444.611 85.3631 444.334 86.0386C444.066 86.714 443.688 87.2878 443.199 87.7598C442.703 88.2318 442.113 88.5898 441.429 88.834C440.746 89.0781 439.989 89.2002 439.159 89.2002C438.817 89.2002 438.426 89.1595 437.987 89.0781C437.547 89.0049 437.104 88.8787 436.656 88.6997C436.201 88.5288 435.761 88.2969 435.338 88.0039C434.923 87.7109 434.565 87.3488 434.264 86.9175L435.436 85.5625C435.712 85.8962 435.997 86.1769 436.29 86.4048C436.583 86.6408 436.88 86.828 437.181 86.9663C437.482 87.1047 437.783 87.2023 438.084 87.2593C438.386 87.3244 438.687 87.3569 438.988 87.3569C439.525 87.3569 440.009 87.2796 440.44 87.125C440.872 86.9704 441.242 86.7425 441.551 86.4414C441.852 86.1484 442.084 85.7822 442.247 85.3428C442.41 84.9033 442.491 84.3988 442.491 83.8291V82.6938C442.32 82.8892 442.137 83.0682 441.942 83.231C441.755 83.3937 441.551 83.5361 441.332 83.6582C440.99 83.8454 440.611 83.9878 440.196 84.0854C439.781 84.1912 439.334 84.2441 438.854 84.2441C438.048 84.2441 437.319 84.0732 436.668 83.7314C436.017 83.3896 435.468 82.9176 435.021 82.3154C434.565 81.7132 434.215 81.0052 433.971 80.1914C433.727 79.3695 433.604 78.4865 433.604 77.5425V77.2861ZM435.863 77.5425C435.863 78.1854 435.928 78.7957 436.058 79.3735C436.196 79.9513 436.412 80.46 436.705 80.8994C436.99 81.3389 437.356 81.6888 437.804 81.9492C438.251 82.2015 438.788 82.3276 439.415 82.3276C439.806 82.3276 440.156 82.2829 440.465 82.1934C440.782 82.0957 441.067 81.9614 441.319 81.7905C441.563 81.6196 441.783 81.4162 441.979 81.1802C442.174 80.9442 442.345 80.6838 442.491 80.3989V74.3442C442.345 74.0675 442.174 73.8153 441.979 73.5874C441.783 73.3595 441.559 73.1602 441.307 72.9893C441.055 72.8265 440.774 72.7004 440.465 72.6108C440.156 72.5132 439.814 72.4644 439.439 72.4644C438.805 72.4644 438.259 72.5946 437.804 72.855C437.356 73.1154 436.99 73.4653 436.705 73.9048C436.412 74.3524 436.196 74.8691 436.058 75.4551C435.928 76.0329 435.863 76.6432 435.863 77.2861V77.5425ZM457.189 70.5479C457.604 70.5479 458.035 70.5763 458.483 70.6333C458.939 70.6903 459.28 70.7676 459.508 70.8652L459.203 73.0747C458.764 72.9771 458.345 72.9079 457.946 72.8672C457.555 72.8184 457.144 72.7939 456.713 72.7939C456.16 72.7939 455.659 72.8631 455.211 73.0015C454.764 73.1317 454.373 73.327 454.04 73.5874C453.738 73.8153 453.474 74.096 453.246 74.4297C453.026 74.7552 452.843 75.1214 452.697 75.5283V84H450.426V70.792H452.575L452.672 72.562L452.685 72.8916C453.222 72.1673 453.865 71.5977 454.613 71.1826C455.37 70.7594 456.229 70.5479 457.189 70.5479ZM471.728 84C471.639 83.8291 471.565 83.6175 471.508 83.3652C471.459 83.1048 471.423 82.8363 471.398 82.5596C471.171 82.7874 470.914 83.0031 470.629 83.2065C470.353 83.41 470.048 83.589 469.714 83.7437C469.372 83.8983 469.01 84.0203 468.627 84.1099C468.245 84.1994 467.838 84.2441 467.407 84.2441C466.707 84.2441 466.072 84.1424 465.502 83.939C464.941 83.7355 464.465 83.4588 464.074 83.1089C463.675 82.7671 463.366 82.3602 463.146 81.8882C462.935 81.408 462.829 80.8913 462.829 80.3379C462.829 79.6136 462.972 78.9788 463.256 78.4336C463.549 77.8883 463.96 77.4326 464.489 77.0664C465.018 76.7083 465.653 76.4398 466.394 76.2607C467.142 76.0817 467.976 75.9922 468.896 75.9922H471.362V74.9546C471.362 74.5558 471.289 74.1978 471.142 73.8804C470.996 73.563 470.788 73.2904 470.52 73.0625C470.251 72.8428 469.921 72.6719 469.531 72.5498C469.148 72.4277 468.717 72.3667 468.237 72.3667C467.789 72.3667 467.386 72.4237 467.028 72.5376C466.678 72.6515 466.381 72.8021 466.137 72.9893C465.893 73.1764 465.702 73.4002 465.563 73.6606C465.433 73.9129 465.368 74.1774 465.368 74.4541H463.098C463.106 73.974 463.228 73.502 463.464 73.0381C463.708 72.5742 464.058 72.1551 464.514 71.7808C464.961 71.4146 465.507 71.1175 466.149 70.8896C466.8 70.6618 467.537 70.5479 468.359 70.5479C469.108 70.5479 469.803 70.6414 470.446 70.8286C471.089 71.0076 471.647 71.2803 472.119 71.6465C472.583 72.0208 472.949 72.4847 473.217 73.0381C473.486 73.5915 473.62 74.2384 473.62 74.979V81.1191C473.62 81.5586 473.661 82.0265 473.742 82.5229C473.824 83.0112 473.938 83.4385 474.084 83.8047V84H471.728ZM467.736 82.2788C468.176 82.2788 468.587 82.2218 468.969 82.1079C469.352 81.994 469.702 81.8434 470.019 81.6562C470.328 81.4691 470.597 81.2575 470.825 81.0215C471.053 80.7773 471.232 80.5251 471.362 80.2646V77.5913H469.262C468.481 77.5913 467.797 77.6605 467.211 77.7988C466.634 77.929 466.174 78.1325 465.832 78.4092C465.588 78.6045 465.401 78.8364 465.271 79.105C465.148 79.3735 465.087 79.6787 465.087 80.0205C465.087 80.346 465.14 80.6471 465.246 80.9238C465.36 81.2005 465.527 81.4365 465.747 81.6318C465.966 81.8353 466.243 81.994 466.577 82.1079C466.91 82.2218 467.297 82.2788 467.736 82.2788ZM478.625 89.3345C478.414 89.3345 478.166 89.3101 477.881 89.2612C477.596 89.2124 477.38 89.1717 477.234 89.1392L477.6 87.2959C477.804 87.3122 478.003 87.3244 478.198 87.3325C478.402 87.3488 478.56 87.3569 478.674 87.3569C478.984 87.3569 479.264 87.2715 479.517 87.1006C479.777 86.9297 480.009 86.7262 480.212 86.4902C480.408 86.2542 480.575 86.0101 480.713 85.7578C480.859 85.5055 480.973 85.298 481.055 85.1353L481.958 83.3774L476.27 70.792H478.796L482.422 79.3125L483.008 80.9116L483.63 79.3613L487.036 70.792H489.563L482.861 86.0386C482.707 86.3804 482.507 86.7425 482.263 87.125C482.027 87.5075 481.738 87.8615 481.396 88.187C481.055 88.5125 480.656 88.7852 480.2 89.0049C479.744 89.2246 479.22 89.3345 478.625 89.3345ZM496.509 71.8418C496.509 71.3617 496.656 70.9507 496.949 70.6089C497.242 70.2671 497.685 70.0962 498.279 70.0962C498.865 70.0962 499.309 70.2671 499.61 70.6089C499.919 70.9425 500.074 71.3535 500.074 71.8418C500.074 72.3219 499.919 72.7248 499.61 73.0503C499.301 73.3758 498.857 73.5386 498.279 73.5386C497.693 73.5386 497.25 73.3758 496.949 73.0503C496.656 72.7166 496.509 72.3138 496.509 71.8418ZM499.415 83.4751C499.415 84.2889 499.223 85.119 498.841 85.9653C498.458 86.8117 497.942 87.5238 497.291 88.1016L495.887 87.3325C496.277 86.7629 496.554 86.1566 496.717 85.5137C496.88 84.8708 496.961 84.2035 496.961 83.5117V81.3267H499.415V83.4751ZM43.9429 120.064C44.4393 120.048 44.8543 119.909 45.188 119.649C45.5216 119.389 45.7902 119.055 45.9937 118.648C46.189 118.249 46.3273 117.798 46.4087 117.293C46.4982 116.797 46.543 116.296 46.543 115.792V113.729C46.543 113.086 46.6366 112.492 46.8237 111.946C47.019 111.401 47.3161 110.929 47.7148 110.53C47.9264 110.319 48.1624 110.127 48.4229 109.957C48.6914 109.786 48.9844 109.635 49.3018 109.505C48.9762 109.375 48.6751 109.22 48.3984 109.041C48.1299 108.862 47.8939 108.663 47.6904 108.443C47.2998 108.036 47.0109 107.564 46.8237 107.027C46.6366 106.482 46.543 105.892 46.543 105.257V103.182C46.543 102.685 46.5145 102.185 46.4575 101.68C46.4087 101.176 46.2988 100.72 46.1279 100.313C45.9489 99.9142 45.6885 99.5846 45.3467 99.3242C45.0049 99.0638 44.541 98.9255 43.9551 98.9092L44.1992 97.5054C44.9886 97.5298 45.6641 97.6966 46.2256 98.0059C46.7952 98.3151 47.2632 98.7179 47.6294 99.2144C48.0444 99.7759 48.3415 100.407 48.5205 101.106C48.7077 101.806 48.8013 102.498 48.8013 103.182V105.257C48.8013 105.745 48.846 106.176 48.9355 106.551C49.0332 106.917 49.1756 107.234 49.3628 107.503C49.6313 107.885 50.0016 108.166 50.4736 108.345C50.9538 108.516 51.5275 108.602 52.1948 108.602V110.372C51.6089 110.38 51.0962 110.453 50.6567 110.591C50.2254 110.722 49.8714 110.929 49.5947 111.214C49.3262 111.491 49.1268 111.836 48.9966 112.251C48.8664 112.667 48.8013 113.159 48.8013 113.729V115.792C48.8013 116.443 48.7118 117.098 48.5327 117.757C48.3537 118.424 48.077 119.03 47.7026 119.576C47.3201 120.121 46.84 120.569 46.2622 120.918C45.6844 121.268 44.9967 121.451 44.1992 121.468L43.9429 120.064Z" fill="white"/>
</svg>
