<svg width="1399" height="121" viewBox="0 0 1399 121" fill="none" xmlns="http://www.w3.org/2000/svg">
<rect width="1399" height="121" rx="20" fill="#0066FF" fill-opacity="0.2"/>
<rect x="1.5" y="1.5" width="1396" height="118" rx="18.5" stroke="#0066FF" stroke-opacity="0.5" stroke-width="3"/>
<path d="M52.4268 51.6074L42.0752 46.981V45.1987L52.4268 40.5845V42.9771L44.9561 45.9067L44.3091 46.1143L44.9561 46.334L52.4268 49.2148V51.6074ZM105.81 52.4131C106.217 52.4131 106.612 52.348 106.994 52.2178C107.385 52.0876 107.731 51.9045 108.032 51.6685C108.333 51.4406 108.573 51.172 108.752 50.8628C108.939 50.5454 109.037 50.2036 109.045 49.8374H111.181C111.173 50.4233 111.018 50.9849 110.717 51.522C110.424 52.0509 110.03 52.5148 109.533 52.9136C109.037 53.3205 108.467 53.646 107.824 53.8901C107.181 54.1261 106.51 54.2441 105.81 54.2441C104.809 54.2441 103.934 54.0651 103.186 53.707C102.437 53.349 101.814 52.8647 101.318 52.2544C100.813 51.6522 100.435 50.9564 100.183 50.167C99.9303 49.3695 99.8042 48.5312 99.8042 47.6523V47.1396C99.8042 46.2689 99.9303 45.4347 100.183 44.6372C100.435 43.8397 100.813 43.1357 101.318 42.5254C101.814 41.9232 102.437 41.443 103.186 41.085C103.934 40.7269 104.809 40.5479 105.81 40.5479C106.591 40.5479 107.307 40.674 107.958 40.9263C108.618 41.1704 109.187 41.5041 109.667 41.9272C110.139 42.3586 110.51 42.8672 110.778 43.4531C111.047 44.0391 111.181 44.6657 111.181 45.333H109.045C109.037 44.9342 108.947 44.5599 108.776 44.21C108.614 43.8519 108.39 43.5386 108.105 43.27C107.82 43.0015 107.478 42.7899 107.08 42.6353C106.689 42.4806 106.266 42.4033 105.81 42.4033C105.11 42.4033 104.52 42.5457 104.04 42.8306C103.568 43.1073 103.186 43.4694 102.893 43.917C102.6 44.3727 102.388 44.8813 102.258 45.4429C102.136 46.0044 102.075 46.57 102.075 47.1396V47.6523C102.075 48.2301 102.136 48.8039 102.258 49.3735C102.388 49.9351 102.6 50.4396 102.893 50.8872C103.177 51.3429 103.556 51.7132 104.028 51.998C104.508 52.2747 105.102 52.4131 105.81 52.4131ZM115.051 35.25H121.802V52.0469H126.111V54H115.051V52.0469H119.543V37.2153H115.051V35.25ZM137.891 54C137.802 53.8291 137.728 53.6175 137.671 53.3652C137.623 53.1048 137.586 52.8363 137.562 52.5596C137.334 52.7874 137.077 53.0031 136.792 53.2065C136.516 53.41 136.211 53.589 135.877 53.7437C135.535 53.8983 135.173 54.0203 134.791 54.1099C134.408 54.1994 134.001 54.2441 133.57 54.2441C132.87 54.2441 132.235 54.1424 131.666 53.939C131.104 53.7355 130.628 53.4588 130.237 53.1089C129.839 52.7671 129.529 52.3602 129.31 51.8882C129.098 51.408 128.992 50.8913 128.992 50.3379C128.992 49.6136 129.135 48.9788 129.419 48.4336C129.712 47.8883 130.123 47.4326 130.652 47.0664C131.181 46.7083 131.816 46.4398 132.557 46.2607C133.305 46.0817 134.139 45.9922 135.059 45.9922H137.525V44.9546C137.525 44.5558 137.452 44.1978 137.305 43.8804C137.159 43.563 136.951 43.2904 136.683 43.0625C136.414 42.8428 136.084 42.6719 135.694 42.5498C135.311 42.4277 134.88 42.3667 134.4 42.3667C133.952 42.3667 133.549 42.4237 133.191 42.5376C132.841 42.6515 132.544 42.8021 132.3 42.9893C132.056 43.1764 131.865 43.4002 131.727 43.6606C131.596 43.9129 131.531 44.1774 131.531 44.4541H129.261C129.269 43.974 129.391 43.502 129.627 43.0381C129.871 42.5742 130.221 42.1551 130.677 41.7808C131.124 41.4146 131.67 41.1175 132.312 40.8896C132.964 40.6618 133.7 40.5479 134.522 40.5479C135.271 40.5479 135.966 40.6414 136.609 40.8286C137.252 41.0076 137.81 41.2803 138.282 41.6465C138.746 42.0208 139.112 42.4847 139.38 43.0381C139.649 43.5915 139.783 44.2384 139.783 44.979V51.1191C139.783 51.5586 139.824 52.0265 139.905 52.5229C139.987 53.0112 140.101 53.4385 140.247 53.8047V54H137.891ZM133.899 52.2788C134.339 52.2788 134.75 52.2218 135.132 52.1079C135.515 51.994 135.865 51.8434 136.182 51.6562C136.491 51.4691 136.76 51.2575 136.988 51.0215C137.216 50.7773 137.395 50.5251 137.525 50.2646V47.5913H135.425C134.644 47.5913 133.96 47.6605 133.375 47.7988C132.797 47.929 132.337 48.1325 131.995 48.4092C131.751 48.6045 131.564 48.8364 131.434 49.105C131.312 49.3735 131.25 49.6787 131.25 50.0205C131.25 50.346 131.303 50.6471 131.409 50.9238C131.523 51.2005 131.69 51.4365 131.91 51.6318C132.129 51.8353 132.406 51.994 132.74 52.1079C133.073 52.2218 133.46 52.2788 133.899 52.2788ZM152.503 50.4966C152.503 50.228 152.451 49.988 152.345 49.7764C152.239 49.5566 152.06 49.3573 151.808 49.1782C151.555 48.9992 151.222 48.8364 150.807 48.6899C150.392 48.5353 149.875 48.397 149.256 48.2749C148.5 48.1203 147.808 47.9331 147.181 47.7134C146.563 47.4937 146.034 47.2292 145.594 46.9199C145.147 46.6188 144.801 46.2648 144.557 45.8579C144.312 45.4429 144.19 44.9627 144.19 44.4175C144.19 43.8804 144.317 43.3799 144.569 42.916C144.821 42.444 145.175 42.033 145.631 41.6831C146.087 41.3332 146.628 41.0565 147.254 40.853C147.889 40.6496 148.585 40.5479 149.342 40.5479C150.156 40.5479 150.888 40.6536 151.539 40.8652C152.19 41.0768 152.743 41.3698 153.199 41.7441C153.655 42.1185 154.005 42.5579 154.249 43.0625C154.501 43.5589 154.627 44.096 154.627 44.6738H152.369C152.369 44.389 152.296 44.1123 152.149 43.8438C152.003 43.5671 151.799 43.3229 151.539 43.1113C151.279 42.8997 150.961 42.7288 150.587 42.5986C150.221 42.4684 149.806 42.4033 149.342 42.4033C148.862 42.4033 148.438 42.4562 148.072 42.562C147.714 42.6678 147.417 42.8102 147.181 42.9893C146.937 43.1683 146.754 43.3758 146.632 43.6118C146.51 43.8478 146.449 44.092 146.449 44.3442C146.449 44.6047 146.498 44.8366 146.595 45.04C146.693 45.2435 146.864 45.4266 147.108 45.5894C147.344 45.7521 147.661 45.8986 148.06 46.0288C148.467 46.159 148.98 46.2852 149.598 46.4072C150.412 46.5781 151.14 46.7775 151.783 47.0054C152.426 47.2251 152.967 47.4896 153.407 47.7988C153.846 48.1162 154.18 48.4824 154.408 48.8975C154.644 49.3125 154.762 49.7926 154.762 50.3379C154.762 50.9238 154.627 51.4569 154.359 51.937C154.098 52.4172 153.732 52.8281 153.26 53.1699C152.788 53.5117 152.223 53.7762 151.563 53.9634C150.904 54.1506 150.184 54.2441 149.403 54.2441C148.508 54.2441 147.71 54.1261 147.01 53.8901C146.31 53.646 145.72 53.3245 145.24 52.9258C144.752 52.5352 144.378 52.0794 144.117 51.5586C143.865 51.0378 143.739 50.4966 143.739 49.9351H145.997C146.03 50.3989 146.152 50.7896 146.363 51.1069C146.583 51.4243 146.856 51.6807 147.181 51.876C147.499 52.0713 147.853 52.2096 148.243 52.291C148.634 52.3724 149.02 52.4131 149.403 52.4131C150.005 52.4131 150.53 52.3439 150.978 52.2056C151.425 52.0591 151.775 51.8597 152.027 51.6074C152.182 51.4528 152.3 51.2819 152.381 51.0947C152.463 50.9076 152.503 50.7082 152.503 50.4966ZM167.018 50.4966C167.018 50.228 166.965 49.988 166.859 49.7764C166.754 49.5566 166.575 49.3573 166.322 49.1782C166.07 48.9992 165.736 48.8364 165.321 48.6899C164.906 48.5353 164.389 48.397 163.771 48.2749C163.014 48.1203 162.322 47.9331 161.696 47.7134C161.077 47.4937 160.548 47.2292 160.109 46.9199C159.661 46.6188 159.315 46.2648 159.071 45.8579C158.827 45.4429 158.705 44.9627 158.705 44.4175C158.705 43.8804 158.831 43.3799 159.083 42.916C159.336 42.444 159.69 42.033 160.146 41.6831C160.601 41.3332 161.142 41.0565 161.769 40.853C162.404 40.6496 163.1 40.5479 163.856 40.5479C164.67 40.5479 165.403 40.6536 166.054 40.8652C166.705 41.0768 167.258 41.3698 167.714 41.7441C168.17 42.1185 168.52 42.5579 168.764 43.0625C169.016 43.5589 169.142 44.096 169.142 44.6738H166.884C166.884 44.389 166.811 44.1123 166.664 43.8438C166.518 43.5671 166.314 43.3229 166.054 43.1113C165.793 42.8997 165.476 42.7288 165.102 42.5986C164.735 42.4684 164.32 42.4033 163.856 42.4033C163.376 42.4033 162.953 42.4562 162.587 42.562C162.229 42.6678 161.932 42.8102 161.696 42.9893C161.452 43.1683 161.269 43.3758 161.146 43.6118C161.024 43.8478 160.963 44.092 160.963 44.3442C160.963 44.6047 161.012 44.8366 161.11 45.04C161.208 45.2435 161.378 45.4266 161.623 45.5894C161.859 45.7521 162.176 45.8986 162.575 46.0288C162.982 46.159 163.494 46.2852 164.113 46.4072C164.927 46.5781 165.655 46.7775 166.298 47.0054C166.941 47.2251 167.482 47.4896 167.921 47.7988C168.361 48.1162 168.694 48.4824 168.922 48.8975C169.158 49.3125 169.276 49.7926 169.276 50.3379C169.276 50.9238 169.142 51.4569 168.874 51.937C168.613 52.4172 168.247 52.8281 167.775 53.1699C167.303 53.5117 166.737 53.7762 166.078 53.9634C165.419 54.1506 164.699 54.2441 163.917 54.2441C163.022 54.2441 162.225 54.1261 161.525 53.8901C160.825 53.646 160.235 53.3245 159.755 52.9258C159.267 52.5352 158.892 52.0794 158.632 51.5586C158.38 51.0378 158.253 50.4966 158.253 49.9351H160.512C160.544 50.3989 160.666 50.7896 160.878 51.1069C161.098 51.4243 161.37 51.6807 161.696 51.876C162.013 52.0713 162.367 52.2096 162.758 52.291C163.148 52.3724 163.535 52.4131 163.917 52.4131C164.52 52.4131 165.045 52.3439 165.492 52.2056C165.94 52.0591 166.29 51.8597 166.542 51.6074C166.697 51.4528 166.815 51.2819 166.896 51.0947C166.977 50.9076 167.018 50.7082 167.018 50.4966ZM183.645 44.4785H172.744V42.5132H183.645V44.4785ZM183.645 49.5444H172.744V47.5913H183.645V49.5444ZM191.311 36.5806L191.055 41.0972H189.468L189.48 36.7759V35.25H191.311V36.5806ZM195.669 36.5806L195.413 41.0972H193.838L193.85 36.7759V35.25H195.681L195.669 36.5806ZM207.132 37.5938V40.792H212.161V42.5376H207.132V49.7153C207.132 50.228 207.197 50.6512 207.327 50.9849C207.457 51.3185 207.636 51.583 207.864 51.7783C208.092 51.9818 208.353 52.1242 208.646 52.2056C208.947 52.2869 209.264 52.3276 209.598 52.3276C209.842 52.3276 210.094 52.3154 210.354 52.291C210.615 52.2585 210.871 52.2218 211.124 52.1812C211.368 52.1405 211.596 52.0998 211.807 52.0591C212.027 52.0103 212.206 51.9696 212.344 51.937L212.662 53.5361C212.474 53.6501 212.247 53.7518 211.978 53.8413C211.709 53.9227 211.417 53.9919 211.099 54.0488C210.782 54.1139 210.444 54.1628 210.086 54.1953C209.736 54.2279 209.386 54.2441 209.036 54.2441C208.45 54.2441 207.901 54.1628 207.388 54C206.884 53.8291 206.444 53.5605 206.07 53.1943C205.695 52.8363 205.398 52.3724 205.179 51.8027C204.967 51.2249 204.861 50.5291 204.861 49.7153V42.5376H201.395V40.792H204.861V37.5938H207.132ZM216.654 40.792H223.404V52.0469H227.713V54H216.654V52.0469H221.146V42.7573H216.654V40.792ZM220.853 37.3252C220.853 37.1299 220.882 36.9468 220.938 36.7759C221.004 36.605 221.101 36.4585 221.231 36.3364C221.337 36.2306 221.472 36.1493 221.634 36.0923C221.805 36.0272 221.996 35.9946 222.208 35.9946C222.42 35.9946 222.607 36.0272 222.77 36.0923C222.932 36.1493 223.067 36.2306 223.172 36.3364C223.303 36.4504 223.4 36.5928 223.465 36.7637C223.53 36.9346 223.563 37.1217 223.563 37.3252C223.563 37.6914 223.449 37.9966 223.221 38.2407C222.993 38.4849 222.656 38.6069 222.208 38.6069C221.752 38.6069 221.41 38.4849 221.183 38.2407C220.963 37.9966 220.853 37.6914 220.853 37.3252ZM236.161 37.5938V40.792H241.19V42.5376H236.161V49.7153C236.161 50.228 236.226 50.6512 236.356 50.9849C236.487 51.3185 236.666 51.583 236.894 51.7783C237.121 51.9818 237.382 52.1242 237.675 52.2056C237.976 52.2869 238.293 52.3276 238.627 52.3276C238.871 52.3276 239.123 52.3154 239.384 52.291C239.644 52.2585 239.901 52.2218 240.153 52.1812C240.397 52.1405 240.625 52.0998 240.836 52.0591C241.056 52.0103 241.235 51.9696 241.374 51.937L241.691 53.5361C241.504 53.6501 241.276 53.7518 241.007 53.8413C240.739 53.9227 240.446 53.9919 240.128 54.0488C239.811 54.1139 239.473 54.1628 239.115 54.1953C238.765 54.2279 238.415 54.2441 238.065 54.2441C237.479 54.2441 236.93 54.1628 236.417 54C235.913 53.8291 235.473 53.5605 235.099 53.1943C234.725 52.8363 234.428 52.3724 234.208 51.8027C233.996 51.2249 233.891 50.5291 233.891 49.7153V42.5376H230.424V40.792H233.891V37.5938H236.161ZM245.683 35.25H252.434V52.0469H256.743V54H245.683V52.0469H250.175V37.2153H245.683V35.25ZM265.679 54.2441C264.751 54.2441 263.896 54.0854 263.115 53.7681C262.342 53.4507 261.679 53.0072 261.125 52.4375C260.572 51.8678 260.141 51.1924 259.832 50.4111C259.522 49.6299 259.368 48.7795 259.368 47.8599V47.3472C259.368 46.2811 259.539 45.3289 259.88 44.4907C260.222 43.6444 260.678 42.9282 261.248 42.3423C261.809 41.7645 262.448 41.321 263.164 41.0117C263.888 40.7025 264.629 40.5479 265.386 40.5479C266.338 40.5479 267.168 40.7147 267.876 41.0483C268.592 41.3739 269.186 41.8255 269.658 42.4033C270.13 42.9893 270.48 43.6769 270.708 44.4663C270.944 45.2557 271.062 46.1102 271.062 47.0298V48.043H261.626V48.1284C261.683 48.7713 261.809 49.3369 262.004 49.8252C262.208 50.3135 262.485 50.7448 262.834 51.1191C263.193 51.5179 263.624 51.8312 264.128 52.0591C264.633 52.2869 265.19 52.4009 265.801 52.4009C266.606 52.4009 267.323 52.2381 267.949 51.9126C268.576 51.5871 269.097 51.1558 269.512 50.6187L270.891 51.6929C270.452 52.3602 269.792 52.9543 268.914 53.4751C268.043 53.9878 266.965 54.2441 265.679 54.2441ZM265.386 42.4033C264.93 42.4033 264.499 42.4888 264.092 42.6597C263.685 42.8224 263.319 43.0625 262.993 43.3799C262.668 43.7054 262.391 44.1042 262.163 44.5762C261.943 45.04 261.789 45.5771 261.699 46.1875H268.804V46.0776C268.804 45.6707 268.726 45.2354 268.572 44.7715C268.417 44.2995 268.201 43.8926 267.925 43.5508C267.648 43.209 267.298 42.9323 266.875 42.7207C266.46 42.5091 265.964 42.4033 265.386 42.4033ZM278.399 36.5806L278.143 41.0972H276.556L276.568 36.7759V35.25H278.399V36.5806ZM282.757 36.5806L282.5 41.0972H280.926L280.938 36.7759V35.25H282.769L282.757 36.5806ZM288.922 51.5952V49.2515L296.82 46.2729L297.552 46.0654L296.82 45.8335L288.922 42.9038V40.5723L299.701 45.1865V46.9688L288.922 51.5952ZM302.35 49.0684H304.621C304.621 49.5322 304.718 49.9676 304.914 50.3745C305.109 50.7814 305.382 51.1354 305.731 51.4365C306.081 51.7376 306.5 51.9777 306.989 52.1567C307.477 52.3276 308.014 52.4131 308.6 52.4131C309.259 52.4131 309.849 52.3317 310.37 52.1689C310.899 52.0062 311.351 51.7783 311.725 51.4854C312.091 51.1924 312.372 50.8424 312.567 50.4355C312.763 50.0286 312.86 49.5811 312.86 49.0928C312.86 48.7021 312.816 48.3522 312.726 48.043C312.645 47.7256 312.519 47.4489 312.348 47.2129C312.177 46.9688 311.973 46.7653 311.737 46.6025C311.501 46.4316 311.229 46.2933 310.919 46.1875C310.626 46.0817 310.297 46.0044 309.931 45.9556C309.573 45.8986 309.186 45.8701 308.771 45.8701H306.537V44.0146H308.771C309.137 44.0065 309.475 43.9821 309.784 43.9414C310.102 43.8926 310.39 43.8234 310.651 43.7339C310.879 43.6525 311.086 43.5589 311.273 43.4531C311.469 43.3392 311.64 43.209 311.786 43.0625C312.055 42.8102 312.254 42.5091 312.384 42.1592C312.523 41.8011 312.592 41.4105 312.592 40.9873C312.592 40.5397 312.506 40.1247 312.335 39.7422C312.173 39.3597 311.924 39.026 311.591 38.7412C311.257 38.4564 310.842 38.2326 310.346 38.0698C309.849 37.9071 309.267 37.8257 308.6 37.8257C308.087 37.8257 307.603 37.903 307.147 38.0576C306.692 38.2041 306.297 38.4116 305.963 38.6802C305.63 38.9569 305.361 39.2824 305.158 39.6567C304.962 40.0311 304.865 40.438 304.865 40.8774H302.606C302.606 40.1206 302.765 39.4411 303.083 38.8389C303.408 38.2285 303.847 37.7118 304.401 37.2886C304.946 36.8735 305.581 36.5521 306.305 36.3242C307.029 36.0964 307.794 35.9824 308.6 35.9824C309.536 35.9824 310.386 36.0882 311.151 36.2998C311.924 36.5114 312.588 36.8288 313.141 37.252C313.686 37.6751 314.11 38.2041 314.411 38.8389C314.712 39.4736 314.862 40.2061 314.862 41.0361C314.854 41.5814 314.74 42.0941 314.521 42.5742C314.301 43.0462 313.987 43.4694 313.581 43.8438C313.361 44.0472 313.113 44.2384 312.836 44.4175C312.567 44.5884 312.274 44.743 311.957 44.8813C312.372 45.0197 312.746 45.1865 313.08 45.3818C313.422 45.5771 313.723 45.8009 313.983 46.0532C314.358 46.4276 314.643 46.863 314.838 47.3594C315.033 47.8558 315.131 48.4173 315.131 49.0439C315.131 49.8822 314.964 50.6268 314.63 51.2778C314.305 51.9207 313.853 52.4619 313.275 52.9014C312.689 53.349 311.998 53.6867 311.2 53.9146C310.403 54.1424 309.536 54.2563 308.6 54.2563C307.827 54.2563 307.066 54.1587 306.317 53.9634C305.577 53.7599 304.914 53.4466 304.328 53.0234C303.742 52.6003 303.266 52.0632 302.899 51.4121C302.533 50.7529 302.35 49.9717 302.35 49.0684ZM326.582 54C326.492 53.8291 326.419 53.6175 326.362 53.3652C326.313 53.1048 326.276 52.8363 326.252 52.5596C326.024 52.7874 325.768 53.0031 325.483 53.2065C325.206 53.41 324.901 53.589 324.567 53.7437C324.226 53.8983 323.863 54.0203 323.481 54.1099C323.098 54.1994 322.692 54.2441 322.26 54.2441C321.56 54.2441 320.926 54.1424 320.356 53.939C319.794 53.7355 319.318 53.4588 318.928 53.1089C318.529 52.7671 318.22 52.3602 318 51.8882C317.788 51.408 317.683 50.8913 317.683 50.3379C317.683 49.6136 317.825 48.9788 318.11 48.4336C318.403 47.8883 318.814 47.4326 319.343 47.0664C319.872 46.7083 320.507 46.4398 321.247 46.2607C321.996 46.0817 322.83 45.9922 323.75 45.9922H326.215V44.9546C326.215 44.5558 326.142 44.1978 325.996 43.8804C325.849 43.563 325.642 43.2904 325.373 43.0625C325.104 42.8428 324.775 42.6719 324.384 42.5498C324.002 42.4277 323.57 42.3667 323.09 42.3667C322.643 42.3667 322.24 42.4237 321.882 42.5376C321.532 42.6515 321.235 42.8021 320.991 42.9893C320.747 43.1764 320.555 43.4002 320.417 43.6606C320.287 43.9129 320.222 44.1774 320.222 44.4541H317.951C317.959 43.974 318.081 43.502 318.317 43.0381C318.562 42.5742 318.911 42.1551 319.367 41.7808C319.815 41.4146 320.36 41.1175 321.003 40.8896C321.654 40.6618 322.39 40.5479 323.212 40.5479C323.961 40.5479 324.657 40.6414 325.3 40.8286C325.943 41.0076 326.5 41.2803 326.972 41.6465C327.436 42.0208 327.802 42.4847 328.071 43.0381C328.339 43.5915 328.474 44.2384 328.474 44.979V51.1191C328.474 51.5586 328.514 52.0265 328.596 52.5229C328.677 53.0112 328.791 53.4385 328.938 53.8047V54H326.582ZM322.59 52.2788C323.029 52.2788 323.44 52.2218 323.823 52.1079C324.205 51.994 324.555 51.8434 324.873 51.6562C325.182 51.4691 325.45 51.2575 325.678 51.0215C325.906 50.7773 326.085 50.5251 326.215 50.2646V47.5913H324.116C323.334 47.5913 322.651 47.6605 322.065 47.7988C321.487 47.929 321.027 48.1325 320.686 48.4092C320.441 48.6045 320.254 48.8364 320.124 49.105C320.002 49.3735 319.941 49.6787 319.941 50.0205C319.941 50.346 319.994 50.6471 320.1 50.9238C320.214 51.2005 320.38 51.4365 320.6 51.6318C320.82 51.8353 321.097 51.994 321.43 52.1079C321.764 52.2218 322.15 52.2788 322.59 52.2788ZM343.306 42.6597H334.797V54H332.527V40.792H343.306V42.6597ZM346.297 47.2739C346.297 46.3218 346.435 45.4388 346.712 44.625C346.989 43.8031 347.387 43.091 347.908 42.4888C348.421 41.8866 349.048 41.4146 349.788 41.0728C350.529 40.7228 351.363 40.5479 352.291 40.5479C353.226 40.5479 354.065 40.7228 354.805 41.0728C355.554 41.4146 356.189 41.8866 356.709 42.4888C357.222 43.091 357.617 43.8031 357.894 44.625C358.17 45.4388 358.309 46.3218 358.309 47.2739V47.5425C358.309 48.4946 358.17 49.3776 357.894 50.1914C357.617 51.0052 357.222 51.7132 356.709 52.3154C356.189 52.9176 355.558 53.3896 354.817 53.7314C354.077 54.0732 353.243 54.2441 352.315 54.2441C351.379 54.2441 350.537 54.0732 349.788 53.7314C349.048 53.3896 348.421 52.9176 347.908 52.3154C347.387 51.7132 346.989 51.0052 346.712 50.1914C346.435 49.3776 346.297 48.4946 346.297 47.5425V47.2739ZM348.555 47.5425C348.555 48.1935 348.632 48.8161 348.787 49.4102C348.942 49.9961 349.178 50.5129 349.495 50.9604C349.804 51.408 350.195 51.762 350.667 52.0225C351.139 52.2829 351.688 52.4131 352.315 52.4131C352.933 52.4131 353.475 52.2829 353.938 52.0225C354.41 51.762 354.805 51.408 355.123 50.9604C355.432 50.5129 355.664 49.9961 355.818 49.4102C355.973 48.8161 356.05 48.1935 356.05 47.5425V47.2739C356.05 46.631 355.969 46.0166 355.806 45.4307C355.652 44.8366 355.42 44.3158 355.11 43.8682C354.793 43.4206 354.398 43.0666 353.926 42.8062C353.462 42.5376 352.917 42.4033 352.291 42.4033C351.664 42.4033 351.119 42.5376 350.655 42.8062C350.191 43.0666 349.804 43.4206 349.495 43.8682C349.178 44.3158 348.942 44.8366 348.787 45.4307C348.632 46.0166 348.555 46.631 348.555 47.2739V47.5425ZM372.286 40.792V54H370.016V42.6597H365.157L365.145 46.4438C365.145 46.8914 365.133 47.3268 365.108 47.75C365.092 48.165 365.064 48.5597 365.023 48.9341C364.958 49.5526 364.856 50.1222 364.718 50.6431C364.579 51.1639 364.404 51.6237 364.193 52.0225C363.851 52.6654 363.391 53.1577 362.813 53.4995C362.236 53.8332 361.515 54 360.653 54H359.994L360.03 51.9858L360.531 51.9736C360.995 51.9736 361.377 51.8597 361.678 51.6318C361.987 51.3958 362.232 51.0459 362.411 50.582C362.5 50.3298 362.577 50.0409 362.643 49.7153C362.708 49.3817 362.761 49.0155 362.801 48.6167C362.826 48.2993 362.842 47.9616 362.85 47.6035C362.866 47.2373 362.875 46.8507 362.875 46.4438L362.899 40.792H372.286ZM375.326 47.2739C375.326 46.3218 375.465 45.4388 375.741 44.625C376.018 43.8031 376.417 43.091 376.938 42.4888C377.45 41.8866 378.077 41.4146 378.817 41.0728C379.558 40.7228 380.392 40.5479 381.32 40.5479C382.256 40.5479 383.094 40.7228 383.834 41.0728C384.583 41.4146 385.218 41.8866 385.739 42.4888C386.251 43.091 386.646 43.8031 386.923 44.625C387.2 45.4388 387.338 46.3218 387.338 47.2739V47.5425C387.338 48.4946 387.2 49.3776 386.923 50.1914C386.646 51.0052 386.251 51.7132 385.739 52.3154C385.218 52.9176 384.587 53.3896 383.847 53.7314C383.106 54.0732 382.272 54.2441 381.344 54.2441C380.408 54.2441 379.566 54.0732 378.817 53.7314C378.077 53.3896 377.45 52.9176 376.938 52.3154C376.417 51.7132 376.018 51.0052 375.741 50.1914C375.465 49.3776 375.326 48.4946 375.326 47.5425V47.2739ZM377.584 47.5425C377.584 48.1935 377.662 48.8161 377.816 49.4102C377.971 49.9961 378.207 50.5129 378.524 50.9604C378.834 51.408 379.224 51.762 379.696 52.0225C380.168 52.2829 380.718 52.4131 381.344 52.4131C381.963 52.4131 382.504 52.2829 382.968 52.0225C383.44 51.762 383.834 51.408 384.152 50.9604C384.461 50.5129 384.693 49.9961 384.848 49.4102C385.002 48.8161 385.08 48.1935 385.08 47.5425V47.2739C385.08 46.631 384.998 46.0166 384.835 45.4307C384.681 44.8366 384.449 44.3158 384.14 43.8682C383.822 43.4206 383.428 43.0666 382.956 42.8062C382.492 42.5376 381.946 42.4033 381.32 42.4033C380.693 42.4033 380.148 42.5376 379.684 42.8062C379.22 43.0666 378.834 43.4206 378.524 43.8682C378.207 44.3158 377.971 44.8366 377.816 45.4307C377.662 46.0166 377.584 46.631 377.584 47.2739V47.5425ZM390.354 54V40.792H395.542C396.355 40.792 397.096 40.8652 397.763 41.0117C398.431 41.1582 399.004 41.3779 399.484 41.6709C399.956 41.9639 400.319 42.3382 400.571 42.7939C400.831 43.2497 400.961 43.7909 400.961 44.4175C400.961 44.8162 400.884 45.1906 400.729 45.5405C400.583 45.8823 400.363 46.1834 400.07 46.4438C399.908 46.5985 399.72 46.7368 399.509 46.8589C399.297 46.981 399.065 47.0908 398.813 47.1885L398.911 47.2129C399.318 47.3187 399.672 47.4692 399.973 47.6646C400.282 47.8517 400.546 48.0755 400.766 48.3359C400.986 48.6045 401.153 48.9015 401.267 49.2271C401.381 49.5526 401.438 49.8944 401.438 50.2524C401.438 50.8791 401.319 51.4284 401.083 51.9004C400.847 52.3643 400.51 52.7508 400.07 53.0601C399.631 53.3774 399.098 53.6134 398.471 53.7681C397.853 53.9227 397.157 54 396.384 54H390.354ZM392.624 48.2017V52.1812H396.384C396.864 52.1812 397.283 52.1323 397.641 52.0347C398.007 51.937 398.308 51.7946 398.544 51.6074C398.748 51.4447 398.903 51.2453 399.008 51.0093C399.114 50.7651 399.167 50.4884 399.167 50.1792C399.167 49.8618 399.106 49.5811 398.984 49.3369C398.87 49.0928 398.699 48.8893 398.471 48.7266C398.235 48.5557 397.942 48.4255 397.592 48.3359C397.242 48.2464 396.84 48.2017 396.384 48.2017H392.624ZM392.624 46.395H395.566C396.176 46.395 396.701 46.3421 397.141 46.2363C397.58 46.1305 397.93 45.9637 398.19 45.7358C398.353 45.5894 398.479 45.4185 398.569 45.2231C398.658 45.0197 398.703 44.7918 398.703 44.5396C398.703 44.2059 398.63 43.917 398.483 43.6729C398.345 43.4287 398.138 43.2293 397.861 43.0747C397.6 42.9201 397.271 42.8062 396.872 42.7329C396.481 42.6597 396.038 42.623 395.542 42.623H392.624V46.395ZM404.355 47.2739C404.355 46.3218 404.494 45.4388 404.771 44.625C405.047 43.8031 405.446 43.091 405.967 42.4888C406.479 41.8866 407.106 41.4146 407.847 41.0728C408.587 40.7228 409.421 40.5479 410.349 40.5479C411.285 40.5479 412.123 40.7228 412.864 41.0728C413.612 41.4146 414.247 41.8866 414.768 42.4888C415.281 43.091 415.675 43.8031 415.952 44.625C416.229 45.4388 416.367 46.3218 416.367 47.2739V47.5425C416.367 48.4946 416.229 49.3776 415.952 50.1914C415.675 51.0052 415.281 51.7132 414.768 52.3154C414.247 52.9176 413.617 53.3896 412.876 53.7314C412.135 54.0732 411.301 54.2441 410.374 54.2441C409.438 54.2441 408.595 54.0732 407.847 53.7314C407.106 53.3896 406.479 52.9176 405.967 52.3154C405.446 51.7132 405.047 51.0052 404.771 50.1914C404.494 49.3776 404.355 48.4946 404.355 47.5425V47.2739ZM406.614 47.5425C406.614 48.1935 406.691 48.8161 406.846 49.4102C407 49.9961 407.236 50.5129 407.554 50.9604C407.863 51.408 408.254 51.762 408.726 52.0225C409.198 52.2829 409.747 52.4131 410.374 52.4131C410.992 52.4131 411.533 52.2829 411.997 52.0225C412.469 51.762 412.864 51.408 413.181 50.9604C413.49 50.5129 413.722 49.9961 413.877 49.4102C414.032 48.8161 414.109 48.1935 414.109 47.5425V47.2739C414.109 46.631 414.028 46.0166 413.865 45.4307C413.71 44.8366 413.478 44.3158 413.169 43.8682C412.852 43.4206 412.457 43.0666 411.985 42.8062C411.521 42.5376 410.976 42.4033 410.349 42.4033C409.722 42.4033 409.177 42.5376 408.713 42.8062C408.25 43.0666 407.863 43.4206 407.554 43.8682C407.236 44.3158 407 44.8366 406.846 45.4307C406.691 46.0166 406.614 46.631 406.614 47.2739V47.5425ZM423.79 48.3726H421.641V54H419.383V40.792H421.641V46.3828H423.594L428.514 40.792H431.26L425.596 47.1519L431.7 54H428.831L423.79 48.3726ZM454.162 52.4131C454.569 52.4131 454.963 52.348 455.346 52.2178C455.736 52.0876 456.082 51.9045 456.383 51.6685C456.684 51.4406 456.924 51.172 457.104 50.8628C457.291 50.5454 457.388 50.2036 457.396 49.8374H459.533C459.525 50.4233 459.37 50.9849 459.069 51.522C458.776 52.0509 458.381 52.5148 457.885 52.9136C457.388 53.3205 456.819 53.646 456.176 53.8901C455.533 54.1261 454.861 54.2441 454.162 54.2441C453.161 54.2441 452.286 54.0651 451.537 53.707C450.788 53.349 450.166 52.8647 449.669 52.2544C449.165 51.6522 448.786 50.9564 448.534 50.167C448.282 49.3695 448.156 48.5312 448.156 47.6523V47.1396C448.156 46.2689 448.282 45.4347 448.534 44.6372C448.786 43.8397 449.165 43.1357 449.669 42.5254C450.166 41.9232 450.788 41.443 451.537 41.085C452.286 40.7269 453.161 40.5479 454.162 40.5479C454.943 40.5479 455.659 40.674 456.31 40.9263C456.969 41.1704 457.539 41.5041 458.019 41.9272C458.491 42.3586 458.861 42.8672 459.13 43.4531C459.398 44.0391 459.533 44.6657 459.533 45.333H457.396C457.388 44.9342 457.299 44.5599 457.128 44.21C456.965 43.8519 456.741 43.5386 456.457 43.27C456.172 43.0015 455.83 42.7899 455.431 42.6353C455.041 42.4806 454.617 42.4033 454.162 42.4033C453.462 42.4033 452.872 42.5457 452.392 42.8306C451.92 43.1073 451.537 43.4694 451.244 43.917C450.951 44.3727 450.74 44.8813 450.609 45.4429C450.487 46.0044 450.426 46.57 450.426 47.1396V47.6523C450.426 48.2301 450.487 48.8039 450.609 49.3735C450.74 49.9351 450.951 50.4396 451.244 50.8872C451.529 51.3429 451.907 51.7132 452.379 51.998C452.86 52.2747 453.454 52.4131 454.162 52.4131ZM474.926 42.623H469.653V54H467.382V42.623H462.194V40.792H474.926V42.623ZM477.551 59.0781V40.792H479.614L479.724 42.2324C479.903 42.0046 480.098 41.8011 480.31 41.6221C480.522 41.4349 480.75 41.2762 480.994 41.146C481.335 40.9507 481.714 40.8042 482.129 40.7065C482.552 40.6007 483.004 40.5479 483.484 40.5479C484.33 40.5479 485.079 40.7147 485.73 41.0483C486.381 41.382 486.926 41.8459 487.366 42.4399C487.805 43.034 488.139 43.7461 488.367 44.5762C488.595 45.3981 488.708 46.3014 488.708 47.2861V47.5425C488.708 48.4865 488.595 49.3695 488.367 50.1914C488.139 51.0052 487.805 51.7132 487.366 52.3154C486.926 52.9176 486.381 53.3896 485.73 53.7314C485.087 54.0732 484.351 54.2441 483.521 54.2441C483.016 54.2441 482.544 54.1912 482.104 54.0854C481.673 53.9797 481.283 53.8291 480.933 53.6338C480.721 53.5117 480.522 53.3774 480.334 53.231C480.147 53.0763 479.972 52.9095 479.81 52.7305V59.0781H477.551ZM486.45 47.2861C486.45 46.6432 486.377 46.0329 486.23 45.4551C486.092 44.8691 485.876 44.3524 485.583 43.9048C485.282 43.4653 484.904 43.1154 484.448 42.855C483.993 42.5946 483.447 42.4644 482.812 42.4644C482.463 42.4644 482.137 42.505 481.836 42.5864C481.543 42.6678 481.278 42.7858 481.042 42.9404C480.782 43.0951 480.55 43.2863 480.347 43.5142C480.143 43.742 479.964 43.9943 479.81 44.271V50.6309C479.948 50.875 480.107 51.1029 480.286 51.3145C480.465 51.526 480.668 51.7051 480.896 51.8516C481.156 52.0225 481.445 52.1567 481.763 52.2544C482.088 52.3521 482.446 52.4009 482.837 52.4009C483.464 52.4009 484.005 52.2707 484.46 52.0103C484.916 51.7417 485.291 51.3836 485.583 50.936C485.876 50.4884 486.092 49.9717 486.23 49.3857C486.377 48.7998 486.45 48.1854 486.45 47.5425V47.2861ZM500.757 54C500.668 53.8291 500.595 53.6175 500.538 53.3652C500.489 53.1048 500.452 52.8363 500.428 52.5596C500.2 52.7874 499.944 53.0031 499.659 53.2065C499.382 53.41 499.077 53.589 498.743 53.7437C498.401 53.8983 498.039 54.0203 497.657 54.1099C497.274 54.1994 496.867 54.2441 496.436 54.2441C495.736 54.2441 495.101 54.1424 494.532 53.939C493.97 53.7355 493.494 53.4588 493.104 53.1089C492.705 52.7671 492.396 52.3602 492.176 51.8882C491.964 51.408 491.858 50.8913 491.858 50.3379C491.858 49.6136 492.001 48.9788 492.286 48.4336C492.579 47.8883 492.99 47.4326 493.519 47.0664C494.048 46.7083 494.682 46.4398 495.423 46.2607C496.172 46.0817 497.006 45.9922 497.925 45.9922H500.391V44.9546C500.391 44.5558 500.318 44.1978 500.171 43.8804C500.025 43.563 499.817 43.2904 499.549 43.0625C499.28 42.8428 498.951 42.6719 498.56 42.5498C498.178 42.4277 497.746 42.3667 497.266 42.3667C496.819 42.3667 496.416 42.4237 496.058 42.5376C495.708 42.6515 495.411 42.8021 495.167 42.9893C494.922 43.1764 494.731 43.4002 494.593 43.6606C494.463 43.9129 494.397 44.1774 494.397 44.4541H492.127C492.135 43.974 492.257 43.502 492.493 43.0381C492.737 42.5742 493.087 42.1551 493.543 41.7808C493.991 41.4146 494.536 41.1175 495.179 40.8896C495.83 40.6618 496.566 40.5479 497.388 40.5479C498.137 40.5479 498.833 40.6414 499.476 40.8286C500.118 41.0076 500.676 41.2803 501.148 41.6465C501.612 42.0208 501.978 42.4847 502.247 43.0381C502.515 43.5915 502.649 44.2384 502.649 44.979V51.1191C502.649 51.5586 502.69 52.0265 502.771 52.5229C502.853 53.0112 502.967 53.4385 503.113 53.8047V54H500.757ZM496.766 52.2788C497.205 52.2788 497.616 52.2218 497.999 52.1079C498.381 51.994 498.731 51.8434 499.048 51.6562C499.358 51.4691 499.626 51.2575 499.854 51.0215C500.082 50.7773 500.261 50.5251 500.391 50.2646V47.5913H498.292C497.51 47.5913 496.827 47.6605 496.241 47.7988C495.663 47.929 495.203 48.1325 494.861 48.4092C494.617 48.6045 494.43 48.8364 494.3 49.105C494.178 49.3735 494.117 49.6787 494.117 50.0205C494.117 50.346 494.17 50.6471 494.275 50.9238C494.389 51.2005 494.556 51.4365 494.776 51.6318C494.996 51.8353 495.272 51.994 495.606 52.1079C495.94 52.2218 496.326 52.2788 496.766 52.2788ZM517.445 54H515.187V48.3604H508.741V54H506.483V40.792H508.741V46.5171H515.187V40.792H517.445V54ZM529.701 40.792H531.959V54H529.701V44.2588L523.244 54H520.998V40.792H523.244V50.5454L529.701 40.792ZM535.573 40.792H537.832V52.1567H543.911V40.792H546.181V52.1567H547.756L547.536 57.9185H545.51V54H535.573V40.792ZM552.029 45.7969H553.237C553.945 45.7969 554.572 45.8986 555.117 46.1021C555.671 46.3055 556.134 46.5863 556.509 46.9443C556.875 47.3105 557.152 47.7419 557.339 48.2383C557.534 48.7347 557.632 49.2718 557.632 49.8496C557.632 50.4274 557.534 50.9686 557.339 51.4731C557.152 51.9777 556.875 52.4172 556.509 52.7915C556.134 53.1659 555.675 53.4629 555.129 53.6826C554.584 53.8942 553.953 54 553.237 54H549.771V40.792H552.029V45.7969ZM561.282 54H559.023V40.792H561.282V54ZM552.029 47.6401V52.1567H553.237C553.62 52.1567 553.945 52.0957 554.214 51.9736C554.482 51.8434 554.702 51.6725 554.873 51.4609C555.036 51.2575 555.154 51.0256 555.227 50.7651C555.308 50.4966 555.349 50.2199 555.349 49.9351C555.349 49.6665 555.308 49.3979 555.227 49.1294C555.154 48.8527 555.036 48.6045 554.873 48.3848C554.702 48.165 554.482 47.986 554.214 47.8477C553.945 47.7093 553.62 47.6401 553.237 47.6401H552.029ZM584.793 52.4131C585.2 52.4131 585.595 52.348 585.978 52.2178C586.368 52.0876 586.714 51.9045 587.015 51.6685C587.316 51.4406 587.556 51.172 587.735 50.8628C587.923 50.5454 588.02 50.2036 588.028 49.8374H590.165C590.156 50.4233 590.002 50.9849 589.701 51.522C589.408 52.0509 589.013 52.5148 588.517 52.9136C588.02 53.3205 587.451 53.646 586.808 53.8901C586.165 54.1261 585.493 54.2441 584.793 54.2441C583.792 54.2441 582.918 54.0651 582.169 53.707C581.42 53.349 580.798 52.8647 580.301 52.2544C579.797 51.6522 579.418 50.9564 579.166 50.167C578.914 49.3695 578.788 48.5312 578.788 47.6523V47.1396C578.788 46.2689 578.914 45.4347 579.166 44.6372C579.418 43.8397 579.797 43.1357 580.301 42.5254C580.798 41.9232 581.42 41.443 582.169 41.085C582.918 40.7269 583.792 40.5479 584.793 40.5479C585.575 40.5479 586.291 40.674 586.942 40.9263C587.601 41.1704 588.171 41.5041 588.651 41.9272C589.123 42.3586 589.493 42.8672 589.762 43.4531C590.03 44.0391 590.165 44.6657 590.165 45.333H588.028C588.02 44.9342 587.931 44.5599 587.76 44.21C587.597 43.8519 587.373 43.5386 587.088 43.27C586.804 43.0015 586.462 42.7899 586.063 42.6353C585.672 42.4806 585.249 42.4033 584.793 42.4033C584.094 42.4033 583.504 42.5457 583.023 42.8306C582.551 43.1073 582.169 43.4694 581.876 43.917C581.583 44.3727 581.371 44.8813 581.241 45.4429C581.119 46.0044 581.058 46.57 581.058 47.1396V47.6523C581.058 48.2301 581.119 48.8039 581.241 49.3735C581.371 49.9351 581.583 50.4396 581.876 50.8872C582.161 51.3429 582.539 51.7132 583.011 51.998C583.491 52.2747 584.085 52.4131 584.793 52.4131ZM612.48 48.3726H610.332V54H608.073V40.792H610.332V46.3828H612.285L617.204 40.792H619.951L614.287 47.1519L620.39 54H617.521L612.48 48.3726ZM633.55 40.792V54H631.279V42.6597H626.421L626.409 46.4438C626.409 46.8914 626.396 47.3268 626.372 47.75C626.356 48.165 626.327 48.5597 626.287 48.9341C626.222 49.5526 626.12 50.1222 625.981 50.6431C625.843 51.1639 625.668 51.6237 625.457 52.0225C625.115 52.6654 624.655 53.1577 624.077 53.4995C623.499 53.8332 622.779 54 621.917 54H621.257L621.294 51.9858L621.794 51.9736C622.258 51.9736 622.641 51.8597 622.942 51.6318C623.251 51.3958 623.495 51.0459 623.674 50.582C623.764 50.3298 623.841 50.0409 623.906 49.7153C623.971 49.3817 624.024 49.0155 624.065 48.6167C624.089 48.2993 624.106 47.9616 624.114 47.6035C624.13 47.2373 624.138 46.8507 624.138 46.4438L624.163 40.792H633.55ZM645.904 54C645.814 53.8291 645.741 53.6175 645.684 53.3652C645.635 53.1048 645.599 52.8363 645.574 52.5596C645.346 52.7874 645.09 53.0031 644.805 53.2065C644.528 53.41 644.223 53.589 643.89 53.7437C643.548 53.8983 643.186 54.0203 642.803 54.1099C642.421 54.1994 642.014 54.2441 641.583 54.2441C640.883 54.2441 640.248 54.1424 639.678 53.939C639.117 53.7355 638.641 53.4588 638.25 53.1089C637.851 52.7671 637.542 52.3602 637.322 51.8882C637.111 51.408 637.005 50.8913 637.005 50.3379C637.005 49.6136 637.147 48.9788 637.432 48.4336C637.725 47.8883 638.136 47.4326 638.665 47.0664C639.194 46.7083 639.829 46.4398 640.569 46.2607C641.318 46.0817 642.152 45.9922 643.072 45.9922H645.538V44.9546C645.538 44.5558 645.464 44.1978 645.318 43.8804C645.171 43.563 644.964 43.2904 644.695 43.0625C644.427 42.8428 644.097 42.6719 643.707 42.5498C643.324 42.4277 642.893 42.3667 642.413 42.3667C641.965 42.3667 641.562 42.4237 641.204 42.5376C640.854 42.6515 640.557 42.8021 640.313 42.9893C640.069 43.1764 639.878 43.4002 639.739 43.6606C639.609 43.9129 639.544 44.1774 639.544 44.4541H637.273C637.282 43.974 637.404 43.502 637.64 43.0381C637.884 42.5742 638.234 42.1551 638.689 41.7808C639.137 41.4146 639.682 41.1175 640.325 40.8896C640.976 40.6618 641.713 40.5479 642.535 40.5479C643.283 40.5479 643.979 40.6414 644.622 40.8286C645.265 41.0076 645.822 41.2803 646.294 41.6465C646.758 42.0208 647.125 42.4847 647.393 43.0381C647.662 43.5915 647.796 44.2384 647.796 44.979V51.1191C647.796 51.5586 647.837 52.0265 647.918 52.5229C647.999 53.0112 648.113 53.4385 648.26 53.8047V54H645.904ZM641.912 52.2788C642.352 52.2788 642.763 52.2218 643.145 52.1079C643.528 51.994 643.877 51.8434 644.195 51.6562C644.504 51.4691 644.773 51.2575 645 51.0215C645.228 50.7773 645.407 50.5251 645.538 50.2646V47.5913H643.438C642.657 47.5913 641.973 47.6605 641.387 47.7988C640.809 47.929 640.35 48.1325 640.008 48.4092C639.764 48.6045 639.576 48.8364 639.446 49.105C639.324 49.3735 639.263 49.6787 639.263 50.0205C639.263 50.346 639.316 50.6471 639.422 50.9238C639.536 51.2005 639.703 51.4365 639.922 51.6318C640.142 51.8353 640.419 51.994 640.752 52.1079C641.086 52.2218 641.473 52.2788 641.912 52.2788ZM657.367 52.4131C657.774 52.4131 658.168 52.348 658.551 52.2178C658.941 52.0876 659.287 51.9045 659.588 51.6685C659.889 51.4406 660.13 51.172 660.309 50.8628C660.496 50.5454 660.593 50.2036 660.602 49.8374H662.738C662.73 50.4233 662.575 50.9849 662.274 51.522C661.981 52.0509 661.586 52.5148 661.09 52.9136C660.593 53.3205 660.024 53.646 659.381 53.8901C658.738 54.1261 658.067 54.2441 657.367 54.2441C656.366 54.2441 655.491 54.0651 654.742 53.707C653.993 53.349 653.371 52.8647 652.875 52.2544C652.37 51.6522 651.992 50.9564 651.739 50.167C651.487 49.3695 651.361 48.5312 651.361 47.6523V47.1396C651.361 46.2689 651.487 45.4347 651.739 44.6372C651.992 43.8397 652.37 43.1357 652.875 42.5254C653.371 41.9232 653.993 41.443 654.742 41.085C655.491 40.7269 656.366 40.5479 657.367 40.5479C658.148 40.5479 658.864 40.674 659.515 40.9263C660.174 41.1704 660.744 41.5041 661.224 41.9272C661.696 42.3586 662.066 42.8672 662.335 43.4531C662.604 44.0391 662.738 44.6657 662.738 45.333H660.602C660.593 44.9342 660.504 44.5599 660.333 44.21C660.17 43.8519 659.946 43.5386 659.662 43.27C659.377 43.0015 659.035 42.7899 658.636 42.6353C658.246 42.4806 657.822 42.4033 657.367 42.4033C656.667 42.4033 656.077 42.5457 655.597 42.8306C655.125 43.1073 654.742 43.4694 654.449 43.917C654.156 44.3727 653.945 44.8813 653.814 45.4429C653.692 46.0044 653.631 46.57 653.631 47.1396V47.6523C653.631 48.2301 653.692 48.8039 653.814 49.3735C653.945 49.9351 654.156 50.4396 654.449 50.8872C654.734 51.3429 655.112 51.7132 655.584 51.998C656.065 52.2747 656.659 52.4131 657.367 52.4131ZM671.881 52.4131C672.288 52.4131 672.683 52.348 673.065 52.2178C673.456 52.0876 673.802 51.9045 674.103 51.6685C674.404 51.4406 674.644 51.172 674.823 50.8628C675.01 50.5454 675.108 50.2036 675.116 49.8374H677.252C677.244 50.4233 677.09 50.9849 676.789 51.522C676.496 52.0509 676.101 52.5148 675.604 52.9136C675.108 53.3205 674.538 53.646 673.896 53.8901C673.253 54.1261 672.581 54.2441 671.881 54.2441C670.88 54.2441 670.006 54.0651 669.257 53.707C668.508 53.349 667.886 52.8647 667.389 52.2544C666.885 51.6522 666.506 50.9564 666.254 50.167C666.002 49.3695 665.875 48.5312 665.875 47.6523V47.1396C665.875 46.2689 666.002 45.4347 666.254 44.6372C666.506 43.8397 666.885 43.1357 667.389 42.5254C667.886 41.9232 668.508 41.443 669.257 41.085C670.006 40.7269 670.88 40.5479 671.881 40.5479C672.663 40.5479 673.379 40.674 674.03 40.9263C674.689 41.1704 675.259 41.5041 675.739 41.9272C676.211 42.3586 676.581 42.8672 676.85 43.4531C677.118 44.0391 677.252 44.6657 677.252 45.333H675.116C675.108 44.9342 675.019 44.5599 674.848 44.21C674.685 43.8519 674.461 43.5386 674.176 43.27C673.891 43.0015 673.55 42.7899 673.151 42.6353C672.76 42.4806 672.337 42.4033 671.881 42.4033C671.181 42.4033 670.591 42.5457 670.111 42.8306C669.639 43.1073 669.257 43.4694 668.964 43.917C668.671 44.3727 668.459 44.8813 668.329 45.4429C668.207 46.0044 668.146 46.57 668.146 47.1396V47.6523C668.146 48.2301 668.207 48.8039 668.329 49.3735C668.459 49.9351 668.671 50.4396 668.964 50.8872C669.249 51.3429 669.627 51.7132 670.099 51.998C670.579 52.2747 671.173 52.4131 671.881 52.4131ZM680.134 47.2739C680.134 46.3218 680.272 45.4388 680.549 44.625C680.826 43.8031 681.224 43.091 681.745 42.4888C682.258 41.8866 682.884 41.4146 683.625 41.0728C684.366 40.7228 685.2 40.5479 686.127 40.5479C687.063 40.5479 687.902 40.7228 688.642 41.0728C689.391 41.4146 690.026 41.8866 690.546 42.4888C691.059 43.091 691.454 43.8031 691.73 44.625C692.007 45.4388 692.146 46.3218 692.146 47.2739V47.5425C692.146 48.4946 692.007 49.3776 691.73 50.1914C691.454 51.0052 691.059 51.7132 690.546 52.3154C690.026 52.9176 689.395 53.3896 688.654 53.7314C687.914 54.0732 687.08 54.2441 686.152 54.2441C685.216 54.2441 684.374 54.0732 683.625 53.7314C682.884 53.3896 682.258 52.9176 681.745 52.3154C681.224 51.7132 680.826 51.0052 680.549 50.1914C680.272 49.3776 680.134 48.4946 680.134 47.5425V47.2739ZM682.392 47.5425C682.392 48.1935 682.469 48.8161 682.624 49.4102C682.779 49.9961 683.015 50.5129 683.332 50.9604C683.641 51.408 684.032 51.762 684.504 52.0225C684.976 52.2829 685.525 52.4131 686.152 52.4131C686.77 52.4131 687.312 52.2829 687.775 52.0225C688.247 51.762 688.642 51.408 688.959 50.9604C689.269 50.5129 689.501 49.9961 689.655 49.4102C689.81 48.8161 689.887 48.1935 689.887 47.5425V47.2739C689.887 46.631 689.806 46.0166 689.643 45.4307C689.488 44.8366 689.257 44.3158 688.947 43.8682C688.63 43.4206 688.235 43.0666 687.763 42.8062C687.299 42.5376 686.754 42.4033 686.127 42.4033C685.501 42.4033 684.956 42.5376 684.492 42.8062C684.028 43.0666 683.641 43.4206 683.332 43.8682C683.015 44.3158 682.779 44.8366 682.624 45.4307C682.469 46.0166 682.392 46.631 682.392 47.2739V47.5425ZM700.532 51.0093L703.34 40.792H706.16V54H703.901V45.8579L701.313 54H699.751L697.09 45.5649V54H694.832V40.792H697.749L700.532 51.0093ZM729.659 37.5938V40.792H734.688V42.5376H729.659V49.7153C729.659 50.228 729.724 50.6512 729.854 50.9849C729.985 51.3185 730.164 51.583 730.392 51.7783C730.619 51.9818 730.88 52.1242 731.173 52.2056C731.474 52.2869 731.791 52.3276 732.125 52.3276C732.369 52.3276 732.621 52.3154 732.882 52.291C733.142 52.2585 733.399 52.2218 733.651 52.1812C733.895 52.1405 734.123 52.0998 734.334 52.0591C734.554 52.0103 734.733 51.9696 734.872 51.937L735.189 53.5361C735.002 53.6501 734.774 53.7518 734.505 53.8413C734.237 53.9227 733.944 53.9919 733.626 54.0488C733.309 54.1139 732.971 54.1628 732.613 54.1953C732.263 54.2279 731.913 54.2441 731.563 54.2441C730.978 54.2441 730.428 54.1628 729.916 54C729.411 53.8291 728.972 53.5605 728.597 53.1943C728.223 52.8363 727.926 52.3724 727.706 51.8027C727.494 51.2249 727.389 50.5291 727.389 49.7153V42.5376H723.922V40.792H727.389V37.5938H729.659ZM739.181 40.792H745.932V52.0469H750.241V54H739.181V52.0469H743.673V42.7573H739.181V40.792ZM743.38 37.3252C743.38 37.1299 743.409 36.9468 743.466 36.7759C743.531 36.605 743.629 36.4585 743.759 36.3364C743.865 36.2306 743.999 36.1493 744.162 36.0923C744.333 36.0272 744.524 35.9946 744.735 35.9946C744.947 35.9946 745.134 36.0272 745.297 36.0923C745.46 36.1493 745.594 36.2306 745.7 36.3364C745.83 36.4504 745.928 36.5928 745.993 36.7637C746.058 36.9346 746.09 37.1217 746.09 37.3252C746.09 37.6914 745.976 37.9966 745.749 38.2407C745.521 38.4849 745.183 38.6069 744.735 38.6069C744.28 38.6069 743.938 38.4849 743.71 38.2407C743.49 37.9966 743.38 37.6914 743.38 37.3252ZM758.688 37.5938V40.792H763.718V42.5376H758.688V49.7153C758.688 50.228 758.754 50.6512 758.884 50.9849C759.014 51.3185 759.193 51.583 759.421 51.7783C759.649 51.9818 759.909 52.1242 760.202 52.2056C760.503 52.2869 760.821 52.3276 761.154 52.3276C761.398 52.3276 761.651 52.3154 761.911 52.291C762.172 52.2585 762.428 52.2218 762.68 52.1812C762.924 52.1405 763.152 52.0998 763.364 52.0591C763.583 52.0103 763.763 51.9696 763.901 51.937L764.218 53.5361C764.031 53.6501 763.803 53.7518 763.535 53.8413C763.266 53.9227 762.973 53.9919 762.656 54.0488C762.338 54.1139 762.001 54.1628 761.643 54.1953C761.293 54.2279 760.943 54.2441 760.593 54.2441C760.007 54.2441 759.458 54.1628 758.945 54C758.44 53.8291 758.001 53.5605 757.626 53.1943C757.252 52.8363 756.955 52.3724 756.735 51.8027C756.524 51.2249 756.418 50.5291 756.418 49.7153V42.5376H752.951V40.792H756.418V37.5938H758.688ZM768.21 35.25H774.961V52.0469H779.27V54H768.21V52.0469H772.703V37.2153H768.21V35.25ZM788.206 54.2441C787.278 54.2441 786.424 54.0854 785.643 53.7681C784.869 53.4507 784.206 53.0072 783.653 52.4375C783.099 51.8678 782.668 51.1924 782.359 50.4111C782.05 49.6299 781.895 48.7795 781.895 47.8599V47.3472C781.895 46.2811 782.066 45.3289 782.408 44.4907C782.75 43.6444 783.205 42.9282 783.775 42.3423C784.336 41.7645 784.975 41.321 785.691 41.0117C786.416 40.7025 787.156 40.5479 787.913 40.5479C788.865 40.5479 789.695 40.7147 790.403 41.0483C791.119 41.3739 791.714 41.8255 792.186 42.4033C792.658 42.9893 793.007 43.6769 793.235 44.4663C793.471 45.2557 793.589 46.1102 793.589 47.0298V48.043H784.153V48.1284C784.21 48.7713 784.336 49.3369 784.532 49.8252C784.735 50.3135 785.012 50.7448 785.362 51.1191C785.72 51.5179 786.151 51.8312 786.656 52.0591C787.16 52.2869 787.718 52.4009 788.328 52.4009C789.134 52.4009 789.85 52.2381 790.477 51.9126C791.103 51.5871 791.624 51.1558 792.039 50.6187L793.418 51.6929C792.979 52.3602 792.32 52.9543 791.441 53.4751C790.57 53.9878 789.492 54.2441 788.206 54.2441ZM787.913 42.4033C787.457 42.4033 787.026 42.4888 786.619 42.6597C786.212 42.8224 785.846 43.0625 785.521 43.3799C785.195 43.7054 784.918 44.1042 784.69 44.5762C784.471 45.04 784.316 45.5771 784.227 46.1875H791.331V46.0776C791.331 45.6707 791.254 45.2354 791.099 44.7715C790.944 44.2995 790.729 43.8926 790.452 43.5508C790.175 43.209 789.826 42.9323 789.402 42.7207C788.987 42.5091 788.491 42.4033 787.913 42.4033ZM807.188 51.6074L796.837 46.981V45.1987L807.188 40.5845V42.9771L799.718 45.9067L799.071 46.1143L799.718 46.334L807.188 49.2148V51.6074ZM814.379 55.5259H812.353L819.774 36.2266H821.789L814.379 55.5259ZM854.993 51.5952V49.2515L862.891 46.2729L863.624 46.0654L862.891 45.8335L854.993 42.9038V40.5723L865.772 45.1865V46.9688L854.993 51.5952ZM52.4268 84.6074L42.0752 79.981V78.1987L52.4268 73.5845V75.9771L44.9561 78.9067L44.3091 79.1143L44.9561 79.334L52.4268 82.2148V84.6074ZM91.2954 85.4131C91.7023 85.4131 92.097 85.348 92.4795 85.2178C92.8701 85.0876 93.216 84.9045 93.5171 84.6685C93.8182 84.4406 94.0583 84.172 94.2373 83.8628C94.4245 83.5454 94.5221 83.2036 94.5303 82.8374H96.6665C96.6584 83.4233 96.5037 83.9849 96.2026 84.522C95.9097 85.0509 95.515 85.5148 95.0186 85.9136C94.5221 86.3205 93.9525 86.646 93.3096 86.8901C92.6667 87.1261 91.9953 87.2441 91.2954 87.2441C90.2944 87.2441 89.4196 87.0651 88.6709 86.707C87.9222 86.349 87.2996 85.8647 86.8032 85.2544C86.2987 84.6522 85.9202 83.9564 85.668 83.167C85.4157 82.3695 85.2896 81.5312 85.2896 80.6523V80.1396C85.2896 79.2689 85.4157 78.4347 85.668 77.6372C85.9202 76.8397 86.2987 76.1357 86.8032 75.5254C87.2996 74.9232 87.9222 74.443 88.6709 74.085C89.4196 73.7269 90.2944 73.5479 91.2954 73.5479C92.0767 73.5479 92.7928 73.674 93.4438 73.9263C94.103 74.1704 94.6727 74.5041 95.1528 74.9272C95.6248 75.3586 95.9951 75.8672 96.2637 76.4531C96.5322 77.0391 96.6665 77.6657 96.6665 78.333H94.5303C94.5221 77.9342 94.4326 77.5599 94.2617 77.21C94.099 76.8519 93.8752 76.5386 93.5903 76.27C93.3055 76.0015 92.9637 75.7899 92.5649 75.6353C92.1743 75.4806 91.7511 75.4033 91.2954 75.4033C90.5955 75.4033 90.0055 75.5457 89.5254 75.8306C89.0534 76.1073 88.6709 76.4694 88.3779 76.917C88.085 77.3727 87.8734 77.8813 87.7432 78.4429C87.6211 79.0044 87.5601 79.57 87.5601 80.1396V80.6523C87.5601 81.2301 87.6211 81.8039 87.7432 82.3735C87.8734 82.9351 88.085 83.4396 88.3779 83.8872C88.6628 84.3429 89.0412 84.7132 89.5132 84.998C89.9933 85.2747 90.5874 85.4131 91.2954 85.4131ZM100.537 68.25H107.287V85.0469H111.596V87H100.537V85.0469H105.029V70.2153H100.537V68.25ZM123.376 87C123.287 86.8291 123.214 86.6175 123.157 86.3652C123.108 86.1048 123.071 85.8363 123.047 85.5596C122.819 85.7874 122.563 86.0031 122.278 86.2065C122.001 86.41 121.696 86.589 121.362 86.7437C121.021 86.8983 120.658 87.0203 120.276 87.1099C119.893 87.1994 119.486 87.2441 119.055 87.2441C118.355 87.2441 117.721 87.1424 117.151 86.939C116.589 86.7355 116.113 86.4588 115.723 86.1089C115.324 85.7671 115.015 85.3602 114.795 84.8882C114.583 84.408 114.478 83.8913 114.478 83.3379C114.478 82.6136 114.62 81.9788 114.905 81.4336C115.198 80.8883 115.609 80.4326 116.138 80.0664C116.667 79.7083 117.301 79.4398 118.042 79.2607C118.791 79.0817 119.625 78.9922 120.544 78.9922H123.01V77.9546C123.01 77.5558 122.937 77.1978 122.791 76.8804C122.644 76.563 122.437 76.2904 122.168 76.0625C121.899 75.8428 121.57 75.6719 121.179 75.5498C120.797 75.4277 120.365 75.3667 119.885 75.3667C119.438 75.3667 119.035 75.4237 118.677 75.5376C118.327 75.6515 118.03 75.8021 117.786 75.9893C117.542 76.1764 117.35 76.4002 117.212 76.6606C117.082 76.9129 117.017 77.1774 117.017 77.4541H114.746C114.754 76.974 114.876 76.502 115.112 76.0381C115.356 75.5742 115.706 75.1551 116.162 74.7808C116.61 74.4146 117.155 74.1175 117.798 73.8896C118.449 73.6618 119.185 73.5479 120.007 73.5479C120.756 73.5479 121.452 73.6414 122.095 73.8286C122.738 74.0076 123.295 74.2803 123.767 74.6465C124.231 75.0208 124.597 75.4847 124.866 76.0381C125.134 76.5915 125.269 77.2384 125.269 77.979V84.1191C125.269 84.5586 125.309 85.0265 125.391 85.5229C125.472 86.0112 125.586 86.4385 125.732 86.8047V87H123.376ZM119.385 85.2788C119.824 85.2788 120.235 85.2218 120.618 85.1079C121 84.994 121.35 84.8434 121.667 84.6562C121.977 84.4691 122.245 84.2575 122.473 84.0215C122.701 83.7773 122.88 83.5251 123.01 83.2646V80.5913H120.911C120.129 80.5913 119.446 80.6605 118.86 80.7988C118.282 80.929 117.822 81.1325 117.48 81.4092C117.236 81.6045 117.049 81.8364 116.919 82.105C116.797 82.3735 116.736 82.6787 116.736 83.0205C116.736 83.346 116.789 83.6471 116.895 83.9238C117.008 84.2005 117.175 84.4365 117.395 84.6318C117.615 84.8353 117.891 84.994 118.225 85.1079C118.559 85.2218 118.945 85.2788 119.385 85.2788ZM137.989 83.4966C137.989 83.228 137.936 82.988 137.83 82.7764C137.724 82.5566 137.545 82.3573 137.293 82.1782C137.041 81.9992 136.707 81.8364 136.292 81.6899C135.877 81.5353 135.36 81.397 134.742 81.2749C133.985 81.1203 133.293 80.9331 132.667 80.7134C132.048 80.4937 131.519 80.2292 131.08 79.9199C130.632 79.6188 130.286 79.2648 130.042 78.8579C129.798 78.4429 129.676 77.9627 129.676 77.4175C129.676 76.8804 129.802 76.3799 130.054 75.916C130.306 75.444 130.66 75.033 131.116 74.6831C131.572 74.3332 132.113 74.0565 132.74 73.853C133.375 73.6496 134.07 73.5479 134.827 73.5479C135.641 73.5479 136.373 73.6536 137.024 73.8652C137.675 74.0768 138.229 74.3698 138.685 74.7441C139.14 75.1185 139.49 75.5579 139.734 76.0625C139.987 76.5589 140.113 77.096 140.113 77.6738H137.854C137.854 77.389 137.781 77.1123 137.635 76.8438C137.488 76.5671 137.285 76.3229 137.024 76.1113C136.764 75.8997 136.447 75.7288 136.072 75.5986C135.706 75.4684 135.291 75.4033 134.827 75.4033C134.347 75.4033 133.924 75.4562 133.558 75.562C133.2 75.6678 132.903 75.8102 132.667 75.9893C132.422 76.1683 132.239 76.3758 132.117 76.6118C131.995 76.8478 131.934 77.092 131.934 77.3442C131.934 77.6047 131.983 77.8366 132.081 78.04C132.178 78.2435 132.349 78.4266 132.593 78.5894C132.829 78.7521 133.147 78.8986 133.545 79.0288C133.952 79.159 134.465 79.2852 135.083 79.4072C135.897 79.5781 136.626 79.7775 137.269 80.0054C137.911 80.2251 138.453 80.4896 138.892 80.7988C139.332 81.1162 139.665 81.4824 139.893 81.8975C140.129 82.3125 140.247 82.7926 140.247 83.3379C140.247 83.9238 140.113 84.4569 139.844 84.937C139.584 85.4172 139.218 85.8281 138.746 86.1699C138.274 86.5117 137.708 86.7762 137.049 86.9634C136.39 87.1506 135.669 87.2441 134.888 87.2441C133.993 87.2441 133.195 87.1261 132.496 86.8901C131.796 86.646 131.206 86.3245 130.726 85.9258C130.237 85.5352 129.863 85.0794 129.603 84.5586C129.35 84.0378 129.224 83.4966 129.224 82.9351H131.482C131.515 83.3989 131.637 83.7896 131.849 84.1069C132.068 84.4243 132.341 84.6807 132.667 84.876C132.984 85.0713 133.338 85.2096 133.729 85.291C134.119 85.3724 134.506 85.4131 134.888 85.4131C135.49 85.4131 136.015 85.3439 136.463 85.2056C136.91 85.0591 137.26 84.8597 137.513 84.6074C137.667 84.4528 137.785 84.2819 137.867 84.0947C137.948 83.9076 137.989 83.7082 137.989 83.4966ZM152.503 83.4966C152.503 83.228 152.451 82.988 152.345 82.7764C152.239 82.5566 152.06 82.3573 151.808 82.1782C151.555 81.9992 151.222 81.8364 150.807 81.6899C150.392 81.5353 149.875 81.397 149.256 81.2749C148.5 81.1203 147.808 80.9331 147.181 80.7134C146.563 80.4937 146.034 80.2292 145.594 79.9199C145.147 79.6188 144.801 79.2648 144.557 78.8579C144.312 78.4429 144.19 77.9627 144.19 77.4175C144.19 76.8804 144.317 76.3799 144.569 75.916C144.821 75.444 145.175 75.033 145.631 74.6831C146.087 74.3332 146.628 74.0565 147.254 73.853C147.889 73.6496 148.585 73.5479 149.342 73.5479C150.156 73.5479 150.888 73.6536 151.539 73.8652C152.19 74.0768 152.743 74.3698 153.199 74.7441C153.655 75.1185 154.005 75.5579 154.249 76.0625C154.501 76.5589 154.627 77.096 154.627 77.6738H152.369C152.369 77.389 152.296 77.1123 152.149 76.8438C152.003 76.5671 151.799 76.3229 151.539 76.1113C151.279 75.8997 150.961 75.7288 150.587 75.5986C150.221 75.4684 149.806 75.4033 149.342 75.4033C148.862 75.4033 148.438 75.4562 148.072 75.562C147.714 75.6678 147.417 75.8102 147.181 75.9893C146.937 76.1683 146.754 76.3758 146.632 76.6118C146.51 76.8478 146.449 77.092 146.449 77.3442C146.449 77.6047 146.498 77.8366 146.595 78.04C146.693 78.2435 146.864 78.4266 147.108 78.5894C147.344 78.7521 147.661 78.8986 148.06 79.0288C148.467 79.159 148.98 79.2852 149.598 79.4072C150.412 79.5781 151.14 79.7775 151.783 80.0054C152.426 80.2251 152.967 80.4896 153.407 80.7988C153.846 81.1162 154.18 81.4824 154.408 81.8975C154.644 82.3125 154.762 82.7926 154.762 83.3379C154.762 83.9238 154.627 84.4569 154.359 84.937C154.098 85.4172 153.732 85.8281 153.26 86.1699C152.788 86.5117 152.223 86.7762 151.563 86.9634C150.904 87.1506 150.184 87.2441 149.403 87.2441C148.508 87.2441 147.71 87.1261 147.01 86.8901C146.31 86.646 145.72 86.3245 145.24 85.9258C144.752 85.5352 144.378 85.0794 144.117 84.5586C143.865 84.0378 143.739 83.4966 143.739 82.9351H145.997C146.03 83.3989 146.152 83.7896 146.363 84.1069C146.583 84.4243 146.856 84.6807 147.181 84.876C147.499 85.0713 147.853 85.2096 148.243 85.291C148.634 85.3724 149.02 85.4131 149.403 85.4131C150.005 85.4131 150.53 85.3439 150.978 85.2056C151.425 85.0591 151.775 84.8597 152.027 84.6074C152.182 84.4528 152.3 84.2819 152.381 84.0947C152.463 83.9076 152.503 83.7082 152.503 83.4966ZM169.13 77.4785H158.229V75.5132H169.13V77.4785ZM169.13 82.5444H158.229V80.5913H169.13V82.5444ZM176.796 69.5806L176.54 74.0972H174.953L174.965 69.7759V68.25H176.796V69.5806ZM181.154 69.5806L180.898 74.0972H179.323L179.335 69.7759V68.25H181.167L181.154 69.5806ZM192.617 70.5938V73.792H197.646V75.5376H192.617V82.7153C192.617 83.228 192.682 83.6512 192.812 83.9849C192.943 84.3185 193.122 84.583 193.35 84.7783C193.577 84.9818 193.838 85.1242 194.131 85.2056C194.432 85.2869 194.749 85.3276 195.083 85.3276C195.327 85.3276 195.579 85.3154 195.84 85.291C196.1 85.2585 196.357 85.2218 196.609 85.1812C196.853 85.1405 197.081 85.0998 197.292 85.0591C197.512 85.0103 197.691 84.9696 197.83 84.937L198.147 86.5361C197.96 86.6501 197.732 86.7518 197.463 86.8413C197.195 86.9227 196.902 86.9919 196.584 87.0488C196.267 87.1139 195.929 87.1628 195.571 87.1953C195.221 87.2279 194.871 87.2441 194.521 87.2441C193.936 87.2441 193.386 87.1628 192.874 87C192.369 86.8291 191.93 86.5605 191.555 86.1943C191.181 85.8363 190.884 85.3724 190.664 84.8027C190.452 84.2249 190.347 83.5291 190.347 82.7153V75.5376H186.88V73.792H190.347V70.5938H192.617ZM207.62 87.2441C206.692 87.2441 205.838 87.0854 205.057 86.7681C204.284 86.4507 203.62 86.0072 203.067 85.4375C202.514 84.8678 202.082 84.1924 201.773 83.4111C201.464 82.6299 201.309 81.7795 201.309 80.8599V80.3472C201.309 79.2811 201.48 78.3289 201.822 77.4907C202.164 76.6444 202.619 75.9282 203.189 75.3423C203.75 74.7645 204.389 74.321 205.105 74.0117C205.83 73.7025 206.57 73.5479 207.327 73.5479C208.279 73.5479 209.109 73.7147 209.817 74.0483C210.534 74.3739 211.128 74.8255 211.6 75.4033C212.072 75.9893 212.422 76.6769 212.649 77.4663C212.885 78.2557 213.003 79.1102 213.003 80.0298V81.043H203.567V81.1284C203.624 81.7713 203.75 82.3369 203.946 82.8252C204.149 83.3135 204.426 83.7448 204.776 84.1191C205.134 84.5179 205.565 84.8312 206.07 85.0591C206.574 85.2869 207.132 85.4009 207.742 85.4009C208.548 85.4009 209.264 85.2381 209.891 84.9126C210.517 84.5871 211.038 84.1558 211.453 83.6187L212.833 84.6929C212.393 85.3602 211.734 85.9543 210.855 86.4751C209.984 86.9878 208.906 87.2441 207.62 87.2441ZM207.327 75.4033C206.871 75.4033 206.44 75.4888 206.033 75.6597C205.626 75.8224 205.26 76.0625 204.935 76.3799C204.609 76.7054 204.332 77.1042 204.104 77.5762C203.885 78.04 203.73 78.5771 203.641 79.1875H210.745V79.0776C210.745 78.6707 210.668 78.2354 210.513 77.7715C210.359 77.2995 210.143 76.8926 209.866 76.5508C209.59 76.209 209.24 75.9323 208.816 75.7207C208.401 75.5091 207.905 75.4033 207.327 75.4033ZM221.756 78.687L225.284 73.792H227.933L223.014 80.3228L228.067 87H225.455L221.805 81.9707L218.155 87H215.519L220.572 80.3228L215.653 73.792H218.265L221.756 78.687ZM236.161 70.5938V73.792H241.19V75.5376H236.161V82.7153C236.161 83.228 236.226 83.6512 236.356 83.9849C236.487 84.3185 236.666 84.583 236.894 84.7783C237.121 84.9818 237.382 85.1242 237.675 85.2056C237.976 85.2869 238.293 85.3276 238.627 85.3276C238.871 85.3276 239.123 85.3154 239.384 85.291C239.644 85.2585 239.901 85.2218 240.153 85.1812C240.397 85.1405 240.625 85.0998 240.836 85.0591C241.056 85.0103 241.235 84.9696 241.374 84.937L241.691 86.5361C241.504 86.6501 241.276 86.7518 241.007 86.8413C240.739 86.9227 240.446 86.9919 240.128 87.0488C239.811 87.1139 239.473 87.1628 239.115 87.1953C238.765 87.2279 238.415 87.2441 238.065 87.2441C237.479 87.2441 236.93 87.1628 236.417 87C235.913 86.8291 235.473 86.5605 235.099 86.1943C234.725 85.8363 234.428 85.3724 234.208 84.8027C233.996 84.2249 233.891 83.5291 233.891 82.7153V75.5376H230.424V73.792H233.891V70.5938H236.161ZM249.37 69.5806L249.113 74.0972H247.526L247.539 69.7759V68.25H249.37V69.5806ZM253.728 69.5806L253.471 74.0972H251.896L251.909 69.7759V68.25H253.74L253.728 69.5806ZM259.893 84.5952V82.2515L267.791 79.2729L268.523 79.0654L267.791 78.8335L259.893 75.9038V73.5723L270.671 78.1865V79.9688L259.893 84.5952ZM275.884 81.3237C275.892 81.9422 275.974 82.5037 276.128 83.0083C276.291 83.5047 276.523 83.9279 276.824 84.2778C277.125 84.6359 277.496 84.9126 277.935 85.1079C278.383 85.3032 278.895 85.4009 279.473 85.4009C280.108 85.4009 280.674 85.2707 281.17 85.0103C281.666 84.7498 282.085 84.3877 282.427 83.9238C282.769 83.46 283.029 82.9066 283.208 82.2637C283.396 81.6208 283.489 80.9168 283.489 80.1519V79.0532H277.581V77.21H283.489V76.0747C283.489 75.3097 283.4 74.6058 283.221 73.9629C283.042 73.3118 282.781 72.7544 282.439 72.2905C282.098 71.8267 281.679 71.4645 281.182 71.2041C280.686 70.9437 280.116 70.8135 279.473 70.8135C278.895 70.8135 278.383 70.9111 277.935 71.1064C277.496 71.3018 277.125 71.5744 276.824 71.9243C276.523 72.2824 276.291 72.7178 276.128 73.2305C275.974 73.735 275.892 74.2965 275.884 74.915H273.626C273.634 74.0931 273.772 73.32 274.041 72.5957C274.318 71.8714 274.712 71.2407 275.225 70.7036C275.73 70.1665 276.34 69.7433 277.056 69.4341C277.772 69.1248 278.578 68.9702 279.473 68.9702C280.425 68.9702 281.288 69.1411 282.061 69.4829C282.834 69.8247 283.493 70.3049 284.039 70.9233C284.584 71.55 285.003 72.3027 285.296 73.1816C285.597 74.0524 285.748 75.0208 285.748 76.0869V80.1396C285.748 81.2057 285.597 82.1742 285.296 83.0449C285.003 83.9157 284.584 84.6603 284.039 85.2788C283.493 85.9054 282.834 86.3896 282.061 86.7314C281.288 87.0732 280.425 87.2441 279.473 87.2441C278.578 87.2441 277.772 87.1058 277.056 86.8291C276.34 86.5443 275.73 86.1414 275.225 85.6206C274.712 85.1079 274.318 84.4894 274.041 83.7651C273.772 83.0327 273.634 82.2189 273.626 81.3237H275.884ZM300.75 75.623H295.477V87H293.207V75.623H288.019V73.792H300.75V75.623ZM302.753 80.2739C302.753 79.3218 302.891 78.4388 303.168 77.625C303.445 76.8031 303.843 76.091 304.364 75.4888C304.877 74.8866 305.504 74.4146 306.244 74.0728C306.985 73.7228 307.819 73.5479 308.747 73.5479C309.682 73.5479 310.521 73.7228 311.261 74.0728C312.01 74.4146 312.645 74.8866 313.166 75.4888C313.678 76.091 314.073 76.8031 314.35 77.625C314.626 78.4388 314.765 79.3218 314.765 80.2739V80.5425C314.765 81.4946 314.626 82.3776 314.35 83.1914C314.073 84.0052 313.678 84.7132 313.166 85.3154C312.645 85.9176 312.014 86.3896 311.273 86.7314C310.533 87.0732 309.699 87.2441 308.771 87.2441C307.835 87.2441 306.993 87.0732 306.244 86.7314C305.504 86.3896 304.877 85.9176 304.364 85.3154C303.843 84.7132 303.445 84.0052 303.168 83.1914C302.891 82.3776 302.753 81.4946 302.753 80.5425V80.2739ZM305.011 80.5425C305.011 81.1935 305.089 81.8161 305.243 82.4102C305.398 82.9961 305.634 83.5129 305.951 83.9604C306.26 84.408 306.651 84.762 307.123 85.0225C307.595 85.2829 308.144 85.4131 308.771 85.4131C309.389 85.4131 309.931 85.2829 310.395 85.0225C310.867 84.762 311.261 84.408 311.579 83.9604C311.888 83.5129 312.12 82.9961 312.274 82.4102C312.429 81.8161 312.506 81.1935 312.506 80.5425V80.2739C312.506 79.631 312.425 79.0166 312.262 78.4307C312.108 77.8366 311.876 77.3158 311.566 76.8682C311.249 76.4206 310.854 76.0666 310.382 75.8062C309.918 75.5376 309.373 75.4033 308.747 75.4033C308.12 75.4033 307.575 75.5376 307.111 75.8062C306.647 76.0666 306.26 76.4206 305.951 76.8682C305.634 77.3158 305.398 77.8366 305.243 78.4307C305.089 79.0166 305.011 79.631 305.011 80.2739V80.5425ZM341.096 87C341.007 86.8291 340.933 86.6175 340.876 86.3652C340.828 86.1048 340.791 85.8363 340.767 85.5596C340.539 85.7874 340.282 86.0031 339.998 86.2065C339.721 86.41 339.416 86.589 339.082 86.7437C338.74 86.8983 338.378 87.0203 337.996 87.1099C337.613 87.1994 337.206 87.2441 336.775 87.2441C336.075 87.2441 335.44 87.1424 334.871 86.939C334.309 86.7355 333.833 86.4588 333.442 86.1089C333.044 85.7671 332.734 85.3602 332.515 84.8882C332.303 84.408 332.197 83.8913 332.197 83.3379C332.197 82.6136 332.34 81.9788 332.625 81.4336C332.917 80.8883 333.328 80.4326 333.857 80.0664C334.386 79.7083 335.021 79.4398 335.762 79.2607C336.51 79.0817 337.345 78.9922 338.264 78.9922H340.73V77.9546C340.73 77.5558 340.657 77.1978 340.51 76.8804C340.364 76.563 340.156 76.2904 339.888 76.0625C339.619 75.8428 339.29 75.6719 338.899 75.5498C338.516 75.4277 338.085 75.3667 337.605 75.3667C337.157 75.3667 336.755 75.4237 336.396 75.5376C336.047 75.6515 335.75 75.8021 335.505 75.9893C335.261 76.1764 335.07 76.4002 334.932 76.6606C334.801 76.9129 334.736 77.1774 334.736 77.4541H332.466C332.474 76.974 332.596 76.502 332.832 76.0381C333.076 75.5742 333.426 75.1551 333.882 74.7808C334.329 74.4146 334.875 74.1175 335.518 73.8896C336.169 73.6618 336.905 73.5479 337.727 73.5479C338.476 73.5479 339.172 73.6414 339.814 73.8286C340.457 74.0076 341.015 74.2803 341.487 74.6465C341.951 75.0208 342.317 75.4847 342.585 76.0381C342.854 76.5915 342.988 77.2384 342.988 77.979V84.1191C342.988 84.5586 343.029 85.0265 343.11 85.5229C343.192 86.0112 343.306 86.4385 343.452 86.8047V87H341.096ZM337.104 85.2788C337.544 85.2788 337.955 85.2218 338.337 85.1079C338.72 84.994 339.07 84.8434 339.387 84.6562C339.696 84.4691 339.965 84.2575 340.193 84.0215C340.421 83.7773 340.6 83.5251 340.73 83.2646V80.5913H338.63C337.849 80.5913 337.166 80.6605 336.58 80.7988C336.002 80.929 335.542 81.1325 335.2 81.4092C334.956 81.6045 334.769 81.8364 334.639 82.105C334.517 82.3735 334.456 82.6787 334.456 83.0205C334.456 83.346 334.508 83.6471 334.614 83.9238C334.728 84.2005 334.895 84.4365 335.115 84.6318C335.334 84.8353 335.611 84.994 335.945 85.1079C336.278 85.2218 336.665 85.2788 337.104 85.2788ZM352.693 74.5488C353.556 74.5488 354.325 74.7035 355 75.0127C355.676 75.3138 356.25 75.7288 356.722 76.2578C357.194 76.7949 357.552 77.4297 357.796 78.1621C358.048 78.8864 358.174 79.6758 358.174 80.5303V80.811C358.174 81.7306 358.04 82.5811 357.771 83.3623C357.511 84.1436 357.129 84.8231 356.624 85.4009C356.119 85.9787 355.501 86.4303 354.769 86.7559C354.044 87.0814 353.218 87.2441 352.291 87.2441C351.363 87.2441 350.533 87.0814 349.8 86.7559C349.068 86.4303 348.449 85.9787 347.945 85.4009C347.44 84.8231 347.054 84.1436 346.785 83.3623C346.517 82.5811 346.382 81.7306 346.382 80.811V79.6025C346.382 78.8376 346.419 78.1214 346.492 77.4541C346.574 76.7786 346.688 76.1561 346.834 75.5864C346.972 75.0575 347.139 74.5651 347.334 74.1094C347.53 73.6536 347.754 73.2345 348.006 72.8521C348.519 72.0708 349.141 71.4482 349.874 70.9844C350.614 70.5124 351.436 70.1909 352.339 70.02C352.771 69.9386 353.169 69.8532 353.536 69.7637C353.91 69.666 354.236 69.5439 354.512 69.3975C354.781 69.2591 354.992 69.0841 355.147 68.8726C355.302 68.6528 355.379 68.3761 355.379 68.0425H357.234C357.234 68.7993 357.116 69.4097 356.88 69.8735C356.653 70.3374 356.331 70.7077 355.916 70.9844C355.55 71.2285 355.143 71.4116 354.695 71.5337C354.256 71.6558 353.633 71.8022 352.828 71.9731C352.258 72.0952 351.725 72.2661 351.229 72.4858C350.732 72.6974 350.289 72.9863 349.898 73.3525C349.507 73.7188 349.178 74.1704 348.909 74.7075C348.641 75.2365 348.445 75.8753 348.323 76.624C348.584 76.3229 348.873 76.0462 349.19 75.7939C349.507 75.5335 349.849 75.3097 350.215 75.1226C350.582 74.9435 350.972 74.8052 351.387 74.7075C351.802 74.6017 352.238 74.5488 352.693 74.5488ZM352.266 76.4043C351.648 76.4043 351.111 76.5182 350.655 76.7461C350.199 76.9658 349.825 77.2629 349.532 77.6372C349.231 78.0197 349.007 78.4591 348.86 78.9556C348.714 79.452 348.641 79.9769 348.641 80.5303V80.811C348.641 81.4295 348.714 82.0195 348.86 82.5811C349.007 83.1344 349.231 83.6187 349.532 84.0337C349.825 84.4569 350.199 84.7946 350.655 85.0469C351.119 85.291 351.664 85.4131 352.291 85.4131C352.909 85.4131 353.442 85.291 353.89 85.0469C354.345 84.7946 354.724 84.4569 355.025 84.0337C355.326 83.6187 355.55 83.1344 355.696 82.5811C355.843 82.0195 355.916 81.4295 355.916 80.811V80.5303C355.916 79.9769 355.843 79.452 355.696 78.9556C355.55 78.4591 355.326 78.0197 355.025 77.6372C354.724 77.2629 354.341 76.9658 353.877 76.7461C353.422 76.5182 352.885 76.4043 352.266 76.4043ZM360.97 83.0938H363.229C363.229 83.4111 363.322 83.7122 363.509 83.9971C363.696 84.2738 363.957 84.5179 364.291 84.7295C364.624 84.9492 365.019 85.1242 365.475 85.2544C365.93 85.3765 366.423 85.4375 366.952 85.4375C367.472 85.4375 367.949 85.3846 368.38 85.2788C368.811 85.1649 369.181 85.0103 369.491 84.8149C369.792 84.6196 370.024 84.3918 370.187 84.1313C370.357 83.8709 370.443 83.5902 370.443 83.2891C370.443 82.9147 370.366 82.5973 370.211 82.3369C370.056 82.0684 369.833 81.8486 369.54 81.6777C369.393 81.5964 369.23 81.5272 369.051 81.4702C368.872 81.4132 368.681 81.3644 368.478 81.3237C368.274 81.283 368.054 81.2546 367.818 81.2383C367.582 81.222 367.338 81.2139 367.086 81.2139H364.144V79.3096H367.086C367.346 79.3096 367.59 79.3014 367.818 79.2852C368.046 79.2607 368.254 79.2282 368.441 79.1875C368.677 79.1387 368.889 79.0736 369.076 78.9922C369.271 78.9108 369.442 78.8172 369.588 78.7114C369.792 78.5568 369.946 78.3696 370.052 78.1499C370.158 77.9302 370.211 77.682 370.211 77.4053C370.211 77.1286 370.138 76.8682 369.991 76.624C369.853 76.3799 369.649 76.1642 369.381 75.9771C369.104 75.798 368.762 75.6556 368.355 75.5498C367.949 75.444 367.481 75.3911 366.952 75.3911C366.48 75.3911 366.032 75.444 365.609 75.5498C365.186 75.6556 364.815 75.798 364.498 75.9771C364.173 76.1642 363.912 76.388 363.717 76.6484C363.53 76.9007 363.436 77.1774 363.436 77.4785H361.178C361.186 76.8682 361.345 76.3229 361.654 75.8428C361.971 75.3545 362.394 74.9395 362.923 74.5977C363.444 74.264 364.05 74.0076 364.742 73.8286C365.442 73.6496 366.179 73.5601 366.952 73.5601C367.765 73.5601 368.51 73.6414 369.186 73.8042C369.861 73.967 370.443 74.207 370.931 74.5244C371.419 74.8499 371.798 75.2528 372.066 75.7329C372.335 76.2049 372.469 76.7583 372.469 77.3931C372.469 77.7837 372.38 78.1499 372.201 78.4917C372.022 78.8335 371.769 79.1427 371.444 79.4194C371.265 79.5741 371.057 79.7205 370.821 79.8589C370.585 79.9891 370.333 80.1071 370.064 80.2129C370.447 80.3268 370.789 80.4692 371.09 80.6401C371.399 80.8029 371.668 80.9941 371.896 81.2139C372.164 81.4824 372.368 81.7917 372.506 82.1416C372.652 82.4834 372.726 82.8659 372.726 83.2891C372.726 83.9238 372.575 84.4854 372.274 84.9736C371.981 85.4619 371.574 85.8729 371.053 86.2065C370.532 86.5483 369.922 86.8047 369.222 86.9756C368.522 87.1465 367.765 87.2319 366.952 87.2319C366.154 87.2319 365.373 87.1383 364.608 86.9512C363.843 86.764 363.176 86.471 362.606 86.0723C362.126 85.7467 361.731 85.3358 361.422 84.8394C361.121 84.3348 360.97 83.7529 360.97 83.0938ZM384.64 87C384.551 86.8291 384.477 86.6175 384.42 86.3652C384.372 86.1048 384.335 85.8363 384.311 85.5596C384.083 85.7874 383.826 86.0031 383.542 86.2065C383.265 86.41 382.96 86.589 382.626 86.7437C382.284 86.8983 381.922 87.0203 381.54 87.1099C381.157 87.1994 380.75 87.2441 380.319 87.2441C379.619 87.2441 378.984 87.1424 378.415 86.939C377.853 86.7355 377.377 86.4588 376.986 86.1089C376.588 85.7671 376.278 85.3602 376.059 84.8882C375.847 84.408 375.741 83.8913 375.741 83.3379C375.741 82.6136 375.884 81.9788 376.168 81.4336C376.461 80.8883 376.872 80.4326 377.401 80.0664C377.93 79.7083 378.565 79.4398 379.306 79.2607C380.054 79.0817 380.889 78.9922 381.808 78.9922H384.274V77.9546C384.274 77.5558 384.201 77.1978 384.054 76.8804C383.908 76.563 383.7 76.2904 383.432 76.0625C383.163 75.8428 382.833 75.6719 382.443 75.5498C382.06 75.4277 381.629 75.3667 381.149 75.3667C380.701 75.3667 380.299 75.4237 379.94 75.5376C379.59 75.6515 379.293 75.8021 379.049 75.9893C378.805 76.1764 378.614 76.4002 378.476 76.6606C378.345 76.9129 378.28 77.1774 378.28 77.4541H376.01C376.018 76.974 376.14 76.502 376.376 76.0381C376.62 75.5742 376.97 75.1551 377.426 74.7808C377.873 74.4146 378.419 74.1175 379.062 73.8896C379.713 73.6618 380.449 73.5479 381.271 73.5479C382.02 73.5479 382.715 73.6414 383.358 73.8286C384.001 74.0076 384.559 74.2803 385.031 74.6465C385.495 75.0208 385.861 75.4847 386.129 76.0381C386.398 76.5915 386.532 77.2384 386.532 77.979V84.1191C386.532 84.5586 386.573 85.0265 386.654 85.5229C386.736 86.0112 386.85 86.4385 386.996 86.8047V87H384.64ZM380.648 85.2788C381.088 85.2788 381.499 85.2218 381.881 85.1079C382.264 84.994 382.614 84.8434 382.931 84.6562C383.24 84.4691 383.509 84.2575 383.737 84.0215C383.965 83.7773 384.144 83.5251 384.274 83.2646V80.5913H382.174C381.393 80.5913 380.709 80.6605 380.124 80.7988C379.546 80.929 379.086 81.1325 378.744 81.4092C378.5 81.6045 378.313 81.8364 378.183 82.105C378.061 82.3735 378 82.6787 378 83.0205C378 83.346 378.052 83.6471 378.158 83.9238C378.272 84.2005 378.439 84.4365 378.659 84.6318C378.878 84.8353 379.155 84.994 379.489 85.1079C379.822 85.2218 380.209 85.2788 380.648 85.2788ZM390.427 73.792H392.685V85.1567H398.764V73.792H401.035V85.1567H402.609L402.39 90.9185H400.363V87H390.427V73.792ZM431.382 75.623H426.109V87H423.838V75.623H418.65V73.792H431.382V75.623ZM439.854 87.2441C438.927 87.2441 438.072 87.0854 437.291 86.7681C436.518 86.4507 435.855 86.0072 435.301 85.4375C434.748 84.8678 434.317 84.1924 434.007 83.4111C433.698 82.6299 433.543 81.7795 433.543 80.8599V80.3472C433.543 79.2811 433.714 78.3289 434.056 77.4907C434.398 76.6444 434.854 75.9282 435.423 75.3423C435.985 74.7645 436.624 74.321 437.34 74.0117C438.064 73.7025 438.805 73.5479 439.562 73.5479C440.514 73.5479 441.344 73.7147 442.052 74.0483C442.768 74.3739 443.362 74.8255 443.834 75.4033C444.306 75.9893 444.656 76.6769 444.884 77.4663C445.12 78.2557 445.238 79.1102 445.238 80.0298V81.043H435.802V81.1284C435.859 81.7713 435.985 82.3369 436.18 82.8252C436.384 83.3135 436.66 83.7448 437.01 84.1191C437.368 84.5179 437.8 84.8312 438.304 85.0591C438.809 85.2869 439.366 85.4009 439.977 85.4009C440.782 85.4009 441.498 85.2381 442.125 84.9126C442.752 84.5871 443.272 84.1558 443.688 83.6187L445.067 84.6929C444.627 85.3602 443.968 85.9543 443.089 86.4751C442.219 86.9878 441.14 87.2441 439.854 87.2441ZM439.562 75.4033C439.106 75.4033 438.674 75.4888 438.268 75.6597C437.861 75.8224 437.494 76.0625 437.169 76.3799C436.843 76.7054 436.567 77.1042 436.339 77.5762C436.119 78.04 435.965 78.5771 435.875 79.1875H442.979V79.0776C442.979 78.6707 442.902 78.2354 442.748 77.7715C442.593 77.2995 442.377 76.8926 442.101 76.5508C441.824 76.209 441.474 75.9323 441.051 75.7207C440.636 75.5091 440.139 75.4033 439.562 75.4033ZM452.819 81.3726H450.67V87H448.412V73.792H450.67V79.3828H452.624L457.543 73.792H460.29L454.625 80.1519L460.729 87H457.86L452.819 81.3726ZM468.676 85.4131C469.083 85.4131 469.478 85.348 469.86 85.2178C470.251 85.0876 470.597 84.9045 470.898 84.6685C471.199 84.4406 471.439 84.172 471.618 83.8628C471.805 83.5454 471.903 83.2036 471.911 82.8374H474.047C474.039 83.4233 473.885 83.9849 473.583 84.522C473.291 85.0509 472.896 85.5148 472.399 85.9136C471.903 86.3205 471.333 86.646 470.69 86.8901C470.048 87.1261 469.376 87.2441 468.676 87.2441C467.675 87.2441 466.8 87.0651 466.052 86.707C465.303 86.349 464.681 85.8647 464.184 85.2544C463.68 84.6522 463.301 83.9564 463.049 83.167C462.797 82.3695 462.67 81.5312 462.67 80.6523V80.1396C462.67 79.2689 462.797 78.4347 463.049 77.6372C463.301 76.8397 463.68 76.1357 464.184 75.5254C464.681 74.9232 465.303 74.443 466.052 74.085C466.8 73.7269 467.675 73.5479 468.676 73.5479C469.458 73.5479 470.174 73.674 470.825 73.9263C471.484 74.1704 472.054 74.5041 472.534 74.9272C473.006 75.3586 473.376 75.8672 473.645 76.4531C473.913 77.0391 474.047 77.6657 474.047 78.333H471.911C471.903 77.9342 471.813 77.5599 471.643 77.21C471.48 76.8519 471.256 76.5386 470.971 76.27C470.686 76.0015 470.345 75.7899 469.946 75.6353C469.555 75.4806 469.132 75.4033 468.676 75.4033C467.976 75.4033 467.386 75.5457 466.906 75.8306C466.434 76.1073 466.052 76.4694 465.759 76.917C465.466 77.3727 465.254 77.8813 465.124 78.4429C465.002 79.0044 464.941 79.57 464.941 80.1396V80.6523C464.941 81.2301 465.002 81.8039 465.124 82.3735C465.254 82.9351 465.466 83.4396 465.759 83.8872C466.044 84.3429 466.422 84.7132 466.894 84.998C467.374 85.2747 467.968 85.4131 468.676 85.4131ZM489.441 75.623H484.167V87H481.897V75.623H476.709V73.792H489.441V75.623ZM500.757 87C500.668 86.8291 500.595 86.6175 500.538 86.3652C500.489 86.1048 500.452 85.8363 500.428 85.5596C500.2 85.7874 499.944 86.0031 499.659 86.2065C499.382 86.41 499.077 86.589 498.743 86.7437C498.401 86.8983 498.039 87.0203 497.657 87.1099C497.274 87.1994 496.867 87.2441 496.436 87.2441C495.736 87.2441 495.101 87.1424 494.532 86.939C493.97 86.7355 493.494 86.4588 493.104 86.1089C492.705 85.7671 492.396 85.3602 492.176 84.8882C491.964 84.408 491.858 83.8913 491.858 83.3379C491.858 82.6136 492.001 81.9788 492.286 81.4336C492.579 80.8883 492.99 80.4326 493.519 80.0664C494.048 79.7083 494.682 79.4398 495.423 79.2607C496.172 79.0817 497.006 78.9922 497.925 78.9922H500.391V77.9546C500.391 77.5558 500.318 77.1978 500.171 76.8804C500.025 76.563 499.817 76.2904 499.549 76.0625C499.28 75.8428 498.951 75.6719 498.56 75.5498C498.178 75.4277 497.746 75.3667 497.266 75.3667C496.819 75.3667 496.416 75.4237 496.058 75.5376C495.708 75.6515 495.411 75.8021 495.167 75.9893C494.922 76.1764 494.731 76.4002 494.593 76.6606C494.463 76.9129 494.397 77.1774 494.397 77.4541H492.127C492.135 76.974 492.257 76.502 492.493 76.0381C492.737 75.5742 493.087 75.1551 493.543 74.7808C493.991 74.4146 494.536 74.1175 495.179 73.8896C495.83 73.6618 496.566 73.5479 497.388 73.5479C498.137 73.5479 498.833 73.6414 499.476 73.8286C500.118 74.0076 500.676 74.2803 501.148 74.6465C501.612 75.0208 501.978 75.4847 502.247 76.0381C502.515 76.5915 502.649 77.2384 502.649 77.979V84.1191C502.649 84.5586 502.69 85.0265 502.771 85.5229C502.853 86.0112 502.967 86.4385 503.113 86.8047V87H500.757ZM496.766 85.2788C497.205 85.2788 497.616 85.2218 497.999 85.1079C498.381 84.994 498.731 84.8434 499.048 84.6562C499.358 84.4691 499.626 84.2575 499.854 84.0215C500.082 83.7773 500.261 83.5251 500.391 83.2646V80.5913H498.292C497.51 80.5913 496.827 80.6605 496.241 80.7988C495.663 80.929 495.203 81.1325 494.861 81.4092C494.617 81.6045 494.43 81.8364 494.3 82.105C494.178 82.3735 494.117 82.6787 494.117 83.0205C494.117 83.346 494.17 83.6471 494.275 83.9238C494.389 84.2005 494.556 84.4365 494.776 84.6318C494.996 84.8353 495.272 84.994 495.606 85.1079C495.94 85.2218 496.326 85.2788 496.766 85.2788ZM526.735 85.4131C527.142 85.4131 527.536 85.348 527.919 85.2178C528.31 85.0876 528.655 84.9045 528.957 84.6685C529.258 84.4406 529.498 84.172 529.677 83.8628C529.864 83.5454 529.962 83.2036 529.97 82.8374H532.106C532.098 83.4233 531.943 83.9849 531.642 84.522C531.349 85.0509 530.954 85.5148 530.458 85.9136C529.962 86.3205 529.392 86.646 528.749 86.8901C528.106 87.1261 527.435 87.2441 526.735 87.2441C525.734 87.2441 524.859 87.0651 524.11 86.707C523.362 86.349 522.739 85.8647 522.243 85.2544C521.738 84.6522 521.36 83.9564 521.107 83.167C520.855 82.3695 520.729 81.5312 520.729 80.6523V80.1396C520.729 79.2689 520.855 78.4347 521.107 77.6372C521.36 76.8397 521.738 76.1357 522.243 75.5254C522.739 74.9232 523.362 74.443 524.11 74.085C524.859 73.7269 525.734 73.5479 526.735 73.5479C527.516 73.5479 528.232 73.674 528.883 73.9263C529.542 74.1704 530.112 74.5041 530.592 74.9272C531.064 75.3586 531.435 75.8672 531.703 76.4531C531.972 77.0391 532.106 77.6657 532.106 78.333H529.97C529.962 77.9342 529.872 77.5599 529.701 77.21C529.538 76.8519 529.315 76.5386 529.03 76.27C528.745 76.0015 528.403 75.7899 528.004 75.6353C527.614 75.4806 527.191 75.4033 526.735 75.4033C526.035 75.4033 525.445 75.5457 524.965 75.8306C524.493 76.1073 524.11 76.4694 523.817 76.917C523.524 77.3727 523.313 77.8813 523.183 78.4429C523.061 79.0044 523 79.57 523 80.1396V80.6523C523 81.2301 523.061 81.8039 523.183 82.3735C523.313 82.9351 523.524 83.4396 523.817 83.8872C524.102 84.3429 524.481 84.7132 524.953 84.998C525.433 85.2747 526.027 85.4131 526.735 85.4131ZM554.421 81.3726H552.273V87H550.015V73.792H552.273V79.3828H554.226L559.146 73.792H561.892L556.228 80.1519L562.332 87H559.463L554.421 81.3726ZM575.491 73.792V87H573.221V75.6597H568.362L568.35 79.4438C568.35 79.8914 568.338 80.3268 568.313 80.75C568.297 81.165 568.269 81.5597 568.228 81.9341C568.163 82.5526 568.061 83.1222 567.923 83.6431C567.785 84.1639 567.61 84.6237 567.398 85.0225C567.056 85.6654 566.596 86.1577 566.019 86.4995C565.441 86.8332 564.721 87 563.858 87H563.199L563.235 84.9858L563.736 84.9736C564.2 84.9736 564.582 84.8597 564.883 84.6318C565.193 84.3958 565.437 84.0459 565.616 83.582C565.705 83.3298 565.783 83.0409 565.848 82.7153C565.913 82.3817 565.966 82.0155 566.006 81.6167C566.031 81.2993 566.047 80.9616 566.055 80.6035C566.071 80.2373 566.08 79.8507 566.08 79.4438L566.104 73.792H575.491ZM587.845 87C587.756 86.8291 587.682 86.6175 587.625 86.3652C587.577 86.1048 587.54 85.8363 587.516 85.5596C587.288 85.7874 587.031 86.0031 586.747 86.2065C586.47 86.41 586.165 86.589 585.831 86.7437C585.489 86.8983 585.127 87.0203 584.745 87.1099C584.362 87.1994 583.955 87.2441 583.524 87.2441C582.824 87.2441 582.189 87.1424 581.62 86.939C581.058 86.7355 580.582 86.4588 580.191 86.1089C579.793 85.7671 579.483 85.3602 579.264 84.8882C579.052 84.408 578.946 83.8913 578.946 83.3379C578.946 82.6136 579.089 81.9788 579.374 81.4336C579.667 80.8883 580.077 80.4326 580.606 80.0664C581.135 79.7083 581.77 79.4398 582.511 79.2607C583.259 79.0817 584.094 78.9922 585.013 78.9922H587.479V77.9546C587.479 77.5558 587.406 77.1978 587.259 76.8804C587.113 76.563 586.905 76.2904 586.637 76.0625C586.368 75.8428 586.039 75.6719 585.648 75.5498C585.265 75.4277 584.834 75.3667 584.354 75.3667C583.906 75.3667 583.504 75.4237 583.146 75.5376C582.796 75.6515 582.499 75.8021 582.254 75.9893C582.01 76.1764 581.819 76.4002 581.681 76.6606C581.55 76.9129 581.485 77.1774 581.485 77.4541H579.215C579.223 76.974 579.345 76.502 579.581 76.0381C579.825 75.5742 580.175 75.1551 580.631 74.7808C581.078 74.4146 581.624 74.1175 582.267 73.8896C582.918 73.6618 583.654 73.5479 584.476 73.5479C585.225 73.5479 585.921 73.6414 586.563 73.8286C587.206 74.0076 587.764 74.2803 588.236 74.6465C588.7 75.0208 589.066 75.4847 589.334 76.0381C589.603 76.5915 589.737 77.2384 589.737 77.979V84.1191C589.737 84.5586 589.778 85.0265 589.859 85.5229C589.941 86.0112 590.055 86.4385 590.201 86.8047V87H587.845ZM583.854 85.2788C584.293 85.2788 584.704 85.2218 585.086 85.1079C585.469 84.994 585.819 84.8434 586.136 84.6562C586.445 84.4691 586.714 84.2575 586.942 84.0215C587.17 83.7773 587.349 83.5251 587.479 83.2646V80.5913H585.379C584.598 80.5913 583.915 80.6605 583.329 80.7988C582.751 80.929 582.291 81.1325 581.949 81.4092C581.705 81.6045 581.518 81.8364 581.388 82.105C581.266 82.3735 581.205 82.6787 581.205 83.0205C581.205 83.346 581.257 83.6471 581.363 83.9238C581.477 84.2005 581.644 84.4365 581.864 84.6318C582.083 84.8353 582.36 84.994 582.694 85.1079C583.028 85.2218 583.414 85.2788 583.854 85.2788ZM599.308 85.4131C599.715 85.4131 600.11 85.348 600.492 85.2178C600.883 85.0876 601.229 84.9045 601.53 84.6685C601.831 84.4406 602.071 84.172 602.25 83.8628C602.437 83.5454 602.535 83.2036 602.543 82.8374H604.679C604.671 83.4233 604.516 83.9849 604.215 84.522C603.922 85.0509 603.528 85.5148 603.031 85.9136C602.535 86.3205 601.965 86.646 601.322 86.8901C600.679 87.1261 600.008 87.2441 599.308 87.2441C598.307 87.2441 597.432 87.0651 596.684 86.707C595.935 86.349 595.312 85.8647 594.816 85.2544C594.311 84.6522 593.933 83.9564 593.681 83.167C593.428 82.3695 593.302 81.5312 593.302 80.6523V80.1396C593.302 79.2689 593.428 78.4347 593.681 77.6372C593.933 76.8397 594.311 76.1357 594.816 75.5254C595.312 74.9232 595.935 74.443 596.684 74.085C597.432 73.7269 598.307 73.5479 599.308 73.5479C600.089 73.5479 600.806 73.674 601.457 73.9263C602.116 74.1704 602.685 74.5041 603.166 74.9272C603.638 75.3586 604.008 75.8672 604.276 76.4531C604.545 77.0391 604.679 77.6657 604.679 78.333H602.543C602.535 77.9342 602.445 77.5599 602.274 77.21C602.112 76.8519 601.888 76.5386 601.603 76.27C601.318 76.0015 600.976 75.7899 600.578 75.6353C600.187 75.4806 599.764 75.4033 599.308 75.4033C598.608 75.4033 598.018 75.5457 597.538 75.8306C597.066 76.1073 596.684 76.4694 596.391 76.917C596.098 77.3727 595.886 77.8813 595.756 78.4429C595.634 79.0044 595.573 79.57 595.573 80.1396V80.6523C595.573 81.2301 595.634 81.8039 595.756 82.3735C595.886 82.9351 596.098 83.4396 596.391 83.8872C596.675 84.3429 597.054 84.7132 597.526 84.998C598.006 85.2747 598.6 85.4131 599.308 85.4131ZM613.823 85.4131C614.23 85.4131 614.624 85.348 615.007 85.2178C615.397 85.0876 615.743 84.9045 616.044 84.6685C616.346 84.4406 616.586 84.172 616.765 83.8628C616.952 83.5454 617.049 83.2036 617.058 82.8374H619.194C619.186 83.4233 619.031 83.9849 618.73 84.522C618.437 85.0509 618.042 85.5148 617.546 85.9136C617.049 86.3205 616.48 86.646 615.837 86.8901C615.194 87.1261 614.523 87.2441 613.823 87.2441C612.822 87.2441 611.947 87.0651 611.198 86.707C610.45 86.349 609.827 85.8647 609.331 85.2544C608.826 84.6522 608.448 83.9564 608.195 83.167C607.943 82.3695 607.817 81.5312 607.817 80.6523V80.1396C607.817 79.2689 607.943 78.4347 608.195 77.6372C608.448 76.8397 608.826 76.1357 609.331 75.5254C609.827 74.9232 610.45 74.443 611.198 74.085C611.947 73.7269 612.822 73.5479 613.823 73.5479C614.604 73.5479 615.32 73.674 615.971 73.9263C616.63 74.1704 617.2 74.5041 617.68 74.9272C618.152 75.3586 618.522 75.8672 618.791 76.4531C619.06 77.0391 619.194 77.6657 619.194 78.333H617.058C617.049 77.9342 616.96 77.5599 616.789 77.21C616.626 76.8519 616.403 76.5386 616.118 76.27C615.833 76.0015 615.491 75.7899 615.092 75.6353C614.702 75.4806 614.278 75.4033 613.823 75.4033C613.123 75.4033 612.533 75.5457 612.053 75.8306C611.581 76.1073 611.198 76.4694 610.905 76.917C610.612 77.3727 610.401 77.8813 610.271 78.4429C610.148 79.0044 610.087 79.57 610.087 80.1396V80.6523C610.087 81.2301 610.148 81.8039 610.271 82.3735C610.401 82.9351 610.612 83.4396 610.905 83.8872C611.19 84.3429 611.569 84.7132 612.041 84.998C612.521 85.2747 613.115 85.4131 613.823 85.4131ZM622.075 80.2739C622.075 79.3218 622.214 78.4388 622.49 77.625C622.767 76.8031 623.166 76.091 623.687 75.4888C624.199 74.8866 624.826 74.4146 625.566 74.0728C626.307 73.7228 627.141 73.5479 628.069 73.5479C629.005 73.5479 629.843 73.7228 630.583 74.0728C631.332 74.4146 631.967 74.8866 632.488 75.4888C633 76.091 633.395 76.8031 633.672 77.625C633.949 78.4388 634.087 79.3218 634.087 80.2739V80.5425C634.087 81.4946 633.949 82.3776 633.672 83.1914C633.395 84.0052 633 84.7132 632.488 85.3154C631.967 85.9176 631.336 86.3896 630.596 86.7314C629.855 87.0732 629.021 87.2441 628.093 87.2441C627.157 87.2441 626.315 87.0732 625.566 86.7314C624.826 86.3896 624.199 85.9176 623.687 85.3154C623.166 84.7132 622.767 84.0052 622.49 83.1914C622.214 82.3776 622.075 81.4946 622.075 80.5425V80.2739ZM624.333 80.5425C624.333 81.1935 624.411 81.8161 624.565 82.4102C624.72 82.9961 624.956 83.5129 625.273 83.9604C625.583 84.408 625.973 84.762 626.445 85.0225C626.917 85.2829 627.467 85.4131 628.093 85.4131C628.712 85.4131 629.253 85.2829 629.717 85.0225C630.189 84.762 630.583 84.408 630.901 83.9604C631.21 83.5129 631.442 82.9961 631.597 82.4102C631.751 81.8161 631.829 81.1935 631.829 80.5425V80.2739C631.829 79.631 631.747 79.0166 631.584 78.4307C631.43 77.8366 631.198 77.3158 630.889 76.8682C630.571 76.4206 630.177 76.0666 629.705 75.8062C629.241 75.5376 628.695 75.4033 628.069 75.4033C627.442 75.4033 626.897 75.5376 626.433 75.8062C625.969 76.0666 625.583 76.4206 625.273 76.8682C624.956 77.3158 624.72 77.8366 624.565 78.4307C624.411 79.0166 624.333 79.631 624.333 80.2739V80.5425ZM642.474 84.0093L645.281 73.792H648.101V87H645.843V78.8579L643.255 87H641.692L639.031 78.5649V87H636.773V73.792H639.69L642.474 84.0093ZM671.601 70.5938V73.792H676.63V75.5376H671.601V82.7153C671.601 83.228 671.666 83.6512 671.796 83.9849C671.926 84.3185 672.105 84.583 672.333 84.7783C672.561 84.9818 672.821 85.1242 673.114 85.2056C673.415 85.2869 673.733 85.3276 674.066 85.3276C674.311 85.3276 674.563 85.3154 674.823 85.291C675.084 85.2585 675.34 85.2218 675.592 85.1812C675.836 85.1405 676.064 85.0998 676.276 85.0591C676.496 85.0103 676.675 84.9696 676.813 84.937L677.13 86.5361C676.943 86.6501 676.715 86.7518 676.447 86.8413C676.178 86.9227 675.885 86.9919 675.568 87.0488C675.25 87.1139 674.913 87.1628 674.555 87.1953C674.205 87.2279 673.855 87.2441 673.505 87.2441C672.919 87.2441 672.37 87.1628 671.857 87C671.352 86.8291 670.913 86.5605 670.539 86.1943C670.164 85.8363 669.867 85.3724 669.647 84.8027C669.436 84.2249 669.33 83.5291 669.33 82.7153V75.5376H665.863V73.792H669.33V70.5938H671.601ZM686.604 87.2441C685.676 87.2441 684.821 87.0854 684.04 86.7681C683.267 86.4507 682.604 86.0072 682.05 85.4375C681.497 84.8678 681.066 84.1924 680.756 83.4111C680.447 82.6299 680.292 81.7795 680.292 80.8599V80.3472C680.292 79.2811 680.463 78.3289 680.805 77.4907C681.147 76.6444 681.603 75.9282 682.172 75.3423C682.734 74.7645 683.373 74.321 684.089 74.0117C684.813 73.7025 685.554 73.5479 686.311 73.5479C687.263 73.5479 688.093 73.7147 688.801 74.0483C689.517 74.3739 690.111 74.8255 690.583 75.4033C691.055 75.9893 691.405 76.6769 691.633 77.4663C691.869 78.2557 691.987 79.1102 691.987 80.0298V81.043H682.551V81.1284C682.608 81.7713 682.734 82.3369 682.929 82.8252C683.133 83.3135 683.409 83.7448 683.759 84.1191C684.117 84.5179 684.549 84.8312 685.053 85.0591C685.558 85.2869 686.115 85.4009 686.726 85.4009C687.531 85.4009 688.247 85.2381 688.874 84.9126C689.501 84.5871 690.021 84.1558 690.437 83.6187L691.816 84.6929C691.376 85.3602 690.717 85.9543 689.838 86.4751C688.968 86.9878 687.889 87.2441 686.604 87.2441ZM686.311 75.4033C685.855 75.4033 685.424 75.4888 685.017 75.6597C684.61 75.8224 684.243 76.0625 683.918 76.3799C683.592 76.7054 683.316 77.1042 683.088 77.5762C682.868 78.04 682.714 78.5771 682.624 79.1875H689.729V79.0776C689.729 78.6707 689.651 78.2354 689.497 77.7715C689.342 77.2995 689.126 76.8926 688.85 76.5508C688.573 76.209 688.223 75.9323 687.8 75.7207C687.385 75.5091 686.888 75.4033 686.311 75.4033ZM700.74 78.687L704.268 73.792H706.917L701.997 80.3228L707.051 87H704.438L700.789 81.9707L697.139 87H694.502L699.556 80.3228L694.636 73.792H697.249L700.74 78.687ZM715.145 70.5938V73.792H720.174V75.5376H715.145V82.7153C715.145 83.228 715.21 83.6512 715.34 83.9849C715.47 84.3185 715.649 84.583 715.877 84.7783C716.105 84.9818 716.365 85.1242 716.658 85.2056C716.959 85.2869 717.277 85.3276 717.61 85.3276C717.854 85.3276 718.107 85.3154 718.367 85.291C718.628 85.2585 718.884 85.2218 719.136 85.1812C719.38 85.1405 719.608 85.0998 719.82 85.0591C720.04 85.0103 720.219 84.9696 720.357 84.937L720.674 86.5361C720.487 86.6501 720.259 86.7518 719.991 86.8413C719.722 86.9227 719.429 86.9919 719.112 87.0488C718.794 87.1139 718.457 87.1628 718.099 87.1953C717.749 87.2279 717.399 87.2441 717.049 87.2441C716.463 87.2441 715.914 87.1628 715.401 87C714.896 86.8291 714.457 86.5605 714.083 86.1943C713.708 85.8363 713.411 85.3724 713.191 84.8027C712.98 84.2249 712.874 83.5291 712.874 82.7153V75.5376H709.407V73.792H712.874V70.5938H715.145ZM734.615 84.6074L724.264 79.981V78.1987L734.615 73.5845V75.9771L727.145 78.9067L726.498 79.1143L727.145 79.334L734.615 82.2148V84.6074ZM741.806 88.5259H739.779L747.201 69.2266H749.215L741.806 88.5259ZM767.905 84.5952V82.2515L775.803 79.2729L776.536 79.0654L775.803 78.8335L767.905 75.9038V73.5723L778.684 78.1865V79.9688L767.905 84.5952Z" fill="white"/>
<path d="M58.897 42.7573C59.076 42.4888 59.2754 42.2446 59.4951 42.0249C59.7148 41.797 59.9468 41.5977 60.1909 41.4268C60.5815 41.1419 61.0088 40.9263 61.4727 40.7798C61.9447 40.6333 62.4451 40.556 62.9741 40.5479C63.6659 40.5479 64.2925 40.6496 64.854 40.853C65.4237 41.0483 65.9079 41.3576 66.3066 41.7808C66.7054 42.2039 67.0106 42.741 67.2222 43.3921C67.4419 44.035 67.5518 44.8 67.5518 45.687V54H65.2935V45.6626C65.2935 45.1418 65.2324 44.686 65.1104 44.2954C64.9883 43.8966 64.8092 43.5671 64.5732 43.3066C64.321 43.0218 64.0036 42.8102 63.6211 42.6719C63.2386 42.5254 62.7992 42.4562 62.3027 42.4644C61.8958 42.4644 61.5093 42.5213 61.1431 42.6353C60.7769 42.7492 60.4391 42.9119 60.1299 43.1235C59.8857 43.2863 59.6579 43.4775 59.4463 43.6973C59.2428 43.9089 59.0597 44.1449 58.897 44.4053V54H56.6387V35.25H58.897V42.7573ZM78.4775 54H76.2192V39.1074L71.5684 40.8774V38.8145L78.2944 36.2266H78.4775V54ZM828.173 42.7573C828.352 42.4888 828.552 42.2446 828.771 42.0249C828.991 41.797 829.223 41.5977 829.467 41.4268C829.858 41.1419 830.285 40.9263 830.749 40.7798C831.221 40.6333 831.722 40.556 832.25 40.5479C832.942 40.5479 833.569 40.6496 834.13 40.853C834.7 41.0483 835.184 41.3576 835.583 41.7808C835.982 42.2039 836.287 42.741 836.499 43.3921C836.718 44.035 836.828 44.8 836.828 45.687V54H834.57V45.6626C834.57 45.1418 834.509 44.686 834.387 44.2954C834.265 43.8966 834.086 43.5671 833.85 43.3066C833.597 43.0218 833.28 42.8102 832.897 42.6719C832.515 42.5254 832.076 42.4562 831.579 42.4644C831.172 42.4644 830.786 42.5213 830.419 42.6353C830.053 42.7492 829.715 42.9119 829.406 43.1235C829.162 43.2863 828.934 43.4775 828.723 43.6973C828.519 43.9089 828.336 44.1449 828.173 44.4053V54H825.915V35.25H828.173V42.7573ZM847.754 54H845.496V39.1074L840.845 40.8774V38.8145L847.571 36.2266H847.754V54ZM56.6265 92.0781V73.792H58.6895L58.7993 75.2324C58.9784 75.0046 59.1737 74.8011 59.3853 74.6221C59.5968 74.4349 59.8247 74.2762 60.0688 74.146C60.4106 73.9507 60.7891 73.8042 61.2041 73.7065C61.6273 73.6007 62.0789 73.5479 62.5591 73.5479C63.4054 73.5479 64.1541 73.7147 64.8052 74.0483C65.4562 74.382 66.0015 74.8459 66.4409 75.4399C66.8804 76.034 67.214 76.7461 67.4419 77.5762C67.6698 78.3981 67.7837 79.3014 67.7837 80.2861V80.5425C67.7837 81.4865 67.6698 82.3695 67.4419 83.1914C67.214 84.0052 66.8804 84.7132 66.4409 85.3154C66.0015 85.9176 65.4562 86.3896 64.8052 86.7314C64.1623 87.0732 63.4258 87.2441 62.5957 87.2441C62.0911 87.2441 61.6191 87.1912 61.1797 87.0854C60.7484 86.9797 60.3577 86.8291 60.0078 86.6338C59.7962 86.5117 59.5968 86.3774 59.4097 86.231C59.2225 86.0763 59.0475 85.9095 58.8848 85.7305V92.0781H56.6265ZM65.5254 80.2861C65.5254 79.6432 65.4521 79.0329 65.3057 78.4551C65.1673 77.8691 64.9517 77.3524 64.6587 76.9048C64.3576 76.4653 63.9792 76.1154 63.5234 75.855C63.0677 75.5946 62.5225 75.4644 61.8877 75.4644C61.5378 75.4644 61.2122 75.505 60.9111 75.5864C60.6182 75.6678 60.3537 75.7858 60.1177 75.9404C59.8573 76.0951 59.6253 76.2863 59.4219 76.5142C59.2184 76.742 59.0394 76.9943 58.8848 77.271V83.6309C59.0231 83.875 59.1818 84.1029 59.3608 84.3145C59.5399 84.526 59.7433 84.7051 59.9712 84.8516C60.2316 85.0225 60.5205 85.1567 60.8379 85.2544C61.1634 85.3521 61.5215 85.4009 61.9121 85.4009C62.5387 85.4009 63.0799 85.2707 63.5356 85.0103C63.9914 84.7417 64.3657 84.3836 64.6587 83.936C64.9517 83.4884 65.1673 82.9717 65.3057 82.3857C65.4521 81.7998 65.5254 81.1854 65.5254 80.5425V80.2861ZM753.33 92.0781V73.792H755.393L755.502 75.2324C755.681 75.0046 755.877 74.8011 756.088 74.6221C756.3 74.4349 756.528 74.2762 756.772 74.146C757.114 73.9507 757.492 73.8042 757.907 73.7065C758.33 73.6007 758.782 73.5479 759.262 73.5479C760.109 73.5479 760.857 73.7147 761.508 74.0483C762.159 74.382 762.705 74.8459 763.144 75.4399C763.583 76.034 763.917 76.7461 764.145 77.5762C764.373 78.3981 764.487 79.3014 764.487 80.2861V80.5425C764.487 81.4865 764.373 82.3695 764.145 83.1914C763.917 84.0052 763.583 84.7132 763.144 85.3154C762.705 85.9176 762.159 86.3896 761.508 86.7314C760.865 87.0732 760.129 87.2441 759.299 87.2441C758.794 87.2441 758.322 87.1912 757.883 87.0854C757.451 86.9797 757.061 86.8291 756.711 86.6338C756.499 86.5117 756.3 86.3774 756.113 86.231C755.926 86.0763 755.751 85.9095 755.588 85.7305V92.0781H753.33ZM762.229 80.2861C762.229 79.6432 762.155 79.0329 762.009 78.4551C761.87 77.8691 761.655 77.3524 761.362 76.9048C761.061 76.4653 760.682 76.1154 760.227 75.855C759.771 75.5946 759.226 75.4644 758.591 75.4644C758.241 75.4644 757.915 75.505 757.614 75.5864C757.321 75.6678 757.057 75.7858 756.821 75.9404C756.56 76.0951 756.328 76.2863 756.125 76.5142C755.922 76.742 755.743 76.9943 755.588 77.271V83.6309C755.726 83.875 755.885 84.1029 756.064 84.3145C756.243 84.526 756.446 84.7051 756.674 84.8516C756.935 85.0225 757.224 85.1567 757.541 85.2544C757.867 85.3521 758.225 85.4009 758.615 85.4009C759.242 85.4009 759.783 85.2707 760.239 85.0103C760.694 84.7417 761.069 84.3836 761.362 83.936C761.655 83.4884 761.87 82.9717 762.009 82.3857C762.155 81.7998 762.229 81.1854 762.229 80.5425V80.2861Z" fill="#0066FF"/>
</svg>
