<svg width="1032" height="116" viewBox="0 0 1032 116" fill="none" xmlns="http://www.w3.org/2000/svg">
<rect width="1032" height="116" rx="20" fill="#0066FF" fill-opacity="0.2"/>
<rect x="1.5" y="1.5" width="1029" height="113" rx="18.5" stroke="#0066FF" stroke-opacity="0.5" stroke-width="3"/>
<path d="M41.9268 48.6074L31.5752 43.981V42.1987L41.9268 37.5845V39.9771L34.4561 42.9067L33.8091 43.1143L34.4561 43.334L41.9268 46.2148V48.6074ZM109.825 49.4131C110.232 49.4131 110.626 49.348 111.009 49.2178C111.399 49.0876 111.745 48.9045 112.046 48.6685C112.347 48.4406 112.588 48.172 112.767 47.8628C112.954 47.5454 113.051 47.2036 113.06 46.8374H115.196C115.188 47.4233 115.033 47.9849 114.732 48.522C114.439 49.0509 114.044 49.5148 113.548 49.9136C113.051 50.3205 112.482 50.646 111.839 50.8901C111.196 51.1261 110.525 51.2441 109.825 51.2441C108.824 51.2441 107.949 51.0651 107.2 50.707C106.451 50.349 105.829 49.8647 105.333 49.2544C104.828 48.6522 104.45 47.9564 104.197 47.167C103.945 46.3695 103.819 45.5312 103.819 44.6523V44.1396C103.819 43.2689 103.945 42.4347 104.197 41.6372C104.45 40.8397 104.828 40.1357 105.333 39.5254C105.829 38.9232 106.451 38.443 107.2 38.085C107.949 37.7269 108.824 37.5479 109.825 37.5479C110.606 37.5479 111.322 37.674 111.973 37.9263C112.632 38.1704 113.202 38.5041 113.682 38.9272C114.154 39.3586 114.524 39.8672 114.793 40.4531C115.062 41.0391 115.196 41.6657 115.196 42.333H113.06C113.051 41.9342 112.962 41.5599 112.791 41.21C112.628 40.8519 112.404 40.5386 112.12 40.27C111.835 40.0015 111.493 39.7899 111.094 39.6353C110.704 39.4806 110.28 39.4033 109.825 39.4033C109.125 39.4033 108.535 39.5457 108.055 39.8306C107.583 40.1073 107.2 40.4694 106.907 40.917C106.614 41.3727 106.403 41.8813 106.272 42.4429C106.15 43.0044 106.089 43.57 106.089 44.1396V44.6523C106.089 45.2301 106.15 45.8039 106.272 46.3735C106.403 46.9351 106.614 47.4396 106.907 47.8872C107.192 48.3429 107.57 48.7132 108.042 48.998C108.523 49.2747 109.117 49.4131 109.825 49.4131ZM119.066 32.25H125.816V49.0469H130.125V51H119.066V49.0469H123.558V34.2153H119.066V32.25ZM141.906 51C141.816 50.8291 141.743 50.6175 141.686 50.3652C141.637 50.1048 141.601 49.8363 141.576 49.5596C141.348 49.7874 141.092 50.0031 140.807 50.2065C140.53 50.41 140.225 50.589 139.892 50.7437C139.55 50.8983 139.188 51.0203 138.805 51.1099C138.423 51.1994 138.016 51.2441 137.584 51.2441C136.885 51.2441 136.25 51.1424 135.68 50.939C135.119 50.7355 134.643 50.4588 134.252 50.1089C133.853 49.7671 133.544 49.3602 133.324 48.8882C133.113 48.408 133.007 47.8913 133.007 47.3379C133.007 46.6136 133.149 45.9788 133.434 45.4336C133.727 44.8883 134.138 44.4326 134.667 44.0664C135.196 43.7083 135.831 43.4398 136.571 43.2607C137.32 43.0817 138.154 42.9922 139.074 42.9922H141.54V41.9546C141.54 41.5558 141.466 41.1978 141.32 40.8804C141.173 40.563 140.966 40.2904 140.697 40.0625C140.429 39.8428 140.099 39.6719 139.708 39.5498C139.326 39.4277 138.895 39.3667 138.415 39.3667C137.967 39.3667 137.564 39.4237 137.206 39.5376C136.856 39.6515 136.559 39.8021 136.315 39.9893C136.071 40.1764 135.88 40.4002 135.741 40.6606C135.611 40.9129 135.546 41.1774 135.546 41.4541H133.275C133.284 40.974 133.406 40.502 133.642 40.0381C133.886 39.5742 134.236 39.1551 134.691 38.7808C135.139 38.4146 135.684 38.1175 136.327 37.8896C136.978 37.6618 137.715 37.5479 138.537 37.5479C139.285 37.5479 139.981 37.6414 140.624 37.8286C141.267 38.0076 141.824 38.2803 142.296 38.6465C142.76 39.0208 143.126 39.4847 143.395 40.0381C143.664 40.5915 143.798 41.2384 143.798 41.979V48.1191C143.798 48.5586 143.839 49.0265 143.92 49.5229C144.001 50.0112 144.115 50.4385 144.262 50.8047V51H141.906ZM137.914 49.2788C138.354 49.2788 138.764 49.2218 139.147 49.1079C139.529 48.994 139.879 48.8434 140.197 48.6562C140.506 48.4691 140.775 48.2575 141.002 48.0215C141.23 47.7773 141.409 47.5251 141.54 47.2646V44.5913H139.44C138.659 44.5913 137.975 44.6605 137.389 44.7988C136.811 44.929 136.352 45.1325 136.01 45.4092C135.766 45.6045 135.578 45.8364 135.448 46.105C135.326 46.3735 135.265 46.6787 135.265 47.0205C135.265 47.346 135.318 47.6471 135.424 47.9238C135.538 48.2005 135.705 48.4365 135.924 48.6318C136.144 48.8353 136.421 48.994 136.754 49.1079C137.088 49.2218 137.475 49.2788 137.914 49.2788ZM156.518 47.4966C156.518 47.228 156.465 46.988 156.359 46.7764C156.254 46.5566 156.075 46.3573 155.822 46.1782C155.57 45.9992 155.236 45.8364 154.821 45.6899C154.406 45.5353 153.889 45.397 153.271 45.2749C152.514 45.1203 151.822 44.9331 151.196 44.7134C150.577 44.4937 150.048 44.2292 149.609 43.9199C149.161 43.6188 148.815 43.2648 148.571 42.8579C148.327 42.4429 148.205 41.9627 148.205 41.4175C148.205 40.8804 148.331 40.3799 148.583 39.916C148.836 39.444 149.19 39.033 149.646 38.6831C150.101 38.3332 150.642 38.0565 151.269 37.853C151.904 37.6496 152.6 37.5479 153.356 37.5479C154.17 37.5479 154.903 37.6536 155.554 37.8652C156.205 38.0768 156.758 38.3698 157.214 38.7441C157.67 39.1185 158.02 39.5579 158.264 40.0625C158.516 40.5589 158.642 41.096 158.642 41.6738H156.384C156.384 41.389 156.311 41.1123 156.164 40.8438C156.018 40.5671 155.814 40.3229 155.554 40.1113C155.293 39.8997 154.976 39.7288 154.602 39.5986C154.235 39.4684 153.82 39.4033 153.356 39.4033C152.876 39.4033 152.453 39.4562 152.087 39.562C151.729 39.6678 151.432 39.8102 151.196 39.9893C150.952 40.1683 150.769 40.3758 150.646 40.6118C150.524 40.8478 150.463 41.092 150.463 41.3442C150.463 41.6047 150.512 41.8366 150.61 42.04C150.708 42.2435 150.878 42.4266 151.123 42.5894C151.359 42.7521 151.676 42.8986 152.075 43.0288C152.482 43.159 152.994 43.2852 153.613 43.4072C154.427 43.5781 155.155 43.7775 155.798 44.0054C156.441 44.2251 156.982 44.4896 157.421 44.7988C157.861 45.1162 158.194 45.4824 158.422 45.8975C158.658 46.3125 158.776 46.7926 158.776 47.3379C158.776 47.9238 158.642 48.4569 158.374 48.937C158.113 49.4172 157.747 49.8281 157.275 50.1699C156.803 50.5117 156.237 50.7762 155.578 50.9634C154.919 51.1506 154.199 51.2441 153.417 51.2441C152.522 51.2441 151.725 51.1261 151.025 50.8901C150.325 50.646 149.735 50.3245 149.255 49.9258C148.767 49.5352 148.392 49.0794 148.132 48.5586C147.88 48.0378 147.753 47.4966 147.753 46.9351H150.012C150.044 47.3989 150.166 47.7896 150.378 48.1069C150.598 48.4243 150.87 48.6807 151.196 48.876C151.513 49.0713 151.867 49.2096 152.258 49.291C152.648 49.3724 153.035 49.4131 153.417 49.4131C154.02 49.4131 154.545 49.3439 154.992 49.2056C155.44 49.0591 155.79 48.8597 156.042 48.6074C156.197 48.4528 156.315 48.2819 156.396 48.0947C156.477 47.9076 156.518 47.7082 156.518 47.4966ZM171.033 47.4966C171.033 47.228 170.98 46.988 170.874 46.7764C170.768 46.5566 170.589 46.3573 170.337 46.1782C170.085 45.9992 169.751 45.8364 169.336 45.6899C168.921 45.5353 168.404 45.397 167.786 45.2749C167.029 45.1203 166.337 44.9331 165.71 44.7134C165.092 44.4937 164.563 44.2292 164.124 43.9199C163.676 43.6188 163.33 43.2648 163.086 42.8579C162.842 42.4429 162.72 41.9627 162.72 41.4175C162.72 40.8804 162.846 40.3799 163.098 39.916C163.35 39.444 163.704 39.033 164.16 38.6831C164.616 38.3332 165.157 38.0565 165.784 37.853C166.418 37.6496 167.114 37.5479 167.871 37.5479C168.685 37.5479 169.417 37.6536 170.068 37.8652C170.719 38.0768 171.273 38.3698 171.729 38.7441C172.184 39.1185 172.534 39.5579 172.778 40.0625C173.031 40.5589 173.157 41.096 173.157 41.6738H170.898C170.898 41.389 170.825 41.1123 170.679 40.8438C170.532 40.5671 170.329 40.3229 170.068 40.1113C169.808 39.8997 169.491 39.7288 169.116 39.5986C168.75 39.4684 168.335 39.4033 167.871 39.4033C167.391 39.4033 166.968 39.4562 166.602 39.562C166.243 39.6678 165.946 39.8102 165.71 39.9893C165.466 40.1683 165.283 40.3758 165.161 40.6118C165.039 40.8478 164.978 41.092 164.978 41.3442C164.978 41.6047 165.027 41.8366 165.125 42.04C165.222 42.2435 165.393 42.4266 165.637 42.5894C165.873 42.7521 166.191 42.8986 166.589 43.0288C166.996 43.159 167.509 43.2852 168.127 43.4072C168.941 43.5781 169.67 43.7775 170.312 44.0054C170.955 44.2251 171.497 44.4896 171.936 44.7988C172.375 45.1162 172.709 45.4824 172.937 45.8975C173.173 46.3125 173.291 46.7926 173.291 47.3379C173.291 47.9238 173.157 48.4569 172.888 48.937C172.628 49.4172 172.262 49.8281 171.79 50.1699C171.318 50.5117 170.752 50.7762 170.093 50.9634C169.434 51.1506 168.713 51.2441 167.932 51.2441C167.037 51.2441 166.239 51.1261 165.54 50.8901C164.84 50.646 164.25 50.3245 163.77 49.9258C163.281 49.5352 162.907 49.0794 162.646 48.5586C162.394 48.0378 162.268 47.4966 162.268 46.9351H164.526C164.559 47.3989 164.681 47.7896 164.893 48.1069C165.112 48.4243 165.385 48.6807 165.71 48.876C166.028 49.0713 166.382 49.2096 166.772 49.291C167.163 49.3724 167.55 49.4131 167.932 49.4131C168.534 49.4131 169.059 49.3439 169.507 49.2056C169.954 49.0591 170.304 48.8597 170.557 48.6074C170.711 48.4528 170.829 48.2819 170.911 48.0947C170.992 47.9076 171.033 47.7082 171.033 47.4966ZM187.659 41.4785H176.758V39.5132H187.659V41.4785ZM187.659 46.5444H176.758V44.5913H187.659V46.5444ZM195.326 33.5806L195.069 38.0972H193.482L193.495 33.7759V32.25H195.326V33.5806ZM199.684 33.5806L199.427 38.0972H197.853L197.865 33.7759V32.25H199.696L199.684 33.5806ZM282.414 33.5806L282.157 38.0972H280.57L280.583 33.7759V32.25H282.414V33.5806ZM286.771 33.5806L286.515 38.0972H284.94L284.953 33.7759V32.25H286.784L286.771 33.5806ZM292.937 48.5952V46.2515L300.834 43.2729L301.567 43.0654L300.834 42.8335L292.937 39.9038V37.5723L303.715 42.1865V43.9688L292.937 48.5952ZM318.291 51H316.033V35.082H309.514V51H307.256V33.2266H318.291V51ZM321.905 56.0781V37.792H323.968L324.078 39.2324C324.257 39.0046 324.452 38.8011 324.664 38.6221C324.875 38.4349 325.103 38.2762 325.347 38.146C325.689 37.9507 326.067 37.8042 326.482 37.7065C326.906 37.6007 327.357 37.5479 327.837 37.5479C328.684 37.5479 329.432 37.7147 330.083 38.0483C330.735 38.382 331.28 38.8459 331.719 39.4399C332.159 40.034 332.492 40.7461 332.72 41.5762C332.948 42.3981 333.062 43.3014 333.062 44.2861V44.5425C333.062 45.4865 332.948 46.3695 332.72 47.1914C332.492 48.0052 332.159 48.7132 331.719 49.3154C331.28 49.9176 330.735 50.3896 330.083 50.7314C329.441 51.0732 328.704 51.2441 327.874 51.2441C327.369 51.2441 326.897 51.1912 326.458 51.0854C326.027 50.9797 325.636 50.8291 325.286 50.6338C325.075 50.5117 324.875 50.3774 324.688 50.231C324.501 50.0763 324.326 49.9095 324.163 49.7305V56.0781H321.905ZM330.804 44.2861C330.804 43.6432 330.73 43.0329 330.584 42.4551C330.446 41.8691 330.23 41.3524 329.937 40.9048C329.636 40.4653 329.257 40.1154 328.802 39.855C328.346 39.5946 327.801 39.4644 327.166 39.4644C326.816 39.4644 326.491 39.505 326.189 39.5864C325.896 39.6678 325.632 39.7858 325.396 39.9404C325.136 40.0951 324.904 40.2863 324.7 40.5142C324.497 40.742 324.318 40.9943 324.163 41.271V47.6309C324.301 47.875 324.46 48.1029 324.639 48.3145C324.818 48.526 325.022 48.7051 325.25 48.8516C325.51 49.0225 325.799 49.1567 326.116 49.2544C326.442 49.3521 326.8 49.4009 327.19 49.4009C327.817 49.4009 328.358 49.2707 328.814 49.0103C329.27 48.7417 329.644 48.3836 329.937 47.936C330.23 47.4884 330.446 46.9717 330.584 46.3857C330.73 45.7998 330.804 45.1854 330.804 44.5425V44.2861ZM335.797 44.2739C335.797 43.3218 335.935 42.4388 336.212 41.625C336.489 40.8031 336.887 40.091 337.408 39.4888C337.921 38.8866 338.548 38.4146 339.288 38.0728C340.029 37.7228 340.863 37.5479 341.791 37.5479C342.726 37.5479 343.565 37.7228 344.305 38.0728C345.054 38.4146 345.689 38.8866 346.209 39.4888C346.722 40.091 347.117 40.8031 347.394 41.625C347.67 42.4388 347.809 43.3218 347.809 44.2739V44.5425C347.809 45.4946 347.67 46.3776 347.394 47.1914C347.117 48.0052 346.722 48.7132 346.209 49.3154C345.689 49.9176 345.058 50.3896 344.317 50.7314C343.577 51.0732 342.743 51.2441 341.815 51.2441C340.879 51.2441 340.037 51.0732 339.288 50.7314C338.548 50.3896 337.921 49.9176 337.408 49.3154C336.887 48.7132 336.489 48.0052 336.212 47.1914C335.935 46.3776 335.797 45.4946 335.797 44.5425V44.2739ZM338.055 44.5425C338.055 45.1935 338.132 45.8161 338.287 46.4102C338.442 46.9961 338.678 47.5129 338.995 47.9604C339.304 48.408 339.695 48.762 340.167 49.0225C340.639 49.2829 341.188 49.4131 341.815 49.4131C342.433 49.4131 342.975 49.2829 343.438 49.0225C343.91 48.762 344.305 48.408 344.623 47.9604C344.932 47.5129 345.164 46.9961 345.318 46.4102C345.473 45.8161 345.55 45.1935 345.55 44.5425V44.2739C345.55 43.631 345.469 43.0166 345.306 42.4307C345.152 41.8366 344.92 41.3158 344.61 40.8682C344.293 40.4206 343.898 40.0666 343.426 39.8062C342.962 39.5376 342.417 39.4033 341.791 39.4033C341.164 39.4033 340.619 39.5376 340.155 39.8062C339.691 40.0666 339.304 40.4206 338.995 40.8682C338.678 41.3158 338.442 41.8366 338.287 42.4307C338.132 43.0166 338.055 43.631 338.055 44.2739V44.5425ZM356.574 49.4131C356.981 49.4131 357.375 49.348 357.758 49.2178C358.148 49.0876 358.494 48.9045 358.795 48.6685C359.097 48.4406 359.337 48.172 359.516 47.8628C359.703 47.5454 359.8 47.2036 359.809 46.8374H361.945C361.937 47.4233 361.782 47.9849 361.481 48.522C361.188 49.0509 360.793 49.5148 360.297 49.9136C359.8 50.3205 359.231 50.646 358.588 50.8901C357.945 51.1261 357.274 51.2441 356.574 51.2441C355.573 51.2441 354.698 51.0651 353.949 50.707C353.201 50.349 352.578 49.8647 352.082 49.2544C351.577 48.6522 351.199 47.9564 350.946 47.167C350.694 46.3695 350.568 45.5312 350.568 44.6523V44.1396C350.568 43.2689 350.694 42.4347 350.946 41.6372C351.199 40.8397 351.577 40.1357 352.082 39.5254C352.578 38.9232 353.201 38.443 353.949 38.085C354.698 37.7269 355.573 37.5479 356.574 37.5479C357.355 37.5479 358.071 37.674 358.722 37.9263C359.381 38.1704 359.951 38.5041 360.431 38.9272C360.903 39.3586 361.273 39.8672 361.542 40.4531C361.811 41.0391 361.945 41.6657 361.945 42.333H359.809C359.8 41.9342 359.711 41.5599 359.54 41.21C359.377 40.8519 359.153 40.5386 358.869 40.27C358.584 40.0015 358.242 39.7899 357.843 39.6353C357.453 39.4806 357.029 39.4033 356.574 39.4033C355.874 39.4033 355.284 39.5457 354.804 39.8306C354.332 40.1073 353.949 40.4694 353.656 40.917C353.363 41.3727 353.152 41.8813 353.021 42.4429C352.899 43.0044 352.838 43.57 352.838 44.1396V44.6523C352.838 45.2301 352.899 45.8039 353.021 46.3735C353.152 46.9351 353.363 47.4396 353.656 47.8872C353.941 48.3429 354.319 48.7132 354.792 48.998C355.272 49.2747 355.866 49.4131 356.574 49.4131ZM377.338 39.623H372.065V51H369.794V39.623H364.606V37.792H377.338V39.623ZM379.341 44.2739C379.341 43.3218 379.479 42.4388 379.756 41.625C380.033 40.8031 380.431 40.091 380.952 39.4888C381.465 38.8866 382.091 38.4146 382.832 38.0728C383.573 37.7228 384.407 37.5479 385.334 37.5479C386.27 37.5479 387.109 37.7228 387.849 38.0728C388.598 38.4146 389.233 38.8866 389.753 39.4888C390.266 40.091 390.661 40.8031 390.938 41.625C391.214 42.4388 391.353 43.3218 391.353 44.2739V44.5425C391.353 45.4946 391.214 46.3776 390.938 47.1914C390.661 48.0052 390.266 48.7132 389.753 49.3154C389.233 49.9176 388.602 50.3896 387.861 50.7314C387.121 51.0732 386.287 51.2441 385.359 51.2441C384.423 51.2441 383.581 51.0732 382.832 50.7314C382.091 50.3896 381.465 49.9176 380.952 49.3154C380.431 48.7132 380.033 48.0052 379.756 47.1914C379.479 46.3776 379.341 45.4946 379.341 44.5425V44.2739ZM381.599 44.5425C381.599 45.1935 381.676 45.8161 381.831 46.4102C381.986 46.9961 382.222 47.5129 382.539 47.9604C382.848 48.408 383.239 48.762 383.711 49.0225C384.183 49.2829 384.732 49.4131 385.359 49.4131C385.977 49.4131 386.519 49.2829 386.982 49.0225C387.454 48.762 387.849 48.408 388.167 47.9604C388.476 47.5129 388.708 46.9961 388.862 46.4102C389.017 45.8161 389.094 45.1935 389.094 44.5425V44.2739C389.094 43.631 389.013 43.0166 388.85 42.4307C388.695 41.8366 388.464 41.3158 388.154 40.8682C387.837 40.4206 387.442 40.0666 386.97 39.8062C386.506 39.5376 385.961 39.4033 385.334 39.4033C384.708 39.4033 384.163 39.5376 383.699 39.8062C383.235 40.0666 382.848 40.4206 382.539 40.8682C382.222 41.3158 381.986 41.8366 381.831 42.4307C381.676 43.0166 381.599 43.631 381.599 44.2739V44.5425ZM400.325 51.2441C399.397 51.2441 398.543 51.0854 397.762 50.7681C396.989 50.4507 396.325 50.0072 395.772 49.4375C395.219 48.8678 394.787 48.1924 394.478 47.4111C394.169 46.6299 394.014 45.7795 394.014 44.8599V44.3472C394.014 43.2811 394.185 42.3289 394.527 41.4907C394.869 40.6444 395.324 39.9282 395.894 39.3423C396.456 38.7645 397.094 38.321 397.811 38.0117C398.535 37.7025 399.275 37.5479 400.032 37.5479C400.984 37.5479 401.814 37.7147 402.522 38.0483C403.239 38.3739 403.833 38.8255 404.305 39.4033C404.777 39.9893 405.127 40.6769 405.354 41.4663C405.59 42.2557 405.708 43.1102 405.708 44.0298V45.043H396.272V45.1284C396.329 45.7713 396.456 46.3369 396.651 46.8252C396.854 47.3135 397.131 47.7448 397.481 48.1191C397.839 48.5179 398.27 48.8312 398.775 49.0591C399.279 49.2869 399.837 49.4009 400.447 49.4009C401.253 49.4009 401.969 49.2381 402.596 48.9126C403.222 48.5871 403.743 48.1558 404.158 47.6187L405.538 48.6929C405.098 49.3602 404.439 49.9543 403.56 50.4751C402.689 50.9878 401.611 51.2441 400.325 51.2441ZM400.032 39.4033C399.576 39.4033 399.145 39.4888 398.738 39.6597C398.331 39.8224 397.965 40.0625 397.64 40.3799C397.314 40.7054 397.037 41.1042 396.81 41.5762C396.59 42.04 396.435 42.5771 396.346 43.1875H403.45V43.0776C403.45 42.6707 403.373 42.2354 403.218 41.7715C403.064 41.2995 402.848 40.8926 402.571 40.5508C402.295 40.209 401.945 39.9323 401.521 39.7207C401.106 39.5091 400.61 39.4033 400.032 39.4033ZM429.147 49.4131C429.554 49.4131 429.949 49.348 430.331 49.2178C430.722 49.0876 431.068 48.9045 431.369 48.6685C431.67 48.4406 431.91 48.172 432.089 47.8628C432.276 47.5454 432.374 47.2036 432.382 46.8374H434.518C434.51 47.4233 434.355 47.9849 434.054 48.522C433.761 49.0509 433.367 49.5148 432.87 49.9136C432.374 50.3205 431.804 50.646 431.161 50.8901C430.518 51.1261 429.847 51.2441 429.147 51.2441C428.146 51.2441 427.271 51.0651 426.522 50.707C425.774 50.349 425.151 49.8647 424.655 49.2544C424.15 48.6522 423.772 47.9564 423.52 47.167C423.267 46.3695 423.141 45.5312 423.141 44.6523V44.1396C423.141 43.2689 423.267 42.4347 423.52 41.6372C423.772 40.8397 424.15 40.1357 424.655 39.5254C425.151 38.9232 425.774 38.443 426.522 38.085C427.271 37.7269 428.146 37.5479 429.147 37.5479C429.928 37.5479 430.644 37.674 431.295 37.9263C431.955 38.1704 432.524 38.5041 433.004 38.9272C433.476 39.3586 433.847 39.8672 434.115 40.4531C434.384 41.0391 434.518 41.6657 434.518 42.333H432.382C432.374 41.9342 432.284 41.5599 432.113 41.21C431.951 40.8519 431.727 40.5386 431.442 40.27C431.157 40.0015 430.815 39.7899 430.417 39.6353C430.026 39.4806 429.603 39.4033 429.147 39.4033C428.447 39.4033 427.857 39.5457 427.377 39.8306C426.905 40.1073 426.522 40.4694 426.229 40.917C425.937 41.3727 425.725 41.8813 425.595 42.4429C425.473 43.0044 425.412 43.57 425.412 44.1396V44.6523C425.412 45.2301 425.473 45.8039 425.595 46.3735C425.725 46.9351 425.937 47.4396 426.229 47.8872C426.514 48.3429 426.893 48.7132 427.365 48.998C427.845 49.2747 428.439 49.4131 429.147 49.4131ZM437.399 44.2739C437.399 43.3218 437.538 42.4388 437.814 41.625C438.091 40.8031 438.49 40.091 439.011 39.4888C439.523 38.8866 440.15 38.4146 440.891 38.0728C441.631 37.7228 442.465 37.5479 443.393 37.5479C444.329 37.5479 445.167 37.7228 445.908 38.0728C446.656 38.4146 447.291 38.8866 447.812 39.4888C448.325 40.091 448.719 40.8031 448.996 41.625C449.273 42.4388 449.411 43.3218 449.411 44.2739V44.5425C449.411 45.4946 449.273 46.3776 448.996 47.1914C448.719 48.0052 448.325 48.7132 447.812 49.3154C447.291 49.9176 446.66 50.3896 445.92 50.7314C445.179 51.0732 444.345 51.2441 443.417 51.2441C442.482 51.2441 441.639 51.0732 440.891 50.7314C440.15 50.3896 439.523 49.9176 439.011 49.3154C438.49 48.7132 438.091 48.0052 437.814 47.1914C437.538 46.3776 437.399 45.4946 437.399 44.5425V44.2739ZM439.658 44.5425C439.658 45.1935 439.735 45.8161 439.89 46.4102C440.044 46.9961 440.28 47.5129 440.598 47.9604C440.907 48.408 441.298 48.762 441.77 49.0225C442.242 49.2829 442.791 49.4131 443.417 49.4131C444.036 49.4131 444.577 49.2829 445.041 49.0225C445.513 48.762 445.908 48.408 446.225 47.9604C446.534 47.5129 446.766 46.9961 446.921 46.4102C447.076 45.8161 447.153 45.1935 447.153 44.5425V44.2739C447.153 43.631 447.071 43.0166 446.909 42.4307C446.754 41.8366 446.522 41.3158 446.213 40.8682C445.896 40.4206 445.501 40.0666 445.029 39.8062C444.565 39.5376 444.02 39.4033 443.393 39.4033C442.766 39.4033 442.221 39.5376 441.757 39.8062C441.293 40.0666 440.907 40.4206 440.598 40.8682C440.28 41.3158 440.044 41.8366 439.89 42.4307C439.735 43.0166 439.658 43.631 439.658 44.2739V44.5425ZM451.914 44.2739C451.914 43.3218 452.052 42.4388 452.329 41.625C452.606 40.8031 453.005 40.091 453.525 39.4888C454.038 38.8866 454.665 38.4146 455.405 38.0728C456.146 37.7228 456.98 37.5479 457.908 37.5479C458.844 37.5479 459.682 37.7228 460.422 38.0728C461.171 38.4146 461.806 38.8866 462.327 39.4888C462.839 40.091 463.234 40.8031 463.511 41.625C463.787 42.4388 463.926 43.3218 463.926 44.2739V44.5425C463.926 45.4946 463.787 46.3776 463.511 47.1914C463.234 48.0052 462.839 48.7132 462.327 49.3154C461.806 49.9176 461.175 50.3896 460.435 50.7314C459.694 51.0732 458.86 51.2441 457.932 51.2441C456.996 51.2441 456.154 51.0732 455.405 50.7314C454.665 50.3896 454.038 49.9176 453.525 49.3154C453.005 48.7132 452.606 48.0052 452.329 47.1914C452.052 46.3776 451.914 45.4946 451.914 44.5425V44.2739ZM454.172 44.5425C454.172 45.1935 454.25 45.8161 454.404 46.4102C454.559 46.9961 454.795 47.5129 455.112 47.9604C455.422 48.408 455.812 48.762 456.284 49.0225C456.756 49.2829 457.306 49.4131 457.932 49.4131C458.551 49.4131 459.092 49.2829 459.556 49.0225C460.028 48.762 460.422 48.408 460.74 47.9604C461.049 47.5129 461.281 46.9961 461.436 46.4102C461.59 45.8161 461.667 45.1935 461.667 44.5425V44.2739C461.667 43.631 461.586 43.0166 461.423 42.4307C461.269 41.8366 461.037 41.3158 460.728 40.8682C460.41 40.4206 460.015 40.0666 459.543 39.8062C459.08 39.5376 458.534 39.4033 457.908 39.4033C457.281 39.4033 456.736 39.5376 456.272 39.8062C455.808 40.0666 455.422 40.4206 455.112 40.8682C454.795 41.3158 454.559 41.8366 454.404 42.4307C454.25 43.0166 454.172 43.631 454.172 44.2739V44.5425ZM472.825 38.5488C473.688 38.5488 474.457 38.7035 475.132 39.0127C475.808 39.3138 476.382 39.7288 476.854 40.2578C477.326 40.7949 477.684 41.4297 477.928 42.1621C478.18 42.8864 478.306 43.6758 478.306 44.5303V44.811C478.306 45.7306 478.172 46.5811 477.903 47.3623C477.643 48.1436 477.26 48.8231 476.756 49.4009C476.251 49.9787 475.633 50.4303 474.9 50.7559C474.176 51.0814 473.35 51.2441 472.422 51.2441C471.495 51.2441 470.665 51.0814 469.932 50.7559C469.2 50.4303 468.581 49.9787 468.077 49.4009C467.572 48.8231 467.186 48.1436 466.917 47.3623C466.648 46.5811 466.514 45.7306 466.514 44.811V43.6025C466.514 42.8376 466.551 42.1214 466.624 41.4541C466.705 40.7786 466.819 40.1561 466.966 39.5864C467.104 39.0575 467.271 38.5651 467.466 38.1094C467.662 37.6536 467.885 37.2345 468.138 36.8521C468.65 36.0708 469.273 35.4482 470.005 34.9844C470.746 34.5124 471.568 34.1909 472.471 34.02C472.903 33.9386 473.301 33.8532 473.667 33.7637C474.042 33.666 474.367 33.5439 474.644 33.3975C474.913 33.2591 475.124 33.0841 475.279 32.8726C475.433 32.6528 475.511 32.3761 475.511 32.0425H477.366C477.366 32.7993 477.248 33.4097 477.012 33.8735C476.784 34.3374 476.463 34.7077 476.048 34.9844C475.682 35.2285 475.275 35.4116 474.827 35.5337C474.388 35.6558 473.765 35.8022 472.959 35.9731C472.39 36.0952 471.857 36.2661 471.36 36.4858C470.864 36.6974 470.42 36.9863 470.03 37.3525C469.639 37.7188 469.31 38.1704 469.041 38.7075C468.772 39.2365 468.577 39.8753 468.455 40.624C468.715 40.3229 469.004 40.0462 469.322 39.7939C469.639 39.5335 469.981 39.3097 470.347 39.1226C470.713 38.9435 471.104 38.8052 471.519 38.7075C471.934 38.6017 472.369 38.5488 472.825 38.5488ZM472.398 40.4043C471.779 40.4043 471.242 40.5182 470.787 40.7461C470.331 40.9658 469.957 41.2629 469.664 41.6372C469.362 42.0197 469.139 42.4591 468.992 42.9556C468.846 43.452 468.772 43.9769 468.772 44.5303V44.811C468.772 45.4295 468.846 46.0195 468.992 46.5811C469.139 47.1344 469.362 47.6187 469.664 48.0337C469.957 48.4569 470.331 48.7946 470.787 49.0469C471.25 49.291 471.796 49.4131 472.422 49.4131C473.041 49.4131 473.574 49.291 474.021 49.0469C474.477 48.7946 474.856 48.4569 475.157 48.0337C475.458 47.6187 475.682 47.1344 475.828 46.5811C475.975 46.0195 476.048 45.4295 476.048 44.811V44.5303C476.048 43.9769 475.975 43.452 475.828 42.9556C475.682 42.4591 475.458 42.0197 475.157 41.6372C474.856 41.2629 474.473 40.9658 474.009 40.7461C473.554 40.5182 473.016 40.4043 472.398 40.4043ZM483.153 37.792V49.1567H485.692V37.792H487.95V49.1567L490.489 49.1445V37.792H492.748V49.1445H493.81L493.59 54.9185H491.576V51H480.895V37.792H483.153ZM501.928 51.2441C501 51.2441 500.146 51.0854 499.364 50.7681C498.591 50.4507 497.928 50.0072 497.375 49.4375C496.821 48.8678 496.39 48.1924 496.081 47.4111C495.771 46.6299 495.617 45.7795 495.617 44.8599V44.3472C495.617 43.2811 495.788 42.3289 496.129 41.4907C496.471 40.6444 496.927 39.9282 497.497 39.3423C498.058 38.7645 498.697 38.321 499.413 38.0117C500.137 37.7025 500.878 37.5479 501.635 37.5479C502.587 37.5479 503.417 37.7147 504.125 38.0483C504.841 38.3739 505.435 38.8255 505.907 39.4033C506.379 39.9893 506.729 40.6769 506.957 41.4663C507.193 42.2557 507.311 43.1102 507.311 44.0298V45.043H497.875V45.1284C497.932 45.7713 498.058 46.3369 498.253 46.8252C498.457 47.3135 498.734 47.7448 499.083 48.1191C499.442 48.5179 499.873 48.8312 500.377 49.0591C500.882 49.2869 501.439 49.4009 502.05 49.4009C502.855 49.4009 503.572 49.2381 504.198 48.9126C504.825 48.5871 505.346 48.1558 505.761 47.6187L507.14 48.6929C506.701 49.3602 506.042 49.9543 505.163 50.4751C504.292 50.9878 503.214 51.2441 501.928 51.2441ZM501.635 39.4033C501.179 39.4033 500.748 39.4888 500.341 39.6597C499.934 39.8224 499.568 40.0625 499.242 40.3799C498.917 40.7054 498.64 41.1042 498.412 41.5762C498.192 42.04 498.038 42.5771 497.948 43.1875H505.053V43.0776C505.053 42.6707 504.975 42.2354 504.821 41.7715C504.666 41.2995 504.451 40.8926 504.174 40.5508C503.897 40.209 503.547 39.9323 503.124 39.7207C502.709 39.5091 502.213 39.4033 501.635 39.4033ZM521.459 51H519.201V45.3604H512.756V51H510.498V37.792H512.756V43.5171H519.201V37.792H521.459V51ZM533.716 37.792H535.974V51H533.716V41.2588L527.258 51H525.012V37.792H527.258V47.5454L533.716 37.792ZM545.472 51.2441C544.544 51.2441 543.689 51.0854 542.908 50.7681C542.135 50.4507 541.472 50.0072 540.918 49.4375C540.365 48.8678 539.934 48.1924 539.625 47.4111C539.315 46.6299 539.161 45.7795 539.161 44.8599V44.3472C539.161 43.2811 539.332 42.3289 539.673 41.4907C540.015 40.6444 540.471 39.9282 541.041 39.3423C541.602 38.7645 542.241 38.321 542.957 38.0117C543.681 37.7025 544.422 37.5479 545.179 37.5479C546.131 37.5479 546.961 37.7147 547.669 38.0483C548.385 38.3739 548.979 38.8255 549.451 39.4033C549.923 39.9893 550.273 40.6769 550.501 41.4663C550.737 42.2557 550.855 43.1102 550.855 44.0298V45.043H541.419V45.1284C541.476 45.7713 541.602 46.3369 541.797 46.8252C542.001 47.3135 542.278 47.7448 542.627 48.1191C542.986 48.5179 543.417 48.8312 543.921 49.0591C544.426 49.2869 544.983 49.4009 545.594 49.4009C546.399 49.4009 547.116 49.2381 547.742 48.9126C548.369 48.5871 548.89 48.1558 549.305 47.6187L550.684 48.6929C550.245 49.3602 549.585 49.9543 548.707 50.4751C547.836 50.9878 546.757 51.2441 545.472 51.2441ZM545.179 39.4033C544.723 39.4033 544.292 39.4888 543.885 39.6597C543.478 39.8224 543.112 40.0625 542.786 40.3799C542.461 40.7054 542.184 41.1042 541.956 41.5762C541.736 42.04 541.582 42.5771 541.492 43.1875H548.597V43.0776C548.597 42.6707 548.519 42.2354 548.365 41.7715C548.21 41.2995 547.994 40.8926 547.718 40.5508C547.441 40.209 547.091 39.9323 546.668 39.7207C546.253 39.5091 545.757 39.4033 545.179 39.4033ZM564.454 48.6074L554.103 43.981V42.1987L564.454 37.5845V39.9771L556.983 42.9067L556.336 43.1143L556.983 43.334L564.454 46.2148V48.6074ZM571.645 52.5259H569.618L577.04 33.2266H579.054L571.645 52.5259ZM626.773 48.5952V46.2515L634.671 43.2729L635.404 43.0654L634.671 42.8335L626.773 39.9038V37.5723L637.552 42.1865V43.9688L626.773 48.5952ZM41.9268 81.6074L31.5752 76.981V75.1987L41.9268 70.5845V72.9771L34.4561 75.9067L33.8091 76.1143L34.4561 76.334L41.9268 79.2148V81.6074ZM109.825 82.4131C110.232 82.4131 110.626 82.348 111.009 82.2178C111.399 82.0876 111.745 81.9045 112.046 81.6685C112.347 81.4406 112.588 81.172 112.767 80.8628C112.954 80.5454 113.051 80.2036 113.06 79.8374H115.196C115.188 80.4233 115.033 80.9849 114.732 81.522C114.439 82.0509 114.044 82.5148 113.548 82.9136C113.051 83.3205 112.482 83.646 111.839 83.8901C111.196 84.1261 110.525 84.2441 109.825 84.2441C108.824 84.2441 107.949 84.0651 107.2 83.707C106.451 83.349 105.829 82.8647 105.333 82.2544C104.828 81.6522 104.45 80.9564 104.197 80.167C103.945 79.3695 103.819 78.5312 103.819 77.6523V77.1396C103.819 76.2689 103.945 75.4347 104.197 74.6372C104.45 73.8397 104.828 73.1357 105.333 72.5254C105.829 71.9232 106.451 71.443 107.2 71.085C107.949 70.7269 108.824 70.5479 109.825 70.5479C110.606 70.5479 111.322 70.674 111.973 70.9263C112.632 71.1704 113.202 71.5041 113.682 71.9272C114.154 72.3586 114.524 72.8672 114.793 73.4531C115.062 74.0391 115.196 74.6657 115.196 75.333H113.06C113.051 74.9342 112.962 74.5599 112.791 74.21C112.628 73.8519 112.404 73.5386 112.12 73.27C111.835 73.0015 111.493 72.7899 111.094 72.6353C110.704 72.4806 110.28 72.4033 109.825 72.4033C109.125 72.4033 108.535 72.5457 108.055 72.8306C107.583 73.1073 107.2 73.4694 106.907 73.917C106.614 74.3727 106.403 74.8813 106.272 75.4429C106.15 76.0044 106.089 76.57 106.089 77.1396V77.6523C106.089 78.2301 106.15 78.8039 106.272 79.3735C106.403 79.9351 106.614 80.4396 106.907 80.8872C107.192 81.3429 107.57 81.7132 108.042 81.998C108.523 82.2747 109.117 82.4131 109.825 82.4131ZM119.066 65.25H125.816V82.0469H130.125V84H119.066V82.0469H123.558V67.2153H119.066V65.25ZM141.906 84C141.816 83.8291 141.743 83.6175 141.686 83.3652C141.637 83.1048 141.601 82.8363 141.576 82.5596C141.348 82.7874 141.092 83.0031 140.807 83.2065C140.53 83.41 140.225 83.589 139.892 83.7437C139.55 83.8983 139.188 84.0203 138.805 84.1099C138.423 84.1994 138.016 84.2441 137.584 84.2441C136.885 84.2441 136.25 84.1424 135.68 83.939C135.119 83.7355 134.643 83.4588 134.252 83.1089C133.853 82.7671 133.544 82.3602 133.324 81.8882C133.113 81.408 133.007 80.8913 133.007 80.3379C133.007 79.6136 133.149 78.9788 133.434 78.4336C133.727 77.8883 134.138 77.4326 134.667 77.0664C135.196 76.7083 135.831 76.4398 136.571 76.2607C137.32 76.0817 138.154 75.9922 139.074 75.9922H141.54V74.9546C141.54 74.5558 141.466 74.1978 141.32 73.8804C141.173 73.563 140.966 73.2904 140.697 73.0625C140.429 72.8428 140.099 72.6719 139.708 72.5498C139.326 72.4277 138.895 72.3667 138.415 72.3667C137.967 72.3667 137.564 72.4237 137.206 72.5376C136.856 72.6515 136.559 72.8021 136.315 72.9893C136.071 73.1764 135.88 73.4002 135.741 73.6606C135.611 73.9129 135.546 74.1774 135.546 74.4541H133.275C133.284 73.974 133.406 73.502 133.642 73.0381C133.886 72.5742 134.236 72.1551 134.691 71.7808C135.139 71.4146 135.684 71.1175 136.327 70.8896C136.978 70.6618 137.715 70.5479 138.537 70.5479C139.285 70.5479 139.981 70.6414 140.624 70.8286C141.267 71.0076 141.824 71.2803 142.296 71.6465C142.76 72.0208 143.126 72.4847 143.395 73.0381C143.664 73.5915 143.798 74.2384 143.798 74.979V81.1191C143.798 81.5586 143.839 82.0265 143.92 82.5229C144.001 83.0112 144.115 83.4385 144.262 83.8047V84H141.906ZM137.914 82.2788C138.354 82.2788 138.764 82.2218 139.147 82.1079C139.529 81.994 139.879 81.8434 140.197 81.6562C140.506 81.4691 140.775 81.2575 141.002 81.0215C141.23 80.7773 141.409 80.5251 141.54 80.2646V77.5913H139.44C138.659 77.5913 137.975 77.6605 137.389 77.7988C136.811 77.929 136.352 78.1325 136.01 78.4092C135.766 78.6045 135.578 78.8364 135.448 79.105C135.326 79.3735 135.265 79.6787 135.265 80.0205C135.265 80.346 135.318 80.6471 135.424 80.9238C135.538 81.2005 135.705 81.4365 135.924 81.6318C136.144 81.8353 136.421 81.994 136.754 82.1079C137.088 82.2218 137.475 82.2788 137.914 82.2788ZM156.518 80.4966C156.518 80.228 156.465 79.988 156.359 79.7764C156.254 79.5566 156.075 79.3573 155.822 79.1782C155.57 78.9992 155.236 78.8364 154.821 78.6899C154.406 78.5353 153.889 78.397 153.271 78.2749C152.514 78.1203 151.822 77.9331 151.196 77.7134C150.577 77.4937 150.048 77.2292 149.609 76.9199C149.161 76.6188 148.815 76.2648 148.571 75.8579C148.327 75.4429 148.205 74.9627 148.205 74.4175C148.205 73.8804 148.331 73.3799 148.583 72.916C148.836 72.444 149.19 72.033 149.646 71.6831C150.101 71.3332 150.642 71.0565 151.269 70.853C151.904 70.6496 152.6 70.5479 153.356 70.5479C154.17 70.5479 154.903 70.6536 155.554 70.8652C156.205 71.0768 156.758 71.3698 157.214 71.7441C157.67 72.1185 158.02 72.5579 158.264 73.0625C158.516 73.5589 158.642 74.096 158.642 74.6738H156.384C156.384 74.389 156.311 74.1123 156.164 73.8438C156.018 73.5671 155.814 73.3229 155.554 73.1113C155.293 72.8997 154.976 72.7288 154.602 72.5986C154.235 72.4684 153.82 72.4033 153.356 72.4033C152.876 72.4033 152.453 72.4562 152.087 72.562C151.729 72.6678 151.432 72.8102 151.196 72.9893C150.952 73.1683 150.769 73.3758 150.646 73.6118C150.524 73.8478 150.463 74.092 150.463 74.3442C150.463 74.6047 150.512 74.8366 150.61 75.04C150.708 75.2435 150.878 75.4266 151.123 75.5894C151.359 75.7521 151.676 75.8986 152.075 76.0288C152.482 76.159 152.994 76.2852 153.613 76.4072C154.427 76.5781 155.155 76.7775 155.798 77.0054C156.441 77.2251 156.982 77.4896 157.421 77.7988C157.861 78.1162 158.194 78.4824 158.422 78.8975C158.658 79.3125 158.776 79.7926 158.776 80.3379C158.776 80.9238 158.642 81.4569 158.374 81.937C158.113 82.4172 157.747 82.8281 157.275 83.1699C156.803 83.5117 156.237 83.7762 155.578 83.9634C154.919 84.1506 154.199 84.2441 153.417 84.2441C152.522 84.2441 151.725 84.1261 151.025 83.8901C150.325 83.646 149.735 83.3245 149.255 82.9258C148.767 82.5352 148.392 82.0794 148.132 81.5586C147.88 81.0378 147.753 80.4966 147.753 79.9351H150.012C150.044 80.3989 150.166 80.7896 150.378 81.1069C150.598 81.4243 150.87 81.6807 151.196 81.876C151.513 82.0713 151.867 82.2096 152.258 82.291C152.648 82.3724 153.035 82.4131 153.417 82.4131C154.02 82.4131 154.545 82.3439 154.992 82.2056C155.44 82.0591 155.79 81.8597 156.042 81.6074C156.197 81.4528 156.315 81.2819 156.396 81.0947C156.477 80.9076 156.518 80.7082 156.518 80.4966ZM171.033 80.4966C171.033 80.228 170.98 79.988 170.874 79.7764C170.768 79.5566 170.589 79.3573 170.337 79.1782C170.085 78.9992 169.751 78.8364 169.336 78.6899C168.921 78.5353 168.404 78.397 167.786 78.2749C167.029 78.1203 166.337 77.9331 165.71 77.7134C165.092 77.4937 164.563 77.2292 164.124 76.9199C163.676 76.6188 163.33 76.2648 163.086 75.8579C162.842 75.4429 162.72 74.9627 162.72 74.4175C162.72 73.8804 162.846 73.3799 163.098 72.916C163.35 72.444 163.704 72.033 164.16 71.6831C164.616 71.3332 165.157 71.0565 165.784 70.853C166.418 70.6496 167.114 70.5479 167.871 70.5479C168.685 70.5479 169.417 70.6536 170.068 70.8652C170.719 71.0768 171.273 71.3698 171.729 71.7441C172.184 72.1185 172.534 72.5579 172.778 73.0625C173.031 73.5589 173.157 74.096 173.157 74.6738H170.898C170.898 74.389 170.825 74.1123 170.679 73.8438C170.532 73.5671 170.329 73.3229 170.068 73.1113C169.808 72.8997 169.491 72.7288 169.116 72.5986C168.75 72.4684 168.335 72.4033 167.871 72.4033C167.391 72.4033 166.968 72.4562 166.602 72.562C166.243 72.6678 165.946 72.8102 165.71 72.9893C165.466 73.1683 165.283 73.3758 165.161 73.6118C165.039 73.8478 164.978 74.092 164.978 74.3442C164.978 74.6047 165.027 74.8366 165.125 75.04C165.222 75.2435 165.393 75.4266 165.637 75.5894C165.873 75.7521 166.191 75.8986 166.589 76.0288C166.996 76.159 167.509 76.2852 168.127 76.4072C168.941 76.5781 169.67 76.7775 170.312 77.0054C170.955 77.2251 171.497 77.4896 171.936 77.7988C172.375 78.1162 172.709 78.4824 172.937 78.8975C173.173 79.3125 173.291 79.7926 173.291 80.3379C173.291 80.9238 173.157 81.4569 172.888 81.937C172.628 82.4172 172.262 82.8281 171.79 83.1699C171.318 83.5117 170.752 83.7762 170.093 83.9634C169.434 84.1506 168.713 84.2441 167.932 84.2441C167.037 84.2441 166.239 84.1261 165.54 83.8901C164.84 83.646 164.25 83.3245 163.77 82.9258C163.281 82.5352 162.907 82.0794 162.646 81.5586C162.394 81.0378 162.268 80.4966 162.268 79.9351H164.526C164.559 80.3989 164.681 80.7896 164.893 81.1069C165.112 81.4243 165.385 81.6807 165.71 81.876C166.028 82.0713 166.382 82.2096 166.772 82.291C167.163 82.3724 167.55 82.4131 167.932 82.4131C168.534 82.4131 169.059 82.3439 169.507 82.2056C169.954 82.0591 170.304 81.8597 170.557 81.6074C170.711 81.4528 170.829 81.2819 170.911 81.0947C170.992 80.9076 171.033 80.7082 171.033 80.4966ZM187.659 74.4785H176.758V72.5132H187.659V74.4785ZM187.659 79.5444H176.758V77.5913H187.659V79.5444ZM195.326 66.5806L195.069 71.0972H193.482L193.495 66.7759V65.25H195.326V66.5806ZM199.684 66.5806L199.427 71.0972H197.853L197.865 66.7759V65.25H199.696L199.684 66.5806ZM456.589 66.5806L456.333 71.0972H454.746L454.758 66.7759V65.25H456.589V66.5806ZM460.947 66.5806L460.691 71.0972H459.116L459.128 66.7759V65.25H460.959L460.947 66.5806ZM467.112 81.5952V79.2515L475.01 76.2729L475.743 76.0654L475.01 75.8335L467.112 72.9038V70.5723L477.891 75.1865V76.9688L467.112 81.5952ZM493.138 76.1387C493.13 76.7734 493.073 77.4163 492.967 78.0674C492.87 78.7103 492.715 79.3328 492.503 79.9351C492.292 80.5373 492.019 81.0988 491.686 81.6196C491.36 82.1405 490.969 82.5962 490.514 82.9868C490.058 83.3774 489.533 83.6867 488.939 83.9146C488.353 84.1343 487.694 84.2441 486.961 84.2441C486.229 84.2441 485.566 84.1343 484.972 83.9146C484.386 83.6867 483.865 83.3774 483.409 82.9868C482.953 82.5962 482.559 82.1405 482.225 81.6196C481.891 81.0907 481.619 80.5251 481.407 79.9229C481.188 79.3206 481.025 78.6981 480.919 78.0552C480.813 77.4123 480.756 76.7734 480.748 76.1387V74.1123C480.756 73.4775 480.809 72.8387 480.907 72.1958C481.013 71.5448 481.175 70.9181 481.395 70.3159C481.607 69.7137 481.875 69.1522 482.201 68.6313C482.534 68.1024 482.929 67.6385 483.385 67.2397C483.84 66.8491 484.361 66.5439 484.947 66.3242C485.541 66.0964 486.205 65.9824 486.937 65.9824C487.669 65.9824 488.333 66.0964 488.927 66.3242C489.521 66.5439 490.046 66.8491 490.501 67.2397C490.957 67.6304 491.348 68.0902 491.673 68.6191C492.007 69.14 492.284 69.7015 492.503 70.3037C492.715 70.9059 492.87 71.5326 492.967 72.1836C493.073 72.8346 493.13 73.4775 493.138 74.1123V76.1387ZM490.904 74.0879C490.896 73.6647 490.868 73.2253 490.819 72.7695C490.77 72.3057 490.689 71.8459 490.575 71.3901C490.453 70.9425 490.294 70.5153 490.099 70.1084C489.903 69.6934 489.659 69.3271 489.366 69.0098C489.073 68.7005 488.727 68.4564 488.329 68.2773C487.93 68.0902 487.466 67.9966 486.937 67.9966C486.416 67.9966 485.956 68.0902 485.558 68.2773C485.159 68.4645 484.813 68.7127 484.52 69.022C484.227 69.3394 483.983 69.7056 483.788 70.1206C483.592 70.5275 483.438 70.9548 483.324 71.4023C483.202 71.8581 483.112 72.3179 483.055 72.7817C483.006 73.2375 482.978 73.6729 482.97 74.0879V76.1387C482.978 76.5537 483.006 76.9932 483.055 77.457C483.112 77.9209 483.202 78.3766 483.324 78.8242C483.446 79.2799 483.604 79.7153 483.8 80.1304C483.995 80.5454 484.239 80.9076 484.532 81.2168C484.825 81.5342 485.171 81.7865 485.57 81.9736C485.969 82.1608 486.432 82.2544 486.961 82.2544C487.49 82.2544 487.954 82.1608 488.353 81.9736C488.76 81.7865 489.11 81.5342 489.403 81.2168C489.688 80.9076 489.924 80.5495 490.111 80.1426C490.306 79.7275 490.465 79.2922 490.587 78.8364C490.701 78.3888 490.778 77.9331 490.819 77.4692C490.868 77.0054 490.896 76.5618 490.904 76.1387V74.0879ZM497.802 70.792V82.1567H500.341V70.792H502.599V82.1567H505.138V70.792H507.396V84H495.543V70.792H497.802ZM519.201 70.792H521.459V84H519.201V74.2588L512.744 84H510.498V70.792H512.744V80.5454L519.201 70.792ZM534.998 77.1519H525.659V75.2964H534.998V77.1519ZM541.529 75.7969H542.737C543.445 75.7969 544.072 75.8986 544.617 76.1021C545.171 76.3055 545.634 76.5863 546.009 76.9443C546.375 77.3105 546.652 77.7419 546.839 78.2383C547.034 78.7347 547.132 79.2718 547.132 79.8496C547.132 80.4274 547.034 80.9686 546.839 81.4731C546.652 81.9777 546.375 82.4172 546.009 82.7915C545.634 83.1659 545.175 83.4629 544.629 83.6826C544.084 83.8942 543.453 84 542.737 84H539.271V70.792H541.529V75.7969ZM550.782 84H548.523V70.792H550.782V84ZM541.529 77.6401V82.1567H542.737C543.12 82.1567 543.445 82.0957 543.714 81.9736C543.982 81.8434 544.202 81.6725 544.373 81.4609C544.536 81.2575 544.654 81.0256 544.727 80.7651C544.808 80.4966 544.849 80.2199 544.849 79.9351C544.849 79.6665 544.808 79.3979 544.727 79.1294C544.654 78.8527 544.536 78.6045 544.373 78.3848C544.202 78.165 543.982 77.986 543.714 77.8477C543.445 77.7093 543.12 77.6401 542.737 77.6401H541.529ZM564.027 77.1519H554.688V75.2964H564.027V77.1519ZM570.558 75.7969H571.767C572.475 75.7969 573.101 75.8986 573.646 76.1021C574.2 76.3055 574.664 76.5863 575.038 76.9443C575.404 77.3105 575.681 77.7419 575.868 78.2383C576.063 78.7347 576.161 79.2718 576.161 79.8496C576.161 80.4274 576.063 80.9686 575.868 81.4731C575.681 81.9777 575.404 82.4172 575.038 82.7915C574.664 83.1659 574.204 83.4629 573.659 83.6826C573.113 83.8942 572.483 84 571.767 84H568.3V70.792H570.558V75.7969ZM579.811 84H577.553V70.792H579.811V84ZM570.558 77.6401V82.1567H571.767C572.149 82.1567 572.475 82.0957 572.743 81.9736C573.012 81.8434 573.231 81.6725 573.402 81.4609C573.565 81.2575 573.683 81.0256 573.756 80.7651C573.838 80.4966 573.878 80.2199 573.878 79.9351C573.878 79.6665 573.838 79.3979 573.756 79.1294C573.683 78.8527 573.565 78.6045 573.402 78.3848C573.231 78.165 573.012 77.986 572.743 77.8477C572.475 77.7093 572.149 77.6401 571.767 77.6401H570.558ZM593.056 77.1519H583.718V75.2964H593.056V77.1519ZM603.457 71.5488C604.32 71.5488 605.089 71.7035 605.764 72.0127C606.44 72.3138 607.013 72.7288 607.485 73.2578C607.957 73.7949 608.315 74.4297 608.56 75.1621C608.812 75.8864 608.938 76.6758 608.938 77.5303V77.811C608.938 78.7306 608.804 79.5811 608.535 80.3623C608.275 81.1436 607.892 81.8231 607.388 82.4009C606.883 82.9787 606.265 83.4303 605.532 83.7559C604.808 84.0814 603.982 84.2441 603.054 84.2441C602.126 84.2441 601.296 84.0814 600.564 83.7559C599.832 83.4303 599.213 82.9787 598.708 82.4009C598.204 81.8231 597.817 81.1436 597.549 80.3623C597.28 79.5811 597.146 78.7306 597.146 77.811V76.6025C597.146 75.8376 597.183 75.1214 597.256 74.4541C597.337 73.7786 597.451 73.1561 597.598 72.5864C597.736 72.0575 597.903 71.5651 598.098 71.1094C598.293 70.6536 598.517 70.2345 598.77 69.8521C599.282 69.0708 599.905 68.4482 600.637 67.9844C601.378 67.5124 602.2 67.1909 603.103 67.02C603.534 66.9386 603.933 66.8532 604.299 66.7637C604.674 66.666 604.999 66.5439 605.276 66.3975C605.544 66.2591 605.756 66.0841 605.911 65.8726C606.065 65.6528 606.143 65.3761 606.143 65.0425H607.998C607.998 65.7993 607.88 66.4097 607.644 66.8735C607.416 67.3374 607.095 67.7077 606.68 67.9844C606.313 68.2285 605.907 68.4116 605.459 68.5337C605.02 68.6558 604.397 68.8022 603.591 68.9731C603.022 69.0952 602.489 69.2661 601.992 69.4858C601.496 69.6974 601.052 69.9863 600.662 70.3525C600.271 70.7188 599.941 71.1704 599.673 71.7075C599.404 72.2365 599.209 72.8753 599.087 73.624C599.347 73.3229 599.636 73.0462 599.954 72.7939C600.271 72.5335 600.613 72.3097 600.979 72.1226C601.345 71.9435 601.736 71.8052 602.151 71.7075C602.566 71.6017 603.001 71.5488 603.457 71.5488ZM603.03 73.4043C602.411 73.4043 601.874 73.5182 601.418 73.7461C600.963 73.9658 600.588 74.2629 600.295 74.6372C599.994 75.0197 599.771 75.4591 599.624 75.9556C599.478 76.452 599.404 76.9769 599.404 77.5303V77.811C599.404 78.4295 599.478 79.0195 599.624 79.5811C599.771 80.1344 599.994 80.6187 600.295 81.0337C600.588 81.4569 600.963 81.7946 601.418 82.0469C601.882 82.291 602.428 82.4131 603.054 82.4131C603.673 82.4131 604.206 82.291 604.653 82.0469C605.109 81.7946 605.487 81.4569 605.789 81.0337C606.09 80.6187 606.313 80.1344 606.46 79.5811C606.606 79.0195 606.68 78.4295 606.68 77.811V77.5303C606.68 76.9769 606.606 76.452 606.46 75.9556C606.313 75.4591 606.09 75.0197 605.789 74.6372C605.487 74.2629 605.105 73.9658 604.641 73.7461C604.185 73.5182 603.648 73.4043 603.03 73.4043ZM616.495 78.3726H614.346V84H612.088V70.792H614.346V76.3828H616.299L621.219 70.792H623.965L618.301 77.1519L624.405 84H621.536L616.495 78.3726ZM635.404 84C635.314 83.8291 635.241 83.6175 635.184 83.3652C635.135 83.1048 635.099 82.8363 635.074 82.5596C634.846 82.7874 634.59 83.0031 634.305 83.2065C634.028 83.41 633.723 83.589 633.39 83.7437C633.048 83.8983 632.686 84.0203 632.303 84.1099C631.921 84.1994 631.514 84.2441 631.083 84.2441C630.383 84.2441 629.748 84.1424 629.178 83.939C628.617 83.7355 628.141 83.4588 627.75 83.1089C627.351 82.7671 627.042 82.3602 626.822 81.8882C626.611 81.408 626.505 80.8913 626.505 80.3379C626.505 79.6136 626.647 78.9788 626.932 78.4336C627.225 77.8883 627.636 77.4326 628.165 77.0664C628.694 76.7083 629.329 76.4398 630.069 76.2607C630.818 76.0817 631.652 75.9922 632.572 75.9922H635.038V74.9546C635.038 74.5558 634.964 74.1978 634.818 73.8804C634.671 73.563 634.464 73.2904 634.195 73.0625C633.927 72.8428 633.597 72.6719 633.207 72.5498C632.824 72.4277 632.393 72.3667 631.913 72.3667C631.465 72.3667 631.062 72.4237 630.704 72.5376C630.354 72.6515 630.057 72.8021 629.813 72.9893C629.569 73.1764 629.378 73.4002 629.239 73.6606C629.109 73.9129 629.044 74.1774 629.044 74.4541H626.773C626.782 73.974 626.904 73.502 627.14 73.0381C627.384 72.5742 627.734 72.1551 628.189 71.7808C628.637 71.4146 629.182 71.1175 629.825 70.8896C630.476 70.6618 631.213 70.5479 632.035 70.5479C632.783 70.5479 633.479 70.6414 634.122 70.8286C634.765 71.0076 635.322 71.2803 635.794 71.6465C636.258 72.0208 636.625 72.4847 636.893 73.0381C637.162 73.5915 637.296 74.2384 637.296 74.979V81.1191C637.296 81.5586 637.337 82.0265 637.418 82.5229C637.499 83.0112 637.613 83.4385 637.76 83.8047V84H635.404ZM631.412 82.2788C631.852 82.2788 632.263 82.2218 632.645 82.1079C633.028 81.994 633.377 81.8434 633.695 81.6562C634.004 81.4691 634.273 81.2575 634.5 81.0215C634.728 80.7773 634.907 80.5251 635.038 80.2646V77.5913H632.938C632.157 77.5913 631.473 77.6605 630.887 77.7988C630.309 77.929 629.85 78.1325 629.508 78.4092C629.264 78.6045 629.076 78.8364 628.946 79.105C628.824 79.3735 628.763 79.6787 628.763 80.0205C628.763 80.346 628.816 80.6471 628.922 80.9238C629.036 81.2005 629.203 81.4365 629.422 81.6318C629.642 81.8353 629.919 81.994 630.252 82.1079C630.586 82.2218 630.973 82.2788 631.412 82.2788ZM647.538 78.2505H645.268V66.2266H647.538V78.2505ZM645.048 82.8159C645.048 82.4253 645.162 82.0998 645.39 81.8394C645.626 81.5789 645.976 81.4487 646.439 81.4487C646.903 81.4487 647.253 81.5789 647.489 81.8394C647.733 82.0998 647.855 82.4253 647.855 82.8159C647.855 83.1903 647.733 83.5036 647.489 83.7559C647.253 84.0081 646.903 84.1343 646.439 84.1343C645.976 84.1343 645.626 84.0081 645.39 83.7559C645.162 83.5036 645.048 83.1903 645.048 82.8159ZM670.244 84V66.2266H675.53C676.262 66.2347 676.978 66.3324 677.678 66.5195C678.378 66.6986 679.001 66.9793 679.546 67.3618C680.091 67.7443 680.527 68.2326 680.852 68.8267C681.178 69.4207 681.336 70.1328 681.328 70.9629C681.32 71.4268 681.243 71.8499 681.096 72.2324C680.958 72.6149 680.767 72.9567 680.522 73.2578C680.27 73.5671 679.989 73.8275 679.68 74.0391C679.379 74.2507 679.013 74.45 678.582 74.6372V74.6738C679.029 74.7796 679.46 74.9709 679.875 75.2476C680.291 75.5243 680.632 75.8294 680.901 76.1631C681.186 76.5293 681.405 76.9403 681.56 77.396C681.723 77.8517 681.804 78.3441 681.804 78.873C681.812 79.7031 681.654 80.4355 681.328 81.0703C681.003 81.7051 680.567 82.234 680.022 82.6572C679.477 83.0885 678.846 83.4181 678.13 83.646C677.422 83.8739 676.689 83.9919 675.933 84H670.244ZM672.515 75.687V82.0835H675.994C676.466 82.0754 676.913 81.998 677.336 81.8516C677.76 81.6969 678.134 81.4854 678.459 81.2168C678.785 80.9482 679.041 80.6187 679.229 80.228C679.424 79.8374 679.521 79.3939 679.521 78.8975C679.53 78.3929 679.444 77.9453 679.265 77.5547C679.094 77.1641 678.854 76.8304 678.545 76.5537C678.236 76.2852 677.874 76.0776 677.458 75.9312C677.043 75.7847 676.596 75.7033 676.116 75.687H672.515ZM672.515 73.8071H675.664C676.087 73.799 676.502 73.7339 676.909 73.6118C677.316 73.4816 677.678 73.2944 677.996 73.0503C678.313 72.8143 678.569 72.5213 678.765 72.1714C678.96 71.8215 679.058 71.4146 679.058 70.9507C679.058 70.4543 678.96 70.0311 678.765 69.6812C678.577 69.3312 678.325 69.0423 678.008 68.8145C677.682 68.5947 677.308 68.432 676.885 68.3262C676.47 68.2204 676.042 68.1634 675.603 68.1553H672.515V73.8071ZM690.411 82.4131C690.818 82.4131 691.212 82.348 691.595 82.2178C691.985 82.0876 692.331 81.9045 692.632 81.6685C692.933 81.4406 693.174 81.172 693.353 80.8628C693.54 80.5454 693.637 80.2036 693.646 79.8374H695.782C695.774 80.4233 695.619 80.9849 695.318 81.522C695.025 82.0509 694.63 82.5148 694.134 82.9136C693.637 83.3205 693.068 83.646 692.425 83.8901C691.782 84.1261 691.111 84.2441 690.411 84.2441C689.41 84.2441 688.535 84.0651 687.786 83.707C687.037 83.349 686.415 82.8647 685.918 82.2544C685.414 81.6522 685.035 80.9564 684.783 80.167C684.531 79.3695 684.405 78.5312 684.405 77.6523V77.1396C684.405 76.2689 684.531 75.4347 684.783 74.6372C685.035 73.8397 685.414 73.1357 685.918 72.5254C686.415 71.9232 687.037 71.443 687.786 71.085C688.535 70.7269 689.41 70.5479 690.411 70.5479C691.192 70.5479 691.908 70.674 692.559 70.9263C693.218 71.1704 693.788 71.5041 694.268 71.9272C694.74 72.3586 695.11 72.8672 695.379 73.4531C695.647 74.0391 695.782 74.6657 695.782 75.333H693.646C693.637 74.9342 693.548 74.5599 693.377 74.21C693.214 73.8519 692.99 73.5386 692.706 73.27C692.421 73.0015 692.079 72.7899 691.68 72.6353C691.29 72.4806 690.866 72.4033 690.411 72.4033C689.711 72.4033 689.121 72.5457 688.641 72.8306C688.169 73.1073 687.786 73.4694 687.493 73.917C687.2 74.3727 686.989 74.8813 686.858 75.4429C686.736 76.0044 686.675 76.57 686.675 77.1396V77.6523C686.675 78.2301 686.736 78.8039 686.858 79.3735C686.989 79.9351 687.2 80.4396 687.493 80.8872C687.778 81.3429 688.156 81.7132 688.628 81.998C689.109 82.2747 689.703 82.4131 690.411 82.4131ZM705.133 84.2441C704.205 84.2441 703.351 84.0854 702.569 83.7681C701.796 83.4507 701.133 83.0072 700.58 82.4375C700.026 81.8678 699.595 81.1924 699.286 80.4111C698.976 79.6299 698.822 78.7795 698.822 77.8599V77.3472C698.822 76.2811 698.993 75.3289 699.334 74.4907C699.676 73.6444 700.132 72.9282 700.702 72.3423C701.263 71.7645 701.902 71.321 702.618 71.0117C703.342 70.7025 704.083 70.5479 704.84 70.5479C705.792 70.5479 706.622 70.7147 707.33 71.0483C708.046 71.3739 708.64 71.8255 709.112 72.4033C709.584 72.9893 709.934 73.6769 710.162 74.4663C710.398 75.2557 710.516 76.1102 710.516 77.0298V78.043H701.08V78.1284C701.137 78.7713 701.263 79.3369 701.458 79.8252C701.662 80.3135 701.939 80.7448 702.289 81.1191C702.647 81.5179 703.078 81.8312 703.583 82.0591C704.087 82.2869 704.645 82.4009 705.255 82.4009C706.061 82.4009 706.777 82.2381 707.403 81.9126C708.03 81.5871 708.551 81.1558 708.966 80.6187L710.345 81.6929C709.906 82.3602 709.247 82.9543 708.368 83.4751C707.497 83.9878 706.419 84.2441 705.133 84.2441ZM704.84 72.4033C704.384 72.4033 703.953 72.4888 703.546 72.6597C703.139 72.8224 702.773 73.0625 702.447 73.3799C702.122 73.7054 701.845 74.1042 701.617 74.5762C701.397 75.04 701.243 75.5771 701.153 76.1875H708.258V76.0776C708.258 75.6707 708.181 75.2354 708.026 74.7715C707.871 74.2995 707.656 73.8926 707.379 73.5508C707.102 73.209 706.752 72.9323 706.329 72.7207C705.914 72.5091 705.418 72.4033 704.84 72.4033ZM700.75 66.9468C700.75 66.5806 700.86 66.2754 701.08 66.0312C701.308 65.779 701.642 65.6528 702.081 65.6528C702.521 65.6528 702.854 65.779 703.082 66.0312C703.31 66.2754 703.424 66.5806 703.424 66.9468C703.424 67.313 703.31 67.6182 703.082 67.8623C702.854 68.1064 702.521 68.2285 702.081 68.2285C701.642 68.2285 701.308 68.1064 701.08 67.8623C700.86 67.6182 700.75 67.313 700.75 66.9468ZM706 66.9712C706 66.605 706.109 66.2957 706.329 66.0435C706.557 65.7912 706.891 65.665 707.33 65.665C707.77 65.665 708.103 65.7912 708.331 66.0435C708.559 66.2957 708.673 66.605 708.673 66.9712C708.673 67.3293 708.559 67.6344 708.331 67.8867C708.103 68.1309 707.77 68.2529 707.33 68.2529C706.891 68.2529 706.557 68.1309 706.329 67.8867C706.109 67.6344 706 67.3293 706 66.9712ZM739.179 84H736.921V72.6597H730.476V84H728.217V70.792H739.179V84ZM742.83 89.0781V70.792H744.893L745.002 72.2324C745.181 72.0046 745.377 71.8011 745.588 71.6221C745.8 71.4349 746.028 71.2762 746.272 71.146C746.614 70.9507 746.992 70.8042 747.407 70.7065C747.83 70.6007 748.282 70.5479 748.762 70.5479C749.609 70.5479 750.357 70.7147 751.008 71.0483C751.659 71.382 752.205 71.8459 752.644 72.4399C753.083 73.034 753.417 73.7461 753.645 74.5762C753.873 75.3981 753.987 76.3014 753.987 77.2861V77.5425C753.987 78.4865 753.873 79.3695 753.645 80.1914C753.417 81.0052 753.083 81.7132 752.644 82.3154C752.205 82.9176 751.659 83.3896 751.008 83.7314C750.365 84.0732 749.629 84.2441 748.799 84.2441C748.294 84.2441 747.822 84.1912 747.383 84.0854C746.951 83.9797 746.561 83.8291 746.211 83.6338C745.999 83.5117 745.8 83.3774 745.613 83.231C745.426 83.0763 745.251 82.9095 745.088 82.7305V89.0781H742.83ZM751.729 77.2861C751.729 76.6432 751.655 76.0329 751.509 75.4551C751.37 74.8691 751.155 74.3524 750.862 73.9048C750.561 73.4653 750.182 73.1154 749.727 72.855C749.271 72.5946 748.726 72.4644 748.091 72.4644C747.741 72.4644 747.415 72.505 747.114 72.5864C746.821 72.6678 746.557 72.7858 746.321 72.9404C746.06 73.0951 745.828 73.2863 745.625 73.5142C745.422 73.742 745.243 73.9943 745.088 74.271V80.6309C745.226 80.875 745.385 81.1029 745.564 81.3145C745.743 81.526 745.946 81.7051 746.174 81.8516C746.435 82.0225 746.724 82.1567 747.041 82.2544C747.367 82.3521 747.725 82.4009 748.115 82.4009C748.742 82.4009 749.283 82.2707 749.739 82.0103C750.194 81.7417 750.569 81.3836 750.862 80.936C751.155 80.4884 751.37 79.9717 751.509 79.3857C751.655 78.7998 751.729 78.1854 751.729 77.5425V77.2861ZM756.722 77.2739C756.722 76.3218 756.86 75.4388 757.137 74.625C757.413 73.8031 757.812 73.091 758.333 72.4888C758.846 71.8866 759.472 71.4146 760.213 71.0728C760.953 70.7228 761.788 70.5479 762.715 70.5479C763.651 70.5479 764.489 70.7228 765.23 71.0728C765.979 71.4146 766.613 71.8866 767.134 72.4888C767.647 73.091 768.042 73.8031 768.318 74.625C768.595 75.4388 768.733 76.3218 768.733 77.2739V77.5425C768.733 78.4946 768.595 79.3776 768.318 80.1914C768.042 81.0052 767.647 81.7132 767.134 82.3154C766.613 82.9176 765.983 83.3896 765.242 83.7314C764.502 84.0732 763.667 84.2441 762.74 84.2441C761.804 84.2441 760.962 84.0732 760.213 83.7314C759.472 83.3896 758.846 82.9176 758.333 82.3154C757.812 81.7132 757.413 81.0052 757.137 80.1914C756.86 79.3776 756.722 78.4946 756.722 77.5425V77.2739ZM758.98 77.5425C758.98 78.1935 759.057 78.8161 759.212 79.4102C759.367 79.9961 759.603 80.5129 759.92 80.9604C760.229 81.408 760.62 81.762 761.092 82.0225C761.564 82.2829 762.113 82.4131 762.74 82.4131C763.358 82.4131 763.899 82.2829 764.363 82.0225C764.835 81.762 765.23 81.408 765.547 80.9604C765.857 80.5129 766.089 79.9961 766.243 79.4102C766.398 78.8161 766.475 78.1935 766.475 77.5425V77.2739C766.475 76.631 766.394 76.0166 766.231 75.4307C766.076 74.8366 765.844 74.3158 765.535 73.8682C765.218 73.4206 764.823 73.0666 764.351 72.8062C763.887 72.5376 763.342 72.4033 762.715 72.4033C762.089 72.4033 761.543 72.5376 761.08 72.8062C760.616 73.0666 760.229 73.4206 759.92 73.8682C759.603 74.3158 759.367 74.8366 759.212 75.4307C759.057 76.0166 758.98 76.631 758.98 77.2739V77.5425ZM782.723 84H780.465V72.6597H774.02V84H771.761V70.792H782.723V84ZM795.065 84C794.975 83.8291 794.902 83.6175 794.845 83.3652C794.796 83.1048 794.76 82.8363 794.735 82.5596C794.507 82.7874 794.251 83.0031 793.966 83.2065C793.69 83.41 793.384 83.589 793.051 83.7437C792.709 83.8983 792.347 84.0203 791.964 84.1099C791.582 84.1994 791.175 84.2441 790.744 84.2441C790.044 84.2441 789.409 84.1424 788.839 83.939C788.278 83.7355 787.802 83.4588 787.411 83.1089C787.012 82.7671 786.703 82.3602 786.483 81.8882C786.272 81.408 786.166 80.8913 786.166 80.3379C786.166 79.6136 786.308 78.9788 786.593 78.4336C786.886 77.8883 787.297 77.4326 787.826 77.0664C788.355 76.7083 788.99 76.4398 789.73 76.2607C790.479 76.0817 791.313 75.9922 792.233 75.9922H794.699V74.9546C794.699 74.5558 794.625 74.1978 794.479 73.8804C794.333 73.563 794.125 73.2904 793.856 73.0625C793.588 72.8428 793.258 72.6719 792.868 72.5498C792.485 72.4277 792.054 72.3667 791.574 72.3667C791.126 72.3667 790.723 72.4237 790.365 72.5376C790.015 72.6515 789.718 72.8021 789.474 72.9893C789.23 73.1764 789.039 73.4002 788.9 73.6606C788.77 73.9129 788.705 74.1774 788.705 74.4541H786.435C786.443 73.974 786.565 73.502 786.801 73.0381C787.045 72.5742 787.395 72.1551 787.851 71.7808C788.298 71.4146 788.843 71.1175 789.486 70.8896C790.137 70.6618 790.874 70.5479 791.696 70.5479C792.444 70.5479 793.14 70.6414 793.783 70.8286C794.426 71.0076 794.984 71.2803 795.456 71.6465C795.919 72.0208 796.286 72.4847 796.554 73.0381C796.823 73.5915 796.957 74.2384 796.957 74.979V81.1191C796.957 81.5586 796.998 82.0265 797.079 82.5229C797.16 83.0112 797.274 83.4385 797.421 83.8047V84H795.065ZM791.073 82.2788C791.513 82.2788 791.924 82.2218 792.306 82.1079C792.689 81.994 793.039 81.8434 793.356 81.6562C793.665 81.4691 793.934 81.2575 794.162 81.0215C794.389 80.7773 794.569 80.5251 794.699 80.2646V77.5913H792.599C791.818 77.5913 791.134 77.6605 790.548 77.7988C789.971 77.929 789.511 78.1325 789.169 78.4092C788.925 78.6045 788.738 78.8364 788.607 79.105C788.485 79.3735 788.424 79.6787 788.424 80.0205C788.424 80.346 788.477 80.6471 788.583 80.9238C788.697 81.2005 788.864 81.4365 789.083 81.6318C789.303 81.8353 789.58 81.994 789.914 82.1079C790.247 82.2218 790.634 82.2788 791.073 82.2788ZM810.776 77.1519H801.438V75.2964H810.776V77.1519ZM824.094 84C824.005 83.8291 823.931 83.6175 823.875 83.3652C823.826 83.1048 823.789 82.8363 823.765 82.5596C823.537 82.7874 823.28 83.0031 822.996 83.2065C822.719 83.41 822.414 83.589 822.08 83.7437C821.738 83.8983 821.376 84.0203 820.994 84.1099C820.611 84.1994 820.204 84.2441 819.773 84.2441C819.073 84.2441 818.438 84.1424 817.869 83.939C817.307 83.7355 816.831 83.4588 816.44 83.1089C816.042 82.7671 815.732 82.3602 815.513 81.8882C815.301 81.408 815.195 80.8913 815.195 80.3379C815.195 79.6136 815.338 78.9788 815.623 78.4336C815.916 77.8883 816.326 77.4326 816.855 77.0664C817.384 76.7083 818.019 76.4398 818.76 76.2607C819.508 76.0817 820.343 75.9922 821.262 75.9922H823.728V74.9546C823.728 74.5558 823.655 74.1978 823.508 73.8804C823.362 73.563 823.154 73.2904 822.886 73.0625C822.617 72.8428 822.288 72.6719 821.897 72.5498C821.514 72.4277 821.083 72.3667 820.603 72.3667C820.155 72.3667 819.753 72.4237 819.395 72.5376C819.045 72.6515 818.748 72.8021 818.503 72.9893C818.259 73.1764 818.068 73.4002 817.93 73.6606C817.799 73.9129 817.734 74.1774 817.734 74.4541H815.464C815.472 73.974 815.594 73.502 815.83 73.0381C816.074 72.5742 816.424 72.1551 816.88 71.7808C817.327 71.4146 817.873 71.1175 818.516 70.8896C819.167 70.6618 819.903 70.5479 820.725 70.5479C821.474 70.5479 822.17 70.6414 822.812 70.8286C823.455 71.0076 824.013 71.2803 824.485 71.6465C824.949 72.0208 825.315 72.4847 825.583 73.0381C825.852 73.5915 825.986 74.2384 825.986 74.979V81.1191C825.986 81.5586 826.027 82.0265 826.108 82.5229C826.19 83.0112 826.304 83.4385 826.45 83.8047V84H824.094ZM820.103 82.2788C820.542 82.2788 820.953 82.2218 821.335 82.1079C821.718 81.994 822.068 81.8434 822.385 81.6562C822.694 81.4691 822.963 81.2575 823.191 81.0215C823.419 80.7773 823.598 80.5251 823.728 80.2646V77.5913H821.628C820.847 77.5913 820.164 77.6605 819.578 77.7988C819 77.929 818.54 78.1325 818.198 78.4092C817.954 78.6045 817.767 78.8364 817.637 79.105C817.515 79.3735 817.454 79.6787 817.454 80.0205C817.454 80.346 817.507 80.6471 817.612 80.9238C817.726 81.2005 817.893 81.4365 818.113 81.6318C818.333 81.8353 818.609 81.994 818.943 82.1079C819.277 82.2218 819.663 82.2788 820.103 82.2788ZM839.805 77.1519H830.467V75.2964H839.805V77.1519ZM853.124 84C853.034 83.8291 852.961 83.6175 852.904 83.3652C852.855 83.1048 852.818 82.8363 852.794 82.5596C852.566 82.7874 852.31 83.0031 852.025 83.2065C851.748 83.41 851.443 83.589 851.109 83.7437C850.768 83.8983 850.405 84.0203 850.023 84.1099C849.64 84.1994 849.234 84.2441 848.802 84.2441C848.102 84.2441 847.468 84.1424 846.898 83.939C846.336 83.7355 845.86 83.4588 845.47 83.1089C845.071 82.7671 844.762 82.3602 844.542 81.8882C844.33 81.408 844.225 80.8913 844.225 80.3379C844.225 79.6136 844.367 78.9788 844.652 78.4336C844.945 77.8883 845.356 77.4326 845.885 77.0664C846.414 76.7083 847.049 76.4398 847.789 76.2607C848.538 76.0817 849.372 75.9922 850.292 75.9922H852.757V74.9546C852.757 74.5558 852.684 74.1978 852.538 73.8804C852.391 73.563 852.184 73.2904 851.915 73.0625C851.646 72.8428 851.317 72.6719 850.926 72.5498C850.544 72.4277 850.112 72.3667 849.632 72.3667C849.185 72.3667 848.782 72.4237 848.424 72.5376C848.074 72.6515 847.777 72.8021 847.533 72.9893C847.289 73.1764 847.097 73.4002 846.959 73.6606C846.829 73.9129 846.764 74.1774 846.764 74.4541H844.493C844.501 73.974 844.623 73.502 844.859 73.0381C845.104 72.5742 845.453 72.1551 845.909 71.7808C846.357 71.4146 846.902 71.1175 847.545 70.8896C848.196 70.6618 848.932 70.5479 849.754 70.5479C850.503 70.5479 851.199 70.6414 851.842 70.8286C852.485 71.0076 853.042 71.2803 853.514 71.6465C853.978 72.0208 854.344 72.4847 854.613 73.0381C854.881 73.5915 855.016 74.2384 855.016 74.979V81.1191C855.016 81.5586 855.056 82.0265 855.138 82.5229C855.219 83.0112 855.333 83.4385 855.479 83.8047V84H853.124ZM849.132 82.2788C849.571 82.2788 849.982 82.2218 850.365 82.1079C850.747 81.994 851.097 81.8434 851.415 81.6562C851.724 81.4691 851.992 81.2575 852.22 81.0215C852.448 80.7773 852.627 80.5251 852.757 80.2646V77.5913H850.658C849.876 77.5913 849.193 77.6605 848.607 77.7988C848.029 77.929 847.569 78.1325 847.228 78.4092C846.983 78.6045 846.796 78.8364 846.666 79.105C846.544 79.3735 846.483 79.6787 846.483 80.0205C846.483 80.346 846.536 80.6471 846.642 80.9238C846.756 81.2005 846.922 81.4365 847.142 81.6318C847.362 81.8353 847.639 81.994 847.972 82.1079C848.306 82.2218 848.692 82.2788 849.132 82.2788ZM868.834 77.1519H859.496V75.2964H868.834V77.1519ZM884.313 70.792V84H882.043V72.6597H877.185L877.172 76.4438C877.172 76.8914 877.16 77.3268 877.136 77.75C877.119 78.165 877.091 78.5597 877.05 78.9341C876.985 79.5526 876.883 80.1222 876.745 80.6431C876.607 81.1639 876.432 81.6237 876.22 82.0225C875.878 82.6654 875.419 83.1577 874.841 83.4995C874.263 83.8332 873.543 84 872.68 84H872.021L872.058 81.9858L872.558 81.9736C873.022 81.9736 873.404 81.8597 873.706 81.6318C874.015 81.3958 874.259 81.0459 874.438 80.582C874.528 80.3298 874.605 80.0409 874.67 79.7153C874.735 79.3817 874.788 79.0155 874.829 78.6167C874.853 78.2993 874.869 77.9616 874.877 77.6035C874.894 77.2373 874.902 76.8507 874.902 76.4438L874.926 70.792H884.313ZM887.354 77.2739C887.354 76.3218 887.492 75.4388 887.769 74.625C888.045 73.8031 888.444 73.091 888.965 72.4888C889.478 71.8866 890.104 71.4146 890.845 71.0728C891.585 70.7228 892.419 70.5479 893.347 70.5479C894.283 70.5479 895.121 70.7228 895.862 71.0728C896.611 71.4146 897.245 71.8866 897.766 72.4888C898.279 73.091 898.674 73.8031 898.95 74.625C899.227 75.4388 899.365 76.3218 899.365 77.2739V77.5425C899.365 78.4946 899.227 79.3776 898.95 80.1914C898.674 81.0052 898.279 81.7132 897.766 82.3154C897.245 82.9176 896.615 83.3896 895.874 83.7314C895.133 84.0732 894.299 84.2441 893.372 84.2441C892.436 84.2441 891.593 84.0732 890.845 83.7314C890.104 83.3896 889.478 82.9176 888.965 82.3154C888.444 81.7132 888.045 81.0052 887.769 80.1914C887.492 79.3776 887.354 78.4946 887.354 77.5425V77.2739ZM889.612 77.5425C889.612 78.1935 889.689 78.8161 889.844 79.4102C889.998 79.9961 890.234 80.5129 890.552 80.9604C890.861 81.408 891.252 81.762 891.724 82.0225C892.196 82.2829 892.745 82.4131 893.372 82.4131C893.99 82.4131 894.531 82.2829 894.995 82.0225C895.467 81.762 895.862 81.408 896.179 80.9604C896.488 80.5129 896.72 79.9961 896.875 79.4102C897.03 78.8161 897.107 78.1935 897.107 77.5425V77.2739C897.107 76.631 897.026 76.0166 896.863 75.4307C896.708 74.8366 896.476 74.3158 896.167 73.8682C895.85 73.4206 895.455 73.0666 894.983 72.8062C894.519 72.5376 893.974 72.4033 893.347 72.4033C892.721 72.4033 892.175 72.5376 891.711 72.8062C891.248 73.0666 890.861 73.4206 890.552 73.8682C890.234 74.3158 889.998 74.8366 889.844 75.4307C889.689 76.0166 889.612 76.631 889.612 77.2739V77.5425ZM908.802 78.2505H906.531V66.2266H908.802V78.2505ZM906.312 82.8159C906.312 82.4253 906.425 82.0998 906.653 81.8394C906.889 81.5789 907.239 81.4487 907.703 81.4487C908.167 81.4487 908.517 81.5789 908.753 81.8394C908.997 82.0998 909.119 82.4253 909.119 82.8159C909.119 83.1903 908.997 83.5036 908.753 83.7559C908.517 84.0081 908.167 84.1343 907.703 84.1343C907.239 84.1343 906.889 84.0081 906.653 83.7559C906.425 83.5036 906.312 83.1903 906.312 82.8159ZM927.32 81.6074L916.969 76.981V75.1987L927.32 70.5845V72.9771L919.85 75.9067L919.203 76.1143L919.85 76.334L927.32 79.2148V81.6074ZM934.511 85.5259H932.484L939.906 66.2266H941.92L934.511 85.5259ZM989.64 81.5952V79.2515L997.538 76.2729L998.27 76.0654L997.538 75.8335L989.64 72.9038V70.5723L1000.42 75.1865V76.9688L989.64 81.5952Z" fill="white"/>
<path d="M45.7114 44.2861C45.7114 43.3014 45.8335 42.3981 46.0776 41.5762C46.3299 40.7461 46.688 40.034 47.1519 39.4399C47.6076 38.8459 48.161 38.382 48.812 38.0483C49.4631 37.7147 50.1914 37.5479 50.9971 37.5479C51.7865 37.5479 52.4741 37.6821 53.0601 37.9507C53.6541 38.2111 54.1668 38.5936 54.5981 39.0981V32.25H56.8564V51H54.7812L54.6836 49.6084C54.2441 50.1455 53.7192 50.5524 53.1089 50.8291C52.4985 51.1058 51.7865 51.2441 50.9727 51.2441C50.1751 51.2441 49.4508 51.0732 48.7998 50.7314C48.1569 50.3896 47.6076 49.9176 47.1519 49.3154C46.6961 48.7132 46.3421 48.0052 46.0898 47.1914C45.8376 46.3695 45.7114 45.4865 45.7114 44.5425V44.2861ZM47.9697 44.5425C47.9697 45.1854 48.0389 45.7957 48.1772 46.3735C48.3156 46.9513 48.5312 47.46 48.8242 47.8994C49.109 48.3389 49.4753 48.6888 49.9229 48.9492C50.3704 49.2015 50.9076 49.3276 51.5342 49.3276C52.291 49.3276 52.9176 49.1567 53.4141 48.8149C53.9105 48.4731 54.3052 48.0133 54.5981 47.4355V41.3076C54.3052 40.7705 53.9105 40.3311 53.4141 39.9893C52.9176 39.6393 52.2992 39.4644 51.5586 39.4644C50.9238 39.4644 50.3786 39.5946 49.9229 39.855C49.4753 40.1154 49.109 40.4653 48.8242 40.9048C48.5312 41.3524 48.3156 41.8691 48.1772 42.4551C48.0389 43.0329 47.9697 43.6432 47.9697 44.2861V44.5425ZM61.0073 37.792H67.7578V49.0469H72.0669V51H61.0073V49.0469H65.4995V39.7573H61.0073V37.792ZM65.2065 34.3252C65.2065 34.1299 65.235 33.9468 65.292 33.7759C65.3571 33.605 65.4548 33.4585 65.585 33.3364C65.6908 33.2306 65.825 33.1493 65.9878 33.0923C66.1587 33.0272 66.3499 32.9946 66.5615 32.9946C66.7731 32.9946 66.9603 33.0272 67.123 33.0923C67.2858 33.1493 67.4201 33.2306 67.5259 33.3364C67.6561 33.4504 67.7537 33.5928 67.8188 33.7637C67.884 33.9346 67.9165 34.1217 67.9165 34.3252C67.9165 34.6914 67.8026 34.9966 67.5747 35.2407C67.3468 35.4849 67.0091 35.6069 66.5615 35.6069C66.1058 35.6069 65.764 35.4849 65.5361 35.2407C65.3164 34.9966 65.2065 34.6914 65.2065 34.3252ZM79.6724 51L74.2402 37.792H76.5596L80.3438 47.7529L80.5513 48.5708L80.771 47.7529L84.4697 37.792H86.7769L81.3936 51H79.6724ZM214.479 51C214.389 50.8291 214.316 50.6175 214.259 50.3652C214.21 50.1048 214.174 49.8363 214.149 49.5596C213.922 49.7874 213.665 50.0031 213.38 50.2065C213.104 50.41 212.799 50.589 212.465 50.7437C212.123 50.8983 211.761 51.0203 211.378 51.1099C210.996 51.1994 210.589 51.2441 210.158 51.2441C209.458 51.2441 208.823 51.1424 208.253 50.939C207.692 50.7355 207.216 50.4588 206.825 50.1089C206.426 49.7671 206.117 49.3602 205.897 48.8882C205.686 48.408 205.58 47.8913 205.58 47.3379C205.58 46.6136 205.722 45.9788 206.007 45.4336C206.3 44.8883 206.711 44.4326 207.24 44.0664C207.769 43.7083 208.404 43.4398 209.145 43.2607C209.893 43.0817 210.727 42.9922 211.647 42.9922H214.113V41.9546C214.113 41.5558 214.04 41.1978 213.893 40.8804C213.747 40.563 213.539 40.2904 213.271 40.0625C213.002 39.8428 212.672 39.6719 212.282 39.5498C211.899 39.4277 211.468 39.3667 210.988 39.3667C210.54 39.3667 210.137 39.4237 209.779 39.5376C209.429 39.6515 209.132 39.8021 208.888 39.9893C208.644 40.1764 208.453 40.4002 208.314 40.6606C208.184 40.9129 208.119 41.1774 208.119 41.4541H205.849C205.857 40.974 205.979 40.502 206.215 40.0381C206.459 39.5742 206.809 39.1551 207.265 38.7808C207.712 38.4146 208.257 38.1175 208.9 37.8896C209.551 37.6618 210.288 37.5479 211.11 37.5479C211.859 37.5479 212.554 37.6414 213.197 37.8286C213.84 38.0076 214.398 38.2803 214.87 38.6465C215.333 39.0208 215.7 39.4847 215.968 40.0381C216.237 40.5915 216.371 41.2384 216.371 41.979V48.1191C216.371 48.5586 216.412 49.0265 216.493 49.5229C216.575 50.0112 216.688 50.4385 216.835 50.8047V51H214.479ZM210.487 49.2788C210.927 49.2788 211.338 49.2218 211.72 49.1079C212.103 48.994 212.453 48.8434 212.77 48.6562C213.079 48.4691 213.348 48.2575 213.576 48.0215C213.804 47.7773 213.983 47.5251 214.113 47.2646V44.5913H212.013C211.232 44.5913 210.548 44.6605 209.962 44.7988C209.385 44.929 208.925 45.1325 208.583 45.4092C208.339 45.6045 208.152 45.8364 208.021 46.105C207.899 46.3735 207.838 46.6787 207.838 47.0205C207.838 47.346 207.891 47.6471 207.997 47.9238C208.111 48.2005 208.278 48.4365 208.498 48.6318C208.717 48.8353 208.994 48.994 209.328 49.1079C209.661 49.2218 210.048 49.2788 210.487 49.2788ZM220.668 32.25H227.419V49.0469H231.728V51H220.668V49.0469H225.161V34.2153H220.668V32.25ZM240.664 51.2441C239.736 51.2441 238.882 51.0854 238.101 50.7681C237.327 50.4507 236.664 50.0072 236.111 49.4375C235.557 48.8678 235.126 48.1924 234.817 47.4111C234.508 46.6299 234.353 45.7795 234.353 44.8599V44.3472C234.353 43.2811 234.524 42.3289 234.866 41.4907C235.208 40.6444 235.663 39.9282 236.233 39.3423C236.794 38.7645 237.433 38.321 238.149 38.0117C238.874 37.7025 239.614 37.5479 240.371 37.5479C241.323 37.5479 242.153 37.7147 242.861 38.0483C243.577 38.3739 244.172 38.8255 244.644 39.4033C245.116 39.9893 245.465 40.6769 245.693 41.4663C245.929 42.2557 246.047 43.1102 246.047 44.0298V45.043H236.611V45.1284C236.668 45.7713 236.794 46.3369 236.99 46.8252C237.193 47.3135 237.47 47.7448 237.82 48.1191C238.178 48.5179 238.609 48.8312 239.114 49.0591C239.618 49.2869 240.176 49.4009 240.786 49.4009C241.592 49.4009 242.308 49.2381 242.935 48.9126C243.561 48.5871 244.082 48.1558 244.497 47.6187L245.876 48.6929C245.437 49.3602 244.778 49.9543 243.899 50.4751C243.028 50.9878 241.95 51.2441 240.664 51.2441ZM240.371 39.4033C239.915 39.4033 239.484 39.4888 239.077 39.6597C238.67 39.8224 238.304 40.0625 237.979 40.3799C237.653 40.7054 237.376 41.1042 237.148 41.5762C236.929 42.04 236.774 42.5771 236.685 43.1875H243.789V43.0776C243.789 42.6707 243.712 42.2354 243.557 41.7715C243.403 41.2995 243.187 40.8926 242.91 40.5508C242.633 40.209 242.284 39.9323 241.86 39.7207C241.445 39.5091 240.949 39.4033 240.371 39.4033ZM257.999 37.5479C258.414 37.5479 258.845 37.5763 259.292 37.6333C259.748 37.6903 260.09 37.7676 260.318 37.8652L260.013 40.0747C259.573 39.9771 259.154 39.9079 258.755 39.8672C258.365 39.8184 257.954 39.7939 257.522 39.7939C256.969 39.7939 256.469 39.8631 256.021 40.0015C255.573 40.1317 255.183 40.327 254.849 40.5874C254.548 40.8153 254.284 41.096 254.056 41.4297C253.836 41.7552 253.653 42.1214 253.506 42.5283V51H251.236V37.792H253.384L253.482 39.562L253.494 39.8916C254.031 39.1673 254.674 38.5977 255.423 38.1826C256.18 37.7594 257.038 37.5479 257.999 37.5479ZM269.205 34.5938V37.792H274.234V39.5376H269.205V46.7153C269.205 47.228 269.27 47.6512 269.4 47.9849C269.531 48.3185 269.71 48.583 269.938 48.7783C270.165 48.9818 270.426 49.1242 270.719 49.2056C271.02 49.2869 271.337 49.3276 271.671 49.3276C271.915 49.3276 272.167 49.3154 272.428 49.291C272.688 49.2585 272.944 49.2218 273.197 49.1812C273.441 49.1405 273.669 49.0998 273.88 49.0591C274.1 49.0103 274.279 48.9696 274.417 48.937L274.735 50.5361C274.548 50.6501 274.32 50.7518 274.051 50.8413C273.783 50.9227 273.49 50.9919 273.172 51.0488C272.855 51.1139 272.517 51.1628 272.159 51.1953C271.809 51.2279 271.459 51.2441 271.109 51.2441C270.523 51.2441 269.974 51.1628 269.461 51C268.957 50.8291 268.517 50.5605 268.143 50.1943C267.769 49.8363 267.472 49.3724 267.252 48.8027C267.04 48.2249 266.935 47.5291 266.935 46.7153V39.5376H263.468V37.792H266.935V34.5938H269.205ZM582.753 44.2861C582.753 43.3014 582.875 42.3981 583.12 41.5762C583.372 40.7461 583.73 40.034 584.194 39.4399C584.65 38.8459 585.203 38.382 585.854 38.0483C586.505 37.7147 587.233 37.5479 588.039 37.5479C588.828 37.5479 589.516 37.6821 590.102 37.9507C590.696 38.2111 591.209 38.5936 591.64 39.0981V32.25H593.898V51H591.823L591.726 49.6084C591.286 50.1455 590.761 50.5524 590.151 50.8291C589.541 51.1058 588.828 51.2441 588.015 51.2441C587.217 51.2441 586.493 51.0732 585.842 50.7314C585.199 50.3896 584.65 49.9176 584.194 49.3154C583.738 48.7132 583.384 48.0052 583.132 47.1914C582.88 46.3695 582.753 45.4865 582.753 44.5425V44.2861ZM585.012 44.5425C585.012 45.1854 585.081 45.7957 585.219 46.3735C585.358 46.9513 585.573 47.46 585.866 47.8994C586.151 48.3389 586.517 48.6888 586.965 48.9492C587.412 49.2015 587.95 49.3276 588.576 49.3276C589.333 49.3276 589.96 49.1567 590.456 48.8149C590.952 48.4731 591.347 48.0133 591.64 47.4355V41.3076C591.347 40.7705 590.952 40.3311 590.456 39.9893C589.96 39.6393 589.341 39.4644 588.601 39.4644C587.966 39.4644 587.421 39.5946 586.965 39.855C586.517 40.1154 586.151 40.4653 585.866 40.9048C585.573 41.3524 585.358 41.8691 585.219 42.4551C585.081 43.0329 585.012 43.6432 585.012 44.2861V44.5425ZM598.049 37.792H604.8V49.0469H609.109V51H598.049V49.0469H602.542V39.7573H598.049V37.792ZM602.249 34.3252C602.249 34.1299 602.277 33.9468 602.334 33.7759C602.399 33.605 602.497 33.4585 602.627 33.3364C602.733 33.2306 602.867 33.1493 603.03 33.0923C603.201 33.0272 603.392 32.9946 603.604 32.9946C603.815 32.9946 604.002 33.0272 604.165 33.0923C604.328 33.1493 604.462 33.2306 604.568 33.3364C604.698 33.4504 604.796 33.5928 604.861 33.7637C604.926 33.9346 604.958 34.1217 604.958 34.3252C604.958 34.6914 604.845 34.9966 604.617 35.2407C604.389 35.4849 604.051 35.6069 603.604 35.6069C603.148 35.6069 602.806 35.4849 602.578 35.2407C602.358 34.9966 602.249 34.6914 602.249 34.3252ZM616.714 51L611.282 37.792H613.602L617.386 47.7529L617.593 48.5708L617.813 47.7529L621.512 37.792H623.819L618.436 51H616.714ZM45.7114 77.2861C45.7114 76.3014 45.8335 75.3981 46.0776 74.5762C46.3299 73.7461 46.688 73.034 47.1519 72.4399C47.6076 71.8459 48.161 71.382 48.812 71.0483C49.4631 70.7147 50.1914 70.5479 50.9971 70.5479C51.7865 70.5479 52.4741 70.6821 53.0601 70.9507C53.6541 71.2111 54.1668 71.5936 54.5981 72.0981V65.25H56.8564V84H54.7812L54.6836 82.6084C54.2441 83.1455 53.7192 83.5524 53.1089 83.8291C52.4985 84.1058 51.7865 84.2441 50.9727 84.2441C50.1751 84.2441 49.4508 84.0732 48.7998 83.7314C48.1569 83.3896 47.6076 82.9176 47.1519 82.3154C46.6961 81.7132 46.3421 81.0052 46.0898 80.1914C45.8376 79.3695 45.7114 78.4865 45.7114 77.5425V77.2861ZM47.9697 77.5425C47.9697 78.1854 48.0389 78.7957 48.1772 79.3735C48.3156 79.9513 48.5312 80.46 48.8242 80.8994C49.109 81.3389 49.4753 81.6888 49.9229 81.9492C50.3704 82.2015 50.9076 82.3276 51.5342 82.3276C52.291 82.3276 52.9176 82.1567 53.4141 81.8149C53.9105 81.4731 54.3052 81.0133 54.5981 80.4355V74.3076C54.3052 73.7705 53.9105 73.3311 53.4141 72.9893C52.9176 72.6393 52.2992 72.4644 51.5586 72.4644C50.9238 72.4644 50.3786 72.5946 49.9229 72.855C49.4753 73.1154 49.109 73.4653 48.8242 73.9048C48.5312 74.3524 48.3156 74.8691 48.1772 75.4551C48.0389 76.0329 47.9697 76.6432 47.9697 77.2861V77.5425ZM61.0073 70.792H67.7578V82.0469H72.0669V84H61.0073V82.0469H65.4995V72.7573H61.0073V70.792ZM65.2065 67.3252C65.2065 67.1299 65.235 66.9468 65.292 66.7759C65.3571 66.605 65.4548 66.4585 65.585 66.3364C65.6908 66.2306 65.825 66.1493 65.9878 66.0923C66.1587 66.0272 66.3499 65.9946 66.5615 65.9946C66.7731 65.9946 66.9603 66.0272 67.123 66.0923C67.2858 66.1493 67.4201 66.2306 67.5259 66.3364C67.6561 66.4504 67.7537 66.5928 67.8188 66.7637C67.884 66.9346 67.9165 67.1217 67.9165 67.3252C67.9165 67.6914 67.8026 67.9966 67.5747 68.2407C67.3468 68.4849 67.0091 68.6069 66.5615 68.6069C66.1058 68.6069 65.764 68.4849 65.5361 68.2407C65.3164 67.9966 65.2065 67.6914 65.2065 67.3252ZM79.6724 84L74.2402 70.792H76.5596L80.3438 80.7529L80.5513 81.5708L80.771 80.7529L84.4697 70.792H86.7769L81.3936 84H79.6724ZM214.479 84C214.389 83.8291 214.316 83.6175 214.259 83.3652C214.21 83.1048 214.174 82.8363 214.149 82.5596C213.922 82.7874 213.665 83.0031 213.38 83.2065C213.104 83.41 212.799 83.589 212.465 83.7437C212.123 83.8983 211.761 84.0203 211.378 84.1099C210.996 84.1994 210.589 84.2441 210.158 84.2441C209.458 84.2441 208.823 84.1424 208.253 83.939C207.692 83.7355 207.216 83.4588 206.825 83.1089C206.426 82.7671 206.117 82.3602 205.897 81.8882C205.686 81.408 205.58 80.8913 205.58 80.3379C205.58 79.6136 205.722 78.9788 206.007 78.4336C206.3 77.8883 206.711 77.4326 207.24 77.0664C207.769 76.7083 208.404 76.4398 209.145 76.2607C209.893 76.0817 210.727 75.9922 211.647 75.9922H214.113V74.9546C214.113 74.5558 214.04 74.1978 213.893 73.8804C213.747 73.563 213.539 73.2904 213.271 73.0625C213.002 72.8428 212.672 72.6719 212.282 72.5498C211.899 72.4277 211.468 72.3667 210.988 72.3667C210.54 72.3667 210.137 72.4237 209.779 72.5376C209.429 72.6515 209.132 72.8021 208.888 72.9893C208.644 73.1764 208.453 73.4002 208.314 73.6606C208.184 73.9129 208.119 74.1774 208.119 74.4541H205.849C205.857 73.974 205.979 73.502 206.215 73.0381C206.459 72.5742 206.809 72.1551 207.265 71.7808C207.712 71.4146 208.257 71.1175 208.9 70.8896C209.551 70.6618 210.288 70.5479 211.11 70.5479C211.859 70.5479 212.554 70.6414 213.197 70.8286C213.84 71.0076 214.398 71.2803 214.87 71.6465C215.333 72.0208 215.7 72.4847 215.968 73.0381C216.237 73.5915 216.371 74.2384 216.371 74.979V81.1191C216.371 81.5586 216.412 82.0265 216.493 82.5229C216.575 83.0112 216.688 83.4385 216.835 83.8047V84H214.479ZM210.487 82.2788C210.927 82.2788 211.338 82.2218 211.72 82.1079C212.103 81.994 212.453 81.8434 212.77 81.6562C213.079 81.4691 213.348 81.2575 213.576 81.0215C213.804 80.7773 213.983 80.5251 214.113 80.2646V77.5913H212.013C211.232 77.5913 210.548 77.6605 209.962 77.7988C209.385 77.929 208.925 78.1325 208.583 78.4092C208.339 78.6045 208.152 78.8364 208.021 79.105C207.899 79.3735 207.838 79.6787 207.838 80.0205C207.838 80.346 207.891 80.6471 207.997 80.9238C208.111 81.2005 208.278 81.4365 208.498 81.6318C208.717 81.8353 208.994 81.994 209.328 82.1079C209.661 82.2218 210.048 82.2788 210.487 82.2788ZM220.668 65.25H227.419V82.0469H231.728V84H220.668V82.0469H225.161V67.2153H220.668V65.25ZM240.664 84.2441C239.736 84.2441 238.882 84.0854 238.101 83.7681C237.327 83.4507 236.664 83.0072 236.111 82.4375C235.557 81.8678 235.126 81.1924 234.817 80.4111C234.508 79.6299 234.353 78.7795 234.353 77.8599V77.3472C234.353 76.2811 234.524 75.3289 234.866 74.4907C235.208 73.6444 235.663 72.9282 236.233 72.3423C236.794 71.7645 237.433 71.321 238.149 71.0117C238.874 70.7025 239.614 70.5479 240.371 70.5479C241.323 70.5479 242.153 70.7147 242.861 71.0483C243.577 71.3739 244.172 71.8255 244.644 72.4033C245.116 72.9893 245.465 73.6769 245.693 74.4663C245.929 75.2557 246.047 76.1102 246.047 77.0298V78.043H236.611V78.1284C236.668 78.7713 236.794 79.3369 236.99 79.8252C237.193 80.3135 237.47 80.7448 237.82 81.1191C238.178 81.5179 238.609 81.8312 239.114 82.0591C239.618 82.2869 240.176 82.4009 240.786 82.4009C241.592 82.4009 242.308 82.2381 242.935 81.9126C243.561 81.5871 244.082 81.1558 244.497 80.6187L245.876 81.6929C245.437 82.3602 244.778 82.9543 243.899 83.4751C243.028 83.9878 241.95 84.2441 240.664 84.2441ZM240.371 72.4033C239.915 72.4033 239.484 72.4888 239.077 72.6597C238.67 72.8224 238.304 73.0625 237.979 73.3799C237.653 73.7054 237.376 74.1042 237.148 74.5762C236.929 75.04 236.774 75.5771 236.685 76.1875H243.789V76.0776C243.789 75.6707 243.712 75.2354 243.557 74.7715C243.403 74.2995 243.187 73.8926 242.91 73.5508C242.633 73.209 242.284 72.9323 241.86 72.7207C241.445 72.5091 240.949 72.4033 240.371 72.4033ZM257.999 70.5479C258.414 70.5479 258.845 70.5763 259.292 70.6333C259.748 70.6903 260.09 70.7676 260.318 70.8652L260.013 73.0747C259.573 72.9771 259.154 72.9079 258.755 72.8672C258.365 72.8184 257.954 72.7939 257.522 72.7939C256.969 72.7939 256.469 72.8631 256.021 73.0015C255.573 73.1317 255.183 73.327 254.849 73.5874C254.548 73.8153 254.284 74.096 254.056 74.4297C253.836 74.7552 253.653 75.1214 253.506 75.5283V84H251.236V70.792H253.384L253.482 72.562L253.494 72.8916C254.031 72.1673 254.674 71.5977 255.423 71.1826C256.18 70.7594 257.038 70.5479 257.999 70.5479ZM269.205 67.5938V70.792H274.234V72.5376H269.205V79.7153C269.205 80.228 269.27 80.6512 269.4 80.9849C269.531 81.3185 269.71 81.583 269.938 81.7783C270.165 81.9818 270.426 82.1242 270.719 82.2056C271.02 82.2869 271.337 82.3276 271.671 82.3276C271.915 82.3276 272.167 82.3154 272.428 82.291C272.688 82.2585 272.944 82.2218 273.197 82.1812C273.441 82.1405 273.669 82.0998 273.88 82.0591C274.1 82.0103 274.279 81.9696 274.417 81.937L274.735 83.5361C274.548 83.6501 274.32 83.7518 274.051 83.8413C273.783 83.9227 273.49 83.9919 273.172 84.0488C272.855 84.1139 272.517 84.1628 272.159 84.1953C271.809 84.2279 271.459 84.2441 271.109 84.2441C270.523 84.2441 269.974 84.1628 269.461 84C268.957 83.8291 268.517 83.5605 268.143 83.1943C267.769 82.8363 267.472 82.3724 267.252 81.8027C267.04 81.2249 266.935 80.5291 266.935 79.7153V72.5376H263.468V70.792H266.935V67.5938H269.205ZM301.567 84C301.477 83.8291 301.404 83.6175 301.347 83.3652C301.298 83.1048 301.262 82.8363 301.237 82.5596C301.009 82.7874 300.753 83.0031 300.468 83.2065C300.192 83.41 299.886 83.589 299.553 83.7437C299.211 83.8983 298.849 84.0203 298.466 84.1099C298.084 84.1994 297.677 84.2441 297.246 84.2441C296.546 84.2441 295.911 84.1424 295.341 83.939C294.78 83.7355 294.304 83.4588 293.913 83.1089C293.514 82.7671 293.205 82.3602 292.985 81.8882C292.774 81.408 292.668 80.8913 292.668 80.3379C292.668 79.6136 292.81 78.9788 293.095 78.4336C293.388 77.8883 293.799 77.4326 294.328 77.0664C294.857 76.7083 295.492 76.4398 296.232 76.2607C296.981 76.0817 297.815 75.9922 298.735 75.9922H301.201V74.9546C301.201 74.5558 301.127 74.1978 300.981 73.8804C300.834 73.563 300.627 73.2904 300.358 73.0625C300.09 72.8428 299.76 72.6719 299.37 72.5498C298.987 72.4277 298.556 72.3667 298.076 72.3667C297.628 72.3667 297.225 72.4237 296.867 72.5376C296.517 72.6515 296.22 72.8021 295.976 72.9893C295.732 73.1764 295.541 73.4002 295.402 73.6606C295.272 73.9129 295.207 74.1774 295.207 74.4541H292.937C292.945 73.974 293.067 73.502 293.303 73.0381C293.547 72.5742 293.897 72.1551 294.353 71.7808C294.8 71.4146 295.345 71.1175 295.988 70.8896C296.639 70.6618 297.376 70.5479 298.198 70.5479C298.946 70.5479 299.642 70.6414 300.285 70.8286C300.928 71.0076 301.486 71.2803 301.958 71.6465C302.421 72.0208 302.788 72.4847 303.056 73.0381C303.325 73.5915 303.459 74.2384 303.459 74.979V81.1191C303.459 81.5586 303.5 82.0265 303.581 82.5229C303.662 83.0112 303.776 83.4385 303.923 83.8047V84H301.567ZM297.575 82.2788C298.015 82.2788 298.426 82.2218 298.808 82.1079C299.191 81.994 299.541 81.8434 299.858 81.6562C300.167 81.4691 300.436 81.2575 300.664 81.0215C300.891 80.7773 301.07 80.5251 301.201 80.2646V77.5913H299.101C298.32 77.5913 297.636 77.6605 297.05 77.7988C296.472 77.929 296.013 78.1325 295.671 78.4092C295.427 78.6045 295.24 78.8364 295.109 79.105C294.987 79.3735 294.926 79.6787 294.926 80.0205C294.926 80.346 294.979 80.6471 295.085 80.9238C295.199 81.2005 295.366 81.4365 295.585 81.6318C295.805 81.8353 296.082 81.994 296.416 82.1079C296.749 82.2218 297.136 82.2788 297.575 82.2788ZM307.756 65.25H314.507V82.0469H318.816V84H307.756V82.0469H312.249V67.2153H307.756V65.25ZM327.752 84.2441C326.824 84.2441 325.97 84.0854 325.188 83.7681C324.415 83.4507 323.752 83.0072 323.199 82.4375C322.645 81.8678 322.214 81.1924 321.905 80.4111C321.596 79.6299 321.441 78.7795 321.441 77.8599V77.3472C321.441 76.2811 321.612 75.3289 321.954 74.4907C322.295 73.6444 322.751 72.9282 323.321 72.3423C323.882 71.7645 324.521 71.321 325.237 71.0117C325.962 70.7025 326.702 70.5479 327.459 70.5479C328.411 70.5479 329.241 70.7147 329.949 71.0483C330.665 71.3739 331.259 71.8255 331.731 72.4033C332.203 72.9893 332.553 73.6769 332.781 74.4663C333.017 75.2557 333.135 76.1102 333.135 77.0298V78.043H323.699V78.1284C323.756 78.7713 323.882 79.3369 324.078 79.8252C324.281 80.3135 324.558 80.7448 324.908 81.1191C325.266 81.5179 325.697 81.8312 326.202 82.0591C326.706 82.2869 327.264 82.4009 327.874 82.4009C328.68 82.4009 329.396 82.2381 330.022 81.9126C330.649 81.5871 331.17 81.1558 331.585 80.6187L332.964 81.6929C332.525 82.3602 331.866 82.9543 330.987 83.4751C330.116 83.9878 329.038 84.2441 327.752 84.2441ZM327.459 72.4033C327.003 72.4033 326.572 72.4888 326.165 72.6597C325.758 72.8224 325.392 73.0625 325.066 73.3799C324.741 73.7054 324.464 74.1042 324.236 74.5762C324.017 75.04 323.862 75.5771 323.772 76.1875H330.877V76.0776C330.877 75.6707 330.8 75.2354 330.645 74.7715C330.49 74.2995 330.275 73.8926 329.998 73.5508C329.721 73.209 329.371 72.9323 328.948 72.7207C328.533 72.5091 328.037 72.4033 327.459 72.4033ZM345.086 70.5479C345.501 70.5479 345.933 70.5763 346.38 70.6333C346.836 70.6903 347.178 70.7676 347.406 70.8652L347.101 73.0747C346.661 72.9771 346.242 72.9079 345.843 72.8672C345.453 72.8184 345.042 72.7939 344.61 72.7939C344.057 72.7939 343.556 72.8631 343.109 73.0015C342.661 73.1317 342.271 73.327 341.937 73.5874C341.636 73.8153 341.371 74.096 341.144 74.4297C340.924 74.7552 340.741 75.1214 340.594 75.5283V84H338.324V70.792H340.472L340.57 72.562L340.582 72.8916C341.119 72.1673 341.762 71.5977 342.511 71.1826C343.268 70.7594 344.126 70.5479 345.086 70.5479ZM356.293 67.5938V70.792H361.322V72.5376H356.293V79.7153C356.293 80.228 356.358 80.6512 356.488 80.9849C356.618 81.3185 356.798 81.583 357.025 81.7783C357.253 81.9818 357.514 82.1242 357.807 82.2056C358.108 82.2869 358.425 82.3276 358.759 82.3276C359.003 82.3276 359.255 82.3154 359.516 82.291C359.776 82.2585 360.032 82.2218 360.285 82.1812C360.529 82.1405 360.757 82.0998 360.968 82.0591C361.188 82.0103 361.367 81.9696 361.505 81.937L361.823 83.5361C361.636 83.6501 361.408 83.7518 361.139 83.8413C360.871 83.9227 360.578 83.9919 360.26 84.0488C359.943 84.1139 359.605 84.1628 359.247 84.1953C358.897 84.2279 358.547 84.2441 358.197 84.2441C357.611 84.2441 357.062 84.1628 356.549 84C356.045 83.8291 355.605 83.5605 355.231 83.1943C354.857 82.8363 354.56 82.3724 354.34 81.8027C354.128 81.2249 354.022 80.5291 354.022 79.7153V72.5376H350.556V70.792H354.022V67.5938H356.293ZM375.336 77.1519H365.998V75.2964H375.336V77.1519ZM385.811 84.2441C384.883 84.2441 384.028 84.0854 383.247 83.7681C382.474 83.4507 381.811 83.0072 381.257 82.4375C380.704 81.8678 380.273 81.1924 379.963 80.4111C379.654 79.6299 379.5 78.7795 379.5 77.8599V77.3472C379.5 76.2811 379.67 75.3289 380.012 74.4907C380.354 73.6444 380.81 72.9282 381.379 72.3423C381.941 71.7645 382.58 71.321 383.296 71.0117C384.02 70.7025 384.761 70.5479 385.518 70.5479C386.47 70.5479 387.3 70.7147 388.008 71.0483C388.724 71.3739 389.318 71.8255 389.79 72.4033C390.262 72.9893 390.612 73.6769 390.84 74.4663C391.076 75.2557 391.194 76.1102 391.194 77.0298V78.043H381.758V78.1284C381.815 78.7713 381.941 79.3369 382.136 79.8252C382.34 80.3135 382.616 80.7448 382.966 81.1191C383.324 81.5179 383.756 81.8312 384.26 82.0591C384.765 82.2869 385.322 82.4009 385.933 82.4009C386.738 82.4009 387.454 82.2381 388.081 81.9126C388.708 81.5871 389.229 81.1558 389.644 80.6187L391.023 81.6929C390.583 82.3602 389.924 82.9543 389.045 83.4751C388.175 83.9878 387.096 84.2441 385.811 84.2441ZM385.518 72.4033C385.062 72.4033 384.631 72.4888 384.224 72.6597C383.817 72.8224 383.451 73.0625 383.125 73.3799C382.799 73.7054 382.523 74.1042 382.295 74.5762C382.075 75.04 381.921 75.5771 381.831 76.1875H388.936V76.0776C388.936 75.6707 388.858 75.2354 388.704 74.7715C388.549 74.2995 388.333 73.8926 388.057 73.5508C387.78 73.209 387.43 72.9323 387.007 72.7207C386.592 72.5091 386.095 72.4033 385.518 72.4033ZM403.145 70.5479C403.56 70.5479 403.991 70.5763 404.439 70.6333C404.895 70.6903 405.236 70.7676 405.464 70.8652L405.159 73.0747C404.72 72.9771 404.301 72.9079 403.902 72.8672C403.511 72.8184 403.1 72.7939 402.669 72.7939C402.116 72.7939 401.615 72.8631 401.167 73.0015C400.72 73.1317 400.329 73.327 399.996 73.5874C399.694 73.8153 399.43 74.096 399.202 74.4297C398.982 74.7552 398.799 75.1214 398.653 75.5283V84H396.382V70.792H398.531L398.628 72.562L398.641 72.8916C399.178 72.1673 399.821 71.5977 400.569 71.1826C401.326 70.7594 402.185 70.5479 403.145 70.5479ZM417.66 70.5479C418.075 70.5479 418.506 70.5763 418.954 70.6333C419.409 70.6903 419.751 70.7676 419.979 70.8652L419.674 73.0747C419.234 72.9771 418.815 72.9079 418.417 72.8672C418.026 72.8184 417.615 72.7939 417.184 72.7939C416.63 72.7939 416.13 72.8631 415.682 73.0015C415.235 73.1317 414.844 73.327 414.51 73.5874C414.209 73.8153 413.945 74.096 413.717 74.4297C413.497 74.7552 413.314 75.1214 413.167 75.5283V84H410.897V70.792H413.045L413.143 72.562L413.155 72.8916C413.692 72.1673 414.335 71.5977 415.084 71.1826C415.841 70.7594 416.699 70.5479 417.66 70.5479ZM422.885 77.2739C422.885 76.3218 423.023 75.4388 423.3 74.625C423.576 73.8031 423.975 73.091 424.496 72.4888C425.009 71.8866 425.635 71.4146 426.376 71.0728C427.117 70.7228 427.951 70.5479 428.878 70.5479C429.814 70.5479 430.653 70.7228 431.393 71.0728C432.142 71.4146 432.777 71.8866 433.297 72.4888C433.81 73.091 434.205 73.8031 434.481 74.625C434.758 75.4388 434.896 76.3218 434.896 77.2739V77.5425C434.896 78.4946 434.758 79.3776 434.481 80.1914C434.205 81.0052 433.81 81.7132 433.297 82.3154C432.777 82.9176 432.146 83.3896 431.405 83.7314C430.665 84.0732 429.831 84.2441 428.903 84.2441C427.967 84.2441 427.125 84.0732 426.376 83.7314C425.635 83.3896 425.009 82.9176 424.496 82.3154C423.975 81.7132 423.576 81.0052 423.3 80.1914C423.023 79.3776 422.885 78.4946 422.885 77.5425V77.2739ZM425.143 77.5425C425.143 78.1935 425.22 78.8161 425.375 79.4102C425.53 79.9961 425.766 80.5129 426.083 80.9604C426.392 81.408 426.783 81.762 427.255 82.0225C427.727 82.2829 428.276 82.4131 428.903 82.4131C429.521 82.4131 430.062 82.2829 430.526 82.0225C430.998 81.762 431.393 81.408 431.71 80.9604C432.02 80.5129 432.252 79.9961 432.406 79.4102C432.561 78.8161 432.638 78.1935 432.638 77.5425V77.2739C432.638 76.631 432.557 76.0166 432.394 75.4307C432.239 74.8366 432.007 74.3158 431.698 73.8682C431.381 73.4206 430.986 73.0666 430.514 72.8062C430.05 72.5376 429.505 72.4033 428.878 72.4033C428.252 72.4033 427.707 72.5376 427.243 72.8062C426.779 73.0666 426.392 73.4206 426.083 73.8682C425.766 74.3158 425.53 74.8366 425.375 75.4307C425.22 76.0166 425.143 76.631 425.143 77.2739V77.5425ZM446.689 70.5479C447.104 70.5479 447.535 70.5763 447.983 70.6333C448.439 70.6903 448.78 70.7676 449.008 70.8652L448.703 73.0747C448.264 72.9771 447.845 72.9079 447.446 72.8672C447.055 72.8184 446.644 72.7939 446.213 72.7939C445.66 72.7939 445.159 72.8631 444.711 73.0015C444.264 73.1317 443.873 73.327 443.54 73.5874C443.238 73.8153 442.974 74.096 442.746 74.4297C442.526 74.7552 442.343 75.1214 442.197 75.5283V84H439.926V70.792H442.075L442.172 72.562L442.185 72.8916C442.722 72.1673 443.365 71.5977 444.113 71.1826C444.87 70.7594 445.729 70.5479 446.689 70.5479ZM945.62 77.2861C945.62 76.3014 945.742 75.3981 945.986 74.5762C946.238 73.7461 946.596 73.034 947.06 72.4399C947.516 71.8459 948.069 71.382 948.72 71.0483C949.371 70.7147 950.1 70.5479 950.905 70.5479C951.695 70.5479 952.382 70.6821 952.968 70.9507C953.562 71.2111 954.075 71.5936 954.506 72.0981V65.25H956.765V84H954.689L954.592 82.6084C954.152 83.1455 953.627 83.5524 953.017 83.8291C952.407 84.1058 951.695 84.2441 950.881 84.2441C950.083 84.2441 949.359 84.0732 948.708 83.7314C948.065 83.3896 947.516 82.9176 947.06 82.3154C946.604 81.7132 946.25 81.0052 945.998 80.1914C945.746 79.3695 945.62 78.4865 945.62 77.5425V77.2861ZM947.878 77.5425C947.878 78.1854 947.947 78.7957 948.085 79.3735C948.224 79.9513 948.439 80.46 948.732 80.8994C949.017 81.3389 949.383 81.6888 949.831 81.9492C950.279 82.2015 950.816 82.3276 951.442 82.3276C952.199 82.3276 952.826 82.1567 953.322 81.8149C953.819 81.4731 954.213 81.0133 954.506 80.4355V74.3076C954.213 73.7705 953.819 73.3311 953.322 72.9893C952.826 72.6393 952.207 72.4644 951.467 72.4644C950.832 72.4644 950.287 72.5946 949.831 72.855C949.383 73.1154 949.017 73.4653 948.732 73.9048C948.439 74.3524 948.224 74.8691 948.085 75.4551C947.947 76.0329 947.878 76.6432 947.878 77.2861V77.5425ZM960.916 70.792H967.666V82.0469H971.975V84H960.916V82.0469H965.408V72.7573H960.916V70.792ZM965.115 67.3252C965.115 67.1299 965.143 66.9468 965.2 66.7759C965.265 66.605 965.363 66.4585 965.493 66.3364C965.599 66.2306 965.733 66.1493 965.896 66.0923C966.067 66.0272 966.258 65.9946 966.47 65.9946C966.681 65.9946 966.868 66.0272 967.031 66.0923C967.194 66.1493 967.328 66.2306 967.434 66.3364C967.564 66.4504 967.662 66.5928 967.727 66.7637C967.792 66.9346 967.825 67.1217 967.825 67.3252C967.825 67.6914 967.711 67.9966 967.483 68.2407C967.255 68.4849 966.917 68.6069 966.47 68.6069C966.014 68.6069 965.672 68.4849 965.444 68.2407C965.225 67.9966 965.115 67.6914 965.115 67.3252ZM979.581 84L974.148 70.792H976.468L980.252 80.7529L980.459 81.5708L980.679 80.7529L984.378 70.792H986.685L981.302 84H979.581Z" fill="#0066FF"/>
</svg>
