<svg width="1399" height="281" viewBox="0 0 1399 281" fill="none" xmlns="http://www.w3.org/2000/svg">
<rect width="1399" height="281" rx="20" fill="#0066FF" fill-opacity="0.2"/>
<rect x="1.5" y="1.5" width="1396" height="278" rx="18.5" stroke="#0066FF" stroke-opacity="0.5" stroke-width="3"/>
<path d="M52.4268 48.6074L42.0752 43.981V42.1987L52.4268 37.5845V39.9771L44.9561 42.9067L44.3091 43.1143L44.9561 43.334L52.4268 46.2148V48.6074ZM100.231 48.5952V46.2515L108.129 43.2729L108.862 43.0654L108.129 42.8335L100.231 39.9038V37.5723L111.01 42.1865V43.9688L100.231 48.5952ZM81.4561 81.6074L71.1045 76.981V75.1987L81.4561 70.5845V72.9771L73.9854 75.9067L73.3384 76.1143L73.9854 76.334L81.4561 79.2148V81.6074ZM114.746 81.5952V79.2515L122.644 76.2729L123.376 76.0654L122.644 75.8335L114.746 72.9038V70.5723L125.525 75.1865V76.9688L114.746 81.5952ZM110.485 114.607L100.134 109.981V108.199L110.485 103.584V105.977L103.015 108.907L102.368 109.114L103.015 109.334L110.485 112.215V114.607ZM143.775 114.595V112.251L151.673 109.273L152.406 109.065L151.673 108.833L143.775 105.904V103.572L154.554 108.187V109.969L143.775 114.595ZM168.544 114.607L158.192 109.981V108.199L168.544 103.584V105.977L161.073 108.907L160.426 109.114L161.073 109.334L168.544 112.215V114.607ZM204.043 105.757C204.222 105.489 204.422 105.245 204.642 105.025C204.861 104.797 205.093 104.598 205.337 104.427C205.728 104.142 206.155 103.926 206.619 103.78C207.091 103.633 207.592 103.556 208.121 103.548C208.812 103.548 209.439 103.65 210 103.853C210.57 104.048 211.054 104.358 211.453 104.781C211.852 105.204 212.157 105.741 212.369 106.392C212.588 107.035 212.698 107.8 212.698 108.687V117H210.44V108.663C210.44 108.142 210.379 107.686 210.257 107.295C210.135 106.897 209.956 106.567 209.72 106.307C209.467 106.022 209.15 105.81 208.768 105.672C208.385 105.525 207.946 105.456 207.449 105.464C207.042 105.464 206.656 105.521 206.29 105.635C205.923 105.749 205.586 105.912 205.276 106.124C205.032 106.286 204.804 106.478 204.593 106.697C204.389 106.909 204.206 107.145 204.043 107.405V117H201.785V98.25H204.043V105.757ZM224.955 103.548C225.37 103.548 225.801 103.576 226.249 103.633C226.704 103.69 227.046 103.768 227.274 103.865L226.969 106.075C226.529 105.977 226.11 105.908 225.711 105.867C225.321 105.818 224.91 105.794 224.479 105.794C223.925 105.794 223.425 105.863 222.977 106.001C222.529 106.132 222.139 106.327 221.805 106.587C221.504 106.815 221.24 107.096 221.012 107.43C220.792 107.755 220.609 108.121 220.462 108.528V117H218.192V103.792H220.34L220.438 105.562L220.45 105.892C220.987 105.167 221.63 104.598 222.379 104.183C223.136 103.759 223.994 103.548 224.955 103.548ZM236.649 117.244C235.722 117.244 234.867 117.085 234.086 116.768C233.313 116.451 232.65 116.007 232.096 115.438C231.543 114.868 231.111 114.192 230.802 113.411C230.493 112.63 230.338 111.779 230.338 110.86V110.347C230.338 109.281 230.509 108.329 230.851 107.491C231.193 106.644 231.649 105.928 232.218 105.342C232.78 104.764 233.419 104.321 234.135 104.012C234.859 103.702 235.6 103.548 236.356 103.548C237.309 103.548 238.139 103.715 238.847 104.048C239.563 104.374 240.157 104.826 240.629 105.403C241.101 105.989 241.451 106.677 241.679 107.466C241.915 108.256 242.033 109.11 242.033 110.03V111.043H232.597V111.128C232.654 111.771 232.78 112.337 232.975 112.825C233.179 113.313 233.455 113.745 233.805 114.119C234.163 114.518 234.595 114.831 235.099 115.059C235.604 115.287 236.161 115.401 236.771 115.401C237.577 115.401 238.293 115.238 238.92 114.913C239.547 114.587 240.067 114.156 240.482 113.619L241.862 114.693C241.422 115.36 240.763 115.954 239.884 116.475C239.014 116.988 237.935 117.244 236.649 117.244ZM236.356 105.403C235.901 105.403 235.469 105.489 235.062 105.66C234.656 105.822 234.289 106.062 233.964 106.38C233.638 106.705 233.362 107.104 233.134 107.576C232.914 108.04 232.759 108.577 232.67 109.188H239.774V109.078C239.774 108.671 239.697 108.235 239.542 107.771C239.388 107.299 239.172 106.893 238.896 106.551C238.619 106.209 238.269 105.932 237.846 105.721C237.431 105.509 236.934 105.403 236.356 105.403ZM248.698 117V105.538H245.061V103.792H248.698V102.864C248.698 102.018 248.82 101.277 249.064 100.643C249.317 99.9997 249.671 99.4626 250.126 99.0312C250.574 98.5999 251.115 98.2744 251.75 98.0547C252.385 97.835 253.093 97.7251 253.874 97.7251C254.2 97.7251 254.521 97.7454 254.838 97.7861C255.156 97.8187 255.469 97.8634 255.778 97.9204C255.982 97.9611 256.185 98.0059 256.389 98.0547C256.592 98.0954 256.8 98.1442 257.011 98.2012L256.743 100.069C256.409 99.9549 256.018 99.8573 255.571 99.7759C255.131 99.6864 254.659 99.6416 254.155 99.6416C253.642 99.6416 253.186 99.7067 252.788 99.8369C252.397 99.959 252.071 100.146 251.811 100.398C251.534 100.659 251.323 100.997 251.176 101.412C251.038 101.827 250.969 102.311 250.969 102.864V103.792H256.059V105.538H250.969V117H248.698ZM270.732 107.479H259.832V105.513H270.732V107.479ZM270.732 112.544H259.832V110.591H270.732V112.544ZM278.399 99.5806L278.143 104.097H276.556L276.568 99.7759V98.25H278.399V99.5806ZM282.757 99.5806L282.5 104.097H280.926L280.938 99.7759V98.25H282.769L282.757 99.5806ZM295.379 111.995H292.157L291.18 117H289.435L290.411 111.995H287.494V110.323H290.729L291.571 106.001H288.421V104.305H291.9L292.901 99.2266H294.647L293.646 104.305H296.869L297.87 99.2266H299.615L298.614 104.305H301.117V106.001H298.285L297.442 110.323H300.201V111.995H297.125L296.148 117H294.403L295.379 111.995ZM292.474 110.323H295.697L296.539 106.001H293.316L292.474 110.323ZM312.067 117C311.977 116.829 311.904 116.618 311.847 116.365C311.798 116.105 311.762 115.836 311.737 115.56C311.509 115.787 311.253 116.003 310.968 116.207C310.692 116.41 310.386 116.589 310.053 116.744C309.711 116.898 309.349 117.02 308.966 117.11C308.584 117.199 308.177 117.244 307.746 117.244C307.046 117.244 306.411 117.142 305.841 116.939C305.28 116.736 304.804 116.459 304.413 116.109C304.014 115.767 303.705 115.36 303.485 114.888C303.274 114.408 303.168 113.891 303.168 113.338C303.168 112.614 303.31 111.979 303.595 111.434C303.888 110.888 304.299 110.433 304.828 110.066C305.357 109.708 305.992 109.44 306.732 109.261C307.481 109.082 308.315 108.992 309.235 108.992H311.701V107.955C311.701 107.556 311.627 107.198 311.481 106.88C311.334 106.563 311.127 106.29 310.858 106.062C310.59 105.843 310.26 105.672 309.87 105.55C309.487 105.428 309.056 105.367 308.576 105.367C308.128 105.367 307.725 105.424 307.367 105.538C307.017 105.652 306.72 105.802 306.476 105.989C306.232 106.176 306.041 106.4 305.902 106.661C305.772 106.913 305.707 107.177 305.707 107.454H303.437C303.445 106.974 303.567 106.502 303.803 106.038C304.047 105.574 304.397 105.155 304.853 104.781C305.3 104.415 305.845 104.118 306.488 103.89C307.139 103.662 307.876 103.548 308.698 103.548C309.446 103.548 310.142 103.641 310.785 103.829C311.428 104.008 311.986 104.28 312.458 104.646C312.921 105.021 313.288 105.485 313.556 106.038C313.825 106.591 313.959 107.238 313.959 107.979V114.119C313.959 114.559 314 115.027 314.081 115.523C314.162 116.011 314.276 116.438 314.423 116.805V117H312.067ZM308.075 115.279C308.515 115.279 308.926 115.222 309.308 115.108C309.691 114.994 310.041 114.843 310.358 114.656C310.667 114.469 310.936 114.257 311.164 114.021C311.391 113.777 311.57 113.525 311.701 113.265V110.591H309.601C308.82 110.591 308.136 110.66 307.55 110.799C306.972 110.929 306.513 111.132 306.171 111.409C305.927 111.604 305.74 111.836 305.609 112.105C305.487 112.374 305.426 112.679 305.426 113.021C305.426 113.346 305.479 113.647 305.585 113.924C305.699 114.201 305.866 114.437 306.085 114.632C306.305 114.835 306.582 114.994 306.916 115.108C307.249 115.222 307.636 115.279 308.075 115.279ZM329.096 110.542C329.096 111.12 329.051 111.678 328.962 112.215C328.881 112.744 328.758 113.24 328.596 113.704C328.376 114.314 328.087 114.864 327.729 115.352C327.379 115.832 326.956 116.231 326.459 116.548C326.101 116.768 325.707 116.939 325.275 117.061C324.852 117.183 324.392 117.244 323.896 117.244C323.326 117.244 322.806 117.175 322.333 117.037C321.87 116.898 321.451 116.699 321.076 116.438C320.897 116.308 320.726 116.166 320.563 116.011C320.401 115.857 320.246 115.686 320.1 115.499L319.99 117H317.915V98.25H320.173V105.208C320.36 104.972 320.568 104.76 320.795 104.573C321.023 104.378 321.267 104.211 321.528 104.073C321.853 103.902 322.211 103.772 322.602 103.682C322.993 103.593 323.416 103.548 323.872 103.548C324.441 103.548 324.966 103.625 325.446 103.78C325.926 103.934 326.362 104.15 326.752 104.427C327.102 104.687 327.416 105.005 327.692 105.379C327.969 105.745 328.213 106.156 328.425 106.612C328.645 107.125 328.811 107.694 328.925 108.321C329.039 108.939 329.096 109.594 329.096 110.286V110.542ZM326.838 110.286C326.838 109.871 326.809 109.468 326.752 109.078C326.704 108.679 326.626 108.305 326.521 107.955C326.374 107.523 326.183 107.129 325.947 106.771C325.711 106.412 325.422 106.132 325.08 105.928C324.844 105.782 324.58 105.668 324.287 105.586C323.994 105.505 323.668 105.464 323.31 105.464C322.919 105.464 322.561 105.517 322.236 105.623C321.91 105.721 321.621 105.859 321.369 106.038C321.109 106.225 320.877 106.445 320.673 106.697C320.478 106.941 320.311 107.21 320.173 107.503V113.277C320.319 113.57 320.49 113.842 320.686 114.095C320.889 114.339 321.121 114.555 321.381 114.742C321.642 114.929 321.935 115.075 322.26 115.181C322.586 115.279 322.944 115.328 323.334 115.328C323.709 115.328 324.051 115.283 324.36 115.193C324.669 115.096 324.946 114.957 325.19 114.778C325.515 114.55 325.788 114.262 326.008 113.912C326.228 113.562 326.403 113.171 326.533 112.74C326.639 112.414 326.716 112.064 326.765 111.69C326.813 111.316 326.838 110.933 326.838 110.542V110.286ZM331.782 110.274C331.782 109.322 331.921 108.439 332.197 107.625C332.474 106.803 332.873 106.091 333.394 105.489C333.906 104.887 334.533 104.415 335.273 104.073C336.014 103.723 336.848 103.548 337.776 103.548C338.712 103.548 339.55 103.723 340.291 104.073C341.039 104.415 341.674 104.887 342.195 105.489C342.708 106.091 343.102 106.803 343.379 107.625C343.656 108.439 343.794 109.322 343.794 110.274V110.542C343.794 111.495 343.656 112.378 343.379 113.191C343.102 114.005 342.708 114.713 342.195 115.315C341.674 115.918 341.043 116.39 340.303 116.731C339.562 117.073 338.728 117.244 337.8 117.244C336.864 117.244 336.022 117.073 335.273 116.731C334.533 116.39 333.906 115.918 333.394 115.315C332.873 114.713 332.474 114.005 332.197 113.191C331.921 112.378 331.782 111.495 331.782 110.542V110.274ZM334.041 110.542C334.041 111.194 334.118 111.816 334.272 112.41C334.427 112.996 334.663 113.513 334.98 113.96C335.29 114.408 335.68 114.762 336.152 115.022C336.624 115.283 337.174 115.413 337.8 115.413C338.419 115.413 338.96 115.283 339.424 115.022C339.896 114.762 340.291 114.408 340.608 113.96C340.917 113.513 341.149 112.996 341.304 112.41C341.458 111.816 341.536 111.194 341.536 110.542V110.274C341.536 109.631 341.454 109.017 341.292 108.431C341.137 107.837 340.905 107.316 340.596 106.868C340.278 106.421 339.884 106.067 339.412 105.806C338.948 105.538 338.403 105.403 337.776 105.403C337.149 105.403 336.604 105.538 336.14 105.806C335.676 106.067 335.29 106.421 334.98 106.868C334.663 107.316 334.427 107.837 334.272 108.431C334.118 109.017 334.041 109.631 334.041 110.274V110.542ZM355.635 117L355.501 115.181C355.062 115.832 354.512 116.341 353.853 116.707C353.194 117.065 352.433 117.244 351.57 117.244C350.879 117.244 350.252 117.138 349.69 116.927C349.129 116.707 348.649 116.369 348.25 115.914C347.851 115.458 347.542 114.88 347.322 114.18C347.111 113.472 347.005 112.626 347.005 111.641V103.792H349.263V111.666C349.263 112.382 349.32 112.976 349.434 113.448C349.548 113.92 349.719 114.294 349.947 114.571C350.175 114.856 350.451 115.055 350.777 115.169C351.111 115.283 351.493 115.34 351.924 115.34C352.429 115.34 352.881 115.283 353.279 115.169C353.678 115.047 354.024 114.88 354.317 114.668C354.561 114.498 354.773 114.294 354.952 114.058C355.139 113.814 355.293 113.549 355.416 113.265V103.792H357.686V117H355.635ZM366.793 100.594V103.792H371.822V105.538H366.793V112.715C366.793 113.228 366.858 113.651 366.988 113.985C367.118 114.319 367.298 114.583 367.525 114.778C367.753 114.982 368.014 115.124 368.307 115.206C368.608 115.287 368.925 115.328 369.259 115.328C369.503 115.328 369.755 115.315 370.016 115.291C370.276 115.258 370.532 115.222 370.785 115.181C371.029 115.14 371.257 115.1 371.468 115.059C371.688 115.01 371.867 114.97 372.005 114.937L372.323 116.536C372.136 116.65 371.908 116.752 371.639 116.841C371.371 116.923 371.078 116.992 370.76 117.049C370.443 117.114 370.105 117.163 369.747 117.195C369.397 117.228 369.047 117.244 368.697 117.244C368.111 117.244 367.562 117.163 367.049 117C366.545 116.829 366.105 116.561 365.731 116.194C365.357 115.836 365.06 115.372 364.84 114.803C364.628 114.225 364.522 113.529 364.522 112.715V105.538H361.056V103.792H364.522V100.594H366.793ZM380.001 99.5806L379.745 104.097H378.158L378.17 99.7759V98.25H380.001V99.5806ZM384.359 99.5806L384.103 104.097H382.528L382.541 99.7759V98.25H384.372L384.359 99.5806ZM390.524 114.595V112.251L398.422 109.273L399.155 109.065L398.422 108.833L390.524 105.904V103.572L401.303 108.187V109.969L390.524 114.595ZM416.55 109.139C416.542 109.773 416.485 110.416 416.379 111.067C416.282 111.71 416.127 112.333 415.916 112.935C415.704 113.537 415.431 114.099 415.098 114.62C414.772 115.14 414.382 115.596 413.926 115.987C413.47 116.377 412.945 116.687 412.351 116.915C411.765 117.134 411.106 117.244 410.374 117.244C409.641 117.244 408.978 117.134 408.384 116.915C407.798 116.687 407.277 116.377 406.821 115.987C406.366 115.596 405.971 115.14 405.637 114.62C405.304 114.091 405.031 113.525 404.819 112.923C404.6 112.321 404.437 111.698 404.331 111.055C404.225 110.412 404.168 109.773 404.16 109.139V107.112C404.168 106.478 404.221 105.839 404.319 105.196C404.425 104.545 404.587 103.918 404.807 103.316C405.019 102.714 405.287 102.152 405.613 101.631C405.946 101.102 406.341 100.639 406.797 100.24C407.253 99.8491 407.773 99.5439 408.359 99.3242C408.953 99.0964 409.617 98.9824 410.349 98.9824C411.082 98.9824 411.745 99.0964 412.339 99.3242C412.933 99.5439 413.458 99.8491 413.914 100.24C414.369 100.63 414.76 101.09 415.085 101.619C415.419 102.14 415.696 102.701 415.916 103.304C416.127 103.906 416.282 104.533 416.379 105.184C416.485 105.835 416.542 106.478 416.55 107.112V109.139ZM414.316 107.088C414.308 106.665 414.28 106.225 414.231 105.77C414.182 105.306 414.101 104.846 413.987 104.39C413.865 103.943 413.706 103.515 413.511 103.108C413.315 102.693 413.071 102.327 412.778 102.01C412.485 101.701 412.139 101.456 411.741 101.277C411.342 101.09 410.878 100.997 410.349 100.997C409.828 100.997 409.368 101.09 408.97 101.277C408.571 101.465 408.225 101.713 407.932 102.022C407.639 102.339 407.395 102.706 407.2 103.121C407.004 103.528 406.85 103.955 406.736 104.402C406.614 104.858 406.524 105.318 406.467 105.782C406.418 106.237 406.39 106.673 406.382 107.088V109.139C406.39 109.554 406.418 109.993 406.467 110.457C406.524 110.921 406.614 111.377 406.736 111.824C406.858 112.28 407.017 112.715 407.212 113.13C407.407 113.545 407.651 113.908 407.944 114.217C408.237 114.534 408.583 114.786 408.982 114.974C409.381 115.161 409.845 115.254 410.374 115.254C410.903 115.254 411.366 115.161 411.765 114.974C412.172 114.786 412.522 114.534 412.815 114.217C413.1 113.908 413.336 113.549 413.523 113.143C413.718 112.728 413.877 112.292 413.999 111.836C414.113 111.389 414.19 110.933 414.231 110.469C414.28 110.005 414.308 109.562 414.316 109.139V107.088ZM444.872 117H442.613V111.36H436.168V117H433.91V103.792H436.168V109.517H442.613V103.792H444.872V117ZM457.213 117C457.124 116.829 457.051 116.618 456.994 116.365C456.945 116.105 456.908 115.836 456.884 115.56C456.656 115.787 456.4 116.003 456.115 116.207C455.838 116.41 455.533 116.589 455.199 116.744C454.857 116.898 454.495 117.02 454.113 117.11C453.73 117.199 453.323 117.244 452.892 117.244C452.192 117.244 451.557 117.142 450.988 116.939C450.426 116.736 449.95 116.459 449.56 116.109C449.161 115.767 448.852 115.36 448.632 114.888C448.42 114.408 448.314 113.891 448.314 113.338C448.314 112.614 448.457 111.979 448.742 111.434C449.035 110.888 449.446 110.433 449.975 110.066C450.504 109.708 451.138 109.44 451.879 109.261C452.628 109.082 453.462 108.992 454.381 108.992H456.847V107.955C456.847 107.556 456.774 107.198 456.627 106.88C456.481 106.563 456.273 106.29 456.005 106.062C455.736 105.843 455.407 105.672 455.016 105.55C454.634 105.428 454.202 105.367 453.722 105.367C453.275 105.367 452.872 105.424 452.514 105.538C452.164 105.652 451.867 105.802 451.623 105.989C451.378 106.176 451.187 106.4 451.049 106.661C450.919 106.913 450.854 107.177 450.854 107.454H448.583C448.591 106.974 448.713 106.502 448.949 106.038C449.193 105.574 449.543 105.155 449.999 104.781C450.447 104.415 450.992 104.118 451.635 103.89C452.286 103.662 453.022 103.548 453.844 103.548C454.593 103.548 455.289 103.641 455.932 103.829C456.575 104.008 457.132 104.28 457.604 104.646C458.068 105.021 458.434 105.485 458.703 106.038C458.971 106.591 459.105 107.238 459.105 107.979V114.119C459.105 114.559 459.146 115.027 459.228 115.523C459.309 116.011 459.423 116.438 459.569 116.805V117H457.213ZM453.222 115.279C453.661 115.279 454.072 115.222 454.455 115.108C454.837 114.994 455.187 114.843 455.504 114.656C455.814 114.469 456.082 114.257 456.31 114.021C456.538 113.777 456.717 113.525 456.847 113.265V110.591H454.748C453.966 110.591 453.283 110.66 452.697 110.799C452.119 110.929 451.659 111.132 451.317 111.409C451.073 111.604 450.886 111.836 450.756 112.105C450.634 112.374 450.573 112.679 450.573 113.021C450.573 113.346 450.626 113.647 450.731 113.924C450.845 114.201 451.012 114.437 451.232 114.632C451.452 114.835 451.728 114.994 452.062 115.108C452.396 115.222 452.782 115.279 453.222 115.279ZM468.676 115.413C469.083 115.413 469.478 115.348 469.86 115.218C470.251 115.088 470.597 114.904 470.898 114.668C471.199 114.441 471.439 114.172 471.618 113.863C471.805 113.545 471.903 113.204 471.911 112.837H474.047C474.039 113.423 473.885 113.985 473.583 114.522C473.291 115.051 472.896 115.515 472.399 115.914C471.903 116.32 471.333 116.646 470.69 116.89C470.048 117.126 469.376 117.244 468.676 117.244C467.675 117.244 466.8 117.065 466.052 116.707C465.303 116.349 464.681 115.865 464.184 115.254C463.68 114.652 463.301 113.956 463.049 113.167C462.797 112.369 462.67 111.531 462.67 110.652V110.14C462.67 109.269 462.797 108.435 463.049 107.637C463.301 106.84 463.68 106.136 464.184 105.525C464.681 104.923 465.303 104.443 466.052 104.085C466.8 103.727 467.675 103.548 468.676 103.548C469.458 103.548 470.174 103.674 470.825 103.926C471.484 104.17 472.054 104.504 472.534 104.927C473.006 105.359 473.376 105.867 473.645 106.453C473.913 107.039 474.047 107.666 474.047 108.333H471.911C471.903 107.934 471.813 107.56 471.643 107.21C471.48 106.852 471.256 106.539 470.971 106.27C470.686 106.001 470.345 105.79 469.946 105.635C469.555 105.481 469.132 105.403 468.676 105.403C467.976 105.403 467.386 105.546 466.906 105.831C466.434 106.107 466.052 106.469 465.759 106.917C465.466 107.373 465.254 107.881 465.124 108.443C465.002 109.004 464.941 109.57 464.941 110.14V110.652C464.941 111.23 465.002 111.804 465.124 112.374C465.254 112.935 465.466 113.44 465.759 113.887C466.044 114.343 466.422 114.713 466.894 114.998C467.374 115.275 467.968 115.413 468.676 115.413ZM487.866 114.607L477.515 109.981V108.199L487.866 103.584V105.977L480.396 108.907L479.749 109.114L480.396 109.334L487.866 112.215V114.607ZM495.057 118.526H493.03L500.452 99.2266H502.466L495.057 118.526ZM521.156 114.595V112.251L529.054 109.273L529.787 109.065L529.054 108.833L521.156 105.904V103.572L531.935 108.187V109.969L521.156 114.595ZM545.925 114.607L535.573 109.981V108.199L545.925 103.584V105.977L538.454 108.907L537.807 109.114L538.454 109.334L545.925 112.215V114.607ZM553.115 118.526H551.089L558.511 99.2266H560.525L553.115 118.526ZM593.729 114.595V112.251L601.627 109.273L602.36 109.065L601.627 108.833L593.729 105.904V103.572L604.508 108.187V109.969L593.729 114.595ZM110.485 147.607L100.134 142.981V141.199L110.485 136.584V138.977L103.015 141.907L102.368 142.114L103.015 142.334L110.485 145.215V147.607ZM143.775 147.595V145.251L151.673 142.273L152.406 142.065L151.673 141.833L143.775 138.904V136.572L154.554 141.187V142.969L143.775 147.595ZM168.544 147.607L158.192 142.981V141.199L168.544 136.584V138.977L161.073 141.907L160.426 142.114L161.073 142.334L168.544 145.215V147.607ZM204.043 138.757C204.222 138.489 204.422 138.245 204.642 138.025C204.861 137.797 205.093 137.598 205.337 137.427C205.728 137.142 206.155 136.926 206.619 136.78C207.091 136.633 207.592 136.556 208.121 136.548C208.812 136.548 209.439 136.65 210 136.853C210.57 137.048 211.054 137.358 211.453 137.781C211.852 138.204 212.157 138.741 212.369 139.392C212.588 140.035 212.698 140.8 212.698 141.687V150H210.44V141.663C210.44 141.142 210.379 140.686 210.257 140.295C210.135 139.897 209.956 139.567 209.72 139.307C209.467 139.022 209.15 138.81 208.768 138.672C208.385 138.525 207.946 138.456 207.449 138.464C207.042 138.464 206.656 138.521 206.29 138.635C205.923 138.749 205.586 138.912 205.276 139.124C205.032 139.286 204.804 139.478 204.593 139.697C204.389 139.909 204.206 140.145 204.043 140.405V150H201.785V131.25H204.043V138.757ZM224.955 136.548C225.37 136.548 225.801 136.576 226.249 136.633C226.704 136.69 227.046 136.768 227.274 136.865L226.969 139.075C226.529 138.977 226.11 138.908 225.711 138.867C225.321 138.818 224.91 138.794 224.479 138.794C223.925 138.794 223.425 138.863 222.977 139.001C222.529 139.132 222.139 139.327 221.805 139.587C221.504 139.815 221.24 140.096 221.012 140.43C220.792 140.755 220.609 141.121 220.462 141.528V150H218.192V136.792H220.34L220.438 138.562L220.45 138.892C220.987 138.167 221.63 137.598 222.379 137.183C223.136 136.759 223.994 136.548 224.955 136.548ZM236.649 150.244C235.722 150.244 234.867 150.085 234.086 149.768C233.313 149.451 232.65 149.007 232.096 148.438C231.543 147.868 231.111 147.192 230.802 146.411C230.493 145.63 230.338 144.779 230.338 143.86V143.347C230.338 142.281 230.509 141.329 230.851 140.491C231.193 139.644 231.649 138.928 232.218 138.342C232.78 137.764 233.419 137.321 234.135 137.012C234.859 136.702 235.6 136.548 236.356 136.548C237.309 136.548 238.139 136.715 238.847 137.048C239.563 137.374 240.157 137.826 240.629 138.403C241.101 138.989 241.451 139.677 241.679 140.466C241.915 141.256 242.033 142.11 242.033 143.03V144.043H232.597V144.128C232.654 144.771 232.78 145.337 232.975 145.825C233.179 146.313 233.455 146.745 233.805 147.119C234.163 147.518 234.595 147.831 235.099 148.059C235.604 148.287 236.161 148.401 236.771 148.401C237.577 148.401 238.293 148.238 238.92 147.913C239.547 147.587 240.067 147.156 240.482 146.619L241.862 147.693C241.422 148.36 240.763 148.954 239.884 149.475C239.014 149.988 237.935 150.244 236.649 150.244ZM236.356 138.403C235.901 138.403 235.469 138.489 235.062 138.66C234.656 138.822 234.289 139.062 233.964 139.38C233.638 139.705 233.362 140.104 233.134 140.576C232.914 141.04 232.759 141.577 232.67 142.188H239.774V142.078C239.774 141.671 239.697 141.235 239.542 140.771C239.388 140.299 239.172 139.893 238.896 139.551C238.619 139.209 238.269 138.932 237.846 138.721C237.431 138.509 236.934 138.403 236.356 138.403ZM248.698 150V138.538H245.061V136.792H248.698V135.864C248.698 135.018 248.82 134.277 249.064 133.643C249.317 133 249.671 132.463 250.126 132.031C250.574 131.6 251.115 131.274 251.75 131.055C252.385 130.835 253.093 130.725 253.874 130.725C254.2 130.725 254.521 130.745 254.838 130.786C255.156 130.819 255.469 130.863 255.778 130.92C255.982 130.961 256.185 131.006 256.389 131.055C256.592 131.095 256.8 131.144 257.011 131.201L256.743 133.069C256.409 132.955 256.018 132.857 255.571 132.776C255.131 132.686 254.659 132.642 254.155 132.642C253.642 132.642 253.186 132.707 252.788 132.837C252.397 132.959 252.071 133.146 251.811 133.398C251.534 133.659 251.323 133.997 251.176 134.412C251.038 134.827 250.969 135.311 250.969 135.864V136.792H256.059V138.538H250.969V150H248.698ZM270.732 140.479H259.832V138.513H270.732V140.479ZM270.732 145.544H259.832V143.591H270.732V145.544ZM278.399 132.581L278.143 137.097H276.556L276.568 132.776V131.25H278.399V132.581ZM282.757 132.581L282.5 137.097H280.926L280.938 132.776V131.25H282.769L282.757 132.581ZM295.379 144.995H292.157L291.18 150H289.435L290.411 144.995H287.494V143.323H290.729L291.571 139.001H288.421V137.305H291.9L292.901 132.227H294.647L293.646 137.305H296.869L297.87 132.227H299.615L298.614 137.305H301.117V139.001H298.285L297.442 143.323H300.201V144.995H297.125L296.148 150H294.403L295.379 144.995ZM292.474 143.323H295.697L296.539 139.001H293.316L292.474 143.323ZM312.165 146.497C312.165 146.228 312.112 145.988 312.006 145.776C311.9 145.557 311.721 145.357 311.469 145.178C311.216 144.999 310.883 144.836 310.468 144.69C310.053 144.535 309.536 144.397 308.917 144.275C308.161 144.12 307.469 143.933 306.842 143.713C306.224 143.494 305.695 143.229 305.255 142.92C304.808 142.619 304.462 142.265 304.218 141.858C303.974 141.443 303.852 140.963 303.852 140.417C303.852 139.88 303.978 139.38 304.23 138.916C304.482 138.444 304.836 138.033 305.292 137.683C305.748 137.333 306.289 137.056 306.916 136.853C307.55 136.65 308.246 136.548 309.003 136.548C309.817 136.548 310.549 136.654 311.2 136.865C311.851 137.077 312.405 137.37 312.86 137.744C313.316 138.118 313.666 138.558 313.91 139.062C314.162 139.559 314.289 140.096 314.289 140.674H312.03C312.03 140.389 311.957 140.112 311.811 139.844C311.664 139.567 311.461 139.323 311.2 139.111C310.94 138.9 310.622 138.729 310.248 138.599C309.882 138.468 309.467 138.403 309.003 138.403C308.523 138.403 308.1 138.456 307.733 138.562C307.375 138.668 307.078 138.81 306.842 138.989C306.598 139.168 306.415 139.376 306.293 139.612C306.171 139.848 306.11 140.092 306.11 140.344C306.11 140.605 306.159 140.837 306.256 141.04C306.354 141.243 306.525 141.427 306.769 141.589C307.005 141.752 307.322 141.899 307.721 142.029C308.128 142.159 308.641 142.285 309.259 142.407C310.073 142.578 310.801 142.778 311.444 143.005C312.087 143.225 312.628 143.49 313.068 143.799C313.507 144.116 313.841 144.482 314.069 144.897C314.305 145.312 314.423 145.793 314.423 146.338C314.423 146.924 314.289 147.457 314.02 147.937C313.76 148.417 313.393 148.828 312.921 149.17C312.449 149.512 311.884 149.776 311.225 149.963C310.565 150.151 309.845 150.244 309.064 150.244C308.169 150.244 307.371 150.126 306.671 149.89C305.972 149.646 305.382 149.325 304.901 148.926C304.413 148.535 304.039 148.079 303.778 147.559C303.526 147.038 303.4 146.497 303.4 145.935H305.658C305.691 146.399 305.813 146.79 306.024 147.107C306.244 147.424 306.517 147.681 306.842 147.876C307.16 148.071 307.514 148.21 307.904 148.291C308.295 148.372 308.681 148.413 309.064 148.413C309.666 148.413 310.191 148.344 310.639 148.206C311.086 148.059 311.436 147.86 311.688 147.607C311.843 147.453 311.961 147.282 312.042 147.095C312.124 146.908 312.165 146.708 312.165 146.497ZM323.737 150.244C322.81 150.244 321.955 150.085 321.174 149.768C320.401 149.451 319.737 149.007 319.184 148.438C318.631 147.868 318.199 147.192 317.89 146.411C317.581 145.63 317.426 144.779 317.426 143.86V143.347C317.426 142.281 317.597 141.329 317.939 140.491C318.281 139.644 318.736 138.928 319.306 138.342C319.868 137.764 320.507 137.321 321.223 137.012C321.947 136.702 322.688 136.548 323.444 136.548C324.396 136.548 325.227 136.715 325.935 137.048C326.651 137.374 327.245 137.826 327.717 138.403C328.189 138.989 328.539 139.677 328.767 140.466C329.003 141.256 329.121 142.11 329.121 143.03V144.043H319.685V144.128C319.742 144.771 319.868 145.337 320.063 145.825C320.266 146.313 320.543 146.745 320.893 147.119C321.251 147.518 321.682 147.831 322.187 148.059C322.692 148.287 323.249 148.401 323.859 148.401C324.665 148.401 325.381 148.238 326.008 147.913C326.634 147.587 327.155 147.156 327.57 146.619L328.95 147.693C328.51 148.36 327.851 148.954 326.972 149.475C326.101 149.988 325.023 150.244 323.737 150.244ZM323.444 138.403C322.989 138.403 322.557 138.489 322.15 138.66C321.743 138.822 321.377 139.062 321.052 139.38C320.726 139.705 320.45 140.104 320.222 140.576C320.002 141.04 319.847 141.577 319.758 142.188H326.862V142.078C326.862 141.671 326.785 141.235 326.63 140.771C326.476 140.299 326.26 139.893 325.983 139.551C325.707 139.209 325.357 138.932 324.934 138.721C324.519 138.509 324.022 138.403 323.444 138.403ZM341.072 136.548C341.487 136.548 341.918 136.576 342.366 136.633C342.821 136.69 343.163 136.768 343.391 136.865L343.086 139.075C342.646 138.977 342.227 138.908 341.829 138.867C341.438 138.818 341.027 138.794 340.596 138.794C340.042 138.794 339.542 138.863 339.094 139.001C338.647 139.132 338.256 139.327 337.922 139.587C337.621 139.815 337.357 140.096 337.129 140.43C336.909 140.755 336.726 141.121 336.58 141.528V150H334.309V136.792H336.458L336.555 138.562L336.567 138.892C337.104 138.167 337.747 137.598 338.496 137.183C339.253 136.759 340.111 136.548 341.072 136.548ZM351.436 150L346.004 136.792H348.323L352.107 146.753L352.315 147.571L352.535 146.753L356.233 136.792H358.541L353.157 150H351.436ZM361.8 136.792H368.551V148.047H372.86V150H361.8V148.047H366.292V138.757H361.8V136.792ZM366 133.325C366 133.13 366.028 132.947 366.085 132.776C366.15 132.605 366.248 132.458 366.378 132.336C366.484 132.231 366.618 132.149 366.781 132.092C366.952 132.027 367.143 131.995 367.354 131.995C367.566 131.995 367.753 132.027 367.916 132.092C368.079 132.149 368.213 132.231 368.319 132.336C368.449 132.45 368.547 132.593 368.612 132.764C368.677 132.935 368.709 133.122 368.709 133.325C368.709 133.691 368.596 133.997 368.368 134.241C368.14 134.485 367.802 134.607 367.354 134.607C366.899 134.607 366.557 134.485 366.329 134.241C366.109 133.997 366 133.691 366 133.325ZM381.588 148.413C381.995 148.413 382.39 148.348 382.772 148.218C383.163 148.088 383.509 147.904 383.81 147.668C384.111 147.441 384.351 147.172 384.53 146.863C384.717 146.545 384.815 146.204 384.823 145.837H386.959C386.951 146.423 386.797 146.985 386.496 147.522C386.203 148.051 385.808 148.515 385.312 148.914C384.815 149.32 384.245 149.646 383.603 149.89C382.96 150.126 382.288 150.244 381.588 150.244C380.587 150.244 379.713 150.065 378.964 149.707C378.215 149.349 377.593 148.865 377.096 148.254C376.592 147.652 376.213 146.956 375.961 146.167C375.709 145.369 375.583 144.531 375.583 143.652V143.14C375.583 142.269 375.709 141.435 375.961 140.637C376.213 139.84 376.592 139.136 377.096 138.525C377.593 137.923 378.215 137.443 378.964 137.085C379.713 136.727 380.587 136.548 381.588 136.548C382.37 136.548 383.086 136.674 383.737 136.926C384.396 137.17 384.966 137.504 385.446 137.927C385.918 138.359 386.288 138.867 386.557 139.453C386.825 140.039 386.959 140.666 386.959 141.333H384.823C384.815 140.934 384.726 140.56 384.555 140.21C384.392 139.852 384.168 139.539 383.883 139.27C383.598 139.001 383.257 138.79 382.858 138.635C382.467 138.481 382.044 138.403 381.588 138.403C380.889 138.403 380.299 138.546 379.818 138.831C379.346 139.107 378.964 139.469 378.671 139.917C378.378 140.373 378.166 140.881 378.036 141.443C377.914 142.004 377.853 142.57 377.853 143.14V143.652C377.853 144.23 377.914 144.804 378.036 145.374C378.166 145.935 378.378 146.44 378.671 146.887C378.956 147.343 379.334 147.713 379.806 147.998C380.286 148.275 380.88 148.413 381.588 148.413ZM396.311 150.244C395.383 150.244 394.528 150.085 393.747 149.768C392.974 149.451 392.311 149.007 391.757 148.438C391.204 147.868 390.773 147.192 390.463 146.411C390.154 145.63 390 144.779 390 143.86V143.347C390 142.281 390.17 141.329 390.512 140.491C390.854 139.644 391.31 138.928 391.879 138.342C392.441 137.764 393.08 137.321 393.796 137.012C394.52 136.702 395.261 136.548 396.018 136.548C396.97 136.548 397.8 136.715 398.508 137.048C399.224 137.374 399.818 137.826 400.29 138.403C400.762 138.989 401.112 139.677 401.34 140.466C401.576 141.256 401.694 142.11 401.694 143.03V144.043H392.258V144.128C392.315 144.771 392.441 145.337 392.636 145.825C392.84 146.313 393.116 146.745 393.466 147.119C393.824 147.518 394.256 147.831 394.76 148.059C395.265 148.287 395.822 148.401 396.433 148.401C397.238 148.401 397.954 148.238 398.581 147.913C399.208 147.587 399.729 147.156 400.144 146.619L401.523 147.693C401.083 148.36 400.424 148.954 399.545 149.475C398.675 149.988 397.596 150.244 396.311 150.244ZM396.018 138.403C395.562 138.403 395.131 138.489 394.724 138.66C394.317 138.822 393.951 139.062 393.625 139.38C393.299 139.705 393.023 140.104 392.795 140.576C392.575 141.04 392.421 141.577 392.331 142.188H399.436V142.078C399.436 141.671 399.358 141.235 399.204 140.771C399.049 140.299 398.833 139.893 398.557 139.551C398.28 139.209 397.93 138.932 397.507 138.721C397.092 138.509 396.595 138.403 396.018 138.403ZM413.767 146.497C413.767 146.228 413.714 145.988 413.608 145.776C413.503 145.557 413.324 145.357 413.071 145.178C412.819 144.999 412.485 144.836 412.07 144.69C411.655 144.535 411.139 144.397 410.52 144.275C409.763 144.12 409.071 143.933 408.445 143.713C407.826 143.494 407.297 143.229 406.858 142.92C406.41 142.619 406.064 142.265 405.82 141.858C405.576 141.443 405.454 140.963 405.454 140.417C405.454 139.88 405.58 139.38 405.833 138.916C406.085 138.444 406.439 138.033 406.895 137.683C407.35 137.333 407.891 137.056 408.518 136.853C409.153 136.65 409.849 136.548 410.605 136.548C411.419 136.548 412.152 136.654 412.803 136.865C413.454 137.077 414.007 137.37 414.463 137.744C414.919 138.118 415.269 138.558 415.513 139.062C415.765 139.559 415.891 140.096 415.891 140.674H413.633C413.633 140.389 413.56 140.112 413.413 139.844C413.267 139.567 413.063 139.323 412.803 139.111C412.542 138.9 412.225 138.729 411.851 138.599C411.484 138.468 411.069 138.403 410.605 138.403C410.125 138.403 409.702 138.456 409.336 138.562C408.978 138.668 408.681 138.81 408.445 138.989C408.201 139.168 408.018 139.376 407.896 139.612C407.773 139.848 407.712 140.092 407.712 140.344C407.712 140.605 407.761 140.837 407.859 141.04C407.957 141.243 408.127 141.427 408.372 141.589C408.608 141.752 408.925 141.899 409.324 142.029C409.731 142.159 410.243 142.285 410.862 142.407C411.676 142.578 412.404 142.778 413.047 143.005C413.69 143.225 414.231 143.49 414.67 143.799C415.11 144.116 415.444 144.482 415.671 144.897C415.907 145.312 416.025 145.793 416.025 146.338C416.025 146.924 415.891 147.457 415.623 147.937C415.362 148.417 414.996 148.828 414.524 149.17C414.052 149.512 413.486 149.776 412.827 149.963C412.168 150.151 411.448 150.244 410.667 150.244C409.771 150.244 408.974 150.126 408.274 149.89C407.574 149.646 406.984 149.325 406.504 148.926C406.016 148.535 405.641 148.079 405.381 147.559C405.129 147.038 405.002 146.497 405.002 145.935H407.261C407.293 146.399 407.415 146.79 407.627 147.107C407.847 147.424 408.119 147.681 408.445 147.876C408.762 148.071 409.116 148.21 409.507 148.291C409.897 148.372 410.284 148.413 410.667 148.413C411.269 148.413 411.794 148.344 412.241 148.206C412.689 148.059 413.039 147.86 413.291 147.607C413.446 147.453 413.564 147.282 413.645 147.095C413.726 146.908 413.767 146.708 413.767 146.497ZM423.545 132.581L423.289 137.097H421.702L421.714 132.776V131.25H423.545V132.581ZM427.903 132.581L427.647 137.097H426.072L426.084 132.776V131.25H427.916L427.903 132.581ZM434.068 147.595V145.251L441.966 142.273L442.699 142.065L441.966 141.833L434.068 138.904V136.572L444.847 141.187V142.969L434.068 147.595ZM447.667 149.829L447.96 148.108C448.172 148.165 448.461 148.23 448.827 148.303C449.193 148.376 449.535 148.413 449.853 148.413C450.227 148.413 450.556 148.36 450.841 148.254C451.126 148.14 451.374 147.994 451.586 147.815C451.798 147.636 451.977 147.432 452.123 147.205C452.27 146.977 452.396 146.749 452.501 146.521L453.014 145.483L446.935 132.227H449.474L453.234 140.735L454.101 143.066L454.979 140.881L458.495 132.227H461.12L454.589 147.07C454.402 147.493 454.186 147.9 453.942 148.291C453.706 148.674 453.417 149.011 453.075 149.304C452.733 149.597 452.318 149.829 451.83 150C451.35 150.171 450.772 150.256 450.097 150.256C449.543 150.256 449.051 150.208 448.62 150.11C448.196 150.012 447.879 149.919 447.667 149.829ZM468.676 148.413C469.083 148.413 469.478 148.348 469.86 148.218C470.251 148.088 470.597 147.904 470.898 147.668C471.199 147.441 471.439 147.172 471.618 146.863C471.805 146.545 471.903 146.204 471.911 145.837H474.047C474.039 146.423 473.885 146.985 473.583 147.522C473.291 148.051 472.896 148.515 472.399 148.914C471.903 149.32 471.333 149.646 470.69 149.89C470.048 150.126 469.376 150.244 468.676 150.244C467.675 150.244 466.8 150.065 466.052 149.707C465.303 149.349 464.681 148.865 464.184 148.254C463.68 147.652 463.301 146.956 463.049 146.167C462.797 145.369 462.67 144.531 462.67 143.652V143.14C462.67 142.269 462.797 141.435 463.049 140.637C463.301 139.84 463.68 139.136 464.184 138.525C464.681 137.923 465.303 137.443 466.052 137.085C466.8 136.727 467.675 136.548 468.676 136.548C469.458 136.548 470.174 136.674 470.825 136.926C471.484 137.17 472.054 137.504 472.534 137.927C473.006 138.359 473.376 138.867 473.645 139.453C473.913 140.039 474.047 140.666 474.047 141.333H471.911C471.903 140.934 471.813 140.56 471.643 140.21C471.48 139.852 471.256 139.539 470.971 139.27C470.686 139.001 470.345 138.79 469.946 138.635C469.555 138.481 469.132 138.403 468.676 138.403C467.976 138.403 467.386 138.546 466.906 138.831C466.434 139.107 466.052 139.469 465.759 139.917C465.466 140.373 465.254 140.881 465.124 141.443C465.002 142.004 464.941 142.57 464.941 143.14V143.652C464.941 144.23 465.002 144.804 465.124 145.374C465.254 145.935 465.466 146.44 465.759 146.887C466.044 147.343 466.422 147.713 466.894 147.998C467.374 148.275 467.968 148.413 468.676 148.413ZM488.403 136.792V150H486.133V138.66H481.274L481.262 142.444C481.262 142.891 481.25 143.327 481.226 143.75C481.209 144.165 481.181 144.56 481.14 144.934C481.075 145.553 480.973 146.122 480.835 146.643C480.697 147.164 480.522 147.624 480.31 148.022C479.968 148.665 479.508 149.158 478.931 149.5C478.353 149.833 477.633 150 476.77 150H476.111L476.147 147.986L476.648 147.974C477.112 147.974 477.494 147.86 477.795 147.632C478.105 147.396 478.349 147.046 478.528 146.582C478.617 146.33 478.695 146.041 478.76 145.715C478.825 145.382 478.878 145.015 478.918 144.617C478.943 144.299 478.959 143.962 478.967 143.604C478.984 143.237 478.992 142.851 478.992 142.444L479.016 136.792H488.403ZM493.14 155.334C492.929 155.334 492.68 155.31 492.396 155.261C492.111 155.212 491.895 155.172 491.749 155.139L492.115 153.296C492.318 153.312 492.518 153.324 492.713 153.333C492.916 153.349 493.075 153.357 493.189 153.357C493.498 153.357 493.779 153.271 494.031 153.101C494.292 152.93 494.524 152.726 494.727 152.49C494.922 152.254 495.089 152.01 495.228 151.758C495.374 151.506 495.488 151.298 495.569 151.135L496.473 149.377L490.784 136.792H493.311L496.937 145.312L497.522 146.912L498.145 145.361L501.551 136.792H504.078L497.376 152.039C497.221 152.38 497.022 152.743 496.778 153.125C496.542 153.507 496.253 153.861 495.911 154.187C495.569 154.513 495.171 154.785 494.715 155.005C494.259 155.225 493.734 155.334 493.14 155.334ZM517.481 138.66H508.973V150H506.703V136.792H517.481V138.66ZM529.701 136.792H531.959V150H529.701V140.259L523.244 150H520.998V136.792H523.244V146.545L529.701 136.792ZM545.925 147.607L535.573 142.981V141.199L545.925 136.584V138.977L538.454 141.907L537.807 142.114L538.454 142.334L545.925 145.215V147.607ZM553.115 151.526H551.089L558.511 132.227H560.525L553.115 151.526ZM579.215 147.595V145.251L587.113 142.273L587.845 142.065L587.113 141.833L579.215 138.904V136.572L589.994 141.187V142.969L579.215 147.595ZM603.983 147.607L593.632 142.981V141.199L603.983 136.584V138.977L596.513 141.907L595.866 142.114L596.513 142.334L603.983 145.215V147.607ZM611.174 151.526H609.147L616.569 132.227H618.583L611.174 151.526ZM651.788 147.595V145.251L659.686 142.273L660.418 142.065L659.686 141.833L651.788 138.904V136.572L662.567 141.187V142.969L651.788 147.595ZM110.485 180.607L100.134 175.981V174.199L110.485 169.584V171.977L103.015 174.907L102.368 175.114L103.015 175.334L110.485 178.215V180.607ZM143.775 180.595V178.251L151.673 175.273L152.406 175.065L151.673 174.833L143.775 171.904V169.572L154.554 174.187V175.969L143.775 180.595ZM168.544 180.607L158.192 175.981V174.199L168.544 169.584V171.977L161.073 174.907L160.426 175.114L161.073 175.334L168.544 178.215V180.607ZM204.043 171.757C204.222 171.489 204.422 171.245 204.642 171.025C204.861 170.797 205.093 170.598 205.337 170.427C205.728 170.142 206.155 169.926 206.619 169.78C207.091 169.633 207.592 169.556 208.121 169.548C208.812 169.548 209.439 169.65 210 169.853C210.57 170.048 211.054 170.358 211.453 170.781C211.852 171.204 212.157 171.741 212.369 172.392C212.588 173.035 212.698 173.8 212.698 174.687V183H210.44V174.663C210.44 174.142 210.379 173.686 210.257 173.295C210.135 172.897 209.956 172.567 209.72 172.307C209.467 172.022 209.15 171.81 208.768 171.672C208.385 171.525 207.946 171.456 207.449 171.464C207.042 171.464 206.656 171.521 206.29 171.635C205.923 171.749 205.586 171.912 205.276 172.124C205.032 172.286 204.804 172.478 204.593 172.697C204.389 172.909 204.206 173.145 204.043 173.405V183H201.785V164.25H204.043V171.757ZM224.955 169.548C225.37 169.548 225.801 169.576 226.249 169.633C226.704 169.69 227.046 169.768 227.274 169.865L226.969 172.075C226.529 171.977 226.11 171.908 225.711 171.867C225.321 171.818 224.91 171.794 224.479 171.794C223.925 171.794 223.425 171.863 222.977 172.001C222.529 172.132 222.139 172.327 221.805 172.587C221.504 172.815 221.24 173.096 221.012 173.43C220.792 173.755 220.609 174.121 220.462 174.528V183H218.192V169.792H220.34L220.438 171.562L220.45 171.892C220.987 171.167 221.63 170.598 222.379 170.183C223.136 169.759 223.994 169.548 224.955 169.548ZM236.649 183.244C235.722 183.244 234.867 183.085 234.086 182.768C233.313 182.451 232.65 182.007 232.096 181.438C231.543 180.868 231.111 180.192 230.802 179.411C230.493 178.63 230.338 177.779 230.338 176.86V176.347C230.338 175.281 230.509 174.329 230.851 173.491C231.193 172.644 231.649 171.928 232.218 171.342C232.78 170.764 233.419 170.321 234.135 170.012C234.859 169.702 235.6 169.548 236.356 169.548C237.309 169.548 238.139 169.715 238.847 170.048C239.563 170.374 240.157 170.826 240.629 171.403C241.101 171.989 241.451 172.677 241.679 173.466C241.915 174.256 242.033 175.11 242.033 176.03V177.043H232.597V177.128C232.654 177.771 232.78 178.337 232.975 178.825C233.179 179.313 233.455 179.745 233.805 180.119C234.163 180.518 234.595 180.831 235.099 181.059C235.604 181.287 236.161 181.401 236.771 181.401C237.577 181.401 238.293 181.238 238.92 180.913C239.547 180.587 240.067 180.156 240.482 179.619L241.862 180.693C241.422 181.36 240.763 181.954 239.884 182.475C239.014 182.988 237.935 183.244 236.649 183.244ZM236.356 171.403C235.901 171.403 235.469 171.489 235.062 171.66C234.656 171.822 234.289 172.062 233.964 172.38C233.638 172.705 233.362 173.104 233.134 173.576C232.914 174.04 232.759 174.577 232.67 175.188H239.774V175.078C239.774 174.671 239.697 174.235 239.542 173.771C239.388 173.299 239.172 172.893 238.896 172.551C238.619 172.209 238.269 171.932 237.846 171.721C237.431 171.509 236.934 171.403 236.356 171.403ZM248.698 183V171.538H245.061V169.792H248.698V168.864C248.698 168.018 248.82 167.277 249.064 166.643C249.317 166 249.671 165.463 250.126 165.031C250.574 164.6 251.115 164.274 251.75 164.055C252.385 163.835 253.093 163.725 253.874 163.725C254.2 163.725 254.521 163.745 254.838 163.786C255.156 163.819 255.469 163.863 255.778 163.92C255.982 163.961 256.185 164.006 256.389 164.055C256.592 164.095 256.8 164.144 257.011 164.201L256.743 166.069C256.409 165.955 256.018 165.857 255.571 165.776C255.131 165.686 254.659 165.642 254.155 165.642C253.642 165.642 253.186 165.707 252.788 165.837C252.397 165.959 252.071 166.146 251.811 166.398C251.534 166.659 251.323 166.997 251.176 167.412C251.038 167.827 250.969 168.311 250.969 168.864V169.792H256.059V171.538H250.969V183H248.698ZM270.732 173.479H259.832V171.513H270.732V173.479ZM270.732 178.544H259.832V176.591H270.732V178.544ZM278.399 165.581L278.143 170.097H276.556L276.568 165.776V164.25H278.399V165.581ZM282.757 165.581L282.5 170.097H280.926L280.938 165.776V164.25H282.769L282.757 165.581ZM295.379 177.995H292.157L291.18 183H289.435L290.411 177.995H287.494V176.323H290.729L291.571 172.001H288.421V170.305H291.9L292.901 165.227H294.647L293.646 170.305H296.869L297.87 165.227H299.615L298.614 170.305H301.117V172.001H298.285L297.442 176.323H300.201V177.995H297.125L296.148 183H294.403L295.379 177.995ZM292.474 176.323H295.697L296.539 172.001H293.316L292.474 176.323ZM309.015 181.413C309.422 181.413 309.817 181.348 310.199 181.218C310.59 181.088 310.936 180.904 311.237 180.668C311.538 180.441 311.778 180.172 311.957 179.863C312.144 179.545 312.242 179.204 312.25 178.837H314.386C314.378 179.423 314.223 179.985 313.922 180.522C313.629 181.051 313.235 181.515 312.738 181.914C312.242 182.32 311.672 182.646 311.029 182.89C310.386 183.126 309.715 183.244 309.015 183.244C308.014 183.244 307.139 183.065 306.391 182.707C305.642 182.349 305.019 181.865 304.523 181.254C304.018 180.652 303.64 179.956 303.388 179.167C303.135 178.369 303.009 177.531 303.009 176.652V176.14C303.009 175.269 303.135 174.435 303.388 173.637C303.64 172.84 304.018 172.136 304.523 171.525C305.019 170.923 305.642 170.443 306.391 170.085C307.139 169.727 308.014 169.548 309.015 169.548C309.796 169.548 310.513 169.674 311.164 169.926C311.823 170.17 312.392 170.504 312.873 170.927C313.345 171.359 313.715 171.867 313.983 172.453C314.252 173.039 314.386 173.666 314.386 174.333H312.25C312.242 173.934 312.152 173.56 311.981 173.21C311.819 172.852 311.595 172.539 311.31 172.27C311.025 172.001 310.683 171.79 310.285 171.635C309.894 171.481 309.471 171.403 309.015 171.403C308.315 171.403 307.725 171.546 307.245 171.831C306.773 172.107 306.391 172.469 306.098 172.917C305.805 173.373 305.593 173.881 305.463 174.443C305.341 175.004 305.28 175.57 305.28 176.14V176.652C305.28 177.23 305.341 177.804 305.463 178.374C305.593 178.935 305.805 179.44 306.098 179.887C306.382 180.343 306.761 180.713 307.233 180.998C307.713 181.275 308.307 181.413 309.015 181.413ZM317.268 176.274C317.268 175.322 317.406 174.439 317.683 173.625C317.959 172.803 318.358 172.091 318.879 171.489C319.392 170.887 320.018 170.415 320.759 170.073C321.499 169.723 322.333 169.548 323.261 169.548C324.197 169.548 325.035 169.723 325.776 170.073C326.525 170.415 327.159 170.887 327.68 171.489C328.193 172.091 328.588 172.803 328.864 173.625C329.141 174.439 329.279 175.322 329.279 176.274V176.542C329.279 177.495 329.141 178.378 328.864 179.191C328.588 180.005 328.193 180.713 327.68 181.315C327.159 181.918 326.529 182.39 325.788 182.731C325.048 183.073 324.213 183.244 323.286 183.244C322.35 183.244 321.507 183.073 320.759 182.731C320.018 182.39 319.392 181.918 318.879 181.315C318.358 180.713 317.959 180.005 317.683 179.191C317.406 178.378 317.268 177.495 317.268 176.542V176.274ZM319.526 176.542C319.526 177.194 319.603 177.816 319.758 178.41C319.912 178.996 320.148 179.513 320.466 179.96C320.775 180.408 321.166 180.762 321.638 181.022C322.11 181.283 322.659 181.413 323.286 181.413C323.904 181.413 324.445 181.283 324.909 181.022C325.381 180.762 325.776 180.408 326.093 179.96C326.403 179.513 326.634 178.996 326.789 178.41C326.944 177.816 327.021 177.194 327.021 176.542V176.274C327.021 175.631 326.94 175.017 326.777 174.431C326.622 173.837 326.39 173.316 326.081 172.868C325.764 172.421 325.369 172.067 324.897 171.806C324.433 171.538 323.888 171.403 323.261 171.403C322.635 171.403 322.089 171.538 321.625 171.806C321.162 172.067 320.775 172.421 320.466 172.868C320.148 173.316 319.912 173.837 319.758 174.431C319.603 175.017 319.526 175.631 319.526 176.274V176.542ZM332.417 183V169.792H334.443L334.602 171.745C334.797 171.468 335.009 171.216 335.237 170.988C335.473 170.752 335.721 170.549 335.981 170.378C336.372 170.118 336.795 169.918 337.251 169.78C337.715 169.633 338.203 169.556 338.716 169.548C339.408 169.548 340.034 169.646 340.596 169.841C341.165 170.036 341.65 170.341 342.048 170.756C342.447 171.171 342.752 171.7 342.964 172.343C343.184 172.978 343.293 173.735 343.293 174.614V183H341.035V174.663C341.035 174.077 340.97 173.58 340.84 173.173C340.71 172.766 340.518 172.437 340.266 172.185C340.006 171.932 339.688 171.749 339.314 171.635C338.948 171.521 338.525 171.464 338.044 171.464C337.629 171.464 337.243 171.525 336.885 171.647C336.527 171.761 336.197 171.92 335.896 172.124C335.652 172.303 335.424 172.51 335.212 172.746C335.009 172.982 334.83 173.243 334.675 173.527V183H332.417ZM352.278 166.594V169.792H357.308V171.538H352.278V178.715C352.278 179.228 352.343 179.651 352.474 179.985C352.604 180.319 352.783 180.583 353.011 180.778C353.239 180.982 353.499 181.124 353.792 181.206C354.093 181.287 354.41 181.328 354.744 181.328C354.988 181.328 355.241 181.315 355.501 181.291C355.761 181.258 356.018 181.222 356.27 181.181C356.514 181.14 356.742 181.1 356.954 181.059C357.173 181.01 357.352 180.97 357.491 180.937L357.808 182.536C357.621 182.65 357.393 182.752 357.125 182.841C356.856 182.923 356.563 182.992 356.246 183.049C355.928 183.114 355.59 183.163 355.232 183.195C354.882 183.228 354.533 183.244 354.183 183.244C353.597 183.244 353.047 183.163 352.535 183C352.03 182.829 351.591 182.561 351.216 182.194C350.842 181.836 350.545 181.372 350.325 180.803C350.114 180.225 350.008 179.529 350.008 178.715V171.538H346.541V169.792H350.008V166.594H352.278ZM370.125 183C370.036 182.829 369.963 182.618 369.906 182.365C369.857 182.105 369.82 181.836 369.796 181.56C369.568 181.787 369.312 182.003 369.027 182.207C368.75 182.41 368.445 182.589 368.111 182.744C367.77 182.898 367.407 183.02 367.025 183.11C366.642 183.199 366.236 183.244 365.804 183.244C365.104 183.244 364.47 183.142 363.9 182.939C363.338 182.736 362.862 182.459 362.472 182.109C362.073 181.767 361.764 181.36 361.544 180.888C361.332 180.408 361.227 179.891 361.227 179.338C361.227 178.614 361.369 177.979 361.654 177.434C361.947 176.888 362.358 176.433 362.887 176.066C363.416 175.708 364.05 175.44 364.791 175.261C365.54 175.082 366.374 174.992 367.293 174.992H369.759V173.955C369.759 173.556 369.686 173.198 369.54 172.88C369.393 172.563 369.186 172.29 368.917 172.062C368.648 171.843 368.319 171.672 367.928 171.55C367.546 171.428 367.114 171.367 366.634 171.367C366.187 171.367 365.784 171.424 365.426 171.538C365.076 171.652 364.779 171.802 364.535 171.989C364.291 172.176 364.099 172.4 363.961 172.661C363.831 172.913 363.766 173.177 363.766 173.454H361.495C361.503 172.974 361.625 172.502 361.861 172.038C362.105 171.574 362.455 171.155 362.911 170.781C363.359 170.415 363.904 170.118 364.547 169.89C365.198 169.662 365.934 169.548 366.756 169.548C367.505 169.548 368.201 169.641 368.844 169.829C369.487 170.008 370.044 170.28 370.516 170.646C370.98 171.021 371.346 171.485 371.615 172.038C371.883 172.591 372.018 173.238 372.018 173.979V180.119C372.018 180.559 372.058 181.027 372.14 181.523C372.221 182.011 372.335 182.438 372.481 182.805V183H370.125ZM366.134 181.279C366.573 181.279 366.984 181.222 367.367 181.108C367.749 180.994 368.099 180.843 368.417 180.656C368.726 180.469 368.994 180.257 369.222 180.021C369.45 179.777 369.629 179.525 369.759 179.265V176.591H367.66C366.878 176.591 366.195 176.66 365.609 176.799C365.031 176.929 364.571 177.132 364.229 177.409C363.985 177.604 363.798 177.836 363.668 178.105C363.546 178.374 363.485 178.679 363.485 179.021C363.485 179.346 363.538 179.647 363.644 179.924C363.757 180.201 363.924 180.437 364.144 180.632C364.364 180.835 364.64 180.994 364.974 181.108C365.308 181.222 365.694 181.279 366.134 181.279ZM381.588 181.413C381.995 181.413 382.39 181.348 382.772 181.218C383.163 181.088 383.509 180.904 383.81 180.668C384.111 180.441 384.351 180.172 384.53 179.863C384.717 179.545 384.815 179.204 384.823 178.837H386.959C386.951 179.423 386.797 179.985 386.496 180.522C386.203 181.051 385.808 181.515 385.312 181.914C384.815 182.32 384.245 182.646 383.603 182.89C382.96 183.126 382.288 183.244 381.588 183.244C380.587 183.244 379.713 183.065 378.964 182.707C378.215 182.349 377.593 181.865 377.096 181.254C376.592 180.652 376.213 179.956 375.961 179.167C375.709 178.369 375.583 177.531 375.583 176.652V176.14C375.583 175.269 375.709 174.435 375.961 173.637C376.213 172.84 376.592 172.136 377.096 171.525C377.593 170.923 378.215 170.443 378.964 170.085C379.713 169.727 380.587 169.548 381.588 169.548C382.37 169.548 383.086 169.674 383.737 169.926C384.396 170.17 384.966 170.504 385.446 170.927C385.918 171.359 386.288 171.867 386.557 172.453C386.825 173.039 386.959 173.666 386.959 174.333H384.823C384.815 173.934 384.726 173.56 384.555 173.21C384.392 172.852 384.168 172.539 383.883 172.27C383.598 172.001 383.257 171.79 382.858 171.635C382.467 171.481 382.044 171.403 381.588 171.403C380.889 171.403 380.299 171.546 379.818 171.831C379.346 172.107 378.964 172.469 378.671 172.917C378.378 173.373 378.166 173.881 378.036 174.443C377.914 175.004 377.853 175.57 377.853 176.14V176.652C377.853 177.23 377.914 177.804 378.036 178.374C378.166 178.935 378.378 179.44 378.671 179.887C378.956 180.343 379.334 180.713 379.806 180.998C380.286 181.275 380.88 181.413 381.588 181.413ZM395.822 166.594V169.792H400.852V171.538H395.822V178.715C395.822 179.228 395.887 179.651 396.018 179.985C396.148 180.319 396.327 180.583 396.555 180.778C396.783 180.982 397.043 181.124 397.336 181.206C397.637 181.287 397.954 181.328 398.288 181.328C398.532 181.328 398.785 181.315 399.045 181.291C399.305 181.258 399.562 181.222 399.814 181.181C400.058 181.14 400.286 181.1 400.498 181.059C400.717 181.01 400.896 180.97 401.035 180.937L401.352 182.536C401.165 182.65 400.937 182.752 400.668 182.841C400.4 182.923 400.107 182.992 399.79 183.049C399.472 183.114 399.134 183.163 398.776 183.195C398.426 183.228 398.076 183.244 397.727 183.244C397.141 183.244 396.591 183.163 396.079 183C395.574 182.829 395.135 182.561 394.76 182.194C394.386 181.836 394.089 181.372 393.869 180.803C393.658 180.225 393.552 179.529 393.552 178.715V171.538H390.085V169.792H393.552V166.594H395.822ZM409.031 165.581L408.774 170.097H407.188L407.2 165.776V164.25H409.031V165.581ZM413.389 165.581L413.132 170.097H411.558L411.57 165.776V164.25H413.401L413.389 165.581ZM419.554 180.595V178.251L427.452 175.273L428.184 175.065L427.452 174.833L419.554 171.904V169.572L430.333 174.187V175.969L419.554 180.595ZM438.304 174.956H436.217V183H433.958V165.227H436.217V173.112H438.121L443.529 165.227H446.117L440.074 173.833L446.617 183H443.846L438.304 174.956ZM447.899 176.274C447.899 175.322 448.038 174.439 448.314 173.625C448.591 172.803 448.99 172.091 449.511 171.489C450.023 170.887 450.65 170.415 451.391 170.073C452.131 169.723 452.965 169.548 453.893 169.548C454.829 169.548 455.667 169.723 456.408 170.073C457.156 170.415 457.791 170.887 458.312 171.489C458.825 172.091 459.219 172.803 459.496 173.625C459.773 174.439 459.911 175.322 459.911 176.274V176.542C459.911 177.495 459.773 178.378 459.496 179.191C459.219 180.005 458.825 180.713 458.312 181.315C457.791 181.918 457.16 182.39 456.42 182.731C455.679 183.073 454.845 183.244 453.917 183.244C452.982 183.244 452.139 183.073 451.391 182.731C450.65 182.39 450.023 181.918 449.511 181.315C448.99 180.713 448.591 180.005 448.314 179.191C448.038 178.378 447.899 177.495 447.899 176.542V176.274ZM450.158 176.542C450.158 177.194 450.235 177.816 450.39 178.41C450.544 178.996 450.78 179.513 451.098 179.96C451.407 180.408 451.798 180.762 452.27 181.022C452.742 181.283 453.291 181.413 453.917 181.413C454.536 181.413 455.077 181.283 455.541 181.022C456.013 180.762 456.408 180.408 456.725 179.96C457.034 179.513 457.266 178.996 457.421 178.41C457.576 177.816 457.653 177.194 457.653 176.542V176.274C457.653 175.631 457.571 175.017 457.409 174.431C457.254 173.837 457.022 173.316 456.713 172.868C456.396 172.421 456.001 172.067 455.529 171.806C455.065 171.538 454.52 171.403 453.893 171.403C453.266 171.403 452.721 171.538 452.257 171.806C451.793 172.067 451.407 172.421 451.098 172.868C450.78 173.316 450.544 173.837 450.39 174.431C450.235 175.017 450.158 175.631 450.158 176.274V176.542ZM473.901 183H471.643V177.36H465.197V183H462.939V169.792H465.197V175.517H471.643V169.792H473.901V183ZM489.441 171.623H484.167V183H481.897V171.623H476.709V169.792H489.441V171.623ZM500.757 183C500.668 182.829 500.595 182.618 500.538 182.365C500.489 182.105 500.452 181.836 500.428 181.56C500.2 181.787 499.944 182.003 499.659 182.207C499.382 182.41 499.077 182.589 498.743 182.744C498.401 182.898 498.039 183.02 497.657 183.11C497.274 183.199 496.867 183.244 496.436 183.244C495.736 183.244 495.101 183.142 494.532 182.939C493.97 182.736 493.494 182.459 493.104 182.109C492.705 181.767 492.396 181.36 492.176 180.888C491.964 180.408 491.858 179.891 491.858 179.338C491.858 178.614 492.001 177.979 492.286 177.434C492.579 176.888 492.99 176.433 493.519 176.066C494.048 175.708 494.682 175.44 495.423 175.261C496.172 175.082 497.006 174.992 497.925 174.992H500.391V173.955C500.391 173.556 500.318 173.198 500.171 172.88C500.025 172.563 499.817 172.29 499.549 172.062C499.28 171.843 498.951 171.672 498.56 171.55C498.178 171.428 497.746 171.367 497.266 171.367C496.819 171.367 496.416 171.424 496.058 171.538C495.708 171.652 495.411 171.802 495.167 171.989C494.922 172.176 494.731 172.4 494.593 172.661C494.463 172.913 494.397 173.177 494.397 173.454H492.127C492.135 172.974 492.257 172.502 492.493 172.038C492.737 171.574 493.087 171.155 493.543 170.781C493.991 170.415 494.536 170.118 495.179 169.89C495.83 169.662 496.566 169.548 497.388 169.548C498.137 169.548 498.833 169.641 499.476 169.829C500.118 170.008 500.676 170.28 501.148 170.646C501.612 171.021 501.978 171.485 502.247 172.038C502.515 172.591 502.649 173.238 502.649 173.979V180.119C502.649 180.559 502.69 181.027 502.771 181.523C502.853 182.011 502.967 182.438 503.113 182.805V183H500.757ZM496.766 181.279C497.205 181.279 497.616 181.222 497.999 181.108C498.381 180.994 498.731 180.843 499.048 180.656C499.358 180.469 499.626 180.257 499.854 180.021C500.082 179.777 500.261 179.525 500.391 179.265V176.591H498.292C497.51 176.591 496.827 176.66 496.241 176.799C495.663 176.929 495.203 177.132 494.861 177.409C494.617 177.604 494.43 177.836 494.3 178.105C494.178 178.374 494.117 178.679 494.117 179.021C494.117 179.346 494.17 179.647 494.275 179.924C494.389 180.201 494.556 180.437 494.776 180.632C494.996 180.835 495.272 180.994 495.606 181.108C495.94 181.222 496.326 181.279 496.766 181.279ZM510.877 177.373H508.729V183H506.471V169.792H508.729V175.383H510.682L515.602 169.792H518.348L512.684 176.152L518.788 183H515.919L510.877 177.373ZM532.985 171.623H527.711V183H525.441V171.623H520.253V169.792H532.985V171.623ZM537.514 174.797H538.723C539.431 174.797 540.057 174.899 540.603 175.102C541.156 175.306 541.62 175.586 541.994 175.944C542.36 176.311 542.637 176.742 542.824 177.238C543.02 177.735 543.117 178.272 543.117 178.85C543.117 179.427 543.02 179.969 542.824 180.473C542.637 180.978 542.36 181.417 541.994 181.792C541.62 182.166 541.16 182.463 540.615 182.683C540.069 182.894 539.439 183 538.723 183H535.256V169.792H537.514V174.797ZM546.767 183H544.509V169.792H546.767V183ZM537.514 176.64V181.157H538.723C539.105 181.157 539.431 181.096 539.699 180.974C539.968 180.843 540.188 180.673 540.358 180.461C540.521 180.257 540.639 180.026 540.712 179.765C540.794 179.497 540.834 179.22 540.834 178.935C540.834 178.667 540.794 178.398 540.712 178.129C540.639 177.853 540.521 177.604 540.358 177.385C540.188 177.165 539.968 176.986 539.699 176.848C539.431 176.709 539.105 176.64 538.723 176.64H537.514ZM560.439 180.607L550.088 175.981V174.199L560.439 169.584V171.977L552.969 174.907L552.322 175.114L552.969 175.334L560.439 178.215V180.607ZM567.63 184.526H565.604L573.025 165.227H575.04L567.63 184.526ZM593.729 180.595V178.251L601.627 175.273L602.36 175.065L601.627 174.833L593.729 171.904V169.572L604.508 174.187V175.969L593.729 180.595ZM618.498 180.607L608.146 175.981V174.199L618.498 169.584V171.977L611.027 174.907L610.38 175.114L611.027 175.334L618.498 178.215V180.607ZM625.688 184.526H623.662L631.084 165.227H633.098L625.688 184.526ZM666.303 180.595V178.251L674.201 175.273L674.933 175.065L674.201 174.833L666.303 171.904V169.572L677.082 174.187V175.969L666.303 180.595ZM81.4561 213.607L71.1045 208.981V207.199L81.4561 202.584V204.977L73.9854 207.907L73.3384 208.114L73.9854 208.334L81.4561 211.215V213.607ZM88.6465 217.526H86.6201L94.042 198.227H96.0562L88.6465 217.526ZM129.261 213.595V211.251L137.159 208.273L137.891 208.065L137.159 207.833L129.261 204.904V202.572L140.04 207.187V208.969L129.261 213.595ZM52.4268 246.607L42.0752 241.981V240.199L52.4268 235.584V237.977L44.9561 240.907L44.3091 241.114L44.9561 241.334L52.4268 244.215V246.607ZM59.6172 250.526H57.5908L65.0127 231.227H67.0269L59.6172 250.526ZM114.746 246.595V244.251L122.644 241.273L123.376 241.065L122.644 240.833L114.746 237.904V235.572L125.525 240.187V241.969L114.746 246.595Z" fill="white"/>
<path d="M56.6387 51V37.792H58.665L58.8237 39.7451C59.019 39.4684 59.2306 39.2161 59.4585 38.9883C59.6945 38.7523 59.9427 38.5488 60.2031 38.3779C60.5938 38.1175 61.0169 37.9181 61.4727 37.7798C61.9365 37.6333 62.4248 37.556 62.9375 37.5479C63.6292 37.5479 64.2559 37.6455 64.8174 37.8408C65.387 38.0361 65.8713 38.3413 66.27 38.7563C66.6688 39.1714 66.974 39.7004 67.1855 40.3433C67.4053 40.978 67.5151 41.7349 67.5151 42.6138V51H65.2568V42.6626C65.2568 42.0767 65.1917 41.5802 65.0615 41.1733C64.9313 40.7664 64.7401 40.4368 64.4878 40.1846C64.2274 39.9323 63.91 39.7492 63.5356 39.6353C63.1694 39.5213 62.7463 39.4644 62.2661 39.4644C61.8511 39.4644 61.4645 39.5254 61.1064 39.6475C60.7484 39.7614 60.4188 39.9201 60.1177 40.1235C59.8735 40.3026 59.6457 40.5101 59.4341 40.7461C59.2306 40.9821 59.0516 41.2425 58.897 41.5273V51H56.6387ZM79.8325 51C79.743 50.8291 79.6698 50.6175 79.6128 50.3652C79.564 50.1048 79.5273 49.8363 79.5029 49.5596C79.2751 49.7874 79.0187 50.0031 78.7339 50.2065C78.4572 50.41 78.152 50.589 77.8184 50.7437C77.4766 50.8983 77.1144 51.0203 76.7319 51.1099C76.3494 51.1994 75.9425 51.2441 75.5112 51.2441C74.8114 51.2441 74.1766 51.1424 73.6069 50.939C73.0454 50.7355 72.5693 50.4588 72.1787 50.1089C71.7799 49.7671 71.4707 49.3602 71.251 48.8882C71.0394 48.408 70.9336 47.8913 70.9336 47.3379C70.9336 46.6136 71.076 45.9788 71.3608 45.4336C71.6538 44.8883 72.0648 44.4326 72.5938 44.0664C73.1227 43.7083 73.7575 43.4398 74.498 43.2607C75.2467 43.0817 76.0809 42.9922 77.0005 42.9922H79.4663V41.9546C79.4663 41.5558 79.3931 41.1978 79.2466 40.8804C79.1001 40.563 78.8926 40.2904 78.624 40.0625C78.3555 39.8428 78.0259 39.6719 77.6353 39.5498C77.2528 39.4277 76.8215 39.3667 76.3413 39.3667C75.8937 39.3667 75.4909 39.4237 75.1328 39.5376C74.7829 39.6515 74.4858 39.8021 74.2417 39.9893C73.9976 40.1764 73.8063 40.4002 73.668 40.6606C73.5378 40.9129 73.4727 41.1774 73.4727 41.4541H71.2021C71.2103 40.974 71.3324 40.502 71.5684 40.0381C71.8125 39.5742 72.1624 39.1551 72.6182 38.7808C73.0658 38.4146 73.611 38.1175 74.2539 37.8896C74.9049 37.6618 75.6414 37.5479 76.4634 37.5479C77.2121 37.5479 77.9079 37.6414 78.5508 37.8286C79.1937 38.0076 79.7511 38.2803 80.2231 38.6465C80.687 39.0208 81.0532 39.4847 81.3218 40.0381C81.5903 40.5915 81.7246 41.2384 81.7246 41.979V48.1191C81.7246 48.5586 81.7653 49.0265 81.8467 49.5229C81.9281 50.0112 82.042 50.4385 82.1885 50.8047V51H79.8325ZM75.8408 49.2788C76.2803 49.2788 76.6912 49.2218 77.0737 49.1079C77.4562 48.994 77.8062 48.8434 78.1235 48.6562C78.4328 48.4691 78.7013 48.2575 78.9292 48.0215C79.1571 47.7773 79.3361 47.5251 79.4663 47.2646V44.5913H77.3667C76.5854 44.5913 75.9019 44.6605 75.3159 44.7988C74.7381 44.929 74.2783 45.1325 73.9365 45.4092C73.6924 45.6045 73.5052 45.8364 73.375 46.105C73.2529 46.3735 73.1919 46.6787 73.1919 47.0205C73.1919 47.346 73.2448 47.6471 73.3506 47.9238C73.4645 48.2005 73.6313 48.4365 73.8511 48.6318C74.0708 48.8353 74.3475 48.994 74.6812 49.1079C75.0148 49.2218 75.4014 49.2788 75.8408 49.2788ZM90.1724 51L84.7402 37.792H87.0596L90.8438 47.7529L91.0513 48.5708L91.271 47.7529L94.9697 37.792H97.2769L91.8936 51H90.1724ZM94.3716 84L94.2373 82.1812C93.7979 82.8322 93.2485 83.3408 92.5894 83.707C91.9302 84.0651 91.1693 84.2441 90.3066 84.2441C89.6149 84.2441 88.9883 84.1383 88.4268 83.9268C87.8652 83.707 87.3851 83.3693 86.9863 82.9136C86.5876 82.4578 86.2783 81.88 86.0586 81.1802C85.847 80.4722 85.7412 79.6258 85.7412 78.6411V70.792H87.9995V78.6655C87.9995 79.3817 88.0565 79.9757 88.1704 80.4478C88.2843 80.9198 88.4552 81.2941 88.6831 81.5708C88.911 81.8556 89.1877 82.055 89.5132 82.1689C89.8468 82.2829 90.2293 82.3398 90.6606 82.3398C91.1652 82.3398 91.6169 82.2829 92.0156 82.1689C92.4144 82.0469 92.7603 81.88 93.0532 81.6685C93.2974 81.4976 93.509 81.2941 93.688 81.0581C93.8752 80.814 94.0298 80.5495 94.1519 80.2646V70.792H96.4224V84H94.3716ZM100.537 65.25H107.287V82.0469H111.596V84H100.537V82.0469H105.029V67.2153H100.537V65.25ZM115.051 98.25H121.802V115.047H126.111V117H115.051V115.047H119.543V100.215H115.051V98.25ZM129.566 103.792H136.316V115.047H140.625V117H129.566V115.047H134.058V105.757H129.566V103.792ZM133.765 100.325C133.765 100.13 133.794 99.9468 133.851 99.7759C133.916 99.605 134.013 99.4585 134.144 99.3364C134.249 99.2306 134.384 99.1493 134.546 99.0923C134.717 99.0272 134.909 98.9946 135.12 98.9946C135.332 98.9946 135.519 99.0272 135.682 99.0923C135.844 99.1493 135.979 99.2306 136.084 99.3364C136.215 99.4504 136.312 99.5928 136.377 99.7637C136.443 99.9346 136.475 100.122 136.475 100.325C136.475 100.691 136.361 100.997 136.133 101.241C135.905 101.485 135.568 101.607 135.12 101.607C134.664 101.607 134.323 101.485 134.095 101.241C133.875 100.997 133.765 100.691 133.765 100.325ZM181.435 117C181.346 116.829 181.272 116.618 181.215 116.365C181.167 116.105 181.13 115.836 181.105 115.56C180.878 115.787 180.621 116.003 180.336 116.207C180.06 116.41 179.755 116.589 179.421 116.744C179.079 116.898 178.717 117.02 178.334 117.11C177.952 117.199 177.545 117.244 177.114 117.244C176.414 117.244 175.779 117.142 175.209 116.939C174.648 116.736 174.172 116.459 173.781 116.109C173.382 115.767 173.073 115.36 172.854 114.888C172.642 114.408 172.536 113.891 172.536 113.338C172.536 112.614 172.679 111.979 172.963 111.434C173.256 110.888 173.667 110.433 174.196 110.066C174.725 109.708 175.36 109.44 176.101 109.261C176.849 109.082 177.683 108.992 178.603 108.992H181.069V107.955C181.069 107.556 180.996 107.198 180.849 106.88C180.703 106.563 180.495 106.29 180.227 106.062C179.958 105.843 179.628 105.672 179.238 105.55C178.855 105.428 178.424 105.367 177.944 105.367C177.496 105.367 177.093 105.424 176.735 105.538C176.385 105.652 176.088 105.802 175.844 105.989C175.6 106.176 175.409 106.4 175.271 106.661C175.14 106.913 175.075 107.177 175.075 107.454H172.805C172.813 106.974 172.935 106.502 173.171 106.038C173.415 105.574 173.765 105.155 174.221 104.781C174.668 104.415 175.214 104.118 175.856 103.89C176.507 103.662 177.244 103.548 178.066 103.548C178.815 103.548 179.51 103.641 180.153 103.829C180.796 104.008 181.354 104.28 181.826 104.646C182.29 105.021 182.656 105.485 182.924 106.038C183.193 106.591 183.327 107.238 183.327 107.979V114.119C183.327 114.559 183.368 115.027 183.449 115.523C183.531 116.011 183.645 116.438 183.791 116.805V117H181.435ZM177.443 115.279C177.883 115.279 178.294 115.222 178.676 115.108C179.059 114.994 179.409 114.843 179.726 114.656C180.035 114.469 180.304 114.257 180.532 114.021C180.76 113.777 180.939 113.525 181.069 113.265V110.591H178.969C178.188 110.591 177.504 110.66 176.918 110.799C176.341 110.929 175.881 111.132 175.539 111.409C175.295 111.604 175.108 111.836 174.978 112.105C174.855 112.374 174.794 112.679 174.794 113.021C174.794 113.346 174.847 113.647 174.953 113.924C175.067 114.201 175.234 114.437 175.454 114.632C175.673 114.835 175.95 114.994 176.284 115.108C176.617 115.222 177.004 115.279 177.443 115.279ZM515.272 117C515.182 116.829 515.109 116.618 515.052 116.365C515.003 116.105 514.967 115.836 514.942 115.56C514.715 115.787 514.458 116.003 514.173 116.207C513.897 116.41 513.591 116.589 513.258 116.744C512.916 116.898 512.554 117.02 512.171 117.11C511.789 117.199 511.382 117.244 510.951 117.244C510.251 117.244 509.616 117.142 509.046 116.939C508.485 116.736 508.009 116.459 507.618 116.109C507.219 115.767 506.91 115.36 506.69 114.888C506.479 114.408 506.373 113.891 506.373 113.338C506.373 112.614 506.515 111.979 506.8 111.434C507.093 110.888 507.504 110.433 508.033 110.066C508.562 109.708 509.197 109.44 509.938 109.261C510.686 109.082 511.52 108.992 512.44 108.992H514.906V107.955C514.906 107.556 514.833 107.198 514.686 106.88C514.54 106.563 514.332 106.29 514.063 106.062C513.795 105.843 513.465 105.672 513.075 105.55C512.692 105.428 512.261 105.367 511.781 105.367C511.333 105.367 510.93 105.424 510.572 105.538C510.222 105.652 509.925 105.802 509.681 105.989C509.437 106.176 509.246 106.4 509.107 106.661C508.977 106.913 508.912 107.177 508.912 107.454H506.642C506.65 106.974 506.772 106.502 507.008 106.038C507.252 105.574 507.602 105.155 508.058 104.781C508.505 104.415 509.05 104.118 509.693 103.89C510.344 103.662 511.081 103.548 511.903 103.548C512.652 103.548 513.347 103.641 513.99 103.829C514.633 104.008 515.191 104.28 515.663 104.646C516.126 105.021 516.493 105.485 516.761 106.038C517.03 106.591 517.164 107.238 517.164 107.979V114.119C517.164 114.559 517.205 115.027 517.286 115.523C517.368 116.011 517.481 116.438 517.628 116.805V117H515.272ZM511.28 115.279C511.72 115.279 512.131 115.222 512.513 115.108C512.896 114.994 513.246 114.843 513.563 114.656C513.872 114.469 514.141 114.257 514.369 114.021C514.597 113.777 514.776 113.525 514.906 113.265V110.591H512.806C512.025 110.591 511.341 110.66 510.755 110.799C510.178 110.929 509.718 111.132 509.376 111.409C509.132 111.604 508.945 111.836 508.814 112.105C508.692 112.374 508.631 112.679 508.631 113.021C508.631 113.346 508.684 113.647 508.79 113.924C508.904 114.201 509.071 114.437 509.291 114.632C509.51 114.835 509.787 114.994 510.121 115.108C510.454 115.222 510.841 115.279 511.28 115.279ZM565.005 98.25H571.756V115.047H576.065V117H565.005V115.047H569.498V100.215H565.005V98.25ZM579.52 103.792H586.271V115.047H590.58V117H579.52V115.047H584.012V105.757H579.52V103.792ZM583.719 100.325C583.719 100.13 583.748 99.9468 583.805 99.7759C583.87 99.605 583.967 99.4585 584.098 99.3364C584.203 99.2306 584.338 99.1493 584.5 99.0923C584.671 99.0272 584.863 98.9946 585.074 98.9946C585.286 98.9946 585.473 99.0272 585.636 99.0923C585.799 99.1493 585.933 99.2306 586.039 99.3364C586.169 99.4504 586.266 99.5928 586.332 99.7637C586.397 99.9346 586.429 100.122 586.429 100.325C586.429 100.691 586.315 100.997 586.087 101.241C585.86 101.485 585.522 101.607 585.074 101.607C584.618 101.607 584.277 101.485 584.049 101.241C583.829 100.997 583.719 100.691 583.719 100.325ZM115.051 131.25H121.802V148.047H126.111V150H115.051V148.047H119.543V133.215H115.051V131.25ZM129.566 136.792H136.316V148.047H140.625V150H129.566V148.047H134.058V138.757H129.566V136.792ZM133.765 133.325C133.765 133.13 133.794 132.947 133.851 132.776C133.916 132.605 134.013 132.458 134.144 132.336C134.249 132.231 134.384 132.149 134.546 132.092C134.717 132.027 134.909 131.995 135.12 131.995C135.332 131.995 135.519 132.027 135.682 132.092C135.844 132.149 135.979 132.231 136.084 132.336C136.215 132.45 136.312 132.593 136.377 132.764C136.443 132.935 136.475 133.122 136.475 133.325C136.475 133.691 136.361 133.997 136.133 134.241C135.905 134.485 135.568 134.607 135.12 134.607C134.664 134.607 134.323 134.485 134.095 134.241C133.875 133.997 133.765 133.691 133.765 133.325ZM181.435 150C181.346 149.829 181.272 149.618 181.215 149.365C181.167 149.105 181.13 148.836 181.105 148.56C180.878 148.787 180.621 149.003 180.336 149.207C180.06 149.41 179.755 149.589 179.421 149.744C179.079 149.898 178.717 150.02 178.334 150.11C177.952 150.199 177.545 150.244 177.114 150.244C176.414 150.244 175.779 150.142 175.209 149.939C174.648 149.736 174.172 149.459 173.781 149.109C173.382 148.767 173.073 148.36 172.854 147.888C172.642 147.408 172.536 146.891 172.536 146.338C172.536 145.614 172.679 144.979 172.963 144.434C173.256 143.888 173.667 143.433 174.196 143.066C174.725 142.708 175.36 142.44 176.101 142.261C176.849 142.082 177.683 141.992 178.603 141.992H181.069V140.955C181.069 140.556 180.996 140.198 180.849 139.88C180.703 139.563 180.495 139.29 180.227 139.062C179.958 138.843 179.628 138.672 179.238 138.55C178.855 138.428 178.424 138.367 177.944 138.367C177.496 138.367 177.093 138.424 176.735 138.538C176.385 138.652 176.088 138.802 175.844 138.989C175.6 139.176 175.409 139.4 175.271 139.661C175.14 139.913 175.075 140.177 175.075 140.454H172.805C172.813 139.974 172.935 139.502 173.171 139.038C173.415 138.574 173.765 138.155 174.221 137.781C174.668 137.415 175.214 137.118 175.856 136.89C176.507 136.662 177.244 136.548 178.066 136.548C178.815 136.548 179.51 136.641 180.153 136.829C180.796 137.008 181.354 137.28 181.826 137.646C182.29 138.021 182.656 138.485 182.924 139.038C183.193 139.591 183.327 140.238 183.327 140.979V147.119C183.327 147.559 183.368 148.027 183.449 148.523C183.531 149.011 183.645 149.438 183.791 149.805V150H181.435ZM177.443 148.279C177.883 148.279 178.294 148.222 178.676 148.108C179.059 147.994 179.409 147.843 179.726 147.656C180.035 147.469 180.304 147.257 180.532 147.021C180.76 146.777 180.939 146.525 181.069 146.265V143.591H178.969C178.188 143.591 177.504 143.66 176.918 143.799C176.341 143.929 175.881 144.132 175.539 144.409C175.295 144.604 175.108 144.836 174.978 145.105C174.855 145.374 174.794 145.679 174.794 146.021C174.794 146.346 174.847 146.647 174.953 146.924C175.067 147.201 175.234 147.437 175.454 147.632C175.673 147.835 175.95 147.994 176.284 148.108C176.617 148.222 177.004 148.279 177.443 148.279ZM573.331 150C573.241 149.829 573.168 149.618 573.111 149.365C573.062 149.105 573.025 148.836 573.001 148.56C572.773 148.787 572.517 149.003 572.232 149.207C571.955 149.41 571.65 149.589 571.316 149.744C570.975 149.898 570.612 150.02 570.23 150.11C569.847 150.199 569.441 150.244 569.009 150.244C568.309 150.244 567.675 150.142 567.105 149.939C566.543 149.736 566.067 149.459 565.677 149.109C565.278 148.767 564.969 148.36 564.749 147.888C564.537 147.408 564.432 146.891 564.432 146.338C564.432 145.614 564.574 144.979 564.859 144.434C565.152 143.888 565.563 143.433 566.092 143.066C566.621 142.708 567.256 142.44 567.996 142.261C568.745 142.082 569.579 141.992 570.499 141.992H572.964V140.955C572.964 140.556 572.891 140.198 572.745 139.88C572.598 139.563 572.391 139.29 572.122 139.062C571.854 138.843 571.524 138.672 571.133 138.55C570.751 138.428 570.319 138.367 569.839 138.367C569.392 138.367 568.989 138.424 568.631 138.538C568.281 138.652 567.984 138.802 567.74 138.989C567.496 139.176 567.304 139.4 567.166 139.661C567.036 139.913 566.971 140.177 566.971 140.454H564.7C564.708 139.974 564.83 139.502 565.066 139.038C565.311 138.574 565.66 138.155 566.116 137.781C566.564 137.415 567.109 137.118 567.752 136.89C568.403 136.662 569.139 136.548 569.961 136.548C570.71 136.548 571.406 136.641 572.049 136.829C572.692 137.008 573.249 137.28 573.721 137.646C574.185 138.021 574.551 138.485 574.82 139.038C575.088 139.591 575.223 140.238 575.223 140.979V147.119C575.223 147.559 575.263 148.027 575.345 148.523C575.426 149.011 575.54 149.438 575.687 149.805V150H573.331ZM569.339 148.279C569.778 148.279 570.189 148.222 570.572 148.108C570.954 147.994 571.304 147.843 571.622 147.656C571.931 147.469 572.199 147.257 572.427 147.021C572.655 146.777 572.834 146.525 572.964 146.265V143.591H570.865C570.083 143.591 569.4 143.66 568.814 143.799C568.236 143.929 567.776 144.132 567.435 144.409C567.19 144.604 567.003 144.836 566.873 145.105C566.751 145.374 566.69 145.679 566.69 146.021C566.69 146.346 566.743 146.647 566.849 146.924C566.963 147.201 567.129 147.437 567.349 147.632C567.569 147.835 567.846 147.994 568.179 148.108C568.513 148.222 568.899 148.279 569.339 148.279ZM623.064 131.25H629.814V148.047H634.124V150H623.064V148.047H627.556V133.215H623.064V131.25ZM637.579 136.792H644.329V148.047H648.638V150H637.579V148.047H642.071V138.757H637.579V136.792ZM641.778 133.325C641.778 133.13 641.806 132.947 641.863 132.776C641.928 132.605 642.026 132.458 642.156 132.336C642.262 132.231 642.396 132.149 642.559 132.092C642.73 132.027 642.921 131.995 643.133 131.995C643.344 131.995 643.532 132.027 643.694 132.092C643.857 132.149 643.991 132.231 644.097 132.336C644.227 132.45 644.325 132.593 644.39 132.764C644.455 132.935 644.488 133.122 644.488 133.325C644.488 133.691 644.374 133.997 644.146 134.241C643.918 134.485 643.58 134.607 643.133 134.607C642.677 134.607 642.335 134.485 642.107 134.241C641.888 133.997 641.778 133.691 641.778 133.325ZM115.051 164.25H121.802V181.047H126.111V183H115.051V181.047H119.543V166.215H115.051V164.25ZM129.566 169.792H136.316V181.047H140.625V183H129.566V181.047H134.058V171.757H129.566V169.792ZM133.765 166.325C133.765 166.13 133.794 165.947 133.851 165.776C133.916 165.605 134.013 165.458 134.144 165.336C134.249 165.231 134.384 165.149 134.546 165.092C134.717 165.027 134.909 164.995 135.12 164.995C135.332 164.995 135.519 165.027 135.682 165.092C135.844 165.149 135.979 165.231 136.084 165.336C136.215 165.45 136.312 165.593 136.377 165.764C136.443 165.935 136.475 166.122 136.475 166.325C136.475 166.691 136.361 166.997 136.133 167.241C135.905 167.485 135.568 167.607 135.12 167.607C134.664 167.607 134.323 167.485 134.095 167.241C133.875 166.997 133.765 166.691 133.765 166.325ZM181.435 183C181.346 182.829 181.272 182.618 181.215 182.365C181.167 182.105 181.13 181.836 181.105 181.56C180.878 181.787 180.621 182.003 180.336 182.207C180.06 182.41 179.755 182.589 179.421 182.744C179.079 182.898 178.717 183.02 178.334 183.11C177.952 183.199 177.545 183.244 177.114 183.244C176.414 183.244 175.779 183.142 175.209 182.939C174.648 182.736 174.172 182.459 173.781 182.109C173.382 181.767 173.073 181.36 172.854 180.888C172.642 180.408 172.536 179.891 172.536 179.338C172.536 178.614 172.679 177.979 172.963 177.434C173.256 176.888 173.667 176.433 174.196 176.066C174.725 175.708 175.36 175.44 176.101 175.261C176.849 175.082 177.683 174.992 178.603 174.992H181.069V173.955C181.069 173.556 180.996 173.198 180.849 172.88C180.703 172.563 180.495 172.29 180.227 172.062C179.958 171.843 179.628 171.672 179.238 171.55C178.855 171.428 178.424 171.367 177.944 171.367C177.496 171.367 177.093 171.424 176.735 171.538C176.385 171.652 176.088 171.802 175.844 171.989C175.6 172.176 175.409 172.4 175.271 172.661C175.14 172.913 175.075 173.177 175.075 173.454H172.805C172.813 172.974 172.935 172.502 173.171 172.038C173.415 171.574 173.765 171.155 174.221 170.781C174.668 170.415 175.214 170.118 175.856 169.89C176.507 169.662 177.244 169.548 178.066 169.548C178.815 169.548 179.51 169.641 180.153 169.829C180.796 170.008 181.354 170.28 181.826 170.646C182.29 171.021 182.656 171.485 182.924 172.038C183.193 172.591 183.327 173.238 183.327 173.979V180.119C183.327 180.559 183.368 181.027 183.449 181.523C183.531 182.011 183.645 182.438 183.791 182.805V183H181.435ZM177.443 181.279C177.883 181.279 178.294 181.222 178.676 181.108C179.059 180.994 179.409 180.843 179.726 180.656C180.035 180.469 180.304 180.257 180.532 180.021C180.76 179.777 180.939 179.525 181.069 179.265V176.591H178.969C178.188 176.591 177.504 176.66 176.918 176.799C176.341 176.929 175.881 177.132 175.539 177.409C175.295 177.604 175.108 177.836 174.978 178.105C174.855 178.374 174.794 178.679 174.794 179.021C174.794 179.346 174.847 179.647 174.953 179.924C175.067 180.201 175.234 180.437 175.454 180.632C175.673 180.835 175.95 180.994 176.284 181.108C176.617 181.222 177.004 181.279 177.443 181.279ZM587.845 183C587.756 182.829 587.682 182.618 587.625 182.365C587.577 182.105 587.54 181.836 587.516 181.56C587.288 181.787 587.031 182.003 586.747 182.207C586.47 182.41 586.165 182.589 585.831 182.744C585.489 182.898 585.127 183.02 584.745 183.11C584.362 183.199 583.955 183.244 583.524 183.244C582.824 183.244 582.189 183.142 581.62 182.939C581.058 182.736 580.582 182.459 580.191 182.109C579.793 181.767 579.483 181.36 579.264 180.888C579.052 180.408 578.946 179.891 578.946 179.338C578.946 178.614 579.089 177.979 579.374 177.434C579.667 176.888 580.077 176.433 580.606 176.066C581.135 175.708 581.77 175.44 582.511 175.261C583.259 175.082 584.094 174.992 585.013 174.992H587.479V173.955C587.479 173.556 587.406 173.198 587.259 172.88C587.113 172.563 586.905 172.29 586.637 172.062C586.368 171.843 586.039 171.672 585.648 171.55C585.265 171.428 584.834 171.367 584.354 171.367C583.906 171.367 583.504 171.424 583.146 171.538C582.796 171.652 582.499 171.802 582.254 171.989C582.01 172.176 581.819 172.4 581.681 172.661C581.55 172.913 581.485 173.177 581.485 173.454H579.215C579.223 172.974 579.345 172.502 579.581 172.038C579.825 171.574 580.175 171.155 580.631 170.781C581.078 170.415 581.624 170.118 582.267 169.89C582.918 169.662 583.654 169.548 584.476 169.548C585.225 169.548 585.921 169.641 586.563 169.829C587.206 170.008 587.764 170.28 588.236 170.646C588.7 171.021 589.066 171.485 589.334 172.038C589.603 172.591 589.737 173.238 589.737 173.979V180.119C589.737 180.559 589.778 181.027 589.859 181.523C589.941 182.011 590.055 182.438 590.201 182.805V183H587.845ZM583.854 181.279C584.293 181.279 584.704 181.222 585.086 181.108C585.469 180.994 585.819 180.843 586.136 180.656C586.445 180.469 586.714 180.257 586.942 180.021C587.17 179.777 587.349 179.525 587.479 179.265V176.591H585.379C584.598 176.591 583.915 176.66 583.329 176.799C582.751 176.929 582.291 177.132 581.949 177.409C581.705 177.604 581.518 177.836 581.388 178.105C581.266 178.374 581.205 178.679 581.205 179.021C581.205 179.346 581.257 179.647 581.363 179.924C581.477 180.201 581.644 180.437 581.864 180.632C582.083 180.835 582.36 180.994 582.694 181.108C583.028 181.222 583.414 181.279 583.854 181.279ZM637.579 164.25H644.329V181.047H648.638V183H637.579V181.047H642.071V166.215H637.579V164.25ZM652.093 169.792H658.844V181.047H663.153V183H652.093V181.047H656.585V171.757H652.093V169.792ZM656.292 166.325C656.292 166.13 656.321 165.947 656.378 165.776C656.443 165.605 656.541 165.458 656.671 165.336C656.777 165.231 656.911 165.149 657.074 165.092C657.245 165.027 657.436 164.995 657.647 164.995C657.859 164.995 658.046 165.027 658.209 165.092C658.372 165.149 658.506 165.231 658.612 165.336C658.742 165.45 658.84 165.593 658.905 165.764C658.97 165.935 659.002 166.122 659.002 166.325C659.002 166.691 658.889 166.997 658.661 167.241C658.433 167.485 658.095 167.607 657.647 167.607C657.192 167.607 656.85 167.485 656.622 167.241C656.402 166.997 656.292 166.691 656.292 166.325ZM108.886 216L108.752 214.181C108.312 214.832 107.763 215.341 107.104 215.707C106.445 216.065 105.684 216.244 104.821 216.244C104.13 216.244 103.503 216.138 102.941 215.927C102.38 215.707 101.9 215.369 101.501 214.914C101.102 214.458 100.793 213.88 100.573 213.18C100.362 212.472 100.256 211.626 100.256 210.641V202.792H102.514V210.666C102.514 211.382 102.571 211.976 102.685 212.448C102.799 212.92 102.97 213.294 103.198 213.571C103.426 213.856 103.702 214.055 104.028 214.169C104.361 214.283 104.744 214.34 105.175 214.34C105.68 214.34 106.132 214.283 106.53 214.169C106.929 214.047 107.275 213.88 107.568 213.668C107.812 213.498 108.024 213.294 108.203 213.058C108.39 212.814 108.544 212.549 108.667 212.265V202.792H110.937V216H108.886ZM115.051 197.25H121.802V214.047H126.111V216H115.051V214.047H119.543V199.215H115.051V197.25ZM71.1533 249V235.792H73.1797L73.3384 237.745C73.5337 237.468 73.7453 237.216 73.9731 236.988C74.2091 236.752 74.4574 236.549 74.7178 236.378C75.1084 236.118 75.5316 235.918 75.9873 235.78C76.4512 235.633 76.9395 235.556 77.4521 235.548C78.1439 235.548 78.7705 235.646 79.332 235.841C79.9017 236.036 80.3859 236.341 80.7847 236.756C81.1834 237.171 81.4886 237.7 81.7002 238.343C81.9199 238.978 82.0298 239.735 82.0298 240.614V249H79.7715V240.663C79.7715 240.077 79.7064 239.58 79.5762 239.173C79.446 238.766 79.2547 238.437 79.0024 238.185C78.742 237.932 78.4246 237.749 78.0503 237.635C77.6841 237.521 77.2609 237.464 76.7808 237.464C76.3657 237.464 75.9792 237.525 75.6211 237.647C75.263 237.761 74.9334 237.92 74.6323 238.124C74.3882 238.303 74.1603 238.51 73.9487 238.746C73.7453 238.982 73.5662 239.243 73.4116 239.527V249H71.1533ZM94.3472 249C94.2576 248.829 94.1844 248.618 94.1274 248.365C94.0786 248.105 94.042 247.836 94.0176 247.56C93.7897 247.787 93.5334 248.003 93.2485 248.207C92.9718 248.41 92.6667 248.589 92.333 248.744C91.9912 248.898 91.6291 249.02 91.2466 249.11C90.8641 249.199 90.4572 249.244 90.0259 249.244C89.326 249.244 88.6912 249.142 88.1216 248.939C87.5601 248.736 87.084 248.459 86.6934 248.109C86.2946 247.767 85.9854 247.36 85.7656 246.888C85.554 246.408 85.4482 245.891 85.4482 245.338C85.4482 244.614 85.5907 243.979 85.8755 243.434C86.1685 242.888 86.5794 242.433 87.1084 242.066C87.6374 241.708 88.2721 241.44 89.0127 241.261C89.7614 241.082 90.5955 240.992 91.5151 240.992H93.981V239.955C93.981 239.556 93.9077 239.198 93.7612 238.88C93.6147 238.563 93.4072 238.29 93.1387 238.062C92.8701 237.843 92.5405 237.672 92.1499 237.55C91.7674 237.428 91.3361 237.367 90.856 237.367C90.4084 237.367 90.0055 237.424 89.6475 237.538C89.2975 237.652 89.0005 237.802 88.7563 237.989C88.5122 238.176 88.321 238.4 88.1826 238.661C88.0524 238.913 87.9873 239.177 87.9873 239.454H85.7168C85.7249 238.974 85.847 238.502 86.083 238.038C86.3271 237.574 86.6771 237.155 87.1328 236.781C87.5804 236.415 88.1257 236.118 88.7686 235.89C89.4196 235.662 90.1561 235.548 90.978 235.548C91.7267 235.548 92.4225 235.641 93.0654 235.829C93.7083 236.008 94.2658 236.28 94.7378 236.646C95.2017 237.021 95.5679 237.485 95.8364 238.038C96.105 238.591 96.2393 239.238 96.2393 239.979V246.119C96.2393 246.559 96.2799 247.027 96.3613 247.523C96.4427 248.011 96.5566 248.438 96.7031 248.805V249H94.3472ZM90.3555 247.279C90.7949 247.279 91.2059 247.222 91.5884 247.108C91.9709 246.994 92.3208 246.843 92.6382 246.656C92.9474 246.469 93.216 246.257 93.4438 246.021C93.6717 245.777 93.8507 245.525 93.981 245.265V242.591H91.8813C91.1001 242.591 90.4165 242.66 89.8306 242.799C89.2528 242.929 88.793 243.132 88.4512 243.409C88.207 243.604 88.0199 243.836 87.8896 244.105C87.7676 244.374 87.7065 244.679 87.7065 245.021C87.7065 245.346 87.7594 245.647 87.8652 245.924C87.9792 246.201 88.146 246.437 88.3657 246.632C88.5854 246.835 88.8621 246.994 89.1958 247.108C89.5295 247.222 89.916 247.279 90.3555 247.279ZM104.687 249L99.2549 235.792H101.574L105.358 245.753L105.566 246.571L105.786 245.753L109.484 235.792H111.792L106.408 249H104.687Z" fill="#0066FF"/>
</svg>
