<svg width="1399" height="153" viewBox="0 0 1399 153" fill="none" xmlns="http://www.w3.org/2000/svg">
<rect width="1399" height="153" rx="20" fill="#0066FF" fill-opacity="0.2"/>
<rect x="1.5" y="1.5" width="1396" height="150" rx="18.5" stroke="#0066FF" stroke-opacity="0.5" stroke-width="3"/>
<path d="M42.1118 58.0781V39.792H44.1748L44.2847 41.2324C44.4637 41.0046 44.659 40.8011 44.8706 40.6221C45.0822 40.4349 45.3101 40.2762 45.5542 40.146C45.896 39.9507 46.2744 39.8042 46.6895 39.7065C47.1126 39.6007 47.5643 39.5479 48.0444 39.5479C48.8908 39.5479 49.6395 39.7147 50.2905 40.0483C50.9416 40.382 51.4868 40.8459 51.9263 41.4399C52.3657 42.034 52.6994 42.7461 52.9272 43.5762C53.1551 44.3981 53.269 45.3014 53.269 46.2861V46.5425C53.269 47.4865 53.1551 48.3695 52.9272 49.1914C52.6994 50.0052 52.3657 50.7132 51.9263 51.3154C51.4868 51.9176 50.9416 52.3896 50.2905 52.7314C49.6476 53.0732 48.9111 53.2441 48.0811 53.2441C47.5765 53.2441 47.1045 53.1912 46.665 53.0854C46.2337 52.9797 45.8431 52.8291 45.4932 52.6338C45.2816 52.5117 45.0822 52.3774 44.895 52.231C44.7078 52.0763 44.5329 51.9095 44.3701 51.7305V58.0781H42.1118ZM51.0107 46.2861C51.0107 45.6432 50.9375 45.0329 50.791 44.4551C50.6527 43.8691 50.437 43.3524 50.144 42.9048C49.8429 42.4653 49.4645 42.1154 49.0088 41.855C48.5531 41.5946 48.0078 41.4644 47.373 41.4644C47.0231 41.4644 46.6976 41.505 46.3965 41.5864C46.1035 41.6678 45.839 41.7858 45.603 41.9404C45.3426 42.0951 45.1107 42.2863 44.9072 42.5142C44.7038 42.742 44.5247 42.9943 44.3701 43.271V49.6309C44.5085 49.875 44.6672 50.1029 44.8462 50.3145C45.0252 50.526 45.2287 50.7051 45.4565 50.8516C45.717 51.0225 46.0059 51.1567 46.3232 51.2544C46.6488 51.3521 47.0068 51.4009 47.3975 51.4009C48.0241 51.4009 48.5653 51.2707 49.021 51.0103C49.4767 50.7417 49.8511 50.3836 50.144 49.936C50.437 49.4884 50.6527 48.9717 50.791 48.3857C50.9375 47.7998 51.0107 47.1854 51.0107 46.5425V46.2861ZM260.869 87.5137H259.465L270 68.2388H271.392L260.869 87.5137ZM279.327 74.1714L274.969 72.8408L275.591 71.4858L279.852 73.2314L280.499 68.2266H281.915L280.914 73.1948L285.564 71.437L285.821 72.8896L280.987 74.3057L283.587 78.2363L282.354 79.0664L280.108 74.8916L276.69 79.0054L275.604 78.1265L279.327 74.1714ZM304.34 68.2266H305.756L302.887 84.7549H310.468L313.336 68.2266H314.752L311.896 84.7183H313.41L312.348 90.2847H311.042L311.786 86H301.288L304.34 68.2266ZM315.339 86L317.622 72.792H322.37C322.696 72.8001 323.025 72.8245 323.359 72.8652C323.701 72.9059 324.03 72.971 324.348 73.0605C324.649 73.1501 324.93 73.2599 325.19 73.3901C325.458 73.5203 325.699 73.679 325.91 73.8662C326.219 74.1348 326.455 74.4644 326.618 74.855C326.789 75.2456 326.842 75.7135 326.777 76.2588C326.728 76.6576 326.622 77.0116 326.459 77.3208C326.305 77.63 326.105 77.9027 325.861 78.1387C325.617 78.3747 325.345 78.5822 325.043 78.7612C324.742 78.9321 324.405 79.0827 324.03 79.2129C324.396 79.3105 324.726 79.457 325.019 79.6523C325.312 79.8477 325.556 80.0755 325.751 80.3359C325.939 80.6045 326.073 80.9056 326.154 81.2393C326.244 81.5648 326.268 81.9147 326.228 82.2891C326.171 82.8424 326.024 83.3267 325.788 83.7417C325.56 84.1486 325.267 84.4945 324.909 84.7793C324.681 84.9909 324.425 85.174 324.14 85.3286C323.855 85.4832 323.554 85.6094 323.237 85.707C322.903 85.8047 322.553 85.8779 322.187 85.9268C321.821 85.9756 321.459 86 321.101 86H315.339ZM317.829 79.9209L316.987 84.7671H321.113C321.528 84.7671 321.939 84.7223 322.346 84.6328C322.761 84.5352 323.139 84.3887 323.481 84.1934C323.815 83.998 324.104 83.7417 324.348 83.4243C324.592 83.1069 324.75 82.7204 324.824 82.2646C324.889 81.8415 324.852 81.4834 324.714 81.1904C324.584 80.8893 324.388 80.6452 324.128 80.458C323.868 80.279 323.562 80.1488 323.212 80.0674C322.862 79.9779 322.508 79.929 322.15 79.9209H317.829ZM318.037 78.688L321.552 78.7002C321.959 78.6921 322.37 78.6514 322.785 78.5781C323.2 78.4967 323.587 78.3665 323.945 78.1875C324.295 78.0085 324.596 77.7684 324.848 77.4673C325.1 77.158 325.267 76.7756 325.349 76.3198C325.397 76.0431 325.397 75.799 325.349 75.5874C325.308 75.3677 325.231 75.1764 325.117 75.0137C325.011 74.8509 324.873 74.7166 324.702 74.6108C324.531 74.4969 324.344 74.4033 324.14 74.3301C323.863 74.2243 323.566 74.1551 323.249 74.1226C322.94 74.0819 322.639 74.0575 322.346 74.0493L318.842 74.0371L318.037 78.688ZM335.151 86.2441C334.24 86.236 333.442 86.0366 332.759 85.646C332.083 85.2554 331.538 84.7467 331.123 84.1201C330.732 83.5423 330.452 82.875 330.281 82.1182C330.118 81.3613 330.085 80.5841 330.183 79.7866L330.256 79.2495C330.338 78.6961 330.476 78.1468 330.671 77.6016C330.867 77.0482 331.115 76.5192 331.416 76.0146C331.717 75.5182 332.063 75.0584 332.454 74.6353C332.844 74.2039 333.276 73.8337 333.748 73.5244C334.22 73.2152 334.728 72.9751 335.273 72.8042C335.827 72.6252 336.409 72.5397 337.019 72.5479C337.865 72.556 338.586 72.735 339.18 73.085C339.774 73.4268 340.254 73.8825 340.62 74.4521C340.978 75.0137 341.218 75.6566 341.34 76.3809C341.462 77.1051 341.475 77.8457 341.377 78.6025L341.23 79.4937H331.672C331.534 80.2342 331.51 80.9219 331.599 81.5566C331.689 82.1914 331.904 82.7855 332.246 83.3389C332.539 83.8271 332.938 84.2218 333.442 84.5229C333.955 84.8241 334.553 84.9827 335.237 84.999C336.042 85.0153 336.787 84.8607 337.471 84.5352C338.154 84.2096 338.777 83.7702 339.338 83.2168L340.193 83.937C339.574 84.6857 338.822 85.2594 337.935 85.6582C337.056 86.057 336.128 86.2523 335.151 86.2441ZM336.97 73.8052C336.319 73.7889 335.721 73.911 335.176 74.1714C334.639 74.4237 334.163 74.7573 333.748 75.1724C333.316 75.5874 332.946 76.0635 332.637 76.6006C332.327 77.1377 332.071 77.687 331.868 78.2485L339.973 78.2607L340.01 78.0654C340.107 77.5446 340.111 77.0319 340.022 76.5273C339.932 76.0146 339.757 75.5589 339.497 75.1602C339.229 74.7614 338.883 74.4399 338.459 74.1958C338.036 73.9435 337.54 73.8133 336.97 73.8052ZM357.088 74.0371H351.619L349.544 86H348.104L350.167 74.0371H344.905L345.101 72.792H357.283L357.088 74.0371ZM385.434 74.0371H379.965L377.89 86H376.449L378.512 74.0371H373.251L373.446 72.792H385.629L385.434 74.0371ZM391.843 86.2441C390.931 86.236 390.134 86.0366 389.45 85.646C388.775 85.2554 388.229 84.7467 387.814 84.1201C387.424 83.5423 387.143 82.875 386.972 82.1182C386.809 81.3613 386.777 80.5841 386.875 79.7866L386.948 79.2495C387.029 78.6961 387.167 78.1468 387.363 77.6016C387.558 77.0482 387.806 76.5192 388.107 76.0146C388.409 75.5182 388.754 75.0584 389.145 74.6353C389.536 74.2039 389.967 73.8337 390.439 73.5244C390.911 73.2152 391.42 72.9751 391.965 72.8042C392.518 72.6252 393.1 72.5397 393.71 72.5479C394.557 72.556 395.277 72.735 395.871 73.085C396.465 73.4268 396.945 73.8825 397.312 74.4521C397.67 75.0137 397.91 75.6566 398.032 76.3809C398.154 77.1051 398.166 77.8457 398.068 78.6025L397.922 79.4937H388.364C388.225 80.2342 388.201 80.9219 388.291 81.5566C388.38 82.1914 388.596 82.7855 388.938 83.3389C389.23 83.8271 389.629 84.2218 390.134 84.5229C390.646 84.8241 391.245 84.9827 391.928 84.999C392.734 85.0153 393.479 84.8607 394.162 84.5352C394.846 84.2096 395.468 83.7702 396.03 83.2168L396.884 83.937C396.266 84.6857 395.513 85.2594 394.626 85.6582C393.747 86.057 392.819 86.2523 391.843 86.2441ZM393.662 73.8052C393.011 73.7889 392.412 73.911 391.867 74.1714C391.33 74.4237 390.854 74.7573 390.439 75.1724C390.008 75.5874 389.637 76.0635 389.328 76.6006C389.019 77.1377 388.763 77.687 388.559 78.2485L396.665 78.2607L396.701 78.0654C396.799 77.5446 396.803 77.0319 396.713 76.5273C396.624 76.0146 396.449 75.5589 396.188 75.1602C395.92 74.7614 395.574 74.4399 395.151 74.1958C394.728 73.9435 394.231 73.8133 393.662 73.8052ZM405.491 79.9575H403.098L402.048 86H400.608L402.891 72.792H404.331L403.318 78.6392H405.54L411.692 72.792L413.657 72.8042L406.772 79.2861L411.851 86H410.093L405.491 79.9575ZM419.969 85.0112C420.457 85.0112 420.929 84.9421 421.385 84.8037C421.84 84.6572 422.256 84.4456 422.63 84.1689C422.996 83.9085 423.313 83.5871 423.582 83.2046C423.851 82.8221 424.054 82.3989 424.192 81.9351L425.56 81.9229C425.429 82.5739 425.185 83.168 424.827 83.7051C424.469 84.2422 424.038 84.6938 423.533 85.0601C423.021 85.4425 422.455 85.7396 421.836 85.9512C421.218 86.1546 420.583 86.2523 419.932 86.2441C419.314 86.2441 418.76 86.1546 418.272 85.9756C417.792 85.7884 417.373 85.5361 417.015 85.2188C416.632 84.8932 416.315 84.5067 416.062 84.0591C415.818 83.6115 415.631 83.1232 415.501 82.5942C415.387 82.1385 415.318 81.6624 415.293 81.166C415.277 80.6696 415.302 80.1691 415.367 79.6646L415.44 79.1519C415.57 78.2974 415.814 77.4673 416.172 76.6616C416.539 75.8478 417.007 75.1357 417.576 74.5254C418.121 73.9232 418.768 73.443 419.517 73.085C420.274 72.7188 421.112 72.5397 422.032 72.5479C422.715 72.556 423.33 72.6821 423.875 72.9263C424.428 73.1623 424.9 73.4837 425.291 73.8906C425.674 74.3138 425.962 74.8102 426.158 75.3799C426.353 75.9495 426.434 76.5721 426.402 77.2476L425.047 77.2354C425.071 76.7552 425.018 76.3076 424.888 75.8926C424.766 75.4775 424.575 75.1113 424.314 74.7939C424.046 74.4928 423.712 74.2528 423.313 74.0737C422.923 73.8947 422.479 73.8011 421.983 73.793C421.226 73.7848 420.555 73.9395 419.969 74.2568C419.391 74.5742 418.89 74.9771 418.467 75.4653C418.052 75.978 417.71 76.5558 417.442 77.1987C417.173 77.8416 416.982 78.4927 416.868 79.1519L416.795 79.6646C416.738 80.0633 416.705 80.4743 416.697 80.8975C416.697 81.3125 416.738 81.7153 416.819 82.106C416.884 82.4966 416.994 82.8669 417.149 83.2168C417.304 83.5667 417.511 83.8719 417.771 84.1323C418.024 84.3927 418.329 84.6043 418.687 84.7671C419.053 84.9217 419.48 85.0031 419.969 85.0112ZM442.125 74.0371H436.656L434.581 86H433.141L435.204 74.0371H429.942L430.138 72.792H442.32L442.125 74.0371ZM451.854 86C451.814 85.6663 451.802 85.3408 451.818 85.0234C451.842 84.6979 451.883 84.3724 451.94 84.0469C451.663 84.3398 451.366 84.6125 451.049 84.8647C450.731 85.1089 450.398 85.3205 450.048 85.4995C449.592 85.7437 449.112 85.9308 448.607 86.061C448.103 86.1912 447.582 86.2523 447.045 86.2441C446.516 86.236 446.011 86.1465 445.531 85.9756C445.051 85.7965 444.644 85.5483 444.311 85.231C443.961 84.9136 443.692 84.5311 443.505 84.0835C443.326 83.6278 443.265 83.1151 443.322 82.5454C443.379 82.0002 443.517 81.516 443.737 81.0928C443.957 80.6696 444.237 80.2993 444.579 79.9819C444.913 79.6727 445.291 79.4123 445.714 79.2007C446.138 78.9891 446.585 78.8141 447.057 78.6758C447.529 78.5456 448.009 78.452 448.498 78.395C448.994 78.3381 449.478 78.3096 449.95 78.3096H452.819L453.063 76.8203C453.128 76.332 453.096 75.9007 452.965 75.5264C452.843 75.152 452.648 74.8346 452.379 74.5742C452.111 74.3138 451.781 74.1185 451.391 73.9883C451 73.8499 450.573 73.7808 450.109 73.7808C449.669 73.7726 449.238 73.8255 448.815 73.9395C448.392 74.0452 448.001 74.208 447.643 74.4277C447.285 74.6556 446.972 74.9364 446.703 75.27C446.443 75.5955 446.251 75.9821 446.129 76.4297L444.701 76.4175C444.815 75.7827 445.051 75.2253 445.409 74.7451C445.775 74.2568 446.215 73.8499 446.728 73.5244C447.232 73.1989 447.785 72.9548 448.388 72.792C448.998 72.6211 449.608 72.5397 450.219 72.5479C450.862 72.5479 451.46 72.6455 452.013 72.8408C452.567 73.028 453.043 73.3047 453.441 73.6709C453.832 74.0452 454.121 74.501 454.308 75.0381C454.503 75.5671 454.56 76.1693 454.479 76.8447L453.393 83.229C453.319 83.6685 453.283 84.1079 453.283 84.5474C453.283 84.9787 453.311 85.41 453.368 85.8413L453.344 86H451.854ZM447.252 84.9502C447.749 84.9583 448.233 84.9014 448.705 84.7793C449.177 84.6572 449.621 84.4782 450.036 84.2422C450.434 84.0143 450.809 83.7417 451.159 83.4243C451.517 83.0988 451.834 82.7407 452.111 82.3501L452.624 79.4448L450.146 79.4326C449.73 79.4326 449.287 79.4611 448.815 79.5181C448.343 79.5669 447.887 79.6605 447.448 79.7988C447.13 79.8883 446.825 80.0023 446.532 80.1406C446.247 80.2708 445.987 80.4377 445.751 80.6411C445.499 80.8608 445.283 81.1172 445.104 81.4102C444.933 81.695 444.819 82.0286 444.762 82.4111C444.705 82.8099 444.734 83.1639 444.848 83.4731C444.962 83.7824 445.137 84.0428 445.373 84.2544C445.6 84.4741 445.877 84.645 446.203 84.7671C446.536 84.881 446.886 84.9421 447.252 84.9502ZM478.418 73.6587C479.248 73.6668 479.972 73.8377 480.591 74.1714C481.209 74.4969 481.718 74.9282 482.117 75.4653C482.515 76.0106 482.796 76.6372 482.959 77.3452C483.13 78.0532 483.171 78.7938 483.081 79.5669L483.032 79.9697C482.91 80.8079 482.67 81.6095 482.312 82.3745C481.962 83.1313 481.502 83.7987 480.933 84.3765C480.371 84.9543 479.716 85.4141 478.967 85.7559C478.219 86.0895 477.401 86.2523 476.514 86.2441C475.643 86.236 474.882 86.057 474.231 85.707C473.588 85.349 473.063 84.881 472.656 84.3032C472.249 83.7254 471.965 83.0622 471.802 82.3135C471.639 81.5566 471.606 80.7795 471.704 79.9819L471.753 79.5791L471.765 79.4814L471.887 78.688C471.985 77.9963 472.123 77.3005 472.302 76.6006C472.489 75.9007 472.721 75.2212 472.998 74.562C473.267 73.911 473.592 73.2925 473.975 72.7065C474.357 72.1125 474.797 71.5794 475.293 71.1074C475.789 70.6436 476.347 70.2489 476.965 69.9233C477.592 69.5897 478.284 69.3537 479.041 69.2153C479.407 69.1502 479.781 69.0811 480.164 69.0078C480.554 68.9264 480.916 68.8084 481.25 68.6538C481.584 68.5073 481.881 68.3079 482.141 68.0557C482.402 67.8034 482.589 67.4697 482.703 67.0547H483.936C483.83 67.6813 483.634 68.1981 483.35 68.605C483.065 69.0037 482.719 69.3293 482.312 69.5815C481.889 69.8257 481.421 70.0169 480.908 70.1553C480.396 70.2936 479.858 70.4116 479.297 70.5093C478.54 70.6313 477.865 70.8633 477.271 71.2051C476.685 71.5387 476.164 71.9456 475.708 72.4258C475.252 72.9222 474.854 73.4756 474.512 74.0859C474.17 74.6882 473.869 75.327 473.608 76.0024C474.227 75.2944 474.943 74.7248 475.757 74.2935C476.571 73.8621 477.458 73.6506 478.418 73.6587ZM478.174 74.9038C477.507 74.8957 476.888 75.0177 476.318 75.27C475.749 75.5223 475.248 75.8641 474.817 76.2954C474.386 76.7267 474.028 77.2272 473.743 77.7969C473.466 78.3665 473.275 78.9647 473.169 79.5913L473.108 79.9941C473.035 80.5882 473.043 81.1823 473.132 81.7764C473.23 82.3704 473.417 82.9035 473.694 83.3755C473.971 83.8475 474.345 84.234 474.817 84.5352C475.289 84.8363 475.867 84.9909 476.55 84.999C477.25 85.0153 477.889 84.881 478.467 84.5962C479.045 84.3114 479.549 83.9329 479.98 83.4609C480.412 82.9889 480.762 82.4478 481.03 81.8374C481.307 81.2271 481.498 80.6045 481.604 79.9697L481.653 79.5669C481.726 78.9728 481.706 78.3991 481.592 77.8457C481.486 77.2842 481.287 76.7878 480.994 76.3564C480.701 75.9251 480.318 75.5793 479.846 75.3188C479.374 75.0503 478.817 74.9119 478.174 74.9038ZM490.748 83.2656L490.979 83.8027L497.461 72.8042H499.146L489.893 88.124C489.649 88.5472 489.372 88.95 489.063 89.3325C488.754 89.7231 488.416 90.069 488.05 90.3701C487.675 90.6631 487.264 90.8991 486.817 91.0781C486.377 91.2572 485.893 91.3467 485.364 91.3467C485.153 91.3467 484.941 91.3304 484.729 91.2979C484.526 91.2653 484.319 91.2287 484.107 91.188L484.388 89.9429C484.559 89.9673 484.725 89.9917 484.888 90.0161C485.059 90.0405 485.226 90.0527 485.389 90.0527C485.763 90.0446 486.113 89.9673 486.438 89.8208C486.764 89.6825 487.061 89.4993 487.33 89.2715C487.598 89.0436 487.842 88.7832 488.062 88.4902C488.29 88.1973 488.497 87.9043 488.685 87.6113L489.954 85.585L486.426 72.7798H487.977L490.748 83.2656ZM499.684 84.7671C500.058 84.5555 500.396 84.2788 500.697 83.937C501.006 83.5952 501.283 83.2168 501.527 82.8018C501.755 82.403 501.958 81.9798 502.137 81.5322C502.316 81.0846 502.475 80.6289 502.613 80.165C502.743 79.7093 502.861 79.2576 502.967 78.8101C503.073 78.3625 503.167 77.9474 503.248 77.5649L504.286 72.792H511.854L509.791 84.7549H511.122L510.133 89.8818H508.802L509.474 86H499.867L499.195 89.8818H497.95L498.719 84.7549L499.684 84.7671ZM504.688 77.5649C504.55 78.2078 504.396 78.8507 504.225 79.4937C504.062 80.1366 503.862 80.7673 503.626 81.3857C503.382 82.0042 503.102 82.5983 502.784 83.168C502.467 83.7376 502.084 84.2747 501.637 84.7793L508.363 84.7549L510.194 74.1592H505.421L504.688 77.5649ZM519.398 86.2441C518.487 86.236 517.689 86.0366 517.006 85.646C516.33 85.2554 515.785 84.7467 515.37 84.1201C514.979 83.5423 514.699 82.875 514.528 82.1182C514.365 81.3613 514.333 80.5841 514.43 79.7866L514.503 79.2495C514.585 78.6961 514.723 78.1468 514.918 77.6016C515.114 77.0482 515.362 76.5192 515.663 76.0146C515.964 75.5182 516.31 75.0584 516.701 74.6353C517.091 74.2039 517.523 73.8337 517.995 73.5244C518.467 73.2152 518.975 72.9751 519.521 72.8042C520.074 72.6252 520.656 72.5397 521.266 72.5479C522.112 72.556 522.833 72.735 523.427 73.085C524.021 73.4268 524.501 73.8825 524.867 74.4521C525.225 75.0137 525.465 75.6566 525.587 76.3809C525.709 77.1051 525.722 77.8457 525.624 78.6025L525.478 79.4937H515.919C515.781 80.2342 515.757 80.9219 515.846 81.5566C515.936 82.1914 516.151 82.7855 516.493 83.3389C516.786 83.8271 517.185 84.2218 517.689 84.5229C518.202 84.8241 518.8 84.9827 519.484 84.999C520.29 85.0153 521.034 84.8607 521.718 84.5352C522.401 84.2096 523.024 83.7702 523.585 83.2168L524.44 83.937C523.821 84.6857 523.069 85.2594 522.182 85.6582C521.303 86.057 520.375 86.2523 519.398 86.2441ZM521.217 73.8052C520.566 73.7889 519.968 73.911 519.423 74.1714C518.886 74.4237 518.41 74.7573 517.995 75.1724C517.563 75.5874 517.193 76.0635 516.884 76.6006C516.575 77.1377 516.318 77.687 516.115 78.2485L524.22 78.2607L524.257 78.0654C524.354 77.5446 524.359 77.0319 524.269 76.5273C524.18 76.0146 524.005 75.5589 523.744 75.1602C523.476 74.7614 523.13 74.4399 522.707 74.1958C522.283 73.9435 521.787 73.8133 521.217 73.8052ZM541.335 74.0371H535.866L533.791 86H532.351L534.414 74.0371H529.152L529.348 72.792H541.53L541.335 74.0371ZM561.697 85.0112C562.186 85.0112 562.658 84.9421 563.113 84.8037C563.569 84.6572 563.984 84.4456 564.358 84.1689C564.725 83.9085 565.042 83.5871 565.311 83.2046C565.579 82.8221 565.783 82.3989 565.921 81.9351L567.288 81.9229C567.158 82.5739 566.914 83.168 566.556 83.7051C566.198 84.2422 565.766 84.6938 565.262 85.0601C564.749 85.4425 564.183 85.7396 563.565 85.9512C562.946 86.1546 562.312 86.2523 561.661 86.2441C561.042 86.2441 560.489 86.1546 560 85.9756C559.52 85.7884 559.101 85.5361 558.743 85.2188C558.361 84.8932 558.043 84.5067 557.791 84.0591C557.547 83.6115 557.36 83.1232 557.229 82.5942C557.116 82.1385 557.046 81.6624 557.022 81.166C557.006 80.6696 557.03 80.1691 557.095 79.6646L557.168 79.1519C557.299 78.2974 557.543 77.4673 557.901 76.6616C558.267 75.8478 558.735 75.1357 559.305 74.5254C559.85 73.9232 560.497 73.443 561.246 73.085C562.002 72.7188 562.841 72.5397 563.76 72.5479C564.444 72.556 565.058 72.6821 565.604 72.9263C566.157 73.1623 566.629 73.4837 567.02 73.8906C567.402 74.3138 567.691 74.8102 567.886 75.3799C568.082 75.9495 568.163 76.5721 568.13 77.2476L566.775 77.2354C566.8 76.7552 566.747 76.3076 566.617 75.8926C566.495 75.4775 566.303 75.1113 566.043 74.7939C565.774 74.4928 565.441 74.2528 565.042 74.0737C564.651 73.8947 564.208 73.8011 563.711 73.793C562.955 73.7848 562.283 73.9395 561.697 74.2568C561.119 74.5742 560.619 74.9771 560.196 75.4653C559.781 75.978 559.439 76.5558 559.17 77.1987C558.902 77.8416 558.711 78.4927 558.597 79.1519L558.523 79.6646C558.466 80.0633 558.434 80.4743 558.426 80.8975C558.426 81.3125 558.466 81.7153 558.548 82.106C558.613 82.4966 558.723 82.8669 558.877 83.2168C559.032 83.5667 559.24 83.8719 559.5 84.1323C559.752 84.3927 560.057 84.6043 560.416 84.7671C560.782 84.9217 561.209 85.0031 561.697 85.0112ZM581.375 72.8042L582.865 72.792L580.582 86H579.142L581.009 75.2212L571.964 86H570.499L572.77 72.792H574.198L572.306 83.6196L581.375 72.8042ZM594.755 86H593.314L594.364 79.9453H587.138L586.088 86H584.66L586.942 72.792H588.371L587.345 78.7002H594.572L595.597 72.792H597.038L594.755 86ZM609.721 72.8042L611.21 72.792L608.928 86H607.487L609.355 75.2212L600.31 86H598.845L601.115 72.792H602.543L600.651 83.6196L609.721 72.8042ZM618.23 83.9736L623.76 72.8042L625.493 72.792L623.223 86H621.819L623.503 76.2588L618.45 86H617.449L615.728 75.7583L613.945 86H612.542L614.824 72.792H616.606L618.23 83.9736ZM647.821 74.1714L643.463 72.8408L644.085 71.4858L648.346 73.2314L648.993 68.2266H650.409L649.408 73.1948L654.059 71.437L654.315 72.8896L649.481 74.3057L652.081 78.2363L650.848 79.0664L648.602 74.8916L645.184 79.0054L644.098 78.1265L647.821 74.1714ZM657.709 87.5137H656.305L666.84 68.2388H668.231L657.709 87.5137Z" fill="#0066FF"/>
<path d="M80.9678 57.4678C80.1784 57.4434 79.4948 57.2603 78.917 56.9185C78.3392 56.5767 77.859 56.125 77.4766 55.5635C77.1104 55.0264 76.8337 54.4242 76.6465 53.7568C76.4593 53.0977 76.3657 52.4425 76.3657 51.7915V49.7285C76.3657 48.5566 76.085 47.7062 75.5234 47.1772C74.9701 46.6483 74.1196 46.3797 72.9722 46.3716V44.6016C74.1196 44.6016 74.9701 44.3411 75.5234 43.8203C76.085 43.2913 76.3657 42.4368 76.3657 41.2568V39.1816C76.3657 38.5225 76.4512 37.8511 76.6221 37.1675C76.8011 36.4757 77.0819 35.8573 77.4644 35.312C77.8224 34.7912 78.2904 34.368 78.8682 34.0425C79.446 33.7088 80.1458 33.5298 80.9678 33.5054L81.2241 34.9092C80.6382 34.9255 80.1702 35.0638 79.8203 35.3242C79.4785 35.5846 79.2222 35.9142 79.0513 36.313C78.8722 36.7199 78.7583 37.1756 78.7095 37.6802C78.6606 38.1847 78.6362 38.6852 78.6362 39.1816V41.2568C78.6362 42.2334 78.4084 43.092 77.9526 43.8325C77.505 44.5649 76.8092 45.1224 75.8652 45.5049C76.8092 45.8792 77.505 46.4367 77.9526 47.1772C78.4002 47.9097 78.6281 48.7601 78.6362 49.7285V51.7915C78.6362 52.2961 78.6769 52.7965 78.7583 53.293C78.8397 53.7975 78.9821 54.2492 79.1855 54.6479C79.3809 55.0549 79.6413 55.3885 79.9668 55.6489C80.3005 55.9093 80.7196 56.0477 81.2241 56.064L80.9678 57.4678ZM76.7808 84.4131C77.1877 84.4131 77.5824 84.348 77.9648 84.2178C78.3555 84.0876 78.7013 83.9045 79.0024 83.6685C79.3035 83.4406 79.5436 83.172 79.7227 82.8628C79.9098 82.5454 80.0075 82.2036 80.0156 81.8374H82.1519C82.1437 82.4233 81.9891 82.9849 81.688 83.522C81.395 84.0509 81.0003 84.5148 80.5039 84.9136C80.0075 85.3205 79.4378 85.646 78.7949 85.8901C78.152 86.1261 77.4806 86.2441 76.7808 86.2441C75.7798 86.2441 74.9049 86.0651 74.1562 85.707C73.4076 85.349 72.785 84.8647 72.2886 84.2544C71.784 83.6522 71.4056 82.9564 71.1533 82.167C70.901 81.3695 70.7749 80.5312 70.7749 79.6523V79.1396C70.7749 78.2689 70.901 77.4347 71.1533 76.6372C71.4056 75.8397 71.784 75.1357 72.2886 74.5254C72.785 73.9232 73.4076 73.443 74.1562 73.085C74.9049 72.7269 75.7798 72.5479 76.7808 72.5479C77.562 72.5479 78.2782 72.674 78.9292 72.9263C79.5884 73.1704 80.158 73.5041 80.6382 73.9272C81.1102 74.3586 81.4805 74.8672 81.749 75.4531C82.0176 76.0391 82.1519 76.6657 82.1519 77.333H80.0156C80.0075 76.9342 79.918 76.5599 79.7471 76.21C79.5843 75.8519 79.3605 75.5386 79.0757 75.27C78.7909 75.0015 78.4491 74.7899 78.0503 74.6353C77.6597 74.4806 77.2365 74.4033 76.7808 74.4033C76.0809 74.4033 75.4909 74.5457 75.0107 74.8306C74.5387 75.1073 74.1562 75.4694 73.8633 75.917C73.5703 76.3727 73.3587 76.8813 73.2285 77.4429C73.1064 78.0044 73.0454 78.57 73.0454 79.1396V79.6523C73.0454 80.2301 73.1064 80.8039 73.2285 81.3735C73.3587 81.9351 73.5703 82.4396 73.8633 82.8872C74.1481 83.3429 74.5265 83.7132 74.9985 83.998C75.4787 84.2747 76.0728 84.4131 76.7808 84.4131ZM85.0332 79.2739C85.0332 78.3218 85.1715 77.4388 85.4482 76.625C85.7249 75.8031 86.1237 75.091 86.6445 74.4888C87.1572 73.8866 87.7839 73.4146 88.5244 73.0728C89.265 72.7228 90.0991 72.5479 91.0269 72.5479C91.9627 72.5479 92.8009 72.7228 93.5415 73.0728C94.2902 73.4146 94.925 73.8866 95.4458 74.4888C95.9585 75.091 96.3532 75.8031 96.6299 76.625C96.9066 77.4388 97.0449 78.3218 97.0449 79.2739V79.5425C97.0449 80.4946 96.9066 81.3776 96.6299 82.1914C96.3532 83.0052 95.9585 83.7132 95.4458 84.3154C94.925 84.9176 94.2943 85.3896 93.5537 85.7314C92.8132 86.0732 91.979 86.2441 91.0513 86.2441C90.1154 86.2441 89.2731 86.0732 88.5244 85.7314C87.7839 85.3896 87.1572 84.9176 86.6445 84.3154C86.1237 83.7132 85.7249 83.0052 85.4482 82.1914C85.1715 81.3776 85.0332 80.4946 85.0332 79.5425V79.2739ZM87.2915 79.5425C87.2915 80.1935 87.3688 80.8161 87.5234 81.4102C87.6781 81.9961 87.9141 82.5129 88.2314 82.9604C88.5407 83.408 88.9313 83.762 89.4033 84.0225C89.8753 84.2829 90.4246 84.4131 91.0513 84.4131C91.6698 84.4131 92.2109 84.2829 92.6748 84.0225C93.1468 83.762 93.5415 83.408 93.8589 82.9604C94.1681 82.5129 94.4001 81.9961 94.5547 81.4102C94.7093 80.8161 94.7866 80.1935 94.7866 79.5425V79.2739C94.7866 78.631 94.7052 78.0166 94.5425 77.4307C94.3879 76.8366 94.1559 76.3158 93.8467 75.8682C93.5293 75.4206 93.1346 75.0666 92.6626 74.8062C92.1987 74.5376 91.6535 74.4033 91.0269 74.4033C90.4002 74.4033 89.855 74.5376 89.3911 74.8062C88.9272 75.0666 88.5407 75.4206 88.2314 75.8682C87.9141 76.3158 87.6781 76.8366 87.5234 77.4307C87.3688 78.0166 87.2915 78.631 87.2915 79.2739V79.5425ZM100.537 67.25H107.287V84.0469H111.596V86H100.537V84.0469H105.029V69.2153H100.537V67.25ZM114.062 79.2739C114.062 78.3218 114.201 77.4388 114.478 76.625C114.754 75.8031 115.153 75.091 115.674 74.4888C116.187 73.8866 116.813 73.4146 117.554 73.0728C118.294 72.7228 119.128 72.5479 120.056 72.5479C120.992 72.5479 121.83 72.7228 122.571 73.0728C123.319 73.4146 123.954 73.8866 124.475 74.4888C124.988 75.091 125.382 75.8031 125.659 76.625C125.936 77.4388 126.074 78.3218 126.074 79.2739V79.5425C126.074 80.4946 125.936 81.3776 125.659 82.1914C125.382 83.0052 124.988 83.7132 124.475 84.3154C123.954 84.9176 123.324 85.3896 122.583 85.7314C121.842 86.0732 121.008 86.2441 120.081 86.2441C119.145 86.2441 118.302 86.0732 117.554 85.7314C116.813 85.3896 116.187 84.9176 115.674 84.3154C115.153 83.7132 114.754 83.0052 114.478 82.1914C114.201 81.3776 114.062 80.4946 114.062 79.5425V79.2739ZM116.321 79.5425C116.321 80.1935 116.398 80.8161 116.553 81.4102C116.707 81.9961 116.943 82.5129 117.261 82.9604C117.57 83.408 117.961 83.762 118.433 84.0225C118.905 84.2829 119.454 84.4131 120.081 84.4131C120.699 84.4131 121.24 84.2829 121.704 84.0225C122.176 83.762 122.571 83.408 122.888 82.9604C123.197 82.5129 123.429 81.9961 123.584 81.4102C123.739 80.8161 123.816 80.1935 123.816 79.5425V79.2739C123.816 78.631 123.735 78.0166 123.572 77.4307C123.417 76.8366 123.185 76.3158 122.876 75.8682C122.559 75.4206 122.164 75.0666 121.692 74.8062C121.228 74.5376 120.683 74.4033 120.056 74.4033C119.43 74.4033 118.884 74.5376 118.42 74.8062C117.957 75.0666 117.57 75.4206 117.261 75.8682C116.943 76.3158 116.707 76.8366 116.553 77.4307C116.398 78.0166 116.321 78.631 116.321 79.2739V79.5425ZM137.867 72.5479C138.282 72.5479 138.713 72.5763 139.161 72.6333C139.616 72.6903 139.958 72.7676 140.186 72.8652L139.881 75.0747C139.441 74.9771 139.022 74.9079 138.624 74.8672C138.233 74.8184 137.822 74.7939 137.391 74.7939C136.837 74.7939 136.337 74.8631 135.889 75.0015C135.442 75.1317 135.051 75.327 134.717 75.5874C134.416 75.8153 134.152 76.096 133.924 76.4297C133.704 76.7552 133.521 77.1214 133.375 77.5283V86H131.104V72.792H133.252L133.35 74.562L133.362 74.8916C133.899 74.1673 134.542 73.5977 135.291 73.1826C136.048 72.7594 136.906 72.5479 137.867 72.5479ZM148.268 84.5352C148.268 84.055 148.414 83.644 148.707 83.3022C149 82.9604 149.444 82.7896 150.038 82.7896C150.624 82.7896 151.067 82.9604 151.368 83.3022C151.677 83.6359 151.832 84.0469 151.832 84.5352C151.832 85.0153 151.677 85.4181 151.368 85.7437C151.059 86.0692 150.615 86.2319 150.038 86.2319C149.452 86.2319 149.008 86.0692 148.707 85.7437C148.414 85.41 148.268 85.0072 148.268 84.5352ZM148.268 73.8418C148.268 73.3617 148.414 72.9507 148.707 72.6089C149 72.2671 149.444 72.0962 150.038 72.0962C150.624 72.0962 151.067 72.2671 151.368 72.6089C151.677 72.9425 151.832 73.3535 151.832 73.8418C151.832 74.3219 151.677 74.7248 151.368 75.0503C151.059 75.3758 150.615 75.5386 150.038 75.5386C149.452 75.5386 149.008 75.3758 148.707 75.0503C148.414 74.7166 148.268 74.3138 148.268 73.8418ZM183.95 79.5425C183.95 80.1203 183.905 80.6777 183.815 81.2148C183.734 81.7438 183.612 82.2402 183.449 82.7041C183.229 83.3145 182.941 83.8638 182.583 84.3521C182.233 84.8322 181.809 85.231 181.313 85.5483C180.955 85.7681 180.56 85.939 180.129 86.061C179.706 86.1831 179.246 86.2441 178.75 86.2441C178.18 86.2441 177.659 86.175 177.187 86.0366C176.723 85.8983 176.304 85.6989 175.93 85.4385C175.751 85.3083 175.58 85.1659 175.417 85.0112C175.254 84.8566 175.1 84.6857 174.953 84.4985L174.843 86H172.768V67.25H175.026V74.208C175.214 73.972 175.421 73.7604 175.649 73.5732C175.877 73.3779 176.121 73.2111 176.381 73.0728C176.707 72.9019 177.065 72.7716 177.456 72.6821C177.846 72.5926 178.269 72.5479 178.725 72.5479C179.295 72.5479 179.82 72.6252 180.3 72.7798C180.78 72.9344 181.215 73.1501 181.606 73.4268C181.956 73.6872 182.269 74.0046 182.546 74.3789C182.823 74.7451 183.067 75.1561 183.278 75.6118C183.498 76.1245 183.665 76.6942 183.779 77.3208C183.893 77.9393 183.95 78.5944 183.95 79.2861V79.5425ZM181.691 79.2861C181.691 78.8711 181.663 78.4683 181.606 78.0776C181.557 77.6789 181.48 77.3045 181.374 76.9546C181.228 76.5233 181.036 76.1286 180.8 75.7705C180.564 75.4124 180.275 75.1317 179.934 74.9282C179.698 74.7817 179.433 74.6678 179.14 74.5864C178.847 74.505 178.522 74.4644 178.164 74.4644C177.773 74.4644 177.415 74.5173 177.089 74.623C176.764 74.7207 176.475 74.859 176.223 75.0381C175.962 75.2253 175.73 75.445 175.527 75.6973C175.332 75.9414 175.165 76.21 175.026 76.5029V82.2769C175.173 82.5698 175.344 82.8424 175.539 83.0947C175.743 83.3389 175.974 83.5545 176.235 83.7417C176.495 83.9289 176.788 84.0754 177.114 84.1812C177.439 84.2788 177.797 84.3276 178.188 84.3276C178.562 84.3276 178.904 84.2829 179.213 84.1934C179.523 84.0957 179.799 83.9574 180.043 83.7783C180.369 83.5505 180.642 83.2616 180.861 82.9116C181.081 82.5617 181.256 82.1711 181.386 81.7397C181.492 81.4142 181.569 81.0643 181.618 80.6899C181.667 80.3156 181.691 79.9331 181.691 79.5425V79.2861ZM187.625 67.25H194.375V84.0469H198.684V86H187.625V84.0469H192.117V69.2153H187.625V67.25ZM210.489 86L210.354 84.1812C209.915 84.8322 209.366 85.3408 208.707 85.707C208.047 86.0651 207.286 86.2441 206.424 86.2441C205.732 86.2441 205.105 86.1383 204.544 85.9268C203.982 85.707 203.502 85.3693 203.104 84.9136C202.705 84.4578 202.396 83.88 202.176 83.1802C201.964 82.4722 201.858 81.6258 201.858 80.6411V72.792H204.117V80.6655C204.117 81.3817 204.174 81.9757 204.288 82.4478C204.402 82.9198 204.572 83.2941 204.8 83.5708C205.028 83.8556 205.305 84.055 205.63 84.1689C205.964 84.2829 206.347 84.3398 206.778 84.3398C207.282 84.3398 207.734 84.2829 208.133 84.1689C208.532 84.0469 208.877 83.88 209.17 83.6685C209.415 83.4976 209.626 83.2941 209.805 83.0581C209.992 82.814 210.147 82.5495 210.269 82.2646V72.792H212.54V86H210.489ZM222.135 86.2441C221.207 86.2441 220.353 86.0854 219.571 85.7681C218.798 85.4507 218.135 85.0072 217.582 84.4375C217.028 83.8678 216.597 83.1924 216.288 82.4111C215.978 81.6299 215.824 80.7795 215.824 79.8599V79.3472C215.824 78.2811 215.995 77.3289 216.336 76.4907C216.678 75.6444 217.134 74.9282 217.704 74.3423C218.265 73.7645 218.904 73.321 219.62 73.0117C220.344 72.7025 221.085 72.5479 221.842 72.5479C222.794 72.5479 223.624 72.7147 224.332 73.0483C225.048 73.3739 225.642 73.8255 226.114 74.4033C226.586 74.9893 226.936 75.6769 227.164 76.4663C227.4 77.2557 227.518 78.1102 227.518 79.0298V80.043H218.082V80.1284C218.139 80.7713 218.265 81.3369 218.46 81.8252C218.664 82.3135 218.941 82.7448 219.291 83.1191C219.649 83.5179 220.08 83.8312 220.584 84.0591C221.089 84.2869 221.646 84.4009 222.257 84.4009C223.062 84.4009 223.779 84.2381 224.405 83.9126C225.032 83.5871 225.553 83.1558 225.968 82.6187L227.347 83.6929C226.908 84.3602 226.249 84.9543 225.37 85.4751C224.499 85.9878 223.421 86.2441 222.135 86.2441ZM221.842 74.4033C221.386 74.4033 220.955 74.4888 220.548 74.6597C220.141 74.8224 219.775 75.0625 219.449 75.3799C219.124 75.7054 218.847 76.1042 218.619 76.5762C218.399 77.04 218.245 77.5771 218.155 78.1875H225.26V78.0776C225.26 77.6707 225.182 77.2354 225.028 76.7715C224.873 76.2995 224.658 75.8926 224.381 75.5508C224.104 75.209 223.754 74.9323 223.331 74.7207C222.916 74.5091 222.42 74.4033 221.842 74.4033ZM235.246 73.8418C235.246 73.3617 235.392 72.9507 235.685 72.6089C235.978 72.2671 236.422 72.0962 237.016 72.0962C237.602 72.0962 238.045 72.2671 238.346 72.6089C238.655 72.9425 238.81 73.3535 238.81 73.8418C238.81 74.3219 238.655 74.7248 238.346 75.0503C238.037 75.3758 237.593 75.5386 237.016 75.5386C236.43 75.5386 235.986 75.3758 235.685 75.0503C235.392 74.7166 235.246 74.3138 235.246 73.8418ZM238.151 85.4751C238.151 86.2889 237.96 87.119 237.577 87.9653C237.195 88.8117 236.678 89.5238 236.027 90.1016L234.623 89.3325C235.014 88.7629 235.29 88.1566 235.453 87.5137C235.616 86.8708 235.697 86.2035 235.697 85.5117V83.3267H238.151V85.4751ZM43.9429 122.064C44.4393 122.048 44.8543 121.909 45.188 121.649C45.5216 121.389 45.7902 121.055 45.9937 120.648C46.189 120.249 46.3273 119.798 46.4087 119.293C46.4982 118.797 46.543 118.296 46.543 117.792V115.729C46.543 115.086 46.6366 114.492 46.8237 113.946C47.019 113.401 47.3161 112.929 47.7148 112.53C47.9264 112.319 48.1624 112.127 48.4229 111.957C48.6914 111.786 48.9844 111.635 49.3018 111.505C48.9762 111.375 48.6751 111.22 48.3984 111.041C48.1299 110.862 47.8939 110.663 47.6904 110.443C47.2998 110.036 47.0109 109.564 46.8237 109.027C46.6366 108.482 46.543 107.892 46.543 107.257V105.182C46.543 104.685 46.5145 104.185 46.4575 103.68C46.4087 103.176 46.2988 102.72 46.1279 102.313C45.9489 101.914 45.6885 101.585 45.3467 101.324C45.0049 101.064 44.541 100.925 43.9551 100.909L44.1992 99.5054C44.9886 99.5298 45.6641 99.6966 46.2256 100.006C46.7952 100.315 47.2632 100.718 47.6294 101.214C48.0444 101.776 48.3415 102.407 48.5205 103.106C48.7077 103.806 48.8013 104.498 48.8013 105.182V107.257C48.8013 107.745 48.846 108.176 48.9355 108.551C49.0332 108.917 49.1756 109.234 49.3628 109.503C49.6313 109.885 50.0016 110.166 50.4736 110.345C50.9538 110.516 51.5275 110.602 52.1948 110.602V112.372C51.6089 112.38 51.0962 112.453 50.6567 112.591C50.2254 112.722 49.8714 112.929 49.5947 113.214C49.3262 113.491 49.1268 113.836 48.9966 114.251C48.8664 114.667 48.8013 115.159 48.8013 115.729V117.792C48.8013 118.443 48.7118 119.098 48.5327 119.757C48.3537 120.424 48.077 121.03 47.7026 121.576C47.3201 122.121 46.84 122.569 46.2622 122.918C45.6844 123.268 44.9967 123.451 44.1992 123.468L43.9429 122.064Z" fill="white"/>
</svg>
