<svg width="1399" height="159" viewBox="0 0 1399 159" fill="none" xmlns="http://www.w3.org/2000/svg">
<rect width="1399" height="159" rx="20" fill="#0066FF" fill-opacity="0.2"/>
<rect x="1.5" y="1.5" width="1396" height="156" rx="18.5" stroke="#0066FF" stroke-opacity="0.5" stroke-width="3"/>
<path d="M42.1118 61.0781V42.792H44.1748L44.2847 44.2324C44.4637 44.0046 44.659 43.8011 44.8706 43.6221C45.0822 43.4349 45.3101 43.2762 45.5542 43.146C45.896 42.9507 46.2744 42.8042 46.6895 42.7065C47.1126 42.6007 47.5643 42.5479 48.0444 42.5479C48.8908 42.5479 49.6395 42.7147 50.2905 43.0483C50.9416 43.382 51.4868 43.8459 51.9263 44.4399C52.3657 45.034 52.6994 45.7461 52.9272 46.5762C53.1551 47.3981 53.269 48.3014 53.269 49.2861V49.5425C53.269 50.4865 53.1551 51.3695 52.9272 52.1914C52.6994 53.0052 52.3657 53.7132 51.9263 54.3154C51.4868 54.9176 50.9416 55.3896 50.2905 55.7314C49.6476 56.0732 48.9111 56.2441 48.0811 56.2441C47.5765 56.2441 47.1045 56.1912 46.665 56.0854C46.2337 55.9797 45.8431 55.8291 45.4932 55.6338C45.2816 55.5117 45.0822 55.3774 44.895 55.231C44.7078 55.0763 44.5329 54.9095 44.3701 54.7305V61.0781H42.1118ZM51.0107 49.2861C51.0107 48.6432 50.9375 48.0329 50.791 47.4551C50.6527 46.8691 50.437 46.3524 50.144 45.9048C49.8429 45.4653 49.4645 45.1154 49.0088 44.855C48.5531 44.5946 48.0078 44.4644 47.373 44.4644C47.0231 44.4644 46.6976 44.505 46.3965 44.5864C46.1035 44.6678 45.839 44.7858 45.603 44.9404C45.3426 45.0951 45.1107 45.2863 44.9072 45.5142C44.7038 45.742 44.5247 45.9943 44.3701 46.271V52.6309C44.5085 52.875 44.6672 53.1029 44.8462 53.3145C45.0252 53.526 45.2287 53.7051 45.4565 53.8516C45.717 54.0225 46.0059 54.1567 46.3232 54.2544C46.6488 54.3521 47.0068 54.4009 47.3975 54.4009C48.0241 54.4009 48.5653 54.2707 49.021 54.0103C49.4767 53.7417 49.8511 53.3836 50.144 52.936C50.437 52.4884 50.6527 51.9717 50.791 51.3857C50.9375 50.7998 51.0107 50.1854 51.0107 49.5425V49.2861ZM391.501 90.5137H390.097L400.632 71.2388H402.023L391.501 90.5137ZM409.958 77.1714L405.601 75.8408L406.223 74.4858L410.483 76.2314L411.13 71.2266H412.546L411.545 76.1948L416.196 74.437L416.453 75.8896L411.619 77.3057L414.219 81.2363L412.986 82.0664L410.74 77.8916L407.322 82.0054L406.235 81.1265L409.958 77.1714ZM445.958 72.5205H440.465L437.608 89H436.217L439.073 72.5205H433.568L433.788 71.2266H446.178L445.958 72.5205ZM451.61 89.2441C450.699 89.236 449.901 89.0366 449.218 88.646C448.542 88.2554 447.997 87.7467 447.582 87.1201C447.191 86.5423 446.911 85.875 446.74 85.1182C446.577 84.3613 446.544 83.5841 446.642 82.7866L446.715 82.2495C446.797 81.6961 446.935 81.1468 447.13 80.6016C447.326 80.0482 447.574 79.5192 447.875 79.0146C448.176 78.5182 448.522 78.0584 448.913 77.6353C449.303 77.2039 449.735 76.8337 450.207 76.5244C450.679 76.2152 451.187 75.9751 451.732 75.8042C452.286 75.6252 452.868 75.5397 453.478 75.5479C454.324 75.556 455.045 75.735 455.639 76.085C456.233 76.4268 456.713 76.8825 457.079 77.4521C457.437 78.0137 457.677 78.6566 457.799 79.3809C457.921 80.1051 457.934 80.8457 457.836 81.6025L457.689 82.4937H448.131C447.993 83.2342 447.969 83.9219 448.058 84.5566C448.148 85.1914 448.363 85.7855 448.705 86.3389C448.998 86.8271 449.397 87.2218 449.901 87.5229C450.414 87.8241 451.012 87.9827 451.696 87.999C452.501 88.0153 453.246 87.8607 453.93 87.5352C454.613 87.2096 455.236 86.7702 455.797 86.2168L456.652 86.937C456.033 87.6857 455.281 88.2594 454.394 88.6582C453.515 89.057 452.587 89.2523 451.61 89.2441ZM453.429 76.8052C452.778 76.7889 452.18 76.911 451.635 77.1714C451.098 77.4237 450.622 77.7573 450.207 78.1724C449.775 78.5874 449.405 79.0635 449.096 79.6006C448.786 80.1377 448.53 80.687 448.327 81.2485L456.432 81.2607L456.469 81.0654C456.566 80.5446 456.57 80.0319 456.481 79.5273C456.391 79.0146 456.216 78.5589 455.956 78.1602C455.688 77.7614 455.342 77.4399 454.918 77.1958C454.495 76.9435 453.999 76.8133 453.429 76.8052ZM465.258 82.9575H462.866L461.816 89H460.375L462.658 75.792H464.099L463.085 81.6392H465.307L471.459 75.792L473.425 75.8042L466.54 82.2861L471.618 89H469.86L465.258 82.9575ZM479.736 88.0112C480.225 88.0112 480.697 87.9421 481.152 87.8037C481.608 87.6572 482.023 87.4456 482.397 87.1689C482.764 86.9085 483.081 86.5871 483.35 86.2046C483.618 85.8221 483.822 85.3989 483.96 84.9351L485.327 84.9229C485.197 85.5739 484.953 86.168 484.595 86.7051C484.237 87.2422 483.805 87.6938 483.301 88.0601C482.788 88.4425 482.222 88.7396 481.604 88.9512C480.986 89.1546 480.351 89.2523 479.7 89.2441C479.081 89.2441 478.528 89.1546 478.04 88.9756C477.559 88.7884 477.14 88.5361 476.782 88.2188C476.4 87.8932 476.082 87.5067 475.83 87.0591C475.586 86.6115 475.399 86.1232 475.269 85.5942C475.155 85.1385 475.085 84.6624 475.061 84.166C475.045 83.6696 475.069 83.1691 475.134 82.6646L475.208 82.1519C475.338 81.2974 475.582 80.4673 475.94 79.6616C476.306 78.8478 476.774 78.1357 477.344 77.5254C477.889 76.9232 478.536 76.443 479.285 76.085C480.042 75.7188 480.88 75.5397 481.799 75.5479C482.483 75.556 483.097 75.6821 483.643 75.9263C484.196 76.1623 484.668 76.4837 485.059 76.8906C485.441 77.3138 485.73 77.8102 485.925 78.3799C486.121 78.9495 486.202 79.5721 486.169 80.2476L484.814 80.2354C484.839 79.7552 484.786 79.3076 484.656 78.8926C484.534 78.4775 484.342 78.1113 484.082 77.7939C483.813 77.4928 483.48 77.2528 483.081 77.0737C482.69 76.8947 482.247 76.8011 481.75 76.793C480.994 76.7848 480.322 76.9395 479.736 77.2568C479.159 77.5742 478.658 77.9771 478.235 78.4653C477.82 78.978 477.478 79.5558 477.209 80.1987C476.941 80.8416 476.75 81.4927 476.636 82.1519L476.562 82.6646C476.506 83.0633 476.473 83.4743 476.465 83.8975C476.465 84.3125 476.506 84.7153 476.587 85.106C476.652 85.4966 476.762 85.8669 476.917 86.2168C477.071 86.5667 477.279 86.8719 477.539 87.1323C477.791 87.3927 478.097 87.6043 478.455 87.7671C478.821 87.9217 479.248 88.0031 479.736 88.0112ZM501.893 77.0371H496.424L494.349 89H492.908L494.971 77.0371H489.71L489.905 75.792H502.088L501.893 77.0371ZM524.013 76.6587C524.843 76.6668 525.567 76.8377 526.186 77.1714C526.804 77.4969 527.313 77.9282 527.711 78.4653C528.11 79.0106 528.391 79.6372 528.554 80.3452C528.725 81.0532 528.765 81.7938 528.676 82.5669L528.627 82.9697C528.505 83.8079 528.265 84.6095 527.907 85.3745C527.557 86.1313 527.097 86.7987 526.527 87.3765C525.966 87.9543 525.311 88.4141 524.562 88.7559C523.813 89.0895 522.995 89.2523 522.108 89.2441C521.238 89.236 520.477 89.057 519.826 88.707C519.183 88.349 518.658 87.881 518.251 87.3032C517.844 86.7254 517.559 86.0622 517.396 85.3135C517.234 84.5566 517.201 83.7795 517.299 82.9819L517.348 82.5791L517.36 82.4814L517.482 81.688C517.58 80.9963 517.718 80.3005 517.897 79.6006C518.084 78.9007 518.316 78.2212 518.593 77.562C518.861 76.911 519.187 76.2925 519.569 75.7065C519.952 75.1125 520.391 74.5794 520.888 74.1074C521.384 73.6436 521.942 73.2489 522.56 72.9233C523.187 72.5897 523.878 72.3537 524.635 72.2153C525.001 72.1502 525.376 72.0811 525.758 72.0078C526.149 71.9264 526.511 71.8084 526.845 71.6538C527.178 71.5073 527.475 71.3079 527.736 71.0557C527.996 70.8034 528.183 70.4697 528.297 70.0547H529.53C529.424 70.6813 529.229 71.1981 528.944 71.605C528.66 72.0037 528.314 72.3293 527.907 72.5815C527.484 72.8257 527.016 73.0169 526.503 73.1553C525.99 73.2936 525.453 73.4116 524.892 73.5093C524.135 73.6313 523.459 73.8633 522.865 74.2051C522.279 74.5387 521.758 74.9456 521.303 75.4258C520.847 75.9222 520.448 76.4756 520.106 77.0859C519.765 77.6882 519.464 78.327 519.203 79.0024C519.822 78.2944 520.538 77.7248 521.352 77.2935C522.165 76.8621 523.052 76.6506 524.013 76.6587ZM523.769 77.9038C523.101 77.8957 522.483 78.0177 521.913 78.27C521.343 78.5223 520.843 78.8641 520.412 79.2954C519.98 79.7267 519.622 80.2272 519.337 80.7969C519.061 81.3665 518.869 81.9647 518.764 82.5913L518.703 82.9941C518.629 83.5882 518.638 84.1823 518.727 84.7764C518.825 85.3704 519.012 85.9035 519.289 86.3755C519.565 86.8475 519.94 87.234 520.412 87.5352C520.884 87.8363 521.461 87.9909 522.145 87.999C522.845 88.0153 523.484 87.881 524.062 87.5962C524.639 87.3114 525.144 86.9329 525.575 86.4609C526.007 85.9889 526.356 85.4478 526.625 84.8374C526.902 84.2271 527.093 83.6045 527.199 82.9697L527.248 82.5669C527.321 81.9728 527.3 81.3991 527.187 80.8457C527.081 80.2842 526.881 79.7878 526.588 79.3564C526.295 78.9251 525.913 78.5793 525.441 78.3188C524.969 78.0503 524.411 77.9119 523.769 77.9038ZM536.342 86.2656L536.574 86.8027L543.056 75.8042H544.741L535.488 91.124C535.244 91.5472 534.967 91.95 534.658 92.3325C534.348 92.7231 534.011 93.069 533.645 93.3701C533.27 93.6631 532.859 93.8991 532.412 94.0781C531.972 94.2572 531.488 94.3467 530.959 94.3467C530.747 94.3467 530.536 94.3304 530.324 94.2979C530.121 94.2653 529.913 94.2287 529.702 94.188L529.982 92.9429C530.153 92.9673 530.32 92.9917 530.483 93.0161C530.654 93.0405 530.821 93.0527 530.983 93.0527C531.358 93.0446 531.708 92.9673 532.033 92.8208C532.359 92.6825 532.656 92.4993 532.924 92.2715C533.193 92.0436 533.437 91.7832 533.657 91.4902C533.885 91.1973 534.092 90.9043 534.279 90.6113L535.549 88.585L532.021 75.7798H533.571L536.342 86.2656ZM545.278 87.7671C545.653 87.5555 545.99 87.2788 546.292 86.937C546.601 86.5952 546.877 86.2168 547.122 85.8018C547.349 85.403 547.553 84.9798 547.732 84.5322C547.911 84.0846 548.07 83.6289 548.208 83.165C548.338 82.7093 548.456 82.2576 548.562 81.8101C548.668 81.3625 548.761 80.9474 548.843 80.5649L549.88 75.792H557.449L555.386 87.7549H556.716L555.728 92.8818H554.397L555.068 89H545.461L544.79 92.8818H543.545L544.314 87.7549L545.278 87.7671ZM550.283 80.5649C550.145 81.2078 549.99 81.8507 549.819 82.4937C549.657 83.1366 549.457 83.7673 549.221 84.3857C548.977 85.0042 548.696 85.5983 548.379 86.168C548.062 86.7376 547.679 87.2747 547.231 87.7793L553.958 87.7549L555.789 77.1592H551.016L550.283 80.5649ZM564.993 89.2441C564.082 89.236 563.284 89.0366 562.601 88.646C561.925 88.2554 561.38 87.7467 560.965 87.1201C560.574 86.5423 560.293 85.875 560.123 85.1182C559.96 84.3613 559.927 83.5841 560.025 82.7866L560.098 82.2495C560.18 81.6961 560.318 81.1468 560.513 80.6016C560.708 80.0482 560.957 79.5192 561.258 79.0146C561.559 78.5182 561.905 78.0584 562.295 77.6353C562.686 77.2039 563.117 76.8337 563.589 76.5244C564.061 76.2152 564.57 75.9751 565.115 75.8042C565.669 75.6252 566.25 75.5397 566.861 75.5479C567.707 75.556 568.427 75.735 569.021 76.085C569.616 76.4268 570.096 76.8825 570.462 77.4521C570.82 78.0137 571.06 78.6566 571.182 79.3809C571.304 80.1051 571.316 80.8457 571.219 81.6025L571.072 82.4937H561.514C561.376 83.2342 561.351 83.9219 561.441 84.5566C561.53 85.1914 561.746 85.7855 562.088 86.3389C562.381 86.8271 562.78 87.2218 563.284 87.5229C563.797 87.8241 564.395 87.9827 565.079 87.999C565.884 88.0153 566.629 87.8607 567.312 87.5352C567.996 87.2096 568.619 86.7702 569.18 86.2168L570.035 86.937C569.416 87.6857 568.663 88.2594 567.776 88.6582C566.897 89.057 565.97 89.2523 564.993 89.2441ZM566.812 76.8052C566.161 76.7889 565.563 76.911 565.018 77.1714C564.48 77.4237 564.004 77.7573 563.589 78.1724C563.158 78.5874 562.788 79.0635 562.479 79.6006C562.169 80.1377 561.913 80.687 561.709 81.2485L569.815 81.2607L569.852 81.0654C569.949 80.5446 569.953 80.0319 569.864 79.5273C569.774 79.0146 569.599 78.5589 569.339 78.1602C569.07 77.7614 568.724 77.4399 568.301 77.1958C567.878 76.9435 567.382 76.8133 566.812 76.8052ZM586.93 77.0371H581.461L579.386 89H577.945L580.008 77.0371H574.747L574.942 75.792H587.125L586.93 77.0371ZM601.872 89L604.155 75.792H608.903C609.229 75.8001 609.558 75.8245 609.892 75.8652C610.234 75.9059 610.563 75.971 610.881 76.0605C611.182 76.1501 611.463 76.2599 611.723 76.3901C611.992 76.5203 612.232 76.679 612.443 76.8662C612.753 77.1348 612.989 77.4644 613.151 77.855C613.322 78.2456 613.375 78.7135 613.31 79.2588C613.261 79.6576 613.155 80.0116 612.993 80.3208C612.838 80.63 612.639 80.9027 612.395 81.1387C612.15 81.3747 611.878 81.5822 611.577 81.7612C611.276 81.9321 610.938 82.0827 610.563 82.2129C610.93 82.3105 611.259 82.457 611.552 82.6523C611.845 82.8477 612.089 83.0755 612.285 83.3359C612.472 83.6045 612.606 83.9056 612.688 84.2393C612.777 84.5648 612.801 84.9147 612.761 85.2891C612.704 85.8424 612.557 86.3267 612.321 86.7417C612.093 87.1486 611.8 87.4945 611.442 87.7793C611.215 87.9909 610.958 88.174 610.673 88.3286C610.389 88.4832 610.087 88.6094 609.77 88.707C609.436 88.8047 609.086 88.8779 608.72 88.9268C608.354 88.9756 607.992 89 607.634 89H601.872ZM604.362 82.9209L603.52 87.7671H607.646C608.061 87.7671 608.472 87.7223 608.879 87.6328C609.294 87.5352 609.672 87.3887 610.014 87.1934C610.348 86.998 610.637 86.7417 610.881 86.4243C611.125 86.1069 611.284 85.7204 611.357 85.2646C611.422 84.8415 611.385 84.4834 611.247 84.1904C611.117 83.8893 610.922 83.6452 610.661 83.458C610.401 83.279 610.096 83.1488 609.746 83.0674C609.396 82.9779 609.042 82.929 608.684 82.9209H604.362ZM604.57 81.688L608.085 81.7002C608.492 81.6921 608.903 81.6514 609.318 81.5781C609.733 81.4967 610.12 81.3665 610.478 81.1875C610.828 81.0085 611.129 80.7684 611.381 80.4673C611.634 80.158 611.8 79.7756 611.882 79.3198C611.931 79.0431 611.931 78.799 611.882 78.5874C611.841 78.3677 611.764 78.1764 611.65 78.0137C611.544 77.8509 611.406 77.7166 611.235 77.6108C611.064 77.4969 610.877 77.4033 610.673 77.3301C610.397 77.2243 610.1 77.1551 609.782 77.1226C609.473 77.0819 609.172 77.0575 608.879 77.0493L605.375 77.0371L604.57 81.688ZM618.572 80.8213H620.61C621.18 80.8457 621.681 80.9637 622.112 81.1753C622.551 81.3869 622.913 81.6717 623.198 82.0298C623.483 82.396 623.687 82.8192 623.809 83.2993C623.931 83.7713 623.963 84.284 623.906 84.8374C623.833 85.4315 623.67 85.9849 623.418 86.4976C623.174 87.0021 622.852 87.4375 622.454 87.8037C622.063 88.1781 621.603 88.471 621.074 88.6826C620.553 88.8861 619.992 88.9919 619.39 89H615.789L618.083 75.792H619.438L618.572 80.8213ZM626.494 89H625.103L627.385 75.792H628.789L626.494 89ZM618.401 82.0542L617.4 87.7549H619.402C619.841 87.7386 620.236 87.6491 620.586 87.4863C620.944 87.3236 621.257 87.1038 621.526 86.8271C621.762 86.5749 621.957 86.2819 622.112 85.9482C622.275 85.6146 622.389 85.2565 622.454 84.874C622.511 84.5241 622.519 84.1864 622.478 83.8608C622.437 83.5272 622.344 83.2301 622.197 82.9697C622.043 82.7093 621.831 82.4977 621.562 82.335C621.294 82.1722 620.968 82.0827 620.586 82.0664L618.401 82.0542ZM641.802 82.4937C641.721 83.0063 641.603 83.5272 641.448 84.0562C641.302 84.577 641.111 85.0775 640.875 85.5576C640.622 86.111 640.309 86.6278 639.935 87.1079C639.568 87.5881 639.149 87.9909 638.677 88.3164C638.262 88.6094 637.806 88.8372 637.31 89C636.822 89.1709 636.289 89.2523 635.711 89.2441C635.304 89.2441 634.909 89.1953 634.527 89.0977C634.144 89 633.786 88.8576 633.453 88.6704C633.184 88.5158 632.932 88.3327 632.696 88.1211C632.468 87.9095 632.269 87.6654 632.098 87.3887L630.889 94.0781H629.473L632.635 75.792H633.953L633.624 77.6108C633.86 77.3341 634.116 77.0778 634.393 76.8418C634.669 76.5977 634.962 76.3901 635.271 76.2192C635.654 75.9995 636.057 75.8327 636.48 75.7188C636.903 75.6048 637.347 75.5479 637.811 75.5479C638.413 75.556 638.942 75.6577 639.397 75.853C639.853 76.0483 640.24 76.3088 640.557 76.6343C640.875 76.9679 641.131 77.3545 641.326 77.7939C641.53 78.2334 641.68 78.6973 641.778 79.1855C641.867 79.682 641.912 80.1906 641.912 80.7114C641.92 81.2323 641.892 81.7409 641.827 82.2373L641.802 82.4937ZM640.398 82.2373C640.455 81.8141 640.484 81.3747 640.484 80.9189C640.492 80.4551 640.455 80.0075 640.374 79.5762C640.301 79.21 640.199 78.8722 640.069 78.563C639.939 78.2456 639.768 77.9648 639.556 77.7207C639.32 77.4521 639.027 77.2406 638.677 77.0859C638.327 76.9232 637.912 76.8377 637.432 76.8296C636.985 76.8296 636.557 76.8988 636.15 77.0371C635.752 77.1673 635.381 77.3545 635.04 77.5986C634.722 77.8184 634.429 78.0747 634.161 78.3677C633.9 78.6606 633.668 78.974 633.465 79.3076L632.33 85.7651C632.435 86.1232 632.586 86.4406 632.781 86.7173C632.985 86.9858 633.221 87.2137 633.489 87.4009C633.758 87.5962 634.055 87.7427 634.38 87.8403C634.714 87.938 635.068 87.9909 635.442 87.999C635.931 88.0072 636.378 87.938 636.785 87.7915C637.2 87.645 637.575 87.4416 637.908 87.1812C638.274 86.9126 638.596 86.5911 638.873 86.2168C639.149 85.8343 639.389 85.4315 639.593 85.0083C639.78 84.6095 639.939 84.1945 640.069 83.7632C640.199 83.3319 640.297 82.9087 640.362 82.4937L640.398 82.2373ZM644.928 82.2495C645.058 81.3706 645.31 80.5202 645.685 79.6982C646.067 78.8763 646.555 78.152 647.149 77.5254C647.719 76.9313 648.382 76.4512 649.139 76.085C649.896 75.7188 650.738 75.5397 651.666 75.5479C652.293 75.556 652.858 75.6577 653.363 75.853C653.867 76.0402 654.303 76.2965 654.669 76.6221C655.003 76.9232 655.292 77.2731 655.536 77.6719C655.78 78.0706 655.975 78.4979 656.122 78.9536C656.268 79.45 656.362 79.9749 656.402 80.5283C656.451 81.0817 656.439 81.6351 656.366 82.1885L656.305 82.5913C656.174 83.4458 655.922 84.2759 655.548 85.0815C655.182 85.8791 654.714 86.5871 654.144 87.2056C653.566 87.8322 652.891 88.3327 652.118 88.707C651.353 89.0732 650.502 89.2523 649.566 89.2441C648.915 89.236 648.329 89.1302 647.809 88.9268C647.296 88.7152 646.852 88.4344 646.478 88.0845C646.169 87.7915 645.9 87.4578 645.672 87.0835C645.444 86.7091 645.265 86.3104 645.135 85.8872C644.972 85.3908 644.867 84.8659 644.818 84.3125C644.777 83.7591 644.793 83.2017 644.867 82.6401L644.928 82.2495ZM646.295 82.6401C646.205 83.2586 646.197 83.8975 646.271 84.5566C646.344 85.2077 646.523 85.7977 646.808 86.3267C647.06 86.8149 647.418 87.2137 647.882 87.5229C648.354 87.8322 648.932 87.995 649.615 88.0112C650.356 88.0194 651.023 87.8647 651.617 87.5474C652.219 87.23 652.744 86.8109 653.192 86.29C653.631 85.7773 653.998 85.1833 654.291 84.5078C654.583 83.8242 654.779 83.1854 654.876 82.5913L654.938 82.1885C655.027 81.5374 655.027 80.866 654.938 80.1743C654.848 79.4826 654.636 78.8722 654.303 78.3433C654.034 77.8957 653.68 77.5295 653.241 77.2446C652.801 76.9598 652.26 76.8092 651.617 76.793C650.877 76.7848 650.205 76.9435 649.603 77.269C649.001 77.5864 648.48 78.0055 648.041 78.5264C647.601 79.0472 647.239 79.6331 646.954 80.2842C646.669 80.9352 646.47 81.5903 646.356 82.2495L646.295 82.6401ZM658.563 89L660.846 75.792H665.595C665.92 75.8001 666.25 75.8245 666.583 75.8652C666.925 75.9059 667.255 75.971 667.572 76.0605C667.873 76.1501 668.154 76.2599 668.415 76.3901C668.683 76.5203 668.923 76.679 669.135 76.8662C669.444 77.1348 669.68 77.4644 669.843 77.855C670.014 78.2456 670.067 78.7135 670.001 79.2588C669.953 79.6576 669.847 80.0116 669.684 80.3208C669.529 80.63 669.33 80.9027 669.086 81.1387C668.842 81.3747 668.569 81.5822 668.268 81.7612C667.967 81.9321 667.629 82.0827 667.255 82.2129C667.621 82.3105 667.951 82.457 668.244 82.6523C668.537 82.8477 668.781 83.0755 668.976 83.3359C669.163 83.6045 669.298 83.9056 669.379 84.2393C669.468 84.5648 669.493 84.9147 669.452 85.2891C669.395 85.8424 669.249 86.3267 669.013 86.7417C668.785 87.1486 668.492 87.4945 668.134 87.7793C667.906 87.9909 667.65 88.174 667.365 88.3286C667.08 88.4832 666.779 88.6094 666.461 88.707C666.128 88.8047 665.778 88.8779 665.412 88.9268C665.045 88.9756 664.683 89 664.325 89H658.563ZM661.054 82.9209L660.211 87.7671H664.337C664.752 87.7671 665.163 87.7223 665.57 87.6328C665.985 87.5352 666.364 87.3887 666.706 87.1934C667.039 86.998 667.328 86.7417 667.572 86.4243C667.816 86.1069 667.975 85.7204 668.048 85.2646C668.113 84.8415 668.077 84.4834 667.938 84.1904C667.808 83.8893 667.613 83.6452 667.353 83.458C667.092 83.279 666.787 83.1488 666.437 83.0674C666.087 82.9779 665.733 82.929 665.375 82.9209H661.054ZM661.261 81.688L664.777 81.7002C665.184 81.6921 665.595 81.6514 666.01 81.5781C666.425 81.4967 666.811 81.3665 667.169 81.1875C667.519 81.0085 667.82 80.7684 668.073 80.4673C668.325 80.158 668.492 79.7756 668.573 79.3198C668.622 79.0431 668.622 78.799 668.573 78.5874C668.533 78.3677 668.455 78.1764 668.341 78.0137C668.236 77.8509 668.097 77.7166 667.926 77.6108C667.755 77.4969 667.568 77.4033 667.365 77.3301C667.088 77.2243 666.791 77.1551 666.474 77.1226C666.164 77.0819 665.863 77.0575 665.57 77.0493L662.067 77.0371L661.261 81.688ZM682.868 89H681.428L682.478 82.9453H675.251L674.201 89H672.773L675.056 75.792H676.484L675.458 81.7002H682.685L683.71 75.792H685.151L682.868 89ZM692.549 89.2441C691.637 89.236 690.84 89.0366 690.156 88.646C689.481 88.2554 688.936 87.7467 688.521 87.1201C688.13 86.5423 687.849 85.875 687.678 85.1182C687.515 84.3613 687.483 83.5841 687.581 82.7866L687.654 82.2495C687.735 81.6961 687.874 81.1468 688.069 80.6016C688.264 80.0482 688.512 79.5192 688.813 79.0146C689.115 78.5182 689.46 78.0584 689.851 77.6353C690.242 77.2039 690.673 76.8337 691.145 76.5244C691.617 76.2152 692.126 75.9751 692.671 75.8042C693.224 75.6252 693.806 75.5397 694.417 75.5479C695.263 75.556 695.983 75.735 696.577 76.085C697.171 76.4268 697.651 76.8825 698.018 77.4521C698.376 78.0137 698.616 78.6566 698.738 79.3809C698.86 80.1051 698.872 80.8457 698.774 81.6025L698.628 82.4937H689.07C688.931 83.2342 688.907 83.9219 688.997 84.5566C689.086 85.1914 689.302 85.7855 689.644 86.3389C689.937 86.8271 690.335 87.2218 690.84 87.5229C691.353 87.8241 691.951 87.9827 692.634 87.999C693.44 88.0153 694.185 87.8607 694.868 87.5352C695.552 87.2096 696.174 86.7702 696.736 86.2168L697.59 86.937C696.972 87.6857 696.219 88.2594 695.332 88.6582C694.453 89.057 693.525 89.2523 692.549 89.2441ZM694.368 76.8052C693.717 76.7889 693.118 76.911 692.573 77.1714C692.036 77.4237 691.56 77.7573 691.145 78.1724C690.714 78.5874 690.343 79.0635 690.034 79.6006C689.725 80.1377 689.469 80.687 689.265 81.2485L697.371 81.2607L697.407 81.0654C697.505 80.5446 697.509 80.0319 697.419 79.5273C697.33 79.0146 697.155 78.5589 696.895 78.1602C696.626 77.7614 696.28 77.4399 695.857 77.1958C695.434 76.9435 694.937 76.8133 694.368 76.8052ZM711.214 89H709.773L710.823 82.9453H703.597L702.547 89H701.119L703.401 75.792H704.83L703.804 81.7002H711.031L712.056 75.792H713.497L711.214 89ZM739.56 89H738.119L740.182 77.0615H732.968L730.905 89H729.464L731.759 75.792H741.83L739.56 89ZM744.138 82.2495C744.268 81.3706 744.52 80.5202 744.895 79.6982C745.277 78.8763 745.765 78.152 746.359 77.5254C746.929 76.9313 747.592 76.4512 748.349 76.085C749.106 75.7188 749.948 75.5397 750.876 75.5479C751.503 75.556 752.068 75.6577 752.573 75.853C753.077 76.0402 753.513 76.2965 753.879 76.6221C754.213 76.9232 754.501 77.2731 754.746 77.6719C754.99 78.0706 755.185 78.4979 755.332 78.9536C755.478 79.45 755.572 79.9749 755.612 80.5283C755.661 81.0817 755.649 81.6351 755.576 82.1885L755.515 82.5913C755.384 83.4458 755.132 84.2759 754.758 85.0815C754.392 85.8791 753.924 86.5871 753.354 87.2056C752.776 87.8322 752.101 88.3327 751.328 88.707C750.563 89.0732 749.712 89.2523 748.776 89.2441C748.125 89.236 747.539 89.1302 747.019 88.9268C746.506 88.7152 746.062 88.4344 745.688 88.0845C745.379 87.7915 745.11 87.4578 744.882 87.0835C744.654 86.7091 744.475 86.3104 744.345 85.8872C744.182 85.3908 744.077 84.8659 744.028 84.3125C743.987 83.7591 744.003 83.2017 744.077 82.6401L744.138 82.2495ZM745.505 82.6401C745.415 83.2586 745.407 83.8975 745.48 84.5566C745.554 85.2077 745.733 85.7977 746.018 86.3267C746.27 86.8149 746.628 87.2137 747.092 87.5229C747.564 87.8322 748.142 87.995 748.825 88.0112C749.566 88.0194 750.233 87.8647 750.827 87.5474C751.429 87.23 751.954 86.8109 752.402 86.29C752.841 85.7773 753.208 85.1833 753.5 84.5078C753.793 83.8242 753.989 83.1854 754.086 82.5913L754.147 82.1885C754.237 81.5374 754.237 80.866 754.147 80.1743C754.058 79.4826 753.846 78.8722 753.513 78.3433C753.244 77.8957 752.89 77.5295 752.451 77.2446C752.011 76.9598 751.47 76.8092 750.827 76.793C750.087 76.7848 749.415 76.9435 748.813 77.269C748.211 77.5864 747.69 78.0055 747.25 78.5264C746.811 79.0472 746.449 79.6331 746.164 80.2842C745.879 80.9352 745.68 81.5903 745.566 82.2495L745.505 82.6401ZM774.607 75.792H776.036L773.96 87.7549H780.857L782.933 75.792H784.373L782.298 87.7549H783.616L782.603 92.9185H781.285L781.968 89H772.337L774.607 75.792ZM791.759 89.2441C790.847 89.236 790.05 89.0366 789.366 88.646C788.691 88.2554 788.146 87.7467 787.73 87.1201C787.34 86.5423 787.059 85.875 786.888 85.1182C786.725 84.3613 786.693 83.5841 786.791 82.7866L786.864 82.2495C786.945 81.6961 787.083 81.1468 787.279 80.6016C787.474 80.0482 787.722 79.5192 788.023 79.0146C788.325 78.5182 788.67 78.0584 789.061 77.6353C789.452 77.2039 789.883 76.8337 790.355 76.5244C790.827 76.2152 791.336 75.9751 791.881 75.8042C792.434 75.6252 793.016 75.5397 793.626 75.5479C794.473 75.556 795.193 75.735 795.787 76.085C796.381 76.4268 796.861 76.8825 797.228 77.4521C797.586 78.0137 797.826 78.6566 797.948 79.3809C798.07 80.1051 798.082 80.8457 797.984 81.6025L797.838 82.4937H788.28C788.141 83.2342 788.117 83.9219 788.207 84.5566C788.296 85.1914 788.512 85.7855 788.854 86.3389C789.146 86.8271 789.545 87.2218 790.05 87.5229C790.562 87.8241 791.161 87.9827 791.844 87.999C792.65 88.0153 793.395 87.8607 794.078 87.5352C794.762 87.2096 795.384 86.7702 795.946 86.2168L796.8 86.937C796.182 87.6857 795.429 88.2594 794.542 88.6582C793.663 89.057 792.735 89.2523 791.759 89.2441ZM793.578 76.8052C792.927 76.7889 792.328 76.911 791.783 77.1714C791.246 77.4237 790.77 77.7573 790.355 78.1724C789.924 78.5874 789.553 79.0635 789.244 79.6006C788.935 80.1377 788.679 80.687 788.475 81.2485L796.581 81.2607L796.617 81.0654C796.715 80.5446 796.719 80.0319 796.629 79.5273C796.54 79.0146 796.365 78.5589 796.104 78.1602C795.836 77.7614 795.49 77.4399 795.067 77.1958C794.644 76.9435 794.147 76.8133 793.578 76.8052ZM810.424 89H808.983L810.033 82.9453H802.807L801.757 89H800.329L802.611 75.792H804.04L803.014 81.7002H810.241L811.266 75.792H812.707L810.424 89ZM827.868 77.0371H822.399L820.324 89H818.884L820.947 77.0371H815.686L815.881 75.792H828.063L827.868 77.0371ZM840.222 82.4937C840.141 83.0063 840.023 83.5272 839.868 84.0562C839.722 84.577 839.53 85.0775 839.294 85.5576C839.042 86.111 838.729 86.6278 838.354 87.1079C837.988 87.5881 837.569 87.9909 837.097 88.3164C836.682 88.6094 836.226 88.8372 835.73 89C835.242 89.1709 834.709 89.2523 834.131 89.2441C833.724 89.2441 833.329 89.1953 832.947 89.0977C832.564 89 832.206 88.8576 831.873 88.6704C831.604 88.5158 831.352 88.3327 831.116 88.1211C830.888 87.9095 830.688 87.6654 830.518 87.3887L829.309 94.0781H827.893L831.055 75.792H832.373L832.043 77.6108C832.279 77.3341 832.536 77.0778 832.812 76.8418C833.089 76.5977 833.382 76.3901 833.691 76.2192C834.074 75.9995 834.477 75.8327 834.9 75.7188C835.323 75.6048 835.767 75.5479 836.23 75.5479C836.833 75.556 837.362 75.6577 837.817 75.853C838.273 76.0483 838.66 76.3088 838.977 76.6343C839.294 76.9679 839.551 77.3545 839.746 77.7939C839.95 78.2334 840.1 78.6973 840.198 79.1855C840.287 79.682 840.332 80.1906 840.332 80.7114C840.34 81.2323 840.312 81.7409 840.247 82.2373L840.222 82.4937ZM838.818 82.2373C838.875 81.8141 838.904 81.3747 838.904 80.9189C838.912 80.4551 838.875 80.0075 838.794 79.5762C838.721 79.21 838.619 78.8722 838.489 78.563C838.359 78.2456 838.188 77.9648 837.976 77.7207C837.74 77.4521 837.447 77.2406 837.097 77.0859C836.747 76.9232 836.332 76.8377 835.852 76.8296C835.404 76.8296 834.977 76.8988 834.57 77.0371C834.172 77.1673 833.801 77.3545 833.459 77.5986C833.142 77.8184 832.849 78.0747 832.581 78.3677C832.32 78.6606 832.088 78.974 831.885 79.3076L830.75 85.7651C830.855 86.1232 831.006 86.4406 831.201 86.7173C831.405 86.9858 831.641 87.2137 831.909 87.4009C832.178 87.5962 832.475 87.7427 832.8 87.8403C833.134 87.938 833.488 87.9909 833.862 87.999C834.351 88.0072 834.798 87.938 835.205 87.7915C835.62 87.645 835.994 87.4416 836.328 87.1812C836.694 86.9126 837.016 86.5911 837.292 86.2168C837.569 85.8343 837.809 85.4315 838.013 85.0083C838.2 84.6095 838.359 84.1945 838.489 83.7632C838.619 83.3319 838.717 82.9087 838.782 82.4937L838.818 82.2373ZM848.145 86.2656L848.377 86.8027L854.859 75.8042H856.543L847.291 91.124C847.046 91.5472 846.77 91.95 846.46 92.3325C846.151 92.7231 845.813 93.069 845.447 93.3701C845.073 93.6631 844.662 93.8991 844.214 94.0781C843.775 94.2572 843.291 94.3467 842.762 94.3467C842.55 94.3467 842.339 94.3304 842.127 94.2979C841.924 94.2653 841.716 94.2287 841.504 94.188L841.785 92.9429C841.956 92.9673 842.123 92.9917 842.286 93.0161C842.457 93.0405 842.623 93.0527 842.786 93.0527C843.16 93.0446 843.51 92.9673 843.836 92.8208C844.161 92.6825 844.458 92.4993 844.727 92.2715C844.996 92.0436 845.24 91.7832 845.459 91.4902C845.687 91.1973 845.895 90.9043 846.082 90.6113L847.352 88.585L843.824 75.7798H845.374L848.145 86.2656ZM877.663 77.1714L873.305 75.8408L873.927 74.4858L878.188 76.2314L878.834 71.2266H880.25L879.25 76.1948L883.9 74.437L884.157 75.8896L879.323 77.3057L881.923 81.2363L880.69 82.0664L878.444 77.8916L875.026 82.0054L873.939 81.1265L877.663 77.1714ZM887.551 90.5137H886.147L896.682 71.2388H898.073L887.551 90.5137Z" fill="#0066FF"/>
<path d="M80.9678 60.4678C80.1784 60.4434 79.4948 60.2603 78.917 59.9185C78.3392 59.5767 77.859 59.125 77.4766 58.5635C77.1104 58.0264 76.8337 57.4242 76.6465 56.7568C76.4593 56.0977 76.3657 55.4425 76.3657 54.7915V52.7285C76.3657 51.5566 76.085 50.7062 75.5234 50.1772C74.9701 49.6483 74.1196 49.3797 72.9722 49.3716V47.6016C74.1196 47.6016 74.9701 47.3411 75.5234 46.8203C76.085 46.2913 76.3657 45.4368 76.3657 44.2568V42.1816C76.3657 41.5225 76.4512 40.8511 76.6221 40.1675C76.8011 39.4757 77.0819 38.8573 77.4644 38.312C77.8224 37.7912 78.2904 37.368 78.8682 37.0425C79.446 36.7088 80.1458 36.5298 80.9678 36.5054L81.2241 37.9092C80.6382 37.9255 80.1702 38.0638 79.8203 38.3242C79.4785 38.5846 79.2222 38.9142 79.0513 39.313C78.8722 39.7199 78.7583 40.1756 78.7095 40.6802C78.6606 41.1847 78.6362 41.6852 78.6362 42.1816V44.2568C78.6362 45.2334 78.4084 46.092 77.9526 46.8325C77.505 47.5649 76.8092 48.1224 75.8652 48.5049C76.8092 48.8792 77.505 49.4367 77.9526 50.1772C78.4002 50.9097 78.6281 51.7601 78.6362 52.7285V54.7915C78.6362 55.2961 78.6769 55.7965 78.7583 56.293C78.8397 56.7975 78.9821 57.2492 79.1855 57.6479C79.3809 58.0549 79.6413 58.3885 79.9668 58.6489C80.3005 58.9093 80.7196 59.0477 81.2241 59.064L80.9678 60.4678ZM105.529 72.5938V75.792H110.559V77.5376H105.529V84.7153C105.529 85.228 105.594 85.6512 105.725 85.9849C105.855 86.3185 106.034 86.583 106.262 86.7783C106.49 86.9818 106.75 87.1242 107.043 87.2056C107.344 87.2869 107.661 87.3276 107.995 87.3276C108.239 87.3276 108.492 87.3154 108.752 87.291C109.012 87.2585 109.269 87.2218 109.521 87.1812C109.765 87.1405 109.993 87.0998 110.205 87.0591C110.424 87.0103 110.603 86.9696 110.742 86.937L111.059 88.5361C110.872 88.6501 110.644 88.7518 110.375 88.8413C110.107 88.9227 109.814 88.9919 109.497 89.0488C109.179 89.1139 108.841 89.1628 108.483 89.1953C108.133 89.2279 107.784 89.2441 107.434 89.2441C106.848 89.2441 106.298 89.1628 105.786 89C105.281 88.8291 104.842 88.5605 104.467 88.1943C104.093 87.8363 103.796 87.3724 103.576 86.8027C103.365 86.2249 103.259 85.5291 103.259 84.7153V77.5376H99.792V75.792H103.259V72.5938H105.529ZM120.532 89.2441C119.604 89.2441 118.75 89.0854 117.969 88.7681C117.196 88.4507 116.532 88.0072 115.979 87.4375C115.426 86.8678 114.994 86.1924 114.685 85.4111C114.376 84.6299 114.221 83.7795 114.221 82.8599V82.3472C114.221 81.2811 114.392 80.3289 114.734 79.4907C115.076 78.6444 115.531 77.9282 116.101 77.3423C116.663 76.7645 117.301 76.321 118.018 76.0117C118.742 75.7025 119.482 75.5479 120.239 75.5479C121.191 75.5479 122.021 75.7147 122.729 76.0483C123.446 76.3739 124.04 76.8255 124.512 77.4033C124.984 77.9893 125.334 78.6769 125.562 79.4663C125.798 80.2557 125.916 81.1102 125.916 82.0298V83.043H116.479V83.1284C116.536 83.7713 116.663 84.3369 116.858 84.8252C117.061 85.3135 117.338 85.7448 117.688 86.1191C118.046 86.5179 118.477 86.8312 118.982 87.0591C119.486 87.2869 120.044 87.4009 120.654 87.4009C121.46 87.4009 122.176 87.2381 122.803 86.9126C123.429 86.5871 123.95 86.1558 124.365 85.6187L125.745 86.6929C125.305 87.3602 124.646 87.9543 123.767 88.4751C122.896 88.9878 121.818 89.2441 120.532 89.2441ZM120.239 77.4033C119.784 77.4033 119.352 77.4888 118.945 77.6597C118.538 77.8224 118.172 78.0625 117.847 78.3799C117.521 78.7054 117.244 79.1042 117.017 79.5762C116.797 80.04 116.642 80.5771 116.553 81.1875H123.657V81.0776C123.657 80.6707 123.58 80.2354 123.425 79.7715C123.271 79.2995 123.055 78.8926 122.778 78.5508C122.502 78.209 122.152 77.9323 121.729 77.7207C121.313 77.5091 120.817 77.4033 120.239 77.4033ZM134.668 80.687L138.196 75.792H140.845L135.926 82.3228L140.979 89H138.367L134.717 83.9707L131.067 89H128.431L133.484 82.3228L128.565 75.792H131.177L134.668 80.687ZM149.073 72.5938V75.792H154.103V77.5376H149.073V84.7153C149.073 85.228 149.138 85.6512 149.269 85.9849C149.399 86.3185 149.578 86.583 149.806 86.7783C150.034 86.9818 150.294 87.1242 150.587 87.2056C150.888 87.2869 151.205 87.3276 151.539 87.3276C151.783 87.3276 152.035 87.3154 152.296 87.291C152.556 87.2585 152.813 87.2218 153.065 87.1812C153.309 87.1405 153.537 87.0998 153.749 87.0591C153.968 87.0103 154.147 86.9696 154.286 86.937L154.603 88.5361C154.416 88.6501 154.188 88.7518 153.919 88.8413C153.651 88.9227 153.358 88.9919 153.041 89.0488C152.723 89.1139 152.385 89.1628 152.027 89.1953C151.677 89.2279 151.327 89.2441 150.978 89.2441C150.392 89.2441 149.842 89.1628 149.33 89C148.825 88.8291 148.386 88.5605 148.011 88.1943C147.637 87.8363 147.34 87.3724 147.12 86.8027C146.909 86.2249 146.803 85.5291 146.803 84.7153V77.5376H143.336V75.792H146.803V72.5938H149.073ZM168.117 82.1519H158.778V80.2964H168.117V82.1519ZM181.435 89C181.346 88.8291 181.272 88.6175 181.215 88.3652C181.167 88.1048 181.13 87.8363 181.105 87.5596C180.878 87.7874 180.621 88.0031 180.336 88.2065C180.06 88.41 179.755 88.589 179.421 88.7437C179.079 88.8983 178.717 89.0203 178.334 89.1099C177.952 89.1994 177.545 89.2441 177.114 89.2441C176.414 89.2441 175.779 89.1424 175.209 88.939C174.648 88.7355 174.172 88.4588 173.781 88.1089C173.382 87.7671 173.073 87.3602 172.854 86.8882C172.642 86.408 172.536 85.8913 172.536 85.3379C172.536 84.6136 172.679 83.9788 172.963 83.4336C173.256 82.8883 173.667 82.4326 174.196 82.0664C174.725 81.7083 175.36 81.4398 176.101 81.2607C176.849 81.0817 177.683 80.9922 178.603 80.9922H181.069V79.9546C181.069 79.5558 180.996 79.1978 180.849 78.8804C180.703 78.563 180.495 78.2904 180.227 78.0625C179.958 77.8428 179.628 77.6719 179.238 77.5498C178.855 77.4277 178.424 77.3667 177.944 77.3667C177.496 77.3667 177.093 77.4237 176.735 77.5376C176.385 77.6515 176.088 77.8021 175.844 77.9893C175.6 78.1764 175.409 78.4002 175.271 78.6606C175.14 78.9129 175.075 79.1774 175.075 79.4541H172.805C172.813 78.974 172.935 78.502 173.171 78.0381C173.415 77.5742 173.765 77.1551 174.221 76.7808C174.668 76.4146 175.214 76.1175 175.856 75.8896C176.507 75.6618 177.244 75.5479 178.066 75.5479C178.815 75.5479 179.51 75.6414 180.153 75.8286C180.796 76.0076 181.354 76.2803 181.826 76.6465C182.29 77.0208 182.656 77.4847 182.924 78.0381C183.193 78.5915 183.327 79.2384 183.327 79.979V86.1191C183.327 86.5586 183.368 87.0265 183.449 87.5229C183.531 88.0112 183.645 88.4385 183.791 88.8047V89H181.435ZM177.443 87.2788C177.883 87.2788 178.294 87.2218 178.676 87.1079C179.059 86.994 179.409 86.8434 179.726 86.6562C180.035 86.4691 180.304 86.2575 180.532 86.0215C180.76 85.7773 180.939 85.5251 181.069 85.2646V82.5913H178.969C178.188 82.5913 177.504 82.6605 176.918 82.7988C176.341 82.929 175.881 83.1325 175.539 83.4092C175.295 83.6045 175.108 83.8364 174.978 84.105C174.855 84.3735 174.794 84.6787 174.794 85.0205C174.794 85.346 174.847 85.6471 174.953 85.9238C175.067 86.2005 175.234 86.4365 175.454 86.6318C175.673 86.8353 175.95 86.994 176.284 87.1079C176.617 87.2218 177.004 87.2788 177.443 87.2788ZM187.625 70.25H194.375V87.0469H198.684V89H187.625V87.0469H192.117V72.2153H187.625V70.25ZM202.139 75.792H208.89V87.0469H213.199V89H202.139V87.0469H206.631V77.7573H202.139V75.792ZM206.338 72.3252C206.338 72.1299 206.367 71.9468 206.424 71.7759C206.489 71.605 206.587 71.4585 206.717 71.3364C206.823 71.2306 206.957 71.1493 207.12 71.0923C207.291 71.0272 207.482 70.9946 207.693 70.9946C207.905 70.9946 208.092 71.0272 208.255 71.0923C208.418 71.1493 208.552 71.2306 208.658 71.3364C208.788 71.4504 208.886 71.5928 208.951 71.7637C209.016 71.9346 209.048 72.1217 209.048 72.3252C209.048 72.6914 208.934 72.9966 208.707 73.2407C208.479 73.4849 208.141 73.6069 207.693 73.6069C207.238 73.6069 206.896 73.4849 206.668 73.2407C206.448 72.9966 206.338 72.6914 206.338 72.3252ZM215.885 82.2861C215.885 81.3014 216.003 80.3981 216.239 79.5762C216.483 78.7461 216.833 78.034 217.289 77.4399C217.744 76.8459 218.298 76.382 218.949 76.0483C219.6 75.7147 220.336 75.5479 221.158 75.5479C221.687 75.5479 222.171 75.6089 222.611 75.731C223.058 75.853 223.461 76.0321 223.819 76.2681C224.015 76.3901 224.198 76.5326 224.369 76.6953C224.548 76.8581 224.715 77.0371 224.869 77.2324L224.979 75.792H227.03V88.7192C227.03 89.59 226.891 90.3631 226.615 91.0386C226.346 91.714 225.968 92.2878 225.479 92.7598C224.983 93.2318 224.393 93.5898 223.709 93.834C223.026 94.0781 222.269 94.2002 221.439 94.2002C221.097 94.2002 220.707 94.1595 220.267 94.0781C219.828 94.0049 219.384 93.8787 218.937 93.6997C218.481 93.5288 218.041 93.2969 217.618 93.0039C217.203 92.7109 216.845 92.3488 216.544 91.9175L217.716 90.5625C217.993 90.8962 218.277 91.1769 218.57 91.4048C218.863 91.6408 219.16 91.828 219.461 91.9663C219.763 92.1047 220.064 92.2023 220.365 92.2593C220.666 92.3244 220.967 92.3569 221.268 92.3569C221.805 92.3569 222.289 92.2796 222.721 92.125C223.152 91.9704 223.522 91.7425 223.832 91.4414C224.133 91.1484 224.365 90.7822 224.527 90.3428C224.69 89.9033 224.771 89.3988 224.771 88.8291V87.6938C224.601 87.8892 224.417 88.0682 224.222 88.231C224.035 88.3937 223.832 88.5361 223.612 88.6582C223.27 88.8454 222.892 88.9878 222.477 89.0854C222.062 89.1912 221.614 89.2441 221.134 89.2441C220.328 89.2441 219.6 89.0732 218.949 88.7314C218.298 88.3896 217.748 87.9176 217.301 87.3154C216.845 86.7132 216.495 86.0052 216.251 85.1914C216.007 84.3695 215.885 83.4865 215.885 82.5425V82.2861ZM218.143 82.5425C218.143 83.1854 218.208 83.7957 218.338 84.3735C218.477 84.9513 218.692 85.46 218.985 85.8994C219.27 86.3389 219.636 86.6888 220.084 86.9492C220.532 87.2015 221.069 87.3276 221.695 87.3276C222.086 87.3276 222.436 87.2829 222.745 87.1934C223.062 87.0957 223.347 86.9614 223.6 86.7905C223.844 86.6196 224.063 86.4162 224.259 86.1802C224.454 85.9442 224.625 85.6838 224.771 85.3989V79.3442C224.625 79.0675 224.454 78.8153 224.259 78.5874C224.063 78.3595 223.84 78.1602 223.587 77.9893C223.335 77.8265 223.054 77.7004 222.745 77.6108C222.436 77.5132 222.094 77.4644 221.72 77.4644C221.085 77.4644 220.54 77.5946 220.084 77.855C219.636 78.1154 219.27 78.4653 218.985 78.9048C218.692 79.3524 218.477 79.8691 218.338 80.4551C218.208 81.0329 218.143 81.6432 218.143 82.2861V82.5425ZM230.814 89V75.792H232.841L233 77.7451C233.195 77.4684 233.406 77.2161 233.634 76.9883C233.87 76.7523 234.118 76.5488 234.379 76.3779C234.77 76.1175 235.193 75.9181 235.648 75.7798C236.112 75.6333 236.601 75.556 237.113 75.5479C237.805 75.5479 238.432 75.6455 238.993 75.8408C239.563 76.0361 240.047 76.3413 240.446 76.7563C240.845 77.1714 241.15 77.7004 241.361 78.3433C241.581 78.978 241.691 79.7349 241.691 80.6138V89H239.433V80.6626C239.433 80.0767 239.368 79.5802 239.237 79.1733C239.107 78.7664 238.916 78.4368 238.664 78.1846C238.403 77.9323 238.086 77.7492 237.711 77.6353C237.345 77.5213 236.922 77.4644 236.442 77.4644C236.027 77.4644 235.64 77.5254 235.282 77.6475C234.924 77.7614 234.595 77.9201 234.293 78.1235C234.049 78.3026 233.821 78.5101 233.61 78.7461C233.406 78.9821 233.227 79.2425 233.073 79.5273V89H230.814ZM249.87 87.5352C249.87 87.055 250.017 86.644 250.31 86.3022C250.603 85.9604 251.046 85.7896 251.64 85.7896C252.226 85.7896 252.67 85.9604 252.971 86.3022C253.28 86.6359 253.435 87.0469 253.435 87.5352C253.435 88.0153 253.28 88.4181 252.971 88.7437C252.661 89.0692 252.218 89.2319 251.64 89.2319C251.054 89.2319 250.611 89.0692 250.31 88.7437C250.017 88.41 249.87 88.0072 249.87 87.5352ZM249.87 76.8418C249.87 76.3617 250.017 75.9507 250.31 75.6089C250.603 75.2671 251.046 75.0962 251.64 75.0962C252.226 75.0962 252.67 75.2671 252.971 75.6089C253.28 75.9425 253.435 76.3535 253.435 76.8418C253.435 77.3219 253.28 77.7248 252.971 78.0503C252.661 78.3758 252.218 78.5386 251.64 78.5386C251.054 78.5386 250.611 78.3758 250.31 78.0503C250.017 77.7166 249.87 77.3138 249.87 76.8418ZM279.986 87.4131C280.393 87.4131 280.787 87.348 281.17 87.2178C281.561 87.0876 281.906 86.9045 282.208 86.6685C282.509 86.4406 282.749 86.172 282.928 85.8628C283.115 85.5454 283.213 85.2036 283.221 84.8374H285.357C285.349 85.4233 285.194 85.9849 284.893 86.522C284.6 87.0509 284.205 87.5148 283.709 87.9136C283.213 88.3205 282.643 88.646 282 88.8901C281.357 89.1261 280.686 89.2441 279.986 89.2441C278.985 89.2441 278.11 89.0651 277.361 88.707C276.613 88.349 275.99 87.8647 275.494 87.2544C274.989 86.6522 274.611 85.9564 274.358 85.167C274.106 84.3695 273.98 83.5312 273.98 82.6523V82.1396C273.98 81.2689 274.106 80.4347 274.358 79.6372C274.611 78.8397 274.989 78.1357 275.494 77.5254C275.99 76.9232 276.613 76.443 277.361 76.085C278.11 75.7269 278.985 75.5479 279.986 75.5479C280.767 75.5479 281.483 75.674 282.134 75.9263C282.793 76.1704 283.363 76.5041 283.843 76.9272C284.315 77.3586 284.686 77.8672 284.954 78.4531C285.223 79.0391 285.357 79.6657 285.357 80.333H283.221C283.213 79.9342 283.123 79.5599 282.952 79.21C282.789 78.8519 282.566 78.5386 282.281 78.27C281.996 78.0015 281.654 77.7899 281.255 77.6353C280.865 77.4806 280.442 77.4033 279.986 77.4033C279.286 77.4033 278.696 77.5457 278.216 77.8306C277.744 78.1073 277.361 78.4694 277.068 78.917C276.775 79.3727 276.564 79.8813 276.434 80.4429C276.312 81.0044 276.25 81.57 276.25 82.1396V82.6523C276.25 83.2301 276.312 83.8039 276.434 84.3735C276.564 84.9351 276.775 85.4396 277.068 85.8872C277.353 86.3429 277.732 86.7132 278.204 86.998C278.684 87.2747 279.278 87.4131 279.986 87.4131ZM294.708 89.2441C293.78 89.2441 292.926 89.0854 292.145 88.7681C291.371 88.4507 290.708 88.0072 290.155 87.4375C289.601 86.8678 289.17 86.1924 288.861 85.4111C288.552 84.6299 288.397 83.7795 288.397 82.8599V82.3472C288.397 81.2811 288.568 80.3289 288.91 79.4907C289.251 78.6444 289.707 77.9282 290.277 77.3423C290.838 76.7645 291.477 76.321 292.193 76.0117C292.918 75.7025 293.658 75.5479 294.415 75.5479C295.367 75.5479 296.197 75.7147 296.905 76.0483C297.621 76.3739 298.215 76.8255 298.688 77.4033C299.16 77.9893 299.509 78.6769 299.737 79.4663C299.973 80.2557 300.091 81.1102 300.091 82.0298V83.043H290.655V83.1284C290.712 83.7713 290.838 84.3369 291.034 84.8252C291.237 85.3135 291.514 85.7448 291.864 86.1191C292.222 86.5179 292.653 86.8312 293.158 87.0591C293.662 87.2869 294.22 87.4009 294.83 87.4009C295.636 87.4009 296.352 87.2381 296.979 86.9126C297.605 86.5871 298.126 86.1558 298.541 85.6187L299.92 86.6929C299.481 87.3602 298.822 87.9543 297.943 88.4751C297.072 88.9878 295.994 89.2441 294.708 89.2441ZM294.415 77.4033C293.959 77.4033 293.528 77.4888 293.121 77.6597C292.714 77.8224 292.348 78.0625 292.022 78.3799C291.697 78.7054 291.42 79.1042 291.192 79.5762C290.973 80.04 290.818 80.5771 290.729 81.1875H297.833V81.0776C297.833 80.6707 297.756 80.2354 297.601 79.7715C297.446 79.2995 297.231 78.8926 296.954 78.5508C296.677 78.209 296.327 77.9323 295.904 77.7207C295.489 77.5091 294.993 77.4033 294.415 77.4033ZM303.388 89V75.792H305.414L305.573 77.7451C305.768 77.4684 305.98 77.2161 306.208 76.9883C306.444 76.7523 306.692 76.5488 306.952 76.3779C307.343 76.1175 307.766 75.9181 308.222 75.7798C308.686 75.6333 309.174 75.556 309.687 75.5479C310.378 75.5479 311.005 75.6455 311.566 75.8408C312.136 76.0361 312.62 76.3413 313.019 76.7563C313.418 77.1714 313.723 77.7004 313.935 78.3433C314.154 78.978 314.264 79.7349 314.264 80.6138V89H312.006V80.6626C312.006 80.0767 311.941 79.5802 311.811 79.1733C311.68 78.7664 311.489 78.4368 311.237 78.1846C310.976 77.9323 310.659 77.7492 310.285 77.6353C309.918 77.5213 309.495 77.4644 309.015 77.4644C308.6 77.4644 308.214 77.5254 307.855 77.6475C307.497 77.7614 307.168 77.9201 306.867 78.1235C306.623 78.3026 306.395 78.5101 306.183 78.7461C305.98 78.9821 305.801 79.2425 305.646 79.5273V89H303.388ZM323.249 72.5938V75.792H328.278V77.5376H323.249V84.7153C323.249 85.228 323.314 85.6512 323.444 85.9849C323.575 86.3185 323.754 86.583 323.981 86.7783C324.209 86.9818 324.47 87.1242 324.763 87.2056C325.064 87.2869 325.381 87.3276 325.715 87.3276C325.959 87.3276 326.211 87.3154 326.472 87.291C326.732 87.2585 326.988 87.2218 327.241 87.1812C327.485 87.1405 327.713 87.0998 327.924 87.0591C328.144 87.0103 328.323 86.9696 328.461 86.937L328.779 88.5361C328.592 88.6501 328.364 88.7518 328.095 88.8413C327.827 88.9227 327.534 88.9919 327.216 89.0488C326.899 89.1139 326.561 89.1628 326.203 89.1953C325.853 89.2279 325.503 89.2441 325.153 89.2441C324.567 89.2441 324.018 89.1628 323.505 89C323.001 88.8291 322.561 88.5605 322.187 88.1943C321.813 87.8363 321.516 87.3724 321.296 86.8027C321.084 86.2249 320.979 85.5291 320.979 84.7153V77.5376H317.512V75.792H320.979V72.5938H323.249ZM338.252 89.2441C337.324 89.2441 336.47 89.0854 335.688 88.7681C334.915 88.4507 334.252 88.0072 333.699 87.4375C333.145 86.8678 332.714 86.1924 332.405 85.4111C332.096 84.6299 331.941 83.7795 331.941 82.8599V82.3472C331.941 81.2811 332.112 80.3289 332.454 79.4907C332.795 78.6444 333.251 77.9282 333.821 77.3423C334.382 76.7645 335.021 76.321 335.737 76.0117C336.462 75.7025 337.202 75.5479 337.959 75.5479C338.911 75.5479 339.741 75.7147 340.449 76.0483C341.165 76.3739 341.759 76.8255 342.231 77.4033C342.703 77.9893 343.053 78.6769 343.281 79.4663C343.517 80.2557 343.635 81.1102 343.635 82.0298V83.043H334.199V83.1284C334.256 83.7713 334.382 84.3369 334.578 84.8252C334.781 85.3135 335.058 85.7448 335.408 86.1191C335.766 86.5179 336.197 86.8312 336.702 87.0591C337.206 87.2869 337.764 87.4009 338.374 87.4009C339.18 87.4009 339.896 87.2381 340.522 86.9126C341.149 86.5871 341.67 86.1558 342.085 85.6187L343.464 86.6929C343.025 87.3602 342.366 87.9543 341.487 88.4751C340.616 88.9878 339.538 89.2441 338.252 89.2441ZM337.959 77.4033C337.503 77.4033 337.072 77.4888 336.665 77.6597C336.258 77.8224 335.892 78.0625 335.566 78.3799C335.241 78.7054 334.964 79.1042 334.736 79.5762C334.517 80.04 334.362 80.5771 334.272 81.1875H341.377V81.0776C341.377 80.6707 341.3 80.2354 341.145 79.7715C340.99 79.2995 340.775 78.8926 340.498 78.5508C340.221 78.209 339.871 77.9323 339.448 77.7207C339.033 77.5091 338.537 77.4033 337.959 77.4033ZM355.586 75.5479C356.001 75.5479 356.433 75.5763 356.88 75.6333C357.336 75.6903 357.678 75.7676 357.906 75.8652L357.601 78.0747C357.161 77.9771 356.742 77.9079 356.343 77.8672C355.953 77.8184 355.542 77.7939 355.11 77.7939C354.557 77.7939 354.056 77.8631 353.609 78.0015C353.161 78.1317 352.771 78.327 352.437 78.5874C352.136 78.8153 351.871 79.096 351.644 79.4297C351.424 79.7552 351.241 80.1214 351.094 80.5283V89H348.824V75.792H350.972L351.07 77.562L351.082 77.8916C351.619 77.1673 352.262 76.5977 353.011 76.1826C353.768 75.7594 354.626 75.5479 355.586 75.5479ZM365.877 76.8418C365.877 76.3617 366.024 75.9507 366.317 75.6089C366.61 75.2671 367.053 75.0962 367.647 75.0962C368.233 75.0962 368.677 75.2671 368.978 75.6089C369.287 75.9425 369.442 76.3535 369.442 76.8418C369.442 77.3219 369.287 77.7248 368.978 78.0503C368.669 78.3758 368.225 78.5386 367.647 78.5386C367.062 78.5386 366.618 78.3758 366.317 78.0503C366.024 77.7166 365.877 77.3138 365.877 76.8418ZM368.783 88.4751C368.783 89.2889 368.591 90.119 368.209 90.9653C367.826 91.8117 367.31 92.5238 366.659 93.1016L365.255 92.3325C365.646 91.7629 365.922 91.1566 366.085 90.5137C366.248 89.8708 366.329 89.2035 366.329 88.5117V86.3267H368.783V88.4751ZM43.9429 125.064C44.4393 125.048 44.8543 124.909 45.188 124.649C45.5216 124.389 45.7902 124.055 45.9937 123.648C46.189 123.249 46.3273 122.798 46.4087 122.293C46.4982 121.797 46.543 121.296 46.543 120.792V118.729C46.543 118.086 46.6366 117.492 46.8237 116.946C47.019 116.401 47.3161 115.929 47.7148 115.53C47.9264 115.319 48.1624 115.127 48.4229 114.957C48.6914 114.786 48.9844 114.635 49.3018 114.505C48.9762 114.375 48.6751 114.22 48.3984 114.041C48.1299 113.862 47.8939 113.663 47.6904 113.443C47.2998 113.036 47.0109 112.564 46.8237 112.027C46.6366 111.482 46.543 110.892 46.543 110.257V108.182C46.543 107.685 46.5145 107.185 46.4575 106.68C46.4087 106.176 46.2988 105.72 46.1279 105.313C45.9489 104.914 45.6885 104.585 45.3467 104.324C45.0049 104.064 44.541 103.925 43.9551 103.909L44.1992 102.505C44.9886 102.53 45.6641 102.697 46.2256 103.006C46.7952 103.315 47.2632 103.718 47.6294 104.214C48.0444 104.776 48.3415 105.407 48.5205 106.106C48.7077 106.806 48.8013 107.498 48.8013 108.182V110.257C48.8013 110.745 48.846 111.176 48.9355 111.551C49.0332 111.917 49.1756 112.234 49.3628 112.503C49.6313 112.885 50.0016 113.166 50.4736 113.345C50.9538 113.516 51.5275 113.602 52.1948 113.602V115.372C51.6089 115.38 51.0962 115.453 50.6567 115.591C50.2254 115.722 49.8714 115.929 49.5947 116.214C49.3262 116.491 49.1268 116.836 48.9966 117.251C48.8664 117.667 48.8013 118.159 48.8013 118.729V120.792C48.8013 121.443 48.7118 122.098 48.5327 122.757C48.3537 123.424 48.077 124.03 47.7026 124.576C47.3201 125.121 46.84 125.569 46.2622 125.918C45.6844 126.268 44.9967 126.451 44.1992 126.468L43.9429 125.064Z" fill="white"/>
</svg>
