<svg width="1399" height="182" viewBox="0 0 1399 182" fill="none" xmlns="http://www.w3.org/2000/svg">
<rect width="1399" height="182" rx="20" fill="#0066FF" fill-opacity="0.2"/>
<rect x="1.5" y="1.5" width="1396" height="179" rx="18.5" stroke="#0066FF" stroke-opacity="0.5" stroke-width="3"/>
<path d="M52.4268 48.6074L42.0752 43.981V42.1987L52.4268 37.5845V39.9771L44.9561 42.9067L44.3091 43.1143L44.9561 43.334L52.4268 46.2148V48.6074ZM100.231 48.5952V46.2515L108.129 43.2729L108.862 43.0654L108.129 42.8335L100.231 39.9038V37.5723L111.01 42.1865V43.9688L100.231 48.5952ZM81.4561 81.6074L71.1045 76.981V75.1987L81.4561 70.5845V72.9771L73.9854 75.9067L73.3384 76.1143L73.9854 76.334L81.4561 79.2148V81.6074ZM152.503 80.4966C152.503 80.228 152.451 79.988 152.345 79.7764C152.239 79.5566 152.06 79.3573 151.808 79.1782C151.555 78.9992 151.222 78.8364 150.807 78.6899C150.392 78.5353 149.875 78.397 149.256 78.2749C148.5 78.1203 147.808 77.9331 147.181 77.7134C146.563 77.4937 146.034 77.2292 145.594 76.9199C145.147 76.6188 144.801 76.2648 144.557 75.8579C144.312 75.4429 144.19 74.9627 144.19 74.4175C144.19 73.8804 144.317 73.3799 144.569 72.916C144.821 72.444 145.175 72.033 145.631 71.6831C146.087 71.3332 146.628 71.0565 147.254 70.853C147.889 70.6496 148.585 70.5479 149.342 70.5479C150.156 70.5479 150.888 70.6536 151.539 70.8652C152.19 71.0768 152.743 71.3698 153.199 71.7441C153.655 72.1185 154.005 72.5579 154.249 73.0625C154.501 73.5589 154.627 74.096 154.627 74.6738H152.369C152.369 74.389 152.296 74.1123 152.149 73.8438C152.003 73.5671 151.799 73.3229 151.539 73.1113C151.279 72.8997 150.961 72.7288 150.587 72.5986C150.221 72.4684 149.806 72.4033 149.342 72.4033C148.862 72.4033 148.438 72.4562 148.072 72.562C147.714 72.6678 147.417 72.8102 147.181 72.9893C146.937 73.1683 146.754 73.3758 146.632 73.6118C146.51 73.8478 146.449 74.092 146.449 74.3442C146.449 74.6047 146.498 74.8366 146.595 75.04C146.693 75.2435 146.864 75.4266 147.108 75.5894C147.344 75.7521 147.661 75.8986 148.06 76.0288C148.467 76.159 148.98 76.2852 149.598 76.4072C150.412 76.5781 151.14 76.7775 151.783 77.0054C152.426 77.2251 152.967 77.4896 153.407 77.7988C153.846 78.1162 154.18 78.4824 154.408 78.8975C154.644 79.3125 154.762 79.7926 154.762 80.3379C154.762 80.9238 154.627 81.4569 154.359 81.937C154.098 82.4172 153.732 82.8281 153.26 83.1699C152.788 83.5117 152.223 83.7762 151.563 83.9634C150.904 84.1506 150.184 84.2441 149.403 84.2441C148.508 84.2441 147.71 84.1261 147.01 83.8901C146.31 83.646 145.72 83.3245 145.24 82.9258C144.752 82.5352 144.378 82.0794 144.117 81.5586C143.865 81.0378 143.739 80.4966 143.739 79.9351H145.997C146.03 80.3989 146.152 80.7896 146.363 81.1069C146.583 81.4243 146.856 81.6807 147.181 81.876C147.499 82.0713 147.853 82.2096 148.243 82.291C148.634 82.3724 149.02 82.4131 149.403 82.4131C150.005 82.4131 150.53 82.3439 150.978 82.2056C151.425 82.0591 151.775 81.8597 152.027 81.6074C152.182 81.4528 152.3 81.2819 152.381 81.0947C152.463 80.9076 152.503 80.7082 152.503 80.4966ZM166.896 70.5479C167.311 70.5479 167.742 70.5763 168.19 70.6333C168.646 70.6903 168.987 70.7676 169.215 70.8652L168.91 73.0747C168.471 72.9771 168.052 72.9079 167.653 72.8672C167.262 72.8184 166.851 72.7939 166.42 72.7939C165.867 72.7939 165.366 72.8631 164.918 73.0015C164.471 73.1317 164.08 73.327 163.747 73.5874C163.445 73.8153 163.181 74.096 162.953 74.4297C162.733 74.7552 162.55 75.1214 162.404 75.5283V84H160.133V70.792H162.282L162.379 72.562L162.392 72.8916C162.929 72.1673 163.572 71.5977 164.32 71.1826C165.077 70.7594 165.936 70.5479 166.896 70.5479ZM178.383 82.4131C178.79 82.4131 179.185 82.348 179.567 82.2178C179.958 82.0876 180.304 81.9045 180.605 81.6685C180.906 81.4406 181.146 81.172 181.325 80.8628C181.512 80.5454 181.61 80.2036 181.618 79.8374H183.754C183.746 80.4233 183.592 80.9849 183.291 81.522C182.998 82.0509 182.603 82.5148 182.106 82.9136C181.61 83.3205 181.04 83.646 180.397 83.8901C179.755 84.1261 179.083 84.2441 178.383 84.2441C177.382 84.2441 176.507 84.0651 175.759 83.707C175.01 83.349 174.388 82.8647 173.891 82.2544C173.387 81.6522 173.008 80.9564 172.756 80.167C172.504 79.3695 172.377 78.5312 172.377 77.6523V77.1396C172.377 76.2689 172.504 75.4347 172.756 74.6372C173.008 73.8397 173.387 73.1357 173.891 72.5254C174.388 71.9232 175.01 71.443 175.759 71.085C176.507 70.7269 177.382 70.5479 178.383 70.5479C179.165 70.5479 179.881 70.674 180.532 70.9263C181.191 71.1704 181.761 71.5041 182.241 71.9272C182.713 72.3586 183.083 72.8672 183.352 73.4531C183.62 74.0391 183.754 74.6657 183.754 75.333H181.618C181.61 74.9342 181.521 74.5599 181.35 74.21C181.187 73.8519 180.963 73.5386 180.678 73.27C180.393 73.0015 180.052 72.7899 179.653 72.6353C179.262 72.4806 178.839 72.4033 178.383 72.4033C177.683 72.4033 177.093 72.5457 176.613 72.8306C176.141 73.1073 175.759 73.4694 175.466 73.917C175.173 74.3727 174.961 74.8813 174.831 75.4429C174.709 76.0044 174.648 76.57 174.648 77.1396V77.6523C174.648 78.2301 174.709 78.8039 174.831 79.3735C174.961 79.9351 175.173 80.4396 175.466 80.8872C175.751 81.3429 176.129 81.7132 176.601 81.998C177.081 82.2747 177.675 82.4131 178.383 82.4131ZM198.159 74.4785H187.258V72.5132H198.159V74.4785ZM198.159 79.5444H187.258V77.5913H198.159V79.5444ZM205.826 66.5806L205.569 71.0972H203.982L203.995 66.7759V65.25H205.826V66.5806ZM210.184 66.5806L209.927 71.0972H208.353L208.365 66.7759V65.25H210.196L210.184 66.5806ZM216.654 70.792H223.404V82.0469H227.713V84H216.654V82.0469H221.146V72.7573H216.654V70.792ZM220.853 67.3252C220.853 67.1299 220.882 66.9468 220.938 66.7759C221.004 66.605 221.101 66.4585 221.231 66.3364C221.337 66.2306 221.472 66.1493 221.634 66.0923C221.805 66.0272 221.996 65.9946 222.208 65.9946C222.42 65.9946 222.607 66.0272 222.77 66.0923C222.932 66.1493 223.067 66.2306 223.172 66.3364C223.303 66.4504 223.4 66.5928 223.465 66.7637C223.53 66.9346 223.563 67.1217 223.563 67.3252C223.563 67.6914 223.449 67.9966 223.221 68.2407C222.993 68.4849 222.656 68.6069 222.208 68.6069C221.752 68.6069 221.41 68.4849 221.183 68.2407C220.963 67.9966 220.853 67.6914 220.853 67.3252ZM231.852 70.792L231.913 72.0371C232.182 71.5732 232.532 71.2111 232.963 70.9507C233.402 70.6903 233.931 70.556 234.55 70.5479C234.9 70.5479 235.213 70.5885 235.49 70.6699C235.775 70.7432 236.023 70.853 236.234 70.9995C236.389 71.1134 236.527 71.2518 236.649 71.4146C236.78 71.5773 236.889 71.7604 236.979 71.9639C237.093 71.7767 237.227 71.6017 237.382 71.439C237.536 71.2762 237.703 71.1338 237.882 71.0117C238.11 70.8734 238.362 70.7635 238.639 70.6821C238.924 70.6007 239.233 70.556 239.567 70.5479C240.023 70.5479 240.434 70.617 240.8 70.7554C241.166 70.8856 241.475 71.0809 241.728 71.3413C242.004 71.6343 242.216 72.0168 242.362 72.4888C242.509 72.9526 242.582 73.502 242.582 74.1367V84H240.434V74.1123C240.434 73.8356 240.401 73.5915 240.336 73.3799C240.271 73.1683 240.177 72.9933 240.055 72.855C239.925 72.7248 239.762 72.6271 239.567 72.562C239.38 72.4969 239.16 72.4644 238.908 72.4644C238.639 72.4644 238.407 72.501 238.212 72.5742C238.017 72.6475 237.854 72.7451 237.724 72.8672C237.593 72.9974 237.492 73.1479 237.418 73.3188C237.345 73.4816 237.296 73.6647 237.272 73.8682C237.272 73.9089 237.272 73.9495 237.272 73.9902C237.272 74.0228 237.272 74.0635 237.272 74.1123V84H235.124V74.1001C235.124 73.8234 235.091 73.5793 235.026 73.3677C234.969 73.1561 234.875 72.9811 234.745 72.8428C234.623 72.7126 234.468 72.619 234.281 72.562C234.102 72.4969 233.891 72.4644 233.646 72.4644C233.378 72.4644 233.142 72.4969 232.938 72.562C232.743 72.619 232.576 72.7044 232.438 72.8184C232.332 72.9079 232.239 73.0096 232.157 73.1235C232.084 73.2375 232.023 73.3595 231.974 73.4897V84H229.826V70.792H231.852ZM244.914 77.2861C244.914 76.3014 245.032 75.3981 245.268 74.5762C245.512 73.7461 245.862 73.034 246.318 72.4399C246.774 71.8459 247.327 71.382 247.978 71.0483C248.629 70.7147 249.366 70.5479 250.188 70.5479C250.716 70.5479 251.201 70.6089 251.64 70.731C252.088 70.853 252.491 71.0321 252.849 71.2681C253.044 71.3901 253.227 71.5326 253.398 71.6953C253.577 71.8581 253.744 72.0371 253.898 72.2324L254.008 70.792H256.059V83.7192C256.059 84.59 255.921 85.3631 255.644 86.0386C255.375 86.714 254.997 87.2878 254.509 87.7598C254.012 88.2318 253.422 88.5898 252.739 88.834C252.055 89.0781 251.298 89.2002 250.468 89.2002C250.126 89.2002 249.736 89.1595 249.296 89.0781C248.857 89.0049 248.413 88.8787 247.966 88.6997C247.51 88.5288 247.071 88.2969 246.647 88.0039C246.232 87.7109 245.874 87.3488 245.573 86.9175L246.745 85.5625C247.022 85.8962 247.307 86.1769 247.6 86.4048C247.893 86.6408 248.19 86.828 248.491 86.9663C248.792 87.1047 249.093 87.2023 249.394 87.2593C249.695 87.3244 249.996 87.3569 250.297 87.3569C250.834 87.3569 251.319 87.2796 251.75 87.125C252.181 86.9704 252.552 86.7425 252.861 86.4414C253.162 86.1484 253.394 85.7822 253.557 85.3428C253.719 84.9033 253.801 84.3988 253.801 83.8291V82.6938C253.63 82.8892 253.447 83.0682 253.251 83.231C253.064 83.3937 252.861 83.5361 252.641 83.6582C252.299 83.8454 251.921 83.9878 251.506 84.0854C251.091 84.1912 250.643 84.2441 250.163 84.2441C249.357 84.2441 248.629 84.0732 247.978 83.7314C247.327 83.3896 246.778 82.9176 246.33 82.3154C245.874 81.7132 245.524 81.0052 245.28 80.1914C245.036 79.3695 244.914 78.4865 244.914 77.5425V77.2861ZM247.172 77.5425C247.172 78.1854 247.237 78.7957 247.368 79.3735C247.506 79.9513 247.722 80.46 248.015 80.8994C248.299 81.3389 248.666 81.6888 249.113 81.9492C249.561 82.2015 250.098 82.3276 250.725 82.3276C251.115 82.3276 251.465 82.2829 251.774 82.1934C252.092 82.0957 252.377 81.9614 252.629 81.7905C252.873 81.6196 253.093 81.4162 253.288 81.1802C253.483 80.9442 253.654 80.6838 253.801 80.3989V74.3442C253.654 74.0675 253.483 73.8153 253.288 73.5874C253.093 73.3595 252.869 73.1602 252.617 72.9893C252.364 72.8265 252.084 72.7004 251.774 72.6108C251.465 72.5132 251.123 72.4644 250.749 72.4644C250.114 72.4644 249.569 72.5946 249.113 72.855C248.666 73.1154 248.299 73.4653 248.015 73.9048C247.722 74.3524 247.506 74.8691 247.368 75.4551C247.237 76.0329 247.172 76.6432 247.172 77.2861V77.5425ZM262.822 85.5259H260.796L268.218 66.2266H270.232L262.822 85.5259ZM274.712 65.25H281.463V82.0469H285.772V84H274.712V82.0469H279.205V67.2153H274.712V65.25ZM294.708 84.2441C293.78 84.2441 292.926 84.0854 292.145 83.7681C291.371 83.4507 290.708 83.0072 290.155 82.4375C289.601 81.8678 289.17 81.1924 288.861 80.4111C288.552 79.6299 288.397 78.7795 288.397 77.8599V77.3472C288.397 76.2811 288.568 75.3289 288.91 74.4907C289.251 73.6444 289.707 72.9282 290.277 72.3423C290.838 71.7645 291.477 71.321 292.193 71.0117C292.918 70.7025 293.658 70.5479 294.415 70.5479C295.367 70.5479 296.197 70.7147 296.905 71.0483C297.621 71.3739 298.215 71.8255 298.688 72.4033C299.16 72.9893 299.509 73.6769 299.737 74.4663C299.973 75.2557 300.091 76.1102 300.091 77.0298V78.043H290.655V78.1284C290.712 78.7713 290.838 79.3369 291.034 79.8252C291.237 80.3135 291.514 80.7448 291.864 81.1191C292.222 81.5179 292.653 81.8312 293.158 82.0591C293.662 82.2869 294.22 82.4009 294.83 82.4009C295.636 82.4009 296.352 82.2381 296.979 81.9126C297.605 81.5871 298.126 81.1558 298.541 80.6187L299.92 81.6929C299.481 82.3602 298.822 82.9543 297.943 83.4751C297.072 83.9878 295.994 84.2441 294.708 84.2441ZM294.415 72.4033C293.959 72.4033 293.528 72.4888 293.121 72.6597C292.714 72.8224 292.348 73.0625 292.022 73.3799C291.697 73.7054 291.42 74.1042 291.192 74.5762C290.973 75.04 290.818 75.5771 290.729 76.1875H297.833V76.0776C297.833 75.6707 297.756 75.2354 297.601 74.7715C297.446 74.2995 297.231 73.8926 296.954 73.5508C296.677 73.209 296.327 72.9323 295.904 72.7207C295.489 72.5091 294.993 72.4033 294.415 72.4033ZM302.753 77.2739C302.753 76.3218 302.891 75.4388 303.168 74.625C303.445 73.8031 303.843 73.091 304.364 72.4888C304.877 71.8866 305.504 71.4146 306.244 71.0728C306.985 70.7228 307.819 70.5479 308.747 70.5479C309.682 70.5479 310.521 70.7228 311.261 71.0728C312.01 71.4146 312.645 71.8866 313.166 72.4888C313.678 73.091 314.073 73.8031 314.35 74.625C314.626 75.4388 314.765 76.3218 314.765 77.2739V77.5425C314.765 78.4946 314.626 79.3776 314.35 80.1914C314.073 81.0052 313.678 81.7132 313.166 82.3154C312.645 82.9176 312.014 83.3896 311.273 83.7314C310.533 84.0732 309.699 84.2441 308.771 84.2441C307.835 84.2441 306.993 84.0732 306.244 83.7314C305.504 83.3896 304.877 82.9176 304.364 82.3154C303.843 81.7132 303.445 81.0052 303.168 80.1914C302.891 79.3776 302.753 78.4946 302.753 77.5425V77.2739ZM305.011 77.5425C305.011 78.1935 305.089 78.8161 305.243 79.4102C305.398 79.9961 305.634 80.5129 305.951 80.9604C306.26 81.408 306.651 81.762 307.123 82.0225C307.595 82.2829 308.144 82.4131 308.771 82.4131C309.389 82.4131 309.931 82.2829 310.395 82.0225C310.867 81.762 311.261 81.408 311.579 80.9604C311.888 80.5129 312.12 79.9961 312.274 79.4102C312.429 78.8161 312.506 78.1935 312.506 77.5425V77.2739C312.506 76.631 312.425 76.0166 312.262 75.4307C312.108 74.8366 311.876 74.3158 311.566 73.8682C311.249 73.4206 310.854 73.0666 310.382 72.8062C309.918 72.5376 309.373 72.4033 308.747 72.4033C308.12 72.4033 307.575 72.5376 307.111 72.8062C306.647 73.0666 306.26 73.4206 305.951 73.8682C305.634 74.3158 305.398 74.8366 305.243 75.4307C305.089 76.0166 305.011 76.631 305.011 77.2739V77.5425ZM317.89 89.0781V70.792H319.953L320.063 72.2324C320.242 72.0046 320.437 71.8011 320.649 71.6221C320.861 71.4349 321.088 71.2762 321.333 71.146C321.674 70.9507 322.053 70.8042 322.468 70.7065C322.891 70.6007 323.343 70.5479 323.823 70.5479C324.669 70.5479 325.418 70.7147 326.069 71.0483C326.72 71.382 327.265 71.8459 327.705 72.4399C328.144 73.034 328.478 73.7461 328.706 74.5762C328.933 75.3981 329.047 76.3014 329.047 77.2861V77.5425C329.047 78.4865 328.933 79.3695 328.706 80.1914C328.478 81.0052 328.144 81.7132 327.705 82.3154C327.265 82.9176 326.72 83.3896 326.069 83.7314C325.426 84.0732 324.689 84.2441 323.859 84.2441C323.355 84.2441 322.883 84.1912 322.443 84.0854C322.012 83.9797 321.621 83.8291 321.271 83.6338C321.06 83.5117 320.861 83.3774 320.673 83.231C320.486 83.0763 320.311 82.9095 320.148 82.7305V89.0781H317.89ZM326.789 77.2861C326.789 76.6432 326.716 76.0329 326.569 75.4551C326.431 74.8691 326.215 74.3524 325.922 73.9048C325.621 73.4653 325.243 73.1154 324.787 72.855C324.331 72.5946 323.786 72.4644 323.151 72.4644C322.801 72.4644 322.476 72.505 322.175 72.5864C321.882 72.6678 321.617 72.7858 321.381 72.9404C321.121 73.0951 320.889 73.2863 320.686 73.5142C320.482 73.742 320.303 73.9943 320.148 74.271V80.6309C320.287 80.875 320.445 81.1029 320.625 81.3145C320.804 81.526 321.007 81.7051 321.235 81.8516C321.495 82.0225 321.784 82.1567 322.102 82.2544C322.427 82.3521 322.785 82.4009 323.176 82.4009C323.802 82.4009 324.344 82.2707 324.799 82.0103C325.255 81.7417 325.629 81.3836 325.922 80.936C326.215 80.4884 326.431 79.9717 326.569 79.3857C326.716 78.7998 326.789 78.1854 326.789 77.5425V77.2861ZM341.096 84C341.007 83.8291 340.933 83.6175 340.876 83.3652C340.828 83.1048 340.791 82.8363 340.767 82.5596C340.539 82.7874 340.282 83.0031 339.998 83.2065C339.721 83.41 339.416 83.589 339.082 83.7437C338.74 83.8983 338.378 84.0203 337.996 84.1099C337.613 84.1994 337.206 84.2441 336.775 84.2441C336.075 84.2441 335.44 84.1424 334.871 83.939C334.309 83.7355 333.833 83.4588 333.442 83.1089C333.044 82.7671 332.734 82.3602 332.515 81.8882C332.303 81.408 332.197 80.8913 332.197 80.3379C332.197 79.6136 332.34 78.9788 332.625 78.4336C332.917 77.8883 333.328 77.4326 333.857 77.0664C334.386 76.7083 335.021 76.4398 335.762 76.2607C336.51 76.0817 337.345 75.9922 338.264 75.9922H340.73V74.9546C340.73 74.5558 340.657 74.1978 340.51 73.8804C340.364 73.563 340.156 73.2904 339.888 73.0625C339.619 72.8428 339.29 72.6719 338.899 72.5498C338.516 72.4277 338.085 72.3667 337.605 72.3667C337.157 72.3667 336.755 72.4237 336.396 72.5376C336.047 72.6515 335.75 72.8021 335.505 72.9893C335.261 73.1764 335.07 73.4002 334.932 73.6606C334.801 73.9129 334.736 74.1774 334.736 74.4541H332.466C332.474 73.974 332.596 73.502 332.832 73.0381C333.076 72.5742 333.426 72.1551 333.882 71.7808C334.329 71.4146 334.875 71.1175 335.518 70.8896C336.169 70.6618 336.905 70.5479 337.727 70.5479C338.476 70.5479 339.172 70.6414 339.814 70.8286C340.457 71.0076 341.015 71.2803 341.487 71.6465C341.951 72.0208 342.317 72.4847 342.585 73.0381C342.854 73.5915 342.988 74.2384 342.988 74.979V81.1191C342.988 81.5586 343.029 82.0265 343.11 82.5229C343.192 83.0112 343.306 83.4385 343.452 83.8047V84H341.096ZM337.104 82.2788C337.544 82.2788 337.955 82.2218 338.337 82.1079C338.72 81.994 339.07 81.8434 339.387 81.6562C339.696 81.4691 339.965 81.2575 340.193 81.0215C340.421 80.7773 340.6 80.5251 340.73 80.2646V77.5913H338.63C337.849 77.5913 337.166 77.6605 336.58 77.7988C336.002 77.929 335.542 78.1325 335.2 78.4092C334.956 78.6045 334.769 78.8364 334.639 79.105C334.517 79.3735 334.456 79.6787 334.456 80.0205C334.456 80.346 334.508 80.6471 334.614 80.9238C334.728 81.2005 334.895 81.4365 335.115 81.6318C335.334 81.8353 335.611 81.994 335.945 82.1079C336.278 82.2218 336.665 82.2788 337.104 82.2788ZM355.586 70.5479C356.001 70.5479 356.433 70.5763 356.88 70.6333C357.336 70.6903 357.678 70.7676 357.906 70.8652L357.601 73.0747C357.161 72.9771 356.742 72.9079 356.343 72.8672C355.953 72.8184 355.542 72.7939 355.11 72.7939C354.557 72.7939 354.056 72.8631 353.609 73.0015C353.161 73.1317 352.771 73.327 352.437 73.5874C352.136 73.8153 351.871 74.096 351.644 74.4297C351.424 74.7552 351.241 75.1214 351.094 75.5283V84H348.824V70.792H350.972L351.07 72.562L351.082 72.8916C351.619 72.1673 352.262 71.5977 353.011 71.1826C353.768 70.7594 354.626 70.5479 355.586 70.5479ZM361.019 77.2861C361.019 76.3014 361.141 75.3981 361.385 74.5762C361.638 73.7461 361.996 73.034 362.459 72.4399C362.915 71.8459 363.469 71.382 364.12 71.0483C364.771 70.7147 365.499 70.5479 366.305 70.5479C367.094 70.5479 367.782 70.6821 368.368 70.9507C368.962 71.2111 369.474 71.5936 369.906 72.0981V65.25H372.164V84H370.089L369.991 82.6084C369.552 83.1455 369.027 83.5524 368.417 83.8291C367.806 84.1058 367.094 84.2441 366.28 84.2441C365.483 84.2441 364.758 84.0732 364.107 83.7314C363.465 83.3896 362.915 82.9176 362.459 82.3154C362.004 81.7132 361.65 81.0052 361.397 80.1914C361.145 79.3695 361.019 78.4865 361.019 77.5425V77.2861ZM363.277 77.5425C363.277 78.1854 363.347 78.7957 363.485 79.3735C363.623 79.9513 363.839 80.46 364.132 80.8994C364.417 81.3389 364.783 81.6888 365.23 81.9492C365.678 82.2015 366.215 82.3276 366.842 82.3276C367.599 82.3276 368.225 82.1567 368.722 81.8149C369.218 81.4731 369.613 81.0133 369.906 80.4355V74.3076C369.613 73.7705 369.218 73.3311 368.722 72.9893C368.225 72.6393 367.607 72.4644 366.866 72.4644C366.231 72.4644 365.686 72.5946 365.23 72.855C364.783 73.1154 364.417 73.4653 364.132 73.9048C363.839 74.3524 363.623 74.8691 363.485 75.4551C363.347 76.0329 363.277 76.6432 363.277 77.2861V77.5425ZM379.892 82.5352C379.892 82.055 380.038 81.644 380.331 81.3022C380.624 80.9604 381.068 80.7896 381.662 80.7896C382.248 80.7896 382.691 80.9604 382.992 81.3022C383.301 81.6359 383.456 82.0469 383.456 82.5352C383.456 83.0153 383.301 83.4181 382.992 83.7437C382.683 84.0692 382.239 84.2319 381.662 84.2319C381.076 84.2319 380.632 84.0692 380.331 83.7437C380.038 83.41 379.892 83.0072 379.892 82.5352ZM392.001 70.792H398.667V84.0854C398.667 84.9318 398.549 85.6805 398.312 86.3315C398.085 86.9826 397.751 87.5278 397.312 87.9673C396.864 88.4149 396.319 88.7526 395.676 88.9805C395.041 89.2165 394.317 89.3345 393.503 89.3345C393.251 89.3345 393.007 89.3304 392.771 89.3223C392.535 89.3141 392.303 89.3019 392.075 89.2856C391.888 89.2694 391.7 89.245 391.513 89.2124C391.326 89.188 391.131 89.1595 390.927 89.127L391.086 87.2715C391.224 87.2959 391.399 87.3162 391.611 87.3325C391.822 87.3569 392.038 87.3732 392.258 87.3813C392.469 87.3976 392.673 87.4058 392.868 87.4058C393.072 87.4139 393.23 87.418 393.344 87.418C393.767 87.418 394.166 87.361 394.541 87.2471C394.915 87.1413 395.24 86.9582 395.517 86.6978C395.794 86.4373 396.009 86.0915 396.164 85.6602C396.327 85.237 396.408 84.7121 396.408 84.0854V72.7573H392.001V70.792ZM396.091 67.313C396.091 66.9468 396.201 66.6375 396.42 66.3853C396.64 66.1248 396.978 65.9946 397.434 65.9946C397.889 65.9946 398.231 66.1248 398.459 66.3853C398.687 66.6375 398.801 66.9468 398.801 67.313C398.801 67.6792 398.687 67.9884 398.459 68.2407C398.231 68.4849 397.889 68.6069 397.434 68.6069C396.978 68.6069 396.64 68.4849 396.42 68.2407C396.201 67.9884 396.091 67.6792 396.091 67.313ZM404.978 89.0781V70.792H407.041L407.151 72.2324C407.33 72.0046 407.525 71.8011 407.737 71.6221C407.948 71.4349 408.176 71.2762 408.42 71.146C408.762 70.9507 409.141 70.8042 409.556 70.7065C409.979 70.6007 410.431 70.5479 410.911 70.5479C411.757 70.5479 412.506 70.7147 413.157 71.0483C413.808 71.382 414.353 71.8459 414.792 72.4399C415.232 73.034 415.566 73.7461 415.793 74.5762C416.021 75.3981 416.135 76.3014 416.135 77.2861V77.5425C416.135 78.4865 416.021 79.3695 415.793 80.1914C415.566 81.0052 415.232 81.7132 414.792 82.3154C414.353 82.9176 413.808 83.3896 413.157 83.7314C412.514 84.0732 411.777 84.2441 410.947 84.2441C410.443 84.2441 409.971 84.1912 409.531 84.0854C409.1 83.9797 408.709 83.8291 408.359 83.6338C408.148 83.5117 407.948 83.3774 407.761 83.231C407.574 83.0763 407.399 82.9095 407.236 82.7305V89.0781H404.978ZM413.877 77.2861C413.877 76.6432 413.804 76.0329 413.657 75.4551C413.519 74.8691 413.303 74.3524 413.01 73.9048C412.709 73.4653 412.331 73.1154 411.875 72.855C411.419 72.5946 410.874 72.4644 410.239 72.4644C409.889 72.4644 409.564 72.505 409.263 72.5864C408.97 72.6678 408.705 72.7858 408.469 72.9404C408.209 73.0951 407.977 73.2863 407.773 73.5142C407.57 73.742 407.391 73.9943 407.236 74.271V80.6309C407.375 80.875 407.533 81.1029 407.712 81.3145C407.891 81.526 408.095 81.7051 408.323 81.8516C408.583 82.0225 408.872 82.1567 409.189 82.2544C409.515 82.3521 409.873 82.4009 410.264 82.4009C410.89 82.4009 411.431 82.2707 411.887 82.0103C412.343 81.7417 412.717 81.3836 413.01 80.936C413.303 80.4884 413.519 79.9717 413.657 79.3857C413.804 78.7998 413.877 78.1854 413.877 77.5425V77.2861ZM419.09 77.2861C419.09 76.3014 419.208 75.3981 419.444 74.5762C419.688 73.7461 420.038 73.034 420.494 72.4399C420.949 71.8459 421.503 71.382 422.154 71.0483C422.805 70.7147 423.541 70.5479 424.363 70.5479C424.892 70.5479 425.376 70.6089 425.816 70.731C426.264 70.853 426.666 71.0321 427.024 71.2681C427.22 71.3901 427.403 71.5326 427.574 71.6953C427.753 71.8581 427.92 72.0371 428.074 72.2324L428.184 70.792H430.235V83.7192C430.235 84.59 430.097 85.3631 429.82 86.0386C429.551 86.714 429.173 87.2878 428.685 87.7598C428.188 88.2318 427.598 88.5898 426.915 88.834C426.231 89.0781 425.474 89.2002 424.644 89.2002C424.302 89.2002 423.912 89.1595 423.472 89.0781C423.033 89.0049 422.589 88.8787 422.142 88.6997C421.686 88.5288 421.246 88.2969 420.823 88.0039C420.408 87.7109 420.05 87.3488 419.749 86.9175L420.921 85.5625C421.198 85.8962 421.482 86.1769 421.775 86.4048C422.068 86.6408 422.365 86.828 422.667 86.9663C422.968 87.1047 423.269 87.2023 423.57 87.2593C423.871 87.3244 424.172 87.3569 424.473 87.3569C425.01 87.3569 425.494 87.2796 425.926 87.125C426.357 86.9704 426.727 86.7425 427.037 86.4414C427.338 86.1484 427.57 85.7822 427.732 85.3428C427.895 84.9033 427.977 84.3988 427.977 83.8291V82.6938C427.806 82.8892 427.623 83.0682 427.427 83.231C427.24 83.3937 427.037 83.5361 426.817 83.6582C426.475 83.8454 426.097 83.9878 425.682 84.0854C425.267 84.1912 424.819 84.2441 424.339 84.2441C423.533 84.2441 422.805 84.0732 422.154 83.7314C421.503 83.3896 420.953 82.9176 420.506 82.3154C420.05 81.7132 419.7 81.0052 419.456 80.1914C419.212 79.3695 419.09 78.4865 419.09 77.5425V77.2861ZM421.348 77.5425C421.348 78.1854 421.413 78.7957 421.543 79.3735C421.682 79.9513 421.897 80.46 422.19 80.8994C422.475 81.3389 422.841 81.6888 423.289 81.9492C423.737 82.2015 424.274 82.3276 424.9 82.3276C425.291 82.3276 425.641 82.2829 425.95 82.1934C426.268 82.0957 426.552 81.9614 426.805 81.7905C427.049 81.6196 427.269 81.4162 427.464 81.1802C427.659 80.9442 427.83 80.6838 427.977 80.3989V74.3442C427.83 74.0675 427.659 73.8153 427.464 73.5874C427.269 73.3595 427.045 73.1602 426.792 72.9893C426.54 72.8265 426.259 72.7004 425.95 72.6108C425.641 72.5132 425.299 72.4644 424.925 72.4644C424.29 72.4644 423.745 72.5946 423.289 72.855C422.841 73.1154 422.475 73.4653 422.19 73.9048C421.897 74.3524 421.682 74.8691 421.543 75.4551C421.413 76.0329 421.348 76.6432 421.348 77.2861V77.5425ZM438.06 66.5806L437.804 71.0972H436.217L436.229 66.7759V65.25H438.06V66.5806ZM442.418 66.5806L442.162 71.0972H440.587L440.599 66.7759V65.25H442.43L442.418 66.5806ZM471.728 84C471.639 83.8291 471.565 83.6175 471.508 83.3652C471.459 83.1048 471.423 82.8363 471.398 82.5596C471.171 82.7874 470.914 83.0031 470.629 83.2065C470.353 83.41 470.048 83.589 469.714 83.7437C469.372 83.8983 469.01 84.0203 468.627 84.1099C468.245 84.1994 467.838 84.2441 467.407 84.2441C466.707 84.2441 466.072 84.1424 465.502 83.939C464.941 83.7355 464.465 83.4588 464.074 83.1089C463.675 82.7671 463.366 82.3602 463.146 81.8882C462.935 81.408 462.829 80.8913 462.829 80.3379C462.829 79.6136 462.972 78.9788 463.256 78.4336C463.549 77.8883 463.96 77.4326 464.489 77.0664C465.018 76.7083 465.653 76.4398 466.394 76.2607C467.142 76.0817 467.976 75.9922 468.896 75.9922H471.362V74.9546C471.362 74.5558 471.289 74.1978 471.142 73.8804C470.996 73.563 470.788 73.2904 470.52 73.0625C470.251 72.8428 469.921 72.6719 469.531 72.5498C469.148 72.4277 468.717 72.3667 468.237 72.3667C467.789 72.3667 467.386 72.4237 467.028 72.5376C466.678 72.6515 466.381 72.8021 466.137 72.9893C465.893 73.1764 465.702 73.4002 465.563 73.6606C465.433 73.9129 465.368 74.1774 465.368 74.4541H463.098C463.106 73.974 463.228 73.502 463.464 73.0381C463.708 72.5742 464.058 72.1551 464.514 71.7808C464.961 71.4146 465.507 71.1175 466.149 70.8896C466.8 70.6618 467.537 70.5479 468.359 70.5479C469.108 70.5479 469.803 70.6414 470.446 70.8286C471.089 71.0076 471.647 71.2803 472.119 71.6465C472.583 72.0208 472.949 72.4847 473.217 73.0381C473.486 73.5915 473.62 74.2384 473.62 74.979V81.1191C473.62 81.5586 473.661 82.0265 473.742 82.5229C473.824 83.0112 473.938 83.4385 474.084 83.8047V84H471.728ZM467.736 82.2788C468.176 82.2788 468.587 82.2218 468.969 82.1079C469.352 81.994 469.702 81.8434 470.019 81.6562C470.328 81.4691 470.597 81.2575 470.825 81.0215C471.053 80.7773 471.232 80.5251 471.362 80.2646V77.5913H469.262C468.481 77.5913 467.797 77.6605 467.211 77.7988C466.634 77.929 466.174 78.1325 465.832 78.4092C465.588 78.6045 465.401 78.8364 465.271 79.105C465.148 79.3735 465.087 79.6787 465.087 80.0205C465.087 80.346 465.14 80.6471 465.246 80.9238C465.36 81.2005 465.527 81.4365 465.747 81.6318C465.966 81.8353 466.243 81.994 466.577 82.1079C466.91 82.2218 467.297 82.2788 467.736 82.2788ZM477.917 65.25H484.668V82.0469H488.977V84H477.917V82.0469H482.41V67.2153H477.917V65.25ZM497.425 67.5938V70.792H502.454V72.5376H497.425V79.7153C497.425 80.228 497.49 80.6512 497.62 80.9849C497.75 81.3185 497.929 81.583 498.157 81.7783C498.385 81.9818 498.646 82.1242 498.938 82.2056C499.24 82.2869 499.557 82.3276 499.891 82.3276C500.135 82.3276 500.387 82.3154 500.647 82.291C500.908 82.2585 501.164 82.2218 501.417 82.1812C501.661 82.1405 501.889 82.0998 502.1 82.0591C502.32 82.0103 502.499 81.9696 502.637 81.937L502.955 83.5361C502.767 83.6501 502.54 83.7518 502.271 83.8413C502.002 83.9227 501.709 83.9919 501.392 84.0488C501.075 84.1139 500.737 84.1628 500.379 84.1953C500.029 84.2279 499.679 84.2441 499.329 84.2441C498.743 84.2441 498.194 84.1628 497.681 84C497.177 83.8291 496.737 83.5605 496.363 83.1943C495.988 82.8363 495.691 82.3724 495.472 81.8027C495.26 81.2249 495.154 80.5291 495.154 79.7153V72.5376H491.688V70.792H495.154V67.5938H497.425ZM517.481 74.4785H506.581V72.5132H517.481V74.4785ZM517.481 79.5444H506.581V77.5913H517.481V79.5444ZM525.148 66.5806L524.892 71.0972H523.305L523.317 66.7759V65.25H525.148V66.5806ZM529.506 66.5806L529.25 71.0972H527.675L527.687 66.7759V65.25H529.518L529.506 66.5806ZM546.523 66.2266V84H544.265V68.082H539.125L539.101 75.6992C539.101 75.9922 539.097 76.2811 539.089 76.5659C539.081 76.8426 539.069 77.1152 539.052 77.3838C539.012 77.986 538.955 78.5557 538.881 79.0928C538.808 79.6217 538.71 80.11 538.588 80.5576C538.417 81.1761 538.198 81.7132 537.929 82.1689C537.669 82.6165 537.36 82.9868 537.001 83.2798C536.692 83.5158 536.346 83.6948 535.964 83.8169C535.581 83.939 535.158 84 534.694 84H534.072V82.1567H534.56C534.943 82.1567 535.272 82.0428 535.549 81.8149C535.826 81.5789 536.053 81.2331 536.232 80.7773C536.371 80.4274 536.485 80.0083 536.574 79.52C536.664 79.0317 536.729 78.4824 536.77 77.8721C536.794 77.5465 536.81 77.2048 536.818 76.8467C536.835 76.4805 536.843 76.098 536.843 75.6992L536.892 66.2266H546.523ZM555.972 84.2441C555.044 84.2441 554.189 84.0854 553.408 83.7681C552.635 83.4507 551.972 83.0072 551.418 82.4375C550.865 81.8678 550.434 81.1924 550.125 80.4111C549.815 79.6299 549.661 78.7795 549.661 77.8599V77.3472C549.661 76.2811 549.832 75.3289 550.173 74.4907C550.515 73.6444 550.971 72.9282 551.541 72.3423C552.102 71.7645 552.741 71.321 553.457 71.0117C554.181 70.7025 554.922 70.5479 555.679 70.5479C556.631 70.5479 557.461 70.7147 558.169 71.0483C558.885 71.3739 559.479 71.8255 559.951 72.4033C560.423 72.9893 560.773 73.6769 561.001 74.4663C561.237 75.2557 561.355 76.1102 561.355 77.0298V78.043H551.919V78.1284C551.976 78.7713 552.102 79.3369 552.297 79.8252C552.501 80.3135 552.778 80.7448 553.127 81.1191C553.486 81.5179 553.917 81.8312 554.421 82.0591C554.926 82.2869 555.483 82.4009 556.094 82.4009C556.899 82.4009 557.616 82.2381 558.242 81.9126C558.869 81.5871 559.39 81.1558 559.805 80.6187L561.184 81.6929C560.745 82.3602 560.085 82.9543 559.207 83.4751C558.336 83.9878 557.257 84.2441 555.972 84.2441ZM555.679 72.4033C555.223 72.4033 554.792 72.4888 554.385 72.6597C553.978 72.8224 553.612 73.0625 553.286 73.3799C552.961 73.7054 552.684 74.1042 552.456 74.5762C552.236 75.04 552.082 75.5771 551.992 76.1875H559.097V76.0776C559.097 75.6707 559.019 75.2354 558.865 74.7715C558.71 74.2995 558.494 73.8926 558.218 73.5508C557.941 73.209 557.591 72.9323 557.168 72.7207C556.753 72.5091 556.257 72.4033 555.679 72.4033ZM564.017 77.2739C564.017 76.3218 564.155 75.4388 564.432 74.625C564.708 73.8031 565.107 73.091 565.628 72.4888C566.141 71.8866 566.767 71.4146 567.508 71.0728C568.248 70.7228 569.083 70.5479 570.01 70.5479C570.946 70.5479 571.784 70.7228 572.525 71.0728C573.274 71.4146 573.908 71.8866 574.429 72.4888C574.942 73.091 575.337 73.8031 575.613 74.625C575.89 75.4388 576.028 76.3218 576.028 77.2739V77.5425C576.028 78.4946 575.89 79.3776 575.613 80.1914C575.337 81.0052 574.942 81.7132 574.429 82.3154C573.908 82.9176 573.278 83.3896 572.537 83.7314C571.797 84.0732 570.962 84.2441 570.035 84.2441C569.099 84.2441 568.257 84.0732 567.508 83.7314C566.767 83.3896 566.141 82.9176 565.628 82.3154C565.107 81.7132 564.708 81.0052 564.432 80.1914C564.155 79.3776 564.017 78.4946 564.017 77.5425V77.2739ZM566.275 77.5425C566.275 78.1935 566.352 78.8161 566.507 79.4102C566.661 79.9961 566.897 80.5129 567.215 80.9604C567.524 81.408 567.915 81.762 568.387 82.0225C568.859 82.2829 569.408 82.4131 570.035 82.4131C570.653 82.4131 571.194 82.2829 571.658 82.0225C572.13 81.762 572.525 81.408 572.842 80.9604C573.152 80.5129 573.383 79.9961 573.538 79.4102C573.693 78.8161 573.77 78.1935 573.77 77.5425V77.2739C573.77 76.631 573.689 76.0166 573.526 75.4307C573.371 74.8366 573.139 74.3158 572.83 73.8682C572.513 73.4206 572.118 73.0666 571.646 72.8062C571.182 72.5376 570.637 72.4033 570.01 72.4033C569.384 72.4033 568.838 72.5376 568.375 72.8062C567.911 73.0666 567.524 73.4206 567.215 73.8682C566.897 74.3158 566.661 74.8366 566.507 75.4307C566.352 76.0166 566.275 76.631 566.275 77.2739V77.5425ZM590.018 84H587.76V72.6597H581.314V84H579.056V70.792H590.018V84ZM602.36 84C602.27 83.8291 602.197 83.6175 602.14 83.3652C602.091 83.1048 602.055 82.8363 602.03 82.5596C601.802 82.7874 601.546 83.0031 601.261 83.2065C600.985 83.41 600.679 83.589 600.346 83.7437C600.004 83.8983 599.642 84.0203 599.259 84.1099C598.877 84.1994 598.47 84.2441 598.039 84.2441C597.339 84.2441 596.704 84.1424 596.134 83.939C595.573 83.7355 595.097 83.4588 594.706 83.1089C594.307 82.7671 593.998 82.3602 593.778 81.8882C593.567 81.408 593.461 80.8913 593.461 80.3379C593.461 79.6136 593.603 78.9788 593.888 78.4336C594.181 77.8883 594.592 77.4326 595.121 77.0664C595.65 76.7083 596.285 76.4398 597.025 76.2607C597.774 76.0817 598.608 75.9922 599.528 75.9922H601.994V74.9546C601.994 74.5558 601.92 74.1978 601.774 73.8804C601.627 73.563 601.42 73.2904 601.151 73.0625C600.883 72.8428 600.553 72.6719 600.163 72.5498C599.78 72.4277 599.349 72.3667 598.869 72.3667C598.421 72.3667 598.018 72.4237 597.66 72.5376C597.31 72.6515 597.013 72.8021 596.769 72.9893C596.525 73.1764 596.334 73.4002 596.195 73.6606C596.065 73.9129 596 74.1774 596 74.4541H593.729C593.738 73.974 593.86 73.502 594.096 73.0381C594.34 72.5742 594.69 72.1551 595.146 71.7808C595.593 71.4146 596.138 71.1175 596.781 70.8896C597.432 70.6618 598.169 70.5479 598.991 70.5479C599.739 70.5479 600.435 70.6414 601.078 70.8286C601.721 71.0076 602.278 71.2803 602.75 71.6465C603.214 72.0208 603.581 72.4847 603.849 73.0381C604.118 73.5915 604.252 74.2384 604.252 74.979V81.1191C604.252 81.5586 604.293 82.0265 604.374 82.5229C604.455 83.0112 604.569 83.4385 604.716 83.8047V84H602.36ZM598.368 82.2788C598.808 82.2788 599.219 82.2218 599.601 82.1079C599.984 81.994 600.333 81.8434 600.651 81.6562C600.96 81.4691 601.229 81.2575 601.457 81.0215C601.684 80.7773 601.863 80.5251 601.994 80.2646V77.5913H599.894C599.113 77.5913 598.429 77.6605 597.843 77.7988C597.265 77.929 596.806 78.1325 596.464 78.4092C596.22 78.6045 596.033 78.8364 595.902 79.105C595.78 79.3735 595.719 79.6787 595.719 80.0205C595.719 80.346 595.772 80.6471 595.878 80.9238C595.992 81.2005 596.159 81.4365 596.378 81.6318C596.598 81.8353 596.875 81.994 597.208 82.1079C597.542 82.2218 597.929 82.2788 598.368 82.2788ZM608.183 89.0781V70.792H610.246L610.356 72.2324C610.535 72.0046 610.73 71.8011 610.942 71.6221C611.153 71.4349 611.381 71.2762 611.625 71.146C611.967 70.9507 612.346 70.8042 612.761 70.7065C613.184 70.6007 613.636 70.5479 614.116 70.5479C614.962 70.5479 615.711 70.7147 616.362 71.0483C617.013 71.382 617.558 71.8459 617.998 72.4399C618.437 73.034 618.771 73.7461 618.999 74.5762C619.226 75.3981 619.34 76.3014 619.34 77.2861V77.5425C619.34 78.4865 619.226 79.3695 618.999 80.1914C618.771 81.0052 618.437 81.7132 617.998 82.3154C617.558 82.9176 617.013 83.3896 616.362 83.7314C615.719 84.0732 614.982 84.2441 614.152 84.2441C613.648 84.2441 613.176 84.1912 612.736 84.0854C612.305 83.9797 611.914 83.8291 611.564 83.6338C611.353 83.5117 611.153 83.3774 610.966 83.231C610.779 83.0763 610.604 82.9095 610.441 82.7305V89.0781H608.183ZM617.082 77.2861C617.082 76.6432 617.009 76.0329 616.862 75.4551C616.724 74.8691 616.508 74.3524 616.215 73.9048C615.914 73.4653 615.536 73.1154 615.08 72.855C614.624 72.5946 614.079 72.4644 613.444 72.4644C613.094 72.4644 612.769 72.505 612.468 72.5864C612.175 72.6678 611.91 72.7858 611.674 72.9404C611.414 73.0951 611.182 73.2863 610.979 73.5142C610.775 73.742 610.596 73.9943 610.441 74.271V80.6309C610.58 80.875 610.738 81.1029 610.917 81.3145C611.097 81.526 611.3 81.7051 611.528 81.8516C611.788 82.0225 612.077 82.1567 612.395 82.2544C612.72 82.3521 613.078 82.4009 613.469 82.4009C614.095 82.4009 614.637 82.2707 615.092 82.0103C615.548 81.7417 615.922 81.3836 616.215 80.936C616.508 80.4884 616.724 79.9717 616.862 79.3857C617.009 78.7998 617.082 78.1854 617.082 77.5425V77.2861ZM622.49 82.1567C622.84 82.1079 623.133 81.9248 623.369 81.6074C623.613 81.2819 623.813 80.8424 623.967 80.2891C624.122 79.7357 624.244 79.0765 624.333 78.3115C624.431 77.5465 624.508 76.6921 624.565 75.748L624.761 70.792H633.269V82.1567H634.966L634.746 87.8818H632.708V84H623.491V87.8818H621.465L621.245 82.1567H622.49ZM626.824 75.748C626.783 76.4316 626.73 77.0827 626.665 77.7012C626.608 78.3197 626.535 78.8975 626.445 79.4346C626.356 79.9798 626.242 80.4803 626.104 80.936C625.973 81.3918 625.811 81.7987 625.615 82.1567H631.011V72.8794H626.934L626.824 75.748ZM641.265 66.5806L641.009 71.0972H639.422L639.434 66.7759V65.25H641.265V66.5806ZM645.623 66.5806L645.367 71.0972H643.792L643.804 66.7759V65.25H645.635L645.623 66.5806ZM669.232 85.5259H667.206L674.628 66.2266H676.642L669.232 85.5259ZM680.817 81.5952V79.2515L688.715 76.2729L689.448 76.0654L688.715 75.8335L680.817 72.9038V70.5723L691.596 75.1865V76.9688L680.817 81.5952ZM81.4561 114.607L71.1045 109.981V108.199L81.4561 103.584V105.977L73.9854 108.907L73.3384 109.114L73.9854 109.334L81.4561 112.215V114.607ZM100.231 114.595V112.251L108.129 109.273L108.862 109.065L108.129 108.833L100.231 105.904V103.572L111.01 108.187V109.969L100.231 114.595ZM114.673 117V99.2266H119.958C120.691 99.2347 121.407 99.3324 122.107 99.5195C122.807 99.6986 123.429 99.9793 123.975 100.362C124.52 100.744 124.955 101.233 125.281 101.827C125.606 102.421 125.765 103.133 125.757 103.963C125.749 104.427 125.671 104.85 125.525 105.232C125.387 105.615 125.195 105.957 124.951 106.258C124.699 106.567 124.418 106.827 124.109 107.039C123.808 107.251 123.442 107.45 123.01 107.637V107.674C123.458 107.78 123.889 107.971 124.304 108.248C124.719 108.524 125.061 108.829 125.33 109.163C125.614 109.529 125.834 109.94 125.989 110.396C126.152 110.852 126.233 111.344 126.233 111.873C126.241 112.703 126.082 113.436 125.757 114.07C125.431 114.705 124.996 115.234 124.451 115.657C123.905 116.089 123.275 116.418 122.559 116.646C121.851 116.874 121.118 116.992 120.361 117H114.673ZM116.943 108.687V115.083H120.422C120.894 115.075 121.342 114.998 121.765 114.852C122.188 114.697 122.563 114.485 122.888 114.217C123.214 113.948 123.47 113.619 123.657 113.228C123.853 112.837 123.95 112.394 123.95 111.897C123.958 111.393 123.873 110.945 123.694 110.555C123.523 110.164 123.283 109.83 122.974 109.554C122.664 109.285 122.302 109.078 121.887 108.931C121.472 108.785 121.025 108.703 120.544 108.687H116.943ZM116.943 106.807H120.093C120.516 106.799 120.931 106.734 121.338 106.612C121.745 106.482 122.107 106.294 122.424 106.05C122.742 105.814 122.998 105.521 123.193 105.171C123.389 104.821 123.486 104.415 123.486 103.951C123.486 103.454 123.389 103.031 123.193 102.681C123.006 102.331 122.754 102.042 122.437 101.814C122.111 101.595 121.737 101.432 121.313 101.326C120.898 101.22 120.471 101.163 120.032 101.155H116.943V106.807ZM135.047 117.244C134.119 117.244 133.265 117.085 132.483 116.768C131.71 116.451 131.047 116.007 130.494 115.438C129.94 114.868 129.509 114.192 129.2 113.411C128.89 112.63 128.736 111.779 128.736 110.86V110.347C128.736 109.281 128.907 108.329 129.249 107.491C129.59 106.644 130.046 105.928 130.616 105.342C131.177 104.764 131.816 104.321 132.532 104.012C133.257 103.702 133.997 103.548 134.754 103.548C135.706 103.548 136.536 103.715 137.244 104.048C137.96 104.374 138.554 104.826 139.026 105.403C139.498 105.989 139.848 106.677 140.076 107.466C140.312 108.256 140.43 109.11 140.43 110.03V111.043H130.994V111.128C131.051 111.771 131.177 112.337 131.373 112.825C131.576 113.313 131.853 113.745 132.203 114.119C132.561 114.518 132.992 114.831 133.497 115.059C134.001 115.287 134.559 115.401 135.169 115.401C135.975 115.401 136.691 115.238 137.317 114.913C137.944 114.587 138.465 114.156 138.88 113.619L140.259 114.693C139.82 115.36 139.161 115.954 138.282 116.475C137.411 116.988 136.333 117.244 135.047 117.244ZM134.754 105.403C134.298 105.403 133.867 105.489 133.46 105.66C133.053 105.822 132.687 106.062 132.361 106.38C132.036 106.705 131.759 107.104 131.531 107.576C131.312 108.04 131.157 108.577 131.067 109.188H138.172V109.078C138.172 108.671 138.095 108.235 137.94 107.771C137.785 107.299 137.57 106.893 137.293 106.551C137.016 106.209 136.666 105.932 136.243 105.721C135.828 105.509 135.332 105.403 134.754 105.403ZM144.996 117L142.188 103.792H144.19L145.729 112.215L145.997 114.107L146.327 112.215L148.438 103.792H149.891L151.991 112.215L152.345 114.29L152.674 112.215L154.139 103.792H156.141L153.333 117H151.551L149.488 108.907L149.146 106.856L148.817 108.907L146.778 117H144.996ZM166.92 117C166.831 116.829 166.758 116.618 166.701 116.365C166.652 116.105 166.615 115.836 166.591 115.56C166.363 115.787 166.107 116.003 165.822 116.207C165.545 116.41 165.24 116.589 164.906 116.744C164.564 116.898 164.202 117.02 163.82 117.11C163.437 117.199 163.03 117.244 162.599 117.244C161.899 117.244 161.264 117.142 160.695 116.939C160.133 116.736 159.657 116.459 159.267 116.109C158.868 115.767 158.559 115.36 158.339 114.888C158.127 114.408 158.021 113.891 158.021 113.338C158.021 112.614 158.164 111.979 158.449 111.434C158.742 110.888 159.153 110.433 159.682 110.066C160.211 109.708 160.845 109.44 161.586 109.261C162.335 109.082 163.169 108.992 164.088 108.992H166.554V107.955C166.554 107.556 166.481 107.198 166.334 106.88C166.188 106.563 165.98 106.29 165.712 106.062C165.443 105.843 165.114 105.672 164.723 105.55C164.341 105.428 163.909 105.367 163.429 105.367C162.982 105.367 162.579 105.424 162.221 105.538C161.871 105.652 161.574 105.802 161.33 105.989C161.085 106.176 160.894 106.4 160.756 106.661C160.626 106.913 160.561 107.177 160.561 107.454H158.29C158.298 106.974 158.42 106.502 158.656 106.038C158.9 105.574 159.25 105.155 159.706 104.781C160.154 104.415 160.699 104.118 161.342 103.89C161.993 103.662 162.729 103.548 163.551 103.548C164.3 103.548 164.996 103.641 165.639 103.829C166.282 104.008 166.839 104.28 167.311 104.646C167.775 105.021 168.141 105.485 168.41 106.038C168.678 106.591 168.812 107.238 168.812 107.979V114.119C168.812 114.559 168.853 115.027 168.935 115.523C169.016 116.011 169.13 116.438 169.276 116.805V117H166.92ZM162.929 115.279C163.368 115.279 163.779 115.222 164.162 115.108C164.544 114.994 164.894 114.843 165.211 114.656C165.521 114.469 165.789 114.257 166.017 114.021C166.245 113.777 166.424 113.525 166.554 113.265V110.591H164.455C163.673 110.591 162.99 110.66 162.404 110.799C161.826 110.929 161.366 111.132 161.024 111.409C160.78 111.604 160.593 111.836 160.463 112.105C160.341 112.374 160.28 112.679 160.28 113.021C160.28 113.346 160.333 113.647 160.438 113.924C160.552 114.201 160.719 114.437 160.939 114.632C161.159 114.835 161.435 114.994 161.769 115.108C162.103 115.222 162.489 115.279 162.929 115.279ZM181.411 103.548C181.826 103.548 182.257 103.576 182.705 103.633C183.16 103.69 183.502 103.768 183.73 103.865L183.425 106.075C182.985 105.977 182.566 105.908 182.167 105.867C181.777 105.818 181.366 105.794 180.935 105.794C180.381 105.794 179.881 105.863 179.433 106.001C178.986 106.132 178.595 106.327 178.261 106.587C177.96 106.815 177.696 107.096 177.468 107.43C177.248 107.755 177.065 108.121 176.918 108.528V117H174.648V103.792H176.796L176.894 105.562L176.906 105.892C177.443 105.167 178.086 104.598 178.835 104.183C179.592 103.759 180.45 103.548 181.411 103.548ZM193.105 117.244C192.178 117.244 191.323 117.085 190.542 116.768C189.769 116.451 189.106 116.007 188.552 115.438C187.999 114.868 187.568 114.192 187.258 113.411C186.949 112.63 186.794 111.779 186.794 110.86V110.347C186.794 109.281 186.965 108.329 187.307 107.491C187.649 106.644 188.105 105.928 188.674 105.342C189.236 104.764 189.875 104.321 190.591 104.012C191.315 103.702 192.056 103.548 192.812 103.548C193.765 103.548 194.595 103.715 195.303 104.048C196.019 104.374 196.613 104.826 197.085 105.403C197.557 105.989 197.907 106.677 198.135 107.466C198.371 108.256 198.489 109.11 198.489 110.03V111.043H189.053V111.128C189.11 111.771 189.236 112.337 189.431 112.825C189.635 113.313 189.911 113.745 190.261 114.119C190.619 114.518 191.051 114.831 191.555 115.059C192.06 115.287 192.617 115.401 193.228 115.401C194.033 115.401 194.749 115.238 195.376 114.913C196.003 114.587 196.523 114.156 196.938 113.619L198.318 114.693C197.878 115.36 197.219 115.954 196.34 116.475C195.47 116.988 194.391 117.244 193.105 117.244ZM192.812 105.403C192.357 105.403 191.925 105.489 191.519 105.66C191.112 105.822 190.745 106.062 190.42 106.38C190.094 106.705 189.818 107.104 189.59 107.576C189.37 108.04 189.215 108.577 189.126 109.188H196.23V109.078C196.23 108.671 196.153 108.235 195.999 107.771C195.844 107.299 195.628 106.893 195.352 106.551C195.075 106.209 194.725 105.932 194.302 105.721C193.887 105.509 193.39 105.403 192.812 105.403ZM215.665 110.274C215.665 109.322 215.803 108.439 216.08 107.625C216.357 106.803 216.756 106.091 217.276 105.489C217.789 104.887 218.416 104.415 219.156 104.073C219.897 103.723 220.731 103.548 221.659 103.548C222.595 103.548 223.433 103.723 224.173 104.073C224.922 104.415 225.557 104.887 226.078 105.489C226.59 106.091 226.985 106.803 227.262 107.625C227.538 108.439 227.677 109.322 227.677 110.274V110.542C227.677 111.495 227.538 112.378 227.262 113.191C226.985 114.005 226.59 114.713 226.078 115.315C225.557 115.918 224.926 116.39 224.186 116.731C223.445 117.073 222.611 117.244 221.683 117.244C220.747 117.244 219.905 117.073 219.156 116.731C218.416 116.39 217.789 115.918 217.276 115.315C216.756 114.713 216.357 114.005 216.08 113.191C215.803 112.378 215.665 111.495 215.665 110.542V110.274ZM217.923 110.542C217.923 111.194 218.001 111.816 218.155 112.41C218.31 112.996 218.546 113.513 218.863 113.96C219.173 114.408 219.563 114.762 220.035 115.022C220.507 115.283 221.056 115.413 221.683 115.413C222.302 115.413 222.843 115.283 223.307 115.022C223.779 114.762 224.173 114.408 224.491 113.96C224.8 113.513 225.032 112.996 225.187 112.41C225.341 111.816 225.418 111.194 225.418 110.542V110.274C225.418 109.631 225.337 109.017 225.174 108.431C225.02 107.837 224.788 107.316 224.479 106.868C224.161 106.421 223.766 106.067 223.294 105.806C222.831 105.538 222.285 105.403 221.659 105.403C221.032 105.403 220.487 105.538 220.023 105.806C219.559 106.067 219.173 106.421 218.863 106.868C218.546 107.316 218.31 107.837 218.155 108.431C218.001 109.017 217.923 109.631 217.923 110.274V110.542ZM234.184 117V105.538H230.546V103.792H234.184V102.864C234.184 102.018 234.306 101.277 234.55 100.643C234.802 99.9997 235.156 99.4626 235.612 99.0312C236.059 98.5999 236.601 98.2744 237.235 98.0547C237.87 97.835 238.578 97.7251 239.359 97.7251C239.685 97.7251 240.006 97.7454 240.324 97.7861C240.641 97.8187 240.954 97.8634 241.264 97.9204C241.467 97.9611 241.671 98.0059 241.874 98.0547C242.077 98.0954 242.285 98.1442 242.497 98.2012L242.228 100.069C241.894 99.9549 241.504 99.8573 241.056 99.7759C240.617 99.6864 240.145 99.6416 239.64 99.6416C239.127 99.6416 238.672 99.7067 238.273 99.8369C237.882 99.959 237.557 100.146 237.296 100.398C237.02 100.659 236.808 100.997 236.662 101.412C236.523 101.827 236.454 102.311 236.454 102.864V103.792H241.544V105.538H236.454V117H234.184ZM265.19 100.594V103.792H270.22V105.538H265.19V112.715C265.19 113.228 265.256 113.651 265.386 113.985C265.516 114.319 265.695 114.583 265.923 114.778C266.151 114.982 266.411 115.124 266.704 115.206C267.005 115.287 267.323 115.328 267.656 115.328C267.9 115.328 268.153 115.315 268.413 115.291C268.674 115.258 268.93 115.222 269.182 115.181C269.426 115.14 269.654 115.1 269.866 115.059C270.085 115.01 270.264 114.97 270.403 114.937L270.72 116.536C270.533 116.65 270.305 116.752 270.037 116.841C269.768 116.923 269.475 116.992 269.158 117.049C268.84 117.114 268.503 117.163 268.145 117.195C267.795 117.228 267.445 117.244 267.095 117.244C266.509 117.244 265.959 117.163 265.447 117C264.942 116.829 264.503 116.561 264.128 116.194C263.754 115.836 263.457 115.372 263.237 114.803C263.026 114.225 262.92 113.529 262.92 112.715V105.538H259.453V103.792H262.92V100.594H265.19ZM276.617 105.757C276.796 105.489 276.995 105.245 277.215 105.025C277.435 104.797 277.667 104.598 277.911 104.427C278.301 104.142 278.729 103.926 279.192 103.78C279.664 103.633 280.165 103.556 280.694 103.548C281.386 103.548 282.012 103.65 282.574 103.853C283.143 104.048 283.628 104.358 284.026 104.781C284.425 105.204 284.73 105.741 284.942 106.392C285.162 107.035 285.271 107.8 285.271 108.687V117H283.013V108.663C283.013 108.142 282.952 107.686 282.83 107.295C282.708 106.897 282.529 106.567 282.293 106.307C282.041 106.022 281.723 105.81 281.341 105.672C280.958 105.525 280.519 105.456 280.022 105.464C279.616 105.464 279.229 105.521 278.863 105.635C278.497 105.749 278.159 105.912 277.85 106.124C277.605 106.286 277.378 106.478 277.166 106.697C276.963 106.909 276.779 107.145 276.617 107.405V117H274.358V98.25H276.617V105.757ZM294.708 117.244C293.78 117.244 292.926 117.085 292.145 116.768C291.371 116.451 290.708 116.007 290.155 115.438C289.601 114.868 289.17 114.192 288.861 113.411C288.552 112.63 288.397 111.779 288.397 110.86V110.347C288.397 109.281 288.568 108.329 288.91 107.491C289.251 106.644 289.707 105.928 290.277 105.342C290.838 104.764 291.477 104.321 292.193 104.012C292.918 103.702 293.658 103.548 294.415 103.548C295.367 103.548 296.197 103.715 296.905 104.048C297.621 104.374 298.215 104.826 298.688 105.403C299.16 105.989 299.509 106.677 299.737 107.466C299.973 108.256 300.091 109.11 300.091 110.03V111.043H290.655V111.128C290.712 111.771 290.838 112.337 291.034 112.825C291.237 113.313 291.514 113.745 291.864 114.119C292.222 114.518 292.653 114.831 293.158 115.059C293.662 115.287 294.22 115.401 294.83 115.401C295.636 115.401 296.352 115.238 296.979 114.913C297.605 114.587 298.126 114.156 298.541 113.619L299.92 114.693C299.481 115.36 298.822 115.954 297.943 116.475C297.072 116.988 295.994 117.244 294.708 117.244ZM294.415 105.403C293.959 105.403 293.528 105.489 293.121 105.66C292.714 105.822 292.348 106.062 292.022 106.38C291.697 106.705 291.42 107.104 291.192 107.576C290.973 108.04 290.818 108.577 290.729 109.188H297.833V109.078C297.833 108.671 297.756 108.235 297.601 107.771C297.446 107.299 297.231 106.893 296.954 106.551C296.677 106.209 296.327 105.932 295.904 105.721C295.489 105.509 294.993 105.403 294.415 105.403ZM318.256 98.25H325.007V115.047H329.316V117H318.256V115.047H322.749V100.215H318.256V98.25ZM338.252 117.244C337.324 117.244 336.47 117.085 335.688 116.768C334.915 116.451 334.252 116.007 333.699 115.438C333.145 114.868 332.714 114.192 332.405 113.411C332.096 112.63 331.941 111.779 331.941 110.86V110.347C331.941 109.281 332.112 108.329 332.454 107.491C332.795 106.644 333.251 105.928 333.821 105.342C334.382 104.764 335.021 104.321 335.737 104.012C336.462 103.702 337.202 103.548 337.959 103.548C338.911 103.548 339.741 103.715 340.449 104.048C341.165 104.374 341.759 104.826 342.231 105.403C342.703 105.989 343.053 106.677 343.281 107.466C343.517 108.256 343.635 109.11 343.635 110.03V111.043H334.199V111.128C334.256 111.771 334.382 112.337 334.578 112.825C334.781 113.313 335.058 113.745 335.408 114.119C335.766 114.518 336.197 114.831 336.702 115.059C337.206 115.287 337.764 115.401 338.374 115.401C339.18 115.401 339.896 115.238 340.522 114.913C341.149 114.587 341.67 114.156 342.085 113.619L343.464 114.693C343.025 115.36 342.366 115.954 341.487 116.475C340.616 116.988 339.538 117.244 338.252 117.244ZM337.959 105.403C337.503 105.403 337.072 105.489 336.665 105.66C336.258 105.822 335.892 106.062 335.566 106.38C335.241 106.705 334.964 107.104 334.736 107.576C334.517 108.04 334.362 108.577 334.272 109.188H341.377V109.078C341.377 108.671 341.3 108.235 341.145 107.771C340.99 107.299 340.775 106.893 340.498 106.551C340.221 106.209 339.871 105.932 339.448 105.721C339.033 105.509 338.537 105.403 337.959 105.403ZM346.297 110.274C346.297 109.322 346.435 108.439 346.712 107.625C346.989 106.803 347.387 106.091 347.908 105.489C348.421 104.887 349.048 104.415 349.788 104.073C350.529 103.723 351.363 103.548 352.291 103.548C353.226 103.548 354.065 103.723 354.805 104.073C355.554 104.415 356.189 104.887 356.709 105.489C357.222 106.091 357.617 106.803 357.894 107.625C358.17 108.439 358.309 109.322 358.309 110.274V110.542C358.309 111.495 358.17 112.378 357.894 113.191C357.617 114.005 357.222 114.713 356.709 115.315C356.189 115.918 355.558 116.39 354.817 116.731C354.077 117.073 353.243 117.244 352.315 117.244C351.379 117.244 350.537 117.073 349.788 116.731C349.048 116.39 348.421 115.918 347.908 115.315C347.387 114.713 346.989 114.005 346.712 113.191C346.435 112.378 346.297 111.495 346.297 110.542V110.274ZM348.555 110.542C348.555 111.194 348.632 111.816 348.787 112.41C348.942 112.996 349.178 113.513 349.495 113.96C349.804 114.408 350.195 114.762 350.667 115.022C351.139 115.283 351.688 115.413 352.315 115.413C352.933 115.413 353.475 115.283 353.938 115.022C354.41 114.762 354.805 114.408 355.123 113.96C355.432 113.513 355.664 112.996 355.818 112.41C355.973 111.816 356.05 111.194 356.05 110.542V110.274C356.05 109.631 355.969 109.017 355.806 108.431C355.652 107.837 355.42 107.316 355.11 106.868C354.793 106.421 354.398 106.067 353.926 105.806C353.462 105.538 352.917 105.403 352.291 105.403C351.664 105.403 351.119 105.538 350.655 105.806C350.191 106.067 349.804 106.421 349.495 106.868C349.178 107.316 348.942 107.837 348.787 108.431C348.632 109.017 348.555 109.631 348.555 110.274V110.542ZM361.434 122.078V103.792H363.497L363.607 105.232C363.786 105.005 363.981 104.801 364.193 104.622C364.404 104.435 364.632 104.276 364.876 104.146C365.218 103.951 365.597 103.804 366.012 103.707C366.435 103.601 366.887 103.548 367.367 103.548C368.213 103.548 368.962 103.715 369.613 104.048C370.264 104.382 370.809 104.846 371.249 105.44C371.688 106.034 372.022 106.746 372.25 107.576C372.477 108.398 372.591 109.301 372.591 110.286V110.542C372.591 111.486 372.477 112.369 372.25 113.191C372.022 114.005 371.688 114.713 371.249 115.315C370.809 115.918 370.264 116.39 369.613 116.731C368.97 117.073 368.233 117.244 367.403 117.244C366.899 117.244 366.427 117.191 365.987 117.085C365.556 116.98 365.165 116.829 364.815 116.634C364.604 116.512 364.404 116.377 364.217 116.231C364.03 116.076 363.855 115.91 363.692 115.73V122.078H361.434ZM370.333 110.286C370.333 109.643 370.26 109.033 370.113 108.455C369.975 107.869 369.759 107.352 369.466 106.905C369.165 106.465 368.787 106.115 368.331 105.855C367.875 105.595 367.33 105.464 366.695 105.464C366.345 105.464 366.02 105.505 365.719 105.586C365.426 105.668 365.161 105.786 364.925 105.94C364.665 106.095 364.433 106.286 364.229 106.514C364.026 106.742 363.847 106.994 363.692 107.271V113.631C363.831 113.875 363.989 114.103 364.168 114.314C364.347 114.526 364.551 114.705 364.779 114.852C365.039 115.022 365.328 115.157 365.646 115.254C365.971 115.352 366.329 115.401 366.72 115.401C367.346 115.401 367.888 115.271 368.343 115.01C368.799 114.742 369.173 114.384 369.466 113.936C369.759 113.488 369.975 112.972 370.113 112.386C370.26 111.8 370.333 111.185 370.333 110.542V110.286ZM384.64 117C384.551 116.829 384.477 116.618 384.42 116.365C384.372 116.105 384.335 115.836 384.311 115.56C384.083 115.787 383.826 116.003 383.542 116.207C383.265 116.41 382.96 116.589 382.626 116.744C382.284 116.898 381.922 117.02 381.54 117.11C381.157 117.199 380.75 117.244 380.319 117.244C379.619 117.244 378.984 117.142 378.415 116.939C377.853 116.736 377.377 116.459 376.986 116.109C376.588 115.767 376.278 115.36 376.059 114.888C375.847 114.408 375.741 113.891 375.741 113.338C375.741 112.614 375.884 111.979 376.168 111.434C376.461 110.888 376.872 110.433 377.401 110.066C377.93 109.708 378.565 109.44 379.306 109.261C380.054 109.082 380.889 108.992 381.808 108.992H384.274V107.955C384.274 107.556 384.201 107.198 384.054 106.88C383.908 106.563 383.7 106.29 383.432 106.062C383.163 105.843 382.833 105.672 382.443 105.55C382.06 105.428 381.629 105.367 381.149 105.367C380.701 105.367 380.299 105.424 379.94 105.538C379.59 105.652 379.293 105.802 379.049 105.989C378.805 106.176 378.614 106.4 378.476 106.661C378.345 106.913 378.28 107.177 378.28 107.454H376.01C376.018 106.974 376.14 106.502 376.376 106.038C376.62 105.574 376.97 105.155 377.426 104.781C377.873 104.415 378.419 104.118 379.062 103.89C379.713 103.662 380.449 103.548 381.271 103.548C382.02 103.548 382.715 103.641 383.358 103.829C384.001 104.008 384.559 104.28 385.031 104.646C385.495 105.021 385.861 105.485 386.129 106.038C386.398 106.591 386.532 107.238 386.532 107.979V114.119C386.532 114.559 386.573 115.027 386.654 115.523C386.736 116.011 386.85 116.438 386.996 116.805V117H384.64ZM380.648 115.279C381.088 115.279 381.499 115.222 381.881 115.108C382.264 114.994 382.614 114.843 382.931 114.656C383.24 114.469 383.509 114.257 383.737 114.021C383.965 113.777 384.144 113.525 384.274 113.265V110.591H382.174C381.393 110.591 380.709 110.66 380.124 110.799C379.546 110.929 379.086 111.132 378.744 111.409C378.5 111.604 378.313 111.836 378.183 112.105C378.061 112.374 378 112.679 378 113.021C378 113.346 378.052 113.647 378.158 113.924C378.272 114.201 378.439 114.437 378.659 114.632C378.878 114.835 379.155 114.994 379.489 115.108C379.822 115.222 380.209 115.279 380.648 115.279ZM399.13 103.548C399.545 103.548 399.977 103.576 400.424 103.633C400.88 103.69 401.222 103.768 401.45 103.865L401.145 106.075C400.705 105.977 400.286 105.908 399.887 105.867C399.497 105.818 399.086 105.794 398.654 105.794C398.101 105.794 397.6 105.863 397.153 106.001C396.705 106.132 396.315 106.327 395.981 106.587C395.68 106.815 395.415 107.096 395.188 107.43C394.968 107.755 394.785 108.121 394.638 108.528V117H392.368V103.792H394.516L394.614 105.562L394.626 105.892C395.163 105.167 395.806 104.598 396.555 104.183C397.312 103.759 398.17 103.548 399.13 103.548ZM404.563 110.286C404.563 109.301 404.685 108.398 404.929 107.576C405.181 106.746 405.54 106.034 406.003 105.44C406.459 104.846 407.013 104.382 407.664 104.048C408.315 103.715 409.043 103.548 409.849 103.548C410.638 103.548 411.326 103.682 411.912 103.951C412.506 104.211 413.018 104.594 413.45 105.098V98.25H415.708V117H413.633L413.535 115.608C413.096 116.146 412.571 116.552 411.96 116.829C411.35 117.106 410.638 117.244 409.824 117.244C409.027 117.244 408.302 117.073 407.651 116.731C407.008 116.39 406.459 115.918 406.003 115.315C405.548 114.713 405.194 114.005 404.941 113.191C404.689 112.369 404.563 111.486 404.563 110.542V110.286ZM406.821 110.542C406.821 111.185 406.89 111.796 407.029 112.374C407.167 112.951 407.383 113.46 407.676 113.899C407.961 114.339 408.327 114.689 408.774 114.949C409.222 115.201 409.759 115.328 410.386 115.328C411.143 115.328 411.769 115.157 412.266 114.815C412.762 114.473 413.157 114.013 413.45 113.436V107.308C413.157 106.771 412.762 106.331 412.266 105.989C411.769 105.639 411.151 105.464 410.41 105.464C409.775 105.464 409.23 105.595 408.774 105.855C408.327 106.115 407.961 106.465 407.676 106.905C407.383 107.352 407.167 107.869 407.029 108.455C406.89 109.033 406.821 109.643 406.821 110.286V110.542ZM429.808 114.607L419.456 109.981V108.199L429.808 103.584V105.977L422.337 108.907L421.69 109.114L422.337 109.334L429.808 112.215V114.607ZM436.998 118.526H434.972L442.394 99.2266H444.408L436.998 118.526ZM463.098 114.595V112.251L470.996 109.273L471.728 109.065L470.996 108.833L463.098 105.904V103.572L473.876 108.187V109.969L463.098 114.595ZM52.4268 147.607L42.0752 142.981V141.199L52.4268 136.584V138.977L44.9561 141.907L44.3091 142.114L44.9561 142.334L52.4268 145.215V147.607ZM59.6172 151.526H57.5908L65.0127 132.227H67.0269L59.6172 151.526ZM114.746 147.595V145.251L122.644 142.273L123.376 142.065L122.644 141.833L114.746 138.904V136.572L125.525 141.187V142.969L114.746 147.595Z" fill="white"/>
<path d="M56.2114 44.2861C56.2114 43.3014 56.3335 42.3981 56.5776 41.5762C56.8299 40.7461 57.188 40.034 57.6519 39.4399C58.1076 38.8459 58.661 38.382 59.312 38.0483C59.9631 37.7147 60.6914 37.5479 61.4971 37.5479C62.2865 37.5479 62.9741 37.6821 63.5601 37.9507C64.1541 38.2111 64.6668 38.5936 65.0981 39.0981V32.25H67.3564V51H65.2812L65.1836 49.6084C64.7441 50.1455 64.2192 50.5524 63.6089 50.8291C62.9985 51.1058 62.2865 51.2441 61.4727 51.2441C60.6751 51.2441 59.9508 51.0732 59.2998 50.7314C58.6569 50.3896 58.1076 49.9176 57.6519 49.3154C57.1961 48.7132 56.8421 48.0052 56.5898 47.1914C56.3376 46.3695 56.2114 45.4865 56.2114 44.5425V44.2861ZM58.4697 44.5425C58.4697 45.1854 58.5389 45.7957 58.6772 46.3735C58.8156 46.9513 59.0312 47.46 59.3242 47.8994C59.609 48.3389 59.9753 48.6888 60.4229 48.9492C60.8704 49.2015 61.4076 49.3276 62.0342 49.3276C62.791 49.3276 63.4176 49.1567 63.9141 48.8149C64.4105 48.4731 64.8052 48.0133 65.0981 47.4355V41.3076C64.8052 40.7705 64.4105 40.3311 63.9141 39.9893C63.4176 39.6393 62.7992 39.4644 62.0586 39.4644C61.4238 39.4644 60.8786 39.5946 60.4229 39.855C59.9753 40.1154 59.609 40.4653 59.3242 40.9048C59.0312 41.3524 58.8156 41.8691 58.6772 42.4551C58.5389 43.0329 58.4697 43.6432 58.4697 44.2861V44.5425ZM71.5073 37.792H78.2578V49.0469H82.5669V51H71.5073V49.0469H75.9995V39.7573H71.5073V37.792ZM75.7065 34.3252C75.7065 34.1299 75.735 33.9468 75.792 33.7759C75.8571 33.605 75.9548 33.4585 76.085 33.3364C76.1908 33.2306 76.325 33.1493 76.4878 33.0923C76.6587 33.0272 76.8499 32.9946 77.0615 32.9946C77.2731 32.9946 77.4603 33.0272 77.623 33.0923C77.7858 33.1493 77.9201 33.2306 78.0259 33.3364C78.1561 33.4504 78.2537 33.5928 78.3188 33.7637C78.384 33.9346 78.4165 34.1217 78.4165 34.3252C78.4165 34.6914 78.3026 34.9966 78.0747 35.2407C77.8468 35.4849 77.5091 35.6069 77.0615 35.6069C76.6058 35.6069 76.264 35.4849 76.0361 35.2407C75.8164 34.9966 75.7065 34.6914 75.7065 34.3252ZM90.1724 51L84.7402 37.792H87.0596L90.8438 47.7529L91.0513 48.5708L91.271 47.7529L94.9697 37.792H97.2769L91.8936 51H90.1724ZM86.022 70.792H92.7725V82.0469H97.0815V84H86.022V82.0469H90.5142V72.7573H86.022V70.792ZM90.2212 67.3252C90.2212 67.1299 90.2497 66.9468 90.3066 66.7759C90.3717 66.605 90.4694 66.4585 90.5996 66.3364C90.7054 66.2306 90.8397 66.1493 91.0024 66.0923C91.1733 66.0272 91.3646 65.9946 91.5762 65.9946C91.7878 65.9946 91.9749 66.0272 92.1377 66.0923C92.3005 66.1493 92.4347 66.2306 92.5405 66.3364C92.6707 66.4504 92.7684 66.5928 92.8335 66.7637C92.8986 66.9346 92.9312 67.1217 92.9312 67.3252C92.9312 67.6914 92.8172 67.9966 92.5894 68.2407C92.3615 68.4849 92.0238 68.6069 91.5762 68.6069C91.1204 68.6069 90.7786 68.4849 90.5508 68.2407C90.3311 67.9966 90.2212 67.6914 90.2212 67.3252ZM101.22 70.792L101.281 72.0371C101.55 71.5732 101.9 71.2111 102.331 70.9507C102.771 70.6903 103.299 70.556 103.918 70.5479C104.268 70.5479 104.581 70.5885 104.858 70.6699C105.143 70.7432 105.391 70.853 105.603 70.9995C105.757 71.1134 105.896 71.2518 106.018 71.4146C106.148 71.5773 106.258 71.7604 106.347 71.9639C106.461 71.7767 106.595 71.6017 106.75 71.439C106.905 71.2762 107.071 71.1338 107.25 71.0117C107.478 70.8734 107.731 70.7635 108.007 70.6821C108.292 70.6007 108.601 70.556 108.935 70.5479C109.391 70.5479 109.802 70.617 110.168 70.7554C110.534 70.8856 110.843 71.0809 111.096 71.3413C111.372 71.6343 111.584 72.0168 111.73 72.4888C111.877 72.9526 111.95 73.502 111.95 74.1367V84H109.802V74.1123C109.802 73.8356 109.769 73.5915 109.704 73.3799C109.639 73.1683 109.545 72.9933 109.423 72.855C109.293 72.7248 109.13 72.6271 108.935 72.562C108.748 72.4969 108.528 72.4644 108.276 72.4644C108.007 72.4644 107.775 72.501 107.58 72.5742C107.385 72.6475 107.222 72.7451 107.092 72.8672C106.962 72.9974 106.86 73.1479 106.787 73.3188C106.713 73.4816 106.665 73.6647 106.64 73.8682C106.64 73.9089 106.64 73.9495 106.64 73.9902C106.64 74.0228 106.64 74.0635 106.64 74.1123V84H104.492V74.1001C104.492 73.8234 104.459 73.5793 104.394 73.3677C104.337 73.1561 104.243 72.9811 104.113 72.8428C103.991 72.7126 103.837 72.619 103.649 72.562C103.47 72.4969 103.259 72.4644 103.015 72.4644C102.746 72.4644 102.51 72.4969 102.307 72.562C102.111 72.619 101.944 72.7044 101.806 72.8184C101.7 72.9079 101.607 73.0096 101.525 73.1235C101.452 73.2375 101.391 73.3595 101.342 73.4897V84H99.1938V70.792H101.22ZM114.282 77.2861C114.282 76.3014 114.4 75.3981 114.636 74.5762C114.88 73.7461 115.23 73.034 115.686 72.4399C116.142 71.8459 116.695 71.382 117.346 71.0483C117.997 70.7147 118.734 70.5479 119.556 70.5479C120.085 70.5479 120.569 70.6089 121.008 70.731C121.456 70.853 121.859 71.0321 122.217 71.2681C122.412 71.3901 122.595 71.5326 122.766 71.6953C122.945 71.8581 123.112 72.0371 123.267 72.2324L123.376 70.792H125.427V83.7192C125.427 84.59 125.289 85.3631 125.012 86.0386C124.744 86.714 124.365 87.2878 123.877 87.7598C123.381 88.2318 122.791 88.5898 122.107 88.834C121.423 89.0781 120.667 89.2002 119.836 89.2002C119.495 89.2002 119.104 89.1595 118.665 89.0781C118.225 89.0049 117.782 88.8787 117.334 88.6997C116.878 88.5288 116.439 88.2969 116.016 88.0039C115.601 87.7109 115.243 87.3488 114.941 86.9175L116.113 85.5625C116.39 85.8962 116.675 86.1769 116.968 86.4048C117.261 86.6408 117.558 86.828 117.859 86.9663C118.16 87.1047 118.461 87.2023 118.762 87.2593C119.063 87.3244 119.364 87.3569 119.666 87.3569C120.203 87.3569 120.687 87.2796 121.118 87.125C121.549 86.9704 121.92 86.7425 122.229 86.4414C122.53 86.1484 122.762 85.7822 122.925 85.3428C123.088 84.9033 123.169 84.3988 123.169 83.8291V82.6938C122.998 82.8892 122.815 83.0682 122.62 83.231C122.432 83.3937 122.229 83.5361 122.009 83.6582C121.667 83.8454 121.289 83.9878 120.874 84.0854C120.459 84.1912 120.011 84.2441 119.531 84.2441C118.726 84.2441 117.997 84.0732 117.346 83.7314C116.695 83.3896 116.146 82.9176 115.698 82.3154C115.243 81.7132 114.893 81.0052 114.648 80.1914C114.404 79.3695 114.282 78.4865 114.282 77.5425V77.2861ZM116.541 77.5425C116.541 78.1854 116.606 78.7957 116.736 79.3735C116.874 79.9513 117.09 80.46 117.383 80.8994C117.668 81.3389 118.034 81.6888 118.481 81.9492C118.929 82.2015 119.466 82.3276 120.093 82.3276C120.483 82.3276 120.833 82.2829 121.143 82.1934C121.46 82.0957 121.745 81.9614 121.997 81.7905C122.241 81.6196 122.461 81.4162 122.656 81.1802C122.852 80.9442 123.022 80.6838 123.169 80.3989V74.3442C123.022 74.0675 122.852 73.8153 122.656 73.5874C122.461 73.3595 122.237 73.1602 121.985 72.9893C121.733 72.8265 121.452 72.7004 121.143 72.6108C120.833 72.5132 120.492 72.4644 120.117 72.4644C119.482 72.4644 118.937 72.5946 118.481 72.855C118.034 73.1154 117.668 73.4653 117.383 73.9048C117.09 74.3524 116.874 74.8691 116.736 75.4551C116.606 76.0329 116.541 76.6432 116.541 77.2861V77.5425ZM85.6558 122.078V103.792H87.7188L87.8286 105.232C88.0076 105.005 88.203 104.801 88.4146 104.622C88.6261 104.435 88.854 104.276 89.0981 104.146C89.4399 103.951 89.8184 103.804 90.2334 103.707C90.6566 103.601 91.1082 103.548 91.5884 103.548C92.4347 103.548 93.1834 103.715 93.8345 104.048C94.4855 104.382 95.0308 104.846 95.4702 105.44C95.9097 106.034 96.2433 106.746 96.4712 107.576C96.6991 108.398 96.813 109.301 96.813 110.286V110.542C96.813 111.486 96.6991 112.369 96.4712 113.191C96.2433 114.005 95.9097 114.713 95.4702 115.315C95.0308 115.918 94.4855 116.39 93.8345 116.731C93.1916 117.073 92.4551 117.244 91.625 117.244C91.1204 117.244 90.6484 117.191 90.209 117.085C89.7777 116.98 89.387 116.829 89.0371 116.634C88.8255 116.512 88.6261 116.377 88.439 116.231C88.2518 116.076 88.0768 115.91 87.9141 115.73V122.078H85.6558ZM94.5547 110.286C94.5547 109.643 94.4814 109.033 94.335 108.455C94.1966 107.869 93.981 107.352 93.688 106.905C93.3869 106.465 93.0085 106.115 92.5527 105.855C92.097 105.595 91.5518 105.464 90.917 105.464C90.5671 105.464 90.2415 105.505 89.9404 105.586C89.6475 105.668 89.383 105.786 89.147 105.94C88.8866 106.095 88.6546 106.286 88.4512 106.514C88.2477 106.742 88.0687 106.994 87.9141 107.271V113.631C88.0524 113.875 88.2111 114.103 88.3901 114.314C88.5692 114.526 88.7726 114.705 89.0005 114.852C89.2609 115.022 89.5498 115.157 89.8672 115.254C90.1927 115.352 90.5508 115.401 90.9414 115.401C91.568 115.401 92.1092 115.271 92.5649 115.01C93.0207 114.742 93.395 114.384 93.688 113.936C93.981 113.488 94.1966 112.972 94.335 112.386C94.4814 111.8 94.5547 111.185 94.5547 110.542V110.286ZM448.522 122.078V103.792H450.585L450.695 105.232C450.874 105.005 451.069 104.801 451.281 104.622C451.492 104.435 451.72 104.276 451.964 104.146C452.306 103.951 452.685 103.804 453.1 103.707C453.523 103.601 453.974 103.548 454.455 103.548C455.301 103.548 456.05 103.715 456.701 104.048C457.352 104.382 457.897 104.846 458.336 105.44C458.776 106.034 459.11 106.746 459.337 107.576C459.565 108.398 459.679 109.301 459.679 110.286V110.542C459.679 111.486 459.565 112.369 459.337 113.191C459.11 114.005 458.776 114.713 458.336 115.315C457.897 115.918 457.352 116.39 456.701 116.731C456.058 117.073 455.321 117.244 454.491 117.244C453.987 117.244 453.515 117.191 453.075 117.085C452.644 116.98 452.253 116.829 451.903 116.634C451.692 116.512 451.492 116.377 451.305 116.231C451.118 116.076 450.943 115.91 450.78 115.73V122.078H448.522ZM457.421 110.286C457.421 109.643 457.348 109.033 457.201 108.455C457.063 107.869 456.847 107.352 456.554 106.905C456.253 106.465 455.875 106.115 455.419 105.855C454.963 105.595 454.418 105.464 453.783 105.464C453.433 105.464 453.108 105.505 452.807 105.586C452.514 105.668 452.249 105.786 452.013 105.94C451.753 106.095 451.521 106.286 451.317 106.514C451.114 106.742 450.935 106.994 450.78 107.271V113.631C450.919 113.875 451.077 114.103 451.256 114.314C451.435 114.526 451.639 114.705 451.867 114.852C452.127 115.022 452.416 115.157 452.733 115.254C453.059 115.352 453.417 115.401 453.808 115.401C454.434 115.401 454.975 115.271 455.431 115.01C455.887 114.742 456.261 114.384 456.554 113.936C456.847 113.488 457.063 112.972 457.201 112.386C457.348 111.8 457.421 111.185 457.421 110.542V110.286ZM70.7261 143.286C70.7261 142.301 70.8481 141.398 71.0923 140.576C71.3446 139.746 71.7026 139.034 72.1665 138.44C72.6222 137.846 73.1756 137.382 73.8267 137.048C74.4777 136.715 75.2061 136.548 76.0117 136.548C76.8011 136.548 77.4888 136.682 78.0747 136.951C78.6688 137.211 79.1815 137.594 79.6128 138.098V131.25H81.8711V150H79.7959L79.6982 148.608C79.2588 149.146 78.7339 149.552 78.1235 149.829C77.5132 150.106 76.8011 150.244 75.9873 150.244C75.1898 150.244 74.4655 150.073 73.8145 149.731C73.1715 149.39 72.6222 148.918 72.1665 148.315C71.7108 147.713 71.3568 147.005 71.1045 146.191C70.8522 145.369 70.7261 144.486 70.7261 143.542V143.286ZM72.9844 143.542C72.9844 144.185 73.0535 144.796 73.1919 145.374C73.3302 145.951 73.5459 146.46 73.8389 146.899C74.1237 147.339 74.4899 147.689 74.9375 147.949C75.3851 148.201 75.9222 148.328 76.5488 148.328C77.3057 148.328 77.9323 148.157 78.4287 147.815C78.9251 147.473 79.3198 147.013 79.6128 146.436V140.308C79.3198 139.771 78.9251 139.331 78.4287 138.989C77.9323 138.639 77.3138 138.464 76.5732 138.464C75.9385 138.464 75.3932 138.595 74.9375 138.855C74.4899 139.115 74.1237 139.465 73.8389 139.905C73.5459 140.352 73.3302 140.869 73.1919 141.455C73.0535 142.033 72.9844 142.643 72.9844 143.286V143.542ZM86.022 136.792H92.7725V148.047H97.0815V150H86.022V148.047H90.5142V138.757H86.022V136.792ZM90.2212 133.325C90.2212 133.13 90.2497 132.947 90.3066 132.776C90.3717 132.605 90.4694 132.458 90.5996 132.336C90.7054 132.231 90.8397 132.149 91.0024 132.092C91.1733 132.027 91.3646 131.995 91.5762 131.995C91.7878 131.995 91.9749 132.027 92.1377 132.092C92.3005 132.149 92.4347 132.231 92.5405 132.336C92.6707 132.45 92.7684 132.593 92.8335 132.764C92.8986 132.935 92.9312 133.122 92.9312 133.325C92.9312 133.691 92.8172 133.997 92.5894 134.241C92.3615 134.485 92.0238 134.607 91.5762 134.607C91.1204 134.607 90.7786 134.485 90.5508 134.241C90.3311 133.997 90.2212 133.691 90.2212 133.325ZM104.687 150L99.2549 136.792H101.574L105.358 146.753L105.566 147.571L105.786 146.753L109.484 136.792H111.792L106.408 150H104.687Z" fill="#0066FF"/>
</svg>
