<svg width="1399" height="215" viewBox="0 0 1399 215" fill="none" xmlns="http://www.w3.org/2000/svg">
<rect width="1399" height="215" rx="20" fill="#0066FF" fill-opacity="0.2"/>
<rect x="1.5" y="1.5" width="1396" height="212" rx="18.5" stroke="#0066FF" stroke-opacity="0.5" stroke-width="3"/>
<path d="M42.1118 56.0781V37.792H44.1748L44.2847 39.2324C44.4637 39.0046 44.659 38.8011 44.8706 38.6221C45.0822 38.4349 45.3101 38.2762 45.5542 38.146C45.896 37.9507 46.2744 37.8042 46.6895 37.7065C47.1126 37.6007 47.5643 37.5479 48.0444 37.5479C48.8908 37.5479 49.6395 37.7147 50.2905 38.0483C50.9416 38.382 51.4868 38.8459 51.9263 39.4399C52.3657 40.034 52.6994 40.7461 52.9272 41.5762C53.1551 42.3981 53.269 43.3014 53.269 44.2861V44.5425C53.269 45.4865 53.1551 46.3695 52.9272 47.1914C52.6994 48.0052 52.3657 48.7132 51.9263 49.3154C51.4868 49.9176 50.9416 50.3896 50.2905 50.7314C49.6476 51.0732 48.9111 51.2441 48.0811 51.2441C47.5765 51.2441 47.1045 51.1912 46.665 51.0854C46.2337 50.9797 45.8431 50.8291 45.4932 50.6338C45.2816 50.5117 45.0822 50.3774 44.895 50.231C44.7078 50.0763 44.5329 49.9095 44.3701 49.7305V56.0781H42.1118ZM51.0107 44.2861C51.0107 43.6432 50.9375 43.0329 50.791 42.4551C50.6527 41.8691 50.437 41.3524 50.144 40.9048C49.8429 40.4653 49.4645 40.1154 49.0088 39.855C48.5531 39.5946 48.0078 39.4644 47.373 39.4644C47.0231 39.4644 46.6976 39.505 46.3965 39.5864C46.1035 39.6678 45.839 39.7858 45.603 39.9404C45.3426 40.0951 45.1107 40.2863 44.9072 40.5142C44.7038 40.742 44.5247 40.9943 44.3701 41.271V47.6309C44.5085 47.875 44.6672 48.1029 44.8462 48.3145C45.0252 48.526 45.2287 48.7051 45.4565 48.8516C45.717 49.0225 46.0059 49.1567 46.3232 49.2544C46.6488 49.3521 47.0068 49.4009 47.3975 49.4009C48.0241 49.4009 48.5653 49.2707 49.021 49.0103C49.4767 48.7417 49.8511 48.3836 50.144 47.936C50.437 47.4884 50.6527 46.9717 50.791 46.3857C50.9375 45.7998 51.0107 45.1854 51.0107 44.5425V44.2861ZM289.898 85.5137H288.495L299.029 66.2388H300.421L289.898 85.5137ZM308.356 72.1714L303.998 70.8408L304.621 69.4858L308.881 71.2314L309.528 66.2266H310.944L309.943 71.1948L314.594 69.437L314.85 70.8896L310.016 72.3057L312.616 76.2363L311.383 77.0664L309.137 72.8916L305.719 77.0054L304.633 76.1265L308.356 72.1714ZM344.355 67.5205H338.862L336.006 84H334.614L337.471 67.5205H331.965L332.185 66.2266H344.575L344.355 67.5205ZM350.008 84.2441C349.096 84.236 348.299 84.0366 347.615 83.646C346.94 83.2554 346.395 82.7467 345.979 82.1201C345.589 81.5423 345.308 80.875 345.137 80.1182C344.974 79.3613 344.942 78.5841 345.04 77.7866L345.113 77.2495C345.194 76.6961 345.333 76.1468 345.528 75.6016C345.723 75.0482 345.971 74.5192 346.272 74.0146C346.574 73.5182 346.919 73.0584 347.31 72.6353C347.701 72.2039 348.132 71.8337 348.604 71.5244C349.076 71.2152 349.585 70.9751 350.13 70.8042C350.683 70.6252 351.265 70.5397 351.875 70.5479C352.722 70.556 353.442 70.735 354.036 71.085C354.63 71.4268 355.11 71.8825 355.477 72.4521C355.835 73.0137 356.075 73.6566 356.197 74.3809C356.319 75.1051 356.331 75.8457 356.233 76.6025L356.087 77.4937H346.529C346.39 78.2342 346.366 78.9219 346.456 79.5566C346.545 80.1914 346.761 80.7855 347.103 81.3389C347.396 81.8271 347.794 82.2218 348.299 82.5229C348.812 82.8241 349.41 82.9827 350.093 82.999C350.899 83.0153 351.644 82.8607 352.327 82.5352C353.011 82.2096 353.633 81.7702 354.195 81.2168L355.049 81.937C354.431 82.6857 353.678 83.2594 352.791 83.6582C351.912 84.057 350.984 84.2523 350.008 84.2441ZM351.827 71.8052C351.176 71.7889 350.577 71.911 350.032 72.1714C349.495 72.4237 349.019 72.7573 348.604 73.1724C348.173 73.5874 347.802 74.0635 347.493 74.6006C347.184 75.1377 346.928 75.687 346.724 76.2485L354.83 76.2607L354.866 76.0654C354.964 75.5446 354.968 75.0319 354.878 74.5273C354.789 74.0146 354.614 73.5589 354.354 73.1602C354.085 72.7614 353.739 72.4399 353.316 72.1958C352.893 71.9435 352.396 71.8133 351.827 71.8052ZM363.656 77.9575H361.263L360.213 84H358.773L361.056 70.792H362.496L361.483 76.6392H363.705L369.857 70.792L371.822 70.8042L364.938 77.2861L370.016 84H368.258L363.656 77.9575ZM378.134 83.0112C378.622 83.0112 379.094 82.9421 379.55 82.8037C380.006 82.6572 380.421 82.4456 380.795 82.1689C381.161 81.9085 381.479 81.5871 381.747 81.2046C382.016 80.8221 382.219 80.3989 382.357 79.9351L383.725 79.9229C383.594 80.5739 383.35 81.168 382.992 81.7051C382.634 82.2422 382.203 82.6938 381.698 83.0601C381.186 83.4425 380.62 83.7396 380.001 83.9512C379.383 84.1546 378.748 84.2523 378.097 84.2441C377.479 84.2441 376.925 84.1546 376.437 83.9756C375.957 83.7884 375.538 83.5361 375.18 83.2188C374.797 82.8932 374.48 82.5067 374.228 82.0591C373.983 81.6115 373.796 81.1232 373.666 80.5942C373.552 80.1385 373.483 79.6624 373.458 79.166C373.442 78.6696 373.467 78.1691 373.532 77.6646L373.605 77.1519C373.735 76.2974 373.979 75.4673 374.337 74.6616C374.704 73.8478 375.172 73.1357 375.741 72.5254C376.286 71.9232 376.933 71.443 377.682 71.085C378.439 70.7188 379.277 70.5397 380.197 70.5479C380.88 70.556 381.495 70.6821 382.04 70.9263C382.593 71.1623 383.065 71.4837 383.456 71.8906C383.839 72.3138 384.127 72.8102 384.323 73.3799C384.518 73.9495 384.599 74.5721 384.567 75.2476L383.212 75.2354C383.236 74.7552 383.183 74.3076 383.053 73.8926C382.931 73.4775 382.74 73.1113 382.479 72.7939C382.211 72.4928 381.877 72.2528 381.479 72.0737C381.088 71.8947 380.644 71.8011 380.148 71.793C379.391 71.7848 378.72 71.9395 378.134 72.2568C377.556 72.5742 377.056 72.9771 376.632 73.4653C376.217 73.978 375.875 74.5558 375.607 75.1987C375.338 75.8416 375.147 76.4927 375.033 77.1519L374.96 77.6646C374.903 78.0633 374.87 78.4743 374.862 78.8975C374.862 79.3125 374.903 79.7153 374.984 80.106C375.049 80.4966 375.159 80.8669 375.314 81.2168C375.469 81.5667 375.676 81.8719 375.937 82.1323C376.189 82.3927 376.494 82.6043 376.852 82.7671C377.218 82.9217 377.646 83.0031 378.134 83.0112ZM400.29 72.0371H394.821L392.746 84H391.306L393.369 72.0371H388.107L388.303 70.792H400.485L400.29 72.0371ZM422.41 71.6587C423.24 71.6668 423.965 71.8377 424.583 72.1714C425.201 72.4969 425.71 72.9282 426.109 73.4653C426.508 74.0106 426.788 74.6372 426.951 75.3452C427.122 76.0532 427.163 76.7938 427.073 77.5669L427.024 77.9697C426.902 78.8079 426.662 79.6095 426.304 80.3745C425.954 81.1313 425.494 81.7987 424.925 82.3765C424.363 82.9543 423.708 83.4141 422.959 83.7559C422.211 84.0895 421.393 84.2523 420.506 84.2441C419.635 84.236 418.874 84.057 418.223 83.707C417.58 83.349 417.055 82.881 416.648 82.3032C416.242 81.7254 415.957 81.0622 415.794 80.3135C415.631 79.5566 415.599 78.7795 415.696 77.9819L415.745 77.5791L415.757 77.4814L415.879 76.688C415.977 75.9963 416.115 75.3005 416.294 74.6006C416.482 73.9007 416.714 73.2212 416.99 72.562C417.259 71.911 417.584 71.2925 417.967 70.7065C418.349 70.1125 418.789 69.5794 419.285 69.1074C419.782 68.6436 420.339 68.2489 420.958 67.9233C421.584 67.5897 422.276 67.3537 423.033 67.2153C423.399 67.1502 423.773 67.0811 424.156 67.0078C424.546 66.9264 424.909 66.8084 425.242 66.6538C425.576 66.5073 425.873 66.3079 426.133 66.0557C426.394 65.8034 426.581 65.4697 426.695 65.0547H427.928C427.822 65.6813 427.627 66.1981 427.342 66.605C427.057 67.0037 426.711 67.3293 426.304 67.5815C425.881 67.8257 425.413 68.0169 424.9 68.1553C424.388 68.2936 423.851 68.4116 423.289 68.5093C422.532 68.6313 421.857 68.8633 421.263 69.2051C420.677 69.5387 420.156 69.9456 419.7 70.4258C419.244 70.9222 418.846 71.4756 418.504 72.0859C418.162 72.6882 417.861 73.327 417.601 74.0024C418.219 73.2944 418.935 72.7248 419.749 72.2935C420.563 71.8621 421.45 71.6506 422.41 71.6587ZM422.166 72.9038C421.499 72.8957 420.88 73.0177 420.311 73.27C419.741 73.5223 419.24 73.8641 418.809 74.2954C418.378 74.7267 418.02 75.2272 417.735 75.7969C417.458 76.3665 417.267 76.9647 417.161 77.5913L417.1 77.9941C417.027 78.5882 417.035 79.1823 417.125 79.7764C417.222 80.3704 417.409 80.9035 417.686 81.3755C417.963 81.8475 418.337 82.234 418.809 82.5352C419.281 82.8363 419.859 82.9909 420.542 82.999C421.242 83.0153 421.881 82.881 422.459 82.5962C423.037 82.3114 423.541 81.9329 423.973 81.4609C424.404 80.9889 424.754 80.4478 425.022 79.8374C425.299 79.2271 425.49 78.6045 425.596 77.9697L425.645 77.5669C425.718 76.9728 425.698 76.3991 425.584 75.8457C425.478 75.2842 425.279 74.7878 424.986 74.3564C424.693 73.9251 424.31 73.5793 423.838 73.3188C423.366 73.0503 422.809 72.9119 422.166 72.9038ZM434.74 81.2656L434.972 81.8027L441.454 70.8042H443.138L433.885 86.124C433.641 86.5472 433.364 86.95 433.055 87.3325C432.746 87.7231 432.408 88.069 432.042 88.3701C431.668 88.6631 431.257 88.8991 430.809 89.0781C430.37 89.2572 429.885 89.3467 429.356 89.3467C429.145 89.3467 428.933 89.3304 428.722 89.2979C428.518 89.2653 428.311 89.2287 428.099 89.188L428.38 87.9429C428.551 87.9673 428.718 87.9917 428.88 88.0161C429.051 88.0405 429.218 88.0527 429.381 88.0527C429.755 88.0446 430.105 87.9673 430.431 87.8208C430.756 87.6825 431.053 87.4993 431.322 87.2715C431.59 87.0436 431.834 86.7832 432.054 86.4902C432.282 86.1973 432.49 85.9043 432.677 85.6113L433.946 83.585L430.418 70.7798H431.969L434.74 81.2656ZM443.676 82.7671C444.05 82.5555 444.388 82.2788 444.689 81.937C444.998 81.5952 445.275 81.2168 445.519 80.8018C445.747 80.403 445.95 79.9798 446.129 79.5322C446.308 79.0846 446.467 78.6289 446.605 78.165C446.736 77.7093 446.854 77.2576 446.959 76.8101C447.065 76.3625 447.159 75.9474 447.24 75.5649L448.278 70.792H455.846L453.783 82.7549H455.114L454.125 87.8818H452.794L453.466 84H443.859L443.188 87.8818H441.942L442.711 82.7549L443.676 82.7671ZM448.681 75.5649C448.542 76.2078 448.388 76.8507 448.217 77.4937C448.054 78.1366 447.855 78.7673 447.619 79.3857C447.375 80.0042 447.094 80.5983 446.776 81.168C446.459 81.7376 446.076 82.2747 445.629 82.7793L452.355 82.7549L454.186 72.1592H449.413L448.681 75.5649ZM463.391 84.2441C462.479 84.236 461.682 84.0366 460.998 83.646C460.323 83.2554 459.777 82.7467 459.362 82.1201C458.972 81.5423 458.691 80.875 458.52 80.1182C458.357 79.3613 458.325 78.5841 458.422 77.7866L458.496 77.2495C458.577 76.6961 458.715 76.1468 458.911 75.6016C459.106 75.0482 459.354 74.5192 459.655 74.0146C459.956 73.5182 460.302 73.0584 460.693 72.6353C461.083 72.2039 461.515 71.8337 461.987 71.5244C462.459 71.2152 462.967 70.9751 463.513 70.8042C464.066 70.6252 464.648 70.5397 465.258 70.5479C466.105 70.556 466.825 70.735 467.419 71.085C468.013 71.4268 468.493 71.8825 468.859 72.4521C469.217 73.0137 469.458 73.6566 469.58 74.3809C469.702 75.1051 469.714 75.8457 469.616 76.6025L469.47 77.4937H459.912C459.773 78.2342 459.749 78.9219 459.838 79.5566C459.928 80.1914 460.144 80.7855 460.485 81.3389C460.778 81.8271 461.177 82.2218 461.682 82.5229C462.194 82.8241 462.792 82.9827 463.476 82.999C464.282 83.0153 465.026 82.8607 465.71 82.5352C466.394 82.2096 467.016 81.7702 467.578 81.2168L468.432 81.937C467.814 82.6857 467.061 83.2594 466.174 83.6582C465.295 84.057 464.367 84.2523 463.391 84.2441ZM465.209 71.8052C464.558 71.7889 463.96 71.911 463.415 72.1714C462.878 72.4237 462.402 72.7573 461.987 73.1724C461.556 73.5874 461.185 74.0635 460.876 74.6006C460.567 75.1377 460.31 75.687 460.107 76.2485L468.212 76.2607L468.249 76.0654C468.347 75.5446 468.351 75.0319 468.261 74.5273C468.172 74.0146 467.997 73.5589 467.736 73.1602C467.468 72.7614 467.122 72.4399 466.699 72.1958C466.276 71.9435 465.779 71.8133 465.209 71.8052ZM485.327 72.0371H479.858L477.783 84H476.343L478.406 72.0371H473.145L473.34 70.792H485.522L485.327 72.0371ZM505.689 83.0112C506.178 83.0112 506.65 82.9421 507.105 82.8037C507.561 82.6572 507.976 82.4456 508.351 82.1689C508.717 81.9085 509.034 81.5871 509.303 81.2046C509.571 80.8221 509.775 80.3989 509.913 79.9351L511.28 79.9229C511.15 80.5739 510.906 81.168 510.548 81.7051C510.19 82.2422 509.758 82.6938 509.254 83.0601C508.741 83.4425 508.176 83.7396 507.557 83.9512C506.939 84.1546 506.304 84.2523 505.653 84.2441C505.034 84.2441 504.481 84.1546 503.993 83.9756C503.513 83.7884 503.093 83.5361 502.735 83.2188C502.353 82.8932 502.035 82.5067 501.783 82.0591C501.539 81.6115 501.352 81.1232 501.222 80.5942C501.108 80.1385 501.039 79.6624 501.014 79.166C500.998 78.6696 501.022 78.1691 501.087 77.6646L501.161 77.1519C501.291 76.2974 501.535 75.4673 501.893 74.6616C502.259 73.8478 502.727 73.1357 503.297 72.5254C503.842 71.9232 504.489 71.443 505.238 71.085C505.995 70.7188 506.833 70.5397 507.752 70.5479C508.436 70.556 509.05 70.6821 509.596 70.9263C510.149 71.1623 510.621 71.4837 511.012 71.8906C511.394 72.3138 511.683 72.8102 511.878 73.3799C512.074 73.9495 512.155 74.5721 512.123 75.2476L510.768 75.2354C510.792 74.7552 510.739 74.3076 510.609 73.8926C510.487 73.4775 510.296 73.1113 510.035 72.7939C509.767 72.4928 509.433 72.2528 509.034 72.0737C508.644 71.8947 508.2 71.8011 507.704 71.793C506.947 71.7848 506.275 71.9395 505.689 72.2568C505.112 72.5742 504.611 72.9771 504.188 73.4653C503.773 73.978 503.431 74.5558 503.163 75.1987C502.894 75.8416 502.703 76.4927 502.589 77.1519L502.516 77.6646C502.459 78.0633 502.426 78.4743 502.418 78.8975C502.418 79.3125 502.459 79.7153 502.54 80.106C502.605 80.4966 502.715 80.8669 502.87 81.2168C503.024 81.5667 503.232 81.8719 503.492 82.1323C503.744 82.3927 504.05 82.6043 504.408 82.7671C504.774 82.9217 505.201 83.0031 505.689 83.0112ZM525.368 70.8042L526.857 70.792L524.574 84H523.134L525.001 73.2212L515.956 84H514.491L516.762 70.792H518.19L516.298 81.6196L525.368 70.8042ZM538.747 84H537.307L538.356 77.9453H531.13L530.08 84H528.652L530.935 70.792H532.363L531.337 76.7002H538.564L539.589 70.792H541.03L538.747 84ZM548.428 84.2441C547.516 84.236 546.719 84.0366 546.035 83.646C545.36 83.2554 544.814 82.7467 544.399 82.1201C544.009 81.5423 543.728 80.875 543.557 80.1182C543.394 79.3613 543.362 78.5841 543.459 77.7866L543.533 77.2495C543.614 76.6961 543.752 76.1468 543.948 75.6016C544.143 75.0482 544.391 74.5192 544.692 74.0146C544.993 73.5182 545.339 73.0584 545.73 72.6353C546.121 72.2039 546.552 71.8337 547.024 71.5244C547.496 71.2152 548.005 70.9751 548.55 70.8042C549.103 70.6252 549.685 70.5397 550.295 70.5479C551.142 70.556 551.862 70.735 552.456 71.085C553.05 71.4268 553.53 71.8825 553.896 72.4521C554.255 73.0137 554.495 73.6566 554.617 74.3809C554.739 75.1051 554.751 75.8457 554.653 76.6025L554.507 77.4937H544.949C544.81 78.2342 544.786 78.9219 544.875 79.5566C544.965 80.1914 545.181 80.7855 545.522 81.3389C545.815 81.8271 546.214 82.2218 546.719 82.5229C547.231 82.8241 547.83 82.9827 548.513 82.999C549.319 83.0153 550.063 82.8607 550.747 82.5352C551.431 82.2096 552.053 81.7702 552.615 81.2168L553.469 81.937C552.851 82.6857 552.098 83.2594 551.211 83.6582C550.332 84.057 549.404 84.2523 548.428 84.2441ZM550.247 71.8052C549.596 71.7889 548.997 71.911 548.452 72.1714C547.915 72.4237 547.439 72.7573 547.024 73.1724C546.593 73.5874 546.222 74.0635 545.913 74.6006C545.604 75.1377 545.347 75.687 545.144 76.2485L553.25 76.2607L553.286 76.0654C553.384 75.5446 553.388 75.0319 553.298 74.5273C553.209 74.0146 553.034 73.5589 552.773 73.1602C552.505 72.7614 552.159 72.4399 551.736 72.1958C551.313 71.9435 550.816 71.8133 550.247 71.8052ZM569.314 72.0615H560.635L558.572 84H557.107L559.39 70.792H569.522L569.314 72.0615ZM571.671 77.2495C571.801 76.3706 572.053 75.5202 572.428 74.6982C572.81 73.8763 573.299 73.152 573.893 72.5254C574.462 71.9313 575.125 71.4512 575.882 71.085C576.639 70.7188 577.481 70.5397 578.409 70.5479C579.036 70.556 579.601 70.6577 580.106 70.853C580.611 71.0402 581.046 71.2965 581.412 71.6221C581.746 71.9232 582.035 72.2731 582.279 72.6719C582.523 73.0706 582.718 73.4979 582.865 73.9536C583.011 74.45 583.105 74.9749 583.146 75.5283C583.194 76.0817 583.182 76.6351 583.109 77.1885L583.048 77.5913C582.918 78.4458 582.665 79.2759 582.291 80.0815C581.925 80.8791 581.457 81.5871 580.887 82.2056C580.309 82.8322 579.634 83.3327 578.861 83.707C578.096 84.0732 577.245 84.2523 576.31 84.2441C575.659 84.236 575.073 84.1302 574.552 83.9268C574.039 83.7152 573.596 83.4344 573.221 83.0845C572.912 82.7915 572.643 82.4578 572.416 82.0835C572.188 81.7091 572.009 81.3104 571.878 80.8872C571.716 80.3908 571.61 79.8659 571.561 79.3125C571.52 78.7591 571.537 78.2017 571.61 77.6401L571.671 77.2495ZM573.038 77.6401C572.949 78.2586 572.94 78.8975 573.014 79.5566C573.087 80.2077 573.266 80.7977 573.551 81.3267C573.803 81.8149 574.161 82.2137 574.625 82.5229C575.097 82.8322 575.675 82.995 576.358 83.0112C577.099 83.0194 577.766 82.8647 578.36 82.5474C578.963 82.23 579.487 81.8109 579.935 81.29C580.375 80.7773 580.741 80.1833 581.034 79.5078C581.327 78.8242 581.522 78.1854 581.62 77.5913L581.681 77.1885C581.77 76.5374 581.77 75.866 581.681 75.1743C581.591 74.4826 581.38 73.8722 581.046 73.3433C580.777 72.8957 580.423 72.5295 579.984 72.2446C579.544 71.9598 579.003 71.8092 578.36 71.793C577.62 71.7848 576.948 71.9435 576.346 72.269C575.744 72.5864 575.223 73.0055 574.784 73.5264C574.344 74.0472 573.982 74.6331 573.697 75.2842C573.412 75.9352 573.213 76.5903 573.099 77.2495L573.038 77.6401ZM602.141 70.792H603.569L601.494 82.7549H608.391L610.466 70.792H611.906L609.831 82.7549H611.149L610.136 87.9185H608.818L609.501 84H599.87L602.141 70.792ZM613.652 84L615.935 70.792H620.684C621.009 70.8001 621.339 70.8245 621.672 70.8652C622.014 70.9059 622.344 70.971 622.661 71.0605C622.962 71.1501 623.243 71.2599 623.503 71.3901C623.772 71.5203 624.012 71.679 624.224 71.8662C624.533 72.1348 624.769 72.4644 624.932 72.855C625.103 73.2456 625.155 73.7135 625.09 74.2588C625.042 74.6576 624.936 75.0116 624.773 75.3208C624.618 75.63 624.419 75.9027 624.175 76.1387C623.931 76.3747 623.658 76.5822 623.357 76.7612C623.056 76.9321 622.718 77.0827 622.344 77.2129C622.71 77.3105 623.04 77.457 623.333 77.6523C623.625 77.8477 623.87 78.0755 624.065 78.3359C624.252 78.6045 624.386 78.9056 624.468 79.2393C624.557 79.5648 624.582 79.9147 624.541 80.2891C624.484 80.8424 624.338 81.3267 624.102 81.7417C623.874 82.1486 623.581 82.4945 623.223 82.7793C622.995 82.9909 622.738 83.174 622.454 83.3286C622.169 83.4832 621.868 83.6094 621.55 83.707C621.217 83.8047 620.867 83.8779 620.5 83.9268C620.134 83.9756 619.772 84 619.414 84H613.652ZM616.143 77.9209L615.3 82.7671H619.426C619.841 82.7671 620.252 82.7223 620.659 82.6328C621.074 82.5352 621.453 82.3887 621.794 82.1934C622.128 81.998 622.417 81.7417 622.661 81.4243C622.905 81.1069 623.064 80.7204 623.137 80.2646C623.202 79.8415 623.166 79.4834 623.027 79.1904C622.897 78.8893 622.702 78.6452 622.441 78.458C622.181 78.279 621.876 78.1488 621.526 78.0674C621.176 77.9779 620.822 77.929 620.464 77.9209H616.143ZM616.35 76.688L619.866 76.7002C620.273 76.6921 620.684 76.6514 621.099 76.5781C621.514 76.4967 621.9 76.3665 622.258 76.1875C622.608 76.0085 622.909 75.7684 623.162 75.4673C623.414 75.158 623.581 74.7756 623.662 74.3198C623.711 74.0431 623.711 73.799 623.662 73.5874C623.621 73.3677 623.544 73.1764 623.43 73.0137C623.324 72.8509 623.186 72.7166 623.015 72.6108C622.844 72.4969 622.657 72.4033 622.454 72.3301C622.177 72.2243 621.88 72.1551 621.562 72.1226C621.253 72.0819 620.952 72.0575 620.659 72.0493L617.156 72.0371L616.35 76.688ZM633.465 84.2441C632.553 84.236 631.756 84.0366 631.072 83.646C630.397 83.2554 629.852 82.7467 629.437 82.1201C629.046 81.5423 628.765 80.875 628.594 80.1182C628.431 79.3613 628.399 78.5841 628.497 77.7866L628.57 77.2495C628.651 76.6961 628.79 76.1468 628.985 75.6016C629.18 75.0482 629.428 74.5192 629.729 74.0146C630.031 73.5182 630.376 73.0584 630.767 72.6353C631.158 72.2039 631.589 71.8337 632.061 71.5244C632.533 71.2152 633.042 70.9751 633.587 70.8042C634.14 70.6252 634.722 70.5397 635.333 70.5479C636.179 70.556 636.899 70.735 637.493 71.085C638.087 71.4268 638.567 71.8825 638.934 72.4521C639.292 73.0137 639.532 73.6566 639.654 74.3809C639.776 75.1051 639.788 75.8457 639.69 76.6025L639.544 77.4937H629.986C629.847 78.2342 629.823 78.9219 629.913 79.5566C630.002 80.1914 630.218 80.7855 630.56 81.3389C630.853 81.8271 631.251 82.2218 631.756 82.5229C632.269 82.8241 632.867 82.9827 633.55 82.999C634.356 83.0153 635.101 82.8607 635.784 82.5352C636.468 82.2096 637.09 81.7702 637.652 81.2168L638.506 81.937C637.888 82.6857 637.135 83.2594 636.248 83.6582C635.369 84.057 634.441 84.2523 633.465 84.2441ZM635.284 71.8052C634.633 71.7889 634.035 71.911 633.489 72.1714C632.952 72.4237 632.476 72.7573 632.061 73.1724C631.63 73.5874 631.259 74.0635 630.95 74.6006C630.641 75.1377 630.385 75.687 630.181 76.2485L638.287 76.2607L638.323 76.0654C638.421 75.5446 638.425 75.0319 638.335 74.5273C638.246 74.0146 638.071 73.5589 637.811 73.1602C637.542 72.7614 637.196 72.4399 636.773 72.1958C636.35 71.9435 635.853 71.8133 635.284 71.8052ZM655.401 72.0371H649.933L647.857 84H646.417L648.48 72.0371H643.219L643.414 70.792H655.597L655.401 72.0371ZM665.131 84C665.09 83.6663 665.078 83.3408 665.094 83.0234C665.119 82.6979 665.159 82.3724 665.216 82.0469C664.94 82.3398 664.643 82.6125 664.325 82.8647C664.008 83.1089 663.674 83.3205 663.324 83.4995C662.868 83.7437 662.388 83.9308 661.884 84.061C661.379 84.1912 660.858 84.2523 660.321 84.2441C659.792 84.236 659.288 84.1465 658.808 83.9756C658.327 83.7965 657.921 83.5483 657.587 83.231C657.237 82.9136 656.968 82.5311 656.781 82.0835C656.602 81.6278 656.541 81.1151 656.598 80.5454C656.655 80.0002 656.793 79.516 657.013 79.0928C657.233 78.6696 657.514 78.2993 657.855 77.9819C658.189 77.6727 658.568 77.4123 658.991 77.2007C659.414 76.9891 659.861 76.8141 660.333 76.6758C660.806 76.5456 661.286 76.452 661.774 76.395C662.27 76.3381 662.755 76.3096 663.227 76.3096H666.095L666.339 74.8203C666.404 74.332 666.372 73.9007 666.242 73.5264C666.12 73.152 665.924 72.8346 665.656 72.5742C665.387 72.3138 665.058 72.1185 664.667 71.9883C664.276 71.8499 663.849 71.7808 663.385 71.7808C662.946 71.7726 662.514 71.8255 662.091 71.9395C661.668 72.0452 661.278 72.208 660.919 72.4277C660.561 72.6556 660.248 72.9364 659.979 73.27C659.719 73.5955 659.528 73.9821 659.406 74.4297L657.978 74.4175C658.091 73.7827 658.327 73.2253 658.686 72.7451C659.052 72.2568 659.491 71.8499 660.004 71.5244C660.508 71.1989 661.062 70.9548 661.664 70.792C662.274 70.6211 662.885 70.5397 663.495 70.5479C664.138 70.5479 664.736 70.6455 665.29 70.8408C665.843 71.028 666.319 71.3047 666.718 71.6709C667.108 72.0452 667.397 72.501 667.584 73.0381C667.78 73.5671 667.837 74.1693 667.755 74.8447L666.669 81.229C666.596 81.6685 666.559 82.1079 666.559 82.5474C666.559 82.9787 666.588 83.41 666.645 83.8413L666.62 84H665.131ZM660.529 82.9502C661.025 82.9583 661.509 82.9014 661.981 82.7793C662.453 82.6572 662.897 82.4782 663.312 82.2422C663.711 82.0143 664.085 81.7417 664.435 81.4243C664.793 81.0988 665.111 80.7407 665.387 80.3501L665.9 77.4448L663.422 77.4326C663.007 77.4326 662.563 77.4611 662.091 77.5181C661.619 77.5669 661.164 77.6605 660.724 77.7988C660.407 77.8883 660.102 78.0023 659.809 78.1406C659.524 78.2708 659.263 78.4377 659.027 78.6411C658.775 78.8608 658.559 79.1172 658.38 79.4102C658.209 79.695 658.096 80.0286 658.039 80.4111C657.982 80.8099 658.01 81.1639 658.124 81.4731C658.238 81.7824 658.413 82.0428 658.649 82.2544C658.877 82.4741 659.153 82.645 659.479 82.7671C659.813 82.881 660.163 82.9421 660.529 82.9502ZM691.023 72.1714L686.665 70.8408L687.288 69.4858L691.548 71.2314L692.195 66.2266H693.611L692.61 71.1948L697.261 69.437L697.517 70.8896L692.683 72.3057L695.283 76.2363L694.05 77.0664L691.804 72.8916L688.386 77.0054L687.3 76.1265L691.023 72.1714ZM700.911 85.5137H699.507L710.042 66.2388H711.434L700.911 85.5137Z" fill="#0066FF"/>
<path d="M80.9678 55.4678C80.1784 55.4434 79.4948 55.2603 78.917 54.9185C78.3392 54.5767 77.859 54.125 77.4766 53.5635C77.1104 53.0264 76.8337 52.4242 76.6465 51.7568C76.4593 51.0977 76.3657 50.4425 76.3657 49.7915V47.7285C76.3657 46.5566 76.085 45.7062 75.5234 45.1772C74.9701 44.6483 74.1196 44.3797 72.9722 44.3716V42.6016C74.1196 42.6016 74.9701 42.3411 75.5234 41.8203C76.085 41.2913 76.3657 40.4368 76.3657 39.2568V37.1816C76.3657 36.5225 76.4512 35.8511 76.6221 35.1675C76.8011 34.4757 77.0819 33.8573 77.4644 33.312C77.8224 32.7912 78.2904 32.368 78.8682 32.0425C79.446 31.7088 80.1458 31.5298 80.9678 31.5054L81.2241 32.9092C80.6382 32.9255 80.1702 33.0638 79.8203 33.3242C79.4785 33.5846 79.2222 33.9142 79.0513 34.313C78.8722 34.7199 78.7583 35.1756 78.7095 35.6802C78.6606 36.1847 78.6362 36.6852 78.6362 37.1816V39.2568C78.6362 40.2334 78.4084 41.092 77.9526 41.8325C77.505 42.5649 76.8092 43.1224 75.8652 43.5049C76.8092 43.8792 77.505 44.4367 77.9526 45.1772C78.4002 45.9097 78.6281 46.7601 78.6362 47.7285V49.7915C78.6362 50.2961 78.6769 50.7965 78.7583 51.293C78.8397 51.7975 78.9821 52.2492 79.1855 52.6479C79.3809 53.0549 79.6413 53.3885 79.9668 53.6489C80.3005 53.9093 80.7196 54.0477 81.2241 54.064L80.9678 55.4678ZM105.81 82.4131C106.217 82.4131 106.612 82.348 106.994 82.2178C107.385 82.0876 107.731 81.9045 108.032 81.6685C108.333 81.4406 108.573 81.172 108.752 80.8628C108.939 80.5454 109.037 80.2036 109.045 79.8374H111.181C111.173 80.4233 111.018 80.9849 110.717 81.522C110.424 82.0509 110.03 82.5148 109.533 82.9136C109.037 83.3205 108.467 83.646 107.824 83.8901C107.181 84.1261 106.51 84.2441 105.81 84.2441C104.809 84.2441 103.934 84.0651 103.186 83.707C102.437 83.349 101.814 82.8647 101.318 82.2544C100.813 81.6522 100.435 80.9564 100.183 80.167C99.9303 79.3695 99.8042 78.5312 99.8042 77.6523V77.1396C99.8042 76.2689 99.9303 75.4347 100.183 74.6372C100.435 73.8397 100.813 73.1357 101.318 72.5254C101.814 71.9232 102.437 71.443 103.186 71.085C103.934 70.7269 104.809 70.5479 105.81 70.5479C106.591 70.5479 107.307 70.674 107.958 70.9263C108.618 71.1704 109.187 71.5041 109.667 71.9272C110.139 72.3586 110.51 72.8672 110.778 73.4531C111.047 74.0391 111.181 74.6657 111.181 75.333H109.045C109.037 74.9342 108.947 74.5599 108.776 74.21C108.614 73.8519 108.39 73.5386 108.105 73.27C107.82 73.0015 107.478 72.7899 107.08 72.6353C106.689 72.4806 106.266 72.4033 105.81 72.4033C105.11 72.4033 104.52 72.5457 104.04 72.8306C103.568 73.1073 103.186 73.4694 102.893 73.917C102.6 74.3727 102.388 74.8813 102.258 75.4429C102.136 76.0044 102.075 76.57 102.075 77.1396V77.6523C102.075 78.2301 102.136 78.8039 102.258 79.3735C102.388 79.9351 102.6 80.4396 102.893 80.8872C103.177 81.3429 103.556 81.7132 104.028 81.998C104.508 82.2747 105.102 82.4131 105.81 82.4131ZM114.062 77.2739C114.062 76.3218 114.201 75.4388 114.478 74.625C114.754 73.8031 115.153 73.091 115.674 72.4888C116.187 71.8866 116.813 71.4146 117.554 71.0728C118.294 70.7228 119.128 70.5479 120.056 70.5479C120.992 70.5479 121.83 70.7228 122.571 71.0728C123.319 71.4146 123.954 71.8866 124.475 72.4888C124.988 73.091 125.382 73.8031 125.659 74.625C125.936 75.4388 126.074 76.3218 126.074 77.2739V77.5425C126.074 78.4946 125.936 79.3776 125.659 80.1914C125.382 81.0052 124.988 81.7132 124.475 82.3154C123.954 82.9176 123.324 83.3896 122.583 83.7314C121.842 84.0732 121.008 84.2441 120.081 84.2441C119.145 84.2441 118.302 84.0732 117.554 83.7314C116.813 83.3896 116.187 82.9176 115.674 82.3154C115.153 81.7132 114.754 81.0052 114.478 80.1914C114.201 79.3776 114.062 78.4946 114.062 77.5425V77.2739ZM116.321 77.5425C116.321 78.1935 116.398 78.8161 116.553 79.4102C116.707 79.9961 116.943 80.5129 117.261 80.9604C117.57 81.408 117.961 81.762 118.433 82.0225C118.905 82.2829 119.454 82.4131 120.081 82.4131C120.699 82.4131 121.24 82.2829 121.704 82.0225C122.176 81.762 122.571 81.408 122.888 80.9604C123.197 80.5129 123.429 79.9961 123.584 79.4102C123.739 78.8161 123.816 78.1935 123.816 77.5425V77.2739C123.816 76.631 123.735 76.0166 123.572 75.4307C123.417 74.8366 123.185 74.3158 122.876 73.8682C122.559 73.4206 122.164 73.0666 121.692 72.8062C121.228 72.5376 120.683 72.4033 120.056 72.4033C119.43 72.4033 118.884 72.5376 118.42 72.8062C117.957 73.0666 117.57 73.4206 117.261 73.8682C116.943 74.3158 116.707 74.8366 116.553 75.4307C116.398 76.0166 116.321 76.631 116.321 77.2739V77.5425ZM129.566 65.25H136.316V82.0469H140.625V84H129.566V82.0469H134.058V67.2153H129.566V65.25ZM143.092 77.2739C143.092 76.3218 143.23 75.4388 143.507 74.625C143.784 73.8031 144.182 73.091 144.703 72.4888C145.216 71.8866 145.842 71.4146 146.583 71.0728C147.324 70.7228 148.158 70.5479 149.085 70.5479C150.021 70.5479 150.86 70.7228 151.6 71.0728C152.349 71.4146 152.984 71.8866 153.504 72.4888C154.017 73.091 154.412 73.8031 154.688 74.625C154.965 75.4388 155.104 76.3218 155.104 77.2739V77.5425C155.104 78.4946 154.965 79.3776 154.688 80.1914C154.412 81.0052 154.017 81.7132 153.504 82.3154C152.984 82.9176 152.353 83.3896 151.612 83.7314C150.872 84.0732 150.038 84.2441 149.11 84.2441C148.174 84.2441 147.332 84.0732 146.583 83.7314C145.842 83.3896 145.216 82.9176 144.703 82.3154C144.182 81.7132 143.784 81.0052 143.507 80.1914C143.23 79.3776 143.092 78.4946 143.092 77.5425V77.2739ZM145.35 77.5425C145.35 78.1935 145.427 78.8161 145.582 79.4102C145.737 79.9961 145.973 80.5129 146.29 80.9604C146.599 81.408 146.99 81.762 147.462 82.0225C147.934 82.2829 148.483 82.4131 149.11 82.4131C149.728 82.4131 150.27 82.2829 150.733 82.0225C151.205 81.762 151.6 81.408 151.917 80.9604C152.227 80.5129 152.459 79.9961 152.613 79.4102C152.768 78.8161 152.845 78.1935 152.845 77.5425V77.2739C152.845 76.631 152.764 76.0166 152.601 75.4307C152.446 74.8366 152.215 74.3158 151.905 73.8682C151.588 73.4206 151.193 73.0666 150.721 72.8062C150.257 72.5376 149.712 72.4033 149.085 72.4033C148.459 72.4033 147.914 72.5376 147.45 72.8062C146.986 73.0666 146.599 73.4206 146.29 73.8682C145.973 74.3158 145.737 74.8366 145.582 75.4307C145.427 76.0166 145.35 76.631 145.35 77.2739V77.5425ZM166.896 70.5479C167.311 70.5479 167.742 70.5763 168.19 70.6333C168.646 70.6903 168.987 70.7676 169.215 70.8652L168.91 73.0747C168.471 72.9771 168.052 72.9079 167.653 72.8672C167.262 72.8184 166.851 72.7939 166.42 72.7939C165.867 72.7939 165.366 72.8631 164.918 73.0015C164.471 73.1317 164.08 73.327 163.747 73.5874C163.445 73.8153 163.181 74.096 162.953 74.4297C162.733 74.7552 162.55 75.1214 162.404 75.5283V84H160.133V70.792H162.282L162.379 72.562L162.392 72.8916C162.929 72.1673 163.572 71.5977 164.32 71.1826C165.077 70.7594 165.936 70.5479 166.896 70.5479ZM177.297 82.5352C177.297 82.055 177.443 81.644 177.736 81.3022C178.029 80.9604 178.473 80.7896 179.067 80.7896C179.653 80.7896 180.096 80.9604 180.397 81.3022C180.707 81.6359 180.861 82.0469 180.861 82.5352C180.861 83.0153 180.707 83.4181 180.397 83.7437C180.088 84.0692 179.645 84.2319 179.067 84.2319C178.481 84.2319 178.037 84.0692 177.736 83.7437C177.443 83.41 177.297 83.0072 177.297 82.5352ZM177.297 71.8418C177.297 71.3617 177.443 70.9507 177.736 70.6089C178.029 70.2671 178.473 70.0962 179.067 70.0962C179.653 70.0962 180.096 70.2671 180.397 70.6089C180.707 70.9425 180.861 71.3535 180.861 71.8418C180.861 72.3219 180.707 72.7248 180.397 73.0503C180.088 73.3758 179.645 73.5386 179.067 73.5386C178.481 73.5386 178.037 73.3758 177.736 73.0503C177.443 72.7166 177.297 72.3138 177.297 71.8418ZM212.979 77.5425C212.979 78.1203 212.934 78.6777 212.845 79.2148C212.763 79.7438 212.641 80.2402 212.479 80.7041C212.259 81.3145 211.97 81.8638 211.612 82.3521C211.262 82.8322 210.839 83.231 210.342 83.5483C209.984 83.7681 209.59 83.939 209.158 84.061C208.735 84.1831 208.275 84.2441 207.779 84.2441C207.209 84.2441 206.688 84.175 206.216 84.0366C205.752 83.8983 205.333 83.6989 204.959 83.4385C204.78 83.3083 204.609 83.1659 204.446 83.0112C204.284 82.8566 204.129 82.6857 203.982 82.4985L203.873 84H201.797V65.25H204.056V72.208C204.243 71.972 204.45 71.7604 204.678 71.5732C204.906 71.3779 205.15 71.2111 205.411 71.0728C205.736 70.9019 206.094 70.7716 206.485 70.6821C206.875 70.5926 207.299 70.5479 207.754 70.5479C208.324 70.5479 208.849 70.6252 209.329 70.7798C209.809 70.9344 210.245 71.1501 210.635 71.4268C210.985 71.6872 211.299 72.0046 211.575 72.3789C211.852 72.7451 212.096 73.1561 212.308 73.6118C212.527 74.1245 212.694 74.6942 212.808 75.3208C212.922 75.9393 212.979 76.5944 212.979 77.2861V77.5425ZM210.721 77.2861C210.721 76.8711 210.692 76.4683 210.635 76.0776C210.586 75.6789 210.509 75.3045 210.403 74.9546C210.257 74.5233 210.066 74.1286 209.83 73.7705C209.594 73.4124 209.305 73.1317 208.963 72.9282C208.727 72.7817 208.462 72.6678 208.169 72.5864C207.876 72.505 207.551 72.4644 207.193 72.4644C206.802 72.4644 206.444 72.5173 206.119 72.623C205.793 72.7207 205.504 72.859 205.252 73.0381C204.992 73.2253 204.76 73.445 204.556 73.6973C204.361 73.9414 204.194 74.21 204.056 74.5029V80.2769C204.202 80.5698 204.373 80.8424 204.568 81.0947C204.772 81.3389 205.004 81.5545 205.264 81.7417C205.525 81.9289 205.818 82.0754 206.143 82.1812C206.469 82.2788 206.827 82.3276 207.217 82.3276C207.592 82.3276 207.933 82.2829 208.243 82.1934C208.552 82.0957 208.829 81.9574 209.073 81.7783C209.398 81.5505 209.671 81.2616 209.891 80.9116C210.11 80.5617 210.285 80.1711 210.416 79.7397C210.521 79.4142 210.599 79.0643 210.647 78.6899C210.696 78.3156 210.721 77.9331 210.721 77.5425V77.2861ZM216.654 65.25H223.404V82.0469H227.713V84H216.654V82.0469H221.146V67.2153H216.654V65.25ZM239.518 84L239.384 82.1812C238.944 82.8322 238.395 83.3408 237.736 83.707C237.077 84.0651 236.316 84.2441 235.453 84.2441C234.761 84.2441 234.135 84.1383 233.573 83.9268C233.012 83.707 232.532 83.3693 232.133 82.9136C231.734 82.4578 231.425 81.88 231.205 81.1802C230.993 80.4722 230.888 79.6258 230.888 78.6411V70.792H233.146V78.6655C233.146 79.3817 233.203 79.9757 233.317 80.4478C233.431 80.9198 233.602 81.2941 233.83 81.5708C234.057 81.8556 234.334 82.055 234.66 82.1689C234.993 82.2829 235.376 82.3398 235.807 82.3398C236.312 82.3398 236.763 82.2829 237.162 82.1689C237.561 82.0469 237.907 81.88 238.2 81.6685C238.444 81.4976 238.655 81.2941 238.834 81.0581C239.022 80.814 239.176 80.5495 239.298 80.2646V70.792H241.569V84H239.518ZM251.164 84.2441C250.236 84.2441 249.382 84.0854 248.601 83.7681C247.827 83.4507 247.164 83.0072 246.611 82.4375C246.057 81.8678 245.626 81.1924 245.317 80.4111C245.008 79.6299 244.853 78.7795 244.853 77.8599V77.3472C244.853 76.2811 245.024 75.3289 245.366 74.4907C245.708 73.6444 246.163 72.9282 246.733 72.3423C247.294 71.7645 247.933 71.321 248.649 71.0117C249.374 70.7025 250.114 70.5479 250.871 70.5479C251.823 70.5479 252.653 70.7147 253.361 71.0483C254.077 71.3739 254.672 71.8255 255.144 72.4033C255.616 72.9893 255.965 73.6769 256.193 74.4663C256.429 75.2557 256.547 76.1102 256.547 77.0298V78.043H247.111V78.1284C247.168 78.7713 247.294 79.3369 247.49 79.8252C247.693 80.3135 247.97 80.7448 248.32 81.1191C248.678 81.5179 249.109 81.8312 249.614 82.0591C250.118 82.2869 250.676 82.4009 251.286 82.4009C252.092 82.4009 252.808 82.2381 253.435 81.9126C254.061 81.5871 254.582 81.1558 254.997 80.6187L256.376 81.6929C255.937 82.3602 255.278 82.9543 254.399 83.4751C253.528 83.9878 252.45 84.2441 251.164 84.2441ZM250.871 72.4033C250.415 72.4033 249.984 72.4888 249.577 72.6597C249.17 72.8224 248.804 73.0625 248.479 73.3799C248.153 73.7054 247.876 74.1042 247.648 74.5762C247.429 75.04 247.274 75.5771 247.185 76.1875H254.289V76.0776C254.289 75.6707 254.212 75.2354 254.057 74.7715C253.903 74.2995 253.687 73.8926 253.41 73.5508C253.133 73.209 252.784 72.9323 252.36 72.7207C251.945 72.5091 251.449 72.4033 250.871 72.4033ZM264.275 71.8418C264.275 71.3617 264.421 70.9507 264.714 70.6089C265.007 70.2671 265.451 70.0962 266.045 70.0962C266.631 70.0962 267.074 70.2671 267.375 70.6089C267.685 70.9425 267.839 71.3535 267.839 71.8418C267.839 72.3219 267.685 72.7248 267.375 73.0503C267.066 73.3758 266.623 73.5386 266.045 73.5386C265.459 73.5386 265.015 73.3758 264.714 73.0503C264.421 72.7166 264.275 72.3138 264.275 71.8418ZM267.18 83.4751C267.18 84.2889 266.989 85.119 266.606 85.9653C266.224 86.8117 265.707 87.5238 265.056 88.1016L263.652 87.3325C264.043 86.7629 264.32 86.1566 264.482 85.5137C264.645 84.8708 264.727 84.2035 264.727 83.5117V81.3267H267.18V83.4751ZM105.81 115.413C106.217 115.413 106.612 115.348 106.994 115.218C107.385 115.088 107.731 114.904 108.032 114.668C108.333 114.441 108.573 114.172 108.752 113.863C108.939 113.545 109.037 113.204 109.045 112.837H111.181C111.173 113.423 111.018 113.985 110.717 114.522C110.424 115.051 110.03 115.515 109.533 115.914C109.037 116.32 108.467 116.646 107.824 116.89C107.181 117.126 106.51 117.244 105.81 117.244C104.809 117.244 103.934 117.065 103.186 116.707C102.437 116.349 101.814 115.865 101.318 115.254C100.813 114.652 100.435 113.956 100.183 113.167C99.9303 112.369 99.8042 111.531 99.8042 110.652V110.14C99.8042 109.269 99.9303 108.435 100.183 107.637C100.435 106.84 100.813 106.136 101.318 105.525C101.814 104.923 102.437 104.443 103.186 104.085C103.934 103.727 104.809 103.548 105.81 103.548C106.591 103.548 107.307 103.674 107.958 103.926C108.618 104.17 109.187 104.504 109.667 104.927C110.139 105.359 110.51 105.867 110.778 106.453C111.047 107.039 111.181 107.666 111.181 108.333H109.045C109.037 107.934 108.947 107.56 108.776 107.21C108.614 106.852 108.39 106.539 108.105 106.27C107.82 106.001 107.478 105.79 107.08 105.635C106.689 105.481 106.266 105.403 105.81 105.403C105.11 105.403 104.52 105.546 104.04 105.831C103.568 106.107 103.186 106.469 102.893 106.917C102.6 107.373 102.388 107.881 102.258 108.443C102.136 109.004 102.075 109.57 102.075 110.14V110.652C102.075 111.23 102.136 111.804 102.258 112.374C102.388 112.935 102.6 113.44 102.893 113.887C103.177 114.343 103.556 114.713 104.028 114.998C104.508 115.275 105.102 115.413 105.81 115.413ZM114.062 110.274C114.062 109.322 114.201 108.439 114.478 107.625C114.754 106.803 115.153 106.091 115.674 105.489C116.187 104.887 116.813 104.415 117.554 104.073C118.294 103.723 119.128 103.548 120.056 103.548C120.992 103.548 121.83 103.723 122.571 104.073C123.319 104.415 123.954 104.887 124.475 105.489C124.988 106.091 125.382 106.803 125.659 107.625C125.936 108.439 126.074 109.322 126.074 110.274V110.542C126.074 111.495 125.936 112.378 125.659 113.191C125.382 114.005 124.988 114.713 124.475 115.315C123.954 115.918 123.324 116.39 122.583 116.731C121.842 117.073 121.008 117.244 120.081 117.244C119.145 117.244 118.302 117.073 117.554 116.731C116.813 116.39 116.187 115.918 115.674 115.315C115.153 114.713 114.754 114.005 114.478 113.191C114.201 112.378 114.062 111.495 114.062 110.542V110.274ZM116.321 110.542C116.321 111.194 116.398 111.816 116.553 112.41C116.707 112.996 116.943 113.513 117.261 113.96C117.57 114.408 117.961 114.762 118.433 115.022C118.905 115.283 119.454 115.413 120.081 115.413C120.699 115.413 121.24 115.283 121.704 115.022C122.176 114.762 122.571 114.408 122.888 113.96C123.197 113.513 123.429 112.996 123.584 112.41C123.739 111.816 123.816 111.194 123.816 110.542V110.274C123.816 109.631 123.735 109.017 123.572 108.431C123.417 107.837 123.185 107.316 122.876 106.868C122.559 106.421 122.164 106.067 121.692 105.806C121.228 105.538 120.683 105.403 120.056 105.403C119.43 105.403 118.884 105.538 118.42 105.806C117.957 106.067 117.57 106.421 117.261 106.868C116.943 107.316 116.707 107.837 116.553 108.431C116.398 109.017 116.321 109.631 116.321 110.274V110.542ZM129.566 98.25H136.316V115.047H140.625V117H129.566V115.047H134.058V100.215H129.566V98.25ZM143.092 110.274C143.092 109.322 143.23 108.439 143.507 107.625C143.784 106.803 144.182 106.091 144.703 105.489C145.216 104.887 145.842 104.415 146.583 104.073C147.324 103.723 148.158 103.548 149.085 103.548C150.021 103.548 150.86 103.723 151.6 104.073C152.349 104.415 152.984 104.887 153.504 105.489C154.017 106.091 154.412 106.803 154.688 107.625C154.965 108.439 155.104 109.322 155.104 110.274V110.542C155.104 111.495 154.965 112.378 154.688 113.191C154.412 114.005 154.017 114.713 153.504 115.315C152.984 115.918 152.353 116.39 151.612 116.731C150.872 117.073 150.038 117.244 149.11 117.244C148.174 117.244 147.332 117.073 146.583 116.731C145.842 116.39 145.216 115.918 144.703 115.315C144.182 114.713 143.784 114.005 143.507 113.191C143.23 112.378 143.092 111.495 143.092 110.542V110.274ZM145.35 110.542C145.35 111.194 145.427 111.816 145.582 112.41C145.737 112.996 145.973 113.513 146.29 113.96C146.599 114.408 146.99 114.762 147.462 115.022C147.934 115.283 148.483 115.413 149.11 115.413C149.728 115.413 150.27 115.283 150.733 115.022C151.205 114.762 151.6 114.408 151.917 113.96C152.227 113.513 152.459 112.996 152.613 112.41C152.768 111.816 152.845 111.194 152.845 110.542V110.274C152.845 109.631 152.764 109.017 152.601 108.431C152.446 107.837 152.215 107.316 151.905 106.868C151.588 106.421 151.193 106.067 150.721 105.806C150.257 105.538 149.712 105.403 149.085 105.403C148.459 105.403 147.914 105.538 147.45 105.806C146.986 106.067 146.599 106.421 146.29 106.868C145.973 107.316 145.737 107.837 145.582 108.431C145.427 109.017 145.35 109.631 145.35 110.274V110.542ZM166.896 103.548C167.311 103.548 167.742 103.576 168.19 103.633C168.646 103.69 168.987 103.768 169.215 103.865L168.91 106.075C168.471 105.977 168.052 105.908 167.653 105.867C167.262 105.818 166.851 105.794 166.42 105.794C165.867 105.794 165.366 105.863 164.918 106.001C164.471 106.132 164.08 106.327 163.747 106.587C163.445 106.815 163.181 107.096 162.953 107.43C162.733 107.755 162.55 108.121 162.404 108.528V117H160.133V103.792H162.282L162.379 105.562L162.392 105.892C162.929 105.167 163.572 104.598 164.32 104.183C165.077 103.759 165.936 103.548 166.896 103.548ZM177.297 115.535C177.297 115.055 177.443 114.644 177.736 114.302C178.029 113.96 178.473 113.79 179.067 113.79C179.653 113.79 180.096 113.96 180.397 114.302C180.707 114.636 180.861 115.047 180.861 115.535C180.861 116.015 180.707 116.418 180.397 116.744C180.088 117.069 179.645 117.232 179.067 117.232C178.481 117.232 178.037 117.069 177.736 116.744C177.443 116.41 177.297 116.007 177.297 115.535ZM177.297 104.842C177.297 104.362 177.443 103.951 177.736 103.609C178.029 103.267 178.473 103.096 179.067 103.096C179.653 103.096 180.096 103.267 180.397 103.609C180.707 103.943 180.861 104.354 180.861 104.842C180.861 105.322 180.707 105.725 180.397 106.05C180.088 106.376 179.645 106.539 179.067 106.539C178.481 106.539 178.037 106.376 177.736 106.05C177.443 105.717 177.297 105.314 177.297 104.842ZM208.292 111.995H205.069L204.092 117H202.347L203.323 111.995H200.406V110.323H203.641L204.483 106.001H201.333V104.305H204.812L205.813 99.2266H207.559L206.558 104.305H209.781L210.782 99.2266H212.527L211.526 104.305H214.029V106.001H211.197L210.354 110.323H213.113V111.995H210.037L209.061 117H207.315L208.292 111.995ZM205.386 110.323H208.609L209.451 106.001H206.229L205.386 110.323ZM227.457 110.201C227.457 111.332 227.327 112.337 227.066 113.216C226.806 114.087 226.432 114.819 225.943 115.413C225.455 116.015 224.857 116.471 224.149 116.78C223.441 117.09 222.631 117.244 221.72 117.244C220.816 117.244 220.007 117.094 219.291 116.792C218.574 116.483 217.968 116.023 217.472 115.413C216.975 114.819 216.597 114.087 216.336 113.216C216.076 112.337 215.946 111.332 215.946 110.201V106.038C215.946 104.907 216.076 103.906 216.336 103.035C216.597 102.156 216.975 101.416 217.472 100.813C217.96 100.211 218.558 99.7555 219.266 99.4463C219.982 99.1289 220.792 98.9702 221.695 98.9702C222.607 98.9702 223.417 99.1289 224.125 99.4463C224.841 99.7555 225.447 100.211 225.943 100.813C226.432 101.416 226.806 102.156 227.066 103.035C227.327 103.906 227.457 104.907 227.457 106.038V110.201ZM218.216 109.749L225.138 104.439C225.073 103.853 224.955 103.336 224.784 102.889C224.621 102.433 224.397 102.055 224.112 101.753C223.836 101.444 223.494 101.212 223.087 101.058C222.688 100.903 222.224 100.826 221.695 100.826C221.158 100.826 220.682 100.911 220.267 101.082C219.86 101.245 219.514 101.485 219.229 101.802C218.888 102.201 218.631 102.718 218.46 103.353C218.298 103.979 218.216 104.708 218.216 105.538V108.516C218.216 108.72 218.216 108.923 218.216 109.126C218.216 109.33 218.216 109.537 218.216 109.749ZM225.187 110.677V108.162C225.187 108.04 225.187 107.808 225.187 107.466C225.187 107.116 225.187 106.827 225.187 106.6L218.277 111.885C218.351 112.479 218.481 113.004 218.668 113.46C218.855 113.908 219.099 114.278 219.4 114.571C219.677 114.847 220.011 115.059 220.401 115.206C220.792 115.344 221.231 115.413 221.72 115.413C222.232 115.413 222.688 115.336 223.087 115.181C223.486 115.027 223.823 114.803 224.1 114.51C224.474 114.111 224.747 113.59 224.918 112.947C225.097 112.304 225.187 111.548 225.187 110.677ZM241.972 110.201C241.972 111.332 241.841 112.337 241.581 113.216C241.321 114.087 240.946 114.819 240.458 115.413C239.97 116.015 239.372 116.471 238.664 116.78C237.956 117.09 237.146 117.244 236.234 117.244C235.331 117.244 234.521 117.094 233.805 116.792C233.089 116.483 232.483 116.023 231.986 115.413C231.49 114.819 231.111 114.087 230.851 113.216C230.591 112.337 230.46 111.332 230.46 110.201V106.038C230.46 104.907 230.591 103.906 230.851 103.035C231.111 102.156 231.49 101.416 231.986 100.813C232.475 100.211 233.073 99.7555 233.781 99.4463C234.497 99.1289 235.307 98.9702 236.21 98.9702C237.121 98.9702 237.931 99.1289 238.639 99.4463C239.355 99.7555 239.962 100.211 240.458 100.813C240.946 101.416 241.321 102.156 241.581 103.035C241.841 103.906 241.972 104.907 241.972 106.038V110.201ZM232.731 109.749L239.652 104.439C239.587 103.853 239.469 103.336 239.298 102.889C239.136 102.433 238.912 102.055 238.627 101.753C238.35 101.444 238.008 101.212 237.602 101.058C237.203 100.903 236.739 100.826 236.21 100.826C235.673 100.826 235.197 100.911 234.782 101.082C234.375 101.245 234.029 101.485 233.744 101.802C233.402 102.201 233.146 102.718 232.975 103.353C232.812 103.979 232.731 104.708 232.731 105.538V108.516C232.731 108.72 232.731 108.923 232.731 109.126C232.731 109.33 232.731 109.537 232.731 109.749ZM239.701 110.677V108.162C239.701 108.04 239.701 107.808 239.701 107.466C239.701 107.116 239.701 106.827 239.701 106.6L232.792 111.885C232.865 112.479 232.995 113.004 233.183 113.46C233.37 113.908 233.614 114.278 233.915 114.571C234.192 114.847 234.525 115.059 234.916 115.206C235.307 115.344 235.746 115.413 236.234 115.413C236.747 115.413 237.203 115.336 237.602 115.181C238 115.027 238.338 114.803 238.615 114.51C238.989 114.111 239.262 113.59 239.433 112.947C239.612 112.304 239.701 111.548 239.701 110.677ZM253.654 99.2144V101.241H253.459C252.385 101.241 251.473 101.395 250.725 101.705C249.976 102.006 249.357 102.413 248.869 102.925C248.356 103.462 247.966 104.101 247.697 104.842C247.437 105.582 247.282 106.343 247.233 107.125C247.445 106.872 247.689 106.64 247.966 106.429C248.243 106.209 248.544 106.018 248.869 105.855C249.187 105.7 249.528 105.578 249.895 105.489C250.269 105.391 250.66 105.342 251.066 105.342C251.953 105.342 252.718 105.513 253.361 105.855C254.004 106.189 254.533 106.632 254.948 107.186C255.363 107.739 255.668 108.366 255.864 109.065C256.059 109.765 256.157 110.477 256.157 111.202C256.157 112.032 256.039 112.813 255.803 113.545C255.575 114.278 255.229 114.917 254.765 115.462C254.301 116.015 253.723 116.451 253.032 116.768C252.348 117.085 251.555 117.244 250.651 117.244C249.74 117.244 248.938 117.061 248.247 116.695C247.555 116.329 246.973 115.853 246.501 115.267C245.972 114.624 245.577 113.875 245.317 113.021C245.056 112.158 244.926 111.295 244.926 110.433V109.371C244.926 107.889 245.101 106.433 245.451 105C245.801 103.568 246.485 102.343 247.502 101.326C248.202 100.626 249.052 100.101 250.053 99.7515C251.054 99.3934 252.189 99.2144 253.459 99.2144H253.654ZM250.7 107.222C250.318 107.222 249.947 107.283 249.589 107.405C249.231 107.527 248.898 107.698 248.588 107.918C248.279 108.138 248.007 108.402 247.771 108.711C247.535 109.021 247.347 109.362 247.209 109.737V110.494C247.209 111.275 247.303 111.971 247.49 112.581C247.677 113.183 247.929 113.692 248.247 114.107C248.564 114.522 248.93 114.839 249.345 115.059C249.76 115.271 250.196 115.376 250.651 115.376C251.18 115.376 251.648 115.275 252.055 115.071C252.462 114.868 252.808 114.587 253.093 114.229C253.369 113.871 253.577 113.444 253.715 112.947C253.862 112.443 253.935 111.897 253.935 111.312C253.935 110.791 253.87 110.286 253.74 109.798C253.61 109.301 253.41 108.862 253.142 108.479C252.873 108.097 252.535 107.792 252.128 107.564C251.722 107.336 251.245 107.222 250.7 107.222ZM268.169 99.2144V101.241H267.974C266.899 101.241 265.988 101.395 265.239 101.705C264.491 102.006 263.872 102.413 263.384 102.925C262.871 103.462 262.48 104.101 262.212 104.842C261.951 105.582 261.797 106.343 261.748 107.125C261.96 106.872 262.204 106.64 262.48 106.429C262.757 106.209 263.058 106.018 263.384 105.855C263.701 105.7 264.043 105.578 264.409 105.489C264.784 105.391 265.174 105.342 265.581 105.342C266.468 105.342 267.233 105.513 267.876 105.855C268.519 106.189 269.048 106.632 269.463 107.186C269.878 107.739 270.183 108.366 270.378 109.065C270.574 109.765 270.671 110.477 270.671 111.202C270.671 112.032 270.553 112.813 270.317 113.545C270.09 114.278 269.744 114.917 269.28 115.462C268.816 116.015 268.238 116.451 267.546 116.768C266.863 117.085 266.069 117.244 265.166 117.244C264.255 117.244 263.453 117.061 262.761 116.695C262.069 116.329 261.488 115.853 261.016 115.267C260.487 114.624 260.092 113.875 259.832 113.021C259.571 112.158 259.441 111.295 259.441 110.433V109.371C259.441 107.889 259.616 106.433 259.966 105C260.316 103.568 260.999 102.343 262.017 101.326C262.716 100.626 263.567 100.101 264.568 99.7515C265.569 99.3934 266.704 99.2144 267.974 99.2144H268.169ZM265.215 107.222C264.832 107.222 264.462 107.283 264.104 107.405C263.746 107.527 263.412 107.698 263.103 107.918C262.794 108.138 262.521 108.402 262.285 108.711C262.049 109.021 261.862 109.362 261.724 109.737V110.494C261.724 111.275 261.817 111.971 262.004 112.581C262.192 113.183 262.444 113.692 262.761 114.107C263.079 114.522 263.445 114.839 263.86 115.059C264.275 115.271 264.71 115.376 265.166 115.376C265.695 115.376 266.163 115.275 266.57 115.071C266.977 114.868 267.323 114.587 267.607 114.229C267.884 113.871 268.092 113.444 268.23 112.947C268.376 112.443 268.45 111.897 268.45 111.312C268.45 110.791 268.385 110.286 268.254 109.798C268.124 109.301 267.925 108.862 267.656 108.479C267.388 108.097 267.05 107.792 266.643 107.564C266.236 107.336 265.76 107.222 265.215 107.222ZM284.246 109.151H276.849V117H274.566V99.2266H285.479V101.155H276.849V107.234H284.246V109.151ZM298.761 109.151H291.363V117H289.081V99.2266H299.994V101.155H291.363V107.234H298.761V109.151ZM307.819 104.842C307.819 104.362 307.965 103.951 308.258 103.609C308.551 103.267 308.995 103.096 309.589 103.096C310.175 103.096 310.618 103.267 310.919 103.609C311.229 103.943 311.383 104.354 311.383 104.842C311.383 105.322 311.229 105.725 310.919 106.05C310.61 106.376 310.167 106.539 309.589 106.539C309.003 106.539 308.559 106.376 308.258 106.05C307.965 105.717 307.819 105.314 307.819 104.842ZM310.724 116.475C310.724 117.289 310.533 118.119 310.15 118.965C309.768 119.812 309.251 120.524 308.6 121.102L307.196 120.333C307.587 119.763 307.864 119.157 308.026 118.514C308.189 117.871 308.271 117.203 308.271 116.512V114.327H310.724V116.475ZM105.81 148.413C106.217 148.413 106.612 148.348 106.994 148.218C107.385 148.088 107.731 147.904 108.032 147.668C108.333 147.441 108.573 147.172 108.752 146.863C108.939 146.545 109.037 146.204 109.045 145.837H111.181C111.173 146.423 111.018 146.985 110.717 147.522C110.424 148.051 110.03 148.515 109.533 148.914C109.037 149.32 108.467 149.646 107.824 149.89C107.181 150.126 106.51 150.244 105.81 150.244C104.809 150.244 103.934 150.065 103.186 149.707C102.437 149.349 101.814 148.865 101.318 148.254C100.813 147.652 100.435 146.956 100.183 146.167C99.9303 145.369 99.8042 144.531 99.8042 143.652V143.14C99.8042 142.269 99.9303 141.435 100.183 140.637C100.435 139.84 100.813 139.136 101.318 138.525C101.814 137.923 102.437 137.443 103.186 137.085C103.934 136.727 104.809 136.548 105.81 136.548C106.591 136.548 107.307 136.674 107.958 136.926C108.618 137.17 109.187 137.504 109.667 137.927C110.139 138.359 110.51 138.867 110.778 139.453C111.047 140.039 111.181 140.666 111.181 141.333H109.045C109.037 140.934 108.947 140.56 108.776 140.21C108.614 139.852 108.39 139.539 108.105 139.27C107.82 139.001 107.478 138.79 107.08 138.635C106.689 138.481 106.266 138.403 105.81 138.403C105.11 138.403 104.52 138.546 104.04 138.831C103.568 139.107 103.186 139.469 102.893 139.917C102.6 140.373 102.388 140.881 102.258 141.443C102.136 142.004 102.075 142.57 102.075 143.14V143.652C102.075 144.23 102.136 144.804 102.258 145.374C102.388 145.935 102.6 146.44 102.893 146.887C103.177 147.343 103.556 147.713 104.028 147.998C104.508 148.275 105.102 148.413 105.81 148.413ZM114.062 143.274C114.062 142.322 114.201 141.439 114.478 140.625C114.754 139.803 115.153 139.091 115.674 138.489C116.187 137.887 116.813 137.415 117.554 137.073C118.294 136.723 119.128 136.548 120.056 136.548C120.992 136.548 121.83 136.723 122.571 137.073C123.319 137.415 123.954 137.887 124.475 138.489C124.988 139.091 125.382 139.803 125.659 140.625C125.936 141.439 126.074 142.322 126.074 143.274V143.542C126.074 144.495 125.936 145.378 125.659 146.191C125.382 147.005 124.988 147.713 124.475 148.315C123.954 148.918 123.324 149.39 122.583 149.731C121.842 150.073 121.008 150.244 120.081 150.244C119.145 150.244 118.302 150.073 117.554 149.731C116.813 149.39 116.187 148.918 115.674 148.315C115.153 147.713 114.754 147.005 114.478 146.191C114.201 145.378 114.062 144.495 114.062 143.542V143.274ZM116.321 143.542C116.321 144.194 116.398 144.816 116.553 145.41C116.707 145.996 116.943 146.513 117.261 146.96C117.57 147.408 117.961 147.762 118.433 148.022C118.905 148.283 119.454 148.413 120.081 148.413C120.699 148.413 121.24 148.283 121.704 148.022C122.176 147.762 122.571 147.408 122.888 146.96C123.197 146.513 123.429 145.996 123.584 145.41C123.739 144.816 123.816 144.194 123.816 143.542V143.274C123.816 142.631 123.735 142.017 123.572 141.431C123.417 140.837 123.185 140.316 122.876 139.868C122.559 139.421 122.164 139.067 121.692 138.806C121.228 138.538 120.683 138.403 120.056 138.403C119.43 138.403 118.884 138.538 118.42 138.806C117.957 139.067 117.57 139.421 117.261 139.868C116.943 140.316 116.707 140.837 116.553 141.431C116.398 142.017 116.321 142.631 116.321 143.274V143.542ZM129.566 131.25H136.316V148.047H140.625V150H129.566V148.047H134.058V133.215H129.566V131.25ZM143.092 143.274C143.092 142.322 143.23 141.439 143.507 140.625C143.784 139.803 144.182 139.091 144.703 138.489C145.216 137.887 145.842 137.415 146.583 137.073C147.324 136.723 148.158 136.548 149.085 136.548C150.021 136.548 150.86 136.723 151.6 137.073C152.349 137.415 152.984 137.887 153.504 138.489C154.017 139.091 154.412 139.803 154.688 140.625C154.965 141.439 155.104 142.322 155.104 143.274V143.542C155.104 144.495 154.965 145.378 154.688 146.191C154.412 147.005 154.017 147.713 153.504 148.315C152.984 148.918 152.353 149.39 151.612 149.731C150.872 150.073 150.038 150.244 149.11 150.244C148.174 150.244 147.332 150.073 146.583 149.731C145.842 149.39 145.216 148.918 144.703 148.315C144.182 147.713 143.784 147.005 143.507 146.191C143.23 145.378 143.092 144.495 143.092 143.542V143.274ZM145.35 143.542C145.35 144.194 145.427 144.816 145.582 145.41C145.737 145.996 145.973 146.513 146.29 146.96C146.599 147.408 146.99 147.762 147.462 148.022C147.934 148.283 148.483 148.413 149.11 148.413C149.728 148.413 150.27 148.283 150.733 148.022C151.205 147.762 151.6 147.408 151.917 146.96C152.227 146.513 152.459 145.996 152.613 145.41C152.768 144.816 152.845 144.194 152.845 143.542V143.274C152.845 142.631 152.764 142.017 152.601 141.431C152.446 140.837 152.215 140.316 151.905 139.868C151.588 139.421 151.193 139.067 150.721 138.806C150.257 138.538 149.712 138.403 149.085 138.403C148.459 138.403 147.914 138.538 147.45 138.806C146.986 139.067 146.599 139.421 146.29 139.868C145.973 140.316 145.737 140.837 145.582 141.431C145.427 142.017 145.35 142.631 145.35 143.274V143.542ZM166.896 136.548C167.311 136.548 167.742 136.576 168.19 136.633C168.646 136.69 168.987 136.768 169.215 136.865L168.91 139.075C168.471 138.977 168.052 138.908 167.653 138.867C167.262 138.818 166.851 138.794 166.42 138.794C165.867 138.794 165.366 138.863 164.918 139.001C164.471 139.132 164.08 139.327 163.747 139.587C163.445 139.815 163.181 140.096 162.953 140.43C162.733 140.755 162.55 141.121 162.404 141.528V150H160.133V136.792H162.282L162.379 138.562L162.392 138.892C162.929 138.167 163.572 137.598 164.32 137.183C165.077 136.759 165.936 136.548 166.896 136.548ZM177.297 148.535C177.297 148.055 177.443 147.644 177.736 147.302C178.029 146.96 178.473 146.79 179.067 146.79C179.653 146.79 180.096 146.96 180.397 147.302C180.707 147.636 180.861 148.047 180.861 148.535C180.861 149.015 180.707 149.418 180.397 149.744C180.088 150.069 179.645 150.232 179.067 150.232C178.481 150.232 178.037 150.069 177.736 149.744C177.443 149.41 177.297 149.007 177.297 148.535ZM177.297 137.842C177.297 137.362 177.443 136.951 177.736 136.609C178.029 136.267 178.473 136.096 179.067 136.096C179.653 136.096 180.096 136.267 180.397 136.609C180.707 136.943 180.861 137.354 180.861 137.842C180.861 138.322 180.707 138.725 180.397 139.05C180.088 139.376 179.645 139.539 179.067 139.539C178.481 139.539 178.037 139.376 177.736 139.05C177.443 138.717 177.297 138.314 177.297 137.842ZM210.44 136.548C210.855 136.548 211.286 136.576 211.734 136.633C212.19 136.69 212.531 136.768 212.759 136.865L212.454 139.075C212.015 138.977 211.596 138.908 211.197 138.867C210.806 138.818 210.395 138.794 209.964 138.794C209.41 138.794 208.91 138.863 208.462 139.001C208.015 139.132 207.624 139.327 207.291 139.587C206.989 139.815 206.725 140.096 206.497 140.43C206.277 140.755 206.094 141.121 205.948 141.528V150H203.677V136.792H205.826L205.923 138.562L205.936 138.892C206.473 138.167 207.116 137.598 207.864 137.183C208.621 136.759 209.48 136.548 210.44 136.548ZM215.885 143.286C215.885 142.301 216.003 141.398 216.239 140.576C216.483 139.746 216.833 139.034 217.289 138.44C217.744 137.846 218.298 137.382 218.949 137.048C219.6 136.715 220.336 136.548 221.158 136.548C221.687 136.548 222.171 136.609 222.611 136.731C223.058 136.853 223.461 137.032 223.819 137.268C224.015 137.39 224.198 137.533 224.369 137.695C224.548 137.858 224.715 138.037 224.869 138.232L224.979 136.792H227.03V149.719C227.03 150.59 226.891 151.363 226.615 152.039C226.346 152.714 225.968 153.288 225.479 153.76C224.983 154.232 224.393 154.59 223.709 154.834C223.026 155.078 222.269 155.2 221.439 155.2C221.097 155.2 220.707 155.16 220.267 155.078C219.828 155.005 219.384 154.879 218.937 154.7C218.481 154.529 218.041 154.297 217.618 154.004C217.203 153.711 216.845 153.349 216.544 152.917L217.716 151.562C217.993 151.896 218.277 152.177 218.57 152.405C218.863 152.641 219.16 152.828 219.461 152.966C219.763 153.105 220.064 153.202 220.365 153.259C220.666 153.324 220.967 153.357 221.268 153.357C221.805 153.357 222.289 153.28 222.721 153.125C223.152 152.97 223.522 152.743 223.832 152.441C224.133 152.148 224.365 151.782 224.527 151.343C224.69 150.903 224.771 150.399 224.771 149.829V148.694C224.601 148.889 224.417 149.068 224.222 149.231C224.035 149.394 223.832 149.536 223.612 149.658C223.27 149.845 222.892 149.988 222.477 150.085C222.062 150.191 221.614 150.244 221.134 150.244C220.328 150.244 219.6 150.073 218.949 149.731C218.298 149.39 217.748 148.918 217.301 148.315C216.845 147.713 216.495 147.005 216.251 146.191C216.007 145.369 215.885 144.486 215.885 143.542V143.286ZM218.143 143.542C218.143 144.185 218.208 144.796 218.338 145.374C218.477 145.951 218.692 146.46 218.985 146.899C219.27 147.339 219.636 147.689 220.084 147.949C220.532 148.201 221.069 148.328 221.695 148.328C222.086 148.328 222.436 148.283 222.745 148.193C223.062 148.096 223.347 147.961 223.6 147.791C223.844 147.62 224.063 147.416 224.259 147.18C224.454 146.944 224.625 146.684 224.771 146.399V140.344C224.625 140.068 224.454 139.815 224.259 139.587C224.063 139.36 223.84 139.16 223.587 138.989C223.335 138.826 223.054 138.7 222.745 138.611C222.436 138.513 222.094 138.464 221.72 138.464C221.085 138.464 220.54 138.595 220.084 138.855C219.636 139.115 219.27 139.465 218.985 139.905C218.692 140.352 218.477 140.869 218.338 141.455C218.208 142.033 218.143 142.643 218.143 143.286V143.542ZM242.008 143.542C242.008 144.12 241.964 144.678 241.874 145.215C241.793 145.744 241.671 146.24 241.508 146.704C241.288 147.314 240.999 147.864 240.641 148.352C240.291 148.832 239.868 149.231 239.372 149.548C239.014 149.768 238.619 149.939 238.188 150.061C237.764 150.183 237.305 150.244 236.808 150.244C236.238 150.244 235.718 150.175 235.246 150.037C234.782 149.898 234.363 149.699 233.988 149.438C233.809 149.308 233.638 149.166 233.476 149.011C233.313 148.857 233.158 148.686 233.012 148.499L232.902 150H230.827V131.25H233.085V138.208C233.272 137.972 233.48 137.76 233.708 137.573C233.935 137.378 234.18 137.211 234.44 137.073C234.765 136.902 235.124 136.772 235.514 136.682C235.905 136.593 236.328 136.548 236.784 136.548C237.353 136.548 237.878 136.625 238.358 136.78C238.839 136.934 239.274 137.15 239.665 137.427C240.014 137.687 240.328 138.005 240.604 138.379C240.881 138.745 241.125 139.156 241.337 139.612C241.557 140.125 241.723 140.694 241.837 141.321C241.951 141.939 242.008 142.594 242.008 143.286V143.542ZM239.75 143.286C239.75 142.871 239.722 142.468 239.665 142.078C239.616 141.679 239.538 141.305 239.433 140.955C239.286 140.523 239.095 140.129 238.859 139.771C238.623 139.412 238.334 139.132 237.992 138.928C237.756 138.782 237.492 138.668 237.199 138.586C236.906 138.505 236.58 138.464 236.222 138.464C235.832 138.464 235.473 138.517 235.148 138.623C234.822 138.721 234.534 138.859 234.281 139.038C234.021 139.225 233.789 139.445 233.585 139.697C233.39 139.941 233.223 140.21 233.085 140.503V146.277C233.231 146.57 233.402 146.842 233.598 147.095C233.801 147.339 234.033 147.555 234.293 147.742C234.554 147.929 234.847 148.075 235.172 148.181C235.498 148.279 235.856 148.328 236.247 148.328C236.621 148.328 236.963 148.283 237.272 148.193C237.581 148.096 237.858 147.957 238.102 147.778C238.428 147.55 238.7 147.262 238.92 146.912C239.14 146.562 239.315 146.171 239.445 145.74C239.551 145.414 239.628 145.064 239.677 144.69C239.726 144.316 239.75 143.933 239.75 143.542V143.286ZM247.563 142.786C247.563 141.622 247.653 140.527 247.832 139.502C248.019 138.477 248.267 137.524 248.576 136.646C248.885 135.775 249.239 134.977 249.638 134.253C250.045 133.529 250.472 132.886 250.92 132.324C251.359 131.763 251.803 131.283 252.25 130.884C252.698 130.485 253.125 130.172 253.532 129.944L254.008 131.433C253.748 131.628 253.483 131.864 253.215 132.141C252.954 132.418 252.698 132.727 252.446 133.069C252.071 133.598 251.713 134.22 251.372 134.937C251.03 135.645 250.745 136.422 250.517 137.268C250.297 138.033 250.126 138.875 250.004 139.795C249.882 140.715 249.821 141.703 249.821 142.761V142.932C249.821 143.949 249.878 144.902 249.992 145.789C250.106 146.676 250.261 147.493 250.456 148.242C250.668 148.999 250.912 149.699 251.188 150.342C251.465 150.993 251.754 151.575 252.055 152.087C252.364 152.576 252.682 153.007 253.007 153.381C253.341 153.764 253.675 154.089 254.008 154.358L253.532 155.737C253.125 155.509 252.694 155.196 252.238 154.797C251.791 154.407 251.347 153.927 250.908 153.357C250.46 152.795 250.033 152.153 249.626 151.428C249.227 150.712 248.877 149.915 248.576 149.036C248.267 148.165 248.019 147.217 247.832 146.191C247.653 145.166 247.563 144.071 247.563 142.908V142.786ZM271.001 143.201C271.001 144.332 270.871 145.337 270.61 146.216C270.35 147.087 269.976 147.819 269.487 148.413C268.999 149.015 268.401 149.471 267.693 149.78C266.985 150.09 266.175 150.244 265.264 150.244C264.36 150.244 263.551 150.094 262.834 149.792C262.118 149.483 261.512 149.023 261.016 148.413C260.519 147.819 260.141 147.087 259.88 146.216C259.62 145.337 259.49 144.332 259.49 143.201V139.038C259.49 137.907 259.62 136.906 259.88 136.035C260.141 135.156 260.519 134.416 261.016 133.813C261.504 133.211 262.102 132.756 262.81 132.446C263.526 132.129 264.336 131.97 265.239 131.97C266.151 131.97 266.96 132.129 267.668 132.446C268.385 132.756 268.991 133.211 269.487 133.813C269.976 134.416 270.35 135.156 270.61 136.035C270.871 136.906 271.001 137.907 271.001 139.038V143.201ZM261.76 142.749L268.682 137.439C268.617 136.853 268.499 136.336 268.328 135.889C268.165 135.433 267.941 135.055 267.656 134.753C267.38 134.444 267.038 134.212 266.631 134.058C266.232 133.903 265.768 133.826 265.239 133.826C264.702 133.826 264.226 133.911 263.811 134.082C263.404 134.245 263.058 134.485 262.773 134.802C262.432 135.201 262.175 135.718 262.004 136.353C261.842 136.979 261.76 137.708 261.76 138.538V141.516C261.76 141.72 261.76 141.923 261.76 142.126C261.76 142.33 261.76 142.537 261.76 142.749ZM268.73 143.677V141.162C268.73 141.04 268.73 140.808 268.73 140.466C268.73 140.116 268.73 139.827 268.73 139.6L261.821 144.885C261.895 145.479 262.025 146.004 262.212 146.46C262.399 146.908 262.643 147.278 262.944 147.571C263.221 147.847 263.555 148.059 263.945 148.206C264.336 148.344 264.775 148.413 265.264 148.413C265.776 148.413 266.232 148.336 266.631 148.181C267.03 148.027 267.367 147.803 267.644 147.51C268.018 147.111 268.291 146.59 268.462 145.947C268.641 145.304 268.73 144.548 268.73 143.677ZM280.083 149.475C280.083 150.289 279.892 151.119 279.51 151.965C279.127 152.812 278.611 153.524 277.959 154.102L276.556 153.333C276.946 152.763 277.223 152.157 277.386 151.514C277.549 150.871 277.63 150.203 277.63 149.512V147.327H280.083V149.475ZM310.712 150H308.454V135.107L303.803 136.877V134.814L310.529 132.227H310.712V150ZM329.157 133.496L321.796 150H319.428L326.765 134.204H317.146V132.227H329.157V133.496ZM338.142 149.475C338.142 150.289 337.951 151.119 337.568 151.965C337.186 152.812 336.669 153.524 336.018 154.102L334.614 153.333C335.005 152.763 335.282 152.157 335.444 151.514C335.607 150.871 335.688 150.203 335.688 149.512V147.327H338.142V149.475ZM372.347 150H360.702V148.376L366.524 141.907C367.045 141.329 367.481 140.816 367.831 140.369C368.181 139.921 368.461 139.506 368.673 139.124C368.884 138.749 369.035 138.395 369.125 138.062C369.214 137.72 369.259 137.37 369.259 137.012C369.259 136.572 369.186 136.161 369.039 135.779C368.901 135.388 368.697 135.05 368.429 134.766C368.152 134.481 367.818 134.257 367.428 134.094C367.045 133.923 366.61 133.838 366.122 133.838C365.528 133.838 365.011 133.923 364.571 134.094C364.14 134.265 363.782 134.505 363.497 134.814C363.204 135.132 362.984 135.514 362.838 135.962C362.7 136.41 362.63 136.91 362.63 137.463H360.36C360.36 136.715 360.49 136.011 360.75 135.352C361.011 134.684 361.389 134.102 361.886 133.606C362.374 133.11 362.972 132.715 363.68 132.422C364.396 132.129 365.21 131.982 366.122 131.982C366.96 131.982 367.713 132.109 368.38 132.361C369.055 132.605 369.625 132.947 370.089 133.386C370.553 133.826 370.907 134.347 371.151 134.949C371.403 135.551 371.529 136.206 371.529 136.914C371.529 137.443 371.44 137.968 371.261 138.489C371.082 139.001 370.842 139.51 370.541 140.015C370.231 140.519 369.873 141.02 369.466 141.516C369.068 142.004 368.644 142.493 368.197 142.981L363.424 148.157H372.347V150ZM376.767 141.089L377.658 132.227H386.776V134.424H379.562L379.062 139.16C379.411 138.957 379.831 138.778 380.319 138.623C380.807 138.468 381.373 138.391 382.016 138.391C382.838 138.391 383.574 138.534 384.225 138.818C384.876 139.103 385.43 139.502 385.885 140.015C386.341 140.535 386.691 141.162 386.935 141.895C387.179 142.627 387.301 143.441 387.301 144.336C387.301 145.182 387.187 145.968 386.959 146.692C386.732 147.416 386.39 148.039 385.934 148.56C385.47 149.089 384.888 149.504 384.188 149.805C383.489 150.098 382.667 150.244 381.723 150.244C380.998 150.244 380.315 150.142 379.672 149.939C379.029 149.736 378.459 149.43 377.963 149.023C377.458 148.617 377.043 148.104 376.718 147.485C376.4 146.867 376.201 146.147 376.12 145.325H378.268C378.406 146.334 378.777 147.099 379.379 147.62C379.989 148.14 380.771 148.401 381.723 148.401C382.26 148.401 382.736 148.307 383.151 148.12C383.566 147.925 383.916 147.648 384.201 147.29C384.477 146.94 384.685 146.517 384.823 146.021C384.97 145.524 385.043 144.971 385.043 144.36C385.043 143.807 384.962 143.29 384.799 142.81C384.644 142.33 384.416 141.911 384.115 141.553C383.814 141.203 383.444 140.926 383.004 140.723C382.565 140.519 382.06 140.417 381.491 140.417C381.116 140.417 380.791 140.446 380.514 140.503C380.246 140.552 380.001 140.625 379.782 140.723C379.562 140.82 379.354 140.938 379.159 141.077C378.972 141.215 378.777 141.374 378.573 141.553L376.767 141.089ZM391.281 141.089L392.172 132.227H401.291V134.424H394.077L393.576 139.16C393.926 138.957 394.345 138.778 394.833 138.623C395.322 138.468 395.887 138.391 396.53 138.391C397.352 138.391 398.089 138.534 398.74 138.818C399.391 139.103 399.944 139.502 400.4 140.015C400.856 140.535 401.206 141.162 401.45 141.895C401.694 142.627 401.816 143.441 401.816 144.336C401.816 145.182 401.702 145.968 401.474 146.692C401.246 147.416 400.904 148.039 400.449 148.56C399.985 149.089 399.403 149.504 398.703 149.805C398.003 150.098 397.181 150.244 396.237 150.244C395.513 150.244 394.829 150.142 394.187 149.939C393.544 149.736 392.974 149.43 392.478 149.023C391.973 148.617 391.558 148.104 391.232 147.485C390.915 146.867 390.716 146.147 390.634 145.325H392.783C392.921 146.334 393.291 147.099 393.894 147.62C394.504 148.14 395.285 148.401 396.237 148.401C396.774 148.401 397.25 148.307 397.666 148.12C398.081 147.925 398.431 147.648 398.715 147.29C398.992 146.94 399.2 146.517 399.338 146.021C399.484 145.524 399.558 144.971 399.558 144.36C399.558 143.807 399.476 143.29 399.313 142.81C399.159 142.33 398.931 141.911 398.63 141.553C398.329 141.203 397.958 140.926 397.519 140.723C397.08 140.519 396.575 140.417 396.005 140.417C395.631 140.417 395.306 140.446 395.029 140.503C394.76 140.552 394.516 140.625 394.296 140.723C394.077 140.82 393.869 140.938 393.674 141.077C393.487 141.215 393.291 141.374 393.088 141.553L391.281 141.089ZM413.23 142.908C413.23 144.071 413.136 145.166 412.949 146.191C412.77 147.217 412.526 148.165 412.217 149.036C411.908 149.915 411.549 150.712 411.143 151.428C410.744 152.153 410.325 152.795 409.885 153.357C409.438 153.927 408.986 154.407 408.53 154.797C408.083 155.196 407.655 155.509 407.249 155.737L406.772 154.358C407.114 154.106 407.46 153.78 407.81 153.381C408.16 152.983 408.494 152.523 408.811 152.002C409.112 151.473 409.401 150.875 409.678 150.208C409.963 149.548 410.194 148.824 410.374 148.035C410.561 147.302 410.703 146.513 410.801 145.667C410.907 144.812 410.959 143.901 410.959 142.932V142.761C410.959 141.663 410.89 140.666 410.752 139.771C410.622 138.875 410.475 138.114 410.312 137.488C410.076 136.593 409.792 135.791 409.458 135.083C409.124 134.367 408.783 133.744 408.433 133.215C408.164 132.8 407.887 132.438 407.603 132.129C407.318 131.812 407.041 131.543 406.772 131.323L407.249 129.944C407.655 130.172 408.087 130.485 408.542 130.884C408.998 131.283 409.446 131.763 409.885 132.324C410.341 132.902 410.768 133.545 411.167 134.253C411.566 134.961 411.916 135.758 412.217 136.646C412.51 137.5 412.75 138.428 412.937 139.429C413.132 140.422 413.23 141.541 413.23 142.786V142.908ZM423.936 137.842C423.936 137.362 424.083 136.951 424.375 136.609C424.668 136.267 425.112 136.096 425.706 136.096C426.292 136.096 426.736 136.267 427.037 136.609C427.346 136.943 427.5 137.354 427.5 137.842C427.5 138.322 427.346 138.725 427.037 139.05C426.727 139.376 426.284 139.539 425.706 139.539C425.12 139.539 424.677 139.376 424.375 139.05C424.083 138.717 423.936 138.314 423.936 137.842ZM426.841 149.475C426.841 150.289 426.65 151.119 426.268 151.965C425.885 152.812 425.368 153.524 424.717 154.102L423.313 153.333C423.704 152.763 423.981 152.157 424.144 151.514C424.306 150.871 424.388 150.203 424.388 149.512V147.327H426.841V149.475ZM43.9429 186.064C44.4393 186.048 44.8543 185.909 45.188 185.649C45.5216 185.389 45.7902 185.055 45.9937 184.648C46.189 184.249 46.3273 183.798 46.4087 183.293C46.4982 182.797 46.543 182.296 46.543 181.792V179.729C46.543 179.086 46.6366 178.492 46.8237 177.946C47.019 177.401 47.3161 176.929 47.7148 176.53C47.9264 176.319 48.1624 176.127 48.4229 175.957C48.6914 175.786 48.9844 175.635 49.3018 175.505C48.9762 175.375 48.6751 175.22 48.3984 175.041C48.1299 174.862 47.8939 174.663 47.6904 174.443C47.2998 174.036 47.0109 173.564 46.8237 173.027C46.6366 172.482 46.543 171.892 46.543 171.257V169.182C46.543 168.685 46.5145 168.185 46.4575 167.68C46.4087 167.176 46.2988 166.72 46.1279 166.313C45.9489 165.914 45.6885 165.585 45.3467 165.324C45.0049 165.064 44.541 164.925 43.9551 164.909L44.1992 163.505C44.9886 163.53 45.6641 163.697 46.2256 164.006C46.7952 164.315 47.2632 164.718 47.6294 165.214C48.0444 165.776 48.3415 166.407 48.5205 167.106C48.7077 167.806 48.8013 168.498 48.8013 169.182V171.257C48.8013 171.745 48.846 172.176 48.9355 172.551C49.0332 172.917 49.1756 173.234 49.3628 173.503C49.6313 173.885 50.0016 174.166 50.4736 174.345C50.9538 174.516 51.5275 174.602 52.1948 174.602V176.372C51.6089 176.38 51.0962 176.453 50.6567 176.591C50.2254 176.722 49.8714 176.929 49.5947 177.214C49.3262 177.491 49.1268 177.836 48.9966 178.251C48.8664 178.667 48.8013 179.159 48.8013 179.729V181.792C48.8013 182.443 48.7118 183.098 48.5327 183.757C48.3537 184.424 48.077 185.03 47.7026 185.576C47.3201 186.121 46.84 186.569 46.2622 186.918C45.6844 187.268 44.9967 187.451 44.1992 187.468L43.9429 186.064Z" fill="white"/>
</svg>
