<svg width="329" height="144" viewBox="0 0 329 144" fill="none" xmlns="http://www.w3.org/2000/svg">
<rect width="329" height="144" rx="20" fill="#0066FF" fill-opacity="0.2"/>
<rect x="1.5" y="1.5" width="326" height="141" rx="18.5" stroke="#0066FF" stroke-opacity="0.5" stroke-width="3"/>
<path d="M46.0547 49.5352C46.0547 49.055 46.2012 48.644 46.4941 48.3022C46.7871 47.9604 47.2306 47.7896 47.8247 47.7896C48.4106 47.7896 48.8542 47.9604 49.1553 48.3022C49.4645 48.6359 49.6191 49.0469 49.6191 49.5352C49.6191 50.0153 49.4645 50.4181 49.1553 50.7437C48.846 51.0692 48.4025 51.2319 47.8247 51.2319C47.2388 51.2319 46.7952 51.0692 46.4941 50.7437C46.2012 50.41 46.0547 50.0072 46.0547 49.5352ZM211.6 55.4678C210.81 55.4434 210.127 55.2603 209.549 54.9185C208.971 54.5767 208.491 54.125 208.108 53.5635C207.742 53.0264 207.465 52.4242 207.278 51.7568C207.091 51.0977 206.998 50.4425 206.998 49.7915V47.7285C206.998 46.5566 206.717 45.7062 206.155 45.1772C205.602 44.6483 204.751 44.3797 203.604 44.3716V42.6016C204.751 42.6016 205.602 42.3411 206.155 41.8203C206.717 41.2913 206.998 40.4368 206.998 39.2568V37.1816C206.998 36.5225 207.083 35.8511 207.254 35.1675C207.433 34.4757 207.714 33.8573 208.096 33.312C208.454 32.7912 208.922 32.368 209.5 32.0425C210.078 31.7088 210.778 31.5298 211.6 31.5054L211.856 32.9092C211.27 32.9255 210.802 33.0638 210.452 33.3242C210.11 33.5846 209.854 33.9142 209.683 34.313C209.504 34.7199 209.39 35.1756 209.341 35.6802C209.292 36.1847 209.268 36.6852 209.268 37.1816V39.2568C209.268 40.2334 209.04 41.092 208.584 41.8325C208.137 42.5649 207.441 43.1224 206.497 43.5049C207.441 43.8792 208.137 44.4367 208.584 45.1772C209.032 45.9097 209.26 46.7601 209.268 47.7285V49.7915C209.268 50.2961 209.309 50.7965 209.39 51.293C209.472 51.7975 209.614 52.2492 209.817 52.6479C210.013 53.0549 210.273 53.3885 210.599 53.6489C210.932 53.9093 211.351 54.0477 211.856 54.064L211.6 55.4678ZM70.7261 77.2861C70.7261 76.3014 70.8481 75.3981 71.0923 74.5762C71.3446 73.7461 71.7026 73.034 72.1665 72.4399C72.6222 71.8459 73.1756 71.382 73.8267 71.0483C74.4777 70.7147 75.2061 70.5479 76.0117 70.5479C76.8011 70.5479 77.4888 70.6821 78.0747 70.9507C78.6688 71.2111 79.1815 71.5936 79.6128 72.0981V65.25H81.8711V84H79.7959L79.6982 82.6084C79.2588 83.1455 78.7339 83.5524 78.1235 83.8291C77.5132 84.1058 76.8011 84.2441 75.9873 84.2441C75.1898 84.2441 74.4655 84.0732 73.8145 83.7314C73.1715 83.3896 72.6222 82.9176 72.1665 82.3154C71.7108 81.7132 71.3568 81.0052 71.1045 80.1914C70.8522 79.3695 70.7261 78.4865 70.7261 77.5425V77.2861ZM72.9844 77.5425C72.9844 78.1854 73.0535 78.7957 73.1919 79.3735C73.3302 79.9513 73.5459 80.46 73.8389 80.8994C74.1237 81.3389 74.4899 81.6888 74.9375 81.9492C75.3851 82.2015 75.9222 82.3276 76.5488 82.3276C77.3057 82.3276 77.9323 82.1567 78.4287 81.8149C78.9251 81.4731 79.3198 81.0133 79.6128 80.4355V74.3076C79.3198 73.7705 78.9251 73.3311 78.4287 72.9893C77.9323 72.6393 77.3138 72.4644 76.5732 72.4644C75.9385 72.4644 75.3932 72.5946 74.9375 72.855C74.4899 73.1154 74.1237 73.4653 73.8389 73.9048C73.5459 74.3524 73.3302 74.8691 73.1919 75.4551C73.0535 76.0329 72.9844 76.6432 72.9844 77.2861V77.5425ZM86.022 70.792H92.7725V82.0469H97.0815V84H86.022V82.0469H90.5142V72.7573H86.022V70.792ZM90.2212 67.3252C90.2212 67.1299 90.2497 66.9468 90.3066 66.7759C90.3717 66.605 90.4694 66.4585 90.5996 66.3364C90.7054 66.2306 90.8397 66.1493 91.0024 66.0923C91.1733 66.0272 91.3646 65.9946 91.5762 65.9946C91.7878 65.9946 91.9749 66.0272 92.1377 66.0923C92.3005 66.1493 92.4347 66.2306 92.5405 66.3364C92.6707 66.4504 92.7684 66.5928 92.8335 66.7637C92.8986 66.9346 92.9312 67.1217 92.9312 67.3252C92.9312 67.6914 92.8172 67.9966 92.5894 68.2407C92.3615 68.4849 92.0238 68.6069 91.5762 68.6069C91.1204 68.6069 90.7786 68.4849 90.5508 68.2407C90.3311 67.9966 90.2212 67.6914 90.2212 67.3252ZM108.959 80.4966C108.959 80.228 108.907 79.988 108.801 79.7764C108.695 79.5566 108.516 79.3573 108.264 79.1782C108.011 78.9992 107.678 78.8364 107.263 78.6899C106.848 78.5353 106.331 78.397 105.712 78.2749C104.956 78.1203 104.264 77.9331 103.637 77.7134C103.019 77.4937 102.49 77.2292 102.05 76.9199C101.603 76.6188 101.257 76.2648 101.013 75.8579C100.769 75.4429 100.646 74.9627 100.646 74.4175C100.646 73.8804 100.773 73.3799 101.025 72.916C101.277 72.444 101.631 72.033 102.087 71.6831C102.543 71.3332 103.084 71.0565 103.71 70.853C104.345 70.6496 105.041 70.5479 105.798 70.5479C106.612 70.5479 107.344 70.6536 107.995 70.8652C108.646 71.0768 109.2 71.3698 109.655 71.7441C110.111 72.1185 110.461 72.5579 110.705 73.0625C110.957 73.5589 111.083 74.096 111.083 74.6738H108.825C108.825 74.389 108.752 74.1123 108.605 73.8438C108.459 73.5671 108.256 73.3229 107.995 73.1113C107.735 72.8997 107.417 72.7288 107.043 72.5986C106.677 72.4684 106.262 72.4033 105.798 72.4033C105.318 72.4033 104.895 72.4562 104.528 72.562C104.17 72.6678 103.873 72.8102 103.637 72.9893C103.393 73.1683 103.21 73.3758 103.088 73.6118C102.966 73.8478 102.905 74.092 102.905 74.3442C102.905 74.6047 102.954 74.8366 103.051 75.04C103.149 75.2435 103.32 75.4266 103.564 75.5894C103.8 75.7521 104.117 75.8986 104.516 76.0288C104.923 76.159 105.436 76.2852 106.054 76.4072C106.868 76.5781 107.596 76.7775 108.239 77.0054C108.882 77.2251 109.423 77.4896 109.863 77.7988C110.302 78.1162 110.636 78.4824 110.864 78.8975C111.1 79.3125 111.218 79.7926 111.218 80.3379C111.218 80.9238 111.083 81.4569 110.815 81.937C110.555 82.4172 110.188 82.8281 109.716 83.1699C109.244 83.5117 108.679 83.7762 108.02 83.9634C107.36 84.1506 106.64 84.2441 105.859 84.2441C104.964 84.2441 104.166 84.1261 103.466 83.8901C102.766 83.646 102.176 83.3245 101.696 82.9258C101.208 82.5352 100.834 82.0794 100.573 81.5586C100.321 81.0378 100.195 80.4966 100.195 79.9351H102.453C102.486 80.3989 102.608 80.7896 102.819 81.1069C103.039 81.4243 103.312 81.6807 103.637 81.876C103.955 82.0713 104.309 82.2096 104.699 82.291C105.09 82.3724 105.476 82.4131 105.859 82.4131C106.461 82.4131 106.986 82.3439 107.434 82.2056C107.881 82.0591 108.231 81.8597 108.483 81.6074C108.638 81.4528 108.756 81.2819 108.837 81.0947C108.919 80.9076 108.959 80.7082 108.959 80.4966ZM114.685 89.0781V70.792H116.748L116.858 72.2324C117.037 72.0046 117.232 71.8011 117.444 71.6221C117.655 71.4349 117.883 71.2762 118.127 71.146C118.469 70.9507 118.848 70.8042 119.263 70.7065C119.686 70.6007 120.138 70.5479 120.618 70.5479C121.464 70.5479 122.213 70.7147 122.864 71.0483C123.515 71.382 124.06 71.8459 124.5 72.4399C124.939 73.034 125.273 73.7461 125.5 74.5762C125.728 75.3981 125.842 76.3014 125.842 77.2861V77.5425C125.842 78.4865 125.728 79.3695 125.5 80.1914C125.273 81.0052 124.939 81.7132 124.5 82.3154C124.06 82.9176 123.515 83.3896 122.864 83.7314C122.221 84.0732 121.484 84.2441 120.654 84.2441C120.15 84.2441 119.678 84.1912 119.238 84.0854C118.807 83.9797 118.416 83.8291 118.066 83.6338C117.855 83.5117 117.655 83.3774 117.468 83.231C117.281 83.0763 117.106 82.9095 116.943 82.7305V89.0781H114.685ZM123.584 77.2861C123.584 76.6432 123.511 76.0329 123.364 75.4551C123.226 74.8691 123.01 74.3524 122.717 73.9048C122.416 73.4653 122.038 73.1154 121.582 72.855C121.126 72.5946 120.581 72.4644 119.946 72.4644C119.596 72.4644 119.271 72.505 118.97 72.5864C118.677 72.6678 118.412 72.7858 118.176 72.9404C117.916 73.0951 117.684 73.2863 117.48 73.5142C117.277 73.742 117.098 73.9943 116.943 74.271V80.6309C117.082 80.875 117.24 81.1029 117.419 81.3145C117.598 81.526 117.802 81.7051 118.03 81.8516C118.29 82.0225 118.579 82.1567 118.896 82.2544C119.222 82.3521 119.58 82.4009 119.971 82.4009C120.597 82.4009 121.139 82.2707 121.594 82.0103C122.05 81.7417 122.424 81.3836 122.717 80.936C123.01 80.4884 123.226 79.9717 123.364 79.3857C123.511 78.7998 123.584 78.1854 123.584 77.5425V77.2861ZM129.566 65.25H136.316V82.0469H140.625V84H129.566V82.0469H134.058V67.2153H129.566V65.25ZM152.406 84C152.316 83.8291 152.243 83.6175 152.186 83.3652C152.137 83.1048 152.101 82.8363 152.076 82.5596C151.848 82.7874 151.592 83.0031 151.307 83.2065C151.03 83.41 150.725 83.589 150.392 83.7437C150.05 83.8983 149.688 84.0203 149.305 84.1099C148.923 84.1994 148.516 84.2441 148.084 84.2441C147.385 84.2441 146.75 84.1424 146.18 83.939C145.619 83.7355 145.143 83.4588 144.752 83.1089C144.353 82.7671 144.044 82.3602 143.824 81.8882C143.613 81.408 143.507 80.8913 143.507 80.3379C143.507 79.6136 143.649 78.9788 143.934 78.4336C144.227 77.8883 144.638 77.4326 145.167 77.0664C145.696 76.7083 146.331 76.4398 147.071 76.2607C147.82 76.0817 148.654 75.9922 149.574 75.9922H152.04V74.9546C152.04 74.5558 151.966 74.1978 151.82 73.8804C151.673 73.563 151.466 73.2904 151.197 73.0625C150.929 72.8428 150.599 72.6719 150.208 72.5498C149.826 72.4277 149.395 72.3667 148.915 72.3667C148.467 72.3667 148.064 72.4237 147.706 72.5376C147.356 72.6515 147.059 72.8021 146.815 72.9893C146.571 73.1764 146.38 73.4002 146.241 73.6606C146.111 73.9129 146.046 74.1774 146.046 74.4541H143.775C143.784 73.974 143.906 73.502 144.142 73.0381C144.386 72.5742 144.736 72.1551 145.191 71.7808C145.639 71.4146 146.184 71.1175 146.827 70.8896C147.478 70.6618 148.215 70.5479 149.037 70.5479C149.785 70.5479 150.481 70.6414 151.124 70.8286C151.767 71.0076 152.324 71.2803 152.796 71.6465C153.26 72.0208 153.626 72.4847 153.895 73.0381C154.164 73.5915 154.298 74.2384 154.298 74.979V81.1191C154.298 81.5586 154.339 82.0265 154.42 82.5229C154.501 83.0112 154.615 83.4385 154.762 83.8047V84H152.406ZM148.414 82.2788C148.854 82.2788 149.264 82.2218 149.647 82.1079C150.029 81.994 150.379 81.8434 150.697 81.6562C151.006 81.4691 151.275 81.2575 151.502 81.0215C151.73 80.7773 151.909 80.5251 152.04 80.2646V77.5913H149.94C149.159 77.5913 148.475 77.6605 147.889 77.7988C147.311 77.929 146.852 78.1325 146.51 78.4092C146.266 78.6045 146.078 78.8364 145.948 79.105C145.826 79.3735 145.765 79.6787 145.765 80.0205C145.765 80.346 145.818 80.6471 145.924 80.9238C146.038 81.2005 146.205 81.4365 146.424 81.6318C146.644 81.8353 146.921 81.994 147.254 82.1079C147.588 82.2218 147.975 82.2788 148.414 82.2788ZM159.303 89.3345C159.092 89.3345 158.843 89.3101 158.559 89.2612C158.274 89.2124 158.058 89.1717 157.912 89.1392L158.278 87.2959C158.481 87.3122 158.681 87.3244 158.876 87.3325C159.079 87.3488 159.238 87.3569 159.352 87.3569C159.661 87.3569 159.942 87.2715 160.194 87.1006C160.455 86.9297 160.687 86.7262 160.89 86.4902C161.085 86.2542 161.252 86.0101 161.391 85.7578C161.537 85.5055 161.651 85.298 161.732 85.1353L162.636 83.3774L156.947 70.792H159.474L163.1 79.3125L163.686 80.9116L164.308 79.3613L167.714 70.792H170.241L163.539 86.0386C163.384 86.3804 163.185 86.7425 162.941 87.125C162.705 87.5075 162.416 87.8615 162.074 88.187C161.732 88.5125 161.334 88.7852 160.878 89.0049C160.422 89.2246 159.897 89.3345 159.303 89.3345ZM177.297 82.5352C177.297 82.055 177.443 81.644 177.736 81.3022C178.029 80.9604 178.473 80.7896 179.067 80.7896C179.653 80.7896 180.096 80.9604 180.397 81.3022C180.707 81.6359 180.861 82.0469 180.861 82.5352C180.861 83.0153 180.707 83.4181 180.397 83.7437C180.088 84.0692 179.645 84.2319 179.067 84.2319C178.481 84.2319 178.037 84.0692 177.736 83.7437C177.443 83.41 177.297 83.0072 177.297 82.5352ZM177.297 71.8418C177.297 71.3617 177.443 70.9507 177.736 70.6089C178.029 70.2671 178.473 70.0962 179.067 70.0962C179.653 70.0962 180.096 70.2671 180.397 70.6089C180.707 70.9425 180.861 71.3535 180.861 71.8418C180.861 72.3219 180.707 72.7248 180.397 73.0503C180.088 73.3758 179.645 73.5386 179.067 73.5386C178.481 73.5386 178.037 73.3758 177.736 73.0503C177.443 72.7166 177.297 72.3138 177.297 71.8418ZM205.154 84V72.5376H201.517V70.792H205.154V69.8643C205.154 69.0179 205.276 68.2773 205.521 67.6426C205.773 66.9997 206.127 66.4626 206.583 66.0312C207.03 65.5999 207.571 65.2744 208.206 65.0547C208.841 64.835 209.549 64.7251 210.33 64.7251C210.656 64.7251 210.977 64.7454 211.294 64.7861C211.612 64.8187 211.925 64.8634 212.234 64.9204C212.438 64.9611 212.641 65.0059 212.845 65.0547C213.048 65.0954 213.256 65.1442 213.467 65.2012L213.199 67.0688C212.865 66.9549 212.474 66.8573 212.027 66.7759C211.587 66.6864 211.115 66.6416 210.611 66.6416C210.098 66.6416 209.642 66.7067 209.244 66.8369C208.853 66.959 208.528 67.1462 208.267 67.3984C207.99 67.6589 207.779 67.9966 207.632 68.4116C207.494 68.8267 207.425 69.3109 207.425 69.8643V70.792H212.515V72.5376H207.425V84H205.154ZM216.654 65.25H223.404V82.0469H227.713V84H216.654V82.0469H221.146V67.2153H216.654V65.25ZM236.649 84.2441C235.722 84.2441 234.867 84.0854 234.086 83.7681C233.313 83.4507 232.65 83.0072 232.096 82.4375C231.543 81.8678 231.111 81.1924 230.802 80.4111C230.493 79.6299 230.338 78.7795 230.338 77.8599V77.3472C230.338 76.2811 230.509 75.3289 230.851 74.4907C231.193 73.6444 231.649 72.9282 232.218 72.3423C232.78 71.7645 233.419 71.321 234.135 71.0117C234.859 70.7025 235.6 70.5479 236.356 70.5479C237.309 70.5479 238.139 70.7147 238.847 71.0483C239.563 71.3739 240.157 71.8255 240.629 72.4033C241.101 72.9893 241.451 73.6769 241.679 74.4663C241.915 75.2557 242.033 76.1102 242.033 77.0298V78.043H232.597V78.1284C232.654 78.7713 232.78 79.3369 232.975 79.8252C233.179 80.3135 233.455 80.7448 233.805 81.1191C234.163 81.5179 234.595 81.8312 235.099 82.0591C235.604 82.2869 236.161 82.4009 236.771 82.4009C237.577 82.4009 238.293 82.2381 238.92 81.9126C239.547 81.5871 240.067 81.1558 240.482 80.6187L241.862 81.6929C241.422 82.3602 240.763 82.9543 239.884 83.4751C239.014 83.9878 237.935 84.2441 236.649 84.2441ZM236.356 72.4033C235.901 72.4033 235.469 72.4888 235.062 72.6597C234.656 72.8224 234.289 73.0625 233.964 73.3799C233.638 73.7054 233.362 74.1042 233.134 74.5762C232.914 75.04 232.759 75.5771 232.67 76.1875H239.774V76.0776C239.774 75.6707 239.697 75.2354 239.542 74.7715C239.388 74.2995 239.172 73.8926 238.896 73.5508C238.619 73.209 238.269 72.9323 237.846 72.7207C237.431 72.5091 236.934 72.4033 236.356 72.4033ZM250.786 75.687L254.313 70.792H256.962L252.043 77.3228L257.097 84H254.484L250.834 78.9707L247.185 84H244.548L249.602 77.3228L244.682 70.792H247.294L250.786 75.687ZM264.275 71.8418C264.275 71.3617 264.421 70.9507 264.714 70.6089C265.007 70.2671 265.451 70.0962 266.045 70.0962C266.631 70.0962 267.074 70.2671 267.375 70.6089C267.685 70.9425 267.839 71.3535 267.839 71.8418C267.839 72.3219 267.685 72.7248 267.375 73.0503C267.066 73.3758 266.623 73.5386 266.045 73.5386C265.459 73.5386 265.015 73.3758 264.714 73.0503C264.421 72.7166 264.275 72.3138 264.275 71.8418ZM267.18 83.4751C267.18 84.2889 266.989 85.119 266.606 85.9653C266.224 86.8117 265.707 87.5238 265.056 88.1016L263.652 87.3325C264.043 86.7629 264.32 86.1566 264.482 85.5137C264.645 84.8708 264.727 84.2035 264.727 83.5117V81.3267H267.18V83.4751ZM43.9429 120.064C44.4393 120.048 44.8543 119.909 45.188 119.649C45.5216 119.389 45.7902 119.055 45.9937 118.648C46.189 118.249 46.3273 117.798 46.4087 117.293C46.4982 116.797 46.543 116.296 46.543 115.792V113.729C46.543 113.086 46.6366 112.492 46.8237 111.946C47.019 111.401 47.3161 110.929 47.7148 110.53C47.9264 110.319 48.1624 110.127 48.4229 109.957C48.6914 109.786 48.9844 109.635 49.3018 109.505C48.9762 109.375 48.6751 109.22 48.3984 109.041C48.1299 108.862 47.8939 108.663 47.6904 108.443C47.2998 108.036 47.0109 107.564 46.8237 107.027C46.6366 106.482 46.543 105.892 46.543 105.257V103.182C46.543 102.685 46.5145 102.185 46.4575 101.68C46.4087 101.176 46.2988 100.72 46.1279 100.313C45.9489 99.9142 45.6885 99.5846 45.3467 99.3242C45.0049 99.0638 44.541 98.9255 43.9551 98.9092L44.1992 97.5054C44.9886 97.5298 45.6641 97.6966 46.2256 98.0059C46.7952 98.3151 47.2632 98.7179 47.6294 99.2144C48.0444 99.7759 48.3415 100.407 48.5205 101.106C48.7077 101.806 48.8013 102.498 48.8013 103.182V105.257C48.8013 105.745 48.846 106.176 48.9355 106.551C49.0332 106.917 49.1756 107.234 49.3628 107.503C49.6313 107.885 50.0016 108.166 50.4736 108.345C50.9538 108.516 51.5275 108.602 52.1948 108.602V110.372C51.6089 110.38 51.0962 110.453 50.6567 110.591C50.2254 110.722 49.8714 110.929 49.5947 111.214C49.3262 111.491 49.1268 111.836 48.9966 112.251C48.8664 112.667 48.8013 113.159 48.8013 113.729V115.792C48.8013 116.443 48.7118 117.098 48.5327 117.757C48.3537 118.424 48.077 119.03 47.7026 119.576C47.3201 120.121 46.84 120.569 46.2622 120.918C45.6844 121.268 44.9967 121.451 44.1992 121.468L43.9429 120.064Z" fill="white"/>
<path d="M62.2661 49.4131C62.673 49.4131 63.0677 49.348 63.4502 49.2178C63.8408 49.0876 64.1867 48.9045 64.4878 48.6685C64.7889 48.4406 65.029 48.172 65.208 47.8628C65.3952 47.5454 65.4928 47.2036 65.501 46.8374H67.6372C67.6291 47.4233 67.4744 47.9849 67.1733 48.522C66.8804 49.0509 66.4857 49.5148 65.9893 49.9136C65.4928 50.3205 64.9232 50.646 64.2803 50.8901C63.6374 51.1261 62.966 51.2441 62.2661 51.2441C61.2651 51.2441 60.3903 51.0651 59.6416 50.707C58.8929 50.349 58.2703 49.8647 57.7739 49.2544C57.2694 48.6522 56.891 47.9564 56.6387 47.167C56.3864 46.3695 56.2603 45.5312 56.2603 44.6523V44.1396C56.2603 43.2689 56.3864 42.4347 56.6387 41.6372C56.891 40.8397 57.2694 40.1357 57.7739 39.5254C58.2703 38.9232 58.8929 38.443 59.6416 38.085C60.3903 37.7269 61.2651 37.5479 62.2661 37.5479C63.0474 37.5479 63.7635 37.674 64.4146 37.9263C65.0737 38.1704 65.6434 38.5041 66.1235 38.9272C66.5955 39.3586 66.9658 39.8672 67.2344 40.4531C67.5029 41.0391 67.6372 41.6657 67.6372 42.333H65.501C65.4928 41.9342 65.4033 41.5599 65.2324 41.21C65.0697 40.8519 64.8459 40.5386 64.561 40.27C64.2762 40.0015 63.9344 39.7899 63.5356 39.6353C63.145 39.4806 62.7218 39.4033 62.2661 39.4033C61.5662 39.4033 60.9762 39.5457 60.4961 39.8306C60.0241 40.1073 59.6416 40.4694 59.3486 40.917C59.0557 41.3727 58.8441 41.8813 58.7139 42.4429C58.5918 43.0044 58.5308 43.57 58.5308 44.1396V44.6523C58.5308 45.2301 58.5918 45.8039 58.7139 46.3735C58.8441 46.9351 59.0557 47.4396 59.3486 47.8872C59.6335 48.3429 60.0119 48.7132 60.4839 48.998C60.964 49.2747 61.5581 49.4131 62.2661 49.4131ZM70.5186 44.2739C70.5186 43.3218 70.6569 42.4388 70.9336 41.625C71.2103 40.8031 71.609 40.091 72.1299 39.4888C72.6426 38.8866 73.2692 38.4146 74.0098 38.0728C74.7503 37.7228 75.5845 37.5479 76.5122 37.5479C77.4481 37.5479 78.2863 37.7228 79.0269 38.0728C79.7756 38.4146 80.4103 38.8866 80.9312 39.4888C81.4438 40.091 81.8385 40.8031 82.1152 41.625C82.3919 42.4388 82.5303 43.3218 82.5303 44.2739V44.5425C82.5303 45.4946 82.3919 46.3776 82.1152 47.1914C81.8385 48.0052 81.4438 48.7132 80.9312 49.3154C80.4103 49.9176 79.7796 50.3896 79.0391 50.7314C78.2985 51.0732 77.4644 51.2441 76.5366 51.2441C75.6007 51.2441 74.7585 51.0732 74.0098 50.7314C73.2692 50.3896 72.6426 49.9176 72.1299 49.3154C71.609 48.7132 71.2103 48.0052 70.9336 47.1914C70.6569 46.3776 70.5186 45.4946 70.5186 44.5425V44.2739ZM72.7769 44.5425C72.7769 45.1935 72.8542 45.8161 73.0088 46.4102C73.1634 46.9961 73.3994 47.5129 73.7168 47.9604C74.026 48.408 74.4167 48.762 74.8887 49.0225C75.3607 49.2829 75.91 49.4131 76.5366 49.4131C77.1551 49.4131 77.6963 49.2829 78.1602 49.0225C78.6322 48.762 79.0269 48.408 79.3442 47.9604C79.6535 47.5129 79.8854 46.9961 80.04 46.4102C80.1947 45.8161 80.272 45.1935 80.272 44.5425V44.2739C80.272 43.631 80.1906 43.0166 80.0278 42.4307C79.8732 41.8366 79.6413 41.3158 79.332 40.8682C79.0146 40.4206 78.62 40.0666 78.1479 39.8062C77.6841 39.5376 77.1388 39.4033 76.5122 39.4033C75.8856 39.4033 75.3403 39.5376 74.8765 39.8062C74.4126 40.0666 74.026 40.4206 73.7168 40.8682C73.3994 41.3158 73.1634 41.8366 73.0088 42.4307C72.8542 43.0166 72.7769 43.631 72.7769 44.2739V44.5425ZM85.668 51V37.792H87.6943L87.853 39.7451C88.0483 39.4684 88.2599 39.2161 88.4878 38.9883C88.7238 38.7523 88.972 38.5488 89.2324 38.3779C89.623 38.1175 90.0462 37.9181 90.502 37.7798C90.9658 37.6333 91.4541 37.556 91.9668 37.5479C92.6585 37.5479 93.2852 37.6455 93.8467 37.8408C94.4163 38.0361 94.9006 38.3413 95.2993 38.7563C95.6981 39.1714 96.0033 39.7004 96.2148 40.3433C96.4346 40.978 96.5444 41.7349 96.5444 42.6138V51H94.2861V42.6626C94.2861 42.0767 94.221 41.5802 94.0908 41.1733C93.9606 40.7664 93.7694 40.4368 93.5171 40.1846C93.2567 39.9323 92.9393 39.7492 92.5649 39.6353C92.1987 39.5213 91.7756 39.4644 91.2954 39.4644C90.8804 39.4644 90.4938 39.5254 90.1357 39.6475C89.7777 39.7614 89.4481 39.9201 89.147 40.1235C88.9028 40.3026 88.675 40.5101 88.4634 40.7461C88.2599 40.9821 88.0809 41.2425 87.9263 41.5273V51H85.668ZM105.529 34.5938V37.792H110.559V39.5376H105.529V46.7153C105.529 47.228 105.594 47.6512 105.725 47.9849C105.855 48.3185 106.034 48.583 106.262 48.7783C106.49 48.9818 106.75 49.1242 107.043 49.2056C107.344 49.2869 107.661 49.3276 107.995 49.3276C108.239 49.3276 108.492 49.3154 108.752 49.291C109.012 49.2585 109.269 49.2218 109.521 49.1812C109.765 49.1405 109.993 49.0998 110.205 49.0591C110.424 49.0103 110.603 48.9696 110.742 48.937L111.059 50.5361C110.872 50.6501 110.644 50.7518 110.375 50.8413C110.107 50.9227 109.814 50.9919 109.497 51.0488C109.179 51.1139 108.841 51.1628 108.483 51.1953C108.133 51.2279 107.784 51.2441 107.434 51.2441C106.848 51.2441 106.298 51.1628 105.786 51C105.281 50.8291 104.842 50.5605 104.467 50.1943C104.093 49.8363 103.796 49.3724 103.576 48.8027C103.365 48.2249 103.259 47.5291 103.259 46.7153V39.5376H99.792V37.792H103.259V34.5938H105.529ZM123.376 51C123.287 50.8291 123.214 50.6175 123.157 50.3652C123.108 50.1048 123.071 49.8363 123.047 49.5596C122.819 49.7874 122.563 50.0031 122.278 50.2065C122.001 50.41 121.696 50.589 121.362 50.7437C121.021 50.8983 120.658 51.0203 120.276 51.1099C119.893 51.1994 119.486 51.2441 119.055 51.2441C118.355 51.2441 117.721 51.1424 117.151 50.939C116.589 50.7355 116.113 50.4588 115.723 50.1089C115.324 49.7671 115.015 49.3602 114.795 48.8882C114.583 48.408 114.478 47.8913 114.478 47.3379C114.478 46.6136 114.62 45.9788 114.905 45.4336C115.198 44.8883 115.609 44.4326 116.138 44.0664C116.667 43.7083 117.301 43.4398 118.042 43.2607C118.791 43.0817 119.625 42.9922 120.544 42.9922H123.01V41.9546C123.01 41.5558 122.937 41.1978 122.791 40.8804C122.644 40.563 122.437 40.2904 122.168 40.0625C121.899 39.8428 121.57 39.6719 121.179 39.5498C120.797 39.4277 120.365 39.3667 119.885 39.3667C119.438 39.3667 119.035 39.4237 118.677 39.5376C118.327 39.6515 118.03 39.8021 117.786 39.9893C117.542 40.1764 117.35 40.4002 117.212 40.6606C117.082 40.9129 117.017 41.1774 117.017 41.4541H114.746C114.754 40.974 114.876 40.502 115.112 40.0381C115.356 39.5742 115.706 39.1551 116.162 38.7808C116.61 38.4146 117.155 38.1175 117.798 37.8896C118.449 37.6618 119.185 37.5479 120.007 37.5479C120.756 37.5479 121.452 37.6414 122.095 37.8286C122.738 38.0076 123.295 38.2803 123.767 38.6465C124.231 39.0208 124.597 39.4847 124.866 40.0381C125.134 40.5915 125.269 41.2384 125.269 41.979V48.1191C125.269 48.5586 125.309 49.0265 125.391 49.5229C125.472 50.0112 125.586 50.4385 125.732 50.8047V51H123.376ZM119.385 49.2788C119.824 49.2788 120.235 49.2218 120.618 49.1079C121 48.994 121.35 48.8434 121.667 48.6562C121.977 48.4691 122.245 48.2575 122.473 48.0215C122.701 47.7773 122.88 47.5251 123.01 47.2646V44.5913H120.911C120.129 44.5913 119.446 44.6605 118.86 44.7988C118.282 44.929 117.822 45.1325 117.48 45.4092C117.236 45.6045 117.049 45.8364 116.919 46.105C116.797 46.3735 116.736 46.6787 116.736 47.0205C116.736 47.346 116.789 47.6471 116.895 47.9238C117.008 48.2005 117.175 48.4365 117.395 48.6318C117.615 48.8353 117.891 48.994 118.225 49.1079C118.559 49.2218 118.945 49.2788 119.385 49.2788ZM129.566 37.792H136.316V49.0469H140.625V51H129.566V49.0469H134.058V39.7573H129.566V37.792ZM133.765 34.3252C133.765 34.1299 133.794 33.9468 133.851 33.7759C133.916 33.605 134.013 33.4585 134.144 33.3364C134.249 33.2306 134.384 33.1493 134.546 33.0923C134.717 33.0272 134.909 32.9946 135.12 32.9946C135.332 32.9946 135.519 33.0272 135.682 33.0923C135.844 33.1493 135.979 33.2306 136.084 33.3364C136.215 33.4504 136.312 33.5928 136.377 33.7637C136.443 33.9346 136.475 34.1217 136.475 34.3252C136.475 34.6914 136.361 34.9966 136.133 35.2407C135.905 35.4849 135.568 35.6069 135.12 35.6069C134.664 35.6069 134.323 35.4849 134.095 35.2407C133.875 34.9966 133.765 34.6914 133.765 34.3252ZM143.727 51V37.792H145.753L145.912 39.7451C146.107 39.4684 146.319 39.2161 146.546 38.9883C146.782 38.7523 147.031 38.5488 147.291 38.3779C147.682 38.1175 148.105 37.9181 148.561 37.7798C149.024 37.6333 149.513 37.556 150.025 37.5479C150.717 37.5479 151.344 37.6455 151.905 37.8408C152.475 38.0361 152.959 38.3413 153.358 38.7563C153.757 39.1714 154.062 39.7004 154.273 40.3433C154.493 40.978 154.603 41.7349 154.603 42.6138V51H152.345V42.6626C152.345 42.0767 152.28 41.5802 152.149 41.1733C152.019 40.7664 151.828 40.4368 151.576 40.1846C151.315 39.9323 150.998 39.7492 150.624 39.6353C150.257 39.5213 149.834 39.4644 149.354 39.4644C148.939 39.4644 148.552 39.5254 148.194 39.6475C147.836 39.7614 147.507 39.9201 147.206 40.1235C146.961 40.3026 146.734 40.5101 146.522 40.7461C146.319 40.9821 146.139 41.2425 145.985 41.5273V51H143.727ZM164.076 51.2441C163.148 51.2441 162.294 51.0854 161.513 50.7681C160.74 50.4507 160.076 50.0072 159.523 49.4375C158.97 48.8678 158.538 48.1924 158.229 47.4111C157.92 46.6299 157.765 45.7795 157.765 44.8599V44.3472C157.765 43.2811 157.936 42.3289 158.278 41.4907C158.62 40.6444 159.075 39.9282 159.645 39.3423C160.207 38.7645 160.845 38.321 161.562 38.0117C162.286 37.7025 163.026 37.5479 163.783 37.5479C164.735 37.5479 165.565 37.7147 166.273 38.0483C166.99 38.3739 167.584 38.8255 168.056 39.4033C168.528 39.9893 168.878 40.6769 169.105 41.4663C169.341 42.2557 169.459 43.1102 169.459 44.0298V45.043H160.023V45.1284C160.08 45.7713 160.207 46.3369 160.402 46.8252C160.605 47.3135 160.882 47.7448 161.232 48.1191C161.59 48.5179 162.021 48.8312 162.526 49.0591C163.03 49.2869 163.588 49.4009 164.198 49.4009C165.004 49.4009 165.72 49.2381 166.347 48.9126C166.973 48.5871 167.494 48.1558 167.909 47.6187L169.289 48.6929C168.849 49.3602 168.19 49.9543 167.311 50.4751C166.44 50.9878 165.362 51.2441 164.076 51.2441ZM163.783 39.4033C163.327 39.4033 162.896 39.4888 162.489 39.6597C162.082 39.8224 161.716 40.0625 161.391 40.3799C161.065 40.7054 160.788 41.1042 160.561 41.5762C160.341 42.04 160.186 42.5771 160.097 43.1875H167.201V43.0776C167.201 42.6707 167.124 42.2354 166.969 41.7715C166.815 41.2995 166.599 40.8926 166.322 40.5508C166.046 40.209 165.696 39.9323 165.272 39.7207C164.857 39.5091 164.361 39.4033 163.783 39.4033ZM181.411 37.5479C181.826 37.5479 182.257 37.5763 182.705 37.6333C183.16 37.6903 183.502 37.7676 183.73 37.8652L183.425 40.0747C182.985 39.9771 182.566 39.9079 182.167 39.8672C181.777 39.8184 181.366 39.7939 180.935 39.7939C180.381 39.7939 179.881 39.8631 179.433 40.0015C178.986 40.1317 178.595 40.327 178.261 40.5874C177.96 40.8153 177.696 41.096 177.468 41.4297C177.248 41.7552 177.065 42.1214 176.918 42.5283V51H174.648V37.792H176.796L176.894 39.562L176.906 39.8916C177.443 39.1673 178.086 38.5977 178.835 38.1826C179.592 37.7594 180.45 37.5479 181.411 37.5479Z" fill="#0066FF"/>
</svg>
