<svg width="439" height="213" viewBox="0 0 439 213" fill="none" xmlns="http://www.w3.org/2000/svg">
<rect width="439" height="213" rx="20" fill="#0066FF" fill-opacity="0.2"/>
<rect x="1.5" y="1.5" width="436" height="210" rx="18.5" stroke="#0066FF" stroke-opacity="0.5" stroke-width="3"/>
<path d="M46.0547 44.5352C46.0547 44.055 46.2012 43.644 46.4941 43.3022C46.7871 42.9604 47.2306 42.7896 47.8247 42.7896C48.4106 42.7896 48.8542 42.9604 49.1553 43.3022C49.4645 43.6359 49.6191 44.0469 49.6191 44.5352C49.6191 45.0153 49.4645 45.4181 49.1553 45.7437C48.846 46.0692 48.4025 46.2319 47.8247 46.2319C47.2388 46.2319 46.7952 46.0692 46.4941 45.7437C46.2012 45.41 46.0547 45.0072 46.0547 44.5352ZM211.6 50.4678C210.81 50.4434 210.127 50.2603 209.549 49.9185C208.971 49.5767 208.491 49.125 208.108 48.5635C207.742 48.0264 207.465 47.4242 207.278 46.7568C207.091 46.0977 206.998 45.4425 206.998 44.7915V42.7285C206.998 41.5566 206.717 40.7062 206.155 40.1772C205.602 39.6483 204.751 39.3797 203.604 39.3716V37.6016C204.751 37.6016 205.602 37.3411 206.155 36.8203C206.717 36.2913 206.998 35.4368 206.998 34.2568V32.1816C206.998 31.5225 207.083 30.8511 207.254 30.1675C207.433 29.4757 207.714 28.8573 208.096 28.312C208.454 27.7912 208.922 27.368 209.5 27.0425C210.078 26.7088 210.778 26.5298 211.6 26.5054L211.856 27.9092C211.27 27.9255 210.802 28.0638 210.452 28.3242C210.11 28.5846 209.854 28.9142 209.683 29.313C209.504 29.7199 209.39 30.1756 209.341 30.6802C209.292 31.1847 209.268 31.6852 209.268 32.1816V34.2568C209.268 35.2334 209.04 36.092 208.584 36.8325C208.137 37.5649 207.441 38.1224 206.497 38.5049C207.441 38.8792 208.137 39.4367 208.584 40.1772C209.032 40.9097 209.26 41.7601 209.268 42.7285V44.7915C209.268 45.2961 209.309 45.7965 209.39 46.293C209.472 46.7975 209.614 47.2492 209.817 47.6479C210.013 48.0549 210.273 48.3885 210.599 48.6489C210.932 48.9093 211.351 49.0477 211.856 49.064L211.6 50.4678ZM70.7261 72.2861C70.7261 71.3014 70.8481 70.3981 71.0923 69.5762C71.3446 68.7461 71.7026 68.034 72.1665 67.4399C72.6222 66.8459 73.1756 66.382 73.8267 66.0483C74.4777 65.7147 75.2061 65.5479 76.0117 65.5479C76.8011 65.5479 77.4888 65.6821 78.0747 65.9507C78.6688 66.2111 79.1815 66.5936 79.6128 67.0981V60.25H81.8711V79H79.7959L79.6982 77.6084C79.2588 78.1455 78.7339 78.5524 78.1235 78.8291C77.5132 79.1058 76.8011 79.2441 75.9873 79.2441C75.1898 79.2441 74.4655 79.0732 73.8145 78.7314C73.1715 78.3896 72.6222 77.9176 72.1665 77.3154C71.7108 76.7132 71.3568 76.0052 71.1045 75.1914C70.8522 74.3695 70.7261 73.4865 70.7261 72.5425V72.2861ZM72.9844 72.5425C72.9844 73.1854 73.0535 73.7957 73.1919 74.3735C73.3302 74.9513 73.5459 75.46 73.8389 75.8994C74.1237 76.3389 74.4899 76.6888 74.9375 76.9492C75.3851 77.2015 75.9222 77.3276 76.5488 77.3276C77.3057 77.3276 77.9323 77.1567 78.4287 76.8149C78.9251 76.4731 79.3198 76.0133 79.6128 75.4355V69.3076C79.3198 68.7705 78.9251 68.3311 78.4287 67.9893C77.9323 67.6393 77.3138 67.4644 76.5732 67.4644C75.9385 67.4644 75.3932 67.5946 74.9375 67.855C74.4899 68.1154 74.1237 68.4653 73.8389 68.9048C73.5459 69.3524 73.3302 69.8691 73.1919 70.4551C73.0535 71.0329 72.9844 71.6432 72.9844 72.2861V72.5425ZM86.022 65.792H92.7725V77.0469H97.0815V79H86.022V77.0469H90.5142V67.7573H86.022V65.792ZM90.2212 62.3252C90.2212 62.1299 90.2497 61.9468 90.3066 61.7759C90.3717 61.605 90.4694 61.4585 90.5996 61.3364C90.7054 61.2306 90.8397 61.1493 91.0024 61.0923C91.1733 61.0272 91.3646 60.9946 91.5762 60.9946C91.7878 60.9946 91.9749 61.0272 92.1377 61.0923C92.3005 61.1493 92.4347 61.2306 92.5405 61.3364C92.6707 61.4504 92.7684 61.5928 92.8335 61.7637C92.8986 61.9346 92.9312 62.1217 92.9312 62.3252C92.9312 62.6914 92.8172 62.9966 92.5894 63.2407C92.3615 63.4849 92.0238 63.6069 91.5762 63.6069C91.1204 63.6069 90.7786 63.4849 90.5508 63.2407C90.3311 62.9966 90.2212 62.6914 90.2212 62.3252ZM108.959 75.4966C108.959 75.228 108.907 74.988 108.801 74.7764C108.695 74.5566 108.516 74.3573 108.264 74.1782C108.011 73.9992 107.678 73.8364 107.263 73.6899C106.848 73.5353 106.331 73.397 105.712 73.2749C104.956 73.1203 104.264 72.9331 103.637 72.7134C103.019 72.4937 102.49 72.2292 102.05 71.9199C101.603 71.6188 101.257 71.2648 101.013 70.8579C100.769 70.4429 100.646 69.9627 100.646 69.4175C100.646 68.8804 100.773 68.3799 101.025 67.916C101.277 67.444 101.631 67.033 102.087 66.6831C102.543 66.3332 103.084 66.0565 103.71 65.853C104.345 65.6496 105.041 65.5479 105.798 65.5479C106.612 65.5479 107.344 65.6536 107.995 65.8652C108.646 66.0768 109.2 66.3698 109.655 66.7441C110.111 67.1185 110.461 67.5579 110.705 68.0625C110.957 68.5589 111.083 69.096 111.083 69.6738H108.825C108.825 69.389 108.752 69.1123 108.605 68.8438C108.459 68.5671 108.256 68.3229 107.995 68.1113C107.735 67.8997 107.417 67.7288 107.043 67.5986C106.677 67.4684 106.262 67.4033 105.798 67.4033C105.318 67.4033 104.895 67.4562 104.528 67.562C104.17 67.6678 103.873 67.8102 103.637 67.9893C103.393 68.1683 103.21 68.3758 103.088 68.6118C102.966 68.8478 102.905 69.092 102.905 69.3442C102.905 69.6047 102.954 69.8366 103.051 70.04C103.149 70.2435 103.32 70.4266 103.564 70.5894C103.8 70.7521 104.117 70.8986 104.516 71.0288C104.923 71.159 105.436 71.2852 106.054 71.4072C106.868 71.5781 107.596 71.7775 108.239 72.0054C108.882 72.2251 109.423 72.4896 109.863 72.7988C110.302 73.1162 110.636 73.4824 110.864 73.8975C111.1 74.3125 111.218 74.7926 111.218 75.3379C111.218 75.9238 111.083 76.4569 110.815 76.937C110.555 77.4172 110.188 77.8281 109.716 78.1699C109.244 78.5117 108.679 78.7762 108.02 78.9634C107.36 79.1506 106.64 79.2441 105.859 79.2441C104.964 79.2441 104.166 79.1261 103.466 78.8901C102.766 78.646 102.176 78.3245 101.696 77.9258C101.208 77.5352 100.834 77.0794 100.573 76.5586C100.321 76.0378 100.195 75.4966 100.195 74.9351H102.453C102.486 75.3989 102.608 75.7896 102.819 76.1069C103.039 76.4243 103.312 76.6807 103.637 76.876C103.955 77.0713 104.309 77.2096 104.699 77.291C105.09 77.3724 105.476 77.4131 105.859 77.4131C106.461 77.4131 106.986 77.3439 107.434 77.2056C107.881 77.0591 108.231 76.8597 108.483 76.6074C108.638 76.4528 108.756 76.2819 108.837 76.0947C108.919 75.9076 108.959 75.7082 108.959 75.4966ZM114.685 84.0781V65.792H116.748L116.858 67.2324C117.037 67.0046 117.232 66.8011 117.444 66.6221C117.655 66.4349 117.883 66.2762 118.127 66.146C118.469 65.9507 118.848 65.8042 119.263 65.7065C119.686 65.6007 120.138 65.5479 120.618 65.5479C121.464 65.5479 122.213 65.7147 122.864 66.0483C123.515 66.382 124.06 66.8459 124.5 67.4399C124.939 68.034 125.273 68.7461 125.5 69.5762C125.728 70.3981 125.842 71.3014 125.842 72.2861V72.5425C125.842 73.4865 125.728 74.3695 125.5 75.1914C125.273 76.0052 124.939 76.7132 124.5 77.3154C124.06 77.9176 123.515 78.3896 122.864 78.7314C122.221 79.0732 121.484 79.2441 120.654 79.2441C120.15 79.2441 119.678 79.1912 119.238 79.0854C118.807 78.9797 118.416 78.8291 118.066 78.6338C117.855 78.5117 117.655 78.3774 117.468 78.231C117.281 78.0763 117.106 77.9095 116.943 77.7305V84.0781H114.685ZM123.584 72.2861C123.584 71.6432 123.511 71.0329 123.364 70.4551C123.226 69.8691 123.01 69.3524 122.717 68.9048C122.416 68.4653 122.038 68.1154 121.582 67.855C121.126 67.5946 120.581 67.4644 119.946 67.4644C119.596 67.4644 119.271 67.505 118.97 67.5864C118.677 67.6678 118.412 67.7858 118.176 67.9404C117.916 68.0951 117.684 68.2863 117.48 68.5142C117.277 68.742 117.098 68.9943 116.943 69.271V75.6309C117.082 75.875 117.24 76.1029 117.419 76.3145C117.598 76.526 117.802 76.7051 118.03 76.8516C118.29 77.0225 118.579 77.1567 118.896 77.2544C119.222 77.3521 119.58 77.4009 119.971 77.4009C120.597 77.4009 121.139 77.2707 121.594 77.0103C122.05 76.7417 122.424 76.3836 122.717 75.936C123.01 75.4884 123.226 74.9717 123.364 74.3857C123.511 73.7998 123.584 73.1854 123.584 72.5425V72.2861ZM129.566 60.25H136.316V77.0469H140.625V79H129.566V77.0469H134.058V62.2153H129.566V60.25ZM152.406 79C152.316 78.8291 152.243 78.6175 152.186 78.3652C152.137 78.1048 152.101 77.8363 152.076 77.5596C151.848 77.7874 151.592 78.0031 151.307 78.2065C151.03 78.41 150.725 78.589 150.392 78.7437C150.05 78.8983 149.688 79.0203 149.305 79.1099C148.923 79.1994 148.516 79.2441 148.084 79.2441C147.385 79.2441 146.75 79.1424 146.18 78.939C145.619 78.7355 145.143 78.4588 144.752 78.1089C144.353 77.7671 144.044 77.3602 143.824 76.8882C143.613 76.408 143.507 75.8913 143.507 75.3379C143.507 74.6136 143.649 73.9788 143.934 73.4336C144.227 72.8883 144.638 72.4326 145.167 72.0664C145.696 71.7083 146.331 71.4398 147.071 71.2607C147.82 71.0817 148.654 70.9922 149.574 70.9922H152.04V69.9546C152.04 69.5558 151.966 69.1978 151.82 68.8804C151.673 68.563 151.466 68.2904 151.197 68.0625C150.929 67.8428 150.599 67.6719 150.208 67.5498C149.826 67.4277 149.395 67.3667 148.915 67.3667C148.467 67.3667 148.064 67.4237 147.706 67.5376C147.356 67.6515 147.059 67.8021 146.815 67.9893C146.571 68.1764 146.38 68.4002 146.241 68.6606C146.111 68.9129 146.046 69.1774 146.046 69.4541H143.775C143.784 68.974 143.906 68.502 144.142 68.0381C144.386 67.5742 144.736 67.1551 145.191 66.7808C145.639 66.4146 146.184 66.1175 146.827 65.8896C147.478 65.6618 148.215 65.5479 149.037 65.5479C149.785 65.5479 150.481 65.6414 151.124 65.8286C151.767 66.0076 152.324 66.2803 152.796 66.6465C153.26 67.0208 153.626 67.4847 153.895 68.0381C154.164 68.5915 154.298 69.2384 154.298 69.979V76.1191C154.298 76.5586 154.339 77.0265 154.42 77.5229C154.501 78.0112 154.615 78.4385 154.762 78.8047V79H152.406ZM148.414 77.2788C148.854 77.2788 149.264 77.2218 149.647 77.1079C150.029 76.994 150.379 76.8434 150.697 76.6562C151.006 76.4691 151.275 76.2575 151.502 76.0215C151.73 75.7773 151.909 75.5251 152.04 75.2646V72.5913H149.94C149.159 72.5913 148.475 72.6605 147.889 72.7988C147.311 72.929 146.852 73.1325 146.51 73.4092C146.266 73.6045 146.078 73.8364 145.948 74.105C145.826 74.3735 145.765 74.6787 145.765 75.0205C145.765 75.346 145.818 75.6471 145.924 75.9238C146.038 76.2005 146.205 76.4365 146.424 76.6318C146.644 76.8353 146.921 76.994 147.254 77.1079C147.588 77.2218 147.975 77.2788 148.414 77.2788ZM159.303 84.3345C159.092 84.3345 158.843 84.3101 158.559 84.2612C158.274 84.2124 158.058 84.1717 157.912 84.1392L158.278 82.2959C158.481 82.3122 158.681 82.3244 158.876 82.3325C159.079 82.3488 159.238 82.3569 159.352 82.3569C159.661 82.3569 159.942 82.2715 160.194 82.1006C160.455 81.9297 160.687 81.7262 160.89 81.4902C161.085 81.2542 161.252 81.0101 161.391 80.7578C161.537 80.5055 161.651 80.298 161.732 80.1353L162.636 78.3774L156.947 65.792H159.474L163.1 74.3125L163.686 75.9116L164.308 74.3613L167.714 65.792H170.241L163.539 81.0386C163.384 81.3804 163.185 81.7425 162.941 82.125C162.705 82.5075 162.416 82.8615 162.074 83.187C161.732 83.5125 161.334 83.7852 160.878 84.0049C160.422 84.2246 159.897 84.3345 159.303 84.3345ZM177.297 77.5352C177.297 77.055 177.443 76.644 177.736 76.3022C178.029 75.9604 178.473 75.7896 179.067 75.7896C179.653 75.7896 180.096 75.9604 180.397 76.3022C180.707 76.6359 180.861 77.0469 180.861 77.5352C180.861 78.0153 180.707 78.4181 180.397 78.7437C180.088 79.0692 179.645 79.2319 179.067 79.2319C178.481 79.2319 178.037 79.0692 177.736 78.7437C177.443 78.41 177.297 78.0072 177.297 77.5352ZM177.297 66.8418C177.297 66.3617 177.443 65.9507 177.736 65.6089C178.029 65.2671 178.473 65.0962 179.067 65.0962C179.653 65.0962 180.096 65.2671 180.397 65.6089C180.707 65.9425 180.861 66.3535 180.861 66.8418C180.861 67.3219 180.707 67.7248 180.397 68.0503C180.088 68.3758 179.645 68.5386 179.067 68.5386C178.481 68.5386 178.037 68.3758 177.736 68.0503C177.443 67.7166 177.297 67.3138 177.297 66.8418ZM205.154 79V67.5376H201.517V65.792H205.154V64.8643C205.154 64.0179 205.276 63.2773 205.521 62.6426C205.773 61.9997 206.127 61.4626 206.583 61.0312C207.03 60.5999 207.571 60.2744 208.206 60.0547C208.841 59.835 209.549 59.7251 210.33 59.7251C210.656 59.7251 210.977 59.7454 211.294 59.7861C211.612 59.8187 211.925 59.8634 212.234 59.9204C212.438 59.9611 212.641 60.0059 212.845 60.0547C213.048 60.0954 213.256 60.1442 213.467 60.2012L213.199 62.0688C212.865 61.9549 212.474 61.8573 212.027 61.7759C211.587 61.6864 211.115 61.6416 210.611 61.6416C210.098 61.6416 209.642 61.7067 209.244 61.8369C208.853 61.959 208.528 62.1462 208.267 62.3984C207.99 62.6589 207.779 62.9966 207.632 63.4116C207.494 63.8267 207.425 64.3109 207.425 64.8643V65.792H212.515V67.5376H207.425V79H205.154ZM216.654 60.25H223.404V77.0469H227.713V79H216.654V77.0469H221.146V62.2153H216.654V60.25ZM236.649 79.2441C235.722 79.2441 234.867 79.0854 234.086 78.7681C233.313 78.4507 232.65 78.0072 232.096 77.4375C231.543 76.8678 231.111 76.1924 230.802 75.4111C230.493 74.6299 230.338 73.7795 230.338 72.8599V72.3472C230.338 71.2811 230.509 70.3289 230.851 69.4907C231.193 68.6444 231.649 67.9282 232.218 67.3423C232.78 66.7645 233.419 66.321 234.135 66.0117C234.859 65.7025 235.6 65.5479 236.356 65.5479C237.309 65.5479 238.139 65.7147 238.847 66.0483C239.563 66.3739 240.157 66.8255 240.629 67.4033C241.101 67.9893 241.451 68.6769 241.679 69.4663C241.915 70.2557 242.033 71.1102 242.033 72.0298V73.043H232.597V73.1284C232.654 73.7713 232.78 74.3369 232.975 74.8252C233.179 75.3135 233.455 75.7448 233.805 76.1191C234.163 76.5179 234.595 76.8312 235.099 77.0591C235.604 77.2869 236.161 77.4009 236.771 77.4009C237.577 77.4009 238.293 77.2381 238.92 76.9126C239.547 76.5871 240.067 76.1558 240.482 75.6187L241.862 76.6929C241.422 77.3602 240.763 77.9543 239.884 78.4751C239.014 78.9878 237.935 79.2441 236.649 79.2441ZM236.356 67.4033C235.901 67.4033 235.469 67.4888 235.062 67.6597C234.656 67.8224 234.289 68.0625 233.964 68.3799C233.638 68.7054 233.362 69.1042 233.134 69.5762C232.914 70.04 232.759 70.5771 232.67 71.1875H239.774V71.0776C239.774 70.6707 239.697 70.2354 239.542 69.7715C239.388 69.2995 239.172 68.8926 238.896 68.5508C238.619 68.209 238.269 67.9323 237.846 67.7207C237.431 67.5091 236.934 67.4033 236.356 67.4033ZM250.786 70.687L254.313 65.792H256.962L252.043 72.3228L257.097 79H254.484L250.834 73.9707L247.185 79H244.548L249.602 72.3228L244.682 65.792H247.294L250.786 70.687ZM264.275 66.8418C264.275 66.3617 264.421 65.9507 264.714 65.6089C265.007 65.2671 265.451 65.0962 266.045 65.0962C266.631 65.0962 267.074 65.2671 267.375 65.6089C267.685 65.9425 267.839 66.3535 267.839 66.8418C267.839 67.3219 267.685 67.7248 267.375 68.0503C267.066 68.3758 266.623 68.5386 266.045 68.5386C265.459 68.5386 265.015 68.3758 264.714 68.0503C264.421 67.7166 264.275 67.3138 264.275 66.8418ZM267.18 78.4751C267.18 79.2889 266.989 80.119 266.606 80.9653C266.224 81.8117 265.707 82.5238 265.056 83.1016L263.652 82.3325C264.043 81.7629 264.32 81.1566 264.482 80.5137C264.645 79.8708 264.727 79.2035 264.727 78.5117V76.3267H267.18V78.4751ZM74.5225 112V100.538H70.8848V98.792H74.5225V97.8643C74.5225 97.0179 74.6445 96.2773 74.8887 95.6426C75.141 94.9997 75.495 94.4626 75.9507 94.0312C76.3983 93.5999 76.9395 93.2744 77.5742 93.0547C78.209 92.835 78.917 92.7251 79.6982 92.7251C80.0238 92.7251 80.3452 92.7454 80.6626 92.7861C80.98 92.8187 81.2933 92.8634 81.6025 92.9204C81.806 92.9611 82.0094 93.0059 82.2129 93.0547C82.4163 93.0954 82.6239 93.1442 82.8354 93.2012L82.5669 95.0688C82.2332 94.9549 81.8426 94.8573 81.395 94.7759C80.9556 94.6864 80.4836 94.6416 79.979 94.6416C79.4663 94.6416 79.0106 94.7067 78.6118 94.8369C78.2212 94.959 77.8957 95.1462 77.6353 95.3984C77.3586 95.6589 77.147 95.9966 77.0005 96.4116C76.8621 96.8267 76.793 97.3109 76.793 97.8643V98.792H81.8833V100.538H76.793V112H74.5225ZM86.022 93.25H92.7725V110.047H97.0815V112H86.022V110.047H90.5142V95.2153H86.022V93.25ZM106.018 112.244C105.09 112.244 104.235 112.085 103.454 111.768C102.681 111.451 102.018 111.007 101.464 110.438C100.911 109.868 100.48 109.192 100.17 108.411C99.8612 107.63 99.7065 106.779 99.7065 105.86V105.347C99.7065 104.281 99.8774 103.329 100.219 102.491C100.561 101.644 101.017 100.928 101.586 100.342C102.148 99.7645 102.787 99.321 103.503 99.0117C104.227 98.7025 104.968 98.5479 105.725 98.5479C106.677 98.5479 107.507 98.7147 108.215 99.0483C108.931 99.3739 109.525 99.8255 109.997 100.403C110.469 100.989 110.819 101.677 111.047 102.466C111.283 103.256 111.401 104.11 111.401 105.03V106.043H101.965V106.128C102.022 106.771 102.148 107.337 102.343 107.825C102.547 108.313 102.823 108.745 103.173 109.119C103.531 109.518 103.963 109.831 104.467 110.059C104.972 110.287 105.529 110.401 106.14 110.401C106.945 110.401 107.661 110.238 108.288 109.913C108.915 109.587 109.436 109.156 109.851 108.619L111.23 109.693C110.791 110.36 110.131 110.954 109.252 111.475C108.382 111.988 107.303 112.244 106.018 112.244ZM105.725 100.403C105.269 100.403 104.838 100.489 104.431 100.66C104.024 100.822 103.658 101.062 103.332 101.38C103.007 101.705 102.73 102.104 102.502 102.576C102.282 103.04 102.128 103.577 102.038 104.188H109.143V104.078C109.143 103.671 109.065 103.235 108.911 102.771C108.756 102.299 108.54 101.893 108.264 101.551C107.987 101.209 107.637 100.932 107.214 100.721C106.799 100.509 106.302 100.403 105.725 100.403ZM120.154 103.687L123.682 98.792H126.331L121.411 105.323L126.465 112H123.853L120.203 106.971L116.553 112H113.916L118.97 105.323L114.05 98.792H116.663L120.154 103.687ZM139.087 105.152H129.749V103.296H139.087V105.152ZM147.096 112V100.538H143.458V98.792H147.096V97.8643C147.096 97.0179 147.218 96.2773 147.462 95.6426C147.714 94.9997 148.068 94.4626 148.524 94.0312C148.972 93.5999 149.513 93.2744 150.147 93.0547C150.782 92.835 151.49 92.7251 152.271 92.7251C152.597 92.7251 152.918 92.7454 153.236 92.7861C153.553 92.8187 153.867 92.8634 154.176 92.9204C154.379 92.9611 154.583 93.0059 154.786 93.0547C154.99 93.0954 155.197 93.1442 155.409 93.2012L155.14 95.0688C154.806 94.9549 154.416 94.8573 153.968 94.7759C153.529 94.6864 153.057 94.6416 152.552 94.6416C152.04 94.6416 151.584 94.7067 151.185 94.8369C150.794 94.959 150.469 95.1462 150.208 95.3984C149.932 95.6589 149.72 95.9966 149.574 96.4116C149.435 96.8267 149.366 97.3109 149.366 97.8643V98.792H154.457V100.538H149.366V112H147.096ZM158.595 93.25H165.346V110.047H169.655V112H158.595V110.047H163.087V95.2153H158.595V93.25ZM172.121 105.274C172.121 104.322 172.259 103.439 172.536 102.625C172.813 101.803 173.212 101.091 173.732 100.489C174.245 99.8866 174.872 99.4146 175.612 99.0728C176.353 98.7228 177.187 98.5479 178.115 98.5479C179.051 98.5479 179.889 98.7228 180.629 99.0728C181.378 99.4146 182.013 99.8866 182.534 100.489C183.046 101.091 183.441 101.803 183.718 102.625C183.994 103.439 184.133 104.322 184.133 105.274V105.542C184.133 106.495 183.994 107.378 183.718 108.191C183.441 109.005 183.046 109.713 182.534 110.315C182.013 110.918 181.382 111.39 180.642 111.731C179.901 112.073 179.067 112.244 178.139 112.244C177.203 112.244 176.361 112.073 175.612 111.731C174.872 111.39 174.245 110.918 173.732 110.315C173.212 109.713 172.813 109.005 172.536 108.191C172.259 107.378 172.121 106.495 172.121 105.542V105.274ZM174.379 105.542C174.379 106.194 174.457 106.816 174.611 107.41C174.766 107.996 175.002 108.513 175.319 108.96C175.629 109.408 176.019 109.762 176.491 110.022C176.963 110.283 177.513 110.413 178.139 110.413C178.758 110.413 179.299 110.283 179.763 110.022C180.235 109.762 180.629 109.408 180.947 108.96C181.256 108.513 181.488 107.996 181.643 107.41C181.797 106.816 181.875 106.194 181.875 105.542V105.274C181.875 104.631 181.793 104.017 181.63 103.431C181.476 102.837 181.244 102.316 180.935 101.868C180.617 101.421 180.222 101.067 179.75 100.806C179.287 100.538 178.741 100.403 178.115 100.403C177.488 100.403 176.943 100.538 176.479 100.806C176.015 101.067 175.629 101.421 175.319 101.868C175.002 102.316 174.766 102.837 174.611 103.431C174.457 104.017 174.379 104.631 174.379 105.274V105.542ZM188.54 112L185.732 98.792H187.734L189.272 107.215L189.541 109.107L189.871 107.215L191.982 98.792H193.435L195.535 107.215L195.889 109.29L196.218 107.215L197.683 98.792H199.685L196.877 112H195.095L193.032 103.907L192.69 101.856L192.361 103.907L190.322 112H188.54ZM206.326 110.535C206.326 110.055 206.473 109.644 206.766 109.302C207.059 108.96 207.502 108.79 208.096 108.79C208.682 108.79 209.126 108.96 209.427 109.302C209.736 109.636 209.891 110.047 209.891 110.535C209.891 111.015 209.736 111.418 209.427 111.744C209.118 112.069 208.674 112.232 208.096 112.232C207.51 112.232 207.067 112.069 206.766 111.744C206.473 111.41 206.326 111.007 206.326 110.535ZM206.326 99.8418C206.326 99.3617 206.473 98.9507 206.766 98.6089C207.059 98.2671 207.502 98.0962 208.096 98.0962C208.682 98.0962 209.126 98.2671 209.427 98.6089C209.736 98.9425 209.891 99.3535 209.891 99.8418C209.891 100.322 209.736 100.725 209.427 101.05C209.118 101.376 208.674 101.539 208.096 101.539C207.51 101.539 207.067 101.376 206.766 101.05C206.473 100.717 206.326 100.314 206.326 99.8418ZM239.469 98.5479C239.884 98.5479 240.316 98.5763 240.763 98.6333C241.219 98.6903 241.561 98.7676 241.789 98.8652L241.483 101.075C241.044 100.977 240.625 100.908 240.226 100.867C239.835 100.818 239.424 100.794 238.993 100.794C238.44 100.794 237.939 100.863 237.492 101.001C237.044 101.132 236.653 101.327 236.32 101.587C236.019 101.815 235.754 102.096 235.526 102.43C235.307 102.755 235.124 103.121 234.977 103.528V112H232.707V98.792H234.855L234.953 100.562L234.965 100.892C235.502 100.167 236.145 99.5977 236.894 99.1826C237.65 98.7594 238.509 98.5479 239.469 98.5479ZM244.694 105.274C244.694 104.322 244.833 103.439 245.109 102.625C245.386 101.803 245.785 101.091 246.306 100.489C246.818 99.8866 247.445 99.4146 248.186 99.0728C248.926 98.7228 249.76 98.5479 250.688 98.5479C251.624 98.5479 252.462 98.7228 253.203 99.0728C253.951 99.4146 254.586 99.8866 255.107 100.489C255.62 101.091 256.014 101.803 256.291 102.625C256.568 103.439 256.706 104.322 256.706 105.274V105.542C256.706 106.495 256.568 107.378 256.291 108.191C256.014 109.005 255.62 109.713 255.107 110.315C254.586 110.918 253.955 111.39 253.215 111.731C252.474 112.073 251.64 112.244 250.712 112.244C249.777 112.244 248.934 112.073 248.186 111.731C247.445 111.39 246.818 110.918 246.306 110.315C245.785 109.713 245.386 109.005 245.109 108.191C244.833 107.378 244.694 106.495 244.694 105.542V105.274ZM246.953 105.542C246.953 106.194 247.03 106.816 247.185 107.41C247.339 107.996 247.575 108.513 247.893 108.96C248.202 109.408 248.592 109.762 249.064 110.022C249.536 110.283 250.086 110.413 250.712 110.413C251.331 110.413 251.872 110.283 252.336 110.022C252.808 109.762 253.203 109.408 253.52 108.96C253.829 108.513 254.061 107.996 254.216 107.41C254.37 106.816 254.448 106.194 254.448 105.542V105.274C254.448 104.631 254.366 104.017 254.204 103.431C254.049 102.837 253.817 102.316 253.508 101.868C253.19 101.421 252.796 101.067 252.324 100.806C251.86 100.538 251.315 100.403 250.688 100.403C250.061 100.403 249.516 100.538 249.052 100.806C248.588 101.067 248.202 101.421 247.893 101.868C247.575 102.316 247.339 102.837 247.185 103.431C247.03 104.017 246.953 104.631 246.953 105.274V105.542ZM261.113 112L258.306 98.792H260.308L261.846 107.215L262.114 109.107L262.444 107.215L264.556 98.792H266.008L268.108 107.215L268.462 109.29L268.792 107.215L270.256 98.792H272.258L269.451 112H267.668L265.605 103.907L265.264 101.856L264.934 103.907L262.896 112H261.113ZM288.873 112V98.792H290.899L291.058 100.745C291.253 100.468 291.465 100.216 291.693 99.9883C291.929 99.7523 292.177 99.5488 292.438 99.3779C292.828 99.1175 293.251 98.9181 293.707 98.7798C294.171 98.6333 294.659 98.556 295.172 98.5479C295.864 98.5479 296.49 98.6455 297.052 98.8408C297.621 99.0361 298.106 99.3413 298.504 99.7563C298.903 100.171 299.208 100.7 299.42 101.343C299.64 101.978 299.75 102.735 299.75 103.614V112H297.491V103.663C297.491 103.077 297.426 102.58 297.296 102.173C297.166 101.766 296.974 101.437 296.722 101.185C296.462 100.932 296.144 100.749 295.77 100.635C295.404 100.521 294.981 100.464 294.5 100.464C294.085 100.464 293.699 100.525 293.341 100.647C292.983 100.761 292.653 100.92 292.352 101.124C292.108 101.303 291.88 101.51 291.668 101.746C291.465 101.982 291.286 102.243 291.131 102.527V112H288.873ZM302.753 105.274C302.753 104.322 302.891 103.439 303.168 102.625C303.445 101.803 303.843 101.091 304.364 100.489C304.877 99.8866 305.504 99.4146 306.244 99.0728C306.985 98.7228 307.819 98.5479 308.747 98.5479C309.682 98.5479 310.521 98.7228 311.261 99.0728C312.01 99.4146 312.645 99.8866 313.166 100.489C313.678 101.091 314.073 101.803 314.35 102.625C314.626 103.439 314.765 104.322 314.765 105.274V105.542C314.765 106.495 314.626 107.378 314.35 108.191C314.073 109.005 313.678 109.713 313.166 110.315C312.645 110.918 312.014 111.39 311.273 111.731C310.533 112.073 309.699 112.244 308.771 112.244C307.835 112.244 306.993 112.073 306.244 111.731C305.504 111.39 304.877 110.918 304.364 110.315C303.843 109.713 303.445 109.005 303.168 108.191C302.891 107.378 302.753 106.495 302.753 105.542V105.274ZM305.011 105.542C305.011 106.194 305.089 106.816 305.243 107.41C305.398 107.996 305.634 108.513 305.951 108.96C306.26 109.408 306.651 109.762 307.123 110.022C307.595 110.283 308.144 110.413 308.771 110.413C309.389 110.413 309.931 110.283 310.395 110.022C310.867 109.762 311.261 109.408 311.579 108.96C311.888 108.513 312.12 107.996 312.274 107.41C312.429 106.816 312.506 106.194 312.506 105.542V105.274C312.506 104.631 312.425 104.017 312.262 103.431C312.108 102.837 311.876 102.316 311.566 101.868C311.249 101.421 310.854 101.067 310.382 100.806C309.918 100.538 309.373 100.403 308.747 100.403C308.12 100.403 307.575 100.538 307.111 100.806C306.647 101.067 306.26 101.421 305.951 101.868C305.634 102.316 305.398 102.837 305.243 103.431C305.089 104.017 305.011 104.631 305.011 105.274V105.542ZM319.172 112L316.364 98.792H318.366L319.904 107.215L320.173 109.107L320.502 107.215L322.614 98.792H324.067L326.167 107.215L326.521 109.29L326.85 107.215L328.315 98.792H330.317L327.509 112H325.727L323.664 103.907L323.322 101.856L322.993 103.907L320.954 112H319.172ZM341.072 98.5479C341.487 98.5479 341.918 98.5763 342.366 98.6333C342.821 98.6903 343.163 98.7676 343.391 98.8652L343.086 101.075C342.646 100.977 342.227 100.908 341.829 100.867C341.438 100.818 341.027 100.794 340.596 100.794C340.042 100.794 339.542 100.863 339.094 101.001C338.647 101.132 338.256 101.327 337.922 101.587C337.621 101.815 337.357 102.096 337.129 102.43C336.909 102.755 336.726 103.121 336.58 103.528V112H334.309V98.792H336.458L336.555 100.562L336.567 100.892C337.104 100.167 337.747 99.5977 338.496 99.1826C339.253 98.7594 340.111 98.5479 341.072 98.5479ZM355.611 112C355.521 111.829 355.448 111.618 355.391 111.365C355.342 111.105 355.306 110.836 355.281 110.56C355.053 110.787 354.797 111.003 354.512 111.207C354.236 111.41 353.93 111.589 353.597 111.744C353.255 111.898 352.893 112.02 352.51 112.11C352.128 112.199 351.721 112.244 351.29 112.244C350.59 112.244 349.955 112.142 349.385 111.939C348.824 111.736 348.348 111.459 347.957 111.109C347.558 110.767 347.249 110.36 347.029 109.888C346.818 109.408 346.712 108.891 346.712 108.338C346.712 107.614 346.854 106.979 347.139 106.434C347.432 105.888 347.843 105.433 348.372 105.066C348.901 104.708 349.536 104.44 350.276 104.261C351.025 104.082 351.859 103.992 352.779 103.992H355.245V102.955C355.245 102.556 355.171 102.198 355.025 101.88C354.878 101.563 354.671 101.29 354.402 101.062C354.134 100.843 353.804 100.672 353.414 100.55C353.031 100.428 352.6 100.367 352.12 100.367C351.672 100.367 351.269 100.424 350.911 100.538C350.561 100.652 350.264 100.802 350.02 100.989C349.776 101.176 349.585 101.4 349.446 101.661C349.316 101.913 349.251 102.177 349.251 102.454H346.98C346.989 101.974 347.111 101.502 347.347 101.038C347.591 100.574 347.941 100.155 348.396 99.7808C348.844 99.4146 349.389 99.1175 350.032 98.8896C350.683 98.6618 351.42 98.5479 352.242 98.5479C352.99 98.5479 353.686 98.6414 354.329 98.8286C354.972 99.0076 355.529 99.2803 356.001 99.6465C356.465 100.021 356.832 100.485 357.1 101.038C357.369 101.591 357.503 102.238 357.503 102.979V109.119C357.503 109.559 357.544 110.027 357.625 110.523C357.706 111.011 357.82 111.438 357.967 111.805V112H355.611ZM351.619 110.279C352.059 110.279 352.47 110.222 352.852 110.108C353.235 109.994 353.584 109.843 353.902 109.656C354.211 109.469 354.48 109.257 354.708 109.021C354.935 108.777 355.114 108.525 355.245 108.265V105.591H353.145C352.364 105.591 351.68 105.66 351.094 105.799C350.516 105.929 350.057 106.132 349.715 106.409C349.471 106.604 349.284 106.836 349.153 107.105C349.031 107.374 348.97 107.679 348.97 108.021C348.97 108.346 349.023 108.647 349.129 108.924C349.243 109.201 349.41 109.437 349.629 109.632C349.849 109.835 350.126 109.994 350.459 110.108C350.793 110.222 351.18 110.279 351.619 110.279ZM361.434 117.078V98.792H363.497L363.607 100.232C363.786 100.005 363.981 99.8011 364.193 99.6221C364.404 99.4349 364.632 99.2762 364.876 99.146C365.218 98.9507 365.597 98.8042 366.012 98.7065C366.435 98.6007 366.887 98.5479 367.367 98.5479C368.213 98.5479 368.962 98.7147 369.613 99.0483C370.264 99.382 370.809 99.8459 371.249 100.44C371.688 101.034 372.022 101.746 372.25 102.576C372.477 103.398 372.591 104.301 372.591 105.286V105.542C372.591 106.486 372.477 107.369 372.25 108.191C372.022 109.005 371.688 109.713 371.249 110.315C370.809 110.918 370.264 111.39 369.613 111.731C368.97 112.073 368.233 112.244 367.403 112.244C366.899 112.244 366.427 112.191 365.987 112.085C365.556 111.98 365.165 111.829 364.815 111.634C364.604 111.512 364.404 111.377 364.217 111.231C364.03 111.076 363.855 110.91 363.692 110.73V117.078H361.434ZM370.333 105.286C370.333 104.643 370.26 104.033 370.113 103.455C369.975 102.869 369.759 102.352 369.466 101.905C369.165 101.465 368.787 101.115 368.331 100.855C367.875 100.595 367.33 100.464 366.695 100.464C366.345 100.464 366.02 100.505 365.719 100.586C365.426 100.668 365.161 100.786 364.925 100.94C364.665 101.095 364.433 101.286 364.229 101.514C364.026 101.742 363.847 101.994 363.692 102.271V108.631C363.831 108.875 363.989 109.103 364.168 109.314C364.347 109.526 364.551 109.705 364.779 109.852C365.039 110.022 365.328 110.157 365.646 110.254C365.971 110.352 366.329 110.401 366.72 110.401C367.346 110.401 367.888 110.271 368.343 110.01C368.799 109.742 369.173 109.384 369.466 108.936C369.759 108.488 369.975 107.972 370.113 107.386C370.26 106.8 370.333 106.185 370.333 105.542V105.286ZM380.392 99.8418C380.392 99.3617 380.539 98.9507 380.832 98.6089C381.125 98.2671 381.568 98.0962 382.162 98.0962C382.748 98.0962 383.192 98.2671 383.493 98.6089C383.802 98.9425 383.957 99.3535 383.957 99.8418C383.957 100.322 383.802 100.725 383.493 101.05C383.183 101.376 382.74 101.539 382.162 101.539C381.576 101.539 381.133 101.376 380.832 101.05C380.539 100.717 380.392 100.314 380.392 99.8418ZM383.297 111.475C383.297 112.289 383.106 113.119 382.724 113.965C382.341 114.812 381.824 115.524 381.173 116.102L379.77 115.333C380.16 114.763 380.437 114.157 380.6 113.514C380.762 112.871 380.844 112.203 380.844 111.512V109.327H383.297V111.475ZM73.4116 133.757C73.5907 133.489 73.79 133.245 74.0098 133.025C74.2295 132.797 74.4614 132.598 74.7056 132.427C75.0962 132.142 75.5234 131.926 75.9873 131.78C76.4593 131.633 76.9598 131.556 77.4888 131.548C78.1805 131.548 78.8071 131.65 79.3687 131.853C79.9383 132.048 80.4225 132.358 80.8213 132.781C81.2201 133.204 81.5252 133.741 81.7368 134.392C81.9565 135.035 82.0664 135.8 82.0664 136.687V145H79.8081V136.663C79.8081 136.142 79.7471 135.686 79.625 135.295C79.5029 134.897 79.3239 134.567 79.0879 134.307C78.8356 134.022 78.5182 133.81 78.1357 133.672C77.7533 133.525 77.3138 133.456 76.8174 133.464C76.4105 133.464 76.0239 133.521 75.6577 133.635C75.2915 133.749 74.9538 133.912 74.6445 134.124C74.4004 134.286 74.1725 134.478 73.9609 134.697C73.7575 134.909 73.5744 135.145 73.4116 135.405V145H71.1533V126.25H73.4116V133.757ZM91.5029 145.244C90.5752 145.244 89.7207 145.085 88.9395 144.768C88.1663 144.451 87.5031 144.007 86.9497 143.438C86.3963 142.868 85.965 142.192 85.6558 141.411C85.3465 140.63 85.1919 139.779 85.1919 138.86V138.347C85.1919 137.281 85.3628 136.329 85.7046 135.491C86.0464 134.644 86.5021 133.928 87.0718 133.342C87.6333 132.764 88.2721 132.321 88.9883 132.012C89.7126 131.702 90.4531 131.548 91.21 131.548C92.1621 131.548 92.9922 131.715 93.7002 132.048C94.4163 132.374 95.0104 132.826 95.4824 133.403C95.9544 133.989 96.3044 134.677 96.5322 135.466C96.7682 136.256 96.8862 137.11 96.8862 138.03V139.043H87.4502V139.128C87.5072 139.771 87.6333 140.337 87.8286 140.825C88.0321 141.313 88.3088 141.745 88.6587 142.119C89.0168 142.518 89.4481 142.831 89.9526 143.059C90.4572 143.287 91.0146 143.401 91.625 143.401C92.4307 143.401 93.1468 143.238 93.7734 142.913C94.4001 142.587 94.9209 142.156 95.3359 141.619L96.7153 142.693C96.2759 143.36 95.6167 143.954 94.7378 144.475C93.867 144.988 92.7887 145.244 91.5029 145.244ZM91.21 133.403C90.7542 133.403 90.3229 133.489 89.916 133.66C89.5091 133.822 89.1429 134.062 88.8174 134.38C88.4919 134.705 88.2152 135.104 87.9873 135.576C87.7676 136.04 87.613 136.577 87.5234 137.188H94.6279V137.078C94.6279 136.671 94.5506 136.235 94.396 135.771C94.2414 135.299 94.0257 134.893 93.749 134.551C93.4723 134.209 93.1224 133.932 92.6992 133.721C92.2842 133.509 91.7878 133.403 91.21 133.403ZM100.537 131.792H107.287V143.047H111.596V145H100.537V143.047H105.029V133.757H100.537V131.792ZM104.736 128.325C104.736 128.13 104.764 127.947 104.821 127.776C104.886 127.605 104.984 127.458 105.114 127.336C105.22 127.231 105.354 127.149 105.517 127.092C105.688 127.027 105.879 126.995 106.091 126.995C106.302 126.995 106.49 127.027 106.652 127.092C106.815 127.149 106.949 127.231 107.055 127.336C107.185 127.45 107.283 127.593 107.348 127.764C107.413 127.935 107.446 128.122 107.446 128.325C107.446 128.691 107.332 128.997 107.104 129.241C106.876 129.485 106.538 129.607 106.091 129.607C105.635 129.607 105.293 129.485 105.065 129.241C104.846 128.997 104.736 128.691 104.736 128.325ZM114.282 138.286C114.282 137.301 114.4 136.398 114.636 135.576C114.88 134.746 115.23 134.034 115.686 133.44C116.142 132.846 116.695 132.382 117.346 132.048C117.997 131.715 118.734 131.548 119.556 131.548C120.085 131.548 120.569 131.609 121.008 131.731C121.456 131.853 121.859 132.032 122.217 132.268C122.412 132.39 122.595 132.533 122.766 132.695C122.945 132.858 123.112 133.037 123.267 133.232L123.376 131.792H125.427V144.719C125.427 145.59 125.289 146.363 125.012 147.039C124.744 147.714 124.365 148.288 123.877 148.76C123.381 149.232 122.791 149.59 122.107 149.834C121.423 150.078 120.667 150.2 119.836 150.2C119.495 150.2 119.104 150.16 118.665 150.078C118.225 150.005 117.782 149.879 117.334 149.7C116.878 149.529 116.439 149.297 116.016 149.004C115.601 148.711 115.243 148.349 114.941 147.917L116.113 146.562C116.39 146.896 116.675 147.177 116.968 147.405C117.261 147.641 117.558 147.828 117.859 147.966C118.16 148.105 118.461 148.202 118.762 148.259C119.063 148.324 119.364 148.357 119.666 148.357C120.203 148.357 120.687 148.28 121.118 148.125C121.549 147.97 121.92 147.743 122.229 147.441C122.53 147.148 122.762 146.782 122.925 146.343C123.088 145.903 123.169 145.399 123.169 144.829V143.694C122.998 143.889 122.815 144.068 122.62 144.231C122.432 144.394 122.229 144.536 122.009 144.658C121.667 144.845 121.289 144.988 120.874 145.085C120.459 145.191 120.011 145.244 119.531 145.244C118.726 145.244 117.997 145.073 117.346 144.731C116.695 144.39 116.146 143.918 115.698 143.315C115.243 142.713 114.893 142.005 114.648 141.191C114.404 140.369 114.282 139.486 114.282 138.542V138.286ZM116.541 138.542C116.541 139.185 116.606 139.796 116.736 140.374C116.874 140.951 117.09 141.46 117.383 141.899C117.668 142.339 118.034 142.689 118.481 142.949C118.929 143.201 119.466 143.328 120.093 143.328C120.483 143.328 120.833 143.283 121.143 143.193C121.46 143.096 121.745 142.961 121.997 142.791C122.241 142.62 122.461 142.416 122.656 142.18C122.852 141.944 123.022 141.684 123.169 141.399V135.344C123.022 135.068 122.852 134.815 122.656 134.587C122.461 134.36 122.237 134.16 121.985 133.989C121.733 133.826 121.452 133.7 121.143 133.611C120.833 133.513 120.492 133.464 120.117 133.464C119.482 133.464 118.937 133.595 118.481 133.855C118.034 134.115 117.668 134.465 117.383 134.905C117.09 135.352 116.874 135.869 116.736 136.455C116.606 137.033 116.541 137.643 116.541 138.286V138.542ZM131.47 133.757C131.649 133.489 131.849 133.245 132.068 133.025C132.288 132.797 132.52 132.598 132.764 132.427C133.155 132.142 133.582 131.926 134.046 131.78C134.518 131.633 135.018 131.556 135.547 131.548C136.239 131.548 136.866 131.65 137.427 131.853C137.997 132.048 138.481 132.358 138.88 132.781C139.279 133.204 139.584 133.741 139.795 134.392C140.015 135.035 140.125 135.8 140.125 136.687V145H137.867V136.663C137.867 136.142 137.806 135.686 137.684 135.295C137.562 134.897 137.382 134.567 137.146 134.307C136.894 134.022 136.577 133.81 136.194 133.672C135.812 133.525 135.372 133.456 134.876 133.464C134.469 133.464 134.083 133.521 133.716 133.635C133.35 133.749 133.012 133.912 132.703 134.124C132.459 134.286 132.231 134.478 132.02 134.697C131.816 134.909 131.633 135.145 131.47 135.405V145H129.212V126.25H131.47V133.757ZM149.073 128.594V131.792H154.103V133.538H149.073V140.715C149.073 141.228 149.138 141.651 149.269 141.985C149.399 142.319 149.578 142.583 149.806 142.778C150.034 142.982 150.294 143.124 150.587 143.206C150.888 143.287 151.205 143.328 151.539 143.328C151.783 143.328 152.035 143.315 152.296 143.291C152.556 143.258 152.813 143.222 153.065 143.181C153.309 143.14 153.537 143.1 153.749 143.059C153.968 143.01 154.147 142.97 154.286 142.937L154.603 144.536C154.416 144.65 154.188 144.752 153.919 144.841C153.651 144.923 153.358 144.992 153.041 145.049C152.723 145.114 152.385 145.163 152.027 145.195C151.677 145.228 151.327 145.244 150.978 145.244C150.392 145.244 149.842 145.163 149.33 145C148.825 144.829 148.386 144.561 148.011 144.194C147.637 143.836 147.34 143.372 147.12 142.803C146.909 142.225 146.803 141.529 146.803 140.715V133.538H143.336V131.792H146.803V128.594H149.073ZM162.782 143.535C162.782 143.055 162.929 142.644 163.222 142.302C163.515 141.96 163.958 141.79 164.552 141.79C165.138 141.79 165.582 141.96 165.883 142.302C166.192 142.636 166.347 143.047 166.347 143.535C166.347 144.015 166.192 144.418 165.883 144.744C165.574 145.069 165.13 145.232 164.552 145.232C163.966 145.232 163.523 145.069 163.222 144.744C162.929 144.41 162.782 144.007 162.782 143.535ZM162.782 132.842C162.782 132.362 162.929 131.951 163.222 131.609C163.515 131.267 163.958 131.096 164.552 131.096C165.138 131.096 165.582 131.267 165.883 131.609C166.192 131.943 166.347 132.354 166.347 132.842C166.347 133.322 166.192 133.725 165.883 134.05C165.574 134.376 165.13 134.539 164.552 134.539C163.966 134.539 163.523 134.376 163.222 134.05C162.929 133.717 162.782 133.314 162.782 132.842ZM194.595 145H192.336V130.107L187.686 131.877V129.814L194.412 127.227H194.595V145ZM212.942 138.201C212.942 139.332 212.812 140.337 212.552 141.216C212.291 142.087 211.917 142.819 211.429 143.413C210.94 144.015 210.342 144.471 209.634 144.78C208.926 145.09 208.117 145.244 207.205 145.244C206.302 145.244 205.492 145.094 204.776 144.792C204.06 144.483 203.453 144.023 202.957 143.413C202.461 142.819 202.082 142.087 201.822 141.216C201.561 140.337 201.431 139.332 201.431 138.201V134.038C201.431 132.907 201.561 131.906 201.822 131.035C202.082 130.156 202.461 129.416 202.957 128.813C203.445 128.211 204.043 127.756 204.751 127.446C205.468 127.129 206.277 126.97 207.181 126.97C208.092 126.97 208.902 127.129 209.61 127.446C210.326 127.756 210.932 128.211 211.429 128.813C211.917 129.416 212.291 130.156 212.552 131.035C212.812 131.906 212.942 132.907 212.942 134.038V138.201ZM203.702 137.749L210.623 132.439C210.558 131.853 210.44 131.336 210.269 130.889C210.106 130.433 209.882 130.055 209.598 129.753C209.321 129.444 208.979 129.212 208.572 129.058C208.174 128.903 207.71 128.826 207.181 128.826C206.644 128.826 206.167 128.911 205.752 129.082C205.346 129.245 205 129.485 204.715 129.802C204.373 130.201 204.117 130.718 203.946 131.353C203.783 131.979 203.702 132.708 203.702 133.538V136.516C203.702 136.72 203.702 136.923 203.702 137.126C203.702 137.33 203.702 137.537 203.702 137.749ZM210.672 138.677V136.162C210.672 136.04 210.672 135.808 210.672 135.466C210.672 135.116 210.672 134.827 210.672 134.6L203.763 139.885C203.836 140.479 203.966 141.004 204.153 141.46C204.34 141.908 204.585 142.278 204.886 142.571C205.162 142.847 205.496 143.059 205.887 143.206C206.277 143.344 206.717 143.413 207.205 143.413C207.718 143.413 208.174 143.336 208.572 143.181C208.971 143.027 209.309 142.803 209.585 142.51C209.96 142.111 210.232 141.59 210.403 140.947C210.582 140.304 210.672 139.548 210.672 138.677ZM227.457 138.201C227.457 139.332 227.327 140.337 227.066 141.216C226.806 142.087 226.432 142.819 225.943 143.413C225.455 144.015 224.857 144.471 224.149 144.78C223.441 145.09 222.631 145.244 221.72 145.244C220.816 145.244 220.007 145.094 219.291 144.792C218.574 144.483 217.968 144.023 217.472 143.413C216.975 142.819 216.597 142.087 216.336 141.216C216.076 140.337 215.946 139.332 215.946 138.201V134.038C215.946 132.907 216.076 131.906 216.336 131.035C216.597 130.156 216.975 129.416 217.472 128.813C217.96 128.211 218.558 127.756 219.266 127.446C219.982 127.129 220.792 126.97 221.695 126.97C222.607 126.97 223.417 127.129 224.125 127.446C224.841 127.756 225.447 128.211 225.943 128.813C226.432 129.416 226.806 130.156 227.066 131.035C227.327 131.906 227.457 132.907 227.457 134.038V138.201ZM218.216 137.749L225.138 132.439C225.073 131.853 224.955 131.336 224.784 130.889C224.621 130.433 224.397 130.055 224.112 129.753C223.836 129.444 223.494 129.212 223.087 129.058C222.688 128.903 222.224 128.826 221.695 128.826C221.158 128.826 220.682 128.911 220.267 129.082C219.86 129.245 219.514 129.485 219.229 129.802C218.888 130.201 218.631 130.718 218.46 131.353C218.298 131.979 218.216 132.708 218.216 133.538V136.516C218.216 136.72 218.216 136.923 218.216 137.126C218.216 137.33 218.216 137.537 218.216 137.749ZM225.187 138.677V136.162C225.187 136.04 225.187 135.808 225.187 135.466C225.187 135.116 225.187 134.827 225.187 134.6L218.277 139.885C218.351 140.479 218.481 141.004 218.668 141.46C218.855 141.908 219.099 142.278 219.4 142.571C219.677 142.847 220.011 143.059 220.401 143.206C220.792 143.344 221.231 143.413 221.72 143.413C222.232 143.413 222.688 143.336 223.087 143.181C223.486 143.027 223.823 142.803 224.1 142.51C224.474 142.111 224.747 141.59 224.918 140.947C225.097 140.304 225.187 139.548 225.187 138.677ZM229.228 130.425C229.228 129.961 229.297 129.521 229.435 129.106C229.582 128.683 229.793 128.313 230.07 127.996C230.338 127.678 230.676 127.43 231.083 127.251C231.49 127.064 231.958 126.97 232.487 126.97C233.024 126.97 233.496 127.064 233.903 127.251C234.318 127.43 234.664 127.678 234.94 127.996C235.209 128.313 235.412 128.683 235.551 129.106C235.697 129.521 235.771 129.961 235.771 130.425V131.365C235.771 131.829 235.697 132.268 235.551 132.683C235.412 133.098 235.209 133.46 234.94 133.77C234.664 134.087 234.322 134.339 233.915 134.526C233.508 134.705 233.04 134.795 232.511 134.795C231.982 134.795 231.51 134.705 231.095 134.526C230.688 134.339 230.347 134.087 230.07 133.77C229.793 133.46 229.582 133.098 229.435 132.683C229.297 132.268 229.228 131.829 229.228 131.365V130.425ZM230.912 131.365C230.912 131.617 230.941 131.861 230.998 132.097C231.055 132.325 231.148 132.528 231.278 132.708C231.409 132.895 231.571 133.045 231.767 133.159C231.97 133.265 232.218 133.318 232.511 133.318C232.796 133.318 233.036 133.265 233.231 133.159C233.435 133.045 233.598 132.895 233.72 132.708C233.842 132.528 233.931 132.325 233.988 132.097C234.053 131.861 234.086 131.617 234.086 131.365V130.425C234.086 130.173 234.053 129.928 233.988 129.692C233.931 129.448 233.842 129.233 233.72 129.045C233.59 128.866 233.423 128.724 233.219 128.618C233.024 128.504 232.78 128.447 232.487 128.447C232.202 128.447 231.958 128.504 231.754 128.618C231.559 128.724 231.4 128.866 231.278 129.045C231.148 129.233 231.055 129.448 230.998 129.692C230.941 129.928 230.912 130.173 230.912 130.425V131.365ZM236.564 140.874C236.564 140.41 236.633 139.971 236.771 139.556C236.918 139.141 237.13 138.774 237.406 138.457C237.683 138.14 238.025 137.891 238.432 137.712C238.839 137.525 239.306 137.432 239.835 137.432C240.373 137.432 240.845 137.525 241.251 137.712C241.658 137.891 242 138.14 242.277 138.457C242.554 138.774 242.761 139.141 242.899 139.556C243.046 139.971 243.119 140.41 243.119 140.874V141.826C243.119 142.29 243.046 142.729 242.899 143.145C242.761 143.56 242.554 143.922 242.277 144.231C242 144.548 241.658 144.801 241.251 144.988C240.853 145.167 240.389 145.256 239.86 145.256C239.323 145.256 238.847 145.167 238.432 144.988C238.025 144.801 237.683 144.548 237.406 144.231C237.13 143.922 236.918 143.56 236.771 143.145C236.633 142.729 236.564 142.29 236.564 141.826V140.874ZM238.249 141.826C238.249 142.078 238.277 142.323 238.334 142.559C238.399 142.795 238.497 143.002 238.627 143.181C238.749 143.368 238.912 143.519 239.115 143.633C239.319 143.739 239.567 143.792 239.86 143.792C240.145 143.792 240.385 143.739 240.58 143.633C240.784 143.519 240.946 143.368 241.068 143.181C241.19 143.002 241.28 142.795 241.337 142.559C241.394 142.323 241.422 142.078 241.422 141.826V140.874C241.422 140.622 241.394 140.378 241.337 140.142C241.28 139.906 241.19 139.694 241.068 139.507C240.938 139.328 240.771 139.185 240.568 139.08C240.364 138.966 240.12 138.909 239.835 138.909C239.542 138.909 239.294 138.966 239.091 139.08C238.896 139.185 238.737 139.328 238.615 139.507C238.485 139.694 238.391 139.906 238.334 140.142C238.277 140.378 238.249 140.622 238.249 140.874V141.826ZM233.549 142.705L232.194 141.948L239.115 129.29L240.47 130.046L233.549 142.705ZM249.76 132.842C249.76 132.362 249.907 131.951 250.2 131.609C250.493 131.267 250.936 131.096 251.53 131.096C252.116 131.096 252.56 131.267 252.861 131.609C253.17 131.943 253.325 132.354 253.325 132.842C253.325 133.322 253.17 133.725 252.861 134.05C252.552 134.376 252.108 134.539 251.53 134.539C250.944 134.539 250.501 134.376 250.2 134.05C249.907 133.717 249.76 133.314 249.76 132.842ZM252.666 144.475C252.666 145.289 252.474 146.119 252.092 146.965C251.709 147.812 251.193 148.524 250.542 149.102L249.138 148.333C249.528 147.763 249.805 147.157 249.968 146.514C250.131 145.871 250.212 145.203 250.212 144.512V142.327H252.666V144.475ZM43.9429 181.064C44.4393 181.048 44.8543 180.909 45.188 180.649C45.5216 180.389 45.7902 180.055 45.9937 179.648C46.189 179.249 46.3273 178.798 46.4087 178.293C46.4982 177.797 46.543 177.296 46.543 176.792V174.729C46.543 174.086 46.6366 173.492 46.8237 172.946C47.019 172.401 47.3161 171.929 47.7148 171.53C47.9264 171.319 48.1624 171.127 48.4229 170.957C48.6914 170.786 48.9844 170.635 49.3018 170.505C48.9762 170.375 48.6751 170.22 48.3984 170.041C48.1299 169.862 47.8939 169.663 47.6904 169.443C47.2998 169.036 47.0109 168.564 46.8237 168.027C46.6366 167.482 46.543 166.892 46.543 166.257V164.182C46.543 163.685 46.5145 163.185 46.4575 162.68C46.4087 162.176 46.2988 161.72 46.1279 161.313C45.9489 160.914 45.6885 160.585 45.3467 160.324C45.0049 160.064 44.541 159.925 43.9551 159.909L44.1992 158.505C44.9886 158.53 45.6641 158.697 46.2256 159.006C46.7952 159.315 47.2632 159.718 47.6294 160.214C48.0444 160.776 48.3415 161.407 48.5205 162.106C48.7077 162.806 48.8013 163.498 48.8013 164.182V166.257C48.8013 166.745 48.846 167.176 48.9355 167.551C49.0332 167.917 49.1756 168.234 49.3628 168.503C49.6313 168.885 50.0016 169.166 50.4736 169.345C50.9538 169.516 51.5275 169.602 52.1948 169.602V171.372C51.6089 171.38 51.0962 171.453 50.6567 171.591C50.2254 171.722 49.8714 171.929 49.5947 172.214C49.3262 172.491 49.1268 172.836 48.9966 173.251C48.8664 173.667 48.8013 174.159 48.8013 174.729V176.792C48.8013 177.443 48.7118 178.098 48.5327 178.757C48.3537 179.424 48.077 180.03 47.7026 180.576C47.3201 181.121 46.84 181.569 46.2622 181.918C45.6844 182.268 44.9967 182.451 44.1992 182.468L43.9429 181.064Z" fill="white"/>
<path d="M62.2661 44.4131C62.673 44.4131 63.0677 44.348 63.4502 44.2178C63.8408 44.0876 64.1867 43.9045 64.4878 43.6685C64.7889 43.4406 65.029 43.172 65.208 42.8628C65.3952 42.5454 65.4928 42.2036 65.501 41.8374H67.6372C67.6291 42.4233 67.4744 42.9849 67.1733 43.522C66.8804 44.0509 66.4857 44.5148 65.9893 44.9136C65.4928 45.3205 64.9232 45.646 64.2803 45.8901C63.6374 46.1261 62.966 46.2441 62.2661 46.2441C61.2651 46.2441 60.3903 46.0651 59.6416 45.707C58.8929 45.349 58.2703 44.8647 57.7739 44.2544C57.2694 43.6522 56.891 42.9564 56.6387 42.167C56.3864 41.3695 56.2603 40.5312 56.2603 39.6523V39.1396C56.2603 38.2689 56.3864 37.4347 56.6387 36.6372C56.891 35.8397 57.2694 35.1357 57.7739 34.5254C58.2703 33.9232 58.8929 33.443 59.6416 33.085C60.3903 32.7269 61.2651 32.5479 62.2661 32.5479C63.0474 32.5479 63.7635 32.674 64.4146 32.9263C65.0737 33.1704 65.6434 33.5041 66.1235 33.9272C66.5955 34.3586 66.9658 34.8672 67.2344 35.4531C67.5029 36.0391 67.6372 36.6657 67.6372 37.333H65.501C65.4928 36.9342 65.4033 36.5599 65.2324 36.21C65.0697 35.8519 64.8459 35.5386 64.561 35.27C64.2762 35.0015 63.9344 34.7899 63.5356 34.6353C63.145 34.4806 62.7218 34.4033 62.2661 34.4033C61.5662 34.4033 60.9762 34.5457 60.4961 34.8306C60.0241 35.1073 59.6416 35.4694 59.3486 35.917C59.0557 36.3727 58.8441 36.8813 58.7139 37.4429C58.5918 38.0044 58.5308 38.57 58.5308 39.1396V39.6523C58.5308 40.2301 58.5918 40.8039 58.7139 41.3735C58.8441 41.9351 59.0557 42.4396 59.3486 42.8872C59.6335 43.3429 60.0119 43.7132 60.4839 43.998C60.964 44.2747 61.5581 44.4131 62.2661 44.4131ZM70.5186 39.2739C70.5186 38.3218 70.6569 37.4388 70.9336 36.625C71.2103 35.8031 71.609 35.091 72.1299 34.4888C72.6426 33.8866 73.2692 33.4146 74.0098 33.0728C74.7503 32.7228 75.5845 32.5479 76.5122 32.5479C77.4481 32.5479 78.2863 32.7228 79.0269 33.0728C79.7756 33.4146 80.4103 33.8866 80.9312 34.4888C81.4438 35.091 81.8385 35.8031 82.1152 36.625C82.3919 37.4388 82.5303 38.3218 82.5303 39.2739V39.5425C82.5303 40.4946 82.3919 41.3776 82.1152 42.1914C81.8385 43.0052 81.4438 43.7132 80.9312 44.3154C80.4103 44.9176 79.7796 45.3896 79.0391 45.7314C78.2985 46.0732 77.4644 46.2441 76.5366 46.2441C75.6007 46.2441 74.7585 46.0732 74.0098 45.7314C73.2692 45.3896 72.6426 44.9176 72.1299 44.3154C71.609 43.7132 71.2103 43.0052 70.9336 42.1914C70.6569 41.3776 70.5186 40.4946 70.5186 39.5425V39.2739ZM72.7769 39.5425C72.7769 40.1935 72.8542 40.8161 73.0088 41.4102C73.1634 41.9961 73.3994 42.5129 73.7168 42.9604C74.026 43.408 74.4167 43.762 74.8887 44.0225C75.3607 44.2829 75.91 44.4131 76.5366 44.4131C77.1551 44.4131 77.6963 44.2829 78.1602 44.0225C78.6322 43.762 79.0269 43.408 79.3442 42.9604C79.6535 42.5129 79.8854 41.9961 80.04 41.4102C80.1947 40.8161 80.272 40.1935 80.272 39.5425V39.2739C80.272 38.631 80.1906 38.0166 80.0278 37.4307C79.8732 36.8366 79.6413 36.3158 79.332 35.8682C79.0146 35.4206 78.62 35.0666 78.1479 34.8062C77.6841 34.5376 77.1388 34.4033 76.5122 34.4033C75.8856 34.4033 75.3403 34.5376 74.8765 34.8062C74.4126 35.0666 74.026 35.4206 73.7168 35.8682C73.3994 36.3158 73.1634 36.8366 73.0088 37.4307C72.8542 38.0166 72.7769 38.631 72.7769 39.2739V39.5425ZM85.668 46V32.792H87.6943L87.853 34.7451C88.0483 34.4684 88.2599 34.2161 88.4878 33.9883C88.7238 33.7523 88.972 33.5488 89.2324 33.3779C89.623 33.1175 90.0462 32.9181 90.502 32.7798C90.9658 32.6333 91.4541 32.556 91.9668 32.5479C92.6585 32.5479 93.2852 32.6455 93.8467 32.8408C94.4163 33.0361 94.9006 33.3413 95.2993 33.7563C95.6981 34.1714 96.0033 34.7004 96.2148 35.3433C96.4346 35.978 96.5444 36.7349 96.5444 37.6138V46H94.2861V37.6626C94.2861 37.0767 94.221 36.5802 94.0908 36.1733C93.9606 35.7664 93.7694 35.4368 93.5171 35.1846C93.2567 34.9323 92.9393 34.7492 92.5649 34.6353C92.1987 34.5213 91.7756 34.4644 91.2954 34.4644C90.8804 34.4644 90.4938 34.5254 90.1357 34.6475C89.7777 34.7614 89.4481 34.9201 89.147 35.1235C88.9028 35.3026 88.675 35.5101 88.4634 35.7461C88.2599 35.9821 88.0809 36.2425 87.9263 36.5273V46H85.668ZM105.529 29.5938V32.792H110.559V34.5376H105.529V41.7153C105.529 42.228 105.594 42.6512 105.725 42.9849C105.855 43.3185 106.034 43.583 106.262 43.7783C106.49 43.9818 106.75 44.1242 107.043 44.2056C107.344 44.2869 107.661 44.3276 107.995 44.3276C108.239 44.3276 108.492 44.3154 108.752 44.291C109.012 44.2585 109.269 44.2218 109.521 44.1812C109.765 44.1405 109.993 44.0998 110.205 44.0591C110.424 44.0103 110.603 43.9696 110.742 43.937L111.059 45.5361C110.872 45.6501 110.644 45.7518 110.375 45.8413C110.107 45.9227 109.814 45.9919 109.497 46.0488C109.179 46.1139 108.841 46.1628 108.483 46.1953C108.133 46.2279 107.784 46.2441 107.434 46.2441C106.848 46.2441 106.298 46.1628 105.786 46C105.281 45.8291 104.842 45.5605 104.467 45.1943C104.093 44.8363 103.796 44.3724 103.576 43.8027C103.365 43.2249 103.259 42.5291 103.259 41.7153V34.5376H99.792V32.792H103.259V29.5938H105.529ZM123.376 46C123.287 45.8291 123.214 45.6175 123.157 45.3652C123.108 45.1048 123.071 44.8363 123.047 44.5596C122.819 44.7874 122.563 45.0031 122.278 45.2065C122.001 45.41 121.696 45.589 121.362 45.7437C121.021 45.8983 120.658 46.0203 120.276 46.1099C119.893 46.1994 119.486 46.2441 119.055 46.2441C118.355 46.2441 117.721 46.1424 117.151 45.939C116.589 45.7355 116.113 45.4588 115.723 45.1089C115.324 44.7671 115.015 44.3602 114.795 43.8882C114.583 43.408 114.478 42.8913 114.478 42.3379C114.478 41.6136 114.62 40.9788 114.905 40.4336C115.198 39.8883 115.609 39.4326 116.138 39.0664C116.667 38.7083 117.301 38.4398 118.042 38.2607C118.791 38.0817 119.625 37.9922 120.544 37.9922H123.01V36.9546C123.01 36.5558 122.937 36.1978 122.791 35.8804C122.644 35.563 122.437 35.2904 122.168 35.0625C121.899 34.8428 121.57 34.6719 121.179 34.5498C120.797 34.4277 120.365 34.3667 119.885 34.3667C119.438 34.3667 119.035 34.4237 118.677 34.5376C118.327 34.6515 118.03 34.8021 117.786 34.9893C117.542 35.1764 117.35 35.4002 117.212 35.6606C117.082 35.9129 117.017 36.1774 117.017 36.4541H114.746C114.754 35.974 114.876 35.502 115.112 35.0381C115.356 34.5742 115.706 34.1551 116.162 33.7808C116.61 33.4146 117.155 33.1175 117.798 32.8896C118.449 32.6618 119.185 32.5479 120.007 32.5479C120.756 32.5479 121.452 32.6414 122.095 32.8286C122.738 33.0076 123.295 33.2803 123.767 33.6465C124.231 34.0208 124.597 34.4847 124.866 35.0381C125.134 35.5915 125.269 36.2384 125.269 36.979V43.1191C125.269 43.5586 125.309 44.0265 125.391 44.5229C125.472 45.0112 125.586 45.4385 125.732 45.8047V46H123.376ZM119.385 44.2788C119.824 44.2788 120.235 44.2218 120.618 44.1079C121 43.994 121.35 43.8434 121.667 43.6562C121.977 43.4691 122.245 43.2575 122.473 43.0215C122.701 42.7773 122.88 42.5251 123.01 42.2646V39.5913H120.911C120.129 39.5913 119.446 39.6605 118.86 39.7988C118.282 39.929 117.822 40.1325 117.48 40.4092C117.236 40.6045 117.049 40.8364 116.919 41.105C116.797 41.3735 116.736 41.6787 116.736 42.0205C116.736 42.346 116.789 42.6471 116.895 42.9238C117.008 43.2005 117.175 43.4365 117.395 43.6318C117.615 43.8353 117.891 43.994 118.225 44.1079C118.559 44.2218 118.945 44.2788 119.385 44.2788ZM129.566 32.792H136.316V44.0469H140.625V46H129.566V44.0469H134.058V34.7573H129.566V32.792ZM133.765 29.3252C133.765 29.1299 133.794 28.9468 133.851 28.7759C133.916 28.605 134.013 28.4585 134.144 28.3364C134.249 28.2306 134.384 28.1493 134.546 28.0923C134.717 28.0272 134.909 27.9946 135.12 27.9946C135.332 27.9946 135.519 28.0272 135.682 28.0923C135.844 28.1493 135.979 28.2306 136.084 28.3364C136.215 28.4504 136.312 28.5928 136.377 28.7637C136.443 28.9346 136.475 29.1217 136.475 29.3252C136.475 29.6914 136.361 29.9966 136.133 30.2407C135.905 30.4849 135.568 30.6069 135.12 30.6069C134.664 30.6069 134.323 30.4849 134.095 30.2407C133.875 29.9966 133.765 29.6914 133.765 29.3252ZM143.727 46V32.792H145.753L145.912 34.7451C146.107 34.4684 146.319 34.2161 146.546 33.9883C146.782 33.7523 147.031 33.5488 147.291 33.3779C147.682 33.1175 148.105 32.9181 148.561 32.7798C149.024 32.6333 149.513 32.556 150.025 32.5479C150.717 32.5479 151.344 32.6455 151.905 32.8408C152.475 33.0361 152.959 33.3413 153.358 33.7563C153.757 34.1714 154.062 34.7004 154.273 35.3433C154.493 35.978 154.603 36.7349 154.603 37.6138V46H152.345V37.6626C152.345 37.0767 152.28 36.5802 152.149 36.1733C152.019 35.7664 151.828 35.4368 151.576 35.1846C151.315 34.9323 150.998 34.7492 150.624 34.6353C150.257 34.5213 149.834 34.4644 149.354 34.4644C148.939 34.4644 148.552 34.5254 148.194 34.6475C147.836 34.7614 147.507 34.9201 147.206 35.1235C146.961 35.3026 146.734 35.5101 146.522 35.7461C146.319 35.9821 146.139 36.2425 145.985 36.5273V46H143.727ZM164.076 46.2441C163.148 46.2441 162.294 46.0854 161.513 45.7681C160.74 45.4507 160.076 45.0072 159.523 44.4375C158.97 43.8678 158.538 43.1924 158.229 42.4111C157.92 41.6299 157.765 40.7795 157.765 39.8599V39.3472C157.765 38.2811 157.936 37.3289 158.278 36.4907C158.62 35.6444 159.075 34.9282 159.645 34.3423C160.207 33.7645 160.845 33.321 161.562 33.0117C162.286 32.7025 163.026 32.5479 163.783 32.5479C164.735 32.5479 165.565 32.7147 166.273 33.0483C166.99 33.3739 167.584 33.8255 168.056 34.4033C168.528 34.9893 168.878 35.6769 169.105 36.4663C169.341 37.2557 169.459 38.1102 169.459 39.0298V40.043H160.023V40.1284C160.08 40.7713 160.207 41.3369 160.402 41.8252C160.605 42.3135 160.882 42.7448 161.232 43.1191C161.59 43.5179 162.021 43.8312 162.526 44.0591C163.03 44.2869 163.588 44.4009 164.198 44.4009C165.004 44.4009 165.72 44.2381 166.347 43.9126C166.973 43.5871 167.494 43.1558 167.909 42.6187L169.289 43.6929C168.849 44.3602 168.19 44.9543 167.311 45.4751C166.44 45.9878 165.362 46.2441 164.076 46.2441ZM163.783 34.4033C163.327 34.4033 162.896 34.4888 162.489 34.6597C162.082 34.8224 161.716 35.0625 161.391 35.3799C161.065 35.7054 160.788 36.1042 160.561 36.5762C160.341 37.04 160.186 37.5771 160.097 38.1875H167.201V38.0776C167.201 37.6707 167.124 37.2354 166.969 36.7715C166.815 36.2995 166.599 35.8926 166.322 35.5508C166.046 35.209 165.696 34.9323 165.272 34.7207C164.857 34.5091 164.361 34.4033 163.783 34.4033ZM181.411 32.5479C181.826 32.5479 182.257 32.5763 182.705 32.6333C183.16 32.6903 183.502 32.7676 183.73 32.8652L183.425 35.0747C182.985 34.9771 182.566 34.9079 182.167 34.8672C181.777 34.8184 181.366 34.7939 180.935 34.7939C180.381 34.7939 179.881 34.8631 179.433 35.0015C178.986 35.1317 178.595 35.327 178.261 35.5874C177.96 35.8153 177.696 36.096 177.468 36.4297C177.248 36.7552 177.065 37.1214 176.918 37.5283V46H174.648V32.792H176.796L176.894 34.562L176.906 34.8916C177.443 34.1673 178.086 33.5977 178.835 33.1826C179.592 32.7594 180.45 32.5479 181.411 32.5479Z" fill="#0066FF"/>
</svg>
