<svg width="1399" height="83" viewBox="0 0 1399 83" fill="none" xmlns="http://www.w3.org/2000/svg">
<rect width="1399" height="83" rx="20" fill="#0066FF" fill-opacity="0.2"/>
<rect x="1.5" y="1.5" width="1396" height="80" rx="18.5" stroke="#0066FF" stroke-opacity="0.5" stroke-width="3"/>
<path d="M52.4268 48.6074L42.0752 43.981V42.1987L52.4268 37.5845V39.9771L44.9561 42.9067L44.3091 43.1143L44.9561 43.334L52.4268 46.2148V48.6074ZM123.474 47.4966C123.474 47.228 123.421 46.988 123.315 46.7764C123.21 46.5566 123.031 46.3573 122.778 46.1782C122.526 45.9992 122.192 45.8364 121.777 45.6899C121.362 45.5353 120.846 45.397 120.227 45.2749C119.47 45.1203 118.778 44.9331 118.152 44.7134C117.533 44.4937 117.004 44.2292 116.565 43.9199C116.117 43.6188 115.771 43.2648 115.527 42.8579C115.283 42.4429 115.161 41.9627 115.161 41.4175C115.161 40.8804 115.287 40.3799 115.54 39.916C115.792 39.444 116.146 39.033 116.602 38.6831C117.057 38.3332 117.598 38.0565 118.225 37.853C118.86 37.6496 119.556 37.5479 120.312 37.5479C121.126 37.5479 121.859 37.6536 122.51 37.8652C123.161 38.0768 123.714 38.3698 124.17 38.7441C124.626 39.1185 124.976 39.5579 125.22 40.0625C125.472 40.5589 125.598 41.096 125.598 41.6738H123.34C123.34 41.389 123.267 41.1123 123.12 40.8438C122.974 40.5671 122.77 40.3229 122.51 40.1113C122.249 39.8997 121.932 39.7288 121.558 39.5986C121.191 39.4684 120.776 39.4033 120.312 39.4033C119.832 39.4033 119.409 39.4562 119.043 39.562C118.685 39.6678 118.388 39.8102 118.152 39.9893C117.908 40.1683 117.725 40.3758 117.603 40.6118C117.48 40.8478 117.419 41.092 117.419 41.3442C117.419 41.6047 117.468 41.8366 117.566 42.04C117.664 42.2435 117.834 42.4266 118.079 42.5894C118.315 42.7521 118.632 42.8986 119.031 43.0288C119.438 43.159 119.95 43.2852 120.569 43.4072C121.383 43.5781 122.111 43.7775 122.754 44.0054C123.397 44.2251 123.938 44.4896 124.377 44.7988C124.817 45.1162 125.151 45.4824 125.378 45.8975C125.614 46.3125 125.732 46.7926 125.732 47.3379C125.732 47.9238 125.598 48.4569 125.33 48.937C125.069 49.4172 124.703 49.8281 124.231 50.1699C123.759 50.5117 123.193 50.7762 122.534 50.9634C121.875 51.1506 121.155 51.2441 120.374 51.2441C119.478 51.2441 118.681 51.1261 117.981 50.8901C117.281 50.646 116.691 50.3245 116.211 49.9258C115.723 49.5352 115.348 49.0794 115.088 48.5586C114.836 48.0378 114.709 47.4966 114.709 46.9351H116.968C117 47.3989 117.122 47.7896 117.334 48.1069C117.554 48.4243 117.826 48.6807 118.152 48.876C118.469 49.0713 118.823 49.2096 119.214 49.291C119.604 49.3724 119.991 49.4131 120.374 49.4131C120.976 49.4131 121.501 49.3439 121.948 49.2056C122.396 49.0591 122.746 48.8597 122.998 48.6074C123.153 48.4528 123.271 48.2819 123.352 48.0947C123.433 47.9076 123.474 47.7082 123.474 47.4966ZM137.867 37.5479C138.282 37.5479 138.713 37.5763 139.161 37.6333C139.616 37.6903 139.958 37.7676 140.186 37.8652L139.881 40.0747C139.441 39.9771 139.022 39.9079 138.624 39.8672C138.233 39.8184 137.822 39.7939 137.391 39.7939C136.837 39.7939 136.337 39.8631 135.889 40.0015C135.442 40.1317 135.051 40.327 134.717 40.5874C134.416 40.8153 134.152 41.096 133.924 41.4297C133.704 41.7552 133.521 42.1214 133.375 42.5283V51H131.104V37.792H133.252L133.35 39.562L133.362 39.8916C133.899 39.1673 134.542 38.5977 135.291 38.1826C136.048 37.7594 136.906 37.5479 137.867 37.5479ZM149.354 49.4131C149.761 49.4131 150.156 49.348 150.538 49.2178C150.929 49.0876 151.275 48.9045 151.576 48.6685C151.877 48.4406 152.117 48.172 152.296 47.8628C152.483 47.5454 152.581 47.2036 152.589 46.8374H154.725C154.717 47.4233 154.562 47.9849 154.261 48.522C153.968 49.0509 153.574 49.5148 153.077 49.9136C152.581 50.3205 152.011 50.646 151.368 50.8901C150.725 51.1261 150.054 51.2441 149.354 51.2441C148.353 51.2441 147.478 51.0651 146.729 50.707C145.981 50.349 145.358 49.8647 144.862 49.2544C144.357 48.6522 143.979 47.9564 143.727 47.167C143.474 46.3695 143.348 45.5312 143.348 44.6523V44.1396C143.348 43.2689 143.474 42.4347 143.727 41.6372C143.979 40.8397 144.357 40.1357 144.862 39.5254C145.358 38.9232 145.981 38.443 146.729 38.085C147.478 37.7269 148.353 37.5479 149.354 37.5479C150.135 37.5479 150.851 37.674 151.502 37.9263C152.162 38.1704 152.731 38.5041 153.211 38.9272C153.683 39.3586 154.054 39.8672 154.322 40.4531C154.591 41.0391 154.725 41.6657 154.725 42.333H152.589C152.581 41.9342 152.491 41.5599 152.32 41.21C152.158 40.8519 151.934 40.5386 151.649 40.27C151.364 40.0015 151.022 39.7899 150.624 39.6353C150.233 39.4806 149.81 39.4033 149.354 39.4033C148.654 39.4033 148.064 39.5457 147.584 39.8306C147.112 40.1073 146.729 40.4694 146.437 40.917C146.144 41.3727 145.932 41.8813 145.802 42.4429C145.68 43.0044 145.619 43.57 145.619 44.1396V44.6523C145.619 45.2301 145.68 45.8039 145.802 46.3735C145.932 46.9351 146.144 47.4396 146.437 47.8872C146.721 48.3429 147.1 48.7132 147.572 48.998C148.052 49.2747 148.646 49.4131 149.354 49.4131ZM169.13 41.4785H158.229V39.5132H169.13V41.4785ZM169.13 46.5444H158.229V44.5913H169.13V46.5444ZM176.796 33.5806L176.54 38.0972H174.953L174.965 33.7759V32.25H176.796V33.5806ZM181.154 33.5806L180.898 38.0972H179.323L179.335 33.7759V32.25H181.167L181.154 33.5806ZM187.625 32.25H194.375V49.0469H198.684V51H187.625V49.0469H192.117V34.2153H187.625V32.25ZM201.15 44.2739C201.15 43.3218 201.289 42.4388 201.565 41.625C201.842 40.8031 202.241 40.091 202.762 39.4888C203.274 38.8866 203.901 38.4146 204.642 38.0728C205.382 37.7228 206.216 37.5479 207.144 37.5479C208.08 37.5479 208.918 37.7228 209.659 38.0728C210.407 38.4146 211.042 38.8866 211.563 39.4888C212.076 40.091 212.47 40.8031 212.747 41.625C213.024 42.4388 213.162 43.3218 213.162 44.2739V44.5425C213.162 45.4946 213.024 46.3776 212.747 47.1914C212.47 48.0052 212.076 48.7132 211.563 49.3154C211.042 49.9176 210.411 50.3896 209.671 50.7314C208.93 51.0732 208.096 51.2441 207.168 51.2441C206.233 51.2441 205.39 51.0732 204.642 50.7314C203.901 50.3896 203.274 49.9176 202.762 49.3154C202.241 48.7132 201.842 48.0052 201.565 47.1914C201.289 46.3776 201.15 45.4946 201.15 44.5425V44.2739ZM203.409 44.5425C203.409 45.1935 203.486 45.8161 203.641 46.4102C203.795 46.9961 204.031 47.5129 204.349 47.9604C204.658 48.408 205.049 48.762 205.521 49.0225C205.993 49.2829 206.542 49.4131 207.168 49.4131C207.787 49.4131 208.328 49.2829 208.792 49.0225C209.264 48.762 209.659 48.408 209.976 47.9604C210.285 47.5129 210.517 46.9961 210.672 46.4102C210.826 45.8161 210.904 45.1935 210.904 44.5425V44.2739C210.904 43.631 210.822 43.0166 210.66 42.4307C210.505 41.8366 210.273 41.3158 209.964 40.8682C209.646 40.4206 209.252 40.0666 208.78 39.8062C208.316 39.5376 207.771 39.4033 207.144 39.4033C206.517 39.4033 205.972 39.5376 205.508 39.8062C205.044 40.0666 204.658 40.4206 204.349 40.8682C204.031 41.3158 203.795 41.8366 203.641 42.4307C203.486 43.0166 203.409 43.631 203.409 44.2739V44.5425ZM215.885 44.2861C215.885 43.3014 216.003 42.3981 216.239 41.5762C216.483 40.7461 216.833 40.034 217.289 39.4399C217.744 38.8459 218.298 38.382 218.949 38.0483C219.6 37.7147 220.336 37.5479 221.158 37.5479C221.687 37.5479 222.171 37.6089 222.611 37.731C223.058 37.853 223.461 38.0321 223.819 38.2681C224.015 38.3901 224.198 38.5326 224.369 38.6953C224.548 38.8581 224.715 39.0371 224.869 39.2324L224.979 37.792H227.03V50.7192C227.03 51.59 226.891 52.3631 226.615 53.0386C226.346 53.714 225.968 54.2878 225.479 54.7598C224.983 55.2318 224.393 55.5898 223.709 55.834C223.026 56.0781 222.269 56.2002 221.439 56.2002C221.097 56.2002 220.707 56.1595 220.267 56.0781C219.828 56.0049 219.384 55.8787 218.937 55.6997C218.481 55.5288 218.041 55.2969 217.618 55.0039C217.203 54.7109 216.845 54.3488 216.544 53.9175L217.716 52.5625C217.993 52.8962 218.277 53.1769 218.57 53.4048C218.863 53.6408 219.16 53.828 219.461 53.9663C219.763 54.1047 220.064 54.2023 220.365 54.2593C220.666 54.3244 220.967 54.3569 221.268 54.3569C221.805 54.3569 222.289 54.2796 222.721 54.125C223.152 53.9704 223.522 53.7425 223.832 53.4414C224.133 53.1484 224.365 52.7822 224.527 52.3428C224.69 51.9033 224.771 51.3988 224.771 50.8291V49.6938C224.601 49.8892 224.417 50.0682 224.222 50.231C224.035 50.3937 223.832 50.5361 223.612 50.6582C223.27 50.8454 222.892 50.9878 222.477 51.0854C222.062 51.1912 221.614 51.2441 221.134 51.2441C220.328 51.2441 219.6 51.0732 218.949 50.7314C218.298 50.3896 217.748 49.9176 217.301 49.3154C216.845 48.7132 216.495 48.0052 216.251 47.1914C216.007 46.3695 215.885 45.4865 215.885 44.5425V44.2861ZM218.143 44.5425C218.143 45.1854 218.208 45.7957 218.338 46.3735C218.477 46.9513 218.692 47.46 218.985 47.8994C219.27 48.3389 219.636 48.6888 220.084 48.9492C220.532 49.2015 221.069 49.3276 221.695 49.3276C222.086 49.3276 222.436 49.2829 222.745 49.1934C223.062 49.0957 223.347 48.9614 223.6 48.7905C223.844 48.6196 224.063 48.4162 224.259 48.1802C224.454 47.9442 224.625 47.6838 224.771 47.3989V41.3442C224.625 41.0675 224.454 40.8153 224.259 40.5874C224.063 40.3595 223.84 40.1602 223.587 39.9893C223.335 39.8265 223.054 39.7004 222.745 39.6108C222.436 39.5132 222.094 39.4644 221.72 39.4644C221.085 39.4644 220.54 39.5946 220.084 39.855C219.636 40.1154 219.27 40.4653 218.985 40.9048C218.692 41.3524 218.477 41.8691 218.338 42.4551C218.208 43.0329 218.143 43.6432 218.143 44.2861V44.5425ZM230.18 44.2739C230.18 43.3218 230.318 42.4388 230.595 41.625C230.871 40.8031 231.27 40.091 231.791 39.4888C232.304 38.8866 232.93 38.4146 233.671 38.0728C234.411 37.7228 235.246 37.5479 236.173 37.5479C237.109 37.5479 237.947 37.7228 238.688 38.0728C239.437 38.4146 240.071 38.8866 240.592 39.4888C241.105 40.091 241.5 40.8031 241.776 41.625C242.053 42.4388 242.191 43.3218 242.191 44.2739V44.5425C242.191 45.4946 242.053 46.3776 241.776 47.1914C241.5 48.0052 241.105 48.7132 240.592 49.3154C240.071 49.9176 239.441 50.3896 238.7 50.7314C237.96 51.0732 237.125 51.2441 236.198 51.2441C235.262 51.2441 234.42 51.0732 233.671 50.7314C232.93 50.3896 232.304 49.9176 231.791 49.3154C231.27 48.7132 230.871 48.0052 230.595 47.1914C230.318 46.3776 230.18 45.4946 230.18 44.5425V44.2739ZM232.438 44.5425C232.438 45.1935 232.515 45.8161 232.67 46.4102C232.825 46.9961 233.061 47.5129 233.378 47.9604C233.687 48.408 234.078 48.762 234.55 49.0225C235.022 49.2829 235.571 49.4131 236.198 49.4131C236.816 49.4131 237.357 49.2829 237.821 49.0225C238.293 48.762 238.688 48.408 239.005 47.9604C239.315 47.5129 239.547 46.9961 239.701 46.4102C239.856 45.8161 239.933 45.1935 239.933 44.5425V44.2739C239.933 43.631 239.852 43.0166 239.689 42.4307C239.534 41.8366 239.302 41.3158 238.993 40.8682C238.676 40.4206 238.281 40.0666 237.809 39.8062C237.345 39.5376 236.8 39.4033 236.173 39.4033C235.547 39.4033 235.001 39.5376 234.538 39.8062C234.074 40.0666 233.687 40.4206 233.378 40.8682C233.061 41.3158 232.825 41.8366 232.67 42.4307C232.515 43.0166 232.438 43.631 232.438 44.2739V44.5425ZM249.26 49.5352C249.26 49.055 249.406 48.644 249.699 48.3022C249.992 47.9604 250.436 47.7896 251.03 47.7896C251.616 47.7896 252.059 47.9604 252.36 48.3022C252.67 48.6359 252.824 49.0469 252.824 49.5352C252.824 50.0153 252.67 50.4181 252.36 50.7437C252.051 51.0692 251.608 51.2319 251.03 51.2319C250.444 51.2319 250 51.0692 249.699 50.7437C249.406 50.41 249.26 50.0072 249.26 49.5352ZM259.832 56.0781V37.792H261.895L262.004 39.2324C262.183 39.0046 262.379 38.8011 262.59 38.6221C262.802 38.4349 263.03 38.2762 263.274 38.146C263.616 37.9507 263.994 37.8042 264.409 37.7065C264.832 37.6007 265.284 37.5479 265.764 37.5479C266.611 37.5479 267.359 37.7147 268.01 38.0483C268.661 38.382 269.207 38.8459 269.646 39.4399C270.085 40.034 270.419 40.7461 270.647 41.5762C270.875 42.3981 270.989 43.3014 270.989 44.2861V44.5425C270.989 45.4865 270.875 46.3695 270.647 47.1914C270.419 48.0052 270.085 48.7132 269.646 49.3154C269.207 49.9176 268.661 50.3896 268.01 50.7314C267.367 51.0732 266.631 51.2441 265.801 51.2441C265.296 51.2441 264.824 51.1912 264.385 51.0854C263.953 50.9797 263.563 50.8291 263.213 50.6338C263.001 50.5117 262.802 50.3774 262.615 50.231C262.428 50.0763 262.253 49.9095 262.09 49.7305V56.0781H259.832ZM268.73 44.2861C268.73 43.6432 268.657 43.0329 268.511 42.4551C268.372 41.8691 268.157 41.3524 267.864 40.9048C267.563 40.4653 267.184 40.1154 266.729 39.855C266.273 39.5946 265.728 39.4644 265.093 39.4644C264.743 39.4644 264.417 39.505 264.116 39.5864C263.823 39.6678 263.559 39.7858 263.323 39.9404C263.062 40.0951 262.83 40.2863 262.627 40.5142C262.424 40.742 262.244 40.9943 262.09 41.271V47.6309C262.228 47.875 262.387 48.1029 262.566 48.3145C262.745 48.526 262.948 48.7051 263.176 48.8516C263.437 49.0225 263.726 49.1567 264.043 49.2544C264.368 49.3521 264.727 49.4009 265.117 49.4009C265.744 49.4009 266.285 49.2707 266.741 49.0103C267.196 48.7417 267.571 48.3836 267.864 47.936C268.157 47.4884 268.372 46.9717 268.511 46.3857C268.657 45.7998 268.73 45.1854 268.73 44.5425V44.2861ZM274.358 51V37.792H276.385L276.543 39.7451C276.739 39.4684 276.95 39.2161 277.178 38.9883C277.414 38.7523 277.662 38.5488 277.923 38.3779C278.313 38.1175 278.737 37.9181 279.192 37.7798C279.656 37.6333 280.145 37.556 280.657 37.5479C281.349 37.5479 281.976 37.6455 282.537 37.8408C283.107 38.0361 283.591 38.3413 283.99 38.7563C284.389 39.1714 284.694 39.7004 284.905 40.3433C285.125 40.978 285.235 41.7349 285.235 42.6138V51H282.977V42.6626C282.977 42.0767 282.911 41.5802 282.781 41.1733C282.651 40.7664 282.46 40.4368 282.208 40.1846C281.947 39.9323 281.63 39.7492 281.255 39.6353C280.889 39.5213 280.466 39.4644 279.986 39.4644C279.571 39.4644 279.184 39.5254 278.826 39.6475C278.468 39.7614 278.139 39.9201 277.837 40.1235C277.593 40.3026 277.365 40.5101 277.154 40.7461C276.95 40.9821 276.771 41.2425 276.617 41.5273V51H274.358ZM288.458 44.2861C288.458 43.3014 288.576 42.3981 288.812 41.5762C289.056 40.7461 289.406 40.034 289.862 39.4399C290.318 38.8459 290.871 38.382 291.522 38.0483C292.173 37.7147 292.91 37.5479 293.731 37.5479C294.26 37.5479 294.745 37.6089 295.184 37.731C295.632 37.853 296.035 38.0321 296.393 38.2681C296.588 38.3901 296.771 38.5326 296.942 38.6953C297.121 38.8581 297.288 39.0371 297.442 39.2324L297.552 37.792H299.603V50.7192C299.603 51.59 299.465 52.3631 299.188 53.0386C298.919 53.714 298.541 54.2878 298.053 54.7598C297.556 55.2318 296.966 55.5898 296.283 55.834C295.599 56.0781 294.842 56.2002 294.012 56.2002C293.67 56.2002 293.28 56.1595 292.84 56.0781C292.401 56.0049 291.957 55.8787 291.51 55.6997C291.054 55.5288 290.615 55.2969 290.191 55.0039C289.776 54.7109 289.418 54.3488 289.117 53.9175L290.289 52.5625C290.566 52.8962 290.851 53.1769 291.144 53.4048C291.437 53.6408 291.734 53.828 292.035 53.9663C292.336 54.1047 292.637 54.2023 292.938 54.2593C293.239 54.3244 293.54 54.3569 293.841 54.3569C294.378 54.3569 294.863 54.2796 295.294 54.125C295.725 53.9704 296.096 53.7425 296.405 53.4414C296.706 53.1484 296.938 52.7822 297.101 52.3428C297.263 51.9033 297.345 51.3988 297.345 50.8291V49.6938C297.174 49.8892 296.991 50.0682 296.795 50.231C296.608 50.3937 296.405 50.5361 296.185 50.6582C295.843 50.8454 295.465 50.9878 295.05 51.0854C294.635 51.1912 294.187 51.2441 293.707 51.2441C292.901 51.2441 292.173 51.0732 291.522 50.7314C290.871 50.3896 290.322 49.9176 289.874 49.3154C289.418 48.7132 289.068 48.0052 288.824 47.1914C288.58 46.3695 288.458 45.4865 288.458 44.5425V44.2861ZM290.716 44.5425C290.716 45.1854 290.781 45.7957 290.912 46.3735C291.05 46.9513 291.266 47.46 291.559 47.8994C291.843 48.3389 292.21 48.6888 292.657 48.9492C293.105 49.2015 293.642 49.3276 294.269 49.3276C294.659 49.3276 295.009 49.2829 295.318 49.1934C295.636 49.0957 295.921 48.9614 296.173 48.7905C296.417 48.6196 296.637 48.4162 296.832 48.1802C297.027 47.9442 297.198 47.6838 297.345 47.3989V41.3442C297.198 41.0675 297.027 40.8153 296.832 40.5874C296.637 40.3595 296.413 40.1602 296.161 39.9893C295.908 39.8265 295.628 39.7004 295.318 39.6108C295.009 39.5132 294.667 39.4644 294.293 39.4644C293.658 39.4644 293.113 39.5946 292.657 39.855C292.21 40.1154 291.843 40.4653 291.559 40.9048C291.266 41.3524 291.05 41.8691 290.912 42.4551C290.781 43.0329 290.716 43.6432 290.716 44.2861V44.5425ZM307.428 33.5806L307.172 38.0972H305.585L305.597 33.7759V32.25H307.428V33.5806ZM311.786 33.5806L311.53 38.0972H309.955L309.967 33.7759V32.25H311.798L311.786 33.5806ZM341.096 51C341.007 50.8291 340.933 50.6175 340.876 50.3652C340.828 50.1048 340.791 49.8363 340.767 49.5596C340.539 49.7874 340.282 50.0031 339.998 50.2065C339.721 50.41 339.416 50.589 339.082 50.7437C338.74 50.8983 338.378 51.0203 337.996 51.1099C337.613 51.1994 337.206 51.2441 336.775 51.2441C336.075 51.2441 335.44 51.1424 334.871 50.939C334.309 50.7355 333.833 50.4588 333.442 50.1089C333.044 49.7671 332.734 49.3602 332.515 48.8882C332.303 48.408 332.197 47.8913 332.197 47.3379C332.197 46.6136 332.34 45.9788 332.625 45.4336C332.917 44.8883 333.328 44.4326 333.857 44.0664C334.386 43.7083 335.021 43.4398 335.762 43.2607C336.51 43.0817 337.345 42.9922 338.264 42.9922H340.73V41.9546C340.73 41.5558 340.657 41.1978 340.51 40.8804C340.364 40.563 340.156 40.2904 339.888 40.0625C339.619 39.8428 339.29 39.6719 338.899 39.5498C338.516 39.4277 338.085 39.3667 337.605 39.3667C337.157 39.3667 336.755 39.4237 336.396 39.5376C336.047 39.6515 335.75 39.8021 335.505 39.9893C335.261 40.1764 335.07 40.4002 334.932 40.6606C334.801 40.9129 334.736 41.1774 334.736 41.4541H332.466C332.474 40.974 332.596 40.502 332.832 40.0381C333.076 39.5742 333.426 39.1551 333.882 38.7808C334.329 38.4146 334.875 38.1175 335.518 37.8896C336.169 37.6618 336.905 37.5479 337.727 37.5479C338.476 37.5479 339.172 37.6414 339.814 37.8286C340.457 38.0076 341.015 38.2803 341.487 38.6465C341.951 39.0208 342.317 39.4847 342.585 40.0381C342.854 40.5915 342.988 41.2384 342.988 41.979V48.1191C342.988 48.5586 343.029 49.0265 343.11 49.5229C343.192 50.0112 343.306 50.4385 343.452 50.8047V51H341.096ZM337.104 49.2788C337.544 49.2788 337.955 49.2218 338.337 49.1079C338.72 48.994 339.07 48.8434 339.387 48.6562C339.696 48.4691 339.965 48.2575 340.193 48.0215C340.421 47.7773 340.6 47.5251 340.73 47.2646V44.5913H338.63C337.849 44.5913 337.166 44.6605 336.58 44.7988C336.002 44.929 335.542 45.1325 335.2 45.4092C334.956 45.6045 334.769 45.8364 334.639 46.105C334.517 46.3735 334.456 46.6787 334.456 47.0205C334.456 47.346 334.508 47.6471 334.614 47.9238C334.728 48.2005 334.895 48.4365 335.115 48.6318C335.334 48.8353 335.611 48.994 335.945 49.1079C336.278 49.2218 336.665 49.2788 337.104 49.2788ZM347.286 32.25H354.036V49.0469H358.345V51H347.286V49.0469H351.778V34.2153H347.286V32.25ZM366.793 34.5938V37.792H371.822V39.5376H366.793V46.7153C366.793 47.228 366.858 47.6512 366.988 47.9849C367.118 48.3185 367.298 48.583 367.525 48.7783C367.753 48.9818 368.014 49.1242 368.307 49.2056C368.608 49.2869 368.925 49.3276 369.259 49.3276C369.503 49.3276 369.755 49.3154 370.016 49.291C370.276 49.2585 370.532 49.2218 370.785 49.1812C371.029 49.1405 371.257 49.0998 371.468 49.0591C371.688 49.0103 371.867 48.9696 372.005 48.937L372.323 50.5361C372.136 50.6501 371.908 50.7518 371.639 50.8413C371.371 50.9227 371.078 50.9919 370.76 51.0488C370.443 51.1139 370.105 51.1628 369.747 51.1953C369.397 51.2279 369.047 51.2441 368.697 51.2441C368.111 51.2441 367.562 51.1628 367.049 51C366.545 50.8291 366.105 50.5605 365.731 50.1943C365.357 49.8363 365.06 49.3724 364.84 48.8027C364.628 48.2249 364.522 47.5291 364.522 46.7153V39.5376H361.056V37.792H364.522V34.5938H366.793ZM386.85 41.4785H375.949V39.5132H386.85V41.4785ZM386.85 46.5444H375.949V44.5913H386.85V46.5444ZM394.516 33.5806L394.26 38.0972H392.673L392.685 33.7759V32.25H394.516V33.5806ZM398.874 33.5806L398.618 38.0972H397.043L397.055 33.7759V32.25H398.886L398.874 33.5806ZM416.55 43.1387C416.542 43.7734 416.485 44.4163 416.379 45.0674C416.282 45.7103 416.127 46.3328 415.916 46.9351C415.704 47.5373 415.431 48.0988 415.098 48.6196C414.772 49.1405 414.382 49.5962 413.926 49.9868C413.47 50.3774 412.945 50.6867 412.351 50.9146C411.765 51.1343 411.106 51.2441 410.374 51.2441C409.641 51.2441 408.978 51.1343 408.384 50.9146C407.798 50.6867 407.277 50.3774 406.821 49.9868C406.366 49.5962 405.971 49.1405 405.637 48.6196C405.304 48.0907 405.031 47.5251 404.819 46.9229C404.6 46.3206 404.437 45.6981 404.331 45.0552C404.225 44.4123 404.168 43.7734 404.16 43.1387V41.1123C404.168 40.4775 404.221 39.8387 404.319 39.1958C404.425 38.5448 404.587 37.9181 404.807 37.3159C405.019 36.7137 405.287 36.1522 405.613 35.6313C405.946 35.1024 406.341 34.6385 406.797 34.2397C407.253 33.8491 407.773 33.5439 408.359 33.3242C408.953 33.0964 409.617 32.9824 410.349 32.9824C411.082 32.9824 411.745 33.0964 412.339 33.3242C412.933 33.5439 413.458 33.8491 413.914 34.2397C414.369 34.6304 414.76 35.0902 415.085 35.6191C415.419 36.14 415.696 36.7015 415.916 37.3037C416.127 37.9059 416.282 38.5326 416.379 39.1836C416.485 39.8346 416.542 40.4775 416.55 41.1123V43.1387ZM414.316 41.0879C414.308 40.6647 414.28 40.2253 414.231 39.7695C414.182 39.3057 414.101 38.8459 413.987 38.3901C413.865 37.9425 413.706 37.5153 413.511 37.1084C413.315 36.6934 413.071 36.3271 412.778 36.0098C412.485 35.7005 412.139 35.4564 411.741 35.2773C411.342 35.0902 410.878 34.9966 410.349 34.9966C409.828 34.9966 409.368 35.0902 408.97 35.2773C408.571 35.4645 408.225 35.7127 407.932 36.022C407.639 36.3394 407.395 36.7056 407.2 37.1206C407.004 37.5275 406.85 37.9548 406.736 38.4023C406.614 38.8581 406.524 39.3179 406.467 39.7817C406.418 40.2375 406.39 40.6729 406.382 41.0879V43.1387C406.39 43.5537 406.418 43.9932 406.467 44.457C406.524 44.9209 406.614 45.3766 406.736 45.8242C406.858 46.2799 407.017 46.7153 407.212 47.1304C407.407 47.5454 407.651 47.9076 407.944 48.2168C408.237 48.5342 408.583 48.7865 408.982 48.9736C409.381 49.1608 409.845 49.2544 410.374 49.2544C410.903 49.2544 411.366 49.1608 411.765 48.9736C412.172 48.7865 412.522 48.5342 412.815 48.2168C413.1 47.9076 413.336 47.5495 413.523 47.1426C413.718 46.7275 413.877 46.2922 413.999 45.8364C414.113 45.3888 414.19 44.9331 414.231 44.4692C414.28 44.0054 414.308 43.5618 414.316 43.1387V41.0879ZM430.357 51H428.099V39.6597H421.653V51H419.395V37.792H430.357V51ZM442.613 37.792H444.872V51H442.613V41.2588L436.156 51H433.91V37.792H436.156V47.5454L442.613 37.792ZM454.162 49.4131C454.569 49.4131 454.963 49.348 455.346 49.2178C455.736 49.0876 456.082 48.9045 456.383 48.6685C456.684 48.4406 456.924 48.172 457.104 47.8628C457.291 47.5454 457.388 47.2036 457.396 46.8374H459.533C459.525 47.4233 459.37 47.9849 459.069 48.522C458.776 49.0509 458.381 49.5148 457.885 49.9136C457.388 50.3205 456.819 50.646 456.176 50.8901C455.533 51.1261 454.861 51.2441 454.162 51.2441C453.161 51.2441 452.286 51.0651 451.537 50.707C450.788 50.349 450.166 49.8647 449.669 49.2544C449.165 48.6522 448.786 47.9564 448.534 47.167C448.282 46.3695 448.156 45.5312 448.156 44.6523V44.1396C448.156 43.2689 448.282 42.4347 448.534 41.6372C448.786 40.8397 449.165 40.1357 449.669 39.5254C450.166 38.9232 450.788 38.443 451.537 38.085C452.286 37.7269 453.161 37.5479 454.162 37.5479C454.943 37.5479 455.659 37.674 456.31 37.9263C456.969 38.1704 457.539 38.5041 458.019 38.9272C458.491 39.3586 458.861 39.8672 459.13 40.4531C459.398 41.0391 459.533 41.6657 459.533 42.333H457.396C457.388 41.9342 457.299 41.5599 457.128 41.21C456.965 40.8519 456.741 40.5386 456.457 40.27C456.172 40.0015 455.83 39.7899 455.431 39.6353C455.041 39.4806 454.617 39.4033 454.162 39.4033C453.462 39.4033 452.872 39.5457 452.392 39.8306C451.92 40.1073 451.537 40.4694 451.244 40.917C450.951 41.3727 450.74 41.8813 450.609 42.4429C450.487 43.0044 450.426 43.57 450.426 44.1396V44.6523C450.426 45.2301 450.487 45.8039 450.609 46.3735C450.74 46.9351 450.951 47.4396 451.244 47.8872C451.529 48.3429 451.907 48.7132 452.379 48.998C452.86 49.2747 453.454 49.4131 454.162 49.4131ZM471.728 51C471.639 50.8291 471.565 50.6175 471.508 50.3652C471.459 50.1048 471.423 49.8363 471.398 49.5596C471.171 49.7874 470.914 50.0031 470.629 50.2065C470.353 50.41 470.048 50.589 469.714 50.7437C469.372 50.8983 469.01 51.0203 468.627 51.1099C468.245 51.1994 467.838 51.2441 467.407 51.2441C466.707 51.2441 466.072 51.1424 465.502 50.939C464.941 50.7355 464.465 50.4588 464.074 50.1089C463.675 49.7671 463.366 49.3602 463.146 48.8882C462.935 48.408 462.829 47.8913 462.829 47.3379C462.829 46.6136 462.972 45.9788 463.256 45.4336C463.549 44.8883 463.96 44.4326 464.489 44.0664C465.018 43.7083 465.653 43.4398 466.394 43.2607C467.142 43.0817 467.976 42.9922 468.896 42.9922H471.362V41.9546C471.362 41.5558 471.289 41.1978 471.142 40.8804C470.996 40.563 470.788 40.2904 470.52 40.0625C470.251 39.8428 469.921 39.6719 469.531 39.5498C469.148 39.4277 468.717 39.3667 468.237 39.3667C467.789 39.3667 467.386 39.4237 467.028 39.5376C466.678 39.6515 466.381 39.8021 466.137 39.9893C465.893 40.1764 465.702 40.4002 465.563 40.6606C465.433 40.9129 465.368 41.1774 465.368 41.4541H463.098C463.106 40.974 463.228 40.502 463.464 40.0381C463.708 39.5742 464.058 39.1551 464.514 38.7808C464.961 38.4146 465.507 38.1175 466.149 37.8896C466.8 37.6618 467.537 37.5479 468.359 37.5479C469.108 37.5479 469.803 37.6414 470.446 37.8286C471.089 38.0076 471.647 38.2803 472.119 38.6465C472.583 39.0208 472.949 39.4847 473.217 40.0381C473.486 40.5915 473.62 41.2384 473.62 41.979V48.1191C473.62 48.5586 473.661 49.0265 473.742 49.5229C473.824 50.0112 473.938 50.4385 474.084 50.8047V51H471.728ZM467.736 49.2788C468.176 49.2788 468.587 49.2218 468.969 49.1079C469.352 48.994 469.702 48.8434 470.019 48.6562C470.328 48.4691 470.597 48.2575 470.825 48.0215C471.053 47.7773 471.232 47.5251 471.362 47.2646V44.5913H469.262C468.481 44.5913 467.797 44.6605 467.211 44.7988C466.634 44.929 466.174 45.1325 465.832 45.4092C465.588 45.6045 465.401 45.8364 465.271 46.105C465.148 46.3735 465.087 46.6787 465.087 47.0205C465.087 47.346 465.14 47.6471 465.246 47.9238C465.36 48.2005 465.527 48.4365 465.747 48.6318C465.966 48.8353 466.243 48.994 466.577 49.1079C466.91 49.2218 467.297 49.2788 467.736 49.2788ZM488.416 51H486.157V45.3604H479.712V51H477.454V37.792H479.712V43.5171H486.157V37.792H488.416V51ZM500.672 37.792H502.93V51H500.672V41.2588L494.214 51H491.968V37.792H494.214V47.5454L500.672 37.792ZM512.428 51.2441C511.5 51.2441 510.646 51.0854 509.864 50.7681C509.091 50.4507 508.428 50.0072 507.875 49.4375C507.321 48.8678 506.89 48.1924 506.581 47.4111C506.271 46.6299 506.117 45.7795 506.117 44.8599V44.3472C506.117 43.2811 506.288 42.3289 506.629 41.4907C506.971 40.6444 507.427 39.9282 507.997 39.3423C508.558 38.7645 509.197 38.321 509.913 38.0117C510.637 37.7025 511.378 37.5479 512.135 37.5479C513.087 37.5479 513.917 37.7147 514.625 38.0483C515.341 38.3739 515.935 38.8255 516.407 39.4033C516.879 39.9893 517.229 40.6769 517.457 41.4663C517.693 42.2557 517.811 43.1102 517.811 44.0298V45.043H508.375V45.1284C508.432 45.7713 508.558 46.3369 508.753 46.8252C508.957 47.3135 509.234 47.7448 509.583 48.1191C509.942 48.5179 510.373 48.8312 510.877 49.0591C511.382 49.2869 511.939 49.4009 512.55 49.4009C513.355 49.4009 514.072 49.2381 514.698 48.9126C515.325 48.5871 515.846 48.1558 516.261 47.6187L517.64 48.6929C517.201 49.3602 516.542 49.9543 515.663 50.4751C514.792 50.9878 513.714 51.2441 512.428 51.2441ZM512.135 39.4033C511.679 39.4033 511.248 39.4888 510.841 39.6597C510.434 39.8224 510.068 40.0625 509.742 40.3799C509.417 40.7054 509.14 41.1042 508.912 41.5762C508.692 42.04 508.538 42.5771 508.448 43.1875H515.553V43.0776C515.553 42.6707 515.475 42.2354 515.321 41.7715C515.166 41.2995 514.951 40.8926 514.674 40.5508C514.397 40.209 514.047 39.9323 513.624 39.7207C513.209 39.5091 512.713 39.4033 512.135 39.4033ZM544.216 37.792H546.474V51H544.216V41.2588L537.758 51H535.512V37.792H537.758V47.5454L544.216 37.792ZM549.661 47.0938H551.919C551.919 47.4111 552.013 47.7122 552.2 47.9971C552.387 48.2738 552.647 48.5179 552.981 48.7295C553.315 48.9492 553.709 49.1242 554.165 49.2544C554.621 49.3765 555.113 49.4375 555.642 49.4375C556.163 49.4375 556.639 49.3846 557.07 49.2788C557.502 49.1649 557.872 49.0103 558.181 48.8149C558.482 48.6196 558.714 48.3918 558.877 48.1313C559.048 47.8709 559.133 47.5902 559.133 47.2891C559.133 46.9147 559.056 46.5973 558.901 46.3369C558.747 46.0684 558.523 45.8486 558.23 45.6777C558.083 45.5964 557.921 45.5272 557.742 45.4702C557.563 45.4132 557.371 45.3644 557.168 45.3237C556.965 45.283 556.745 45.2546 556.509 45.2383C556.273 45.222 556.029 45.2139 555.776 45.2139H552.834V43.3096H555.776C556.037 43.3096 556.281 43.3014 556.509 43.2852C556.737 43.2607 556.944 43.2282 557.131 43.1875C557.367 43.1387 557.579 43.0736 557.766 42.9922C557.961 42.9108 558.132 42.8172 558.279 42.7114C558.482 42.5568 558.637 42.3696 558.743 42.1499C558.848 41.9302 558.901 41.682 558.901 41.4053C558.901 41.1286 558.828 40.8682 558.682 40.624C558.543 40.3799 558.34 40.1642 558.071 39.9771C557.795 39.798 557.453 39.6556 557.046 39.5498C556.639 39.444 556.171 39.3911 555.642 39.3911C555.17 39.3911 554.722 39.444 554.299 39.5498C553.876 39.6556 553.506 39.798 553.188 39.9771C552.863 40.1642 552.603 40.388 552.407 40.6484C552.22 40.9007 552.126 41.1774 552.126 41.4785H549.868C549.876 40.8682 550.035 40.3229 550.344 39.8428C550.662 39.3545 551.085 38.9395 551.614 38.5977C552.135 38.264 552.741 38.0076 553.433 37.8286C554.132 37.6496 554.869 37.5601 555.642 37.5601C556.456 37.5601 557.201 37.6414 557.876 37.8042C558.551 37.967 559.133 38.207 559.622 38.5244C560.11 38.8499 560.488 39.2528 560.757 39.7329C561.025 40.2049 561.16 40.7583 561.16 41.3931C561.16 41.7837 561.07 42.1499 560.891 42.4917C560.712 42.8335 560.46 43.1427 560.134 43.4194C559.955 43.5741 559.748 43.7205 559.512 43.8589C559.276 43.9891 559.023 44.1071 558.755 44.2129C559.137 44.3268 559.479 44.4692 559.78 44.6401C560.09 44.8029 560.358 44.9941 560.586 45.2139C560.854 45.4824 561.058 45.7917 561.196 46.1416C561.343 46.4834 561.416 46.8659 561.416 47.2891C561.416 47.9238 561.265 48.4854 560.964 48.9736C560.671 49.4619 560.264 49.8729 559.744 50.2065C559.223 50.5483 558.612 50.8047 557.913 50.9756C557.213 51.1465 556.456 51.2319 555.642 51.2319C554.845 51.2319 554.063 51.1383 553.298 50.9512C552.533 50.764 551.866 50.471 551.296 50.0723C550.816 49.7467 550.422 49.3358 550.112 48.8394C549.811 48.3348 549.661 47.7529 549.661 47.0938ZM564.017 44.2739C564.017 43.3218 564.155 42.4388 564.432 41.625C564.708 40.8031 565.107 40.091 565.628 39.4888C566.141 38.8866 566.767 38.4146 567.508 38.0728C568.248 37.7228 569.083 37.5479 570.01 37.5479C570.946 37.5479 571.784 37.7228 572.525 38.0728C573.274 38.4146 573.908 38.8866 574.429 39.4888C574.942 40.091 575.337 40.8031 575.613 41.625C575.89 42.4388 576.028 43.3218 576.028 44.2739V44.5425C576.028 45.4946 575.89 46.3776 575.613 47.1914C575.337 48.0052 574.942 48.7132 574.429 49.3154C573.908 49.9176 573.278 50.3896 572.537 50.7314C571.797 51.0732 570.962 51.2441 570.035 51.2441C569.099 51.2441 568.257 51.0732 567.508 50.7314C566.767 50.3896 566.141 49.9176 565.628 49.3154C565.107 48.7132 564.708 48.0052 564.432 47.1914C564.155 46.3776 564.017 45.4946 564.017 44.5425V44.2739ZM566.275 44.5425C566.275 45.1935 566.352 45.8161 566.507 46.4102C566.661 46.9961 566.897 47.5129 567.215 47.9604C567.524 48.408 567.915 48.762 568.387 49.0225C568.859 49.2829 569.408 49.4131 570.035 49.4131C570.653 49.4131 571.194 49.2829 571.658 49.0225C572.13 48.762 572.525 48.408 572.842 47.9604C573.152 47.5129 573.383 46.9961 573.538 46.4102C573.693 45.8161 573.77 45.1935 573.77 44.5425V44.2739C573.77 43.631 573.689 43.0166 573.526 42.4307C573.371 41.8366 573.139 41.3158 572.83 40.8682C572.513 40.4206 572.118 40.0666 571.646 39.8062C571.182 39.5376 570.637 39.4033 570.01 39.4033C569.384 39.4033 568.838 39.5376 568.375 39.8062C567.911 40.0666 567.524 40.4206 567.215 40.8682C566.897 41.3158 566.661 41.8366 566.507 42.4307C566.352 43.0166 566.275 43.631 566.275 44.2739V44.5425ZM584.928 38.5488C585.79 38.5488 586.559 38.7035 587.235 39.0127C587.91 39.3138 588.484 39.7288 588.956 40.2578C589.428 40.7949 589.786 41.4297 590.03 42.1621C590.283 42.8864 590.409 43.6758 590.409 44.5303V44.811C590.409 45.7306 590.274 46.5811 590.006 47.3623C589.745 48.1436 589.363 48.8231 588.858 49.4009C588.354 49.9787 587.735 50.4303 587.003 50.7559C586.279 51.0814 585.453 51.2441 584.525 51.2441C583.597 51.2441 582.767 51.0814 582.035 50.7559C581.302 50.4303 580.684 49.9787 580.179 49.4009C579.675 48.8231 579.288 48.1436 579.02 47.3623C578.751 46.5811 578.617 45.7306 578.617 44.811V43.6025C578.617 42.8376 578.653 42.1214 578.727 41.4541C578.808 40.7786 578.922 40.1561 579.068 39.5864C579.207 39.0575 579.374 38.5651 579.569 38.1094C579.764 37.6536 579.988 37.2345 580.24 36.8521C580.753 36.0708 581.375 35.4482 582.108 34.9844C582.848 34.5124 583.67 34.1909 584.574 34.02C585.005 33.9386 585.404 33.8532 585.77 33.7637C586.144 33.666 586.47 33.5439 586.747 33.3975C587.015 33.2591 587.227 33.0841 587.381 32.8726C587.536 32.6528 587.613 32.3761 587.613 32.0425H589.469C589.469 32.7993 589.351 33.4097 589.115 33.8735C588.887 34.3374 588.565 34.7077 588.15 34.9844C587.784 35.2285 587.377 35.4116 586.93 35.5337C586.49 35.6558 585.868 35.8022 585.062 35.9731C584.492 36.0952 583.959 36.2661 583.463 36.4858C582.966 36.6974 582.523 36.9863 582.132 37.3525C581.742 37.7188 581.412 38.1704 581.144 38.7075C580.875 39.2365 580.68 39.8753 580.558 40.624C580.818 40.3229 581.107 40.0462 581.424 39.7939C581.742 39.5335 582.083 39.3097 582.45 39.1226C582.816 38.9435 583.207 38.8052 583.622 38.7075C584.037 38.6017 584.472 38.5488 584.928 38.5488ZM584.5 40.4043C583.882 40.4043 583.345 40.5182 582.889 40.7461C582.433 40.9658 582.059 41.2629 581.766 41.6372C581.465 42.0197 581.241 42.4591 581.095 42.9556C580.948 43.452 580.875 43.9769 580.875 44.5303V44.811C580.875 45.4295 580.948 46.0195 581.095 46.5811C581.241 47.1344 581.465 47.6187 581.766 48.0337C582.059 48.4569 582.433 48.7946 582.889 49.0469C583.353 49.291 583.898 49.4131 584.525 49.4131C585.143 49.4131 585.676 49.291 586.124 49.0469C586.58 48.7946 586.958 48.4569 587.259 48.0337C587.56 47.6187 587.784 47.1344 587.931 46.5811C588.077 46.0195 588.15 45.4295 588.15 44.811V44.5303C588.15 43.9769 588.077 43.452 587.931 42.9556C587.784 42.4591 587.56 42.0197 587.259 41.6372C586.958 41.2629 586.576 40.9658 586.112 40.7461C585.656 40.5182 585.119 40.4043 584.5 40.4043ZM593.668 56.0781V37.792H595.731L595.841 39.2324C596.02 39.0046 596.216 38.8011 596.427 38.6221C596.639 38.4349 596.867 38.2762 597.111 38.146C597.453 37.9507 597.831 37.8042 598.246 37.7065C598.669 37.6007 599.121 37.5479 599.601 37.5479C600.447 37.5479 601.196 37.7147 601.847 38.0483C602.498 38.382 603.043 38.8459 603.483 39.4399C603.922 40.034 604.256 40.7461 604.484 41.5762C604.712 42.3981 604.826 43.3014 604.826 44.2861V44.5425C604.826 45.4865 604.712 46.3695 604.484 47.1914C604.256 48.0052 603.922 48.7132 603.483 49.3154C603.043 49.9176 602.498 50.3896 601.847 50.7314C601.204 51.0732 600.468 51.2441 599.638 51.2441C599.133 51.2441 598.661 51.1912 598.222 51.0854C597.79 50.9797 597.4 50.8291 597.05 50.6338C596.838 50.5117 596.639 50.3774 596.452 50.231C596.264 50.0763 596.09 49.9095 595.927 49.7305V56.0781H593.668ZM602.567 44.2861C602.567 43.6432 602.494 43.0329 602.348 42.4551C602.209 41.8691 601.994 41.3524 601.701 40.9048C601.4 40.4653 601.021 40.1154 600.565 39.855C600.11 39.5946 599.564 39.4644 598.93 39.4644C598.58 39.4644 598.254 39.505 597.953 39.5864C597.66 39.6678 597.396 39.7858 597.16 39.9404C596.899 40.0951 596.667 40.2863 596.464 40.5142C596.26 40.742 596.081 40.9943 595.927 41.271V47.6309C596.065 47.875 596.224 48.1029 596.403 48.3145C596.582 48.526 596.785 48.7051 597.013 48.8516C597.274 49.0225 597.562 49.1567 597.88 49.2544C598.205 49.3521 598.563 49.4009 598.954 49.4009C599.581 49.4009 600.122 49.2707 600.578 49.0103C601.033 48.7417 601.408 48.3836 601.701 47.936C601.994 47.4884 602.209 46.9717 602.348 46.3857C602.494 45.7998 602.567 45.1854 602.567 44.5425V44.2861ZM616.875 51C616.785 50.8291 616.712 50.6175 616.655 50.3652C616.606 50.1048 616.569 49.8363 616.545 49.5596C616.317 49.7874 616.061 50.0031 615.776 50.2065C615.499 50.41 615.194 50.589 614.86 50.7437C614.519 50.8983 614.156 51.0203 613.774 51.1099C613.391 51.1994 612.985 51.2441 612.553 51.2441C611.853 51.2441 611.219 51.1424 610.649 50.939C610.087 50.7355 609.611 50.4588 609.221 50.1089C608.822 49.7671 608.513 49.3602 608.293 48.8882C608.081 48.408 607.976 47.8913 607.976 47.3379C607.976 46.6136 608.118 45.9788 608.403 45.4336C608.696 44.8883 609.107 44.4326 609.636 44.0664C610.165 43.7083 610.799 43.4398 611.54 43.2607C612.289 43.0817 613.123 42.9922 614.042 42.9922H616.508V41.9546C616.508 41.5558 616.435 41.1978 616.289 40.8804C616.142 40.563 615.935 40.2904 615.666 40.0625C615.397 39.8428 615.068 39.6719 614.677 39.5498C614.295 39.4277 613.863 39.3667 613.383 39.3667C612.936 39.3667 612.533 39.4237 612.175 39.5376C611.825 39.6515 611.528 39.8021 611.284 39.9893C611.04 40.1764 610.848 40.4002 610.71 40.6606C610.58 40.9129 610.515 41.1774 610.515 41.4541H608.244C608.252 40.974 608.374 40.502 608.61 40.0381C608.854 39.5742 609.204 39.1551 609.66 38.7808C610.108 38.4146 610.653 38.1175 611.296 37.8896C611.947 37.6618 612.683 37.5479 613.505 37.5479C614.254 37.5479 614.95 37.6414 615.593 37.8286C616.236 38.0076 616.793 38.2803 617.265 38.6465C617.729 39.0208 618.095 39.4847 618.364 40.0381C618.632 40.5915 618.767 41.2384 618.767 41.979V48.1191C618.767 48.5586 618.807 49.0265 618.889 49.5229C618.97 50.0112 619.084 50.4385 619.23 50.8047V51H616.875ZM612.883 49.2788C613.322 49.2788 613.733 49.2218 614.116 49.1079C614.498 48.994 614.848 48.8434 615.166 48.6562C615.475 48.4691 615.743 48.2575 615.971 48.0215C616.199 47.7773 616.378 47.5251 616.508 47.2646V44.5913H614.409C613.627 44.5913 612.944 44.6605 612.358 44.7988C611.78 44.929 611.32 45.1325 610.979 45.4092C610.734 45.6045 610.547 45.8364 610.417 46.105C610.295 46.3735 610.234 46.6787 610.234 47.0205C610.234 47.346 610.287 47.6471 610.393 47.9238C610.507 48.2005 610.673 48.4365 610.893 48.6318C611.113 48.8353 611.389 48.994 611.723 49.1079C612.057 49.2218 612.443 49.2788 612.883 49.2788ZM629.827 45.2627H629.119V51H626.86V45.2627H626.14L623.516 51H620.793L624.419 44.1274L621.221 37.792H623.833L626.14 43.2607H626.86V37.792H629.119V43.2607H629.839L632.158 37.792H634.771L631.548 44.1274L635.186 51H632.451L629.827 45.2627ZM643.06 51.2441C642.132 51.2441 641.277 51.0854 640.496 50.7681C639.723 50.4507 639.06 50.0072 638.506 49.4375C637.953 48.8678 637.522 48.1924 637.212 47.4111C636.903 46.6299 636.749 45.7795 636.749 44.8599V44.3472C636.749 43.2811 636.919 42.3289 637.261 41.4907C637.603 40.6444 638.059 39.9282 638.628 39.3423C639.19 38.7645 639.829 38.321 640.545 38.0117C641.269 37.7025 642.01 37.5479 642.767 37.5479C643.719 37.5479 644.549 37.7147 645.257 38.0483C645.973 38.3739 646.567 38.8255 647.039 39.4033C647.511 39.9893 647.861 40.6769 648.089 41.4663C648.325 42.2557 648.443 43.1102 648.443 44.0298V45.043H639.007V45.1284C639.064 45.7713 639.19 46.3369 639.385 46.8252C639.589 47.3135 639.865 47.7448 640.215 48.1191C640.573 48.5179 641.005 48.8312 641.509 49.0591C642.014 49.2869 642.571 49.4009 643.182 49.4009C643.987 49.4009 644.703 49.2381 645.33 48.9126C645.957 48.5871 646.478 48.1558 646.893 47.6187L648.272 48.6929C647.833 49.3602 647.173 49.9543 646.294 50.4751C645.424 50.9878 644.345 51.2441 643.06 51.2441ZM642.767 39.4033C642.311 39.4033 641.88 39.4888 641.473 39.6597C641.066 39.8224 640.7 40.0625 640.374 40.3799C640.049 40.7054 639.772 41.1042 639.544 41.5762C639.324 42.04 639.17 42.5771 639.08 43.1875H646.185V43.0776C646.185 42.6707 646.107 42.2354 645.953 41.7715C645.798 41.2995 645.582 40.8926 645.306 40.5508C645.029 40.209 644.679 39.9323 644.256 39.7207C643.841 39.5091 643.344 39.4033 642.767 39.4033ZM662.591 51H660.333V45.3604H653.888V51H651.629V37.792H653.888V43.5171H660.333V37.792H662.591V51ZM674.848 37.792H677.106V51H674.848V41.2588L668.39 51H666.144V37.792H668.39V47.5454L674.848 37.792ZM691.547 37.792V51H689.289V45.8608H685.188L682.05 51H679.609L682.941 45.519C682.095 45.2098 681.444 44.7337 680.988 44.0908C680.533 43.4398 680.305 42.6829 680.305 41.8203C680.305 41.2344 680.419 40.6973 680.646 40.209C680.882 39.7126 681.216 39.2853 681.647 38.9272C682.079 38.5773 682.608 38.3006 683.234 38.0972C683.861 37.8937 684.565 37.792 685.346 37.792H691.547ZM682.575 41.8447C682.575 42.1214 682.624 42.39 682.722 42.6504C682.819 42.9108 682.974 43.1387 683.186 43.334C683.389 43.5374 683.645 43.7002 683.955 43.8223C684.264 43.9443 684.634 44.0054 685.065 44.0054H689.289V39.623H685.346C684.882 39.623 684.475 39.6882 684.125 39.8184C683.776 39.9404 683.487 40.1032 683.259 40.3066C683.031 40.5182 682.86 40.7583 682.746 41.0269C682.632 41.2873 682.575 41.5599 682.575 41.8447ZM699.324 33.5806L699.067 38.0972H697.48L697.493 33.7759V32.25H699.324V33.5806ZM703.682 33.5806L703.425 38.0972H701.851L701.863 33.7759V32.25H703.694L703.682 33.5806ZM709.847 48.5952V46.2515L717.745 43.2729L718.477 43.0654L717.745 42.8335L709.847 39.9038V37.5723L720.625 42.1865V43.9688L709.847 48.5952Z" fill="white"/>
<path d="M56.9927 37.792H63.7432V49.0469H68.0522V51H56.9927V49.0469H61.4849V39.7573H56.9927V37.792ZM61.1919 34.3252C61.1919 34.1299 61.2204 33.9468 61.2773 33.7759C61.3424 33.605 61.4401 33.4585 61.5703 33.3364C61.6761 33.2306 61.8104 33.1493 61.9731 33.0923C62.144 33.0272 62.3353 32.9946 62.5469 32.9946C62.7585 32.9946 62.9456 33.0272 63.1084 33.0923C63.2712 33.1493 63.4054 33.2306 63.5112 33.3364C63.6414 33.4504 63.7391 33.5928 63.8042 33.7637C63.8693 33.9346 63.9019 34.1217 63.9019 34.3252C63.9019 34.6914 63.7879 34.9966 63.5601 35.2407C63.3322 35.4849 62.9945 35.6069 62.5469 35.6069C62.0911 35.6069 61.7493 35.4849 61.5215 35.2407C61.3018 34.9966 61.1919 34.6914 61.1919 34.3252ZM72.1909 37.792L72.252 39.0371C72.5205 38.5732 72.8704 38.2111 73.3018 37.9507C73.7412 37.6903 74.2702 37.556 74.8887 37.5479C75.2386 37.5479 75.5519 37.5885 75.8286 37.6699C76.1134 37.7432 76.3617 37.853 76.5732 37.9995C76.7279 38.1134 76.8662 38.2518 76.9883 38.4146C77.1185 38.5773 77.2284 38.7604 77.3179 38.9639C77.4318 38.7767 77.5661 38.6017 77.7207 38.439C77.8753 38.2762 78.0422 38.1338 78.2212 38.0117C78.4491 37.8734 78.7013 37.7635 78.978 37.6821C79.2629 37.6007 79.5721 37.556 79.9058 37.5479C80.3615 37.5479 80.7725 37.617 81.1387 37.7554C81.5049 37.8856 81.8141 38.0809 82.0664 38.3413C82.3431 38.6343 82.5547 39.0168 82.7012 39.4888C82.8477 39.9526 82.9209 40.502 82.9209 41.1367V51H80.7725V41.1123C80.7725 40.8356 80.7399 40.5915 80.6748 40.3799C80.6097 40.1683 80.5161 39.9933 80.394 39.855C80.2638 39.7248 80.1011 39.6271 79.9058 39.562C79.7186 39.4969 79.4989 39.4644 79.2466 39.4644C78.978 39.4644 78.7461 39.501 78.5508 39.5742C78.3555 39.6475 78.1927 39.7451 78.0625 39.8672C77.9323 39.9974 77.8306 40.1479 77.7573 40.3188C77.6841 40.4816 77.6353 40.6647 77.6108 40.8682C77.6108 40.9089 77.6108 40.9495 77.6108 40.9902C77.6108 41.0228 77.6108 41.0635 77.6108 41.1123V51H75.4624V41.1001C75.4624 40.8234 75.4299 40.5793 75.3647 40.3677C75.3078 40.1561 75.2142 39.9811 75.084 39.8428C74.9619 39.7126 74.8073 39.619 74.6201 39.562C74.4411 39.4969 74.2295 39.4644 73.9854 39.4644C73.7168 39.4644 73.4808 39.4969 73.2773 39.562C73.082 39.619 72.9152 39.7044 72.7769 39.8184C72.6711 39.9079 72.5775 40.0096 72.4961 40.1235C72.4229 40.2375 72.3618 40.3595 72.313 40.4897V51H70.1646V37.792H72.1909ZM85.2529 44.2861C85.2529 43.3014 85.3709 42.3981 85.6069 41.5762C85.8511 40.7461 86.201 40.034 86.6567 39.4399C87.1125 38.8459 87.6659 38.382 88.3169 38.0483C88.9679 37.7147 89.7044 37.5479 90.5264 37.5479C91.0553 37.5479 91.5396 37.6089 91.979 37.731C92.4266 37.853 92.8294 38.0321 93.1875 38.2681C93.3828 38.3901 93.5659 38.5326 93.7368 38.6953C93.9159 38.8581 94.0827 39.0371 94.2373 39.2324L94.3472 37.792H96.3979V50.7192C96.3979 51.59 96.2596 52.3631 95.9829 53.0386C95.7144 53.714 95.3359 54.2878 94.8477 54.7598C94.3512 55.2318 93.7612 55.5898 93.0776 55.834C92.394 56.0781 91.6372 56.2002 90.8071 56.2002C90.4653 56.2002 90.0747 56.1595 89.6353 56.0781C89.1958 56.0049 88.7523 55.8787 88.3047 55.6997C87.849 55.5288 87.4095 55.2969 86.9863 55.0039C86.5713 54.7109 86.2132 54.3488 85.9121 53.9175L87.084 52.5625C87.3607 52.8962 87.6455 53.1769 87.9385 53.4048C88.2314 53.6408 88.5285 53.828 88.8296 53.9663C89.1307 54.1047 89.4318 54.2023 89.7329 54.2593C90.034 54.3244 90.3351 54.3569 90.6362 54.3569C91.1733 54.3569 91.6576 54.2796 92.0889 54.125C92.5202 53.9704 92.8905 53.7425 93.1997 53.4414C93.5008 53.1484 93.7327 52.7822 93.8955 52.3428C94.0583 51.9033 94.1396 51.3988 94.1396 50.8291V49.6938C93.9688 49.8892 93.7856 50.0682 93.5903 50.231C93.4032 50.3937 93.1997 50.5361 92.98 50.6582C92.6382 50.8454 92.2598 50.9878 91.8447 51.0854C91.4297 51.1912 90.9821 51.2441 90.502 51.2441C89.6963 51.2441 88.9679 51.0732 88.3169 50.7314C87.6659 50.3896 87.1165 49.9176 86.6689 49.3154C86.2132 48.7132 85.8633 48.0052 85.6191 47.1914C85.375 46.3695 85.2529 45.4865 85.2529 44.5425V44.2861ZM87.5112 44.5425C87.5112 45.1854 87.5763 45.7957 87.7065 46.3735C87.8449 46.9513 88.0605 47.46 88.3535 47.8994C88.6383 48.3389 89.0046 48.6888 89.4521 48.9492C89.8997 49.2015 90.4368 49.3276 91.0635 49.3276C91.4541 49.3276 91.804 49.2829 92.1133 49.1934C92.4307 49.0957 92.7155 48.9614 92.9678 48.7905C93.2119 48.6196 93.4316 48.4162 93.627 48.1802C93.8223 47.9442 93.9932 47.6838 94.1396 47.3989V41.3442C93.9932 41.0675 93.8223 40.8153 93.627 40.5874C93.4316 40.3595 93.2078 40.1602 92.9556 39.9893C92.7033 39.8265 92.4225 39.7004 92.1133 39.6108C91.804 39.5132 91.4622 39.4644 91.0879 39.4644C90.4531 39.4644 89.9079 39.5946 89.4521 39.855C89.0046 40.1154 88.6383 40.4653 88.3535 40.9048C88.0605 41.3524 87.8449 41.8691 87.7065 42.4551C87.5763 43.0329 87.5112 43.6432 87.5112 44.2861V44.5425Z" fill="#0066FF"/>
</svg>
