<svg width="659" height="149" viewBox="0 0 659 149" fill="none" xmlns="http://www.w3.org/2000/svg">
<rect width="659" height="149" rx="20" fill="#0066FF" fill-opacity="0.2"/>
<rect x="1.5" y="1.5" width="656" height="146" rx="18.5" stroke="#0066FF" stroke-opacity="0.5" stroke-width="3"/>
<path d="M52.4268 48.6074L42.0752 43.981V42.1987L52.4268 37.5845V39.9771L44.9561 42.9067L44.3091 43.1143L44.9561 43.334L52.4268 46.2148V48.6074ZM85.7168 48.5952V46.2515L93.6147 43.2729L94.3472 43.0654L93.6147 42.8335L85.7168 39.9038V37.5723L96.4956 42.1865V43.9688L85.7168 48.5952ZM111.694 45.6533C111.588 46.4753 111.376 47.2321 111.059 47.9238C110.742 48.6074 110.331 49.1934 109.826 49.6816C109.313 50.1781 108.707 50.5646 108.007 50.8413C107.316 51.1099 106.542 51.2441 105.688 51.2441C104.956 51.2441 104.288 51.1424 103.686 50.939C103.092 50.7274 102.563 50.4385 102.099 50.0723C101.627 49.7061 101.22 49.2747 100.878 48.7783C100.545 48.2819 100.268 47.7407 100.048 47.1548C99.8205 46.5688 99.6496 45.9544 99.5356 45.3115C99.4299 44.6686 99.3729 44.0176 99.3647 43.3584V40.8804C99.3729 40.2212 99.4299 39.5701 99.5356 38.9272C99.6496 38.2843 99.8205 37.6699 100.048 37.084C100.268 36.498 100.545 35.9569 100.878 35.4604C101.22 34.9559 101.627 34.5205 102.099 34.1543C102.563 33.7881 103.092 33.5033 103.686 33.2998C104.28 33.0882 104.947 32.9824 105.688 32.9824C106.575 32.9824 107.368 33.1208 108.068 33.3975C108.768 33.666 109.37 34.0485 109.875 34.5449C110.38 35.0495 110.782 35.6517 111.083 36.3516C111.393 37.0514 111.596 37.8245 111.694 38.6709H109.436C109.362 38.1338 109.236 37.6333 109.057 37.1694C108.878 36.7056 108.638 36.2987 108.337 35.9487C108.036 35.5988 107.666 35.3262 107.226 35.1309C106.795 34.9274 106.282 34.8257 105.688 34.8257C105.151 34.8257 104.675 34.9152 104.26 35.0942C103.853 35.2651 103.503 35.5011 103.21 35.8022C102.909 36.1034 102.657 36.4533 102.453 36.8521C102.258 37.2508 102.099 37.674 101.977 38.1216C101.855 38.5692 101.765 39.029 101.708 39.501C101.66 39.9648 101.635 40.4165 101.635 40.856V43.3584C101.635 43.7979 101.66 44.2536 101.708 44.7256C101.765 45.1895 101.855 45.6452 101.977 46.0928C102.099 46.5485 102.258 46.9757 102.453 47.3745C102.648 47.7733 102.897 48.1232 103.198 48.4243C103.499 48.7336 103.853 48.9777 104.26 49.1567C104.667 49.3276 105.143 49.4131 105.688 49.4131C106.282 49.4131 106.795 49.3195 107.226 49.1323C107.666 48.9451 108.036 48.6807 108.337 48.3389C108.638 48.0052 108.878 47.6105 109.057 47.1548C109.236 46.6909 109.362 46.1904 109.436 45.6533H111.694ZM125.549 51H123.291V39.6597H116.846V51H114.587V37.792H125.549V51ZM135.047 51.2441C134.119 51.2441 133.265 51.0854 132.483 50.7681C131.71 50.4507 131.047 50.0072 130.494 49.4375C129.94 48.8678 129.509 48.1924 129.2 47.4111C128.89 46.6299 128.736 45.7795 128.736 44.8599V44.3472C128.736 43.2811 128.907 42.3289 129.249 41.4907C129.59 40.6444 130.046 39.9282 130.616 39.3423C131.177 38.7645 131.816 38.321 132.532 38.0117C133.257 37.7025 133.997 37.5479 134.754 37.5479C135.706 37.5479 136.536 37.7147 137.244 38.0483C137.96 38.3739 138.554 38.8255 139.026 39.4033C139.498 39.9893 139.848 40.6769 140.076 41.4663C140.312 42.2557 140.43 43.1102 140.43 44.0298V45.043H130.994V45.1284C131.051 45.7713 131.177 46.3369 131.373 46.8252C131.576 47.3135 131.853 47.7448 132.203 48.1191C132.561 48.5179 132.992 48.8312 133.497 49.0591C134.001 49.2869 134.559 49.4009 135.169 49.4009C135.975 49.4009 136.691 49.2381 137.317 48.9126C137.944 48.5871 138.465 48.1558 138.88 47.6187L140.259 48.6929C139.82 49.3602 139.161 49.9543 138.282 50.4751C137.411 50.9878 136.333 51.2441 135.047 51.2441ZM134.754 39.4033C134.298 39.4033 133.867 39.4888 133.46 39.6597C133.053 39.8224 132.687 40.0625 132.361 40.3799C132.036 40.7054 131.759 41.1042 131.531 41.5762C131.312 42.04 131.157 42.5771 131.067 43.1875H138.172V43.0776C138.172 42.6707 138.095 42.2354 137.94 41.7715C137.785 41.2995 137.57 40.8926 137.293 40.5508C137.016 40.209 136.666 39.9323 136.243 39.7207C135.828 39.5091 135.332 39.4033 134.754 39.4033ZM143.678 37.792H145.936V49.1567H152.015V37.792H154.286V49.1567H155.86L155.641 54.9185H153.614V51H143.678V37.792ZM166.835 37.792H169.093V51H166.835V41.2588L160.377 51H158.131V37.792H160.377V47.5454L166.835 37.792ZM172.121 44.2739C172.121 43.4276 172.231 42.63 172.451 41.8813C172.67 41.1326 172.992 40.4653 173.415 39.8794C173.83 39.3016 174.339 38.8215 174.941 38.439C175.543 38.0483 176.223 37.7839 176.979 37.6455V32.25H179.238V37.6455C180.003 37.7757 180.686 38.0361 181.289 38.4268C181.899 38.8174 182.416 39.3016 182.839 39.8794C183.262 40.4653 183.583 41.1326 183.803 41.8813C184.023 42.63 184.133 43.4276 184.133 44.2739V44.5425C184.133 45.397 184.019 46.1986 183.791 46.9473C183.571 47.6878 183.254 48.347 182.839 48.9248C182.416 49.5107 181.899 49.999 181.289 50.3896C180.686 50.7721 180.003 51.0244 179.238 51.1465V56.0781H176.979V51.1343C176.223 51.0041 175.543 50.7477 174.941 50.3652C174.339 49.9746 173.83 49.4904 173.415 48.9126C172.992 48.3348 172.67 47.6756 172.451 46.9351C172.231 46.1864 172.121 45.3888 172.121 44.5425V44.2739ZM174.379 44.5425C174.379 45.0877 174.432 45.6126 174.538 46.1172C174.644 46.6136 174.807 47.0693 175.026 47.4844C175.238 47.8994 175.507 48.2575 175.832 48.5586C176.158 48.8597 176.54 49.0835 176.979 49.23V39.5864C176.548 39.7329 176.17 39.9608 175.844 40.27C175.519 40.5711 175.25 40.9292 175.039 41.3442C174.819 41.7593 174.652 42.2191 174.538 42.7236C174.432 43.2201 174.379 43.7368 174.379 44.2739V44.5425ZM181.875 44.2739C181.875 43.7368 181.818 43.216 181.704 42.7114C181.598 42.2069 181.435 41.7471 181.215 41.332C180.996 40.917 180.719 40.5589 180.385 40.2578C180.06 39.9567 179.677 39.7329 179.238 39.5864V49.2544C179.677 49.1079 180.06 48.8841 180.385 48.583C180.719 48.2819 180.996 47.9238 181.215 47.5088C181.435 47.0938 181.598 46.634 181.704 46.1294C181.818 45.6248 181.875 45.0959 181.875 44.5425V44.2739ZM195.864 37.792H198.123V51H195.864V41.2588L189.407 51H187.161V37.792H189.407V47.5454L195.864 37.792ZM206.07 45.3726H203.921V51H201.663V37.792H203.921V43.3828H205.875L210.794 37.792H213.541L207.876 44.1519L213.98 51H211.111L206.07 45.3726ZM224.979 51C224.889 50.8291 224.816 50.6175 224.759 50.3652C224.71 50.1048 224.674 49.8363 224.649 49.5596C224.422 49.7874 224.165 50.0031 223.88 50.2065C223.604 50.41 223.299 50.589 222.965 50.7437C222.623 50.8983 222.261 51.0203 221.878 51.1099C221.496 51.1994 221.089 51.2441 220.658 51.2441C219.958 51.2441 219.323 51.1424 218.753 50.939C218.192 50.7355 217.716 50.4588 217.325 50.1089C216.926 49.7671 216.617 49.3602 216.397 48.8882C216.186 48.408 216.08 47.8913 216.08 47.3379C216.08 46.6136 216.222 45.9788 216.507 45.4336C216.8 44.8883 217.211 44.4326 217.74 44.0664C218.269 43.7083 218.904 43.4398 219.645 43.2607C220.393 43.0817 221.227 42.9922 222.147 42.9922H224.613V41.9546C224.613 41.5558 224.54 41.1978 224.393 40.8804C224.247 40.563 224.039 40.2904 223.771 40.0625C223.502 39.8428 223.172 39.6719 222.782 39.5498C222.399 39.4277 221.968 39.3667 221.488 39.3667C221.04 39.3667 220.637 39.4237 220.279 39.5376C219.929 39.6515 219.632 39.8021 219.388 39.9893C219.144 40.1764 218.953 40.4002 218.814 40.6606C218.684 40.9129 218.619 41.1774 218.619 41.4541H216.349C216.357 40.974 216.479 40.502 216.715 40.0381C216.959 39.5742 217.309 39.1551 217.765 38.7808C218.212 38.4146 218.757 38.1175 219.4 37.8896C220.051 37.6618 220.788 37.5479 221.61 37.5479C222.359 37.5479 223.054 37.6414 223.697 37.8286C224.34 38.0076 224.898 38.2803 225.37 38.6465C225.833 39.0208 226.2 39.4847 226.468 40.0381C226.737 40.5915 226.871 41.2384 226.871 41.979V48.1191C226.871 48.5586 226.912 49.0265 226.993 49.5229C227.075 50.0112 227.188 50.4385 227.335 50.8047V51H224.979ZM220.987 49.2788C221.427 49.2788 221.838 49.2218 222.22 49.1079C222.603 48.994 222.953 48.8434 223.27 48.6562C223.579 48.4691 223.848 48.2575 224.076 48.0215C224.304 47.7773 224.483 47.5251 224.613 47.2646V44.5913H222.513C221.732 44.5913 221.048 44.6605 220.462 44.7988C219.885 44.929 219.425 45.1325 219.083 45.4092C218.839 45.6045 218.652 45.8364 218.521 46.105C218.399 46.3735 218.338 46.6787 218.338 47.0205C218.338 47.346 218.391 47.6471 218.497 47.9238C218.611 48.2005 218.778 48.4365 218.998 48.6318C219.217 48.8353 219.494 48.994 219.828 49.1079C220.161 49.2218 220.548 49.2788 220.987 49.2788ZM230.766 37.792H233.024V49.1567H239.103V37.792H241.374V49.1567H242.948L242.729 54.9185H240.702V51H230.766V37.792ZM253.923 37.792H256.181V51H253.923V41.2588L247.465 51H245.219V37.792H247.465V47.5454L253.923 37.792ZM270.623 37.792V51H268.364V45.8608H264.263L261.125 51H258.684L262.017 45.519C261.17 45.2098 260.519 44.7337 260.063 44.0908C259.608 43.4398 259.38 42.6829 259.38 41.8203C259.38 41.2344 259.494 40.6973 259.722 40.209C259.958 39.7126 260.291 39.2853 260.723 38.9272C261.154 38.5773 261.683 38.3006 262.31 38.0972C262.936 37.8937 263.64 37.792 264.421 37.792H270.623ZM261.65 41.8447C261.65 42.1214 261.699 42.39 261.797 42.6504C261.895 42.9108 262.049 43.1387 262.261 43.334C262.464 43.5374 262.721 43.7002 263.03 43.8223C263.339 43.9443 263.709 44.0054 264.141 44.0054H268.364V39.623H264.421C263.958 39.623 263.551 39.6882 263.201 39.8184C262.851 39.9404 262.562 40.1032 262.334 40.3066C262.106 40.5182 261.935 40.7583 261.821 41.0269C261.707 41.2873 261.65 41.5599 261.65 41.8447ZM300.018 51H297.882V42.7847H290.594V51H288.47V33.2266H290.594V40.8682H297.882V33.2266H300.018V51ZM315.375 35.1553H309.882V51H307.685V35.1553H302.191V33.2266H315.375V35.1553ZM320.38 33.2266L323.273 42.1133L326.398 33.2266H329.206V51H327.009V43.9077L327.192 36.4858L323.908 46.0562H322.614L319.599 36.7422L319.782 43.9077V51H317.585V33.2266H320.38ZM334.968 49.0835H343.66V51H332.71V33.2266H334.968V49.0835ZM357.234 48.6074L346.883 43.981V42.1987L357.234 37.5845V39.9771L349.764 42.9067L349.117 43.1143L349.764 43.334L357.234 46.2148V48.6074ZM364.425 52.5259H362.398L369.82 33.2266H371.834L364.425 52.5259ZM405.039 48.5952V46.2515L412.937 43.2729L413.669 43.0654L412.937 42.8335L405.039 39.9038V37.5723L415.818 42.1865V43.9688L405.039 48.5952ZM52.4268 81.6074L42.0752 76.981V75.1987L52.4268 70.5845V72.9771L44.9561 75.9067L44.3091 76.1143L44.9561 76.334L52.4268 79.2148V81.6074ZM85.7168 81.5952V79.2515L93.6147 76.2729L94.3472 76.0654L93.6147 75.8335L85.7168 72.9038V70.5723L96.4956 75.1865V76.9688L85.7168 81.5952ZM102.648 76.8711V84H100.39V66.2266H106.152C106.949 66.2428 107.702 66.369 108.41 66.605C109.126 66.841 109.753 67.1828 110.29 67.6304C110.827 68.078 111.25 68.6313 111.56 69.2905C111.877 69.9497 112.036 70.7065 112.036 71.561C112.036 72.4155 111.877 73.1724 111.56 73.8315C111.25 74.4826 110.827 75.0319 110.29 75.4795C109.753 75.9271 109.126 76.2689 108.41 76.5049C107.702 76.7409 106.949 76.863 106.152 76.8711H102.648ZM102.648 75.0156H106.152C106.673 75.0075 107.153 74.9261 107.592 74.7715C108.032 74.6087 108.414 74.3809 108.74 74.0879C109.065 73.7949 109.318 73.4409 109.497 73.0259C109.684 72.6027 109.777 72.1226 109.777 71.5854C109.777 71.0483 109.684 70.5641 109.497 70.1328C109.318 69.7015 109.069 69.3353 108.752 69.0342C108.426 68.7331 108.04 68.5011 107.592 68.3384C107.153 68.1756 106.673 68.0902 106.152 68.082H102.648V75.0156ZM123.376 84C123.287 83.8291 123.214 83.6175 123.157 83.3652C123.108 83.1048 123.071 82.8363 123.047 82.5596C122.819 82.7874 122.563 83.0031 122.278 83.2065C122.001 83.41 121.696 83.589 121.362 83.7437C121.021 83.8983 120.658 84.0203 120.276 84.1099C119.893 84.1994 119.486 84.2441 119.055 84.2441C118.355 84.2441 117.721 84.1424 117.151 83.939C116.589 83.7355 116.113 83.4588 115.723 83.1089C115.324 82.7671 115.015 82.3602 114.795 81.8882C114.583 81.408 114.478 80.8913 114.478 80.3379C114.478 79.6136 114.62 78.9788 114.905 78.4336C115.198 77.8883 115.609 77.4326 116.138 77.0664C116.667 76.7083 117.301 76.4398 118.042 76.2607C118.791 76.0817 119.625 75.9922 120.544 75.9922H123.01V74.9546C123.01 74.5558 122.937 74.1978 122.791 73.8804C122.644 73.563 122.437 73.2904 122.168 73.0625C121.899 72.8428 121.57 72.6719 121.179 72.5498C120.797 72.4277 120.365 72.3667 119.885 72.3667C119.438 72.3667 119.035 72.4237 118.677 72.5376C118.327 72.6515 118.03 72.8021 117.786 72.9893C117.542 73.1764 117.35 73.4002 117.212 73.6606C117.082 73.9129 117.017 74.1774 117.017 74.4541H114.746C114.754 73.974 114.876 73.502 115.112 73.0381C115.356 72.5742 115.706 72.1551 116.162 71.7808C116.61 71.4146 117.155 71.1175 117.798 70.8896C118.449 70.6618 119.185 70.5479 120.007 70.5479C120.756 70.5479 121.452 70.6414 122.095 70.8286C122.738 71.0076 123.295 71.2803 123.767 71.6465C124.231 72.0208 124.597 72.4847 124.866 73.0381C125.134 73.5915 125.269 74.2384 125.269 74.979V81.1191C125.269 81.5586 125.309 82.0265 125.391 82.5229C125.472 83.0112 125.586 83.4385 125.732 83.8047V84H123.376ZM119.385 82.2788C119.824 82.2788 120.235 82.2218 120.618 82.1079C121 81.994 121.35 81.8434 121.667 81.6562C121.977 81.4691 122.245 81.2575 122.473 81.0215C122.701 80.7773 122.88 80.5251 123.01 80.2646V77.5913H120.911C120.129 77.5913 119.446 77.6605 118.86 77.7988C118.282 77.929 117.822 78.1325 117.48 78.4092C117.236 78.6045 117.049 78.8364 116.919 79.105C116.797 79.3735 116.736 79.6787 116.736 80.0205C116.736 80.346 116.789 80.6471 116.895 80.9238C117.008 81.2005 117.175 81.4365 117.395 81.6318C117.615 81.8353 117.891 81.994 118.225 82.1079C118.559 82.2218 118.945 82.2788 119.385 82.2788ZM128.736 80.0938H130.994C130.994 80.4111 131.088 80.7122 131.275 80.9971C131.462 81.2738 131.722 81.5179 132.056 81.7295C132.39 81.9492 132.785 82.1242 133.24 82.2544C133.696 82.3765 134.188 82.4375 134.717 82.4375C135.238 82.4375 135.714 82.3846 136.146 82.2788C136.577 82.1649 136.947 82.0103 137.256 81.8149C137.557 81.6196 137.789 81.3918 137.952 81.1313C138.123 80.8709 138.208 80.5902 138.208 80.2891C138.208 79.9147 138.131 79.5973 137.977 79.3369C137.822 79.0684 137.598 78.8486 137.305 78.6777C137.159 78.5964 136.996 78.5272 136.817 78.4702C136.638 78.4132 136.447 78.3644 136.243 78.3237C136.04 78.283 135.82 78.2546 135.584 78.2383C135.348 78.222 135.104 78.2139 134.852 78.2139H131.91V76.3096H134.852C135.112 76.3096 135.356 76.3014 135.584 76.2852C135.812 76.2607 136.019 76.2282 136.207 76.1875C136.443 76.1387 136.654 76.0736 136.841 75.9922C137.037 75.9108 137.208 75.8172 137.354 75.7114C137.557 75.5568 137.712 75.3696 137.818 75.1499C137.924 74.9302 137.977 74.682 137.977 74.4053C137.977 74.1286 137.903 73.8682 137.757 73.624C137.618 73.3799 137.415 73.1642 137.146 72.9771C136.87 72.798 136.528 72.6556 136.121 72.5498C135.714 72.444 135.246 72.3911 134.717 72.3911C134.245 72.3911 133.798 72.444 133.375 72.5498C132.951 72.6556 132.581 72.798 132.264 72.9771C131.938 73.1642 131.678 73.388 131.482 73.6484C131.295 73.9007 131.202 74.1774 131.202 74.4785H128.943C128.951 73.8682 129.11 73.3229 129.419 72.8428C129.737 72.3545 130.16 71.9395 130.689 71.5977C131.21 71.264 131.816 71.0076 132.508 70.8286C133.208 70.6496 133.944 70.5601 134.717 70.5601C135.531 70.5601 136.276 70.6414 136.951 70.8042C137.627 70.967 138.208 71.207 138.697 71.5244C139.185 71.8499 139.563 72.2528 139.832 72.7329C140.101 73.2049 140.235 73.7583 140.235 74.3931C140.235 74.7837 140.145 75.1499 139.966 75.4917C139.787 75.8335 139.535 76.1427 139.209 76.4194C139.03 76.5741 138.823 76.7205 138.587 76.8589C138.351 76.9891 138.099 77.1071 137.83 77.2129C138.213 77.3268 138.554 77.4692 138.855 77.6401C139.165 77.8029 139.433 77.9941 139.661 78.2139C139.93 78.4824 140.133 78.7917 140.271 79.1416C140.418 79.4834 140.491 79.8659 140.491 80.2891C140.491 80.9238 140.341 81.4854 140.04 81.9736C139.747 82.4619 139.34 82.8729 138.819 83.2065C138.298 83.5483 137.688 83.8047 136.988 83.9756C136.288 84.1465 135.531 84.2319 134.717 84.2319C133.92 84.2319 133.139 84.1383 132.374 83.9512C131.609 83.764 130.941 83.471 130.372 83.0723C129.891 82.7467 129.497 82.3358 129.188 81.8394C128.886 81.3348 128.736 80.7529 128.736 80.0938ZM143.507 82.1567C143.857 82.1079 144.15 81.9248 144.386 81.6074C144.63 81.2819 144.829 80.8424 144.984 80.2891C145.139 79.7357 145.261 79.0765 145.35 78.3115C145.448 77.5465 145.525 76.6921 145.582 75.748L145.777 70.792H154.286V82.1567H155.982L155.763 87.8818H153.724V84H144.508V87.8818H142.481L142.262 82.1567H143.507ZM147.84 75.748C147.8 76.4316 147.747 77.0827 147.682 77.7012C147.625 78.3197 147.551 78.8975 147.462 79.4346C147.372 79.9798 147.258 80.4803 147.12 80.936C146.99 81.3918 146.827 81.7987 146.632 82.1567H152.027V72.8794H147.95L147.84 75.748ZM164.076 84.2441C163.148 84.2441 162.294 84.0854 161.513 83.7681C160.74 83.4507 160.076 83.0072 159.523 82.4375C158.97 81.8678 158.538 81.1924 158.229 80.4111C157.92 79.6299 157.765 78.7795 157.765 77.8599V77.3472C157.765 76.2811 157.936 75.3289 158.278 74.4907C158.62 73.6444 159.075 72.9282 159.645 72.3423C160.207 71.7645 160.845 71.321 161.562 71.0117C162.286 70.7025 163.026 70.5479 163.783 70.5479C164.735 70.5479 165.565 70.7147 166.273 71.0483C166.99 71.3739 167.584 71.8255 168.056 72.4033C168.528 72.9893 168.878 73.6769 169.105 74.4663C169.341 75.2557 169.459 76.1102 169.459 77.0298V78.043H160.023V78.1284C160.08 78.7713 160.207 79.3369 160.402 79.8252C160.605 80.3135 160.882 80.7448 161.232 81.1191C161.59 81.5179 162.021 81.8312 162.526 82.0591C163.03 82.2869 163.588 82.4009 164.198 82.4009C165.004 82.4009 165.72 82.2381 166.347 81.9126C166.973 81.5871 167.494 81.1558 167.909 80.6187L169.289 81.6929C168.849 82.3602 168.19 82.9543 167.311 83.4751C166.44 83.9878 165.362 84.2441 164.076 84.2441ZM163.783 72.4033C163.327 72.4033 162.896 72.4888 162.489 72.6597C162.082 72.8224 161.716 73.0625 161.391 73.3799C161.065 73.7054 160.788 74.1042 160.561 74.5762C160.341 75.04 160.186 75.5771 160.097 76.1875H167.201V76.0776C167.201 75.6707 167.124 75.2354 166.969 74.7715C166.815 74.2995 166.599 73.8926 166.322 73.5508C166.046 73.209 165.696 72.9323 165.272 72.7207C164.857 72.5091 164.361 72.4033 163.783 72.4033ZM183.596 70.792V84H181.325V72.6597H176.467L176.455 76.4438C176.455 76.8914 176.442 77.3268 176.418 77.75C176.402 78.165 176.373 78.5597 176.333 78.9341C176.267 79.5526 176.166 80.1222 176.027 80.6431C175.889 81.1639 175.714 81.6237 175.502 82.0225C175.161 82.6654 174.701 83.1577 174.123 83.4995C173.545 83.8332 172.825 84 171.962 84H171.303L171.34 81.9858L171.84 81.9736C172.304 81.9736 172.687 81.8597 172.988 81.6318C173.297 81.3958 173.541 81.0459 173.72 80.582C173.81 80.3298 173.887 80.0409 173.952 79.7153C174.017 79.3817 174.07 79.0155 174.111 78.6167C174.135 78.2993 174.152 77.9616 174.16 77.6035C174.176 77.2373 174.184 76.8507 174.184 76.4438L174.208 70.792H183.596ZM209.109 84H206.851V69.1074L202.2 70.8774V68.8145L208.926 66.2266H209.109V84ZM230.79 84V66.2266H236.076C236.808 66.2347 237.524 66.3324 238.224 66.5195C238.924 66.6986 239.547 66.9793 240.092 67.3618C240.637 67.7443 241.072 68.2326 241.398 68.8267C241.723 69.4207 241.882 70.1328 241.874 70.9629C241.866 71.4268 241.789 71.8499 241.642 72.2324C241.504 72.6149 241.312 72.9567 241.068 73.2578C240.816 73.5671 240.535 73.8275 240.226 74.0391C239.925 74.2507 239.559 74.45 239.127 74.6372V74.6738C239.575 74.7796 240.006 74.9709 240.421 75.2476C240.836 75.5243 241.178 75.8294 241.447 76.1631C241.732 76.5293 241.951 76.9403 242.106 77.396C242.269 77.8517 242.35 78.3441 242.35 78.873C242.358 79.7031 242.2 80.4355 241.874 81.0703C241.549 81.7051 241.113 82.234 240.568 82.6572C240.023 83.0885 239.392 83.4181 238.676 83.646C237.968 83.8739 237.235 83.9919 236.479 84H230.79ZM233.061 75.687V82.0835H236.54C237.012 82.0754 237.459 81.998 237.882 81.8516C238.306 81.6969 238.68 81.4854 239.005 81.2168C239.331 80.9482 239.587 80.6187 239.774 80.228C239.97 79.8374 240.067 79.3939 240.067 78.8975C240.076 78.3929 239.99 77.9453 239.811 77.5547C239.64 77.1641 239.4 76.8304 239.091 76.5537C238.782 76.2852 238.419 76.0776 238.004 75.9312C237.589 75.7847 237.142 75.7033 236.662 75.687H233.061ZM233.061 73.8071H236.21C236.633 73.799 237.048 73.7339 237.455 73.6118C237.862 73.4816 238.224 73.2944 238.542 73.0503C238.859 72.8143 239.115 72.5213 239.311 72.1714C239.506 71.8215 239.604 71.4146 239.604 70.9507C239.604 70.4543 239.506 70.0311 239.311 69.6812C239.123 69.3312 238.871 69.0423 238.554 68.8145C238.228 68.5947 237.854 68.432 237.431 68.3262C237.016 68.2204 236.588 68.1634 236.149 68.1553H233.061V73.8071ZM245.207 84V70.792H250.395C251.209 70.792 251.949 70.8652 252.617 71.0117C253.284 71.1582 253.858 71.3779 254.338 71.6709C254.81 71.9639 255.172 72.3382 255.424 72.7939C255.685 73.2497 255.815 73.7909 255.815 74.4175C255.815 74.8162 255.738 75.1906 255.583 75.5405C255.437 75.8823 255.217 76.1834 254.924 76.4438C254.761 76.5985 254.574 76.7368 254.362 76.8589C254.151 76.981 253.919 77.0908 253.667 77.1885L253.764 77.2129C254.171 77.3187 254.525 77.4692 254.826 77.6646C255.135 77.8517 255.4 78.0755 255.62 78.3359C255.839 78.6045 256.006 78.9015 256.12 79.2271C256.234 79.5526 256.291 79.8944 256.291 80.2524C256.291 80.8791 256.173 81.4284 255.937 81.9004C255.701 82.3643 255.363 82.7508 254.924 83.0601C254.484 83.3774 253.951 83.6134 253.325 83.7681C252.706 83.9227 252.01 84 251.237 84H245.207ZM247.478 78.2017V82.1812H251.237C251.717 82.1812 252.137 82.1323 252.495 82.0347C252.861 81.937 253.162 81.7946 253.398 81.6074C253.601 81.4447 253.756 81.2453 253.862 81.0093C253.968 80.7651 254.021 80.4884 254.021 80.1792C254.021 79.8618 253.959 79.5811 253.837 79.3369C253.723 79.0928 253.553 78.8893 253.325 78.7266C253.089 78.5557 252.796 78.4255 252.446 78.3359C252.096 78.2464 251.693 78.2017 251.237 78.2017H247.478ZM247.478 76.395H250.419C251.03 76.395 251.555 76.3421 251.994 76.2363C252.434 76.1305 252.784 75.9637 253.044 75.7358C253.207 75.5894 253.333 75.4185 253.422 75.2231C253.512 75.0197 253.557 74.7918 253.557 74.5396C253.557 74.2059 253.483 73.917 253.337 73.6729C253.199 73.4287 252.991 73.2293 252.714 73.0747C252.454 72.9201 252.124 72.8062 251.726 72.7329C251.335 72.6597 250.891 72.623 250.395 72.623H247.478V76.395ZM265.679 84.2441C264.751 84.2441 263.896 84.0854 263.115 83.7681C262.342 83.4507 261.679 83.0072 261.125 82.4375C260.572 81.8678 260.141 81.1924 259.832 80.4111C259.522 79.6299 259.368 78.7795 259.368 77.8599V77.3472C259.368 76.2811 259.539 75.3289 259.88 74.4907C260.222 73.6444 260.678 72.9282 261.248 72.3423C261.809 71.7645 262.448 71.321 263.164 71.0117C263.888 70.7025 264.629 70.5479 265.386 70.5479C266.338 70.5479 267.168 70.7147 267.876 71.0483C268.592 71.3739 269.186 71.8255 269.658 72.4033C270.13 72.9893 270.48 73.6769 270.708 74.4663C270.944 75.2557 271.062 76.1102 271.062 77.0298V78.043H261.626V78.1284C261.683 78.7713 261.809 79.3369 262.004 79.8252C262.208 80.3135 262.485 80.7448 262.834 81.1191C263.193 81.5179 263.624 81.8312 264.128 82.0591C264.633 82.2869 265.19 82.4009 265.801 82.4009C266.606 82.4009 267.323 82.2381 267.949 81.9126C268.576 81.5871 269.097 81.1558 269.512 80.6187L270.891 81.6929C270.452 82.3602 269.792 82.9543 268.914 83.4751C268.043 83.9878 266.965 84.2441 265.679 84.2441ZM265.386 72.4033C264.93 72.4033 264.499 72.4888 264.092 72.6597C263.685 72.8224 263.319 73.0625 262.993 73.3799C262.668 73.7054 262.391 74.1042 262.163 74.5762C261.943 75.04 261.789 75.5771 261.699 76.1875H268.804V76.0776C268.804 75.6707 268.726 75.2354 268.572 74.7715C268.417 74.2995 268.201 73.8926 267.925 73.5508C267.648 73.209 267.298 72.9323 266.875 72.7207C266.46 72.5091 265.964 72.4033 265.386 72.4033ZM274.139 82.1567C274.489 82.1079 274.782 81.9248 275.018 81.6074C275.262 81.2819 275.461 80.8424 275.616 80.2891C275.77 79.7357 275.892 79.0765 275.982 78.3115C276.08 77.5465 276.157 76.6921 276.214 75.748L276.409 70.792H284.917V82.1567H286.614L286.395 87.8818H284.356V84H275.14V87.8818H273.113L272.894 82.1567H274.139ZM278.472 75.748C278.431 76.4316 278.379 77.0827 278.313 77.7012C278.257 78.3197 278.183 78.8975 278.094 79.4346C278.004 79.9798 277.89 80.4803 277.752 80.936C277.622 81.3918 277.459 81.7987 277.264 82.1567H282.659V72.8794H278.582L278.472 75.748ZM294.708 84.2441C293.78 84.2441 292.926 84.0854 292.145 83.7681C291.371 83.4507 290.708 83.0072 290.155 82.4375C289.601 81.8678 289.17 81.1924 288.861 80.4111C288.552 79.6299 288.397 78.7795 288.397 77.8599V77.3472C288.397 76.2811 288.568 75.3289 288.91 74.4907C289.251 73.6444 289.707 72.9282 290.277 72.3423C290.838 71.7645 291.477 71.321 292.193 71.0117C292.918 70.7025 293.658 70.5479 294.415 70.5479C295.367 70.5479 296.197 70.7147 296.905 71.0483C297.621 71.3739 298.215 71.8255 298.688 72.4033C299.16 72.9893 299.509 73.6769 299.737 74.4663C299.973 75.2557 300.091 76.1102 300.091 77.0298V78.043H290.655V78.1284C290.712 78.7713 290.838 79.3369 291.034 79.8252C291.237 80.3135 291.514 80.7448 291.864 81.1191C292.222 81.5179 292.653 81.8312 293.158 82.0591C293.662 82.2869 294.22 82.4009 294.83 82.4009C295.636 82.4009 296.352 82.2381 296.979 81.9126C297.605 81.5871 298.126 81.1558 298.541 80.6187L299.92 81.6929C299.481 82.3602 298.822 82.9543 297.943 83.4751C297.072 83.9878 295.994 84.2441 294.708 84.2441ZM294.415 72.4033C293.959 72.4033 293.528 72.4888 293.121 72.6597C292.714 72.8224 292.348 73.0625 292.022 73.3799C291.697 73.7054 291.42 74.1042 291.192 74.5762C290.973 75.04 290.818 75.5771 290.729 76.1875H297.833V76.0776C297.833 75.6707 297.756 75.2354 297.601 74.7715C297.446 74.2995 297.231 73.8926 296.954 73.5508C296.677 73.209 296.327 72.9323 295.904 72.7207C295.489 72.5091 294.993 72.4033 294.415 72.4033ZM314.24 84H311.981V78.3604H305.536V84H303.278V70.792H305.536V76.5171H311.981V70.792H314.24V84ZM326.496 70.792H328.754V84H326.496V74.2588L320.039 84H317.792V70.792H320.039V80.5454L326.496 70.792ZM338.252 84.2441C337.324 84.2441 336.47 84.0854 335.688 83.7681C334.915 83.4507 334.252 83.0072 333.699 82.4375C333.145 81.8678 332.714 81.1924 332.405 80.4111C332.096 79.6299 331.941 78.7795 331.941 77.8599V77.3472C331.941 76.2811 332.112 75.3289 332.454 74.4907C332.795 73.6444 333.251 72.9282 333.821 72.3423C334.382 71.7645 335.021 71.321 335.737 71.0117C336.462 70.7025 337.202 70.5479 337.959 70.5479C338.911 70.5479 339.741 70.7147 340.449 71.0483C341.165 71.3739 341.759 71.8255 342.231 72.4033C342.703 72.9893 343.053 73.6769 343.281 74.4663C343.517 75.2557 343.635 76.1102 343.635 77.0298V78.043H334.199V78.1284C334.256 78.7713 334.382 79.3369 334.578 79.8252C334.781 80.3135 335.058 80.7448 335.408 81.1191C335.766 81.5179 336.197 81.8312 336.702 82.0591C337.206 82.2869 337.764 82.4009 338.374 82.4009C339.18 82.4009 339.896 82.2381 340.522 81.9126C341.149 81.5871 341.67 81.1558 342.085 80.6187L343.464 81.6929C343.025 82.3602 342.366 82.9543 341.487 83.4751C340.616 83.9878 339.538 84.2441 338.252 84.2441ZM337.959 72.4033C337.503 72.4033 337.072 72.4888 336.665 72.6597C336.258 72.8224 335.892 73.0625 335.566 73.3799C335.241 73.7054 334.964 74.1042 334.736 74.5762C334.517 75.04 334.362 75.5771 334.272 76.1875H341.377V76.0776C341.377 75.6707 341.3 75.2354 341.145 74.7715C340.99 74.2995 340.775 73.8926 340.498 73.5508C340.221 73.209 339.871 72.9323 339.448 72.7207C339.033 72.5091 338.537 72.4033 337.959 72.4033ZM357.234 81.6074L346.883 76.981V75.1987L357.234 70.5845V72.9771L349.764 75.9067L349.117 76.1143L349.764 76.334L357.234 79.2148V81.6074ZM364.425 85.5259H362.398L369.82 66.2266H371.834L364.425 85.5259ZM405.039 81.5952V79.2515L412.937 76.2729L413.669 76.0654L412.937 75.8335L405.039 72.9038V70.5723L415.818 75.1865V76.9688L405.039 81.5952ZM52.4268 114.607L42.0752 109.981V108.199L52.4268 103.584V105.977L44.9561 108.907L44.3091 109.114L44.9561 109.334L52.4268 112.215V114.607ZM85.7168 114.595V112.251L93.6147 109.273L94.3472 109.065L93.6147 108.833L85.7168 105.904V103.572L96.4956 108.187V109.969L85.7168 114.595ZM102.648 109.871V117H100.39V99.2266H106.152C106.949 99.2428 107.702 99.369 108.41 99.605C109.126 99.841 109.753 100.183 110.29 100.63C110.827 101.078 111.25 101.631 111.56 102.291C111.877 102.95 112.036 103.707 112.036 104.561C112.036 105.416 111.877 106.172 111.56 106.832C111.25 107.483 110.827 108.032 110.29 108.479C109.753 108.927 109.126 109.269 108.41 109.505C107.702 109.741 106.949 109.863 106.152 109.871H102.648ZM102.648 108.016H106.152C106.673 108.007 107.153 107.926 107.592 107.771C108.032 107.609 108.414 107.381 108.74 107.088C109.065 106.795 109.318 106.441 109.497 106.026C109.684 105.603 109.777 105.123 109.777 104.585C109.777 104.048 109.684 103.564 109.497 103.133C109.318 102.701 109.069 102.335 108.752 102.034C108.426 101.733 108.04 101.501 107.592 101.338C107.153 101.176 106.673 101.09 106.152 101.082H102.648V108.016ZM123.376 117C123.287 116.829 123.214 116.618 123.157 116.365C123.108 116.105 123.071 115.836 123.047 115.56C122.819 115.787 122.563 116.003 122.278 116.207C122.001 116.41 121.696 116.589 121.362 116.744C121.021 116.898 120.658 117.02 120.276 117.11C119.893 117.199 119.486 117.244 119.055 117.244C118.355 117.244 117.721 117.142 117.151 116.939C116.589 116.736 116.113 116.459 115.723 116.109C115.324 115.767 115.015 115.36 114.795 114.888C114.583 114.408 114.478 113.891 114.478 113.338C114.478 112.614 114.62 111.979 114.905 111.434C115.198 110.888 115.609 110.433 116.138 110.066C116.667 109.708 117.301 109.44 118.042 109.261C118.791 109.082 119.625 108.992 120.544 108.992H123.01V107.955C123.01 107.556 122.937 107.198 122.791 106.88C122.644 106.563 122.437 106.29 122.168 106.062C121.899 105.843 121.57 105.672 121.179 105.55C120.797 105.428 120.365 105.367 119.885 105.367C119.438 105.367 119.035 105.424 118.677 105.538C118.327 105.652 118.03 105.802 117.786 105.989C117.542 106.176 117.35 106.4 117.212 106.661C117.082 106.913 117.017 107.177 117.017 107.454H114.746C114.754 106.974 114.876 106.502 115.112 106.038C115.356 105.574 115.706 105.155 116.162 104.781C116.61 104.415 117.155 104.118 117.798 103.89C118.449 103.662 119.185 103.548 120.007 103.548C120.756 103.548 121.452 103.641 122.095 103.829C122.738 104.008 123.295 104.28 123.767 104.646C124.231 105.021 124.597 105.485 124.866 106.038C125.134 106.591 125.269 107.238 125.269 107.979V114.119C125.269 114.559 125.309 115.027 125.391 115.523C125.472 116.011 125.586 116.438 125.732 116.805V117H123.376ZM119.385 115.279C119.824 115.279 120.235 115.222 120.618 115.108C121 114.994 121.35 114.843 121.667 114.656C121.977 114.469 122.245 114.257 122.473 114.021C122.701 113.777 122.88 113.525 123.01 113.265V110.591H120.911C120.129 110.591 119.446 110.66 118.86 110.799C118.282 110.929 117.822 111.132 117.48 111.409C117.236 111.604 117.049 111.836 116.919 112.105C116.797 112.374 116.736 112.679 116.736 113.021C116.736 113.346 116.789 113.647 116.895 113.924C117.008 114.201 117.175 114.437 117.395 114.632C117.615 114.835 117.891 114.994 118.225 115.108C118.559 115.222 118.945 115.279 119.385 115.279ZM128.736 113.094H130.994C130.994 113.411 131.088 113.712 131.275 113.997C131.462 114.274 131.722 114.518 132.056 114.729C132.39 114.949 132.785 115.124 133.24 115.254C133.696 115.376 134.188 115.438 134.717 115.438C135.238 115.438 135.714 115.385 136.146 115.279C136.577 115.165 136.947 115.01 137.256 114.815C137.557 114.62 137.789 114.392 137.952 114.131C138.123 113.871 138.208 113.59 138.208 113.289C138.208 112.915 138.131 112.597 137.977 112.337C137.822 112.068 137.598 111.849 137.305 111.678C137.159 111.596 136.996 111.527 136.817 111.47C136.638 111.413 136.447 111.364 136.243 111.324C136.04 111.283 135.82 111.255 135.584 111.238C135.348 111.222 135.104 111.214 134.852 111.214H131.91V109.31H134.852C135.112 109.31 135.356 109.301 135.584 109.285C135.812 109.261 136.019 109.228 136.207 109.188C136.443 109.139 136.654 109.074 136.841 108.992C137.037 108.911 137.208 108.817 137.354 108.711C137.557 108.557 137.712 108.37 137.818 108.15C137.924 107.93 137.977 107.682 137.977 107.405C137.977 107.129 137.903 106.868 137.757 106.624C137.618 106.38 137.415 106.164 137.146 105.977C136.87 105.798 136.528 105.656 136.121 105.55C135.714 105.444 135.246 105.391 134.717 105.391C134.245 105.391 133.798 105.444 133.375 105.55C132.951 105.656 132.581 105.798 132.264 105.977C131.938 106.164 131.678 106.388 131.482 106.648C131.295 106.901 131.202 107.177 131.202 107.479H128.943C128.951 106.868 129.11 106.323 129.419 105.843C129.737 105.354 130.16 104.939 130.689 104.598C131.21 104.264 131.816 104.008 132.508 103.829C133.208 103.65 133.944 103.56 134.717 103.56C135.531 103.56 136.276 103.641 136.951 103.804C137.627 103.967 138.208 104.207 138.697 104.524C139.185 104.85 139.563 105.253 139.832 105.733C140.101 106.205 140.235 106.758 140.235 107.393C140.235 107.784 140.145 108.15 139.966 108.492C139.787 108.833 139.535 109.143 139.209 109.419C139.03 109.574 138.823 109.721 138.587 109.859C138.351 109.989 138.099 110.107 137.83 110.213C138.213 110.327 138.554 110.469 138.855 110.64C139.165 110.803 139.433 110.994 139.661 111.214C139.93 111.482 140.133 111.792 140.271 112.142C140.418 112.483 140.491 112.866 140.491 113.289C140.491 113.924 140.341 114.485 140.04 114.974C139.747 115.462 139.34 115.873 138.819 116.207C138.298 116.548 137.688 116.805 136.988 116.976C136.288 117.146 135.531 117.232 134.717 117.232C133.92 117.232 133.139 117.138 132.374 116.951C131.609 116.764 130.941 116.471 130.372 116.072C129.891 115.747 129.497 115.336 129.188 114.839C128.886 114.335 128.736 113.753 128.736 113.094ZM143.507 115.157C143.857 115.108 144.15 114.925 144.386 114.607C144.63 114.282 144.829 113.842 144.984 113.289C145.139 112.736 145.261 112.076 145.35 111.312C145.448 110.547 145.525 109.692 145.582 108.748L145.777 103.792H154.286V115.157H155.982L155.763 120.882H153.724V117H144.508V120.882H142.481L142.262 115.157H143.507ZM147.84 108.748C147.8 109.432 147.747 110.083 147.682 110.701C147.625 111.32 147.551 111.897 147.462 112.435C147.372 112.98 147.258 113.48 147.12 113.936C146.99 114.392 146.827 114.799 146.632 115.157H152.027V105.879H147.95L147.84 108.748ZM164.076 117.244C163.148 117.244 162.294 117.085 161.513 116.768C160.74 116.451 160.076 116.007 159.523 115.438C158.97 114.868 158.538 114.192 158.229 113.411C157.92 112.63 157.765 111.779 157.765 110.86V110.347C157.765 109.281 157.936 108.329 158.278 107.491C158.62 106.644 159.075 105.928 159.645 105.342C160.207 104.764 160.845 104.321 161.562 104.012C162.286 103.702 163.026 103.548 163.783 103.548C164.735 103.548 165.565 103.715 166.273 104.048C166.99 104.374 167.584 104.826 168.056 105.403C168.528 105.989 168.878 106.677 169.105 107.466C169.341 108.256 169.459 109.11 169.459 110.03V111.043H160.023V111.128C160.08 111.771 160.207 112.337 160.402 112.825C160.605 113.313 160.882 113.745 161.232 114.119C161.59 114.518 162.021 114.831 162.526 115.059C163.03 115.287 163.588 115.401 164.198 115.401C165.004 115.401 165.72 115.238 166.347 114.913C166.973 114.587 167.494 114.156 167.909 113.619L169.289 114.693C168.849 115.36 168.19 115.954 167.311 116.475C166.44 116.988 165.362 117.244 164.076 117.244ZM163.783 105.403C163.327 105.403 162.896 105.489 162.489 105.66C162.082 105.822 161.716 106.062 161.391 106.38C161.065 106.705 160.788 107.104 160.561 107.576C160.341 108.04 160.186 108.577 160.097 109.188H167.201V109.078C167.201 108.671 167.124 108.235 166.969 107.771C166.815 107.299 166.599 106.893 166.322 106.551C166.046 106.209 165.696 105.932 165.272 105.721C164.857 105.509 164.361 105.403 163.783 105.403ZM183.596 103.792V117H181.325V105.66H176.467L176.455 109.444C176.455 109.891 176.442 110.327 176.418 110.75C176.402 111.165 176.373 111.56 176.333 111.934C176.267 112.553 176.166 113.122 176.027 113.643C175.889 114.164 175.714 114.624 175.502 115.022C175.161 115.665 174.701 116.158 174.123 116.5C173.545 116.833 172.825 117 171.962 117H171.303L171.34 114.986L171.84 114.974C172.304 114.974 172.687 114.86 172.988 114.632C173.297 114.396 173.541 114.046 173.72 113.582C173.81 113.33 173.887 113.041 173.952 112.715C174.017 112.382 174.07 112.015 174.111 111.617C174.135 111.299 174.152 110.962 174.16 110.604C174.176 110.237 174.184 109.851 174.184 109.444L174.208 103.792H183.596ZM209.109 117H206.851V102.107L202.2 103.877V101.814L208.926 99.2266H209.109V117ZM220.23 115.535C220.23 115.055 220.377 114.644 220.67 114.302C220.963 113.96 221.406 113.79 222 113.79C222.586 113.79 223.03 113.96 223.331 114.302C223.64 114.636 223.795 115.047 223.795 115.535C223.795 116.015 223.64 116.418 223.331 116.744C223.022 117.069 222.578 117.232 222 117.232C221.415 117.232 220.971 117.069 220.67 116.744C220.377 116.41 220.23 116.007 220.23 115.535ZM238.139 117H235.88V102.107L231.229 103.877V101.814L237.956 99.2266H238.139V117ZM270.732 117H268.474V101.082H261.956V117H259.697V99.2266H270.732V117ZM274.346 122.078V103.792H276.409L276.519 105.232C276.698 105.005 276.893 104.801 277.105 104.622C277.317 104.435 277.544 104.276 277.789 104.146C278.13 103.951 278.509 103.804 278.924 103.707C279.347 103.601 279.799 103.548 280.279 103.548C281.125 103.548 281.874 103.715 282.525 104.048C283.176 104.382 283.721 104.846 284.161 105.44C284.6 106.034 284.934 106.746 285.162 107.576C285.389 108.398 285.503 109.301 285.503 110.286V110.542C285.503 111.486 285.389 112.369 285.162 113.191C284.934 114.005 284.6 114.713 284.161 115.315C283.721 115.918 283.176 116.39 282.525 116.731C281.882 117.073 281.146 117.244 280.315 117.244C279.811 117.244 279.339 117.191 278.899 117.085C278.468 116.98 278.077 116.829 277.728 116.634C277.516 116.512 277.317 116.377 277.129 116.231C276.942 116.076 276.767 115.91 276.604 115.73V122.078H274.346ZM283.245 110.286C283.245 109.643 283.172 109.033 283.025 108.455C282.887 107.869 282.671 107.352 282.378 106.905C282.077 106.465 281.699 106.115 281.243 105.855C280.787 105.595 280.242 105.464 279.607 105.464C279.257 105.464 278.932 105.505 278.631 105.586C278.338 105.668 278.073 105.786 277.837 105.94C277.577 106.095 277.345 106.286 277.142 106.514C276.938 106.742 276.759 106.994 276.604 107.271V113.631C276.743 113.875 276.902 114.103 277.081 114.314C277.26 114.526 277.463 114.705 277.691 114.852C277.951 115.022 278.24 115.157 278.558 115.254C278.883 115.352 279.241 115.401 279.632 115.401C280.258 115.401 280.8 115.271 281.255 115.01C281.711 114.742 282.085 114.384 282.378 113.936C282.671 113.488 282.887 112.972 283.025 112.386C283.172 111.8 283.245 111.185 283.245 110.542V110.286ZM288.238 110.274C288.238 109.322 288.377 108.439 288.653 107.625C288.93 106.803 289.329 106.091 289.85 105.489C290.362 104.887 290.989 104.415 291.729 104.073C292.47 103.723 293.304 103.548 294.232 103.548C295.168 103.548 296.006 103.723 296.747 104.073C297.495 104.415 298.13 104.887 298.651 105.489C299.164 106.091 299.558 106.803 299.835 107.625C300.112 108.439 300.25 109.322 300.25 110.274V110.542C300.25 111.495 300.112 112.378 299.835 113.191C299.558 114.005 299.164 114.713 298.651 115.315C298.13 115.918 297.499 116.39 296.759 116.731C296.018 117.073 295.184 117.244 294.256 117.244C293.32 117.244 292.478 117.073 291.729 116.731C290.989 116.39 290.362 115.918 289.85 115.315C289.329 114.713 288.93 114.005 288.653 113.191C288.377 112.378 288.238 111.495 288.238 110.542V110.274ZM290.497 110.542C290.497 111.194 290.574 111.816 290.729 112.41C290.883 112.996 291.119 113.513 291.437 113.96C291.746 114.408 292.136 114.762 292.608 115.022C293.08 115.283 293.63 115.413 294.256 115.413C294.875 115.413 295.416 115.283 295.88 115.022C296.352 114.762 296.747 114.408 297.064 113.96C297.373 113.513 297.605 112.996 297.76 112.41C297.914 111.816 297.992 111.194 297.992 110.542V110.274C297.992 109.631 297.91 109.017 297.748 108.431C297.593 107.837 297.361 107.316 297.052 106.868C296.734 106.421 296.34 106.067 295.868 105.806C295.404 105.538 294.859 105.403 294.232 105.403C293.605 105.403 293.06 105.538 292.596 105.806C292.132 106.067 291.746 106.421 291.437 106.868C291.119 107.316 290.883 107.837 290.729 108.431C290.574 109.017 290.497 109.631 290.497 110.274V110.542ZM311.981 103.792H314.24V117H311.981V107.259L305.524 117H303.278V103.792H305.524V113.545L311.981 103.792ZM323.53 115.413C323.937 115.413 324.331 115.348 324.714 115.218C325.104 115.088 325.45 114.904 325.751 114.668C326.053 114.441 326.293 114.172 326.472 113.863C326.659 113.545 326.757 113.204 326.765 112.837H328.901C328.893 113.423 328.738 113.985 328.437 114.522C328.144 115.051 327.749 115.515 327.253 115.914C326.757 116.32 326.187 116.646 325.544 116.89C324.901 117.126 324.23 117.244 323.53 117.244C322.529 117.244 321.654 117.065 320.905 116.707C320.157 116.349 319.534 115.865 319.038 115.254C318.533 114.652 318.155 113.956 317.902 113.167C317.65 112.369 317.524 111.531 317.524 110.652V110.14C317.524 109.269 317.65 108.435 317.902 107.637C318.155 106.84 318.533 106.136 319.038 105.525C319.534 104.923 320.157 104.443 320.905 104.085C321.654 103.727 322.529 103.548 323.53 103.548C324.311 103.548 325.027 103.674 325.678 103.926C326.337 104.17 326.907 104.504 327.387 104.927C327.859 105.359 328.229 105.867 328.498 106.453C328.767 107.039 328.901 107.666 328.901 108.333H326.765C326.757 107.934 326.667 107.56 326.496 107.21C326.333 106.852 326.11 106.539 325.825 106.27C325.54 106.001 325.198 105.79 324.799 105.635C324.409 105.481 323.986 105.403 323.53 105.403C322.83 105.403 322.24 105.546 321.76 105.831C321.288 106.107 320.905 106.469 320.612 106.917C320.319 107.373 320.108 107.881 319.978 108.443C319.855 109.004 319.794 109.57 319.794 110.14V110.652C319.794 111.23 319.855 111.804 319.978 112.374C320.108 112.935 320.319 113.44 320.612 113.887C320.897 114.343 321.276 114.713 321.748 114.998C322.228 115.275 322.822 115.413 323.53 115.413ZM337.874 108.687L341.401 103.792H344.05L339.131 110.323L344.185 117H341.572L337.922 111.971L334.272 117H331.636L336.689 110.323L331.77 103.792H334.382L337.874 108.687ZM346.297 110.274C346.297 109.322 346.435 108.439 346.712 107.625C346.989 106.803 347.387 106.091 347.908 105.489C348.421 104.887 349.048 104.415 349.788 104.073C350.529 103.723 351.363 103.548 352.291 103.548C353.226 103.548 354.065 103.723 354.805 104.073C355.554 104.415 356.189 104.887 356.709 105.489C357.222 106.091 357.617 106.803 357.894 107.625C358.17 108.439 358.309 109.322 358.309 110.274V110.542C358.309 111.495 358.17 112.378 357.894 113.191C357.617 114.005 357.222 114.713 356.709 115.315C356.189 115.918 355.558 116.39 354.817 116.731C354.077 117.073 353.243 117.244 352.315 117.244C351.379 117.244 350.537 117.073 349.788 116.731C349.048 116.39 348.421 115.918 347.908 115.315C347.387 114.713 346.989 114.005 346.712 113.191C346.435 112.378 346.297 111.495 346.297 110.542V110.274ZM348.555 110.542C348.555 111.194 348.632 111.816 348.787 112.41C348.942 112.996 349.178 113.513 349.495 113.96C349.804 114.408 350.195 114.762 350.667 115.022C351.139 115.283 351.688 115.413 352.315 115.413C352.933 115.413 353.475 115.283 353.938 115.022C354.41 114.762 354.805 114.408 355.123 113.96C355.432 113.513 355.664 112.996 355.818 112.41C355.973 111.816 356.05 111.194 356.05 110.542V110.274C356.05 109.631 355.969 109.017 355.806 108.431C355.652 107.837 355.42 107.316 355.11 106.868C354.793 106.421 354.398 106.067 353.926 105.806C353.462 105.538 352.917 105.403 352.291 105.403C351.664 105.403 351.119 105.538 350.655 105.806C350.191 106.067 349.804 106.421 349.495 106.868C349.178 107.316 348.942 107.837 348.787 108.431C348.632 109.017 348.555 109.631 348.555 110.274V110.542ZM368.563 111.263H367.855V117H365.597V111.263H364.876L362.252 117H359.53L363.155 110.127L359.957 103.792H362.569L364.876 109.261H365.597V103.792H367.855V109.261H368.575L370.895 103.792H373.507L370.284 110.127L373.922 117H371.188L368.563 111.263ZM375.741 115.157C376.091 115.108 376.384 114.925 376.62 114.607C376.864 114.282 377.064 113.842 377.218 113.289C377.373 112.736 377.495 112.076 377.584 111.312C377.682 110.547 377.759 109.692 377.816 108.748L378.012 103.792H386.52V115.157H388.217L387.997 120.882H385.958V117H376.742V120.882H374.716L374.496 115.157H375.741ZM380.075 108.748C380.034 109.432 379.981 110.083 379.916 110.701C379.859 111.32 379.786 111.897 379.696 112.435C379.607 112.98 379.493 113.48 379.354 113.936C379.224 114.392 379.062 114.799 378.866 115.157H384.262V105.879H380.185L380.075 108.748ZM396.311 117.244C395.383 117.244 394.528 117.085 393.747 116.768C392.974 116.451 392.311 116.007 391.757 115.438C391.204 114.868 390.773 114.192 390.463 113.411C390.154 112.63 390 111.779 390 110.86V110.347C390 109.281 390.17 108.329 390.512 107.491C390.854 106.644 391.31 105.928 391.879 105.342C392.441 104.764 393.08 104.321 393.796 104.012C394.52 103.702 395.261 103.548 396.018 103.548C396.97 103.548 397.8 103.715 398.508 104.048C399.224 104.374 399.818 104.826 400.29 105.403C400.762 105.989 401.112 106.677 401.34 107.466C401.576 108.256 401.694 109.11 401.694 110.03V111.043H392.258V111.128C392.315 111.771 392.441 112.337 392.636 112.825C392.84 113.313 393.116 113.745 393.466 114.119C393.824 114.518 394.256 114.831 394.76 115.059C395.265 115.287 395.822 115.401 396.433 115.401C397.238 115.401 397.954 115.238 398.581 114.913C399.208 114.587 399.729 114.156 400.144 113.619L401.523 114.693C401.083 115.36 400.424 115.954 399.545 116.475C398.675 116.988 397.596 117.244 396.311 117.244ZM396.018 105.403C395.562 105.403 395.131 105.489 394.724 105.66C394.317 105.822 393.951 106.062 393.625 106.38C393.299 106.705 393.023 107.104 392.795 107.576C392.575 108.04 392.421 108.577 392.331 109.188H399.436V109.078C399.436 108.671 399.358 108.235 399.204 107.771C399.049 107.299 398.833 106.893 398.557 106.551C398.28 106.209 397.93 105.932 397.507 105.721C397.092 105.509 396.595 105.403 396.018 105.403ZM415.842 117H413.584V111.36H407.139V117H404.88V103.792H407.139V109.517H413.584V103.792H415.842V117ZM428.099 103.792H430.357V117H428.099V107.259L421.641 117H419.395V103.792H421.641V113.545L428.099 103.792ZM439.854 117.244C438.927 117.244 438.072 117.085 437.291 116.768C436.518 116.451 435.855 116.007 435.301 115.438C434.748 114.868 434.317 114.192 434.007 113.411C433.698 112.63 433.543 111.779 433.543 110.86V110.347C433.543 109.281 433.714 108.329 434.056 107.491C434.398 106.644 434.854 105.928 435.423 105.342C435.985 104.764 436.624 104.321 437.34 104.012C438.064 103.702 438.805 103.548 439.562 103.548C440.514 103.548 441.344 103.715 442.052 104.048C442.768 104.374 443.362 104.826 443.834 105.403C444.306 105.989 444.656 106.677 444.884 107.466C445.12 108.256 445.238 109.11 445.238 110.03V111.043H435.802V111.128C435.859 111.771 435.985 112.337 436.18 112.825C436.384 113.313 436.66 113.745 437.01 114.119C437.368 114.518 437.8 114.831 438.304 115.059C438.809 115.287 439.366 115.401 439.977 115.401C440.782 115.401 441.498 115.238 442.125 114.913C442.752 114.587 443.272 114.156 443.688 113.619L445.067 114.693C444.627 115.36 443.968 115.954 443.089 116.475C442.219 116.988 441.14 117.244 439.854 117.244ZM439.562 105.403C439.106 105.403 438.674 105.489 438.268 105.66C437.861 105.822 437.494 106.062 437.169 106.38C436.843 106.705 436.567 107.104 436.339 107.576C436.119 108.04 435.965 108.577 435.875 109.188H442.979V109.078C442.979 108.671 442.902 108.235 442.748 107.771C442.593 107.299 442.377 106.893 442.101 106.551C441.824 106.209 441.474 105.932 441.051 105.721C440.636 105.509 440.139 105.403 439.562 105.403ZM473.828 103.792V117H471.569V111.861H467.468L464.331 117H461.889L465.222 111.519C464.375 111.21 463.724 110.734 463.269 110.091C462.813 109.44 462.585 108.683 462.585 107.82C462.585 107.234 462.699 106.697 462.927 106.209C463.163 105.713 463.496 105.285 463.928 104.927C464.359 104.577 464.888 104.301 465.515 104.097C466.141 103.894 466.845 103.792 467.626 103.792H473.828ZM464.855 107.845C464.855 108.121 464.904 108.39 465.002 108.65C465.1 108.911 465.254 109.139 465.466 109.334C465.669 109.537 465.926 109.7 466.235 109.822C466.544 109.944 466.914 110.005 467.346 110.005H471.569V105.623H467.626C467.163 105.623 466.756 105.688 466.406 105.818C466.056 105.94 465.767 106.103 465.539 106.307C465.311 106.518 465.14 106.758 465.026 107.027C464.912 107.287 464.855 107.56 464.855 107.845ZM477.087 113.094H479.346C479.346 113.411 479.439 113.712 479.626 113.997C479.814 114.274 480.074 114.518 480.408 114.729C480.741 114.949 481.136 115.124 481.592 115.254C482.048 115.376 482.54 115.438 483.069 115.438C483.59 115.438 484.066 115.385 484.497 115.279C484.928 115.165 485.299 115.01 485.608 114.815C485.909 114.62 486.141 114.392 486.304 114.131C486.475 113.871 486.56 113.59 486.56 113.289C486.56 112.915 486.483 112.597 486.328 112.337C486.174 112.068 485.95 111.849 485.657 111.678C485.51 111.596 485.347 111.527 485.168 111.47C484.989 111.413 484.798 111.364 484.595 111.324C484.391 111.283 484.172 111.255 483.936 111.238C483.7 111.222 483.455 111.214 483.203 111.214H480.261V109.31H483.203C483.464 109.31 483.708 109.301 483.936 109.285C484.163 109.261 484.371 109.228 484.558 109.188C484.794 109.139 485.006 109.074 485.193 108.992C485.388 108.911 485.559 108.817 485.706 108.711C485.909 108.557 486.064 108.37 486.169 108.15C486.275 107.93 486.328 107.682 486.328 107.405C486.328 107.129 486.255 106.868 486.108 106.624C485.97 106.38 485.767 106.164 485.498 105.977C485.221 105.798 484.88 105.656 484.473 105.55C484.066 105.444 483.598 105.391 483.069 105.391C482.597 105.391 482.149 105.444 481.726 105.55C481.303 105.656 480.933 105.798 480.615 105.977C480.29 106.164 480.029 106.388 479.834 106.648C479.647 106.901 479.553 107.177 479.553 107.479H477.295C477.303 106.868 477.462 106.323 477.771 105.843C478.088 105.354 478.512 104.939 479.041 104.598C479.561 104.264 480.168 104.008 480.859 103.829C481.559 103.65 482.296 103.56 483.069 103.56C483.883 103.56 484.627 103.641 485.303 103.804C485.978 103.967 486.56 104.207 487.048 104.524C487.537 104.85 487.915 105.253 488.184 105.733C488.452 106.205 488.586 106.758 488.586 107.393C488.586 107.784 488.497 108.15 488.318 108.492C488.139 108.833 487.887 109.143 487.561 109.419C487.382 109.574 487.174 109.721 486.938 109.859C486.702 109.989 486.45 110.107 486.182 110.213C486.564 110.327 486.906 110.469 487.207 110.64C487.516 110.803 487.785 110.994 488.013 111.214C488.281 111.482 488.485 111.792 488.623 112.142C488.77 112.483 488.843 112.866 488.843 113.289C488.843 113.924 488.692 114.485 488.391 114.974C488.098 115.462 487.691 115.873 487.17 116.207C486.65 116.548 486.039 116.805 485.339 116.976C484.639 117.146 483.883 117.232 483.069 117.232C482.271 117.232 481.49 117.138 480.725 116.951C479.96 116.764 479.293 116.471 478.723 116.072C478.243 115.747 477.848 115.336 477.539 114.839C477.238 114.335 477.087 113.753 477.087 113.094ZM493.97 108.797H495.179C495.887 108.797 496.513 108.899 497.059 109.102C497.612 109.306 498.076 109.586 498.45 109.944C498.816 110.311 499.093 110.742 499.28 111.238C499.476 111.735 499.573 112.272 499.573 112.85C499.573 113.427 499.476 113.969 499.28 114.473C499.093 114.978 498.816 115.417 498.45 115.792C498.076 116.166 497.616 116.463 497.071 116.683C496.526 116.894 495.895 117 495.179 117H491.712V103.792H493.97V108.797ZM503.223 117H500.965V103.792H503.223V117ZM493.97 110.64V115.157H495.179C495.561 115.157 495.887 115.096 496.155 114.974C496.424 114.843 496.644 114.673 496.814 114.461C496.977 114.257 497.095 114.026 497.168 113.765C497.25 113.497 497.291 113.22 497.291 112.935C497.291 112.667 497.25 112.398 497.168 112.129C497.095 111.853 496.977 111.604 496.814 111.385C496.644 111.165 496.424 110.986 496.155 110.848C495.887 110.709 495.561 110.64 495.179 110.64H493.97ZM510.877 111.373H508.729V117H506.471V103.792H508.729V109.383H510.682L515.602 103.792H518.348L512.684 110.152L518.788 117H515.919L510.877 111.373ZM529.787 117C529.697 116.829 529.624 116.618 529.567 116.365C529.518 116.105 529.481 115.836 529.457 115.56C529.229 115.787 528.973 116.003 528.688 116.207C528.411 116.41 528.106 116.589 527.772 116.744C527.431 116.898 527.069 117.02 526.686 117.11C526.304 117.199 525.897 117.244 525.465 117.244C524.765 117.244 524.131 117.142 523.561 116.939C523 116.736 522.523 116.459 522.133 116.109C521.734 115.767 521.425 115.36 521.205 114.888C520.993 114.408 520.888 113.891 520.888 113.338C520.888 112.614 521.03 111.979 521.315 111.434C521.608 110.888 522.019 110.433 522.548 110.066C523.077 109.708 523.712 109.44 524.452 109.261C525.201 109.082 526.035 108.992 526.955 108.992H529.42V107.955C529.42 107.556 529.347 107.198 529.201 106.88C529.054 106.563 528.847 106.29 528.578 106.062C528.31 105.843 527.98 105.672 527.589 105.55C527.207 105.428 526.776 105.367 526.295 105.367C525.848 105.367 525.445 105.424 525.087 105.538C524.737 105.652 524.44 105.802 524.196 105.989C523.952 106.176 523.76 106.4 523.622 106.661C523.492 106.913 523.427 107.177 523.427 107.454H521.156C521.164 106.974 521.286 106.502 521.522 106.038C521.767 105.574 522.117 105.155 522.572 104.781C523.02 104.415 523.565 104.118 524.208 103.89C524.859 103.662 525.596 103.548 526.417 103.548C527.166 103.548 527.862 103.641 528.505 103.829C529.148 104.008 529.705 104.28 530.177 104.646C530.641 105.021 531.007 105.485 531.276 106.038C531.544 106.591 531.679 107.238 531.679 107.979V114.119C531.679 114.559 531.719 115.027 531.801 115.523C531.882 116.011 531.996 116.438 532.143 116.805V117H529.787ZM525.795 115.279C526.234 115.279 526.645 115.222 527.028 115.108C527.41 114.994 527.76 114.843 528.078 114.656C528.387 114.469 528.655 114.257 528.883 114.021C529.111 113.777 529.29 113.525 529.42 113.265V110.591H527.321C526.54 110.591 525.856 110.66 525.27 110.799C524.692 110.929 524.232 111.132 523.891 111.409C523.646 111.604 523.459 111.836 523.329 112.105C523.207 112.374 523.146 112.679 523.146 113.021C523.146 113.346 523.199 113.647 523.305 113.924C523.419 114.201 523.585 114.437 523.805 114.632C524.025 114.835 524.302 114.994 524.635 115.108C524.969 115.222 525.355 115.279 525.795 115.279ZM545.925 114.607L535.573 109.981V108.199L545.925 103.584V105.977L538.454 108.907L537.807 109.114L538.454 109.334L545.925 112.215V114.607ZM553.115 118.526H551.089L558.511 99.2266H560.525L553.115 118.526ZM593.729 114.595V112.251L601.627 109.273L602.36 109.065L601.627 108.833L593.729 105.904V103.572L604.508 108.187V109.969L593.729 114.595Z" fill="white"/>
<path d="M58.897 39.7573C59.076 39.4888 59.2754 39.2446 59.4951 39.0249C59.7148 38.797 59.9468 38.5977 60.1909 38.4268C60.5815 38.1419 61.0088 37.9263 61.4727 37.7798C61.9447 37.6333 62.4451 37.556 62.9741 37.5479C63.6659 37.5479 64.2925 37.6496 64.854 37.853C65.4237 38.0483 65.9079 38.3576 66.3066 38.7808C66.7054 39.2039 67.0106 39.741 67.2222 40.3921C67.4419 41.035 67.5518 41.8 67.5518 42.687V51H65.2935V42.6626C65.2935 42.1418 65.2324 41.686 65.1104 41.2954C64.9883 40.8966 64.8092 40.5671 64.5732 40.3066C64.321 40.0218 64.0036 39.8102 63.6211 39.6719C63.2386 39.5254 62.7992 39.4562 62.3027 39.4644C61.8958 39.4644 61.5093 39.5213 61.1431 39.6353C60.7769 39.7492 60.4391 39.9119 60.1299 40.1235C59.8857 40.2863 59.6579 40.4775 59.4463 40.6973C59.2428 40.9089 59.0597 41.1449 58.897 41.4053V51H56.6387V32.25H58.897V39.7573ZM78.4775 51H76.2192V36.1074L71.5684 37.8774V35.8145L78.2944 33.2266H78.4775V51ZM378.219 39.7573C378.398 39.4888 378.598 39.2446 378.817 39.0249C379.037 38.797 379.269 38.5977 379.513 38.4268C379.904 38.1419 380.331 37.9263 380.795 37.7798C381.267 37.6333 381.767 37.556 382.296 37.5479C382.988 37.5479 383.615 37.6496 384.176 37.853C384.746 38.0483 385.23 38.3576 385.629 38.7808C386.028 39.2039 386.333 39.741 386.544 40.3921C386.764 41.035 386.874 41.8 386.874 42.687V51H384.616V42.6626C384.616 42.1418 384.555 41.686 384.433 41.2954C384.311 40.8966 384.132 40.5671 383.896 40.3066C383.643 40.0218 383.326 39.8102 382.943 39.6719C382.561 39.5254 382.121 39.4562 381.625 39.4644C381.218 39.4644 380.832 39.5213 380.465 39.6353C380.099 39.7492 379.761 39.9119 379.452 40.1235C379.208 40.2863 378.98 40.4775 378.769 40.6973C378.565 40.9089 378.382 41.1449 378.219 41.4053V51H375.961V32.25H378.219V39.7573ZM397.8 51H395.542V36.1074L390.891 37.8774V35.8145L397.617 33.2266H397.8V51ZM58.897 72.7573C59.076 72.4888 59.2754 72.2446 59.4951 72.0249C59.7148 71.797 59.9468 71.5977 60.1909 71.4268C60.5815 71.1419 61.0088 70.9263 61.4727 70.7798C61.9447 70.6333 62.4451 70.556 62.9741 70.5479C63.6659 70.5479 64.2925 70.6496 64.854 70.853C65.4237 71.0483 65.9079 71.3576 66.3066 71.7808C66.7054 72.2039 67.0106 72.741 67.2222 73.3921C67.4419 74.035 67.5518 74.8 67.5518 75.687V84H65.2935V75.6626C65.2935 75.1418 65.2324 74.686 65.1104 74.2954C64.9883 73.8966 64.8092 73.5671 64.5732 73.3066C64.321 73.0218 64.0036 72.8102 63.6211 72.6719C63.2386 72.5254 62.7992 72.4562 62.3027 72.4644C61.8958 72.4644 61.5093 72.5213 61.1431 72.6353C60.7769 72.7492 60.4391 72.9119 60.1299 73.1235C59.8857 73.2863 59.6579 73.4775 59.4463 73.6973C59.2428 73.9089 59.0597 74.1449 58.897 74.4053V84H56.6387V65.25H58.897V72.7573ZM82.0542 84H70.4087V82.3765L76.2314 75.9067C76.7523 75.3289 77.1877 74.8162 77.5376 74.3687C77.8875 73.9211 78.1683 73.506 78.3799 73.1235C78.5915 72.7492 78.742 72.3952 78.8315 72.0615C78.9211 71.7197 78.9658 71.3698 78.9658 71.0117C78.9658 70.5723 78.8926 70.1613 78.7461 69.7788C78.6077 69.3882 78.4043 69.0505 78.1357 68.7656C77.859 68.4808 77.5254 68.257 77.1348 68.0942C76.7523 67.9233 76.3169 67.8379 75.8286 67.8379C75.2345 67.8379 74.7178 67.9233 74.2783 68.0942C73.847 68.2651 73.4889 68.5052 73.2041 68.8145C72.9111 69.1318 72.6914 69.5143 72.5449 69.9619C72.4066 70.4095 72.3374 70.91 72.3374 71.4634H70.0669C70.0669 70.7147 70.1971 70.0107 70.4575 69.3516C70.7179 68.6842 71.0964 68.1024 71.5928 67.606C72.0811 67.1095 72.6792 66.7148 73.3872 66.4219C74.1034 66.1289 74.9172 65.9824 75.8286 65.9824C76.6668 65.9824 77.4196 66.1086 78.0869 66.3608C78.7624 66.605 79.332 66.9468 79.7959 67.3862C80.2598 67.8257 80.6138 68.3465 80.8579 68.9487C81.1102 69.5509 81.2363 70.2061 81.2363 70.9141C81.2363 71.443 81.1468 71.9679 80.9678 72.4888C80.7887 73.0015 80.5487 73.5101 80.2476 74.0146C79.9383 74.5192 79.5802 75.0197 79.1733 75.5161C78.7746 76.0044 78.3514 76.4927 77.9038 76.981L73.1309 82.1567H82.0542V84ZM378.219 72.7573C378.398 72.4888 378.598 72.2446 378.817 72.0249C379.037 71.797 379.269 71.5977 379.513 71.4268C379.904 71.1419 380.331 70.9263 380.795 70.7798C381.267 70.6333 381.767 70.556 382.296 70.5479C382.988 70.5479 383.615 70.6496 384.176 70.853C384.746 71.0483 385.23 71.3576 385.629 71.7808C386.028 72.2039 386.333 72.741 386.544 73.3921C386.764 74.035 386.874 74.8 386.874 75.687V84H384.616V75.6626C384.616 75.1418 384.555 74.686 384.433 74.2954C384.311 73.8966 384.132 73.5671 383.896 73.3066C383.643 73.0218 383.326 72.8102 382.943 72.6719C382.561 72.5254 382.121 72.4562 381.625 72.4644C381.218 72.4644 380.832 72.5213 380.465 72.6353C380.099 72.7492 379.761 72.9119 379.452 73.1235C379.208 73.2863 378.98 73.4775 378.769 73.6973C378.565 73.9089 378.382 74.1449 378.219 74.4053V84H375.961V65.25H378.219V72.7573ZM401.376 84H389.731V82.3765L395.554 75.9067C396.075 75.3289 396.51 74.8162 396.86 74.3687C397.21 73.9211 397.491 73.506 397.702 73.1235C397.914 72.7492 398.064 72.3952 398.154 72.0615C398.243 71.7197 398.288 71.3698 398.288 71.0117C398.288 70.5723 398.215 70.1613 398.068 69.7788C397.93 69.3882 397.727 69.0505 397.458 68.7656C397.181 68.4808 396.848 68.257 396.457 68.0942C396.075 67.9233 395.639 67.8379 395.151 67.8379C394.557 67.8379 394.04 67.9233 393.601 68.0942C393.169 68.2651 392.811 68.5052 392.526 68.8145C392.233 69.1318 392.014 69.5143 391.867 69.9619C391.729 70.4095 391.66 70.91 391.66 71.4634H389.389C389.389 70.7147 389.519 70.0107 389.78 69.3516C390.04 68.6842 390.419 68.1024 390.915 67.606C391.403 67.1095 392.001 66.7148 392.709 66.4219C393.426 66.1289 394.239 65.9824 395.151 65.9824C395.989 65.9824 396.742 66.1086 397.409 66.3608C398.085 66.605 398.654 66.9468 399.118 67.3862C399.582 67.8257 399.936 68.3465 400.18 68.9487C400.432 69.5509 400.559 70.2061 400.559 70.9141C400.559 71.443 400.469 71.9679 400.29 72.4888C400.111 73.0015 399.871 73.5101 399.57 74.0146C399.261 74.5192 398.903 75.0197 398.496 75.5161C398.097 76.0044 397.674 76.4927 397.226 76.981L392.453 82.1567H401.376V84ZM58.897 105.757C59.076 105.489 59.2754 105.245 59.4951 105.025C59.7148 104.797 59.9468 104.598 60.1909 104.427C60.5815 104.142 61.0088 103.926 61.4727 103.78C61.9447 103.633 62.4451 103.556 62.9741 103.548C63.6659 103.548 64.2925 103.65 64.854 103.853C65.4237 104.048 65.9079 104.358 66.3066 104.781C66.7054 105.204 67.0106 105.741 67.2222 106.392C67.4419 107.035 67.5518 107.8 67.5518 108.687V117H65.2935V108.663C65.2935 108.142 65.2324 107.686 65.1104 107.295C64.9883 106.897 64.8092 106.567 64.5732 106.307C64.321 106.022 64.0036 105.81 63.6211 105.672C63.2386 105.525 62.7992 105.456 62.3027 105.464C61.8958 105.464 61.5093 105.521 61.1431 105.635C60.7769 105.749 60.4391 105.912 60.1299 106.124C59.8857 106.286 59.6579 106.478 59.4463 106.697C59.2428 106.909 59.0597 107.145 58.897 107.405V117H56.6387V98.25H58.897V105.757ZM73.79 107.027H75.4014C75.971 107.027 76.4715 106.95 76.9028 106.795C77.3423 106.64 77.7126 106.429 78.0137 106.16C78.3066 105.892 78.5304 105.57 78.6851 105.196C78.8397 104.821 78.917 104.41 78.917 103.963C78.917 103.434 78.8478 102.974 78.7095 102.583C78.5711 102.185 78.3677 101.855 78.0991 101.595C77.8387 101.342 77.5132 101.155 77.1226 101.033C76.7401 100.903 76.3006 100.838 75.8042 100.838C75.3241 100.838 74.8846 100.911 74.4858 101.058C74.0952 101.196 73.7616 101.399 73.4849 101.668C73.2 101.937 72.9803 102.258 72.8257 102.632C72.6711 103.007 72.5938 103.426 72.5938 103.89H70.3232C70.3232 103.214 70.4535 102.579 70.7139 101.985C70.9824 101.383 71.3568 100.858 71.8369 100.411C72.3171 99.9712 72.8908 99.6253 73.5581 99.373C74.2336 99.1126 74.9823 98.9824 75.8042 98.9824C76.6017 98.9824 77.3301 99.0923 77.9893 99.312C78.6484 99.5236 79.214 99.841 79.686 100.264C80.158 100.687 80.5243 101.212 80.7847 101.839C81.0451 102.465 81.1753 103.19 81.1753 104.012C81.1753 104.354 81.1224 104.708 81.0166 105.074C80.9108 105.44 80.748 105.794 80.5283 106.136C80.3086 106.486 80.0238 106.815 79.6738 107.125C79.332 107.426 78.9211 107.678 78.4409 107.881C79.0187 108.069 79.4989 108.313 79.8813 108.614C80.272 108.915 80.5853 109.253 80.8213 109.627C81.0492 110.001 81.2078 110.396 81.2974 110.811C81.395 111.226 81.4438 111.637 81.4438 112.044C81.4438 112.874 81.3014 113.611 81.0166 114.253C80.7318 114.896 80.3371 115.438 79.8325 115.877C79.328 116.325 78.7298 116.666 78.0381 116.902C77.3545 117.13 76.6139 117.244 75.8164 117.244C75.0352 117.244 74.2987 117.134 73.6069 116.915C72.9233 116.695 72.3293 116.373 71.8247 115.95C71.3201 115.527 70.9173 115.01 70.6162 114.4C70.3232 113.79 70.1768 113.094 70.1768 112.312H72.4351C72.4351 112.776 72.5124 113.2 72.667 113.582C72.8298 113.965 73.0576 114.29 73.3506 114.559C73.6436 114.827 73.9976 115.035 74.4126 115.181C74.8358 115.328 75.3037 115.401 75.8164 115.401C76.3291 115.401 76.793 115.336 77.208 115.206C77.623 115.067 77.9771 114.86 78.27 114.583C78.563 114.306 78.7868 113.965 78.9414 113.558C79.1042 113.143 79.1855 112.654 79.1855 112.093C79.1855 111.539 79.092 111.063 78.9048 110.665C78.7257 110.258 78.4735 109.92 78.1479 109.651C77.8143 109.383 77.4115 109.183 76.9395 109.053C76.4756 108.923 75.9629 108.858 75.4014 108.858H73.79V107.027ZM566.91 105.757C567.089 105.489 567.288 105.245 567.508 105.025C567.728 104.797 567.959 104.598 568.204 104.427C568.594 104.142 569.021 103.926 569.485 103.78C569.957 103.633 570.458 103.556 570.987 103.548C571.679 103.548 572.305 103.65 572.867 103.853C573.436 104.048 573.921 104.358 574.319 104.781C574.718 105.204 575.023 105.741 575.235 106.392C575.455 107.035 575.564 107.8 575.564 108.687V117H573.306V108.663C573.306 108.142 573.245 107.686 573.123 107.295C573.001 106.897 572.822 106.567 572.586 106.307C572.334 106.022 572.016 105.81 571.634 105.672C571.251 105.525 570.812 105.456 570.315 105.464C569.909 105.464 569.522 105.521 569.156 105.635C568.79 105.749 568.452 105.912 568.143 106.124C567.898 106.286 567.671 106.478 567.459 106.697C567.256 106.909 567.072 107.145 566.91 107.405V117H564.651V98.25H566.91V105.757ZM581.803 107.027H583.414C583.984 107.027 584.484 106.95 584.916 106.795C585.355 106.64 585.725 106.429 586.026 106.16C586.319 105.892 586.543 105.57 586.698 105.196C586.852 104.821 586.93 104.41 586.93 103.963C586.93 103.434 586.861 102.974 586.722 102.583C586.584 102.185 586.38 101.855 586.112 101.595C585.851 101.342 585.526 101.155 585.135 101.033C584.753 100.903 584.313 100.838 583.817 100.838C583.337 100.838 582.897 100.911 582.499 101.058C582.108 101.196 581.774 101.399 581.498 101.668C581.213 101.937 580.993 102.258 580.838 102.632C580.684 103.007 580.606 103.426 580.606 103.89H578.336C578.336 103.214 578.466 102.579 578.727 101.985C578.995 101.383 579.369 100.858 579.85 100.411C580.33 99.9712 580.903 99.6253 581.571 99.373C582.246 99.1126 582.995 98.9824 583.817 98.9824C584.614 98.9824 585.343 99.0923 586.002 99.312C586.661 99.5236 587.227 99.841 587.699 100.264C588.171 100.687 588.537 101.212 588.797 101.839C589.058 102.465 589.188 103.19 589.188 104.012C589.188 104.354 589.135 104.708 589.029 105.074C588.924 105.44 588.761 105.794 588.541 106.136C588.321 106.486 588.036 106.815 587.687 107.125C587.345 107.426 586.934 107.678 586.454 107.881C587.031 108.069 587.512 108.313 587.894 108.614C588.285 108.915 588.598 109.253 588.834 109.627C589.062 110.001 589.221 110.396 589.31 110.811C589.408 111.226 589.457 111.637 589.457 112.044C589.457 112.874 589.314 113.611 589.029 114.253C588.744 114.896 588.35 115.438 587.845 115.877C587.341 116.325 586.743 116.666 586.051 116.902C585.367 117.13 584.627 117.244 583.829 117.244C583.048 117.244 582.311 117.134 581.62 116.915C580.936 116.695 580.342 116.373 579.837 115.95C579.333 115.527 578.93 115.01 578.629 114.4C578.336 113.79 578.189 113.094 578.189 112.312H580.448C580.448 112.776 580.525 113.2 580.68 113.582C580.842 113.965 581.07 114.29 581.363 114.559C581.656 114.827 582.01 115.035 582.425 115.181C582.848 115.328 583.316 115.401 583.829 115.401C584.342 115.401 584.806 115.336 585.221 115.206C585.636 115.067 585.99 114.86 586.283 114.583C586.576 114.306 586.799 113.965 586.954 113.558C587.117 113.143 587.198 112.654 587.198 112.093C587.198 111.539 587.105 111.063 586.917 110.665C586.738 110.258 586.486 109.92 586.161 109.651C585.827 109.383 585.424 109.183 584.952 109.053C584.488 108.923 583.976 108.858 583.414 108.858H581.803V107.027Z" fill="#0066FF"/>
</svg>
