<svg width="936" height="182" viewBox="0 0 936 182" fill="none" xmlns="http://www.w3.org/2000/svg">
<rect width="936" height="182" rx="20" fill="#0066FF" fill-opacity="0.2"/>
<rect x="1.5" y="1.5" width="933" height="179" rx="18.5" stroke="#0066FF" stroke-opacity="0.5" stroke-width="3"/>
<path d="M42.1118 56.0781V37.792H44.1748L44.2847 39.2324C44.4637 39.0046 44.659 38.8011 44.8706 38.6221C45.0822 38.4349 45.3101 38.2762 45.5542 38.146C45.896 37.9507 46.2744 37.8042 46.6895 37.7065C47.1126 37.6007 47.5643 37.5479 48.0444 37.5479C48.8908 37.5479 49.6395 37.7147 50.2905 38.0483C50.9416 38.382 51.4868 38.8459 51.9263 39.4399C52.3657 40.034 52.6994 40.7461 52.9272 41.5762C53.1551 42.3981 53.269 43.3014 53.269 44.2861V44.5425C53.269 45.4865 53.1551 46.3695 52.9272 47.1914C52.6994 48.0052 52.3657 48.7132 51.9263 49.3154C51.4868 49.9176 50.9416 50.3896 50.2905 50.7314C49.6476 51.0732 48.9111 51.2441 48.0811 51.2441C47.5765 51.2441 47.1045 51.1912 46.665 51.0854C46.2337 50.9797 45.8431 50.8291 45.4932 50.6338C45.2816 50.5117 45.0822 50.3774 44.895 50.231C44.7078 50.0763 44.5329 49.9095 44.3701 49.7305V56.0781H42.1118ZM51.0107 44.2861C51.0107 43.6432 50.9375 43.0329 50.791 42.4551C50.6527 41.8691 50.437 41.3524 50.144 40.9048C49.8429 40.4653 49.4645 40.1154 49.0088 39.855C48.5531 39.5946 48.0078 39.4644 47.373 39.4644C47.0231 39.4644 46.6976 39.505 46.3965 39.5864C46.1035 39.6678 45.839 39.7858 45.603 39.9404C45.3426 40.0951 45.1107 40.2863 44.9072 40.5142C44.7038 40.742 44.5247 40.9943 44.3701 41.271V47.6309C44.5085 47.875 44.6672 48.1029 44.8462 48.3145C45.0252 48.526 45.2287 48.7051 45.4565 48.8516C45.717 49.0225 46.0059 49.1567 46.3232 49.2544C46.6488 49.3521 47.0068 49.4009 47.3975 49.4009C48.0241 49.4009 48.5653 49.2707 49.021 49.0103C49.4767 48.7417 49.8511 48.3836 50.144 47.936C50.437 47.4884 50.6527 46.9717 50.791 46.3857C50.9375 45.7998 51.0107 45.1854 51.0107 44.5425V44.2861ZM275.384 85.5137H273.98L284.515 66.2388H285.906L275.384 85.5137ZM293.841 72.1714L289.483 70.8408L290.106 69.4858L294.366 71.2314L295.013 66.2266H296.429L295.428 71.1948L300.079 69.437L300.335 70.8896L295.501 72.3057L298.102 76.2363L296.869 77.0664L294.623 72.8916L291.205 77.0054L290.118 76.1265L293.841 72.1714ZM318.854 66.2266H320.271L317.402 82.7549H324.982L327.851 66.2266H329.267L326.411 82.7183H327.924L326.862 88.2847H325.556L326.301 84H315.803L318.854 66.2266ZM329.854 84L332.136 70.792H336.885C337.21 70.8001 337.54 70.8245 337.874 70.8652C338.215 70.9059 338.545 70.971 338.862 71.0605C339.163 71.1501 339.444 71.2599 339.705 71.3901C339.973 71.5203 340.213 71.679 340.425 71.8662C340.734 72.1348 340.97 72.4644 341.133 72.855C341.304 73.2456 341.357 73.7135 341.292 74.2588C341.243 74.6576 341.137 75.0116 340.974 75.3208C340.819 75.63 340.62 75.9027 340.376 76.1387C340.132 76.3747 339.859 76.5822 339.558 76.7612C339.257 76.9321 338.919 77.0827 338.545 77.2129C338.911 77.3105 339.241 77.457 339.534 77.6523C339.827 77.8477 340.071 78.0755 340.266 78.3359C340.453 78.6045 340.588 78.9056 340.669 79.2393C340.758 79.5648 340.783 79.9147 340.742 80.2891C340.685 80.8424 340.539 81.3267 340.303 81.7417C340.075 82.1486 339.782 82.4945 339.424 82.7793C339.196 82.9909 338.94 83.174 338.655 83.3286C338.37 83.4832 338.069 83.6094 337.751 83.707C337.418 83.8047 337.068 83.8779 336.702 83.9268C336.335 83.9756 335.973 84 335.615 84H329.854ZM332.344 77.9209L331.501 82.7671H335.627C336.042 82.7671 336.453 82.7223 336.86 82.6328C337.275 82.5352 337.654 82.3887 337.996 82.1934C338.329 81.998 338.618 81.7417 338.862 81.4243C339.106 81.1069 339.265 80.7204 339.338 80.2646C339.403 79.8415 339.367 79.4834 339.229 79.1904C339.098 78.8893 338.903 78.6452 338.643 78.458C338.382 78.279 338.077 78.1488 337.727 78.0674C337.377 77.9779 337.023 77.929 336.665 77.9209H332.344ZM332.551 76.688L336.067 76.7002C336.474 76.6921 336.885 76.6514 337.3 76.5781C337.715 76.4967 338.101 76.3665 338.459 76.1875C338.809 76.0085 339.111 75.7684 339.363 75.4673C339.615 75.158 339.782 74.7756 339.863 74.3198C339.912 74.0431 339.912 73.799 339.863 73.5874C339.823 73.3677 339.745 73.1764 339.631 73.0137C339.526 72.8509 339.387 72.7166 339.216 72.6108C339.045 72.4969 338.858 72.4033 338.655 72.3301C338.378 72.2243 338.081 72.1551 337.764 72.1226C337.454 72.0819 337.153 72.0575 336.86 72.0493L333.357 72.0371L332.551 76.688ZM349.666 84.2441C348.755 84.236 347.957 84.0366 347.273 83.646C346.598 83.2554 346.053 82.7467 345.638 82.1201C345.247 81.5423 344.966 80.875 344.795 80.1182C344.633 79.3613 344.6 78.5841 344.698 77.7866L344.771 77.2495C344.852 76.6961 344.991 76.1468 345.186 75.6016C345.381 75.0482 345.63 74.5192 345.931 74.0146C346.232 73.5182 346.578 73.0584 346.968 72.6353C347.359 72.2039 347.79 71.8337 348.262 71.5244C348.734 71.2152 349.243 70.9751 349.788 70.8042C350.341 70.6252 350.923 70.5397 351.534 70.5479C352.38 70.556 353.1 70.735 353.694 71.085C354.288 71.4268 354.769 71.8825 355.135 72.4521C355.493 73.0137 355.733 73.6566 355.855 74.3809C355.977 75.1051 355.989 75.8457 355.892 76.6025L355.745 77.4937H346.187C346.049 78.2342 346.024 78.9219 346.114 79.5566C346.203 80.1914 346.419 80.7855 346.761 81.3389C347.054 81.8271 347.452 82.2218 347.957 82.5229C348.47 82.8241 349.068 82.9827 349.751 82.999C350.557 83.0153 351.302 82.8607 351.985 82.5352C352.669 82.2096 353.292 81.7702 353.853 81.2168L354.708 81.937C354.089 82.6857 353.336 83.2594 352.449 83.6582C351.57 84.057 350.643 84.2523 349.666 84.2441ZM351.485 71.8052C350.834 71.7889 350.236 71.911 349.69 72.1714C349.153 72.4237 348.677 72.7573 348.262 73.1724C347.831 73.5874 347.461 74.0635 347.151 74.6006C346.842 75.1377 346.586 75.687 346.382 76.2485L354.488 76.2607L354.524 76.0654C354.622 75.5446 354.626 75.0319 354.537 74.5273C354.447 74.0146 354.272 73.5589 354.012 73.1602C353.743 72.7614 353.397 72.4399 352.974 72.1958C352.551 71.9435 352.055 71.8133 351.485 71.8052ZM371.603 72.0371H366.134L364.059 84H362.618L364.681 72.0371H359.42L359.615 70.792H371.798L371.603 72.0371ZM399.948 72.0371H394.479L392.404 84H390.964L393.027 72.0371H387.766L387.961 70.792H400.144L399.948 72.0371ZM406.357 84.2441C405.446 84.236 404.648 84.0366 403.965 83.646C403.289 83.2554 402.744 82.7467 402.329 82.1201C401.938 81.5423 401.658 80.875 401.487 80.1182C401.324 79.3613 401.292 78.5841 401.389 77.7866L401.462 77.2495C401.544 76.6961 401.682 76.1468 401.877 75.6016C402.073 75.0482 402.321 74.5192 402.622 74.0146C402.923 73.5182 403.269 73.0584 403.66 72.6353C404.05 72.2039 404.482 71.8337 404.954 71.5244C405.426 71.2152 405.934 70.9751 406.479 70.8042C407.033 70.6252 407.615 70.5397 408.225 70.5479C409.071 70.556 409.792 70.735 410.386 71.085C410.98 71.4268 411.46 71.8825 411.826 72.4521C412.184 73.0137 412.424 73.6566 412.546 74.3809C412.668 75.1051 412.681 75.8457 412.583 76.6025L412.437 77.4937H402.878C402.74 78.2342 402.716 78.9219 402.805 79.5566C402.895 80.1914 403.11 80.7855 403.452 81.3389C403.745 81.8271 404.144 82.2218 404.648 82.5229C405.161 82.8241 405.759 82.9827 406.443 82.999C407.249 83.0153 407.993 82.8607 408.677 82.5352C409.36 82.2096 409.983 81.7702 410.544 81.2168L411.399 81.937C410.78 82.6857 410.028 83.2594 409.141 83.6582C408.262 84.057 407.334 84.2523 406.357 84.2441ZM408.176 71.8052C407.525 71.7889 406.927 71.911 406.382 72.1714C405.845 72.4237 405.369 72.7573 404.954 73.1724C404.522 73.5874 404.152 74.0635 403.843 74.6006C403.534 75.1377 403.277 75.687 403.074 76.2485L411.179 76.2607L411.216 76.0654C411.313 75.5446 411.318 75.0319 411.228 74.5273C411.139 74.0146 410.964 73.5589 410.703 73.1602C410.435 72.7614 410.089 72.4399 409.666 72.1958C409.242 71.9435 408.746 71.8133 408.176 71.8052ZM420.005 77.9575H417.613L416.563 84H415.123L417.405 70.792H418.846L417.833 76.6392H420.054L426.207 70.792L428.172 70.8042L421.287 77.2861L426.365 84H424.607L420.005 77.9575ZM434.483 83.0112C434.972 83.0112 435.444 82.9421 435.899 82.8037C436.355 82.6572 436.77 82.4456 437.145 82.1689C437.511 81.9085 437.828 81.5871 438.097 81.2046C438.365 80.8221 438.569 80.3989 438.707 79.9351L440.074 79.9229C439.944 80.5739 439.7 81.168 439.342 81.7051C438.984 82.2422 438.552 82.6938 438.048 83.0601C437.535 83.4425 436.97 83.7396 436.351 83.9512C435.733 84.1546 435.098 84.2523 434.447 84.2441C433.828 84.2441 433.275 84.1546 432.787 83.9756C432.306 83.7884 431.887 83.5361 431.529 83.2188C431.147 82.8932 430.829 82.5067 430.577 82.0591C430.333 81.6115 430.146 81.1232 430.016 80.5942C429.902 80.1385 429.833 79.6624 429.808 79.166C429.792 78.6696 429.816 78.1691 429.881 77.6646L429.955 77.1519C430.085 76.2974 430.329 75.4673 430.687 74.6616C431.053 73.8478 431.521 73.1357 432.091 72.5254C432.636 71.9232 433.283 71.443 434.032 71.085C434.789 70.7188 435.627 70.5397 436.546 70.5479C437.23 70.556 437.844 70.6821 438.39 70.9263C438.943 71.1623 439.415 71.4837 439.806 71.8906C440.188 72.3138 440.477 72.8102 440.672 73.3799C440.868 73.9495 440.949 74.5721 440.917 75.2476L439.562 75.2354C439.586 74.7552 439.533 74.3076 439.403 73.8926C439.281 73.4775 439.09 73.1113 438.829 72.7939C438.561 72.4928 438.227 72.2528 437.828 72.0737C437.438 71.8947 436.994 71.8011 436.498 71.793C435.741 71.7848 435.069 71.9395 434.483 72.2568C433.906 72.5742 433.405 72.9771 432.982 73.4653C432.567 73.978 432.225 74.5558 431.957 75.1987C431.688 75.8416 431.497 76.4927 431.383 77.1519L431.31 77.6646C431.253 78.0633 431.22 78.4743 431.212 78.8975C431.212 79.3125 431.253 79.7153 431.334 80.106C431.399 80.4966 431.509 80.8669 431.664 81.2168C431.818 81.5667 432.026 81.8719 432.286 82.1323C432.538 82.3927 432.844 82.6043 433.202 82.7671C433.568 82.9217 433.995 83.0031 434.483 83.0112ZM456.64 72.0371H451.171L449.096 84H447.655L449.718 72.0371H444.457L444.652 70.792H456.835L456.64 72.0371ZM466.369 84C466.328 83.6663 466.316 83.3408 466.333 83.0234C466.357 82.6979 466.398 82.3724 466.455 82.0469C466.178 82.3398 465.881 82.6125 465.563 82.8647C465.246 83.1089 464.912 83.3205 464.562 83.4995C464.107 83.7437 463.627 83.9308 463.122 84.061C462.618 84.1912 462.097 84.2523 461.56 84.2441C461.031 84.236 460.526 84.1465 460.046 83.9756C459.566 83.7965 459.159 83.5483 458.825 83.231C458.475 82.9136 458.207 82.5311 458.02 82.0835C457.84 81.6278 457.779 81.1151 457.836 80.5454C457.893 80.0002 458.032 79.516 458.251 79.0928C458.471 78.6696 458.752 78.2993 459.094 77.9819C459.427 77.6727 459.806 77.4123 460.229 77.2007C460.652 76.9891 461.1 76.8141 461.572 76.6758C462.044 76.5456 462.524 76.452 463.012 76.395C463.509 76.3381 463.993 76.3096 464.465 76.3096H467.333L467.578 74.8203C467.643 74.332 467.61 73.9007 467.48 73.5264C467.358 73.152 467.163 72.8346 466.894 72.5742C466.625 72.3138 466.296 72.1185 465.905 71.9883C465.515 71.8499 465.087 71.7808 464.624 71.7808C464.184 71.7726 463.753 71.8255 463.33 71.9395C462.906 72.0452 462.516 72.208 462.158 72.4277C461.8 72.6556 461.486 72.9364 461.218 73.27C460.957 73.5955 460.766 73.9821 460.644 74.4297L459.216 74.4175C459.33 73.7827 459.566 73.2253 459.924 72.7451C460.29 72.2568 460.729 71.8499 461.242 71.5244C461.747 71.1989 462.3 70.9548 462.902 70.792C463.513 70.6211 464.123 70.5397 464.733 70.5479C465.376 70.5479 465.974 70.6455 466.528 70.8408C467.081 71.028 467.557 71.3047 467.956 71.6709C468.347 72.0452 468.636 72.501 468.823 73.0381C469.018 73.5671 469.075 74.1693 468.994 74.8447L467.907 81.229C467.834 81.6685 467.797 82.1079 467.797 82.5474C467.797 82.9787 467.826 83.41 467.883 83.8413L467.858 84H466.369ZM461.767 82.9502C462.264 82.9583 462.748 82.9014 463.22 82.7793C463.692 82.6572 464.135 82.4782 464.55 82.2422C464.949 82.0143 465.323 81.7417 465.673 81.4243C466.031 81.0988 466.349 80.7407 466.625 80.3501L467.138 77.4448L464.66 77.4326C464.245 77.4326 463.802 77.4611 463.33 77.5181C462.858 77.5669 462.402 77.6605 461.962 77.7988C461.645 77.8883 461.34 78.0023 461.047 78.1406C460.762 78.2708 460.502 78.4377 460.266 78.6411C460.013 78.8608 459.798 79.1172 459.619 79.4102C459.448 79.695 459.334 80.0286 459.277 80.4111C459.22 80.8099 459.248 81.1639 459.362 81.4731C459.476 81.7824 459.651 82.0428 459.887 82.2544C460.115 82.4741 460.392 82.645 460.717 82.7671C461.051 82.881 461.401 82.9421 461.767 82.9502ZM492.933 71.6587C493.763 71.6668 494.487 71.8377 495.105 72.1714C495.724 72.4969 496.233 72.9282 496.631 73.4653C497.03 74.0106 497.311 74.6372 497.474 75.3452C497.645 76.0532 497.685 76.7938 497.596 77.5669L497.547 77.9697C497.425 78.8079 497.185 79.6095 496.827 80.3745C496.477 81.1313 496.017 81.7987 495.447 82.3765C494.886 82.9543 494.231 83.4141 493.482 83.7559C492.733 84.0895 491.915 84.2523 491.028 84.2441C490.158 84.236 489.397 84.057 488.746 83.707C488.103 83.349 487.578 82.881 487.171 82.3032C486.764 81.7254 486.479 81.0622 486.316 80.3135C486.154 79.5566 486.121 78.7795 486.219 77.9819L486.268 77.5791L486.28 77.4814L486.402 76.688C486.5 75.9963 486.638 75.3005 486.817 74.6006C487.004 73.9007 487.236 73.2212 487.513 72.562C487.781 71.911 488.107 71.2925 488.489 70.7065C488.872 70.1125 489.311 69.5794 489.808 69.1074C490.304 68.6436 490.861 68.2489 491.48 67.9233C492.107 67.5897 492.798 67.3537 493.555 67.2153C493.921 67.1502 494.296 67.0811 494.678 67.0078C495.069 66.9264 495.431 66.8084 495.765 66.6538C496.098 66.5073 496.395 66.3079 496.656 66.0557C496.916 65.8034 497.103 65.4697 497.217 65.0547H498.45C498.344 65.6813 498.149 66.1981 497.864 66.605C497.579 67.0037 497.234 67.3293 496.827 67.5815C496.403 67.8257 495.936 68.0169 495.423 68.1553C494.91 68.2936 494.373 68.4116 493.812 68.5093C493.055 68.6313 492.379 68.8633 491.785 69.2051C491.199 69.5387 490.678 69.9456 490.223 70.4258C489.767 70.9222 489.368 71.4756 489.026 72.0859C488.685 72.6882 488.383 73.327 488.123 74.0024C488.742 73.2944 489.458 72.7248 490.271 72.2935C491.085 71.8621 491.972 71.6506 492.933 71.6587ZM492.688 72.9038C492.021 72.8957 491.403 73.0177 490.833 73.27C490.263 73.5223 489.763 73.8641 489.332 74.2954C488.9 74.7267 488.542 75.2272 488.257 75.7969C487.981 76.3665 487.789 76.9647 487.684 77.5913L487.623 77.9941C487.549 78.5882 487.557 79.1823 487.647 79.7764C487.745 80.3704 487.932 80.9035 488.208 81.3755C488.485 81.8475 488.86 82.234 489.332 82.5352C489.804 82.8363 490.381 82.9909 491.065 82.999C491.765 83.0153 492.404 82.881 492.981 82.5962C493.559 82.3114 494.064 81.9329 494.495 81.4609C494.926 80.9889 495.276 80.4478 495.545 79.8374C495.822 79.2271 496.013 78.6045 496.119 77.9697L496.167 77.5669C496.241 76.9728 496.22 76.3991 496.106 75.8457C496.001 75.2842 495.801 74.7878 495.508 74.3564C495.215 73.9251 494.833 73.5793 494.361 73.3188C493.889 73.0503 493.331 72.9119 492.688 72.9038ZM505.262 81.2656L505.494 81.8027L511.976 70.8042H513.661L504.408 86.124C504.164 86.5472 503.887 86.95 503.578 87.3325C503.268 87.7231 502.931 88.069 502.564 88.3701C502.19 88.6631 501.779 88.8991 501.332 89.0781C500.892 89.2572 500.408 89.3467 499.879 89.3467C499.667 89.3467 499.456 89.3304 499.244 89.2979C499.041 89.2653 498.833 89.2287 498.622 89.188L498.902 87.9429C499.073 87.9673 499.24 87.9917 499.403 88.0161C499.574 88.0405 499.741 88.0527 499.903 88.0527C500.278 88.0446 500.628 87.9673 500.953 87.8208C501.279 87.6825 501.576 87.4993 501.844 87.2715C502.113 87.0436 502.357 86.7832 502.577 86.4902C502.805 86.1973 503.012 85.9043 503.199 85.6113L504.469 83.585L500.941 70.7798H502.491L505.262 81.2656ZM514.198 82.7671C514.573 82.5555 514.91 82.2788 515.211 81.937C515.521 81.5952 515.797 81.2168 516.042 80.8018C516.269 80.403 516.473 79.9798 516.652 79.5322C516.831 79.0846 516.99 78.6289 517.128 78.165C517.258 77.7093 517.376 77.2576 517.482 76.8101C517.588 76.3625 517.681 75.9474 517.763 75.5649L518.8 70.792H526.369L524.306 82.7549H525.636L524.647 87.8818H523.317L523.988 84H514.381L513.71 87.8818H512.465L513.234 82.7549L514.198 82.7671ZM519.203 75.5649C519.065 76.2078 518.91 76.8507 518.739 77.4937C518.576 78.1366 518.377 78.7673 518.141 79.3857C517.897 80.0042 517.616 80.5983 517.299 81.168C516.981 81.7376 516.599 82.2747 516.151 82.7793L522.877 82.7549L524.708 72.1592H519.936L519.203 75.5649ZM533.913 84.2441C533.002 84.236 532.204 84.0366 531.521 83.646C530.845 83.2554 530.3 82.7467 529.885 82.1201C529.494 81.5423 529.213 80.875 529.042 80.1182C528.88 79.3613 528.847 78.5841 528.945 77.7866L529.018 77.2495C529.099 76.6961 529.238 76.1468 529.433 75.6016C529.628 75.0482 529.877 74.5192 530.178 74.0146C530.479 73.5182 530.825 73.0584 531.215 72.6353C531.606 72.2039 532.037 71.8337 532.509 71.5244C532.981 71.2152 533.49 70.9751 534.035 70.8042C534.589 70.6252 535.17 70.5397 535.781 70.5479C536.627 70.556 537.347 70.735 537.941 71.085C538.535 71.4268 539.016 71.8825 539.382 72.4521C539.74 73.0137 539.98 73.6566 540.102 74.3809C540.224 75.1051 540.236 75.8457 540.139 76.6025L539.992 77.4937H530.434C530.296 78.2342 530.271 78.9219 530.361 79.5566C530.45 80.1914 530.666 80.7855 531.008 81.3389C531.301 81.8271 531.7 82.2218 532.204 82.5229C532.717 82.8241 533.315 82.9827 533.999 82.999C534.804 83.0153 535.549 82.8607 536.232 82.5352C536.916 82.2096 537.539 81.7702 538.1 81.2168L538.955 81.937C538.336 82.6857 537.583 83.2594 536.696 83.6582C535.817 84.057 534.89 84.2523 533.913 84.2441ZM535.732 71.8052C535.081 71.7889 534.483 71.911 533.938 72.1714C533.4 72.4237 532.924 72.7573 532.509 73.1724C532.078 73.5874 531.708 74.0635 531.398 74.6006C531.089 75.1377 530.833 75.687 530.629 76.2485L538.735 76.2607L538.771 76.0654C538.869 75.5446 538.873 75.0319 538.784 74.5273C538.694 74.0146 538.519 73.5589 538.259 73.1602C537.99 72.7614 537.644 72.4399 537.221 72.1958C536.798 71.9435 536.302 71.8133 535.732 71.8052ZM555.85 72.0371H550.381L548.306 84H546.865L548.928 72.0371H543.667L543.862 70.792H556.045L555.85 72.0371ZM580.924 84H579.496L580.521 78.3848C579.903 78.6126 579.272 78.7876 578.629 78.9097C577.986 79.0317 577.331 79.0928 576.664 79.0928C575.882 79.0928 575.191 78.9829 574.588 78.7632C573.994 78.5353 573.506 78.2098 573.124 77.7866C572.741 77.3716 572.468 76.8589 572.306 76.2485C572.151 75.63 572.127 74.9261 572.232 74.1367L572.782 70.792H574.21L573.648 74.1489C573.567 74.7267 573.567 75.2435 573.648 75.6992C573.738 76.1468 573.913 76.5334 574.173 76.8589C574.426 77.1763 574.763 77.4204 575.187 77.5913C575.61 77.7541 576.118 77.8354 576.712 77.8354C577.38 77.8354 578.043 77.7826 578.702 77.6768C579.361 77.571 580.008 77.4041 580.643 77.1763L581.778 70.792H583.207L580.924 84ZM590.604 84.2441C589.693 84.236 588.896 84.0366 588.212 83.646C587.536 83.2554 586.991 82.7467 586.576 82.1201C586.186 81.5423 585.905 80.875 585.734 80.1182C585.571 79.3613 585.539 78.5841 585.636 77.7866L585.709 77.2495C585.791 76.6961 585.929 76.1468 586.125 75.6016C586.32 75.0482 586.568 74.5192 586.869 74.0146C587.17 73.5182 587.516 73.0584 587.907 72.6353C588.297 72.2039 588.729 71.8337 589.201 71.5244C589.673 71.2152 590.181 70.9751 590.727 70.8042C591.28 70.6252 591.862 70.5397 592.472 70.5479C593.319 70.556 594.039 70.735 594.633 71.085C595.227 71.4268 595.707 71.8825 596.073 72.4521C596.431 73.0137 596.671 73.6566 596.793 74.3809C596.916 75.1051 596.928 75.8457 596.83 76.6025L596.684 77.4937H587.125C586.987 78.2342 586.963 78.9219 587.052 79.5566C587.142 80.1914 587.357 80.7855 587.699 81.3389C587.992 81.8271 588.391 82.2218 588.896 82.5229C589.408 82.8241 590.006 82.9827 590.69 82.999C591.496 83.0153 592.24 82.8607 592.924 82.5352C593.607 82.2096 594.23 81.7702 594.792 81.2168L595.646 81.937C595.028 82.6857 594.275 83.2594 593.388 83.6582C592.509 84.057 591.581 84.2523 590.604 84.2441ZM592.423 71.8052C591.772 71.7889 591.174 71.911 590.629 72.1714C590.092 72.4237 589.616 72.7573 589.201 73.1724C588.769 73.5874 588.399 74.0635 588.09 74.6006C587.781 75.1377 587.524 75.687 587.321 76.2485L595.426 76.2607L595.463 76.0654C595.561 75.5446 595.565 75.0319 595.475 74.5273C595.386 74.0146 595.211 73.5589 594.95 73.1602C594.682 72.7614 594.336 72.4399 593.913 72.1958C593.489 71.9435 592.993 71.8133 592.423 71.8052ZM610.722 77.4937C610.641 78.0063 610.523 78.5272 610.368 79.0562C610.222 79.577 610.03 80.0775 609.794 80.5576C609.542 81.111 609.229 81.6278 608.854 82.1079C608.488 82.5881 608.069 82.9909 607.597 83.3164C607.182 83.6094 606.726 83.8372 606.23 84C605.742 84.1709 605.209 84.2523 604.631 84.2441C604.224 84.2441 603.829 84.1953 603.447 84.0977C603.064 84 602.706 83.8576 602.373 83.6704C602.104 83.5158 601.852 83.3327 601.616 83.1211C601.388 82.9095 601.188 82.6654 601.018 82.3887L599.809 89.0781H598.393L601.555 70.792H602.873L602.543 72.6108C602.779 72.3341 603.036 72.0778 603.312 71.8418C603.589 71.5977 603.882 71.3901 604.191 71.2192C604.574 70.9995 604.977 70.8327 605.4 70.7188C605.823 70.6048 606.267 70.5479 606.73 70.5479C607.333 70.556 607.862 70.6577 608.317 70.853C608.773 71.0483 609.16 71.3088 609.477 71.6343C609.794 71.9679 610.051 72.3545 610.246 72.7939C610.45 73.2334 610.6 73.6973 610.698 74.1855C610.787 74.682 610.832 75.1906 610.832 75.7114C610.84 76.2323 610.812 76.7409 610.747 77.2373L610.722 77.4937ZM609.318 77.2373C609.375 76.8141 609.404 76.3747 609.404 75.9189C609.412 75.4551 609.375 75.0075 609.294 74.5762C609.221 74.21 609.119 73.8722 608.989 73.563C608.859 73.2456 608.688 72.9648 608.476 72.7207C608.24 72.4521 607.947 72.2406 607.597 72.0859C607.247 71.9232 606.832 71.8377 606.352 71.8296C605.904 71.8296 605.477 71.8988 605.07 72.0371C604.672 72.1673 604.301 72.3545 603.959 72.5986C603.642 72.8184 603.349 73.0747 603.081 73.3677C602.82 73.6606 602.588 73.974 602.385 74.3076L601.25 80.7651C601.355 81.1232 601.506 81.4406 601.701 81.7173C601.905 81.9858 602.141 82.2137 602.409 82.4009C602.678 82.5962 602.975 82.7427 603.3 82.8403C603.634 82.938 603.988 82.9909 604.362 82.999C604.851 83.0072 605.298 82.938 605.705 82.7915C606.12 82.645 606.494 82.4416 606.828 82.1812C607.194 81.9126 607.516 81.5911 607.792 81.2168C608.069 80.8343 608.309 80.4315 608.513 80.0083C608.7 79.6095 608.859 79.1945 608.989 78.7632C609.119 78.3319 609.217 77.9087 609.282 77.4937L609.318 77.2373ZM623.442 84H622.002L623.052 77.9453H615.825L614.775 84H613.347L615.63 70.792H617.058L616.033 76.7002H623.259L624.285 70.792H625.725L623.442 84ZM630.01 75.8213H632.049C632.618 75.8457 633.119 75.9637 633.55 76.1753C633.99 76.3869 634.352 76.6717 634.637 77.0298C634.922 77.396 635.125 77.8192 635.247 78.2993C635.369 78.7713 635.402 79.284 635.345 79.8374C635.271 80.4315 635.109 80.9849 634.856 81.4976C634.612 82.0021 634.291 82.4375 633.892 82.8037C633.501 83.1781 633.042 83.471 632.513 83.6826C631.992 83.8861 631.43 83.9919 630.828 84H627.227L629.522 70.792H630.877L630.01 75.8213ZM637.933 84H636.541L638.824 70.792H640.228L637.933 84ZM629.839 77.0542L628.838 82.7549H630.84C631.28 82.7386 631.674 82.6491 632.024 82.4863C632.382 82.3236 632.696 82.1038 632.964 81.8271C633.2 81.5749 633.396 81.2819 633.55 80.9482C633.713 80.6146 633.827 80.2565 633.892 79.874C633.949 79.5241 633.957 79.1864 633.917 78.8608C633.876 78.5272 633.782 78.2301 633.636 77.9697C633.481 77.7093 633.27 77.4977 633.001 77.335C632.732 77.1722 632.407 77.0827 632.024 77.0664L629.839 77.0542ZM646.917 81.9736L652.447 70.8042L654.181 70.792L651.91 84H650.506L652.191 74.2588L647.137 84H646.136L644.415 73.7583L642.633 84H641.229L643.512 70.792H645.294L646.917 81.9736ZM676.508 72.1714L672.15 70.8408L672.773 69.4858L677.033 71.2314L677.68 66.2266H679.096L678.095 71.1948L682.746 69.437L683.002 70.8896L678.168 72.3057L680.769 76.2363L679.536 77.0664L677.29 72.8916L673.872 77.0054L672.785 76.1265L676.508 72.1714ZM686.396 85.5137H684.993L695.527 66.2388H696.919L686.396 85.5137ZM347.957 118.514H346.553L357.088 99.2388H358.479L347.957 118.514ZM366.415 105.171L362.057 103.841L362.679 102.486L366.939 104.231L367.586 99.2266H369.002L368.001 104.195L372.652 102.437L372.909 103.89L368.075 105.306L370.675 109.236L369.442 110.066L367.196 105.892L363.778 110.005L362.691 109.126L366.415 105.171ZM398.227 109.773C398.064 109.57 397.865 109.399 397.629 109.261C397.401 109.114 397.153 108.996 396.884 108.907C396.575 108.801 396.245 108.724 395.896 108.675C395.546 108.618 395.188 108.585 394.821 108.577L392.539 108.565L392.758 107.308H394.846C395.424 107.308 395.997 107.243 396.567 107.112C397.145 106.982 397.67 106.779 398.142 106.502C398.614 106.233 399.016 105.879 399.35 105.44C399.684 104.992 399.899 104.447 399.997 103.804C400.095 103.194 400.05 102.665 399.863 102.217C399.684 101.77 399.411 101.395 399.045 101.094C398.679 100.801 398.243 100.586 397.739 100.447C397.234 100.301 396.709 100.228 396.164 100.228C395.586 100.219 395.025 100.301 394.479 100.472C393.942 100.634 393.454 100.87 393.015 101.18C392.567 101.489 392.181 101.871 391.855 102.327C391.538 102.775 391.31 103.287 391.171 103.865H389.743C389.873 103.092 390.142 102.404 390.549 101.802C390.956 101.192 391.452 100.679 392.038 100.264C392.624 99.841 393.275 99.5236 393.991 99.312C394.715 99.0923 395.456 98.9824 396.213 98.9824C396.945 98.9906 397.649 99.0964 398.325 99.2998C399 99.4951 399.586 99.7962 400.083 100.203C400.579 100.602 400.953 101.106 401.206 101.717C401.458 102.327 401.531 103.039 401.425 103.853C401.36 104.39 401.21 104.874 400.974 105.306C400.738 105.729 400.445 106.107 400.095 106.441C399.737 106.783 399.334 107.076 398.886 107.32C398.447 107.564 397.991 107.767 397.519 107.93C397.893 108.052 398.235 108.207 398.544 108.394C398.854 108.581 399.118 108.801 399.338 109.053C399.704 109.436 399.965 109.887 400.119 110.408C400.282 110.921 400.327 111.491 400.253 112.117C400.148 112.98 399.875 113.737 399.436 114.388C398.996 115.031 398.455 115.564 397.812 115.987C397.169 116.418 396.453 116.74 395.664 116.951C394.874 117.163 394.081 117.264 393.283 117.256C392.502 117.248 391.782 117.126 391.123 116.89C390.463 116.646 389.898 116.3 389.426 115.853C388.946 115.405 388.579 114.864 388.327 114.229C388.083 113.594 387.989 112.874 388.046 112.068H389.462C389.414 112.671 389.475 113.212 389.646 113.692C389.825 114.172 390.089 114.583 390.439 114.925C390.789 115.267 391.208 115.531 391.696 115.718C392.193 115.905 392.734 116.003 393.32 116.011C393.938 116.019 394.553 115.95 395.163 115.804C395.773 115.649 396.331 115.409 396.835 115.083C397.34 114.766 397.767 114.367 398.117 113.887C398.475 113.399 398.707 112.825 398.813 112.166C398.903 111.637 398.89 111.177 398.776 110.787C398.671 110.388 398.487 110.05 398.227 109.773ZM411.387 117C411.346 116.666 411.334 116.341 411.35 116.023C411.375 115.698 411.415 115.372 411.472 115.047C411.195 115.34 410.898 115.612 410.581 115.865C410.264 116.109 409.93 116.32 409.58 116.5C409.124 116.744 408.644 116.931 408.14 117.061C407.635 117.191 407.114 117.252 406.577 117.244C406.048 117.236 405.544 117.146 405.063 116.976C404.583 116.797 404.176 116.548 403.843 116.231C403.493 115.914 403.224 115.531 403.037 115.083C402.858 114.628 402.797 114.115 402.854 113.545C402.911 113 403.049 112.516 403.269 112.093C403.489 111.67 403.77 111.299 404.111 110.982C404.445 110.673 404.823 110.412 405.247 110.201C405.67 109.989 406.117 109.814 406.589 109.676C407.061 109.546 407.542 109.452 408.03 109.395C408.526 109.338 409.01 109.31 409.482 109.31H412.351L412.595 107.82C412.66 107.332 412.628 106.901 412.498 106.526C412.375 106.152 412.18 105.835 411.912 105.574C411.643 105.314 411.313 105.118 410.923 104.988C410.532 104.85 410.105 104.781 409.641 104.781C409.202 104.773 408.77 104.826 408.347 104.939C407.924 105.045 407.533 105.208 407.175 105.428C406.817 105.656 406.504 105.936 406.235 106.27C405.975 106.596 405.784 106.982 405.662 107.43L404.233 107.417C404.347 106.783 404.583 106.225 404.941 105.745C405.308 105.257 405.747 104.85 406.26 104.524C406.764 104.199 407.318 103.955 407.92 103.792C408.53 103.621 409.141 103.54 409.751 103.548C410.394 103.548 410.992 103.646 411.545 103.841C412.099 104.028 412.575 104.305 412.974 104.671C413.364 105.045 413.653 105.501 413.84 106.038C414.036 106.567 414.093 107.169 414.011 107.845L412.925 114.229C412.852 114.668 412.815 115.108 412.815 115.547C412.815 115.979 412.843 116.41 412.9 116.841L412.876 117H411.387ZM406.785 115.95C407.281 115.958 407.765 115.901 408.237 115.779C408.709 115.657 409.153 115.478 409.568 115.242C409.967 115.014 410.341 114.742 410.691 114.424C411.049 114.099 411.366 113.741 411.643 113.35L412.156 110.445L409.678 110.433C409.263 110.433 408.819 110.461 408.347 110.518C407.875 110.567 407.419 110.66 406.98 110.799C406.663 110.888 406.357 111.002 406.064 111.141C405.78 111.271 405.519 111.438 405.283 111.641C405.031 111.861 404.815 112.117 404.636 112.41C404.465 112.695 404.351 113.029 404.294 113.411C404.237 113.81 404.266 114.164 404.38 114.473C404.494 114.782 404.669 115.043 404.905 115.254C405.133 115.474 405.409 115.645 405.735 115.767C406.069 115.881 406.418 115.942 406.785 115.95ZM416.697 115.767C417.072 115.556 417.409 115.279 417.71 114.937C418.02 114.595 418.296 114.217 418.541 113.802C418.768 113.403 418.972 112.98 419.151 112.532C419.33 112.085 419.489 111.629 419.627 111.165C419.757 110.709 419.875 110.258 419.981 109.81C420.087 109.362 420.18 108.947 420.262 108.565L421.299 103.792H428.868L426.805 115.755H428.135L427.146 120.882H425.816L426.487 117H416.88L416.209 120.882H414.964L415.733 115.755L416.697 115.767ZM421.702 108.565C421.564 109.208 421.409 109.851 421.238 110.494C421.076 111.137 420.876 111.767 420.64 112.386C420.396 113.004 420.115 113.598 419.798 114.168C419.48 114.738 419.098 115.275 418.65 115.779L425.376 115.755L427.208 105.159H422.435L421.702 108.565ZM439.732 117C439.692 116.666 439.68 116.341 439.696 116.023C439.72 115.698 439.761 115.372 439.818 115.047C439.541 115.34 439.244 115.612 438.927 115.865C438.609 116.109 438.276 116.32 437.926 116.5C437.47 116.744 436.99 116.931 436.485 117.061C435.981 117.191 435.46 117.252 434.923 117.244C434.394 117.236 433.889 117.146 433.409 116.976C432.929 116.797 432.522 116.548 432.188 116.231C431.839 115.914 431.57 115.531 431.383 115.083C431.204 114.628 431.143 114.115 431.2 113.545C431.257 113 431.395 112.516 431.615 112.093C431.834 111.67 432.115 111.299 432.457 110.982C432.791 110.673 433.169 110.412 433.592 110.201C434.015 109.989 434.463 109.814 434.935 109.676C435.407 109.546 435.887 109.452 436.375 109.395C436.872 109.338 437.356 109.31 437.828 109.31H440.697L440.941 107.82C441.006 107.332 440.973 106.901 440.843 106.526C440.721 106.152 440.526 105.835 440.257 105.574C439.989 105.314 439.659 105.118 439.269 104.988C438.878 104.85 438.451 104.781 437.987 104.781C437.547 104.773 437.116 104.826 436.693 104.939C436.27 105.045 435.879 105.208 435.521 105.428C435.163 105.656 434.85 105.936 434.581 106.27C434.321 106.596 434.129 106.982 434.007 107.43L432.579 107.417C432.693 106.783 432.929 106.225 433.287 105.745C433.653 105.257 434.093 104.85 434.605 104.524C435.11 104.199 435.663 103.955 436.266 103.792C436.876 103.621 437.486 103.54 438.097 103.548C438.74 103.548 439.338 103.646 439.891 103.841C440.444 104.028 440.921 104.305 441.319 104.671C441.71 105.045 441.999 105.501 442.186 106.038C442.381 106.567 442.438 107.169 442.357 107.845L441.271 114.229C441.197 114.668 441.161 115.108 441.161 115.547C441.161 115.979 441.189 116.41 441.246 116.841L441.222 117H439.732ZM435.13 115.95C435.627 115.958 436.111 115.901 436.583 115.779C437.055 115.657 437.499 115.478 437.914 115.242C438.312 115.014 438.687 114.742 439.037 114.424C439.395 114.099 439.712 113.741 439.989 113.35L440.501 110.445L438.023 110.433C437.608 110.433 437.165 110.461 436.693 110.518C436.221 110.567 435.765 110.66 435.326 110.799C435.008 110.888 434.703 111.002 434.41 111.141C434.125 111.271 433.865 111.438 433.629 111.641C433.377 111.861 433.161 112.117 432.982 112.41C432.811 112.695 432.697 113.029 432.64 113.411C432.583 113.81 432.612 114.164 432.726 114.473C432.84 114.782 433.014 115.043 433.25 115.254C433.478 115.474 433.755 115.645 434.081 115.767C434.414 115.881 434.764 115.942 435.13 115.95ZM450.585 117.244C449.674 117.236 448.876 117.037 448.192 116.646C447.517 116.255 446.972 115.747 446.557 115.12C446.166 114.542 445.885 113.875 445.714 113.118C445.552 112.361 445.519 111.584 445.617 110.787L445.69 110.25C445.771 109.696 445.91 109.147 446.105 108.602C446.3 108.048 446.549 107.519 446.85 107.015C447.151 106.518 447.497 106.058 447.887 105.635C448.278 105.204 448.709 104.834 449.181 104.524C449.653 104.215 450.162 103.975 450.707 103.804C451.26 103.625 451.842 103.54 452.453 103.548C453.299 103.556 454.019 103.735 454.613 104.085C455.207 104.427 455.688 104.882 456.054 105.452C456.412 106.014 456.652 106.657 456.774 107.381C456.896 108.105 456.908 108.846 456.811 109.603L456.664 110.494H447.106C446.968 111.234 446.943 111.922 447.033 112.557C447.122 113.191 447.338 113.785 447.68 114.339C447.973 114.827 448.371 115.222 448.876 115.523C449.389 115.824 449.987 115.983 450.67 115.999C451.476 116.015 452.221 115.861 452.904 115.535C453.588 115.21 454.21 114.77 454.772 114.217L455.626 114.937C455.008 115.686 454.255 116.259 453.368 116.658C452.489 117.057 451.562 117.252 450.585 117.244ZM452.404 104.805C451.753 104.789 451.155 104.911 450.609 105.171C450.072 105.424 449.596 105.757 449.181 106.172C448.75 106.587 448.38 107.063 448.07 107.601C447.761 108.138 447.505 108.687 447.301 109.249L455.407 109.261L455.443 109.065C455.541 108.545 455.545 108.032 455.456 107.527C455.366 107.015 455.191 106.559 454.931 106.16C454.662 105.761 454.316 105.44 453.893 105.196C453.47 104.944 452.973 104.813 452.404 104.805ZM449.474 99.8125C449.49 99.5439 449.596 99.312 449.792 99.1167C449.987 98.9214 450.223 98.8237 450.5 98.8237C450.776 98.8156 451.004 98.9092 451.183 99.1045C451.37 99.2998 451.456 99.5317 451.439 99.8003C451.423 100.069 451.313 100.301 451.11 100.496C450.915 100.683 450.683 100.781 450.414 100.789C450.137 100.789 449.91 100.695 449.73 100.508C449.551 100.321 449.466 100.089 449.474 99.8125ZM454.65 99.8247C454.666 99.5562 454.772 99.3242 454.967 99.1289C455.171 98.9336 455.407 98.8319 455.675 98.8237C455.952 98.8237 456.18 98.9214 456.359 99.1167C456.546 99.3039 456.636 99.5358 456.627 99.8125C456.611 100.081 456.501 100.313 456.298 100.508C456.094 100.695 455.858 100.793 455.59 100.801C455.321 100.801 455.093 100.708 454.906 100.521C454.727 100.333 454.642 100.101 454.65 99.8247ZM472.521 105.037H467.053L464.978 117H463.537L465.6 105.037H460.339L460.534 103.792H472.717L472.521 105.037ZM499.048 110.494C498.967 111.006 498.849 111.527 498.694 112.056C498.548 112.577 498.357 113.077 498.121 113.558C497.868 114.111 497.555 114.628 497.181 115.108C496.814 115.588 496.395 115.991 495.923 116.316C495.508 116.609 495.053 116.837 494.556 117C494.068 117.171 493.535 117.252 492.957 117.244C492.55 117.244 492.155 117.195 491.773 117.098C491.39 117 491.032 116.858 490.699 116.67C490.43 116.516 490.178 116.333 489.942 116.121C489.714 115.91 489.515 115.665 489.344 115.389L488.135 122.078H486.719L489.881 103.792H491.199L490.87 105.611C491.106 105.334 491.362 105.078 491.639 104.842C491.915 104.598 492.208 104.39 492.518 104.219C492.9 104 493.303 103.833 493.726 103.719C494.149 103.605 494.593 103.548 495.057 103.548C495.659 103.556 496.188 103.658 496.644 103.853C497.099 104.048 497.486 104.309 497.803 104.634C498.121 104.968 498.377 105.354 498.572 105.794C498.776 106.233 498.926 106.697 499.024 107.186C499.113 107.682 499.158 108.191 499.158 108.711C499.166 109.232 499.138 109.741 499.073 110.237L499.048 110.494ZM497.645 110.237C497.701 109.814 497.73 109.375 497.73 108.919C497.738 108.455 497.701 108.007 497.62 107.576C497.547 107.21 497.445 106.872 497.315 106.563C497.185 106.246 497.014 105.965 496.802 105.721C496.566 105.452 496.273 105.241 495.923 105.086C495.573 104.923 495.158 104.838 494.678 104.83C494.231 104.83 493.803 104.899 493.396 105.037C492.998 105.167 492.627 105.354 492.286 105.599C491.968 105.818 491.675 106.075 491.407 106.368C491.146 106.661 490.914 106.974 490.711 107.308L489.576 113.765C489.681 114.123 489.832 114.441 490.027 114.717C490.231 114.986 490.467 115.214 490.735 115.401C491.004 115.596 491.301 115.743 491.626 115.84C491.96 115.938 492.314 115.991 492.688 115.999C493.177 116.007 493.624 115.938 494.031 115.792C494.446 115.645 494.821 115.442 495.154 115.181C495.521 114.913 495.842 114.591 496.119 114.217C496.395 113.834 496.635 113.431 496.839 113.008C497.026 112.61 497.185 112.194 497.315 111.763C497.445 111.332 497.543 110.909 497.608 110.494L497.645 110.237ZM510.597 117C510.556 116.666 510.544 116.341 510.56 116.023C510.584 115.698 510.625 115.372 510.682 115.047C510.405 115.34 510.108 115.612 509.791 115.865C509.474 116.109 509.14 116.32 508.79 116.5C508.334 116.744 507.854 116.931 507.35 117.061C506.845 117.191 506.324 117.252 505.787 117.244C505.258 117.236 504.754 117.146 504.273 116.976C503.793 116.797 503.386 116.548 503.053 116.231C502.703 115.914 502.434 115.531 502.247 115.083C502.068 114.628 502.007 114.115 502.064 113.545C502.121 113 502.259 112.516 502.479 112.093C502.699 111.67 502.979 111.299 503.321 110.982C503.655 110.673 504.033 110.412 504.457 110.201C504.88 109.989 505.327 109.814 505.799 109.676C506.271 109.546 506.751 109.452 507.24 109.395C507.736 109.338 508.22 109.31 508.692 109.31H511.561L511.805 107.82C511.87 107.332 511.838 106.901 511.708 106.526C511.585 106.152 511.39 105.835 511.122 105.574C510.853 105.314 510.523 105.118 510.133 104.988C509.742 104.85 509.315 104.781 508.851 104.781C508.412 104.773 507.98 104.826 507.557 104.939C507.134 105.045 506.743 105.208 506.385 105.428C506.027 105.656 505.714 105.936 505.445 106.27C505.185 106.596 504.994 106.982 504.872 107.43L503.443 107.417C503.557 106.783 503.793 106.225 504.151 105.745C504.518 105.257 504.957 104.85 505.47 104.524C505.974 104.199 506.528 103.955 507.13 103.792C507.74 103.621 508.351 103.54 508.961 103.548C509.604 103.548 510.202 103.646 510.755 103.841C511.309 104.028 511.785 104.305 512.184 104.671C512.574 105.045 512.863 105.501 513.05 106.038C513.246 106.567 513.303 107.169 513.221 107.845L512.135 114.229C512.062 114.668 512.025 115.108 512.025 115.547C512.025 115.979 512.053 116.41 512.11 116.841L512.086 117H510.597ZM505.995 115.95C506.491 115.958 506.975 115.901 507.447 115.779C507.919 115.657 508.363 115.478 508.778 115.242C509.177 115.014 509.551 114.742 509.901 114.424C510.259 114.099 510.576 113.741 510.853 113.35L511.366 110.445L508.888 110.433C508.473 110.433 508.029 110.461 507.557 110.518C507.085 110.567 506.629 110.66 506.19 110.799C505.873 110.888 505.567 111.002 505.274 111.141C504.99 111.271 504.729 111.438 504.493 111.641C504.241 111.861 504.025 112.117 503.846 112.41C503.675 112.695 503.561 113.029 503.504 113.411C503.447 113.81 503.476 114.164 503.59 114.473C503.704 114.782 503.879 115.043 504.115 115.254C504.343 115.474 504.619 115.645 504.945 115.767C505.278 115.881 505.628 115.942 505.995 115.95ZM522.304 110.909L519.777 110.896L519.984 109.615L522.328 109.627C522.751 109.619 523.195 109.586 523.659 109.529C524.131 109.464 524.57 109.346 524.977 109.175C525.384 109.004 525.734 108.764 526.027 108.455C526.328 108.146 526.523 107.743 526.613 107.247C526.662 106.937 526.653 106.665 526.588 106.429C526.523 106.193 526.417 105.985 526.271 105.806C526.133 105.652 525.97 105.517 525.783 105.403C525.596 105.289 525.392 105.196 525.172 105.123C524.871 105 524.55 104.915 524.208 104.866C523.874 104.817 523.561 104.793 523.268 104.793C522.829 104.785 522.373 104.83 521.901 104.927C521.429 105.017 520.985 105.163 520.57 105.367C520.155 105.57 519.793 105.835 519.484 106.16C519.175 106.486 518.959 106.88 518.837 107.344L517.372 107.356C517.51 106.681 517.779 106.103 518.178 105.623C518.576 105.143 519.049 104.748 519.594 104.439C520.147 104.13 520.745 103.906 521.388 103.768C522.031 103.629 522.67 103.556 523.305 103.548C523.679 103.556 524.062 103.589 524.452 103.646C524.851 103.694 525.237 103.78 525.612 103.902C525.978 104.024 526.32 104.183 526.637 104.378C526.963 104.565 527.239 104.793 527.467 105.062C527.695 105.338 527.862 105.66 527.968 106.026C528.082 106.384 528.11 106.791 528.053 107.247C528.004 107.662 527.882 108.032 527.687 108.357C527.492 108.675 527.252 108.956 526.967 109.2C526.674 109.444 526.348 109.651 525.99 109.822C525.64 109.993 525.286 110.14 524.928 110.262C525.205 110.343 525.465 110.445 525.709 110.567C525.962 110.689 526.181 110.84 526.369 111.019C526.678 111.287 526.914 111.617 527.077 112.007C527.239 112.39 527.296 112.829 527.248 113.326C527.191 113.822 527.056 114.266 526.845 114.656C526.641 115.047 526.381 115.385 526.063 115.669C525.746 115.954 525.392 116.198 525.001 116.402C524.619 116.605 524.216 116.764 523.793 116.878C523.362 117 522.922 117.09 522.475 117.146C522.035 117.203 521.608 117.232 521.193 117.232C520.558 117.232 519.931 117.155 519.313 117C518.703 116.845 518.157 116.605 517.677 116.28C517.197 115.954 516.806 115.539 516.505 115.035C516.212 114.53 516.074 113.92 516.09 113.204L517.531 113.216C517.482 113.729 517.567 114.16 517.787 114.51C518.015 114.86 518.312 115.14 518.678 115.352C519.036 115.572 519.439 115.735 519.887 115.84C520.342 115.938 520.782 115.991 521.205 115.999C521.653 116.007 522.125 115.971 522.621 115.889C523.126 115.808 523.602 115.661 524.049 115.45C524.481 115.246 524.859 114.974 525.185 114.632C525.51 114.29 525.718 113.863 525.807 113.35C525.872 112.927 525.844 112.577 525.722 112.3C525.6 112.015 525.417 111.784 525.172 111.604C524.993 111.458 524.786 111.34 524.55 111.25C524.322 111.161 524.082 111.092 523.83 111.043C523.577 110.994 523.317 110.962 523.048 110.945C522.788 110.921 522.54 110.909 522.304 110.909ZM535.244 114.974L540.773 103.804L542.507 103.792L540.236 117H538.833L540.517 107.259L535.463 117H534.462L532.741 106.758L530.959 117H529.555L531.838 103.792H533.62L535.244 114.974ZM549.795 117.244C548.883 117.236 548.086 117.037 547.402 116.646C546.727 116.255 546.182 115.747 545.767 115.12C545.376 114.542 545.095 113.875 544.924 113.118C544.762 112.361 544.729 111.584 544.827 110.787L544.9 110.25C544.981 109.696 545.12 109.147 545.315 108.602C545.51 108.048 545.758 107.519 546.06 107.015C546.361 106.518 546.707 106.058 547.097 105.635C547.488 105.204 547.919 104.834 548.391 104.524C548.863 104.215 549.372 103.975 549.917 103.804C550.47 103.625 551.052 103.54 551.663 103.548C552.509 103.556 553.229 103.735 553.823 104.085C554.417 104.427 554.897 104.882 555.264 105.452C555.622 106.014 555.862 106.657 555.984 107.381C556.106 108.105 556.118 108.846 556.021 109.603L555.874 110.494H546.316C546.178 111.234 546.153 111.922 546.243 112.557C546.332 113.191 546.548 113.785 546.89 114.339C547.183 114.827 547.581 115.222 548.086 115.523C548.599 115.824 549.197 115.983 549.88 115.999C550.686 116.015 551.431 115.861 552.114 115.535C552.798 115.21 553.42 114.77 553.982 114.217L554.836 114.937C554.218 115.686 553.465 116.259 552.578 116.658C551.699 117.057 550.771 117.252 549.795 117.244ZM551.614 104.805C550.963 104.789 550.365 104.911 549.819 105.171C549.282 105.424 548.806 105.757 548.391 106.172C547.96 106.587 547.59 107.063 547.28 107.601C546.971 108.138 546.715 108.687 546.511 109.249L554.617 109.261L554.653 109.065C554.751 108.545 554.755 108.032 554.666 107.527C554.576 107.015 554.401 106.559 554.141 106.16C553.872 105.761 553.526 105.44 553.103 105.196C552.68 104.944 552.183 104.813 551.614 104.805ZM569.913 110.494C569.831 111.006 569.713 111.527 569.559 112.056C569.412 112.577 569.221 113.077 568.985 113.558C568.733 114.111 568.419 114.628 568.045 115.108C567.679 115.588 567.26 115.991 566.788 116.316C566.373 116.609 565.917 116.837 565.42 117C564.932 117.171 564.399 117.252 563.821 117.244C563.414 117.244 563.02 117.195 562.637 117.098C562.255 117 561.897 116.858 561.563 116.67C561.294 116.516 561.042 116.333 560.806 116.121C560.578 115.91 560.379 115.665 560.208 115.389L559 122.078H557.583L560.745 103.792H562.063L561.734 105.611C561.97 105.334 562.226 105.078 562.503 104.842C562.78 104.598 563.073 104.39 563.382 104.219C563.764 104 564.167 103.833 564.59 103.719C565.014 103.605 565.457 103.548 565.921 103.548C566.523 103.556 567.052 103.658 567.508 103.853C567.964 104.048 568.35 104.309 568.667 104.634C568.985 104.968 569.241 105.354 569.437 105.794C569.64 106.233 569.791 106.697 569.888 107.186C569.978 107.682 570.022 108.191 570.022 108.711C570.031 109.232 570.002 109.741 569.937 110.237L569.913 110.494ZM568.509 110.237C568.566 109.814 568.594 109.375 568.594 108.919C568.602 108.455 568.566 108.007 568.484 107.576C568.411 107.21 568.309 106.872 568.179 106.563C568.049 106.246 567.878 105.965 567.667 105.721C567.431 105.452 567.138 105.241 566.788 105.086C566.438 104.923 566.023 104.838 565.542 104.83C565.095 104.83 564.668 104.899 564.261 105.037C563.862 105.167 563.492 105.354 563.15 105.599C562.833 105.818 562.54 106.075 562.271 106.368C562.011 106.661 561.779 106.974 561.575 107.308L560.44 113.765C560.546 114.123 560.696 114.441 560.892 114.717C561.095 114.986 561.331 115.214 561.6 115.401C561.868 115.596 562.165 115.743 562.491 115.84C562.824 115.938 563.178 115.991 563.553 115.999C564.041 116.007 564.489 115.938 564.896 115.792C565.311 115.645 565.685 115.442 566.019 115.181C566.385 114.913 566.706 114.591 566.983 114.217C567.26 113.834 567.5 113.431 567.703 113.008C567.89 112.61 568.049 112.194 568.179 111.763C568.309 111.332 568.407 110.909 568.472 110.494L568.509 110.237ZM589.787 103.792L587.724 115.755H591.288L593.363 103.792H594.767L592.692 115.755H596.22L598.307 103.792H599.699L597.416 117H586.112L588.395 103.792H589.787ZM612.431 110.494C612.35 111.006 612.232 111.527 612.077 112.056C611.931 112.577 611.739 113.077 611.503 113.558C611.251 114.111 610.938 114.628 610.563 115.108C610.197 115.588 609.778 115.991 609.306 116.316C608.891 116.609 608.435 116.837 607.939 117C607.451 117.171 606.918 117.252 606.34 117.244C605.933 117.244 605.538 117.195 605.156 117.098C604.773 117 604.415 116.858 604.082 116.67C603.813 116.516 603.561 116.333 603.325 116.121C603.097 115.91 602.897 115.665 602.727 115.389L601.518 122.078H600.102L603.264 103.792H604.582L604.252 105.611C604.488 105.334 604.745 105.078 605.021 104.842C605.298 104.598 605.591 104.39 605.9 104.219C606.283 104 606.686 103.833 607.109 103.719C607.532 103.605 607.976 103.548 608.439 103.548C609.042 103.556 609.571 103.658 610.026 103.853C610.482 104.048 610.869 104.309 611.186 104.634C611.503 104.968 611.76 105.354 611.955 105.794C612.159 106.233 612.309 106.697 612.407 107.186C612.496 107.682 612.541 108.191 612.541 108.711C612.549 109.232 612.521 109.741 612.456 110.237L612.431 110.494ZM611.027 110.237C611.084 109.814 611.113 109.375 611.113 108.919C611.121 108.455 611.084 108.007 611.003 107.576C610.93 107.21 610.828 106.872 610.698 106.563C610.568 106.246 610.397 105.965 610.185 105.721C609.949 105.452 609.656 105.241 609.306 105.086C608.956 104.923 608.541 104.838 608.061 104.83C607.613 104.83 607.186 104.899 606.779 105.037C606.381 105.167 606.01 105.354 605.668 105.599C605.351 105.818 605.058 106.075 604.79 106.368C604.529 106.661 604.297 106.974 604.094 107.308L602.958 113.765C603.064 114.123 603.215 114.441 603.41 114.717C603.614 114.986 603.85 115.214 604.118 115.401C604.387 115.596 604.684 115.743 605.009 115.84C605.343 115.938 605.697 115.991 606.071 115.999C606.56 116.007 607.007 115.938 607.414 115.792C607.829 115.645 608.203 115.442 608.537 115.181C608.903 114.913 609.225 114.591 609.501 114.217C609.778 113.834 610.018 113.431 610.222 113.008C610.409 112.61 610.568 112.194 610.698 111.763C610.828 111.332 610.926 110.909 610.991 110.494L611.027 110.237ZM625.945 103.804L627.434 103.792L625.151 117H623.711L625.579 106.221L616.533 117H615.068L617.339 103.792H618.767L616.875 114.62L625.945 103.804ZM629.729 110.237C629.852 109.415 630.075 108.63 630.401 107.881C630.735 107.125 631.162 106.445 631.683 105.843C632.195 105.249 632.798 104.756 633.489 104.366C634.189 103.967 634.97 103.711 635.833 103.597L636.81 98.25H638.226L637.261 103.609C638.059 103.747 638.726 104.032 639.263 104.463C639.808 104.887 640.24 105.399 640.557 106.001C640.866 106.612 641.066 107.279 641.155 108.003C641.253 108.728 641.257 109.456 641.167 110.188L641.106 110.591C640.984 111.413 640.757 112.199 640.423 112.947C640.097 113.696 639.674 114.367 639.153 114.961C638.632 115.556 638.026 116.052 637.334 116.451C636.643 116.841 635.866 117.09 635.003 117.195L634.1 122.078H632.684L633.575 117.171C632.785 117.041 632.118 116.764 631.573 116.341C631.036 115.918 630.608 115.401 630.291 114.791C629.974 114.196 629.766 113.537 629.668 112.813C629.571 112.089 629.571 111.364 629.668 110.64L629.729 110.237ZM635.125 115.938C635.768 115.8 636.346 115.56 636.858 115.218C637.371 114.876 637.819 114.465 638.201 113.985C638.584 113.505 638.897 112.972 639.141 112.386C639.385 111.8 639.56 111.198 639.666 110.579L639.739 110.188C639.821 109.643 639.841 109.09 639.8 108.528C639.76 107.959 639.642 107.43 639.446 106.941C639.243 106.453 638.954 106.026 638.58 105.66C638.205 105.293 637.721 105.041 637.127 104.903L635.125 115.938ZM635.711 104.878C635.068 105.017 634.486 105.261 633.965 105.611C633.453 105.953 633.009 106.36 632.635 106.832C632.252 107.32 631.939 107.857 631.695 108.443C631.451 109.029 631.272 109.631 631.158 110.25L631.097 110.64C631.015 111.185 630.995 111.743 631.036 112.312C631.076 112.874 631.194 113.395 631.39 113.875C631.585 114.363 631.87 114.791 632.244 115.157C632.618 115.515 633.103 115.763 633.697 115.901L635.711 104.878ZM656.769 105.037H651.3L649.225 117H647.784L649.847 105.037H644.586L644.781 103.792H656.964L656.769 105.037ZM666.498 117C666.457 116.666 666.445 116.341 666.461 116.023C666.486 115.698 666.527 115.372 666.583 115.047C666.307 115.34 666.01 115.612 665.692 115.865C665.375 116.109 665.041 116.32 664.691 116.5C664.236 116.744 663.756 116.931 663.251 117.061C662.746 117.191 662.226 117.252 661.688 117.244C661.16 117.236 660.655 117.146 660.175 116.976C659.695 116.797 659.288 116.548 658.954 116.231C658.604 115.914 658.336 115.531 658.148 115.083C657.969 114.628 657.908 114.115 657.965 113.545C658.022 113 658.161 112.516 658.38 112.093C658.6 111.67 658.881 111.299 659.223 110.982C659.556 110.673 659.935 110.412 660.358 110.201C660.781 109.989 661.229 109.814 661.701 109.676C662.173 109.546 662.653 109.452 663.141 109.395C663.638 109.338 664.122 109.31 664.594 109.31H667.462L667.707 107.82C667.772 107.332 667.739 106.901 667.609 106.526C667.487 106.152 667.292 105.835 667.023 105.574C666.754 105.314 666.425 105.118 666.034 104.988C665.644 104.85 665.216 104.781 664.752 104.781C664.313 104.773 663.882 104.826 663.458 104.939C663.035 105.045 662.645 105.208 662.287 105.428C661.929 105.656 661.615 105.936 661.347 106.27C661.086 106.596 660.895 106.982 660.773 107.43L659.345 107.417C659.459 106.783 659.695 106.225 660.053 105.745C660.419 105.257 660.858 104.85 661.371 104.524C661.876 104.199 662.429 103.955 663.031 103.792C663.642 103.621 664.252 103.54 664.862 103.548C665.505 103.548 666.103 103.646 666.657 103.841C667.21 104.028 667.686 104.305 668.085 104.671C668.476 105.045 668.764 105.501 668.952 106.038C669.147 106.567 669.204 107.169 669.123 107.845L668.036 114.229C667.963 114.668 667.926 115.108 667.926 115.547C667.926 115.979 667.955 116.41 668.012 116.841L667.987 117H666.498ZM661.896 115.95C662.392 115.958 662.877 115.901 663.349 115.779C663.821 115.657 664.264 115.478 664.679 115.242C665.078 115.014 665.452 114.742 665.802 114.424C666.16 114.099 666.478 113.741 666.754 113.35L667.267 110.445L664.789 110.433C664.374 110.433 663.931 110.461 663.458 110.518C662.986 110.567 662.531 110.66 662.091 110.799C661.774 110.888 661.469 111.002 661.176 111.141C660.891 111.271 660.631 111.438 660.395 111.641C660.142 111.861 659.927 112.117 659.748 112.41C659.577 112.695 659.463 113.029 659.406 113.411C659.349 113.81 659.377 114.164 659.491 114.473C659.605 114.782 659.78 115.043 660.016 115.254C660.244 115.474 660.521 115.645 660.846 115.767C661.18 115.881 661.53 115.942 661.896 115.95ZM692.488 117H691.06L693.806 101.143L688.667 103.206L688.911 101.778L695.283 99.2388L695.527 99.2266L692.488 117ZM710.982 99.0923L710.835 100.435H710.652C709.912 100.435 709.22 100.525 708.577 100.704C707.934 100.883 707.344 101.131 706.807 101.448C706.262 101.782 705.765 102.177 705.318 102.632C704.87 103.088 704.467 103.593 704.109 104.146C703.784 104.659 703.495 105.208 703.243 105.794C702.999 106.38 702.787 106.982 702.608 107.601C702.885 107.267 703.19 106.962 703.523 106.685C703.857 106.408 704.215 106.172 704.598 105.977C704.988 105.774 705.399 105.615 705.831 105.501C706.27 105.379 706.722 105.322 707.186 105.33C707.983 105.338 708.663 105.513 709.224 105.855C709.794 106.189 710.25 106.628 710.591 107.173C710.933 107.719 711.165 108.337 711.287 109.029C711.417 109.721 711.438 110.42 711.348 111.128C711.259 111.926 711.047 112.703 710.713 113.46C710.388 114.209 709.969 114.864 709.456 115.425C708.935 115.987 708.337 116.434 707.662 116.768C706.994 117.094 706.25 117.252 705.428 117.244C704.541 117.236 703.78 117.041 703.145 116.658C702.51 116.268 701.998 115.763 701.607 115.145C701.216 114.526 700.948 113.83 700.801 113.057C700.663 112.284 700.643 111.503 700.74 110.713L700.972 109.151C701.111 108.272 701.31 107.413 701.57 106.575C701.839 105.729 702.173 104.931 702.571 104.183C702.962 103.442 703.426 102.763 703.963 102.144C704.5 101.526 705.106 100.988 705.782 100.533C706.457 100.085 707.206 99.7352 708.028 99.4829C708.858 99.2306 709.757 99.1004 710.726 99.0923H710.982ZM706.929 106.6C706.465 106.591 705.993 106.665 705.513 106.819C705.041 106.966 704.602 107.173 704.195 107.442C703.78 107.71 703.41 108.032 703.084 108.406C702.767 108.772 702.522 109.175 702.352 109.615L702.181 110.75C702.148 111.051 702.128 111.368 702.12 111.702C702.12 112.036 702.144 112.365 702.193 112.691C702.25 113.049 702.335 113.399 702.449 113.741C702.571 114.074 702.726 114.38 702.913 114.656C703.182 115.055 703.528 115.376 703.951 115.621C704.374 115.865 704.882 115.991 705.477 115.999C706.119 115.999 706.697 115.857 707.21 115.572C707.723 115.287 708.17 114.917 708.553 114.461C708.927 113.997 709.232 113.48 709.468 112.911C709.704 112.333 709.863 111.755 709.944 111.177C710.018 110.648 710.018 110.115 709.944 109.578C709.879 109.033 709.725 108.541 709.48 108.101C709.236 107.662 708.907 107.304 708.492 107.027C708.077 106.75 707.556 106.608 706.929 106.6ZM738.534 117H737.094L739.157 105.062H731.942L729.879 117H728.439L730.734 103.792H740.805L738.534 117ZM753.5 103.804L754.99 103.792L752.707 117H751.267L753.134 106.221L744.089 117H742.624L744.895 103.792H746.323L744.431 114.62L753.5 103.804ZM761.863 110.958H759.47L758.42 117H756.98L759.263 103.792H760.703L759.69 109.639H761.912L768.064 103.792L770.029 103.804L763.145 110.286L768.223 117H766.465L761.863 110.958ZM776.341 116.011C776.829 116.011 777.301 115.942 777.757 115.804C778.213 115.657 778.628 115.446 779.002 115.169C779.368 114.909 779.686 114.587 779.954 114.205C780.223 113.822 780.426 113.399 780.564 112.935L781.932 112.923C781.801 113.574 781.557 114.168 781.199 114.705C780.841 115.242 780.41 115.694 779.905 116.06C779.393 116.443 778.827 116.74 778.208 116.951C777.59 117.155 776.955 117.252 776.304 117.244C775.686 117.244 775.132 117.155 774.644 116.976C774.164 116.788 773.745 116.536 773.387 116.219C773.004 115.893 772.687 115.507 772.435 115.059C772.19 114.611 772.003 114.123 771.873 113.594C771.759 113.139 771.69 112.662 771.666 112.166C771.649 111.67 771.674 111.169 771.739 110.665L771.812 110.152C771.942 109.297 772.186 108.467 772.544 107.662C772.911 106.848 773.379 106.136 773.948 105.525C774.493 104.923 775.14 104.443 775.889 104.085C776.646 103.719 777.484 103.54 778.404 103.548C779.087 103.556 779.702 103.682 780.247 103.926C780.8 104.162 781.272 104.484 781.663 104.891C782.046 105.314 782.334 105.81 782.53 106.38C782.725 106.95 782.806 107.572 782.774 108.248L781.419 108.235C781.443 107.755 781.39 107.308 781.26 106.893C781.138 106.478 780.947 106.111 780.687 105.794C780.418 105.493 780.084 105.253 779.686 105.074C779.295 104.895 778.851 104.801 778.355 104.793C777.598 104.785 776.927 104.939 776.341 105.257C775.763 105.574 775.263 105.977 774.839 106.465C774.424 106.978 774.083 107.556 773.814 108.199C773.545 108.842 773.354 109.493 773.24 110.152L773.167 110.665C773.11 111.063 773.077 111.474 773.069 111.897C773.069 112.312 773.11 112.715 773.191 113.106C773.257 113.497 773.366 113.867 773.521 114.217C773.676 114.567 773.883 114.872 774.144 115.132C774.396 115.393 774.701 115.604 775.059 115.767C775.425 115.922 775.853 116.003 776.341 116.011ZM790.733 117.244C789.822 117.236 789.024 117.037 788.341 116.646C787.665 116.255 787.12 115.747 786.705 115.12C786.314 114.542 786.034 113.875 785.863 113.118C785.7 112.361 785.667 111.584 785.765 110.787L785.838 110.25C785.92 109.696 786.058 109.147 786.253 108.602C786.449 108.048 786.697 107.519 786.998 107.015C787.299 106.518 787.645 106.058 788.036 105.635C788.426 105.204 788.858 104.834 789.33 104.524C789.802 104.215 790.31 103.975 790.855 103.804C791.409 103.625 791.991 103.54 792.601 103.548C793.447 103.556 794.168 103.735 794.762 104.085C795.356 104.427 795.836 104.882 796.202 105.452C796.56 106.014 796.8 106.657 796.922 107.381C797.044 108.105 797.057 108.846 796.959 109.603L796.812 110.494H787.254C787.116 111.234 787.092 111.922 787.181 112.557C787.271 113.191 787.486 113.785 787.828 114.339C788.121 114.827 788.52 115.222 789.024 115.523C789.537 115.824 790.135 115.983 790.819 115.999C791.625 116.015 792.369 115.861 793.053 115.535C793.736 115.21 794.359 114.77 794.92 114.217L795.775 114.937C795.156 115.686 794.404 116.259 793.517 116.658C792.638 117.057 791.71 117.252 790.733 117.244ZM792.552 104.805C791.901 104.789 791.303 104.911 790.758 105.171C790.221 105.424 789.745 105.757 789.33 106.172C788.898 106.587 788.528 107.063 788.219 107.601C787.91 108.138 787.653 108.687 787.45 109.249L795.555 109.261L795.592 109.065C795.689 108.545 795.694 108.032 795.604 107.527C795.514 107.015 795.34 106.559 795.079 106.16C794.811 105.761 794.465 105.44 794.042 105.196C793.618 104.944 793.122 104.813 792.552 104.805ZM811.583 103.792L809.289 117H807.848L809.911 105.062H804.442L803.539 109.627C803.45 110.123 803.348 110.648 803.234 111.202C803.128 111.755 802.994 112.3 802.831 112.837C802.66 113.383 802.453 113.903 802.208 114.4C801.972 114.896 801.68 115.336 801.33 115.718C800.988 116.101 800.577 116.41 800.097 116.646C799.625 116.874 799.071 116.992 798.437 117H797.875L798.058 115.682H798.485C798.965 115.665 799.376 115.556 799.718 115.352C800.068 115.14 800.365 114.868 800.609 114.534C800.854 114.209 801.057 113.838 801.22 113.423C801.382 113 801.521 112.565 801.635 112.117C801.749 111.678 801.838 111.242 801.903 110.811C801.977 110.372 802.046 109.977 802.111 109.627L803.234 103.792H811.583ZM819.079 117.244C818.168 117.236 817.37 117.037 816.687 116.646C816.011 116.255 815.466 115.747 815.051 115.12C814.66 114.542 814.379 113.875 814.208 113.118C814.046 112.361 814.013 111.584 814.111 110.787L814.184 110.25C814.265 109.696 814.404 109.147 814.599 108.602C814.794 108.048 815.043 107.519 815.344 107.015C815.645 106.518 815.991 106.058 816.381 105.635C816.772 105.204 817.203 104.834 817.675 104.524C818.147 104.215 818.656 103.975 819.201 103.804C819.755 103.625 820.336 103.54 820.947 103.548C821.793 103.556 822.513 103.735 823.107 104.085C823.701 104.427 824.182 104.882 824.548 105.452C824.906 106.014 825.146 106.657 825.268 107.381C825.39 108.105 825.402 108.846 825.305 109.603L825.158 110.494H815.6C815.462 111.234 815.437 111.922 815.527 112.557C815.616 113.191 815.832 113.785 816.174 114.339C816.467 114.827 816.866 115.222 817.37 115.523C817.883 115.824 818.481 115.983 819.165 115.999C819.97 116.015 820.715 115.861 821.398 115.535C822.082 115.21 822.705 114.77 823.266 114.217L824.121 114.937C823.502 115.686 822.749 116.259 821.862 116.658C820.983 117.057 820.056 117.252 819.079 117.244ZM820.898 104.805C820.247 104.789 819.649 104.911 819.104 105.171C818.566 105.424 818.09 105.757 817.675 106.172C817.244 106.587 816.874 107.063 816.564 107.601C816.255 108.138 815.999 108.687 815.795 109.249L823.901 109.261L823.938 109.065C824.035 108.545 824.039 108.032 823.95 107.527C823.86 107.015 823.685 106.559 823.425 106.16C823.156 105.761 822.81 105.44 822.387 105.196C821.964 104.944 821.468 104.813 820.898 104.805ZM838.538 103.804L840.027 103.792L837.744 117H836.304L838.171 106.221L829.126 117H827.661L829.932 103.792H831.36L829.468 114.62L838.538 103.804ZM839.16 98.7505C839.087 99.2306 838.94 99.666 838.721 100.057C838.509 100.447 838.241 100.777 837.915 101.045C837.59 101.322 837.215 101.534 836.792 101.68C836.369 101.827 835.913 101.896 835.425 101.888C834.945 101.888 834.513 101.81 834.131 101.656C833.748 101.501 833.423 101.285 833.154 101.009C832.878 100.74 832.67 100.415 832.532 100.032C832.393 99.6497 832.328 99.2184 832.336 98.7383L833.545 98.7505C833.529 99.076 833.557 99.373 833.63 99.6416C833.712 99.902 833.838 100.122 834.009 100.301C834.163 100.472 834.359 100.606 834.595 100.704C834.831 100.793 835.107 100.838 835.425 100.838C835.783 100.83 836.104 100.773 836.389 100.667C836.674 100.561 836.926 100.407 837.146 100.203C837.341 100.024 837.504 99.8125 837.634 99.5684C837.773 99.3242 837.878 99.0557 837.952 98.7627L839.16 98.7505ZM862.464 105.171L858.106 103.841L858.729 102.486L862.989 104.231L863.636 99.2266H865.052L864.051 104.195L868.702 102.437L868.958 103.89L864.125 105.306L866.725 109.236L865.492 110.066L863.246 105.892L859.828 110.005L858.741 109.126L862.464 105.171ZM872.353 118.514H870.949L881.483 99.2388H882.875L872.353 118.514Z" fill="#0066FF"/>
<path d="M80.9678 55.4678C80.1784 55.4434 79.4948 55.2603 78.917 54.9185C78.3392 54.5767 77.859 54.125 77.4766 53.5635C77.1104 53.0264 76.8337 52.4242 76.6465 51.7568C76.4593 51.0977 76.3657 50.4425 76.3657 49.7915V47.7285C76.3657 46.5566 76.085 45.7062 75.5234 45.1772C74.9701 44.6483 74.1196 44.3797 72.9722 44.3716V42.6016C74.1196 42.6016 74.9701 42.3411 75.5234 41.8203C76.085 41.2913 76.3657 40.4368 76.3657 39.2568V37.1816C76.3657 36.5225 76.4512 35.8511 76.6221 35.1675C76.8011 34.4757 77.0819 33.8573 77.4644 33.312C77.8224 32.7912 78.2904 32.368 78.8682 32.0425C79.446 31.7088 80.1458 31.5298 80.9678 31.5054L81.2241 32.9092C80.6382 32.9255 80.1702 33.0638 79.8203 33.3242C79.4785 33.5846 79.2222 33.9142 79.0513 34.313C78.8722 34.7199 78.7583 35.1756 78.7095 35.6802C78.6606 36.1847 78.6362 36.6852 78.6362 37.1816V39.2568C78.6362 40.2334 78.4084 41.092 77.9526 41.8325C77.505 42.5649 76.8092 43.1224 75.8652 43.5049C76.8092 43.8792 77.505 44.4367 77.9526 45.1772C78.4002 45.9097 78.6281 46.7601 78.6362 47.7285V49.7915C78.6362 50.2961 78.6769 50.7965 78.7583 51.293C78.8397 51.7975 78.9821 52.2492 79.1855 52.6479C79.3809 53.0549 79.6413 53.3885 79.9668 53.6489C80.3005 53.9093 80.7196 54.0477 81.2241 54.064L80.9678 55.4678ZM105.81 82.4131C106.217 82.4131 106.612 82.348 106.994 82.2178C107.385 82.0876 107.731 81.9045 108.032 81.6685C108.333 81.4406 108.573 81.172 108.752 80.8628C108.939 80.5454 109.037 80.2036 109.045 79.8374H111.181C111.173 80.4233 111.018 80.9849 110.717 81.522C110.424 82.0509 110.03 82.5148 109.533 82.9136C109.037 83.3205 108.467 83.646 107.824 83.8901C107.181 84.1261 106.51 84.2441 105.81 84.2441C104.809 84.2441 103.934 84.0651 103.186 83.707C102.437 83.349 101.814 82.8647 101.318 82.2544C100.813 81.6522 100.435 80.9564 100.183 80.167C99.9303 79.3695 99.8042 78.5312 99.8042 77.6523V77.1396C99.8042 76.2689 99.9303 75.4347 100.183 74.6372C100.435 73.8397 100.813 73.1357 101.318 72.5254C101.814 71.9232 102.437 71.443 103.186 71.085C103.934 70.7269 104.809 70.5479 105.81 70.5479C106.591 70.5479 107.307 70.674 107.958 70.9263C108.618 71.1704 109.187 71.5041 109.667 71.9272C110.139 72.3586 110.51 72.8672 110.778 73.4531C111.047 74.0391 111.181 74.6657 111.181 75.333H109.045C109.037 74.9342 108.947 74.5599 108.776 74.21C108.614 73.8519 108.39 73.5386 108.105 73.27C107.82 73.0015 107.478 72.7899 107.08 72.6353C106.689 72.4806 106.266 72.4033 105.81 72.4033C105.11 72.4033 104.52 72.5457 104.04 72.8306C103.568 73.1073 103.186 73.4694 102.893 73.917C102.6 74.3727 102.388 74.8813 102.258 75.4429C102.136 76.0044 102.075 76.57 102.075 77.1396V77.6523C102.075 78.2301 102.136 78.8039 102.258 79.3735C102.388 79.9351 102.6 80.4396 102.893 80.8872C103.177 81.3429 103.556 81.7132 104.028 81.998C104.508 82.2747 105.102 82.4131 105.81 82.4131ZM114.062 77.2739C114.062 76.3218 114.201 75.4388 114.478 74.625C114.754 73.8031 115.153 73.091 115.674 72.4888C116.187 71.8866 116.813 71.4146 117.554 71.0728C118.294 70.7228 119.128 70.5479 120.056 70.5479C120.992 70.5479 121.83 70.7228 122.571 71.0728C123.319 71.4146 123.954 71.8866 124.475 72.4888C124.988 73.091 125.382 73.8031 125.659 74.625C125.936 75.4388 126.074 76.3218 126.074 77.2739V77.5425C126.074 78.4946 125.936 79.3776 125.659 80.1914C125.382 81.0052 124.988 81.7132 124.475 82.3154C123.954 82.9176 123.324 83.3896 122.583 83.7314C121.842 84.0732 121.008 84.2441 120.081 84.2441C119.145 84.2441 118.302 84.0732 117.554 83.7314C116.813 83.3896 116.187 82.9176 115.674 82.3154C115.153 81.7132 114.754 81.0052 114.478 80.1914C114.201 79.3776 114.062 78.4946 114.062 77.5425V77.2739ZM116.321 77.5425C116.321 78.1935 116.398 78.8161 116.553 79.4102C116.707 79.9961 116.943 80.5129 117.261 80.9604C117.57 81.408 117.961 81.762 118.433 82.0225C118.905 82.2829 119.454 82.4131 120.081 82.4131C120.699 82.4131 121.24 82.2829 121.704 82.0225C122.176 81.762 122.571 81.408 122.888 80.9604C123.197 80.5129 123.429 79.9961 123.584 79.4102C123.739 78.8161 123.816 78.1935 123.816 77.5425V77.2739C123.816 76.631 123.735 76.0166 123.572 75.4307C123.417 74.8366 123.185 74.3158 122.876 73.8682C122.559 73.4206 122.164 73.0666 121.692 72.8062C121.228 72.5376 120.683 72.4033 120.056 72.4033C119.43 72.4033 118.884 72.5376 118.42 72.8062C117.957 73.0666 117.57 73.4206 117.261 73.8682C116.943 74.3158 116.707 74.8366 116.553 75.4307C116.398 76.0166 116.321 76.631 116.321 77.2739V77.5425ZM129.566 65.25H136.316V82.0469H140.625V84H129.566V82.0469H134.058V67.2153H129.566V65.25ZM143.092 77.2739C143.092 76.3218 143.23 75.4388 143.507 74.625C143.784 73.8031 144.182 73.091 144.703 72.4888C145.216 71.8866 145.842 71.4146 146.583 71.0728C147.324 70.7228 148.158 70.5479 149.085 70.5479C150.021 70.5479 150.86 70.7228 151.6 71.0728C152.349 71.4146 152.984 71.8866 153.504 72.4888C154.017 73.091 154.412 73.8031 154.688 74.625C154.965 75.4388 155.104 76.3218 155.104 77.2739V77.5425C155.104 78.4946 154.965 79.3776 154.688 80.1914C154.412 81.0052 154.017 81.7132 153.504 82.3154C152.984 82.9176 152.353 83.3896 151.612 83.7314C150.872 84.0732 150.038 84.2441 149.11 84.2441C148.174 84.2441 147.332 84.0732 146.583 83.7314C145.842 83.3896 145.216 82.9176 144.703 82.3154C144.182 81.7132 143.784 81.0052 143.507 80.1914C143.23 79.3776 143.092 78.4946 143.092 77.5425V77.2739ZM145.35 77.5425C145.35 78.1935 145.427 78.8161 145.582 79.4102C145.737 79.9961 145.973 80.5129 146.29 80.9604C146.599 81.408 146.99 81.762 147.462 82.0225C147.934 82.2829 148.483 82.4131 149.11 82.4131C149.728 82.4131 150.27 82.2829 150.733 82.0225C151.205 81.762 151.6 81.408 151.917 80.9604C152.227 80.5129 152.459 79.9961 152.613 79.4102C152.768 78.8161 152.845 78.1935 152.845 77.5425V77.2739C152.845 76.631 152.764 76.0166 152.601 75.4307C152.446 74.8366 152.215 74.3158 151.905 73.8682C151.588 73.4206 151.193 73.0666 150.721 72.8062C150.257 72.5376 149.712 72.4033 149.085 72.4033C148.459 72.4033 147.914 72.5376 147.45 72.8062C146.986 73.0666 146.599 73.4206 146.29 73.8682C145.973 74.3158 145.737 74.8366 145.582 75.4307C145.427 76.0166 145.35 76.631 145.35 77.2739V77.5425ZM166.896 70.5479C167.311 70.5479 167.742 70.5763 168.19 70.6333C168.646 70.6903 168.987 70.7676 169.215 70.8652L168.91 73.0747C168.471 72.9771 168.052 72.9079 167.653 72.8672C167.262 72.8184 166.851 72.7939 166.42 72.7939C165.867 72.7939 165.366 72.8631 164.918 73.0015C164.471 73.1317 164.08 73.327 163.747 73.5874C163.445 73.8153 163.181 74.096 162.953 74.4297C162.733 74.7552 162.55 75.1214 162.404 75.5283V84H160.133V70.792H162.282L162.379 72.562L162.392 72.8916C162.929 72.1673 163.572 71.5977 164.32 71.1826C165.077 70.7594 165.936 70.5479 166.896 70.5479ZM177.297 82.5352C177.297 82.055 177.443 81.644 177.736 81.3022C178.029 80.9604 178.473 80.7896 179.067 80.7896C179.653 80.7896 180.096 80.9604 180.397 81.3022C180.707 81.6359 180.861 82.0469 180.861 82.5352C180.861 83.0153 180.707 83.4181 180.397 83.7437C180.088 84.0692 179.645 84.2319 179.067 84.2319C178.481 84.2319 178.037 84.0692 177.736 83.7437C177.443 83.41 177.297 83.0072 177.297 82.5352ZM177.297 71.8418C177.297 71.3617 177.443 70.9507 177.736 70.6089C178.029 70.2671 178.473 70.0962 179.067 70.0962C179.653 70.0962 180.096 70.2671 180.397 70.6089C180.707 70.9425 180.861 71.3535 180.861 71.8418C180.861 72.3219 180.707 72.7248 180.397 73.0503C180.088 73.3758 179.645 73.5386 179.067 73.5386C178.481 73.5386 178.037 73.3758 177.736 73.0503C177.443 72.7166 177.297 72.3138 177.297 71.8418ZM210.44 70.5479C210.855 70.5479 211.286 70.5763 211.734 70.6333C212.19 70.6903 212.531 70.7676 212.759 70.8652L212.454 73.0747C212.015 72.9771 211.596 72.9079 211.197 72.8672C210.806 72.8184 210.395 72.7939 209.964 72.7939C209.41 72.7939 208.91 72.8631 208.462 73.0015C208.015 73.1317 207.624 73.327 207.291 73.5874C206.989 73.8153 206.725 74.096 206.497 74.4297C206.277 74.7552 206.094 75.1214 205.948 75.5283V84H203.677V70.792H205.826L205.923 72.562L205.936 72.8916C206.473 72.1673 207.116 71.5977 207.864 71.1826C208.621 70.7594 209.48 70.5479 210.44 70.5479ZM222.135 84.2441C221.207 84.2441 220.353 84.0854 219.571 83.7681C218.798 83.4507 218.135 83.0072 217.582 82.4375C217.028 81.8678 216.597 81.1924 216.288 80.4111C215.978 79.6299 215.824 78.7795 215.824 77.8599V77.3472C215.824 76.2811 215.995 75.3289 216.336 74.4907C216.678 73.6444 217.134 72.9282 217.704 72.3423C218.265 71.7645 218.904 71.321 219.62 71.0117C220.344 70.7025 221.085 70.5479 221.842 70.5479C222.794 70.5479 223.624 70.7147 224.332 71.0483C225.048 71.3739 225.642 71.8255 226.114 72.4033C226.586 72.9893 226.936 73.6769 227.164 74.4663C227.4 75.2557 227.518 76.1102 227.518 77.0298V78.043H218.082V78.1284C218.139 78.7713 218.265 79.3369 218.46 79.8252C218.664 80.3135 218.941 80.7448 219.291 81.1191C219.649 81.5179 220.08 81.8312 220.584 82.0591C221.089 82.2869 221.646 82.4009 222.257 82.4009C223.062 82.4009 223.779 82.2381 224.405 81.9126C225.032 81.5871 225.553 81.1558 225.968 80.6187L227.347 81.6929C226.908 82.3602 226.249 82.9543 225.37 83.4751C224.499 83.9878 223.421 84.2441 222.135 84.2441ZM221.842 72.4033C221.386 72.4033 220.955 72.4888 220.548 72.6597C220.141 72.8224 219.775 73.0625 219.449 73.3799C219.124 73.7054 218.847 74.1042 218.619 74.5762C218.399 75.04 218.245 75.5771 218.155 76.1875H225.26V76.0776C225.26 75.6707 225.182 75.2354 225.028 74.7715C224.873 74.2995 224.658 73.8926 224.381 73.5508C224.104 73.209 223.754 72.9323 223.331 72.7207C222.916 72.5091 222.42 72.4033 221.842 72.4033ZM230.387 77.2861C230.387 76.3014 230.509 75.3981 230.753 74.5762C231.006 73.7461 231.364 73.034 231.828 72.4399C232.283 71.8459 232.837 71.382 233.488 71.0483C234.139 70.7147 234.867 70.5479 235.673 70.5479C236.462 70.5479 237.15 70.6821 237.736 70.9507C238.33 71.2111 238.843 71.5936 239.274 72.0981V65.25H241.532V84H239.457L239.359 82.6084C238.92 83.1455 238.395 83.5524 237.785 83.8291C237.174 84.1058 236.462 84.2441 235.648 84.2441C234.851 84.2441 234.127 84.0732 233.476 83.7314C232.833 83.3896 232.283 82.9176 231.828 82.3154C231.372 81.7132 231.018 81.0052 230.766 80.1914C230.513 79.3695 230.387 78.4865 230.387 77.5425V77.2861ZM232.646 77.5425C232.646 78.1854 232.715 78.7957 232.853 79.3735C232.991 79.9513 233.207 80.46 233.5 80.8994C233.785 81.3389 234.151 81.6888 234.599 81.9492C235.046 82.2015 235.583 82.3276 236.21 82.3276C236.967 82.3276 237.593 82.1567 238.09 81.8149C238.586 81.4731 238.981 81.0133 239.274 80.4355V74.3076C238.981 73.7705 238.586 73.3311 238.09 72.9893C237.593 72.6393 236.975 72.4644 236.234 72.4644C235.6 72.4644 235.054 72.5946 234.599 72.855C234.151 73.1154 233.785 73.4653 233.5 73.9048C233.207 74.3524 232.991 74.8691 232.853 75.4551C232.715 76.0329 232.646 76.6432 232.646 77.2861V77.5425ZM249.76 71.8418C249.76 71.3617 249.907 70.9507 250.2 70.6089C250.493 70.2671 250.936 70.0962 251.53 70.0962C252.116 70.0962 252.56 70.2671 252.861 70.6089C253.17 70.9425 253.325 71.3535 253.325 71.8418C253.325 72.3219 253.17 72.7248 252.861 73.0503C252.552 73.3758 252.108 73.5386 251.53 73.5386C250.944 73.5386 250.501 73.3758 250.2 73.0503C249.907 72.7166 249.76 72.3138 249.76 71.8418ZM252.666 83.4751C252.666 84.2889 252.474 85.119 252.092 85.9653C251.709 86.8117 251.193 87.5238 250.542 88.1016L249.138 87.3325C249.528 86.7629 249.805 86.1566 249.968 85.5137C250.131 84.8708 250.212 84.2035 250.212 83.5117V81.3267H252.666V83.4751ZM103.552 117V105.538H99.9141V103.792H103.552V102.864C103.552 102.018 103.674 101.277 103.918 100.643C104.17 99.9997 104.524 99.4626 104.98 99.0312C105.428 98.5999 105.969 98.2744 106.604 98.0547C107.238 97.835 107.946 97.7251 108.728 97.7251C109.053 97.7251 109.375 97.7454 109.692 97.7861C110.009 97.8187 110.323 97.8634 110.632 97.9204C110.835 97.9611 111.039 98.0059 111.242 98.0547C111.446 98.0954 111.653 98.1442 111.865 98.2012L111.596 100.069C111.263 99.9549 110.872 99.8573 110.424 99.7759C109.985 99.6864 109.513 99.6416 109.008 99.6416C108.496 99.6416 108.04 99.7067 107.641 99.8369C107.25 99.959 106.925 100.146 106.665 100.398C106.388 100.659 106.176 100.997 106.03 101.412C105.891 101.827 105.822 102.311 105.822 102.864V103.792H110.913V105.538H105.822V117H103.552ZM114.062 110.274C114.062 109.322 114.201 108.439 114.478 107.625C114.754 106.803 115.153 106.091 115.674 105.489C116.187 104.887 116.813 104.415 117.554 104.073C118.294 103.723 119.128 103.548 120.056 103.548C120.992 103.548 121.83 103.723 122.571 104.073C123.319 104.415 123.954 104.887 124.475 105.489C124.988 106.091 125.382 106.803 125.659 107.625C125.936 108.439 126.074 109.322 126.074 110.274V110.542C126.074 111.495 125.936 112.378 125.659 113.191C125.382 114.005 124.988 114.713 124.475 115.315C123.954 115.918 123.324 116.39 122.583 116.731C121.842 117.073 121.008 117.244 120.081 117.244C119.145 117.244 118.302 117.073 117.554 116.731C116.813 116.39 116.187 115.918 115.674 115.315C115.153 114.713 114.754 114.005 114.478 113.191C114.201 112.378 114.062 111.495 114.062 110.542V110.274ZM116.321 110.542C116.321 111.194 116.398 111.816 116.553 112.41C116.707 112.996 116.943 113.513 117.261 113.96C117.57 114.408 117.961 114.762 118.433 115.022C118.905 115.283 119.454 115.413 120.081 115.413C120.699 115.413 121.24 115.283 121.704 115.022C122.176 114.762 122.571 114.408 122.888 113.96C123.197 113.513 123.429 112.996 123.584 112.41C123.739 111.816 123.816 111.194 123.816 110.542V110.274C123.816 109.631 123.735 109.017 123.572 108.431C123.417 107.837 123.185 107.316 122.876 106.868C122.559 106.421 122.164 106.067 121.692 105.806C121.228 105.538 120.683 105.403 120.056 105.403C119.43 105.403 118.884 105.538 118.42 105.806C117.957 106.067 117.57 106.421 117.261 106.868C116.943 107.316 116.707 107.837 116.553 108.431C116.398 109.017 116.321 109.631 116.321 110.274V110.542ZM129.212 117V103.792H131.238L131.397 105.745C131.592 105.468 131.804 105.216 132.032 104.988C132.268 104.752 132.516 104.549 132.776 104.378C133.167 104.118 133.59 103.918 134.046 103.78C134.51 103.633 134.998 103.556 135.511 103.548C136.202 103.548 136.829 103.646 137.391 103.841C137.96 104.036 138.444 104.341 138.843 104.756C139.242 105.171 139.547 105.7 139.759 106.343C139.979 106.978 140.088 107.735 140.088 108.614V117H137.83V108.663C137.83 108.077 137.765 107.58 137.635 107.173C137.505 106.766 137.313 106.437 137.061 106.185C136.801 105.932 136.483 105.749 136.109 105.635C135.743 105.521 135.319 105.464 134.839 105.464C134.424 105.464 134.038 105.525 133.68 105.647C133.322 105.761 132.992 105.92 132.691 106.124C132.447 106.303 132.219 106.51 132.007 106.746C131.804 106.982 131.625 107.243 131.47 107.527V117H129.212ZM149.073 100.594V103.792H154.103V105.538H149.073V112.715C149.073 113.228 149.138 113.651 149.269 113.985C149.399 114.319 149.578 114.583 149.806 114.778C150.034 114.982 150.294 115.124 150.587 115.206C150.888 115.287 151.205 115.328 151.539 115.328C151.783 115.328 152.035 115.315 152.296 115.291C152.556 115.258 152.813 115.222 153.065 115.181C153.309 115.14 153.537 115.1 153.749 115.059C153.968 115.01 154.147 114.97 154.286 114.937L154.603 116.536C154.416 116.65 154.188 116.752 153.919 116.841C153.651 116.923 153.358 116.992 153.041 117.049C152.723 117.114 152.385 117.163 152.027 117.195C151.677 117.228 151.327 117.244 150.978 117.244C150.392 117.244 149.842 117.163 149.33 117C148.825 116.829 148.386 116.561 148.011 116.194C147.637 115.836 147.34 115.372 147.12 114.803C146.909 114.225 146.803 113.529 146.803 112.715V105.538H143.336V103.792H146.803V100.594H149.073ZM168.117 110.152H158.778V108.296H168.117V110.152ZM181.533 113.497C181.533 113.228 181.48 112.988 181.374 112.776C181.268 112.557 181.089 112.357 180.837 112.178C180.585 111.999 180.251 111.836 179.836 111.69C179.421 111.535 178.904 111.397 178.286 111.275C177.529 111.12 176.837 110.933 176.21 110.713C175.592 110.494 175.063 110.229 174.624 109.92C174.176 109.619 173.83 109.265 173.586 108.858C173.342 108.443 173.22 107.963 173.22 107.417C173.22 106.88 173.346 106.38 173.598 105.916C173.85 105.444 174.204 105.033 174.66 104.683C175.116 104.333 175.657 104.056 176.284 103.853C176.918 103.65 177.614 103.548 178.371 103.548C179.185 103.548 179.917 103.654 180.568 103.865C181.219 104.077 181.773 104.37 182.229 104.744C182.684 105.118 183.034 105.558 183.278 106.062C183.531 106.559 183.657 107.096 183.657 107.674H181.398C181.398 107.389 181.325 107.112 181.179 106.844C181.032 106.567 180.829 106.323 180.568 106.111C180.308 105.9 179.991 105.729 179.616 105.599C179.25 105.468 178.835 105.403 178.371 105.403C177.891 105.403 177.468 105.456 177.102 105.562C176.743 105.668 176.446 105.81 176.21 105.989C175.966 106.168 175.783 106.376 175.661 106.612C175.539 106.848 175.478 107.092 175.478 107.344C175.478 107.605 175.527 107.837 175.625 108.04C175.722 108.243 175.893 108.427 176.137 108.589C176.373 108.752 176.691 108.899 177.089 109.029C177.496 109.159 178.009 109.285 178.627 109.407C179.441 109.578 180.17 109.778 180.812 110.005C181.455 110.225 181.997 110.49 182.436 110.799C182.875 111.116 183.209 111.482 183.437 111.897C183.673 112.312 183.791 112.793 183.791 113.338C183.791 113.924 183.657 114.457 183.388 114.937C183.128 115.417 182.762 115.828 182.29 116.17C181.818 116.512 181.252 116.776 180.593 116.963C179.934 117.151 179.213 117.244 178.432 117.244C177.537 117.244 176.739 117.126 176.04 116.89C175.34 116.646 174.75 116.325 174.27 115.926C173.781 115.535 173.407 115.079 173.146 114.559C172.894 114.038 172.768 113.497 172.768 112.935H175.026C175.059 113.399 175.181 113.79 175.393 114.107C175.612 114.424 175.885 114.681 176.21 114.876C176.528 115.071 176.882 115.21 177.272 115.291C177.663 115.372 178.05 115.413 178.432 115.413C179.034 115.413 179.559 115.344 180.007 115.206C180.454 115.059 180.804 114.86 181.057 114.607C181.211 114.453 181.329 114.282 181.411 114.095C181.492 113.908 181.533 113.708 181.533 113.497ZM187.625 103.792H194.375V115.047H198.684V117H187.625V115.047H192.117V105.757H187.625V103.792ZM191.824 100.325C191.824 100.13 191.852 99.9468 191.909 99.7759C191.974 99.605 192.072 99.4585 192.202 99.3364C192.308 99.2306 192.442 99.1493 192.605 99.0923C192.776 99.0272 192.967 98.9946 193.179 98.9946C193.39 98.9946 193.577 99.0272 193.74 99.0923C193.903 99.1493 194.037 99.2306 194.143 99.3364C194.273 99.4504 194.371 99.5928 194.436 99.7637C194.501 99.9346 194.534 100.122 194.534 100.325C194.534 100.691 194.42 100.997 194.192 101.241C193.964 101.485 193.626 101.607 193.179 101.607C192.723 101.607 192.381 101.485 192.153 101.241C191.934 100.997 191.824 100.691 191.824 100.325ZM204.495 115.157H212.906V117H201.614V115.34L209.5 105.66H201.724V103.792H212.466V105.391L204.495 115.157ZM222.135 117.244C221.207 117.244 220.353 117.085 219.571 116.768C218.798 116.451 218.135 116.007 217.582 115.438C217.028 114.868 216.597 114.192 216.288 113.411C215.978 112.63 215.824 111.779 215.824 110.86V110.347C215.824 109.281 215.995 108.329 216.336 107.491C216.678 106.644 217.134 105.928 217.704 105.342C218.265 104.764 218.904 104.321 219.62 104.012C220.344 103.702 221.085 103.548 221.842 103.548C222.794 103.548 223.624 103.715 224.332 104.048C225.048 104.374 225.642 104.826 226.114 105.403C226.586 105.989 226.936 106.677 227.164 107.466C227.4 108.256 227.518 109.11 227.518 110.03V111.043H218.082V111.128C218.139 111.771 218.265 112.337 218.46 112.825C218.664 113.313 218.941 113.745 219.291 114.119C219.649 114.518 220.08 114.831 220.584 115.059C221.089 115.287 221.646 115.401 222.257 115.401C223.062 115.401 223.779 115.238 224.405 114.913C225.032 114.587 225.553 114.156 225.968 113.619L227.347 114.693C226.908 115.36 226.249 115.954 225.37 116.475C224.499 116.988 223.421 117.244 222.135 117.244ZM221.842 105.403C221.386 105.403 220.955 105.489 220.548 105.66C220.141 105.822 219.775 106.062 219.449 106.38C219.124 106.705 218.847 107.104 218.619 107.576C218.399 108.04 218.245 108.577 218.155 109.188H225.26V109.078C225.26 108.671 225.182 108.235 225.028 107.771C224.873 107.299 224.658 106.893 224.381 106.551C224.104 106.209 223.754 105.932 223.331 105.721C222.916 105.509 222.42 105.403 221.842 105.403ZM235.355 115.535C235.355 115.055 235.502 114.644 235.795 114.302C236.088 113.96 236.531 113.79 237.125 113.79C237.711 113.79 238.155 113.96 238.456 114.302C238.765 114.636 238.92 115.047 238.92 115.535C238.92 116.015 238.765 116.418 238.456 116.744C238.147 117.069 237.703 117.232 237.125 117.232C236.54 117.232 236.096 117.069 235.795 116.744C235.502 116.41 235.355 116.007 235.355 115.535ZM235.355 104.842C235.355 104.362 235.502 103.951 235.795 103.609C236.088 103.267 236.531 103.096 237.125 103.096C237.711 103.096 238.155 103.267 238.456 103.609C238.765 103.943 238.92 104.354 238.92 104.842C238.92 105.322 238.765 105.725 238.456 106.05C238.147 106.376 237.703 106.539 237.125 106.539C236.54 106.539 236.096 106.376 235.795 106.05C235.502 105.717 235.355 105.314 235.355 104.842ZM267.168 117H264.91V102.107L260.259 103.877V101.814L266.985 99.2266H267.168V117ZM283.514 111.031H285.992V112.874H283.514V117H281.255V112.874H273.15V111.543L281.109 99.2266H283.514V111.031ZM275.652 111.031H281.255V102.229L280.889 102.913L275.652 111.031ZM288.861 122.078V103.792H290.924L291.034 105.232C291.213 105.005 291.408 104.801 291.62 104.622C291.831 104.435 292.059 104.276 292.303 104.146C292.645 103.951 293.023 103.804 293.438 103.707C293.862 103.601 294.313 103.548 294.793 103.548C295.64 103.548 296.389 103.715 297.04 104.048C297.691 104.382 298.236 104.846 298.675 105.44C299.115 106.034 299.448 106.746 299.676 107.576C299.904 108.398 300.018 109.301 300.018 110.286V110.542C300.018 111.486 299.904 112.369 299.676 113.191C299.448 114.005 299.115 114.713 298.675 115.315C298.236 115.918 297.691 116.39 297.04 116.731C296.397 117.073 295.66 117.244 294.83 117.244C294.326 117.244 293.854 117.191 293.414 117.085C292.983 116.98 292.592 116.829 292.242 116.634C292.031 116.512 291.831 116.377 291.644 116.231C291.457 116.076 291.282 115.91 291.119 115.73V122.078H288.861ZM297.76 110.286C297.76 109.643 297.687 109.033 297.54 108.455C297.402 107.869 297.186 107.352 296.893 106.905C296.592 106.465 296.214 106.115 295.758 105.855C295.302 105.595 294.757 105.464 294.122 105.464C293.772 105.464 293.447 105.505 293.146 105.586C292.853 105.668 292.588 105.786 292.352 105.94C292.092 106.095 291.86 106.286 291.656 106.514C291.453 106.742 291.274 106.994 291.119 107.271V113.631C291.257 113.875 291.416 114.103 291.595 114.314C291.774 114.526 291.978 114.705 292.206 114.852C292.466 115.022 292.755 115.157 293.072 115.254C293.398 115.352 293.756 115.401 294.146 115.401C294.773 115.401 295.314 115.271 295.77 115.01C296.226 114.742 296.6 114.384 296.893 113.936C297.186 113.488 297.402 112.972 297.54 112.386C297.687 111.8 297.76 111.185 297.76 110.542V110.286ZM308.844 108.687L312.372 103.792H315.021L310.102 110.323L315.155 117H312.543L308.893 111.971L305.243 117H302.606L307.66 110.323L302.741 103.792H305.353L308.844 108.687ZM322.333 104.842C322.333 104.362 322.48 103.951 322.773 103.609C323.066 103.267 323.509 103.096 324.104 103.096C324.689 103.096 325.133 103.267 325.434 103.609C325.743 103.943 325.898 104.354 325.898 104.842C325.898 105.322 325.743 105.725 325.434 106.05C325.125 106.376 324.681 106.539 324.104 106.539C323.518 106.539 323.074 106.376 322.773 106.05C322.48 105.717 322.333 105.314 322.333 104.842ZM325.239 116.475C325.239 117.289 325.048 118.119 324.665 118.965C324.283 119.812 323.766 120.524 323.115 121.102L321.711 120.333C322.102 119.763 322.378 119.157 322.541 118.514C322.704 117.871 322.785 117.203 322.785 116.512V114.327H325.239V116.475ZM43.9429 153.064C44.4393 153.048 44.8543 152.909 45.188 152.649C45.5216 152.389 45.7902 152.055 45.9937 151.648C46.189 151.249 46.3273 150.798 46.4087 150.293C46.4982 149.797 46.543 149.296 46.543 148.792V146.729C46.543 146.086 46.6366 145.492 46.8237 144.946C47.019 144.401 47.3161 143.929 47.7148 143.53C47.9264 143.319 48.1624 143.127 48.4229 142.957C48.6914 142.786 48.9844 142.635 49.3018 142.505C48.9762 142.375 48.6751 142.22 48.3984 142.041C48.1299 141.862 47.8939 141.663 47.6904 141.443C47.2998 141.036 47.0109 140.564 46.8237 140.027C46.6366 139.482 46.543 138.892 46.543 138.257V136.182C46.543 135.685 46.5145 135.185 46.4575 134.68C46.4087 134.176 46.2988 133.72 46.1279 133.313C45.9489 132.914 45.6885 132.585 45.3467 132.324C45.0049 132.064 44.541 131.925 43.9551 131.909L44.1992 130.505C44.9886 130.53 45.6641 130.697 46.2256 131.006C46.7952 131.315 47.2632 131.718 47.6294 132.214C48.0444 132.776 48.3415 133.407 48.5205 134.106C48.7077 134.806 48.8013 135.498 48.8013 136.182V138.257C48.8013 138.745 48.846 139.176 48.9355 139.551C49.0332 139.917 49.1756 140.234 49.3628 140.503C49.6313 140.885 50.0016 141.166 50.4736 141.345C50.9538 141.516 51.5275 141.602 52.1948 141.602V143.372C51.6089 143.38 51.0962 143.453 50.6567 143.591C50.2254 143.722 49.8714 143.929 49.5947 144.214C49.3262 144.491 49.1268 144.836 48.9966 145.251C48.8664 145.667 48.8013 146.159 48.8013 146.729V148.792C48.8013 149.443 48.7118 150.098 48.5327 150.757C48.3537 151.424 48.077 152.03 47.7026 152.576C47.3201 153.121 46.84 153.569 46.2622 153.918C45.6844 154.268 44.9967 154.451 44.1992 154.468L43.9429 153.064Z" fill="white"/>
</svg>
