<svg width="311" height="95" viewBox="0 0 311 95" fill="none" xmlns="http://www.w3.org/2000/svg">
<rect width="311" height="95" rx="20" fill="#0066FF" fill-opacity="0.2"/>
<rect x="1.5" y="1.5" width="308" height="92" rx="18.5" stroke="#0066FF" stroke-opacity="0.5" stroke-width="3"/>
<path d="M52.4268 54.6074L42.0752 49.981V48.1987L52.4268 43.5845V45.9771L44.9561 48.9067L44.3091 49.1143L44.9561 49.334L52.4268 52.2148V54.6074ZM129.566 38.25H136.316V55.0469H140.625V57H129.566V55.0469H134.058V40.2153H129.566V38.25ZM152.406 57C152.316 56.8291 152.243 56.6175 152.186 56.3652C152.137 56.1048 152.101 55.8363 152.076 55.5596C151.848 55.7874 151.592 56.0031 151.307 56.2065C151.03 56.41 150.725 56.589 150.392 56.7437C150.05 56.8983 149.688 57.0203 149.305 57.1099C148.923 57.1994 148.516 57.2441 148.084 57.2441C147.385 57.2441 146.75 57.1424 146.18 56.939C145.619 56.7355 145.143 56.4588 144.752 56.1089C144.353 55.7671 144.044 55.3602 143.824 54.8882C143.613 54.408 143.507 53.8913 143.507 53.3379C143.507 52.6136 143.649 51.9788 143.934 51.4336C144.227 50.8883 144.638 50.4326 145.167 50.0664C145.696 49.7083 146.331 49.4398 147.071 49.2607C147.82 49.0817 148.654 48.9922 149.574 48.9922H152.04V47.9546C152.04 47.5558 151.966 47.1978 151.82 46.8804C151.673 46.563 151.466 46.2904 151.197 46.0625C150.929 45.8428 150.599 45.6719 150.208 45.5498C149.826 45.4277 149.395 45.3667 148.915 45.3667C148.467 45.3667 148.064 45.4237 147.706 45.5376C147.356 45.6515 147.059 45.8021 146.815 45.9893C146.571 46.1764 146.38 46.4002 146.241 46.6606C146.111 46.9129 146.046 47.1774 146.046 47.4541H143.775C143.784 46.974 143.906 46.502 144.142 46.0381C144.386 45.5742 144.736 45.1551 145.191 44.7808C145.639 44.4146 146.184 44.1175 146.827 43.8896C147.478 43.6618 148.215 43.5479 149.037 43.5479C149.785 43.5479 150.481 43.6414 151.124 43.8286C151.767 44.0076 152.324 44.2803 152.796 44.6465C153.26 45.0208 153.626 45.4847 153.895 46.0381C154.164 46.5915 154.298 47.2384 154.298 47.979V54.1191C154.298 54.5586 154.339 55.0265 154.42 55.5229C154.501 56.0112 154.615 56.4385 154.762 56.8047V57H152.406ZM148.414 55.2788C148.854 55.2788 149.264 55.2218 149.647 55.1079C150.029 54.994 150.379 54.8434 150.697 54.6562C151.006 54.4691 151.275 54.2575 151.502 54.0215C151.73 53.7773 151.909 53.5251 152.04 53.2646V50.5913H149.94C149.159 50.5913 148.475 50.6605 147.889 50.7988C147.311 50.929 146.852 51.1325 146.51 51.4092C146.266 51.6045 146.078 51.8364 145.948 52.105C145.826 52.3735 145.765 52.6787 145.765 53.0205C145.765 53.346 145.818 53.6471 145.924 53.9238C146.038 54.2005 146.205 54.4365 146.424 54.6318C146.644 54.8353 146.921 54.994 147.254 55.1079C147.588 55.2218 147.975 55.2788 148.414 55.2788ZM158.241 57V43.792H160.268L160.426 45.7451C160.622 45.4684 160.833 45.2161 161.061 44.9883C161.297 44.7523 161.545 44.5488 161.806 44.3779C162.196 44.1175 162.619 43.9181 163.075 43.7798C163.539 43.6333 164.027 43.556 164.54 43.5479C165.232 43.5479 165.858 43.6455 166.42 43.8408C166.99 44.0361 167.474 44.3413 167.873 44.7563C168.271 45.1714 168.576 45.7004 168.788 46.3433C169.008 46.978 169.118 47.7349 169.118 48.6138V57H166.859V48.6626C166.859 48.0767 166.794 47.5802 166.664 47.1733C166.534 46.7664 166.343 46.4368 166.09 46.1846C165.83 45.9323 165.513 45.7492 165.138 45.6353C164.772 45.5213 164.349 45.4644 163.869 45.4644C163.454 45.4644 163.067 45.5254 162.709 45.6475C162.351 45.7614 162.021 45.9201 161.72 46.1235C161.476 46.3026 161.248 46.5101 161.037 46.7461C160.833 46.9821 160.654 47.2425 160.5 47.5273V57H158.241ZM172.341 50.2861C172.341 49.3014 172.459 48.3981 172.695 47.5762C172.939 46.7461 173.289 46.034 173.745 45.4399C174.2 44.8459 174.754 44.382 175.405 44.0483C176.056 43.7147 176.792 43.5479 177.614 43.5479C178.143 43.5479 178.627 43.6089 179.067 43.731C179.514 43.853 179.917 44.0321 180.275 44.2681C180.471 44.3901 180.654 44.5326 180.825 44.6953C181.004 44.8581 181.171 45.0371 181.325 45.2324L181.435 43.792H183.486V56.7192C183.486 57.59 183.347 58.3631 183.071 59.0386C182.802 59.714 182.424 60.2878 181.936 60.7598C181.439 61.2318 180.849 61.5898 180.166 61.834C179.482 62.0781 178.725 62.2002 177.895 62.2002C177.553 62.2002 177.163 62.1595 176.723 62.0781C176.284 62.0049 175.84 61.8787 175.393 61.6997C174.937 61.5288 174.497 61.2969 174.074 61.0039C173.659 60.7109 173.301 60.3488 173 59.9175L174.172 58.5625C174.449 58.8962 174.733 59.1769 175.026 59.4048C175.319 59.6408 175.616 59.828 175.917 59.9663C176.219 60.1047 176.52 60.2023 176.821 60.2593C177.122 60.3244 177.423 60.3569 177.724 60.3569C178.261 60.3569 178.745 60.2796 179.177 60.125C179.608 59.9704 179.978 59.7425 180.288 59.4414C180.589 59.1484 180.821 58.7822 180.983 58.3428C181.146 57.9033 181.228 57.3988 181.228 56.8291V55.6938C181.057 55.8892 180.874 56.0682 180.678 56.231C180.491 56.3937 180.288 56.5361 180.068 56.6582C179.726 56.8454 179.348 56.9878 178.933 57.0854C178.518 57.1912 178.07 57.2441 177.59 57.2441C176.784 57.2441 176.056 57.0732 175.405 56.7314C174.754 56.3896 174.204 55.9176 173.757 55.3154C173.301 54.7132 172.951 54.0052 172.707 53.1914C172.463 52.3695 172.341 51.4865 172.341 50.5425V50.2861ZM174.599 50.5425C174.599 51.1854 174.664 51.7957 174.794 52.3735C174.933 52.9513 175.148 53.46 175.441 53.8994C175.726 54.3389 176.092 54.6888 176.54 54.9492C176.988 55.2015 177.525 55.3276 178.151 55.3276C178.542 55.3276 178.892 55.2829 179.201 55.1934C179.519 55.0957 179.803 54.9614 180.056 54.7905C180.3 54.6196 180.52 54.4162 180.715 54.1802C180.91 53.9442 181.081 53.6838 181.228 53.3989V47.3442C181.081 47.0675 180.91 46.8153 180.715 46.5874C180.52 46.3595 180.296 46.1602 180.043 45.9893C179.791 45.8265 179.51 45.7004 179.201 45.6108C178.892 45.5132 178.55 45.4644 178.176 45.4644C177.541 45.4644 176.996 45.5946 176.54 45.855C176.092 46.1154 175.726 46.4653 175.441 46.9048C175.148 47.3524 174.933 47.8691 174.794 48.4551C174.664 49.0329 174.599 49.6432 174.599 50.2861V50.5425ZM198.159 47.4785H187.258V45.5132H198.159V47.4785ZM198.159 52.5444H187.258V50.5913H198.159V52.5444ZM205.826 39.5806L205.569 44.0972H203.982L203.995 39.7759V38.25H205.826V39.5806ZM210.184 39.5806L209.927 44.0972H208.353L208.365 39.7759V38.25H210.196L210.184 39.5806ZM224.955 43.5479C225.37 43.5479 225.801 43.5763 226.249 43.6333C226.704 43.6903 227.046 43.7676 227.274 43.8652L226.969 46.0747C226.529 45.9771 226.11 45.9079 225.711 45.8672C225.321 45.8184 224.91 45.7939 224.479 45.7939C223.925 45.7939 223.425 45.8631 222.977 46.0015C222.529 46.1317 222.139 46.327 221.805 46.5874C221.504 46.8153 221.24 47.096 221.012 47.4297C220.792 47.7552 220.609 48.1214 220.462 48.5283V57H218.192V43.792H220.34L220.438 45.562L220.45 45.8916C220.987 45.1673 221.63 44.5977 222.379 44.1826C223.136 43.7594 223.994 43.5479 224.955 43.5479ZM239.518 57L239.384 55.1812C238.944 55.8322 238.395 56.3408 237.736 56.707C237.077 57.0651 236.316 57.2441 235.453 57.2441C234.761 57.2441 234.135 57.1383 233.573 56.9268C233.012 56.707 232.532 56.3693 232.133 55.9136C231.734 55.4578 231.425 54.88 231.205 54.1802C230.993 53.4722 230.888 52.6258 230.888 51.6411V43.792H233.146V51.6655C233.146 52.3817 233.203 52.9757 233.317 53.4478C233.431 53.9198 233.602 54.2941 233.83 54.5708C234.057 54.8556 234.334 55.055 234.66 55.1689C234.993 55.2829 235.376 55.3398 235.807 55.3398C236.312 55.3398 236.763 55.2829 237.162 55.1689C237.561 55.0469 237.907 54.88 238.2 54.6685C238.444 54.4976 238.655 54.2941 238.834 54.0581C239.022 53.814 239.176 53.5495 239.298 53.2646V43.792H241.569V57H239.518ZM249.37 39.5806L249.113 44.0972H247.526L247.539 39.7759V38.25H249.37V39.5806ZM253.728 39.5806L253.471 44.0972H251.896L251.909 39.7759V38.25H253.74L253.728 39.5806ZM259.893 54.5952V52.2515L267.791 49.2729L268.523 49.0654L267.791 48.8335L259.893 45.9038V43.5723L270.671 48.1865V49.9688L259.893 54.5952Z" fill="white"/>
<path d="M58.897 45.7573C59.076 45.4888 59.2754 45.2446 59.4951 45.0249C59.7148 44.797 59.9468 44.5977 60.1909 44.4268C60.5815 44.1419 61.0088 43.9263 61.4727 43.7798C61.9447 43.6333 62.4451 43.556 62.9741 43.5479C63.6659 43.5479 64.2925 43.6496 64.854 43.853C65.4237 44.0483 65.9079 44.3576 66.3066 44.7808C66.7054 45.2039 67.0106 45.741 67.2222 46.3921C67.4419 47.035 67.5518 47.8 67.5518 48.687V57H65.2935V48.6626C65.2935 48.1418 65.2324 47.686 65.1104 47.2954C64.9883 46.8966 64.8092 46.5671 64.5732 46.3066C64.321 46.0218 64.0036 45.8102 63.6211 45.6719C63.2386 45.5254 62.7992 45.4562 62.3027 45.4644C61.8958 45.4644 61.5093 45.5213 61.1431 45.6353C60.7769 45.7492 60.4391 45.9119 60.1299 46.1235C59.8857 46.2863 59.6579 46.4775 59.4463 46.6973C59.2428 46.9089 59.0597 47.1449 58.897 47.4053V57H56.6387V38.25H58.897V45.7573ZM76.5 40.5938V43.792H81.5293V45.5376H76.5V52.7153C76.5 53.228 76.5651 53.6512 76.6953 53.9849C76.8255 54.3185 77.0046 54.583 77.2324 54.7783C77.4603 54.9818 77.7207 55.1242 78.0137 55.2056C78.3148 55.2869 78.6322 55.3276 78.9658 55.3276C79.21 55.3276 79.4622 55.3154 79.7227 55.291C79.9831 55.2585 80.2394 55.2218 80.4917 55.1812C80.7358 55.1405 80.9637 55.0998 81.1753 55.0591C81.395 55.0103 81.5741 54.9696 81.7124 54.937L82.0298 56.5361C81.8426 56.6501 81.6147 56.7518 81.3462 56.8413C81.0776 56.9227 80.7847 56.9919 80.4673 57.0488C80.1499 57.1139 79.8122 57.1628 79.4541 57.1953C79.1042 57.2279 78.7542 57.2441 78.4043 57.2441C77.8184 57.2441 77.269 57.1628 76.7563 57C76.2518 56.8291 75.8123 56.5605 75.438 56.1943C75.0636 55.8363 74.7666 55.3724 74.5469 54.8027C74.3353 54.2249 74.2295 53.5291 74.2295 52.7153V45.5376H70.7627V43.792H74.2295V40.5938H76.5ZM86.7056 43.792L86.7666 45.0371C87.0352 44.5732 87.3851 44.2111 87.8164 43.9507C88.2559 43.6903 88.7848 43.556 89.4033 43.5479C89.7533 43.5479 90.0666 43.5885 90.3433 43.6699C90.6281 43.7432 90.8763 43.853 91.0879 43.9995C91.2425 44.1134 91.3809 44.2518 91.5029 44.4146C91.6331 44.5773 91.743 44.7604 91.8325 44.9639C91.9465 44.7767 92.0807 44.6017 92.2354 44.439C92.39 44.2762 92.5568 44.1338 92.7358 44.0117C92.9637 43.8734 93.216 43.7635 93.4927 43.6821C93.7775 43.6007 94.0868 43.556 94.4204 43.5479C94.8761 43.5479 95.2871 43.617 95.6533 43.7554C96.0195 43.8856 96.3288 44.0809 96.5811 44.3413C96.8577 44.6343 97.0693 45.0168 97.2158 45.4888C97.3623 45.9526 97.4355 46.502 97.4355 47.1367V57H95.2871V47.1123C95.2871 46.8356 95.2546 46.5915 95.1895 46.3799C95.1243 46.1683 95.0308 45.9933 94.9087 45.855C94.7785 45.7248 94.6157 45.6271 94.4204 45.562C94.2332 45.4969 94.0135 45.4644 93.7612 45.4644C93.4927 45.4644 93.2607 45.501 93.0654 45.5742C92.8701 45.6475 92.7074 45.7451 92.5771 45.8672C92.4469 45.9974 92.3452 46.1479 92.272 46.3188C92.1987 46.4816 92.1499 46.6647 92.1255 46.8682C92.1255 46.9089 92.1255 46.9495 92.1255 46.9902C92.1255 47.0228 92.1255 47.0635 92.1255 47.1123V57H89.9771V47.1001C89.9771 46.8234 89.9445 46.5793 89.8794 46.3677C89.8224 46.1561 89.7288 45.9811 89.5986 45.8428C89.4766 45.7126 89.3219 45.619 89.1348 45.562C88.9557 45.4969 88.7441 45.4644 88.5 45.4644C88.2314 45.4644 87.9954 45.4969 87.792 45.562C87.5967 45.619 87.4299 45.7044 87.2915 45.8184C87.1857 45.9079 87.0921 46.0096 87.0107 46.1235C86.9375 46.2375 86.8765 46.3595 86.8276 46.4897V57H84.6792V43.792H86.7056ZM100.537 38.25H107.287V55.0469H111.596V57H100.537V55.0469H105.029V40.2153H100.537V38.25Z" fill="#0066FF"/>
</svg>
