<svg width="1399" height="149" viewBox="0 0 1399 149" fill="none" xmlns="http://www.w3.org/2000/svg">
<rect width="1399" height="149" rx="20" fill="#0066FF" fill-opacity="0.2"/>
<rect x="1.5" y="1.5" width="1396" height="146" rx="18.5" stroke="#0066FF" stroke-opacity="0.5" stroke-width="3"/>
<path d="M52.4268 48.6074L42.0752 43.981V42.1987L52.4268 37.5845V39.9771L44.9561 42.9067L44.3091 43.1143L44.9561 43.334L52.4268 46.2148V48.6074ZM71.2021 48.5952V46.2515L79.1001 43.2729L79.8325 43.0654L79.1001 42.8335L71.2021 39.9038V37.5723L81.981 42.1865V43.9688L71.2021 48.5952ZM94.1519 46.3979H88.2192L86.791 51H84.5327L90.27 33.2266H92.1621L97.8018 51H95.5557L94.1519 46.3979ZM88.8296 44.4326H93.5537L91.21 36.7178L88.8296 44.4326ZM105.944 38.5488C106.807 38.5488 107.576 38.7035 108.251 39.0127C108.927 39.3138 109.501 39.7288 109.973 40.2578C110.445 40.7949 110.803 41.4297 111.047 42.1621C111.299 42.8864 111.425 43.6758 111.425 44.5303V44.811C111.425 45.7306 111.291 46.5811 111.022 47.3623C110.762 48.1436 110.38 48.8231 109.875 49.4009C109.37 49.9787 108.752 50.4303 108.02 50.7559C107.295 51.0814 106.469 51.2441 105.542 51.2441C104.614 51.2441 103.784 51.0814 103.051 50.7559C102.319 50.4303 101.7 49.9787 101.196 49.4009C100.691 48.8231 100.305 48.1436 100.036 47.3623C99.7676 46.5811 99.6333 45.7306 99.6333 44.811V43.6025C99.6333 42.8376 99.6699 42.1214 99.7432 41.4541C99.8245 40.7786 99.9385 40.1561 100.085 39.5864C100.223 39.0575 100.39 38.5651 100.585 38.1094C100.781 37.6536 101.005 37.2345 101.257 36.8521C101.77 36.0708 102.392 35.4482 103.125 34.9844C103.865 34.5124 104.687 34.1909 105.59 34.02C106.022 33.9386 106.42 33.8532 106.787 33.7637C107.161 33.666 107.486 33.5439 107.763 33.3975C108.032 33.2591 108.243 33.0841 108.398 32.8726C108.553 32.6528 108.63 32.3761 108.63 32.0425H110.485C110.485 32.7993 110.367 33.4097 110.131 33.8735C109.903 34.3374 109.582 34.7077 109.167 34.9844C108.801 35.2285 108.394 35.4116 107.946 35.5337C107.507 35.6558 106.884 35.8022 106.079 35.9731C105.509 36.0952 104.976 36.2661 104.479 36.4858C103.983 36.6974 103.54 36.9863 103.149 37.3525C102.758 37.7188 102.429 38.1704 102.16 38.7075C101.892 39.2365 101.696 39.8753 101.574 40.624C101.835 40.3229 102.124 40.0462 102.441 39.7939C102.758 39.5335 103.1 39.3097 103.466 39.1226C103.833 38.9435 104.223 38.8052 104.638 38.7075C105.053 38.6017 105.489 38.5488 105.944 38.5488ZM105.517 40.4043C104.899 40.4043 104.361 40.5182 103.906 40.7461C103.45 40.9658 103.076 41.2629 102.783 41.6372C102.482 42.0197 102.258 42.4591 102.111 42.9556C101.965 43.452 101.892 43.9769 101.892 44.5303V44.811C101.892 45.4295 101.965 46.0195 102.111 46.5811C102.258 47.1344 102.482 47.6187 102.783 48.0337C103.076 48.4569 103.45 48.7946 103.906 49.0469C104.37 49.291 104.915 49.4131 105.542 49.4131C106.16 49.4131 106.693 49.291 107.141 49.0469C107.596 48.7946 107.975 48.4569 108.276 48.0337C108.577 47.6187 108.801 47.1344 108.947 46.5811C109.094 46.0195 109.167 45.4295 109.167 44.811V44.5303C109.167 43.9769 109.094 43.452 108.947 42.9556C108.801 42.4591 108.577 42.0197 108.276 41.6372C107.975 41.2629 107.592 40.9658 107.128 40.7461C106.673 40.5182 106.136 40.4043 105.517 40.4043ZM114.221 47.0938H116.479C116.479 47.4111 116.573 47.7122 116.76 47.9971C116.947 48.2738 117.208 48.5179 117.542 48.7295C117.875 48.9492 118.27 49.1242 118.726 49.2544C119.181 49.3765 119.674 49.4375 120.203 49.4375C120.723 49.4375 121.2 49.3846 121.631 49.2788C122.062 49.1649 122.432 49.0103 122.742 48.8149C123.043 48.6196 123.275 48.3918 123.438 48.1313C123.608 47.8709 123.694 47.5902 123.694 47.2891C123.694 46.9147 123.617 46.5973 123.462 46.3369C123.307 46.0684 123.083 45.8486 122.791 45.6777C122.644 45.5964 122.481 45.5272 122.302 45.4702C122.123 45.4132 121.932 45.3644 121.729 45.3237C121.525 45.283 121.305 45.2546 121.069 45.2383C120.833 45.222 120.589 45.2139 120.337 45.2139H117.395V43.3096H120.337C120.597 43.3096 120.841 43.3014 121.069 43.2852C121.297 43.2607 121.505 43.2282 121.692 43.1875C121.928 43.1387 122.139 43.0736 122.327 42.9922C122.522 42.9108 122.693 42.8172 122.839 42.7114C123.043 42.5568 123.197 42.3696 123.303 42.1499C123.409 41.9302 123.462 41.682 123.462 41.4053C123.462 41.1286 123.389 40.8682 123.242 40.624C123.104 40.3799 122.9 40.1642 122.632 39.9771C122.355 39.798 122.013 39.6556 121.606 39.5498C121.2 39.444 120.732 39.3911 120.203 39.3911C119.731 39.3911 119.283 39.444 118.86 39.5498C118.437 39.6556 118.066 39.798 117.749 39.9771C117.424 40.1642 117.163 40.388 116.968 40.6484C116.781 40.9007 116.687 41.1774 116.687 41.4785H114.429C114.437 40.8682 114.596 40.3229 114.905 39.8428C115.222 39.3545 115.645 38.9395 116.174 38.5977C116.695 38.264 117.301 38.0076 117.993 37.8286C118.693 37.6496 119.43 37.5601 120.203 37.5601C121.016 37.5601 121.761 37.6414 122.437 37.8042C123.112 37.967 123.694 38.207 124.182 38.5244C124.67 38.8499 125.049 39.2528 125.317 39.7329C125.586 40.2049 125.72 40.7583 125.72 41.3931C125.72 41.7837 125.631 42.1499 125.452 42.4917C125.273 42.8335 125.02 43.1427 124.695 43.4194C124.516 43.5741 124.308 43.7205 124.072 43.8589C123.836 43.9891 123.584 44.1071 123.315 44.2129C123.698 44.3268 124.04 44.4692 124.341 44.6401C124.65 44.8029 124.919 44.9941 125.146 45.2139C125.415 45.4824 125.618 45.7917 125.757 46.1416C125.903 46.4834 125.977 46.8659 125.977 47.2891C125.977 47.9238 125.826 48.4854 125.525 48.9736C125.232 49.4619 124.825 49.8729 124.304 50.2065C123.783 50.5483 123.173 50.8047 122.473 50.9756C121.773 51.1465 121.016 51.2319 120.203 51.2319C119.405 51.2319 118.624 51.1383 117.859 50.9512C117.094 50.764 116.427 50.471 115.857 50.0723C115.377 49.7467 114.982 49.3358 114.673 48.8394C114.372 48.3348 114.221 47.7529 114.221 47.0938ZM137.891 51C137.802 50.8291 137.728 50.6175 137.671 50.3652C137.623 50.1048 137.586 49.8363 137.562 49.5596C137.334 49.7874 137.077 50.0031 136.792 50.2065C136.516 50.41 136.211 50.589 135.877 50.7437C135.535 50.8983 135.173 51.0203 134.791 51.1099C134.408 51.1994 134.001 51.2441 133.57 51.2441C132.87 51.2441 132.235 51.1424 131.666 50.939C131.104 50.7355 130.628 50.4588 130.237 50.1089C129.839 49.7671 129.529 49.3602 129.31 48.8882C129.098 48.408 128.992 47.8913 128.992 47.3379C128.992 46.6136 129.135 45.9788 129.419 45.4336C129.712 44.8883 130.123 44.4326 130.652 44.0664C131.181 43.7083 131.816 43.4398 132.557 43.2607C133.305 43.0817 134.139 42.9922 135.059 42.9922H137.525V41.9546C137.525 41.5558 137.452 41.1978 137.305 40.8804C137.159 40.563 136.951 40.2904 136.683 40.0625C136.414 39.8428 136.084 39.6719 135.694 39.5498C135.311 39.4277 134.88 39.3667 134.4 39.3667C133.952 39.3667 133.549 39.4237 133.191 39.5376C132.841 39.6515 132.544 39.8021 132.3 39.9893C132.056 40.1764 131.865 40.4002 131.727 40.6606C131.596 40.9129 131.531 41.1774 131.531 41.4541H129.261C129.269 40.974 129.391 40.502 129.627 40.0381C129.871 39.5742 130.221 39.1551 130.677 38.7808C131.124 38.4146 131.67 38.1175 132.312 37.8896C132.964 37.6618 133.7 37.5479 134.522 37.5479C135.271 37.5479 135.966 37.6414 136.609 37.8286C137.252 38.0076 137.81 38.2803 138.282 38.6465C138.746 39.0208 139.112 39.4847 139.38 40.0381C139.649 40.5915 139.783 41.2384 139.783 41.979V48.1191C139.783 48.5586 139.824 49.0265 139.905 49.5229C139.987 50.0112 140.101 50.4385 140.247 50.8047V51H137.891ZM133.899 49.2788C134.339 49.2788 134.75 49.2218 135.132 49.1079C135.515 48.994 135.865 48.8434 136.182 48.6562C136.491 48.4691 136.76 48.2575 136.988 48.0215C137.216 47.7773 137.395 47.5251 137.525 47.2646V44.5913H135.425C134.644 44.5913 133.96 44.6605 133.375 44.7988C132.797 44.929 132.337 45.1325 131.995 45.4092C131.751 45.6045 131.564 45.8364 131.434 46.105C131.312 46.3735 131.25 46.6787 131.25 47.0205C131.25 47.346 131.303 47.6471 131.409 47.9238C131.523 48.2005 131.69 48.4365 131.91 48.6318C132.129 48.8353 132.406 48.994 132.74 49.1079C133.073 49.2218 133.46 49.2788 133.899 49.2788ZM143.678 37.792H145.936V49.1567H152.015V37.792H154.286V49.1567H155.86L155.641 54.9185H153.614V51H143.678V37.792ZM183.608 51H181.35V39.6597H174.904V51H172.646V37.792H183.608V51ZM187.258 56.0781V37.792H189.321L189.431 39.2324C189.61 39.0046 189.806 38.8011 190.017 38.6221C190.229 38.4349 190.457 38.2762 190.701 38.146C191.042 37.9507 191.421 37.8042 191.836 37.7065C192.259 37.6007 192.711 37.5479 193.191 37.5479C194.037 37.5479 194.786 37.7147 195.437 38.0483C196.088 38.382 196.633 38.8459 197.073 39.4399C197.512 40.034 197.846 40.7461 198.074 41.5762C198.302 42.3981 198.416 43.3014 198.416 44.2861V44.5425C198.416 45.4865 198.302 46.3695 198.074 47.1914C197.846 48.0052 197.512 48.7132 197.073 49.3154C196.633 49.9176 196.088 50.3896 195.437 50.7314C194.794 51.0732 194.058 51.2441 193.228 51.2441C192.723 51.2441 192.251 51.1912 191.812 51.0854C191.38 50.9797 190.99 50.8291 190.64 50.6338C190.428 50.5117 190.229 50.3774 190.042 50.231C189.854 50.0763 189.679 49.9095 189.517 49.7305V56.0781H187.258ZM196.157 44.2861C196.157 43.6432 196.084 43.0329 195.938 42.4551C195.799 41.8691 195.583 41.3524 195.291 40.9048C194.989 40.4653 194.611 40.1154 194.155 39.855C193.7 39.5946 193.154 39.4644 192.52 39.4644C192.17 39.4644 191.844 39.505 191.543 39.5864C191.25 39.6678 190.986 39.7858 190.75 39.9404C190.489 40.0951 190.257 40.2863 190.054 40.5142C189.85 40.742 189.671 40.9943 189.517 41.271V47.6309C189.655 47.875 189.814 48.1029 189.993 48.3145C190.172 48.526 190.375 48.7051 190.603 48.8516C190.863 49.0225 191.152 49.1567 191.47 49.2544C191.795 49.3521 192.153 49.4009 192.544 49.4009C193.171 49.4009 193.712 49.2707 194.167 49.0103C194.623 48.7417 194.998 48.3836 195.291 47.936C195.583 47.4884 195.799 46.9717 195.938 46.3857C196.084 45.7998 196.157 45.1854 196.157 44.5425V44.2861ZM201.15 44.2739C201.15 43.3218 201.289 42.4388 201.565 41.625C201.842 40.8031 202.241 40.091 202.762 39.4888C203.274 38.8866 203.901 38.4146 204.642 38.0728C205.382 37.7228 206.216 37.5479 207.144 37.5479C208.08 37.5479 208.918 37.7228 209.659 38.0728C210.407 38.4146 211.042 38.8866 211.563 39.4888C212.076 40.091 212.47 40.8031 212.747 41.625C213.024 42.4388 213.162 43.3218 213.162 44.2739V44.5425C213.162 45.4946 213.024 46.3776 212.747 47.1914C212.47 48.0052 212.076 48.7132 211.563 49.3154C211.042 49.9176 210.411 50.3896 209.671 50.7314C208.93 51.0732 208.096 51.2441 207.168 51.2441C206.233 51.2441 205.39 51.0732 204.642 50.7314C203.901 50.3896 203.274 49.9176 202.762 49.3154C202.241 48.7132 201.842 48.0052 201.565 47.1914C201.289 46.3776 201.15 45.4946 201.15 44.5425V44.2739ZM203.409 44.5425C203.409 45.1935 203.486 45.8161 203.641 46.4102C203.795 46.9961 204.031 47.5129 204.349 47.9604C204.658 48.408 205.049 48.762 205.521 49.0225C205.993 49.2829 206.542 49.4131 207.168 49.4131C207.787 49.4131 208.328 49.2829 208.792 49.0225C209.264 48.762 209.659 48.408 209.976 47.9604C210.285 47.5129 210.517 46.9961 210.672 46.4102C210.826 45.8161 210.904 45.1935 210.904 44.5425V44.2739C210.904 43.631 210.822 43.0166 210.66 42.4307C210.505 41.8366 210.273 41.3158 209.964 40.8682C209.646 40.4206 209.252 40.0666 208.78 39.8062C208.316 39.5376 207.771 39.4033 207.144 39.4033C206.517 39.4033 205.972 39.5376 205.508 39.8062C205.044 40.0666 204.658 40.4206 204.349 40.8682C204.031 41.3158 203.795 41.8366 203.641 42.4307C203.486 43.0166 203.409 43.631 203.409 44.2739V44.5425ZM242.692 39.623H237.418V51H235.148V39.623H229.96V37.792H242.692V39.623ZM244.694 44.2739C244.694 43.3218 244.833 42.4388 245.109 41.625C245.386 40.8031 245.785 40.091 246.306 39.4888C246.818 38.8866 247.445 38.4146 248.186 38.0728C248.926 37.7228 249.76 37.5479 250.688 37.5479C251.624 37.5479 252.462 37.7228 253.203 38.0728C253.951 38.4146 254.586 38.8866 255.107 39.4888C255.62 40.091 256.014 40.8031 256.291 41.625C256.568 42.4388 256.706 43.3218 256.706 44.2739V44.5425C256.706 45.4946 256.568 46.3776 256.291 47.1914C256.014 48.0052 255.62 48.7132 255.107 49.3154C254.586 49.9176 253.955 50.3896 253.215 50.7314C252.474 51.0732 251.64 51.2441 250.712 51.2441C249.777 51.2441 248.934 51.0732 248.186 50.7314C247.445 50.3896 246.818 49.9176 246.306 49.3154C245.785 48.7132 245.386 48.0052 245.109 47.1914C244.833 46.3776 244.694 45.4946 244.694 44.5425V44.2739ZM246.953 44.5425C246.953 45.1935 247.03 45.8161 247.185 46.4102C247.339 46.9961 247.575 47.5129 247.893 47.9604C248.202 48.408 248.592 48.762 249.064 49.0225C249.536 49.2829 250.086 49.4131 250.712 49.4131C251.331 49.4131 251.872 49.2829 252.336 49.0225C252.808 48.762 253.203 48.408 253.52 47.9604C253.829 47.5129 254.061 46.9961 254.216 46.4102C254.37 45.8161 254.448 45.1935 254.448 44.5425V44.2739C254.448 43.631 254.366 43.0166 254.204 42.4307C254.049 41.8366 253.817 41.3158 253.508 40.8682C253.19 40.4206 252.796 40.0666 252.324 39.8062C251.86 39.5376 251.315 39.4033 250.688 39.4033C250.061 39.4033 249.516 39.5376 249.052 39.8062C248.588 40.0666 248.202 40.4206 247.893 40.8682C247.575 41.3158 247.339 41.8366 247.185 42.4307C247.03 43.0166 246.953 43.631 246.953 44.2739V44.5425ZM265.569 50.4751C265.569 51.2889 265.378 52.119 264.995 52.9653C264.613 53.8117 264.096 54.5238 263.445 55.1016L262.041 54.3325C262.432 53.7629 262.708 53.1566 262.871 52.5137C263.034 51.8708 263.115 51.2035 263.115 50.5117V48.3267H265.569V50.4751ZM293.158 45.3726H291.009V51H288.751V37.792H291.009V43.3828H292.962L297.882 37.792H300.628L294.964 44.1519L301.068 51H298.199L293.158 45.3726ZM312.067 51C311.977 50.8291 311.904 50.6175 311.847 50.3652C311.798 50.1048 311.762 49.8363 311.737 49.5596C311.509 49.7874 311.253 50.0031 310.968 50.2065C310.692 50.41 310.386 50.589 310.053 50.7437C309.711 50.8983 309.349 51.0203 308.966 51.1099C308.584 51.1994 308.177 51.2441 307.746 51.2441C307.046 51.2441 306.411 51.1424 305.841 50.939C305.28 50.7355 304.804 50.4588 304.413 50.1089C304.014 49.7671 303.705 49.3602 303.485 48.8882C303.274 48.408 303.168 47.8913 303.168 47.3379C303.168 46.6136 303.31 45.9788 303.595 45.4336C303.888 44.8883 304.299 44.4326 304.828 44.0664C305.357 43.7083 305.992 43.4398 306.732 43.2607C307.481 43.0817 308.315 42.9922 309.235 42.9922H311.701V41.9546C311.701 41.5558 311.627 41.1978 311.481 40.8804C311.334 40.563 311.127 40.2904 310.858 40.0625C310.59 39.8428 310.26 39.6719 309.87 39.5498C309.487 39.4277 309.056 39.3667 308.576 39.3667C308.128 39.3667 307.725 39.4237 307.367 39.5376C307.017 39.6515 306.72 39.8021 306.476 39.9893C306.232 40.1764 306.041 40.4002 305.902 40.6606C305.772 40.9129 305.707 41.1774 305.707 41.4541H303.437C303.445 40.974 303.567 40.502 303.803 40.0381C304.047 39.5742 304.397 39.1551 304.853 38.7808C305.3 38.4146 305.845 38.1175 306.488 37.8896C307.139 37.6618 307.876 37.5479 308.698 37.5479C309.446 37.5479 310.142 37.6414 310.785 37.8286C311.428 38.0076 311.986 38.2803 312.458 38.6465C312.921 39.0208 313.288 39.4847 313.556 40.0381C313.825 40.5915 313.959 41.2384 313.959 41.979V48.1191C313.959 48.5586 314 49.0265 314.081 49.5229C314.162 50.0112 314.276 50.4385 314.423 50.8047V51H312.067ZM308.075 49.2788C308.515 49.2788 308.926 49.2218 309.308 49.1079C309.691 48.994 310.041 48.8434 310.358 48.6562C310.667 48.4691 310.936 48.2575 311.164 48.0215C311.391 47.7773 311.57 47.5251 311.701 47.2646V44.5913H309.601C308.82 44.5913 308.136 44.6605 307.55 44.7988C306.972 44.929 306.513 45.1325 306.171 45.4092C305.927 45.6045 305.74 45.8364 305.609 46.105C305.487 46.3735 305.426 46.6787 305.426 47.0205C305.426 47.346 305.479 47.6471 305.585 47.9238C305.699 48.2005 305.866 48.4365 306.085 48.6318C306.305 48.8353 306.582 48.994 306.916 49.1079C307.249 49.2218 307.636 49.2788 308.075 49.2788ZM322.187 45.3726H320.039V51H317.78V37.792H320.039V43.3828H321.992L326.911 37.792H329.658L323.994 44.1519L330.097 51H327.229L322.187 45.3726ZM357.71 37.792V51H355.452V45.8608H351.351L348.213 51H345.772L349.104 45.519C348.258 45.2098 347.607 44.7337 347.151 44.0908C346.696 43.4398 346.468 42.6829 346.468 41.8203C346.468 41.2344 346.582 40.6973 346.81 40.209C347.046 39.7126 347.379 39.2853 347.811 38.9272C348.242 38.5773 348.771 38.3006 349.397 38.0972C350.024 37.8937 350.728 37.792 351.509 37.792H357.71ZM348.738 41.8447C348.738 42.1214 348.787 42.39 348.885 42.6504C348.982 42.9108 349.137 43.1387 349.349 43.334C349.552 43.5374 349.808 43.7002 350.118 43.8223C350.427 43.9443 350.797 44.0054 351.229 44.0054H355.452V39.623H351.509C351.045 39.623 350.639 39.6882 350.289 39.8184C349.939 39.9404 349.65 40.1032 349.422 40.3066C349.194 40.5182 349.023 40.7583 348.909 41.0269C348.795 41.2873 348.738 41.5599 348.738 41.8447ZM375.949 56.0781V37.792H378.012L378.122 39.2324C378.301 39.0046 378.496 38.8011 378.708 38.6221C378.919 38.4349 379.147 38.2762 379.391 38.146C379.733 37.9507 380.111 37.8042 380.526 37.7065C380.95 37.6007 381.401 37.5479 381.881 37.5479C382.728 37.5479 383.476 37.7147 384.127 38.0483C384.778 38.382 385.324 38.8459 385.763 39.4399C386.203 40.034 386.536 40.7461 386.764 41.5762C386.992 42.3981 387.106 43.3014 387.106 44.2861V44.5425C387.106 45.4865 386.992 46.3695 386.764 47.1914C386.536 48.0052 386.203 48.7132 385.763 49.3154C385.324 49.9176 384.778 50.3896 384.127 50.7314C383.485 51.0732 382.748 51.2441 381.918 51.2441C381.413 51.2441 380.941 51.1912 380.502 51.0854C380.071 50.9797 379.68 50.8291 379.33 50.6338C379.118 50.5117 378.919 50.3774 378.732 50.231C378.545 50.0763 378.37 49.9095 378.207 49.7305V56.0781H375.949ZM384.848 44.2861C384.848 43.6432 384.774 43.0329 384.628 42.4551C384.49 41.8691 384.274 41.3524 383.981 40.9048C383.68 40.4653 383.301 40.1154 382.846 39.855C382.39 39.5946 381.845 39.4644 381.21 39.4644C380.86 39.4644 380.535 39.505 380.233 39.5864C379.94 39.6678 379.676 39.7858 379.44 39.9404C379.18 40.0951 378.948 40.2863 378.744 40.5142C378.541 40.742 378.362 40.9943 378.207 41.271V47.6309C378.345 47.875 378.504 48.1029 378.683 48.3145C378.862 48.526 379.066 48.7051 379.293 48.8516C379.554 49.0225 379.843 49.1567 380.16 49.2544C380.486 49.3521 380.844 49.4009 381.234 49.4009C381.861 49.4009 382.402 49.2707 382.858 49.0103C383.314 48.7417 383.688 48.3836 383.981 47.936C384.274 47.4884 384.49 46.9717 384.628 46.3857C384.774 45.7998 384.848 45.1854 384.848 44.5425V44.2861ZM396.311 51.2441C395.383 51.2441 394.528 51.0854 393.747 50.7681C392.974 50.4507 392.311 50.0072 391.757 49.4375C391.204 48.8678 390.773 48.1924 390.463 47.4111C390.154 46.6299 390 45.7795 390 44.8599V44.3472C390 43.2811 390.17 42.3289 390.512 41.4907C390.854 40.6444 391.31 39.9282 391.879 39.3423C392.441 38.7645 393.08 38.321 393.796 38.0117C394.52 37.7025 395.261 37.5479 396.018 37.5479C396.97 37.5479 397.8 37.7147 398.508 38.0483C399.224 38.3739 399.818 38.8255 400.29 39.4033C400.762 39.9893 401.112 40.6769 401.34 41.4663C401.576 42.2557 401.694 43.1102 401.694 44.0298V45.043H392.258V45.1284C392.315 45.7713 392.441 46.3369 392.636 46.8252C392.84 47.3135 393.116 47.7448 393.466 48.1191C393.824 48.5179 394.256 48.8312 394.76 49.0591C395.265 49.2869 395.822 49.4009 396.433 49.4009C397.238 49.4009 397.954 49.2381 398.581 48.9126C399.208 48.5871 399.729 48.1558 400.144 47.6187L401.523 48.6929C401.083 49.3602 400.424 49.9543 399.545 50.4751C398.675 50.9878 397.596 51.2441 396.311 51.2441ZM396.018 39.4033C395.562 39.4033 395.131 39.4888 394.724 39.6597C394.317 39.8224 393.951 40.0625 393.625 40.3799C393.299 40.7054 393.023 41.1042 392.795 41.5762C392.575 42.04 392.421 42.5771 392.331 43.1875H399.436V43.0776C399.436 42.6707 399.358 42.2354 399.204 41.7715C399.049 41.2995 398.833 40.8926 398.557 40.5508C398.28 40.209 397.93 39.9323 397.507 39.7207C397.092 39.5091 396.595 39.4033 396.018 39.4033ZM406.699 37.792V49.1567H409.238V37.792H411.497V49.1567H414.036V37.792H416.294V51H404.441V37.792H406.699ZM428.099 37.792H430.357V51H428.099V41.2588L421.641 51H419.395V37.792H421.641V47.5454L428.099 37.792ZM444.859 37.792V51H442.589V39.6597H437.73L437.718 43.4438C437.718 43.8914 437.706 44.3268 437.682 44.75C437.665 45.165 437.637 45.5597 437.596 45.9341C437.531 46.5526 437.429 47.1222 437.291 47.6431C437.153 48.1639 436.978 48.6237 436.766 49.0225C436.424 49.6654 435.965 50.1577 435.387 50.4995C434.809 50.8332 434.089 51 433.226 51H432.567L432.604 48.9858L433.104 48.9736C433.568 48.9736 433.95 48.8597 434.251 48.6318C434.561 48.3958 434.805 48.0459 434.984 47.582C435.073 47.3298 435.151 47.0409 435.216 46.7153C435.281 46.3817 435.334 46.0155 435.375 45.6167C435.399 45.2993 435.415 44.9616 435.423 44.6035C435.44 44.2373 435.448 43.8507 435.448 43.4438L435.472 37.792H444.859ZM468.676 49.4131C469.083 49.4131 469.478 49.348 469.86 49.2178C470.251 49.0876 470.597 48.9045 470.898 48.6685C471.199 48.4406 471.439 48.172 471.618 47.8628C471.805 47.5454 471.903 47.2036 471.911 46.8374H474.047C474.039 47.4233 473.885 47.9849 473.583 48.522C473.291 49.0509 472.896 49.5148 472.399 49.9136C471.903 50.3205 471.333 50.646 470.69 50.8901C470.048 51.1261 469.376 51.2441 468.676 51.2441C467.675 51.2441 466.8 51.0651 466.052 50.707C465.303 50.349 464.681 49.8647 464.184 49.2544C463.68 48.6522 463.301 47.9564 463.049 47.167C462.797 46.3695 462.67 45.5312 462.67 44.6523V44.1396C462.67 43.2689 462.797 42.4347 463.049 41.6372C463.301 40.8397 463.68 40.1357 464.184 39.5254C464.681 38.9232 465.303 38.443 466.052 38.085C466.8 37.7269 467.675 37.5479 468.676 37.5479C469.458 37.5479 470.174 37.674 470.825 37.9263C471.484 38.1704 472.054 38.5041 472.534 38.9272C473.006 39.3586 473.376 39.8672 473.645 40.4531C473.913 41.0391 474.047 41.6657 474.047 42.333H471.911C471.903 41.9342 471.813 41.5599 471.643 41.21C471.48 40.8519 471.256 40.5386 470.971 40.27C470.686 40.0015 470.345 39.7899 469.946 39.6353C469.555 39.4806 469.132 39.4033 468.676 39.4033C467.976 39.4033 467.386 39.5457 466.906 39.8306C466.434 40.1073 466.052 40.4694 465.759 40.917C465.466 41.3727 465.254 41.8813 465.124 42.4429C465.002 43.0044 464.941 43.57 464.941 44.1396V44.6523C464.941 45.2301 465.002 45.8039 465.124 46.3735C465.254 46.9351 465.466 47.4396 465.759 47.8872C466.044 48.3429 466.422 48.7132 466.894 48.998C467.374 49.2747 467.968 49.4131 468.676 49.4131ZM489.441 39.623H484.167V51H481.897V39.623H476.709V37.792H489.441V39.623ZM500.757 51C500.668 50.8291 500.595 50.6175 500.538 50.3652C500.489 50.1048 500.452 49.8363 500.428 49.5596C500.2 49.7874 499.944 50.0031 499.659 50.2065C499.382 50.41 499.077 50.589 498.743 50.7437C498.401 50.8983 498.039 51.0203 497.657 51.1099C497.274 51.1994 496.867 51.2441 496.436 51.2441C495.736 51.2441 495.101 51.1424 494.532 50.939C493.97 50.7355 493.494 50.4588 493.104 50.1089C492.705 49.7671 492.396 49.3602 492.176 48.8882C491.964 48.408 491.858 47.8913 491.858 47.3379C491.858 46.6136 492.001 45.9788 492.286 45.4336C492.579 44.8883 492.99 44.4326 493.519 44.0664C494.048 43.7083 494.682 43.4398 495.423 43.2607C496.172 43.0817 497.006 42.9922 497.925 42.9922H500.391V41.9546C500.391 41.5558 500.318 41.1978 500.171 40.8804C500.025 40.563 499.817 40.2904 499.549 40.0625C499.28 39.8428 498.951 39.6719 498.56 39.5498C498.178 39.4277 497.746 39.3667 497.266 39.3667C496.819 39.3667 496.416 39.4237 496.058 39.5376C495.708 39.6515 495.411 39.8021 495.167 39.9893C494.922 40.1764 494.731 40.4002 494.593 40.6606C494.463 40.9129 494.397 41.1774 494.397 41.4541H492.127C492.135 40.974 492.257 40.502 492.493 40.0381C492.737 39.5742 493.087 39.1551 493.543 38.7808C493.991 38.4146 494.536 38.1175 495.179 37.8896C495.83 37.6618 496.566 37.5479 497.388 37.5479C498.137 37.5479 498.833 37.6414 499.476 37.8286C500.118 38.0076 500.676 38.2803 501.148 38.6465C501.612 39.0208 501.978 39.4847 502.247 40.0381C502.515 40.5915 502.649 41.2384 502.649 41.979V48.1191C502.649 48.5586 502.69 49.0265 502.771 49.5229C502.853 50.0112 502.967 50.4385 503.113 50.8047V51H500.757ZM496.766 49.2788C497.205 49.2788 497.616 49.2218 497.999 49.1079C498.381 48.994 498.731 48.8434 499.048 48.6562C499.358 48.4691 499.626 48.2575 499.854 48.0215C500.082 47.7773 500.261 47.5251 500.391 47.2646V44.5913H498.292C497.51 44.5913 496.827 44.6605 496.241 44.7988C495.663 44.929 495.203 45.1325 494.861 45.4092C494.617 45.6045 494.43 45.8364 494.3 46.105C494.178 46.3735 494.117 46.6787 494.117 47.0205C494.117 47.346 494.17 47.6471 494.275 47.9238C494.389 48.2005 494.556 48.4365 494.776 48.6318C494.996 48.8353 495.272 48.994 495.606 49.1079C495.94 49.2218 496.326 49.2788 496.766 49.2788ZM518.47 39.623H513.197V51H510.926V39.623H505.738V37.792H518.47V39.623ZM523.256 42.7969H527.296C528.086 42.7969 528.786 42.8986 529.396 43.1021C530.014 43.2974 530.535 43.5741 530.958 43.9321C531.382 44.2902 531.703 44.7174 531.923 45.2139C532.151 45.7103 532.265 46.2555 532.265 46.8496C532.265 47.4355 532.155 47.9849 531.935 48.4976C531.715 49.0021 531.394 49.4375 530.971 49.8037C530.548 50.1781 530.027 50.471 529.408 50.6826C528.79 50.8942 528.086 51 527.296 51H520.998V37.792H523.256V42.7969ZM523.256 44.6401V49.1567H527.296C527.768 49.1567 528.175 49.0957 528.517 48.9736C528.859 48.8516 529.14 48.6888 529.359 48.4854C529.579 48.2819 529.738 48.0459 529.835 47.7773C529.941 47.5088 529.994 47.228 529.994 46.9351C529.994 46.6502 529.941 46.3735 529.835 46.105C529.73 45.8283 529.567 45.5801 529.347 45.3604C529.127 45.1488 528.847 44.9779 528.505 44.8477C528.171 44.7093 527.768 44.6401 527.296 44.6401H523.256ZM550.125 56.0781V37.792H552.188L552.297 39.2324C552.476 39.0046 552.672 38.8011 552.883 38.6221C553.095 38.4349 553.323 38.2762 553.567 38.146C553.909 37.9507 554.287 37.8042 554.702 37.7065C555.125 37.6007 555.577 37.5479 556.057 37.5479C556.903 37.5479 557.652 37.7147 558.303 38.0483C558.954 38.382 559.5 38.8459 559.939 39.4399C560.378 40.034 560.712 40.7461 560.94 41.5762C561.168 42.3981 561.282 43.3014 561.282 44.2861V44.5425C561.282 45.4865 561.168 46.3695 560.94 47.1914C560.712 48.0052 560.378 48.7132 559.939 49.3154C559.5 49.9176 558.954 50.3896 558.303 50.7314C557.66 51.0732 556.924 51.2441 556.094 51.2441C555.589 51.2441 555.117 51.1912 554.678 51.0854C554.246 50.9797 553.856 50.8291 553.506 50.6338C553.294 50.5117 553.095 50.3774 552.908 50.231C552.721 50.0763 552.546 49.9095 552.383 49.7305V56.0781H550.125ZM559.023 44.2861C559.023 43.6432 558.95 43.0329 558.804 42.4551C558.665 41.8691 558.45 41.3524 558.157 40.9048C557.856 40.4653 557.477 40.1154 557.021 39.855C556.566 39.5946 556.021 39.4644 555.386 39.4644C555.036 39.4644 554.71 39.505 554.409 39.5864C554.116 39.6678 553.852 39.7858 553.616 39.9404C553.355 40.0951 553.123 40.2863 552.92 40.5142C552.716 40.742 552.537 40.9943 552.383 41.271V47.6309C552.521 47.875 552.68 48.1029 552.859 48.3145C553.038 48.526 553.241 48.7051 553.469 48.8516C553.73 49.0225 554.019 49.1567 554.336 49.2544C554.661 49.3521 555.02 49.4009 555.41 49.4009C556.037 49.4009 556.578 49.2707 557.034 49.0103C557.489 48.7417 557.864 48.3836 558.157 47.936C558.45 47.4884 558.665 46.9717 558.804 46.3857C558.95 45.7998 559.023 45.1854 559.023 44.5425V44.2861ZM573.331 51C573.241 50.8291 573.168 50.6175 573.111 50.3652C573.062 50.1048 573.025 49.8363 573.001 49.5596C572.773 49.7874 572.517 50.0031 572.232 50.2065C571.955 50.41 571.65 50.589 571.316 50.7437C570.975 50.8983 570.612 51.0203 570.23 51.1099C569.847 51.1994 569.441 51.2441 569.009 51.2441C568.309 51.2441 567.675 51.1424 567.105 50.939C566.543 50.7355 566.067 50.4588 565.677 50.1089C565.278 49.7671 564.969 49.3602 564.749 48.8882C564.537 48.408 564.432 47.8913 564.432 47.3379C564.432 46.6136 564.574 45.9788 564.859 45.4336C565.152 44.8883 565.563 44.4326 566.092 44.0664C566.621 43.7083 567.256 43.4398 567.996 43.2607C568.745 43.0817 569.579 42.9922 570.499 42.9922H572.964V41.9546C572.964 41.5558 572.891 41.1978 572.745 40.8804C572.598 40.563 572.391 40.2904 572.122 40.0625C571.854 39.8428 571.524 39.6719 571.133 39.5498C570.751 39.4277 570.319 39.3667 569.839 39.3667C569.392 39.3667 568.989 39.4237 568.631 39.5376C568.281 39.6515 567.984 39.8021 567.74 39.9893C567.496 40.1764 567.304 40.4002 567.166 40.6606C567.036 40.9129 566.971 41.1774 566.971 41.4541H564.7C564.708 40.974 564.83 40.502 565.066 40.0381C565.311 39.5742 565.66 39.1551 566.116 38.7808C566.564 38.4146 567.109 38.1175 567.752 37.8896C568.403 37.6618 569.139 37.5479 569.961 37.5479C570.71 37.5479 571.406 37.6414 572.049 37.8286C572.692 38.0076 573.249 38.2803 573.721 38.6465C574.185 39.0208 574.551 39.4847 574.82 40.0381C575.088 40.5915 575.223 41.2384 575.223 41.979V48.1191C575.223 48.5586 575.263 49.0265 575.345 49.5229C575.426 50.0112 575.54 50.4385 575.687 50.8047V51H573.331ZM569.339 49.2788C569.778 49.2788 570.189 49.2218 570.572 49.1079C570.954 48.994 571.304 48.8434 571.622 48.6562C571.931 48.4691 572.199 48.2575 572.427 48.0215C572.655 47.7773 572.834 47.5251 572.964 47.2646V44.5913H570.865C570.083 44.5913 569.4 44.6605 568.814 44.7988C568.236 44.929 567.776 45.1325 567.435 45.4092C567.19 45.6045 567.003 45.8364 566.873 46.105C566.751 46.3735 566.69 46.6787 566.69 47.0205C566.69 47.346 566.743 47.6471 566.849 47.9238C566.963 48.2005 567.129 48.4365 567.349 48.6318C567.569 48.8353 567.846 48.994 568.179 49.1079C568.513 49.2218 568.899 49.2788 569.339 49.2788ZM578.69 47.0938H580.948C580.948 47.4111 581.042 47.7122 581.229 47.9971C581.416 48.2738 581.677 48.5179 582.01 48.7295C582.344 48.9492 582.739 49.1242 583.194 49.2544C583.65 49.3765 584.142 49.4375 584.671 49.4375C585.192 49.4375 585.668 49.3846 586.1 49.2788C586.531 49.1649 586.901 49.0103 587.21 48.8149C587.512 48.6196 587.743 48.3918 587.906 48.1313C588.077 47.8709 588.163 47.5902 588.163 47.2891C588.163 46.9147 588.085 46.5973 587.931 46.3369C587.776 46.0684 587.552 45.8486 587.259 45.6777C587.113 45.5964 586.95 45.5272 586.771 45.4702C586.592 45.4132 586.401 45.3644 586.197 45.3237C585.994 45.283 585.774 45.2546 585.538 45.2383C585.302 45.222 585.058 45.2139 584.806 45.2139H581.864V43.3096H584.806C585.066 43.3096 585.31 43.3014 585.538 43.2852C585.766 43.2607 585.973 43.2282 586.161 43.1875C586.397 43.1387 586.608 43.0736 586.795 42.9922C586.991 42.9108 587.162 42.8172 587.308 42.7114C587.512 42.5568 587.666 42.3696 587.772 42.1499C587.878 41.9302 587.931 41.682 587.931 41.4053C587.931 41.1286 587.857 40.8682 587.711 40.624C587.573 40.3799 587.369 40.1642 587.101 39.9771C586.824 39.798 586.482 39.6556 586.075 39.5498C585.668 39.444 585.2 39.3911 584.671 39.3911C584.199 39.3911 583.752 39.444 583.329 39.5498C582.905 39.6556 582.535 39.798 582.218 39.9771C581.892 40.1642 581.632 40.388 581.437 40.6484C581.249 40.9007 581.156 41.1774 581.156 41.4785H578.897C578.906 40.8682 579.064 40.3229 579.374 39.8428C579.691 39.3545 580.114 38.9395 580.643 38.5977C581.164 38.264 581.77 38.0076 582.462 37.8286C583.162 37.6496 583.898 37.5601 584.671 37.5601C585.485 37.5601 586.23 37.6414 586.905 37.8042C587.581 37.967 588.163 38.207 588.651 38.5244C589.139 38.8499 589.518 39.2528 589.786 39.7329C590.055 40.2049 590.189 40.7583 590.189 41.3931C590.189 41.7837 590.099 42.1499 589.92 42.4917C589.741 42.8335 589.489 43.1427 589.164 43.4194C588.985 43.5741 588.777 43.7205 588.541 43.8589C588.305 43.9891 588.053 44.1071 587.784 44.2129C588.167 44.3268 588.508 44.4692 588.81 44.6401C589.119 44.8029 589.387 44.9941 589.615 45.2139C589.884 45.4824 590.087 45.7917 590.226 46.1416C590.372 46.4834 590.445 46.8659 590.445 47.2891C590.445 47.9238 590.295 48.4854 589.994 48.9736C589.701 49.4619 589.294 49.8729 588.773 50.2065C588.252 50.5483 587.642 50.8047 586.942 50.9756C586.242 51.1465 585.485 51.2319 584.671 51.2319C583.874 51.2319 583.093 51.1383 582.328 50.9512C581.563 50.764 580.895 50.471 580.326 50.0723C579.846 49.7467 579.451 49.3358 579.142 48.8394C578.84 48.3348 578.69 47.7529 578.69 47.0938ZM593.668 56.0781V37.792H595.731L595.841 39.2324C596.02 39.0046 596.216 38.8011 596.427 38.6221C596.639 38.4349 596.867 38.2762 597.111 38.146C597.453 37.9507 597.831 37.8042 598.246 37.7065C598.669 37.6007 599.121 37.5479 599.601 37.5479C600.447 37.5479 601.196 37.7147 601.847 38.0483C602.498 38.382 603.043 38.8459 603.483 39.4399C603.922 40.034 604.256 40.7461 604.484 41.5762C604.712 42.3981 604.826 43.3014 604.826 44.2861V44.5425C604.826 45.4865 604.712 46.3695 604.484 47.1914C604.256 48.0052 603.922 48.7132 603.483 49.3154C603.043 49.9176 602.498 50.3896 601.847 50.7314C601.204 51.0732 600.468 51.2441 599.638 51.2441C599.133 51.2441 598.661 51.1912 598.222 51.0854C597.79 50.9797 597.4 50.8291 597.05 50.6338C596.838 50.5117 596.639 50.3774 596.452 50.231C596.264 50.0763 596.09 49.9095 595.927 49.7305V56.0781H593.668ZM602.567 44.2861C602.567 43.6432 602.494 43.0329 602.348 42.4551C602.209 41.8691 601.994 41.3524 601.701 40.9048C601.4 40.4653 601.021 40.1154 600.565 39.855C600.11 39.5946 599.564 39.4644 598.93 39.4644C598.58 39.4644 598.254 39.505 597.953 39.5864C597.66 39.6678 597.396 39.7858 597.16 39.9404C596.899 40.0951 596.667 40.2863 596.464 40.5142C596.26 40.742 596.081 40.9943 595.927 41.271V47.6309C596.065 47.875 596.224 48.1029 596.403 48.3145C596.582 48.526 596.785 48.7051 597.013 48.8516C597.274 49.0225 597.562 49.1567 597.88 49.2544C598.205 49.3521 598.563 49.4009 598.954 49.4009C599.581 49.4009 600.122 49.2707 600.578 49.0103C601.033 48.7417 601.408 48.3836 601.701 47.936C601.994 47.4884 602.209 46.9717 602.348 46.3857C602.494 45.7998 602.567 45.1854 602.567 44.5425V44.2861ZM616.875 51C616.785 50.8291 616.712 50.6175 616.655 50.3652C616.606 50.1048 616.569 49.8363 616.545 49.5596C616.317 49.7874 616.061 50.0031 615.776 50.2065C615.499 50.41 615.194 50.589 614.86 50.7437C614.519 50.8983 614.156 51.0203 613.774 51.1099C613.391 51.1994 612.985 51.2441 612.553 51.2441C611.853 51.2441 611.219 51.1424 610.649 50.939C610.087 50.7355 609.611 50.4588 609.221 50.1089C608.822 49.7671 608.513 49.3602 608.293 48.8882C608.081 48.408 607.976 47.8913 607.976 47.3379C607.976 46.6136 608.118 45.9788 608.403 45.4336C608.696 44.8883 609.107 44.4326 609.636 44.0664C610.165 43.7083 610.799 43.4398 611.54 43.2607C612.289 43.0817 613.123 42.9922 614.042 42.9922H616.508V41.9546C616.508 41.5558 616.435 41.1978 616.289 40.8804C616.142 40.563 615.935 40.2904 615.666 40.0625C615.397 39.8428 615.068 39.6719 614.677 39.5498C614.295 39.4277 613.863 39.3667 613.383 39.3667C612.936 39.3667 612.533 39.4237 612.175 39.5376C611.825 39.6515 611.528 39.8021 611.284 39.9893C611.04 40.1764 610.848 40.4002 610.71 40.6606C610.58 40.9129 610.515 41.1774 610.515 41.4541H608.244C608.252 40.974 608.374 40.502 608.61 40.0381C608.854 39.5742 609.204 39.1551 609.66 38.7808C610.108 38.4146 610.653 38.1175 611.296 37.8896C611.947 37.6618 612.683 37.5479 613.505 37.5479C614.254 37.5479 614.95 37.6414 615.593 37.8286C616.236 38.0076 616.793 38.2803 617.265 38.6465C617.729 39.0208 618.095 39.4847 618.364 40.0381C618.632 40.5915 618.767 41.2384 618.767 41.979V48.1191C618.767 48.5586 618.807 49.0265 618.889 49.5229C618.97 50.0112 619.084 50.4385 619.23 50.8047V51H616.875ZM612.883 49.2788C613.322 49.2788 613.733 49.2218 614.116 49.1079C614.498 48.994 614.848 48.8434 615.166 48.6562C615.475 48.4691 615.743 48.2575 615.971 48.0215C616.199 47.7773 616.378 47.5251 616.508 47.2646V44.5913H614.409C613.627 44.5913 612.944 44.6605 612.358 44.7988C611.78 44.929 611.32 45.1325 610.979 45.4092C610.734 45.6045 610.547 45.8364 610.417 46.105C610.295 46.3735 610.234 46.6787 610.234 47.0205C610.234 47.346 610.287 47.6471 610.393 47.9238C610.507 48.2005 610.673 48.4365 610.893 48.6318C611.113 48.8353 611.389 48.994 611.723 49.1079C612.057 49.2218 612.443 49.2788 612.883 49.2788ZM628.472 38.5488C629.334 38.5488 630.103 38.7035 630.779 39.0127C631.454 39.3138 632.028 39.7288 632.5 40.2578C632.972 40.7949 633.33 41.4297 633.574 42.1621C633.826 42.8864 633.953 43.6758 633.953 44.5303V44.811C633.953 45.7306 633.818 46.5811 633.55 47.3623C633.289 48.1436 632.907 48.8231 632.402 49.4009C631.898 49.9787 631.279 50.4303 630.547 50.7559C629.823 51.0814 628.997 51.2441 628.069 51.2441C627.141 51.2441 626.311 51.0814 625.579 50.7559C624.846 50.4303 624.228 49.9787 623.723 49.4009C623.219 48.8231 622.832 48.1436 622.563 47.3623C622.295 46.5811 622.161 45.7306 622.161 44.811V43.6025C622.161 42.8376 622.197 42.1214 622.271 41.4541C622.352 40.7786 622.466 40.1561 622.612 39.5864C622.751 39.0575 622.917 38.5651 623.113 38.1094C623.308 37.6536 623.532 37.2345 623.784 36.8521C624.297 36.0708 624.919 35.4482 625.652 34.9844C626.392 34.5124 627.214 34.1909 628.118 34.02C628.549 33.9386 628.948 33.8532 629.314 33.7637C629.688 33.666 630.014 33.5439 630.291 33.3975C630.559 33.2591 630.771 33.0841 630.925 32.8726C631.08 32.6528 631.157 32.3761 631.157 32.0425H633.013C633.013 32.7993 632.895 33.4097 632.659 33.8735C632.431 34.3374 632.109 34.7077 631.694 34.9844C631.328 35.2285 630.921 35.4116 630.474 35.5337C630.034 35.6558 629.412 35.8022 628.606 35.9731C628.036 36.0952 627.503 36.2661 627.007 36.4858C626.51 36.6974 626.067 36.9863 625.676 37.3525C625.286 37.7188 624.956 38.1704 624.688 38.7075C624.419 39.2365 624.224 39.8753 624.102 40.624C624.362 40.3229 624.651 40.0462 624.968 39.7939C625.286 39.5335 625.627 39.3097 625.994 39.1226C626.36 38.9435 626.75 38.8052 627.166 38.7075C627.581 38.6017 628.016 38.5488 628.472 38.5488ZM628.044 40.4043C627.426 40.4043 626.889 40.5182 626.433 40.7461C625.977 40.9658 625.603 41.2629 625.31 41.6372C625.009 42.0197 624.785 42.4591 624.639 42.9556C624.492 43.452 624.419 43.9769 624.419 44.5303V44.811C624.419 45.4295 624.492 46.0195 624.639 46.5811C624.785 47.1344 625.009 47.6187 625.31 48.0337C625.603 48.4569 625.977 48.7946 626.433 49.0469C626.897 49.291 627.442 49.4131 628.069 49.4131C628.687 49.4131 629.22 49.291 629.668 49.0469C630.124 48.7946 630.502 48.4569 630.803 48.0337C631.104 47.6187 631.328 47.1344 631.475 46.5811C631.621 46.0195 631.694 45.4295 631.694 44.811V44.5303C631.694 43.9769 631.621 43.452 631.475 42.9556C631.328 42.4591 631.104 42.0197 630.803 41.6372C630.502 41.2629 630.12 40.9658 629.656 40.7461C629.2 40.5182 628.663 40.4043 628.044 40.4043ZM636.59 44.2739C636.59 43.3218 636.728 42.4388 637.005 41.625C637.282 40.8031 637.68 40.091 638.201 39.4888C638.714 38.8866 639.34 38.4146 640.081 38.0728C640.822 37.7228 641.656 37.5479 642.583 37.5479C643.519 37.5479 644.358 37.7228 645.098 38.0728C645.847 38.4146 646.482 38.8866 647.002 39.4888C647.515 40.091 647.91 40.8031 648.187 41.625C648.463 42.4388 648.602 43.3218 648.602 44.2739V44.5425C648.602 45.4946 648.463 46.3776 648.187 47.1914C647.91 48.0052 647.515 48.7132 647.002 49.3154C646.482 49.9176 645.851 50.3896 645.11 50.7314C644.37 51.0732 643.536 51.2441 642.608 51.2441C641.672 51.2441 640.83 51.0732 640.081 50.7314C639.34 50.3896 638.714 49.9176 638.201 49.3154C637.68 48.7132 637.282 48.0052 637.005 47.1914C636.728 46.3776 636.59 45.4946 636.59 44.5425V44.2739ZM638.848 44.5425C638.848 45.1935 638.925 45.8161 639.08 46.4102C639.235 46.9961 639.471 47.5129 639.788 47.9604C640.097 48.408 640.488 48.762 640.96 49.0225C641.432 49.2829 641.981 49.4131 642.608 49.4131C643.226 49.4131 643.768 49.2829 644.231 49.0225C644.703 48.762 645.098 48.408 645.416 47.9604C645.725 47.5129 645.957 46.9961 646.111 46.4102C646.266 45.8161 646.343 45.1935 646.343 44.5425V44.2739C646.343 43.631 646.262 43.0166 646.099 42.4307C645.944 41.8366 645.713 41.3158 645.403 40.8682C645.086 40.4206 644.691 40.0666 644.219 39.8062C643.755 39.5376 643.21 39.4033 642.583 39.4033C641.957 39.4033 641.412 39.5376 640.948 39.8062C640.484 40.0666 640.097 40.4206 639.788 40.8682C639.471 41.3158 639.235 41.8366 639.08 42.4307C638.925 43.0166 638.848 43.631 638.848 44.2739V44.5425ZM663.617 39.623H658.343V51H656.073V39.623H650.885V37.792H663.617V39.623ZM677.106 51H674.848V46.1782C674.294 46.3166 673.721 46.4224 673.126 46.4956C672.541 46.5688 671.902 46.6055 671.21 46.6055C670.396 46.6055 669.66 46.5037 669 46.3003C668.341 46.0968 667.78 45.7876 667.316 45.3726C666.844 44.9657 666.482 44.453 666.229 43.8345C665.977 43.2078 665.851 42.4754 665.851 41.6372V37.792H668.109V41.6372C668.109 42.1418 668.17 42.5812 668.292 42.9556C668.415 43.3299 668.585 43.6432 668.805 43.8955C669.066 44.1885 669.399 44.4041 669.806 44.5425C670.213 44.6808 670.681 44.75 671.21 44.75C671.584 44.75 671.951 44.7378 672.309 44.7134C672.667 44.689 673.017 44.6523 673.358 44.6035C673.611 44.571 673.859 44.5303 674.103 44.4814C674.355 44.4326 674.604 44.3797 674.848 44.3228V37.792H677.106V51ZM689.362 37.792H691.621V51H689.362V41.2588L682.905 51H680.659V37.792H682.905V47.5454L689.362 37.792ZM699.568 45.3726H697.419V51H695.161V37.792H697.419V43.3828H699.373L704.292 37.792H707.039L701.375 44.1519L707.478 51H704.609L699.568 45.3726ZM709.163 44.2739C709.163 43.3218 709.301 42.4388 709.578 41.625C709.855 40.8031 710.254 40.091 710.774 39.4888C711.287 38.8866 711.914 38.4146 712.654 38.0728C713.395 37.7228 714.229 37.5479 715.157 37.5479C716.093 37.5479 716.931 37.7228 717.671 38.0728C718.42 38.4146 719.055 38.8866 719.576 39.4888C720.088 40.091 720.483 40.8031 720.76 41.625C721.036 42.4388 721.175 43.3218 721.175 44.2739V44.5425C721.175 45.4946 721.036 46.3776 720.76 47.1914C720.483 48.0052 720.088 48.7132 719.576 49.3154C719.055 49.9176 718.424 50.3896 717.684 50.7314C716.943 51.0732 716.109 51.2441 715.181 51.2441C714.245 51.2441 713.403 51.0732 712.654 50.7314C711.914 50.3896 711.287 49.9176 710.774 49.3154C710.254 48.7132 709.855 48.0052 709.578 47.1914C709.301 46.3776 709.163 45.4946 709.163 44.5425V44.2739ZM711.421 44.5425C711.421 45.1935 711.499 45.8161 711.653 46.4102C711.808 46.9961 712.044 47.5129 712.361 47.9604C712.671 48.408 713.061 48.762 713.533 49.0225C714.005 49.2829 714.555 49.4131 715.181 49.4131C715.8 49.4131 716.341 49.2829 716.805 49.0225C717.277 48.762 717.671 48.408 717.989 47.9604C718.298 47.5129 718.53 46.9961 718.685 46.4102C718.839 45.8161 718.917 45.1935 718.917 44.5425V44.2739C718.917 43.631 718.835 43.0166 718.672 42.4307C718.518 41.8366 718.286 41.3158 717.977 40.8682C717.659 40.4206 717.264 40.0666 716.792 39.8062C716.329 39.5376 715.783 39.4033 715.157 39.4033C714.53 39.4033 713.985 39.5376 713.521 39.8062C713.057 40.0666 712.671 40.4206 712.361 40.8682C712.044 41.3158 711.808 41.8366 711.653 42.4307C711.499 43.0166 711.421 43.631 711.421 44.2739V44.5425ZM729.562 48.0093L732.369 37.792H735.189V51H732.931V42.8579L730.343 51H728.78L726.119 42.5649V51H723.861V37.792H726.778L729.562 48.0093ZM749.13 48.6074L738.778 43.981V42.1987L749.13 37.5845V39.9771L741.659 42.9067L741.012 43.1143L741.659 43.334L749.13 46.2148V48.6074ZM756.32 52.5259H754.294L761.716 33.2266H763.73L756.32 52.5259ZM782.42 48.5952V46.2515L790.318 43.2729L791.05 43.0654L790.318 42.8335L782.42 39.9038V37.5723L793.199 42.1865V43.9688L782.42 48.5952ZM52.4268 81.6074L42.0752 76.981V75.1987L52.4268 70.5845V72.9771L44.9561 75.9067L44.3091 76.1143L44.9561 76.334L52.4268 79.2148V81.6074ZM71.2021 81.5952V79.2515L79.1001 76.2729L79.8325 76.0654L79.1001 75.8335L71.2021 72.9038V70.5723L81.981 75.1865V76.9688L71.2021 81.5952ZM94.1519 79.3979H88.2192L86.791 84H84.5327L90.27 66.2266H92.1621L97.8018 84H95.5557L94.1519 79.3979ZM88.8296 77.4326H93.5537L91.21 69.7178L88.8296 77.4326ZM105.944 71.5488C106.807 71.5488 107.576 71.7035 108.251 72.0127C108.927 72.3138 109.501 72.7288 109.973 73.2578C110.445 73.7949 110.803 74.4297 111.047 75.1621C111.299 75.8864 111.425 76.6758 111.425 77.5303V77.811C111.425 78.7306 111.291 79.5811 111.022 80.3623C110.762 81.1436 110.38 81.8231 109.875 82.4009C109.37 82.9787 108.752 83.4303 108.02 83.7559C107.295 84.0814 106.469 84.2441 105.542 84.2441C104.614 84.2441 103.784 84.0814 103.051 83.7559C102.319 83.4303 101.7 82.9787 101.196 82.4009C100.691 81.8231 100.305 81.1436 100.036 80.3623C99.7676 79.5811 99.6333 78.7306 99.6333 77.811V76.6025C99.6333 75.8376 99.6699 75.1214 99.7432 74.4541C99.8245 73.7786 99.9385 73.1561 100.085 72.5864C100.223 72.0575 100.39 71.5651 100.585 71.1094C100.781 70.6536 101.005 70.2345 101.257 69.8521C101.77 69.0708 102.392 68.4482 103.125 67.9844C103.865 67.5124 104.687 67.1909 105.59 67.02C106.022 66.9386 106.42 66.8532 106.787 66.7637C107.161 66.666 107.486 66.5439 107.763 66.3975C108.032 66.2591 108.243 66.0841 108.398 65.8726C108.553 65.6528 108.63 65.3761 108.63 65.0425H110.485C110.485 65.7993 110.367 66.4097 110.131 66.8735C109.903 67.3374 109.582 67.7077 109.167 67.9844C108.801 68.2285 108.394 68.4116 107.946 68.5337C107.507 68.6558 106.884 68.8022 106.079 68.9731C105.509 69.0952 104.976 69.2661 104.479 69.4858C103.983 69.6974 103.54 69.9863 103.149 70.3525C102.758 70.7188 102.429 71.1704 102.16 71.7075C101.892 72.2365 101.696 72.8753 101.574 73.624C101.835 73.3229 102.124 73.0462 102.441 72.7939C102.758 72.5335 103.1 72.3097 103.466 72.1226C103.833 71.9435 104.223 71.8052 104.638 71.7075C105.053 71.6017 105.489 71.5488 105.944 71.5488ZM105.517 73.4043C104.899 73.4043 104.361 73.5182 103.906 73.7461C103.45 73.9658 103.076 74.2629 102.783 74.6372C102.482 75.0197 102.258 75.4591 102.111 75.9556C101.965 76.452 101.892 76.9769 101.892 77.5303V77.811C101.892 78.4295 101.965 79.0195 102.111 79.5811C102.258 80.1344 102.482 80.6187 102.783 81.0337C103.076 81.4569 103.45 81.7946 103.906 82.0469C104.37 82.291 104.915 82.4131 105.542 82.4131C106.16 82.4131 106.693 82.291 107.141 82.0469C107.596 81.7946 107.975 81.4569 108.276 81.0337C108.577 80.6187 108.801 80.1344 108.947 79.5811C109.094 79.0195 109.167 78.4295 109.167 77.811V77.5303C109.167 76.9769 109.094 76.452 108.947 75.9556C108.801 75.4591 108.577 75.0197 108.276 74.6372C107.975 74.2629 107.592 73.9658 107.128 73.7461C106.673 73.5182 106.136 73.4043 105.517 73.4043ZM114.221 80.0938H116.479C116.479 80.4111 116.573 80.7122 116.76 80.9971C116.947 81.2738 117.208 81.5179 117.542 81.7295C117.875 81.9492 118.27 82.1242 118.726 82.2544C119.181 82.3765 119.674 82.4375 120.203 82.4375C120.723 82.4375 121.2 82.3846 121.631 82.2788C122.062 82.1649 122.432 82.0103 122.742 81.8149C123.043 81.6196 123.275 81.3918 123.438 81.1313C123.608 80.8709 123.694 80.5902 123.694 80.2891C123.694 79.9147 123.617 79.5973 123.462 79.3369C123.307 79.0684 123.083 78.8486 122.791 78.6777C122.644 78.5964 122.481 78.5272 122.302 78.4702C122.123 78.4132 121.932 78.3644 121.729 78.3237C121.525 78.283 121.305 78.2546 121.069 78.2383C120.833 78.222 120.589 78.2139 120.337 78.2139H117.395V76.3096H120.337C120.597 76.3096 120.841 76.3014 121.069 76.2852C121.297 76.2607 121.505 76.2282 121.692 76.1875C121.928 76.1387 122.139 76.0736 122.327 75.9922C122.522 75.9108 122.693 75.8172 122.839 75.7114C123.043 75.5568 123.197 75.3696 123.303 75.1499C123.409 74.9302 123.462 74.682 123.462 74.4053C123.462 74.1286 123.389 73.8682 123.242 73.624C123.104 73.3799 122.9 73.1642 122.632 72.9771C122.355 72.798 122.013 72.6556 121.606 72.5498C121.2 72.444 120.732 72.3911 120.203 72.3911C119.731 72.3911 119.283 72.444 118.86 72.5498C118.437 72.6556 118.066 72.798 117.749 72.9771C117.424 73.1642 117.163 73.388 116.968 73.6484C116.781 73.9007 116.687 74.1774 116.687 74.4785H114.429C114.437 73.8682 114.596 73.3229 114.905 72.8428C115.222 72.3545 115.645 71.9395 116.174 71.5977C116.695 71.264 117.301 71.0076 117.993 70.8286C118.693 70.6496 119.43 70.5601 120.203 70.5601C121.016 70.5601 121.761 70.6414 122.437 70.8042C123.112 70.967 123.694 71.207 124.182 71.5244C124.67 71.8499 125.049 72.2528 125.317 72.7329C125.586 73.2049 125.72 73.7583 125.72 74.3931C125.72 74.7837 125.631 75.1499 125.452 75.4917C125.273 75.8335 125.02 76.1427 124.695 76.4194C124.516 76.5741 124.308 76.7205 124.072 76.8589C123.836 76.9891 123.584 77.1071 123.315 77.2129C123.698 77.3268 124.04 77.4692 124.341 77.6401C124.65 77.8029 124.919 77.9941 125.146 78.2139C125.415 78.4824 125.618 78.7917 125.757 79.1416C125.903 79.4834 125.977 79.8659 125.977 80.2891C125.977 80.9238 125.826 81.4854 125.525 81.9736C125.232 82.4619 124.825 82.8729 124.304 83.2065C123.783 83.5483 123.173 83.8047 122.473 83.9756C121.773 84.1465 121.016 84.2319 120.203 84.2319C119.405 84.2319 118.624 84.1383 117.859 83.9512C117.094 83.764 116.427 83.471 115.857 83.0723C115.377 82.7467 114.982 82.3358 114.673 81.8394C114.372 81.3348 114.221 80.7529 114.221 80.0938ZM137.891 84C137.802 83.8291 137.728 83.6175 137.671 83.3652C137.623 83.1048 137.586 82.8363 137.562 82.5596C137.334 82.7874 137.077 83.0031 136.792 83.2065C136.516 83.41 136.211 83.589 135.877 83.7437C135.535 83.8983 135.173 84.0203 134.791 84.1099C134.408 84.1994 134.001 84.2441 133.57 84.2441C132.87 84.2441 132.235 84.1424 131.666 83.939C131.104 83.7355 130.628 83.4588 130.237 83.1089C129.839 82.7671 129.529 82.3602 129.31 81.8882C129.098 81.408 128.992 80.8913 128.992 80.3379C128.992 79.6136 129.135 78.9788 129.419 78.4336C129.712 77.8883 130.123 77.4326 130.652 77.0664C131.181 76.7083 131.816 76.4398 132.557 76.2607C133.305 76.0817 134.139 75.9922 135.059 75.9922H137.525V74.9546C137.525 74.5558 137.452 74.1978 137.305 73.8804C137.159 73.563 136.951 73.2904 136.683 73.0625C136.414 72.8428 136.084 72.6719 135.694 72.5498C135.311 72.4277 134.88 72.3667 134.4 72.3667C133.952 72.3667 133.549 72.4237 133.191 72.5376C132.841 72.6515 132.544 72.8021 132.3 72.9893C132.056 73.1764 131.865 73.4002 131.727 73.6606C131.596 73.9129 131.531 74.1774 131.531 74.4541H129.261C129.269 73.974 129.391 73.502 129.627 73.0381C129.871 72.5742 130.221 72.1551 130.677 71.7808C131.124 71.4146 131.67 71.1175 132.312 70.8896C132.964 70.6618 133.7 70.5479 134.522 70.5479C135.271 70.5479 135.966 70.6414 136.609 70.8286C137.252 71.0076 137.81 71.2803 138.282 71.6465C138.746 72.0208 139.112 72.4847 139.38 73.0381C139.649 73.5915 139.783 74.2384 139.783 74.979V81.1191C139.783 81.5586 139.824 82.0265 139.905 82.5229C139.987 83.0112 140.101 83.4385 140.247 83.8047V84H137.891ZM133.899 82.2788C134.339 82.2788 134.75 82.2218 135.132 82.1079C135.515 81.994 135.865 81.8434 136.182 81.6562C136.491 81.4691 136.76 81.2575 136.988 81.0215C137.216 80.7773 137.395 80.5251 137.525 80.2646V77.5913H135.425C134.644 77.5913 133.96 77.6605 133.375 77.7988C132.797 77.929 132.337 78.1325 131.995 78.4092C131.751 78.6045 131.564 78.8364 131.434 79.105C131.312 79.3735 131.25 79.6787 131.25 80.0205C131.25 80.346 131.303 80.6471 131.409 80.9238C131.523 81.2005 131.69 81.4365 131.91 81.6318C132.129 81.8353 132.406 81.994 132.74 82.1079C133.073 82.2218 133.46 82.2788 133.899 82.2788ZM143.678 70.792H145.936V82.1567H152.015V70.792H154.286V82.1567H155.86L155.641 87.9185H153.614V84H143.678V70.792ZM183.608 84H181.35V72.6597H174.904V84H172.646V70.792H183.608V84ZM187.258 89.0781V70.792H189.321L189.431 72.2324C189.61 72.0046 189.806 71.8011 190.017 71.6221C190.229 71.4349 190.457 71.2762 190.701 71.146C191.042 70.9507 191.421 70.8042 191.836 70.7065C192.259 70.6007 192.711 70.5479 193.191 70.5479C194.037 70.5479 194.786 70.7147 195.437 71.0483C196.088 71.382 196.633 71.8459 197.073 72.4399C197.512 73.034 197.846 73.7461 198.074 74.5762C198.302 75.3981 198.416 76.3014 198.416 77.2861V77.5425C198.416 78.4865 198.302 79.3695 198.074 80.1914C197.846 81.0052 197.512 81.7132 197.073 82.3154C196.633 82.9176 196.088 83.3896 195.437 83.7314C194.794 84.0732 194.058 84.2441 193.228 84.2441C192.723 84.2441 192.251 84.1912 191.812 84.0854C191.38 83.9797 190.99 83.8291 190.64 83.6338C190.428 83.5117 190.229 83.3774 190.042 83.231C189.854 83.0763 189.679 82.9095 189.517 82.7305V89.0781H187.258ZM196.157 77.2861C196.157 76.6432 196.084 76.0329 195.938 75.4551C195.799 74.8691 195.583 74.3524 195.291 73.9048C194.989 73.4653 194.611 73.1154 194.155 72.855C193.7 72.5946 193.154 72.4644 192.52 72.4644C192.17 72.4644 191.844 72.505 191.543 72.5864C191.25 72.6678 190.986 72.7858 190.75 72.9404C190.489 73.0951 190.257 73.2863 190.054 73.5142C189.85 73.742 189.671 73.9943 189.517 74.271V80.6309C189.655 80.875 189.814 81.1029 189.993 81.3145C190.172 81.526 190.375 81.7051 190.603 81.8516C190.863 82.0225 191.152 82.1567 191.47 82.2544C191.795 82.3521 192.153 82.4009 192.544 82.4009C193.171 82.4009 193.712 82.2707 194.167 82.0103C194.623 81.7417 194.998 81.3836 195.291 80.936C195.583 80.4884 195.799 79.9717 195.938 79.3857C196.084 78.7998 196.157 78.1854 196.157 77.5425V77.2861ZM201.15 77.2739C201.15 76.3218 201.289 75.4388 201.565 74.625C201.842 73.8031 202.241 73.091 202.762 72.4888C203.274 71.8866 203.901 71.4146 204.642 71.0728C205.382 70.7228 206.216 70.5479 207.144 70.5479C208.08 70.5479 208.918 70.7228 209.659 71.0728C210.407 71.4146 211.042 71.8866 211.563 72.4888C212.076 73.091 212.47 73.8031 212.747 74.625C213.024 75.4388 213.162 76.3218 213.162 77.2739V77.5425C213.162 78.4946 213.024 79.3776 212.747 80.1914C212.47 81.0052 212.076 81.7132 211.563 82.3154C211.042 82.9176 210.411 83.3896 209.671 83.7314C208.93 84.0732 208.096 84.2441 207.168 84.2441C206.233 84.2441 205.39 84.0732 204.642 83.7314C203.901 83.3896 203.274 82.9176 202.762 82.3154C202.241 81.7132 201.842 81.0052 201.565 80.1914C201.289 79.3776 201.15 78.4946 201.15 77.5425V77.2739ZM203.409 77.5425C203.409 78.1935 203.486 78.8161 203.641 79.4102C203.795 79.9961 204.031 80.5129 204.349 80.9604C204.658 81.408 205.049 81.762 205.521 82.0225C205.993 82.2829 206.542 82.4131 207.168 82.4131C207.787 82.4131 208.328 82.2829 208.792 82.0225C209.264 81.762 209.659 81.408 209.976 80.9604C210.285 80.5129 210.517 79.9961 210.672 79.4102C210.826 78.8161 210.904 78.1935 210.904 77.5425V77.2739C210.904 76.631 210.822 76.0166 210.66 75.4307C210.505 74.8366 210.273 74.3158 209.964 73.8682C209.646 73.4206 209.252 73.0666 208.78 72.8062C208.316 72.5376 207.771 72.4033 207.144 72.4033C206.517 72.4033 205.972 72.5376 205.508 72.8062C205.044 73.0666 204.658 73.4206 204.349 73.8682C204.031 74.3158 203.795 74.8366 203.641 75.4307C203.486 76.0166 203.409 76.631 203.409 77.2739V77.5425ZM236.063 81.0093L238.871 70.792H241.691V84H239.433V75.8579L236.845 84H235.282L232.621 75.5649V84H230.363V70.792H233.28L236.063 81.0093ZM244.694 77.2739C244.694 76.3218 244.833 75.4388 245.109 74.625C245.386 73.8031 245.785 73.091 246.306 72.4888C246.818 71.8866 247.445 71.4146 248.186 71.0728C248.926 70.7228 249.76 70.5479 250.688 70.5479C251.624 70.5479 252.462 70.7228 253.203 71.0728C253.951 71.4146 254.586 71.8866 255.107 72.4888C255.62 73.091 256.014 73.8031 256.291 74.625C256.568 75.4388 256.706 76.3218 256.706 77.2739V77.5425C256.706 78.4946 256.568 79.3776 256.291 80.1914C256.014 81.0052 255.62 81.7132 255.107 82.3154C254.586 82.9176 253.955 83.3896 253.215 83.7314C252.474 84.0732 251.64 84.2441 250.712 84.2441C249.777 84.2441 248.934 84.0732 248.186 83.7314C247.445 83.3896 246.818 82.9176 246.306 82.3154C245.785 81.7132 245.386 81.0052 245.109 80.1914C244.833 79.3776 244.694 78.4946 244.694 77.5425V77.2739ZM246.953 77.5425C246.953 78.1935 247.03 78.8161 247.185 79.4102C247.339 79.9961 247.575 80.5129 247.893 80.9604C248.202 81.408 248.592 81.762 249.064 82.0225C249.536 82.2829 250.086 82.4131 250.712 82.4131C251.331 82.4131 251.872 82.2829 252.336 82.0225C252.808 81.762 253.203 81.408 253.52 80.9604C253.829 80.5129 254.061 79.9961 254.216 79.4102C254.37 78.8161 254.448 78.1935 254.448 77.5425V77.2739C254.448 76.631 254.366 76.0166 254.204 75.4307C254.049 74.8366 253.817 74.3158 253.508 73.8682C253.19 73.4206 252.796 73.0666 252.324 72.8062C251.86 72.5376 251.315 72.4033 250.688 72.4033C250.061 72.4033 249.516 72.5376 249.052 72.8062C248.588 73.0666 248.202 73.4206 247.893 73.8682C247.575 74.3158 247.339 74.8366 247.185 75.4307C247.03 76.0166 246.953 76.631 246.953 77.2739V77.5425ZM265.679 84.2441C264.751 84.2441 263.896 84.0854 263.115 83.7681C262.342 83.4507 261.679 83.0072 261.125 82.4375C260.572 81.8678 260.141 81.1924 259.832 80.4111C259.522 79.6299 259.368 78.7795 259.368 77.8599V77.3472C259.368 76.2811 259.539 75.3289 259.88 74.4907C260.222 73.6444 260.678 72.9282 261.248 72.3423C261.809 71.7645 262.448 71.321 263.164 71.0117C263.888 70.7025 264.629 70.5479 265.386 70.5479C266.338 70.5479 267.168 70.7147 267.876 71.0483C268.592 71.3739 269.186 71.8255 269.658 72.4033C270.13 72.9893 270.48 73.6769 270.708 74.4663C270.944 75.2557 271.062 76.1102 271.062 77.0298V78.043H261.626V78.1284C261.683 78.7713 261.809 79.3369 262.004 79.8252C262.208 80.3135 262.485 80.7448 262.834 81.1191C263.193 81.5179 263.624 81.8312 264.128 82.0591C264.633 82.2869 265.19 82.4009 265.801 82.4009C266.606 82.4009 267.323 82.2381 267.949 81.9126C268.576 81.5871 269.097 81.1558 269.512 80.6187L270.891 81.6929C270.452 82.3602 269.792 82.9543 268.914 83.4751C268.043 83.9878 266.965 84.2441 265.679 84.2441ZM265.386 72.4033C264.93 72.4033 264.499 72.4888 264.092 72.6597C263.685 72.8224 263.319 73.0625 262.993 73.3799C262.668 73.7054 262.391 74.1042 262.163 74.5762C261.943 75.04 261.789 75.5771 261.699 76.1875H268.804V76.0776C268.804 75.6707 268.726 75.2354 268.572 74.7715C268.417 74.2995 268.201 73.8926 267.925 73.5508C267.648 73.209 267.298 72.9323 266.875 72.7207C266.46 72.5091 265.964 72.4033 265.386 72.4033ZM285.247 72.6597H276.739V84H274.468V70.792H285.247V72.6597ZM288.238 77.2739C288.238 76.3218 288.377 75.4388 288.653 74.625C288.93 73.8031 289.329 73.091 289.85 72.4888C290.362 71.8866 290.989 71.4146 291.729 71.0728C292.47 70.7228 293.304 70.5479 294.232 70.5479C295.168 70.5479 296.006 70.7228 296.747 71.0728C297.495 71.4146 298.13 71.8866 298.651 72.4888C299.164 73.091 299.558 73.8031 299.835 74.625C300.112 75.4388 300.25 76.3218 300.25 77.2739V77.5425C300.25 78.4946 300.112 79.3776 299.835 80.1914C299.558 81.0052 299.164 81.7132 298.651 82.3154C298.13 82.9176 297.499 83.3896 296.759 83.7314C296.018 84.0732 295.184 84.2441 294.256 84.2441C293.32 84.2441 292.478 84.0732 291.729 83.7314C290.989 83.3896 290.362 82.9176 289.85 82.3154C289.329 81.7132 288.93 81.0052 288.653 80.1914C288.377 79.3776 288.238 78.4946 288.238 77.5425V77.2739ZM290.497 77.5425C290.497 78.1935 290.574 78.8161 290.729 79.4102C290.883 79.9961 291.119 80.5129 291.437 80.9604C291.746 81.408 292.136 81.762 292.608 82.0225C293.08 82.2829 293.63 82.4131 294.256 82.4131C294.875 82.4131 295.416 82.2829 295.88 82.0225C296.352 81.762 296.747 81.408 297.064 80.9604C297.373 80.5129 297.605 79.9961 297.76 79.4102C297.914 78.8161 297.992 78.1935 297.992 77.5425V77.2739C297.992 76.631 297.91 76.0166 297.748 75.4307C297.593 74.8366 297.361 74.3158 297.052 73.8682C296.734 73.4206 296.34 73.0666 295.868 72.8062C295.404 72.5376 294.859 72.4033 294.232 72.4033C293.605 72.4033 293.06 72.5376 292.596 72.8062C292.132 73.0666 291.746 73.4206 291.437 73.8682C291.119 74.3158 290.883 74.8366 290.729 75.4307C290.574 76.0166 290.497 76.631 290.497 77.2739V77.5425ZM323.359 75.687L326.887 70.792H329.536L324.616 77.3228L329.67 84H327.058L323.408 78.9707L319.758 84H317.121L322.175 77.3228L317.255 70.792H319.868L323.359 75.687ZM331.782 77.2739C331.782 76.3218 331.921 75.4388 332.197 74.625C332.474 73.8031 332.873 73.091 333.394 72.4888C333.906 71.8866 334.533 71.4146 335.273 71.0728C336.014 70.7228 336.848 70.5479 337.776 70.5479C338.712 70.5479 339.55 70.7228 340.291 71.0728C341.039 71.4146 341.674 71.8866 342.195 72.4888C342.708 73.091 343.102 73.8031 343.379 74.625C343.656 75.4388 343.794 76.3218 343.794 77.2739V77.5425C343.794 78.4946 343.656 79.3776 343.379 80.1914C343.102 81.0052 342.708 81.7132 342.195 82.3154C341.674 82.9176 341.043 83.3896 340.303 83.7314C339.562 84.0732 338.728 84.2441 337.8 84.2441C336.864 84.2441 336.022 84.0732 335.273 83.7314C334.533 83.3896 333.906 82.9176 333.394 82.3154C332.873 81.7132 332.474 81.0052 332.197 80.1914C331.921 79.3776 331.782 78.4946 331.782 77.5425V77.2739ZM334.041 77.5425C334.041 78.1935 334.118 78.8161 334.272 79.4102C334.427 79.9961 334.663 80.5129 334.98 80.9604C335.29 81.408 335.68 81.762 336.152 82.0225C336.624 82.2829 337.174 82.4131 337.8 82.4131C338.419 82.4131 338.96 82.2829 339.424 82.0225C339.896 81.762 340.291 81.408 340.608 80.9604C340.917 80.5129 341.149 79.9961 341.304 79.4102C341.458 78.8161 341.536 78.1935 341.536 77.5425V77.2739C341.536 76.631 341.454 76.0166 341.292 75.4307C341.137 74.8366 340.905 74.3158 340.596 73.8682C340.278 73.4206 339.884 73.0666 339.412 72.8062C338.948 72.5376 338.403 72.4033 337.776 72.4033C337.149 72.4033 336.604 72.5376 336.14 72.8062C335.676 73.0666 335.29 73.4206 334.98 73.8682C334.663 74.3158 334.427 74.8366 334.272 75.4307C334.118 76.0166 334.041 76.631 334.041 77.2739V77.5425ZM352.181 81.0093L354.988 70.792H357.808V84H355.55V75.8579L352.962 84H351.399L348.738 75.5649V84H346.48V70.792H349.397L352.181 81.0093ZM372.225 70.792V84H369.967V78.8608H365.865L362.728 84H360.287L363.619 78.519C362.773 78.2098 362.122 77.7337 361.666 77.0908C361.21 76.4398 360.982 75.6829 360.982 74.8203C360.982 74.2344 361.096 73.6973 361.324 73.209C361.56 72.7126 361.894 72.2853 362.325 71.9272C362.757 71.5773 363.285 71.3006 363.912 71.0972C364.539 70.8937 365.243 70.792 366.024 70.792H372.225ZM363.253 74.8447C363.253 75.1214 363.302 75.39 363.399 75.6504C363.497 75.9108 363.652 76.1387 363.863 76.334C364.067 76.5374 364.323 76.7002 364.632 76.8223C364.942 76.9443 365.312 77.0054 365.743 77.0054H369.967V72.623H366.024C365.56 72.623 365.153 72.6882 364.803 72.8184C364.453 72.9404 364.164 73.1032 363.937 73.3066C363.709 73.5182 363.538 73.7583 363.424 74.0269C363.31 74.2873 363.253 74.5599 363.253 74.8447ZM380.246 78.3726H378.097V84H375.839V70.792H378.097V76.3828H380.05L384.97 70.792H387.716L382.052 77.1519L388.156 84H385.287L380.246 78.3726ZM399.155 84C399.065 83.8291 398.992 83.6175 398.935 83.3652C398.886 83.1048 398.85 82.8363 398.825 82.5596C398.597 82.7874 398.341 83.0031 398.056 83.2065C397.779 83.41 397.474 83.589 397.141 83.7437C396.799 83.8983 396.437 84.0203 396.054 84.1099C395.672 84.1994 395.265 84.2441 394.833 84.2441C394.134 84.2441 393.499 84.1424 392.929 83.939C392.368 83.7355 391.892 83.4588 391.501 83.1089C391.102 82.7671 390.793 82.3602 390.573 81.8882C390.362 81.408 390.256 80.8913 390.256 80.3379C390.256 79.6136 390.398 78.9788 390.683 78.4336C390.976 77.8883 391.387 77.4326 391.916 77.0664C392.445 76.7083 393.08 76.4398 393.82 76.2607C394.569 76.0817 395.403 75.9922 396.323 75.9922H398.789V74.9546C398.789 74.5558 398.715 74.1978 398.569 73.8804C398.422 73.563 398.215 73.2904 397.946 73.0625C397.678 72.8428 397.348 72.6719 396.958 72.5498C396.575 72.4277 396.144 72.3667 395.664 72.3667C395.216 72.3667 394.813 72.4237 394.455 72.5376C394.105 72.6515 393.808 72.8021 393.564 72.9893C393.32 73.1764 393.129 73.4002 392.99 73.6606C392.86 73.9129 392.795 74.1774 392.795 74.4541H390.524C390.533 73.974 390.655 73.502 390.891 73.0381C391.135 72.5742 391.485 72.1551 391.94 71.7808C392.388 71.4146 392.933 71.1175 393.576 70.8896C394.227 70.6618 394.964 70.5479 395.786 70.5479C396.534 70.5479 397.23 70.6414 397.873 70.8286C398.516 71.0076 399.073 71.2803 399.545 71.6465C400.009 72.0208 400.375 72.4847 400.644 73.0381C400.913 73.5915 401.047 74.2384 401.047 74.979V81.1191C401.047 81.5586 401.088 82.0265 401.169 82.5229C401.25 83.0112 401.364 83.4385 401.511 83.8047V84H399.155ZM395.163 82.2788C395.603 82.2788 396.014 82.2218 396.396 82.1079C396.778 81.994 397.128 81.8434 397.446 81.6562C397.755 81.4691 398.024 81.2575 398.251 81.0215C398.479 80.7773 398.658 80.5251 398.789 80.2646V77.5913H396.689C395.908 77.5913 395.224 77.6605 394.638 77.7988C394.06 77.929 393.601 78.1325 393.259 78.4092C393.015 78.6045 392.827 78.8364 392.697 79.105C392.575 79.3735 392.514 79.6787 392.514 80.0205C392.514 80.346 392.567 80.6471 392.673 80.9238C392.787 81.2005 392.954 81.4365 393.173 81.6318C393.393 81.8353 393.67 81.994 394.003 82.1079C394.337 82.2218 394.724 82.2788 395.163 82.2788ZM415.293 81.6074L404.941 76.981V75.1987L415.293 70.5845V72.9771L407.822 75.9067L407.175 76.1143L407.822 76.334L415.293 79.2148V81.6074ZM422.483 85.5259H420.457L427.879 66.2266H429.893L422.483 85.5259ZM448.583 81.5952V79.2515L456.481 76.2729L457.213 76.0654L456.481 75.8335L448.583 72.9038V70.5723L459.362 75.1865V76.9688L448.583 81.5952ZM52.4268 114.607L42.0752 109.981V108.199L52.4268 103.584V105.977L44.9561 108.907L44.3091 109.114L44.9561 109.334L52.4268 112.215V114.607ZM71.2021 114.595V112.251L79.1001 109.273L79.8325 109.065L79.1001 108.833L71.2021 105.904V103.572L81.981 108.187V109.969L71.2021 114.595ZM94.1519 112.398H88.2192L86.791 117H84.5327L90.27 99.2266H92.1621L97.8018 117H95.5557L94.1519 112.398ZM88.8296 110.433H93.5537L91.21 102.718L88.8296 110.433ZM105.944 104.549C106.807 104.549 107.576 104.703 108.251 105.013C108.927 105.314 109.501 105.729 109.973 106.258C110.445 106.795 110.803 107.43 111.047 108.162C111.299 108.886 111.425 109.676 111.425 110.53V110.811C111.425 111.731 111.291 112.581 111.022 113.362C110.762 114.144 110.38 114.823 109.875 115.401C109.37 115.979 108.752 116.43 108.02 116.756C107.295 117.081 106.469 117.244 105.542 117.244C104.614 117.244 103.784 117.081 103.051 116.756C102.319 116.43 101.7 115.979 101.196 115.401C100.691 114.823 100.305 114.144 100.036 113.362C99.7676 112.581 99.6333 111.731 99.6333 110.811V109.603C99.6333 108.838 99.6699 108.121 99.7432 107.454C99.8245 106.779 99.9385 106.156 100.085 105.586C100.223 105.057 100.39 104.565 100.585 104.109C100.781 103.654 101.005 103.235 101.257 102.852C101.77 102.071 102.392 101.448 103.125 100.984C103.865 100.512 104.687 100.191 105.59 100.02C106.022 99.9386 106.42 99.8532 106.787 99.7637C107.161 99.666 107.486 99.5439 107.763 99.3975C108.032 99.2591 108.243 99.0841 108.398 98.8726C108.553 98.6528 108.63 98.3761 108.63 98.0425H110.485C110.485 98.7993 110.367 99.4097 110.131 99.8735C109.903 100.337 109.582 100.708 109.167 100.984C108.801 101.229 108.394 101.412 107.946 101.534C107.507 101.656 106.884 101.802 106.079 101.973C105.509 102.095 104.976 102.266 104.479 102.486C103.983 102.697 103.54 102.986 103.149 103.353C102.758 103.719 102.429 104.17 102.16 104.708C101.892 105.236 101.696 105.875 101.574 106.624C101.835 106.323 102.124 106.046 102.441 105.794C102.758 105.534 103.1 105.31 103.466 105.123C103.833 104.944 104.223 104.805 104.638 104.708C105.053 104.602 105.489 104.549 105.944 104.549ZM105.517 106.404C104.899 106.404 104.361 106.518 103.906 106.746C103.45 106.966 103.076 107.263 102.783 107.637C102.482 108.02 102.258 108.459 102.111 108.956C101.965 109.452 101.892 109.977 101.892 110.53V110.811C101.892 111.43 101.965 112.02 102.111 112.581C102.258 113.134 102.482 113.619 102.783 114.034C103.076 114.457 103.45 114.795 103.906 115.047C104.37 115.291 104.915 115.413 105.542 115.413C106.16 115.413 106.693 115.291 107.141 115.047C107.596 114.795 107.975 114.457 108.276 114.034C108.577 113.619 108.801 113.134 108.947 112.581C109.094 112.02 109.167 111.43 109.167 110.811V110.53C109.167 109.977 109.094 109.452 108.947 108.956C108.801 108.459 108.577 108.02 108.276 107.637C107.975 107.263 107.592 106.966 107.128 106.746C106.673 106.518 106.136 106.404 105.517 106.404ZM114.221 113.094H116.479C116.479 113.411 116.573 113.712 116.76 113.997C116.947 114.274 117.208 114.518 117.542 114.729C117.875 114.949 118.27 115.124 118.726 115.254C119.181 115.376 119.674 115.438 120.203 115.438C120.723 115.438 121.2 115.385 121.631 115.279C122.062 115.165 122.432 115.01 122.742 114.815C123.043 114.62 123.275 114.392 123.438 114.131C123.608 113.871 123.694 113.59 123.694 113.289C123.694 112.915 123.617 112.597 123.462 112.337C123.307 112.068 123.083 111.849 122.791 111.678C122.644 111.596 122.481 111.527 122.302 111.47C122.123 111.413 121.932 111.364 121.729 111.324C121.525 111.283 121.305 111.255 121.069 111.238C120.833 111.222 120.589 111.214 120.337 111.214H117.395V109.31H120.337C120.597 109.31 120.841 109.301 121.069 109.285C121.297 109.261 121.505 109.228 121.692 109.188C121.928 109.139 122.139 109.074 122.327 108.992C122.522 108.911 122.693 108.817 122.839 108.711C123.043 108.557 123.197 108.37 123.303 108.15C123.409 107.93 123.462 107.682 123.462 107.405C123.462 107.129 123.389 106.868 123.242 106.624C123.104 106.38 122.9 106.164 122.632 105.977C122.355 105.798 122.013 105.656 121.606 105.55C121.2 105.444 120.732 105.391 120.203 105.391C119.731 105.391 119.283 105.444 118.86 105.55C118.437 105.656 118.066 105.798 117.749 105.977C117.424 106.164 117.163 106.388 116.968 106.648C116.781 106.901 116.687 107.177 116.687 107.479H114.429C114.437 106.868 114.596 106.323 114.905 105.843C115.222 105.354 115.645 104.939 116.174 104.598C116.695 104.264 117.301 104.008 117.993 103.829C118.693 103.65 119.43 103.56 120.203 103.56C121.016 103.56 121.761 103.641 122.437 103.804C123.112 103.967 123.694 104.207 124.182 104.524C124.67 104.85 125.049 105.253 125.317 105.733C125.586 106.205 125.72 106.758 125.72 107.393C125.72 107.784 125.631 108.15 125.452 108.492C125.273 108.833 125.02 109.143 124.695 109.419C124.516 109.574 124.308 109.721 124.072 109.859C123.836 109.989 123.584 110.107 123.315 110.213C123.698 110.327 124.04 110.469 124.341 110.64C124.65 110.803 124.919 110.994 125.146 111.214C125.415 111.482 125.618 111.792 125.757 112.142C125.903 112.483 125.977 112.866 125.977 113.289C125.977 113.924 125.826 114.485 125.525 114.974C125.232 115.462 124.825 115.873 124.304 116.207C123.783 116.548 123.173 116.805 122.473 116.976C121.773 117.146 121.016 117.232 120.203 117.232C119.405 117.232 118.624 117.138 117.859 116.951C117.094 116.764 116.427 116.471 115.857 116.072C115.377 115.747 114.982 115.336 114.673 114.839C114.372 114.335 114.221 113.753 114.221 113.094ZM137.891 117C137.802 116.829 137.728 116.618 137.671 116.365C137.623 116.105 137.586 115.836 137.562 115.56C137.334 115.787 137.077 116.003 136.792 116.207C136.516 116.41 136.211 116.589 135.877 116.744C135.535 116.898 135.173 117.02 134.791 117.11C134.408 117.199 134.001 117.244 133.57 117.244C132.87 117.244 132.235 117.142 131.666 116.939C131.104 116.736 130.628 116.459 130.237 116.109C129.839 115.767 129.529 115.36 129.31 114.888C129.098 114.408 128.992 113.891 128.992 113.338C128.992 112.614 129.135 111.979 129.419 111.434C129.712 110.888 130.123 110.433 130.652 110.066C131.181 109.708 131.816 109.44 132.557 109.261C133.305 109.082 134.139 108.992 135.059 108.992H137.525V107.955C137.525 107.556 137.452 107.198 137.305 106.88C137.159 106.563 136.951 106.29 136.683 106.062C136.414 105.843 136.084 105.672 135.694 105.55C135.311 105.428 134.88 105.367 134.4 105.367C133.952 105.367 133.549 105.424 133.191 105.538C132.841 105.652 132.544 105.802 132.3 105.989C132.056 106.176 131.865 106.4 131.727 106.661C131.596 106.913 131.531 107.177 131.531 107.454H129.261C129.269 106.974 129.391 106.502 129.627 106.038C129.871 105.574 130.221 105.155 130.677 104.781C131.124 104.415 131.67 104.118 132.312 103.89C132.964 103.662 133.7 103.548 134.522 103.548C135.271 103.548 135.966 103.641 136.609 103.829C137.252 104.008 137.81 104.28 138.282 104.646C138.746 105.021 139.112 105.485 139.38 106.038C139.649 106.591 139.783 107.238 139.783 107.979V114.119C139.783 114.559 139.824 115.027 139.905 115.523C139.987 116.011 140.101 116.438 140.247 116.805V117H137.891ZM133.899 115.279C134.339 115.279 134.75 115.222 135.132 115.108C135.515 114.994 135.865 114.843 136.182 114.656C136.491 114.469 136.76 114.257 136.988 114.021C137.216 113.777 137.395 113.525 137.525 113.265V110.591H135.425C134.644 110.591 133.96 110.66 133.375 110.799C132.797 110.929 132.337 111.132 131.995 111.409C131.751 111.604 131.564 111.836 131.434 112.105C131.312 112.374 131.25 112.679 131.25 113.021C131.25 113.346 131.303 113.647 131.409 113.924C131.523 114.201 131.69 114.437 131.91 114.632C132.129 114.835 132.406 114.994 132.74 115.108C133.073 115.222 133.46 115.279 133.899 115.279ZM143.678 103.792H145.936V115.157H152.015V103.792H154.286V115.157H155.86L155.641 120.918H153.614V117H143.678V103.792ZM183.608 117H181.35V105.66H174.904V117H172.646V103.792H183.608V117ZM187.258 122.078V103.792H189.321L189.431 105.232C189.61 105.005 189.806 104.801 190.017 104.622C190.229 104.435 190.457 104.276 190.701 104.146C191.042 103.951 191.421 103.804 191.836 103.707C192.259 103.601 192.711 103.548 193.191 103.548C194.037 103.548 194.786 103.715 195.437 104.048C196.088 104.382 196.633 104.846 197.073 105.44C197.512 106.034 197.846 106.746 198.074 107.576C198.302 108.398 198.416 109.301 198.416 110.286V110.542C198.416 111.486 198.302 112.369 198.074 113.191C197.846 114.005 197.512 114.713 197.073 115.315C196.633 115.918 196.088 116.39 195.437 116.731C194.794 117.073 194.058 117.244 193.228 117.244C192.723 117.244 192.251 117.191 191.812 117.085C191.38 116.98 190.99 116.829 190.64 116.634C190.428 116.512 190.229 116.377 190.042 116.231C189.854 116.076 189.679 115.91 189.517 115.73V122.078H187.258ZM196.157 110.286C196.157 109.643 196.084 109.033 195.938 108.455C195.799 107.869 195.583 107.352 195.291 106.905C194.989 106.465 194.611 106.115 194.155 105.855C193.7 105.595 193.154 105.464 192.52 105.464C192.17 105.464 191.844 105.505 191.543 105.586C191.25 105.668 190.986 105.786 190.75 105.94C190.489 106.095 190.257 106.286 190.054 106.514C189.85 106.742 189.671 106.994 189.517 107.271V113.631C189.655 113.875 189.814 114.103 189.993 114.314C190.172 114.526 190.375 114.705 190.603 114.852C190.863 115.022 191.152 115.157 191.47 115.254C191.795 115.352 192.153 115.401 192.544 115.401C193.171 115.401 193.712 115.271 194.167 115.01C194.623 114.742 194.998 114.384 195.291 113.936C195.583 113.488 195.799 112.972 195.938 112.386C196.084 111.8 196.157 111.185 196.157 110.542V110.286ZM201.15 110.274C201.15 109.322 201.289 108.439 201.565 107.625C201.842 106.803 202.241 106.091 202.762 105.489C203.274 104.887 203.901 104.415 204.642 104.073C205.382 103.723 206.216 103.548 207.144 103.548C208.08 103.548 208.918 103.723 209.659 104.073C210.407 104.415 211.042 104.887 211.563 105.489C212.076 106.091 212.47 106.803 212.747 107.625C213.024 108.439 213.162 109.322 213.162 110.274V110.542C213.162 111.495 213.024 112.378 212.747 113.191C212.47 114.005 212.076 114.713 211.563 115.315C211.042 115.918 210.411 116.39 209.671 116.731C208.93 117.073 208.096 117.244 207.168 117.244C206.233 117.244 205.39 117.073 204.642 116.731C203.901 116.39 203.274 115.918 202.762 115.315C202.241 114.713 201.842 114.005 201.565 113.191C201.289 112.378 201.15 111.495 201.15 110.542V110.274ZM203.409 110.542C203.409 111.194 203.486 111.816 203.641 112.41C203.795 112.996 204.031 113.513 204.349 113.96C204.658 114.408 205.049 114.762 205.521 115.022C205.993 115.283 206.542 115.413 207.168 115.413C207.787 115.413 208.328 115.283 208.792 115.022C209.264 114.762 209.659 114.408 209.976 113.96C210.285 113.513 210.517 112.996 210.672 112.41C210.826 111.816 210.904 111.194 210.904 110.542V110.274C210.904 109.631 210.822 109.017 210.66 108.431C210.505 107.837 210.273 107.316 209.964 106.868C209.646 106.421 209.252 106.067 208.78 105.806C208.316 105.538 207.771 105.403 207.144 105.403C206.517 105.403 205.972 105.538 205.508 105.806C205.044 106.067 204.658 106.421 204.349 106.868C204.031 107.316 203.795 107.837 203.641 108.431C203.486 109.017 203.409 109.631 203.409 110.274V110.542ZM236.063 114.009L238.871 103.792H241.691V117H239.433V108.858L236.845 117H235.282L232.621 108.565V117H230.363V103.792H233.28L236.063 114.009ZM244.694 110.274C244.694 109.322 244.833 108.439 245.109 107.625C245.386 106.803 245.785 106.091 246.306 105.489C246.818 104.887 247.445 104.415 248.186 104.073C248.926 103.723 249.76 103.548 250.688 103.548C251.624 103.548 252.462 103.723 253.203 104.073C253.951 104.415 254.586 104.887 255.107 105.489C255.62 106.091 256.014 106.803 256.291 107.625C256.568 108.439 256.706 109.322 256.706 110.274V110.542C256.706 111.495 256.568 112.378 256.291 113.191C256.014 114.005 255.62 114.713 255.107 115.315C254.586 115.918 253.955 116.39 253.215 116.731C252.474 117.073 251.64 117.244 250.712 117.244C249.777 117.244 248.934 117.073 248.186 116.731C247.445 116.39 246.818 115.918 246.306 115.315C245.785 114.713 245.386 114.005 245.109 113.191C244.833 112.378 244.694 111.495 244.694 110.542V110.274ZM246.953 110.542C246.953 111.194 247.03 111.816 247.185 112.41C247.339 112.996 247.575 113.513 247.893 113.96C248.202 114.408 248.592 114.762 249.064 115.022C249.536 115.283 250.086 115.413 250.712 115.413C251.331 115.413 251.872 115.283 252.336 115.022C252.808 114.762 253.203 114.408 253.52 113.96C253.829 113.513 254.061 112.996 254.216 112.41C254.37 111.816 254.448 111.194 254.448 110.542V110.274C254.448 109.631 254.366 109.017 254.204 108.431C254.049 107.837 253.817 107.316 253.508 106.868C253.19 106.421 252.796 106.067 252.324 105.806C251.86 105.538 251.315 105.403 250.688 105.403C250.061 105.403 249.516 105.538 249.052 105.806C248.588 106.067 248.202 106.421 247.893 106.868C247.575 107.316 247.339 107.837 247.185 108.431C247.03 109.017 246.953 109.631 246.953 110.274V110.542ZM268.438 103.792H270.696V117H268.438V107.259L261.98 117H259.734V103.792H261.98V113.545L268.438 103.792ZM268.718 98.4087C268.718 98.8888 268.633 99.3324 268.462 99.7393C268.291 100.138 268.047 100.48 267.729 100.765C267.412 101.049 267.03 101.273 266.582 101.436C266.134 101.591 265.634 101.668 265.081 101.668C264.519 101.668 264.014 101.591 263.567 101.436C263.119 101.273 262.737 101.049 262.419 100.765C262.102 100.48 261.854 100.138 261.675 99.7393C261.504 99.3324 261.418 98.8888 261.418 98.4087H263.25C263.25 98.6528 263.286 98.8888 263.359 99.1167C263.433 99.3364 263.542 99.5277 263.689 99.6904C263.835 99.8532 264.023 99.9834 264.25 100.081C264.478 100.179 264.755 100.228 265.081 100.228C265.398 100.228 265.667 100.179 265.886 100.081C266.114 99.9834 266.301 99.8532 266.448 99.6904C266.594 99.5277 266.704 99.3364 266.777 99.1167C266.851 98.8888 266.887 98.6528 266.887 98.4087H268.718ZM288.653 115.157C289.003 115.108 289.296 114.925 289.532 114.607C289.776 114.282 289.976 113.842 290.13 113.289C290.285 112.736 290.407 112.076 290.497 111.312C290.594 110.547 290.672 109.692 290.729 108.748L290.924 103.792H299.432V115.157H301.129L300.909 120.882H298.871V117H289.654V120.882H287.628L287.408 115.157H288.653ZM292.987 108.748C292.946 109.432 292.893 110.083 292.828 110.701C292.771 111.32 292.698 111.897 292.608 112.435C292.519 112.98 292.405 113.48 292.267 113.936C292.136 114.392 291.974 114.799 291.778 115.157H297.174V105.879H293.097L292.987 108.748ZM309.223 117.244C308.295 117.244 307.44 117.085 306.659 116.768C305.886 116.451 305.223 116.007 304.669 115.438C304.116 114.868 303.685 114.192 303.375 113.411C303.066 112.63 302.912 111.779 302.912 110.86V110.347C302.912 109.281 303.083 108.329 303.424 107.491C303.766 106.644 304.222 105.928 304.792 105.342C305.353 104.764 305.992 104.321 306.708 104.012C307.432 103.702 308.173 103.548 308.93 103.548C309.882 103.548 310.712 103.715 311.42 104.048C312.136 104.374 312.73 104.826 313.202 105.403C313.674 105.989 314.024 106.677 314.252 107.466C314.488 108.256 314.606 109.11 314.606 110.03V111.043H305.17V111.128C305.227 111.771 305.353 112.337 305.548 112.825C305.752 113.313 306.028 113.745 306.378 114.119C306.736 114.518 307.168 114.831 307.672 115.059C308.177 115.287 308.734 115.401 309.345 115.401C310.15 115.401 310.867 115.238 311.493 114.913C312.12 114.587 312.641 114.156 313.056 113.619L314.435 114.693C313.996 115.36 313.336 115.954 312.458 116.475C311.587 116.988 310.508 117.244 309.223 117.244ZM308.93 105.403C308.474 105.403 308.043 105.489 307.636 105.66C307.229 105.822 306.863 106.062 306.537 106.38C306.212 106.705 305.935 107.104 305.707 107.576C305.487 108.04 305.333 108.577 305.243 109.188H312.348V109.078C312.348 108.671 312.27 108.235 312.116 107.771C311.961 107.299 311.745 106.893 311.469 106.551C311.192 106.209 310.842 105.932 310.419 105.721C310.004 105.509 309.507 105.403 308.93 105.403ZM328.754 117H326.496V111.36H320.051V117H317.792V103.792H320.051V109.517H326.496V103.792H328.754V117ZM334.565 108.797H338.606C339.395 108.797 340.095 108.899 340.706 109.102C341.324 109.297 341.845 109.574 342.268 109.932C342.691 110.29 343.013 110.717 343.232 111.214C343.46 111.71 343.574 112.256 343.574 112.85C343.574 113.436 343.464 113.985 343.245 114.498C343.025 115.002 342.703 115.438 342.28 115.804C341.857 116.178 341.336 116.471 340.718 116.683C340.099 116.894 339.395 117 338.606 117H332.307V103.792H334.565V108.797ZM334.565 110.64V115.157H338.606C339.078 115.157 339.485 115.096 339.827 114.974C340.168 114.852 340.449 114.689 340.669 114.485C340.889 114.282 341.047 114.046 341.145 113.777C341.251 113.509 341.304 113.228 341.304 112.935C341.304 112.65 341.251 112.374 341.145 112.105C341.039 111.828 340.876 111.58 340.657 111.36C340.437 111.149 340.156 110.978 339.814 110.848C339.481 110.709 339.078 110.64 338.606 110.64H334.565ZM357.234 114.607L346.883 109.981V108.199L357.234 103.584V105.977L349.764 108.907L349.117 109.114L349.764 109.334L357.234 112.215V114.607ZM364.425 118.526H362.398L369.82 99.2266H371.834L364.425 118.526ZM390.524 114.595V112.251L398.422 109.273L399.155 109.065L398.422 108.833L390.524 105.904V103.572L401.303 108.187V109.969L390.524 114.595Z" fill="white"/>
<path d="M56.6265 56.0781V37.792H58.6895L58.7993 39.2324C58.9784 39.0046 59.1737 38.8011 59.3853 38.6221C59.5968 38.4349 59.8247 38.2762 60.0688 38.146C60.4106 37.9507 60.7891 37.8042 61.2041 37.7065C61.6273 37.6007 62.0789 37.5479 62.5591 37.5479C63.4054 37.5479 64.1541 37.7147 64.8052 38.0483C65.4562 38.382 66.0015 38.8459 66.4409 39.4399C66.8804 40.034 67.214 40.7461 67.4419 41.5762C67.6698 42.3981 67.7837 43.3014 67.7837 44.2861V44.5425C67.7837 45.4865 67.6698 46.3695 67.4419 47.1914C67.214 48.0052 66.8804 48.7132 66.4409 49.3154C66.0015 49.9176 65.4562 50.3896 64.8052 50.7314C64.1623 51.0732 63.4258 51.2441 62.5957 51.2441C62.0911 51.2441 61.6191 51.1912 61.1797 51.0854C60.7484 50.9797 60.3577 50.8291 60.0078 50.6338C59.7962 50.5117 59.5968 50.3774 59.4097 50.231C59.2225 50.0763 59.0475 49.9095 58.8848 49.7305V56.0781H56.6265ZM65.5254 44.2861C65.5254 43.6432 65.4521 43.0329 65.3057 42.4551C65.1673 41.8691 64.9517 41.3524 64.6587 40.9048C64.3576 40.4653 63.9792 40.1154 63.5234 39.855C63.0677 39.5946 62.5225 39.4644 61.8877 39.4644C61.5378 39.4644 61.2122 39.505 60.9111 39.5864C60.6182 39.6678 60.3537 39.7858 60.1177 39.9404C59.8573 40.0951 59.6253 40.2863 59.4219 40.5142C59.2184 40.742 59.0394 40.9943 58.8848 41.271V47.6309C59.0231 47.875 59.1818 48.1029 59.3608 48.3145C59.5399 48.526 59.7433 48.7051 59.9712 48.8516C60.2316 49.0225 60.5205 49.1567 60.8379 49.2544C61.1634 49.3521 61.5215 49.4009 61.9121 49.4009C62.5387 49.4009 63.0799 49.2707 63.5356 49.0103C63.9914 48.7417 64.3657 48.3836 64.6587 47.936C64.9517 47.4884 65.1673 46.9717 65.3057 46.3857C65.4521 45.7998 65.5254 45.1854 65.5254 44.5425V44.2861ZM767.844 56.0781V37.792H769.907L770.017 39.2324C770.196 39.0046 770.391 38.8011 770.603 38.6221C770.815 38.4349 771.042 38.2762 771.287 38.146C771.628 37.9507 772.007 37.8042 772.422 37.7065C772.845 37.6007 773.297 37.5479 773.777 37.5479C774.623 37.5479 775.372 37.7147 776.023 38.0483C776.674 38.382 777.219 38.8459 777.659 39.4399C778.098 40.034 778.432 40.7461 778.66 41.5762C778.888 42.3981 779.001 43.3014 779.001 44.2861V44.5425C779.001 45.4865 778.888 46.3695 778.66 47.1914C778.432 48.0052 778.098 48.7132 777.659 49.3154C777.219 49.9176 776.674 50.3896 776.023 50.7314C775.38 51.0732 774.644 51.2441 773.813 51.2441C773.309 51.2441 772.837 51.1912 772.397 51.0854C771.966 50.9797 771.576 50.8291 771.226 50.6338C771.014 50.5117 770.815 50.3774 770.627 50.231C770.44 50.0763 770.265 49.9095 770.103 49.7305V56.0781H767.844ZM776.743 44.2861C776.743 43.6432 776.67 43.0329 776.523 42.4551C776.385 41.8691 776.169 41.3524 775.876 40.9048C775.575 40.4653 775.197 40.1154 774.741 39.855C774.285 39.5946 773.74 39.4644 773.105 39.4644C772.756 39.4644 772.43 39.505 772.129 39.5864C771.836 39.6678 771.571 39.7858 771.335 39.9404C771.075 40.0951 770.843 40.2863 770.64 40.5142C770.436 40.742 770.257 40.9943 770.103 41.271V47.6309C770.241 47.875 770.4 48.1029 770.579 48.3145C770.758 48.526 770.961 48.7051 771.189 48.8516C771.449 49.0225 771.738 49.1567 772.056 49.2544C772.381 49.3521 772.739 49.4009 773.13 49.4009C773.757 49.4009 774.298 49.2707 774.753 49.0103C775.209 48.7417 775.583 48.3836 775.876 47.936C776.169 47.4884 776.385 46.9717 776.523 46.3857C776.67 45.7998 776.743 45.1854 776.743 44.5425V44.2861ZM56.6265 89.0781V70.792H58.6895L58.7993 72.2324C58.9784 72.0046 59.1737 71.8011 59.3853 71.6221C59.5968 71.4349 59.8247 71.2762 60.0688 71.146C60.4106 70.9507 60.7891 70.8042 61.2041 70.7065C61.6273 70.6007 62.0789 70.5479 62.5591 70.5479C63.4054 70.5479 64.1541 70.7147 64.8052 71.0483C65.4562 71.382 66.0015 71.8459 66.4409 72.4399C66.8804 73.034 67.214 73.7461 67.4419 74.5762C67.6698 75.3981 67.7837 76.3014 67.7837 77.2861V77.5425C67.7837 78.4865 67.6698 79.3695 67.4419 80.1914C67.214 81.0052 66.8804 81.7132 66.4409 82.3154C66.0015 82.9176 65.4562 83.3896 64.8052 83.7314C64.1623 84.0732 63.4258 84.2441 62.5957 84.2441C62.0911 84.2441 61.6191 84.1912 61.1797 84.0854C60.7484 83.9797 60.3577 83.8291 60.0078 83.6338C59.7962 83.5117 59.5968 83.3774 59.4097 83.231C59.2225 83.0763 59.0475 82.9095 58.8848 82.7305V89.0781H56.6265ZM65.5254 77.2861C65.5254 76.6432 65.4521 76.0329 65.3057 75.4551C65.1673 74.8691 64.9517 74.3524 64.6587 73.9048C64.3576 73.4653 63.9792 73.1154 63.5234 72.855C63.0677 72.5946 62.5225 72.4644 61.8877 72.4644C61.5378 72.4644 61.2122 72.505 60.9111 72.5864C60.6182 72.6678 60.3537 72.7858 60.1177 72.9404C59.8573 73.0951 59.6253 73.2863 59.4219 73.5142C59.2184 73.742 59.0394 73.9943 58.8848 74.271V80.6309C59.0231 80.875 59.1818 81.1029 59.3608 81.3145C59.5399 81.526 59.7433 81.7051 59.9712 81.8516C60.2316 82.0225 60.5205 82.1567 60.8379 82.2544C61.1634 82.3521 61.5215 82.4009 61.9121 82.4009C62.5387 82.4009 63.0799 82.2707 63.5356 82.0103C63.9914 81.7417 64.3657 81.3836 64.6587 80.936C64.9517 80.4884 65.1673 79.9717 65.3057 79.3857C65.4521 78.7998 65.5254 78.1854 65.5254 77.5425V77.2861ZM434.007 89.0781V70.792H436.07L436.18 72.2324C436.359 72.0046 436.555 71.8011 436.766 71.6221C436.978 71.4349 437.206 71.2762 437.45 71.146C437.792 70.9507 438.17 70.8042 438.585 70.7065C439.008 70.6007 439.46 70.5479 439.94 70.5479C440.786 70.5479 441.535 70.7147 442.186 71.0483C442.837 71.382 443.382 71.8459 443.822 72.4399C444.261 73.034 444.595 73.7461 444.823 74.5762C445.051 75.3981 445.165 76.3014 445.165 77.2861V77.5425C445.165 78.4865 445.051 79.3695 444.823 80.1914C444.595 81.0052 444.261 81.7132 443.822 82.3154C443.382 82.9176 442.837 83.3896 442.186 83.7314C441.543 84.0732 440.807 84.2441 439.977 84.2441C439.472 84.2441 439 84.1912 438.561 84.0854C438.129 83.9797 437.739 83.8291 437.389 83.6338C437.177 83.5117 436.978 83.3774 436.791 83.231C436.603 83.0763 436.428 82.9095 436.266 82.7305V89.0781H434.007ZM442.906 77.2861C442.906 76.6432 442.833 76.0329 442.687 75.4551C442.548 74.8691 442.333 74.3524 442.04 73.9048C441.738 73.4653 441.36 73.1154 440.904 72.855C440.449 72.5946 439.903 72.4644 439.269 72.4644C438.919 72.4644 438.593 72.505 438.292 72.5864C437.999 72.6678 437.735 72.7858 437.499 72.9404C437.238 73.0951 437.006 73.2863 436.803 73.5142C436.599 73.742 436.42 73.9943 436.266 74.271V80.6309C436.404 80.875 436.563 81.1029 436.742 81.3145C436.921 81.526 437.124 81.7051 437.352 81.8516C437.612 82.0225 437.901 82.1567 438.219 82.2544C438.544 82.3521 438.902 82.4009 439.293 82.4009C439.92 82.4009 440.461 82.2707 440.917 82.0103C441.372 81.7417 441.747 81.3836 442.04 80.936C442.333 80.4884 442.548 79.9717 442.687 79.3857C442.833 78.7998 442.906 78.1854 442.906 77.5425V77.2861ZM56.6265 122.078V103.792H58.6895L58.7993 105.232C58.9784 105.005 59.1737 104.801 59.3853 104.622C59.5968 104.435 59.8247 104.276 60.0688 104.146C60.4106 103.951 60.7891 103.804 61.2041 103.707C61.6273 103.601 62.0789 103.548 62.5591 103.548C63.4054 103.548 64.1541 103.715 64.8052 104.048C65.4562 104.382 66.0015 104.846 66.4409 105.44C66.8804 106.034 67.214 106.746 67.4419 107.576C67.6698 108.398 67.7837 109.301 67.7837 110.286V110.542C67.7837 111.486 67.6698 112.369 67.4419 113.191C67.214 114.005 66.8804 114.713 66.4409 115.315C66.0015 115.918 65.4562 116.39 64.8052 116.731C64.1623 117.073 63.4258 117.244 62.5957 117.244C62.0911 117.244 61.6191 117.191 61.1797 117.085C60.7484 116.98 60.3577 116.829 60.0078 116.634C59.7962 116.512 59.5968 116.377 59.4097 116.231C59.2225 116.076 59.0475 115.91 58.8848 115.73V122.078H56.6265ZM65.5254 110.286C65.5254 109.643 65.4521 109.033 65.3057 108.455C65.1673 107.869 64.9517 107.352 64.6587 106.905C64.3576 106.465 63.9792 106.115 63.5234 105.855C63.0677 105.595 62.5225 105.464 61.8877 105.464C61.5378 105.464 61.2122 105.505 60.9111 105.586C60.6182 105.668 60.3537 105.786 60.1177 105.94C59.8573 106.095 59.6253 106.286 59.4219 106.514C59.2184 106.742 59.0394 106.994 58.8848 107.271V113.631C59.0231 113.875 59.1818 114.103 59.3608 114.314C59.5399 114.526 59.7433 114.705 59.9712 114.852C60.2316 115.022 60.5205 115.157 60.8379 115.254C61.1634 115.352 61.5215 115.401 61.9121 115.401C62.5387 115.401 63.0799 115.271 63.5356 115.01C63.9914 114.742 64.3657 114.384 64.6587 113.936C64.9517 113.488 65.1673 112.972 65.3057 112.386C65.4521 111.8 65.5254 111.185 65.5254 110.542V110.286ZM375.949 122.078V103.792H378.012L378.122 105.232C378.301 105.005 378.496 104.801 378.708 104.622C378.919 104.435 379.147 104.276 379.391 104.146C379.733 103.951 380.111 103.804 380.526 103.707C380.95 103.601 381.401 103.548 381.881 103.548C382.728 103.548 383.476 103.715 384.127 104.048C384.778 104.382 385.324 104.846 385.763 105.44C386.203 106.034 386.536 106.746 386.764 107.576C386.992 108.398 387.106 109.301 387.106 110.286V110.542C387.106 111.486 386.992 112.369 386.764 113.191C386.536 114.005 386.203 114.713 385.763 115.315C385.324 115.918 384.778 116.39 384.127 116.731C383.485 117.073 382.748 117.244 381.918 117.244C381.413 117.244 380.941 117.191 380.502 117.085C380.071 116.98 379.68 116.829 379.33 116.634C379.118 116.512 378.919 116.377 378.732 116.231C378.545 116.076 378.37 115.91 378.207 115.73V122.078H375.949ZM384.848 110.286C384.848 109.643 384.774 109.033 384.628 108.455C384.49 107.869 384.274 107.352 383.981 106.905C383.68 106.465 383.301 106.115 382.846 105.855C382.39 105.595 381.845 105.464 381.21 105.464C380.86 105.464 380.535 105.505 380.233 105.586C379.94 105.668 379.676 105.786 379.44 105.94C379.18 106.095 378.948 106.286 378.744 106.514C378.541 106.742 378.362 106.994 378.207 107.271V113.631C378.345 113.875 378.504 114.103 378.683 114.314C378.862 114.526 379.066 114.705 379.293 114.852C379.554 115.022 379.843 115.157 380.16 115.254C380.486 115.352 380.844 115.401 381.234 115.401C381.861 115.401 382.402 115.271 382.858 115.01C383.314 114.742 383.688 114.384 383.981 113.936C384.274 113.488 384.49 112.972 384.628 112.386C384.774 111.8 384.848 111.185 384.848 110.542V110.286Z" fill="#0066FF"/>
</svg>
