<svg width="858" height="83" viewBox="0 0 858 83" fill="none" xmlns="http://www.w3.org/2000/svg">
<rect width="858" height="83" rx="20" fill="#0066FF" fill-opacity="0.2"/>
<rect x="1.5" y="1.5" width="855" height="80" rx="18.5" stroke="#0066FF" stroke-opacity="0.5" stroke-width="3"/>
<path d="M41.9268 48.6074L31.5752 43.981V42.1987L41.9268 37.5845V39.9771L34.4561 42.9067L33.8091 43.1143L34.4561 43.334L41.9268 46.2148V48.6074ZM80.7954 49.4131C81.2023 49.4131 81.597 49.348 81.9795 49.2178C82.3701 49.0876 82.716 48.9045 83.0171 48.6685C83.3182 48.4406 83.5583 48.172 83.7373 47.8628C83.9245 47.5454 84.0221 47.2036 84.0303 46.8374H86.1665C86.1584 47.4233 86.0037 47.9849 85.7026 48.522C85.4097 49.0509 85.015 49.5148 84.5186 49.9136C84.0221 50.3205 83.4525 50.646 82.8096 50.8901C82.1667 51.1261 81.4953 51.2441 80.7954 51.2441C79.7944 51.2441 78.9196 51.0651 78.1709 50.707C77.4222 50.349 76.7996 49.8647 76.3032 49.2544C75.7987 48.6522 75.4202 47.9564 75.168 47.167C74.9157 46.3695 74.7896 45.5312 74.7896 44.6523V44.1396C74.7896 43.2689 74.9157 42.4347 75.168 41.6372C75.4202 40.8397 75.7987 40.1357 76.3032 39.5254C76.7996 38.9232 77.4222 38.443 78.1709 38.085C78.9196 37.7269 79.7944 37.5479 80.7954 37.5479C81.5767 37.5479 82.2928 37.674 82.9438 37.9263C83.603 38.1704 84.1727 38.5041 84.6528 38.9272C85.1248 39.3586 85.4951 39.8672 85.7637 40.4531C86.0322 41.0391 86.1665 41.6657 86.1665 42.333H84.0303C84.0221 41.9342 83.9326 41.5599 83.7617 41.21C83.599 40.8519 83.3752 40.5386 83.0903 40.27C82.8055 40.0015 82.4637 39.7899 82.0649 39.6353C81.6743 39.4806 81.2511 39.4033 80.7954 39.4033C80.0955 39.4033 79.5055 39.5457 79.0254 39.8306C78.5534 40.1073 78.1709 40.4694 77.8779 40.917C77.585 41.3727 77.3734 41.8813 77.2432 42.4429C77.1211 43.0044 77.0601 43.57 77.0601 44.1396V44.6523C77.0601 45.2301 77.1211 45.8039 77.2432 46.3735C77.3734 46.9351 77.585 47.4396 77.8779 47.8872C78.1628 48.3429 78.5412 48.7132 79.0132 48.998C79.4933 49.2747 80.0874 49.4131 80.7954 49.4131ZM90.0366 32.25H96.7871V49.0469H101.096V51H90.0366V49.0469H94.5288V34.2153H90.0366V32.25ZM112.876 51C112.787 50.8291 112.714 50.6175 112.657 50.3652C112.608 50.1048 112.571 49.8363 112.547 49.5596C112.319 49.7874 112.063 50.0031 111.778 50.2065C111.501 50.41 111.196 50.589 110.862 50.7437C110.521 50.8983 110.158 51.0203 109.776 51.1099C109.393 51.1994 108.986 51.2441 108.555 51.2441C107.855 51.2441 107.221 51.1424 106.651 50.939C106.089 50.7355 105.613 50.4588 105.223 50.1089C104.824 49.7671 104.515 49.3602 104.295 48.8882C104.083 48.408 103.978 47.8913 103.978 47.3379C103.978 46.6136 104.12 45.9788 104.405 45.4336C104.698 44.8883 105.109 44.4326 105.638 44.0664C106.167 43.7083 106.801 43.4398 107.542 43.2607C108.291 43.0817 109.125 42.9922 110.044 42.9922H112.51V41.9546C112.51 41.5558 112.437 41.1978 112.291 40.8804C112.144 40.563 111.937 40.2904 111.668 40.0625C111.399 39.8428 111.07 39.6719 110.679 39.5498C110.297 39.4277 109.865 39.3667 109.385 39.3667C108.938 39.3667 108.535 39.4237 108.177 39.5376C107.827 39.6515 107.53 39.8021 107.286 39.9893C107.042 40.1764 106.85 40.4002 106.712 40.6606C106.582 40.9129 106.517 41.1774 106.517 41.4541H104.246C104.254 40.974 104.376 40.502 104.612 40.0381C104.856 39.5742 105.206 39.1551 105.662 38.7808C106.11 38.4146 106.655 38.1175 107.298 37.8896C107.949 37.6618 108.685 37.5479 109.507 37.5479C110.256 37.5479 110.952 37.6414 111.595 37.8286C112.238 38.0076 112.795 38.2803 113.267 38.6465C113.731 39.0208 114.097 39.4847 114.366 40.0381C114.634 40.5915 114.769 41.2384 114.769 41.979V48.1191C114.769 48.5586 114.809 49.0265 114.891 49.5229C114.972 50.0112 115.086 50.4385 115.232 50.8047V51H112.876ZM108.885 49.2788C109.324 49.2788 109.735 49.2218 110.118 49.1079C110.5 48.994 110.85 48.8434 111.167 48.6562C111.477 48.4691 111.745 48.2575 111.973 48.0215C112.201 47.7773 112.38 47.5251 112.51 47.2646V44.5913H110.411C109.629 44.5913 108.946 44.6605 108.36 44.7988C107.782 44.929 107.322 45.1325 106.98 45.4092C106.736 45.6045 106.549 45.8364 106.419 46.105C106.297 46.3735 106.236 46.6787 106.236 47.0205C106.236 47.346 106.289 47.6471 106.395 47.9238C106.508 48.2005 106.675 48.4365 106.895 48.6318C107.115 48.8353 107.391 48.994 107.725 49.1079C108.059 49.2218 108.445 49.2788 108.885 49.2788ZM127.489 47.4966C127.489 47.228 127.436 46.988 127.33 46.7764C127.224 46.5566 127.045 46.3573 126.793 46.1782C126.541 45.9992 126.207 45.8364 125.792 45.6899C125.377 45.5353 124.86 45.397 124.242 45.2749C123.485 45.1203 122.793 44.9331 122.167 44.7134C121.548 44.4937 121.019 44.2292 120.58 43.9199C120.132 43.6188 119.786 43.2648 119.542 42.8579C119.298 42.4429 119.176 41.9627 119.176 41.4175C119.176 40.8804 119.302 40.3799 119.554 39.916C119.806 39.444 120.16 39.033 120.616 38.6831C121.072 38.3332 121.613 38.0565 122.24 37.853C122.875 37.6496 123.57 37.5479 124.327 37.5479C125.141 37.5479 125.873 37.6536 126.524 37.8652C127.175 38.0768 127.729 38.3698 128.185 38.7441C128.64 39.1185 128.99 39.5579 129.234 40.0625C129.487 40.5589 129.613 41.096 129.613 41.6738H127.354C127.354 41.389 127.281 41.1123 127.135 40.8438C126.988 40.5671 126.785 40.3229 126.524 40.1113C126.264 39.8997 125.947 39.7288 125.572 39.5986C125.206 39.4684 124.791 39.4033 124.327 39.4033C123.847 39.4033 123.424 39.4562 123.058 39.562C122.7 39.6678 122.403 39.8102 122.167 39.9893C121.922 40.1683 121.739 40.3758 121.617 40.6118C121.495 40.8478 121.434 41.092 121.434 41.3442C121.434 41.6047 121.483 41.8366 121.581 42.04C121.678 42.2435 121.849 42.4266 122.093 42.5894C122.329 42.7521 122.647 42.8986 123.045 43.0288C123.452 43.159 123.965 43.2852 124.583 43.4072C125.397 43.5781 126.126 43.7775 126.769 44.0054C127.411 44.2251 127.953 44.4896 128.392 44.7988C128.832 45.1162 129.165 45.4824 129.393 45.8975C129.629 46.3125 129.747 46.7926 129.747 47.3379C129.747 47.9238 129.613 48.4569 129.344 48.937C129.084 49.4172 128.718 49.8281 128.246 50.1699C127.774 50.5117 127.208 50.7762 126.549 50.9634C125.89 51.1506 125.169 51.2441 124.388 51.2441C123.493 51.2441 122.695 51.1261 121.996 50.8901C121.296 50.646 120.706 50.3245 120.226 49.9258C119.737 49.5352 119.363 49.0794 119.103 48.5586C118.85 48.0378 118.724 47.4966 118.724 46.9351H120.982C121.015 47.3989 121.137 47.7896 121.349 48.1069C121.568 48.4243 121.841 48.6807 122.167 48.876C122.484 49.0713 122.838 49.2096 123.229 49.291C123.619 49.3724 124.006 49.4131 124.388 49.4131C124.99 49.4131 125.515 49.3439 125.963 49.2056C126.41 49.0591 126.76 48.8597 127.013 48.6074C127.167 48.4528 127.285 48.2819 127.367 48.0947C127.448 47.9076 127.489 47.7082 127.489 47.4966ZM142.003 47.4966C142.003 47.228 141.951 46.988 141.845 46.7764C141.739 46.5566 141.56 46.3573 141.308 46.1782C141.055 45.9992 140.722 45.8364 140.307 45.6899C139.892 45.5353 139.375 45.397 138.756 45.2749C138 45.1203 137.308 44.9331 136.681 44.7134C136.063 44.4937 135.534 44.2292 135.094 43.9199C134.647 43.6188 134.301 43.2648 134.057 42.8579C133.812 42.4429 133.69 41.9627 133.69 41.4175C133.69 40.8804 133.817 40.3799 134.069 39.916C134.321 39.444 134.675 39.033 135.131 38.6831C135.587 38.3332 136.128 38.0565 136.754 37.853C137.389 37.6496 138.085 37.5479 138.842 37.5479C139.656 37.5479 140.388 37.6536 141.039 37.8652C141.69 38.0768 142.243 38.3698 142.699 38.7441C143.155 39.1185 143.505 39.5579 143.749 40.0625C144.001 40.5589 144.127 41.096 144.127 41.6738H141.869C141.869 41.389 141.796 41.1123 141.649 40.8438C141.503 40.5671 141.299 40.3229 141.039 40.1113C140.779 39.8997 140.461 39.7288 140.087 39.5986C139.721 39.4684 139.306 39.4033 138.842 39.4033C138.362 39.4033 137.938 39.4562 137.572 39.562C137.214 39.6678 136.917 39.8102 136.681 39.9893C136.437 40.1683 136.254 40.3758 136.132 40.6118C136.01 40.8478 135.949 41.092 135.949 41.3442C135.949 41.6047 135.998 41.8366 136.095 42.04C136.193 42.2435 136.364 42.4266 136.608 42.5894C136.844 42.7521 137.161 42.8986 137.56 43.0288C137.967 43.159 138.48 43.2852 139.098 43.4072C139.912 43.5781 140.64 43.7775 141.283 44.0054C141.926 44.2251 142.467 44.4896 142.907 44.7988C143.346 45.1162 143.68 45.4824 143.908 45.8975C144.144 46.3125 144.262 46.7926 144.262 47.3379C144.262 47.9238 144.127 48.4569 143.859 48.937C143.598 49.4172 143.232 49.8281 142.76 50.1699C142.288 50.5117 141.723 50.7762 141.063 50.9634C140.404 51.1506 139.684 51.2441 138.903 51.2441C138.008 51.2441 137.21 51.1261 136.51 50.8901C135.81 50.646 135.22 50.3245 134.74 49.9258C134.252 49.5352 133.878 49.0794 133.617 48.5586C133.365 48.0378 133.239 47.4966 133.239 46.9351H135.497C135.53 47.3989 135.652 47.7896 135.863 48.1069C136.083 48.4243 136.356 48.6807 136.681 48.876C136.999 49.0713 137.353 49.2096 137.743 49.291C138.134 49.3724 138.52 49.4131 138.903 49.4131C139.505 49.4131 140.03 49.3439 140.478 49.2056C140.925 49.0591 141.275 48.8597 141.527 48.6074C141.682 48.4528 141.8 48.2819 141.881 48.0947C141.963 47.9076 142.003 47.7082 142.003 47.4966ZM158.63 41.4785H147.729V39.5132H158.63V41.4785ZM158.63 46.5444H147.729V44.5913H158.63V46.5444ZM166.296 33.5806L166.04 38.0972H164.453L164.465 33.7759V32.25H166.296V33.5806ZM170.654 33.5806L170.398 38.0972H168.823L168.835 33.7759V32.25H170.667L170.654 33.5806ZM187.964 44.5425C187.964 45.1203 187.92 45.6777 187.83 46.2148C187.749 46.7438 187.627 47.2402 187.464 47.7041C187.244 48.3145 186.955 48.8638 186.597 49.3521C186.247 49.8322 185.824 50.231 185.328 50.5483C184.97 50.7681 184.575 50.939 184.144 51.061C183.72 51.1831 183.261 51.2441 182.764 51.2441C182.194 51.2441 181.674 51.175 181.202 51.0366C180.738 50.8983 180.319 50.6989 179.944 50.4385C179.765 50.3083 179.594 50.1659 179.432 50.0112C179.269 49.8566 179.114 49.6857 178.968 49.4985L178.858 51H176.783V32.25H179.041V39.208C179.228 38.972 179.436 38.7604 179.664 38.5732C179.891 38.3779 180.136 38.2111 180.396 38.0728C180.722 37.9019 181.08 37.7716 181.47 37.6821C181.861 37.5926 182.284 37.5479 182.74 37.5479C183.309 37.5479 183.834 37.6252 184.314 37.7798C184.795 37.9344 185.23 38.1501 185.621 38.4268C185.971 38.6872 186.284 39.0046 186.561 39.3789C186.837 39.7451 187.081 40.1561 187.293 40.6118C187.513 41.1245 187.68 41.6942 187.793 42.3208C187.907 42.9393 187.964 43.5944 187.964 44.2861V44.5425ZM185.706 44.2861C185.706 43.8711 185.678 43.4683 185.621 43.0776C185.572 42.6789 185.494 42.3045 185.389 41.9546C185.242 41.5233 185.051 41.1286 184.815 40.7705C184.579 40.4124 184.29 40.1317 183.948 39.9282C183.712 39.7817 183.448 39.6678 183.155 39.5864C182.862 39.505 182.536 39.4644 182.178 39.4644C181.788 39.4644 181.43 39.5173 181.104 39.623C180.778 39.7207 180.49 39.859 180.237 40.0381C179.977 40.2253 179.745 40.445 179.542 40.6973C179.346 40.9414 179.179 41.21 179.041 41.5029V47.2769C179.188 47.5698 179.358 47.8424 179.554 48.0947C179.757 48.3389 179.989 48.5545 180.25 48.7417C180.51 48.9289 180.803 49.0754 181.128 49.1812C181.454 49.2788 181.812 49.3276 182.203 49.3276C182.577 49.3276 182.919 49.2829 183.228 49.1934C183.537 49.0957 183.814 48.9574 184.058 48.7783C184.384 48.5505 184.656 48.2616 184.876 47.9116C185.096 47.5617 185.271 47.1711 185.401 46.7397C185.507 46.4142 185.584 46.0643 185.633 45.6899C185.682 45.3156 185.706 44.9331 185.706 44.5425V44.2861ZM197.12 51.2441C196.192 51.2441 195.338 51.0854 194.557 50.7681C193.784 50.4507 193.12 50.0072 192.567 49.4375C192.014 48.8678 191.582 48.1924 191.273 47.4111C190.964 46.6299 190.809 45.7795 190.809 44.8599V44.3472C190.809 43.2811 190.98 42.3289 191.322 41.4907C191.664 40.6444 192.119 39.9282 192.689 39.3423C193.25 38.7645 193.889 38.321 194.605 38.0117C195.33 37.7025 196.07 37.5479 196.827 37.5479C197.779 37.5479 198.609 37.7147 199.317 38.0483C200.034 38.3739 200.628 38.8255 201.1 39.4033C201.572 39.9893 201.922 40.6769 202.149 41.4663C202.385 42.2557 202.503 43.1102 202.503 44.0298V45.043H193.067V45.1284C193.124 45.7713 193.25 46.3369 193.446 46.8252C193.649 47.3135 193.926 47.7448 194.276 48.1191C194.634 48.5179 195.065 48.8312 195.57 49.0591C196.074 49.2869 196.632 49.4009 197.242 49.4009C198.048 49.4009 198.764 49.2381 199.391 48.9126C200.017 48.5871 200.538 48.1558 200.953 47.6187L202.333 48.6929C201.893 49.3602 201.234 49.9543 200.355 50.4751C199.484 50.9878 198.406 51.2441 197.12 51.2441ZM196.827 39.4033C196.371 39.4033 195.94 39.4888 195.533 39.6597C195.126 39.8224 194.76 40.0625 194.435 40.3799C194.109 40.7054 193.832 41.1042 193.604 41.5762C193.385 42.04 193.23 42.5771 193.141 43.1875H200.245V43.0776C200.245 42.6707 200.168 42.2354 200.013 41.7715C199.859 41.2995 199.643 40.8926 199.366 40.5508C199.09 40.209 198.74 39.9323 198.316 39.7207C197.901 39.5091 197.405 39.4033 196.827 39.4033ZM206.154 32.25H212.904V49.0469H217.213V51H206.154V49.0469H210.646V34.2153H206.154V32.25ZM219.68 44.2739C219.68 43.3218 219.818 42.4388 220.095 41.625C220.371 40.8031 220.77 40.091 221.291 39.4888C221.804 38.8866 222.43 38.4146 223.171 38.0728C223.911 37.7228 224.746 37.5479 225.673 37.5479C226.609 37.5479 227.447 37.7228 228.188 38.0728C228.937 38.4146 229.571 38.8866 230.092 39.4888C230.605 40.091 231 40.8031 231.276 41.625C231.553 42.4388 231.691 43.3218 231.691 44.2739V44.5425C231.691 45.4946 231.553 46.3776 231.276 47.1914C231 48.0052 230.605 48.7132 230.092 49.3154C229.571 49.9176 228.941 50.3896 228.2 50.7314C227.46 51.0732 226.625 51.2441 225.698 51.2441C224.762 51.2441 223.92 51.0732 223.171 50.7314C222.43 50.3896 221.804 49.9176 221.291 49.3154C220.77 48.7132 220.371 48.0052 220.095 47.1914C219.818 46.3776 219.68 45.4946 219.68 44.5425V44.2739ZM221.938 44.5425C221.938 45.1935 222.015 45.8161 222.17 46.4102C222.325 46.9961 222.561 47.5129 222.878 47.9604C223.187 48.408 223.578 48.762 224.05 49.0225C224.522 49.2829 225.071 49.4131 225.698 49.4131C226.316 49.4131 226.857 49.2829 227.321 49.0225C227.793 48.762 228.188 48.408 228.505 47.9604C228.815 47.5129 229.047 46.9961 229.201 46.4102C229.356 45.8161 229.433 45.1935 229.433 44.5425V44.2739C229.433 43.631 229.352 43.0166 229.189 42.4307C229.034 41.8366 228.802 41.3158 228.493 40.8682C228.176 40.4206 227.781 40.0666 227.309 39.8062C226.845 39.5376 226.3 39.4033 225.673 39.4033C225.047 39.4033 224.501 39.5376 224.038 39.8062C223.574 40.0666 223.187 40.4206 222.878 40.8682C222.561 41.3158 222.325 41.8366 222.17 42.4307C222.015 43.0166 221.938 43.631 221.938 44.2739V44.5425ZM239.333 51L233.901 37.792H236.221L240.005 47.7529L240.212 48.5708L240.432 47.7529L244.131 37.792H246.438L241.055 51H239.333ZM255.179 51.2441C254.251 51.2441 253.396 51.0854 252.615 50.7681C251.842 50.4507 251.179 50.0072 250.625 49.4375C250.072 48.8678 249.641 48.1924 249.332 47.4111C249.022 46.6299 248.868 45.7795 248.868 44.8599V44.3472C248.868 43.2811 249.039 42.3289 249.38 41.4907C249.722 40.6444 250.178 39.9282 250.748 39.3423C251.309 38.7645 251.948 38.321 252.664 38.0117C253.388 37.7025 254.129 37.5479 254.886 37.5479C255.838 37.5479 256.668 37.7147 257.376 38.0483C258.092 38.3739 258.686 38.8255 259.158 39.4033C259.63 39.9893 259.98 40.6769 260.208 41.4663C260.444 42.2557 260.562 43.1102 260.562 44.0298V45.043H251.126V45.1284C251.183 45.7713 251.309 46.3369 251.504 46.8252C251.708 47.3135 251.985 47.7448 252.334 48.1191C252.693 48.5179 253.124 48.8312 253.628 49.0591C254.133 49.2869 254.69 49.4009 255.301 49.4009C256.106 49.4009 256.823 49.2381 257.449 48.9126C258.076 48.5871 258.597 48.1558 259.012 47.6187L260.391 48.6929C259.952 49.3602 259.292 49.9543 258.414 50.4751C257.543 50.9878 256.465 51.2441 255.179 51.2441ZM254.886 39.4033C254.43 39.4033 253.999 39.4888 253.592 39.6597C253.185 39.8224 252.819 40.0625 252.493 40.3799C252.168 40.7054 251.891 41.1042 251.663 41.5762C251.443 42.04 251.289 42.5771 251.199 43.1875H258.304V43.0776C258.304 42.6707 258.226 42.2354 258.072 41.7715C257.917 41.2995 257.701 40.8926 257.425 40.5508C257.148 40.209 256.798 39.9323 256.375 39.7207C255.96 39.5091 255.464 39.4033 254.886 39.4033ZM263.431 44.2861C263.431 43.3014 263.553 42.3981 263.797 41.5762C264.05 40.7461 264.408 40.034 264.872 39.4399C265.327 38.8459 265.881 38.382 266.532 38.0483C267.183 37.7147 267.911 37.5479 268.717 37.5479C269.506 37.5479 270.194 37.6821 270.78 37.9507C271.374 38.2111 271.887 38.5936 272.318 39.0981V32.25H274.576V51H272.501L272.403 49.6084C271.964 50.1455 271.439 50.5524 270.829 50.8291C270.218 51.1058 269.506 51.2441 268.692 51.2441C267.895 51.2441 267.171 51.0732 266.52 50.7314C265.877 50.3896 265.327 49.9176 264.872 49.3154C264.416 48.7132 264.062 48.0052 263.81 47.1914C263.557 46.3695 263.431 45.4865 263.431 44.5425V44.2861ZM265.689 44.5425C265.689 45.1854 265.759 45.7957 265.897 46.3735C266.035 46.9513 266.251 47.46 266.544 47.8994C266.829 48.3389 267.195 48.6888 267.643 48.9492C268.09 49.2015 268.627 49.3276 269.254 49.3276C270.011 49.3276 270.637 49.1567 271.134 48.8149C271.63 48.4731 272.025 48.0133 272.318 47.4355V41.3076C272.025 40.7705 271.63 40.3311 271.134 39.9893C270.637 39.6393 270.019 39.4644 269.278 39.4644C268.644 39.4644 268.098 39.5946 267.643 39.855C267.195 40.1154 266.829 40.4653 266.544 40.9048C266.251 41.3524 266.035 41.8691 265.897 42.4551C265.759 43.0329 265.689 43.6432 265.689 44.2861V44.5425ZM288.249 44.1519H278.91V42.2964H288.249V44.1519ZM298.515 49.4131C298.922 49.4131 299.317 49.348 299.699 49.2178C300.09 49.0876 300.436 48.9045 300.737 48.6685C301.038 48.4406 301.278 48.172 301.457 47.8628C301.644 47.5454 301.742 47.2036 301.75 46.8374H303.886C303.878 47.4233 303.723 47.9849 303.422 48.522C303.129 49.0509 302.735 49.5148 302.238 49.9136C301.742 50.3205 301.172 50.646 300.529 50.8901C299.886 51.1261 299.215 51.2441 298.515 51.2441C297.514 51.2441 296.639 51.0651 295.891 50.707C295.142 50.349 294.519 49.8647 294.023 49.2544C293.518 48.6522 293.14 47.9564 292.888 47.167C292.635 46.3695 292.509 45.5312 292.509 44.6523V44.1396C292.509 43.2689 292.635 42.4347 292.888 41.6372C293.14 40.8397 293.518 40.1357 294.023 39.5254C294.519 38.9232 295.142 38.443 295.891 38.085C296.639 37.7269 297.514 37.5479 298.515 37.5479C299.296 37.5479 300.013 37.674 300.664 37.9263C301.323 38.1704 301.892 38.5041 302.373 38.9272C302.845 39.3586 303.215 39.8672 303.483 40.4531C303.752 41.0391 303.886 41.6657 303.886 42.333H301.75C301.742 41.9342 301.652 41.5599 301.481 41.21C301.319 40.8519 301.095 40.5386 300.81 40.27C300.525 40.0015 300.183 39.7899 299.785 39.6353C299.394 39.4806 298.971 39.4033 298.515 39.4033C297.815 39.4033 297.225 39.5457 296.745 39.8306C296.273 40.1073 295.891 40.4694 295.598 40.917C295.305 41.3727 295.093 41.8813 294.963 42.4429C294.841 43.0044 294.78 43.57 294.78 44.1396V44.6523C294.78 45.2301 294.841 45.8039 294.963 46.3735C295.093 46.9351 295.305 47.4396 295.598 47.8872C295.882 48.3429 296.261 48.7132 296.733 48.998C297.213 49.2747 297.807 49.4131 298.515 49.4131ZM306.768 44.2739C306.768 43.3218 306.906 42.4388 307.183 41.625C307.459 40.8031 307.858 40.091 308.379 39.4888C308.892 38.8866 309.518 38.4146 310.259 38.0728C310.999 37.7228 311.833 37.5479 312.761 37.5479C313.697 37.5479 314.535 37.7228 315.276 38.0728C316.025 38.4146 316.659 38.8866 317.18 39.4888C317.693 40.091 318.088 40.8031 318.364 41.625C318.641 42.4388 318.779 43.3218 318.779 44.2739V44.5425C318.779 45.4946 318.641 46.3776 318.364 47.1914C318.088 48.0052 317.693 48.7132 317.18 49.3154C316.659 49.9176 316.029 50.3896 315.288 50.7314C314.548 51.0732 313.713 51.2441 312.786 51.2441C311.85 51.2441 311.007 51.0732 310.259 50.7314C309.518 50.3896 308.892 49.9176 308.379 49.3154C307.858 48.7132 307.459 48.0052 307.183 47.1914C306.906 46.3776 306.768 45.4946 306.768 44.5425V44.2739ZM309.026 44.5425C309.026 45.1935 309.103 45.8161 309.258 46.4102C309.412 46.9961 309.648 47.5129 309.966 47.9604C310.275 48.408 310.666 48.762 311.138 49.0225C311.61 49.2829 312.159 49.4131 312.786 49.4131C313.404 49.4131 313.945 49.2829 314.409 49.0225C314.881 48.762 315.276 48.408 315.593 47.9604C315.903 47.5129 316.134 46.9961 316.289 46.4102C316.444 45.8161 316.521 45.1935 316.521 44.5425V44.2739C316.521 43.631 316.44 43.0166 316.277 42.4307C316.122 41.8366 315.89 41.3158 315.581 40.8682C315.264 40.4206 314.869 40.0666 314.397 39.8062C313.933 39.5376 313.388 39.4033 312.761 39.4033C312.135 39.4033 311.589 39.5376 311.125 39.8062C310.662 40.0666 310.275 40.4206 309.966 40.8682C309.648 41.3158 309.412 41.8366 309.258 42.4307C309.103 43.0166 309.026 43.631 309.026 44.2739V44.5425ZM322.271 32.25H329.021V49.0469H333.331V51H322.271V49.0469H326.763V34.2153H322.271V32.25ZM335.797 44.2739C335.797 43.3218 335.935 42.4388 336.212 41.625C336.489 40.8031 336.887 40.091 337.408 39.4888C337.921 38.8866 338.548 38.4146 339.288 38.0728C340.029 37.7228 340.863 37.5479 341.791 37.5479C342.726 37.5479 343.565 37.7228 344.305 38.0728C345.054 38.4146 345.689 38.8866 346.209 39.4888C346.722 40.091 347.117 40.8031 347.394 41.625C347.67 42.4388 347.809 43.3218 347.809 44.2739V44.5425C347.809 45.4946 347.67 46.3776 347.394 47.1914C347.117 48.0052 346.722 48.7132 346.209 49.3154C345.689 49.9176 345.058 50.3896 344.317 50.7314C343.577 51.0732 342.743 51.2441 341.815 51.2441C340.879 51.2441 340.037 51.0732 339.288 50.7314C338.548 50.3896 337.921 49.9176 337.408 49.3154C336.887 48.7132 336.489 48.0052 336.212 47.1914C335.935 46.3776 335.797 45.4946 335.797 44.5425V44.2739ZM338.055 44.5425C338.055 45.1935 338.132 45.8161 338.287 46.4102C338.442 46.9961 338.678 47.5129 338.995 47.9604C339.304 48.408 339.695 48.762 340.167 49.0225C340.639 49.2829 341.188 49.4131 341.815 49.4131C342.433 49.4131 342.975 49.2829 343.438 49.0225C343.91 48.762 344.305 48.408 344.623 47.9604C344.932 47.5129 345.164 46.9961 345.318 46.4102C345.473 45.8161 345.55 45.1935 345.55 44.5425V44.2739C345.55 43.631 345.469 43.0166 345.306 42.4307C345.152 41.8366 344.92 41.3158 344.61 40.8682C344.293 40.4206 343.898 40.0666 343.426 39.8062C342.962 39.5376 342.417 39.4033 341.791 39.4033C341.164 39.4033 340.619 39.5376 340.155 39.8062C339.691 40.0666 339.304 40.4206 338.995 40.8682C338.678 41.3158 338.442 41.8366 338.287 42.4307C338.132 43.0166 338.055 43.631 338.055 44.2739V44.5425ZM359.601 37.5479C360.016 37.5479 360.447 37.5763 360.895 37.6333C361.351 37.6903 361.693 37.7676 361.92 37.8652L361.615 40.0747C361.176 39.9771 360.757 39.9079 360.358 39.8672C359.967 39.8184 359.556 39.7939 359.125 39.7939C358.572 39.7939 358.071 39.8631 357.624 40.0015C357.176 40.1317 356.785 40.327 356.452 40.5874C356.151 40.8153 355.886 41.096 355.658 41.4297C355.438 41.7552 355.255 42.1214 355.109 42.5283V51H352.838V37.792H354.987L355.084 39.562L355.097 39.8916C355.634 39.1673 356.277 38.5977 357.025 38.1826C357.782 37.7594 358.641 37.5479 359.601 37.5479ZM369.501 33.5806L369.245 38.0972H367.658L367.67 33.7759V32.25H369.501V33.5806ZM373.859 33.5806L373.603 38.0972H372.028L372.041 33.7759V32.25H373.872L373.859 33.5806ZM380.024 48.5952V46.2515L387.922 43.2729L388.655 43.0654L387.922 42.8335L380.024 39.9038V37.5723L390.803 42.1865V43.9688L380.024 48.5952ZM393.453 46.0684H395.723C395.723 46.5322 395.821 46.9676 396.016 47.3745C396.211 47.7814 396.484 48.1354 396.834 48.4365C397.184 48.7376 397.603 48.9777 398.091 49.1567C398.58 49.3276 399.117 49.4131 399.703 49.4131C400.362 49.4131 400.952 49.3317 401.473 49.1689C402.002 49.0062 402.453 48.7783 402.828 48.4854C403.194 48.1924 403.475 47.8424 403.67 47.4355C403.865 47.0286 403.963 46.5811 403.963 46.0928C403.963 45.7021 403.918 45.3522 403.829 45.043C403.747 44.7256 403.621 44.4489 403.45 44.2129C403.279 43.9688 403.076 43.7653 402.84 43.6025C402.604 43.4316 402.331 43.2933 402.022 43.1875C401.729 43.0817 401.399 43.0044 401.033 42.9556C400.675 42.8986 400.289 42.8701 399.874 42.8701H397.64V41.0146H399.874C400.24 41.0065 400.577 40.9821 400.887 40.9414C401.204 40.8926 401.493 40.8234 401.753 40.7339C401.981 40.6525 402.189 40.5589 402.376 40.4531C402.571 40.3392 402.742 40.209 402.889 40.0625C403.157 39.8102 403.357 39.5091 403.487 39.1592C403.625 38.8011 403.694 38.4105 403.694 37.9873C403.694 37.5397 403.609 37.1247 403.438 36.7422C403.275 36.3597 403.027 36.026 402.693 35.7412C402.36 35.4564 401.945 35.2326 401.448 35.0698C400.952 34.9071 400.37 34.8257 399.703 34.8257C399.19 34.8257 398.706 34.903 398.25 35.0576C397.794 35.2041 397.4 35.4116 397.066 35.6802C396.732 35.9569 396.464 36.2824 396.26 36.6567C396.065 37.0311 395.967 37.438 395.967 37.8774H393.709C393.709 37.1206 393.868 36.4411 394.185 35.8389C394.511 35.2285 394.95 34.7118 395.503 34.2886C396.049 33.8735 396.683 33.5521 397.408 33.3242C398.132 33.0964 398.897 32.9824 399.703 32.9824C400.639 32.9824 401.489 33.0882 402.254 33.2998C403.027 33.5114 403.69 33.8288 404.244 34.252C404.789 34.6751 405.212 35.2041 405.513 35.8389C405.814 36.4736 405.965 37.2061 405.965 38.0361C405.957 38.5814 405.843 39.0941 405.623 39.5742C405.403 40.0462 405.09 40.4694 404.683 40.8438C404.463 41.0472 404.215 41.2384 403.938 41.4175C403.67 41.5884 403.377 41.743 403.06 41.8813C403.475 42.0197 403.849 42.1865 404.183 42.3818C404.524 42.5771 404.826 42.8009 405.086 43.0532C405.46 43.4276 405.745 43.863 405.94 44.3594C406.136 44.8558 406.233 45.4173 406.233 46.0439C406.233 46.8822 406.067 47.6268 405.733 48.2778C405.407 48.9207 404.956 49.4619 404.378 49.9014C403.792 50.349 403.1 50.6867 402.303 50.9146C401.505 51.1424 400.639 51.2563 399.703 51.2563C398.93 51.2563 398.169 51.1587 397.42 50.9634C396.679 50.7599 396.016 50.4466 395.43 50.0234C394.844 49.6003 394.368 49.0632 394.002 48.4121C393.636 47.7529 393.453 46.9717 393.453 46.0684ZM414.84 51.2441C413.912 51.2441 413.058 51.0854 412.276 50.7681C411.503 50.4507 410.84 50.0072 410.287 49.4375C409.733 48.8678 409.302 48.1924 408.993 47.4111C408.683 46.6299 408.529 45.7795 408.529 44.8599V44.3472C408.529 43.2811 408.7 42.3289 409.042 41.4907C409.383 40.6444 409.839 39.9282 410.409 39.3423C410.97 38.7645 411.609 38.321 412.325 38.0117C413.049 37.7025 413.79 37.5479 414.547 37.5479C415.499 37.5479 416.329 37.7147 417.037 38.0483C417.753 38.3739 418.347 38.8255 418.819 39.4033C419.291 39.9893 419.641 40.6769 419.869 41.4663C420.105 42.2557 420.223 43.1102 420.223 44.0298V45.043H410.787V45.1284C410.844 45.7713 410.97 46.3369 411.166 46.8252C411.369 47.3135 411.646 47.7448 411.996 48.1191C412.354 48.5179 412.785 48.8312 413.29 49.0591C413.794 49.2869 414.352 49.4009 414.962 49.4009C415.768 49.4009 416.484 49.2381 417.11 48.9126C417.737 48.5871 418.258 48.1558 418.673 47.6187L420.052 48.6929C419.613 49.3602 418.954 49.9543 418.075 50.4751C417.204 50.9878 416.126 51.2441 414.84 51.2441ZM414.547 39.4033C414.091 39.4033 413.66 39.4888 413.253 39.6597C412.846 39.8224 412.48 40.0625 412.154 40.3799C411.829 40.7054 411.552 41.1042 411.324 41.5762C411.104 42.04 410.95 42.5771 410.86 43.1875H417.965V43.0776C417.965 42.6707 417.888 42.2354 417.733 41.7715C417.578 41.2995 417.363 40.8926 417.086 40.5508C416.809 40.209 416.459 39.9323 416.036 39.7207C415.621 39.5091 415.125 39.4033 414.547 39.4033ZM434.359 37.792V51H432.089V39.6597H427.23L427.218 43.4438C427.218 43.8914 427.206 44.3268 427.182 44.75C427.165 45.165 427.137 45.5597 427.096 45.9341C427.031 46.5526 426.929 47.1222 426.791 47.6431C426.653 48.1639 426.478 48.6237 426.266 49.0225C425.924 49.6654 425.465 50.1577 424.887 50.4995C424.309 50.8332 423.589 51 422.726 51H422.067L422.104 48.9858L422.604 48.9736C423.068 48.9736 423.45 48.8597 423.751 48.6318C424.061 48.3958 424.305 48.0459 424.484 47.582C424.573 47.3298 424.651 47.0409 424.716 46.7153C424.781 46.3817 424.834 46.0155 424.875 45.6167C424.899 45.2993 424.915 44.9616 424.923 44.6035C424.94 44.2373 424.948 43.8507 424.948 43.4438L424.972 37.792H434.359ZM443.869 51.2441C442.941 51.2441 442.087 51.0854 441.306 50.7681C440.533 50.4507 439.869 50.0072 439.316 49.4375C438.763 48.8678 438.331 48.1924 438.022 47.4111C437.713 46.6299 437.558 45.7795 437.558 44.8599V44.3472C437.558 43.2811 437.729 42.3289 438.071 41.4907C438.413 40.6444 438.868 39.9282 439.438 39.3423C440 38.7645 440.638 38.321 441.354 38.0117C442.079 37.7025 442.819 37.5479 443.576 37.5479C444.528 37.5479 445.358 37.7147 446.066 38.0483C446.783 38.3739 447.377 38.8255 447.849 39.4033C448.321 39.9893 448.671 40.6769 448.898 41.4663C449.134 42.2557 449.252 43.1102 449.252 44.0298V45.043H439.816V45.1284C439.873 45.7713 440 46.3369 440.195 46.8252C440.398 47.3135 440.675 47.7448 441.025 48.1191C441.383 48.5179 441.814 48.8312 442.319 49.0591C442.823 49.2869 443.381 49.4009 443.991 49.4009C444.797 49.4009 445.513 49.2381 446.14 48.9126C446.766 48.5871 447.287 48.1558 447.702 47.6187L449.082 48.6929C448.642 49.3602 447.983 49.9543 447.104 50.4751C446.233 50.9878 445.155 51.2441 443.869 51.2441ZM443.576 39.4033C443.12 39.4033 442.689 39.4888 442.282 39.6597C441.875 39.8224 441.509 40.0625 441.184 40.3799C440.858 40.7054 440.581 41.1042 440.354 41.5762C440.134 42.04 439.979 42.5771 439.89 43.1875H446.994V43.0776C446.994 42.6707 446.917 42.2354 446.762 41.7715C446.608 41.2995 446.392 40.8926 446.115 40.5508C445.839 40.209 445.489 39.9323 445.065 39.7207C444.65 39.5091 444.154 39.4033 443.576 39.4033ZM439.487 33.9468C439.487 33.5806 439.597 33.2754 439.816 33.0312C440.044 32.779 440.378 32.6528 440.817 32.6528C441.257 32.6528 441.59 32.779 441.818 33.0312C442.046 33.2754 442.16 33.5806 442.16 33.9468C442.16 34.313 442.046 34.6182 441.818 34.8623C441.59 35.1064 441.257 35.2285 440.817 35.2285C440.378 35.2285 440.044 35.1064 439.816 34.8623C439.597 34.6182 439.487 34.313 439.487 33.9468ZM444.736 33.9712C444.736 33.605 444.846 33.2957 445.065 33.0435C445.293 32.7912 445.627 32.665 446.066 32.665C446.506 32.665 446.84 32.7912 447.067 33.0435C447.295 33.2957 447.409 33.605 447.409 33.9712C447.409 34.3293 447.295 34.6344 447.067 34.8867C446.84 35.1309 446.506 35.2529 446.066 35.2529C445.627 35.2529 445.293 35.1309 445.065 34.8867C444.846 34.6344 444.736 34.3293 444.736 33.9712ZM463.401 51H461.143V45.3604H454.697V51H452.439V37.792H454.697V43.5171H461.143V37.792H463.401V51ZM468.956 42.7969H470.164C470.872 42.7969 471.499 42.8986 472.044 43.1021C472.597 43.3055 473.061 43.5863 473.436 43.9443C473.802 44.3105 474.078 44.7419 474.266 45.2383C474.461 45.7347 474.559 46.2718 474.559 46.8496C474.559 47.4274 474.461 47.9686 474.266 48.4731C474.078 48.9777 473.802 49.4172 473.436 49.7915C473.061 50.1659 472.601 50.4629 472.056 50.6826C471.511 50.8942 470.88 51 470.164 51H466.697V37.792H468.956V42.7969ZM478.208 51H475.95V37.792H478.208V51ZM468.956 44.6401V49.1567H470.164C470.547 49.1567 470.872 49.0957 471.141 48.9736C471.409 48.8434 471.629 48.6725 471.8 48.4609C471.963 48.2575 472.081 48.0256 472.154 47.7651C472.235 47.4966 472.276 47.2199 472.276 46.9351C472.276 46.6665 472.235 46.3979 472.154 46.1294C472.081 45.8527 471.963 45.6045 471.8 45.3848C471.629 45.165 471.409 44.986 471.141 44.8477C470.872 44.7093 470.547 44.6401 470.164 44.6401H468.956ZM490.172 37.792H492.43V51H490.172V41.2588L483.714 51H481.468V37.792H483.714V47.5454L490.172 37.792ZM490.453 32.4087C490.453 32.8888 490.367 33.3324 490.196 33.7393C490.025 34.138 489.781 34.4798 489.464 34.7646C489.146 35.0495 488.764 35.2733 488.316 35.436C487.869 35.5907 487.368 35.668 486.815 35.668C486.253 35.668 485.749 35.5907 485.301 35.436C484.854 35.2733 484.471 35.0495 484.154 34.7646C483.836 34.4798 483.588 34.138 483.409 33.7393C483.238 33.3324 483.153 32.8888 483.153 32.4087H484.984C484.984 32.6528 485.021 32.8888 485.094 33.1167C485.167 33.3364 485.277 33.5277 485.423 33.6904C485.57 33.8532 485.757 33.9834 485.985 34.0811C486.213 34.1787 486.489 34.2275 486.815 34.2275C487.132 34.2275 487.401 34.1787 487.621 34.0811C487.848 33.9834 488.036 33.8532 488.182 33.6904C488.329 33.5277 488.438 33.3364 488.512 33.1167C488.585 32.8888 488.622 32.6528 488.622 32.4087H490.453ZM520.483 44.1519H511.145V42.2964H520.483V44.1519ZM544.886 48.0093L547.693 37.792H550.513V51H548.255V42.8579L545.667 51H544.104L541.443 42.5649V51H539.185V37.792H542.103L544.886 48.0093ZM553.517 44.2739C553.517 43.3218 553.655 42.4388 553.932 41.625C554.208 40.8031 554.607 40.091 555.128 39.4888C555.641 38.8866 556.267 38.4146 557.008 38.0728C557.748 37.7228 558.583 37.5479 559.51 37.5479C560.446 37.5479 561.284 37.7228 562.025 38.0728C562.774 38.4146 563.408 38.8866 563.929 39.4888C564.442 40.091 564.837 40.8031 565.113 41.625C565.39 42.4388 565.528 43.3218 565.528 44.2739V44.5425C565.528 45.4946 565.39 46.3776 565.113 47.1914C564.837 48.0052 564.442 48.7132 563.929 49.3154C563.408 49.9176 562.778 50.3896 562.037 50.7314C561.297 51.0732 560.462 51.2441 559.535 51.2441C558.599 51.2441 557.757 51.0732 557.008 50.7314C556.267 50.3896 555.641 49.9176 555.128 49.3154C554.607 48.7132 554.208 48.0052 553.932 47.1914C553.655 46.3776 553.517 45.4946 553.517 44.5425V44.2739ZM555.775 44.5425C555.775 45.1935 555.852 45.8161 556.007 46.4102C556.161 46.9961 556.397 47.5129 556.715 47.9604C557.024 48.408 557.415 48.762 557.887 49.0225C558.359 49.2829 558.908 49.4131 559.535 49.4131C560.153 49.4131 560.694 49.2829 561.158 49.0225C561.63 48.762 562.025 48.408 562.342 47.9604C562.652 47.5129 562.883 46.9961 563.038 46.4102C563.193 45.8161 563.27 45.1935 563.27 44.5425V44.2739C563.27 43.631 563.189 43.0166 563.026 42.4307C562.871 41.8366 562.639 41.3158 562.33 40.8682C562.013 40.4206 561.618 40.0666 561.146 39.8062C560.682 39.5376 560.137 39.4033 559.51 39.4033C558.884 39.4033 558.338 39.5376 557.875 39.8062C557.411 40.0666 557.024 40.4206 556.715 40.8682C556.397 41.3158 556.161 41.8366 556.007 42.4307C555.852 43.0166 555.775 43.631 555.775 44.2739V44.5425ZM577.26 37.792H579.518V51H577.26V41.2588L570.802 51H568.556V37.792H570.802V47.5454L577.26 37.792ZM577.541 32.4087C577.541 32.8888 577.455 33.3324 577.284 33.7393C577.113 34.138 576.869 34.4798 576.552 34.7646C576.234 35.0495 575.852 35.2733 575.404 35.436C574.957 35.5907 574.456 35.668 573.903 35.668C573.341 35.668 572.837 35.5907 572.389 35.436C571.942 35.2733 571.559 35.0495 571.242 34.7646C570.924 34.4798 570.676 34.138 570.497 33.7393C570.326 33.3324 570.241 32.8888 570.241 32.4087H572.072C572.072 32.6528 572.108 32.8888 572.182 33.1167C572.255 33.3364 572.365 33.5277 572.511 33.6904C572.658 33.8532 572.845 33.9834 573.073 34.0811C573.301 34.1787 573.577 34.2275 573.903 34.2275C574.22 34.2275 574.489 34.1787 574.708 34.0811C574.936 33.9834 575.124 33.8532 575.27 33.6904C575.417 33.5277 575.526 33.3364 575.6 33.1167C575.673 32.8888 575.709 32.6528 575.709 32.4087H577.541ZM608.535 37.792V51H606.265V39.6597H601.406L601.394 43.4438C601.394 43.8914 601.382 44.3268 601.357 44.75C601.341 45.165 601.313 45.5597 601.272 45.9341C601.207 46.5526 601.105 47.1222 600.967 47.6431C600.828 48.1639 600.653 48.6237 600.442 49.0225C600.1 49.6654 599.64 50.1577 599.062 50.4995C598.485 50.8332 597.764 51 596.902 51H596.243L596.279 48.9858L596.78 48.9736C597.244 48.9736 597.626 48.8597 597.927 48.6318C598.236 48.3958 598.481 48.0459 598.66 47.582C598.749 47.3298 598.826 47.0409 598.892 46.7153C598.957 46.3817 599.01 46.0155 599.05 45.6167C599.075 45.2993 599.091 44.9616 599.099 44.6035C599.115 44.2373 599.124 43.8507 599.124 43.4438L599.148 37.792H608.535ZM613.724 43.395H615.311C615.368 42.5649 615.498 41.7959 615.701 41.0879C615.905 40.3717 616.189 39.7492 616.556 39.2202C616.922 38.6994 617.365 38.2925 617.886 37.9995C618.407 37.6984 619.013 37.5479 619.705 37.5479C620.462 37.5479 621.121 37.7228 621.683 38.0728C622.244 38.4227 622.708 38.9028 623.074 39.5132C623.44 40.1235 623.713 40.8397 623.892 41.6616C624.071 42.4754 624.161 43.3462 624.161 44.2739V44.5425C624.161 45.4702 624.071 46.3451 623.892 47.167C623.713 47.9808 623.444 48.6888 623.086 49.291C622.72 49.8932 622.256 50.3693 621.695 50.7192C621.141 51.0692 620.486 51.2441 619.729 51.2441C619.021 51.2441 618.399 51.0936 617.862 50.7925C617.333 50.4832 616.885 50.0601 616.519 49.5229C616.153 48.9858 615.868 48.3511 615.665 47.6187C615.469 46.8862 615.347 46.0968 615.298 45.2505H613.724V51H611.465V37.792H613.724V43.395ZM617.557 44.5425C617.557 45.1772 617.589 45.7917 617.654 46.3857C617.719 46.9717 617.837 47.4884 618.008 47.936C618.171 48.3836 618.391 48.7417 618.667 49.0103C618.944 49.2788 619.298 49.4131 619.729 49.4131C620.153 49.4131 620.503 49.2788 620.779 49.0103C621.064 48.7417 621.288 48.3836 621.451 47.936C621.613 47.4884 621.727 46.9717 621.792 46.3857C621.866 45.7917 621.902 45.1772 621.902 44.5425V44.2739C621.902 43.6392 621.866 43.0288 621.792 42.4429C621.727 41.8569 621.613 41.3361 621.451 40.8804C621.28 40.4328 621.052 40.0747 620.767 39.8062C620.49 39.5376 620.136 39.4033 619.705 39.4033C619.282 39.4033 618.932 39.5376 618.655 39.8062C618.379 40.0747 618.159 40.4328 617.996 40.8804C617.833 41.3361 617.719 41.8569 617.654 42.4429C617.589 43.0288 617.557 43.6392 617.557 44.2739V44.5425ZM632.486 38.5488C633.349 38.5488 634.118 38.7035 634.793 39.0127C635.469 39.3138 636.043 39.7288 636.515 40.2578C636.987 40.7949 637.345 41.4297 637.589 42.1621C637.841 42.8864 637.967 43.6758 637.967 44.5303V44.811C637.967 45.7306 637.833 46.5811 637.564 47.3623C637.304 48.1436 636.922 48.8231 636.417 49.4009C635.912 49.9787 635.294 50.4303 634.562 50.7559C633.837 51.0814 633.011 51.2441 632.083 51.2441C631.156 51.2441 630.326 51.0814 629.593 50.7559C628.861 50.4303 628.242 49.9787 627.738 49.4009C627.233 48.8231 626.847 48.1436 626.578 47.3623C626.31 46.5811 626.175 45.7306 626.175 44.811V43.6025C626.175 42.8376 626.212 42.1214 626.285 41.4541C626.367 40.7786 626.48 40.1561 626.627 39.5864C626.765 39.0575 626.932 38.5651 627.127 38.1094C627.323 37.6536 627.547 37.2345 627.799 36.8521C628.312 36.0708 628.934 35.4482 629.667 34.9844C630.407 34.5124 631.229 34.1909 632.132 34.02C632.564 33.9386 632.962 33.8532 633.329 33.7637C633.703 33.666 634.028 33.5439 634.305 33.3975C634.574 33.2591 634.785 33.0841 634.94 32.8726C635.095 32.6528 635.172 32.3761 635.172 32.0425H637.027C637.027 32.7993 636.909 33.4097 636.673 33.8735C636.445 34.3374 636.124 34.7077 635.709 34.9844C635.343 35.2285 634.936 35.4116 634.488 35.5337C634.049 35.6558 633.426 35.8022 632.621 35.9731C632.051 36.0952 631.518 36.2661 631.021 36.4858C630.525 36.6974 630.082 36.9863 629.691 37.3525C629.3 37.7188 628.971 38.1704 628.702 38.7075C628.434 39.2365 628.238 39.8753 628.116 40.624C628.377 40.3229 628.666 40.0462 628.983 39.7939C629.3 39.5335 629.642 39.3097 630.008 39.1226C630.375 38.9435 630.765 38.8052 631.18 38.7075C631.595 38.6017 632.031 38.5488 632.486 38.5488ZM632.059 40.4043C631.441 40.4043 630.903 40.5182 630.448 40.7461C629.992 40.9658 629.618 41.2629 629.325 41.6372C629.024 42.0197 628.8 42.4591 628.653 42.9556C628.507 43.452 628.434 43.9769 628.434 44.5303V44.811C628.434 45.4295 628.507 46.0195 628.653 46.5811C628.8 47.1344 629.024 47.6187 629.325 48.0337C629.618 48.4569 629.992 48.7946 630.448 49.0469C630.912 49.291 631.457 49.4131 632.083 49.4131C632.702 49.4131 633.235 49.291 633.683 49.0469C634.138 48.7946 634.517 48.4569 634.818 48.0337C635.119 47.6187 635.343 47.1344 635.489 46.5811C635.636 46.0195 635.709 45.4295 635.709 44.811V44.5303C635.709 43.9769 635.636 43.452 635.489 42.9556C635.343 42.4591 635.119 42.0197 634.818 41.6372C634.517 41.2629 634.134 40.9658 633.67 40.7461C633.215 40.5182 632.678 40.4043 632.059 40.4043ZM649.833 37.792H652.091V51H649.833V41.2588L643.375 51H641.129V37.792H643.375V47.5454L649.833 37.792ZM661.003 48.0093L663.811 37.792H666.63V51H664.372V42.8579L661.784 51H660.222L657.561 42.5649V51H655.302V37.792H658.22L661.003 48.0093ZM672.161 42.7969H673.369C674.077 42.7969 674.704 42.8986 675.249 43.1021C675.802 43.3055 676.266 43.5863 676.641 43.9443C677.007 44.3105 677.284 44.7419 677.471 45.2383C677.666 45.7347 677.764 46.2718 677.764 46.8496C677.764 47.4274 677.666 47.9686 677.471 48.4731C677.284 48.9777 677.007 49.4172 676.641 49.7915C676.266 50.1659 675.806 50.4629 675.261 50.6826C674.716 50.8942 674.085 51 673.369 51H669.902V37.792H672.161V42.7969ZM681.414 51H679.155V37.792H681.414V51ZM672.161 44.6401V49.1567H673.369C673.752 49.1567 674.077 49.0957 674.346 48.9736C674.614 48.8434 674.834 48.6725 675.005 48.4609C675.168 48.2575 675.286 48.0256 675.359 47.7651C675.44 47.4966 675.481 47.2199 675.481 46.9351C675.481 46.6665 675.44 46.3979 675.359 46.1294C675.286 45.8527 675.168 45.6045 675.005 45.3848C674.834 45.165 674.614 44.986 674.346 44.8477C674.077 44.7093 673.752 44.6401 673.369 44.6401H672.161ZM693.377 37.792H695.635V51H693.377V41.2588L686.919 51H684.673V37.792H686.919V47.5454L693.377 37.792ZM693.658 32.4087C693.658 32.8888 693.572 33.3324 693.401 33.7393C693.23 34.138 692.986 34.4798 692.669 34.7646C692.352 35.0495 691.969 35.2733 691.521 35.436C691.074 35.5907 690.573 35.668 690.02 35.668C689.458 35.668 688.954 35.5907 688.506 35.436C688.059 35.2733 687.676 35.0495 687.359 34.7646C687.042 34.4798 686.793 34.138 686.614 33.7393C686.443 33.3324 686.358 32.8888 686.358 32.4087H688.189C688.189 32.6528 688.226 32.8888 688.299 33.1167C688.372 33.3364 688.482 33.5277 688.628 33.6904C688.775 33.8532 688.962 33.9834 689.19 34.0811C689.418 34.1787 689.694 34.2275 690.02 34.2275C690.337 34.2275 690.606 34.1787 690.826 34.0811C691.054 33.9834 691.241 33.8532 691.387 33.6904C691.534 33.5277 691.644 33.3364 691.717 33.1167C691.79 32.8888 691.827 32.6528 691.827 32.4087H693.658ZM713.764 37.792H716.022V49.1567H722.101V37.792H724.372V49.1567H725.946L725.727 54.9185H723.7V51H713.764V37.792ZM728.205 51V37.792H733.393C734.207 37.792 734.947 37.8652 735.615 38.0117C736.282 38.1582 736.856 38.3779 737.336 38.6709C737.808 38.9639 738.17 39.3382 738.422 39.7939C738.683 40.2497 738.813 40.7909 738.813 41.4175C738.813 41.8162 738.736 42.1906 738.581 42.5405C738.435 42.8823 738.215 43.1834 737.922 43.4438C737.759 43.5985 737.572 43.7368 737.36 43.8589C737.149 43.981 736.917 44.0908 736.665 44.1885L736.762 44.2129C737.169 44.3187 737.523 44.4692 737.824 44.6646C738.133 44.8517 738.398 45.0755 738.618 45.3359C738.837 45.6045 739.004 45.9015 739.118 46.2271C739.232 46.5526 739.289 46.8944 739.289 47.2524C739.289 47.8791 739.171 48.4284 738.935 48.9004C738.699 49.3643 738.361 49.7508 737.922 50.0601C737.482 50.3774 736.949 50.6134 736.323 50.7681C735.704 50.9227 735.008 51 734.235 51H728.205ZM730.476 45.2017V49.1812H734.235C734.715 49.1812 735.135 49.1323 735.493 49.0347C735.859 48.937 736.16 48.7946 736.396 48.6074C736.599 48.4447 736.754 48.2453 736.86 48.0093C736.966 47.7651 737.019 47.4884 737.019 47.1792C737.019 46.8618 736.958 46.5811 736.835 46.3369C736.722 46.0928 736.551 45.8893 736.323 45.7266C736.087 45.5557 735.794 45.4255 735.444 45.3359C735.094 45.2464 734.691 45.2017 734.235 45.2017H730.476ZM730.476 43.395H733.417C734.028 43.395 734.553 43.3421 734.992 43.2363C735.432 43.1305 735.782 42.9637 736.042 42.7358C736.205 42.5894 736.331 42.4185 736.42 42.2231C736.51 42.0197 736.555 41.7918 736.555 41.5396C736.555 41.2059 736.481 40.917 736.335 40.6729C736.197 40.4287 735.989 40.2293 735.712 40.0747C735.452 39.9201 735.122 39.8062 734.724 39.7329C734.333 39.6597 733.889 39.623 733.393 39.623H730.476V43.395ZM748.677 51.2441C747.749 51.2441 746.895 51.0854 746.113 50.7681C745.34 50.4507 744.677 50.0072 744.124 49.4375C743.57 48.8678 743.139 48.1924 742.83 47.4111C742.52 46.6299 742.366 45.7795 742.366 44.8599V44.3472C742.366 43.2811 742.537 42.3289 742.878 41.4907C743.22 40.6444 743.676 39.9282 744.246 39.3423C744.807 38.7645 745.446 38.321 746.162 38.0117C746.886 37.7025 747.627 37.5479 748.384 37.5479C749.336 37.5479 750.166 37.7147 750.874 38.0483C751.59 38.3739 752.184 38.8255 752.656 39.4033C753.128 39.9893 753.478 40.6769 753.706 41.4663C753.942 42.2557 754.06 43.1102 754.06 44.0298V45.043H744.624V45.1284C744.681 45.7713 744.807 46.3369 745.002 46.8252C745.206 47.3135 745.483 47.7448 745.833 48.1191C746.191 48.5179 746.622 48.8312 747.126 49.0591C747.631 49.2869 748.188 49.4009 748.799 49.4009C749.604 49.4009 750.321 49.2381 750.947 48.9126C751.574 48.5871 752.095 48.1558 752.51 47.6187L753.889 48.6929C753.45 49.3602 752.791 49.9543 751.912 50.4751C751.041 50.9878 749.963 51.2441 748.677 51.2441ZM748.384 39.4033C747.928 39.4033 747.497 39.4888 747.09 39.6597C746.683 39.8224 746.317 40.0625 745.991 40.3799C745.666 40.7054 745.389 41.1042 745.161 41.5762C744.941 42.04 744.787 42.5771 744.697 43.1875H751.802V43.0776C751.802 42.6707 751.724 42.2354 751.57 41.7715C751.415 41.2995 751.2 40.8926 750.923 40.5508C750.646 40.209 750.296 39.9323 749.873 39.7207C749.458 39.5091 748.962 39.4033 748.384 39.4033ZM769.234 39.623H763.96V51H761.69V39.623H756.502V37.792H769.234V39.623ZM782.174 48.6074L771.822 43.981V42.1987L782.174 37.5845V39.9771L774.703 42.9067L774.056 43.1143L774.703 43.334L782.174 46.2148V48.6074ZM789.364 52.5259H787.338L794.76 33.2266H796.774L789.364 52.5259ZM815.464 48.5952V46.2515L823.362 43.2729L824.094 43.0654L823.362 42.8335L815.464 39.9038V37.5723L826.243 42.1865V43.9688L815.464 48.5952Z" fill="white"/>
<path d="M46.1265 56.0781V37.792H48.1895L48.2993 39.2324C48.4784 39.0046 48.6737 38.8011 48.8853 38.6221C49.0968 38.4349 49.3247 38.2762 49.5688 38.146C49.9106 37.9507 50.2891 37.8042 50.7041 37.7065C51.1273 37.6007 51.5789 37.5479 52.0591 37.5479C52.9054 37.5479 53.6541 37.7147 54.3052 38.0483C54.9562 38.382 55.5015 38.8459 55.9409 39.4399C56.3804 40.034 56.714 40.7461 56.9419 41.5762C57.1698 42.3981 57.2837 43.3014 57.2837 44.2861V44.5425C57.2837 45.4865 57.1698 46.3695 56.9419 47.1914C56.714 48.0052 56.3804 48.7132 55.9409 49.3154C55.5015 49.9176 54.9562 50.3896 54.3052 50.7314C53.6623 51.0732 52.9258 51.2441 52.0957 51.2441C51.5911 51.2441 51.1191 51.1912 50.6797 51.0854C50.2484 50.9797 49.8577 50.8291 49.5078 50.6338C49.2962 50.5117 49.0968 50.3774 48.9097 50.231C48.7225 50.0763 48.5475 49.9095 48.3848 49.7305V56.0781H46.1265ZM55.0254 44.2861C55.0254 43.6432 54.9521 43.0329 54.8057 42.4551C54.6673 41.8691 54.4517 41.3524 54.1587 40.9048C53.8576 40.4653 53.4792 40.1154 53.0234 39.855C52.5677 39.5946 52.0225 39.4644 51.3877 39.4644C51.0378 39.4644 50.7122 39.505 50.4111 39.5864C50.1182 39.6678 49.8537 39.7858 49.6177 39.9404C49.3573 40.0951 49.1253 40.2863 48.9219 40.5142C48.7184 40.742 48.5394 40.9943 48.3848 41.271V47.6309C48.5231 47.875 48.6818 48.1029 48.8608 48.3145C49.0399 48.526 49.2433 48.7051 49.4712 48.8516C49.7316 49.0225 50.0205 49.1567 50.3379 49.2544C50.6634 49.3521 51.0215 49.4009 51.4121 49.4009C52.0387 49.4009 52.5799 49.2707 53.0356 49.0103C53.4914 48.7417 53.8657 48.3836 54.1587 47.936C54.4517 47.4884 54.6673 46.9717 54.8057 46.3857C54.9521 45.7998 55.0254 45.1854 55.0254 44.5425V44.2861ZM800.888 56.0781V37.792H802.951L803.061 39.2324C803.24 39.0046 803.435 38.8011 803.647 38.6221C803.859 38.4349 804.086 38.2762 804.331 38.146C804.672 37.9507 805.051 37.8042 805.466 37.7065C805.889 37.6007 806.341 37.5479 806.821 37.5479C807.667 37.5479 808.416 37.7147 809.067 38.0483C809.718 38.382 810.263 38.8459 810.703 39.4399C811.142 40.034 811.476 40.7461 811.704 41.5762C811.931 42.3981 812.045 43.3014 812.045 44.2861V44.5425C812.045 45.4865 811.931 46.3695 811.704 47.1914C811.476 48.0052 811.142 48.7132 810.703 49.3154C810.263 49.9176 809.718 50.3896 809.067 50.7314C808.424 51.0732 807.688 51.2441 806.857 51.2441C806.353 51.2441 805.881 51.1912 805.441 51.0854C805.01 50.9797 804.619 50.8291 804.27 50.6338C804.058 50.5117 803.859 50.3774 803.671 50.231C803.484 50.0763 803.309 49.9095 803.146 49.7305V56.0781H800.888ZM809.787 44.2861C809.787 43.6432 809.714 43.0329 809.567 42.4551C809.429 41.8691 809.213 41.3524 808.92 40.9048C808.619 40.4653 808.241 40.1154 807.785 39.855C807.329 39.5946 806.784 39.4644 806.149 39.4644C805.799 39.4644 805.474 39.505 805.173 39.5864C804.88 39.6678 804.615 39.7858 804.379 39.9404C804.119 40.0951 803.887 40.2863 803.684 40.5142C803.48 40.742 803.301 40.9943 803.146 41.271V47.6309C803.285 47.875 803.444 48.1029 803.623 48.3145C803.802 48.526 804.005 48.7051 804.233 48.8516C804.493 49.0225 804.782 49.1567 805.1 49.2544C805.425 49.3521 805.783 49.4009 806.174 49.4009C806.8 49.4009 807.342 49.2707 807.797 49.0103C808.253 48.7417 808.627 48.3836 808.92 47.936C809.213 47.4884 809.429 46.9717 809.567 46.3857C809.714 45.7998 809.787 45.1854 809.787 44.5425V44.2861Z" fill="#0066FF"/>
</svg>
