<svg width="1399" height="281" viewBox="0 0 1399 281" fill="none" xmlns="http://www.w3.org/2000/svg">
<rect width="1399" height="281" rx="20" fill="#0066FF" fill-opacity="0.2"/>
<rect x="1.5" y="1.5" width="1396" height="278" rx="18.5" stroke="#0066FF" stroke-opacity="0.5" stroke-width="3"/>
<path d="M52.4268 48.6074L42.0752 43.981V42.1987L52.4268 37.5845V39.9771L44.9561 42.9067L44.3091 43.1143L44.9561 43.334L52.4268 46.2148V48.6074ZM100.231 48.5952V46.2515L108.129 43.2729L108.862 43.0654L108.129 42.8335L100.231 39.9038V37.5723L111.01 42.1865V43.9688L100.231 48.5952ZM81.4561 81.6074L71.1045 76.981V75.1987L81.4561 70.5845V72.9771L73.9854 75.9067L73.3384 76.1143L73.9854 76.334L81.4561 79.2148V81.6074ZM114.746 81.5952V79.2515L122.644 76.2729L123.376 76.0654L122.644 75.8335L114.746 72.9038V70.5723L125.525 75.1865V76.9688L114.746 81.5952ZM110.485 114.607L100.134 109.981V108.199L110.485 103.584V105.977L103.015 108.907L102.368 109.114L103.015 109.334L110.485 112.215V114.607ZM143.775 114.595V112.251L151.673 109.273L152.406 109.065L151.673 108.833L143.775 105.904V103.572L154.554 108.187V109.969L143.775 114.595ZM168.544 114.607L158.192 109.981V108.199L168.544 103.584V105.977L161.073 108.907L160.426 109.114L161.073 109.334L168.544 112.215V114.607ZM204.043 105.757C204.222 105.489 204.422 105.245 204.642 105.025C204.861 104.797 205.093 104.598 205.337 104.427C205.728 104.142 206.155 103.926 206.619 103.78C207.091 103.633 207.592 103.556 208.121 103.548C208.812 103.548 209.439 103.65 210 103.853C210.57 104.048 211.054 104.358 211.453 104.781C211.852 105.204 212.157 105.741 212.369 106.392C212.588 107.035 212.698 107.8 212.698 108.687V117H210.44V108.663C210.44 108.142 210.379 107.686 210.257 107.295C210.135 106.897 209.956 106.567 209.72 106.307C209.467 106.022 209.15 105.81 208.768 105.672C208.385 105.525 207.946 105.456 207.449 105.464C207.042 105.464 206.656 105.521 206.29 105.635C205.923 105.749 205.586 105.912 205.276 106.124C205.032 106.286 204.804 106.478 204.593 106.697C204.389 106.909 204.206 107.145 204.043 107.405V117H201.785V98.25H204.043V105.757ZM224.955 103.548C225.37 103.548 225.801 103.576 226.249 103.633C226.704 103.69 227.046 103.768 227.274 103.865L226.969 106.075C226.529 105.977 226.11 105.908 225.711 105.867C225.321 105.818 224.91 105.794 224.479 105.794C223.925 105.794 223.425 105.863 222.977 106.001C222.529 106.132 222.139 106.327 221.805 106.587C221.504 106.815 221.24 107.096 221.012 107.43C220.792 107.755 220.609 108.121 220.462 108.528V117H218.192V103.792H220.34L220.438 105.562L220.45 105.892C220.987 105.167 221.63 104.598 222.379 104.183C223.136 103.759 223.994 103.548 224.955 103.548ZM236.649 117.244C235.722 117.244 234.867 117.085 234.086 116.768C233.313 116.451 232.65 116.007 232.096 115.438C231.543 114.868 231.111 114.192 230.802 113.411C230.493 112.63 230.338 111.779 230.338 110.86V110.347C230.338 109.281 230.509 108.329 230.851 107.491C231.193 106.644 231.649 105.928 232.218 105.342C232.78 104.764 233.419 104.321 234.135 104.012C234.859 103.702 235.6 103.548 236.356 103.548C237.309 103.548 238.139 103.715 238.847 104.048C239.563 104.374 240.157 104.826 240.629 105.403C241.101 105.989 241.451 106.677 241.679 107.466C241.915 108.256 242.033 109.11 242.033 110.03V111.043H232.597V111.128C232.654 111.771 232.78 112.337 232.975 112.825C233.179 113.313 233.455 113.745 233.805 114.119C234.163 114.518 234.595 114.831 235.099 115.059C235.604 115.287 236.161 115.401 236.771 115.401C237.577 115.401 238.293 115.238 238.92 114.913C239.547 114.587 240.067 114.156 240.482 113.619L241.862 114.693C241.422 115.36 240.763 115.954 239.884 116.475C239.014 116.988 237.935 117.244 236.649 117.244ZM236.356 105.403C235.901 105.403 235.469 105.489 235.062 105.66C234.656 105.822 234.289 106.062 233.964 106.38C233.638 106.705 233.362 107.104 233.134 107.576C232.914 108.04 232.759 108.577 232.67 109.188H239.774V109.078C239.774 108.671 239.697 108.235 239.542 107.771C239.388 107.299 239.172 106.893 238.896 106.551C238.619 106.209 238.269 105.932 237.846 105.721C237.431 105.509 236.934 105.403 236.356 105.403ZM248.698 117V105.538H245.061V103.792H248.698V102.864C248.698 102.018 248.82 101.277 249.064 100.643C249.317 99.9997 249.671 99.4626 250.126 99.0312C250.574 98.5999 251.115 98.2744 251.75 98.0547C252.385 97.835 253.093 97.7251 253.874 97.7251C254.2 97.7251 254.521 97.7454 254.838 97.7861C255.156 97.8187 255.469 97.8634 255.778 97.9204C255.982 97.9611 256.185 98.0059 256.389 98.0547C256.592 98.0954 256.8 98.1442 257.011 98.2012L256.743 100.069C256.409 99.9549 256.018 99.8573 255.571 99.7759C255.131 99.6864 254.659 99.6416 254.155 99.6416C253.642 99.6416 253.186 99.7067 252.788 99.8369C252.397 99.959 252.071 100.146 251.811 100.398C251.534 100.659 251.323 100.997 251.176 101.412C251.038 101.827 250.969 102.311 250.969 102.864V103.792H256.059V105.538H250.969V117H248.698ZM270.732 107.479H259.832V105.513H270.732V107.479ZM270.732 112.544H259.832V110.591H270.732V112.544ZM278.399 99.5806L278.143 104.097H276.556L276.568 99.7759V98.25H278.399V99.5806ZM282.757 99.5806L282.5 104.097H280.926L280.938 99.7759V98.25H282.769L282.757 99.5806ZM295.379 111.995H292.157L291.18 117H289.435L290.411 111.995H287.494V110.323H290.729L291.571 106.001H288.421V104.305H291.9L292.901 99.2266H294.647L293.646 104.305H296.869L297.87 99.2266H299.615L298.614 104.305H301.117V106.001H298.285L297.442 110.323H300.201V111.995H297.125L296.148 117H294.403L295.379 111.995ZM292.474 110.323H295.697L296.539 106.001H293.316L292.474 110.323ZM312.067 117C311.977 116.829 311.904 116.618 311.847 116.365C311.798 116.105 311.762 115.836 311.737 115.56C311.509 115.787 311.253 116.003 310.968 116.207C310.692 116.41 310.386 116.589 310.053 116.744C309.711 116.898 309.349 117.02 308.966 117.11C308.584 117.199 308.177 117.244 307.746 117.244C307.046 117.244 306.411 117.142 305.841 116.939C305.28 116.736 304.804 116.459 304.413 116.109C304.014 115.767 303.705 115.36 303.485 114.888C303.274 114.408 303.168 113.891 303.168 113.338C303.168 112.614 303.31 111.979 303.595 111.434C303.888 110.888 304.299 110.433 304.828 110.066C305.357 109.708 305.992 109.44 306.732 109.261C307.481 109.082 308.315 108.992 309.235 108.992H311.701V107.955C311.701 107.556 311.627 107.198 311.481 106.88C311.334 106.563 311.127 106.29 310.858 106.062C310.59 105.843 310.26 105.672 309.87 105.55C309.487 105.428 309.056 105.367 308.576 105.367C308.128 105.367 307.725 105.424 307.367 105.538C307.017 105.652 306.72 105.802 306.476 105.989C306.232 106.176 306.041 106.4 305.902 106.661C305.772 106.913 305.707 107.177 305.707 107.454H303.437C303.445 106.974 303.567 106.502 303.803 106.038C304.047 105.574 304.397 105.155 304.853 104.781C305.3 104.415 305.845 104.118 306.488 103.89C307.139 103.662 307.876 103.548 308.698 103.548C309.446 103.548 310.142 103.641 310.785 103.829C311.428 104.008 311.986 104.28 312.458 104.646C312.921 105.021 313.288 105.485 313.556 106.038C313.825 106.591 313.959 107.238 313.959 107.979V114.119C313.959 114.559 314 115.027 314.081 115.523C314.162 116.011 314.276 116.438 314.423 116.805V117H312.067ZM308.075 115.279C308.515 115.279 308.926 115.222 309.308 115.108C309.691 114.994 310.041 114.843 310.358 114.656C310.667 114.469 310.936 114.257 311.164 114.021C311.391 113.777 311.57 113.525 311.701 113.265V110.591H309.601C308.82 110.591 308.136 110.66 307.55 110.799C306.972 110.929 306.513 111.132 306.171 111.409C305.927 111.604 305.74 111.836 305.609 112.105C305.487 112.374 305.426 112.679 305.426 113.021C305.426 113.346 305.479 113.647 305.585 113.924C305.699 114.201 305.866 114.437 306.085 114.632C306.305 114.835 306.582 114.994 306.916 115.108C307.249 115.222 307.636 115.279 308.075 115.279ZM329.096 110.542C329.096 111.12 329.051 111.678 328.962 112.215C328.881 112.744 328.758 113.24 328.596 113.704C328.376 114.314 328.087 114.864 327.729 115.352C327.379 115.832 326.956 116.231 326.459 116.548C326.101 116.768 325.707 116.939 325.275 117.061C324.852 117.183 324.392 117.244 323.896 117.244C323.326 117.244 322.806 117.175 322.333 117.037C321.87 116.898 321.451 116.699 321.076 116.438C320.897 116.308 320.726 116.166 320.563 116.011C320.401 115.857 320.246 115.686 320.1 115.499L319.99 117H317.915V98.25H320.173V105.208C320.36 104.972 320.568 104.76 320.795 104.573C321.023 104.378 321.267 104.211 321.528 104.073C321.853 103.902 322.211 103.772 322.602 103.682C322.993 103.593 323.416 103.548 323.872 103.548C324.441 103.548 324.966 103.625 325.446 103.78C325.926 103.934 326.362 104.15 326.752 104.427C327.102 104.687 327.416 105.005 327.692 105.379C327.969 105.745 328.213 106.156 328.425 106.612C328.645 107.125 328.811 107.694 328.925 108.321C329.039 108.939 329.096 109.594 329.096 110.286V110.542ZM326.838 110.286C326.838 109.871 326.809 109.468 326.752 109.078C326.704 108.679 326.626 108.305 326.521 107.955C326.374 107.523 326.183 107.129 325.947 106.771C325.711 106.412 325.422 106.132 325.08 105.928C324.844 105.782 324.58 105.668 324.287 105.586C323.994 105.505 323.668 105.464 323.31 105.464C322.919 105.464 322.561 105.517 322.236 105.623C321.91 105.721 321.621 105.859 321.369 106.038C321.109 106.225 320.877 106.445 320.673 106.697C320.478 106.941 320.311 107.21 320.173 107.503V113.277C320.319 113.57 320.49 113.842 320.686 114.095C320.889 114.339 321.121 114.555 321.381 114.742C321.642 114.929 321.935 115.075 322.26 115.181C322.586 115.279 322.944 115.328 323.334 115.328C323.709 115.328 324.051 115.283 324.36 115.193C324.669 115.096 324.946 114.957 325.19 114.778C325.515 114.55 325.788 114.262 326.008 113.912C326.228 113.562 326.403 113.171 326.533 112.74C326.639 112.414 326.716 112.064 326.765 111.69C326.813 111.316 326.838 110.933 326.838 110.542V110.286ZM331.782 110.274C331.782 109.322 331.921 108.439 332.197 107.625C332.474 106.803 332.873 106.091 333.394 105.489C333.906 104.887 334.533 104.415 335.273 104.073C336.014 103.723 336.848 103.548 337.776 103.548C338.712 103.548 339.55 103.723 340.291 104.073C341.039 104.415 341.674 104.887 342.195 105.489C342.708 106.091 343.102 106.803 343.379 107.625C343.656 108.439 343.794 109.322 343.794 110.274V110.542C343.794 111.495 343.656 112.378 343.379 113.191C343.102 114.005 342.708 114.713 342.195 115.315C341.674 115.918 341.043 116.39 340.303 116.731C339.562 117.073 338.728 117.244 337.8 117.244C336.864 117.244 336.022 117.073 335.273 116.731C334.533 116.39 333.906 115.918 333.394 115.315C332.873 114.713 332.474 114.005 332.197 113.191C331.921 112.378 331.782 111.495 331.782 110.542V110.274ZM334.041 110.542C334.041 111.194 334.118 111.816 334.272 112.41C334.427 112.996 334.663 113.513 334.98 113.96C335.29 114.408 335.68 114.762 336.152 115.022C336.624 115.283 337.174 115.413 337.8 115.413C338.419 115.413 338.96 115.283 339.424 115.022C339.896 114.762 340.291 114.408 340.608 113.96C340.917 113.513 341.149 112.996 341.304 112.41C341.458 111.816 341.536 111.194 341.536 110.542V110.274C341.536 109.631 341.454 109.017 341.292 108.431C341.137 107.837 340.905 107.316 340.596 106.868C340.278 106.421 339.884 106.067 339.412 105.806C338.948 105.538 338.403 105.403 337.776 105.403C337.149 105.403 336.604 105.538 336.14 105.806C335.676 106.067 335.29 106.421 334.98 106.868C334.663 107.316 334.427 107.837 334.272 108.431C334.118 109.017 334.041 109.631 334.041 110.274V110.542ZM355.635 117L355.501 115.181C355.062 115.832 354.512 116.341 353.853 116.707C353.194 117.065 352.433 117.244 351.57 117.244C350.879 117.244 350.252 117.138 349.69 116.927C349.129 116.707 348.649 116.369 348.25 115.914C347.851 115.458 347.542 114.88 347.322 114.18C347.111 113.472 347.005 112.626 347.005 111.641V103.792H349.263V111.666C349.263 112.382 349.32 112.976 349.434 113.448C349.548 113.92 349.719 114.294 349.947 114.571C350.175 114.856 350.451 115.055 350.777 115.169C351.111 115.283 351.493 115.34 351.924 115.34C352.429 115.34 352.881 115.283 353.279 115.169C353.678 115.047 354.024 114.88 354.317 114.668C354.561 114.498 354.773 114.294 354.952 114.058C355.139 113.814 355.293 113.549 355.416 113.265V103.792H357.686V117H355.635ZM366.793 100.594V103.792H371.822V105.538H366.793V112.715C366.793 113.228 366.858 113.651 366.988 113.985C367.118 114.319 367.298 114.583 367.525 114.778C367.753 114.982 368.014 115.124 368.307 115.206C368.608 115.287 368.925 115.328 369.259 115.328C369.503 115.328 369.755 115.315 370.016 115.291C370.276 115.258 370.532 115.222 370.785 115.181C371.029 115.14 371.257 115.1 371.468 115.059C371.688 115.01 371.867 114.97 372.005 114.937L372.323 116.536C372.136 116.65 371.908 116.752 371.639 116.841C371.371 116.923 371.078 116.992 370.76 117.049C370.443 117.114 370.105 117.163 369.747 117.195C369.397 117.228 369.047 117.244 368.697 117.244C368.111 117.244 367.562 117.163 367.049 117C366.545 116.829 366.105 116.561 365.731 116.194C365.357 115.836 365.06 115.372 364.84 114.803C364.628 114.225 364.522 113.529 364.522 112.715V105.538H361.056V103.792H364.522V100.594H366.793ZM380.001 99.5806L379.745 104.097H378.158L378.17 99.7759V98.25H380.001V99.5806ZM384.359 99.5806L384.103 104.097H382.528L382.541 99.7759V98.25H384.372L384.359 99.5806ZM390.524 114.595V112.251L398.422 109.273L399.155 109.065L398.422 108.833L390.524 105.904V103.572L401.303 108.187V109.969L390.524 114.595ZM416.55 109.139C416.542 109.773 416.485 110.416 416.379 111.067C416.282 111.71 416.127 112.333 415.916 112.935C415.704 113.537 415.431 114.099 415.098 114.62C414.772 115.14 414.382 115.596 413.926 115.987C413.47 116.377 412.945 116.687 412.351 116.915C411.765 117.134 411.106 117.244 410.374 117.244C409.641 117.244 408.978 117.134 408.384 116.915C407.798 116.687 407.277 116.377 406.821 115.987C406.366 115.596 405.971 115.14 405.637 114.62C405.304 114.091 405.031 113.525 404.819 112.923C404.6 112.321 404.437 111.698 404.331 111.055C404.225 110.412 404.168 109.773 404.16 109.139V107.112C404.168 106.478 404.221 105.839 404.319 105.196C404.425 104.545 404.587 103.918 404.807 103.316C405.019 102.714 405.287 102.152 405.613 101.631C405.946 101.102 406.341 100.639 406.797 100.24C407.253 99.8491 407.773 99.5439 408.359 99.3242C408.953 99.0964 409.617 98.9824 410.349 98.9824C411.082 98.9824 411.745 99.0964 412.339 99.3242C412.933 99.5439 413.458 99.8491 413.914 100.24C414.369 100.63 414.76 101.09 415.085 101.619C415.419 102.14 415.696 102.701 415.916 103.304C416.127 103.906 416.282 104.533 416.379 105.184C416.485 105.835 416.542 106.478 416.55 107.112V109.139ZM414.316 107.088C414.308 106.665 414.28 106.225 414.231 105.77C414.182 105.306 414.101 104.846 413.987 104.39C413.865 103.943 413.706 103.515 413.511 103.108C413.315 102.693 413.071 102.327 412.778 102.01C412.485 101.701 412.139 101.456 411.741 101.277C411.342 101.09 410.878 100.997 410.349 100.997C409.828 100.997 409.368 101.09 408.97 101.277C408.571 101.465 408.225 101.713 407.932 102.022C407.639 102.339 407.395 102.706 407.2 103.121C407.004 103.528 406.85 103.955 406.736 104.402C406.614 104.858 406.524 105.318 406.467 105.782C406.418 106.237 406.39 106.673 406.382 107.088V109.139C406.39 109.554 406.418 109.993 406.467 110.457C406.524 110.921 406.614 111.377 406.736 111.824C406.858 112.28 407.017 112.715 407.212 113.13C407.407 113.545 407.651 113.908 407.944 114.217C408.237 114.534 408.583 114.786 408.982 114.974C409.381 115.161 409.845 115.254 410.374 115.254C410.903 115.254 411.366 115.161 411.765 114.974C412.172 114.786 412.522 114.534 412.815 114.217C413.1 113.908 413.336 113.549 413.523 113.143C413.718 112.728 413.877 112.292 413.999 111.836C414.113 111.389 414.19 110.933 414.231 110.469C414.28 110.005 414.308 109.562 414.316 109.139V107.088ZM439.647 115.413C440.054 115.413 440.449 115.348 440.831 115.218C441.222 115.088 441.568 114.904 441.869 114.668C442.17 114.441 442.41 114.172 442.589 113.863C442.776 113.545 442.874 113.204 442.882 112.837H445.018C445.01 113.423 444.855 113.985 444.554 114.522C444.261 115.051 443.867 115.515 443.37 115.914C442.874 116.32 442.304 116.646 441.661 116.89C441.018 117.126 440.347 117.244 439.647 117.244C438.646 117.244 437.771 117.065 437.022 116.707C436.274 116.349 435.651 115.865 435.155 115.254C434.65 114.652 434.272 113.956 434.02 113.167C433.767 112.369 433.641 111.531 433.641 110.652V110.14C433.641 109.269 433.767 108.435 434.02 107.637C434.272 106.84 434.65 106.136 435.155 105.525C435.651 104.923 436.274 104.443 437.022 104.085C437.771 103.727 438.646 103.548 439.647 103.548C440.428 103.548 441.144 103.674 441.795 103.926C442.455 104.17 443.024 104.504 443.504 104.927C443.976 105.359 444.347 105.867 444.615 106.453C444.884 107.039 445.018 107.666 445.018 108.333H442.882C442.874 107.934 442.784 107.56 442.613 107.21C442.451 106.852 442.227 106.539 441.942 106.27C441.657 106.001 441.315 105.79 440.917 105.635C440.526 105.481 440.103 105.403 439.647 105.403C438.947 105.403 438.357 105.546 437.877 105.831C437.405 106.107 437.022 106.469 436.729 106.917C436.437 107.373 436.225 107.881 436.095 108.443C435.973 109.004 435.912 109.57 435.912 110.14V110.652C435.912 111.23 435.973 111.804 436.095 112.374C436.225 112.935 436.437 113.44 436.729 113.887C437.014 114.343 437.393 114.713 437.865 114.998C438.345 115.275 438.939 115.413 439.647 115.413ZM454.369 117.244C453.441 117.244 452.587 117.085 451.806 116.768C451.033 116.451 450.369 116.007 449.816 115.438C449.263 114.868 448.831 114.192 448.522 113.411C448.213 112.63 448.058 111.779 448.058 110.86V110.347C448.058 109.281 448.229 108.329 448.571 107.491C448.913 106.644 449.368 105.928 449.938 105.342C450.5 104.764 451.138 104.321 451.854 104.012C452.579 103.702 453.319 103.548 454.076 103.548C455.028 103.548 455.858 103.715 456.566 104.048C457.283 104.374 457.877 104.826 458.349 105.403C458.821 105.989 459.171 106.677 459.398 107.466C459.634 108.256 459.752 109.11 459.752 110.03V111.043H450.316V111.128C450.373 111.771 450.5 112.337 450.695 112.825C450.898 113.313 451.175 113.745 451.525 114.119C451.883 114.518 452.314 114.831 452.819 115.059C453.323 115.287 453.881 115.401 454.491 115.401C455.297 115.401 456.013 115.238 456.64 114.913C457.266 114.587 457.787 114.156 458.202 113.619L459.582 114.693C459.142 115.36 458.483 115.954 457.604 116.475C456.733 116.988 455.655 117.244 454.369 117.244ZM454.076 105.403C453.62 105.403 453.189 105.489 452.782 105.66C452.375 105.822 452.009 106.062 451.684 106.38C451.358 106.705 451.081 107.104 450.854 107.576C450.634 108.04 450.479 108.577 450.39 109.188H457.494V109.078C457.494 108.671 457.417 108.235 457.262 107.771C457.108 107.299 456.892 106.893 456.615 106.551C456.339 106.209 455.989 105.932 455.565 105.721C455.15 105.509 454.654 105.403 454.076 105.403ZM468.811 104.549C469.673 104.549 470.442 104.703 471.118 105.013C471.793 105.314 472.367 105.729 472.839 106.258C473.311 106.795 473.669 107.43 473.913 108.162C474.165 108.886 474.292 109.676 474.292 110.53V110.811C474.292 111.731 474.157 112.581 473.889 113.362C473.628 114.144 473.246 114.823 472.741 115.401C472.237 115.979 471.618 116.43 470.886 116.756C470.161 117.081 469.335 117.244 468.408 117.244C467.48 117.244 466.65 117.081 465.917 116.756C465.185 116.43 464.567 115.979 464.062 115.401C463.557 114.823 463.171 114.144 462.902 113.362C462.634 112.581 462.5 111.731 462.5 110.811V109.603C462.5 108.838 462.536 108.121 462.609 107.454C462.691 106.779 462.805 106.156 462.951 105.586C463.09 105.057 463.256 104.565 463.452 104.109C463.647 103.654 463.871 103.235 464.123 102.852C464.636 102.071 465.258 101.448 465.991 100.984C466.731 100.512 467.553 100.191 468.457 100.02C468.888 99.9386 469.287 99.8532 469.653 99.7637C470.027 99.666 470.353 99.5439 470.629 99.3975C470.898 99.2591 471.11 99.0841 471.264 98.8726C471.419 98.6528 471.496 98.3761 471.496 98.0425H473.352C473.352 98.7993 473.234 99.4097 472.998 99.8735C472.77 100.337 472.448 100.708 472.033 100.984C471.667 101.229 471.26 101.412 470.812 101.534C470.373 101.656 469.75 101.802 468.945 101.973C468.375 102.095 467.842 102.266 467.346 102.486C466.849 102.697 466.406 102.986 466.015 103.353C465.625 103.719 465.295 104.17 465.026 104.708C464.758 105.236 464.562 105.875 464.44 106.624C464.701 106.323 464.99 106.046 465.307 105.794C465.625 105.534 465.966 105.31 466.333 105.123C466.699 104.944 467.089 104.805 467.504 104.708C467.919 104.602 468.355 104.549 468.811 104.549ZM468.383 106.404C467.765 106.404 467.228 106.518 466.772 106.746C466.316 106.966 465.942 107.263 465.649 107.637C465.348 108.02 465.124 108.459 464.978 108.956C464.831 109.452 464.758 109.977 464.758 110.53V110.811C464.758 111.43 464.831 112.02 464.978 112.581C465.124 113.134 465.348 113.619 465.649 114.034C465.942 114.457 466.316 114.795 466.772 115.047C467.236 115.291 467.781 115.413 468.408 115.413C469.026 115.413 469.559 115.291 470.007 115.047C470.463 114.795 470.841 114.457 471.142 114.034C471.443 113.619 471.667 113.134 471.813 112.581C471.96 112.02 472.033 111.43 472.033 110.811V110.53C472.033 109.977 471.96 109.452 471.813 108.956C471.667 108.459 471.443 108.02 471.142 107.637C470.841 107.263 470.458 106.966 469.995 106.746C469.539 106.518 469.002 106.404 468.383 106.404ZM483.398 117.244C482.471 117.244 481.616 117.085 480.835 116.768C480.062 116.451 479.399 116.007 478.845 115.438C478.292 114.868 477.861 114.192 477.551 113.411C477.242 112.63 477.087 111.779 477.087 110.86V110.347C477.087 109.281 477.258 108.329 477.6 107.491C477.942 106.644 478.398 105.928 478.967 105.342C479.529 104.764 480.168 104.321 480.884 104.012C481.608 103.702 482.349 103.548 483.105 103.548C484.058 103.548 484.888 103.715 485.596 104.048C486.312 104.374 486.906 104.826 487.378 105.403C487.85 105.989 488.2 106.677 488.428 107.466C488.664 108.256 488.782 109.11 488.782 110.03V111.043H479.346V111.128C479.403 111.771 479.529 112.337 479.724 112.825C479.928 113.313 480.204 113.745 480.554 114.119C480.912 114.518 481.344 114.831 481.848 115.059C482.353 115.287 482.91 115.401 483.521 115.401C484.326 115.401 485.042 115.238 485.669 114.913C486.296 114.587 486.816 114.156 487.231 113.619L488.611 114.693C488.171 115.36 487.512 115.954 486.633 116.475C485.763 116.988 484.684 117.244 483.398 117.244ZM483.105 105.403C482.65 105.403 482.218 105.489 481.812 105.66C481.405 105.822 481.038 106.062 480.713 106.38C480.387 106.705 480.111 107.104 479.883 107.576C479.663 108.04 479.508 108.577 479.419 109.188H486.523V109.078C486.523 108.671 486.446 108.235 486.292 107.771C486.137 107.299 485.921 106.893 485.645 106.551C485.368 106.209 485.018 105.932 484.595 105.721C484.18 105.509 483.683 105.403 483.105 105.403ZM502.381 114.607L492.029 109.981V108.199L502.381 103.584V105.977L494.91 108.907L494.263 109.114L494.91 109.334L502.381 112.215V114.607ZM509.571 118.526H507.545L514.967 99.2266H516.981L509.571 118.526ZM535.671 114.595V112.251L543.569 109.273L544.301 109.065L543.569 108.833L535.671 105.904V103.572L546.45 108.187V109.969L535.671 114.595ZM560.439 114.607L550.088 109.981V108.199L560.439 103.584V105.977L552.969 108.907L552.322 109.114L552.969 109.334L560.439 112.215V114.607ZM567.63 118.526H565.604L573.025 99.2266H575.04L567.63 118.526ZM608.244 114.595V112.251L616.142 109.273L616.875 109.065L616.142 108.833L608.244 105.904V103.572L619.023 108.187V109.969L608.244 114.595ZM110.485 147.607L100.134 142.981V141.199L110.485 136.584V138.977L103.015 141.907L102.368 142.114L103.015 142.334L110.485 145.215V147.607ZM143.775 147.595V145.251L151.673 142.273L152.406 142.065L151.673 141.833L143.775 138.904V136.572L154.554 141.187V142.969L143.775 147.595ZM168.544 147.607L158.192 142.981V141.199L168.544 136.584V138.977L161.073 141.907L160.426 142.114L161.073 142.334L168.544 145.215V147.607ZM204.043 138.757C204.222 138.489 204.422 138.245 204.642 138.025C204.861 137.797 205.093 137.598 205.337 137.427C205.728 137.142 206.155 136.926 206.619 136.78C207.091 136.633 207.592 136.556 208.121 136.548C208.812 136.548 209.439 136.65 210 136.853C210.57 137.048 211.054 137.358 211.453 137.781C211.852 138.204 212.157 138.741 212.369 139.392C212.588 140.035 212.698 140.8 212.698 141.687V150H210.44V141.663C210.44 141.142 210.379 140.686 210.257 140.295C210.135 139.897 209.956 139.567 209.72 139.307C209.467 139.022 209.15 138.81 208.768 138.672C208.385 138.525 207.946 138.456 207.449 138.464C207.042 138.464 206.656 138.521 206.29 138.635C205.923 138.749 205.586 138.912 205.276 139.124C205.032 139.286 204.804 139.478 204.593 139.697C204.389 139.909 204.206 140.145 204.043 140.405V150H201.785V131.25H204.043V138.757ZM224.955 136.548C225.37 136.548 225.801 136.576 226.249 136.633C226.704 136.69 227.046 136.768 227.274 136.865L226.969 139.075C226.529 138.977 226.11 138.908 225.711 138.867C225.321 138.818 224.91 138.794 224.479 138.794C223.925 138.794 223.425 138.863 222.977 139.001C222.529 139.132 222.139 139.327 221.805 139.587C221.504 139.815 221.24 140.096 221.012 140.43C220.792 140.755 220.609 141.121 220.462 141.528V150H218.192V136.792H220.34L220.438 138.562L220.45 138.892C220.987 138.167 221.63 137.598 222.379 137.183C223.136 136.759 223.994 136.548 224.955 136.548ZM236.649 150.244C235.722 150.244 234.867 150.085 234.086 149.768C233.313 149.451 232.65 149.007 232.096 148.438C231.543 147.868 231.111 147.192 230.802 146.411C230.493 145.63 230.338 144.779 230.338 143.86V143.347C230.338 142.281 230.509 141.329 230.851 140.491C231.193 139.644 231.649 138.928 232.218 138.342C232.78 137.764 233.419 137.321 234.135 137.012C234.859 136.702 235.6 136.548 236.356 136.548C237.309 136.548 238.139 136.715 238.847 137.048C239.563 137.374 240.157 137.826 240.629 138.403C241.101 138.989 241.451 139.677 241.679 140.466C241.915 141.256 242.033 142.11 242.033 143.03V144.043H232.597V144.128C232.654 144.771 232.78 145.337 232.975 145.825C233.179 146.313 233.455 146.745 233.805 147.119C234.163 147.518 234.595 147.831 235.099 148.059C235.604 148.287 236.161 148.401 236.771 148.401C237.577 148.401 238.293 148.238 238.92 147.913C239.547 147.587 240.067 147.156 240.482 146.619L241.862 147.693C241.422 148.36 240.763 148.954 239.884 149.475C239.014 149.988 237.935 150.244 236.649 150.244ZM236.356 138.403C235.901 138.403 235.469 138.489 235.062 138.66C234.656 138.822 234.289 139.062 233.964 139.38C233.638 139.705 233.362 140.104 233.134 140.576C232.914 141.04 232.759 141.577 232.67 142.188H239.774V142.078C239.774 141.671 239.697 141.235 239.542 140.771C239.388 140.299 239.172 139.893 238.896 139.551C238.619 139.209 238.269 138.932 237.846 138.721C237.431 138.509 236.934 138.403 236.356 138.403ZM248.698 150V138.538H245.061V136.792H248.698V135.864C248.698 135.018 248.82 134.277 249.064 133.643C249.317 133 249.671 132.463 250.126 132.031C250.574 131.6 251.115 131.274 251.75 131.055C252.385 130.835 253.093 130.725 253.874 130.725C254.2 130.725 254.521 130.745 254.838 130.786C255.156 130.819 255.469 130.863 255.778 130.92C255.982 130.961 256.185 131.006 256.389 131.055C256.592 131.095 256.8 131.144 257.011 131.201L256.743 133.069C256.409 132.955 256.018 132.857 255.571 132.776C255.131 132.686 254.659 132.642 254.155 132.642C253.642 132.642 253.186 132.707 252.788 132.837C252.397 132.959 252.071 133.146 251.811 133.398C251.534 133.659 251.323 133.997 251.176 134.412C251.038 134.827 250.969 135.311 250.969 135.864V136.792H256.059V138.538H250.969V150H248.698ZM270.732 140.479H259.832V138.513H270.732V140.479ZM270.732 145.544H259.832V143.591H270.732V145.544ZM278.399 132.581L278.143 137.097H276.556L276.568 132.776V131.25H278.399V132.581ZM282.757 132.581L282.5 137.097H280.926L280.938 132.776V131.25H282.769L282.757 132.581ZM295.379 144.995H292.157L291.18 150H289.435L290.411 144.995H287.494V143.323H290.729L291.571 139.001H288.421V137.305H291.9L292.901 132.227H294.647L293.646 137.305H296.869L297.87 132.227H299.615L298.614 137.305H301.117V139.001H298.285L297.442 143.323H300.201V144.995H297.125L296.148 150H294.403L295.379 144.995ZM292.474 143.323H295.697L296.539 139.001H293.316L292.474 143.323ZM303.375 155.078V136.792H305.438L305.548 138.232C305.727 138.005 305.923 137.801 306.134 137.622C306.346 137.435 306.574 137.276 306.818 137.146C307.16 136.951 307.538 136.804 307.953 136.707C308.376 136.601 308.828 136.548 309.308 136.548C310.154 136.548 310.903 136.715 311.554 137.048C312.205 137.382 312.75 137.846 313.19 138.44C313.629 139.034 313.963 139.746 314.191 140.576C314.419 141.398 314.533 142.301 314.533 143.286V143.542C314.533 144.486 314.419 145.369 314.191 146.191C313.963 147.005 313.629 147.713 313.19 148.315C312.75 148.918 312.205 149.39 311.554 149.731C310.911 150.073 310.175 150.244 309.345 150.244C308.84 150.244 308.368 150.191 307.929 150.085C307.497 149.98 307.107 149.829 306.757 149.634C306.545 149.512 306.346 149.377 306.159 149.231C305.972 149.076 305.797 148.91 305.634 148.73V155.078H303.375ZM312.274 143.286C312.274 142.643 312.201 142.033 312.055 141.455C311.916 140.869 311.701 140.352 311.408 139.905C311.107 139.465 310.728 139.115 310.272 138.855C309.817 138.595 309.271 138.464 308.637 138.464C308.287 138.464 307.961 138.505 307.66 138.586C307.367 138.668 307.103 138.786 306.867 138.94C306.606 139.095 306.374 139.286 306.171 139.514C305.967 139.742 305.788 139.994 305.634 140.271V146.631C305.772 146.875 305.931 147.103 306.11 147.314C306.289 147.526 306.492 147.705 306.72 147.852C306.981 148.022 307.27 148.157 307.587 148.254C307.912 148.352 308.271 148.401 308.661 148.401C309.288 148.401 309.829 148.271 310.285 148.01C310.74 147.742 311.115 147.384 311.408 146.936C311.701 146.488 311.916 145.972 312.055 145.386C312.201 144.8 312.274 144.185 312.274 143.542V143.286ZM317.268 143.274C317.268 142.322 317.406 141.439 317.683 140.625C317.959 139.803 318.358 139.091 318.879 138.489C319.392 137.887 320.018 137.415 320.759 137.073C321.499 136.723 322.333 136.548 323.261 136.548C324.197 136.548 325.035 136.723 325.776 137.073C326.525 137.415 327.159 137.887 327.68 138.489C328.193 139.091 328.588 139.803 328.864 140.625C329.141 141.439 329.279 142.322 329.279 143.274V143.542C329.279 144.495 329.141 145.378 328.864 146.191C328.588 147.005 328.193 147.713 327.68 148.315C327.159 148.918 326.529 149.39 325.788 149.731C325.048 150.073 324.213 150.244 323.286 150.244C322.35 150.244 321.507 150.073 320.759 149.731C320.018 149.39 319.392 148.918 318.879 148.315C318.358 147.713 317.959 147.005 317.683 146.191C317.406 145.378 317.268 144.495 317.268 143.542V143.274ZM319.526 143.542C319.526 144.194 319.603 144.816 319.758 145.41C319.912 145.996 320.148 146.513 320.466 146.96C320.775 147.408 321.166 147.762 321.638 148.022C322.11 148.283 322.659 148.413 323.286 148.413C323.904 148.413 324.445 148.283 324.909 148.022C325.381 147.762 325.776 147.408 326.093 146.96C326.403 146.513 326.634 145.996 326.789 145.41C326.944 144.816 327.021 144.194 327.021 143.542V143.274C327.021 142.631 326.94 142.017 326.777 141.431C326.622 140.837 326.39 140.316 326.081 139.868C325.764 139.421 325.369 139.067 324.897 138.806C324.433 138.538 323.888 138.403 323.261 138.403C322.635 138.403 322.089 138.538 321.625 138.806C321.162 139.067 320.775 139.421 320.466 139.868C320.148 140.316 319.912 140.837 319.758 141.431C319.603 142.017 319.526 142.631 319.526 143.274V143.542ZM341.072 136.548C341.487 136.548 341.918 136.576 342.366 136.633C342.821 136.69 343.163 136.768 343.391 136.865L343.086 139.075C342.646 138.977 342.227 138.908 341.829 138.867C341.438 138.818 341.027 138.794 340.596 138.794C340.042 138.794 339.542 138.863 339.094 139.001C338.647 139.132 338.256 139.327 337.922 139.587C337.621 139.815 337.357 140.096 337.129 140.43C336.909 140.755 336.726 141.121 336.58 141.528V150H334.309V136.792H336.458L336.555 138.562L336.567 138.892C337.104 138.167 337.747 137.598 338.496 137.183C339.253 136.759 340.111 136.548 341.072 136.548ZM352.278 133.594V136.792H357.308V138.538H352.278V145.715C352.278 146.228 352.343 146.651 352.474 146.985C352.604 147.319 352.783 147.583 353.011 147.778C353.239 147.982 353.499 148.124 353.792 148.206C354.093 148.287 354.41 148.328 354.744 148.328C354.988 148.328 355.241 148.315 355.501 148.291C355.761 148.258 356.018 148.222 356.27 148.181C356.514 148.14 356.742 148.1 356.954 148.059C357.173 148.01 357.352 147.97 357.491 147.937L357.808 149.536C357.621 149.65 357.393 149.752 357.125 149.841C356.856 149.923 356.563 149.992 356.246 150.049C355.928 150.114 355.59 150.163 355.232 150.195C354.882 150.228 354.533 150.244 354.183 150.244C353.597 150.244 353.047 150.163 352.535 150C352.03 149.829 351.591 149.561 351.216 149.194C350.842 148.836 350.545 148.372 350.325 147.803C350.114 147.225 350.008 146.529 350.008 145.715V138.538H346.541V136.792H350.008V133.594H352.278ZM364.815 150V138.538H361.178V136.792H364.815V135.864C364.815 135.018 364.938 134.277 365.182 133.643C365.434 133 365.788 132.463 366.244 132.031C366.691 131.6 367.232 131.274 367.867 131.055C368.502 130.835 369.21 130.725 369.991 130.725C370.317 130.725 370.638 130.745 370.956 130.786C371.273 130.819 371.586 130.863 371.896 130.92C372.099 130.961 372.302 131.006 372.506 131.055C372.709 131.095 372.917 131.144 373.128 131.201L372.86 133.069C372.526 132.955 372.136 132.857 371.688 132.776C371.249 132.686 370.777 132.642 370.272 132.642C369.759 132.642 369.304 132.707 368.905 132.837C368.514 132.959 368.189 133.146 367.928 133.398C367.652 133.659 367.44 133.997 367.293 134.412C367.155 134.827 367.086 135.311 367.086 135.864V136.792H372.176V138.538H367.086V150H364.815ZM375.326 143.274C375.326 142.322 375.465 141.439 375.741 140.625C376.018 139.803 376.417 139.091 376.938 138.489C377.45 137.887 378.077 137.415 378.817 137.073C379.558 136.723 380.392 136.548 381.32 136.548C382.256 136.548 383.094 136.723 383.834 137.073C384.583 137.415 385.218 137.887 385.739 138.489C386.251 139.091 386.646 139.803 386.923 140.625C387.2 141.439 387.338 142.322 387.338 143.274V143.542C387.338 144.495 387.2 145.378 386.923 146.191C386.646 147.005 386.251 147.713 385.739 148.315C385.218 148.918 384.587 149.39 383.847 149.731C383.106 150.073 382.272 150.244 381.344 150.244C380.408 150.244 379.566 150.073 378.817 149.731C378.077 149.39 377.45 148.918 376.938 148.315C376.417 147.713 376.018 147.005 375.741 146.191C375.465 145.378 375.326 144.495 375.326 143.542V143.274ZM377.584 143.542C377.584 144.194 377.662 144.816 377.816 145.41C377.971 145.996 378.207 146.513 378.524 146.96C378.834 147.408 379.224 147.762 379.696 148.022C380.168 148.283 380.718 148.413 381.344 148.413C381.963 148.413 382.504 148.283 382.968 148.022C383.44 147.762 383.834 147.408 384.152 146.96C384.461 146.513 384.693 145.996 384.848 145.41C385.002 144.816 385.08 144.194 385.08 143.542V143.274C385.08 142.631 384.998 142.017 384.835 141.431C384.681 140.837 384.449 140.316 384.14 139.868C383.822 139.421 383.428 139.067 382.956 138.806C382.492 138.538 381.946 138.403 381.32 138.403C380.693 138.403 380.148 138.538 379.684 138.806C379.22 139.067 378.834 139.421 378.524 139.868C378.207 140.316 377.971 140.837 377.816 141.431C377.662 142.017 377.584 142.631 377.584 143.274V143.542ZM390.83 131.25H397.58V148.047H401.889V150H390.83V148.047H395.322V133.215H390.83V131.25ZM405.344 136.792H412.095V148.047H416.404V150H405.344V148.047H409.836V138.757H405.344V136.792ZM409.543 133.325C409.543 133.13 409.572 132.947 409.629 132.776C409.694 132.605 409.792 132.458 409.922 132.336C410.028 132.231 410.162 132.149 410.325 132.092C410.496 132.027 410.687 131.995 410.898 131.995C411.11 131.995 411.297 132.027 411.46 132.092C411.623 132.149 411.757 132.231 411.863 132.336C411.993 132.45 412.091 132.593 412.156 132.764C412.221 132.935 412.253 133.122 412.253 133.325C412.253 133.691 412.139 133.997 411.912 134.241C411.684 134.485 411.346 134.607 410.898 134.607C410.443 134.607 410.101 134.485 409.873 134.241C409.653 133.997 409.543 133.691 409.543 133.325ZM418.87 143.274C418.87 142.322 419.008 141.439 419.285 140.625C419.562 139.803 419.961 139.091 420.481 138.489C420.994 137.887 421.621 137.415 422.361 137.073C423.102 136.723 423.936 136.548 424.864 136.548C425.8 136.548 426.638 136.723 427.378 137.073C428.127 137.415 428.762 137.887 429.283 138.489C429.795 139.091 430.19 139.803 430.467 140.625C430.743 141.439 430.882 142.322 430.882 143.274V143.542C430.882 144.495 430.743 145.378 430.467 146.191C430.19 147.005 429.795 147.713 429.283 148.315C428.762 148.918 428.131 149.39 427.391 149.731C426.65 150.073 425.816 150.244 424.888 150.244C423.952 150.244 423.11 150.073 422.361 149.731C421.621 149.39 420.994 148.918 420.481 148.315C419.961 147.713 419.562 147.005 419.285 146.191C419.008 145.378 418.87 144.495 418.87 143.542V143.274ZM421.128 143.542C421.128 144.194 421.206 144.816 421.36 145.41C421.515 145.996 421.751 146.513 422.068 146.96C422.378 147.408 422.768 147.762 423.24 148.022C423.712 148.283 424.262 148.413 424.888 148.413C425.507 148.413 426.048 148.283 426.512 148.022C426.984 147.762 427.378 147.408 427.696 146.96C428.005 146.513 428.237 145.996 428.392 145.41C428.546 144.816 428.624 144.194 428.624 143.542V143.274C428.624 142.631 428.542 142.017 428.379 141.431C428.225 140.837 427.993 140.316 427.684 139.868C427.366 139.421 426.972 139.067 426.5 138.806C426.036 138.538 425.49 138.403 424.864 138.403C424.237 138.403 423.692 138.538 423.228 138.806C422.764 139.067 422.378 139.421 422.068 139.868C421.751 140.316 421.515 140.837 421.36 141.431C421.206 142.017 421.128 142.631 421.128 143.274V143.542ZM438.06 132.581L437.804 137.097H436.217L436.229 132.776V131.25H438.06V132.581ZM442.418 132.581L442.162 137.097H440.587L440.599 132.776V131.25H442.43L442.418 132.581ZM448.583 147.595V145.251L456.481 142.273L457.213 142.065L456.481 141.833L448.583 138.904V136.572L459.362 141.187V142.969L448.583 147.595ZM473.938 150H471.679V134.082H465.161V150H462.902V132.227H473.938V150ZM476.929 143.274C476.929 142.322 477.067 141.439 477.344 140.625C477.62 139.803 478.019 139.091 478.54 138.489C479.053 137.887 479.679 137.415 480.42 137.073C481.16 136.723 481.995 136.548 482.922 136.548C483.858 136.548 484.696 136.723 485.437 137.073C486.186 137.415 486.82 137.887 487.341 138.489C487.854 139.091 488.249 139.803 488.525 140.625C488.802 141.439 488.94 142.322 488.94 143.274V143.542C488.94 144.495 488.802 145.378 488.525 146.191C488.249 147.005 487.854 147.713 487.341 148.315C486.82 148.918 486.19 149.39 485.449 149.731C484.709 150.073 483.875 150.244 482.947 150.244C482.011 150.244 481.169 150.073 480.42 149.731C479.679 149.39 479.053 148.918 478.54 148.315C478.019 147.713 477.62 147.005 477.344 146.191C477.067 145.378 476.929 144.495 476.929 143.542V143.274ZM479.187 143.542C479.187 144.194 479.264 144.816 479.419 145.41C479.574 145.996 479.81 146.513 480.127 146.96C480.436 147.408 480.827 147.762 481.299 148.022C481.771 148.283 482.32 148.413 482.947 148.413C483.565 148.413 484.106 148.283 484.57 148.022C485.042 147.762 485.437 147.408 485.754 146.96C486.064 146.513 486.296 145.996 486.45 145.41C486.605 144.816 486.682 144.194 486.682 143.542V143.274C486.682 142.631 486.601 142.017 486.438 141.431C486.283 140.837 486.051 140.316 485.742 139.868C485.425 139.421 485.03 139.067 484.558 138.806C484.094 138.538 483.549 138.403 482.922 138.403C482.296 138.403 481.75 138.538 481.287 138.806C480.823 139.067 480.436 139.421 480.127 139.868C479.81 140.316 479.574 140.837 479.419 141.431C479.264 142.017 479.187 142.631 479.187 143.274V143.542ZM492.066 155.078V136.792H494.129L494.239 138.232C494.418 138.005 494.613 137.801 494.825 137.622C495.036 137.435 495.264 137.276 495.508 137.146C495.85 136.951 496.229 136.804 496.644 136.707C497.067 136.601 497.518 136.548 497.999 136.548C498.845 136.548 499.594 136.715 500.245 137.048C500.896 137.382 501.441 137.846 501.88 138.44C502.32 139.034 502.653 139.746 502.881 140.576C503.109 141.398 503.223 142.301 503.223 143.286V143.542C503.223 144.486 503.109 145.369 502.881 146.191C502.653 147.005 502.32 147.713 501.88 148.315C501.441 148.918 500.896 149.39 500.245 149.731C499.602 150.073 498.865 150.244 498.035 150.244C497.531 150.244 497.059 150.191 496.619 150.085C496.188 149.98 495.797 149.829 495.447 149.634C495.236 149.512 495.036 149.377 494.849 149.231C494.662 149.076 494.487 148.91 494.324 148.73V155.078H492.066ZM500.965 143.286C500.965 142.643 500.892 142.033 500.745 141.455C500.607 140.869 500.391 140.352 500.098 139.905C499.797 139.465 499.419 139.115 498.963 138.855C498.507 138.595 497.962 138.464 497.327 138.464C496.977 138.464 496.652 138.505 496.351 138.586C496.058 138.668 495.793 138.786 495.557 138.94C495.297 139.095 495.065 139.286 494.861 139.514C494.658 139.742 494.479 139.994 494.324 140.271V146.631C494.463 146.875 494.621 147.103 494.8 147.314C494.979 147.526 495.183 147.705 495.411 147.852C495.671 148.022 495.96 148.157 496.277 148.254C496.603 148.352 496.961 148.401 497.352 148.401C497.978 148.401 498.519 148.271 498.975 148.01C499.431 147.742 499.805 147.384 500.098 146.936C500.391 146.488 500.607 145.972 500.745 145.386C500.892 144.8 500.965 144.185 500.965 143.542V143.286ZM518.47 138.623H513.197V150H510.926V138.623H505.738V136.792H518.47V138.623ZM520.473 143.274C520.473 142.428 520.583 141.63 520.802 140.881C521.022 140.133 521.343 139.465 521.767 138.879C522.182 138.302 522.69 137.821 523.292 137.439C523.895 137.048 524.574 136.784 525.331 136.646V131.25H527.589V136.646C528.354 136.776 529.038 137.036 529.64 137.427C530.25 137.817 530.767 138.302 531.19 138.879C531.614 139.465 531.935 140.133 532.155 140.881C532.375 141.63 532.484 142.428 532.484 143.274V143.542C532.484 144.397 532.37 145.199 532.143 145.947C531.923 146.688 531.605 147.347 531.19 147.925C530.767 148.511 530.25 148.999 529.64 149.39C529.038 149.772 528.354 150.024 527.589 150.146V155.078H525.331V150.134C524.574 150.004 523.895 149.748 523.292 149.365C522.69 148.975 522.182 148.49 521.767 147.913C521.343 147.335 521.022 146.676 520.802 145.935C520.583 145.186 520.473 144.389 520.473 143.542V143.274ZM522.731 143.542C522.731 144.088 522.784 144.613 522.89 145.117C522.995 145.614 523.158 146.069 523.378 146.484C523.59 146.899 523.858 147.257 524.184 147.559C524.509 147.86 524.892 148.083 525.331 148.23V138.586C524.9 138.733 524.521 138.961 524.196 139.27C523.87 139.571 523.602 139.929 523.39 140.344C523.17 140.759 523.004 141.219 522.89 141.724C522.784 142.22 522.731 142.737 522.731 143.274V143.542ZM530.226 143.274C530.226 142.737 530.169 142.216 530.055 141.711C529.949 141.207 529.787 140.747 529.567 140.332C529.347 139.917 529.07 139.559 528.737 139.258C528.411 138.957 528.029 138.733 527.589 138.586V148.254C528.029 148.108 528.411 147.884 528.737 147.583C529.07 147.282 529.347 146.924 529.567 146.509C529.787 146.094 529.949 145.634 530.055 145.129C530.169 144.625 530.226 144.096 530.226 143.542V143.274ZM534.987 143.274C534.987 142.322 535.126 141.439 535.402 140.625C535.679 139.803 536.078 139.091 536.599 138.489C537.111 137.887 537.738 137.415 538.479 137.073C539.219 136.723 540.053 136.548 540.981 136.548C541.917 136.548 542.755 136.723 543.496 137.073C544.244 137.415 544.879 137.887 545.4 138.489C545.913 139.091 546.307 139.803 546.584 140.625C546.861 141.439 546.999 142.322 546.999 143.274V143.542C546.999 144.495 546.861 145.378 546.584 146.191C546.307 147.005 545.913 147.713 545.4 148.315C544.879 148.918 544.248 149.39 543.508 149.731C542.767 150.073 541.933 150.244 541.005 150.244C540.069 150.244 539.227 150.073 538.479 149.731C537.738 149.39 537.111 148.918 536.599 148.315C536.078 147.713 535.679 147.005 535.402 146.191C535.126 145.378 534.987 144.495 534.987 143.542V143.274ZM537.246 143.542C537.246 144.194 537.323 144.816 537.478 145.41C537.632 145.996 537.868 146.513 538.186 146.96C538.495 147.408 538.885 147.762 539.357 148.022C539.829 148.283 540.379 148.413 541.005 148.413C541.624 148.413 542.165 148.283 542.629 148.022C543.101 147.762 543.496 147.408 543.813 146.96C544.122 146.513 544.354 145.996 544.509 145.41C544.663 144.816 544.741 144.194 544.741 143.542V143.274C544.741 142.631 544.659 142.017 544.497 141.431C544.342 140.837 544.11 140.316 543.801 139.868C543.483 139.421 543.089 139.067 542.617 138.806C542.153 138.538 541.608 138.403 540.981 138.403C540.354 138.403 539.809 138.538 539.345 138.806C538.881 139.067 538.495 139.421 538.186 139.868C537.868 140.316 537.632 140.837 537.478 141.431C537.323 142.017 537.246 142.631 537.246 143.274V143.542ZM560.977 136.792V150H558.706V138.66H553.848L553.835 142.444C553.835 142.891 553.823 143.327 553.799 143.75C553.783 144.165 553.754 144.56 553.713 144.934C553.648 145.553 553.547 146.122 553.408 146.643C553.27 147.164 553.095 147.624 552.883 148.022C552.542 148.665 552.082 149.158 551.504 149.5C550.926 149.833 550.206 150 549.343 150H548.684L548.721 147.986L549.221 147.974C549.685 147.974 550.068 147.86 550.369 147.632C550.678 147.396 550.922 147.046 551.101 146.582C551.191 146.33 551.268 146.041 551.333 145.715C551.398 145.382 551.451 145.015 551.492 144.617C551.516 144.299 551.532 143.962 551.541 143.604C551.557 143.237 551.565 142.851 551.565 142.444L551.589 136.792H560.977ZM573.245 136.792H575.503V150H573.245V140.259L566.788 150H564.542V136.792H566.788V146.545L573.245 136.792ZM578.531 143.274C578.531 142.322 578.67 141.439 578.946 140.625C579.223 139.803 579.622 139.091 580.143 138.489C580.655 137.887 581.282 137.415 582.022 137.073C582.763 136.723 583.597 136.548 584.525 136.548C585.461 136.548 586.299 136.723 587.04 137.073C587.788 137.415 588.423 137.887 588.944 138.489C589.457 139.091 589.851 139.803 590.128 140.625C590.405 141.439 590.543 142.322 590.543 143.274V143.542C590.543 144.495 590.405 145.378 590.128 146.191C589.851 147.005 589.457 147.713 588.944 148.315C588.423 148.918 587.792 149.39 587.052 149.731C586.311 150.073 585.477 150.244 584.549 150.244C583.613 150.244 582.771 150.073 582.022 149.731C581.282 149.39 580.655 148.918 580.143 148.315C579.622 147.713 579.223 147.005 578.946 146.191C578.67 145.378 578.531 144.495 578.531 143.542V143.274ZM580.79 143.542C580.79 144.194 580.867 144.816 581.021 145.41C581.176 145.996 581.412 146.513 581.729 146.96C582.039 147.408 582.429 147.762 582.901 148.022C583.373 148.283 583.923 148.413 584.549 148.413C585.168 148.413 585.709 148.283 586.173 148.022C586.645 147.762 587.04 147.408 587.357 146.96C587.666 146.513 587.898 145.996 588.053 145.41C588.207 144.816 588.285 144.194 588.285 143.542V143.274C588.285 142.631 588.203 142.017 588.041 141.431C587.886 140.837 587.654 140.316 587.345 139.868C587.027 139.421 586.633 139.067 586.161 138.806C585.697 138.538 585.152 138.403 584.525 138.403C583.898 138.403 583.353 138.538 582.889 138.806C582.425 139.067 582.039 139.421 581.729 139.868C581.412 140.316 581.176 140.837 581.021 141.431C580.867 142.017 580.79 142.631 580.79 143.274V143.542ZM603.983 147.607L593.632 142.981V141.199L603.983 136.584V138.977L596.513 141.907L595.866 142.114L596.513 142.334L603.983 145.215V147.607ZM611.174 151.526H609.147L616.569 132.227H618.583L611.174 151.526ZM637.273 147.595V145.251L645.171 142.273L645.904 142.065L645.171 141.833L637.273 138.904V136.572L648.052 141.187V142.969L637.273 147.595ZM662.042 147.607L651.69 142.981V141.199L662.042 136.584V138.977L654.571 141.907L653.924 142.114L654.571 142.334L662.042 145.215V147.607ZM669.232 151.526H667.206L674.628 132.227H676.642L669.232 151.526ZM709.847 147.595V145.251L717.745 142.273L718.477 142.065L717.745 141.833L709.847 138.904V136.572L720.625 141.187V142.969L709.847 147.595ZM110.485 180.607L100.134 175.981V174.199L110.485 169.584V171.977L103.015 174.907L102.368 175.114L103.015 175.334L110.485 178.215V180.607ZM143.775 180.595V178.251L151.673 175.273L152.406 175.065L151.673 174.833L143.775 171.904V169.572L154.554 174.187V175.969L143.775 180.595ZM168.544 180.607L158.192 175.981V174.199L168.544 169.584V171.977L161.073 174.907L160.426 175.114L161.073 175.334L168.544 178.215V180.607ZM204.043 171.757C204.222 171.489 204.422 171.245 204.642 171.025C204.861 170.797 205.093 170.598 205.337 170.427C205.728 170.142 206.155 169.926 206.619 169.78C207.091 169.633 207.592 169.556 208.121 169.548C208.812 169.548 209.439 169.65 210 169.853C210.57 170.048 211.054 170.358 211.453 170.781C211.852 171.204 212.157 171.741 212.369 172.392C212.588 173.035 212.698 173.8 212.698 174.687V183H210.44V174.663C210.44 174.142 210.379 173.686 210.257 173.295C210.135 172.897 209.956 172.567 209.72 172.307C209.467 172.022 209.15 171.81 208.768 171.672C208.385 171.525 207.946 171.456 207.449 171.464C207.042 171.464 206.656 171.521 206.29 171.635C205.923 171.749 205.586 171.912 205.276 172.124C205.032 172.286 204.804 172.478 204.593 172.697C204.389 172.909 204.206 173.145 204.043 173.405V183H201.785V164.25H204.043V171.757ZM224.955 169.548C225.37 169.548 225.801 169.576 226.249 169.633C226.704 169.69 227.046 169.768 227.274 169.865L226.969 172.075C226.529 171.977 226.11 171.908 225.711 171.867C225.321 171.818 224.91 171.794 224.479 171.794C223.925 171.794 223.425 171.863 222.977 172.001C222.529 172.132 222.139 172.327 221.805 172.587C221.504 172.815 221.24 173.096 221.012 173.43C220.792 173.755 220.609 174.121 220.462 174.528V183H218.192V169.792H220.34L220.438 171.562L220.45 171.892C220.987 171.167 221.63 170.598 222.379 170.183C223.136 169.759 223.994 169.548 224.955 169.548ZM236.649 183.244C235.722 183.244 234.867 183.085 234.086 182.768C233.313 182.451 232.65 182.007 232.096 181.438C231.543 180.868 231.111 180.192 230.802 179.411C230.493 178.63 230.338 177.779 230.338 176.86V176.347C230.338 175.281 230.509 174.329 230.851 173.491C231.193 172.644 231.649 171.928 232.218 171.342C232.78 170.764 233.419 170.321 234.135 170.012C234.859 169.702 235.6 169.548 236.356 169.548C237.309 169.548 238.139 169.715 238.847 170.048C239.563 170.374 240.157 170.826 240.629 171.403C241.101 171.989 241.451 172.677 241.679 173.466C241.915 174.256 242.033 175.11 242.033 176.03V177.043H232.597V177.128C232.654 177.771 232.78 178.337 232.975 178.825C233.179 179.313 233.455 179.745 233.805 180.119C234.163 180.518 234.595 180.831 235.099 181.059C235.604 181.287 236.161 181.401 236.771 181.401C237.577 181.401 238.293 181.238 238.92 180.913C239.547 180.587 240.067 180.156 240.482 179.619L241.862 180.693C241.422 181.36 240.763 181.954 239.884 182.475C239.014 182.988 237.935 183.244 236.649 183.244ZM236.356 171.403C235.901 171.403 235.469 171.489 235.062 171.66C234.656 171.822 234.289 172.062 233.964 172.38C233.638 172.705 233.362 173.104 233.134 173.576C232.914 174.04 232.759 174.577 232.67 175.188H239.774V175.078C239.774 174.671 239.697 174.235 239.542 173.771C239.388 173.299 239.172 172.893 238.896 172.551C238.619 172.209 238.269 171.932 237.846 171.721C237.431 171.509 236.934 171.403 236.356 171.403ZM248.698 183V171.538H245.061V169.792H248.698V168.864C248.698 168.018 248.82 167.277 249.064 166.643C249.317 166 249.671 165.463 250.126 165.031C250.574 164.6 251.115 164.274 251.75 164.055C252.385 163.835 253.093 163.725 253.874 163.725C254.2 163.725 254.521 163.745 254.838 163.786C255.156 163.819 255.469 163.863 255.778 163.92C255.982 163.961 256.185 164.006 256.389 164.055C256.592 164.095 256.8 164.144 257.011 164.201L256.743 166.069C256.409 165.955 256.018 165.857 255.571 165.776C255.131 165.686 254.659 165.642 254.155 165.642C253.642 165.642 253.186 165.707 252.788 165.837C252.397 165.959 252.071 166.146 251.811 166.398C251.534 166.659 251.323 166.997 251.176 167.412C251.038 167.827 250.969 168.311 250.969 168.864V169.792H256.059V171.538H250.969V183H248.698ZM270.732 173.479H259.832V171.513H270.732V173.479ZM270.732 178.544H259.832V176.591H270.732V178.544ZM278.399 165.581L278.143 170.097H276.556L276.568 165.776V164.25H278.399V165.581ZM282.757 165.581L282.5 170.097H280.926L280.938 165.776V164.25H282.769L282.757 165.581ZM295.379 177.995H292.157L291.18 183H289.435L290.411 177.995H287.494V176.323H290.729L291.571 172.001H288.421V170.305H291.9L292.901 165.227H294.647L293.646 170.305H296.869L297.87 165.227H299.615L298.614 170.305H301.117V172.001H298.285L297.442 176.323H300.201V177.995H297.125L296.148 183H294.403L295.379 177.995ZM292.474 176.323H295.697L296.539 172.001H293.316L292.474 176.323ZM309.015 181.413C309.422 181.413 309.817 181.348 310.199 181.218C310.59 181.088 310.936 180.904 311.237 180.668C311.538 180.441 311.778 180.172 311.957 179.863C312.144 179.545 312.242 179.204 312.25 178.837H314.386C314.378 179.423 314.223 179.985 313.922 180.522C313.629 181.051 313.235 181.515 312.738 181.914C312.242 182.32 311.672 182.646 311.029 182.89C310.386 183.126 309.715 183.244 309.015 183.244C308.014 183.244 307.139 183.065 306.391 182.707C305.642 182.349 305.019 181.865 304.523 181.254C304.018 180.652 303.64 179.956 303.388 179.167C303.135 178.369 303.009 177.531 303.009 176.652V176.14C303.009 175.269 303.135 174.435 303.388 173.637C303.64 172.84 304.018 172.136 304.523 171.525C305.019 170.923 305.642 170.443 306.391 170.085C307.139 169.727 308.014 169.548 309.015 169.548C309.796 169.548 310.513 169.674 311.164 169.926C311.823 170.17 312.392 170.504 312.873 170.927C313.345 171.359 313.715 171.867 313.983 172.453C314.252 173.039 314.386 173.666 314.386 174.333H312.25C312.242 173.934 312.152 173.56 311.981 173.21C311.819 172.852 311.595 172.539 311.31 172.27C311.025 172.001 310.683 171.79 310.285 171.635C309.894 171.481 309.471 171.403 309.015 171.403C308.315 171.403 307.725 171.546 307.245 171.831C306.773 172.107 306.391 172.469 306.098 172.917C305.805 173.373 305.593 173.881 305.463 174.443C305.341 175.004 305.28 175.57 305.28 176.14V176.652C305.28 177.23 305.341 177.804 305.463 178.374C305.593 178.935 305.805 179.44 306.098 179.887C306.382 180.343 306.761 180.713 307.233 180.998C307.713 181.275 308.307 181.413 309.015 181.413ZM317.268 176.274C317.268 175.322 317.406 174.439 317.683 173.625C317.959 172.803 318.358 172.091 318.879 171.489C319.392 170.887 320.018 170.415 320.759 170.073C321.499 169.723 322.333 169.548 323.261 169.548C324.197 169.548 325.035 169.723 325.776 170.073C326.525 170.415 327.159 170.887 327.68 171.489C328.193 172.091 328.588 172.803 328.864 173.625C329.141 174.439 329.279 175.322 329.279 176.274V176.542C329.279 177.495 329.141 178.378 328.864 179.191C328.588 180.005 328.193 180.713 327.68 181.315C327.159 181.918 326.529 182.39 325.788 182.731C325.048 183.073 324.213 183.244 323.286 183.244C322.35 183.244 321.507 183.073 320.759 182.731C320.018 182.39 319.392 181.918 318.879 181.315C318.358 180.713 317.959 180.005 317.683 179.191C317.406 178.378 317.268 177.495 317.268 176.542V176.274ZM319.526 176.542C319.526 177.194 319.603 177.816 319.758 178.41C319.912 178.996 320.148 179.513 320.466 179.96C320.775 180.408 321.166 180.762 321.638 181.022C322.11 181.283 322.659 181.413 323.286 181.413C323.904 181.413 324.445 181.283 324.909 181.022C325.381 180.762 325.776 180.408 326.093 179.96C326.403 179.513 326.634 178.996 326.789 178.41C326.944 177.816 327.021 177.194 327.021 176.542V176.274C327.021 175.631 326.94 175.017 326.777 174.431C326.622 173.837 326.39 173.316 326.081 172.868C325.764 172.421 325.369 172.067 324.897 171.806C324.433 171.538 323.888 171.403 323.261 171.403C322.635 171.403 322.089 171.538 321.625 171.806C321.162 172.067 320.775 172.421 320.466 172.868C320.148 173.316 319.912 173.837 319.758 174.431C319.603 175.017 319.526 175.631 319.526 176.274V176.542ZM332.417 183V169.792H334.443L334.602 171.745C334.797 171.468 335.009 171.216 335.237 170.988C335.473 170.752 335.721 170.549 335.981 170.378C336.372 170.118 336.795 169.918 337.251 169.78C337.715 169.633 338.203 169.556 338.716 169.548C339.408 169.548 340.034 169.646 340.596 169.841C341.165 170.036 341.65 170.341 342.048 170.756C342.447 171.171 342.752 171.7 342.964 172.343C343.184 172.978 343.293 173.735 343.293 174.614V183H341.035V174.663C341.035 174.077 340.97 173.58 340.84 173.173C340.71 172.766 340.518 172.437 340.266 172.185C340.006 171.932 339.688 171.749 339.314 171.635C338.948 171.521 338.525 171.464 338.044 171.464C337.629 171.464 337.243 171.525 336.885 171.647C336.527 171.761 336.197 171.92 335.896 172.124C335.652 172.303 335.424 172.51 335.212 172.746C335.009 172.982 334.83 173.243 334.675 173.527V183H332.417ZM352.278 166.594V169.792H357.308V171.538H352.278V178.715C352.278 179.228 352.343 179.651 352.474 179.985C352.604 180.319 352.783 180.583 353.011 180.778C353.239 180.982 353.499 181.124 353.792 181.206C354.093 181.287 354.41 181.328 354.744 181.328C354.988 181.328 355.241 181.315 355.501 181.291C355.761 181.258 356.018 181.222 356.27 181.181C356.514 181.14 356.742 181.1 356.954 181.059C357.173 181.01 357.352 180.97 357.491 180.937L357.808 182.536C357.621 182.65 357.393 182.752 357.125 182.841C356.856 182.923 356.563 182.992 356.246 183.049C355.928 183.114 355.59 183.163 355.232 183.195C354.882 183.228 354.533 183.244 354.183 183.244C353.597 183.244 353.047 183.163 352.535 183C352.03 182.829 351.591 182.561 351.216 182.194C350.842 181.836 350.545 181.372 350.325 180.803C350.114 180.225 350.008 179.529 350.008 178.715V171.538H346.541V169.792H350.008V166.594H352.278ZM370.125 183C370.036 182.829 369.963 182.618 369.906 182.365C369.857 182.105 369.82 181.836 369.796 181.56C369.568 181.787 369.312 182.003 369.027 182.207C368.75 182.41 368.445 182.589 368.111 182.744C367.77 182.898 367.407 183.02 367.025 183.11C366.642 183.199 366.236 183.244 365.804 183.244C365.104 183.244 364.47 183.142 363.9 182.939C363.338 182.736 362.862 182.459 362.472 182.109C362.073 181.767 361.764 181.36 361.544 180.888C361.332 180.408 361.227 179.891 361.227 179.338C361.227 178.614 361.369 177.979 361.654 177.434C361.947 176.888 362.358 176.433 362.887 176.066C363.416 175.708 364.05 175.44 364.791 175.261C365.54 175.082 366.374 174.992 367.293 174.992H369.759V173.955C369.759 173.556 369.686 173.198 369.54 172.88C369.393 172.563 369.186 172.29 368.917 172.062C368.648 171.843 368.319 171.672 367.928 171.55C367.546 171.428 367.114 171.367 366.634 171.367C366.187 171.367 365.784 171.424 365.426 171.538C365.076 171.652 364.779 171.802 364.535 171.989C364.291 172.176 364.099 172.4 363.961 172.661C363.831 172.913 363.766 173.177 363.766 173.454H361.495C361.503 172.974 361.625 172.502 361.861 172.038C362.105 171.574 362.455 171.155 362.911 170.781C363.359 170.415 363.904 170.118 364.547 169.89C365.198 169.662 365.934 169.548 366.756 169.548C367.505 169.548 368.201 169.641 368.844 169.829C369.487 170.008 370.044 170.28 370.516 170.646C370.98 171.021 371.346 171.485 371.615 172.038C371.883 172.591 372.018 173.238 372.018 173.979V180.119C372.018 180.559 372.058 181.027 372.14 181.523C372.221 182.011 372.335 182.438 372.481 182.805V183H370.125ZM366.134 181.279C366.573 181.279 366.984 181.222 367.367 181.108C367.749 180.994 368.099 180.843 368.417 180.656C368.726 180.469 368.994 180.257 369.222 180.021C369.45 179.777 369.629 179.525 369.759 179.265V176.591H367.66C366.878 176.591 366.195 176.66 365.609 176.799C365.031 176.929 364.571 177.132 364.229 177.409C363.985 177.604 363.798 177.836 363.668 178.105C363.546 178.374 363.485 178.679 363.485 179.021C363.485 179.346 363.538 179.647 363.644 179.924C363.757 180.201 363.924 180.437 364.144 180.632C364.364 180.835 364.64 180.994 364.974 181.108C365.308 181.222 365.694 181.279 366.134 181.279ZM381.588 181.413C381.995 181.413 382.39 181.348 382.772 181.218C383.163 181.088 383.509 180.904 383.81 180.668C384.111 180.441 384.351 180.172 384.53 179.863C384.717 179.545 384.815 179.204 384.823 178.837H386.959C386.951 179.423 386.797 179.985 386.496 180.522C386.203 181.051 385.808 181.515 385.312 181.914C384.815 182.32 384.245 182.646 383.603 182.89C382.96 183.126 382.288 183.244 381.588 183.244C380.587 183.244 379.713 183.065 378.964 182.707C378.215 182.349 377.593 181.865 377.096 181.254C376.592 180.652 376.213 179.956 375.961 179.167C375.709 178.369 375.583 177.531 375.583 176.652V176.14C375.583 175.269 375.709 174.435 375.961 173.637C376.213 172.84 376.592 172.136 377.096 171.525C377.593 170.923 378.215 170.443 378.964 170.085C379.713 169.727 380.587 169.548 381.588 169.548C382.37 169.548 383.086 169.674 383.737 169.926C384.396 170.17 384.966 170.504 385.446 170.927C385.918 171.359 386.288 171.867 386.557 172.453C386.825 173.039 386.959 173.666 386.959 174.333H384.823C384.815 173.934 384.726 173.56 384.555 173.21C384.392 172.852 384.168 172.539 383.883 172.27C383.598 172.001 383.257 171.79 382.858 171.635C382.467 171.481 382.044 171.403 381.588 171.403C380.889 171.403 380.299 171.546 379.818 171.831C379.346 172.107 378.964 172.469 378.671 172.917C378.378 173.373 378.166 173.881 378.036 174.443C377.914 175.004 377.853 175.57 377.853 176.14V176.652C377.853 177.23 377.914 177.804 378.036 178.374C378.166 178.935 378.378 179.44 378.671 179.887C378.956 180.343 379.334 180.713 379.806 180.998C380.286 181.275 380.88 181.413 381.588 181.413ZM395.822 166.594V169.792H400.852V171.538H395.822V178.715C395.822 179.228 395.887 179.651 396.018 179.985C396.148 180.319 396.327 180.583 396.555 180.778C396.783 180.982 397.043 181.124 397.336 181.206C397.637 181.287 397.954 181.328 398.288 181.328C398.532 181.328 398.785 181.315 399.045 181.291C399.305 181.258 399.562 181.222 399.814 181.181C400.058 181.14 400.286 181.1 400.498 181.059C400.717 181.01 400.896 180.97 401.035 180.937L401.352 182.536C401.165 182.65 400.937 182.752 400.668 182.841C400.4 182.923 400.107 182.992 399.79 183.049C399.472 183.114 399.134 183.163 398.776 183.195C398.426 183.228 398.076 183.244 397.727 183.244C397.141 183.244 396.591 183.163 396.079 183C395.574 182.829 395.135 182.561 394.76 182.194C394.386 181.836 394.089 181.372 393.869 180.803C393.658 180.225 393.552 179.529 393.552 178.715V171.538H390.085V169.792H393.552V166.594H395.822ZM413.767 179.497C413.767 179.228 413.714 178.988 413.608 178.776C413.503 178.557 413.324 178.357 413.071 178.178C412.819 177.999 412.485 177.836 412.07 177.69C411.655 177.535 411.139 177.397 410.52 177.275C409.763 177.12 409.071 176.933 408.445 176.713C407.826 176.494 407.297 176.229 406.858 175.92C406.41 175.619 406.064 175.265 405.82 174.858C405.576 174.443 405.454 173.963 405.454 173.417C405.454 172.88 405.58 172.38 405.833 171.916C406.085 171.444 406.439 171.033 406.895 170.683C407.35 170.333 407.891 170.056 408.518 169.853C409.153 169.65 409.849 169.548 410.605 169.548C411.419 169.548 412.152 169.654 412.803 169.865C413.454 170.077 414.007 170.37 414.463 170.744C414.919 171.118 415.269 171.558 415.513 172.062C415.765 172.559 415.891 173.096 415.891 173.674H413.633C413.633 173.389 413.56 173.112 413.413 172.844C413.267 172.567 413.063 172.323 412.803 172.111C412.542 171.9 412.225 171.729 411.851 171.599C411.484 171.468 411.069 171.403 410.605 171.403C410.125 171.403 409.702 171.456 409.336 171.562C408.978 171.668 408.681 171.81 408.445 171.989C408.201 172.168 408.018 172.376 407.896 172.612C407.773 172.848 407.712 173.092 407.712 173.344C407.712 173.605 407.761 173.837 407.859 174.04C407.957 174.243 408.127 174.427 408.372 174.589C408.608 174.752 408.925 174.899 409.324 175.029C409.731 175.159 410.243 175.285 410.862 175.407C411.676 175.578 412.404 175.778 413.047 176.005C413.69 176.225 414.231 176.49 414.67 176.799C415.11 177.116 415.444 177.482 415.671 177.897C415.907 178.312 416.025 178.793 416.025 179.338C416.025 179.924 415.891 180.457 415.623 180.937C415.362 181.417 414.996 181.828 414.524 182.17C414.052 182.512 413.486 182.776 412.827 182.963C412.168 183.151 411.448 183.244 410.667 183.244C409.771 183.244 408.974 183.126 408.274 182.89C407.574 182.646 406.984 182.325 406.504 181.926C406.016 181.535 405.641 181.079 405.381 180.559C405.129 180.038 405.002 179.497 405.002 178.935H407.261C407.293 179.399 407.415 179.79 407.627 180.107C407.847 180.424 408.119 180.681 408.445 180.876C408.762 181.071 409.116 181.21 409.507 181.291C409.897 181.372 410.284 181.413 410.667 181.413C411.269 181.413 411.794 181.344 412.241 181.206C412.689 181.059 413.039 180.86 413.291 180.607C413.446 180.453 413.564 180.282 413.645 180.095C413.726 179.908 413.767 179.708 413.767 179.497ZM423.545 165.581L423.289 170.097H421.702L421.714 165.776V164.25H423.545V165.581ZM427.903 165.581L427.647 170.097H426.072L426.084 165.776V164.25H427.916L427.903 165.581ZM434.068 180.595V178.251L441.966 175.273L442.699 175.065L441.966 174.833L434.068 171.904V169.572L444.847 174.187V175.969L434.068 180.595ZM452.819 174.956H450.731V183H448.473V165.227H450.731V173.112H452.636L458.043 165.227H460.631L454.589 173.833L461.132 183H458.361L452.819 174.956ZM462.414 176.274C462.414 175.322 462.552 174.439 462.829 173.625C463.106 172.803 463.505 172.091 464.025 171.489C464.538 170.887 465.165 170.415 465.905 170.073C466.646 169.723 467.48 169.548 468.408 169.548C469.344 169.548 470.182 169.723 470.922 170.073C471.671 170.415 472.306 170.887 472.827 171.489C473.339 172.091 473.734 172.803 474.011 173.625C474.287 174.439 474.426 175.322 474.426 176.274V176.542C474.426 177.495 474.287 178.378 474.011 179.191C473.734 180.005 473.339 180.713 472.827 181.315C472.306 181.918 471.675 182.39 470.935 182.731C470.194 183.073 469.36 183.244 468.432 183.244C467.496 183.244 466.654 183.073 465.905 182.731C465.165 182.39 464.538 181.918 464.025 181.315C463.505 180.713 463.106 180.005 462.829 179.191C462.552 178.378 462.414 177.495 462.414 176.542V176.274ZM464.672 176.542C464.672 177.194 464.75 177.816 464.904 178.41C465.059 178.996 465.295 179.513 465.612 179.96C465.922 180.408 466.312 180.762 466.784 181.022C467.256 181.283 467.806 181.413 468.432 181.413C469.051 181.413 469.592 181.283 470.056 181.022C470.528 180.762 470.922 180.408 471.24 179.96C471.549 179.513 471.781 178.996 471.936 178.41C472.09 177.816 472.167 177.194 472.167 176.542V176.274C472.167 175.631 472.086 175.017 471.923 174.431C471.769 173.837 471.537 173.316 471.228 172.868C470.91 172.421 470.515 172.067 470.043 171.806C469.58 171.538 469.034 171.403 468.408 171.403C467.781 171.403 467.236 171.538 466.772 171.806C466.308 172.067 465.922 172.421 465.612 172.868C465.295 173.316 465.059 173.837 464.904 174.431C464.75 175.017 464.672 175.631 464.672 176.274V176.542ZM488.416 183H486.157V177.36H479.712V183H477.454V169.792H479.712V175.517H486.157V169.792H488.416V183ZM503.956 171.623H498.682V183H496.412V171.623H491.224V169.792H503.956V171.623ZM515.272 183C515.182 182.829 515.109 182.618 515.052 182.365C515.003 182.105 514.967 181.836 514.942 181.56C514.715 181.787 514.458 182.003 514.173 182.207C513.897 182.41 513.591 182.589 513.258 182.744C512.916 182.898 512.554 183.02 512.171 183.11C511.789 183.199 511.382 183.244 510.951 183.244C510.251 183.244 509.616 183.142 509.046 182.939C508.485 182.736 508.009 182.459 507.618 182.109C507.219 181.767 506.91 181.36 506.69 180.888C506.479 180.408 506.373 179.891 506.373 179.338C506.373 178.614 506.515 177.979 506.8 177.434C507.093 176.888 507.504 176.433 508.033 176.066C508.562 175.708 509.197 175.44 509.938 175.261C510.686 175.082 511.52 174.992 512.44 174.992H514.906V173.955C514.906 173.556 514.833 173.198 514.686 172.88C514.54 172.563 514.332 172.29 514.063 172.062C513.795 171.843 513.465 171.672 513.075 171.55C512.692 171.428 512.261 171.367 511.781 171.367C511.333 171.367 510.93 171.424 510.572 171.538C510.222 171.652 509.925 171.802 509.681 171.989C509.437 172.176 509.246 172.4 509.107 172.661C508.977 172.913 508.912 173.177 508.912 173.454H506.642C506.65 172.974 506.772 172.502 507.008 172.038C507.252 171.574 507.602 171.155 508.058 170.781C508.505 170.415 509.05 170.118 509.693 169.89C510.344 169.662 511.081 169.548 511.903 169.548C512.652 169.548 513.347 169.641 513.99 169.829C514.633 170.008 515.191 170.28 515.663 170.646C516.126 171.021 516.493 171.485 516.761 172.038C517.03 172.591 517.164 173.238 517.164 173.979V180.119C517.164 180.559 517.205 181.027 517.286 181.523C517.368 182.011 517.481 182.438 517.628 182.805V183H515.272ZM511.28 181.279C511.72 181.279 512.131 181.222 512.513 181.108C512.896 180.994 513.246 180.843 513.563 180.656C513.872 180.469 514.141 180.257 514.369 180.021C514.597 179.777 514.776 179.525 514.906 179.265V176.591H512.806C512.025 176.591 511.341 176.66 510.755 176.799C510.178 176.929 509.718 177.132 509.376 177.409C509.132 177.604 508.945 177.836 508.814 178.105C508.692 178.374 508.631 178.679 508.631 179.021C508.631 179.346 508.684 179.647 508.79 179.924C508.904 180.201 509.071 180.437 509.291 180.632C509.51 180.835 509.787 180.994 510.121 181.108C510.454 181.222 510.841 181.279 511.28 181.279ZM525.392 177.373H523.244V183H520.985V169.792H523.244V175.383H525.197L530.116 169.792H532.863L527.199 176.152L533.302 183H530.434L525.392 177.373ZM547.5 171.623H542.226V183H539.956V171.623H534.768V169.792H547.5V171.623ZM552.029 174.797H553.237C553.945 174.797 554.572 174.899 555.117 175.102C555.671 175.306 556.134 175.586 556.509 175.944C556.875 176.311 557.152 176.742 557.339 177.238C557.534 177.735 557.632 178.272 557.632 178.85C557.632 179.427 557.534 179.969 557.339 180.473C557.152 180.978 556.875 181.417 556.509 181.792C556.134 182.166 555.675 182.463 555.129 182.683C554.584 182.894 553.953 183 553.237 183H549.771V169.792H552.029V174.797ZM561.282 183H559.023V169.792H561.282V183ZM552.029 176.64V181.157H553.237C553.62 181.157 553.945 181.096 554.214 180.974C554.482 180.843 554.702 180.673 554.873 180.461C555.036 180.257 555.154 180.026 555.227 179.765C555.308 179.497 555.349 179.22 555.349 178.935C555.349 178.667 555.308 178.398 555.227 178.129C555.154 177.853 555.036 177.604 554.873 177.385C554.702 177.165 554.482 176.986 554.214 176.848C553.945 176.709 553.62 176.64 553.237 176.64H552.029ZM574.954 180.607L564.603 175.981V174.199L574.954 169.584V171.977L567.483 174.907L566.836 175.114L567.483 175.334L574.954 178.215V180.607ZM582.145 184.526H580.118L587.54 165.227H589.554L582.145 184.526ZM608.244 180.595V178.251L616.142 175.273L616.875 175.065L616.142 174.833L608.244 171.904V169.572L619.023 174.187V175.969L608.244 180.595ZM633.013 180.607L622.661 175.981V174.199L633.013 169.584V171.977L625.542 174.907L624.895 175.114L625.542 175.334L633.013 178.215V180.607ZM640.203 184.526H638.177L645.599 165.227H647.613L640.203 184.526ZM680.817 180.595V178.251L688.715 175.273L689.448 175.065L688.715 174.833L680.817 171.904V169.572L691.596 174.187V175.969L680.817 180.595ZM81.4561 213.607L71.1045 208.981V207.199L81.4561 202.584V204.977L73.9854 207.907L73.3384 208.114L73.9854 208.334L81.4561 211.215V213.607ZM88.6465 217.526H86.6201L94.042 198.227H96.0562L88.6465 217.526ZM129.261 213.595V211.251L137.159 208.273L137.891 208.065L137.159 207.833L129.261 204.904V202.572L140.04 207.187V208.969L129.261 213.595ZM52.4268 246.607L42.0752 241.981V240.199L52.4268 235.584V237.977L44.9561 240.907L44.3091 241.114L44.9561 241.334L52.4268 244.215V246.607ZM59.6172 250.526H57.5908L65.0127 231.227H67.0269L59.6172 250.526ZM114.746 246.595V244.251L122.644 241.273L123.376 241.065L122.644 240.833L114.746 237.904V235.572L125.525 240.187V241.969L114.746 246.595Z" fill="white"/>
<path d="M56.6387 51V37.792H58.665L58.8237 39.7451C59.019 39.4684 59.2306 39.2161 59.4585 38.9883C59.6945 38.7523 59.9427 38.5488 60.2031 38.3779C60.5938 38.1175 61.0169 37.9181 61.4727 37.7798C61.9365 37.6333 62.4248 37.556 62.9375 37.5479C63.6292 37.5479 64.2559 37.6455 64.8174 37.8408C65.387 38.0361 65.8713 38.3413 66.27 38.7563C66.6688 39.1714 66.974 39.7004 67.1855 40.3433C67.4053 40.978 67.5151 41.7349 67.5151 42.6138V51H65.2568V42.6626C65.2568 42.0767 65.1917 41.5802 65.0615 41.1733C64.9313 40.7664 64.7401 40.4368 64.4878 40.1846C64.2274 39.9323 63.91 39.7492 63.5356 39.6353C63.1694 39.5213 62.7463 39.4644 62.2661 39.4644C61.8511 39.4644 61.4645 39.5254 61.1064 39.6475C60.7484 39.7614 60.4188 39.9201 60.1177 40.1235C59.8735 40.3026 59.6457 40.5101 59.4341 40.7461C59.2306 40.9821 59.0516 41.2425 58.897 41.5273V51H56.6387ZM79.8325 51C79.743 50.8291 79.6698 50.6175 79.6128 50.3652C79.564 50.1048 79.5273 49.8363 79.5029 49.5596C79.2751 49.7874 79.0187 50.0031 78.7339 50.2065C78.4572 50.41 78.152 50.589 77.8184 50.7437C77.4766 50.8983 77.1144 51.0203 76.7319 51.1099C76.3494 51.1994 75.9425 51.2441 75.5112 51.2441C74.8114 51.2441 74.1766 51.1424 73.6069 50.939C73.0454 50.7355 72.5693 50.4588 72.1787 50.1089C71.7799 49.7671 71.4707 49.3602 71.251 48.8882C71.0394 48.408 70.9336 47.8913 70.9336 47.3379C70.9336 46.6136 71.076 45.9788 71.3608 45.4336C71.6538 44.8883 72.0648 44.4326 72.5938 44.0664C73.1227 43.7083 73.7575 43.4398 74.498 43.2607C75.2467 43.0817 76.0809 42.9922 77.0005 42.9922H79.4663V41.9546C79.4663 41.5558 79.3931 41.1978 79.2466 40.8804C79.1001 40.563 78.8926 40.2904 78.624 40.0625C78.3555 39.8428 78.0259 39.6719 77.6353 39.5498C77.2528 39.4277 76.8215 39.3667 76.3413 39.3667C75.8937 39.3667 75.4909 39.4237 75.1328 39.5376C74.7829 39.6515 74.4858 39.8021 74.2417 39.9893C73.9976 40.1764 73.8063 40.4002 73.668 40.6606C73.5378 40.9129 73.4727 41.1774 73.4727 41.4541H71.2021C71.2103 40.974 71.3324 40.502 71.5684 40.0381C71.8125 39.5742 72.1624 39.1551 72.6182 38.7808C73.0658 38.4146 73.611 38.1175 74.2539 37.8896C74.9049 37.6618 75.6414 37.5479 76.4634 37.5479C77.2121 37.5479 77.9079 37.6414 78.5508 37.8286C79.1937 38.0076 79.7511 38.2803 80.2231 38.6465C80.687 39.0208 81.0532 39.4847 81.3218 40.0381C81.5903 40.5915 81.7246 41.2384 81.7246 41.979V48.1191C81.7246 48.5586 81.7653 49.0265 81.8467 49.5229C81.9281 50.0112 82.042 50.4385 82.1885 50.8047V51H79.8325ZM75.8408 49.2788C76.2803 49.2788 76.6912 49.2218 77.0737 49.1079C77.4562 48.994 77.8062 48.8434 78.1235 48.6562C78.4328 48.4691 78.7013 48.2575 78.9292 48.0215C79.1571 47.7773 79.3361 47.5251 79.4663 47.2646V44.5913H77.3667C76.5854 44.5913 75.9019 44.6605 75.3159 44.7988C74.7381 44.929 74.2783 45.1325 73.9365 45.4092C73.6924 45.6045 73.5052 45.8364 73.375 46.105C73.2529 46.3735 73.1919 46.6787 73.1919 47.0205C73.1919 47.346 73.2448 47.6471 73.3506 47.9238C73.4645 48.2005 73.6313 48.4365 73.8511 48.6318C74.0708 48.8353 74.3475 48.994 74.6812 49.1079C75.0148 49.2218 75.4014 49.2788 75.8408 49.2788ZM90.1724 51L84.7402 37.792H87.0596L90.8438 47.7529L91.0513 48.5708L91.271 47.7529L94.9697 37.792H97.2769L91.8936 51H90.1724ZM94.3716 84L94.2373 82.1812C93.7979 82.8322 93.2485 83.3408 92.5894 83.707C91.9302 84.0651 91.1693 84.2441 90.3066 84.2441C89.6149 84.2441 88.9883 84.1383 88.4268 83.9268C87.8652 83.707 87.3851 83.3693 86.9863 82.9136C86.5876 82.4578 86.2783 81.88 86.0586 81.1802C85.847 80.4722 85.7412 79.6258 85.7412 78.6411V70.792H87.9995V78.6655C87.9995 79.3817 88.0565 79.9757 88.1704 80.4478C88.2843 80.9198 88.4552 81.2941 88.6831 81.5708C88.911 81.8556 89.1877 82.055 89.5132 82.1689C89.8468 82.2829 90.2293 82.3398 90.6606 82.3398C91.1652 82.3398 91.6169 82.2829 92.0156 82.1689C92.4144 82.0469 92.7603 81.88 93.0532 81.6685C93.2974 81.4976 93.509 81.2941 93.688 81.0581C93.8752 80.814 94.0298 80.5495 94.1519 80.2646V70.792H96.4224V84H94.3716ZM100.537 65.25H107.287V82.0469H111.596V84H100.537V82.0469H105.029V67.2153H100.537V65.25ZM115.051 98.25H121.802V115.047H126.111V117H115.051V115.047H119.543V100.215H115.051V98.25ZM129.566 103.792H136.316V115.047H140.625V117H129.566V115.047H134.058V105.757H129.566V103.792ZM133.765 100.325C133.765 100.13 133.794 99.9468 133.851 99.7759C133.916 99.605 134.013 99.4585 134.144 99.3364C134.249 99.2306 134.384 99.1493 134.546 99.0923C134.717 99.0272 134.909 98.9946 135.12 98.9946C135.332 98.9946 135.519 99.0272 135.682 99.0923C135.844 99.1493 135.979 99.2306 136.084 99.3364C136.215 99.4504 136.312 99.5928 136.377 99.7637C136.443 99.9346 136.475 100.122 136.475 100.325C136.475 100.691 136.361 100.997 136.133 101.241C135.905 101.485 135.568 101.607 135.12 101.607C134.664 101.607 134.323 101.485 134.095 101.241C133.875 100.997 133.765 100.691 133.765 100.325ZM181.435 117C181.346 116.829 181.272 116.618 181.215 116.365C181.167 116.105 181.13 115.836 181.105 115.56C180.878 115.787 180.621 116.003 180.336 116.207C180.06 116.41 179.755 116.589 179.421 116.744C179.079 116.898 178.717 117.02 178.334 117.11C177.952 117.199 177.545 117.244 177.114 117.244C176.414 117.244 175.779 117.142 175.209 116.939C174.648 116.736 174.172 116.459 173.781 116.109C173.382 115.767 173.073 115.36 172.854 114.888C172.642 114.408 172.536 113.891 172.536 113.338C172.536 112.614 172.679 111.979 172.963 111.434C173.256 110.888 173.667 110.433 174.196 110.066C174.725 109.708 175.36 109.44 176.101 109.261C176.849 109.082 177.683 108.992 178.603 108.992H181.069V107.955C181.069 107.556 180.996 107.198 180.849 106.88C180.703 106.563 180.495 106.29 180.227 106.062C179.958 105.843 179.628 105.672 179.238 105.55C178.855 105.428 178.424 105.367 177.944 105.367C177.496 105.367 177.093 105.424 176.735 105.538C176.385 105.652 176.088 105.802 175.844 105.989C175.6 106.176 175.409 106.4 175.271 106.661C175.14 106.913 175.075 107.177 175.075 107.454H172.805C172.813 106.974 172.935 106.502 173.171 106.038C173.415 105.574 173.765 105.155 174.221 104.781C174.668 104.415 175.214 104.118 175.856 103.89C176.507 103.662 177.244 103.548 178.066 103.548C178.815 103.548 179.51 103.641 180.153 103.829C180.796 104.008 181.354 104.28 181.826 104.646C182.29 105.021 182.656 105.485 182.924 106.038C183.193 106.591 183.327 107.238 183.327 107.979V114.119C183.327 114.559 183.368 115.027 183.449 115.523C183.531 116.011 183.645 116.438 183.791 116.805V117H181.435ZM177.443 115.279C177.883 115.279 178.294 115.222 178.676 115.108C179.059 114.994 179.409 114.843 179.726 114.656C180.035 114.469 180.304 114.257 180.532 114.021C180.76 113.777 180.939 113.525 181.069 113.265V110.591H178.969C178.188 110.591 177.504 110.66 176.918 110.799C176.341 110.929 175.881 111.132 175.539 111.409C175.295 111.604 175.108 111.836 174.978 112.105C174.855 112.374 174.794 112.679 174.794 113.021C174.794 113.346 174.847 113.647 174.953 113.924C175.067 114.201 175.234 114.437 175.454 114.632C175.673 114.835 175.95 114.994 176.284 115.108C176.617 115.222 177.004 115.279 177.443 115.279ZM529.787 117C529.697 116.829 529.624 116.618 529.567 116.365C529.518 116.105 529.481 115.836 529.457 115.56C529.229 115.787 528.973 116.003 528.688 116.207C528.411 116.41 528.106 116.589 527.772 116.744C527.431 116.898 527.069 117.02 526.686 117.11C526.304 117.199 525.897 117.244 525.465 117.244C524.765 117.244 524.131 117.142 523.561 116.939C523 116.736 522.523 116.459 522.133 116.109C521.734 115.767 521.425 115.36 521.205 114.888C520.993 114.408 520.888 113.891 520.888 113.338C520.888 112.614 521.03 111.979 521.315 111.434C521.608 110.888 522.019 110.433 522.548 110.066C523.077 109.708 523.712 109.44 524.452 109.261C525.201 109.082 526.035 108.992 526.955 108.992H529.42V107.955C529.42 107.556 529.347 107.198 529.201 106.88C529.054 106.563 528.847 106.29 528.578 106.062C528.31 105.843 527.98 105.672 527.589 105.55C527.207 105.428 526.776 105.367 526.295 105.367C525.848 105.367 525.445 105.424 525.087 105.538C524.737 105.652 524.44 105.802 524.196 105.989C523.952 106.176 523.76 106.4 523.622 106.661C523.492 106.913 523.427 107.177 523.427 107.454H521.156C521.164 106.974 521.286 106.502 521.522 106.038C521.767 105.574 522.117 105.155 522.572 104.781C523.02 104.415 523.565 104.118 524.208 103.89C524.859 103.662 525.596 103.548 526.417 103.548C527.166 103.548 527.862 103.641 528.505 103.829C529.148 104.008 529.705 104.28 530.177 104.646C530.641 105.021 531.007 105.485 531.276 106.038C531.544 106.591 531.679 107.238 531.679 107.979V114.119C531.679 114.559 531.719 115.027 531.801 115.523C531.882 116.011 531.996 116.438 532.143 116.805V117H529.787ZM525.795 115.279C526.234 115.279 526.645 115.222 527.028 115.108C527.41 114.994 527.76 114.843 528.078 114.656C528.387 114.469 528.655 114.257 528.883 114.021C529.111 113.777 529.29 113.525 529.42 113.265V110.591H527.321C526.54 110.591 525.856 110.66 525.27 110.799C524.692 110.929 524.232 111.132 523.891 111.409C523.646 111.604 523.459 111.836 523.329 112.105C523.207 112.374 523.146 112.679 523.146 113.021C523.146 113.346 523.199 113.647 523.305 113.924C523.419 114.201 523.585 114.437 523.805 114.632C524.025 114.835 524.302 114.994 524.635 115.108C524.969 115.222 525.355 115.279 525.795 115.279ZM579.52 98.25H586.271V115.047H590.58V117H579.52V115.047H584.012V100.215H579.52V98.25ZM594.035 103.792H600.785V115.047H605.094V117H594.035V115.047H598.527V105.757H594.035V103.792ZM598.234 100.325C598.234 100.13 598.262 99.9468 598.319 99.7759C598.384 99.605 598.482 99.4585 598.612 99.3364C598.718 99.2306 598.852 99.1493 599.015 99.0923C599.186 99.0272 599.377 98.9946 599.589 98.9946C599.8 98.9946 599.988 99.0272 600.15 99.0923C600.313 99.1493 600.447 99.2306 600.553 99.3364C600.683 99.4504 600.781 99.5928 600.846 99.7637C600.911 99.9346 600.944 100.122 600.944 100.325C600.944 100.691 600.83 100.997 600.602 101.241C600.374 101.485 600.036 101.607 599.589 101.607C599.133 101.607 598.791 101.485 598.563 101.241C598.344 100.997 598.234 100.691 598.234 100.325ZM115.051 131.25H121.802V148.047H126.111V150H115.051V148.047H119.543V133.215H115.051V131.25ZM129.566 136.792H136.316V148.047H140.625V150H129.566V148.047H134.058V138.757H129.566V136.792ZM133.765 133.325C133.765 133.13 133.794 132.947 133.851 132.776C133.916 132.605 134.013 132.458 134.144 132.336C134.249 132.231 134.384 132.149 134.546 132.092C134.717 132.027 134.909 131.995 135.12 131.995C135.332 131.995 135.519 132.027 135.682 132.092C135.844 132.149 135.979 132.231 136.084 132.336C136.215 132.45 136.312 132.593 136.377 132.764C136.443 132.935 136.475 133.122 136.475 133.325C136.475 133.691 136.361 133.997 136.133 134.241C135.905 134.485 135.568 134.607 135.12 134.607C134.664 134.607 134.323 134.485 134.095 134.241C133.875 133.997 133.765 133.691 133.765 133.325ZM181.435 150C181.346 149.829 181.272 149.618 181.215 149.365C181.167 149.105 181.13 148.836 181.105 148.56C180.878 148.787 180.621 149.003 180.336 149.207C180.06 149.41 179.755 149.589 179.421 149.744C179.079 149.898 178.717 150.02 178.334 150.11C177.952 150.199 177.545 150.244 177.114 150.244C176.414 150.244 175.779 150.142 175.209 149.939C174.648 149.736 174.172 149.459 173.781 149.109C173.382 148.767 173.073 148.36 172.854 147.888C172.642 147.408 172.536 146.891 172.536 146.338C172.536 145.614 172.679 144.979 172.963 144.434C173.256 143.888 173.667 143.433 174.196 143.066C174.725 142.708 175.36 142.44 176.101 142.261C176.849 142.082 177.683 141.992 178.603 141.992H181.069V140.955C181.069 140.556 180.996 140.198 180.849 139.88C180.703 139.563 180.495 139.29 180.227 139.062C179.958 138.843 179.628 138.672 179.238 138.55C178.855 138.428 178.424 138.367 177.944 138.367C177.496 138.367 177.093 138.424 176.735 138.538C176.385 138.652 176.088 138.802 175.844 138.989C175.6 139.176 175.409 139.4 175.271 139.661C175.14 139.913 175.075 140.177 175.075 140.454H172.805C172.813 139.974 172.935 139.502 173.171 139.038C173.415 138.574 173.765 138.155 174.221 137.781C174.668 137.415 175.214 137.118 175.856 136.89C176.507 136.662 177.244 136.548 178.066 136.548C178.815 136.548 179.51 136.641 180.153 136.829C180.796 137.008 181.354 137.28 181.826 137.646C182.29 138.021 182.656 138.485 182.924 139.038C183.193 139.591 183.327 140.238 183.327 140.979V147.119C183.327 147.559 183.368 148.027 183.449 148.523C183.531 149.011 183.645 149.438 183.791 149.805V150H181.435ZM177.443 148.279C177.883 148.279 178.294 148.222 178.676 148.108C179.059 147.994 179.409 147.843 179.726 147.656C180.035 147.469 180.304 147.257 180.532 147.021C180.76 146.777 180.939 146.525 181.069 146.265V143.591H178.969C178.188 143.591 177.504 143.66 176.918 143.799C176.341 143.929 175.881 144.132 175.539 144.409C175.295 144.604 175.108 144.836 174.978 145.105C174.855 145.374 174.794 145.679 174.794 146.021C174.794 146.346 174.847 146.647 174.953 146.924C175.067 147.201 175.234 147.437 175.454 147.632C175.673 147.835 175.95 147.994 176.284 148.108C176.617 148.222 177.004 148.279 177.443 148.279ZM631.389 150C631.3 149.829 631.226 149.618 631.169 149.365C631.121 149.105 631.084 148.836 631.06 148.56C630.832 148.787 630.575 149.003 630.291 149.207C630.014 149.41 629.709 149.589 629.375 149.744C629.033 149.898 628.671 150.02 628.289 150.11C627.906 150.199 627.499 150.244 627.068 150.244C626.368 150.244 625.733 150.142 625.164 149.939C624.602 149.736 624.126 149.459 623.735 149.109C623.337 148.767 623.027 148.36 622.808 147.888C622.596 147.408 622.49 146.891 622.49 146.338C622.49 145.614 622.633 144.979 622.917 144.434C623.21 143.888 623.621 143.433 624.15 143.066C624.679 142.708 625.314 142.44 626.055 142.261C626.803 142.082 627.638 141.992 628.557 141.992H631.023V140.955C631.023 140.556 630.95 140.198 630.803 139.88C630.657 139.563 630.449 139.29 630.181 139.062C629.912 138.843 629.583 138.672 629.192 138.55C628.809 138.428 628.378 138.367 627.898 138.367C627.45 138.367 627.048 138.424 626.689 138.538C626.34 138.652 626.042 138.802 625.798 138.989C625.554 139.176 625.363 139.4 625.225 139.661C625.094 139.913 625.029 140.177 625.029 140.454H622.759C622.767 139.974 622.889 139.502 623.125 139.038C623.369 138.574 623.719 138.155 624.175 137.781C624.622 137.415 625.168 137.118 625.811 136.89C626.462 136.662 627.198 136.548 628.02 136.548C628.769 136.548 629.465 136.641 630.107 136.829C630.75 137.008 631.308 137.28 631.78 137.646C632.244 138.021 632.61 138.485 632.878 139.038C633.147 139.591 633.281 140.238 633.281 140.979V147.119C633.281 147.559 633.322 148.027 633.403 148.523C633.485 149.011 633.599 149.438 633.745 149.805V150H631.389ZM627.397 148.279C627.837 148.279 628.248 148.222 628.63 148.108C629.013 147.994 629.363 147.843 629.68 147.656C629.989 147.469 630.258 147.257 630.486 147.021C630.714 146.777 630.893 146.525 631.023 146.265V143.591H628.923C628.142 143.591 627.458 143.66 626.873 143.799C626.295 143.929 625.835 144.132 625.493 144.409C625.249 144.604 625.062 144.836 624.932 145.105C624.81 145.374 624.749 145.679 624.749 146.021C624.749 146.346 624.801 146.647 624.907 146.924C625.021 147.201 625.188 147.437 625.408 147.632C625.627 147.835 625.904 147.994 626.238 148.108C626.571 148.222 626.958 148.279 627.397 148.279ZM681.123 131.25H687.873V148.047H692.182V150H681.123V148.047H685.615V133.215H681.123V131.25ZM695.637 136.792H702.388V148.047H706.697V150H695.637V148.047H700.129V138.757H695.637V136.792ZM699.836 133.325C699.836 133.13 699.865 132.947 699.922 132.776C699.987 132.605 700.085 132.458 700.215 132.336C700.321 132.231 700.455 132.149 700.618 132.092C700.789 132.027 700.98 131.995 701.191 131.995C701.403 131.995 701.59 132.027 701.753 132.092C701.916 132.149 702.05 132.231 702.156 132.336C702.286 132.45 702.384 132.593 702.449 132.764C702.514 132.935 702.546 133.122 702.546 133.325C702.546 133.691 702.432 133.997 702.205 134.241C701.977 134.485 701.639 134.607 701.191 134.607C700.736 134.607 700.394 134.485 700.166 134.241C699.946 133.997 699.836 133.691 699.836 133.325ZM115.051 164.25H121.802V181.047H126.111V183H115.051V181.047H119.543V166.215H115.051V164.25ZM129.566 169.792H136.316V181.047H140.625V183H129.566V181.047H134.058V171.757H129.566V169.792ZM133.765 166.325C133.765 166.13 133.794 165.947 133.851 165.776C133.916 165.605 134.013 165.458 134.144 165.336C134.249 165.231 134.384 165.149 134.546 165.092C134.717 165.027 134.909 164.995 135.12 164.995C135.332 164.995 135.519 165.027 135.682 165.092C135.844 165.149 135.979 165.231 136.084 165.336C136.215 165.45 136.312 165.593 136.377 165.764C136.443 165.935 136.475 166.122 136.475 166.325C136.475 166.691 136.361 166.997 136.133 167.241C135.905 167.485 135.568 167.607 135.12 167.607C134.664 167.607 134.323 167.485 134.095 167.241C133.875 166.997 133.765 166.691 133.765 166.325ZM181.435 183C181.346 182.829 181.272 182.618 181.215 182.365C181.167 182.105 181.13 181.836 181.105 181.56C180.878 181.787 180.621 182.003 180.336 182.207C180.06 182.41 179.755 182.589 179.421 182.744C179.079 182.898 178.717 183.02 178.334 183.11C177.952 183.199 177.545 183.244 177.114 183.244C176.414 183.244 175.779 183.142 175.209 182.939C174.648 182.736 174.172 182.459 173.781 182.109C173.382 181.767 173.073 181.36 172.854 180.888C172.642 180.408 172.536 179.891 172.536 179.338C172.536 178.614 172.679 177.979 172.963 177.434C173.256 176.888 173.667 176.433 174.196 176.066C174.725 175.708 175.36 175.44 176.101 175.261C176.849 175.082 177.683 174.992 178.603 174.992H181.069V173.955C181.069 173.556 180.996 173.198 180.849 172.88C180.703 172.563 180.495 172.29 180.227 172.062C179.958 171.843 179.628 171.672 179.238 171.55C178.855 171.428 178.424 171.367 177.944 171.367C177.496 171.367 177.093 171.424 176.735 171.538C176.385 171.652 176.088 171.802 175.844 171.989C175.6 172.176 175.409 172.4 175.271 172.661C175.14 172.913 175.075 173.177 175.075 173.454H172.805C172.813 172.974 172.935 172.502 173.171 172.038C173.415 171.574 173.765 171.155 174.221 170.781C174.668 170.415 175.214 170.118 175.856 169.89C176.507 169.662 177.244 169.548 178.066 169.548C178.815 169.548 179.51 169.641 180.153 169.829C180.796 170.008 181.354 170.28 181.826 170.646C182.29 171.021 182.656 171.485 182.924 172.038C183.193 172.591 183.327 173.238 183.327 173.979V180.119C183.327 180.559 183.368 181.027 183.449 181.523C183.531 182.011 183.645 182.438 183.791 182.805V183H181.435ZM177.443 181.279C177.883 181.279 178.294 181.222 178.676 181.108C179.059 180.994 179.409 180.843 179.726 180.656C180.035 180.469 180.304 180.257 180.532 180.021C180.76 179.777 180.939 179.525 181.069 179.265V176.591H178.969C178.188 176.591 177.504 176.66 176.918 176.799C176.341 176.929 175.881 177.132 175.539 177.409C175.295 177.604 175.108 177.836 174.978 178.105C174.855 178.374 174.794 178.679 174.794 179.021C174.794 179.346 174.847 179.647 174.953 179.924C175.067 180.201 175.234 180.437 175.454 180.632C175.673 180.835 175.95 180.994 176.284 181.108C176.617 181.222 177.004 181.279 177.443 181.279ZM602.36 183C602.27 182.829 602.197 182.618 602.14 182.365C602.091 182.105 602.055 181.836 602.03 181.56C601.802 181.787 601.546 182.003 601.261 182.207C600.985 182.41 600.679 182.589 600.346 182.744C600.004 182.898 599.642 183.02 599.259 183.11C598.877 183.199 598.47 183.244 598.039 183.244C597.339 183.244 596.704 183.142 596.134 182.939C595.573 182.736 595.097 182.459 594.706 182.109C594.307 181.767 593.998 181.36 593.778 180.888C593.567 180.408 593.461 179.891 593.461 179.338C593.461 178.614 593.603 177.979 593.888 177.434C594.181 176.888 594.592 176.433 595.121 176.066C595.65 175.708 596.285 175.44 597.025 175.261C597.774 175.082 598.608 174.992 599.528 174.992H601.994V173.955C601.994 173.556 601.92 173.198 601.774 172.88C601.627 172.563 601.42 172.29 601.151 172.062C600.883 171.843 600.553 171.672 600.163 171.55C599.78 171.428 599.349 171.367 598.869 171.367C598.421 171.367 598.018 171.424 597.66 171.538C597.31 171.652 597.013 171.802 596.769 171.989C596.525 172.176 596.334 172.4 596.195 172.661C596.065 172.913 596 173.177 596 173.454H593.729C593.738 172.974 593.86 172.502 594.096 172.038C594.34 171.574 594.69 171.155 595.146 170.781C595.593 170.415 596.138 170.118 596.781 169.89C597.432 169.662 598.169 169.548 598.991 169.548C599.739 169.548 600.435 169.641 601.078 169.829C601.721 170.008 602.278 170.28 602.75 170.646C603.214 171.021 603.581 171.485 603.849 172.038C604.118 172.591 604.252 173.238 604.252 173.979V180.119C604.252 180.559 604.293 181.027 604.374 181.523C604.455 182.011 604.569 182.438 604.716 182.805V183H602.36ZM598.368 181.279C598.808 181.279 599.219 181.222 599.601 181.108C599.984 180.994 600.333 180.843 600.651 180.656C600.96 180.469 601.229 180.257 601.457 180.021C601.684 179.777 601.863 179.525 601.994 179.265V176.591H599.894C599.113 176.591 598.429 176.66 597.843 176.799C597.265 176.929 596.806 177.132 596.464 177.409C596.22 177.604 596.033 177.836 595.902 178.105C595.78 178.374 595.719 178.679 595.719 179.021C595.719 179.346 595.772 179.647 595.878 179.924C595.992 180.201 596.159 180.437 596.378 180.632C596.598 180.835 596.875 180.994 597.208 181.108C597.542 181.222 597.929 181.279 598.368 181.279ZM652.093 164.25H658.844V181.047H663.153V183H652.093V181.047H656.585V166.215H652.093V164.25ZM666.608 169.792H673.358V181.047H677.667V183H666.608V181.047H671.1V171.757H666.608V169.792ZM670.807 166.325C670.807 166.13 670.836 165.947 670.893 165.776C670.958 165.605 671.055 165.458 671.186 165.336C671.291 165.231 671.426 165.149 671.588 165.092C671.759 165.027 671.951 164.995 672.162 164.995C672.374 164.995 672.561 165.027 672.724 165.092C672.886 165.149 673.021 165.231 673.126 165.336C673.257 165.45 673.354 165.593 673.419 165.764C673.485 165.935 673.517 166.122 673.517 166.325C673.517 166.691 673.403 166.997 673.175 167.241C672.947 167.485 672.61 167.607 672.162 167.607C671.706 167.607 671.365 167.485 671.137 167.241C670.917 166.997 670.807 166.691 670.807 166.325ZM108.886 216L108.752 214.181C108.312 214.832 107.763 215.341 107.104 215.707C106.445 216.065 105.684 216.244 104.821 216.244C104.13 216.244 103.503 216.138 102.941 215.927C102.38 215.707 101.9 215.369 101.501 214.914C101.102 214.458 100.793 213.88 100.573 213.18C100.362 212.472 100.256 211.626 100.256 210.641V202.792H102.514V210.666C102.514 211.382 102.571 211.976 102.685 212.448C102.799 212.92 102.97 213.294 103.198 213.571C103.426 213.856 103.702 214.055 104.028 214.169C104.361 214.283 104.744 214.34 105.175 214.34C105.68 214.34 106.132 214.283 106.53 214.169C106.929 214.047 107.275 213.88 107.568 213.668C107.812 213.498 108.024 213.294 108.203 213.058C108.39 212.814 108.544 212.549 108.667 212.265V202.792H110.937V216H108.886ZM115.051 197.25H121.802V214.047H126.111V216H115.051V214.047H119.543V199.215H115.051V197.25ZM71.1533 249V235.792H73.1797L73.3384 237.745C73.5337 237.468 73.7453 237.216 73.9731 236.988C74.2091 236.752 74.4574 236.549 74.7178 236.378C75.1084 236.118 75.5316 235.918 75.9873 235.78C76.4512 235.633 76.9395 235.556 77.4521 235.548C78.1439 235.548 78.7705 235.646 79.332 235.841C79.9017 236.036 80.3859 236.341 80.7847 236.756C81.1834 237.171 81.4886 237.7 81.7002 238.343C81.9199 238.978 82.0298 239.735 82.0298 240.614V249H79.7715V240.663C79.7715 240.077 79.7064 239.58 79.5762 239.173C79.446 238.766 79.2547 238.437 79.0024 238.185C78.742 237.932 78.4246 237.749 78.0503 237.635C77.6841 237.521 77.2609 237.464 76.7808 237.464C76.3657 237.464 75.9792 237.525 75.6211 237.647C75.263 237.761 74.9334 237.92 74.6323 238.124C74.3882 238.303 74.1603 238.51 73.9487 238.746C73.7453 238.982 73.5662 239.243 73.4116 239.527V249H71.1533ZM94.3472 249C94.2576 248.829 94.1844 248.618 94.1274 248.365C94.0786 248.105 94.042 247.836 94.0176 247.56C93.7897 247.787 93.5334 248.003 93.2485 248.207C92.9718 248.41 92.6667 248.589 92.333 248.744C91.9912 248.898 91.6291 249.02 91.2466 249.11C90.8641 249.199 90.4572 249.244 90.0259 249.244C89.326 249.244 88.6912 249.142 88.1216 248.939C87.5601 248.736 87.084 248.459 86.6934 248.109C86.2946 247.767 85.9854 247.36 85.7656 246.888C85.554 246.408 85.4482 245.891 85.4482 245.338C85.4482 244.614 85.5907 243.979 85.8755 243.434C86.1685 242.888 86.5794 242.433 87.1084 242.066C87.6374 241.708 88.2721 241.44 89.0127 241.261C89.7614 241.082 90.5955 240.992 91.5151 240.992H93.981V239.955C93.981 239.556 93.9077 239.198 93.7612 238.88C93.6147 238.563 93.4072 238.29 93.1387 238.062C92.8701 237.843 92.5405 237.672 92.1499 237.55C91.7674 237.428 91.3361 237.367 90.856 237.367C90.4084 237.367 90.0055 237.424 89.6475 237.538C89.2975 237.652 89.0005 237.802 88.7563 237.989C88.5122 238.176 88.321 238.4 88.1826 238.661C88.0524 238.913 87.9873 239.177 87.9873 239.454H85.7168C85.7249 238.974 85.847 238.502 86.083 238.038C86.3271 237.574 86.6771 237.155 87.1328 236.781C87.5804 236.415 88.1257 236.118 88.7686 235.89C89.4196 235.662 90.1561 235.548 90.978 235.548C91.7267 235.548 92.4225 235.641 93.0654 235.829C93.7083 236.008 94.2658 236.28 94.7378 236.646C95.2017 237.021 95.5679 237.485 95.8364 238.038C96.105 238.591 96.2393 239.238 96.2393 239.979V246.119C96.2393 246.559 96.2799 247.027 96.3613 247.523C96.4427 248.011 96.5566 248.438 96.7031 248.805V249H94.3472ZM90.3555 247.279C90.7949 247.279 91.2059 247.222 91.5884 247.108C91.9709 246.994 92.3208 246.843 92.6382 246.656C92.9474 246.469 93.216 246.257 93.4438 246.021C93.6717 245.777 93.8507 245.525 93.981 245.265V242.591H91.8813C91.1001 242.591 90.4165 242.66 89.8306 242.799C89.2528 242.929 88.793 243.132 88.4512 243.409C88.207 243.604 88.0199 243.836 87.8896 244.105C87.7676 244.374 87.7065 244.679 87.7065 245.021C87.7065 245.346 87.7594 245.647 87.8652 245.924C87.9792 246.201 88.146 246.437 88.3657 246.632C88.5854 246.835 88.8621 246.994 89.1958 247.108C89.5295 247.222 89.916 247.279 90.3555 247.279ZM104.687 249L99.2549 235.792H101.574L105.358 245.753L105.566 246.571L105.786 245.753L109.484 235.792H111.792L106.408 249H104.687Z" fill="#0066FF"/>
</svg>
