<svg width="1399" height="149" viewBox="0 0 1399 149" fill="none" xmlns="http://www.w3.org/2000/svg">
<rect width="1399" height="149" rx="20" fill="#0066FF" fill-opacity="0.2"/>
<rect x="1.5" y="1.5" width="1396" height="146" rx="18.5" stroke="#0066FF" stroke-opacity="0.5" stroke-width="3"/>
<path d="M46.0547 49.5352C46.0547 49.055 46.2012 48.644 46.4941 48.3022C46.7871 47.9604 47.2306 47.7896 47.8247 47.7896C48.4106 47.7896 48.8542 47.9604 49.1553 48.3022C49.4645 48.6359 49.6191 49.0469 49.6191 49.5352C49.6191 50.0153 49.4645 50.4181 49.1553 50.7437C48.846 51.0692 48.4025 51.2319 47.8247 51.2319C47.2388 51.2319 46.7952 51.0692 46.4941 50.7437C46.2012 50.41 46.0547 50.0072 46.0547 49.5352ZM56.9927 37.792H63.7432V49.0469H68.0522V51H56.9927V49.0469H61.4849V39.7573H56.9927V37.792ZM61.1919 34.3252C61.1919 34.1299 61.2204 33.9468 61.2773 33.7759C61.3424 33.605 61.4401 33.4585 61.5703 33.3364C61.6761 33.2306 61.8104 33.1493 61.9731 33.0923C62.144 33.0272 62.3353 32.9946 62.5469 32.9946C62.7585 32.9946 62.9456 33.0272 63.1084 33.0923C63.2712 33.1493 63.4054 33.2306 63.5112 33.3364C63.6414 33.4504 63.7391 33.5928 63.8042 33.7637C63.8693 33.9346 63.9019 34.1217 63.9019 34.3252C63.9019 34.6914 63.7879 34.9966 63.5601 35.2407C63.3322 35.4849 62.9945 35.6069 62.5469 35.6069C62.0911 35.6069 61.7493 35.4849 61.5215 35.2407C61.3018 34.9966 61.1919 34.6914 61.1919 34.3252ZM72.1909 37.792L72.252 39.0371C72.5205 38.5732 72.8704 38.2111 73.3018 37.9507C73.7412 37.6903 74.2702 37.556 74.8887 37.5479C75.2386 37.5479 75.5519 37.5885 75.8286 37.6699C76.1134 37.7432 76.3617 37.853 76.5732 37.9995C76.7279 38.1134 76.8662 38.2518 76.9883 38.4146C77.1185 38.5773 77.2284 38.7604 77.3179 38.9639C77.4318 38.7767 77.5661 38.6017 77.7207 38.439C77.8753 38.2762 78.0422 38.1338 78.2212 38.0117C78.4491 37.8734 78.7013 37.7635 78.978 37.6821C79.2629 37.6007 79.5721 37.556 79.9058 37.5479C80.3615 37.5479 80.7725 37.617 81.1387 37.7554C81.5049 37.8856 81.8141 38.0809 82.0664 38.3413C82.3431 38.6343 82.5547 39.0168 82.7012 39.4888C82.8477 39.9526 82.9209 40.502 82.9209 41.1367V51H80.7725V41.1123C80.7725 40.8356 80.7399 40.5915 80.6748 40.3799C80.6097 40.1683 80.5161 39.9933 80.394 39.855C80.2638 39.7248 80.1011 39.6271 79.9058 39.562C79.7186 39.4969 79.4989 39.4644 79.2466 39.4644C78.978 39.4644 78.7461 39.501 78.5508 39.5742C78.3555 39.6475 78.1927 39.7451 78.0625 39.8672C77.9323 39.9974 77.8306 40.1479 77.7573 40.3188C77.6841 40.4816 77.6353 40.6647 77.6108 40.8682C77.6108 40.9089 77.6108 40.9495 77.6108 40.9902C77.6108 41.0228 77.6108 41.0635 77.6108 41.1123V51H75.4624V41.1001C75.4624 40.8234 75.4299 40.5793 75.3647 40.3677C75.3078 40.1561 75.2142 39.9811 75.084 39.8428C74.9619 39.7126 74.8073 39.619 74.6201 39.562C74.4411 39.4969 74.2295 39.4644 73.9854 39.4644C73.7168 39.4644 73.4808 39.4969 73.2773 39.562C73.082 39.619 72.9152 39.7044 72.7769 39.8184C72.6711 39.9079 72.5775 40.0096 72.4961 40.1235C72.4229 40.2375 72.3618 40.3595 72.313 40.4897V51H70.1646V37.792H72.1909ZM94.3472 51C94.2576 50.8291 94.1844 50.6175 94.1274 50.3652C94.0786 50.1048 94.042 49.8363 94.0176 49.5596C93.7897 49.7874 93.5334 50.0031 93.2485 50.2065C92.9718 50.41 92.6667 50.589 92.333 50.7437C91.9912 50.8983 91.6291 51.0203 91.2466 51.1099C90.8641 51.1994 90.4572 51.2441 90.0259 51.2441C89.326 51.2441 88.6912 51.1424 88.1216 50.939C87.5601 50.7355 87.084 50.4588 86.6934 50.1089C86.2946 49.7671 85.9854 49.3602 85.7656 48.8882C85.554 48.408 85.4482 47.8913 85.4482 47.3379C85.4482 46.6136 85.5907 45.9788 85.8755 45.4336C86.1685 44.8883 86.5794 44.4326 87.1084 44.0664C87.6374 43.7083 88.2721 43.4398 89.0127 43.2607C89.7614 43.0817 90.5955 42.9922 91.5151 42.9922H93.981V41.9546C93.981 41.5558 93.9077 41.1978 93.7612 40.8804C93.6147 40.563 93.4072 40.2904 93.1387 40.0625C92.8701 39.8428 92.5405 39.6719 92.1499 39.5498C91.7674 39.4277 91.3361 39.3667 90.856 39.3667C90.4084 39.3667 90.0055 39.4237 89.6475 39.5376C89.2975 39.6515 89.0005 39.8021 88.7563 39.9893C88.5122 40.1764 88.321 40.4002 88.1826 40.6606C88.0524 40.9129 87.9873 41.1774 87.9873 41.4541H85.7168C85.7249 40.974 85.847 40.502 86.083 40.0381C86.3271 39.5742 86.6771 39.1551 87.1328 38.7808C87.5804 38.4146 88.1257 38.1175 88.7686 37.8896C89.4196 37.6618 90.1561 37.5479 90.978 37.5479C91.7267 37.5479 92.4225 37.6414 93.0654 37.8286C93.7083 38.0076 94.2658 38.2803 94.7378 38.6465C95.2017 39.0208 95.5679 39.4847 95.8364 40.0381C96.105 40.5915 96.2393 41.2384 96.2393 41.979V48.1191C96.2393 48.5586 96.2799 49.0265 96.3613 49.5229C96.4427 50.0112 96.5566 50.4385 96.7031 50.8047V51H94.3472ZM90.3555 49.2788C90.7949 49.2788 91.2059 49.2218 91.5884 49.1079C91.9709 48.994 92.3208 48.8434 92.6382 48.6562C92.9474 48.4691 93.216 48.2575 93.4438 48.0215C93.6717 47.7773 93.8507 47.5251 93.981 47.2646V44.5913H91.8813C91.1001 44.5913 90.4165 44.6605 89.8306 44.7988C89.2528 44.929 88.793 45.1325 88.4512 45.4092C88.207 45.6045 88.0199 45.8364 87.8896 46.105C87.7676 46.3735 87.7065 46.6787 87.7065 47.0205C87.7065 47.346 87.7594 47.6471 87.8652 47.9238C87.9792 48.2005 88.146 48.4365 88.3657 48.6318C88.5854 48.8353 88.8621 48.994 89.1958 49.1079C89.5295 49.2218 89.916 49.2788 90.3555 49.2788ZM99.7676 44.2861C99.7676 43.3014 99.8856 42.3981 100.122 41.5762C100.366 40.7461 100.716 40.034 101.171 39.4399C101.627 38.8459 102.181 38.382 102.832 38.0483C103.483 37.7147 104.219 37.5479 105.041 37.5479C105.57 37.5479 106.054 37.6089 106.494 37.731C106.941 37.853 107.344 38.0321 107.702 38.2681C107.897 38.3901 108.081 38.5326 108.251 38.6953C108.431 38.8581 108.597 39.0371 108.752 39.2324L108.862 37.792H110.913V50.7192C110.913 51.59 110.774 52.3631 110.498 53.0386C110.229 53.714 109.851 54.2878 109.362 54.7598C108.866 55.2318 108.276 55.5898 107.592 55.834C106.909 56.0781 106.152 56.2002 105.322 56.2002C104.98 56.2002 104.589 56.1595 104.15 56.0781C103.71 56.0049 103.267 55.8787 102.819 55.6997C102.364 55.5288 101.924 55.2969 101.501 55.0039C101.086 54.7109 100.728 54.3488 100.427 53.9175L101.599 52.5625C101.875 52.8962 102.16 53.1769 102.453 53.4048C102.746 53.6408 103.043 53.828 103.344 53.9663C103.645 54.1047 103.946 54.2023 104.248 54.2593C104.549 54.3244 104.85 54.3569 105.151 54.3569C105.688 54.3569 106.172 54.2796 106.604 54.125C107.035 53.9704 107.405 53.7425 107.714 53.4414C108.015 53.1484 108.247 52.7822 108.41 52.3428C108.573 51.9033 108.654 51.3988 108.654 50.8291V49.6938C108.483 49.8892 108.3 50.0682 108.105 50.231C107.918 50.3937 107.714 50.5361 107.495 50.6582C107.153 50.8454 106.774 50.9878 106.359 51.0854C105.944 51.1912 105.497 51.2441 105.017 51.2441C104.211 51.2441 103.483 51.0732 102.832 50.7314C102.181 50.3896 101.631 49.9176 101.184 49.3154C100.728 48.7132 100.378 48.0052 100.134 47.1914C99.8896 46.3695 99.7676 45.4865 99.7676 44.5425V44.2861ZM102.026 44.5425C102.026 45.1854 102.091 45.7957 102.221 46.3735C102.36 46.9513 102.575 47.46 102.868 47.8994C103.153 48.3389 103.519 48.6888 103.967 48.9492C104.414 49.2015 104.951 49.3276 105.578 49.3276C105.969 49.3276 106.319 49.2829 106.628 49.1934C106.945 49.0957 107.23 48.9614 107.482 48.7905C107.727 48.6196 107.946 48.4162 108.142 48.1802C108.337 47.9442 108.508 47.6838 108.654 47.3989V41.3442C108.508 41.0675 108.337 40.8153 108.142 40.5874C107.946 40.3595 107.722 40.1602 107.47 39.9893C107.218 39.8265 106.937 39.7004 106.628 39.6108C106.319 39.5132 105.977 39.4644 105.603 39.4644C104.968 39.4644 104.423 39.5946 103.967 39.855C103.519 40.1154 103.153 40.4653 102.868 40.9048C102.575 41.3524 102.36 41.8691 102.221 42.4551C102.091 43.0329 102.026 43.6432 102.026 44.2861V44.5425ZM120.532 51.2441C119.604 51.2441 118.75 51.0854 117.969 50.7681C117.196 50.4507 116.532 50.0072 115.979 49.4375C115.426 48.8678 114.994 48.1924 114.685 47.4111C114.376 46.6299 114.221 45.7795 114.221 44.8599V44.3472C114.221 43.2811 114.392 42.3289 114.734 41.4907C115.076 40.6444 115.531 39.9282 116.101 39.3423C116.663 38.7645 117.301 38.321 118.018 38.0117C118.742 37.7025 119.482 37.5479 120.239 37.5479C121.191 37.5479 122.021 37.7147 122.729 38.0483C123.446 38.3739 124.04 38.8255 124.512 39.4033C124.984 39.9893 125.334 40.6769 125.562 41.4663C125.798 42.2557 125.916 43.1102 125.916 44.0298V45.043H116.479V45.1284C116.536 45.7713 116.663 46.3369 116.858 46.8252C117.061 47.3135 117.338 47.7448 117.688 48.1191C118.046 48.5179 118.477 48.8312 118.982 49.0591C119.486 49.2869 120.044 49.4009 120.654 49.4009C121.46 49.4009 122.176 49.2381 122.803 48.9126C123.429 48.5871 123.95 48.1558 124.365 47.6187L125.745 48.6929C125.305 49.3602 124.646 49.9543 123.767 50.4751C122.896 50.9878 121.818 51.2441 120.532 51.2441ZM120.239 39.4033C119.784 39.4033 119.352 39.4888 118.945 39.6597C118.538 39.8224 118.172 40.0625 117.847 40.3799C117.521 40.7054 117.244 41.1042 117.017 41.5762C116.797 42.04 116.642 42.5771 116.553 43.1875H123.657V43.0776C123.657 42.6707 123.58 42.2354 123.425 41.7715C123.271 41.2995 123.055 40.8926 122.778 40.5508C122.502 40.209 122.152 39.9323 121.729 39.7207C121.313 39.5091 120.817 39.4033 120.239 39.4033ZM289.557 85.5137H288.153L298.688 66.2388H300.079L289.557 85.5137ZM308.014 72.1714L303.656 70.8408L304.279 69.4858L308.539 71.2314L309.186 66.2266H310.602L309.601 71.1948L314.252 69.437L314.508 70.8896L309.674 72.3057L312.274 76.2363L311.042 77.0664L308.795 72.8916L305.377 77.0054L304.291 76.1265L308.014 72.1714ZM333.723 66.2266L330.867 82.7549H334.468L337.336 66.2266H338.716L335.859 82.7549H339.448L342.317 66.2266H343.696L340.632 84H329.255L332.332 66.2266H333.723ZM354.952 70.8042L356.441 70.792L354.158 84H352.718L354.585 73.2212L345.54 84H344.075L346.346 70.792H347.774L345.882 81.6196L354.952 70.8042ZM369.784 77.4937C369.702 78.0063 369.584 78.5272 369.43 79.0562C369.283 79.577 369.092 80.0775 368.856 80.5576C368.604 81.111 368.29 81.6278 367.916 82.1079C367.55 82.5881 367.131 82.9909 366.659 83.3164C366.244 83.6094 365.788 83.8372 365.292 84C364.803 84.1709 364.27 84.2523 363.692 84.2441C363.285 84.2441 362.891 84.1953 362.508 84.0977C362.126 84 361.768 83.8576 361.434 83.6704C361.166 83.5158 360.913 83.3327 360.677 83.1211C360.449 82.9095 360.25 82.6654 360.079 82.3887L358.871 89.0781H357.455L360.616 70.792H361.935L361.605 72.6108C361.841 72.3341 362.097 72.0778 362.374 71.8418C362.651 71.5977 362.944 71.3901 363.253 71.2192C363.635 70.9995 364.038 70.8327 364.461 70.7188C364.885 70.6048 365.328 70.5479 365.792 70.5479C366.394 70.556 366.923 70.6577 367.379 70.853C367.835 71.0483 368.221 71.3088 368.539 71.6343C368.856 71.9679 369.112 72.3545 369.308 72.7939C369.511 73.2334 369.662 73.6973 369.759 74.1855C369.849 74.682 369.894 75.1906 369.894 75.7114C369.902 76.2323 369.873 76.7409 369.808 77.2373L369.784 77.4937ZM368.38 77.2373C368.437 76.8141 368.465 76.3747 368.465 75.9189C368.473 75.4551 368.437 75.0075 368.355 74.5762C368.282 74.21 368.181 73.8722 368.05 73.563C367.92 73.2456 367.749 72.9648 367.538 72.7207C367.302 72.4521 367.009 72.2406 366.659 72.0859C366.309 71.9232 365.894 71.8377 365.414 71.8296C364.966 71.8296 364.539 71.8988 364.132 72.0371C363.733 72.1673 363.363 72.3545 363.021 72.5986C362.704 72.8184 362.411 73.0747 362.142 73.3677C361.882 73.6606 361.65 73.974 361.446 74.3076L360.311 80.7651C360.417 81.1232 360.567 81.4406 360.763 81.7173C360.966 81.9858 361.202 82.2137 361.471 82.4009C361.739 82.5962 362.036 82.7427 362.362 82.8403C362.695 82.938 363.049 82.9909 363.424 82.999C363.912 83.0072 364.36 82.938 364.767 82.7915C365.182 82.645 365.556 82.4416 365.89 82.1812C366.256 81.9126 366.577 81.5911 366.854 81.2168C367.131 80.8343 367.371 80.4315 367.574 80.0083C367.761 79.6095 367.92 79.1945 368.05 78.7632C368.181 78.3319 368.278 77.9087 368.343 77.4937L368.38 77.2373ZM383.297 70.8042L384.787 70.792L382.504 84H381.063L382.931 73.2212L373.886 84H372.421L374.691 70.792H376.12L374.228 81.6196L383.297 70.8042ZM396.677 84H395.236L396.286 77.9453H389.06L388.01 84H386.582L388.864 70.792H390.292L389.267 76.7002H396.494L397.519 70.792H398.959L396.677 84ZM409.678 84C409.637 83.6663 409.625 83.3408 409.641 83.0234C409.666 82.6979 409.706 82.3724 409.763 82.0469C409.486 82.3398 409.189 82.6125 408.872 82.8647C408.555 83.1089 408.221 83.3205 407.871 83.4995C407.415 83.7437 406.935 83.9308 406.431 84.061C405.926 84.1912 405.405 84.2523 404.868 84.2441C404.339 84.236 403.835 84.1465 403.354 83.9756C402.874 83.7965 402.467 83.5483 402.134 83.231C401.784 82.9136 401.515 82.5311 401.328 82.0835C401.149 81.6278 401.088 81.1151 401.145 80.5454C401.202 80.0002 401.34 79.516 401.56 79.0928C401.78 78.6696 402.061 78.2993 402.402 77.9819C402.736 77.6727 403.114 77.4123 403.538 77.2007C403.961 76.9891 404.408 76.8141 404.88 76.6758C405.352 76.5456 405.833 76.452 406.321 76.395C406.817 76.3381 407.301 76.3096 407.773 76.3096H410.642L410.886 74.8203C410.951 74.332 410.919 73.9007 410.789 73.5264C410.667 73.152 410.471 72.8346 410.203 72.5742C409.934 72.3138 409.604 72.1185 409.214 71.9883C408.823 71.8499 408.396 71.7808 407.932 71.7808C407.493 71.7726 407.061 71.8255 406.638 71.9395C406.215 72.0452 405.824 72.208 405.466 72.4277C405.108 72.6556 404.795 72.9364 404.526 73.27C404.266 73.5955 404.075 73.9821 403.953 74.4297L402.524 74.4175C402.638 73.7827 402.874 73.2253 403.232 72.7451C403.599 72.2568 404.038 71.8499 404.551 71.5244C405.055 71.1989 405.609 70.9548 406.211 70.792C406.821 70.6211 407.432 70.5397 408.042 70.5479C408.685 70.5479 409.283 70.6455 409.836 70.8408C410.39 71.028 410.866 71.3047 411.265 71.6709C411.655 72.0452 411.944 72.501 412.131 73.0381C412.327 73.5671 412.384 74.1693 412.302 74.8447L411.216 81.229C411.143 81.6685 411.106 82.1079 411.106 82.5474C411.106 82.9787 411.134 83.41 411.191 83.8413L411.167 84H409.678ZM405.076 82.9502C405.572 82.9583 406.056 82.9014 406.528 82.7793C407 82.6572 407.444 82.4782 407.859 82.2422C408.258 82.0143 408.632 81.7417 408.982 81.4243C409.34 81.0988 409.657 80.7407 409.934 80.3501L410.447 77.4448L407.969 77.4326C407.554 77.4326 407.11 77.4611 406.638 77.5181C406.166 77.5669 405.71 77.6605 405.271 77.7988C404.954 77.8883 404.648 78.0023 404.355 78.1406C404.071 78.2708 403.81 78.4377 403.574 78.6411C403.322 78.8608 403.106 79.1172 402.927 79.4102C402.756 79.695 402.642 80.0286 402.585 80.4111C402.528 80.8099 402.557 81.1639 402.671 81.4731C402.785 81.7824 402.96 82.0428 403.196 82.2544C403.424 82.4741 403.7 82.645 404.026 82.7671C404.36 82.881 404.709 82.9421 405.076 82.9502ZM435.875 71.793C435.379 71.793 434.894 71.8621 434.422 72.0005C433.958 72.1388 433.535 72.3423 433.153 72.6108C432.762 72.8794 432.429 73.209 432.152 73.5996C431.875 73.9821 431.676 74.4175 431.554 74.9058L430.162 74.918C430.284 74.2425 430.528 73.6362 430.895 73.0991C431.261 72.5539 431.708 72.09 432.237 71.7075C432.758 71.3413 433.336 71.0565 433.971 70.853C434.605 70.6414 435.252 70.5397 435.912 70.5479C436.563 70.5479 437.145 70.6414 437.657 70.8286C438.178 71.0158 438.634 71.2721 439.024 71.5977C439.35 71.8662 439.631 72.1795 439.867 72.5376C440.111 72.8957 440.306 73.2822 440.453 73.6973C440.648 74.21 440.774 74.7593 440.831 75.3452C440.888 75.923 440.88 76.5171 440.807 77.1274L440.733 77.6401C440.595 78.5272 440.335 79.3735 439.952 80.1792C439.578 80.9767 439.094 81.6807 438.5 82.291C437.897 82.8932 437.201 83.3734 436.412 83.7314C435.623 84.0814 434.756 84.2523 433.812 84.2441C433.112 84.236 432.477 84.118 431.908 83.8901C431.338 83.6541 430.858 83.3286 430.467 82.9136C430.069 82.4985 429.767 82.0062 429.564 81.4365C429.361 80.8587 429.283 80.2199 429.332 79.52L430.699 79.5322C430.65 80.0368 430.691 80.5007 430.821 80.9238C430.951 81.3389 431.159 81.701 431.444 82.0103C431.721 82.3195 432.062 82.5636 432.469 82.7427C432.884 82.9136 433.348 82.999 433.861 82.999C434.601 83.0153 435.269 82.8851 435.863 82.6084C436.465 82.3236 436.99 81.9451 437.438 81.4731C437.885 81.0093 438.264 80.4681 438.573 79.8496C438.882 79.2311 439.122 78.5964 439.293 77.9453H433.006L433.226 76.7002H439.415C439.488 76.0817 439.476 75.4795 439.378 74.8936C439.281 74.3076 439.09 73.7827 438.805 73.3188C438.512 72.8713 438.121 72.5091 437.633 72.2324C437.153 71.9476 436.567 71.8011 435.875 71.793ZM455.553 70.792L453.258 84H451.818L453.881 72.0615H448.412L447.509 76.627C447.419 77.1234 447.318 77.6483 447.204 78.2017C447.098 78.755 446.964 79.3003 446.801 79.8374C446.63 80.3826 446.422 80.9035 446.178 81.3999C445.942 81.8963 445.649 82.3358 445.299 82.7183C444.958 83.1007 444.547 83.41 444.066 83.646C443.594 83.8739 443.041 83.9919 442.406 84H441.845L442.028 82.6816H442.455C442.935 82.6654 443.346 82.5555 443.688 82.3521C444.038 82.1405 444.335 81.8678 444.579 81.5342C444.823 81.2087 445.027 80.8384 445.189 80.4233C445.352 80.0002 445.491 79.5648 445.604 79.1172C445.718 78.6777 445.808 78.2424 445.873 77.811C445.946 77.3716 446.015 76.9769 446.081 76.627L447.204 70.792H455.553ZM463.049 84.2441C462.137 84.236 461.34 84.0366 460.656 83.646C459.981 83.2554 459.436 82.7467 459.021 82.1201C458.63 81.5423 458.349 80.875 458.178 80.1182C458.015 79.3613 457.983 78.5841 458.081 77.7866L458.154 77.2495C458.235 76.6961 458.374 76.1468 458.569 75.6016C458.764 75.0482 459.012 74.5192 459.313 74.0146C459.615 73.5182 459.96 73.0584 460.351 72.6353C460.742 72.2039 461.173 71.8337 461.645 71.5244C462.117 71.2152 462.626 70.9751 463.171 70.8042C463.724 70.6252 464.306 70.5397 464.917 70.5479C465.763 70.556 466.483 70.735 467.077 71.085C467.671 71.4268 468.151 71.8825 468.518 72.4521C468.876 73.0137 469.116 73.6566 469.238 74.3809C469.36 75.1051 469.372 75.8457 469.274 76.6025L469.128 77.4937H459.57C459.431 78.2342 459.407 78.9219 459.497 79.5566C459.586 80.1914 459.802 80.7855 460.144 81.3389C460.437 81.8271 460.835 82.2218 461.34 82.5229C461.853 82.8241 462.451 82.9827 463.134 82.999C463.94 83.0153 464.685 82.8607 465.368 82.5352C466.052 82.2096 466.674 81.7702 467.236 81.2168L468.09 81.937C467.472 82.6857 466.719 83.2594 465.832 83.6582C464.953 84.057 464.025 84.2523 463.049 84.2441ZM464.868 71.8052C464.217 71.7889 463.618 71.911 463.073 72.1714C462.536 72.4237 462.06 72.7573 461.645 73.1724C461.214 73.5874 460.843 74.0635 460.534 74.6006C460.225 75.1377 459.969 75.687 459.765 76.2485L467.871 76.2607L467.907 76.0654C468.005 75.5446 468.009 75.0319 467.919 74.5273C467.83 74.0146 467.655 73.5589 467.395 73.1602C467.126 72.7614 466.78 72.4399 466.357 72.1958C465.934 71.9435 465.437 71.8133 464.868 71.8052ZM476.843 81.9736L482.373 70.8042L484.106 70.792L481.836 84H480.432L482.117 74.2588L477.063 84H476.062L474.341 73.7583L472.559 84H471.155L473.438 70.792H475.22L476.843 81.9736ZM491.395 84.2441C490.483 84.236 489.686 84.0366 489.002 83.646C488.326 83.2554 487.781 82.7467 487.366 82.1201C486.976 81.5423 486.695 80.875 486.524 80.1182C486.361 79.3613 486.329 78.5841 486.426 77.7866L486.5 77.2495C486.581 76.6961 486.719 76.1468 486.915 75.6016C487.11 75.0482 487.358 74.5192 487.659 74.0146C487.96 73.5182 488.306 73.0584 488.697 72.6353C489.087 72.2039 489.519 71.8337 489.991 71.5244C490.463 71.2152 490.971 70.9751 491.517 70.8042C492.07 70.6252 492.652 70.5397 493.262 70.5479C494.109 70.556 494.829 70.735 495.423 71.085C496.017 71.4268 496.497 71.8825 496.863 72.4521C497.221 73.0137 497.461 73.6566 497.583 74.3809C497.706 75.1051 497.718 75.8457 497.62 76.6025L497.474 77.4937H487.916C487.777 78.2342 487.753 78.9219 487.842 79.5566C487.932 80.1914 488.147 80.7855 488.489 81.3389C488.782 81.8271 489.181 82.2218 489.686 82.5229C490.198 82.8241 490.796 82.9827 491.48 82.999C492.286 83.0153 493.03 82.8607 493.714 82.5352C494.397 82.2096 495.02 81.7702 495.582 81.2168L496.436 81.937C495.818 82.6857 495.065 83.2594 494.178 83.6582C493.299 84.057 492.371 84.2523 491.395 84.2441ZM493.213 71.8052C492.562 71.7889 491.964 71.911 491.419 72.1714C490.882 72.4237 490.406 72.7573 489.991 73.1724C489.559 73.5874 489.189 74.0635 488.88 74.6006C488.571 75.1377 488.314 75.687 488.111 76.2485L496.216 76.2607L496.253 76.0654C496.351 75.5446 496.355 75.0319 496.265 74.5273C496.176 74.0146 496.001 73.5589 495.74 73.1602C495.472 72.7614 495.126 72.4399 494.703 72.1958C494.279 71.9435 493.783 71.8133 493.213 71.8052ZM510.06 84H508.619L509.669 77.9453H502.442L501.393 84H499.964L502.247 70.792H503.675L502.65 76.7002H509.876L510.902 70.792H512.342L510.06 84ZM527.504 72.0371H522.035L519.96 84H518.52L520.583 72.0371H515.321L515.517 70.792H527.699L527.504 72.0371ZM537.233 84C537.193 83.6663 537.181 83.3408 537.197 83.0234C537.221 82.6979 537.262 82.3724 537.319 82.0469C537.042 82.3398 536.745 82.6125 536.428 82.8647C536.11 83.1089 535.777 83.3205 535.427 83.4995C534.971 83.7437 534.491 83.9308 533.986 84.061C533.482 84.1912 532.961 84.2523 532.424 84.2441C531.895 84.236 531.39 84.1465 530.91 83.9756C530.43 83.7965 530.023 83.5483 529.689 83.231C529.34 82.9136 529.071 82.5311 528.884 82.0835C528.705 81.6278 528.644 81.1151 528.701 80.5454C528.758 80.0002 528.896 79.516 529.116 79.0928C529.335 78.6696 529.616 78.2993 529.958 77.9819C530.292 77.6727 530.67 77.4123 531.093 77.2007C531.516 76.9891 531.964 76.8141 532.436 76.6758C532.908 76.5456 533.388 76.452 533.876 76.395C534.373 76.3381 534.857 76.3096 535.329 76.3096H538.198L538.442 74.8203C538.507 74.332 538.474 73.9007 538.344 73.5264C538.222 73.152 538.027 72.8346 537.758 72.5742C537.49 72.3138 537.16 72.1185 536.77 71.9883C536.379 71.8499 535.952 71.7808 535.488 71.7808C535.048 71.7726 534.617 71.8255 534.194 71.9395C533.771 72.0452 533.38 72.208 533.022 72.4277C532.664 72.6556 532.351 72.9364 532.082 73.27C531.822 73.5955 531.63 73.9821 531.508 74.4297L530.08 74.4175C530.194 73.7827 530.43 73.2253 530.788 72.7451C531.154 72.2568 531.594 71.8499 532.106 71.5244C532.611 71.1989 533.164 70.9548 533.767 70.792C534.377 70.6211 534.987 70.5397 535.598 70.5479C536.241 70.5479 536.839 70.6455 537.392 70.8408C537.945 71.028 538.422 71.3047 538.82 71.6709C539.211 72.0452 539.5 72.501 539.687 73.0381C539.882 73.5671 539.939 74.1693 539.858 74.8447L538.771 81.229C538.698 81.6685 538.662 82.1079 538.662 82.5474C538.662 82.9787 538.69 83.41 538.747 83.8413L538.723 84H537.233ZM532.631 82.9502C533.128 82.9583 533.612 82.9014 534.084 82.7793C534.556 82.6572 535 82.4782 535.415 82.2422C535.813 82.0143 536.188 81.7417 536.538 81.4243C536.896 81.0988 537.213 80.7407 537.49 80.3501L538.002 77.4448L535.524 77.4326C535.109 77.4326 534.666 77.4611 534.194 77.5181C533.722 77.5669 533.266 77.6605 532.827 77.7988C532.509 77.8883 532.204 78.0023 531.911 78.1406C531.626 78.2708 531.366 78.4377 531.13 78.6411C530.878 78.8608 530.662 79.1172 530.483 79.4102C530.312 79.695 530.198 80.0286 530.141 80.4111C530.084 80.8099 530.113 81.1639 530.227 81.4731C530.34 81.7824 530.515 82.0428 530.751 82.2544C530.979 82.4741 531.256 82.645 531.582 82.7671C531.915 82.881 532.265 82.9421 532.631 82.9502ZM563.797 71.6587C564.627 71.6668 565.351 71.8377 565.97 72.1714C566.588 72.4969 567.097 72.9282 567.496 73.4653C567.894 74.0106 568.175 74.6372 568.338 75.3452C568.509 76.0532 568.549 76.7938 568.46 77.5669L568.411 77.9697C568.289 78.8079 568.049 79.6095 567.691 80.3745C567.341 81.1313 566.881 81.7987 566.312 82.3765C565.75 82.9543 565.095 83.4141 564.346 83.7559C563.597 84.0895 562.78 84.2523 561.893 84.2441C561.022 84.236 560.261 84.057 559.61 83.707C558.967 83.349 558.442 82.881 558.035 82.3032C557.628 81.7254 557.343 81.0622 557.181 80.3135C557.018 79.5566 556.985 78.7795 557.083 77.9819L557.132 77.5791L557.144 77.4814L557.266 76.688C557.364 75.9963 557.502 75.3005 557.681 74.6006C557.868 73.9007 558.1 73.2212 558.377 72.562C558.646 71.911 558.971 71.2925 559.354 70.7065C559.736 70.1125 560.175 69.5794 560.672 69.1074C561.168 68.6436 561.726 68.2489 562.344 67.9233C562.971 67.5897 563.663 67.3537 564.419 67.2153C564.786 67.1502 565.16 67.0811 565.542 67.0078C565.933 66.9264 566.295 66.8084 566.629 66.6538C566.963 66.5073 567.26 66.3079 567.52 66.0557C567.78 65.8034 567.968 65.4697 568.082 65.0547H569.314C569.209 65.6813 569.013 66.1981 568.729 66.605C568.444 67.0037 568.098 67.3293 567.691 67.5815C567.268 67.8257 566.8 68.0169 566.287 68.1553C565.774 68.2936 565.237 68.4116 564.676 68.5093C563.919 68.6313 563.243 68.8633 562.649 69.2051C562.063 69.5387 561.543 69.9456 561.087 70.4258C560.631 70.9222 560.232 71.4756 559.891 72.0859C559.549 72.6882 559.248 73.327 558.987 74.0024C559.606 73.2944 560.322 72.7248 561.136 72.2935C561.95 71.8621 562.837 71.6506 563.797 71.6587ZM563.553 72.9038C562.885 72.8957 562.267 73.0177 561.697 73.27C561.128 73.5223 560.627 73.8641 560.196 74.2954C559.764 74.7267 559.406 75.2272 559.122 75.7969C558.845 76.3665 558.654 76.9647 558.548 77.5913L558.487 77.9941C558.414 78.5882 558.422 79.1823 558.511 79.7764C558.609 80.3704 558.796 80.9035 559.073 81.3755C559.349 81.8475 559.724 82.234 560.196 82.5352C560.668 82.8363 561.246 82.9909 561.929 82.999C562.629 83.0153 563.268 82.881 563.846 82.5962C564.424 82.3114 564.928 81.9329 565.359 81.4609C565.791 80.9889 566.141 80.4478 566.409 79.8374C566.686 79.2271 566.877 78.6045 566.983 77.9697L567.032 77.5669C567.105 76.9728 567.085 76.3991 566.971 75.8457C566.865 75.2842 566.666 74.7878 566.373 74.3564C566.08 73.9251 565.697 73.5793 565.225 73.3188C564.753 73.0503 564.196 72.9119 563.553 72.9038ZM576.126 81.2656L576.358 81.8027L582.84 70.8042H584.525L575.272 86.124C575.028 86.5472 574.751 86.95 574.442 87.3325C574.133 87.7231 573.795 88.069 573.429 88.3701C573.054 88.6631 572.643 88.8991 572.196 89.0781C571.756 89.2572 571.272 89.3467 570.743 89.3467C570.532 89.3467 570.32 89.3304 570.108 89.2979C569.905 89.2653 569.697 89.2287 569.486 89.188L569.767 87.9429C569.938 87.9673 570.104 87.9917 570.267 88.0161C570.438 88.0405 570.605 88.0527 570.768 88.0527C571.142 88.0446 571.492 87.9673 571.817 87.8208C572.143 87.6825 572.44 87.4993 572.708 87.2715C572.977 87.0436 573.221 86.7832 573.441 86.4902C573.669 86.1973 573.876 85.9043 574.063 85.6113L575.333 83.585L571.805 70.7798H573.355L576.126 81.2656ZM585.062 82.7671C585.437 82.5555 585.775 82.2788 586.076 81.937C586.385 81.5952 586.662 81.2168 586.906 80.8018C587.134 80.403 587.337 79.9798 587.516 79.5322C587.695 79.0846 587.854 78.6289 587.992 78.165C588.122 77.7093 588.24 77.2576 588.346 76.8101C588.452 76.3625 588.546 75.9474 588.627 75.5649L589.665 70.792H597.233L595.17 82.7549H596.5L595.512 87.8818H594.181L594.853 84H585.246L584.574 87.8818H583.329L584.098 82.7549L585.062 82.7671ZM590.067 75.5649C589.929 76.2078 589.774 76.8507 589.604 77.4937C589.441 78.1366 589.241 78.7673 589.005 79.3857C588.761 80.0042 588.48 80.5983 588.163 81.168C587.846 81.7376 587.463 82.2747 587.016 82.7793L593.742 82.7549L595.573 72.1592H590.8L590.067 75.5649ZM604.777 84.2441C603.866 84.236 603.068 84.0366 602.385 83.646C601.709 83.2554 601.164 82.7467 600.749 82.1201C600.358 81.5423 600.078 80.875 599.907 80.1182C599.744 79.3613 599.711 78.5841 599.809 77.7866L599.882 77.2495C599.964 76.6961 600.102 76.1468 600.297 75.6016C600.493 75.0482 600.741 74.5192 601.042 74.0146C601.343 73.5182 601.689 73.0584 602.08 72.6353C602.47 72.2039 602.902 71.8337 603.374 71.5244C603.846 71.2152 604.354 70.9751 604.899 70.8042C605.453 70.6252 606.035 70.5397 606.645 70.5479C607.491 70.556 608.212 70.735 608.806 71.085C609.4 71.4268 609.88 71.8825 610.246 72.4521C610.604 73.0137 610.844 73.6566 610.966 74.3809C611.088 75.1051 611.101 75.8457 611.003 76.6025L610.856 77.4937H601.298C601.16 78.2342 601.136 78.9219 601.225 79.5566C601.315 80.1914 601.53 80.7855 601.872 81.3389C602.165 81.8271 602.564 82.2218 603.068 82.5229C603.581 82.8241 604.179 82.9827 604.863 82.999C605.668 83.0153 606.413 82.8607 607.097 82.5352C607.78 82.2096 608.403 81.7702 608.964 81.2168L609.819 81.937C609.2 82.6857 608.448 83.2594 607.561 83.6582C606.682 84.057 605.754 84.2523 604.777 84.2441ZM606.596 71.8052C605.945 71.7889 605.347 71.911 604.802 72.1714C604.265 72.4237 603.789 72.7573 603.374 73.1724C602.942 73.5874 602.572 74.0635 602.263 74.6006C601.953 75.1377 601.697 75.687 601.494 76.2485L609.599 76.2607L609.636 76.0654C609.733 75.5446 609.737 75.0319 609.648 74.5273C609.558 74.0146 609.383 73.5589 609.123 73.1602C608.854 72.7614 608.509 72.4399 608.085 72.1958C607.662 71.9435 607.166 71.8133 606.596 71.8052ZM626.714 72.0371H621.245L619.17 84H617.729L619.792 72.0371H614.531L614.727 70.792H626.909L626.714 72.0371ZM648.26 84H646.832L649.579 68.1431L644.439 70.2061L644.684 68.7778L651.056 66.2388L651.3 66.2266L648.26 84ZM667.609 76.9565C667.511 77.5425 667.377 78.1325 667.206 78.7266C667.035 79.3125 666.819 79.874 666.559 80.4111C666.266 81.0052 665.916 81.5586 665.509 82.0713C665.111 82.5758 664.647 82.999 664.118 83.3408C663.694 83.6338 663.227 83.8576 662.714 84.0122C662.201 84.175 661.644 84.2523 661.042 84.2441C660.382 84.236 659.805 84.1261 659.308 83.9146C658.82 83.6948 658.405 83.4059 658.063 83.0479C657.713 82.6979 657.432 82.2869 657.221 81.8149C657.017 81.3348 656.867 80.8221 656.769 80.2769C656.671 79.7479 656.623 79.2026 656.623 78.6411C656.623 78.0715 656.663 77.514 656.745 76.9688L657.355 73.2578C657.444 72.68 657.575 72.0981 657.746 71.5122C657.925 70.9181 658.148 70.3485 658.417 69.8032C658.677 69.2661 658.983 68.7616 659.333 68.2896C659.691 67.8175 660.102 67.4066 660.565 67.0566C661.013 66.7148 661.518 66.4463 662.079 66.251C662.641 66.0557 663.259 65.9621 663.935 65.9702C664.708 65.9784 665.367 66.1289 665.912 66.4219C666.465 66.7067 666.913 67.0851 667.255 67.5571C667.564 67.9803 667.804 68.4645 667.975 69.0098C668.146 69.555 668.256 70.1125 668.305 70.6821C668.345 71.089 668.358 71.5203 668.341 71.9761C668.325 72.4237 668.284 72.8509 668.219 73.2578L667.609 76.9565ZM663.886 67.2275C663.349 67.2194 662.86 67.2967 662.421 67.4595C661.981 67.6141 661.587 67.8338 661.237 68.1187C660.895 68.4035 660.586 68.7371 660.309 69.1196C660.041 69.494 659.809 69.9009 659.613 70.3403C659.426 70.7716 659.267 71.2152 659.137 71.6709C659.007 72.1185 658.905 72.5661 658.832 73.0137L658.283 76.2607C658.218 76.5944 658.173 76.8955 658.148 77.1641C658.132 77.4245 658.116 77.6971 658.1 77.9819L666.974 70.8774C666.958 70.3892 666.889 69.9253 666.767 69.4858C666.645 69.0464 666.461 68.6598 666.217 68.3262C665.965 67.9925 665.648 67.728 665.265 67.5327C664.883 67.3374 664.423 67.2357 663.886 67.2275ZM661.09 82.999C661.595 83.0072 662.055 82.9421 662.47 82.8037C662.885 82.6572 663.263 82.4538 663.605 82.1934C663.987 81.9085 664.325 81.5627 664.618 81.1558C664.911 80.7407 665.159 80.3013 665.363 79.8374C665.55 79.4142 665.705 78.9788 665.827 78.5312C665.957 78.0755 666.059 77.632 666.132 77.2007L666.632 74.271C666.689 73.9455 666.734 73.6403 666.767 73.3555C666.799 73.0706 666.832 72.7492 666.864 72.3911L658.002 79.459C658.035 79.9391 658.112 80.3908 658.234 80.814C658.364 81.2371 658.555 81.6115 658.808 81.937C659.052 82.2544 659.361 82.5107 659.735 82.7061C660.118 82.8932 660.569 82.9909 661.09 82.999ZM681.782 76.9565C681.684 77.5425 681.55 78.1325 681.379 78.7266C681.208 79.3125 680.992 79.874 680.732 80.4111C680.439 81.0052 680.089 81.5586 679.682 82.0713C679.283 82.5758 678.819 82.999 678.291 83.3408C677.867 83.6338 677.399 83.8576 676.887 84.0122C676.374 84.175 675.817 84.2523 675.214 84.2441C674.555 84.236 673.977 84.1261 673.481 83.9146C672.993 83.6948 672.578 83.4059 672.236 83.0479C671.886 82.6979 671.605 82.2869 671.394 81.8149C671.19 81.3348 671.04 80.8221 670.942 80.2769C670.844 79.7479 670.795 79.2026 670.795 78.6411C670.795 78.0715 670.836 77.514 670.917 76.9688L671.528 73.2578C671.617 72.68 671.748 72.0981 671.918 71.5122C672.097 70.9181 672.321 70.3485 672.59 69.8032C672.85 69.2661 673.155 68.7616 673.505 68.2896C673.863 67.8175 674.274 67.4066 674.738 67.0566C675.186 66.7148 675.69 66.4463 676.252 66.251C676.813 66.0557 677.432 65.9621 678.107 65.9702C678.881 65.9784 679.54 66.1289 680.085 66.4219C680.638 66.7067 681.086 67.0851 681.428 67.5571C681.737 67.9803 681.977 68.4645 682.148 69.0098C682.319 69.555 682.429 70.1125 682.478 70.6821C682.518 71.089 682.53 71.5203 682.514 71.9761C682.498 72.4237 682.457 72.8509 682.392 73.2578L681.782 76.9565ZM678.059 67.2275C677.521 67.2194 677.033 67.2967 676.594 67.4595C676.154 67.6141 675.76 67.8338 675.41 68.1187C675.068 68.4035 674.759 68.7371 674.482 69.1196C674.213 69.494 673.981 69.9009 673.786 70.3403C673.599 70.7716 673.44 71.2152 673.31 71.6709C673.18 72.1185 673.078 72.5661 673.005 73.0137L672.456 76.2607C672.39 76.5944 672.346 76.8955 672.321 77.1641C672.305 77.4245 672.289 77.6971 672.272 77.9819L681.147 70.8774C681.131 70.3892 681.062 69.9253 680.939 69.4858C680.817 69.0464 680.634 68.6598 680.39 68.3262C680.138 67.9925 679.82 67.728 679.438 67.5327C679.056 67.3374 678.596 67.2357 678.059 67.2275ZM675.263 82.999C675.768 83.0072 676.228 82.9421 676.643 82.8037C677.058 82.6572 677.436 82.4538 677.778 82.1934C678.16 81.9085 678.498 81.5627 678.791 81.1558C679.084 80.7407 679.332 80.3013 679.536 79.8374C679.723 79.4142 679.877 78.9788 680 78.5312C680.13 78.0755 680.231 77.632 680.305 77.2007L680.805 74.271C680.862 73.9455 680.907 73.6403 680.939 73.3555C680.972 73.0706 681.005 72.7492 681.037 72.3911L672.175 79.459C672.207 79.9391 672.285 80.3908 672.407 80.814C672.537 81.2371 672.728 81.6115 672.98 81.937C673.225 82.2544 673.534 82.5107 673.908 82.7061C674.291 82.8932 674.742 82.9909 675.263 82.999ZM684.968 69.5469C685.042 69.0911 685.172 68.6517 685.359 68.2285C685.546 67.7972 685.79 67.4106 686.091 67.0688C686.384 66.7352 686.73 66.4666 687.129 66.2632C687.536 66.0597 687.987 65.9621 688.484 65.9702C688.972 65.9702 689.383 66.0801 689.717 66.2998C690.059 66.5114 690.335 66.784 690.547 67.1177C690.75 67.4595 690.889 67.842 690.962 68.2651C691.035 68.6883 691.051 69.1115 691.011 69.5347L690.889 70.4746C690.824 70.9222 690.693 71.3617 690.498 71.793C690.311 72.2161 690.071 72.5946 689.778 72.9282C689.485 73.2619 689.135 73.5304 688.728 73.7339C688.329 73.9373 687.886 74.035 687.397 74.0269C686.909 74.0187 686.494 73.9089 686.152 73.6973C685.811 73.4857 685.534 73.2131 685.322 72.8794C685.119 72.5457 684.976 72.1714 684.895 71.7563C684.822 71.3332 684.806 70.9059 684.846 70.4746L684.968 69.5469ZM686.018 70.4868C685.986 70.7554 685.981 71.0361 686.006 71.3291C686.03 71.6139 686.095 71.8743 686.201 72.1104C686.307 72.3545 686.462 72.5579 686.665 72.7207C686.877 72.8753 687.149 72.9526 687.483 72.9526C687.817 72.9526 688.11 72.8794 688.362 72.7329C688.622 72.5783 688.842 72.383 689.021 72.147C689.208 71.911 689.359 71.6465 689.473 71.3535C689.587 71.0605 689.668 70.7716 689.717 70.4868L689.851 69.5347C689.884 69.2661 689.888 68.9854 689.863 68.6924C689.847 68.3994 689.786 68.1309 689.68 67.8867C689.574 67.6426 689.42 67.4391 689.216 67.2764C689.013 67.1136 688.744 67.0322 688.411 67.0322C688.069 67.0322 687.768 67.1095 687.507 67.2642C687.255 67.4106 687.035 67.6019 686.848 67.8379C686.661 68.082 686.51 68.3547 686.396 68.6558C686.283 68.9487 686.201 69.2417 686.152 69.5347L686.018 70.4868ZM690.657 79.7642C690.722 79.3166 690.848 78.8771 691.035 78.4458C691.23 78.0145 691.475 77.632 691.768 77.2983C692.069 76.9647 692.419 76.6961 692.817 76.4927C693.224 76.2892 693.676 76.1916 694.172 76.1997C694.661 76.2078 695.072 76.3177 695.405 76.5293C695.747 76.7327 696.024 77.0054 696.235 77.3472C696.439 77.6808 696.577 78.0592 696.65 78.4824C696.732 78.9056 696.752 79.3288 696.711 79.752L696.589 80.7041C696.516 81.1517 696.382 81.5911 696.187 82.0225C695.999 82.4538 695.763 82.8322 695.479 83.1577C695.177 83.4914 694.823 83.7599 694.417 83.9634C694.018 84.1668 693.57 84.2645 693.074 84.2563C692.594 84.2563 692.179 84.1506 691.829 83.939C691.487 83.7274 691.214 83.4507 691.011 83.1089C690.807 82.7752 690.665 82.4009 690.583 81.9858C690.502 81.5627 690.486 81.1354 690.535 80.7041L690.657 79.7642ZM691.694 80.7163C691.662 80.9849 691.658 81.2656 691.682 81.5586C691.707 81.8434 691.776 82.1079 691.89 82.3521C691.995 82.5962 692.15 82.7996 692.354 82.9624C692.557 83.117 692.826 83.1984 693.159 83.2065C693.493 83.2065 693.79 83.1333 694.05 82.9868C694.311 82.8322 694.53 82.6328 694.709 82.3887C694.897 82.1527 695.047 81.8882 695.161 81.5952C695.275 81.2941 695.356 81.0011 695.405 80.7163L695.54 79.752C695.572 79.4834 695.576 79.2026 695.552 78.9097C695.535 78.6167 695.474 78.3522 695.369 78.1162C695.263 77.8721 695.108 77.6727 694.905 77.5181C694.701 77.3553 694.429 77.2699 694.087 77.2617C693.753 77.2617 693.456 77.339 693.196 77.4937C692.935 77.6401 692.716 77.8314 692.537 78.0674C692.349 78.3034 692.199 78.5719 692.085 78.873C691.971 79.166 691.886 79.459 691.829 79.752L691.694 80.7163ZM686.58 82.0469L685.713 81.4487L695.027 68.2163L695.906 68.8145L686.58 82.0469ZM713.058 77.2495C713.188 76.3706 713.44 75.5202 713.814 74.6982C714.197 73.8763 714.685 73.152 715.279 72.5254C715.849 71.9313 716.512 71.4512 717.269 71.085C718.026 70.7188 718.868 70.5397 719.796 70.5479C720.423 70.556 720.988 70.6577 721.493 70.853C721.997 71.0402 722.433 71.2965 722.799 71.6221C723.132 71.9232 723.421 72.2731 723.666 72.6719C723.91 73.0706 724.105 73.4979 724.251 73.9536C724.398 74.45 724.492 74.9749 724.532 75.5283C724.581 76.0817 724.569 76.6351 724.496 77.1885L724.435 77.5913C724.304 78.4458 724.052 79.2759 723.678 80.0815C723.312 80.8791 722.844 81.5871 722.274 82.2056C721.696 82.8322 721.021 83.3327 720.248 83.707C719.483 84.0732 718.632 84.2523 717.696 84.2441C717.045 84.236 716.459 84.1302 715.938 83.9268C715.426 83.7152 714.982 83.4344 714.608 83.0845C714.299 82.7915 714.03 82.4578 713.802 82.0835C713.574 81.7091 713.395 81.3104 713.265 80.8872C713.102 80.3908 712.997 79.8659 712.948 79.3125C712.907 78.7591 712.923 78.2017 712.997 77.6401L713.058 77.2495ZM714.425 77.6401C714.335 78.2586 714.327 78.8975 714.4 79.5566C714.474 80.2077 714.653 80.7977 714.938 81.3267C715.19 81.8149 715.548 82.2137 716.012 82.5229C716.484 82.8322 717.062 82.995 717.745 83.0112C718.486 83.0194 719.153 82.8647 719.747 82.5474C720.349 82.23 720.874 81.8109 721.322 81.29C721.761 80.7773 722.127 80.1833 722.42 79.5078C722.713 78.8242 722.909 78.1854 723.006 77.5913L723.067 77.1885C723.157 76.5374 723.157 75.866 723.067 75.1743C722.978 74.4826 722.766 73.8722 722.433 73.3433C722.164 72.8957 721.81 72.5295 721.371 72.2446C720.931 71.9598 720.39 71.8092 719.747 71.793C719.007 71.7848 718.335 71.9435 717.733 72.269C717.131 72.5864 716.61 73.0055 716.17 73.5264C715.731 74.0472 715.369 74.6331 715.084 75.2842C714.799 75.9352 714.6 76.5903 714.486 77.2495L714.425 77.6401ZM740.097 72.0371H734.628L732.553 84H731.112L733.175 72.0371H727.914L728.109 70.792H740.292L740.097 72.0371ZM758.152 70.792L756.089 82.7549H759.653L761.729 70.792H763.132L761.057 82.7549H764.585L766.672 70.792H768.064L765.781 84H754.478L756.76 70.792H758.152ZM780.137 70.8042L781.626 70.792L779.344 84H777.903L779.771 73.2212L770.726 84H769.261L771.531 70.792H772.959L771.067 81.6196L780.137 70.8042ZM794.969 77.4937C794.888 78.0063 794.77 78.5272 794.615 79.0562C794.469 79.577 794.278 80.0775 794.042 80.5576C793.789 81.111 793.476 81.6278 793.102 82.1079C792.735 82.5881 792.316 82.9909 791.844 83.3164C791.429 83.6094 790.973 83.8372 790.477 84C789.989 84.1709 789.456 84.2523 788.878 84.2441C788.471 84.2441 788.076 84.1953 787.694 84.0977C787.311 84 786.953 83.8576 786.62 83.6704C786.351 83.5158 786.099 83.3327 785.863 83.1211C785.635 82.9095 785.436 82.6654 785.265 82.3887L784.056 89.0781H782.64L785.802 70.792H787.12L786.791 72.6108C787.027 72.3341 787.283 72.0778 787.56 71.8418C787.836 71.5977 788.129 71.3901 788.438 71.2192C788.821 70.9995 789.224 70.8327 789.647 70.7188C790.07 70.6048 790.514 70.5479 790.978 70.5479C791.58 70.556 792.109 70.6577 792.564 70.853C793.02 71.0483 793.407 71.3088 793.724 71.6343C794.042 71.9679 794.298 72.3545 794.493 72.7939C794.697 73.2334 794.847 73.6973 794.945 74.1855C795.034 74.682 795.079 75.1906 795.079 75.7114C795.087 76.2323 795.059 76.7409 794.994 77.2373L794.969 77.4937ZM793.565 77.2373C793.622 76.8141 793.651 76.3747 793.651 75.9189C793.659 75.4551 793.622 75.0075 793.541 74.5762C793.468 74.21 793.366 73.8722 793.236 73.563C793.106 73.2456 792.935 72.9648 792.723 72.7207C792.487 72.4521 792.194 72.2406 791.844 72.0859C791.494 71.9232 791.079 71.8377 790.599 71.8296C790.152 71.8296 789.724 71.8988 789.317 72.0371C788.919 72.1673 788.548 72.3545 788.207 72.5986C787.889 72.8184 787.596 73.0747 787.328 73.3677C787.067 73.6606 786.835 73.974 786.632 74.3076L785.497 80.7651C785.602 81.1232 785.753 81.4406 785.948 81.7173C786.152 81.9858 786.388 82.2137 786.656 82.4009C786.925 82.5962 787.222 82.7427 787.547 82.8403C787.881 82.938 788.235 82.9909 788.609 82.999C789.098 83.0072 789.545 82.938 789.952 82.7915C790.367 82.645 790.742 82.4416 791.075 82.1812C791.441 81.9126 791.763 81.5911 792.04 81.2168C792.316 80.8343 792.556 80.4315 792.76 80.0083C792.947 79.6095 793.106 79.1945 793.236 78.7632C793.366 78.3319 793.464 77.9087 793.529 77.4937L793.565 77.2373ZM808.483 70.8042L809.972 70.792L807.689 84H806.249L808.117 73.2212L799.071 84H797.606L799.877 70.792H801.305L799.413 81.6196L808.483 70.8042ZM821.862 84H820.422L821.472 77.9453H814.245L813.195 84H811.767L814.05 70.792H815.478L814.453 76.7002H821.679L822.705 70.792H824.145L821.862 84ZM828.43 75.8213H830.469C831.038 75.8457 831.539 75.9637 831.97 76.1753C832.41 76.3869 832.772 76.6717 833.057 77.0298C833.341 77.396 833.545 77.8192 833.667 78.2993C833.789 78.7713 833.822 79.284 833.765 79.8374C833.691 80.4315 833.529 80.9849 833.276 81.4976C833.032 82.0021 832.711 82.4375 832.312 82.8037C831.921 83.1781 831.462 83.471 830.933 83.6826C830.412 83.8861 829.85 83.9919 829.248 84H825.647L827.942 70.792H829.297L828.43 75.8213ZM836.353 84H834.961L837.244 70.792H838.647L836.353 84ZM828.259 77.0542L827.258 82.7549H829.26C829.7 82.7386 830.094 82.6491 830.444 82.4863C830.802 82.3236 831.116 82.1038 831.384 81.8271C831.62 81.5749 831.816 81.2819 831.97 80.9482C832.133 80.6146 832.247 80.2565 832.312 79.874C832.369 79.5241 832.377 79.1864 832.336 78.8608C832.296 78.5272 832.202 78.2301 832.056 77.9697C831.901 77.7093 831.689 77.4977 831.421 77.335C831.152 77.1722 830.827 77.0827 830.444 77.0664L828.259 77.0542ZM865.833 77.4937C865.752 78.0063 865.634 78.5272 865.479 79.0562C865.333 79.577 865.142 80.0775 864.906 80.5576C864.653 81.111 864.34 81.6278 863.966 82.1079C863.6 82.5881 863.181 82.9909 862.708 83.3164C862.293 83.6094 861.838 83.8372 861.341 84C860.853 84.1709 860.32 84.2523 859.742 84.2441C859.335 84.2441 858.941 84.1953 858.558 84.0977C858.176 84 857.818 83.8576 857.484 83.6704C857.215 83.5158 856.963 83.3327 856.727 83.1211C856.499 82.9095 856.3 82.6654 856.129 82.3887L854.92 89.0781H853.504L856.666 70.792H857.984L857.655 72.6108C857.891 72.3341 858.147 72.0778 858.424 71.8418C858.701 71.5977 858.993 71.3901 859.303 71.2192C859.685 70.9995 860.088 70.8327 860.511 70.7188C860.934 70.6048 861.378 70.5479 861.842 70.5479C862.444 70.556 862.973 70.6577 863.429 70.853C863.884 71.0483 864.271 71.3088 864.588 71.6343C864.906 71.9679 865.162 72.3545 865.357 72.7939C865.561 73.2334 865.711 73.6973 865.809 74.1855C865.899 74.682 865.943 75.1906 865.943 75.7114C865.951 76.2323 865.923 76.7409 865.858 77.2373L865.833 77.4937ZM864.43 77.2373C864.487 76.8141 864.515 76.3747 864.515 75.9189C864.523 75.4551 864.487 75.0075 864.405 74.5762C864.332 74.21 864.23 73.8722 864.1 73.563C863.97 73.2456 863.799 72.9648 863.587 72.7207C863.351 72.4521 863.058 72.2406 862.708 72.0859C862.359 71.9232 861.944 71.8377 861.463 71.8296C861.016 71.8296 860.589 71.8988 860.182 72.0371C859.783 72.1673 859.413 72.3545 859.071 72.5986C858.753 72.8184 858.46 73.0747 858.192 73.3677C857.931 73.6606 857.7 73.974 857.496 74.3076L856.361 80.7651C856.467 81.1232 856.617 81.4406 856.812 81.7173C857.016 81.9858 857.252 82.2137 857.521 82.4009C857.789 82.5962 858.086 82.7427 858.412 82.8403C858.745 82.938 859.099 82.9909 859.474 82.999C859.962 83.0072 860.41 82.938 860.816 82.7915C861.231 82.645 861.606 82.4416 861.939 82.1812C862.306 81.9126 862.627 81.5911 862.904 81.2168C863.181 80.8343 863.421 80.4315 863.624 80.0083C863.811 79.6095 863.97 79.1945 864.1 78.7632C864.23 78.3319 864.328 77.9087 864.393 77.4937L864.43 77.2373ZM868.959 77.2495C869.089 76.3706 869.341 75.5202 869.716 74.6982C870.098 73.8763 870.587 73.152 871.181 72.5254C871.75 71.9313 872.414 71.4512 873.17 71.085C873.927 70.7188 874.77 70.5397 875.697 70.5479C876.324 70.556 876.889 70.6577 877.394 70.853C877.899 71.0402 878.334 71.2965 878.7 71.6221C879.034 71.9232 879.323 72.2731 879.567 72.6719C879.811 73.0706 880.006 73.4979 880.153 73.9536C880.299 74.45 880.393 74.9749 880.434 75.5283C880.482 76.0817 880.47 76.6351 880.397 77.1885L880.336 77.5913C880.206 78.4458 879.953 79.2759 879.579 80.0815C879.213 80.8791 878.745 81.5871 878.175 82.2056C877.597 82.8322 876.922 83.3327 876.149 83.707C875.384 84.0732 874.534 84.2523 873.598 84.2441C872.947 84.236 872.361 84.1302 871.84 83.9268C871.327 83.7152 870.884 83.4344 870.509 83.0845C870.2 82.7915 869.931 82.4578 869.704 82.0835C869.476 81.7091 869.297 81.3104 869.167 80.8872C869.004 80.3908 868.898 79.8659 868.849 79.3125C868.808 78.7591 868.825 78.2017 868.898 77.6401L868.959 77.2495ZM870.326 77.6401C870.237 78.2586 870.229 78.8975 870.302 79.5566C870.375 80.2077 870.554 80.7977 870.839 81.3267C871.091 81.8149 871.449 82.2137 871.913 82.5229C872.385 82.8322 872.963 82.995 873.646 83.0112C874.387 83.0194 875.054 82.8647 875.648 82.5474C876.251 82.23 876.776 81.8109 877.223 81.29C877.663 80.7773 878.029 80.1833 878.322 79.5078C878.615 78.8242 878.81 78.1854 878.908 77.5913L878.969 77.1885C879.058 76.5374 879.058 75.866 878.969 75.1743C878.879 74.4826 878.668 73.8722 878.334 73.3433C878.065 72.8957 877.711 72.5295 877.272 72.2446C876.833 71.9598 876.291 71.8092 875.648 71.793C874.908 71.7848 874.236 71.9435 873.634 72.269C873.032 72.5864 872.511 73.0055 872.072 73.5264C871.632 74.0472 871.27 74.6331 870.985 75.2842C870.701 75.9352 870.501 76.5903 870.387 77.2495L870.326 77.6401ZM882.692 82.7671C883.067 82.5555 883.404 82.2788 883.706 81.937C884.015 81.5952 884.292 81.2168 884.536 80.8018C884.764 80.403 884.967 79.9798 885.146 79.5322C885.325 79.0846 885.484 78.6289 885.622 78.165C885.752 77.7093 885.87 77.2576 885.976 76.8101C886.082 76.3625 886.175 75.9474 886.257 75.5649L887.294 70.792H894.863L892.8 82.7549H894.13L893.142 87.8818H891.811L892.482 84H882.875L882.204 87.8818H880.959L881.728 82.7549L882.692 82.7671ZM887.697 75.5649C887.559 76.2078 887.404 76.8507 887.233 77.4937C887.071 78.1366 886.871 78.7673 886.635 79.3857C886.391 80.0042 886.11 80.5983 885.793 81.168C885.476 81.7376 885.093 82.2747 884.646 82.7793L891.372 82.7549L893.203 72.1592H888.43L887.697 75.5649ZM907.693 70.8042L909.182 70.792L906.899 84H905.459L907.327 73.2212L898.281 84H896.816L899.087 70.792H900.515L898.623 81.6196L907.693 70.8042ZM924.344 72.0371H918.875L916.8 84H915.359L917.422 72.0371H912.161L912.356 70.792H924.539L924.344 72.0371ZM930.753 84.2441C929.841 84.236 929.044 84.0366 928.36 83.646C927.685 83.2554 927.14 82.7467 926.725 82.1201C926.334 81.5423 926.053 80.875 925.882 80.1182C925.72 79.3613 925.687 78.5841 925.785 77.7866L925.858 77.2495C925.939 76.6961 926.078 76.1468 926.273 75.6016C926.468 75.0482 926.716 74.5192 927.018 74.0146C927.319 73.5182 927.665 73.0584 928.055 72.6353C928.446 72.2039 928.877 71.8337 929.349 71.5244C929.821 71.2152 930.33 70.9751 930.875 70.8042C931.428 70.6252 932.01 70.5397 932.621 70.5479C933.467 70.556 934.187 70.735 934.781 71.085C935.375 71.4268 935.855 71.8825 936.222 72.4521C936.58 73.0137 936.82 73.6566 936.942 74.3809C937.064 75.1051 937.076 75.8457 936.979 76.6025L936.832 77.4937H927.274C927.136 78.2342 927.111 78.9219 927.201 79.5566C927.29 80.1914 927.506 80.7855 927.848 81.3389C928.141 81.8271 928.539 82.2218 929.044 82.5229C929.557 82.8241 930.155 82.9827 930.838 82.999C931.644 83.0153 932.389 82.8607 933.072 82.5352C933.756 82.2096 934.378 81.7702 934.94 81.2168L935.794 81.937C935.176 82.6857 934.423 83.2594 933.536 83.6582C932.657 84.057 931.729 84.2523 930.753 84.2441ZM932.572 71.8052C931.921 71.7889 931.323 71.911 930.777 72.1714C930.24 72.4237 929.764 72.7573 929.349 73.1724C928.918 73.5874 928.548 74.0635 928.238 74.6006C927.929 75.1377 927.673 75.687 927.469 76.2485L935.575 76.2607L935.611 76.0654C935.709 75.5446 935.713 75.0319 935.624 74.5273C935.534 74.0146 935.359 73.5589 935.099 73.1602C934.83 72.7614 934.484 72.4399 934.061 72.1958C933.638 71.9435 933.141 71.8133 932.572 71.8052ZM951.603 70.792L949.308 84H947.868L949.931 72.0615H944.462L943.559 76.627C943.469 77.1234 943.367 77.6483 943.253 78.2017C943.148 78.755 943.013 79.3003 942.851 79.8374C942.68 80.3826 942.472 80.9035 942.228 81.3999C941.992 81.8963 941.699 82.3358 941.349 82.7183C941.007 83.1007 940.596 83.41 940.116 83.646C939.644 83.8739 939.091 83.9919 938.456 84H937.895L938.078 82.6816H938.505C938.985 82.6654 939.396 82.5555 939.738 82.3521C940.088 82.1405 940.385 81.8678 940.629 81.5342C940.873 81.2087 941.076 80.8384 941.239 80.4233C941.402 80.0002 941.54 79.5648 941.654 79.1172C941.768 78.6777 941.858 78.2424 941.923 77.811C941.996 77.3716 942.065 76.9769 942.13 76.627L943.253 70.792H951.603ZM956.34 75.8091L960.38 75.8213C960.974 75.8376 961.544 75.9312 962.089 76.1021C962.635 76.2729 963.107 76.5252 963.505 76.8589C963.904 77.2007 964.209 77.6198 964.421 78.1162C964.632 78.6045 964.702 79.1782 964.628 79.8374C964.555 80.5291 964.348 81.1354 964.006 81.6562C963.672 82.1689 963.257 82.6003 962.761 82.9502C962.248 83.292 961.682 83.5524 961.064 83.7314C960.445 83.9105 959.815 84 959.172 84H953.496L955.778 70.792H957.207L956.34 75.8091ZM956.132 77.0542L955.131 82.7549H959.196C959.644 82.7549 960.091 82.6938 960.539 82.5718C960.987 82.4497 961.394 82.2666 961.76 82.0225C962.126 81.7865 962.435 81.4935 962.688 81.1436C962.948 80.7855 963.119 80.3623 963.2 79.874C963.273 79.4102 963.245 79.0073 963.115 78.6655C962.985 78.3156 962.785 78.0226 962.517 77.7866C962.248 77.5588 961.923 77.3879 961.54 77.2739C961.166 77.1519 960.775 77.0827 960.368 77.0664L956.132 77.0542ZM973.052 83.0112C973.54 83.0112 974.012 82.9421 974.468 82.8037C974.924 82.6572 975.339 82.4456 975.713 82.1689C976.079 81.9085 976.396 81.5871 976.665 81.2046C976.934 80.8221 977.137 80.3989 977.275 79.9351L978.643 79.9229C978.512 80.5739 978.268 81.168 977.91 81.7051C977.552 82.2422 977.121 82.6938 976.616 83.0601C976.104 83.4425 975.538 83.7396 974.919 83.9512C974.301 84.1546 973.666 84.2523 973.015 84.2441C972.397 84.2441 971.843 84.1546 971.355 83.9756C970.875 83.7884 970.456 83.5361 970.098 83.2188C969.715 82.8932 969.398 82.5067 969.146 82.0591C968.901 81.6115 968.714 81.1232 968.584 80.5942C968.47 80.1385 968.401 79.6624 968.376 79.166C968.36 78.6696 968.385 78.1691 968.45 77.6646L968.523 77.1519C968.653 76.2974 968.897 75.4673 969.255 74.6616C969.622 73.8478 970.09 73.1357 970.659 72.5254C971.204 71.9232 971.851 71.443 972.6 71.085C973.357 70.7188 974.195 70.5397 975.115 70.5479C975.798 70.556 976.413 70.6821 976.958 70.9263C977.511 71.1623 977.983 71.4837 978.374 71.8906C978.757 72.3138 979.045 72.8102 979.241 73.3799C979.436 73.9495 979.517 74.5721 979.485 75.2476L978.13 75.2354C978.154 74.7552 978.101 74.3076 977.971 73.8926C977.849 73.4775 977.658 73.1113 977.397 72.7939C977.129 72.4928 976.795 72.2528 976.396 72.0737C976.006 71.8947 975.562 71.8011 975.066 71.793C974.309 71.7848 973.638 71.9395 973.052 72.2568C972.474 72.5742 971.973 72.9771 971.55 73.4653C971.135 73.978 970.793 74.5558 970.525 75.1987C970.256 75.8416 970.065 76.4927 969.951 77.1519L969.878 77.6646C969.821 78.0633 969.788 78.4743 969.78 78.8975C969.78 79.3125 969.821 79.7153 969.902 80.106C969.967 80.4966 970.077 80.8669 970.232 81.2168C970.387 81.5667 970.594 81.8719 970.854 82.1323C971.107 82.3927 971.412 82.6043 971.77 82.7671C972.136 82.9217 972.563 83.0031 973.052 83.0112ZM986.919 77.9575H984.527L983.477 84H982.037L984.319 70.792H985.76L984.747 76.6392H986.968L993.121 70.792L995.086 70.8042L988.201 77.2861L993.279 84H991.521L986.919 77.9575ZM996.515 77.2495C996.645 76.3706 996.897 75.5202 997.271 74.6982C997.654 73.8763 998.142 73.152 998.736 72.5254C999.306 71.9313 999.969 71.4512 1000.73 71.085C1001.48 70.7188 1002.33 70.5397 1003.25 70.5479C1003.88 70.556 1004.45 70.6577 1004.95 70.853C1005.45 71.0402 1005.89 71.2965 1006.26 71.6221C1006.59 71.9232 1006.88 72.2731 1007.12 72.6719C1007.37 73.0706 1007.56 73.4979 1007.71 73.9536C1007.85 74.45 1007.95 74.9749 1007.99 75.5283C1008.04 76.0817 1008.03 76.6351 1007.95 77.1885L1007.89 77.5913C1007.76 78.4458 1007.51 79.2759 1007.13 80.0815C1006.77 80.8791 1006.3 81.5871 1005.73 82.2056C1005.15 82.8322 1004.48 83.3327 1003.7 83.707C1002.94 84.0732 1002.09 84.2523 1001.15 84.2441C1000.5 84.236 999.916 84.1302 999.396 83.9268C998.883 83.7152 998.439 83.4344 998.065 83.0845C997.756 82.7915 997.487 82.4578 997.259 82.0835C997.031 81.7091 996.852 81.3104 996.722 80.8872C996.559 80.3908 996.454 79.8659 996.405 79.3125C996.364 78.7591 996.38 78.2017 996.454 77.6401L996.515 77.2495ZM997.882 77.6401C997.792 78.2586 997.784 78.8975 997.857 79.5566C997.931 80.2077 998.11 80.7977 998.395 81.3267C998.647 81.8149 999.005 82.2137 999.469 82.5229C999.941 82.8322 1000.52 82.995 1001.2 83.0112C1001.94 83.0194 1002.61 82.8647 1003.2 82.5474C1003.81 82.23 1004.33 81.8109 1004.78 81.29C1005.22 80.7773 1005.58 80.1833 1005.88 79.5078C1006.17 78.8242 1006.37 78.1854 1006.46 77.5913L1006.52 77.1885C1006.61 76.5374 1006.61 75.866 1006.52 75.1743C1006.43 74.4826 1006.22 73.8722 1005.89 73.3433C1005.62 72.8957 1005.27 72.5295 1004.83 72.2446C1004.39 71.9598 1003.85 71.8092 1003.2 71.793C1002.46 71.7848 1001.79 71.9435 1001.19 72.269C1000.59 72.5864 1000.07 73.0055 999.627 73.5264C999.188 74.0472 998.826 74.6331 998.541 75.2842C998.256 75.9352 998.057 76.5903 997.943 77.2495L997.882 77.6401ZM1022.5 72.0615H1013.82L1011.76 84H1010.3L1012.58 70.792H1022.71L1022.5 72.0615ZM1024.86 77.2495C1024.99 76.3706 1025.24 75.5202 1025.62 74.6982C1026 73.8763 1026.49 73.152 1027.08 72.5254C1027.65 71.9313 1028.31 71.4512 1029.07 71.085C1029.83 70.7188 1030.67 70.5397 1031.6 70.5479C1032.23 70.556 1032.79 70.6577 1033.3 70.853C1033.8 71.0402 1034.24 71.2965 1034.6 71.6221C1034.94 71.9232 1035.22 72.2731 1035.47 72.6719C1035.71 73.0706 1035.91 73.4979 1036.05 73.9536C1036.2 74.45 1036.29 74.9749 1036.33 75.5283C1036.38 76.0817 1036.37 76.6351 1036.3 77.1885L1036.24 77.5913C1036.11 78.4458 1035.85 79.2759 1035.48 80.0815C1035.11 80.8791 1034.65 81.5871 1034.08 82.2056C1033.5 82.8322 1032.82 83.3327 1032.05 83.707C1031.29 84.0732 1030.43 84.2523 1029.5 84.2441C1028.85 84.236 1028.26 84.1302 1027.74 83.9268C1027.23 83.7152 1026.78 83.4344 1026.41 83.0845C1026.1 82.7915 1025.83 82.4578 1025.6 82.0835C1025.38 81.7091 1025.2 81.3104 1025.07 80.8872C1024.91 80.3908 1024.8 79.8659 1024.75 79.3125C1024.71 78.7591 1024.73 78.2017 1024.8 77.6401L1024.86 77.2495ZM1026.23 77.6401C1026.14 78.2586 1026.13 78.8975 1026.2 79.5566C1026.28 80.2077 1026.46 80.7977 1026.74 81.3267C1026.99 81.8149 1027.35 82.2137 1027.81 82.5229C1028.29 82.8322 1028.86 82.995 1029.55 83.0112C1030.29 83.0194 1030.96 82.8647 1031.55 82.5474C1032.15 82.23 1032.68 81.8109 1033.12 81.29C1033.56 80.7773 1033.93 80.1833 1034.22 79.5078C1034.52 78.8242 1034.71 78.1854 1034.81 77.5913L1034.87 77.1885C1034.96 76.5374 1034.96 75.866 1034.87 75.1743C1034.78 74.4826 1034.57 73.8722 1034.24 73.3433C1033.97 72.8957 1033.61 72.5295 1033.17 72.2446C1032.73 71.9598 1032.19 71.8092 1031.55 71.793C1030.81 71.7848 1030.14 71.9435 1029.54 72.269C1028.93 72.5864 1028.41 73.0055 1027.97 73.5264C1027.53 74.0472 1027.17 74.6331 1026.89 75.2842C1026.6 75.9352 1026.4 76.5903 1026.29 77.2495L1026.23 77.6401ZM1059.48 71.793C1058.98 71.793 1058.5 71.8621 1058.03 72.0005C1057.56 72.1388 1057.14 72.3423 1056.76 72.6108C1056.37 72.8794 1056.03 73.209 1055.76 73.5996C1055.48 73.9821 1055.28 74.4175 1055.16 74.9058L1053.77 74.918C1053.89 74.2425 1054.13 73.6362 1054.5 73.0991C1054.87 72.5539 1055.31 72.09 1055.84 71.7075C1056.36 71.3413 1056.94 71.0565 1057.58 70.853C1058.21 70.6414 1058.86 70.5397 1059.52 70.5479C1060.17 70.5479 1060.75 70.6414 1061.26 70.8286C1061.78 71.0158 1062.24 71.2721 1062.63 71.5977C1062.96 71.8662 1063.24 72.1795 1063.47 72.5376C1063.72 72.8957 1063.91 73.2822 1064.06 73.6973C1064.25 74.21 1064.38 74.7593 1064.44 75.3452C1064.49 75.923 1064.49 76.5171 1064.41 77.1274L1064.34 77.6401C1064.2 78.5272 1063.94 79.3735 1063.56 80.1792C1063.18 80.9767 1062.7 81.6807 1062.1 82.291C1061.5 82.8932 1060.81 83.3734 1060.02 83.7314C1059.23 84.0814 1058.36 84.2523 1057.42 84.2441C1056.72 84.236 1056.08 84.118 1055.51 83.8901C1054.94 83.6541 1054.46 83.3286 1054.07 82.9136C1053.67 82.4985 1053.37 82.0062 1053.17 81.4365C1052.97 80.8587 1052.89 80.2199 1052.94 79.52L1054.3 79.5322C1054.26 80.0368 1054.3 80.5007 1054.43 80.9238C1054.56 81.3389 1054.76 81.701 1055.05 82.0103C1055.33 82.3195 1055.67 82.5636 1056.07 82.7427C1056.49 82.9136 1056.95 82.999 1057.47 82.999C1058.21 83.0153 1058.87 82.8851 1059.47 82.6084C1060.07 82.3236 1060.6 81.9451 1061.04 81.4731C1061.49 81.0093 1061.87 80.4681 1062.18 79.8496C1062.49 79.2311 1062.73 78.5964 1062.9 77.9453H1056.61L1056.83 76.7002H1063.02C1063.09 76.0817 1063.08 75.4795 1062.98 74.8936C1062.89 74.3076 1062.69 73.7827 1062.41 73.3188C1062.12 72.8713 1061.73 72.5091 1061.24 72.2324C1060.76 71.9476 1060.17 71.8011 1059.48 71.793ZM1079.16 70.792L1076.86 84H1075.42L1077.49 72.0615H1072.02L1071.11 76.627C1071.02 77.1234 1070.92 77.6483 1070.81 78.2017C1070.7 78.755 1070.57 79.3003 1070.41 79.8374C1070.24 80.3826 1070.03 80.9035 1069.78 81.3999C1069.55 81.8963 1069.25 82.3358 1068.9 82.7183C1068.56 83.1007 1068.15 83.41 1067.67 83.646C1067.2 83.8739 1066.65 83.9919 1066.01 84H1065.45L1065.63 82.6816H1066.06C1066.54 82.6654 1066.95 82.5555 1067.29 82.3521C1067.64 82.1405 1067.94 81.8678 1068.18 81.5342C1068.43 81.2087 1068.63 80.8384 1068.79 80.4233C1068.96 80.0002 1069.1 79.5648 1069.21 79.1172C1069.32 78.6777 1069.41 78.2424 1069.48 77.811C1069.55 77.3716 1069.62 76.9769 1069.69 76.627L1070.81 70.792H1079.16ZM1086.65 84.2441C1085.74 84.236 1084.95 84.0366 1084.26 83.646C1083.59 83.2554 1083.04 82.7467 1082.63 82.1201C1082.24 81.5423 1081.95 80.875 1081.78 80.1182C1081.62 79.3613 1081.59 78.5841 1081.69 77.7866L1081.76 77.2495C1081.84 76.6961 1081.98 76.1468 1082.17 75.6016C1082.37 75.0482 1082.62 74.5192 1082.92 74.0146C1083.22 73.5182 1083.57 73.0584 1083.96 72.6353C1084.35 72.2039 1084.78 71.8337 1085.25 71.5244C1085.72 71.2152 1086.23 70.9751 1086.78 70.8042C1087.33 70.6252 1087.91 70.5397 1088.52 70.5479C1089.37 70.556 1090.09 70.735 1090.68 71.085C1091.28 71.4268 1091.76 71.8825 1092.12 72.4521C1092.48 73.0137 1092.72 73.6566 1092.84 74.3809C1092.97 75.1051 1092.98 75.8457 1092.88 76.6025L1092.73 77.4937H1083.18C1083.04 78.2342 1083.01 78.9219 1083.1 79.5566C1083.19 80.1914 1083.41 80.7855 1083.75 81.3389C1084.04 81.8271 1084.44 82.2218 1084.95 82.5229C1085.46 82.8241 1086.06 82.9827 1086.74 82.999C1087.55 83.0153 1088.29 82.8607 1088.97 82.5352C1089.66 82.2096 1090.28 81.7702 1090.84 81.2168L1091.7 81.937C1091.08 82.6857 1090.32 83.2594 1089.44 83.6582C1088.56 84.057 1087.63 84.2523 1086.65 84.2441ZM1088.47 71.8052C1087.82 71.7889 1087.22 71.911 1086.68 72.1714C1086.14 72.4237 1085.67 72.7573 1085.25 73.1724C1084.82 73.5874 1084.45 74.0635 1084.14 74.6006C1083.83 75.1377 1083.57 75.687 1083.37 76.2485L1091.48 76.2607L1091.51 76.0654C1091.61 75.5446 1091.61 75.0319 1091.52 74.5273C1091.44 74.0146 1091.26 73.5589 1091 73.1602C1090.73 72.7614 1090.39 72.4399 1089.96 72.1958C1089.54 71.9435 1089.04 71.8133 1088.47 71.8052ZM1100.45 81.9736L1105.98 70.8042L1107.71 70.792L1105.44 84H1104.04L1105.72 74.2588L1100.67 84H1099.67L1097.95 73.7583L1096.16 84H1094.76L1097.04 70.792H1098.83L1100.45 81.9736ZM1115 84.2441C1114.09 84.236 1113.29 84.0366 1112.61 83.646C1111.93 83.2554 1111.39 82.7467 1110.97 82.1201C1110.58 81.5423 1110.3 80.875 1110.13 80.1182C1109.97 79.3613 1109.93 78.5841 1110.03 77.7866L1110.1 77.2495C1110.19 76.6961 1110.32 76.1468 1110.52 75.6016C1110.72 75.0482 1110.96 74.5192 1111.26 74.0146C1111.57 73.5182 1111.91 73.0584 1112.3 72.6353C1112.69 72.2039 1113.12 71.8337 1113.6 71.5244C1114.07 71.2152 1114.58 70.9751 1115.12 70.8042C1115.68 70.6252 1116.26 70.5397 1116.87 70.5479C1117.71 70.556 1118.43 70.735 1119.03 71.085C1119.62 71.4268 1120.1 71.8825 1120.47 72.4521C1120.83 73.0137 1121.07 73.6566 1121.19 74.3809C1121.31 75.1051 1121.32 75.8457 1121.23 76.6025L1121.08 77.4937H1111.52C1111.38 78.2342 1111.36 78.9219 1111.45 79.5566C1111.54 80.1914 1111.75 80.7855 1112.09 81.3389C1112.39 81.8271 1112.79 82.2218 1113.29 82.5229C1113.8 82.8241 1114.4 82.9827 1115.09 82.999C1115.89 83.0153 1116.64 82.8607 1117.32 82.5352C1118 82.2096 1118.63 81.7702 1119.19 81.2168L1120.04 81.937C1119.42 82.6857 1118.67 83.2594 1117.78 83.6582C1116.9 84.057 1115.98 84.2523 1115 84.2441ZM1116.82 71.8052C1116.17 71.7889 1115.57 71.911 1115.02 72.1714C1114.49 72.4237 1114.01 72.7573 1113.6 73.1724C1113.16 73.5874 1112.79 74.0635 1112.49 74.6006C1112.18 75.1377 1111.92 75.687 1111.72 76.2485L1119.82 76.2607L1119.86 76.0654C1119.96 75.5446 1119.96 75.0319 1119.87 74.5273C1119.78 74.0146 1119.61 73.5589 1119.35 73.1602C1119.08 72.7614 1118.73 72.4399 1118.31 72.1958C1117.88 71.9435 1117.39 71.8133 1116.82 71.8052ZM1133.67 84H1132.22L1133.27 77.9453H1126.05L1125 84H1123.57L1125.85 70.792H1127.28L1126.26 76.7002H1133.48L1134.51 70.792H1135.95L1133.67 84ZM1151.11 72.0371H1145.64L1143.57 84H1142.12L1144.19 72.0371H1138.93L1139.12 70.792H1151.3L1151.11 72.0371ZM1160.84 84C1160.8 83.6663 1160.79 83.3408 1160.8 83.0234C1160.83 82.6979 1160.87 82.3724 1160.92 82.0469C1160.65 82.3398 1160.35 82.6125 1160.03 82.8647C1159.72 83.1089 1159.38 83.3205 1159.03 83.4995C1158.58 83.7437 1158.1 83.9308 1157.59 84.061C1157.09 84.1912 1156.57 84.2523 1156.03 84.2441C1155.5 84.236 1155 84.1465 1154.52 83.9756C1154.04 83.7965 1153.63 83.5483 1153.29 83.231C1152.94 82.9136 1152.68 82.5311 1152.49 82.0835C1152.31 81.6278 1152.25 81.1151 1152.31 80.5454C1152.36 80.0002 1152.5 79.516 1152.72 79.0928C1152.94 78.6696 1153.22 78.2993 1153.56 77.9819C1153.9 77.6727 1154.28 77.4123 1154.7 77.2007C1155.12 76.9891 1155.57 76.8141 1156.04 76.6758C1156.51 76.5456 1156.99 76.452 1157.48 76.395C1157.98 76.3381 1158.46 76.3096 1158.93 76.3096H1161.8L1162.05 74.8203C1162.11 74.332 1162.08 73.9007 1161.95 73.5264C1161.83 73.152 1161.63 72.8346 1161.36 72.5742C1161.1 72.3138 1160.77 72.1185 1160.38 71.9883C1159.98 71.8499 1159.56 71.7808 1159.09 71.7808C1158.65 71.7726 1158.22 71.8255 1157.8 71.9395C1157.38 72.0452 1156.99 72.208 1156.63 72.4277C1156.27 72.6556 1155.96 72.9364 1155.69 73.27C1155.43 73.5955 1155.24 73.9821 1155.11 74.4297L1153.69 74.4175C1153.8 73.7827 1154.04 73.2253 1154.39 72.7451C1154.76 72.2568 1155.2 71.8499 1155.71 71.5244C1156.22 71.1989 1156.77 70.9548 1157.37 70.792C1157.98 70.6211 1158.59 70.5397 1159.2 70.5479C1159.85 70.5479 1160.44 70.6455 1161 70.8408C1161.55 71.028 1162.03 71.3047 1162.43 71.6709C1162.82 72.0452 1163.11 72.501 1163.29 73.0381C1163.49 73.5671 1163.54 74.1693 1163.46 74.8447L1162.38 81.229C1162.3 81.6685 1162.27 82.1079 1162.27 82.5474C1162.27 82.9787 1162.3 83.41 1162.35 83.8413L1162.33 84H1160.84ZM1156.24 82.9502C1156.73 82.9583 1157.22 82.9014 1157.69 82.7793C1158.16 82.6572 1158.6 82.4782 1159.02 82.2422C1159.42 82.0143 1159.79 81.7417 1160.14 81.4243C1160.5 81.0988 1160.82 80.7407 1161.1 80.3501L1161.61 77.4448L1159.13 77.4326C1158.71 77.4326 1158.27 77.4611 1157.8 77.5181C1157.33 77.5669 1156.87 77.6605 1156.43 77.7988C1156.11 77.8883 1155.81 78.0023 1155.52 78.1406C1155.23 78.2708 1154.97 78.4377 1154.74 78.6411C1154.48 78.8608 1154.27 79.1172 1154.09 79.4102C1153.92 79.695 1153.8 80.0286 1153.75 80.4111C1153.69 80.8099 1153.72 81.1639 1153.83 81.4731C1153.95 81.7824 1154.12 82.0428 1154.36 82.2544C1154.58 82.4741 1154.86 82.645 1155.19 82.7671C1155.52 82.881 1155.87 82.9421 1156.24 82.9502ZM1186.73 72.1714L1182.37 70.8408L1183 69.4858L1187.26 71.2314L1187.9 66.2266H1189.32L1188.32 71.1948L1192.97 69.437L1193.23 70.8896L1188.39 72.3057L1190.99 76.2363L1189.76 77.0664L1187.51 72.8916L1184.09 77.0054L1183.01 76.1265L1186.73 72.1714ZM1196.62 85.5137H1195.22L1205.75 66.2388H1207.14L1196.62 85.5137Z" fill="#0066FF"/>
<path d="M153.541 55.4678C152.752 55.4434 152.068 55.2603 151.49 54.9185C150.912 54.5767 150.432 54.125 150.05 53.5635C149.684 53.0264 149.407 52.4242 149.22 51.7568C149.033 51.0977 148.939 50.4425 148.939 49.7915V47.7285C148.939 46.5566 148.658 45.7062 148.097 45.1772C147.543 44.6483 146.693 44.3797 145.545 44.3716V42.6016C146.693 42.6016 147.543 42.3411 148.097 41.8203C148.658 41.2913 148.939 40.4368 148.939 39.2568V37.1816C148.939 36.5225 149.024 35.8511 149.195 35.1675C149.374 34.4757 149.655 33.8573 150.038 33.312C150.396 32.7912 150.864 32.368 151.441 32.0425C152.019 31.7088 152.719 31.5298 153.541 31.5054L153.797 32.9092C153.211 32.9255 152.743 33.0638 152.394 33.3242C152.052 33.5846 151.795 33.9142 151.625 34.313C151.445 34.7199 151.332 35.1756 151.283 35.6802C151.234 36.1847 151.209 36.6852 151.209 37.1816V39.2568C151.209 40.2334 150.982 41.092 150.526 41.8325C150.078 42.5649 149.382 43.1224 148.438 43.5049C149.382 43.8792 150.078 44.4367 150.526 45.1772C150.973 45.9097 151.201 46.7601 151.209 47.7285V49.7915C151.209 50.2961 151.25 50.7965 151.332 51.293C151.413 51.7975 151.555 52.2492 151.759 52.6479C151.954 53.0549 152.215 53.3885 152.54 53.6489C152.874 53.9093 153.293 54.0477 153.797 54.064L153.541 55.4678ZM101.452 84L98.6445 70.792H100.646L102.185 79.2148L102.453 81.1069L102.783 79.2148L104.895 70.792H106.347L108.447 79.2148L108.801 81.29L109.13 79.2148L110.595 70.792H112.597L109.79 84H108.007L105.944 75.9067L105.603 73.856L105.273 75.9067L103.234 84H101.452ZM115.051 70.792H121.802V82.0469H126.111V84H115.051V82.0469H119.543V72.7573H115.051V70.792ZM119.25 67.3252C119.25 67.1299 119.279 66.9468 119.336 66.7759C119.401 66.605 119.499 66.4585 119.629 66.3364C119.735 66.2306 119.869 66.1493 120.032 66.0923C120.203 66.0272 120.394 65.9946 120.605 65.9946C120.817 65.9946 121.004 66.0272 121.167 66.0923C121.33 66.1493 121.464 66.2306 121.57 66.3364C121.7 66.4504 121.798 66.5928 121.863 66.7637C121.928 66.9346 121.96 67.1217 121.96 67.3252C121.96 67.6914 121.847 67.9966 121.619 68.2407C121.391 68.4849 121.053 68.6069 120.605 68.6069C120.15 68.6069 119.808 68.4849 119.58 68.2407C119.36 67.9966 119.25 67.6914 119.25 67.3252ZM128.785 77.2861C128.785 76.3014 128.907 75.3981 129.151 74.5762C129.403 73.7461 129.761 73.034 130.225 72.4399C130.681 71.8459 131.234 71.382 131.885 71.0483C132.536 70.7147 133.265 70.5479 134.07 70.5479C134.86 70.5479 135.547 70.6821 136.133 70.9507C136.727 71.2111 137.24 71.5936 137.671 72.0981V65.25H139.93V84H137.854L137.757 82.6084C137.317 83.1455 136.792 83.5524 136.182 83.8291C135.572 84.1058 134.86 84.2441 134.046 84.2441C133.248 84.2441 132.524 84.0732 131.873 83.7314C131.23 83.3896 130.681 82.9176 130.225 82.3154C129.769 81.7132 129.415 81.0052 129.163 80.1914C128.911 79.3695 128.785 78.4865 128.785 77.5425V77.2861ZM131.043 77.5425C131.043 78.1854 131.112 78.7957 131.25 79.3735C131.389 79.9513 131.604 80.46 131.897 80.8994C132.182 81.3389 132.549 81.6888 132.996 81.9492C133.444 82.2015 133.981 82.3276 134.607 82.3276C135.364 82.3276 135.991 82.1567 136.487 81.8149C136.984 81.4731 137.378 81.0133 137.671 80.4355V74.3076C137.378 73.7705 136.984 73.3311 136.487 72.9893C135.991 72.6393 135.372 72.4644 134.632 72.4644C133.997 72.4644 133.452 72.5946 132.996 72.855C132.549 73.1154 132.182 73.4653 131.897 73.9048C131.604 74.3524 131.389 74.8691 131.25 75.4551C131.112 76.0329 131.043 76.6432 131.043 77.2861V77.5425ZM149.073 67.5938V70.792H154.103V72.5376H149.073V79.7153C149.073 80.228 149.138 80.6512 149.269 80.9849C149.399 81.3185 149.578 81.583 149.806 81.7783C150.034 81.9818 150.294 82.1242 150.587 82.2056C150.888 82.2869 151.205 82.3276 151.539 82.3276C151.783 82.3276 152.035 82.3154 152.296 82.291C152.556 82.2585 152.813 82.2218 153.065 82.1812C153.309 82.1405 153.537 82.0998 153.749 82.0591C153.968 82.0103 154.147 81.9696 154.286 81.937L154.603 83.5361C154.416 83.6501 154.188 83.7518 153.919 83.8413C153.651 83.9227 153.358 83.9919 153.041 84.0488C152.723 84.1139 152.385 84.1628 152.027 84.1953C151.677 84.2279 151.327 84.2441 150.978 84.2441C150.392 84.2441 149.842 84.1628 149.33 84C148.825 83.8291 148.386 83.5605 148.011 83.1943C147.637 82.8363 147.34 82.3724 147.12 81.8027C146.909 81.2249 146.803 80.5291 146.803 79.7153V72.5376H143.336V70.792H146.803V67.5938H149.073ZM160.5 72.7573C160.679 72.4888 160.878 72.2446 161.098 72.0249C161.317 71.797 161.549 71.5977 161.793 71.4268C162.184 71.1419 162.611 70.9263 163.075 70.7798C163.547 70.6333 164.048 70.556 164.577 70.5479C165.268 70.5479 165.895 70.6496 166.457 70.853C167.026 71.0483 167.51 71.3576 167.909 71.7808C168.308 72.2039 168.613 72.741 168.825 73.3921C169.044 74.035 169.154 74.8 169.154 75.687V84H166.896V75.6626C166.896 75.1418 166.835 74.686 166.713 74.2954C166.591 73.8966 166.412 73.5671 166.176 73.3066C165.924 73.0218 165.606 72.8102 165.224 72.6719C164.841 72.5254 164.402 72.4562 163.905 72.4644C163.498 72.4644 163.112 72.5213 162.746 72.6353C162.379 72.7492 162.042 72.9119 161.732 73.1235C161.488 73.2863 161.26 73.4775 161.049 73.6973C160.845 73.9089 160.662 74.1449 160.5 74.4053V84H158.241V65.25H160.5V72.7573ZM177.297 82.5352C177.297 82.055 177.443 81.644 177.736 81.3022C178.029 80.9604 178.473 80.7896 179.067 80.7896C179.653 80.7896 180.096 80.9604 180.397 81.3022C180.707 81.6359 180.861 82.0469 180.861 82.5352C180.861 83.0153 180.707 83.4181 180.397 83.7437C180.088 84.0692 179.645 84.2319 179.067 84.2319C178.481 84.2319 178.037 84.0692 177.736 83.7437C177.443 83.41 177.297 83.0072 177.297 82.5352ZM177.297 71.8418C177.297 71.3617 177.443 70.9507 177.736 70.6089C178.029 70.2671 178.473 70.0962 179.067 70.0962C179.653 70.0962 180.096 70.2671 180.397 70.6089C180.707 70.9425 180.861 71.3535 180.861 71.8418C180.861 72.3219 180.707 72.7248 180.397 73.0503C180.088 73.3758 179.645 73.5386 179.067 73.5386C178.481 73.5386 178.037 73.3758 177.736 73.0503C177.443 72.7166 177.297 72.3138 177.297 71.8418ZM209.109 84H206.851V69.1074L202.2 70.8774V68.8145L208.926 66.2266H209.109V84ZM227.457 77.2007C227.457 78.3319 227.327 79.3369 227.066 80.2158C226.806 81.0866 226.432 81.819 225.943 82.4131C225.455 83.0153 224.857 83.471 224.149 83.7803C223.441 84.0895 222.631 84.2441 221.72 84.2441C220.816 84.2441 220.007 84.0936 219.291 83.7925C218.574 83.4832 217.968 83.0234 217.472 82.4131C216.975 81.819 216.597 81.0866 216.336 80.2158C216.076 79.3369 215.946 78.3319 215.946 77.2007V73.0381C215.946 71.9069 216.076 70.9059 216.336 70.0352C216.597 69.1562 216.975 68.4157 217.472 67.8135C217.96 67.2113 218.558 66.7555 219.266 66.4463C219.982 66.1289 220.792 65.9702 221.695 65.9702C222.607 65.9702 223.417 66.1289 224.125 66.4463C224.841 66.7555 225.447 67.2113 225.943 67.8135C226.432 68.4157 226.806 69.1562 227.066 70.0352C227.327 70.9059 227.457 71.9069 227.457 73.0381V77.2007ZM218.216 76.749L225.138 71.439C225.073 70.853 224.955 70.3363 224.784 69.8887C224.621 69.4329 224.397 69.0545 224.112 68.7534C223.836 68.4442 223.494 68.2122 223.087 68.0576C222.688 67.903 222.224 67.8257 221.695 67.8257C221.158 67.8257 220.682 67.9111 220.267 68.082C219.86 68.2448 219.514 68.4849 219.229 68.8022C218.888 69.201 218.631 69.7178 218.46 70.3525C218.298 70.9792 218.216 71.7075 218.216 72.5376V75.5161C218.216 75.7196 218.216 75.923 218.216 76.1265C218.216 76.3299 218.216 76.5374 218.216 76.749ZM225.187 77.6768V75.1621C225.187 75.04 225.187 74.8081 225.187 74.4663C225.187 74.1164 225.187 73.8275 225.187 73.5996L218.277 78.8853C218.351 79.4793 218.481 80.0042 218.668 80.46C218.855 80.9076 219.099 81.2778 219.4 81.5708C219.677 81.8475 220.011 82.0591 220.401 82.2056C220.792 82.3439 221.231 82.4131 221.72 82.4131C222.232 82.4131 222.688 82.3358 223.087 82.1812C223.486 82.0265 223.823 81.8027 224.1 81.5098C224.474 81.111 224.747 80.5902 224.918 79.9473C225.097 79.3044 225.187 78.5475 225.187 77.6768ZM241.972 77.2007C241.972 78.3319 241.841 79.3369 241.581 80.2158C241.321 81.0866 240.946 81.819 240.458 82.4131C239.97 83.0153 239.372 83.471 238.664 83.7803C237.956 84.0895 237.146 84.2441 236.234 84.2441C235.331 84.2441 234.521 84.0936 233.805 83.7925C233.089 83.4832 232.483 83.0234 231.986 82.4131C231.49 81.819 231.111 81.0866 230.851 80.2158C230.591 79.3369 230.46 78.3319 230.46 77.2007V73.0381C230.46 71.9069 230.591 70.9059 230.851 70.0352C231.111 69.1562 231.49 68.4157 231.986 67.8135C232.475 67.2113 233.073 66.7555 233.781 66.4463C234.497 66.1289 235.307 65.9702 236.21 65.9702C237.121 65.9702 237.931 66.1289 238.639 66.4463C239.355 66.7555 239.962 67.2113 240.458 67.8135C240.946 68.4157 241.321 69.1562 241.581 70.0352C241.841 70.9059 241.972 71.9069 241.972 73.0381V77.2007ZM232.731 76.749L239.652 71.439C239.587 70.853 239.469 70.3363 239.298 69.8887C239.136 69.4329 238.912 69.0545 238.627 68.7534C238.35 68.4442 238.008 68.2122 237.602 68.0576C237.203 67.903 236.739 67.8257 236.21 67.8257C235.673 67.8257 235.197 67.9111 234.782 68.082C234.375 68.2448 234.029 68.4849 233.744 68.8022C233.402 69.201 233.146 69.7178 232.975 70.3525C232.812 70.9792 232.731 71.7075 232.731 72.5376V75.5161C232.731 75.7196 232.731 75.923 232.731 76.1265C232.731 76.3299 232.731 76.5374 232.731 76.749ZM239.701 77.6768V75.1621C239.701 75.04 239.701 74.8081 239.701 74.4663C239.701 74.1164 239.701 73.8275 239.701 73.5996L232.792 78.8853C232.865 79.4793 232.995 80.0042 233.183 80.46C233.37 80.9076 233.614 81.2778 233.915 81.5708C234.192 81.8475 234.525 82.0591 234.916 82.2056C235.307 82.3439 235.746 82.4131 236.234 82.4131C236.747 82.4131 237.203 82.3358 237.602 82.1812C238 82.0265 238.338 81.8027 238.615 81.5098C238.989 81.111 239.262 80.5902 239.433 79.9473C239.612 79.3044 239.701 78.5475 239.701 77.6768ZM243.742 69.4248C243.742 68.9609 243.811 68.5215 243.95 68.1064C244.096 67.6833 244.308 67.313 244.584 66.9956C244.853 66.6782 245.191 66.43 245.598 66.251C246.005 66.0638 246.472 65.9702 247.001 65.9702C247.539 65.9702 248.011 66.0638 248.417 66.251C248.833 66.43 249.178 66.6782 249.455 66.9956C249.724 67.313 249.927 67.6833 250.065 68.1064C250.212 68.5215 250.285 68.9609 250.285 69.4248V70.3647C250.285 70.8286 250.212 71.2681 250.065 71.6831C249.927 72.0981 249.724 72.4603 249.455 72.7695C249.178 73.0869 248.837 73.3392 248.43 73.5264C248.023 73.7054 247.555 73.7949 247.026 73.7949C246.497 73.7949 246.025 73.7054 245.61 73.5264C245.203 73.3392 244.861 73.0869 244.584 72.7695C244.308 72.4603 244.096 72.0981 243.95 71.6831C243.811 71.2681 243.742 70.8286 243.742 70.3647V69.4248ZM245.427 70.3647C245.427 70.617 245.455 70.8612 245.512 71.0972C245.569 71.325 245.663 71.5285 245.793 71.7075C245.923 71.8947 246.086 72.0452 246.281 72.1592C246.485 72.265 246.733 72.3179 247.026 72.3179C247.311 72.3179 247.551 72.265 247.746 72.1592C247.95 72.0452 248.112 71.8947 248.234 71.7075C248.356 71.5285 248.446 71.325 248.503 71.0972C248.568 70.8612 248.601 70.617 248.601 70.3647V69.4248C248.601 69.1725 248.568 68.9284 248.503 68.6924C248.446 68.4482 248.356 68.2326 248.234 68.0454C248.104 67.8664 247.937 67.724 247.734 67.6182C247.539 67.5042 247.294 67.4473 247.001 67.4473C246.717 67.4473 246.472 67.5042 246.269 67.6182C246.074 67.724 245.915 67.8664 245.793 68.0454C245.663 68.2326 245.569 68.4482 245.512 68.6924C245.455 68.9284 245.427 69.1725 245.427 69.4248V70.3647ZM251.079 79.874C251.079 79.4102 251.148 78.9707 251.286 78.5557C251.433 78.1406 251.644 77.7744 251.921 77.457C252.198 77.1396 252.539 76.8914 252.946 76.7124C253.353 76.5252 253.821 76.4316 254.35 76.4316C254.887 76.4316 255.359 76.5252 255.766 76.7124C256.173 76.8914 256.515 77.1396 256.792 77.457C257.068 77.7744 257.276 78.1406 257.414 78.5557C257.561 78.9707 257.634 79.4102 257.634 79.874V80.8262C257.634 81.29 257.561 81.7295 257.414 82.1445C257.276 82.5596 257.068 82.9217 256.792 83.231C256.515 83.5483 256.173 83.8006 255.766 83.9878C255.367 84.1668 254.903 84.2563 254.375 84.2563C253.837 84.2563 253.361 84.1668 252.946 83.9878C252.539 83.8006 252.198 83.5483 251.921 83.231C251.644 82.9217 251.433 82.5596 251.286 82.1445C251.148 81.7295 251.079 81.29 251.079 80.8262V79.874ZM252.763 80.8262C252.763 81.0785 252.792 81.3226 252.849 81.5586C252.914 81.7946 253.011 82.0021 253.142 82.1812C253.264 82.3683 253.426 82.5189 253.63 82.6328C253.833 82.7386 254.082 82.7915 254.375 82.7915C254.659 82.7915 254.899 82.7386 255.095 82.6328C255.298 82.5189 255.461 82.3683 255.583 82.1812C255.705 82.0021 255.795 81.7946 255.852 81.5586C255.909 81.3226 255.937 81.0785 255.937 80.8262V79.874C255.937 79.6217 255.909 79.3776 255.852 79.1416C255.795 78.9056 255.705 78.694 255.583 78.5068C255.453 78.3278 255.286 78.1854 255.083 78.0796C254.879 77.9657 254.635 77.9087 254.35 77.9087C254.057 77.9087 253.809 77.9657 253.605 78.0796C253.41 78.1854 253.251 78.3278 253.129 78.5068C252.999 78.694 252.906 78.9056 252.849 79.1416C252.792 79.3776 252.763 79.6217 252.763 79.874V80.8262ZM248.063 81.7051L246.708 80.9482L253.63 68.2896L254.985 69.0464L248.063 81.7051ZM264.275 71.8418C264.275 71.3617 264.421 70.9507 264.714 70.6089C265.007 70.2671 265.451 70.0962 266.045 70.0962C266.631 70.0962 267.074 70.2671 267.375 70.6089C267.685 70.9425 267.839 71.3535 267.839 71.8418C267.839 72.3219 267.685 72.7248 267.375 73.0503C267.066 73.3758 266.623 73.5386 266.045 73.5386C265.459 73.5386 265.015 73.3758 264.714 73.0503C264.421 72.7166 264.275 72.3138 264.275 71.8418ZM267.18 83.4751C267.18 84.2889 266.989 85.119 266.606 85.9653C266.224 86.8117 265.707 87.5238 265.056 88.1016L263.652 87.3325C264.043 86.7629 264.32 86.1566 264.482 85.5137C264.645 84.8708 264.727 84.2035 264.727 83.5117V81.3267H267.18V83.4751ZM43.9429 120.064C44.4393 120.048 44.8543 119.909 45.188 119.649C45.5216 119.389 45.7902 119.055 45.9937 118.648C46.189 118.249 46.3273 117.798 46.4087 117.293C46.4982 116.797 46.543 116.296 46.543 115.792V113.729C46.543 113.086 46.6366 112.492 46.8237 111.946C47.019 111.401 47.3161 110.929 47.7148 110.53C47.9264 110.319 48.1624 110.127 48.4229 109.957C48.6914 109.786 48.9844 109.635 49.3018 109.505C48.9762 109.375 48.6751 109.22 48.3984 109.041C48.1299 108.862 47.8939 108.663 47.6904 108.443C47.2998 108.036 47.0109 107.564 46.8237 107.027C46.6366 106.482 46.543 105.892 46.543 105.257V103.182C46.543 102.685 46.5145 102.185 46.4575 101.68C46.4087 101.176 46.2988 100.72 46.1279 100.313C45.9489 99.9142 45.6885 99.5846 45.3467 99.3242C45.0049 99.0638 44.541 98.9255 43.9551 98.9092L44.1992 97.5054C44.9886 97.5298 45.6641 97.6966 46.2256 98.0059C46.7952 98.3151 47.2632 98.7179 47.6294 99.2144C48.0444 99.7759 48.3415 100.407 48.5205 101.106C48.7077 101.806 48.8013 102.498 48.8013 103.182V105.257C48.8013 105.745 48.846 106.176 48.9355 106.551C49.0332 106.917 49.1756 107.234 49.3628 107.503C49.6313 107.885 50.0016 108.166 50.4736 108.345C50.9538 108.516 51.5275 108.602 52.1948 108.602V110.372C51.6089 110.38 51.0962 110.453 50.6567 110.591C50.2254 110.722 49.8714 110.929 49.5947 111.214C49.3262 111.491 49.1268 111.836 48.9966 112.251C48.8664 112.667 48.8013 113.159 48.8013 113.729V115.792C48.8013 116.443 48.7118 117.098 48.5327 117.757C48.3537 118.424 48.077 119.03 47.7026 119.576C47.3201 120.121 46.84 120.569 46.2622 120.918C45.6844 121.268 44.9967 121.451 44.1992 121.468L43.9429 120.064Z" fill="white"/>
</svg>
