<svg width="1399" height="215" viewBox="0 0 1399 215" fill="none" xmlns="http://www.w3.org/2000/svg">
<rect width="1399" height="215" rx="20" fill="#0066FF" fill-opacity="0.2"/>
<rect x="1.5" y="1.5" width="1396" height="212" rx="18.5" stroke="#0066FF" stroke-opacity="0.5" stroke-width="3"/>
<path d="M54.1479 41.3687C54.1235 42.0197 54.0462 42.687 53.916 43.3706C53.7858 44.0461 53.5905 44.6605 53.3301 45.2139C53.0615 45.7673 52.7197 46.2189 52.3047 46.5688C51.8896 46.9188 51.381 47.0938 50.7788 47.0938C50.4858 47.0938 50.2214 47.049 49.9854 46.9595C49.7493 46.87 49.5459 46.7397 49.375 46.5688C49.2529 46.4468 49.1471 46.3084 49.0576 46.1538C48.9681 45.991 48.8949 45.812 48.8379 45.6167C48.7077 45.8201 48.5612 46.0073 48.3984 46.1782C48.2438 46.3491 48.077 46.4997 47.8979 46.6299C47.6782 46.7764 47.4422 46.8903 47.1899 46.9717C46.9377 47.0531 46.6732 47.0938 46.3965 47.0938C45.9977 47.0938 45.6519 46.988 45.3589 46.7764C45.0659 46.5648 44.8299 46.2677 44.6509 45.8853C44.4637 45.5028 44.3335 45.047 44.2603 44.5181C44.1951 43.9891 44.187 43.4072 44.2358 42.7725C44.3091 41.8691 44.4596 41.0553 44.6875 40.3311C44.9154 39.5986 45.2124 38.9761 45.5786 38.4634C45.9367 37.9588 46.3558 37.5723 46.8359 37.3037C47.3161 37.027 47.8451 36.8887 48.4229 36.8887C48.9681 36.8887 49.4198 36.9985 49.7778 37.2183C50.1359 37.4299 50.4207 37.6821 50.6323 37.9751L50.0952 44.1274C50.0708 44.4611 50.0789 44.7337 50.1196 44.9453C50.1603 45.1488 50.2214 45.3075 50.3027 45.4214C50.376 45.5435 50.4696 45.6248 50.5835 45.6655C50.6974 45.7062 50.8195 45.7266 50.9497 45.7266C51.2508 45.7266 51.5153 45.6126 51.7432 45.3848C51.9792 45.1488 52.1745 44.8314 52.3291 44.4326C52.4837 44.042 52.6017 43.5822 52.6831 43.0532C52.7645 42.5243 52.8092 41.9627 52.8174 41.3687C52.8499 40.3351 52.7645 39.4074 52.561 38.5854C52.3576 37.7635 52.0483 37.0677 51.6333 36.498C51.2101 35.9284 50.6934 35.493 50.083 35.1919C49.4727 34.8908 48.7769 34.7402 47.9956 34.7402C47.2062 34.7402 46.486 34.9193 45.835 35.2773C45.1921 35.6273 44.6143 36.1278 44.1016 36.7788C43.5563 37.4787 43.1331 38.325 42.832 39.3179C42.5309 40.3026 42.3641 41.3849 42.3315 42.5649C42.2909 43.6717 42.3682 44.6564 42.5635 45.519C42.7588 46.3817 43.0721 47.11 43.5034 47.7041C43.9347 48.3063 44.484 48.7661 45.1514 49.0835C45.8268 49.3927 46.6203 49.5474 47.5317 49.5474C47.7759 49.5474 48.0241 49.5311 48.2764 49.4985C48.5286 49.4578 48.7769 49.4009 49.021 49.3276C49.2651 49.2625 49.4971 49.1812 49.7168 49.0835C49.9365 48.9858 50.1359 48.876 50.3149 48.7539L50.7056 50.1821C50.5021 50.3368 50.2702 50.471 50.0098 50.585C49.7493 50.6989 49.4767 50.7925 49.1919 50.8657C48.9071 50.9471 48.6182 51.0041 48.3252 51.0366C48.0322 51.0773 47.7555 51.0977 47.4951 51.0977C46.2988 51.0977 45.2694 50.8901 44.4067 50.4751C43.5522 50.0519 42.8564 49.4619 42.3193 48.7051C41.7741 47.9482 41.3794 47.049 41.1353 46.0073C40.8993 44.9575 40.8016 43.8101 40.8423 42.5649C40.8911 41.2629 41.1068 40.0259 41.4893 38.854C41.8799 37.6821 42.4007 36.6689 43.0518 35.8145C43.6702 35.0007 44.3986 34.3618 45.2368 33.8979C46.0832 33.4341 47.015 33.2021 48.0322 33.2021C49.0251 33.2021 49.908 33.3975 50.6812 33.7881C51.4543 34.1706 52.1053 34.7199 52.6343 35.436C53.1551 36.1522 53.5457 37.0148 53.8062 38.0239C54.0666 39.0249 54.1805 40.1398 54.1479 41.3687ZM45.7373 42.7725C45.721 43.1875 45.7292 43.5618 45.7617 43.8955C45.7943 44.221 45.8553 44.4937 45.9448 44.7134C46.0343 44.9412 46.1483 45.1162 46.2866 45.2383C46.4331 45.3522 46.604 45.4092 46.7993 45.4092C47.0435 45.4092 47.2754 45.3685 47.4951 45.2871C47.723 45.2057 47.9305 45.0755 48.1177 44.8965C48.2316 44.7826 48.3415 44.6523 48.4473 44.5059C48.5531 44.3512 48.6507 44.1763 48.7402 43.981L48.7524 43.8589L49.2163 38.5488C49.1024 38.4919 48.9844 38.4512 48.8623 38.4268C48.7484 38.4023 48.6304 38.3901 48.5083 38.3901C48.077 38.3901 47.6986 38.4959 47.373 38.7075C47.0557 38.911 46.7871 39.1999 46.5674 39.5742C46.3477 39.9567 46.1686 40.4206 46.0303 40.9658C45.9001 41.5029 45.8024 42.1051 45.7373 42.7725ZM57.6763 37.792L57.7373 39.0371C58.0059 38.5732 58.3558 38.2111 58.7871 37.9507C59.2266 37.6903 59.7555 37.556 60.374 37.5479C60.724 37.5479 61.0373 37.5885 61.314 37.6699C61.5988 37.7432 61.847 37.853 62.0586 37.9995C62.2132 38.1134 62.3516 38.2518 62.4736 38.4146C62.6038 38.5773 62.7137 38.7604 62.8032 38.9639C62.9172 38.7767 63.0514 38.6017 63.2061 38.439C63.3607 38.2762 63.5275 38.1338 63.7065 38.0117C63.9344 37.8734 64.1867 37.7635 64.4634 37.6821C64.7482 37.6007 65.0575 37.556 65.3911 37.5479C65.8468 37.5479 66.2578 37.617 66.624 37.7554C66.9902 37.8856 67.2995 38.0809 67.5518 38.3413C67.8285 38.6343 68.04 39.0168 68.1865 39.4888C68.333 39.9526 68.4062 40.502 68.4062 41.1367V51H66.2578V41.1123C66.2578 40.8356 66.2253 40.5915 66.1602 40.3799C66.0951 40.1683 66.0015 39.9933 65.8794 39.855C65.7492 39.7248 65.5864 39.6271 65.3911 39.562C65.2039 39.4969 64.9842 39.4644 64.7319 39.4644C64.4634 39.4644 64.2314 39.501 64.0361 39.5742C63.8408 39.6475 63.6781 39.7451 63.5479 39.8672C63.4176 39.9974 63.3159 40.1479 63.2427 40.3188C63.1694 40.4816 63.1206 40.6647 63.0962 40.8682C63.0962 40.9089 63.0962 40.9495 63.0962 40.9902C63.0962 41.0228 63.0962 41.0635 63.0962 41.1123V51H60.9478V41.1001C60.9478 40.8234 60.9152 40.5793 60.8501 40.3677C60.7931 40.1561 60.6995 39.9811 60.5693 39.8428C60.4473 39.7126 60.2926 39.619 60.1055 39.562C59.9264 39.4969 59.7148 39.4644 59.4707 39.4644C59.2021 39.4644 58.9661 39.4969 58.7627 39.562C58.5674 39.619 58.4006 39.7044 58.2622 39.8184C58.1564 39.9079 58.0628 40.0096 57.9814 40.1235C57.9082 40.2375 57.8472 40.3595 57.7983 40.4897V51H55.6499V37.792H57.6763ZM76.9883 51.2441C76.0605 51.2441 75.2061 51.0854 74.4248 50.7681C73.6517 50.4507 72.9884 50.0072 72.4351 49.4375C71.8817 48.8678 71.4504 48.1924 71.1411 47.4111C70.8319 46.6299 70.6772 45.7795 70.6772 44.8599V44.3472C70.6772 43.2811 70.8481 42.3289 71.1899 41.4907C71.5317 40.6444 71.9875 39.9282 72.5571 39.3423C73.1187 38.7645 73.7575 38.321 74.4736 38.0117C75.1979 37.7025 75.9385 37.5479 76.6953 37.5479C77.6475 37.5479 78.4775 37.7147 79.1855 38.0483C79.9017 38.3739 80.4958 38.8255 80.9678 39.4033C81.4398 39.9893 81.7897 40.6769 82.0176 41.4663C82.2536 42.2557 82.3716 43.1102 82.3716 44.0298V45.043H72.9355V45.1284C72.9925 45.7713 73.1187 46.3369 73.314 46.8252C73.5174 47.3135 73.7941 47.7448 74.144 48.1191C74.5021 48.5179 74.9334 48.8312 75.438 49.0591C75.9425 49.2869 76.5 49.4009 77.1104 49.4009C77.916 49.4009 78.6322 49.2381 79.2588 48.9126C79.8854 48.5871 80.4062 48.1558 80.8213 47.6187L82.2007 48.6929C81.7612 49.3602 81.1021 49.9543 80.2231 50.4751C79.3524 50.9878 78.2741 51.2441 76.9883 51.2441ZM76.6953 39.4033C76.2396 39.4033 75.8083 39.4888 75.4014 39.6597C74.9945 39.8224 74.6283 40.0625 74.3027 40.3799C73.9772 40.7054 73.7005 41.1042 73.4727 41.5762C73.2529 42.04 73.0983 42.5771 73.0088 43.1875H80.1133V43.0776C80.1133 42.6707 80.036 42.2354 79.8813 41.7715C79.7267 41.2995 79.5111 40.8926 79.2344 40.5508C78.9577 40.209 78.6077 39.9323 78.1846 39.7207C77.7695 39.5091 77.2731 39.4033 76.6953 39.4033ZM85.2407 44.2861C85.2407 43.3014 85.3628 42.3981 85.6069 41.5762C85.8592 40.7461 86.2173 40.034 86.6812 39.4399C87.1369 38.8459 87.6903 38.382 88.3413 38.0483C88.9924 37.7147 89.7207 37.5479 90.5264 37.5479C91.3158 37.5479 92.0034 37.6821 92.5894 37.9507C93.1834 38.2111 93.6961 38.5936 94.1274 39.0981V32.25H96.3857V51H94.3105L94.2129 49.6084C93.7734 50.1455 93.2485 50.5524 92.6382 50.8291C92.0278 51.1058 91.3158 51.2441 90.502 51.2441C89.7044 51.2441 88.9801 51.0732 88.3291 50.7314C87.6862 50.3896 87.1369 49.9176 86.6812 49.3154C86.2254 48.7132 85.8714 48.0052 85.6191 47.1914C85.3669 46.3695 85.2407 45.4865 85.2407 44.5425V44.2861ZM87.499 44.5425C87.499 45.1854 87.5682 45.7957 87.7065 46.3735C87.8449 46.9513 88.0605 47.46 88.3535 47.8994C88.6383 48.3389 89.0046 48.6888 89.4521 48.9492C89.8997 49.2015 90.4368 49.3276 91.0635 49.3276C91.8203 49.3276 92.4469 49.1567 92.9434 48.8149C93.4398 48.4731 93.8345 48.0133 94.1274 47.4355V41.3076C93.8345 40.7705 93.4398 40.3311 92.9434 39.9893C92.4469 39.6393 91.8285 39.4644 91.0879 39.4644C90.4531 39.4644 89.9079 39.5946 89.4521 39.855C89.0046 40.1154 88.6383 40.4653 88.3535 40.9048C88.0605 41.3524 87.8449 41.8691 87.7065 42.4551C87.5682 43.0329 87.499 43.6432 87.499 44.2861V44.5425ZM100.537 37.792H107.287V49.0469H111.596V51H100.537V49.0469H105.029V39.7573H100.537V37.792ZM104.736 34.3252C104.736 34.1299 104.764 33.9468 104.821 33.7759C104.886 33.605 104.984 33.4585 105.114 33.3364C105.22 33.2306 105.354 33.1493 105.517 33.0923C105.688 33.0272 105.879 32.9946 106.091 32.9946C106.302 32.9946 106.49 33.0272 106.652 33.0923C106.815 33.1493 106.949 33.2306 107.055 33.3364C107.185 33.4504 107.283 33.5928 107.348 33.7637C107.413 33.9346 107.446 34.1217 107.446 34.3252C107.446 34.6914 107.332 34.9966 107.104 35.2407C106.876 35.4849 106.538 35.6069 106.091 35.6069C105.635 35.6069 105.293 35.4849 105.065 35.2407C104.846 34.9966 104.736 34.6914 104.736 34.3252ZM123.376 51C123.287 50.8291 123.214 50.6175 123.157 50.3652C123.108 50.1048 123.071 49.8363 123.047 49.5596C122.819 49.7874 122.563 50.0031 122.278 50.2065C122.001 50.41 121.696 50.589 121.362 50.7437C121.021 50.8983 120.658 51.0203 120.276 51.1099C119.893 51.1994 119.486 51.2441 119.055 51.2441C118.355 51.2441 117.721 51.1424 117.151 50.939C116.589 50.7355 116.113 50.4588 115.723 50.1089C115.324 49.7671 115.015 49.3602 114.795 48.8882C114.583 48.408 114.478 47.8913 114.478 47.3379C114.478 46.6136 114.62 45.9788 114.905 45.4336C115.198 44.8883 115.609 44.4326 116.138 44.0664C116.667 43.7083 117.301 43.4398 118.042 43.2607C118.791 43.0817 119.625 42.9922 120.544 42.9922H123.01V41.9546C123.01 41.5558 122.937 41.1978 122.791 40.8804C122.644 40.563 122.437 40.2904 122.168 40.0625C121.899 39.8428 121.57 39.6719 121.179 39.5498C120.797 39.4277 120.365 39.3667 119.885 39.3667C119.438 39.3667 119.035 39.4237 118.677 39.5376C118.327 39.6515 118.03 39.8021 117.786 39.9893C117.542 40.1764 117.35 40.4002 117.212 40.6606C117.082 40.9129 117.017 41.1774 117.017 41.4541H114.746C114.754 40.974 114.876 40.502 115.112 40.0381C115.356 39.5742 115.706 39.1551 116.162 38.7808C116.61 38.4146 117.155 38.1175 117.798 37.8896C118.449 37.6618 119.185 37.5479 120.007 37.5479C120.756 37.5479 121.452 37.6414 122.095 37.8286C122.738 38.0076 123.295 38.2803 123.767 38.6465C124.231 39.0208 124.597 39.4847 124.866 40.0381C125.134 40.5915 125.269 41.2384 125.269 41.979V48.1191C125.269 48.5586 125.309 49.0265 125.391 49.5229C125.472 50.0112 125.586 50.4385 125.732 50.8047V51H123.376ZM119.385 49.2788C119.824 49.2788 120.235 49.2218 120.618 49.1079C121 48.994 121.35 48.8434 121.667 48.6562C121.977 48.4691 122.245 48.2575 122.473 48.0215C122.701 47.7773 122.88 47.5251 123.01 47.2646V44.5913H120.911C120.129 44.5913 119.446 44.6605 118.86 44.7988C118.282 44.929 117.822 45.1325 117.48 45.4092C117.236 45.6045 117.049 45.8364 116.919 46.105C116.797 46.3735 116.736 46.6787 116.736 47.0205C116.736 47.346 116.789 47.6471 116.895 47.9238C117.008 48.2005 117.175 48.4365 117.395 48.6318C117.615 48.8353 117.891 48.994 118.225 49.1079C118.559 49.2218 118.945 49.2788 119.385 49.2788ZM101.208 118.514H99.8042L110.339 99.2388H111.73L101.208 118.514ZM119.666 105.171L115.308 103.841L115.93 102.486L120.19 104.231L120.837 99.2266H122.253L121.252 104.195L125.903 102.437L126.16 103.89L121.326 105.306L123.926 109.236L122.693 110.066L120.447 105.892L117.029 110.005L115.942 109.126L119.666 105.171ZM146.925 116.011C147.413 116.011 147.885 115.942 148.341 115.804C148.797 115.657 149.212 115.446 149.586 115.169C149.952 114.909 150.27 114.587 150.538 114.205C150.807 113.822 151.01 113.399 151.148 112.935L152.516 112.923C152.385 113.574 152.141 114.168 151.783 114.705C151.425 115.242 150.994 115.694 150.489 116.06C149.977 116.443 149.411 116.74 148.792 116.951C148.174 117.155 147.539 117.252 146.888 117.244C146.27 117.244 145.716 117.155 145.228 116.976C144.748 116.788 144.329 116.536 143.971 116.219C143.588 115.893 143.271 115.507 143.019 115.059C142.774 114.611 142.587 114.123 142.457 113.594C142.343 113.139 142.274 112.662 142.25 112.166C142.233 111.67 142.258 111.169 142.323 110.665L142.396 110.152C142.526 109.297 142.77 108.467 143.128 107.662C143.495 106.848 143.963 106.136 144.532 105.525C145.077 104.923 145.724 104.443 146.473 104.085C147.23 103.719 148.068 103.54 148.988 103.548C149.671 103.556 150.286 103.682 150.831 103.926C151.384 104.162 151.856 104.484 152.247 104.891C152.63 105.314 152.918 105.81 153.114 106.38C153.309 106.95 153.39 107.572 153.358 108.248L152.003 108.235C152.027 107.755 151.974 107.308 151.844 106.893C151.722 106.478 151.531 106.111 151.271 105.794C151.002 105.493 150.668 105.253 150.27 105.074C149.879 104.895 149.435 104.801 148.939 104.793C148.182 104.785 147.511 104.939 146.925 105.257C146.347 105.574 145.847 105.977 145.423 106.465C145.008 106.978 144.667 107.556 144.398 108.199C144.129 108.842 143.938 109.493 143.824 110.152L143.751 110.665C143.694 111.063 143.661 111.474 143.653 111.897C143.653 112.312 143.694 112.715 143.775 113.106C143.84 113.497 143.95 113.867 144.105 114.217C144.26 114.567 144.467 114.872 144.728 115.132C144.98 115.393 145.285 115.604 145.643 115.767C146.009 115.922 146.437 116.003 146.925 116.011ZM169.081 105.037H163.612L161.537 117H160.097L162.16 105.037H156.898L157.094 103.792H169.276L169.081 105.037ZM180.776 103.804L182.265 103.792L179.982 117H178.542L180.41 106.221L171.364 117H169.899L172.17 103.792H173.598L171.706 114.62L180.776 103.804ZM196.34 103.792L194.045 117H192.605L194.668 105.062H189.199L188.296 109.627C188.206 110.123 188.105 110.648 187.991 111.202C187.885 111.755 187.751 112.3 187.588 112.837C187.417 113.383 187.209 113.903 186.965 114.4C186.729 114.896 186.436 115.336 186.086 115.718C185.745 116.101 185.334 116.41 184.854 116.646C184.382 116.874 183.828 116.992 183.193 117H182.632L182.815 115.682H183.242C183.722 115.665 184.133 115.556 184.475 115.352C184.825 115.14 185.122 114.868 185.366 114.534C185.61 114.209 185.814 113.838 185.977 113.423C186.139 113 186.278 112.565 186.392 112.117C186.506 111.678 186.595 111.242 186.66 110.811C186.733 110.372 186.803 109.977 186.868 109.627L187.991 103.792H196.34ZM209.122 103.804L210.611 103.792L208.328 117H206.888L208.755 106.221L199.71 117H198.245L200.516 103.792H201.944L200.052 114.62L209.122 103.804ZM226.64 115.767C227.014 115.556 227.352 115.279 227.653 114.937C227.962 114.595 228.239 114.217 228.483 113.802C228.711 113.403 228.914 112.98 229.093 112.532C229.272 112.085 229.431 111.629 229.569 111.165C229.7 110.709 229.818 110.258 229.923 109.81C230.029 109.362 230.123 108.947 230.204 108.565L231.242 103.792H238.81L236.747 115.755H238.078L237.089 120.882H235.758L236.43 117H226.823L226.151 120.882H224.906L225.675 115.755L226.64 115.767ZM231.645 108.565C231.506 109.208 231.352 109.851 231.181 110.494C231.018 111.137 230.819 111.767 230.583 112.386C230.338 113.004 230.058 113.598 229.74 114.168C229.423 114.738 229.04 115.275 228.593 115.779L235.319 115.755L237.15 105.159H232.377L231.645 108.565ZM253.032 103.792L250.737 117H249.296L251.359 105.062H245.891L244.987 109.627C244.898 110.123 244.796 110.648 244.682 111.202C244.576 111.755 244.442 112.3 244.279 112.837C244.108 113.383 243.901 113.903 243.657 114.4C243.421 114.896 243.128 115.336 242.778 115.718C242.436 116.101 242.025 116.41 241.545 116.646C241.073 116.874 240.52 116.992 239.885 117H239.323L239.506 115.682H239.934C240.414 115.665 240.825 115.556 241.167 115.352C241.516 115.14 241.813 114.868 242.058 114.534C242.302 114.209 242.505 113.838 242.668 113.423C242.831 113 242.969 112.565 243.083 112.117C243.197 111.678 243.286 111.242 243.352 110.811C243.425 110.372 243.494 109.977 243.559 109.627L244.682 103.792H253.032ZM266.924 103.792L264.629 117H263.201L264.116 111.678H259.697L255.535 117H253.862L258.22 111.434C257.878 111.328 257.569 111.181 257.292 110.994C257.024 110.807 256.796 110.587 256.609 110.335C256.34 109.993 256.153 109.607 256.047 109.175C255.942 108.736 255.913 108.272 255.962 107.784C256.043 107.108 256.251 106.522 256.584 106.026C256.918 105.529 257.333 105.114 257.83 104.781C258.318 104.455 258.863 104.211 259.465 104.048C260.068 103.886 260.678 103.8 261.296 103.792H266.924ZM257.39 107.808C257.325 108.199 257.337 108.553 257.427 108.87C257.524 109.188 257.683 109.456 257.903 109.676C258.123 109.904 258.387 110.083 258.696 110.213C259.014 110.335 259.364 110.404 259.746 110.42H264.336L265.264 105.037H261.26C260.828 105.045 260.397 105.106 259.966 105.22C259.543 105.334 259.156 105.505 258.806 105.733C258.448 105.961 258.143 106.246 257.891 106.587C257.638 106.929 257.472 107.336 257.39 107.808ZM294.818 110.494C294.736 111.006 294.618 111.527 294.464 112.056C294.317 112.577 294.126 113.077 293.89 113.558C293.638 114.111 293.325 114.628 292.95 115.108C292.584 115.588 292.165 115.991 291.693 116.316C291.278 116.609 290.822 116.837 290.326 117C289.837 117.171 289.304 117.252 288.727 117.244C288.32 117.244 287.925 117.195 287.542 117.098C287.16 117 286.802 116.858 286.468 116.67C286.2 116.516 285.947 116.333 285.711 116.121C285.484 115.91 285.284 115.665 285.113 115.389L283.905 122.078H282.489L285.65 103.792H286.969L286.639 105.611C286.875 105.334 287.132 105.078 287.408 104.842C287.685 104.598 287.978 104.39 288.287 104.219C288.67 104 289.072 103.833 289.496 103.719C289.919 103.605 290.362 103.548 290.826 103.548C291.428 103.556 291.957 103.658 292.413 103.853C292.869 104.048 293.255 104.309 293.573 104.634C293.89 104.968 294.146 105.354 294.342 105.794C294.545 106.233 294.696 106.697 294.793 107.186C294.883 107.682 294.928 108.191 294.928 108.711C294.936 109.232 294.907 109.741 294.842 110.237L294.818 110.494ZM293.414 110.237C293.471 109.814 293.5 109.375 293.5 108.919C293.508 108.455 293.471 108.007 293.39 107.576C293.316 107.21 293.215 106.872 293.084 106.563C292.954 106.246 292.783 105.965 292.572 105.721C292.336 105.452 292.043 105.241 291.693 105.086C291.343 104.923 290.928 104.838 290.448 104.83C290 104.83 289.573 104.899 289.166 105.037C288.767 105.167 288.397 105.354 288.055 105.599C287.738 105.818 287.445 106.075 287.176 106.368C286.916 106.661 286.684 106.974 286.48 107.308L285.345 113.765C285.451 114.123 285.602 114.441 285.797 114.717C286 114.986 286.236 115.214 286.505 115.401C286.773 115.596 287.07 115.743 287.396 115.84C287.73 115.938 288.084 115.991 288.458 115.999C288.946 116.007 289.394 115.938 289.801 115.792C290.216 115.645 290.59 115.442 290.924 115.181C291.29 114.913 291.611 114.591 291.888 114.217C292.165 113.834 292.405 113.431 292.608 113.008C292.796 112.61 292.954 112.194 293.084 111.763C293.215 111.332 293.312 110.909 293.377 110.494L293.414 110.237ZM306.366 117C306.326 116.666 306.313 116.341 306.33 116.023C306.354 115.698 306.395 115.372 306.452 115.047C306.175 115.34 305.878 115.612 305.561 115.865C305.243 116.109 304.91 116.32 304.56 116.5C304.104 116.744 303.624 116.931 303.119 117.061C302.615 117.191 302.094 117.252 301.557 117.244C301.028 117.236 300.523 117.146 300.043 116.976C299.563 116.797 299.156 116.548 298.822 116.231C298.472 115.914 298.204 115.531 298.017 115.083C297.838 114.628 297.777 114.115 297.833 113.545C297.89 113 298.029 112.516 298.249 112.093C298.468 111.67 298.749 111.299 299.091 110.982C299.424 110.673 299.803 110.412 300.226 110.201C300.649 109.989 301.097 109.814 301.569 109.676C302.041 109.546 302.521 109.452 303.009 109.395C303.506 109.338 303.99 109.31 304.462 109.31H307.331L307.575 107.82C307.64 107.332 307.607 106.901 307.477 106.526C307.355 106.152 307.16 105.835 306.891 105.574C306.623 105.314 306.293 105.118 305.902 104.988C305.512 104.85 305.084 104.781 304.621 104.781C304.181 104.773 303.75 104.826 303.327 104.939C302.903 105.045 302.513 105.208 302.155 105.428C301.797 105.656 301.483 105.936 301.215 106.27C300.954 106.596 300.763 106.982 300.641 107.43L299.213 107.417C299.327 106.783 299.563 106.225 299.921 105.745C300.287 105.257 300.727 104.85 301.239 104.524C301.744 104.199 302.297 103.955 302.899 103.792C303.51 103.621 304.12 103.54 304.73 103.548C305.373 103.548 305.972 103.646 306.525 103.841C307.078 104.028 307.554 104.305 307.953 104.671C308.344 105.045 308.633 105.501 308.82 106.038C309.015 106.567 309.072 107.169 308.991 107.845L307.904 114.229C307.831 114.668 307.794 115.108 307.794 115.547C307.794 115.979 307.823 116.41 307.88 116.841L307.855 117H306.366ZM301.764 115.95C302.261 115.958 302.745 115.901 303.217 115.779C303.689 115.657 304.132 115.478 304.547 115.242C304.946 115.014 305.32 114.742 305.67 114.424C306.028 114.099 306.346 113.741 306.623 113.35L307.135 110.445L304.657 110.433C304.242 110.433 303.799 110.461 303.327 110.518C302.855 110.567 302.399 110.66 301.959 110.799C301.642 110.888 301.337 111.002 301.044 111.141C300.759 111.271 300.499 111.438 300.263 111.641C300.01 111.861 299.795 112.117 299.616 112.41C299.445 112.695 299.331 113.029 299.274 113.411C299.217 113.81 299.245 114.164 299.359 114.473C299.473 114.782 299.648 115.043 299.884 115.254C300.112 115.474 300.389 115.645 300.714 115.767C301.048 115.881 301.398 115.942 301.764 115.95ZM318.073 110.909L315.546 110.896L315.754 109.615L318.098 109.627C318.521 109.619 318.964 109.586 319.428 109.529C319.9 109.464 320.34 109.346 320.747 109.175C321.153 109.004 321.503 108.764 321.796 108.455C322.097 108.146 322.293 107.743 322.382 107.247C322.431 106.937 322.423 106.665 322.358 106.429C322.293 106.193 322.187 105.985 322.041 105.806C321.902 105.652 321.739 105.517 321.552 105.403C321.365 105.289 321.162 105.196 320.942 105.123C320.641 105 320.319 104.915 319.978 104.866C319.644 104.817 319.331 104.793 319.038 104.793C318.598 104.785 318.142 104.83 317.67 104.927C317.198 105.017 316.755 105.163 316.34 105.367C315.925 105.57 315.563 105.835 315.253 106.16C314.944 106.486 314.729 106.88 314.606 107.344L313.142 107.356C313.28 106.681 313.549 106.103 313.947 105.623C314.346 105.143 314.818 104.748 315.363 104.439C315.917 104.13 316.515 103.906 317.158 103.768C317.801 103.629 318.439 103.556 319.074 103.548C319.449 103.556 319.831 103.589 320.222 103.646C320.62 103.694 321.007 103.78 321.381 103.902C321.748 104.024 322.089 104.183 322.407 104.378C322.732 104.565 323.009 104.793 323.237 105.062C323.465 105.338 323.632 105.66 323.737 106.026C323.851 106.384 323.88 106.791 323.823 107.247C323.774 107.662 323.652 108.032 323.457 108.357C323.261 108.675 323.021 108.956 322.736 109.2C322.443 109.444 322.118 109.651 321.76 109.822C321.41 109.993 321.056 110.14 320.698 110.262C320.974 110.343 321.235 110.445 321.479 110.567C321.731 110.689 321.951 110.84 322.138 111.019C322.447 111.287 322.683 111.617 322.846 112.007C323.009 112.39 323.066 112.829 323.017 113.326C322.96 113.822 322.826 114.266 322.614 114.656C322.411 115.047 322.15 115.385 321.833 115.669C321.516 115.954 321.162 116.198 320.771 116.402C320.389 116.605 319.986 116.764 319.562 116.878C319.131 117 318.692 117.09 318.244 117.146C317.805 117.203 317.377 117.232 316.962 117.232C316.328 117.232 315.701 117.155 315.083 117C314.472 116.845 313.927 116.605 313.447 116.28C312.967 115.954 312.576 115.539 312.275 115.035C311.982 114.53 311.844 113.92 311.86 113.204L313.3 113.216C313.251 113.729 313.337 114.16 313.557 114.51C313.785 114.86 314.082 115.14 314.448 115.352C314.806 115.572 315.209 115.735 315.656 115.84C316.112 115.938 316.551 115.991 316.975 115.999C317.422 116.007 317.894 115.971 318.391 115.889C318.895 115.808 319.371 115.661 319.819 115.45C320.25 115.246 320.629 114.974 320.954 114.632C321.28 114.29 321.487 113.863 321.577 113.35C321.642 112.927 321.613 112.577 321.491 112.3C321.369 112.015 321.186 111.784 320.942 111.604C320.763 111.458 320.555 111.34 320.319 111.25C320.091 111.161 319.851 111.092 319.599 111.043C319.347 110.994 319.086 110.962 318.818 110.945C318.557 110.921 318.309 110.909 318.073 110.909ZM337.336 110.494C337.255 111.006 337.137 111.527 336.982 112.056C336.836 112.577 336.645 113.077 336.409 113.558C336.156 114.111 335.843 114.628 335.469 115.108C335.103 115.588 334.683 115.991 334.211 116.316C333.796 116.609 333.341 116.837 332.844 117C332.356 117.171 331.823 117.252 331.245 117.244C330.838 117.244 330.444 117.195 330.061 117.098C329.679 117 329.32 116.858 328.987 116.67C328.718 116.516 328.466 116.333 328.23 116.121C328.002 115.91 327.803 115.665 327.632 115.389L326.423 122.078H325.007L328.169 103.792H329.487L329.158 105.611C329.394 105.334 329.65 105.078 329.927 104.842C330.203 104.598 330.496 104.39 330.806 104.219C331.188 104 331.591 103.833 332.014 103.719C332.437 103.605 332.881 103.548 333.345 103.548C333.947 103.556 334.476 103.658 334.932 103.853C335.387 104.048 335.774 104.309 336.091 104.634C336.409 104.968 336.665 105.354 336.86 105.794C337.064 106.233 337.214 106.697 337.312 107.186C337.402 107.682 337.446 108.191 337.446 108.711C337.454 109.232 337.426 109.741 337.361 110.237L337.336 110.494ZM335.933 110.237C335.99 109.814 336.018 109.375 336.018 108.919C336.026 108.455 335.99 108.007 335.908 107.576C335.835 107.21 335.733 106.872 335.603 106.563C335.473 106.246 335.302 105.965 335.09 105.721C334.854 105.452 334.561 105.241 334.211 105.086C333.861 104.923 333.446 104.838 332.966 104.83C332.519 104.83 332.091 104.899 331.685 105.037C331.286 105.167 330.916 105.354 330.574 105.599C330.256 105.818 329.963 106.075 329.695 106.368C329.434 106.661 329.202 106.974 328.999 107.308L327.864 113.765C327.97 114.123 328.12 114.441 328.315 114.717C328.519 114.986 328.755 115.214 329.023 115.401C329.292 115.596 329.589 115.743 329.915 115.84C330.248 115.938 330.602 115.991 330.977 115.999C331.465 116.007 331.912 115.938 332.319 115.792C332.734 115.645 333.109 115.442 333.442 115.181C333.809 114.913 334.13 114.591 334.407 114.217C334.683 113.834 334.924 113.431 335.127 113.008C335.314 112.61 335.473 112.194 335.603 111.763C335.733 111.332 335.831 110.909 335.896 110.494L335.933 110.237ZM345.564 117.244C344.653 117.236 343.855 117.037 343.172 116.646C342.496 116.255 341.951 115.747 341.536 115.12C341.146 114.542 340.865 113.875 340.694 113.118C340.531 112.361 340.499 111.584 340.596 110.787L340.669 110.25C340.751 109.696 340.889 109.147 341.084 108.602C341.28 108.048 341.528 107.519 341.829 107.015C342.13 106.518 342.476 106.058 342.867 105.635C343.257 105.204 343.689 104.834 344.161 104.524C344.633 104.215 345.141 103.975 345.687 103.804C346.24 103.625 346.822 103.54 347.432 103.548C348.278 103.556 348.999 103.735 349.593 104.085C350.187 104.427 350.667 104.882 351.033 105.452C351.391 106.014 351.631 106.657 351.753 107.381C351.875 108.105 351.888 108.846 351.79 109.603L351.644 110.494H342.085C341.947 111.234 341.923 111.922 342.012 112.557C342.102 113.191 342.317 113.785 342.659 114.339C342.952 114.827 343.351 115.222 343.855 115.523C344.368 115.824 344.966 115.983 345.65 115.999C346.456 116.015 347.2 115.861 347.884 115.535C348.567 115.21 349.19 114.77 349.751 114.217L350.606 114.937C349.987 115.686 349.235 116.259 348.348 116.658C347.469 117.057 346.541 117.252 345.564 117.244ZM347.383 104.805C346.732 104.789 346.134 104.911 345.589 105.171C345.052 105.424 344.576 105.757 344.161 106.172C343.729 106.587 343.359 107.063 343.05 107.601C342.741 108.138 342.484 108.687 342.281 109.249L350.386 109.261L350.423 109.065C350.521 108.545 350.525 108.032 350.435 107.527C350.346 107.015 350.171 106.559 349.91 106.16C349.642 105.761 349.296 105.44 348.873 105.196C348.449 104.944 347.953 104.813 347.383 104.805ZM357.21 103.792L355.147 115.755H358.712L360.787 103.792H362.191L360.116 115.755H363.644L365.731 103.792H367.123L364.84 117H353.536L355.819 103.792H357.21ZM373.91 117.244C372.999 117.236 372.201 117.037 371.518 116.646C370.842 116.255 370.297 115.747 369.882 115.12C369.491 114.542 369.21 113.875 369.04 113.118C368.877 112.361 368.844 111.584 368.942 110.787L369.015 110.25C369.097 109.696 369.235 109.147 369.43 108.602C369.625 108.048 369.874 107.519 370.175 107.015C370.476 106.518 370.822 106.058 371.212 105.635C371.603 105.204 372.034 104.834 372.506 104.524C372.978 104.215 373.487 103.975 374.032 103.804C374.586 103.625 375.167 103.54 375.778 103.548C376.624 103.556 377.344 103.735 377.938 104.085C378.533 104.427 379.013 104.882 379.379 105.452C379.737 106.014 379.977 106.657 380.099 107.381C380.221 108.105 380.233 108.846 380.136 109.603L379.989 110.494H370.431C370.293 111.234 370.268 111.922 370.358 112.557C370.447 113.191 370.663 113.785 371.005 114.339C371.298 114.827 371.697 115.222 372.201 115.523C372.714 115.824 373.312 115.983 373.996 115.999C374.801 116.015 375.546 115.861 376.229 115.535C376.913 115.21 377.536 114.77 378.097 114.217L378.952 114.937C378.333 115.686 377.58 116.259 376.693 116.658C375.814 117.057 374.887 117.252 373.91 117.244ZM375.729 104.805C375.078 104.789 374.48 104.911 373.935 105.171C373.397 105.424 372.921 105.757 372.506 106.172C372.075 106.587 371.705 107.063 371.396 107.601C371.086 108.138 370.83 108.687 370.626 109.249L378.732 109.261L378.769 109.065C378.866 108.545 378.87 108.032 378.781 107.527C378.691 107.015 378.516 106.559 378.256 106.16C377.987 105.761 377.641 105.44 377.218 105.196C376.795 104.944 376.299 104.813 375.729 104.805ZM392.575 117H391.135L392.185 110.945H384.958L383.908 117H382.48L384.763 103.792H386.191L385.166 109.7H392.392L393.417 103.792H394.858L392.575 117ZM407.542 103.804L409.031 103.792L406.748 117H405.308L407.175 106.221L398.13 117H396.665L398.936 103.792H400.364L398.472 114.62L407.542 103.804ZM422.825 103.792L420.53 117H419.102L420.018 111.678H415.599L411.436 117H409.764L414.122 111.434C413.78 111.328 413.471 111.181 413.194 110.994C412.925 110.807 412.697 110.587 412.51 110.335C412.242 109.993 412.055 109.607 411.949 109.175C411.843 108.736 411.814 108.272 411.863 107.784C411.945 107.108 412.152 106.522 412.486 106.026C412.819 105.529 413.235 105.114 413.731 104.781C414.219 104.455 414.764 104.211 415.367 104.048C415.969 103.886 416.579 103.8 417.198 103.792H422.825ZM413.292 107.808C413.226 108.199 413.239 108.553 413.328 108.87C413.426 109.188 413.584 109.456 413.804 109.676C414.024 109.904 414.288 110.083 414.598 110.213C414.915 110.335 415.265 110.404 415.647 110.42H420.237L421.165 105.037H417.161C416.73 105.045 416.299 105.106 415.867 105.22C415.444 105.334 415.057 105.505 414.708 105.733C414.349 105.961 414.044 106.246 413.792 106.587C413.54 106.929 413.373 107.336 413.292 107.808ZM439.672 110.25C439.802 109.371 440.054 108.52 440.429 107.698C440.811 106.876 441.299 106.152 441.894 105.525C442.463 104.931 443.126 104.451 443.883 104.085C444.64 103.719 445.482 103.54 446.41 103.548C447.037 103.556 447.602 103.658 448.107 103.853C448.611 104.04 449.047 104.297 449.413 104.622C449.747 104.923 450.036 105.273 450.28 105.672C450.524 106.071 450.719 106.498 450.866 106.954C451.012 107.45 451.106 107.975 451.146 108.528C451.195 109.082 451.183 109.635 451.11 110.188L451.049 110.591C450.919 111.446 450.666 112.276 450.292 113.082C449.926 113.879 449.458 114.587 448.888 115.206C448.31 115.832 447.635 116.333 446.862 116.707C446.097 117.073 445.246 117.252 444.311 117.244C443.66 117.236 443.074 117.13 442.553 116.927C442.04 116.715 441.597 116.434 441.222 116.084C440.913 115.792 440.644 115.458 440.417 115.083C440.189 114.709 440.01 114.31 439.879 113.887C439.717 113.391 439.611 112.866 439.562 112.312C439.521 111.759 439.538 111.202 439.611 110.64L439.672 110.25ZM441.039 110.64C440.95 111.259 440.941 111.897 441.015 112.557C441.088 113.208 441.267 113.798 441.552 114.327C441.804 114.815 442.162 115.214 442.626 115.523C443.098 115.832 443.676 115.995 444.359 116.011C445.1 116.019 445.767 115.865 446.361 115.547C446.964 115.23 447.488 114.811 447.936 114.29C448.375 113.777 448.742 113.183 449.035 112.508C449.328 111.824 449.523 111.185 449.621 110.591L449.682 110.188C449.771 109.537 449.771 108.866 449.682 108.174C449.592 107.483 449.381 106.872 449.047 106.343C448.778 105.896 448.424 105.529 447.985 105.245C447.545 104.96 447.004 104.809 446.361 104.793C445.621 104.785 444.949 104.944 444.347 105.269C443.745 105.586 443.224 106.006 442.785 106.526C442.345 107.047 441.983 107.633 441.698 108.284C441.413 108.935 441.214 109.59 441.1 110.25L441.039 110.64ZM466.711 105.037H461.242L459.167 117H457.727L459.79 105.037H454.528L454.724 103.792H466.906L466.711 105.037ZM495.032 100.13L485.071 117H483.521L493.396 100.545H483.631L483.826 99.2266H495.167L495.032 100.13ZM506.751 99.0923L506.605 100.435H506.422C505.681 100.435 504.99 100.525 504.347 100.704C503.704 100.883 503.114 101.131 502.577 101.448C502.031 101.782 501.535 102.177 501.087 102.632C500.64 103.088 500.237 103.593 499.879 104.146C499.553 104.659 499.264 105.208 499.012 105.794C498.768 106.38 498.556 106.982 498.377 107.601C498.654 107.267 498.959 106.962 499.293 106.685C499.627 106.408 499.985 106.172 500.367 105.977C500.758 105.774 501.169 105.615 501.6 105.501C502.04 105.379 502.491 105.322 502.955 105.33C503.753 105.338 504.432 105.513 504.994 105.855C505.563 106.189 506.019 106.628 506.361 107.173C506.703 107.719 506.935 108.337 507.057 109.029C507.187 109.721 507.207 110.42 507.118 111.128C507.028 111.926 506.817 112.703 506.483 113.46C506.157 114.209 505.738 114.864 505.226 115.425C504.705 115.987 504.107 116.434 503.431 116.768C502.764 117.094 502.019 117.252 501.197 117.244C500.31 117.236 499.549 117.041 498.915 116.658C498.28 116.268 497.767 115.763 497.376 115.145C496.986 114.526 496.717 113.83 496.571 113.057C496.432 112.284 496.412 111.503 496.51 110.713L496.742 109.151C496.88 108.272 497.079 107.413 497.34 106.575C497.608 105.729 497.942 104.931 498.341 104.183C498.731 103.442 499.195 102.763 499.732 102.144C500.27 101.526 500.876 100.988 501.551 100.533C502.227 100.085 502.975 99.7352 503.797 99.4829C504.627 99.2306 505.527 99.1004 506.495 99.0923H506.751ZM502.699 106.6C502.235 106.591 501.763 106.665 501.283 106.819C500.811 106.966 500.371 107.173 499.964 107.442C499.549 107.71 499.179 108.032 498.854 108.406C498.536 108.772 498.292 109.175 498.121 109.615L497.95 110.75C497.918 111.051 497.897 111.368 497.889 111.702C497.889 112.036 497.914 112.365 497.962 112.691C498.019 113.049 498.105 113.399 498.219 113.741C498.341 114.074 498.495 114.38 498.683 114.656C498.951 115.055 499.297 115.376 499.72 115.621C500.143 115.865 500.652 115.991 501.246 115.999C501.889 115.999 502.467 115.857 502.979 115.572C503.492 115.287 503.94 114.917 504.322 114.461C504.697 113.997 505.002 113.48 505.238 112.911C505.474 112.333 505.632 111.755 505.714 111.177C505.787 110.648 505.787 110.115 505.714 109.578C505.649 109.033 505.494 108.541 505.25 108.101C505.006 107.662 504.676 107.304 504.261 107.027C503.846 106.75 503.325 106.608 502.699 106.6ZM522.719 103.743C522.654 104.264 522.511 104.74 522.292 105.171C522.08 105.603 521.815 105.989 521.498 106.331C521.173 106.673 520.806 106.978 520.399 107.247C519.993 107.515 519.561 107.739 519.105 107.918C519.537 108.105 519.923 108.345 520.265 108.638C520.615 108.931 520.908 109.261 521.144 109.627C521.364 110.001 521.522 110.408 521.62 110.848C521.726 111.287 521.75 111.751 521.693 112.239C521.596 113.021 521.36 113.724 520.985 114.351C520.611 114.97 520.143 115.494 519.582 115.926C519.02 116.357 518.385 116.687 517.677 116.915C516.969 117.142 516.237 117.252 515.48 117.244C514.764 117.236 514.097 117.118 513.478 116.89C512.86 116.662 512.326 116.337 511.879 115.914C511.439 115.49 511.11 114.978 510.89 114.375C510.679 113.773 510.618 113.094 510.707 112.337C510.788 111.767 510.947 111.246 511.183 110.774C511.419 110.302 511.72 109.879 512.086 109.505C512.444 109.131 512.855 108.809 513.319 108.541C513.783 108.264 514.271 108.032 514.784 107.845C514.434 107.666 514.117 107.45 513.832 107.198C513.555 106.945 513.323 106.661 513.136 106.343C512.925 105.985 512.774 105.599 512.685 105.184C512.603 104.76 512.587 104.317 512.636 103.853C512.717 103.121 512.925 102.453 513.258 101.851C513.592 101.249 514.015 100.736 514.528 100.313C515.041 99.8817 515.622 99.5521 516.273 99.3242C516.924 99.0882 517.616 98.9743 518.349 98.9824C519.032 98.9906 519.659 99.1126 520.229 99.3486C520.806 99.5846 521.295 99.9102 521.693 100.325C522.092 100.748 522.385 101.253 522.572 101.839C522.759 102.417 522.808 103.051 522.719 103.743ZM520.253 112.239C520.342 111.702 520.314 111.206 520.167 110.75C520.021 110.286 519.797 109.891 519.496 109.566C519.179 109.232 518.796 108.976 518.349 108.797C517.901 108.61 517.413 108.512 516.884 108.504C516.314 108.496 515.761 108.585 515.224 108.772C514.695 108.951 514.219 109.212 513.795 109.554C513.364 109.896 513.002 110.306 512.709 110.787C512.424 111.259 512.237 111.779 512.147 112.349C512.066 112.903 512.095 113.407 512.233 113.863C512.371 114.31 512.595 114.689 512.904 114.998C513.214 115.315 513.592 115.564 514.04 115.743C514.495 115.914 514.992 115.999 515.529 115.999C516.098 116.007 516.648 115.926 517.177 115.755C517.706 115.576 518.186 115.324 518.617 114.998C519.04 114.673 519.398 114.278 519.691 113.814C519.984 113.342 520.172 112.817 520.253 112.239ZM521.278 103.731C521.352 103.251 521.327 102.799 521.205 102.376C521.091 101.953 520.9 101.578 520.631 101.253C520.355 100.944 520.017 100.7 519.618 100.521C519.219 100.333 518.776 100.236 518.288 100.228C517.759 100.228 517.254 100.317 516.774 100.496C516.302 100.675 515.879 100.923 515.504 101.241C515.122 101.566 514.805 101.953 514.552 102.4C514.308 102.848 514.145 103.328 514.064 103.841C513.991 104.329 514.011 104.785 514.125 105.208C514.247 105.623 514.442 105.981 514.711 106.282C514.979 106.583 515.313 106.823 515.712 107.002C516.111 107.173 516.554 107.259 517.042 107.259C517.555 107.267 518.052 107.186 518.532 107.015C519.012 106.844 519.443 106.6 519.826 106.282C520.208 105.965 520.526 105.59 520.778 105.159C521.03 104.728 521.197 104.252 521.278 103.731ZM535.756 110.494C535.675 111.006 535.557 111.527 535.402 112.056C535.256 112.577 535.065 113.077 534.829 113.558C534.576 114.111 534.263 114.628 533.889 115.108C533.522 115.588 533.103 115.991 532.631 116.316C532.216 116.609 531.761 116.837 531.264 117C530.776 117.171 530.243 117.252 529.665 117.244C529.258 117.244 528.863 117.195 528.481 117.098C528.098 117 527.74 116.858 527.407 116.67C527.138 116.516 526.886 116.333 526.65 116.121C526.422 115.91 526.223 115.665 526.052 115.389L524.843 122.078H523.427L526.589 103.792H527.907L527.578 105.611C527.814 105.334 528.07 105.078 528.347 104.842C528.623 104.598 528.916 104.39 529.226 104.219C529.608 104 530.011 103.833 530.434 103.719C530.857 103.605 531.301 103.548 531.765 103.548C532.367 103.556 532.896 103.658 533.352 103.853C533.807 104.048 534.194 104.309 534.511 104.634C534.829 104.968 535.085 105.354 535.28 105.794C535.484 106.233 535.634 106.697 535.732 107.186C535.821 107.682 535.866 108.191 535.866 108.711C535.874 109.232 535.846 109.741 535.781 110.237L535.756 110.494ZM534.353 110.237C534.41 109.814 534.438 109.375 534.438 108.919C534.446 108.455 534.41 108.007 534.328 107.576C534.255 107.21 534.153 106.872 534.023 106.563C533.893 106.246 533.722 105.965 533.51 105.721C533.274 105.452 532.981 105.241 532.631 105.086C532.281 104.923 531.866 104.838 531.386 104.83C530.939 104.83 530.511 104.899 530.104 105.037C529.706 105.167 529.335 105.354 528.994 105.599C528.676 105.818 528.383 106.075 528.115 106.368C527.854 106.661 527.622 106.974 527.419 107.308L526.284 113.765C526.389 114.123 526.54 114.441 526.735 114.717C526.939 114.986 527.175 115.214 527.443 115.401C527.712 115.596 528.009 115.743 528.334 115.84C528.668 115.938 529.022 115.991 529.396 115.999C529.885 116.007 530.332 115.938 530.739 115.792C531.154 115.645 531.529 115.442 531.862 115.181C532.229 114.913 532.55 114.591 532.827 114.217C533.103 113.834 533.343 113.431 533.547 113.008C533.734 112.61 533.893 112.194 534.023 111.763C534.153 111.332 534.251 110.909 534.316 110.494L534.353 110.237ZM544.839 109.163L549.661 103.804H551.467L545.522 110.335L549.526 117H547.927L544.619 111.397L539.565 117H537.771L543.948 110.201L540.103 103.78H541.714L544.839 109.163ZM573.197 105.171L568.839 103.841L569.461 102.486L573.722 104.231L574.369 99.2266H575.785L574.784 104.195L579.435 102.437L579.691 103.89L574.857 105.306L577.457 109.236L576.224 110.066L573.978 105.892L570.56 110.005L569.474 109.126L573.197 105.171ZM583.085 118.514H581.681L592.216 99.2388H593.607L583.085 118.514Z" fill="#0066FF"/>
<path d="M145.96 43.7856C145.96 42.6219 146.05 41.5273 146.229 40.502C146.416 39.4766 146.664 38.5244 146.974 37.6455C147.283 36.7747 147.637 35.9772 148.036 35.2529C148.443 34.5286 148.87 33.8857 149.317 33.3242C149.757 32.7627 150.2 32.2826 150.648 31.8838C151.096 31.485 151.523 31.1717 151.93 30.9438L152.406 32.4331C152.145 32.6284 151.881 32.8644 151.612 33.1411C151.352 33.4178 151.096 33.7271 150.843 34.0688C150.469 34.5978 150.111 35.2204 149.769 35.9365C149.427 36.6445 149.142 37.4217 148.915 38.2681C148.695 39.033 148.524 39.8753 148.402 40.7949C148.28 41.7145 148.219 42.7033 148.219 43.7612V43.9321C148.219 44.9494 148.276 45.9015 148.39 46.7886C148.504 47.6756 148.658 48.4935 148.854 49.2422C149.065 49.999 149.309 50.6989 149.586 51.3418C149.863 51.9928 150.152 52.5747 150.453 53.0874C150.762 53.5757 151.079 54.007 151.405 54.3813C151.738 54.7638 152.072 55.0894 152.406 55.3579L151.93 56.7373C151.523 56.5094 151.091 56.1961 150.636 55.7974C150.188 55.4067 149.745 54.9266 149.305 54.3569C148.858 53.7954 148.43 53.1525 148.023 52.4282C147.625 51.7121 147.275 50.9146 146.974 50.0356C146.664 49.1649 146.416 48.2168 146.229 47.1914C146.05 46.166 145.96 45.0715 145.96 43.9077V43.7856ZM159.279 37.792L159.34 39.0371C159.608 38.5732 159.958 38.2111 160.39 37.9507C160.829 37.6903 161.358 37.556 161.977 37.5479C162.326 37.5479 162.64 37.5885 162.917 37.6699C163.201 37.7432 163.45 37.853 163.661 37.9995C163.816 38.1134 163.954 38.2518 164.076 38.4146C164.206 38.5773 164.316 38.7604 164.406 38.9639C164.52 38.7767 164.654 38.6017 164.809 38.439C164.963 38.2762 165.13 38.1338 165.309 38.0117C165.537 37.8734 165.789 37.7635 166.066 37.6821C166.351 37.6007 166.66 37.556 166.994 37.5479C167.449 37.5479 167.86 37.617 168.227 37.7554C168.593 37.8856 168.902 38.0809 169.154 38.3413C169.431 38.6343 169.643 39.0168 169.789 39.4888C169.936 39.9526 170.009 40.502 170.009 41.1367V51H167.86V41.1123C167.86 40.8356 167.828 40.5915 167.763 40.3799C167.698 40.1683 167.604 39.9933 167.482 39.855C167.352 39.7248 167.189 39.6271 166.994 39.562C166.806 39.4969 166.587 39.4644 166.334 39.4644C166.066 39.4644 165.834 39.501 165.639 39.5742C165.443 39.6475 165.281 39.7451 165.15 39.8672C165.02 39.9974 164.918 40.1479 164.845 40.3188C164.772 40.4816 164.723 40.6647 164.699 40.8682C164.699 40.9089 164.699 40.9495 164.699 40.9902C164.699 41.0228 164.699 41.0635 164.699 41.1123V51H162.55V41.1001C162.55 40.8234 162.518 40.5793 162.453 40.3677C162.396 40.1561 162.302 39.9811 162.172 39.8428C162.05 39.7126 161.895 39.619 161.708 39.562C161.529 39.4969 161.317 39.4644 161.073 39.4644C160.805 39.4644 160.569 39.4969 160.365 39.562C160.17 39.619 160.003 39.7044 159.865 39.8184C159.759 39.9079 159.665 40.0096 159.584 40.1235C159.511 40.2375 159.45 40.3595 159.401 40.4897V51H157.252V37.792H159.279ZM173.11 37.792H179.86V49.0469H184.169V51H173.11V49.0469H177.602V39.7573H173.11V37.792ZM177.309 34.3252C177.309 34.1299 177.338 33.9468 177.395 33.7759C177.46 33.605 177.557 33.4585 177.688 33.3364C177.793 33.2306 177.928 33.1493 178.09 33.0923C178.261 33.0272 178.452 32.9946 178.664 32.9946C178.876 32.9946 179.063 33.0272 179.226 33.0923C179.388 33.1493 179.523 33.2306 179.628 33.3364C179.759 33.4504 179.856 33.5928 179.921 33.7637C179.986 33.9346 180.019 34.1217 180.019 34.3252C180.019 34.6914 179.905 34.9966 179.677 35.2407C179.449 35.4849 179.112 35.6069 178.664 35.6069C178.208 35.6069 177.867 35.4849 177.639 35.2407C177.419 34.9966 177.309 34.6914 177.309 34.3252ZM187.271 51V37.792H189.297L189.456 39.7451C189.651 39.4684 189.862 39.2161 190.09 38.9883C190.326 38.7523 190.575 38.5488 190.835 38.3779C191.226 38.1175 191.649 37.9181 192.104 37.7798C192.568 37.6333 193.057 37.556 193.569 37.5479C194.261 37.5479 194.888 37.6455 195.449 37.8408C196.019 38.0361 196.503 38.3413 196.902 38.7563C197.301 39.1714 197.606 39.7004 197.817 40.3433C198.037 40.978 198.147 41.7349 198.147 42.6138V51H195.889V42.6626C195.889 42.0767 195.824 41.5802 195.693 41.1733C195.563 40.7664 195.372 40.4368 195.12 40.1846C194.859 39.9323 194.542 39.7492 194.167 39.6353C193.801 39.5213 193.378 39.4644 192.898 39.4644C192.483 39.4644 192.096 39.5254 191.738 39.6475C191.38 39.7614 191.051 39.9201 190.75 40.1235C190.505 40.3026 190.278 40.5101 190.066 40.7461C189.862 40.9821 189.683 41.2425 189.529 41.5273V51H187.271ZM211.661 44.1519H202.322V42.2964H211.661V44.1519ZM217.569 51L214.762 37.792H216.764L218.302 46.2148L218.57 48.1069L218.9 46.2148L221.012 37.792H222.464L224.564 46.2148L224.918 48.29L225.248 46.2148L226.712 37.792H228.714L225.907 51H224.125L222.062 42.9067L221.72 40.856L221.39 42.9067L219.352 51H217.569ZM231.168 37.792H237.919V49.0469H242.228V51H231.168V49.0469H235.661V39.7573H231.168V37.792ZM235.368 34.3252C235.368 34.1299 235.396 33.9468 235.453 33.7759C235.518 33.605 235.616 33.4585 235.746 33.3364C235.852 33.2306 235.986 33.1493 236.149 33.0923C236.32 33.0272 236.511 32.9946 236.723 32.9946C236.934 32.9946 237.121 33.0272 237.284 33.0923C237.447 33.1493 237.581 33.2306 237.687 33.3364C237.817 33.4504 237.915 33.5928 237.98 33.7637C238.045 33.9346 238.078 34.1217 238.078 34.3252C238.078 34.6914 237.964 34.9966 237.736 35.2407C237.508 35.4849 237.17 35.6069 236.723 35.6069C236.267 35.6069 235.925 35.4849 235.697 35.2407C235.478 34.9966 235.368 34.6914 235.368 34.3252ZM244.902 44.2861C244.902 43.3014 245.024 42.3981 245.268 41.5762C245.52 40.7461 245.878 40.034 246.342 39.4399C246.798 38.8459 247.351 38.382 248.002 38.0483C248.653 37.7147 249.382 37.5479 250.188 37.5479C250.977 37.5479 251.665 37.6821 252.25 37.9507C252.845 38.2111 253.357 38.5936 253.789 39.0981V32.25H256.047V51H253.972L253.874 49.6084C253.435 50.1455 252.91 50.5524 252.299 50.8291C251.689 51.1058 250.977 51.2441 250.163 51.2441C249.366 51.2441 248.641 51.0732 247.99 50.7314C247.347 50.3896 246.798 49.9176 246.342 49.3154C245.887 48.7132 245.533 48.0052 245.28 47.1914C245.028 46.3695 244.902 45.4865 244.902 44.5425V44.2861ZM247.16 44.5425C247.16 45.1854 247.229 45.7957 247.368 46.3735C247.506 46.9513 247.722 47.46 248.015 47.8994C248.299 48.3389 248.666 48.6888 249.113 48.9492C249.561 49.2015 250.098 49.3276 250.725 49.3276C251.481 49.3276 252.108 49.1567 252.604 48.8149C253.101 48.4731 253.496 48.0133 253.789 47.4355V41.3076C253.496 40.7705 253.101 40.3311 252.604 39.9893C252.108 39.6393 251.49 39.4644 250.749 39.4644C250.114 39.4644 249.569 39.5946 249.113 39.855C248.666 40.1154 248.299 40.4653 248.015 40.9048C247.722 41.3524 247.506 41.8691 247.368 42.4551C247.229 43.0329 247.16 43.6432 247.16 44.2861V44.5425ZM265.19 34.5938V37.792H270.22V39.5376H265.19V46.7153C265.19 47.228 265.256 47.6512 265.386 47.9849C265.516 48.3185 265.695 48.583 265.923 48.7783C266.151 48.9818 266.411 49.1242 266.704 49.2056C267.005 49.2869 267.323 49.3276 267.656 49.3276C267.9 49.3276 268.153 49.3154 268.413 49.291C268.674 49.2585 268.93 49.2218 269.182 49.1812C269.426 49.1405 269.654 49.0998 269.866 49.0591C270.085 49.0103 270.264 48.9696 270.403 48.937L270.72 50.5361C270.533 50.6501 270.305 50.7518 270.037 50.8413C269.768 50.9227 269.475 50.9919 269.158 51.0488C268.84 51.1139 268.503 51.1628 268.145 51.1953C267.795 51.2279 267.445 51.2441 267.095 51.2441C266.509 51.2441 265.959 51.1628 265.447 51C264.942 50.8291 264.503 50.5605 264.128 50.1943C263.754 49.8363 263.457 49.3724 263.237 48.8027C263.026 48.2249 262.92 47.5291 262.92 46.7153V39.5376H259.453V37.792H262.92V34.5938H265.19ZM276.617 39.7573C276.796 39.4888 276.995 39.2446 277.215 39.0249C277.435 38.797 277.667 38.5977 277.911 38.4268C278.301 38.1419 278.729 37.9263 279.192 37.7798C279.664 37.6333 280.165 37.556 280.694 37.5479C281.386 37.5479 282.012 37.6496 282.574 37.853C283.143 38.0483 283.628 38.3576 284.026 38.7808C284.425 39.2039 284.73 39.741 284.942 40.3921C285.162 41.035 285.271 41.8 285.271 42.687V51H283.013V42.6626C283.013 42.1418 282.952 41.686 282.83 41.2954C282.708 40.8966 282.529 40.5671 282.293 40.3066C282.041 40.0218 281.723 39.8102 281.341 39.6719C280.958 39.5254 280.519 39.4562 280.022 39.4644C279.616 39.4644 279.229 39.5213 278.863 39.6353C278.497 39.7492 278.159 39.9119 277.85 40.1235C277.605 40.2863 277.378 40.4775 277.166 40.6973C276.963 40.9089 276.779 41.1449 276.617 41.4053V51H274.358V32.25H276.617V39.7573ZM293.414 49.5352C293.414 49.055 293.561 48.644 293.854 48.3022C294.146 47.9604 294.59 47.7896 295.184 47.7896C295.77 47.7896 296.214 47.9604 296.515 48.3022C296.824 48.6359 296.979 49.0469 296.979 49.5352C296.979 50.0153 296.824 50.4181 296.515 50.7437C296.205 51.0692 295.762 51.2319 295.184 51.2319C294.598 51.2319 294.155 51.0692 293.854 50.7437C293.561 50.41 293.414 50.0072 293.414 49.5352ZM293.414 38.8418C293.414 38.3617 293.561 37.9507 293.854 37.6089C294.146 37.2671 294.59 37.0962 295.184 37.0962C295.77 37.0962 296.214 37.2671 296.515 37.6089C296.824 37.9425 296.979 38.3535 296.979 38.8418C296.979 39.3219 296.824 39.7248 296.515 40.0503C296.205 40.3758 295.762 40.5386 295.184 40.5386C294.598 40.5386 294.155 40.3758 293.854 40.0503C293.561 39.7166 293.414 39.3138 293.414 38.8418ZM329.157 34.4961L321.796 51H319.428L326.765 35.2041H317.146V33.2266H329.157V34.4961ZM340.742 33.2144V35.2407H340.547C339.473 35.2407 338.561 35.3953 337.812 35.7046C337.064 36.0057 336.445 36.4126 335.957 36.9253C335.444 37.4624 335.054 38.1012 334.785 38.8418C334.525 39.5824 334.37 40.3433 334.321 41.1245C334.533 40.8722 334.777 40.6403 335.054 40.4287C335.33 40.209 335.632 40.0177 335.957 39.855C336.274 39.7004 336.616 39.5783 336.982 39.4888C337.357 39.3911 337.747 39.3423 338.154 39.3423C339.041 39.3423 339.806 39.5132 340.449 39.855C341.092 40.1886 341.621 40.6322 342.036 41.1855C342.451 41.7389 342.756 42.3656 342.952 43.0654C343.147 43.7653 343.245 44.4774 343.245 45.2017C343.245 46.0317 343.127 46.813 342.891 47.5454C342.663 48.2778 342.317 48.9167 341.853 49.4619C341.389 50.0153 340.811 50.4507 340.12 50.7681C339.436 51.0854 338.643 51.2441 337.739 51.2441C336.828 51.2441 336.026 51.061 335.334 50.6948C334.643 50.3286 334.061 49.8525 333.589 49.2666C333.06 48.6237 332.665 47.875 332.405 47.0205C332.144 46.1579 332.014 45.2952 332.014 44.4326V43.3706C332.014 41.8895 332.189 40.4328 332.539 39.0005C332.889 37.5682 333.573 36.3434 334.59 35.3262C335.29 34.6263 336.14 34.1014 337.141 33.7515C338.142 33.3934 339.277 33.2144 340.547 33.2144H340.742ZM337.788 41.2222C337.406 41.2222 337.035 41.2832 336.677 41.4053C336.319 41.5273 335.986 41.6982 335.676 41.918C335.367 42.1377 335.094 42.4022 334.858 42.7114C334.622 43.0207 334.435 43.3625 334.297 43.7368V44.4937C334.297 45.2749 334.39 45.9707 334.578 46.5811C334.765 47.1833 335.017 47.6919 335.334 48.1069C335.652 48.522 336.018 48.8394 336.433 49.0591C336.848 49.2707 337.284 49.3765 337.739 49.3765C338.268 49.3765 338.736 49.2747 339.143 49.0713C339.55 48.8678 339.896 48.5871 340.181 48.229C340.457 47.8709 340.665 47.4437 340.803 46.9473C340.95 46.4427 341.023 45.8975 341.023 45.3115C341.023 44.7907 340.958 44.2861 340.828 43.7979C340.697 43.3014 340.498 42.862 340.229 42.4795C339.961 42.097 339.623 41.7918 339.216 41.564C338.809 41.3361 338.333 41.2222 337.788 41.2222ZM357.869 37.8652C357.861 38.4593 357.747 39.0168 357.527 39.5376C357.308 40.0503 357.002 40.502 356.612 40.8926C356.425 41.0798 356.217 41.2547 355.989 41.4175C355.761 41.5802 355.517 41.7267 355.257 41.8569C355.713 42.0522 356.124 42.2964 356.49 42.5894C356.864 42.8742 357.186 43.2038 357.454 43.5781C357.715 43.9525 357.914 44.3594 358.052 44.7988C358.199 45.2383 358.272 45.7062 358.272 46.2026C358.272 47.0083 358.121 47.7244 357.82 48.3511C357.527 48.9777 357.129 49.5026 356.624 49.9258C356.111 50.3571 355.513 50.6867 354.83 50.9146C354.146 51.1343 353.414 51.2441 352.632 51.2441C351.835 51.2441 351.09 51.1343 350.398 50.9146C349.715 50.6948 349.121 50.3693 348.616 49.938C348.104 49.5148 347.701 48.9899 347.408 48.3633C347.115 47.7367 346.968 47.0164 346.968 46.2026C346.968 45.7062 347.037 45.2383 347.176 44.7988C347.314 44.3512 347.514 43.9403 347.774 43.5659C348.034 43.1997 348.348 42.8701 348.714 42.5771C349.08 42.2842 349.491 42.04 349.947 41.8447C349.556 41.6494 349.202 41.4175 348.885 41.1489C348.567 40.8722 348.299 40.563 348.079 40.2212C347.859 39.8875 347.688 39.5213 347.566 39.1226C347.444 38.7238 347.383 38.3047 347.383 37.8652C347.383 37.0921 347.514 36.4045 347.774 35.8022C348.034 35.1919 348.396 34.6792 348.86 34.2642C349.316 33.8491 349.861 33.5317 350.496 33.312C351.139 33.0923 351.839 32.9824 352.596 32.9824C353.344 32.9824 354.04 33.0923 354.683 33.312C355.326 33.5317 355.883 33.8491 356.355 34.2642C356.827 34.6792 357.198 35.1919 357.466 35.8022C357.735 36.4045 357.869 37.0921 357.869 37.8652ZM356.014 46.1538C356.014 45.6574 355.928 45.2017 355.757 44.7866C355.595 44.3716 355.363 44.0135 355.062 43.7124C354.76 43.4194 354.398 43.1916 353.975 43.0288C353.56 42.866 353.104 42.7847 352.608 42.7847C352.095 42.7847 351.631 42.866 351.216 43.0288C350.801 43.1916 350.447 43.4194 350.154 43.7124C349.861 44.0135 349.633 44.3716 349.471 44.7866C349.316 45.2017 349.239 45.6574 349.239 46.1538C349.239 46.6665 349.316 47.1263 349.471 47.5332C349.633 47.932 349.861 48.2697 350.154 48.5464C350.447 48.8231 350.801 49.0347 351.216 49.1812C351.639 49.3276 352.111 49.4009 352.632 49.4009C353.129 49.4009 353.584 49.3276 354 49.1812C354.415 49.0347 354.773 48.8231 355.074 48.5464C355.367 48.2697 355.595 47.932 355.757 47.5332C355.928 47.1263 356.014 46.6665 356.014 46.1538ZM355.599 37.9019C355.599 37.4543 355.521 37.0433 355.367 36.6689C355.22 36.2946 355.017 35.9691 354.756 35.6924C354.488 35.4238 354.17 35.2163 353.804 35.0698C353.438 34.9152 353.035 34.8379 352.596 34.8379C352.156 34.8379 351.757 34.9111 351.399 35.0576C351.041 35.196 350.732 35.3994 350.472 35.668C350.211 35.9365 350.008 36.262 349.861 36.6445C349.723 37.0189 349.654 37.438 349.654 37.9019C349.654 38.3657 349.723 38.7848 349.861 39.1592C350.008 39.5254 350.215 39.8387 350.484 40.0991C350.744 40.3677 351.054 40.5752 351.412 40.7217C351.778 40.86 352.181 40.9292 352.62 40.9292C353.051 40.9292 353.45 40.86 353.816 40.7217C354.183 40.5752 354.5 40.3677 354.769 40.0991C355.029 39.8387 355.232 39.5213 355.379 39.147C355.525 38.7726 355.599 38.3576 355.599 37.9019ZM361.434 56.0781V37.792H363.497L363.607 39.2324C363.786 39.0046 363.981 38.8011 364.193 38.6221C364.404 38.4349 364.632 38.2762 364.876 38.146C365.218 37.9507 365.597 37.8042 366.012 37.7065C366.435 37.6007 366.887 37.5479 367.367 37.5479C368.213 37.5479 368.962 37.7147 369.613 38.0483C370.264 38.382 370.809 38.8459 371.249 39.4399C371.688 40.034 372.022 40.7461 372.25 41.5762C372.477 42.3981 372.591 43.3014 372.591 44.2861V44.5425C372.591 45.4865 372.477 46.3695 372.25 47.1914C372.022 48.0052 371.688 48.7132 371.249 49.3154C370.809 49.9176 370.264 50.3896 369.613 50.7314C368.97 51.0732 368.233 51.2441 367.403 51.2441C366.899 51.2441 366.427 51.1912 365.987 51.0854C365.556 50.9797 365.165 50.8291 364.815 50.6338C364.604 50.5117 364.404 50.3774 364.217 50.231C364.03 50.0763 363.855 49.9095 363.692 49.7305V56.0781H361.434ZM370.333 44.2861C370.333 43.6432 370.26 43.0329 370.113 42.4551C369.975 41.8691 369.759 41.3524 369.466 40.9048C369.165 40.4653 368.787 40.1154 368.331 39.855C367.875 39.5946 367.33 39.4644 366.695 39.4644C366.345 39.4644 366.02 39.505 365.719 39.5864C365.426 39.6678 365.161 39.7858 364.925 39.9404C364.665 40.0951 364.433 40.2863 364.229 40.5142C364.026 40.742 363.847 40.9943 363.692 41.271V47.6309C363.831 47.875 363.989 48.1029 364.168 48.3145C364.347 48.526 364.551 48.7051 364.779 48.8516C365.039 49.0225 365.328 49.1567 365.646 49.2544C365.971 49.3521 366.329 49.4009 366.72 49.4009C367.346 49.4009 367.888 49.2707 368.343 49.0103C368.799 48.7417 369.173 48.3836 369.466 47.936C369.759 47.4884 369.975 46.9717 370.113 46.3857C370.26 45.7998 370.333 45.1854 370.333 44.5425V44.2861ZM381.417 42.687L384.945 37.792H387.594L382.675 44.3228L387.729 51H385.116L381.466 45.9707L377.816 51H375.18L380.233 44.3228L375.314 37.792H377.926L381.417 42.687ZM398.715 43.9077C398.715 45.0715 398.622 46.166 398.435 47.1914C398.256 48.2168 398.011 49.1649 397.702 50.0356C397.393 50.9146 397.035 51.7121 396.628 52.4282C396.229 53.1525 395.81 53.7954 395.371 54.3569C394.923 54.9266 394.471 55.4067 394.016 55.7974C393.568 56.1961 393.141 56.5094 392.734 56.7373L392.258 55.3579C392.6 55.1056 392.945 54.7801 393.295 54.3813C393.645 53.9826 393.979 53.5228 394.296 53.002C394.597 52.473 394.886 51.8748 395.163 51.2075C395.448 50.5483 395.68 49.8241 395.859 49.0347C396.046 48.3022 396.188 47.5129 396.286 46.6665C396.392 45.812 396.445 44.9006 396.445 43.9321V43.7612C396.445 42.6626 396.376 41.6657 396.237 40.7705C396.107 39.8753 395.961 39.1144 395.798 38.4878C395.562 37.5926 395.277 36.791 394.943 36.083C394.61 35.3669 394.268 34.7443 393.918 34.2153C393.649 33.8003 393.373 33.4382 393.088 33.1289C392.803 32.8115 392.526 32.543 392.258 32.3232L392.734 30.9438C393.141 31.1717 393.572 31.485 394.028 31.8838C394.484 32.2826 394.931 32.7627 395.371 33.3242C395.826 33.902 396.254 34.5449 396.652 35.2529C397.051 35.9609 397.401 36.7585 397.702 37.6455C397.995 38.5 398.235 39.4277 398.422 40.4287C398.618 41.4215 398.715 42.5405 398.715 43.7856V43.9077ZM414.805 55.4678C414.015 55.4434 413.332 55.2603 412.754 54.9185C412.176 54.5767 411.696 54.125 411.313 53.5635C410.947 53.0264 410.671 52.4242 410.483 51.7568C410.296 51.0977 410.203 50.4425 410.203 49.7915V47.7285C410.203 46.5566 409.922 45.7062 409.36 45.1772C408.807 44.6483 407.957 44.3797 406.809 44.3716V42.6016C407.957 42.6016 408.807 42.3411 409.36 41.8203C409.922 41.2913 410.203 40.4368 410.203 39.2568V37.1816C410.203 36.5225 410.288 35.8511 410.459 35.1675C410.638 34.4757 410.919 33.8573 411.301 33.312C411.659 32.7912 412.127 32.368 412.705 32.0425C413.283 31.7088 413.983 31.5298 414.805 31.5054L415.061 32.9092C414.475 32.9255 414.007 33.0638 413.657 33.3242C413.315 33.5846 413.059 33.9142 412.888 34.313C412.709 34.7199 412.595 35.1756 412.546 35.6802C412.498 36.1847 412.473 36.6852 412.473 37.1816V39.2568C412.473 40.2334 412.245 41.092 411.79 41.8325C411.342 42.5649 410.646 43.1224 409.702 43.5049C410.646 43.8792 411.342 44.4367 411.79 45.1772C412.237 45.9097 412.465 46.7601 412.473 47.7285V49.7915C412.473 50.2961 412.514 50.7965 412.595 51.293C412.677 51.7975 412.819 52.2492 413.022 52.6479C413.218 53.0549 413.478 53.3885 413.804 53.6489C414.137 53.9093 414.556 54.0477 415.061 54.064L414.805 55.4678ZM75.084 82.5352C75.084 82.055 75.2305 81.644 75.5234 81.3022C75.8164 80.9604 76.2599 80.7896 76.854 80.7896C77.4399 80.7896 77.8835 80.9604 78.1846 81.3022C78.4938 81.6359 78.6484 82.0469 78.6484 82.5352C78.6484 83.0153 78.4938 83.4181 78.1846 83.7437C77.8753 84.0692 77.4318 84.2319 76.854 84.2319C76.2681 84.2319 75.8245 84.0692 75.5234 83.7437C75.2305 83.41 75.084 83.0072 75.084 82.5352ZM94.3716 84L94.2373 82.1812C93.7979 82.8322 93.2485 83.3408 92.5894 83.707C91.9302 84.0651 91.1693 84.2441 90.3066 84.2441C89.6149 84.2441 88.9883 84.1383 88.4268 83.9268C87.8652 83.707 87.3851 83.3693 86.9863 82.9136C86.5876 82.4578 86.2783 81.88 86.0586 81.1802C85.847 80.4722 85.7412 79.6258 85.7412 78.6411V70.792H87.9995V78.6655C87.9995 79.3817 88.0565 79.9757 88.1704 80.4478C88.2843 80.9198 88.4552 81.2941 88.6831 81.5708C88.911 81.8556 89.1877 82.055 89.5132 82.1689C89.8468 82.2829 90.2293 82.3398 90.6606 82.3398C91.1652 82.3398 91.6169 82.2829 92.0156 82.1689C92.4144 82.0469 92.7603 81.88 93.0532 81.6685C93.2974 81.4976 93.509 81.2941 93.688 81.0581C93.8752 80.814 94.0298 80.5495 94.1519 80.2646V70.792H96.4224V84H94.3716ZM108.959 80.4966C108.959 80.228 108.907 79.988 108.801 79.7764C108.695 79.5566 108.516 79.3573 108.264 79.1782C108.011 78.9992 107.678 78.8364 107.263 78.6899C106.848 78.5353 106.331 78.397 105.712 78.2749C104.956 78.1203 104.264 77.9331 103.637 77.7134C103.019 77.4937 102.49 77.2292 102.05 76.9199C101.603 76.6188 101.257 76.2648 101.013 75.8579C100.769 75.4429 100.646 74.9627 100.646 74.4175C100.646 73.8804 100.773 73.3799 101.025 72.916C101.277 72.444 101.631 72.033 102.087 71.6831C102.543 71.3332 103.084 71.0565 103.71 70.853C104.345 70.6496 105.041 70.5479 105.798 70.5479C106.612 70.5479 107.344 70.6536 107.995 70.8652C108.646 71.0768 109.2 71.3698 109.655 71.7441C110.111 72.1185 110.461 72.5579 110.705 73.0625C110.957 73.5589 111.083 74.096 111.083 74.6738H108.825C108.825 74.389 108.752 74.1123 108.605 73.8438C108.459 73.5671 108.256 73.3229 107.995 73.1113C107.735 72.8997 107.417 72.7288 107.043 72.5986C106.677 72.4684 106.262 72.4033 105.798 72.4033C105.318 72.4033 104.895 72.4562 104.528 72.562C104.17 72.6678 103.873 72.8102 103.637 72.9893C103.393 73.1683 103.21 73.3758 103.088 73.6118C102.966 73.8478 102.905 74.092 102.905 74.3442C102.905 74.6047 102.954 74.8366 103.051 75.04C103.149 75.2435 103.32 75.4266 103.564 75.5894C103.8 75.7521 104.117 75.8986 104.516 76.0288C104.923 76.159 105.436 76.2852 106.054 76.4072C106.868 76.5781 107.596 76.7775 108.239 77.0054C108.882 77.2251 109.423 77.4896 109.863 77.7988C110.302 78.1162 110.636 78.4824 110.864 78.8975C111.1 79.3125 111.218 79.7926 111.218 80.3379C111.218 80.9238 111.083 81.4569 110.815 81.937C110.555 82.4172 110.188 82.8281 109.716 83.1699C109.244 83.5117 108.679 83.7762 108.02 83.9634C107.36 84.1506 106.64 84.2441 105.859 84.2441C104.964 84.2441 104.166 84.1261 103.466 83.8901C102.766 83.646 102.176 83.3245 101.696 82.9258C101.208 82.5352 100.834 82.0794 100.573 81.5586C100.321 81.0378 100.195 80.4966 100.195 79.9351H102.453C102.486 80.3989 102.608 80.7896 102.819 81.1069C103.039 81.4243 103.312 81.6807 103.637 81.876C103.955 82.0713 104.309 82.2096 104.699 82.291C105.09 82.3724 105.476 82.4131 105.859 82.4131C106.461 82.4131 106.986 82.3439 107.434 82.2056C107.881 82.0591 108.231 81.8597 108.483 81.6074C108.638 81.4528 108.756 81.2819 108.837 81.0947C108.919 80.9076 108.959 80.7082 108.959 80.4966ZM120.532 84.2441C119.604 84.2441 118.75 84.0854 117.969 83.7681C117.196 83.4507 116.532 83.0072 115.979 82.4375C115.426 81.8678 114.994 81.1924 114.685 80.4111C114.376 79.6299 114.221 78.7795 114.221 77.8599V77.3472C114.221 76.2811 114.392 75.3289 114.734 74.4907C115.076 73.6444 115.531 72.9282 116.101 72.3423C116.663 71.7645 117.301 71.321 118.018 71.0117C118.742 70.7025 119.482 70.5479 120.239 70.5479C121.191 70.5479 122.021 70.7147 122.729 71.0483C123.446 71.3739 124.04 71.8255 124.512 72.4033C124.984 72.9893 125.334 73.6769 125.562 74.4663C125.798 75.2557 125.916 76.1102 125.916 77.0298V78.043H116.479V78.1284C116.536 78.7713 116.663 79.3369 116.858 79.8252C117.061 80.3135 117.338 80.7448 117.688 81.1191C118.046 81.5179 118.477 81.8312 118.982 82.0591C119.486 82.2869 120.044 82.4009 120.654 82.4009C121.46 82.4009 122.176 82.2381 122.803 81.9126C123.429 81.5871 123.95 81.1558 124.365 80.6187L125.745 81.6929C125.305 82.3602 124.646 82.9543 123.767 83.4751C122.896 83.9878 121.818 84.2441 120.532 84.2441ZM120.239 72.4033C119.784 72.4033 119.352 72.4888 118.945 72.6597C118.538 72.8224 118.172 73.0625 117.847 73.3799C117.521 73.7054 117.244 74.1042 117.017 74.5762C116.797 75.04 116.642 75.5771 116.553 76.1875H123.657V76.0776C123.657 75.6707 123.58 75.2354 123.425 74.7715C123.271 74.2995 123.055 73.8926 122.778 73.5508C122.502 73.209 122.152 72.9323 121.729 72.7207C121.313 72.5091 120.817 72.4033 120.239 72.4033ZM137.867 70.5479C138.282 70.5479 138.713 70.5763 139.161 70.6333C139.616 70.6903 139.958 70.7676 140.186 70.8652L139.881 73.0747C139.441 72.9771 139.022 72.9079 138.624 72.8672C138.233 72.8184 137.822 72.7939 137.391 72.7939C136.837 72.7939 136.337 72.8631 135.889 73.0015C135.442 73.1317 135.051 73.327 134.717 73.5874C134.416 73.8153 134.152 74.096 133.924 74.4297C133.704 74.7552 133.521 75.1214 133.375 75.5283V84H131.104V70.792H133.252L133.35 72.562L133.362 72.8916C133.899 72.1673 134.542 71.5977 135.291 71.1826C136.048 70.7594 136.906 70.5479 137.867 70.5479ZM153.602 77.1519H144.264V75.2964H153.602V77.1519ZM158.595 65.25H165.346V82.0469H169.655V84H158.595V82.0469H163.087V67.2153H158.595V65.25ZM173.11 70.792H179.86V82.0469H184.169V84H173.11V82.0469H177.602V72.7573H173.11V70.792ZM177.309 67.3252C177.309 67.1299 177.338 66.9468 177.395 66.7759C177.46 66.605 177.557 66.4585 177.688 66.3364C177.793 66.2306 177.928 66.1493 178.09 66.0923C178.261 66.0272 178.452 65.9946 178.664 65.9946C178.876 65.9946 179.063 66.0272 179.226 66.0923C179.388 66.1493 179.523 66.2306 179.628 66.3364C179.759 66.4504 179.856 66.5928 179.921 66.7637C179.986 66.9346 180.019 67.1217 180.019 67.3252C180.019 67.6914 179.905 67.9966 179.677 68.2407C179.449 68.4849 179.112 68.6069 178.664 68.6069C178.208 68.6069 177.867 68.4849 177.639 68.2407C177.419 67.9966 177.309 67.6914 177.309 67.3252ZM196.047 80.4966C196.047 80.228 195.994 79.988 195.889 79.7764C195.783 79.5566 195.604 79.3573 195.352 79.1782C195.099 78.9992 194.766 78.8364 194.351 78.6899C193.936 78.5353 193.419 78.397 192.8 78.2749C192.043 78.1203 191.352 77.9331 190.725 77.7134C190.107 77.4937 189.578 77.2292 189.138 76.9199C188.691 76.6188 188.345 76.2648 188.101 75.8579C187.856 75.4429 187.734 74.9627 187.734 74.4175C187.734 73.8804 187.861 73.3799 188.113 72.916C188.365 72.444 188.719 72.033 189.175 71.6831C189.631 71.3332 190.172 71.0565 190.798 70.853C191.433 70.6496 192.129 70.5479 192.886 70.5479C193.7 70.5479 194.432 70.6536 195.083 70.8652C195.734 71.0768 196.287 71.3698 196.743 71.7441C197.199 72.1185 197.549 72.5579 197.793 73.0625C198.045 73.5589 198.171 74.096 198.171 74.6738H195.913C195.913 74.389 195.84 74.1123 195.693 73.8438C195.547 73.5671 195.343 73.3229 195.083 73.1113C194.823 72.8997 194.505 72.7288 194.131 72.5986C193.765 72.4684 193.35 72.4033 192.886 72.4033C192.406 72.4033 191.982 72.4562 191.616 72.562C191.258 72.6678 190.961 72.8102 190.725 72.9893C190.481 73.1683 190.298 73.3758 190.176 73.6118C190.054 73.8478 189.993 74.092 189.993 74.3442C189.993 74.6047 190.042 74.8366 190.139 75.04C190.237 75.2435 190.408 75.4266 190.652 75.5894C190.888 75.7521 191.205 75.8986 191.604 76.0288C192.011 76.159 192.524 76.2852 193.142 76.4072C193.956 76.5781 194.684 76.7775 195.327 77.0054C195.97 77.2251 196.511 77.4896 196.951 77.7988C197.39 78.1162 197.724 78.4824 197.952 78.8975C198.188 79.3125 198.306 79.7926 198.306 80.3379C198.306 80.9238 198.171 81.4569 197.903 81.937C197.642 82.4172 197.276 82.8281 196.804 83.1699C196.332 83.5117 195.767 83.7762 195.107 83.9634C194.448 84.1506 193.728 84.2441 192.947 84.2441C192.052 84.2441 191.254 84.1261 190.554 83.8901C189.854 83.646 189.264 83.3245 188.784 82.9258C188.296 82.5352 187.922 82.0794 187.661 81.5586C187.409 81.0378 187.283 80.4966 187.283 79.9351H189.541C189.574 80.3989 189.696 80.7896 189.907 81.1069C190.127 81.4243 190.4 81.6807 190.725 81.876C191.042 82.0713 191.396 82.2096 191.787 82.291C192.178 82.3724 192.564 82.4131 192.947 82.4131C193.549 82.4131 194.074 82.3439 194.521 82.2056C194.969 82.0591 195.319 81.8597 195.571 81.6074C195.726 81.4528 195.844 81.2819 195.925 81.0947C196.007 80.9076 196.047 80.7082 196.047 80.4966ZM207.132 67.5938V70.792H212.161V72.5376H207.132V79.7153C207.132 80.228 207.197 80.6512 207.327 80.9849C207.457 81.3185 207.636 81.583 207.864 81.7783C208.092 81.9818 208.353 82.1242 208.646 82.2056C208.947 82.2869 209.264 82.3276 209.598 82.3276C209.842 82.3276 210.094 82.3154 210.354 82.291C210.615 82.2585 210.871 82.2218 211.124 82.1812C211.368 82.1405 211.596 82.0998 211.807 82.0591C212.027 82.0103 212.206 81.9696 212.344 81.937L212.662 83.5361C212.474 83.6501 212.247 83.7518 211.978 83.8413C211.709 83.9227 211.417 83.9919 211.099 84.0488C210.782 84.1139 210.444 84.1628 210.086 84.1953C209.736 84.2279 209.386 84.2441 209.036 84.2441C208.45 84.2441 207.901 84.1628 207.388 84C206.884 83.8291 206.444 83.5605 206.07 83.1943C205.695 82.8363 205.398 82.3724 205.179 81.8027C204.967 81.2249 204.861 80.5291 204.861 79.7153V72.5376H201.395V70.792H204.861V67.5938H207.132ZM240.629 88.4678C239.84 88.4434 239.156 88.2603 238.578 87.9185C238 87.5767 237.52 87.125 237.138 86.5635C236.771 86.0264 236.495 85.4242 236.308 84.7568C236.12 84.0977 236.027 83.4425 236.027 82.7915V80.7285C236.027 79.5566 235.746 78.7062 235.185 78.1772C234.631 77.6483 233.781 77.3797 232.633 77.3716V75.6016C233.781 75.6016 234.631 75.3411 235.185 74.8203C235.746 74.2913 236.027 73.4368 236.027 72.2568V70.1816C236.027 69.5225 236.112 68.8511 236.283 68.1675C236.462 67.4757 236.743 66.8573 237.125 66.312C237.484 65.7912 237.951 65.368 238.529 65.0425C239.107 64.7088 239.807 64.5298 240.629 64.5054L240.885 65.9092C240.299 65.9255 239.831 66.0638 239.481 66.3242C239.14 66.5846 238.883 66.9142 238.712 67.313C238.533 67.7199 238.419 68.1756 238.371 68.6802C238.322 69.1847 238.297 69.6852 238.297 70.1816V72.2568C238.297 73.2334 238.069 74.092 237.614 74.8325C237.166 75.5649 236.47 76.1224 235.526 76.5049C236.47 76.8792 237.166 77.4367 237.614 78.1772C238.061 78.9097 238.289 79.7601 238.297 80.7285V82.7915C238.297 83.2961 238.338 83.7965 238.419 84.293C238.501 84.7975 238.643 85.2492 238.847 85.6479C239.042 86.0549 239.302 86.3885 239.628 86.6489C239.962 86.9093 240.381 87.0477 240.885 87.064L240.629 88.4678ZM72.9722 153.064C73.4686 153.048 73.8836 152.909 74.2173 152.649C74.5509 152.389 74.8195 152.055 75.0229 151.648C75.2183 151.249 75.3566 150.798 75.438 150.293C75.5275 149.797 75.5723 149.296 75.5723 148.792V146.729C75.5723 146.086 75.6659 145.492 75.853 144.946C76.0483 144.401 76.3454 143.929 76.7441 143.53C76.9557 143.319 77.1917 143.127 77.4521 142.957C77.7207 142.786 78.0137 142.635 78.3311 142.505C78.0055 142.375 77.7044 142.22 77.4277 142.041C77.1592 141.862 76.9232 141.663 76.7197 141.443C76.3291 141.036 76.0402 140.564 75.853 140.027C75.6659 139.482 75.5723 138.892 75.5723 138.257V136.182C75.5723 135.685 75.5438 135.185 75.4868 134.68C75.438 134.176 75.3281 133.72 75.1572 133.313C74.9782 132.914 74.7178 132.585 74.376 132.324C74.0342 132.064 73.5703 131.925 72.9844 131.909L73.2285 130.505C74.0179 130.53 74.6934 130.697 75.2549 131.006C75.8245 131.315 76.2925 131.718 76.6587 132.214C77.0737 132.776 77.3708 133.407 77.5498 134.106C77.737 134.806 77.8306 135.498 77.8306 136.182V138.257C77.8306 138.745 77.8753 139.176 77.9648 139.551C78.0625 139.917 78.2049 140.234 78.3921 140.503C78.6606 140.885 79.0309 141.166 79.5029 141.345C79.9831 141.516 80.5568 141.602 81.2241 141.602V143.372C80.6382 143.38 80.1255 143.453 79.686 143.591C79.2547 143.722 78.9007 143.929 78.624 144.214C78.3555 144.491 78.1561 144.836 78.0259 145.251C77.8957 145.667 77.8306 146.159 77.8306 146.729V148.792C77.8306 149.443 77.741 150.098 77.562 150.757C77.383 151.424 77.1063 152.03 76.7319 152.576C76.3494 153.121 75.8693 153.569 75.2915 153.918C74.7137 154.268 74.026 154.451 73.2285 154.468L72.9722 153.064ZM43.9429 186.064C44.4393 186.048 44.8543 185.909 45.188 185.649C45.5216 185.389 45.7902 185.055 45.9937 184.648C46.189 184.249 46.3273 183.798 46.4087 183.293C46.4982 182.797 46.543 182.296 46.543 181.792V179.729C46.543 179.086 46.6366 178.492 46.8237 177.946C47.019 177.401 47.3161 176.929 47.7148 176.53C47.9264 176.319 48.1624 176.127 48.4229 175.957C48.6914 175.786 48.9844 175.635 49.3018 175.505C48.9762 175.375 48.6751 175.22 48.3984 175.041C48.1299 174.862 47.8939 174.663 47.6904 174.443C47.2998 174.036 47.0109 173.564 46.8237 173.027C46.6366 172.482 46.543 171.892 46.543 171.257V169.182C46.543 168.685 46.5145 168.185 46.4575 167.68C46.4087 167.176 46.2988 166.72 46.1279 166.313C45.9489 165.914 45.6885 165.585 45.3467 165.324C45.0049 165.064 44.541 164.925 43.9551 164.909L44.1992 163.505C44.9886 163.53 45.6641 163.697 46.2256 164.006C46.7952 164.315 47.2632 164.718 47.6294 165.214C48.0444 165.776 48.3415 166.407 48.5205 167.106C48.7077 167.806 48.8013 168.498 48.8013 169.182V171.257C48.8013 171.745 48.846 172.176 48.9355 172.551C49.0332 172.917 49.1756 173.234 49.3628 173.503C49.6313 173.885 50.0016 174.166 50.4736 174.345C50.9538 174.516 51.5275 174.602 52.1948 174.602V176.372C51.6089 176.38 51.0962 176.453 50.6567 176.591C50.2254 176.722 49.8714 176.929 49.5947 177.214C49.3262 177.491 49.1268 177.836 48.9966 178.251C48.8664 178.667 48.8013 179.159 48.8013 179.729V181.792C48.8013 182.443 48.7118 183.098 48.5327 183.757C48.3537 184.424 48.077 185.03 47.7026 185.576C47.3201 186.121 46.84 186.569 46.2622 186.918C45.6844 187.268 44.9967 187.451 44.1992 187.468L43.9429 186.064Z" fill="white"/>
</svg>
