<svg width="458" height="149" viewBox="0 0 458 149" fill="none" xmlns="http://www.w3.org/2000/svg">
<rect width="458" height="149" rx="20" fill="#0066FF" fill-opacity="0.2"/>
<rect x="1.5" y="1.5" width="455" height="146" rx="18.5" stroke="#0066FF" stroke-opacity="0.5" stroke-width="3"/>
<path d="M52.4268 48.6074L42.0752 43.981V42.1987L52.4268 37.5845V39.9771L44.9561 42.9067L44.3091 43.1143L44.9561 43.334L52.4268 46.2148V48.6074ZM114.746 48.5952V46.2515L122.644 43.2729L123.376 43.0654L122.644 42.8335L114.746 39.9038V37.5723L125.525 42.1865V43.9688L114.746 48.5952ZM81.4561 81.6074L71.1045 76.981V75.1987L81.4561 70.5845V72.9771L73.9854 75.9067L73.3384 76.1143L73.9854 76.334L81.4561 79.2148V81.6074ZM158.29 81.5952V79.2515L166.188 76.2729L166.92 76.0654L166.188 75.8335L158.29 72.9038V70.5723L169.069 75.1865V76.9688L158.29 81.5952ZM184.267 78.6533C184.161 79.4753 183.95 80.2321 183.632 80.9238C183.315 81.6074 182.904 82.1934 182.399 82.6816C181.887 83.1781 181.28 83.5646 180.581 83.8413C179.889 84.1099 179.116 84.2441 178.261 84.2441C177.529 84.2441 176.861 84.1424 176.259 83.939C175.665 83.7274 175.136 83.4385 174.672 83.0723C174.2 82.7061 173.793 82.2747 173.452 81.7783C173.118 81.2819 172.841 80.7407 172.622 80.1548C172.394 79.5688 172.223 78.9544 172.109 78.3115C172.003 77.6686 171.946 77.0176 171.938 76.3584V73.8804C171.946 73.2212 172.003 72.5701 172.109 71.9272C172.223 71.2843 172.394 70.6699 172.622 70.084C172.841 69.498 173.118 68.9569 173.452 68.4604C173.793 67.9559 174.2 67.5205 174.672 67.1543C175.136 66.7881 175.665 66.5033 176.259 66.2998C176.853 66.0882 177.521 65.9824 178.261 65.9824C179.148 65.9824 179.942 66.1208 180.642 66.3975C181.341 66.666 181.944 67.0485 182.448 67.5449C182.953 68.0495 183.356 68.6517 183.657 69.3516C183.966 70.0514 184.169 70.8245 184.267 71.6709H182.009C181.936 71.1338 181.809 70.6333 181.63 70.1694C181.451 69.7056 181.211 69.2987 180.91 68.9487C180.609 68.5988 180.239 68.3262 179.799 68.1309C179.368 67.9274 178.855 67.8257 178.261 67.8257C177.724 67.8257 177.248 67.9152 176.833 68.0942C176.426 68.2651 176.076 68.5011 175.783 68.8022C175.482 69.1034 175.23 69.4533 175.026 69.8521C174.831 70.2508 174.672 70.674 174.55 71.1216C174.428 71.5692 174.339 72.029 174.282 72.501C174.233 72.9648 174.208 73.4165 174.208 73.856V76.3584C174.208 76.7979 174.233 77.2536 174.282 77.7256C174.339 78.1895 174.428 78.6452 174.55 79.0928C174.672 79.5485 174.831 79.9757 175.026 80.3745C175.222 80.7733 175.47 81.1232 175.771 81.4243C176.072 81.7336 176.426 81.9777 176.833 82.1567C177.24 82.3276 177.716 82.4131 178.261 82.4131C178.855 82.4131 179.368 82.3195 179.799 82.1323C180.239 81.9451 180.609 81.6807 180.91 81.3389C181.211 81.0052 181.451 80.6105 181.63 80.1548C181.809 79.6909 181.936 79.1904 182.009 78.6533H184.267ZM186.636 77.2739C186.636 76.3218 186.774 75.4388 187.051 74.625C187.327 73.8031 187.726 73.091 188.247 72.4888C188.76 71.8866 189.386 71.4146 190.127 71.0728C190.868 70.7228 191.702 70.5479 192.629 70.5479C193.565 70.5479 194.403 70.7228 195.144 71.0728C195.893 71.4146 196.528 71.8866 197.048 72.4888C197.561 73.091 197.956 73.8031 198.232 74.625C198.509 75.4388 198.647 76.3218 198.647 77.2739V77.5425C198.647 78.4946 198.509 79.3776 198.232 80.1914C197.956 81.0052 197.561 81.7132 197.048 82.3154C196.528 82.9176 195.897 83.3896 195.156 83.7314C194.416 84.0732 193.582 84.2441 192.654 84.2441C191.718 84.2441 190.876 84.0732 190.127 83.7314C189.386 83.3896 188.76 82.9176 188.247 82.3154C187.726 81.7132 187.327 81.0052 187.051 80.1914C186.774 79.3776 186.636 78.4946 186.636 77.5425V77.2739ZM188.894 77.5425C188.894 78.1935 188.971 78.8161 189.126 79.4102C189.281 79.9961 189.517 80.5129 189.834 80.9604C190.143 81.408 190.534 81.762 191.006 82.0225C191.478 82.2829 192.027 82.4131 192.654 82.4131C193.272 82.4131 193.813 82.2829 194.277 82.0225C194.749 81.762 195.144 81.408 195.461 80.9604C195.771 80.5129 196.003 79.9961 196.157 79.4102C196.312 78.8161 196.389 78.1935 196.389 77.5425V77.2739C196.389 76.631 196.308 76.0166 196.145 75.4307C195.99 74.8366 195.758 74.3158 195.449 73.8682C195.132 73.4206 194.737 73.0666 194.265 72.8062C193.801 72.5376 193.256 72.4033 192.629 72.4033C192.003 72.4033 191.458 72.5376 190.994 72.8062C190.53 73.0666 190.143 73.4206 189.834 73.8682C189.517 74.3158 189.281 74.8366 189.126 75.4307C188.971 76.0166 188.894 76.631 188.894 77.2739V77.5425ZM201.358 77.2861C201.358 76.3014 201.48 75.3981 201.724 74.5762C201.976 73.7461 202.334 73.034 202.798 72.4399C203.254 71.8459 203.807 71.382 204.458 71.0483C205.11 70.7147 205.838 70.5479 206.644 70.5479C207.433 70.5479 208.121 70.6821 208.707 70.9507C209.301 71.2111 209.813 71.5936 210.245 72.0981V65.25H212.503V84H210.428L210.33 82.6084C209.891 83.1455 209.366 83.5524 208.755 83.8291C208.145 84.1058 207.433 84.2441 206.619 84.2441C205.822 84.2441 205.097 84.0732 204.446 83.7314C203.803 83.3896 203.254 82.9176 202.798 82.3154C202.343 81.7132 201.989 81.0052 201.736 80.1914C201.484 79.3695 201.358 78.4865 201.358 77.5425V77.2861ZM203.616 77.5425C203.616 78.1854 203.685 78.7957 203.824 79.3735C203.962 79.9513 204.178 80.46 204.471 80.8994C204.756 81.3389 205.122 81.6888 205.569 81.9492C206.017 82.2015 206.554 82.3276 207.181 82.3276C207.938 82.3276 208.564 82.1567 209.061 81.8149C209.557 81.4731 209.952 81.0133 210.245 80.4355V74.3076C209.952 73.7705 209.557 73.3311 209.061 72.9893C208.564 72.6393 207.946 72.4644 207.205 72.4644C206.57 72.4644 206.025 72.5946 205.569 72.855C205.122 73.1154 204.756 73.4653 204.471 73.9048C204.178 74.3524 203.962 74.8691 203.824 75.4551C203.685 76.0329 203.616 76.6432 203.616 77.2861V77.5425ZM222.135 84.2441C221.207 84.2441 220.353 84.0854 219.571 83.7681C218.798 83.4507 218.135 83.0072 217.582 82.4375C217.028 81.8678 216.597 81.1924 216.288 80.4111C215.978 79.6299 215.824 78.7795 215.824 77.8599V77.3472C215.824 76.2811 215.995 75.3289 216.336 74.4907C216.678 73.6444 217.134 72.9282 217.704 72.3423C218.265 71.7645 218.904 71.321 219.62 71.0117C220.344 70.7025 221.085 70.5479 221.842 70.5479C222.794 70.5479 223.624 70.7147 224.332 71.0483C225.048 71.3739 225.642 71.8255 226.114 72.4033C226.586 72.9893 226.936 73.6769 227.164 74.4663C227.4 75.2557 227.518 76.1102 227.518 77.0298V78.043H218.082V78.1284C218.139 78.7713 218.265 79.3369 218.46 79.8252C218.664 80.3135 218.941 80.7448 219.291 81.1191C219.649 81.5179 220.08 81.8312 220.584 82.0591C221.089 82.2869 221.646 82.4009 222.257 82.4009C223.062 82.4009 223.779 82.2381 224.405 81.9126C225.032 81.5871 225.553 81.1558 225.968 80.6187L227.347 81.6929C226.908 82.3602 226.249 82.9543 225.37 83.4751C224.499 83.9878 223.421 84.2441 222.135 84.2441ZM221.842 72.4033C221.386 72.4033 220.955 72.4888 220.548 72.6597C220.141 72.8224 219.775 73.0625 219.449 73.3799C219.124 73.7054 218.847 74.1042 218.619 74.5762C218.399 75.04 218.245 75.5771 218.155 76.1875H225.26V76.0776C225.26 75.6707 225.182 75.2354 225.028 74.7715C224.873 74.2995 224.658 73.8926 224.381 73.5508C224.104 73.209 223.754 72.9323 223.331 72.7207C222.916 72.5091 222.42 72.4033 221.842 72.4033ZM240.116 79.5078C240.116 78.9626 239.99 78.5028 239.738 78.1284C239.494 77.7541 239.176 77.4367 238.786 77.1763C238.395 76.924 237.964 76.7124 237.492 76.5415C237.028 76.3706 236.58 76.216 236.149 76.0776C235.522 75.8742 234.883 75.63 234.232 75.3452C233.59 75.0522 233.004 74.7023 232.475 74.2954C231.938 73.8804 231.498 73.3921 231.156 72.8306C230.823 72.2609 230.656 71.5936 230.656 70.8286C230.656 70.0636 230.823 69.38 231.156 68.7778C231.498 68.1756 231.942 67.667 232.487 67.252C233.032 66.8369 233.651 66.5236 234.342 66.312C235.034 66.0923 235.73 65.9824 236.43 65.9824C237.203 65.9824 237.947 66.1126 238.664 66.373C239.38 66.6253 240.014 66.9834 240.568 67.4473C241.121 67.9111 241.565 68.4727 241.898 69.1318C242.232 69.791 242.407 70.5275 242.423 71.3413H240.104C240.039 70.8286 239.913 70.3647 239.726 69.9497C239.538 69.5265 239.29 69.1644 238.981 68.8633C238.672 68.5622 238.301 68.3302 237.87 68.1675C237.447 67.9966 236.967 67.9111 236.43 67.9111C235.998 67.9111 235.575 67.9722 235.16 68.0942C234.753 68.2163 234.391 68.3994 234.074 68.6436C233.748 68.8877 233.488 69.1888 233.292 69.5469C233.105 69.9049 233.012 70.32 233.012 70.792C233.02 71.3047 233.15 71.7401 233.402 72.0981C233.655 72.4481 233.976 72.7451 234.367 72.9893C234.749 73.2334 235.164 73.4368 235.612 73.5996C236.068 73.7624 236.495 73.9048 236.894 74.0269C237.553 74.2303 238.212 74.4785 238.871 74.7715C239.53 75.0563 240.132 75.4225 240.678 75.8701C241.215 76.2852 241.646 76.7938 241.972 77.396C242.305 77.9982 242.472 78.694 242.472 79.4834C242.472 80.2809 242.293 80.9767 241.935 81.5708C241.585 82.1649 241.129 82.6572 240.568 83.0479C240.006 83.4466 239.372 83.7477 238.664 83.9512C237.956 84.1465 237.248 84.2441 236.54 84.2441C235.693 84.2441 234.859 84.1017 234.037 83.8169C233.223 83.5321 232.515 83.1211 231.913 82.584C231.376 82.1201 230.949 81.5789 230.631 80.9604C230.322 80.3338 230.155 79.638 230.131 78.873H232.438C232.511 79.4264 232.662 79.9188 232.89 80.3501C233.118 80.7733 233.41 81.1313 233.769 81.4243C234.127 81.7254 234.538 81.9533 235.001 82.1079C235.473 82.2544 235.986 82.3276 236.54 82.3276C236.979 82.3276 237.41 82.2747 237.833 82.1689C238.265 82.055 238.647 81.88 238.981 81.644C239.315 81.4162 239.587 81.1273 239.799 80.7773C240.01 80.4193 240.116 79.9961 240.116 79.5078ZM247.587 72.7573C247.766 72.4888 247.966 72.2446 248.186 72.0249C248.405 71.797 248.637 71.5977 248.881 71.4268C249.272 71.1419 249.699 70.9263 250.163 70.7798C250.635 70.6333 251.136 70.556 251.665 70.5479C252.356 70.5479 252.983 70.6496 253.544 70.853C254.114 71.0483 254.598 71.3576 254.997 71.7808C255.396 72.2039 255.701 72.741 255.913 73.3921C256.132 74.035 256.242 74.8 256.242 75.687V84H253.984V75.6626C253.984 75.1418 253.923 74.686 253.801 74.2954C253.679 73.8966 253.5 73.5671 253.264 73.3066C253.011 73.0218 252.694 72.8102 252.312 72.6719C251.929 72.5254 251.49 72.4562 250.993 72.4644C250.586 72.4644 250.2 72.5213 249.833 72.6353C249.467 72.7492 249.13 72.9119 248.82 73.1235C248.576 73.2863 248.348 73.4775 248.137 73.6973C247.933 73.9089 247.75 74.1449 247.587 74.4053V84H245.329V65.25H247.587V72.7573ZM260.198 70.792H266.948V82.0469H271.257V84H260.198V82.0469H264.69V72.7573H260.198V70.792ZM264.397 67.3252C264.397 67.1299 264.425 66.9468 264.482 66.7759C264.548 66.605 264.645 66.4585 264.775 66.3364C264.881 66.2306 265.015 66.1493 265.178 66.0923C265.349 66.0272 265.54 65.9946 265.752 65.9946C265.964 65.9946 266.151 66.0272 266.313 66.0923C266.476 66.1493 266.611 66.2306 266.716 66.3364C266.847 66.4504 266.944 66.5928 267.009 66.7637C267.074 66.9346 267.107 67.1217 267.107 67.3252C267.107 67.6914 266.993 67.9966 266.765 68.2407C266.537 68.4849 266.2 68.6069 265.752 68.6069C265.296 68.6069 264.954 68.4849 264.727 68.2407C264.507 67.9966 264.397 67.6914 264.397 67.3252ZM274.358 84V70.792H276.385L276.543 72.7451C276.739 72.4684 276.95 72.2161 277.178 71.9883C277.414 71.7523 277.662 71.5488 277.923 71.3779C278.313 71.1175 278.737 70.9181 279.192 70.7798C279.656 70.6333 280.145 70.556 280.657 70.5479C281.349 70.5479 281.976 70.6455 282.537 70.8408C283.107 71.0361 283.591 71.3413 283.99 71.7563C284.389 72.1714 284.694 72.7004 284.905 73.3433C285.125 73.978 285.235 74.7349 285.235 75.6138V84H282.977V75.6626C282.977 75.0767 282.911 74.5802 282.781 74.1733C282.651 73.7664 282.46 73.4368 282.208 73.1846C281.947 72.9323 281.63 72.7492 281.255 72.6353C280.889 72.5213 280.466 72.4644 279.986 72.4644C279.571 72.4644 279.184 72.5254 278.826 72.6475C278.468 72.7614 278.139 72.9201 277.837 73.1235C277.593 73.3026 277.365 73.5101 277.154 73.7461C276.95 73.9821 276.771 74.2425 276.617 74.5273V84H274.358ZM294.708 84.2441C293.78 84.2441 292.926 84.0854 292.145 83.7681C291.371 83.4507 290.708 83.0072 290.155 82.4375C289.601 81.8678 289.17 81.1924 288.861 80.4111C288.552 79.6299 288.397 78.7795 288.397 77.8599V77.3472C288.397 76.2811 288.568 75.3289 288.91 74.4907C289.251 73.6444 289.707 72.9282 290.277 72.3423C290.838 71.7645 291.477 71.321 292.193 71.0117C292.918 70.7025 293.658 70.5479 294.415 70.5479C295.367 70.5479 296.197 70.7147 296.905 71.0483C297.621 71.3739 298.215 71.8255 298.688 72.4033C299.16 72.9893 299.509 73.6769 299.737 74.4663C299.973 75.2557 300.091 76.1102 300.091 77.0298V78.043H290.655V78.1284C290.712 78.7713 290.838 79.3369 291.034 79.8252C291.237 80.3135 291.514 80.7448 291.864 81.1191C292.222 81.5179 292.653 81.8312 293.158 82.0591C293.662 82.2869 294.22 82.4009 294.83 82.4009C295.636 82.4009 296.352 82.2381 296.979 81.9126C297.605 81.5871 298.126 81.1558 298.541 80.6187L299.92 81.6929C299.481 82.3602 298.822 82.9543 297.943 83.4751C297.072 83.9878 295.994 84.2441 294.708 84.2441ZM294.415 72.4033C293.959 72.4033 293.528 72.4888 293.121 72.6597C292.714 72.8224 292.348 73.0625 292.022 73.3799C291.697 73.7054 291.42 74.1042 291.192 74.5762C290.973 75.04 290.818 75.5771 290.729 76.1875H297.833V76.0776C297.833 75.6707 297.756 75.2354 297.601 74.7715C297.446 74.2995 297.231 73.8926 296.954 73.5508C296.677 73.209 296.327 72.9323 295.904 72.7207C295.489 72.5091 294.993 72.4033 294.415 72.4033ZM313.69 81.6074L303.339 76.981V75.1987L313.69 70.5845V72.9771L306.22 75.9067L305.573 76.1143L306.22 76.334L313.69 79.2148V81.6074ZM320.881 85.5259H318.854L326.276 66.2266H328.291L320.881 85.5259ZM405.039 81.5952V79.2515L412.937 76.2729L413.669 76.0654L412.937 75.8335L405.039 72.9038V70.5723L415.818 75.1865V76.9688L405.039 81.5952ZM52.4268 114.607L42.0752 109.981V108.199L52.4268 103.584V105.977L44.9561 108.907L44.3091 109.114L44.9561 109.334L52.4268 112.215V114.607ZM59.6172 118.526H57.5908L65.0127 99.2266H67.0269L59.6172 118.526ZM129.261 114.595V112.251L137.159 109.273L137.891 109.065L137.159 108.833L129.261 105.904V103.572L140.04 108.187V109.969L129.261 114.595Z" fill="white"/>
<path d="M58.897 39.7573C59.076 39.4888 59.2754 39.2446 59.4951 39.0249C59.7148 38.797 59.9468 38.5977 60.1909 38.4268C60.5815 38.1419 61.0088 37.9263 61.4727 37.7798C61.9447 37.6333 62.4451 37.556 62.9741 37.5479C63.6659 37.5479 64.2925 37.6496 64.854 37.853C65.4237 38.0483 65.9079 38.3576 66.3066 38.7808C66.7054 39.2039 67.0106 39.741 67.2222 40.3921C67.4419 41.035 67.5518 41.8 67.5518 42.687V51H65.2935V42.6626C65.2935 42.1418 65.2324 41.686 65.1104 41.2954C64.9883 40.8966 64.8092 40.5671 64.5732 40.3066C64.321 40.0218 64.0036 39.8102 63.6211 39.6719C63.2386 39.5254 62.7992 39.4562 62.3027 39.4644C61.8958 39.4644 61.5093 39.5213 61.1431 39.6353C60.7769 39.7492 60.4391 39.9119 60.1299 40.1235C59.8857 40.2863 59.6579 40.4775 59.4463 40.6973C59.2428 40.9089 59.0597 41.1449 58.897 41.4053V51H56.6387V32.25H58.897V39.7573ZM76.9883 51.2441C76.0605 51.2441 75.2061 51.0854 74.4248 50.7681C73.6517 50.4507 72.9884 50.0072 72.4351 49.4375C71.8817 48.8678 71.4504 48.1924 71.1411 47.4111C70.8319 46.6299 70.6772 45.7795 70.6772 44.8599V44.3472C70.6772 43.2811 70.8481 42.3289 71.1899 41.4907C71.5317 40.6444 71.9875 39.9282 72.5571 39.3423C73.1187 38.7645 73.7575 38.321 74.4736 38.0117C75.1979 37.7025 75.9385 37.5479 76.6953 37.5479C77.6475 37.5479 78.4775 37.7147 79.1855 38.0483C79.9017 38.3739 80.4958 38.8255 80.9678 39.4033C81.4398 39.9893 81.7897 40.6769 82.0176 41.4663C82.2536 42.2557 82.3716 43.1102 82.3716 44.0298V45.043H72.9355V45.1284C72.9925 45.7713 73.1187 46.3369 73.314 46.8252C73.5174 47.3135 73.7941 47.7448 74.144 48.1191C74.5021 48.5179 74.9334 48.8312 75.438 49.0591C75.9425 49.2869 76.5 49.4009 77.1104 49.4009C77.916 49.4009 78.6322 49.2381 79.2588 48.9126C79.8854 48.5871 80.4062 48.1558 80.8213 47.6187L82.2007 48.6929C81.7612 49.3602 81.1021 49.9543 80.2231 50.4751C79.3524 50.9878 78.2741 51.2441 76.9883 51.2441ZM76.6953 39.4033C76.2396 39.4033 75.8083 39.4888 75.4014 39.6597C74.9945 39.8224 74.6283 40.0625 74.3027 40.3799C73.9772 40.7054 73.7005 41.1042 73.4727 41.5762C73.2529 42.04 73.0983 42.5771 73.0088 43.1875H80.1133V43.0776C80.1133 42.6707 80.036 42.2354 79.8813 41.7715C79.7267 41.2995 79.5111 40.8926 79.2344 40.5508C78.9577 40.209 78.6077 39.9323 78.1846 39.7207C77.7695 39.5091 77.2731 39.4033 76.6953 39.4033ZM94.3472 51C94.2576 50.8291 94.1844 50.6175 94.1274 50.3652C94.0786 50.1048 94.042 49.8363 94.0176 49.5596C93.7897 49.7874 93.5334 50.0031 93.2485 50.2065C92.9718 50.41 92.6667 50.589 92.333 50.7437C91.9912 50.8983 91.6291 51.0203 91.2466 51.1099C90.8641 51.1994 90.4572 51.2441 90.0259 51.2441C89.326 51.2441 88.6912 51.1424 88.1216 50.939C87.5601 50.7355 87.084 50.4588 86.6934 50.1089C86.2946 49.7671 85.9854 49.3602 85.7656 48.8882C85.554 48.408 85.4482 47.8913 85.4482 47.3379C85.4482 46.6136 85.5907 45.9788 85.8755 45.4336C86.1685 44.8883 86.5794 44.4326 87.1084 44.0664C87.6374 43.7083 88.2721 43.4398 89.0127 43.2607C89.7614 43.0817 90.5955 42.9922 91.5151 42.9922H93.981V41.9546C93.981 41.5558 93.9077 41.1978 93.7612 40.8804C93.6147 40.563 93.4072 40.2904 93.1387 40.0625C92.8701 39.8428 92.5405 39.6719 92.1499 39.5498C91.7674 39.4277 91.3361 39.3667 90.856 39.3667C90.4084 39.3667 90.0055 39.4237 89.6475 39.5376C89.2975 39.6515 89.0005 39.8021 88.7563 39.9893C88.5122 40.1764 88.321 40.4002 88.1826 40.6606C88.0524 40.9129 87.9873 41.1774 87.9873 41.4541H85.7168C85.7249 40.974 85.847 40.502 86.083 40.0381C86.3271 39.5742 86.6771 39.1551 87.1328 38.7808C87.5804 38.4146 88.1257 38.1175 88.7686 37.8896C89.4196 37.6618 90.1561 37.5479 90.978 37.5479C91.7267 37.5479 92.4225 37.6414 93.0654 37.8286C93.7083 38.0076 94.2658 38.2803 94.7378 38.6465C95.2017 39.0208 95.5679 39.4847 95.8364 40.0381C96.105 40.5915 96.2393 41.2384 96.2393 41.979V48.1191C96.2393 48.5586 96.2799 49.0265 96.3613 49.5229C96.4427 50.0112 96.5566 50.4385 96.7031 50.8047V51H94.3472ZM90.3555 49.2788C90.7949 49.2788 91.2059 49.2218 91.5884 49.1079C91.9709 48.994 92.3208 48.8434 92.6382 48.6562C92.9474 48.4691 93.216 48.2575 93.4438 48.0215C93.6717 47.7773 93.8507 47.5251 93.981 47.2646V44.5913H91.8813C91.1001 44.5913 90.4165 44.6605 89.8306 44.7988C89.2528 44.929 88.793 45.1325 88.4512 45.4092C88.207 45.6045 88.0199 45.8364 87.8896 46.105C87.7676 46.3735 87.7065 46.6787 87.7065 47.0205C87.7065 47.346 87.7594 47.6471 87.8652 47.9238C87.9792 48.2005 88.146 48.4365 88.3657 48.6318C88.5854 48.8353 88.8621 48.994 89.1958 49.1079C89.5295 49.2218 89.916 49.2788 90.3555 49.2788ZM99.7554 44.2861C99.7554 43.3014 99.8774 42.3981 100.122 41.5762C100.374 40.7461 100.732 40.034 101.196 39.4399C101.652 38.8459 102.205 38.382 102.856 38.0483C103.507 37.7147 104.235 37.5479 105.041 37.5479C105.83 37.5479 106.518 37.6821 107.104 37.9507C107.698 38.2111 108.211 38.5936 108.642 39.0981V32.25H110.9V51H108.825L108.728 49.6084C108.288 50.1455 107.763 50.5524 107.153 50.8291C106.542 51.1058 105.83 51.2441 105.017 51.2441C104.219 51.2441 103.495 51.0732 102.844 50.7314C102.201 50.3896 101.652 49.9176 101.196 49.3154C100.74 48.7132 100.386 48.0052 100.134 47.1914C99.8815 46.3695 99.7554 45.4865 99.7554 44.5425V44.2861ZM102.014 44.5425C102.014 45.1854 102.083 45.7957 102.221 46.3735C102.36 46.9513 102.575 47.46 102.868 47.8994C103.153 48.3389 103.519 48.6888 103.967 48.9492C104.414 49.2015 104.951 49.3276 105.578 49.3276C106.335 49.3276 106.962 49.1567 107.458 48.8149C107.954 48.4731 108.349 48.0133 108.642 47.4355V41.3076C108.349 40.7705 107.954 40.3311 107.458 39.9893C106.962 39.6393 106.343 39.4644 105.603 39.4644C104.968 39.4644 104.423 39.5946 103.967 39.855C103.519 40.1154 103.153 40.4653 102.868 40.9048C102.575 41.3524 102.36 41.8691 102.221 42.4551C102.083 43.0329 102.014 43.6432 102.014 44.2861V44.5425ZM91.0146 67.5938V70.792H96.0439V72.5376H91.0146V79.7153C91.0146 80.228 91.0798 80.6512 91.21 80.9849C91.3402 81.3185 91.5192 81.583 91.7471 81.7783C91.9749 81.9818 92.2354 82.1242 92.5283 82.2056C92.8294 82.2869 93.1468 82.3276 93.4805 82.3276C93.7246 82.3276 93.9769 82.3154 94.2373 82.291C94.4977 82.2585 94.7541 82.2218 95.0063 82.1812C95.2505 82.1405 95.4784 82.0998 95.6899 82.0591C95.9097 82.0103 96.0887 81.9696 96.2271 81.937L96.5444 83.5361C96.3573 83.6501 96.1294 83.7518 95.8608 83.8413C95.5923 83.9227 95.2993 83.9919 94.9819 84.0488C94.6646 84.1139 94.3268 84.1628 93.9688 84.1953C93.6188 84.2279 93.2689 84.2441 92.9189 84.2441C92.333 84.2441 91.7837 84.1628 91.271 84C90.7664 83.8291 90.327 83.5605 89.9526 83.1943C89.5783 82.8363 89.2812 82.3724 89.0615 81.8027C88.8499 81.2249 88.7441 80.5291 88.7441 79.7153V72.5376H85.2773V70.792H88.7441V67.5938H91.0146ZM100.537 70.792H107.287V82.0469H111.596V84H100.537V82.0469H105.029V72.7573H100.537V70.792ZM104.736 67.3252C104.736 67.1299 104.764 66.9468 104.821 66.7759C104.886 66.605 104.984 66.4585 105.114 66.3364C105.22 66.2306 105.354 66.1493 105.517 66.0923C105.688 66.0272 105.879 65.9946 106.091 65.9946C106.302 65.9946 106.49 66.0272 106.652 66.0923C106.815 66.1493 106.949 66.2306 107.055 66.3364C107.185 66.4504 107.283 66.5928 107.348 66.7637C107.413 66.9346 107.446 67.1217 107.446 67.3252C107.446 67.6914 107.332 67.9966 107.104 68.2407C106.876 68.4849 106.538 68.6069 106.091 68.6069C105.635 68.6069 105.293 68.4849 105.065 68.2407C104.846 67.9966 104.736 67.6914 104.736 67.3252ZM120.044 67.5938V70.792H125.073V72.5376H120.044V79.7153C120.044 80.228 120.109 80.6512 120.239 80.9849C120.369 81.3185 120.549 81.583 120.776 81.7783C121.004 81.9818 121.265 82.1242 121.558 82.2056C121.859 82.2869 122.176 82.3276 122.51 82.3276C122.754 82.3276 123.006 82.3154 123.267 82.291C123.527 82.2585 123.783 82.2218 124.036 82.1812C124.28 82.1405 124.508 82.0998 124.719 82.0591C124.939 82.0103 125.118 81.9696 125.256 81.937L125.574 83.5361C125.387 83.6501 125.159 83.7518 124.89 83.8413C124.622 83.9227 124.329 83.9919 124.011 84.0488C123.694 84.1139 123.356 84.1628 122.998 84.1953C122.648 84.2279 122.298 84.2441 121.948 84.2441C121.362 84.2441 120.813 84.1628 120.3 84C119.796 83.8291 119.356 83.5605 118.982 83.1943C118.608 82.8363 118.311 82.3724 118.091 81.8027C117.879 81.2249 117.773 80.5291 117.773 79.7153V72.5376H114.307V70.792H117.773V67.5938H120.044ZM129.566 65.25H136.316V82.0469H140.625V84H129.566V82.0469H134.058V67.2153H129.566V65.25ZM149.562 84.2441C148.634 84.2441 147.779 84.0854 146.998 83.7681C146.225 83.4507 145.562 83.0072 145.008 82.4375C144.455 81.8678 144.024 81.1924 143.714 80.4111C143.405 79.6299 143.25 78.7795 143.25 77.8599V77.3472C143.25 76.2811 143.421 75.3289 143.763 74.4907C144.105 73.6444 144.561 72.9282 145.13 72.3423C145.692 71.7645 146.331 71.321 147.047 71.0117C147.771 70.7025 148.512 70.5479 149.269 70.5479C150.221 70.5479 151.051 70.7147 151.759 71.0483C152.475 71.3739 153.069 71.8255 153.541 72.4033C154.013 72.9893 154.363 73.6769 154.591 74.4663C154.827 75.2557 154.945 76.1102 154.945 77.0298V78.043H145.509V78.1284C145.566 78.7713 145.692 79.3369 145.887 79.8252C146.091 80.3135 146.367 80.7448 146.717 81.1191C147.075 81.5179 147.507 81.8312 148.011 82.0591C148.516 82.2869 149.073 82.4009 149.684 82.4009C150.489 82.4009 151.205 82.2381 151.832 81.9126C152.459 81.5871 152.979 81.1558 153.395 80.6187L154.774 81.6929C154.334 82.3602 153.675 82.9543 152.796 83.4751C151.926 83.9878 150.847 84.2441 149.562 84.2441ZM149.269 72.4033C148.813 72.4033 148.382 72.4888 147.975 72.6597C147.568 72.8224 147.201 73.0625 146.876 73.3799C146.55 73.7054 146.274 74.1042 146.046 74.5762C145.826 75.04 145.672 75.5771 145.582 76.1875H152.687V76.0776C152.687 75.6707 152.609 75.2354 152.455 74.7715C152.3 74.2995 152.084 73.8926 151.808 73.5508C151.531 73.209 151.181 72.9323 150.758 72.7207C150.343 72.5091 149.846 72.4033 149.269 72.4033ZM337.764 67.5938V70.792H342.793V72.5376H337.764V79.7153C337.764 80.228 337.829 80.6512 337.959 80.9849C338.089 81.3185 338.268 81.583 338.496 81.7783C338.724 81.9818 338.984 82.1242 339.277 82.2056C339.578 82.2869 339.896 82.3276 340.229 82.3276C340.474 82.3276 340.726 82.3154 340.986 82.291C341.247 82.2585 341.503 82.2218 341.755 82.1812C342 82.1405 342.227 82.0998 342.439 82.0591C342.659 82.0103 342.838 81.9696 342.976 81.937L343.293 83.5361C343.106 83.6501 342.878 83.7518 342.61 83.8413C342.341 83.9227 342.048 83.9919 341.731 84.0488C341.414 84.1139 341.076 84.1628 340.718 84.1953C340.368 84.2279 340.018 84.2441 339.668 84.2441C339.082 84.2441 338.533 84.1628 338.02 84C337.515 83.8291 337.076 83.5605 336.702 83.1943C336.327 82.8363 336.03 82.3724 335.811 81.8027C335.599 81.2249 335.493 80.5291 335.493 79.7153V72.5376H332.026V70.792H335.493V67.5938H337.764ZM347.286 70.792H354.036V82.0469H358.345V84H347.286V82.0469H351.778V72.7573H347.286V70.792ZM351.485 67.3252C351.485 67.1299 351.513 66.9468 351.57 66.7759C351.635 66.605 351.733 66.4585 351.863 66.3364C351.969 66.2306 352.103 66.1493 352.266 66.0923C352.437 66.0272 352.628 65.9946 352.84 65.9946C353.051 65.9946 353.239 66.0272 353.401 66.0923C353.564 66.1493 353.698 66.2306 353.804 66.3364C353.934 66.4504 354.032 66.5928 354.097 66.7637C354.162 66.9346 354.195 67.1217 354.195 67.3252C354.195 67.6914 354.081 67.9966 353.853 68.2407C353.625 68.4849 353.287 68.6069 352.84 68.6069C352.384 68.6069 352.042 68.4849 351.814 68.2407C351.595 67.9966 351.485 67.6914 351.485 67.3252ZM366.793 67.5938V70.792H371.822V72.5376H366.793V79.7153C366.793 80.228 366.858 80.6512 366.988 80.9849C367.118 81.3185 367.298 81.583 367.525 81.7783C367.753 81.9818 368.014 82.1242 368.307 82.2056C368.608 82.2869 368.925 82.3276 369.259 82.3276C369.503 82.3276 369.755 82.3154 370.016 82.291C370.276 82.2585 370.532 82.2218 370.785 82.1812C371.029 82.1405 371.257 82.0998 371.468 82.0591C371.688 82.0103 371.867 81.9696 372.005 81.937L372.323 83.5361C372.136 83.6501 371.908 83.7518 371.639 83.8413C371.371 83.9227 371.078 83.9919 370.76 84.0488C370.443 84.1139 370.105 84.1628 369.747 84.1953C369.397 84.2279 369.047 84.2441 368.697 84.2441C368.111 84.2441 367.562 84.1628 367.049 84C366.545 83.8291 366.105 83.5605 365.731 83.1943C365.357 82.8363 365.06 82.3724 364.84 81.8027C364.628 81.2249 364.522 80.5291 364.522 79.7153V72.5376H361.056V70.792H364.522V67.5938H366.793ZM376.315 65.25H383.065V82.0469H387.375V84H376.315V82.0469H380.807V67.2153H376.315V65.25ZM396.311 84.2441C395.383 84.2441 394.528 84.0854 393.747 83.7681C392.974 83.4507 392.311 83.0072 391.757 82.4375C391.204 81.8678 390.773 81.1924 390.463 80.4111C390.154 79.6299 390 78.7795 390 77.8599V77.3472C390 76.2811 390.17 75.3289 390.512 74.4907C390.854 73.6444 391.31 72.9282 391.879 72.3423C392.441 71.7645 393.08 71.321 393.796 71.0117C394.52 70.7025 395.261 70.5479 396.018 70.5479C396.97 70.5479 397.8 70.7147 398.508 71.0483C399.224 71.3739 399.818 71.8255 400.29 72.4033C400.762 72.9893 401.112 73.6769 401.34 74.4663C401.576 75.2557 401.694 76.1102 401.694 77.0298V78.043H392.258V78.1284C392.315 78.7713 392.441 79.3369 392.636 79.8252C392.84 80.3135 393.116 80.7448 393.466 81.1191C393.824 81.5179 394.256 81.8312 394.76 82.0591C395.265 82.2869 395.822 82.4009 396.433 82.4009C397.238 82.4009 397.954 82.2381 398.581 81.9126C399.208 81.5871 399.729 81.1558 400.144 80.6187L401.523 81.6929C401.083 82.3602 400.424 82.9543 399.545 83.4751C398.675 83.9878 397.596 84.2441 396.311 84.2441ZM396.018 72.4033C395.562 72.4033 395.131 72.4888 394.724 72.6597C394.317 72.8224 393.951 73.0625 393.625 73.3799C393.299 73.7054 393.023 74.1042 392.795 74.5762C392.575 75.04 392.421 75.5771 392.331 76.1875H399.436V76.0776C399.436 75.6707 399.358 75.2354 399.204 74.7715C399.049 74.2995 398.833 73.8926 398.557 73.5508C398.28 73.209 397.93 72.9323 397.507 72.7207C397.092 72.5091 396.595 72.4033 396.018 72.4033ZM73.4116 105.757C73.5907 105.489 73.79 105.245 74.0098 105.025C74.2295 104.797 74.4614 104.598 74.7056 104.427C75.0962 104.142 75.5234 103.926 75.9873 103.78C76.4593 103.633 76.9598 103.556 77.4888 103.548C78.1805 103.548 78.8071 103.65 79.3687 103.853C79.9383 104.048 80.4225 104.358 80.8213 104.781C81.2201 105.204 81.5252 105.741 81.7368 106.392C81.9565 107.035 82.0664 107.8 82.0664 108.687V117H79.8081V108.663C79.8081 108.142 79.7471 107.686 79.625 107.295C79.5029 106.897 79.3239 106.567 79.0879 106.307C78.8356 106.022 78.5182 105.81 78.1357 105.672C77.7533 105.525 77.3138 105.456 76.8174 105.464C76.4105 105.464 76.0239 105.521 75.6577 105.635C75.2915 105.749 74.9538 105.912 74.6445 106.124C74.4004 106.286 74.1725 106.478 73.9609 106.697C73.7575 106.909 73.5744 107.145 73.4116 107.405V117H71.1533V98.25H73.4116V105.757ZM91.5029 117.244C90.5752 117.244 89.7207 117.085 88.9395 116.768C88.1663 116.451 87.5031 116.007 86.9497 115.438C86.3963 114.868 85.965 114.192 85.6558 113.411C85.3465 112.63 85.1919 111.779 85.1919 110.86V110.347C85.1919 109.281 85.3628 108.329 85.7046 107.491C86.0464 106.644 86.5021 105.928 87.0718 105.342C87.6333 104.764 88.2721 104.321 88.9883 104.012C89.7126 103.702 90.4531 103.548 91.21 103.548C92.1621 103.548 92.9922 103.715 93.7002 104.048C94.4163 104.374 95.0104 104.826 95.4824 105.403C95.9544 105.989 96.3044 106.677 96.5322 107.466C96.7682 108.256 96.8862 109.11 96.8862 110.03V111.043H87.4502V111.128C87.5072 111.771 87.6333 112.337 87.8286 112.825C88.0321 113.313 88.3088 113.745 88.6587 114.119C89.0168 114.518 89.4481 114.831 89.9526 115.059C90.4572 115.287 91.0146 115.401 91.625 115.401C92.4307 115.401 93.1468 115.238 93.7734 114.913C94.4001 114.587 94.9209 114.156 95.3359 113.619L96.7153 114.693C96.2759 115.36 95.6167 115.954 94.7378 116.475C93.867 116.988 92.7887 117.244 91.5029 117.244ZM91.21 105.403C90.7542 105.403 90.3229 105.489 89.916 105.66C89.5091 105.822 89.1429 106.062 88.8174 106.38C88.4919 106.705 88.2152 107.104 87.9873 107.576C87.7676 108.04 87.613 108.577 87.5234 109.188H94.6279V109.078C94.6279 108.671 94.5506 108.235 94.396 107.771C94.2414 107.299 94.0257 106.893 93.749 106.551C93.4723 106.209 93.1224 105.932 92.6992 105.721C92.2842 105.509 91.7878 105.403 91.21 105.403ZM108.862 117C108.772 116.829 108.699 116.618 108.642 116.365C108.593 116.105 108.557 115.836 108.532 115.56C108.304 115.787 108.048 116.003 107.763 116.207C107.486 116.41 107.181 116.589 106.848 116.744C106.506 116.898 106.144 117.02 105.761 117.11C105.379 117.199 104.972 117.244 104.541 117.244C103.841 117.244 103.206 117.142 102.636 116.939C102.075 116.736 101.599 116.459 101.208 116.109C100.809 115.767 100.5 115.36 100.28 114.888C100.069 114.408 99.9629 113.891 99.9629 113.338C99.9629 112.614 100.105 111.979 100.39 111.434C100.683 110.888 101.094 110.433 101.623 110.066C102.152 109.708 102.787 109.44 103.527 109.261C104.276 109.082 105.11 108.992 106.03 108.992H108.496V107.955C108.496 107.556 108.422 107.198 108.276 106.88C108.129 106.563 107.922 106.29 107.653 106.062C107.385 105.843 107.055 105.672 106.665 105.55C106.282 105.428 105.851 105.367 105.371 105.367C104.923 105.367 104.52 105.424 104.162 105.538C103.812 105.652 103.515 105.802 103.271 105.989C103.027 106.176 102.836 106.4 102.697 106.661C102.567 106.913 102.502 107.177 102.502 107.454H100.231C100.24 106.974 100.362 106.502 100.598 106.038C100.842 105.574 101.192 105.155 101.647 104.781C102.095 104.415 102.64 104.118 103.283 103.89C103.934 103.662 104.671 103.548 105.493 103.548C106.241 103.548 106.937 103.641 107.58 103.829C108.223 104.008 108.78 104.28 109.252 104.646C109.716 105.021 110.083 105.485 110.351 106.038C110.62 106.591 110.754 107.238 110.754 107.979V114.119C110.754 114.559 110.795 115.027 110.876 115.523C110.957 116.011 111.071 116.438 111.218 116.805V117H108.862ZM104.87 115.279C105.31 115.279 105.721 115.222 106.103 115.108C106.486 114.994 106.835 114.843 107.153 114.656C107.462 114.469 107.731 114.257 107.958 114.021C108.186 113.777 108.365 113.525 108.496 113.265V110.591H106.396C105.615 110.591 104.931 110.66 104.345 110.799C103.767 110.929 103.308 111.132 102.966 111.409C102.722 111.604 102.535 111.836 102.404 112.105C102.282 112.374 102.221 112.679 102.221 113.021C102.221 113.346 102.274 113.647 102.38 113.924C102.494 114.201 102.661 114.437 102.88 114.632C103.1 114.835 103.377 114.994 103.71 115.108C104.044 115.222 104.431 115.279 104.87 115.279ZM114.27 110.286C114.27 109.301 114.392 108.398 114.636 107.576C114.889 106.746 115.247 106.034 115.71 105.44C116.166 104.846 116.72 104.382 117.371 104.048C118.022 103.715 118.75 103.548 119.556 103.548C120.345 103.548 121.033 103.682 121.619 103.951C122.213 104.211 122.725 104.594 123.157 105.098V98.25H125.415V117H123.34L123.242 115.608C122.803 116.146 122.278 116.552 121.667 116.829C121.057 117.106 120.345 117.244 119.531 117.244C118.734 117.244 118.009 117.073 117.358 116.731C116.715 116.39 116.166 115.918 115.71 115.315C115.255 114.713 114.901 114.005 114.648 113.191C114.396 112.369 114.27 111.486 114.27 110.542V110.286ZM116.528 110.542C116.528 111.185 116.597 111.796 116.736 112.374C116.874 112.951 117.09 113.46 117.383 113.899C117.668 114.339 118.034 114.689 118.481 114.949C118.929 115.201 119.466 115.328 120.093 115.328C120.85 115.328 121.476 115.157 121.973 114.815C122.469 114.473 122.864 114.013 123.157 113.436V107.308C122.864 106.771 122.469 106.331 121.973 105.989C121.476 105.639 120.858 105.464 120.117 105.464C119.482 105.464 118.937 105.595 118.481 105.855C118.034 106.115 117.668 106.465 117.383 106.905C117.09 107.352 116.874 107.869 116.736 108.455C116.597 109.033 116.528 109.643 116.528 110.286V110.542Z" fill="#0066FF"/>
</svg>
