<svg width="1399" height="249" viewBox="0 0 1399 249" fill="none" xmlns="http://www.w3.org/2000/svg">
<rect width="1399" height="249" rx="20" fill="#0066FF" fill-opacity="0.2"/>
<rect x="1.5" y="1.5" width="1396" height="246" rx="18.5" stroke="#0066FF" stroke-opacity="0.5" stroke-width="3"/>
<path d="M43.1616 37.792L43.2227 39.0371C43.4912 38.5732 43.8411 38.2111 44.2725 37.9507C44.7119 37.6903 45.2409 37.556 45.8594 37.5479C46.2093 37.5479 46.5226 37.5885 46.7993 37.6699C47.0841 37.7432 47.3324 37.853 47.5439 37.9995C47.6986 38.1134 47.8369 38.2518 47.959 38.4146C48.0892 38.5773 48.1991 38.7604 48.2886 38.9639C48.4025 38.7767 48.5368 38.6017 48.6914 38.439C48.846 38.2762 49.0129 38.1338 49.1919 38.0117C49.4198 37.8734 49.672 37.7635 49.9487 37.6821C50.2336 37.6007 50.5428 37.556 50.8765 37.5479C51.3322 37.5479 51.7432 37.617 52.1094 37.7554C52.4756 37.8856 52.7848 38.0809 53.0371 38.3413C53.3138 38.6343 53.5254 39.0168 53.6719 39.4888C53.8184 39.9526 53.8916 40.502 53.8916 41.1367V51H51.7432V41.1123C51.7432 40.8356 51.7106 40.5915 51.6455 40.3799C51.5804 40.1683 51.4868 39.9933 51.3647 39.855C51.2345 39.7248 51.0718 39.6271 50.8765 39.562C50.6893 39.4969 50.4696 39.4644 50.2173 39.4644C49.9487 39.4644 49.7168 39.501 49.5215 39.5742C49.3262 39.6475 49.1634 39.7451 49.0332 39.8672C48.903 39.9974 48.8013 40.1479 48.728 40.3188C48.6548 40.4816 48.606 40.6647 48.5815 40.8682C48.5815 40.9089 48.5815 40.9495 48.5815 40.9902C48.5815 41.0228 48.5815 41.0635 48.5815 41.1123V51H46.4331V41.1001C46.4331 40.8234 46.4006 40.5793 46.3354 40.3677C46.2785 40.1561 46.1849 39.9811 46.0547 39.8428C45.9326 39.7126 45.778 39.619 45.5908 39.562C45.4118 39.4969 45.2002 39.4644 44.9561 39.4644C44.6875 39.4644 44.4515 39.4969 44.248 39.562C44.0527 39.619 43.8859 39.7044 43.7476 39.8184C43.6418 39.9079 43.5482 40.0096 43.4668 40.1235C43.3936 40.2375 43.3325 40.3595 43.2837 40.4897V51H41.1353V37.792H43.1616ZM57.7007 56.3345C57.4891 56.3345 57.2409 56.3101 56.9561 56.2612C56.6712 56.2124 56.4556 56.1717 56.3091 56.1392L56.6753 54.2959C56.8787 54.3122 57.0781 54.3244 57.2734 54.3325C57.4769 54.3488 57.6356 54.3569 57.7495 54.3569C58.0588 54.3569 58.3395 54.2715 58.5918 54.1006C58.8522 53.9297 59.0841 53.7262 59.2876 53.4902C59.4829 53.2542 59.6497 53.0101 59.7881 52.7578C59.9346 52.5055 60.0485 52.298 60.1299 52.1353L61.0332 50.3774L55.3447 37.792H57.8716L61.4971 46.3125L62.083 47.9116L62.7056 46.3613L66.1113 37.792H68.6382L61.9365 53.0386C61.7819 53.3804 61.5825 53.7425 61.3384 54.125C61.1024 54.5075 60.8135 54.8615 60.4717 55.187C60.1299 55.5125 59.7311 55.7852 59.2754 56.0049C58.8197 56.2246 58.2948 56.3345 57.7007 56.3345ZM81.0288 44.1519H71.6904V42.2964H81.0288V44.1519ZM85.6558 56.0781V37.792H87.7188L87.8286 39.2324C88.0076 39.0046 88.203 38.8011 88.4146 38.6221C88.6261 38.4349 88.854 38.2762 89.0981 38.146C89.4399 37.9507 89.8184 37.8042 90.2334 37.7065C90.6566 37.6007 91.1082 37.5479 91.5884 37.5479C92.4347 37.5479 93.1834 37.7147 93.8345 38.0483C94.4855 38.382 95.0308 38.8459 95.4702 39.4399C95.9097 40.034 96.2433 40.7461 96.4712 41.5762C96.6991 42.3981 96.813 43.3014 96.813 44.2861V44.5425C96.813 45.4865 96.6991 46.3695 96.4712 47.1914C96.2433 48.0052 95.9097 48.7132 95.4702 49.3154C95.0308 49.9176 94.4855 50.3896 93.8345 50.7314C93.1916 51.0732 92.4551 51.2441 91.625 51.2441C91.1204 51.2441 90.6484 51.1912 90.209 51.0854C89.7777 50.9797 89.387 50.8291 89.0371 50.6338C88.8255 50.5117 88.6261 50.3774 88.439 50.231C88.2518 50.0763 88.0768 49.9095 87.9141 49.7305V56.0781H85.6558ZM94.5547 44.2861C94.5547 43.6432 94.4814 43.0329 94.335 42.4551C94.1966 41.8691 93.981 41.3524 93.688 40.9048C93.3869 40.4653 93.0085 40.1154 92.5527 39.855C92.097 39.5946 91.5518 39.4644 90.917 39.4644C90.5671 39.4644 90.2415 39.505 89.9404 39.5864C89.6475 39.6678 89.383 39.7858 89.147 39.9404C88.8866 40.0951 88.6546 40.2863 88.4512 40.5142C88.2477 40.742 88.0687 40.9943 87.9141 41.271V47.6309C88.0524 47.875 88.2111 48.1029 88.3901 48.3145C88.5692 48.526 88.7726 48.7051 89.0005 48.8516C89.2609 49.0225 89.5498 49.1567 89.8672 49.2544C90.1927 49.3521 90.5508 49.4009 90.9414 49.4009C91.568 49.4009 92.1092 49.2707 92.5649 49.0103C93.0207 48.7417 93.395 48.3836 93.688 47.936C93.981 47.4884 94.1966 46.9717 94.335 46.3857C94.4814 45.7998 94.5547 45.1854 94.5547 44.5425V44.2861ZM108.837 37.5479C109.252 37.5479 109.684 37.5763 110.131 37.6333C110.587 37.6903 110.929 37.7676 111.157 37.8652L110.852 40.0747C110.412 39.9771 109.993 39.9079 109.594 39.8672C109.204 39.8184 108.793 39.7939 108.361 39.7939C107.808 39.7939 107.307 39.8631 106.86 40.0015C106.412 40.1317 106.022 40.327 105.688 40.5874C105.387 40.8153 105.122 41.096 104.895 41.4297C104.675 41.7552 104.492 42.1214 104.345 42.5283V51H102.075V37.792H104.223L104.321 39.562L104.333 39.8916C104.87 39.1673 105.513 38.5977 106.262 38.1826C107.019 37.7594 107.877 37.5479 108.837 37.5479ZM114.062 44.2739C114.062 43.3218 114.201 42.4388 114.478 41.625C114.754 40.8031 115.153 40.091 115.674 39.4888C116.187 38.8866 116.813 38.4146 117.554 38.0728C118.294 37.7228 119.128 37.5479 120.056 37.5479C120.992 37.5479 121.83 37.7228 122.571 38.0728C123.319 38.4146 123.954 38.8866 124.475 39.4888C124.988 40.091 125.382 40.8031 125.659 41.625C125.936 42.4388 126.074 43.3218 126.074 44.2739V44.5425C126.074 45.4946 125.936 46.3776 125.659 47.1914C125.382 48.0052 124.988 48.7132 124.475 49.3154C123.954 49.9176 123.324 50.3896 122.583 50.7314C121.842 51.0732 121.008 51.2441 120.081 51.2441C119.145 51.2441 118.302 51.0732 117.554 50.7314C116.813 50.3896 116.187 49.9176 115.674 49.3154C115.153 48.7132 114.754 48.0052 114.478 47.1914C114.201 46.3776 114.062 45.4946 114.062 44.5425V44.2739ZM116.321 44.5425C116.321 45.1935 116.398 45.8161 116.553 46.4102C116.707 46.9961 116.943 47.5129 117.261 47.9604C117.57 48.408 117.961 48.762 118.433 49.0225C118.905 49.2829 119.454 49.4131 120.081 49.4131C120.699 49.4131 121.24 49.2829 121.704 49.0225C122.176 48.762 122.571 48.408 122.888 47.9604C123.197 47.5129 123.429 46.9961 123.584 46.4102C123.739 45.8161 123.816 45.1935 123.816 44.5425V44.2739C123.816 43.631 123.735 43.0166 123.572 42.4307C123.417 41.8366 123.185 41.3158 122.876 40.8682C122.559 40.4206 122.164 40.0666 121.692 39.8062C121.228 39.5376 120.683 39.4033 120.056 39.4033C119.43 39.4033 118.884 39.5376 118.42 39.8062C117.957 40.0666 117.57 40.4206 117.261 40.8682C116.943 41.3158 116.707 41.8366 116.553 42.4307C116.398 43.0166 116.321 43.631 116.321 44.2739V44.5425ZM130.738 37.792H137.403V51.0854C137.403 51.9318 137.285 52.6805 137.049 53.3315C136.821 53.9826 136.487 54.5278 136.048 54.9673C135.6 55.4149 135.055 55.7526 134.412 55.9805C133.777 56.2165 133.053 56.3345 132.239 56.3345C131.987 56.3345 131.743 56.3304 131.507 56.3223C131.271 56.3141 131.039 56.3019 130.811 56.2856C130.624 56.2694 130.437 56.245 130.25 56.2124C130.062 56.188 129.867 56.1595 129.664 56.127L129.822 54.2715C129.961 54.2959 130.136 54.3162 130.347 54.3325C130.559 54.3569 130.774 54.3732 130.994 54.3813C131.206 54.3976 131.409 54.4058 131.604 54.4058C131.808 54.4139 131.967 54.418 132.081 54.418C132.504 54.418 132.903 54.361 133.277 54.2471C133.651 54.1413 133.977 53.9582 134.253 53.6978C134.53 53.4373 134.746 53.0915 134.9 52.6602C135.063 52.237 135.145 51.7121 135.145 51.0854V39.7573H130.738V37.792ZM134.827 34.313C134.827 33.9468 134.937 33.6375 135.157 33.3853C135.376 33.1248 135.714 32.9946 136.17 32.9946C136.626 32.9946 136.967 33.1248 137.195 33.3853C137.423 33.6375 137.537 33.9468 137.537 34.313C137.537 34.6792 137.423 34.9884 137.195 35.2407C136.967 35.4849 136.626 35.6069 136.17 35.6069C135.714 35.6069 135.376 35.4849 135.157 35.2407C134.937 34.9884 134.827 34.6792 134.827 34.313ZM149.562 51.2441C148.634 51.2441 147.779 51.0854 146.998 50.7681C146.225 50.4507 145.562 50.0072 145.008 49.4375C144.455 48.8678 144.024 48.1924 143.714 47.4111C143.405 46.6299 143.25 45.7795 143.25 44.8599V44.3472C143.25 43.2811 143.421 42.3289 143.763 41.4907C144.105 40.6444 144.561 39.9282 145.13 39.3423C145.692 38.7645 146.331 38.321 147.047 38.0117C147.771 37.7025 148.512 37.5479 149.269 37.5479C150.221 37.5479 151.051 37.7147 151.759 38.0483C152.475 38.3739 153.069 38.8255 153.541 39.4033C154.013 39.9893 154.363 40.6769 154.591 41.4663C154.827 42.2557 154.945 43.1102 154.945 44.0298V45.043H145.509V45.1284C145.566 45.7713 145.692 46.3369 145.887 46.8252C146.091 47.3135 146.367 47.7448 146.717 48.1191C147.075 48.5179 147.507 48.8312 148.011 49.0591C148.516 49.2869 149.073 49.4009 149.684 49.4009C150.489 49.4009 151.205 49.2381 151.832 48.9126C152.459 48.5871 152.979 48.1558 153.395 47.6187L154.774 48.6929C154.334 49.3602 153.675 49.9543 152.796 50.4751C151.926 50.9878 150.847 51.2441 149.562 51.2441ZM149.269 39.4033C148.813 39.4033 148.382 39.4888 147.975 39.6597C147.568 39.8224 147.201 40.0625 146.876 40.3799C146.55 40.7054 146.274 41.1042 146.046 41.5762C145.826 42.04 145.672 42.5771 145.582 43.1875H152.687V43.0776C152.687 42.6707 152.609 42.2354 152.455 41.7715C152.3 41.2995 152.084 40.8926 151.808 40.5508C151.531 40.209 151.181 39.9323 150.758 39.7207C150.343 39.5091 149.846 39.4033 149.269 39.4033ZM163.869 49.4131C164.276 49.4131 164.67 49.348 165.053 49.2178C165.443 49.0876 165.789 48.9045 166.09 48.6685C166.391 48.4406 166.632 48.172 166.811 47.8628C166.998 47.5454 167.095 47.2036 167.104 46.8374H169.24C169.232 47.4233 169.077 47.9849 168.776 48.522C168.483 49.0509 168.088 49.5148 167.592 49.9136C167.095 50.3205 166.526 50.646 165.883 50.8901C165.24 51.1261 164.569 51.2441 163.869 51.2441C162.868 51.2441 161.993 51.0651 161.244 50.707C160.495 50.349 159.873 49.8647 159.376 49.2544C158.872 48.6522 158.493 47.9564 158.241 47.167C157.989 46.3695 157.863 45.5312 157.863 44.6523V44.1396C157.863 43.2689 157.989 42.4347 158.241 41.6372C158.493 40.8397 158.872 40.1357 159.376 39.5254C159.873 38.9232 160.495 38.443 161.244 38.085C161.993 37.7269 162.868 37.5479 163.869 37.5479C164.65 37.5479 165.366 37.674 166.017 37.9263C166.676 38.1704 167.246 38.5041 167.726 38.9272C168.198 39.3586 168.568 39.8672 168.837 40.4531C169.105 41.0391 169.24 41.6657 169.24 42.333H167.104C167.095 41.9342 167.006 41.5599 166.835 41.21C166.672 40.8519 166.448 40.5386 166.164 40.27C165.879 40.0015 165.537 39.7899 165.138 39.6353C164.748 39.4806 164.324 39.4033 163.869 39.4033C163.169 39.4033 162.579 39.5457 162.099 39.8306C161.627 40.1073 161.244 40.4694 160.951 40.917C160.658 41.3727 160.447 41.8813 160.316 42.4429C160.194 43.0044 160.133 43.57 160.133 44.1396V44.6523C160.133 45.2301 160.194 45.8039 160.316 46.3735C160.447 46.9351 160.658 47.4396 160.951 47.8872C161.236 48.3429 161.614 48.7132 162.086 48.998C162.567 49.2747 163.161 49.4131 163.869 49.4131ZM178.103 34.5938V37.792H183.132V39.5376H178.103V46.7153C178.103 47.228 178.168 47.6512 178.298 47.9849C178.428 48.3185 178.607 48.583 178.835 48.7783C179.063 48.9818 179.323 49.1242 179.616 49.2056C179.917 49.2869 180.235 49.3276 180.568 49.3276C180.812 49.3276 181.065 49.3154 181.325 49.291C181.586 49.2585 181.842 49.2218 182.094 49.1812C182.338 49.1405 182.566 49.0998 182.778 49.0591C182.998 49.0103 183.177 48.9696 183.315 48.937L183.632 50.5361C183.445 50.6501 183.217 50.7518 182.949 50.8413C182.68 50.9227 182.387 50.9919 182.07 51.0488C181.752 51.1139 181.415 51.1628 181.057 51.1953C180.707 51.2279 180.357 51.2441 180.007 51.2441C179.421 51.2441 178.872 51.1628 178.359 51C177.854 50.8291 177.415 50.5605 177.041 50.1943C176.666 49.8363 176.369 49.3724 176.149 48.8027C175.938 48.2249 175.832 47.5291 175.832 46.7153V39.5376H172.365V37.792H175.832V34.5938H178.103Z" fill="#0066FF"/>
<path d="M190.249 52.5259H188.223L195.645 33.2266H197.659L190.249 52.5259Z" fill="white"/>
<path d="M110.478 97.3154H117.229V108.57H121.538V110.523H110.478V108.57H114.97V99.2808H110.478V97.3154ZM114.677 93.8486C114.677 93.6533 114.706 93.4702 114.763 93.2993C114.828 93.1284 114.925 92.9819 115.056 92.8599C115.161 92.7541 115.296 92.6727 115.458 92.6157C115.629 92.5506 115.821 92.5181 116.032 92.5181C116.244 92.5181 116.431 92.5506 116.594 92.6157C116.757 92.6727 116.891 92.7541 116.997 92.8599C117.127 92.9738 117.224 93.1162 117.29 93.2871C117.355 93.458 117.387 93.6452 117.387 93.8486C117.387 94.2148 117.273 94.52 117.045 94.7642C116.818 95.0083 116.48 95.1304 116.032 95.1304C115.576 95.1304 115.235 95.0083 115.007 94.7642C114.787 94.52 114.677 94.2148 114.677 93.8486ZM124.639 110.523V97.3154H126.665L126.824 99.2686C127.019 98.9919 127.231 98.7396 127.458 98.5117C127.694 98.2757 127.943 98.0723 128.203 97.9014C128.594 97.641 129.017 97.4416 129.473 97.3032C129.937 97.1567 130.425 97.0794 130.938 97.0713C131.629 97.0713 132.256 97.1689 132.817 97.3643C133.387 97.5596 133.871 97.8647 134.27 98.2798C134.669 98.6948 134.974 99.2238 135.186 99.8667C135.405 100.501 135.515 101.258 135.515 102.137V110.523H133.257V102.186C133.257 101.6 133.192 101.104 133.062 100.697C132.931 100.29 132.74 99.9603 132.488 99.708C132.227 99.4557 131.91 99.2726 131.536 99.1587C131.169 99.0448 130.746 98.9878 130.266 98.9878C129.851 98.9878 129.465 99.0488 129.106 99.1709C128.748 99.2848 128.419 99.4435 128.118 99.647C127.874 99.826 127.646 100.034 127.434 100.27C127.231 100.506 127.052 100.766 126.897 101.051V110.523H124.639ZM138.726 103.81C138.726 102.825 138.848 101.922 139.092 101.1C139.345 100.27 139.703 99.5575 140.167 98.9634C140.622 98.3693 141.176 97.9054 141.827 97.5718C142.478 97.2381 143.206 97.0713 144.012 97.0713C144.801 97.0713 145.489 97.2056 146.075 97.4741C146.669 97.7345 147.181 98.117 147.613 98.6216V91.7734H149.871V110.523H147.796L147.698 109.132C147.259 109.669 146.734 110.076 146.124 110.353C145.513 110.629 144.801 110.768 143.987 110.768C143.19 110.768 142.465 110.597 141.814 110.255C141.172 109.913 140.622 109.441 140.167 108.839C139.711 108.237 139.357 107.529 139.104 106.715C138.852 105.893 138.726 105.01 138.726 104.066V103.81ZM140.984 104.066C140.984 104.709 141.054 105.319 141.192 105.897C141.33 106.475 141.546 106.983 141.839 107.423C142.124 107.862 142.49 108.212 142.938 108.473C143.385 108.725 143.922 108.851 144.549 108.851C145.306 108.851 145.932 108.68 146.429 108.338C146.925 107.997 147.32 107.537 147.613 106.959V100.831C147.32 100.294 146.925 99.8545 146.429 99.5127C145.932 99.1628 145.314 98.9878 144.573 98.9878C143.938 98.9878 143.393 99.118 142.938 99.3784C142.49 99.6388 142.124 99.9888 141.839 100.428C141.546 100.876 141.33 101.393 141.192 101.979C141.054 102.556 140.984 103.167 140.984 103.81V104.066ZM159.503 110.768C158.575 110.768 157.721 110.609 156.939 110.292C156.166 109.974 155.503 109.531 154.95 108.961C154.396 108.391 153.965 107.716 153.656 106.935C153.347 106.153 153.192 105.303 153.192 104.383V103.871C153.192 102.805 153.363 101.852 153.705 101.014C154.046 100.168 154.502 99.4517 155.072 98.8657C155.633 98.2879 156.272 97.8444 156.988 97.5352C157.713 97.2259 158.453 97.0713 159.21 97.0713C160.162 97.0713 160.992 97.2381 161.7 97.5718C162.416 97.8973 163.01 98.349 163.482 98.9268C163.954 99.5127 164.304 100.2 164.532 100.99C164.768 101.779 164.886 102.634 164.886 103.553V104.566H155.45V104.652C155.507 105.295 155.633 105.86 155.829 106.349C156.032 106.837 156.309 107.268 156.659 107.643C157.017 108.041 157.448 108.355 157.953 108.583C158.457 108.81 159.015 108.924 159.625 108.924C160.431 108.924 161.147 108.762 161.773 108.436C162.4 108.111 162.921 107.679 163.336 107.142L164.715 108.216C164.276 108.884 163.617 109.478 162.738 109.999C161.867 110.511 160.789 110.768 159.503 110.768ZM159.21 98.9268C158.754 98.9268 158.323 99.0122 157.916 99.1831C157.509 99.3459 157.143 99.5859 156.817 99.9033C156.492 100.229 156.215 100.628 155.987 101.1C155.768 101.563 155.613 102.101 155.523 102.711H162.628V102.601C162.628 102.194 162.551 101.759 162.396 101.295C162.241 100.823 162.026 100.416 161.749 100.074C161.472 99.7324 161.122 99.4557 160.699 99.2441C160.284 99.0326 159.788 98.9268 159.21 98.9268ZM173.639 102.21L177.167 97.3154H179.816L174.896 103.846L179.95 110.523H177.338L173.688 105.494L170.038 110.523H167.401L172.455 103.846L167.536 97.3154H170.148L173.639 102.21ZM186.628 109.059C186.628 108.578 186.774 108.167 187.067 107.826C187.36 107.484 187.804 107.313 188.398 107.313C188.984 107.313 189.427 107.484 189.729 107.826C190.038 108.159 190.192 108.57 190.192 109.059C190.192 109.539 190.038 109.942 189.729 110.267C189.419 110.593 188.976 110.755 188.398 110.755C187.812 110.755 187.368 110.593 187.067 110.267C186.774 109.933 186.628 109.531 186.628 109.059ZM199.47 99.2808C199.649 99.0122 199.849 98.7681 200.068 98.5483C200.288 98.3205 200.52 98.1211 200.764 97.9502C201.155 97.6654 201.582 97.4497 202.046 97.3032C202.518 97.1567 203.018 97.0794 203.547 97.0713C204.239 97.0713 204.866 97.173 205.427 97.3765C205.997 97.5718 206.481 97.881 206.88 98.3042C207.279 98.7274 207.584 99.2645 207.795 99.9155C208.015 100.558 208.125 101.323 208.125 102.21V110.523H205.867V102.186C205.867 101.665 205.806 101.209 205.684 100.819C205.562 100.42 205.382 100.09 205.146 99.8301C204.894 99.5452 204.577 99.3337 204.194 99.1953C203.812 99.0488 203.372 98.9797 202.876 98.9878C202.469 98.9878 202.083 99.0448 201.716 99.1587C201.35 99.2726 201.012 99.4354 200.703 99.647C200.459 99.8097 200.231 100.001 200.02 100.221C199.816 100.432 199.633 100.668 199.47 100.929V110.523H197.212V91.7734H199.47V99.2808ZM217.073 94.1172V97.3154H222.103V99.061H217.073V106.239C217.073 106.751 217.138 107.175 217.269 107.508C217.399 107.842 217.578 108.106 217.806 108.302C218.034 108.505 218.294 108.648 218.587 108.729C218.888 108.81 219.205 108.851 219.539 108.851C219.783 108.851 220.035 108.839 220.296 108.814C220.556 108.782 220.813 108.745 221.065 108.705C221.309 108.664 221.537 108.623 221.749 108.583C221.968 108.534 222.147 108.493 222.286 108.46L222.603 110.06C222.416 110.174 222.188 110.275 221.919 110.365C221.651 110.446 221.358 110.515 221.041 110.572C220.723 110.637 220.385 110.686 220.027 110.719C219.677 110.751 219.327 110.768 218.978 110.768C218.392 110.768 217.842 110.686 217.33 110.523C216.825 110.353 216.386 110.084 216.011 109.718C215.637 109.36 215.34 108.896 215.12 108.326C214.909 107.748 214.803 107.053 214.803 106.239V99.061H211.336V97.3154H214.803V94.1172H217.073ZM227.279 97.3154L227.34 98.5605C227.608 98.0967 227.958 97.7345 228.39 97.4741C228.829 97.2137 229.358 97.0794 229.977 97.0713C230.326 97.0713 230.64 97.112 230.917 97.1934C231.201 97.2666 231.45 97.3765 231.661 97.5229C231.816 97.6369 231.954 97.7752 232.076 97.938C232.206 98.1007 232.316 98.2839 232.406 98.4873C232.52 98.3001 232.654 98.1252 232.809 97.9624C232.963 97.7996 233.13 97.6572 233.309 97.5352C233.537 97.3968 233.789 97.2869 234.066 97.2056C234.351 97.1242 234.66 97.0794 234.994 97.0713C235.449 97.0713 235.86 97.1405 236.227 97.2788C236.593 97.409 236.902 97.6043 237.154 97.8647C237.431 98.1577 237.643 98.5402 237.789 99.0122C237.936 99.4761 238.009 100.025 238.009 100.66V110.523H235.86V100.636C235.86 100.359 235.828 100.115 235.763 99.9033C235.698 99.6917 235.604 99.5168 235.482 99.3784C235.352 99.2482 235.189 99.1506 234.994 99.0854C234.806 99.0203 234.587 98.9878 234.334 98.9878C234.066 98.9878 233.834 99.0244 233.639 99.0977C233.443 99.1709 233.281 99.2686 233.15 99.3906C233.02 99.5208 232.918 99.6714 232.845 99.8423C232.772 100.005 232.723 100.188 232.699 100.392C232.699 100.432 232.699 100.473 232.699 100.514C232.699 100.546 232.699 100.587 232.699 100.636V110.523H230.55V100.624C230.55 100.347 230.518 100.103 230.453 99.8911C230.396 99.6795 230.302 99.5046 230.172 99.3662C230.05 99.236 229.895 99.1424 229.708 99.0854C229.529 99.0203 229.317 98.9878 229.073 98.9878C228.805 98.9878 228.569 99.0203 228.365 99.0854C228.17 99.1424 228.003 99.2279 227.865 99.3418C227.759 99.4313 227.665 99.533 227.584 99.647C227.511 99.7609 227.45 99.883 227.401 100.013V110.523H225.252V97.3154H227.279ZM241.11 91.7734H247.86V108.57H252.169V110.523H241.11V108.57H245.602V93.7388H241.11V91.7734Z" fill="white"/>
<path d="M117.751 157.937C118.158 157.937 118.553 157.871 118.936 157.741C119.326 157.611 119.672 157.428 119.973 157.192C120.274 156.964 120.514 156.695 120.693 156.386C120.881 156.069 120.978 155.727 120.986 155.361H123.123C123.114 155.947 122.96 156.508 122.659 157.045C122.366 157.574 121.971 158.038 121.475 158.437C120.978 158.844 120.409 159.169 119.766 159.414C119.123 159.65 118.451 159.768 117.751 159.768C116.75 159.768 115.876 159.589 115.127 159.23C114.378 158.872 113.756 158.388 113.259 157.778C112.755 157.176 112.376 156.48 112.124 155.69C111.872 154.893 111.746 154.055 111.746 153.176V152.663C111.746 151.792 111.872 150.958 112.124 150.161C112.376 149.363 112.755 148.659 113.259 148.049C113.756 147.447 114.378 146.966 115.127 146.608C115.876 146.25 116.75 146.071 117.751 146.071C118.533 146.071 119.249 146.197 119.9 146.45C120.559 146.694 121.129 147.028 121.609 147.451C122.081 147.882 122.451 148.391 122.72 148.977C122.988 149.562 123.123 150.189 123.123 150.856H120.986C120.978 150.458 120.889 150.083 120.718 149.733C120.555 149.375 120.331 149.062 120.046 148.793C119.762 148.525 119.42 148.313 119.021 148.159C118.63 148.004 118.207 147.927 117.751 147.927C117.052 147.927 116.462 148.069 115.981 148.354C115.509 148.631 115.127 148.993 114.834 149.44C114.541 149.896 114.329 150.405 114.199 150.966C114.077 151.528 114.016 152.093 114.016 152.663V153.176C114.016 153.754 114.077 154.327 114.199 154.897C114.329 155.458 114.541 155.963 114.834 156.411C115.119 156.866 115.497 157.237 115.969 157.521C116.449 157.798 117.043 157.937 117.751 157.937ZM135.416 156.02C135.416 155.751 135.363 155.511 135.257 155.3C135.151 155.08 134.972 154.881 134.72 154.702C134.467 154.523 134.134 154.36 133.719 154.213C133.304 154.059 132.787 153.92 132.168 153.798C131.412 153.644 130.72 153.457 130.093 153.237C129.475 153.017 128.946 152.753 128.506 152.443C128.059 152.142 127.713 151.788 127.469 151.381C127.225 150.966 127.103 150.486 127.103 149.941C127.103 149.404 127.229 148.903 127.481 148.439C127.733 147.967 128.087 147.556 128.543 147.207C128.999 146.857 129.54 146.58 130.167 146.376C130.801 146.173 131.497 146.071 132.254 146.071C133.068 146.071 133.8 146.177 134.451 146.389C135.102 146.6 135.656 146.893 136.111 147.268C136.567 147.642 136.917 148.081 137.161 148.586C137.413 149.082 137.54 149.619 137.54 150.197H135.281C135.281 149.912 135.208 149.636 135.062 149.367C134.915 149.09 134.712 148.846 134.451 148.635C134.191 148.423 133.873 148.252 133.499 148.122C133.133 147.992 132.718 147.927 132.254 147.927C131.774 147.927 131.351 147.98 130.984 148.085C130.626 148.191 130.329 148.334 130.093 148.513C129.849 148.692 129.666 148.899 129.544 149.135C129.422 149.371 129.361 149.615 129.361 149.868C129.361 150.128 129.41 150.36 129.507 150.563C129.605 150.767 129.776 150.95 130.02 151.113C130.256 151.276 130.573 151.422 130.972 151.552C131.379 151.682 131.892 151.809 132.51 151.931C133.324 152.102 134.052 152.301 134.695 152.529C135.338 152.749 135.879 153.013 136.319 153.322C136.758 153.64 137.092 154.006 137.32 154.421C137.556 154.836 137.674 155.316 137.674 155.861C137.674 156.447 137.54 156.98 137.271 157.46C137.011 157.941 136.644 158.352 136.172 158.693C135.7 159.035 135.135 159.3 134.476 159.487C133.816 159.674 133.096 159.768 132.315 159.768C131.42 159.768 130.622 159.65 129.922 159.414C129.222 159.169 128.632 158.848 128.152 158.449C127.664 158.059 127.29 157.603 127.029 157.082C126.777 156.561 126.651 156.02 126.651 155.458H128.909C128.942 155.922 129.064 156.313 129.275 156.63C129.495 156.948 129.768 157.204 130.093 157.399C130.411 157.595 130.765 157.733 131.155 157.814C131.546 157.896 131.932 157.937 132.315 157.937C132.917 157.937 133.442 157.867 133.89 157.729C134.337 157.583 134.687 157.383 134.939 157.131C135.094 156.976 135.212 156.805 135.293 156.618C135.375 156.431 135.416 156.232 135.416 156.02ZM149.93 156.02C149.93 155.751 149.877 155.511 149.771 155.3C149.666 155.08 149.487 154.881 149.234 154.702C148.982 154.523 148.648 154.36 148.233 154.213C147.818 154.059 147.302 153.92 146.683 153.798C145.926 153.644 145.235 153.457 144.608 153.237C143.989 153.017 143.46 152.753 143.021 152.443C142.573 152.142 142.228 151.788 141.983 151.381C141.739 150.966 141.617 150.486 141.617 149.941C141.617 149.404 141.743 148.903 141.996 148.439C142.248 147.967 142.602 147.556 143.058 147.207C143.513 146.857 144.055 146.58 144.681 146.376C145.316 146.173 146.012 146.071 146.769 146.071C147.582 146.071 148.315 146.177 148.966 146.389C149.617 146.6 150.17 146.893 150.626 147.268C151.082 147.642 151.432 148.081 151.676 148.586C151.928 149.082 152.054 149.619 152.054 150.197H149.796C149.796 149.912 149.723 149.636 149.576 149.367C149.43 149.09 149.226 148.846 148.966 148.635C148.705 148.423 148.388 148.252 148.014 148.122C147.647 147.992 147.232 147.927 146.769 147.927C146.288 147.927 145.865 147.98 145.499 148.085C145.141 148.191 144.844 148.334 144.608 148.513C144.364 148.692 144.181 148.899 144.059 149.135C143.937 149.371 143.875 149.615 143.875 149.868C143.875 150.128 143.924 150.36 144.022 150.563C144.12 150.767 144.291 150.95 144.535 151.113C144.771 151.276 145.088 151.422 145.487 151.552C145.894 151.682 146.406 151.809 147.025 151.931C147.839 152.102 148.567 152.301 149.21 152.529C149.853 152.749 150.394 153.013 150.833 153.322C151.273 153.64 151.607 154.006 151.834 154.421C152.07 154.836 152.188 155.316 152.188 155.861C152.188 156.447 152.054 156.98 151.786 157.46C151.525 157.941 151.159 158.352 150.687 158.693C150.215 159.035 149.649 159.3 148.99 159.487C148.331 159.674 147.611 159.768 146.83 159.768C145.934 159.768 145.137 159.65 144.437 159.414C143.737 159.169 143.147 158.848 142.667 158.449C142.179 158.059 141.804 157.603 141.544 157.082C141.292 156.561 141.166 156.02 141.166 155.458H143.424C143.456 155.922 143.578 156.313 143.79 156.63C144.01 156.948 144.282 157.204 144.608 157.399C144.925 157.595 145.279 157.733 145.67 157.814C146.061 157.896 146.447 157.937 146.83 157.937C147.432 157.937 147.957 157.867 148.404 157.729C148.852 157.583 149.202 157.383 149.454 157.131C149.609 156.976 149.727 156.805 149.808 156.618C149.889 156.431 149.93 156.232 149.93 156.02Z" fill="#0066FF"/>
<path d="M158.646 161.049H156.62L164.042 141.75H166.056L158.646 161.049Z" fill="white"/>
<path d="M196.901 215.02C196.901 214.751 196.848 214.511 196.742 214.3C196.636 214.08 196.457 213.881 196.205 213.702C195.953 213.523 195.619 213.36 195.204 213.213C194.789 213.059 194.272 212.92 193.654 212.798C192.897 212.644 192.205 212.457 191.579 212.237C190.96 212.017 190.431 211.753 189.992 211.443C189.544 211.142 189.198 210.788 188.954 210.381C188.71 209.966 188.588 209.486 188.588 208.941C188.588 208.404 188.714 207.903 188.966 207.439C189.219 206.967 189.573 206.556 190.028 206.207C190.484 205.857 191.025 205.58 191.652 205.376C192.287 205.173 192.982 205.071 193.739 205.071C194.553 205.071 195.285 205.177 195.937 205.389C196.588 205.6 197.141 205.893 197.597 206.268C198.052 206.642 198.402 207.081 198.646 207.586C198.899 208.082 199.025 208.619 199.025 209.197H196.767C196.767 208.912 196.693 208.636 196.547 208.367C196.4 208.09 196.197 207.846 195.937 207.635C195.676 207.423 195.359 207.252 194.984 207.122C194.618 206.992 194.203 206.927 193.739 206.927C193.259 206.927 192.836 206.98 192.47 207.085C192.112 207.191 191.815 207.334 191.579 207.513C191.334 207.692 191.151 207.899 191.029 208.135C190.907 208.371 190.846 208.615 190.846 208.868C190.846 209.128 190.895 209.36 190.993 209.563C191.09 209.767 191.261 209.95 191.505 210.113C191.741 210.276 192.059 210.422 192.458 210.552C192.864 210.682 193.377 210.809 193.996 210.931C194.809 211.102 195.538 211.301 196.181 211.529C196.824 211.749 197.365 212.013 197.804 212.322C198.244 212.64 198.577 213.006 198.805 213.421C199.041 213.836 199.159 214.316 199.159 214.861C199.159 215.447 199.025 215.98 198.756 216.46C198.496 216.941 198.13 217.352 197.658 217.693C197.186 218.035 196.62 218.3 195.961 218.487C195.302 218.674 194.582 218.768 193.8 218.768C192.905 218.768 192.108 218.65 191.408 218.414C190.708 218.169 190.118 217.848 189.638 217.449C189.149 217.059 188.775 216.603 188.515 216.082C188.262 215.561 188.136 215.02 188.136 214.458H190.395C190.427 214.922 190.549 215.313 190.761 215.63C190.98 215.948 191.253 216.204 191.579 216.399C191.896 216.595 192.25 216.733 192.641 216.814C193.031 216.896 193.418 216.937 193.8 216.937C194.403 216.937 194.927 216.867 195.375 216.729C195.823 216.583 196.173 216.383 196.425 216.131C196.579 215.976 196.697 215.805 196.779 215.618C196.86 215.431 196.901 215.232 196.901 215.02ZM207.985 202.117V205.315H213.015V207.061H207.985V214.239C207.985 214.751 208.05 215.175 208.181 215.508C208.311 215.842 208.49 216.106 208.718 216.302C208.946 216.505 209.206 216.648 209.499 216.729C209.8 216.81 210.118 216.851 210.451 216.851C210.695 216.851 210.948 216.839 211.208 216.814C211.468 216.782 211.725 216.745 211.977 216.705C212.221 216.664 212.449 216.623 212.661 216.583C212.88 216.534 213.059 216.493 213.198 216.46L213.515 218.06C213.328 218.174 213.1 218.275 212.832 218.365C212.563 218.446 212.27 218.515 211.953 218.572C211.635 218.637 211.298 218.686 210.939 218.719C210.59 218.751 210.24 218.768 209.89 218.768C209.304 218.768 208.754 218.686 208.242 218.523C207.737 218.353 207.298 218.084 206.923 217.718C206.549 217.36 206.252 216.896 206.032 216.326C205.821 215.748 205.715 215.053 205.715 214.239V207.061H202.248V205.315H205.715V202.117H207.985ZM218.215 223.858C218.004 223.858 217.756 223.833 217.471 223.785C217.186 223.736 216.97 223.695 216.824 223.663L217.19 221.819C217.393 221.836 217.593 221.848 217.788 221.856C217.992 221.872 218.15 221.88 218.264 221.88C218.573 221.88 218.854 221.795 219.106 221.624C219.367 221.453 219.599 221.25 219.802 221.014C219.998 220.778 220.164 220.534 220.303 220.281C220.449 220.029 220.563 219.821 220.645 219.659L221.548 217.901L215.859 205.315H218.386L222.012 213.836L222.598 215.435L223.22 213.885L226.626 205.315H229.153L222.451 220.562C222.297 220.904 222.097 221.266 221.853 221.648C221.617 222.031 221.328 222.385 220.986 222.71C220.645 223.036 220.246 223.309 219.79 223.528C219.334 223.748 218.809 223.858 218.215 223.858ZM232.022 199.773H238.772V216.57H243.082V218.523H232.022V216.57H236.514V201.739H232.022V199.773ZM252.018 218.768C251.09 218.768 250.235 218.609 249.454 218.292C248.681 217.974 248.018 217.531 247.464 216.961C246.911 216.391 246.48 215.716 246.17 214.935C245.861 214.153 245.707 213.303 245.707 212.383V211.871C245.707 210.805 245.877 209.852 246.219 209.014C246.561 208.168 247.017 207.452 247.586 206.866C248.148 206.288 248.787 205.844 249.503 205.535C250.227 205.226 250.968 205.071 251.725 205.071C252.677 205.071 253.507 205.238 254.215 205.572C254.931 205.897 255.525 206.349 255.997 206.927C256.469 207.513 256.819 208.2 257.047 208.99C257.283 209.779 257.401 210.634 257.401 211.553V212.566H247.965V212.652C248.022 213.295 248.148 213.86 248.343 214.349C248.547 214.837 248.823 215.268 249.173 215.643C249.531 216.041 249.963 216.355 250.467 216.583C250.972 216.81 251.529 216.924 252.14 216.924C252.945 216.924 253.661 216.762 254.288 216.436C254.915 216.111 255.436 215.679 255.851 215.142L257.23 216.216C256.791 216.884 256.131 217.478 255.252 217.999C254.382 218.511 253.303 218.768 252.018 218.768ZM251.725 206.927C251.269 206.927 250.838 207.012 250.431 207.183C250.024 207.346 249.658 207.586 249.332 207.903C249.007 208.229 248.73 208.628 248.502 209.1C248.282 209.563 248.128 210.101 248.038 210.711H255.143V210.601C255.143 210.194 255.065 209.759 254.911 209.295C254.756 208.823 254.54 208.416 254.264 208.074C253.987 207.732 253.637 207.456 253.214 207.244C252.799 207.033 252.302 206.927 251.725 206.927ZM264.628 217.059C264.628 216.578 264.774 216.167 265.067 215.826C265.36 215.484 265.804 215.313 266.398 215.313C266.984 215.313 267.427 215.484 267.729 215.826C268.038 216.159 268.192 216.57 268.192 217.059C268.192 217.539 268.038 217.942 267.729 218.267C267.419 218.593 266.976 218.755 266.398 218.755C265.812 218.755 265.368 218.593 265.067 218.267C264.774 217.933 264.628 217.531 264.628 217.059ZM280.839 216.937C281.246 216.937 281.641 216.871 282.023 216.741C282.414 216.611 282.76 216.428 283.061 216.192C283.362 215.964 283.602 215.695 283.781 215.386C283.968 215.069 284.066 214.727 284.074 214.361H286.21C286.202 214.947 286.048 215.508 285.747 216.045C285.454 216.574 285.059 217.038 284.562 217.437C284.066 217.844 283.496 218.169 282.854 218.414C282.211 218.65 281.539 218.768 280.839 218.768C279.838 218.768 278.964 218.589 278.215 218.23C277.466 217.872 276.844 217.388 276.347 216.778C275.843 216.176 275.464 215.48 275.212 214.69C274.96 213.893 274.833 213.055 274.833 212.176V211.663C274.833 210.792 274.96 209.958 275.212 209.161C275.464 208.363 275.843 207.659 276.347 207.049C276.844 206.447 277.466 205.966 278.215 205.608C278.964 205.25 279.838 205.071 280.839 205.071C281.621 205.071 282.337 205.197 282.988 205.45C283.647 205.694 284.217 206.028 284.697 206.451C285.169 206.882 285.539 207.391 285.808 207.977C286.076 208.562 286.21 209.189 286.21 209.856H284.074C284.066 209.458 283.977 209.083 283.806 208.733C283.643 208.375 283.419 208.062 283.134 207.793C282.849 207.525 282.508 207.313 282.109 207.159C281.718 207.004 281.295 206.927 280.839 206.927C280.139 206.927 279.549 207.069 279.069 207.354C278.597 207.631 278.215 207.993 277.922 208.44C277.629 208.896 277.417 209.405 277.287 209.966C277.165 210.528 277.104 211.093 277.104 211.663V212.176C277.104 212.754 277.165 213.327 277.287 213.897C277.417 214.458 277.629 214.963 277.922 215.411C278.207 215.866 278.585 216.237 279.057 216.521C279.537 216.798 280.131 216.937 280.839 216.937ZM298.503 215.02C298.503 214.751 298.451 214.511 298.345 214.3C298.239 214.08 298.06 213.881 297.808 213.702C297.555 213.523 297.222 213.36 296.807 213.213C296.392 213.059 295.875 212.92 295.256 212.798C294.5 212.644 293.808 212.457 293.181 212.237C292.563 212.017 292.034 211.753 291.594 211.443C291.147 211.142 290.801 210.788 290.557 210.381C290.312 209.966 290.19 209.486 290.19 208.941C290.19 208.404 290.317 207.903 290.569 207.439C290.821 206.967 291.175 206.556 291.631 206.207C292.087 205.857 292.628 205.58 293.254 205.376C293.889 205.173 294.585 205.071 295.342 205.071C296.156 205.071 296.888 205.177 297.539 205.389C298.19 205.6 298.743 205.893 299.199 206.268C299.655 206.642 300.005 207.081 300.249 207.586C300.501 208.082 300.627 208.619 300.627 209.197H298.369C298.369 208.912 298.296 208.636 298.149 208.367C298.003 208.09 297.799 207.846 297.539 207.635C297.279 207.423 296.961 207.252 296.587 207.122C296.221 206.992 295.806 206.927 295.342 206.927C294.862 206.927 294.438 206.98 294.072 207.085C293.714 207.191 293.417 207.334 293.181 207.513C292.937 207.692 292.754 207.899 292.632 208.135C292.51 208.371 292.449 208.615 292.449 208.868C292.449 209.128 292.498 209.36 292.595 209.563C292.693 209.767 292.864 209.95 293.108 210.113C293.344 210.276 293.661 210.422 294.06 210.552C294.467 210.682 294.98 210.809 295.598 210.931C296.412 211.102 297.14 211.301 297.783 211.529C298.426 211.749 298.967 212.013 299.407 212.322C299.846 212.64 300.18 213.006 300.408 213.421C300.644 213.836 300.762 214.316 300.762 214.861C300.762 215.447 300.627 215.98 300.359 216.46C300.098 216.941 299.732 217.352 299.26 217.693C298.788 218.035 298.223 218.3 297.563 218.487C296.904 218.674 296.184 218.768 295.403 218.768C294.508 218.768 293.71 218.65 293.01 218.414C292.31 218.169 291.72 217.848 291.24 217.449C290.752 217.059 290.378 216.603 290.117 216.082C289.865 215.561 289.739 215.02 289.739 214.458H291.997C292.03 214.922 292.152 215.313 292.363 215.63C292.583 215.948 292.856 216.204 293.181 216.399C293.499 216.595 293.853 216.733 294.243 216.814C294.634 216.896 295.02 216.937 295.403 216.937C296.005 216.937 296.53 216.867 296.978 216.729C297.425 216.583 297.775 216.383 298.027 216.131C298.182 215.976 298.3 215.805 298.381 215.618C298.463 215.431 298.503 215.232 298.503 215.02ZM313.018 215.02C313.018 214.751 312.965 214.511 312.859 214.3C312.754 214.08 312.575 213.881 312.322 213.702C312.07 213.523 311.736 213.36 311.321 213.213C310.906 213.059 310.389 212.92 309.771 212.798C309.014 212.644 308.322 212.457 307.696 212.237C307.077 212.017 306.548 211.753 306.109 211.443C305.661 211.142 305.315 210.788 305.071 210.381C304.827 209.966 304.705 209.486 304.705 208.941C304.705 208.404 304.831 207.903 305.083 207.439C305.336 206.967 305.69 206.556 306.146 206.207C306.601 205.857 307.142 205.58 307.769 205.376C308.404 205.173 309.1 205.071 309.856 205.071C310.67 205.071 311.403 205.177 312.054 205.389C312.705 205.6 313.258 205.893 313.714 206.268C314.17 206.642 314.52 207.081 314.764 207.586C315.016 208.082 315.142 208.619 315.142 209.197H312.884C312.884 208.912 312.811 208.636 312.664 208.367C312.518 208.09 312.314 207.846 312.054 207.635C311.793 207.423 311.476 207.252 311.102 207.122C310.735 206.992 310.32 206.927 309.856 206.927C309.376 206.927 308.953 206.98 308.587 207.085C308.229 207.191 307.932 207.334 307.696 207.513C307.452 207.692 307.269 207.899 307.146 208.135C307.024 208.371 306.963 208.615 306.963 208.868C306.963 209.128 307.012 209.36 307.11 209.563C307.208 209.767 307.378 209.95 307.623 210.113C307.859 210.276 308.176 210.422 308.575 210.552C308.982 210.682 309.494 210.809 310.113 210.931C310.927 211.102 311.655 211.301 312.298 211.529C312.941 211.749 313.482 212.013 313.921 212.322C314.361 212.64 314.694 213.006 314.922 213.421C315.158 213.836 315.276 214.316 315.276 214.861C315.276 215.447 315.142 215.98 314.874 216.46C314.613 216.941 314.247 217.352 313.775 217.693C313.303 218.035 312.737 218.3 312.078 218.487C311.419 218.674 310.699 218.768 309.917 218.768C309.022 218.768 308.225 218.65 307.525 218.414C306.825 218.169 306.235 217.848 305.755 217.449C305.267 217.059 304.892 216.603 304.632 216.082C304.38 215.561 304.253 215.02 304.253 214.458H306.512C306.544 214.922 306.666 215.313 306.878 215.63C307.098 215.948 307.37 216.204 307.696 216.399C308.013 216.595 308.367 216.733 308.758 216.814C309.148 216.896 309.535 216.937 309.917 216.937C310.52 216.937 311.045 216.867 311.492 216.729C311.94 216.583 312.29 216.383 312.542 216.131C312.697 215.976 312.815 215.805 312.896 215.618C312.977 215.431 313.018 215.232 313.018 215.02Z" fill="white"/>
<line x1="41.5" y1="58" x2="41.5" y2="101.301" stroke="white"/>
<line x1="41.5" y1="108.35" x2="41.5" y2="151.651" stroke="white"/>
<line x1="47" y1="100.801" x2="102" y2="100.801" stroke="white"/>
<line x1="47" y1="151.151" x2="102" y2="151.151" stroke="white"/>
<line x1="113.5" y1="166.756" x2="113.5" y2="210.058" stroke="white"/>
<line x1="119" y1="209.557" x2="174" y2="209.557" stroke="white"/>
</svg>
