<svg width="779" height="543" viewBox="0 0 779 543" fill="none" xmlns="http://www.w3.org/2000/svg">
<rect width="779" height="543" rx="20" fill="#0066FF" fill-opacity="0.2"/>
<rect x="1.5" y="1.5" width="776" height="540" rx="18.5" stroke="#0066FF" stroke-opacity="0.5" stroke-width="3"/>
<path d="M330.697 206.286C330.697 205.301 330.819 204.398 331.063 203.576C331.315 202.746 331.673 202.034 332.137 201.44C332.593 200.846 333.146 200.382 333.797 200.048C334.448 199.715 335.177 199.548 335.982 199.548C336.772 199.548 337.459 199.682 338.045 199.951C338.639 200.211 339.152 200.594 339.583 201.098V194.25H341.842V213H339.767L339.669 211.608C339.229 212.146 338.705 212.552 338.094 212.829C337.484 213.106 336.772 213.244 335.958 213.244C335.16 213.244 334.436 213.073 333.785 212.731C333.142 212.39 332.593 211.918 332.137 211.315C331.681 210.713 331.327 210.005 331.075 209.191C330.823 208.369 330.697 207.486 330.697 206.542V206.286ZM332.955 206.542C332.955 207.185 333.024 207.796 333.163 208.374C333.301 208.951 333.517 209.46 333.81 209.899C334.094 210.339 334.461 210.689 334.908 210.949C335.356 211.201 335.893 211.328 336.52 211.328C337.276 211.328 337.903 211.157 338.399 210.815C338.896 210.473 339.291 210.013 339.583 209.436V203.308C339.291 202.771 338.896 202.331 338.399 201.989C337.903 201.639 337.285 201.464 336.544 201.464C335.909 201.464 335.364 201.595 334.908 201.855C334.461 202.115 334.094 202.465 333.81 202.905C333.517 203.352 333.301 203.869 333.163 204.455C333.024 205.033 332.955 205.643 332.955 206.286V206.542ZM345.993 199.792H352.743V211.047H357.052V213H345.993V211.047H350.485V201.757H345.993V199.792ZM350.192 196.325C350.192 196.13 350.22 195.947 350.277 195.776C350.342 195.605 350.44 195.458 350.57 195.336C350.676 195.231 350.81 195.149 350.973 195.092C351.144 195.027 351.335 194.995 351.547 194.995C351.758 194.995 351.946 195.027 352.108 195.092C352.271 195.149 352.405 195.231 352.511 195.336C352.641 195.45 352.739 195.593 352.804 195.764C352.869 195.935 352.902 196.122 352.902 196.325C352.902 196.691 352.788 196.997 352.56 197.241C352.332 197.485 351.994 197.607 351.547 197.607C351.091 197.607 350.749 197.485 350.521 197.241C350.302 196.997 350.192 196.691 350.192 196.325ZM368.93 209.497C368.93 209.228 368.877 208.988 368.771 208.776C368.666 208.557 368.487 208.357 368.234 208.178C367.982 207.999 367.648 207.836 367.233 207.69C366.818 207.535 366.302 207.397 365.683 207.275C364.926 207.12 364.235 206.933 363.608 206.713C362.989 206.494 362.46 206.229 362.021 205.92C361.573 205.619 361.228 205.265 360.983 204.858C360.739 204.443 360.617 203.963 360.617 203.417C360.617 202.88 360.743 202.38 360.996 201.916C361.248 201.444 361.602 201.033 362.058 200.683C362.513 200.333 363.055 200.056 363.681 199.853C364.316 199.65 365.012 199.548 365.769 199.548C366.582 199.548 367.315 199.654 367.966 199.865C368.617 200.077 369.17 200.37 369.626 200.744C370.082 201.118 370.432 201.558 370.676 202.062C370.928 202.559 371.054 203.096 371.054 203.674H368.796C368.796 203.389 368.723 203.112 368.576 202.844C368.43 202.567 368.226 202.323 367.966 202.111C367.705 201.9 367.388 201.729 367.014 201.599C366.647 201.468 366.232 201.403 365.769 201.403C365.288 201.403 364.865 201.456 364.499 201.562C364.141 201.668 363.844 201.81 363.608 201.989C363.364 202.168 363.181 202.376 363.059 202.612C362.937 202.848 362.875 203.092 362.875 203.344C362.875 203.605 362.924 203.837 363.022 204.04C363.12 204.243 363.291 204.427 363.535 204.589C363.771 204.752 364.088 204.899 364.487 205.029C364.894 205.159 365.406 205.285 366.025 205.407C366.839 205.578 367.567 205.778 368.21 206.005C368.853 206.225 369.394 206.49 369.833 206.799C370.273 207.116 370.607 207.482 370.834 207.897C371.07 208.312 371.188 208.793 371.188 209.338C371.188 209.924 371.054 210.457 370.786 210.937C370.525 211.417 370.159 211.828 369.687 212.17C369.215 212.512 368.649 212.776 367.99 212.963C367.331 213.151 366.611 213.244 365.83 213.244C364.934 213.244 364.137 213.126 363.437 212.89C362.737 212.646 362.147 212.325 361.667 211.926C361.179 211.535 360.804 211.079 360.544 210.559C360.292 210.038 360.166 209.497 360.166 208.935H362.424C362.456 209.399 362.578 209.79 362.79 210.107C363.01 210.424 363.282 210.681 363.608 210.876C363.925 211.071 364.279 211.21 364.67 211.291C365.061 211.372 365.447 211.413 365.83 211.413C366.432 211.413 366.957 211.344 367.404 211.206C367.852 211.059 368.202 210.86 368.454 210.607C368.609 210.453 368.727 210.282 368.808 210.095C368.889 209.908 368.93 209.708 368.93 209.497ZM374.656 218.078V199.792H376.719L376.829 201.232C377.008 201.005 377.203 200.801 377.415 200.622C377.626 200.435 377.854 200.276 378.098 200.146C378.44 199.951 378.818 199.804 379.233 199.707C379.657 199.601 380.108 199.548 380.588 199.548C381.435 199.548 382.183 199.715 382.834 200.048C383.486 200.382 384.031 200.846 384.47 201.44C384.91 202.034 385.243 202.746 385.471 203.576C385.699 204.398 385.813 205.301 385.813 206.286V206.542C385.813 207.486 385.699 208.369 385.471 209.191C385.243 210.005 384.91 210.713 384.47 211.315C384.031 211.918 383.486 212.39 382.834 212.731C382.192 213.073 381.455 213.244 380.625 213.244C380.12 213.244 379.648 213.191 379.209 213.085C378.778 212.98 378.387 212.829 378.037 212.634C377.826 212.512 377.626 212.377 377.439 212.231C377.252 212.076 377.077 211.91 376.914 211.73V218.078H374.656ZM383.555 206.286C383.555 205.643 383.481 205.033 383.335 204.455C383.197 203.869 382.981 203.352 382.688 202.905C382.387 202.465 382.008 202.115 381.553 201.855C381.097 201.595 380.552 201.464 379.917 201.464C379.567 201.464 379.242 201.505 378.94 201.586C378.647 201.668 378.383 201.786 378.147 201.94C377.887 202.095 377.655 202.286 377.451 202.514C377.248 202.742 377.069 202.994 376.914 203.271V209.631C377.052 209.875 377.211 210.103 377.39 210.314C377.569 210.526 377.773 210.705 378 210.852C378.261 211.022 378.55 211.157 378.867 211.254C379.193 211.352 379.551 211.401 379.941 211.401C380.568 211.401 381.109 211.271 381.565 211.01C382.021 210.742 382.395 210.384 382.688 209.936C382.981 209.488 383.197 208.972 383.335 208.386C383.481 207.8 383.555 207.185 383.555 206.542V206.286ZM389.537 194.25H396.287V211.047H400.596V213H389.537V211.047H394.029V196.215H389.537V194.25ZM412.376 213C412.287 212.829 412.214 212.618 412.157 212.365C412.108 212.105 412.071 211.836 412.047 211.56C411.819 211.787 411.563 212.003 411.278 212.207C411.001 212.41 410.696 212.589 410.362 212.744C410.021 212.898 409.658 213.02 409.276 213.11C408.893 213.199 408.486 213.244 408.055 213.244C407.355 213.244 406.721 213.142 406.151 212.939C405.589 212.736 405.113 212.459 404.723 212.109C404.324 211.767 404.015 211.36 403.795 210.888C403.583 210.408 403.478 209.891 403.478 209.338C403.478 208.614 403.62 207.979 403.905 207.434C404.198 206.888 404.609 206.433 405.138 206.066C405.667 205.708 406.301 205.44 407.042 205.261C407.791 205.082 408.625 204.992 409.544 204.992H412.01V203.955C412.01 203.556 411.937 203.198 411.791 202.88C411.644 202.563 411.437 202.29 411.168 202.062C410.899 201.843 410.57 201.672 410.179 201.55C409.797 201.428 409.365 201.367 408.885 201.367C408.438 201.367 408.035 201.424 407.677 201.538C407.327 201.652 407.03 201.802 406.786 201.989C406.542 202.176 406.35 202.4 406.212 202.661C406.082 202.913 406.017 203.177 406.017 203.454H403.746C403.754 202.974 403.876 202.502 404.112 202.038C404.356 201.574 404.706 201.155 405.162 200.781C405.61 200.415 406.155 200.118 406.798 199.89C407.449 199.662 408.185 199.548 409.007 199.548C409.756 199.548 410.452 199.641 411.095 199.829C411.738 200.008 412.295 200.28 412.767 200.646C413.231 201.021 413.597 201.485 413.866 202.038C414.134 202.591 414.269 203.238 414.269 203.979V210.119C414.269 210.559 414.309 211.027 414.391 211.523C414.472 212.011 414.586 212.438 414.732 212.805V213H412.376ZM408.385 211.279C408.824 211.279 409.235 211.222 409.618 211.108C410 210.994 410.35 210.843 410.667 210.656C410.977 210.469 411.245 210.257 411.473 210.021C411.701 209.777 411.88 209.525 412.01 209.265V206.591H409.911C409.129 206.591 408.446 206.66 407.86 206.799C407.282 206.929 406.822 207.132 406.48 207.409C406.236 207.604 406.049 207.836 405.919 208.105C405.797 208.374 405.736 208.679 405.736 209.021C405.736 209.346 405.789 209.647 405.895 209.924C406.008 210.201 406.175 210.437 406.395 210.632C406.615 210.835 406.891 210.994 407.225 211.108C407.559 211.222 407.945 211.279 408.385 211.279ZM419.274 218.334C419.062 218.334 418.814 218.31 418.529 218.261C418.244 218.212 418.029 218.172 417.882 218.139L418.249 216.296C418.452 216.312 418.651 216.324 418.847 216.333C419.05 216.349 419.209 216.357 419.323 216.357C419.632 216.357 419.913 216.271 420.165 216.101C420.425 215.93 420.657 215.726 420.861 215.49C421.056 215.254 421.223 215.01 421.361 214.758C421.508 214.506 421.622 214.298 421.703 214.135L422.606 212.377L416.918 199.792H419.445L423.07 208.312L423.656 209.912L424.279 208.361L427.685 199.792H430.211L423.51 215.039C423.355 215.38 423.156 215.743 422.912 216.125C422.676 216.507 422.387 216.861 422.045 217.187C421.703 217.513 421.304 217.785 420.849 218.005C420.393 218.225 419.868 218.334 419.274 218.334ZM437.268 211.535C437.268 211.055 437.414 210.644 437.707 210.302C438 209.96 438.444 209.79 439.038 209.79C439.624 209.79 440.067 209.96 440.368 210.302C440.677 210.636 440.832 211.047 440.832 211.535C440.832 212.015 440.677 212.418 440.368 212.744C440.059 213.069 439.615 213.232 439.038 213.232C438.452 213.232 438.008 213.069 437.707 212.744C437.414 212.41 437.268 212.007 437.268 211.535ZM437.268 200.842C437.268 200.362 437.414 199.951 437.707 199.609C438 199.267 438.444 199.096 439.038 199.096C439.624 199.096 440.067 199.267 440.368 199.609C440.677 199.943 440.832 200.354 440.832 200.842C440.832 201.322 440.677 201.725 440.368 202.05C440.059 202.376 439.615 202.539 439.038 202.539C438.452 202.539 438.008 202.376 437.707 202.05C437.414 201.717 437.268 201.314 437.268 200.842ZM465.125 213V201.538H461.487V199.792H465.125V198.864C465.125 198.018 465.247 197.277 465.491 196.643C465.743 196 466.097 195.463 466.553 195.031C467.001 194.6 467.542 194.274 468.177 194.055C468.812 193.835 469.52 193.725 470.301 193.725C470.626 193.725 470.948 193.745 471.265 193.786C471.583 193.819 471.896 193.863 472.205 193.92C472.409 193.961 472.612 194.006 472.815 194.055C473.019 194.095 473.226 194.144 473.438 194.201L473.169 196.069C472.836 195.955 472.445 195.857 471.998 195.776C471.558 195.686 471.086 195.642 470.582 195.642C470.069 195.642 469.613 195.707 469.214 195.837C468.824 195.959 468.498 196.146 468.238 196.398C467.961 196.659 467.75 196.997 467.603 197.412C467.465 197.827 467.396 198.311 467.396 198.864V199.792H472.486V201.538H467.396V213H465.125ZM476.625 194.25H483.375V211.047H487.684V213H476.625V211.047H481.117V196.215H476.625V194.25ZM496.62 213.244C495.692 213.244 494.838 213.085 494.057 212.768C493.284 212.451 492.62 212.007 492.067 211.438C491.514 210.868 491.082 210.192 490.773 209.411C490.464 208.63 490.309 207.779 490.309 206.86V206.347C490.309 205.281 490.48 204.329 490.822 203.491C491.164 202.644 491.619 201.928 492.189 201.342C492.75 200.764 493.389 200.321 494.105 200.012C494.83 199.702 495.57 199.548 496.327 199.548C497.279 199.548 498.109 199.715 498.817 200.048C499.534 200.374 500.128 200.826 500.6 201.403C501.072 201.989 501.422 202.677 501.649 203.466C501.885 204.256 502.003 205.11 502.003 206.03V207.043H492.567V207.128C492.624 207.771 492.75 208.337 492.946 208.825C493.149 209.313 493.426 209.745 493.776 210.119C494.134 210.518 494.565 210.831 495.07 211.059C495.574 211.287 496.132 211.401 496.742 211.401C497.548 211.401 498.264 211.238 498.891 210.913C499.517 210.587 500.038 210.156 500.453 209.619L501.833 210.693C501.393 211.36 500.734 211.954 499.855 212.475C498.984 212.988 497.906 213.244 496.62 213.244ZM496.327 201.403C495.871 201.403 495.44 201.489 495.033 201.66C494.626 201.822 494.26 202.062 493.935 202.38C493.609 202.705 493.332 203.104 493.104 203.576C492.885 204.04 492.73 204.577 492.641 205.188H499.745V205.078C499.745 204.671 499.668 204.235 499.513 203.771C499.359 203.299 499.143 202.893 498.866 202.551C498.59 202.209 498.24 201.932 497.816 201.721C497.401 201.509 496.905 201.403 496.327 201.403ZM510.756 204.687L514.284 199.792H516.933L512.014 206.323L517.067 213H514.455L510.805 207.971L507.155 213H504.519L509.572 206.323L504.653 199.792H507.265L510.756 204.687Z" fill="white"/>
<rect x="326.5" y="231.5" width="372" height="124" rx="18.5" stroke="white" stroke-width="3"/>
<rect x="343" y="249" width="90" height="90" rx="10" fill="#0066FF"/>
<path d="M390.034 304H386.604V290.365L382.112 291.976V289.022L389.851 286.227H390.034V304Z" fill="white"/>
<rect x="468" y="249" width="90" height="90" rx="10" fill="#0066FF"/>
<rect x="593" y="249" width="90" height="90" rx="10" fill="#0066FF"/>
<path d="M518.342 303H506.221V300.681L511.97 294.504C512.418 294.016 512.796 293.572 513.105 293.173C513.415 292.775 513.667 292.408 513.862 292.075C514.049 291.749 514.184 291.444 514.265 291.159C514.355 290.874 514.399 290.598 514.399 290.329C514.399 289.93 514.342 289.576 514.229 289.267C514.115 288.958 513.956 288.693 513.752 288.474C513.541 288.262 513.289 288.099 512.996 287.985C512.711 287.871 512.393 287.814 512.043 287.814C511.588 287.814 511.185 287.88 510.835 288.01C510.493 288.132 510.208 288.315 509.98 288.559C509.744 288.811 509.565 289.125 509.443 289.499C509.321 289.873 509.26 290.301 509.26 290.781H505.854C505.854 289.991 506.005 289.247 506.306 288.547C506.607 287.839 507.035 287.22 507.588 286.691C508.133 286.162 508.792 285.747 509.565 285.446C510.347 285.137 511.209 284.982 512.153 284.982C513.057 284.982 513.854 285.109 514.546 285.361C515.246 285.613 515.832 285.967 516.304 286.423C516.768 286.879 517.122 287.428 517.366 288.071C517.61 288.706 517.732 289.41 517.732 290.183C517.732 290.769 517.638 291.33 517.451 291.867C517.272 292.396 517.016 292.921 516.682 293.442C516.34 293.963 515.933 294.496 515.461 295.041C514.989 295.578 514.465 296.144 513.887 296.738L510.542 300.278H518.342V303Z" fill="white"/>
<path d="M635.139 292.624H636.982C637.471 292.624 637.89 292.559 638.24 292.429C638.598 292.29 638.887 292.099 639.106 291.855C639.31 291.643 639.46 291.387 639.558 291.086C639.664 290.777 639.717 290.443 639.717 290.085C639.717 289.735 639.664 289.418 639.558 289.133C639.46 288.84 639.31 288.588 639.106 288.376C638.903 288.173 638.643 288.014 638.325 287.9C638.016 287.786 637.654 287.729 637.239 287.729C636.897 287.729 636.576 287.778 636.274 287.875C635.981 287.973 635.725 288.111 635.505 288.291C635.278 288.478 635.098 288.701 634.968 288.962C634.838 289.222 634.773 289.515 634.773 289.841H631.379C631.379 289.117 631.526 288.457 631.819 287.863C632.12 287.269 632.531 286.757 633.052 286.325C633.573 285.902 634.183 285.572 634.883 285.336C635.591 285.1 636.352 284.982 637.166 284.982C638.044 284.982 638.85 285.092 639.583 285.312C640.315 285.524 640.942 285.841 641.462 286.264C641.983 286.695 642.386 287.229 642.671 287.863C642.964 288.49 643.11 289.218 643.11 290.048C643.11 290.431 643.053 290.809 642.939 291.184C642.826 291.55 642.659 291.9 642.439 292.233C642.219 292.567 641.947 292.876 641.621 293.161C641.296 293.438 640.921 293.678 640.498 293.881C640.994 294.06 641.422 294.288 641.78 294.565C642.146 294.842 642.447 295.155 642.683 295.505C642.919 295.863 643.094 296.254 643.208 296.677C643.322 297.1 643.379 297.548 643.379 298.02C643.379 298.85 643.22 299.59 642.903 300.241C642.585 300.892 642.15 301.438 641.597 301.877C641.043 302.325 640.384 302.666 639.619 302.902C638.862 303.13 638.044 303.244 637.166 303.244C636.409 303.244 635.668 303.142 634.944 302.939C634.228 302.727 633.589 302.41 633.027 301.987C632.466 301.572 632.014 301.047 631.672 300.412C631.339 299.777 631.172 299.029 631.172 298.166H634.565C634.565 298.508 634.631 298.825 634.761 299.118C634.891 299.403 635.078 299.647 635.322 299.851C635.558 300.062 635.839 300.229 636.165 300.351C636.49 300.465 636.848 300.522 637.239 300.522C637.678 300.522 638.073 300.461 638.423 300.339C638.773 300.217 639.066 300.038 639.302 299.802C639.53 299.59 639.701 299.33 639.814 299.021C639.937 298.711 639.998 298.365 639.998 297.983C639.998 297.503 639.928 297.092 639.79 296.75C639.652 296.408 639.452 296.127 639.192 295.908C638.923 295.688 638.602 295.525 638.228 295.419C637.861 295.314 637.446 295.261 636.982 295.261H635.139V292.624Z" fill="white"/>
<path d="M91.854 70.082H83.248V75.5386H86.4951C87.4391 75.5386 88.2773 75.6606 89.0098 75.9048C89.7503 76.1489 90.3729 76.4948 90.8774 76.9424C91.382 77.3981 91.7645 77.9434 92.0249 78.5781C92.2935 79.2129 92.4277 79.925 92.4277 80.7144C92.4277 81.4956 92.2935 82.2118 92.0249 82.8628C91.7645 83.5138 91.382 84.0713 90.8774 84.5352C90.3729 84.999 89.7503 85.3612 89.0098 85.6216C88.2773 85.8739 87.4391 86 86.4951 86H80.9775V68.2266H91.854V70.082ZM83.248 77.3818V84.1567H86.4951C87.1299 84.1567 87.6751 84.0632 88.1309 83.876C88.5947 83.6888 88.9772 83.4365 89.2783 83.1191C89.5794 82.8018 89.7992 82.4355 89.9375 82.0205C90.084 81.5973 90.1572 81.1538 90.1572 80.6899C90.1572 80.2342 90.084 79.807 89.9375 79.4082C89.7992 79.0013 89.5794 78.6473 89.2783 78.3462C88.9772 78.0532 88.5947 77.8213 88.1309 77.6504C87.6751 77.4714 87.1299 77.3818 86.4951 77.3818H83.248ZM101.474 86.2441C100.546 86.2441 99.6914 86.0854 98.9102 85.7681C98.137 85.4507 97.4738 85.0072 96.9204 84.4375C96.367 83.8678 95.9357 83.1924 95.6265 82.4111C95.3172 81.6299 95.1626 80.7795 95.1626 79.8599V79.3472C95.1626 78.2811 95.3335 77.3289 95.6753 76.4907C96.0171 75.6444 96.4728 74.9282 97.0425 74.3423C97.604 73.7645 98.2428 73.321 98.959 73.0117C99.6833 72.7025 100.424 72.5479 101.181 72.5479C102.133 72.5479 102.963 72.7147 103.671 73.0483C104.387 73.3739 104.981 73.8255 105.453 74.4033C105.925 74.9893 106.275 75.6769 106.503 76.4663C106.739 77.2557 106.857 78.1102 106.857 79.0298V80.043H97.4209V80.1284C97.4779 80.7713 97.604 81.3369 97.7993 81.8252C98.0028 82.3135 98.2795 82.7448 98.6294 83.1191C98.9875 83.5179 99.4188 83.8312 99.9233 84.0591C100.428 84.2869 100.985 84.4009 101.596 84.4009C102.401 84.4009 103.118 84.2381 103.744 83.9126C104.371 83.5871 104.892 83.1558 105.307 82.6187L106.686 83.6929C106.247 84.3602 105.587 84.9543 104.708 85.4751C103.838 85.9878 102.759 86.2441 101.474 86.2441ZM101.181 74.4033C100.725 74.4033 100.294 74.4888 99.8867 74.6597C99.4798 74.8224 99.1136 75.0625 98.7881 75.3799C98.4626 75.7054 98.1859 76.1042 97.958 76.5762C97.7383 77.04 97.5837 77.5771 97.4941 78.1875H104.599V78.0776C104.599 77.6707 104.521 77.2354 104.367 76.7715C104.212 76.2995 103.996 75.8926 103.72 75.5508C103.443 75.209 103.093 74.9323 102.67 74.7207C102.255 74.5091 101.758 74.4033 101.181 74.4033ZM109.677 82.0938H111.936C111.936 82.4111 112.029 82.7122 112.216 82.9971C112.403 83.2738 112.664 83.5179 112.998 83.7295C113.331 83.9492 113.726 84.1242 114.182 84.2544C114.637 84.3765 115.13 84.4375 115.659 84.4375C116.18 84.4375 116.656 84.3846 117.087 84.2788C117.518 84.1649 117.889 84.0103 118.198 83.8149C118.499 83.6196 118.731 83.3918 118.894 83.1313C119.064 82.8709 119.15 82.5902 119.15 82.2891C119.15 81.9147 119.073 81.5973 118.918 81.3369C118.763 81.0684 118.54 80.8486 118.247 80.6777C118.1 80.5964 117.937 80.5272 117.758 80.4702C117.579 80.4132 117.388 80.3644 117.185 80.3237C116.981 80.283 116.761 80.2546 116.525 80.2383C116.289 80.222 116.045 80.2139 115.793 80.2139H112.851V78.3096H115.793C116.053 78.3096 116.298 78.3014 116.525 78.2852C116.753 78.2607 116.961 78.2282 117.148 78.1875C117.384 78.1387 117.596 78.0736 117.783 77.9922C117.978 77.9108 118.149 77.8172 118.295 77.7114C118.499 77.5568 118.653 77.3696 118.759 77.1499C118.865 76.9302 118.918 76.682 118.918 76.4053C118.918 76.1286 118.845 75.8682 118.698 75.624C118.56 75.3799 118.356 75.1642 118.088 74.9771C117.811 74.798 117.469 74.6556 117.062 74.5498C116.656 74.444 116.188 74.3911 115.659 74.3911C115.187 74.3911 114.739 74.444 114.316 74.5498C113.893 74.6556 113.522 74.798 113.205 74.9771C112.88 75.1642 112.619 75.388 112.424 75.6484C112.237 75.9007 112.143 76.1774 112.143 76.4785H109.885C109.893 75.8682 110.052 75.3229 110.361 74.8428C110.678 74.3545 111.101 73.9395 111.63 73.5977C112.151 73.264 112.757 73.0076 113.449 72.8286C114.149 72.6496 114.886 72.5601 115.659 72.5601C116.472 72.5601 117.217 72.6414 117.893 72.8042C118.568 72.967 119.15 73.207 119.638 73.5244C120.126 73.8499 120.505 74.2528 120.773 74.7329C121.042 75.2049 121.176 75.7583 121.176 76.3931C121.176 76.7837 121.087 77.1499 120.908 77.4917C120.729 77.8335 120.476 78.1427 120.151 78.4194C119.972 78.5741 119.764 78.7205 119.528 78.8589C119.292 78.9891 119.04 79.1071 118.771 79.2129C119.154 79.3268 119.496 79.4692 119.797 79.6401C120.106 79.8029 120.375 79.9941 120.603 80.2139C120.871 80.4824 121.075 80.7917 121.213 81.1416C121.359 81.4834 121.433 81.8659 121.433 82.2891C121.433 82.9238 121.282 83.4854 120.981 83.9736C120.688 84.4619 120.281 84.8729 119.76 85.2065C119.239 85.5483 118.629 85.8047 117.929 85.9756C117.229 86.1465 116.472 86.2319 115.659 86.2319C114.861 86.2319 114.08 86.1383 113.315 85.9512C112.55 85.764 111.883 85.471 111.313 85.0723C110.833 84.7467 110.438 84.3358 110.129 83.8394C109.828 83.3348 109.677 82.7529 109.677 82.0938ZM144.81 84.4131C145.217 84.4131 145.612 84.348 145.994 84.2178C146.385 84.0876 146.731 83.9045 147.032 83.6685C147.333 83.4406 147.573 83.172 147.752 82.8628C147.939 82.5454 148.037 82.2036 148.045 81.8374H150.181C150.173 82.4233 150.018 82.9849 149.717 83.522C149.424 84.0509 149.03 84.5148 148.533 84.9136C148.037 85.3205 147.467 85.646 146.824 85.8901C146.181 86.1261 145.51 86.2441 144.81 86.2441C143.809 86.2441 142.934 86.0651 142.186 85.707C141.437 85.349 140.814 84.8647 140.318 84.2544C139.813 83.6522 139.435 82.9564 139.183 82.167C138.93 81.3695 138.804 80.5312 138.804 79.6523V79.1396C138.804 78.2689 138.93 77.4347 139.183 76.6372C139.435 75.8397 139.813 75.1357 140.318 74.5254C140.814 73.9232 141.437 73.443 142.186 73.085C142.934 72.7269 143.809 72.5479 144.81 72.5479C145.591 72.5479 146.307 72.674 146.958 72.9263C147.618 73.1704 148.187 73.5041 148.667 73.9272C149.139 74.3586 149.51 74.8672 149.778 75.4531C150.047 76.0391 150.181 76.6657 150.181 77.333H148.045C148.037 76.9342 147.947 76.5599 147.776 76.21C147.614 75.8519 147.39 75.5386 147.105 75.27C146.82 75.0015 146.478 74.7899 146.08 74.6353C145.689 74.4806 145.266 74.4033 144.81 74.4033C144.11 74.4033 143.52 74.5457 143.04 74.8306C142.568 75.1073 142.186 75.4694 141.893 75.917C141.6 76.3727 141.388 76.8813 141.258 77.4429C141.136 78.0044 141.075 78.57 141.075 79.1396V79.6523C141.075 80.2301 141.136 80.8039 141.258 81.3735C141.388 81.9351 141.6 82.4396 141.893 82.8872C142.177 83.3429 142.556 83.7132 143.028 83.998C143.508 84.2747 144.102 84.4131 144.81 84.4131ZM165.575 74.623H160.301V86H158.031V74.623H152.843V72.792H165.575V74.623ZM176.806 72.792H179.064V86H176.806V76.2588L170.348 86H168.102V72.792H170.348V82.5454L176.806 72.792ZM193.566 72.792V86H191.296V74.6597H186.438L186.425 78.4438C186.425 78.8914 186.413 79.3268 186.389 79.75C186.372 80.165 186.344 80.5597 186.303 80.9341C186.238 81.5526 186.136 82.1222 185.998 82.6431C185.86 83.1639 185.685 83.6237 185.473 84.0225C185.131 84.6654 184.672 85.1577 184.094 85.4995C183.516 85.8332 182.796 86 181.933 86H181.274L181.311 83.9858L181.811 83.9736C182.275 83.9736 182.657 83.8597 182.958 83.6318C183.268 83.3958 183.512 83.0459 183.691 82.582C183.78 82.3298 183.858 82.0409 183.923 81.7153C183.988 81.3817 184.041 81.0155 184.082 80.6167C184.106 80.2993 184.122 79.9616 184.13 79.6035C184.147 79.2373 184.155 78.8507 184.155 78.4438L184.179 72.792H193.566ZM203.076 86.2441C202.148 86.2441 201.294 86.0854 200.513 85.7681C199.74 85.4507 199.076 85.0072 198.523 84.4375C197.97 83.8678 197.538 83.1924 197.229 82.4111C196.92 81.6299 196.765 80.7795 196.765 79.8599V79.3472C196.765 78.2811 196.936 77.3289 197.278 76.4907C197.62 75.6444 198.075 74.9282 198.645 74.3423C199.207 73.7645 199.845 73.321 200.562 73.0117C201.286 72.7025 202.026 72.5479 202.783 72.5479C203.735 72.5479 204.565 72.7147 205.273 73.0483C205.99 73.3739 206.584 73.8255 207.056 74.4033C207.528 74.9893 207.878 75.6769 208.105 76.4663C208.341 77.2557 208.459 78.1102 208.459 79.0298V80.043H199.023V80.1284C199.08 80.7713 199.207 81.3369 199.402 81.8252C199.605 82.3135 199.882 82.7448 200.232 83.1191C200.59 83.5179 201.021 83.8312 201.526 84.0591C202.03 84.2869 202.588 84.4009 203.198 84.4009C204.004 84.4009 204.72 84.2381 205.347 83.9126C205.973 83.5871 206.494 83.1558 206.909 82.6187L208.289 83.6929C207.849 84.3602 207.19 84.9543 206.311 85.4751C205.44 85.9878 204.362 86.2441 203.076 86.2441ZM202.783 74.4033C202.327 74.4033 201.896 74.4888 201.489 74.6597C201.082 74.8224 200.716 75.0625 200.391 75.3799C200.065 75.7054 199.788 76.1042 199.561 76.5762C199.341 77.04 199.186 77.5771 199.097 78.1875H206.201V78.0776C206.201 77.6707 206.124 77.2354 205.969 76.7715C205.815 76.2995 205.599 75.8926 205.322 75.5508C205.046 75.209 204.696 74.9323 204.272 74.7207C203.857 74.5091 203.361 74.4033 202.783 74.4033ZM220.35 72.792H222.608V86H220.35V76.2588L213.892 86H211.646V72.792H213.892V82.5454L220.35 72.792ZM220.63 67.4087C220.63 67.8888 220.545 68.3324 220.374 68.7393C220.203 69.138 219.959 69.4798 219.642 69.7646C219.324 70.0495 218.942 70.2733 218.494 70.436C218.047 70.5907 217.546 70.668 216.993 70.668C216.431 70.668 215.927 70.5907 215.479 70.436C215.031 70.2733 214.649 70.0495 214.332 69.7646C214.014 69.4798 213.766 69.138 213.587 68.7393C213.416 68.3324 213.331 67.8888 213.331 67.4087H215.162C215.162 67.6528 215.198 67.8888 215.271 68.1167C215.345 68.3364 215.455 68.5277 215.601 68.6904C215.748 68.8532 215.935 68.9834 216.163 69.0811C216.39 69.1787 216.667 69.2275 216.993 69.2275C217.31 69.2275 217.579 69.1787 217.798 69.0811C218.026 68.9834 218.213 68.8532 218.36 68.6904C218.506 68.5277 218.616 68.3364 218.689 68.1167C218.763 67.8888 218.799 67.6528 218.799 67.4087H220.63Z" fill="white"/>
<rect x="90.5" y="104.5" width="123" height="377" rx="18.5" stroke="white" stroke-width="3"/>
<rect x="107" y="123" width="90" height="90" rx="10" fill="#0066FF"/>
<path d="M154.034 178H150.604V164.365L146.112 165.976V163.022L153.851 160.227H154.034V178Z" fill="white"/>
<rect x="107" y="248" width="90" height="90" rx="10" fill="#0066FF"/>
<path d="M157.342 302H145.221V299.681L150.97 293.504C151.418 293.016 151.796 292.572 152.105 292.173C152.415 291.775 152.667 291.408 152.862 291.075C153.049 290.749 153.184 290.444 153.265 290.159C153.355 289.874 153.399 289.598 153.399 289.329C153.399 288.93 153.342 288.576 153.229 288.267C153.115 287.958 152.956 287.693 152.752 287.474C152.541 287.262 152.289 287.099 151.996 286.985C151.711 286.871 151.393 286.814 151.043 286.814C150.588 286.814 150.185 286.88 149.835 287.01C149.493 287.132 149.208 287.315 148.98 287.559C148.744 287.811 148.565 288.125 148.443 288.499C148.321 288.873 148.26 289.301 148.26 289.781H144.854C144.854 288.991 145.005 288.247 145.306 287.547C145.607 286.839 146.035 286.22 146.588 285.691C147.133 285.162 147.792 284.747 148.565 284.446C149.347 284.137 150.209 283.982 151.153 283.982C152.057 283.982 152.854 284.109 153.546 284.361C154.246 284.613 154.832 284.967 155.304 285.423C155.768 285.879 156.122 286.428 156.366 287.071C156.61 287.706 156.732 288.41 156.732 289.183C156.732 289.769 156.638 290.33 156.451 290.867C156.272 291.396 156.016 291.921 155.682 292.442C155.34 292.963 154.933 293.496 154.461 294.041C153.989 294.578 153.465 295.144 152.887 295.738L149.542 299.278H157.342V302Z" fill="white"/>
<rect x="107" y="373" width="90" height="90" rx="10" fill="#0066FF"/>
<path d="M149.139 416.624H150.982C151.471 416.624 151.89 416.559 152.24 416.429C152.598 416.29 152.887 416.099 153.106 415.855C153.31 415.643 153.46 415.387 153.558 415.086C153.664 414.777 153.717 414.443 153.717 414.085C153.717 413.735 153.664 413.418 153.558 413.133C153.46 412.84 153.31 412.588 153.106 412.376C152.903 412.173 152.643 412.014 152.325 411.9C152.016 411.786 151.654 411.729 151.239 411.729C150.897 411.729 150.576 411.778 150.274 411.875C149.981 411.973 149.725 412.111 149.505 412.291C149.278 412.478 149.098 412.701 148.968 412.962C148.838 413.222 148.773 413.515 148.773 413.841H145.379C145.379 413.117 145.526 412.457 145.819 411.863C146.12 411.269 146.531 410.757 147.052 410.325C147.573 409.902 148.183 409.572 148.883 409.336C149.591 409.1 150.352 408.982 151.166 408.982C152.044 408.982 152.85 409.092 153.583 409.312C154.315 409.524 154.942 409.841 155.462 410.264C155.983 410.695 156.386 411.229 156.671 411.863C156.964 412.49 157.11 413.218 157.11 414.048C157.11 414.431 157.053 414.809 156.939 415.184C156.826 415.55 156.659 415.9 156.439 416.233C156.219 416.567 155.947 416.876 155.621 417.161C155.296 417.438 154.921 417.678 154.498 417.881C154.994 418.06 155.422 418.288 155.78 418.565C156.146 418.842 156.447 419.155 156.683 419.505C156.919 419.863 157.094 420.254 157.208 420.677C157.322 421.1 157.379 421.548 157.379 422.02C157.379 422.85 157.22 423.59 156.903 424.241C156.585 424.892 156.15 425.438 155.597 425.877C155.043 426.325 154.384 426.666 153.619 426.902C152.862 427.13 152.044 427.244 151.166 427.244C150.409 427.244 149.668 427.142 148.944 426.939C148.228 426.727 147.589 426.41 147.027 425.987C146.466 425.572 146.014 425.047 145.672 424.412C145.339 423.777 145.172 423.029 145.172 422.166H148.565C148.565 422.508 148.631 422.825 148.761 423.118C148.891 423.403 149.078 423.647 149.322 423.851C149.558 424.062 149.839 424.229 150.165 424.351C150.49 424.465 150.848 424.522 151.239 424.522C151.678 424.522 152.073 424.461 152.423 424.339C152.773 424.217 153.066 424.038 153.302 423.802C153.53 423.59 153.701 423.33 153.814 423.021C153.937 422.711 153.998 422.365 153.998 421.983C153.998 421.503 153.928 421.092 153.79 420.75C153.652 420.408 153.452 420.127 153.192 419.908C152.923 419.688 152.602 419.525 152.228 419.419C151.861 419.314 151.446 419.261 150.982 419.261H149.139V416.624Z" fill="white"/>
</svg>
