<svg width="1399" height="873" viewBox="0 0 1399 873" fill="none" xmlns="http://www.w3.org/2000/svg">
<rect width="1399" height="873" rx="20" fill="#0066FF" fill-opacity="0.2"/>
<rect x="1.5" y="1.5" width="1396" height="870" rx="18.5" stroke="#0066FF" stroke-opacity="0.5" stroke-width="3"/>
<rect x="66" y="58" width="1268" height="168" rx="20" fill="#0066FF" fill-opacity="0.2"/>
<rect x="67.5" y="59.5" width="1265" height="165" rx="18.5" stroke="#0066FF" stroke-opacity="0.5" stroke-width="3"/>
<path d="M91.3823 93.7573C91.5614 93.4888 91.7607 93.2446 91.9805 93.0249C92.2002 92.797 92.4321 92.5977 92.6763 92.4268C93.0669 92.1419 93.4941 91.9263 93.958 91.7798C94.43 91.6333 94.9305 91.556 95.4595 91.5479C96.1512 91.5479 96.7778 91.6496 97.3394 91.853C97.909 92.0483 98.3932 92.3576 98.792 92.7808C99.1908 93.2039 99.4959 93.741 99.7075 94.3921C99.9272 95.035 100.037 95.8 100.037 96.687V105H97.7788V96.6626C97.7788 96.1418 97.7178 95.686 97.5957 95.2954C97.4736 94.8966 97.2946 94.5671 97.0586 94.3066C96.8063 94.0218 96.4889 93.8102 96.1064 93.6719C95.724 93.5254 95.2845 93.4562 94.7881 93.4644C94.3812 93.4644 93.9946 93.5213 93.6284 93.6353C93.2622 93.7492 92.9245 93.9119 92.6152 94.1235C92.3711 94.2863 92.1432 94.4775 91.9316 94.6973C91.7282 94.9089 91.5451 95.1449 91.3823 95.4053V105H89.124V86.25H91.3823V93.7573ZM109.474 105.244C108.546 105.244 107.691 105.085 106.91 104.768C106.137 104.451 105.474 104.007 104.92 103.438C104.367 102.868 103.936 102.192 103.626 101.411C103.317 100.63 103.163 99.7795 103.163 98.8599V98.3472C103.163 97.2811 103.333 96.3289 103.675 95.4907C104.017 94.6444 104.473 93.9282 105.042 93.3423C105.604 92.7645 106.243 92.321 106.959 92.0117C107.683 91.7025 108.424 91.5479 109.181 91.5479C110.133 91.5479 110.963 91.7147 111.671 92.0483C112.387 92.3739 112.981 92.8255 113.453 93.4033C113.925 93.9893 114.275 94.6769 114.503 95.4663C114.739 96.2557 114.857 97.1102 114.857 98.0298V99.043H105.421V99.1284C105.478 99.7713 105.604 100.337 105.799 100.825C106.003 101.313 106.279 101.745 106.629 102.119C106.987 102.518 107.419 102.831 107.923 103.059C108.428 103.287 108.985 103.401 109.596 103.401C110.401 103.401 111.118 103.238 111.744 102.913C112.371 102.587 112.892 102.156 113.307 101.619L114.686 102.693C114.247 103.36 113.587 103.954 112.708 104.475C111.838 104.988 110.759 105.244 109.474 105.244ZM109.181 93.4033C108.725 93.4033 108.294 93.4888 107.887 93.6597C107.48 93.8224 107.114 94.0625 106.788 94.3799C106.463 94.7054 106.186 95.1042 105.958 95.5762C105.738 96.04 105.584 96.5771 105.494 97.1875H112.599V97.0776C112.599 96.6707 112.521 96.2354 112.367 95.7715C112.212 95.2995 111.996 94.8926 111.72 94.5508C111.443 94.209 111.093 93.9323 110.67 93.7207C110.255 93.5091 109.758 93.4033 109.181 93.4033ZM126.833 105C126.743 104.829 126.67 104.618 126.613 104.365C126.564 104.105 126.527 103.836 126.503 103.56C126.275 103.787 126.019 104.003 125.734 104.207C125.457 104.41 125.152 104.589 124.818 104.744C124.477 104.898 124.114 105.02 123.732 105.11C123.349 105.199 122.943 105.244 122.511 105.244C121.811 105.244 121.177 105.142 120.607 104.939C120.045 104.736 119.569 104.459 119.179 104.109C118.78 103.767 118.471 103.36 118.251 102.888C118.039 102.408 117.934 101.891 117.934 101.338C117.934 100.614 118.076 99.9788 118.361 99.4336C118.654 98.8883 119.065 98.4326 119.594 98.0664C120.123 97.7083 120.757 97.4398 121.498 97.2607C122.247 97.0817 123.081 96.9922 124 96.9922H126.466V95.9546C126.466 95.5558 126.393 95.1978 126.247 94.8804C126.1 94.563 125.893 94.2904 125.624 94.0625C125.355 93.8428 125.026 93.6719 124.635 93.5498C124.253 93.4277 123.821 93.3667 123.341 93.3667C122.894 93.3667 122.491 93.4237 122.133 93.5376C121.783 93.6515 121.486 93.8021 121.242 93.9893C120.998 94.1764 120.806 94.4002 120.668 94.6606C120.538 94.9129 120.473 95.1774 120.473 95.4541H118.202C118.21 94.974 118.332 94.502 118.568 94.0381C118.812 93.5742 119.162 93.1551 119.618 92.7808C120.066 92.4146 120.611 92.1175 121.254 91.8896C121.905 91.6618 122.641 91.5479 123.463 91.5479C124.212 91.5479 124.908 91.6414 125.551 91.8286C126.194 92.0076 126.751 92.2803 127.223 92.6465C127.687 93.0208 128.053 93.4847 128.322 94.0381C128.59 94.5915 128.725 95.2384 128.725 95.979V102.119C128.725 102.559 128.765 103.027 128.847 103.523C128.928 104.011 129.042 104.438 129.188 104.805V105H126.833ZM122.841 103.279C123.28 103.279 123.691 103.222 124.074 103.108C124.456 102.994 124.806 102.843 125.124 102.656C125.433 102.469 125.701 102.257 125.929 102.021C126.157 101.777 126.336 101.525 126.466 101.265V98.5913H124.367C123.585 98.5913 122.902 98.6605 122.316 98.7988C121.738 98.929 121.278 99.1325 120.937 99.4092C120.692 99.6045 120.505 99.8364 120.375 100.105C120.253 100.374 120.192 100.679 120.192 101.021C120.192 101.346 120.245 101.647 120.351 101.924C120.465 102.201 120.631 102.437 120.851 102.632C121.071 102.835 121.347 102.994 121.681 103.108C122.015 103.222 122.401 103.279 122.841 103.279ZM132.241 98.2861C132.241 97.3014 132.363 96.3981 132.607 95.5762C132.859 94.7461 133.217 94.034 133.681 93.4399C134.137 92.8459 134.69 92.382 135.341 92.0483C135.992 91.7147 136.721 91.5479 137.526 91.5479C138.316 91.5479 139.003 91.6821 139.589 91.9507C140.183 92.2111 140.696 92.5936 141.127 93.0981V86.25H143.386V105H141.311L141.213 103.608C140.773 104.146 140.249 104.552 139.638 104.829C139.028 105.106 138.316 105.244 137.502 105.244C136.704 105.244 135.98 105.073 135.329 104.731C134.686 104.39 134.137 103.918 133.681 103.315C133.225 102.713 132.871 102.005 132.619 101.191C132.367 100.369 132.241 99.4865 132.241 98.5425V98.2861ZM134.499 98.5425C134.499 99.1854 134.568 99.7957 134.707 100.374C134.845 100.951 135.061 101.46 135.354 101.899C135.638 102.339 136.005 102.689 136.452 102.949C136.9 103.201 137.437 103.328 138.063 103.328C138.82 103.328 139.447 103.157 139.943 102.815C140.44 102.473 140.834 102.013 141.127 101.436V95.3076C140.834 94.7705 140.44 94.3311 139.943 93.9893C139.447 93.6393 138.828 93.4644 138.088 93.4644C137.453 93.4644 136.908 93.5946 136.452 93.855C136.005 94.1154 135.638 94.4653 135.354 94.9048C135.061 95.3524 134.845 95.8691 134.707 96.4551C134.568 97.0329 134.499 97.6432 134.499 98.2861V98.5425ZM153.018 105.244C152.09 105.244 151.235 105.085 150.454 104.768C149.681 104.451 149.018 104.007 148.464 103.438C147.911 102.868 147.48 102.192 147.17 101.411C146.861 100.63 146.707 99.7795 146.707 98.8599V98.3472C146.707 97.2811 146.877 96.3289 147.219 95.4907C147.561 94.6444 148.017 93.9282 148.586 93.3423C149.148 92.7645 149.787 92.321 150.503 92.0117C151.227 91.7025 151.968 91.5479 152.725 91.5479C153.677 91.5479 154.507 91.7147 155.215 92.0483C155.931 92.3739 156.525 92.8255 156.997 93.4033C157.469 93.9893 157.819 94.6769 158.047 95.4663C158.283 96.2557 158.401 97.1102 158.401 98.0298V99.043H148.965V99.1284C149.022 99.7713 149.148 100.337 149.343 100.825C149.547 101.313 149.823 101.745 150.173 102.119C150.531 102.518 150.963 102.831 151.467 103.059C151.972 103.287 152.529 103.401 153.14 103.401C153.945 103.401 154.661 103.238 155.288 102.913C155.915 102.587 156.436 102.156 156.851 101.619L158.23 102.693C157.791 103.36 157.131 103.954 156.252 104.475C155.382 104.988 154.303 105.244 153.018 105.244ZM152.725 93.4033C152.269 93.4033 151.838 93.4888 151.431 93.6597C151.024 93.8224 150.658 94.0625 150.332 94.3799C150.007 94.7054 149.73 95.1042 149.502 95.5762C149.282 96.04 149.128 96.5771 149.038 97.1875H156.143V97.0776C156.143 96.6707 156.065 96.2354 155.911 95.7715C155.756 95.2995 155.54 94.8926 155.264 94.5508C154.987 94.209 154.637 93.9323 154.214 93.7207C153.799 93.5091 153.302 93.4033 152.725 93.4033ZM170.352 91.5479C170.767 91.5479 171.198 91.5763 171.646 91.6333C172.102 91.6903 172.444 91.7676 172.671 91.8652L172.366 94.0747C171.927 93.9771 171.508 93.9079 171.109 93.8672C170.718 93.8184 170.307 93.7939 169.876 93.7939C169.323 93.7939 168.822 93.8631 168.375 94.0015C167.927 94.1317 167.536 94.327 167.203 94.5874C166.902 94.8153 166.637 95.096 166.409 95.4297C166.189 95.7552 166.006 96.1214 165.86 96.5283V105H163.589V91.792H165.738L165.835 93.562L165.848 93.8916C166.385 93.1673 167.028 92.5977 167.776 92.1826C168.533 91.7594 169.392 91.5479 170.352 91.5479Z" fill="white"/>
<path d="M594.067 131.117V152.138H596.459V131.117H600.988V152.138H603.347V131.117H608.012V156H589.384V131.117H594.067ZM622.283 156C622.169 155.772 622.072 155.51 621.992 155.214C621.913 154.918 621.844 154.604 621.787 154.274C621.525 154.559 621.223 154.826 620.882 155.077C620.54 155.328 620.164 155.544 619.754 155.727C619.332 155.92 618.871 156.068 618.369 156.171C617.868 156.285 617.327 156.342 616.746 156.342C615.8 156.342 614.929 156.205 614.131 155.932C613.345 155.658 612.667 155.277 612.097 154.787C611.528 154.297 611.083 153.716 610.764 153.043C610.445 152.36 610.286 151.619 610.286 150.822C610.286 149.796 610.485 148.891 610.884 148.104C611.283 147.307 611.881 146.652 612.678 146.139C613.396 145.672 614.279 145.319 615.327 145.08C616.387 144.829 617.6 144.704 618.967 144.704H621.616V143.61C621.616 143.177 621.548 142.79 621.411 142.448C621.275 142.095 621.07 141.793 620.796 141.542C620.511 141.28 620.152 141.081 619.719 140.944C619.298 140.796 618.802 140.722 618.233 140.722C617.731 140.722 617.298 140.784 616.934 140.91C616.569 141.024 616.273 141.189 616.045 141.405C615.84 141.599 615.686 141.833 615.584 142.106C615.493 142.379 615.447 142.681 615.447 143.012H610.696C610.696 142.226 610.867 141.479 611.209 140.773C611.562 140.067 612.075 139.446 612.747 138.91C613.408 138.375 614.217 137.953 615.174 137.646C616.142 137.326 617.247 137.167 618.489 137.167C619.606 137.167 620.642 137.304 621.599 137.577C622.568 137.851 623.405 138.255 624.112 138.791C624.818 139.326 625.37 140.004 625.769 140.824C626.168 141.633 626.367 142.573 626.367 143.644V151.574C626.367 152.565 626.43 153.385 626.555 154.035C626.681 154.684 626.863 155.242 627.102 155.709V156H622.283ZM617.754 152.667C618.233 152.667 618.677 152.611 619.087 152.497C619.497 152.383 619.868 152.235 620.198 152.052C620.528 151.87 620.813 151.665 621.052 151.437C621.292 151.198 621.48 150.958 621.616 150.719V147.541H619.19C618.449 147.541 617.817 147.615 617.293 147.763C616.769 147.899 616.341 148.093 616.011 148.344C615.681 148.606 615.436 148.919 615.276 149.284C615.117 149.637 615.037 150.024 615.037 150.446C615.037 150.776 615.094 151.084 615.208 151.369C615.333 151.642 615.51 151.876 615.737 152.069C615.965 152.252 616.244 152.4 616.575 152.514C616.917 152.616 617.31 152.667 617.754 152.667ZM647.166 156H642.398V141.371H635.477V156H630.709V137.509H647.166V156ZM658.771 149.079H655.985V156H651.234V137.509H655.985V144.584H658.446L663.42 137.509H669.401L662.616 146.413L669.948 156H663.659L658.771 149.079ZM683.244 156C683.13 155.772 683.034 155.51 682.954 155.214C682.874 154.918 682.806 154.604 682.749 154.274C682.487 154.559 682.185 154.826 681.843 155.077C681.501 155.328 681.125 155.544 680.715 155.727C680.294 155.92 679.832 156.068 679.331 156.171C678.83 156.285 678.288 156.342 677.707 156.342C676.762 156.342 675.89 156.205 675.093 155.932C674.306 155.658 673.629 155.277 673.059 154.787C672.489 154.297 672.045 153.716 671.726 153.043C671.407 152.36 671.247 151.619 671.247 150.822C671.247 149.796 671.447 148.891 671.846 148.104C672.244 147.307 672.842 146.652 673.64 146.139C674.358 145.672 675.241 145.319 676.289 145.08C677.348 144.829 678.562 144.704 679.929 144.704H682.578V143.61C682.578 143.177 682.51 142.79 682.373 142.448C682.236 142.095 682.031 141.793 681.758 141.542C681.473 141.28 681.114 141.081 680.681 140.944C680.259 140.796 679.764 140.722 679.194 140.722C678.693 140.722 678.26 140.784 677.895 140.91C677.531 141.024 677.235 141.189 677.007 141.405C676.802 141.599 676.648 141.833 676.545 142.106C676.454 142.379 676.408 142.681 676.408 143.012H671.658C671.658 142.226 671.828 141.479 672.17 140.773C672.523 140.067 673.036 139.446 673.708 138.91C674.369 138.375 675.178 137.953 676.135 137.646C677.103 137.326 678.209 137.167 679.45 137.167C680.567 137.167 681.604 137.304 682.561 137.577C683.529 137.851 684.367 138.255 685.073 138.791C685.779 139.326 686.332 140.004 686.731 140.824C687.13 141.633 687.329 142.573 687.329 143.644V151.574C687.329 152.565 687.392 153.385 687.517 154.035C687.642 154.684 687.825 155.242 688.064 155.709V156H683.244ZM678.716 152.667C679.194 152.667 679.638 152.611 680.049 152.497C680.459 152.383 680.829 152.235 681.159 152.052C681.49 151.87 681.775 151.665 682.014 151.437C682.253 151.198 682.441 150.958 682.578 150.719V147.541H680.151C679.411 147.541 678.778 147.615 678.254 147.763C677.73 147.899 677.303 148.093 676.972 148.344C676.642 148.606 676.397 148.919 676.238 149.284C676.078 149.637 675.998 150.024 675.998 150.446C675.998 150.776 676.055 151.084 676.169 151.369C676.295 151.642 676.471 151.876 676.699 152.069C676.927 152.252 677.206 152.4 677.536 152.514C677.878 152.616 678.271 152.667 678.716 152.667ZM720.519 152.548C720.986 152.548 721.43 152.479 721.852 152.343C722.273 152.206 722.644 152.012 722.963 151.762C723.282 151.511 723.527 151.209 723.697 150.856C723.88 150.503 723.96 150.11 723.937 149.677H728.414C728.437 150.634 728.238 151.522 727.816 152.343C727.406 153.163 726.842 153.869 726.124 154.462C725.406 155.054 724.569 155.521 723.612 155.863C722.666 156.194 721.664 156.359 720.604 156.359C719.169 156.359 717.91 156.12 716.827 155.641C715.745 155.151 714.845 154.485 714.127 153.642C713.398 152.799 712.845 151.813 712.469 150.685C712.105 149.546 711.923 148.327 711.923 147.028V146.515C711.923 145.216 712.105 144.003 712.469 142.875C712.834 141.736 713.381 140.744 714.11 139.901C714.839 139.058 715.739 138.392 716.81 137.902C717.893 137.412 719.146 137.167 720.57 137.167C721.709 137.167 722.763 137.338 723.732 137.68C724.7 138.021 725.537 138.5 726.244 139.115C726.939 139.742 727.48 140.5 727.867 141.388C728.255 142.265 728.437 143.251 728.414 144.345H723.937C723.96 143.889 723.891 143.456 723.732 143.046C723.572 142.636 723.339 142.283 723.031 141.986C722.723 141.69 722.353 141.457 721.92 141.286C721.487 141.103 721.014 141.012 720.502 141.012C719.75 141.012 719.129 141.166 718.639 141.474C718.149 141.781 717.762 142.191 717.477 142.704C717.181 143.217 716.97 143.804 716.844 144.464C716.731 145.125 716.674 145.809 716.674 146.515V147.028C716.674 147.746 716.731 148.441 716.844 149.113C716.958 149.774 717.163 150.355 717.46 150.856C717.745 151.369 718.132 151.779 718.622 152.086C719.123 152.394 719.755 152.548 720.519 152.548ZM744.206 156C744.092 155.772 743.995 155.51 743.915 155.214C743.836 154.918 743.767 154.604 743.71 154.274C743.448 154.559 743.146 154.826 742.805 155.077C742.463 155.328 742.087 155.544 741.677 155.727C741.255 155.92 740.794 156.068 740.292 156.171C739.791 156.285 739.25 156.342 738.669 156.342C737.723 156.342 736.852 156.205 736.054 155.932C735.268 155.658 734.59 155.277 734.02 154.787C733.451 154.297 733.006 153.716 732.687 153.043C732.368 152.36 732.209 151.619 732.209 150.822C732.209 149.796 732.408 148.891 732.807 148.104C733.206 147.307 733.804 146.652 734.601 146.139C735.319 145.672 736.202 145.319 737.25 145.08C738.31 144.829 739.523 144.704 740.891 144.704H743.539V143.61C743.539 143.177 743.471 142.79 743.334 142.448C743.198 142.095 742.993 141.793 742.719 141.542C742.434 141.28 742.075 141.081 741.642 140.944C741.221 140.796 740.725 140.722 740.156 140.722C739.654 140.722 739.221 140.784 738.857 140.91C738.492 141.024 738.196 141.189 737.968 141.405C737.763 141.599 737.609 141.833 737.507 142.106C737.416 142.379 737.37 142.681 737.37 143.012H732.619C732.619 142.226 732.79 141.479 733.132 140.773C733.485 140.067 733.998 139.446 734.67 138.91C735.331 138.375 736.14 137.953 737.097 137.646C738.065 137.326 739.17 137.167 740.412 137.167C741.529 137.167 742.565 137.304 743.522 137.577C744.491 137.851 745.328 138.255 746.035 138.791C746.741 139.326 747.294 140.004 747.692 140.824C748.091 141.633 748.29 142.573 748.29 143.644V151.574C748.29 152.565 748.353 153.385 748.478 154.035C748.604 154.684 748.786 155.242 749.025 155.709V156H744.206ZM739.677 152.667C740.156 152.667 740.6 152.611 741.01 152.497C741.42 152.383 741.791 152.235 742.121 152.052C742.451 151.87 742.736 151.665 742.975 151.437C743.215 151.198 743.403 150.958 743.539 150.719V147.541H741.113C740.372 147.541 739.74 147.615 739.216 147.763C738.692 147.899 738.264 148.093 737.934 148.344C737.604 148.606 737.359 148.919 737.199 149.284C737.04 149.637 736.96 150.024 736.96 150.446C736.96 150.776 737.017 151.084 737.131 151.369C737.256 151.642 737.433 151.876 737.661 152.069C737.888 152.252 738.168 152.4 738.498 152.514C738.84 152.616 739.233 152.667 739.677 152.667ZM764.338 137.509H769.089V156H764.338V144.208L757.383 156H752.632V137.509H757.383V149.301L764.338 137.509ZM766.526 129.921C766.526 130.661 766.389 131.339 766.116 131.955C765.854 132.57 765.472 133.094 764.971 133.527C764.458 133.971 763.843 134.319 763.125 134.569C762.407 134.809 761.604 134.928 760.715 134.928C759.815 134.928 759.006 134.809 758.289 134.569C757.571 134.319 756.961 133.971 756.46 133.527C755.947 133.094 755.554 132.57 755.281 131.955C755.019 131.339 754.888 130.661 754.888 129.921H758.306C758.306 130.217 758.346 130.508 758.425 130.792C758.517 131.066 758.659 131.305 758.853 131.51C759.046 131.727 759.291 131.898 759.587 132.023C759.895 132.148 760.271 132.211 760.715 132.211C761.148 132.211 761.513 132.148 761.809 132.023C762.117 131.898 762.367 131.727 762.561 131.51C762.743 131.305 762.874 131.066 762.954 130.792C763.045 130.508 763.091 130.217 763.091 129.921H766.526ZM791.427 141.32H784.3V156H779.532V141.32H772.474V137.509H791.427V141.32ZM805.167 156C805.054 155.772 804.957 155.51 804.877 155.214C804.797 154.918 804.729 154.604 804.672 154.274C804.41 154.559 804.108 154.826 803.766 155.077C803.424 155.328 803.048 155.544 802.638 155.727C802.217 155.92 801.755 156.068 801.254 156.171C800.753 156.285 800.211 156.342 799.63 156.342C798.685 156.342 797.813 156.205 797.016 155.932C796.229 155.658 795.552 155.277 794.982 154.787C794.412 154.297 793.968 153.716 793.649 153.043C793.33 152.36 793.17 151.619 793.17 150.822C793.17 149.796 793.37 148.891 793.769 148.104C794.167 147.307 794.765 146.652 795.563 146.139C796.281 145.672 797.164 145.319 798.212 145.08C799.271 144.829 800.485 144.704 801.852 144.704H804.501V143.61C804.501 143.177 804.433 142.79 804.296 142.448C804.159 142.095 803.954 141.793 803.681 141.542C803.396 141.28 803.037 141.081 802.604 140.944C802.182 140.796 801.687 140.722 801.117 140.722C800.616 140.722 800.183 140.784 799.818 140.91C799.454 141.024 799.158 141.189 798.93 141.405C798.725 141.599 798.571 141.833 798.468 142.106C798.377 142.379 798.332 142.681 798.332 143.012H793.581C793.581 142.226 793.751 141.479 794.093 140.773C794.446 140.067 794.959 139.446 795.631 138.91C796.292 138.375 797.101 137.953 798.058 137.646C799.027 137.326 800.132 137.167 801.374 137.167C802.49 137.167 803.527 137.304 804.484 137.577C805.452 137.851 806.29 138.255 806.996 138.791C807.702 139.326 808.255 140.004 808.654 140.824C809.053 141.633 809.252 142.573 809.252 143.644V151.574C809.252 152.565 809.315 153.385 809.44 154.035C809.565 154.684 809.748 155.242 809.987 155.709V156H805.167ZM800.639 152.667C801.117 152.667 801.562 152.611 801.972 152.497C802.382 152.383 802.752 152.235 803.083 152.052C803.413 151.87 803.698 151.665 803.937 151.437C804.176 151.198 804.364 150.958 804.501 150.719V147.541H802.074C801.334 147.541 800.701 147.615 800.177 147.763C799.653 147.899 799.226 148.093 798.896 148.344C798.565 148.606 798.32 148.919 798.161 149.284C798.001 149.637 797.921 150.024 797.921 150.446C797.921 150.776 797.978 151.084 798.092 151.369C798.218 151.642 798.394 151.876 798.622 152.069C798.85 152.252 799.129 152.4 799.459 152.514C799.801 152.616 800.194 152.667 800.639 152.667Z" fill="white"/>
<rect x="66" y="266" width="1268" height="341" rx="20" fill="#0066FF" fill-opacity="0.2"/>
<rect x="67.5" y="267.5" width="1265" height="338" rx="18.5" stroke="#0066FF" stroke-opacity="0.5" stroke-width="3"/>
<path d="M90.1616 299.792L90.2227 301.037C90.4912 300.573 90.8411 300.211 91.2725 299.951C91.7119 299.69 92.2409 299.556 92.8594 299.548C93.2093 299.548 93.5226 299.589 93.7993 299.67C94.0841 299.743 94.3324 299.853 94.5439 300C94.6986 300.113 94.8369 300.252 94.959 300.415C95.0892 300.577 95.1991 300.76 95.2886 300.964C95.4025 300.777 95.5368 300.602 95.6914 300.439C95.846 300.276 96.0129 300.134 96.1919 300.012C96.4198 299.873 96.672 299.764 96.9487 299.682C97.2336 299.601 97.5428 299.556 97.8765 299.548C98.3322 299.548 98.7432 299.617 99.1094 299.755C99.4756 299.886 99.7848 300.081 100.037 300.341C100.314 300.634 100.525 301.017 100.672 301.489C100.818 301.953 100.892 302.502 100.892 303.137V313H98.7432V303.112C98.7432 302.836 98.7106 302.591 98.6455 302.38C98.5804 302.168 98.4868 301.993 98.3647 301.855C98.2345 301.725 98.0718 301.627 97.8765 301.562C97.6893 301.497 97.4696 301.464 97.2173 301.464C96.9487 301.464 96.7168 301.501 96.5215 301.574C96.3262 301.647 96.1634 301.745 96.0332 301.867C95.903 301.997 95.8013 302.148 95.728 302.319C95.6548 302.482 95.606 302.665 95.5815 302.868C95.5815 302.909 95.5815 302.95 95.5815 302.99C95.5815 303.023 95.5815 303.063 95.5815 303.112V313H93.4331V303.1C93.4331 302.823 93.4006 302.579 93.3354 302.368C93.2785 302.156 93.1849 301.981 93.0547 301.843C92.9326 301.713 92.778 301.619 92.5908 301.562C92.4118 301.497 92.2002 301.464 91.9561 301.464C91.6875 301.464 91.4515 301.497 91.248 301.562C91.0527 301.619 90.8859 301.704 90.7476 301.818C90.6418 301.908 90.5482 302.01 90.4668 302.124C90.3936 302.237 90.3325 302.36 90.2837 302.49V313H88.1353V299.792H90.1616ZM112.318 313C112.228 312.829 112.155 312.618 112.098 312.365C112.049 312.105 112.013 311.836 111.988 311.56C111.76 311.787 111.504 312.003 111.219 312.207C110.943 312.41 110.637 312.589 110.304 312.744C109.962 312.898 109.6 313.02 109.217 313.11C108.835 313.199 108.428 313.244 107.997 313.244C107.297 313.244 106.662 313.142 106.092 312.939C105.531 312.736 105.055 312.459 104.664 312.109C104.265 311.767 103.956 311.36 103.736 310.888C103.525 310.408 103.419 309.891 103.419 309.338C103.419 308.614 103.561 307.979 103.846 307.434C104.139 306.888 104.55 306.433 105.079 306.066C105.608 305.708 106.243 305.44 106.983 305.261C107.732 305.082 108.566 304.992 109.486 304.992H111.952V303.955C111.952 303.556 111.878 303.198 111.732 302.88C111.585 302.563 111.378 302.29 111.109 302.062C110.841 301.843 110.511 301.672 110.121 301.55C109.738 301.428 109.307 301.367 108.827 301.367C108.379 301.367 107.976 301.424 107.618 301.538C107.268 301.652 106.971 301.802 106.727 301.989C106.483 302.176 106.292 302.4 106.153 302.661C106.023 302.913 105.958 303.177 105.958 303.454H103.688C103.696 302.974 103.818 302.502 104.054 302.038C104.298 301.574 104.648 301.155 105.104 300.781C105.551 300.415 106.096 300.118 106.739 299.89C107.39 299.662 108.127 299.548 108.949 299.548C109.697 299.548 110.393 299.641 111.036 299.829C111.679 300.008 112.236 300.28 112.708 300.646C113.172 301.021 113.539 301.485 113.807 302.038C114.076 302.591 114.21 303.238 114.21 303.979V310.119C114.21 310.559 114.251 311.027 114.332 311.523C114.413 312.011 114.527 312.438 114.674 312.805V313H112.318ZM108.326 311.279C108.766 311.279 109.177 311.222 109.559 311.108C109.942 310.994 110.292 310.843 110.609 310.656C110.918 310.469 111.187 310.257 111.415 310.021C111.642 309.777 111.821 309.525 111.952 309.265V306.591H109.852C109.071 306.591 108.387 306.66 107.801 306.799C107.223 306.929 106.764 307.132 106.422 307.409C106.178 307.604 105.991 307.836 105.86 308.105C105.738 308.374 105.677 308.679 105.677 309.021C105.677 309.346 105.73 309.647 105.836 309.924C105.95 310.201 106.117 310.437 106.336 310.632C106.556 310.835 106.833 310.994 107.167 311.108C107.5 311.222 107.887 311.279 108.326 311.279ZM118.507 299.792H125.258V311.047H129.567V313H118.507V311.047H123V301.757H118.507V299.792ZM122.707 296.325C122.707 296.13 122.735 295.947 122.792 295.776C122.857 295.605 122.955 295.458 123.085 295.336C123.191 295.231 123.325 295.149 123.488 295.092C123.659 295.027 123.85 294.995 124.062 294.995C124.273 294.995 124.46 295.027 124.623 295.092C124.786 295.149 124.92 295.231 125.026 295.336C125.156 295.45 125.254 295.593 125.319 295.764C125.384 295.935 125.417 296.122 125.417 296.325C125.417 296.691 125.303 296.997 125.075 297.241C124.847 297.485 124.509 297.607 124.062 297.607C123.606 297.607 123.264 297.485 123.036 297.241C122.816 296.997 122.707 296.691 122.707 296.325ZM132.668 313V299.792H134.694L134.853 301.745C135.048 301.468 135.26 301.216 135.488 300.988C135.724 300.752 135.972 300.549 136.232 300.378C136.623 300.118 137.046 299.918 137.502 299.78C137.966 299.633 138.454 299.556 138.967 299.548C139.659 299.548 140.285 299.646 140.847 299.841C141.416 300.036 141.901 300.341 142.299 300.756C142.698 301.171 143.003 301.7 143.215 302.343C143.435 302.978 143.544 303.735 143.544 304.614V313H141.286V304.663C141.286 304.077 141.221 303.58 141.091 303.173C140.961 302.766 140.769 302.437 140.517 302.185C140.257 301.932 139.939 301.749 139.565 301.635C139.199 301.521 138.776 301.464 138.295 301.464C137.88 301.464 137.494 301.525 137.136 301.647C136.778 301.761 136.448 301.92 136.147 302.124C135.903 302.303 135.675 302.51 135.463 302.746C135.26 302.982 135.081 303.243 134.926 303.527V313H132.668Z" fill="white"/>
<path d="M556.602 440.387C556.602 441.458 556.505 442.478 556.312 443.446C556.118 444.403 555.839 445.292 555.474 446.112C555.087 446.933 554.608 447.685 554.039 448.368C553.469 449.052 552.819 449.621 552.09 450.077C551.43 450.476 550.7 450.784 549.903 451C549.117 451.228 548.268 451.342 547.356 451.342C546.388 451.342 545.494 451.216 544.673 450.966C543.853 450.715 543.107 450.362 542.435 449.906C541.774 449.428 541.181 448.852 540.657 448.18C540.133 447.497 539.694 446.728 539.341 445.873C539.022 445.087 538.777 444.232 538.606 443.31C538.447 442.387 538.367 441.413 538.367 440.387V436.764C538.367 435.67 538.458 434.634 538.641 433.654C538.834 432.674 539.113 431.768 539.478 430.937C539.831 430.15 540.258 429.438 540.76 428.8C541.272 428.162 541.859 427.615 542.52 427.16C543.169 426.715 543.899 426.374 544.708 426.134C545.516 425.895 546.394 425.775 547.339 425.775C548.296 425.775 549.191 425.901 550.022 426.151C550.866 426.391 551.623 426.738 552.295 427.194C552.968 427.627 553.554 428.151 554.056 428.766C554.568 429.381 555.007 430.059 555.372 430.8C555.77 431.643 556.072 432.566 556.277 433.568C556.494 434.571 556.602 435.636 556.602 436.764V440.387ZM551.731 436.73C551.731 436.092 551.697 435.488 551.629 434.918C551.572 434.337 551.475 433.802 551.338 433.312C551.167 432.697 550.94 432.15 550.655 431.671C550.37 431.181 550.034 430.783 549.646 430.475C549.339 430.247 548.991 430.071 548.604 429.945C548.228 429.82 547.806 429.757 547.339 429.757C546.895 429.757 546.491 429.814 546.126 429.928C545.773 430.042 545.454 430.207 545.169 430.424C544.782 430.743 544.451 431.142 544.178 431.62C543.916 432.099 543.711 432.657 543.562 433.295C543.449 433.785 543.363 434.32 543.306 434.901C543.261 435.482 543.238 436.092 543.238 436.73V440.387C543.238 440.991 543.261 441.572 543.306 442.13C543.352 442.689 543.431 443.207 543.545 443.686C543.671 444.289 543.853 444.842 544.092 445.343C544.343 445.833 544.633 446.232 544.964 446.54C545.271 446.813 545.619 447.024 546.006 447.172C546.405 447.32 546.855 447.394 547.356 447.394C547.835 447.394 548.274 447.326 548.672 447.189C549.071 447.052 549.424 446.853 549.732 446.591C550.119 446.272 550.444 445.873 550.706 445.395C550.979 444.905 551.196 444.352 551.355 443.737C551.481 443.258 551.572 442.734 551.629 442.165C551.697 441.595 551.731 441.002 551.731 440.387V436.73ZM567.916 447.548C568.383 447.548 568.828 447.479 569.249 447.343C569.671 447.206 570.041 447.012 570.36 446.762C570.679 446.511 570.924 446.209 571.095 445.856C571.277 445.503 571.357 445.11 571.334 444.677H575.812C575.835 445.634 575.635 446.522 575.214 447.343C574.803 448.163 574.239 448.869 573.522 449.462C572.804 450.054 571.967 450.521 571.009 450.863C570.064 451.194 569.061 451.359 568.002 451.359C566.566 451.359 565.307 451.12 564.225 450.641C563.142 450.151 562.242 449.485 561.525 448.642C560.795 447.799 560.243 446.813 559.867 445.685C559.502 444.546 559.32 443.327 559.32 442.028V441.515C559.32 440.216 559.502 439.003 559.867 437.875C560.231 436.736 560.778 435.744 561.508 434.901C562.237 434.058 563.137 433.392 564.208 432.902C565.29 432.412 566.543 432.167 567.967 432.167C569.107 432.167 570.161 432.338 571.129 432.68C572.098 433.021 572.935 433.5 573.641 434.115C574.336 434.742 574.877 435.5 575.265 436.388C575.652 437.265 575.835 438.251 575.812 439.345H571.334C571.357 438.889 571.289 438.456 571.129 438.046C570.97 437.636 570.736 437.283 570.428 436.986C570.121 436.69 569.751 436.457 569.318 436.286C568.885 436.103 568.412 436.012 567.899 436.012C567.147 436.012 566.526 436.166 566.036 436.474C565.546 436.781 565.159 437.191 564.874 437.704C564.578 438.217 564.367 438.804 564.242 439.464C564.128 440.125 564.071 440.809 564.071 441.515V442.028C564.071 442.746 564.128 443.441 564.242 444.113C564.356 444.774 564.561 445.355 564.857 445.856C565.142 446.369 565.529 446.779 566.019 447.086C566.521 447.394 567.153 447.548 567.916 447.548ZM596.149 451H591.381V443.822H584.477V451H579.709V432.509H584.477V439.994H591.381V432.509H596.149V451ZM599.722 441.583C599.722 440.239 599.915 438.997 600.303 437.858C600.69 436.707 601.26 435.71 602.012 434.867C602.752 434.024 603.658 433.363 604.729 432.885C605.811 432.406 607.048 432.167 608.438 432.167C609.828 432.167 611.064 432.406 612.146 432.885C613.228 433.363 614.146 434.024 614.898 434.867C615.638 435.71 616.202 436.707 616.589 437.858C616.977 438.997 617.171 440.239 617.171 441.583V441.942C617.171 443.298 616.977 444.551 616.589 445.702C616.202 446.841 615.638 447.833 614.898 448.676C614.157 449.519 613.246 450.18 612.163 450.658C611.081 451.125 609.85 451.359 608.472 451.359C607.082 451.359 605.84 451.125 604.746 450.658C603.664 450.18 602.752 449.519 602.012 448.676C601.26 447.833 600.69 446.841 600.303 445.702C599.915 444.551 599.722 443.298 599.722 441.942V441.583ZM604.473 441.942C604.473 442.717 604.547 443.446 604.695 444.13C604.843 444.802 605.077 445.389 605.396 445.89C605.715 446.403 606.125 446.807 606.626 447.104C607.139 447.4 607.754 447.548 608.472 447.548C609.167 447.548 609.765 447.4 610.266 447.104C610.768 446.807 611.178 446.403 611.497 445.89C611.804 445.389 612.032 444.802 612.18 444.13C612.328 443.446 612.402 442.717 612.402 441.942V441.583C612.402 440.832 612.328 440.119 612.18 439.447C612.032 438.775 611.804 438.183 611.497 437.67C611.178 437.157 610.768 436.753 610.266 436.457C609.765 436.16 609.155 436.012 608.438 436.012C607.731 436.012 607.127 436.16 606.626 436.457C606.125 436.753 605.715 437.157 605.396 437.67C605.077 438.183 604.843 438.775 604.695 439.447C604.547 440.119 604.473 440.832 604.473 441.583V441.942ZM620.64 451V432.509H628.314C629.51 432.509 630.587 432.617 631.544 432.833C632.512 433.039 633.338 433.352 634.022 433.773C634.694 434.206 635.207 434.748 635.56 435.397C635.924 436.046 636.107 436.804 636.107 437.67C636.107 438.16 636.016 438.621 635.833 439.054C635.651 439.487 635.383 439.88 635.03 440.233C634.768 440.495 634.449 440.74 634.073 440.968C633.708 441.185 633.293 441.373 632.825 441.532L633.031 441.566C633.68 441.715 634.25 441.925 634.74 442.199C635.229 442.461 635.645 442.763 635.987 443.104C636.329 443.469 636.585 443.874 636.756 444.318C636.927 444.762 637.012 445.229 637.012 445.719C637.012 446.597 636.842 447.366 636.5 448.026C636.169 448.687 635.685 449.234 635.047 449.667C634.409 450.111 633.623 450.447 632.689 450.675C631.766 450.892 630.706 451 629.51 451H620.64ZM625.391 443.292V447.223H629.51C629.989 447.223 630.404 447.183 630.758 447.104C631.111 447.012 631.396 446.887 631.612 446.728C631.84 446.557 632.005 446.352 632.108 446.112C632.21 445.873 632.262 445.594 632.262 445.275C632.262 444.99 632.216 444.734 632.125 444.506C632.034 444.267 631.886 444.062 631.68 443.891C631.464 443.697 631.173 443.549 630.809 443.446C630.456 443.344 630.023 443.292 629.51 443.292H625.391ZM625.391 440.062H628.57C629.049 440.051 629.464 440.006 629.818 439.926C630.171 439.846 630.461 439.732 630.689 439.584C630.917 439.436 631.082 439.254 631.185 439.037C631.299 438.821 631.356 438.57 631.356 438.285C631.356 437.966 631.304 437.693 631.202 437.465C631.099 437.226 630.94 437.026 630.723 436.867C630.484 436.684 630.159 436.548 629.749 436.457C629.351 436.365 628.872 436.32 628.314 436.32H625.391V440.062ZM657.111 451H652.343V443.822H645.438V451H640.67V432.509H645.438V439.994H652.343V432.509H657.111V451ZM660.683 441.583C660.683 440.239 660.877 438.997 661.264 437.858C661.652 436.707 662.221 435.71 662.973 434.867C663.714 434.024 664.62 433.363 665.691 432.885C666.773 432.406 668.009 432.167 669.399 432.167C670.789 432.167 672.025 432.406 673.108 432.885C674.19 433.363 675.107 434.024 675.859 434.867C676.6 435.71 677.164 436.707 677.551 437.858C677.938 438.997 678.132 440.239 678.132 441.583V441.942C678.132 443.298 677.938 444.551 677.551 445.702C677.164 446.841 676.6 447.833 675.859 448.676C675.119 449.519 674.207 450.18 673.125 450.658C672.042 451.125 670.812 451.359 669.433 451.359C668.043 451.359 666.801 451.125 665.708 450.658C664.625 450.18 663.714 449.519 662.973 448.676C662.221 447.833 661.652 446.841 661.264 445.702C660.877 444.551 660.683 443.298 660.683 441.942V441.583ZM665.434 441.942C665.434 442.717 665.508 443.446 665.656 444.13C665.805 444.802 666.038 445.389 666.357 445.89C666.676 446.403 667.086 446.807 667.588 447.104C668.1 447.4 668.716 447.548 669.433 447.548C670.128 447.548 670.726 447.4 671.228 447.104C671.729 446.807 672.139 446.403 672.458 445.89C672.766 445.389 672.994 444.802 673.142 444.13C673.29 443.446 673.364 442.717 673.364 441.942V441.583C673.364 440.832 673.29 440.119 673.142 439.447C672.994 438.775 672.766 438.183 672.458 437.67C672.139 437.157 671.729 436.753 671.228 436.457C670.726 436.16 670.117 436.012 669.399 436.012C668.693 436.012 668.089 436.16 667.588 436.457C667.086 436.753 666.676 437.157 666.357 437.67C666.038 438.183 665.805 438.775 665.656 439.447C665.508 440.119 665.434 440.832 665.434 441.583V441.942ZM693.018 432.509H697.769V451H693.018V439.208L686.062 451H681.311V432.509H686.062V444.301L693.018 432.509ZM695.205 424.921C695.205 425.661 695.069 426.339 694.795 426.955C694.533 427.57 694.152 428.094 693.65 428.527C693.138 428.971 692.522 429.319 691.805 429.569C691.087 429.809 690.284 429.928 689.395 429.928C688.495 429.928 687.686 429.809 686.968 429.569C686.25 429.319 685.641 428.971 685.14 428.527C684.627 428.094 684.234 427.57 683.96 426.955C683.698 426.339 683.567 425.661 683.567 424.921H686.985C686.985 425.217 687.025 425.508 687.105 425.792C687.196 426.066 687.338 426.305 687.532 426.51C687.726 426.727 687.971 426.898 688.267 427.023C688.575 427.148 688.951 427.211 689.395 427.211C689.828 427.211 690.192 427.148 690.489 427.023C690.796 426.898 691.047 426.727 691.241 426.51C691.423 426.305 691.554 426.066 691.634 425.792C691.725 425.508 691.77 425.217 691.77 424.921H695.205ZM729.694 444.079H726.908V451H722.158V432.509H726.908V439.584H729.369L734.343 432.509H740.324L733.539 441.413L740.871 451H734.582L729.694 444.079ZM741.965 441.583C741.965 440.239 742.159 438.997 742.546 437.858C742.934 436.707 743.503 435.71 744.255 434.867C744.996 434.024 745.902 433.363 746.973 432.885C748.055 432.406 749.291 432.167 750.681 432.167C752.071 432.167 753.307 432.406 754.39 432.885C755.472 433.363 756.389 434.024 757.141 434.867C757.882 435.71 758.446 436.707 758.833 437.858C759.22 438.997 759.414 440.239 759.414 441.583V441.942C759.414 443.298 759.22 444.551 758.833 445.702C758.446 446.841 757.882 447.833 757.141 448.676C756.401 449.519 755.489 450.18 754.407 450.658C753.324 451.125 752.094 451.359 750.715 451.359C749.325 451.359 748.083 451.125 746.99 450.658C745.907 450.18 744.996 449.519 744.255 448.676C743.503 447.833 742.934 446.841 742.546 445.702C742.159 444.551 741.965 443.298 741.965 441.942V441.583ZM746.716 441.942C746.716 442.717 746.79 443.446 746.938 444.13C747.087 444.802 747.32 445.389 747.639 445.89C747.958 446.403 748.368 446.807 748.87 447.104C749.382 447.4 749.998 447.548 750.715 447.548C751.41 447.548 752.008 447.4 752.51 447.104C753.011 446.807 753.421 446.403 753.74 445.89C754.048 445.389 754.276 444.802 754.424 444.13C754.572 443.446 754.646 442.717 754.646 441.942V441.583C754.646 440.832 754.572 440.119 754.424 439.447C754.276 438.775 754.048 438.183 753.74 437.67C753.421 437.157 753.011 436.753 752.51 436.457C752.008 436.16 751.399 436.012 750.681 436.012C749.975 436.012 749.371 436.16 748.87 436.457C748.368 436.753 747.958 437.157 747.639 437.67C747.32 438.183 747.087 438.775 746.938 439.447C746.79 440.119 746.716 440.832 746.716 441.583V441.942ZM779.034 451H774.266V443.822H767.362V451H762.593V432.509H767.362V439.994H774.266V432.509H779.034V451ZM801.388 436.32H794.262V451H789.494V436.32H782.435V432.509H801.388V436.32ZM812.548 451.342C811.124 451.342 809.831 451.108 808.669 450.641C807.507 450.174 806.51 449.536 805.678 448.727C804.847 447.93 804.203 446.99 803.747 445.907C803.303 444.813 803.081 443.646 803.081 442.404V441.72C803.081 440.307 803.303 439.02 803.747 437.858C804.191 436.684 804.812 435.676 805.61 434.833C806.407 433.99 807.353 433.335 808.447 432.868C809.541 432.401 810.731 432.167 812.019 432.167C813.352 432.167 814.537 432.389 815.573 432.833C816.622 433.266 817.51 433.882 818.239 434.679C818.957 435.477 819.504 436.439 819.88 437.567C820.256 438.684 820.444 439.92 820.444 441.276V443.292H807.9V443.344C808.059 444.084 808.265 444.682 808.515 445.138C808.766 445.583 809.102 445.987 809.524 446.352C809.956 446.728 810.452 447.018 811.01 447.223C811.569 447.428 812.178 447.531 812.839 447.531C813.773 447.531 814.679 447.354 815.556 447.001C816.434 446.648 817.146 446.118 817.692 445.412L820.068 447.975C819.464 448.83 818.507 449.604 817.197 450.299C815.887 450.994 814.337 451.342 812.548 451.342ZM811.984 436.012C811.449 436.012 810.959 436.109 810.515 436.303C810.07 436.485 809.683 436.753 809.353 437.106C809.011 437.459 808.726 437.881 808.498 438.371C808.27 438.861 808.099 439.407 807.985 440.011H815.778V439.635C815.778 439.134 815.687 438.661 815.505 438.217C815.323 437.772 815.072 437.385 814.753 437.055C814.434 436.736 814.041 436.485 813.574 436.303C813.118 436.109 812.588 436.012 811.984 436.012ZM839.995 451H835.227V443.822H828.323V451H823.555V432.509H828.323V439.994H835.227V432.509H839.995V451ZM862.35 436.32H855.223V451H850.455V436.32H843.397V432.509H862.35V436.32Z" fill="white"/>
<rect x="66" y="647" width="1268" height="168" rx="20" fill="#0066FF" fill-opacity="0.2"/>
<rect x="67.5" y="648.5" width="1265" height="165" rx="18.5" stroke="#0066FF" stroke-opacity="0.5" stroke-width="3"/>
<path d="M92.4932 694V682.538H88.8555V680.792H92.4932V679.864C92.4932 679.018 92.6152 678.277 92.8594 677.643C93.1117 677 93.4657 676.463 93.9214 676.031C94.369 675.6 94.9102 675.274 95.5449 675.055C96.1797 674.835 96.8877 674.725 97.6689 674.725C97.9945 674.725 98.3159 674.745 98.6333 674.786C98.9507 674.819 99.264 674.863 99.5732 674.92C99.7767 674.961 99.9801 675.006 100.184 675.055C100.387 675.095 100.595 675.144 100.806 675.201L100.538 677.069C100.204 676.955 99.8133 676.857 99.3657 676.776C98.9263 676.686 98.4543 676.642 97.9497 676.642C97.437 676.642 96.9813 676.707 96.5825 676.837C96.1919 676.959 95.8664 677.146 95.606 677.398C95.3293 677.659 95.1177 677.997 94.9712 678.412C94.8328 678.827 94.7637 679.311 94.7637 679.864V680.792H99.854V682.538H94.7637V694H92.4932ZM103.004 687.274C103.004 686.322 103.142 685.439 103.419 684.625C103.696 683.803 104.094 683.091 104.615 682.489C105.128 681.887 105.755 681.415 106.495 681.073C107.236 680.723 108.07 680.548 108.998 680.548C109.933 680.548 110.772 680.723 111.512 681.073C112.261 681.415 112.896 681.887 113.417 682.489C113.929 683.091 114.324 683.803 114.601 684.625C114.877 685.439 115.016 686.322 115.016 687.274V687.542C115.016 688.495 114.877 689.378 114.601 690.191C114.324 691.005 113.929 691.713 113.417 692.315C112.896 692.918 112.265 693.39 111.524 693.731C110.784 694.073 109.95 694.244 109.022 694.244C108.086 694.244 107.244 694.073 106.495 693.731C105.755 693.39 105.128 692.918 104.615 692.315C104.094 691.713 103.696 691.005 103.419 690.191C103.142 689.378 103.004 688.495 103.004 687.542V687.274ZM105.262 687.542C105.262 688.194 105.34 688.816 105.494 689.41C105.649 689.996 105.885 690.513 106.202 690.96C106.511 691.408 106.902 691.762 107.374 692.022C107.846 692.283 108.395 692.413 109.022 692.413C109.64 692.413 110.182 692.283 110.646 692.022C111.118 691.762 111.512 691.408 111.83 690.96C112.139 690.513 112.371 689.996 112.525 689.41C112.68 688.816 112.757 688.194 112.757 687.542V687.274C112.757 686.631 112.676 686.017 112.513 685.431C112.359 684.837 112.127 684.316 111.817 683.868C111.5 683.421 111.105 683.067 110.633 682.806C110.169 682.538 109.624 682.403 108.998 682.403C108.371 682.403 107.826 682.538 107.362 682.806C106.898 683.067 106.511 683.421 106.202 683.868C105.885 684.316 105.649 684.837 105.494 685.431C105.34 686.017 105.262 686.631 105.262 687.274V687.542ZM117.519 687.274C117.519 686.322 117.657 685.439 117.934 684.625C118.21 683.803 118.609 683.091 119.13 682.489C119.643 681.887 120.269 681.415 121.01 681.073C121.75 680.723 122.584 680.548 123.512 680.548C124.448 680.548 125.286 680.723 126.027 681.073C126.776 681.415 127.41 681.887 127.931 682.489C128.444 683.091 128.839 683.803 129.115 684.625C129.392 685.439 129.53 686.322 129.53 687.274V687.542C129.53 688.495 129.392 689.378 129.115 690.191C128.839 691.005 128.444 691.713 127.931 692.315C127.41 692.918 126.78 693.39 126.039 693.731C125.299 694.073 124.464 694.244 123.537 694.244C122.601 694.244 121.758 694.073 121.01 693.731C120.269 693.39 119.643 692.918 119.13 692.315C118.609 691.713 118.21 691.005 117.934 690.191C117.657 689.378 117.519 688.495 117.519 687.542V687.274ZM119.777 687.542C119.777 688.194 119.854 688.816 120.009 689.41C120.163 689.996 120.399 690.513 120.717 690.96C121.026 691.408 121.417 691.762 121.889 692.022C122.361 692.283 122.91 692.413 123.537 692.413C124.155 692.413 124.696 692.283 125.16 692.022C125.632 691.762 126.027 691.408 126.344 690.96C126.653 690.513 126.885 689.996 127.04 689.41C127.195 688.816 127.272 688.194 127.272 687.542V687.274C127.272 686.631 127.191 686.017 127.028 685.431C126.873 684.837 126.641 684.316 126.332 683.868C126.015 683.421 125.62 683.067 125.148 682.806C124.684 682.538 124.139 682.403 123.512 682.403C122.886 682.403 122.34 682.538 121.876 682.806C121.413 683.067 121.026 683.421 120.717 683.868C120.399 684.316 120.163 684.837 120.009 685.431C119.854 686.017 119.777 686.631 119.777 687.274V687.542ZM138.015 677.594V680.792H143.044V682.538H138.015V689.715C138.015 690.228 138.08 690.651 138.21 690.985C138.34 691.319 138.519 691.583 138.747 691.778C138.975 691.982 139.235 692.124 139.528 692.206C139.829 692.287 140.147 692.328 140.48 692.328C140.725 692.328 140.977 692.315 141.237 692.291C141.498 692.258 141.754 692.222 142.006 692.181C142.25 692.14 142.478 692.1 142.69 692.059C142.91 692.01 143.089 691.97 143.227 691.937L143.544 693.536C143.357 693.65 143.129 693.752 142.861 693.841C142.592 693.923 142.299 693.992 141.982 694.049C141.665 694.114 141.327 694.163 140.969 694.195C140.619 694.228 140.269 694.244 139.919 694.244C139.333 694.244 138.784 694.163 138.271 694C137.766 693.829 137.327 693.561 136.953 693.194C136.578 692.836 136.281 692.372 136.062 691.803C135.85 691.225 135.744 690.529 135.744 689.715V682.538H132.277V680.792H135.744V677.594H138.015ZM153.018 694.244C152.09 694.244 151.235 694.085 150.454 693.768C149.681 693.451 149.018 693.007 148.464 692.438C147.911 691.868 147.48 691.192 147.17 690.411C146.861 689.63 146.707 688.779 146.707 687.86V687.347C146.707 686.281 146.877 685.329 147.219 684.491C147.561 683.644 148.017 682.928 148.586 682.342C149.148 681.764 149.787 681.321 150.503 681.012C151.227 680.702 151.968 680.548 152.725 680.548C153.677 680.548 154.507 680.715 155.215 681.048C155.931 681.374 156.525 681.826 156.997 682.403C157.469 682.989 157.819 683.677 158.047 684.466C158.283 685.256 158.401 686.11 158.401 687.03V688.043H148.965V688.128C149.022 688.771 149.148 689.337 149.343 689.825C149.547 690.313 149.823 690.745 150.173 691.119C150.531 691.518 150.963 691.831 151.467 692.059C151.972 692.287 152.529 692.401 153.14 692.401C153.945 692.401 154.661 692.238 155.288 691.913C155.915 691.587 156.436 691.156 156.851 690.619L158.23 691.693C157.791 692.36 157.131 692.954 156.252 693.475C155.382 693.988 154.303 694.244 153.018 694.244ZM152.725 682.403C152.269 682.403 151.838 682.489 151.431 682.66C151.024 682.822 150.658 683.062 150.332 683.38C150.007 683.705 149.73 684.104 149.502 684.576C149.282 685.04 149.128 685.577 149.038 686.188H156.143V686.078C156.143 685.671 156.065 685.235 155.911 684.771C155.756 684.299 155.54 683.893 155.264 683.551C154.987 683.209 154.637 682.932 154.214 682.721C153.799 682.509 153.302 682.403 152.725 682.403ZM170.352 680.548C170.767 680.548 171.198 680.576 171.646 680.633C172.102 680.69 172.444 680.768 172.671 680.865L172.366 683.075C171.927 682.977 171.508 682.908 171.109 682.867C170.718 682.818 170.307 682.794 169.876 682.794C169.323 682.794 168.822 682.863 168.375 683.001C167.927 683.132 167.536 683.327 167.203 683.587C166.902 683.815 166.637 684.096 166.409 684.43C166.189 684.755 166.006 685.121 165.86 685.528V694H163.589V680.792H165.738L165.835 682.562L165.848 682.892C166.385 682.167 167.028 681.598 167.776 681.183C168.533 680.759 169.392 680.548 170.352 680.548Z" fill="white"/>
<path d="M596.713 745H591.911V724.014H584.87V745H580.068V720.117H596.713V745ZM600.081 735.583C600.081 734.239 600.274 732.997 600.662 731.858C601.049 730.707 601.619 729.71 602.371 728.867C603.111 728.024 604.017 727.363 605.088 726.885C606.17 726.406 607.407 726.167 608.797 726.167C610.187 726.167 611.423 726.406 612.505 726.885C613.587 727.363 614.505 728.024 615.257 728.867C615.997 729.71 616.561 730.707 616.948 731.858C617.336 732.997 617.529 734.239 617.529 735.583V735.942C617.529 737.298 617.336 738.551 616.948 739.702C616.561 740.841 615.997 741.833 615.257 742.676C614.516 743.519 613.605 744.18 612.522 744.658C611.44 745.125 610.209 745.359 608.831 745.359C607.441 745.359 606.199 745.125 605.105 744.658C604.023 744.18 603.111 743.519 602.371 742.676C601.619 741.833 601.049 740.841 600.662 739.702C600.274 738.551 600.081 737.298 600.081 735.942V735.583ZM604.832 735.942C604.832 736.717 604.906 737.446 605.054 738.13C605.202 738.802 605.436 739.389 605.755 739.89C606.074 740.403 606.484 740.807 606.985 741.104C607.498 741.4 608.113 741.548 608.831 741.548C609.526 741.548 610.124 741.4 610.625 741.104C611.126 740.807 611.537 740.403 611.856 739.89C612.163 739.389 612.391 738.802 612.539 738.13C612.687 737.446 612.761 736.717 612.761 735.942V735.583C612.761 734.832 612.687 734.119 612.539 733.447C612.391 732.775 612.163 732.183 611.856 731.67C611.537 731.157 611.126 730.753 610.625 730.457C610.124 730.16 609.514 730.012 608.797 730.012C608.09 730.012 607.486 730.16 606.985 730.457C606.484 730.753 606.074 731.157 605.755 731.67C605.436 732.183 605.202 732.775 605.054 733.447C604.906 734.119 604.832 734.832 604.832 735.583V735.942ZM621.119 741.172C621.768 741.024 622.264 740.699 622.606 740.198C622.959 739.685 623.221 739.053 623.392 738.301C623.563 737.549 623.665 736.7 623.7 735.754C623.745 734.809 623.779 733.812 623.802 732.764L623.905 726.509H637.337V741.189H639.969L639.627 750.537H635.218V745H624.058V750.537H619.564L619.205 741.172H621.119ZM628.553 732.764C628.496 733.835 628.422 734.849 628.331 735.806C628.24 736.751 628.114 737.634 627.955 738.455C627.852 738.956 627.739 739.434 627.613 739.89C627.488 740.346 627.34 740.779 627.169 741.189H632.586V730.491H628.587L628.553 732.764ZM641.32 745V726.509H648.993C650.19 726.509 651.266 726.617 652.223 726.833C653.192 727.039 654.018 727.352 654.701 727.773C655.373 728.206 655.886 728.748 656.239 729.397C656.604 730.046 656.786 730.804 656.786 731.67C656.786 732.16 656.695 732.621 656.513 733.054C656.331 733.487 656.063 733.88 655.71 734.233C655.448 734.495 655.129 734.74 654.753 734.968C654.388 735.185 653.972 735.373 653.505 735.532L653.71 735.566C654.359 735.715 654.929 735.925 655.419 736.199C655.909 736.461 656.325 736.763 656.667 737.104C657.008 737.469 657.265 737.874 657.436 738.318C657.607 738.762 657.692 739.229 657.692 739.719C657.692 740.597 657.521 741.366 657.179 742.026C656.849 742.687 656.365 743.234 655.727 743.667C655.089 744.111 654.303 744.447 653.368 744.675C652.445 744.892 651.386 745 650.19 745H641.32ZM646.071 737.292V741.223H650.19C650.668 741.223 651.084 741.183 651.437 741.104C651.79 741.012 652.075 740.887 652.292 740.728C652.519 740.557 652.685 740.352 652.787 740.112C652.89 739.873 652.941 739.594 652.941 739.275C652.941 738.99 652.895 738.734 652.804 738.506C652.713 738.267 652.565 738.062 652.36 737.891C652.143 737.697 651.853 737.549 651.488 737.446C651.135 737.344 650.702 737.292 650.19 737.292H646.071ZM646.071 734.062H649.25C649.728 734.051 650.144 734.006 650.497 733.926C650.85 733.846 651.141 733.732 651.369 733.584C651.597 733.436 651.762 733.254 651.864 733.037C651.978 732.821 652.035 732.57 652.035 732.285C652.035 731.966 651.984 731.693 651.881 731.465C651.779 731.226 651.619 731.026 651.403 730.867C651.164 730.684 650.839 730.548 650.429 730.457C650.03 730.365 649.552 730.32 648.993 730.32H646.071V734.062ZM673.244 745C673.13 744.772 673.034 744.51 672.954 744.214C672.874 743.918 672.806 743.604 672.749 743.274C672.487 743.559 672.185 743.826 671.843 744.077C671.501 744.328 671.125 744.544 670.715 744.727C670.294 744.92 669.832 745.068 669.331 745.171C668.83 745.285 668.288 745.342 667.707 745.342C666.762 745.342 665.89 745.205 665.093 744.932C664.306 744.658 663.629 744.277 663.059 743.787C662.489 743.297 662.045 742.716 661.726 742.043C661.407 741.36 661.247 740.619 661.247 739.822C661.247 738.796 661.447 737.891 661.846 737.104C662.244 736.307 662.842 735.652 663.64 735.139C664.358 734.672 665.241 734.319 666.289 734.08C667.348 733.829 668.562 733.704 669.929 733.704H672.578V732.61C672.578 732.177 672.51 731.79 672.373 731.448C672.236 731.095 672.031 730.793 671.758 730.542C671.473 730.28 671.114 730.081 670.681 729.944C670.259 729.796 669.764 729.722 669.194 729.722C668.693 729.722 668.26 729.784 667.895 729.91C667.531 730.024 667.235 730.189 667.007 730.405C666.802 730.599 666.648 730.833 666.545 731.106C666.454 731.379 666.408 731.681 666.408 732.012H661.658C661.658 731.226 661.828 730.479 662.17 729.773C662.523 729.067 663.036 728.446 663.708 727.91C664.369 727.375 665.178 726.953 666.135 726.646C667.103 726.326 668.209 726.167 669.45 726.167C670.567 726.167 671.604 726.304 672.561 726.577C673.529 726.851 674.367 727.255 675.073 727.791C675.779 728.326 676.332 729.004 676.731 729.824C677.13 730.633 677.329 731.573 677.329 732.644V740.574C677.329 741.565 677.392 742.385 677.517 743.035C677.642 743.684 677.825 744.242 678.064 744.709V745H673.244ZM668.716 741.667C669.194 741.667 669.638 741.611 670.049 741.497C670.459 741.383 670.829 741.235 671.159 741.052C671.49 740.87 671.775 740.665 672.014 740.437C672.253 740.198 672.441 739.958 672.578 739.719V736.541H670.151C669.411 736.541 668.778 736.615 668.254 736.763C667.73 736.899 667.303 737.093 666.972 737.344C666.642 737.606 666.397 737.919 666.238 738.284C666.078 738.637 665.998 739.024 665.998 739.446C665.998 739.776 666.055 740.084 666.169 740.369C666.295 740.642 666.471 740.876 666.699 741.069C666.927 741.252 667.206 741.4 667.536 741.514C667.878 741.616 668.271 741.667 668.716 741.667ZM698.111 726.509V745H693.343V730.371H688.318V734.387C688.318 735.025 688.301 735.64 688.267 736.233C688.244 736.825 688.199 737.384 688.13 737.908C688.016 738.808 687.846 739.628 687.618 740.369C687.39 741.109 687.099 741.764 686.746 742.334C686.176 743.223 685.424 743.889 684.49 744.333C683.567 744.778 682.422 745 681.055 745H680.218L680.184 741.086H680.748C681.351 741.086 681.836 740.967 682.2 740.728C682.576 740.488 682.867 740.101 683.072 739.565C683.174 739.269 683.26 738.927 683.328 738.54C683.396 738.153 683.448 737.714 683.482 737.224C683.516 736.825 683.533 736.392 683.533 735.925C683.545 735.447 683.55 734.934 683.55 734.387V726.509H698.111ZM730.839 741.548C731.306 741.548 731.751 741.479 732.172 741.343C732.594 741.206 732.964 741.012 733.283 740.762C733.602 740.511 733.847 740.209 734.018 739.856C734.2 739.503 734.28 739.11 734.257 738.677H738.735C738.758 739.634 738.558 740.522 738.137 741.343C737.726 742.163 737.163 742.869 736.445 743.462C735.727 744.054 734.89 744.521 733.933 744.863C732.987 745.194 731.984 745.359 730.925 745.359C729.489 745.359 728.23 745.12 727.148 744.641C726.066 744.151 725.165 743.485 724.448 742.642C723.718 741.799 723.166 740.813 722.79 739.685C722.425 738.546 722.243 737.327 722.243 736.028V735.515C722.243 734.216 722.425 733.003 722.79 731.875C723.155 730.736 723.701 729.744 724.431 728.901C725.16 728.058 726.06 727.392 727.131 726.902C728.213 726.412 729.466 726.167 730.891 726.167C732.03 726.167 733.084 726.338 734.052 726.68C735.021 727.021 735.858 727.5 736.564 728.115C737.259 728.742 737.801 729.5 738.188 730.388C738.575 731.265 738.758 732.251 738.735 733.345H734.257C734.28 732.889 734.212 732.456 734.052 732.046C733.893 731.636 733.659 731.283 733.351 730.986C733.044 730.69 732.674 730.457 732.241 730.286C731.808 730.103 731.335 730.012 730.822 730.012C730.07 730.012 729.449 730.166 728.959 730.474C728.469 730.781 728.082 731.191 727.797 731.704C727.501 732.217 727.29 732.804 727.165 733.464C727.051 734.125 726.994 734.809 726.994 735.515V736.028C726.994 736.746 727.051 737.441 727.165 738.113C727.279 738.774 727.484 739.355 727.78 739.856C728.065 740.369 728.452 740.779 728.942 741.086C729.444 741.394 730.076 741.548 730.839 741.548ZM754.526 745C754.413 744.772 754.316 744.51 754.236 744.214C754.156 743.918 754.088 743.604 754.031 743.274C753.769 743.559 753.467 743.826 753.125 744.077C752.783 744.328 752.407 744.544 751.997 744.727C751.576 744.92 751.114 745.068 750.613 745.171C750.112 745.285 749.57 745.342 748.989 745.342C748.044 745.342 747.172 745.205 746.375 744.932C745.588 744.658 744.911 744.277 744.341 743.787C743.771 743.297 743.327 742.716 743.008 742.043C742.689 741.36 742.529 740.619 742.529 739.822C742.529 738.796 742.729 737.891 743.128 737.104C743.526 736.307 744.124 735.652 744.922 735.139C745.64 734.672 746.523 734.319 747.571 734.08C748.63 733.829 749.844 733.704 751.211 733.704H753.86V732.61C753.86 732.177 753.792 731.79 753.655 731.448C753.518 731.095 753.313 730.793 753.04 730.542C752.755 730.28 752.396 730.081 751.963 729.944C751.541 729.796 751.046 729.722 750.476 729.722C749.975 729.722 749.542 729.784 749.177 729.91C748.813 730.024 748.517 730.189 748.289 730.405C748.084 730.599 747.93 730.833 747.827 731.106C747.736 731.379 747.691 731.681 747.691 732.012H742.94C742.94 731.226 743.11 730.479 743.452 729.773C743.805 729.067 744.318 728.446 744.99 727.91C745.651 727.375 746.46 726.953 747.417 726.646C748.386 726.326 749.491 726.167 750.733 726.167C751.849 726.167 752.886 726.304 753.843 726.577C754.811 726.851 755.649 727.255 756.355 727.791C757.061 728.326 757.614 729.004 758.013 729.824C758.412 730.633 758.611 731.573 758.611 732.644V740.574C758.611 741.565 758.674 742.385 758.799 743.035C758.924 743.684 759.107 744.242 759.346 744.709V745H754.526ZM749.998 741.667C750.476 741.667 750.921 741.611 751.331 741.497C751.741 741.383 752.111 741.235 752.441 741.052C752.772 740.87 753.057 740.665 753.296 740.437C753.535 740.198 753.723 739.958 753.86 739.719V736.541H751.433C750.693 736.541 750.06 736.615 749.536 736.763C749.012 736.899 748.585 737.093 748.254 737.344C747.924 737.606 747.679 737.919 747.52 738.284C747.36 738.637 747.28 739.024 747.28 739.446C747.28 739.776 747.337 740.084 747.451 740.369C747.577 740.642 747.753 740.876 747.981 741.069C748.209 741.252 748.488 741.4 748.818 741.514C749.16 741.616 749.553 741.667 749.998 741.667ZM774.659 726.509H779.41V745H774.659V733.208L767.703 745H762.952V726.509H767.703V738.301L774.659 726.509ZM776.846 718.921C776.846 719.661 776.71 720.339 776.436 720.955C776.174 721.57 775.793 722.094 775.291 722.527C774.779 722.971 774.163 723.319 773.446 723.569C772.728 723.809 771.925 723.928 771.036 723.928C770.136 723.928 769.327 723.809 768.609 723.569C767.891 723.319 767.282 722.971 766.781 722.527C766.268 722.094 765.875 721.57 765.601 720.955C765.339 720.339 765.208 719.661 765.208 718.921H768.626C768.626 719.217 768.666 719.508 768.746 719.792C768.837 720.066 768.979 720.305 769.173 720.51C769.367 720.727 769.612 720.898 769.908 721.023C770.216 721.148 770.592 721.211 771.036 721.211C771.469 721.211 771.833 721.148 772.13 721.023C772.437 720.898 772.688 720.727 772.882 720.51C773.064 720.305 773.195 720.066 773.275 719.792C773.366 719.508 773.411 719.217 773.411 718.921H776.846ZM801.747 730.32H794.621V745H789.853V730.32H782.794V726.509H801.747V730.32ZM815.488 745C815.374 744.772 815.277 744.51 815.197 744.214C815.118 743.918 815.049 743.604 814.992 743.274C814.73 743.559 814.428 743.826 814.087 744.077C813.745 744.328 813.369 744.544 812.959 744.727C812.537 744.92 812.076 745.068 811.574 745.171C811.073 745.285 810.532 745.342 809.951 745.342C809.005 745.342 808.134 745.205 807.336 744.932C806.55 744.658 805.872 744.277 805.302 743.787C804.733 743.297 804.288 742.716 803.969 742.043C803.65 741.36 803.491 740.619 803.491 739.822C803.491 738.796 803.69 737.891 804.089 737.104C804.488 736.307 805.086 735.652 805.883 735.139C806.601 734.672 807.484 734.319 808.532 734.08C809.592 733.829 810.805 733.704 812.173 733.704H814.821V732.61C814.821 732.177 814.753 731.79 814.616 731.448C814.48 731.095 814.275 730.793 814.001 730.542C813.716 730.28 813.357 730.081 812.925 729.944C812.503 729.796 812.007 729.722 811.438 729.722C810.936 729.722 810.503 729.784 810.139 729.91C809.774 730.024 809.478 730.189 809.25 730.405C809.045 730.599 808.891 730.833 808.789 731.106C808.698 731.379 808.652 731.681 808.652 732.012H803.901C803.901 731.226 804.072 730.479 804.414 729.773C804.767 729.067 805.28 728.446 805.952 727.91C806.613 727.375 807.422 726.953 808.379 726.646C809.347 726.326 810.452 726.167 811.694 726.167C812.811 726.167 813.847 726.304 814.804 726.577C815.773 726.851 816.61 727.255 817.317 727.791C818.023 728.326 818.576 729.004 818.974 729.824C819.373 730.633 819.572 731.573 819.572 732.644V740.574C819.572 741.565 819.635 742.385 819.76 743.035C819.886 743.684 820.068 744.242 820.307 744.709V745H815.488ZM810.959 741.667C811.438 741.667 811.882 741.611 812.292 741.497C812.702 741.383 813.073 741.235 813.403 741.052C813.733 740.87 814.018 740.665 814.258 740.437C814.497 740.198 814.685 739.958 814.821 739.719V736.541H812.395C811.654 736.541 811.022 736.615 810.498 736.763C809.974 736.899 809.546 737.093 809.216 737.344C808.886 737.606 808.641 737.919 808.481 738.284C808.322 738.637 808.242 739.024 808.242 739.446C808.242 739.776 808.299 740.084 808.413 740.369C808.538 740.642 808.715 740.876 808.943 741.069C809.17 741.252 809.45 741.4 809.78 741.514C810.122 741.616 810.515 741.667 810.959 741.667Z" fill="white"/>
</svg>
