<svg width="1399" height="701" viewBox="0 0 1399 701" fill="none" xmlns="http://www.w3.org/2000/svg">
<rect width="1399" height="701" rx="20" fill="#0066FF" fill-opacity="0.2"/>
<rect x="1.5" y="1.5" width="1396" height="698" rx="18.5" stroke="#0066FF" stroke-opacity="0.5" stroke-width="3"/>
<path d="M130.493 63V51.5376H126.855V49.792H130.493V48.8643C130.493 48.0179 130.615 47.2773 130.859 46.6426C131.112 45.9997 131.466 45.4626 131.921 45.0312C132.369 44.5999 132.91 44.2744 133.545 44.0547C134.18 43.835 134.888 43.7251 135.669 43.7251C135.994 43.7251 136.316 43.7454 136.633 43.7861C136.951 43.8187 137.264 43.8634 137.573 43.9204C137.777 43.9611 137.98 44.0059 138.184 44.0547C138.387 44.0954 138.595 44.1442 138.806 44.2012L138.538 46.0688C138.204 45.9549 137.813 45.8573 137.366 45.7759C136.926 45.6864 136.454 45.6416 135.95 45.6416C135.437 45.6416 134.981 45.7067 134.583 45.8369C134.192 45.959 133.866 46.1462 133.606 46.3984C133.329 46.6589 133.118 46.9966 132.971 47.4116C132.833 47.8267 132.764 48.3109 132.764 48.8643V49.792H137.854V51.5376H132.764V63H130.493ZM141.993 44.25H148.743V61.0469H153.052V63H141.993V61.0469H146.485V46.2153H141.993V44.25ZM161.988 63.2441C161.061 63.2441 160.206 63.0854 159.425 62.7681C158.652 62.4507 157.988 62.0072 157.435 61.4375C156.882 60.8678 156.45 60.1924 156.141 59.4111C155.832 58.6299 155.677 57.7795 155.677 56.8599V56.3472C155.677 55.2811 155.848 54.3289 156.19 53.4907C156.532 52.6444 156.987 51.9282 157.557 51.3423C158.119 50.7645 158.757 50.321 159.474 50.0117C160.198 49.7025 160.938 49.5479 161.695 49.5479C162.647 49.5479 163.478 49.7147 164.186 50.0483C164.902 50.3739 165.496 50.8255 165.968 51.4033C166.44 51.9893 166.79 52.6769 167.018 53.4663C167.254 54.2557 167.372 55.1102 167.372 56.0298V57.043H157.936V57.1284C157.993 57.7713 158.119 58.3369 158.314 58.8252C158.517 59.3135 158.794 59.7448 159.144 60.1191C159.502 60.5179 159.933 60.8312 160.438 61.0591C160.943 61.2869 161.5 61.4009 162.11 61.4009C162.916 61.4009 163.632 61.2381 164.259 60.9126C164.885 60.5871 165.406 60.1558 165.821 59.6187L167.201 60.6929C166.761 61.3602 166.102 61.9543 165.223 62.4751C164.352 62.9878 163.274 63.2441 161.988 63.2441ZM161.695 51.4033C161.24 51.4033 160.808 51.4888 160.401 51.6597C159.994 51.8224 159.628 52.0625 159.303 52.3799C158.977 52.7054 158.701 53.1042 158.473 53.5762C158.253 54.04 158.098 54.5771 158.009 55.1875H165.113V55.0776C165.113 54.6707 165.036 54.2354 164.881 53.7715C164.727 53.2995 164.511 52.8926 164.234 52.5508C163.958 52.209 163.608 51.9323 163.185 51.7207C162.77 51.5091 162.273 51.4033 161.695 51.4033ZM176.125 54.687L179.652 49.792H182.301L177.382 56.3228L182.436 63H179.823L176.173 57.9707L172.523 63H169.887L174.94 56.3228L170.021 49.792H172.633L176.125 54.687ZM195.058 56.1519H185.72V54.2964H195.058V56.1519ZM200.967 63L198.159 49.792H200.161L201.699 58.2148L201.968 60.1069L202.297 58.2148L204.409 49.792H205.862L207.961 58.2148L208.315 60.29L208.645 58.2148L210.11 49.792H212.112L209.304 63H207.522L205.459 54.9067L205.117 52.856L204.788 54.9067L202.749 63H200.967ZM222.867 49.5479C223.282 49.5479 223.713 49.5763 224.161 49.6333C224.616 49.6903 224.958 49.7676 225.186 49.8652L224.881 52.0747C224.441 51.9771 224.022 51.9079 223.624 51.8672C223.233 51.8184 222.822 51.7939 222.391 51.7939C221.837 51.7939 221.337 51.8631 220.889 52.0015C220.442 52.1317 220.051 52.327 219.717 52.5874C219.416 52.8153 219.152 53.096 218.924 53.4297C218.704 53.7552 218.521 54.1214 218.375 54.5283V63H216.104V49.792H218.252L218.35 51.562L218.362 51.8916C218.899 51.1673 219.542 50.5977 220.291 50.1826C221.048 49.7594 221.906 49.5479 222.867 49.5479ZM237.406 63C237.316 62.8291 237.243 62.6175 237.186 62.3652C237.137 62.1048 237.101 61.8363 237.076 61.5596C236.848 61.7874 236.592 62.0031 236.307 62.2065C236.03 62.41 235.725 62.589 235.392 62.7437C235.05 62.8983 234.688 63.0203 234.305 63.1099C233.923 63.1994 233.516 63.2441 233.084 63.2441C232.385 63.2441 231.75 63.1424 231.18 62.939C230.619 62.7355 230.143 62.4588 229.752 62.1089C229.353 61.7671 229.044 61.3602 228.824 60.8882C228.613 60.408 228.507 59.8913 228.507 59.3379C228.507 58.6136 228.649 57.9788 228.934 57.4336C229.227 56.8883 229.638 56.4326 230.167 56.0664C230.696 55.7083 231.331 55.4398 232.071 55.2607C232.82 55.0817 233.654 54.9922 234.574 54.9922H237.04V53.9546C237.04 53.5558 236.966 53.1978 236.82 52.8804C236.673 52.563 236.466 52.2904 236.197 52.0625C235.929 51.8428 235.599 51.6719 235.208 51.5498C234.826 51.4277 234.395 51.3667 233.915 51.3667C233.467 51.3667 233.064 51.4237 232.706 51.5376C232.356 51.6515 232.059 51.8021 231.815 51.9893C231.571 52.1764 231.38 52.4002 231.241 52.6606C231.111 52.9129 231.046 53.1774 231.046 53.4541H228.775C228.784 52.974 228.906 52.502 229.142 52.0381C229.386 51.5742 229.736 51.1551 230.191 50.7808C230.639 50.4146 231.184 50.1175 231.827 49.8896C232.478 49.6618 233.215 49.5479 234.037 49.5479C234.785 49.5479 235.481 49.6414 236.124 49.8286C236.767 50.0076 237.324 50.2803 237.796 50.6465C238.26 51.0208 238.626 51.4847 238.895 52.0381C239.164 52.5915 239.298 53.2384 239.298 53.979V60.1191C239.298 60.5586 239.339 61.0265 239.42 61.5229C239.501 62.0112 239.615 62.4385 239.762 62.8047V63H237.406ZM233.414 61.2788C233.854 61.2788 234.264 61.2218 234.647 61.1079C235.029 60.994 235.379 60.8434 235.697 60.6562C236.006 60.4691 236.275 60.2575 236.502 60.0215C236.73 59.7773 236.909 59.5251 237.04 59.2646V56.5913H234.94C234.159 56.5913 233.475 56.6605 232.889 56.7988C232.311 56.929 231.852 57.1325 231.51 57.4092C231.266 57.6045 231.078 57.8364 230.948 58.105C230.826 58.3735 230.765 58.6787 230.765 59.0205C230.765 59.346 230.818 59.6471 230.924 59.9238C231.038 60.2005 231.205 60.4365 231.424 60.6318C231.644 60.8353 231.921 60.994 232.254 61.1079C232.588 61.2218 232.975 61.2788 233.414 61.2788ZM243.229 68.0781V49.792H245.292L245.402 51.2324C245.581 51.0046 245.776 50.8011 245.988 50.6221C246.199 50.4349 246.427 50.2762 246.671 50.146C247.013 49.9507 247.392 49.8042 247.807 49.7065C248.23 49.6007 248.681 49.5479 249.162 49.5479C250.008 49.5479 250.757 49.7147 251.408 50.0483C252.059 50.382 252.604 50.8459 253.043 51.4399C253.483 52.034 253.817 52.7461 254.044 53.5762C254.272 54.3981 254.386 55.3014 254.386 56.2861V56.5425C254.386 57.4865 254.272 58.3695 254.044 59.1914C253.817 60.0052 253.483 60.7132 253.043 61.3154C252.604 61.9176 252.059 62.3896 251.408 62.7314C250.765 63.0732 250.028 63.2441 249.198 63.2441C248.694 63.2441 248.222 63.1912 247.782 63.0854C247.351 62.9797 246.96 62.8291 246.61 62.6338C246.399 62.5117 246.199 62.3774 246.012 62.231C245.825 62.0763 245.65 61.9095 245.487 61.7305V68.0781H243.229ZM252.128 56.2861C252.128 55.6432 252.055 55.0329 251.908 54.4551C251.77 53.8691 251.554 53.3524 251.261 52.9048C250.96 52.4653 250.582 52.1154 250.126 51.855C249.67 51.5946 249.125 51.4644 248.49 51.4644C248.14 51.4644 247.815 51.505 247.514 51.5864C247.221 51.6678 246.956 51.7858 246.72 51.9404C246.46 52.0951 246.228 52.2863 246.024 52.5142C245.821 52.742 245.642 52.9943 245.487 53.271V59.6309C245.626 59.875 245.784 60.1029 245.963 60.3145C246.142 60.526 246.346 60.7051 246.574 60.8516C246.834 61.0225 247.123 61.1567 247.44 61.2544C247.766 61.3521 248.124 61.4009 248.515 61.4009C249.141 61.4009 249.682 61.2707 250.138 61.0103C250.594 60.7417 250.968 60.3836 251.261 59.936C251.554 59.4884 251.77 58.9717 251.908 58.3857C252.055 57.7998 252.128 57.1854 252.128 56.5425V56.2861ZM262.297 61.5352C262.297 61.055 262.443 60.644 262.736 60.3022C263.029 59.9604 263.473 59.7896 264.067 59.7896C264.653 59.7896 265.096 59.9604 265.397 60.3022C265.707 60.6359 265.861 61.0469 265.861 61.5352C265.861 62.0153 265.707 62.4181 265.397 62.7437C265.088 63.0692 264.645 63.2319 264.067 63.2319C263.481 63.2319 263.037 63.0692 262.736 62.7437C262.443 62.41 262.297 62.0072 262.297 61.5352ZM262.297 50.8418C262.297 50.3617 262.443 49.9507 262.736 49.6089C263.029 49.2671 263.473 49.0962 264.067 49.0962C264.653 49.0962 265.096 49.2671 265.397 49.6089C265.707 49.9425 265.861 50.3535 265.861 50.8418C265.861 51.3219 265.707 51.7248 265.397 52.0503C265.088 52.3758 264.645 52.5386 264.067 52.5386C263.481 52.5386 263.037 52.3758 262.736 52.0503C262.443 51.7166 262.297 51.3138 262.297 50.8418ZM286.785 63V49.792H288.812L288.97 51.7451C289.166 51.4684 289.377 51.2161 289.605 50.9883C289.841 50.7523 290.089 50.5488 290.35 50.3779C290.74 50.1175 291.163 49.9181 291.619 49.7798C292.083 49.6333 292.571 49.556 293.084 49.5479C293.776 49.5479 294.402 49.6455 294.964 49.8408C295.534 50.0361 296.018 50.3413 296.417 50.7563C296.815 51.1714 297.12 51.7004 297.332 52.3433C297.552 52.978 297.662 53.7349 297.662 54.6138V63H295.403V54.6626C295.403 54.0767 295.338 53.5802 295.208 53.1733C295.078 52.7664 294.887 52.4368 294.634 52.1846C294.374 51.9323 294.056 51.7492 293.682 51.6353C293.316 51.5213 292.893 51.4644 292.413 51.4644C291.998 51.4644 291.611 51.5254 291.253 51.6475C290.895 51.7614 290.565 51.9201 290.264 52.1235C290.02 52.3026 289.792 52.5101 289.581 52.7461C289.377 52.9821 289.198 53.2425 289.043 53.5273V63H286.785ZM300.665 56.2739C300.665 55.3218 300.803 54.4388 301.08 53.625C301.357 52.8031 301.756 52.091 302.276 51.4888C302.789 50.8866 303.416 50.4146 304.156 50.0728C304.897 49.7228 305.731 49.5479 306.659 49.5479C307.595 49.5479 308.433 49.7228 309.173 50.0728C309.922 50.4146 310.557 50.8866 311.078 51.4888C311.59 52.091 311.985 52.8031 312.262 53.625C312.538 54.4388 312.677 55.3218 312.677 56.2739V56.5425C312.677 57.4946 312.538 58.3776 312.262 59.1914C311.985 60.0052 311.59 60.7132 311.078 61.3154C310.557 61.9176 309.926 62.3896 309.186 62.7314C308.445 63.0732 307.611 63.2441 306.683 63.2441C305.747 63.2441 304.905 63.0732 304.156 62.7314C303.416 62.3896 302.789 61.9176 302.276 61.3154C301.756 60.7132 301.357 60.0052 301.08 59.1914C300.803 58.3776 300.665 57.4946 300.665 56.5425V56.2739ZM302.923 56.5425C302.923 57.1935 303.001 57.8161 303.155 58.4102C303.31 58.9961 303.546 59.5129 303.863 59.9604C304.173 60.408 304.563 60.762 305.035 61.0225C305.507 61.2829 306.056 61.4131 306.683 61.4131C307.302 61.4131 307.843 61.2829 308.307 61.0225C308.779 60.762 309.173 60.408 309.491 59.9604C309.8 59.5129 310.032 58.9961 310.187 58.4102C310.341 57.8161 310.418 57.1935 310.418 56.5425V56.2739C310.418 55.631 310.337 55.0166 310.174 54.4307C310.02 53.8366 309.788 53.3158 309.479 52.8682C309.161 52.4206 308.766 52.0666 308.294 51.8062C307.831 51.5376 307.285 51.4033 306.659 51.4033C306.032 51.4033 305.487 51.5376 305.023 51.8062C304.559 52.0666 304.173 52.4206 303.863 52.8682C303.546 53.3158 303.31 53.8366 303.155 54.4307C303.001 55.0166 302.923 55.631 302.923 56.2739V56.5425ZM317.084 63L314.276 49.792H316.278L317.816 58.2148L318.085 60.1069L318.415 58.2148L320.526 49.792H321.979L324.079 58.2148L324.433 60.29L324.762 58.2148L326.227 49.792H328.229L325.421 63H323.639L321.576 54.9067L321.234 52.856L320.905 54.9067L318.866 63H317.084ZM338.984 49.5479C339.399 49.5479 339.83 49.5763 340.278 49.6333C340.734 49.6903 341.075 49.7676 341.303 49.8652L340.998 52.0747C340.559 51.9771 340.139 51.9079 339.741 51.8672C339.35 51.8184 338.939 51.7939 338.508 51.7939C337.954 51.7939 337.454 51.8631 337.006 52.0015C336.559 52.1317 336.168 52.327 335.834 52.5874C335.533 52.8153 335.269 53.096 335.041 53.4297C334.821 53.7552 334.638 54.1214 334.492 54.5283V63H332.221V49.792H334.37L334.467 51.562L334.479 51.8916C335.017 51.1673 335.66 50.5977 336.408 50.1826C337.165 49.7594 338.024 49.5479 338.984 49.5479ZM353.523 63C353.433 62.8291 353.36 62.6175 353.303 62.3652C353.254 62.1048 353.218 61.8363 353.193 61.5596C352.965 61.7874 352.709 62.0031 352.424 62.2065C352.148 62.41 351.842 62.589 351.509 62.7437C351.167 62.8983 350.805 63.0203 350.422 63.1099C350.04 63.1994 349.633 63.2441 349.202 63.2441C348.502 63.2441 347.867 63.1424 347.297 62.939C346.736 62.7355 346.26 62.4588 345.869 62.1089C345.47 61.7671 345.161 61.3602 344.941 60.8882C344.73 60.408 344.624 59.8913 344.624 59.3379C344.624 58.6136 344.766 57.9788 345.051 57.4336C345.344 56.8883 345.755 56.4326 346.284 56.0664C346.813 55.7083 347.448 55.4398 348.188 55.2607C348.937 55.0817 349.771 54.9922 350.691 54.9922H353.157V53.9546C353.157 53.5558 353.083 53.1978 352.937 52.8804C352.791 52.563 352.583 52.2904 352.314 52.0625C352.046 51.8428 351.716 51.6719 351.326 51.5498C350.943 51.4277 350.512 51.3667 350.032 51.3667C349.584 51.3667 349.181 51.4237 348.823 51.5376C348.473 51.6515 348.176 51.8021 347.932 51.9893C347.688 52.1764 347.497 52.4002 347.358 52.6606C347.228 52.9129 347.163 53.1774 347.163 53.4541H344.893C344.901 52.974 345.023 52.502 345.259 52.0381C345.503 51.5742 345.853 51.1551 346.309 50.7808C346.756 50.4146 347.301 50.1175 347.944 49.8896C348.595 49.6618 349.332 49.5479 350.154 49.5479C350.903 49.5479 351.598 49.6414 352.241 49.8286C352.884 50.0076 353.442 50.2803 353.914 50.6465C354.377 51.0208 354.744 51.4847 355.012 52.0381C355.281 52.5915 355.415 53.2384 355.415 53.979V60.1191C355.415 60.5586 355.456 61.0265 355.537 61.5229C355.618 62.0112 355.732 62.4385 355.879 62.8047V63H353.523ZM349.531 61.2788C349.971 61.2788 350.382 61.2218 350.764 61.1079C351.147 60.994 351.497 60.8434 351.814 60.6562C352.123 60.4691 352.392 60.2575 352.62 60.0215C352.847 59.7773 353.027 59.5251 353.157 59.2646V56.5913H351.057C350.276 56.5913 349.592 56.6605 349.006 56.7988C348.429 56.929 347.969 57.1325 347.627 57.4092C347.383 57.6045 347.196 57.8364 347.065 58.105C346.943 58.3735 346.882 58.6787 346.882 59.0205C346.882 59.346 346.935 59.6471 347.041 59.9238C347.155 60.2005 347.322 60.4365 347.542 60.6318C347.761 60.8353 348.038 60.994 348.372 61.1079C348.705 61.2218 349.092 61.2788 349.531 61.2788ZM359.346 68.0781V49.792H361.409L361.519 51.2324C361.698 51.0046 361.893 50.8011 362.105 50.6221C362.317 50.4349 362.544 50.2762 362.789 50.146C363.13 49.9507 363.509 49.8042 363.924 49.7065C364.347 49.6007 364.799 49.5479 365.279 49.5479C366.125 49.5479 366.874 49.7147 367.525 50.0483C368.176 50.382 368.721 50.8459 369.161 51.4399C369.6 52.034 369.934 52.7461 370.162 53.5762C370.389 54.3981 370.503 55.3014 370.503 56.2861V56.5425C370.503 57.4865 370.389 58.3695 370.162 59.1914C369.934 60.0052 369.6 60.7132 369.161 61.3154C368.721 61.9176 368.176 62.3896 367.525 62.7314C366.882 63.0732 366.146 63.2441 365.315 63.2441C364.811 63.2441 364.339 63.1912 363.899 63.0854C363.468 62.9797 363.077 62.8291 362.728 62.6338C362.516 62.5117 362.317 62.3774 362.129 62.231C361.942 62.0763 361.767 61.9095 361.604 61.7305V68.0781H359.346ZM368.245 56.2861C368.245 55.6432 368.172 55.0329 368.025 54.4551C367.887 53.8691 367.671 53.3524 367.378 52.9048C367.077 52.4653 366.699 52.1154 366.243 51.855C365.787 51.5946 365.242 51.4644 364.607 51.4644C364.257 51.4644 363.932 51.505 363.631 51.5864C363.338 51.6678 363.073 51.7858 362.837 51.9404C362.577 52.0951 362.345 52.2863 362.142 52.5142C361.938 52.742 361.759 52.9943 361.604 53.271V59.6309C361.743 59.875 361.902 60.1029 362.081 60.3145C362.26 60.526 362.463 60.7051 362.691 60.8516C362.951 61.0225 363.24 61.1567 363.558 61.2544C363.883 61.3521 364.241 61.4009 364.632 61.4009C365.258 61.4009 365.8 61.2707 366.255 61.0103C366.711 60.7417 367.085 60.3836 367.378 59.936C367.671 59.4884 367.887 58.9717 368.025 58.3857C368.172 57.7998 368.245 57.1854 368.245 56.5425V56.2861Z" fill="white"/>
<rect x="122.5" y="81.5" width="541" height="167" rx="18.5" stroke="white" stroke-width="3"/>
<rect x="139" y="99" width="90" height="135" rx="10" fill="#0066FF"/>
<path d="M186.034 176H182.604V162.365L178.112 163.976V161.022L185.851 158.227H186.034V176Z" fill="white"/>
<rect x="244" y="99" width="90" height="135" rx="10" fill="#0066FF"/>
<path d="M294.342 176H282.221V173.681L287.97 167.504C288.418 167.016 288.796 166.572 289.105 166.173C289.415 165.775 289.667 165.408 289.862 165.075C290.049 164.749 290.184 164.444 290.265 164.159C290.355 163.874 290.399 163.598 290.399 163.329C290.399 162.93 290.342 162.576 290.229 162.267C290.115 161.958 289.956 161.693 289.752 161.474C289.541 161.262 289.289 161.099 288.996 160.985C288.711 160.871 288.393 160.814 288.043 160.814C287.588 160.814 287.185 160.88 286.835 161.01C286.493 161.132 286.208 161.315 285.98 161.559C285.744 161.811 285.565 162.125 285.443 162.499C285.321 162.873 285.26 163.301 285.26 163.781H281.854C281.854 162.991 282.005 162.247 282.306 161.547C282.607 160.839 283.035 160.22 283.588 159.691C284.133 159.162 284.792 158.747 285.565 158.446C286.347 158.137 287.209 157.982 288.153 157.982C289.057 157.982 289.854 158.109 290.546 158.361C291.246 158.613 291.832 158.967 292.304 159.423C292.768 159.879 293.122 160.428 293.366 161.071C293.61 161.706 293.732 162.41 293.732 163.183C293.732 163.769 293.638 164.33 293.451 164.867C293.272 165.396 293.016 165.921 292.682 166.442C292.34 166.963 291.933 167.496 291.461 168.041C290.989 168.578 290.465 169.144 289.887 169.738L286.542 173.278H294.342V176Z" fill="white"/>
<rect x="349" y="99" width="90" height="135" rx="10" fill="#0066FF"/>
<path d="M391.139 165.624H392.982C393.471 165.624 393.89 165.559 394.24 165.429C394.598 165.29 394.887 165.099 395.106 164.855C395.31 164.643 395.46 164.387 395.558 164.086C395.664 163.777 395.717 163.443 395.717 163.085C395.717 162.735 395.664 162.418 395.558 162.133C395.46 161.84 395.31 161.588 395.106 161.376C394.903 161.173 394.643 161.014 394.325 160.9C394.016 160.786 393.654 160.729 393.239 160.729C392.897 160.729 392.576 160.778 392.274 160.875C391.981 160.973 391.725 161.111 391.505 161.291C391.278 161.478 391.098 161.701 390.968 161.962C390.838 162.222 390.773 162.515 390.773 162.841H387.379C387.379 162.117 387.526 161.457 387.819 160.863C388.12 160.269 388.531 159.757 389.052 159.325C389.573 158.902 390.183 158.572 390.883 158.336C391.591 158.1 392.352 157.982 393.166 157.982C394.044 157.982 394.85 158.092 395.583 158.312C396.315 158.524 396.942 158.841 397.462 159.264C397.983 159.695 398.386 160.229 398.671 160.863C398.964 161.49 399.11 162.218 399.11 163.048C399.11 163.431 399.053 163.809 398.939 164.184C398.826 164.55 398.659 164.9 398.439 165.233C398.219 165.567 397.947 165.876 397.621 166.161C397.296 166.438 396.921 166.678 396.498 166.881C396.994 167.06 397.422 167.288 397.78 167.565C398.146 167.842 398.447 168.155 398.683 168.505C398.919 168.863 399.094 169.254 399.208 169.677C399.322 170.1 399.379 170.548 399.379 171.02C399.379 171.85 399.22 172.59 398.903 173.241C398.585 173.892 398.15 174.438 397.597 174.877C397.043 175.325 396.384 175.666 395.619 175.902C394.862 176.13 394.044 176.244 393.166 176.244C392.409 176.244 391.668 176.142 390.944 175.939C390.228 175.727 389.589 175.41 389.027 174.987C388.466 174.572 388.014 174.047 387.672 173.412C387.339 172.777 387.172 172.029 387.172 171.166H390.565C390.565 171.508 390.631 171.825 390.761 172.118C390.891 172.403 391.078 172.647 391.322 172.851C391.558 173.062 391.839 173.229 392.165 173.351C392.49 173.465 392.848 173.522 393.239 173.522C393.678 173.522 394.073 173.461 394.423 173.339C394.773 173.217 395.066 173.038 395.302 172.802C395.53 172.59 395.701 172.33 395.814 172.021C395.937 171.711 395.998 171.365 395.998 170.983C395.998 170.503 395.928 170.092 395.79 169.75C395.652 169.408 395.452 169.127 395.192 168.908C394.923 168.688 394.602 168.525 394.228 168.419C393.861 168.314 393.446 168.261 392.982 168.261H391.139V165.624Z" fill="white"/>
<rect x="454" y="99" width="90" height="135" rx="10" fill="#0066FF"/>
<path d="M502.633 169.396H504.696V172.143H502.633V176H499.24V172.143H491.854L491.72 170.019L499.191 158.227H502.633V169.396ZM495.053 169.396H499.24V162.792L498.91 163.378L495.053 169.396Z" fill="white"/>
<rect x="559" y="99" width="90" height="135" rx="10" fill="#0066FF"/>
<path d="M597.892 167.248L598.905 158.227H608.769V161.107H601.701L601.273 165.014C601.526 164.867 601.884 164.717 602.348 164.562C602.812 164.407 603.345 164.33 603.947 164.33C604.801 164.33 605.562 164.468 606.229 164.745C606.905 165.014 607.475 165.404 607.938 165.917C608.394 166.43 608.744 167.056 608.988 167.797C609.232 168.537 609.354 169.376 609.354 170.312C609.354 171.109 609.236 171.866 609 172.582C608.764 173.298 608.402 173.929 607.914 174.474C607.426 175.019 606.811 175.451 606.071 175.768C605.33 176.085 604.455 176.244 603.446 176.244C602.681 176.244 601.941 176.13 601.225 175.902C600.517 175.674 599.886 175.341 599.333 174.901C598.779 174.462 598.327 173.925 597.978 173.29C597.636 172.647 597.453 171.915 597.428 171.093H600.773C600.854 171.866 601.131 172.464 601.603 172.887C602.083 173.31 602.694 173.522 603.434 173.522C603.89 173.522 604.276 173.437 604.594 173.266C604.919 173.095 605.184 172.859 605.387 172.558C605.583 172.257 605.725 171.898 605.814 171.483C605.912 171.068 605.961 170.621 605.961 170.141C605.961 169.669 605.9 169.237 605.778 168.847C605.664 168.448 605.485 168.106 605.241 167.821C604.997 167.536 604.691 167.317 604.325 167.162C603.959 167.007 603.528 166.93 603.031 166.93C602.698 166.93 602.409 166.959 602.165 167.016C601.92 167.073 601.705 167.146 601.518 167.235C601.33 167.325 601.164 167.431 601.017 167.553C600.871 167.667 600.732 167.789 600.602 167.919L597.892 167.248Z" fill="white"/>
<path d="M130.493 311V299.538H126.855V297.792H130.493V296.864C130.493 296.018 130.615 295.277 130.859 294.643C131.112 294 131.466 293.463 131.921 293.031C132.369 292.6 132.91 292.274 133.545 292.055C134.18 291.835 134.888 291.725 135.669 291.725C135.994 291.725 136.316 291.745 136.633 291.786C136.951 291.819 137.264 291.863 137.573 291.92C137.777 291.961 137.98 292.006 138.184 292.055C138.387 292.095 138.595 292.144 138.806 292.201L138.538 294.069C138.204 293.955 137.813 293.857 137.366 293.776C136.926 293.686 136.454 293.642 135.95 293.642C135.437 293.642 134.981 293.707 134.583 293.837C134.192 293.959 133.866 294.146 133.606 294.398C133.329 294.659 133.118 294.997 132.971 295.412C132.833 295.827 132.764 296.311 132.764 296.864V297.792H137.854V299.538H132.764V311H130.493ZM141.993 292.25H148.743V309.047H153.052V311H141.993V309.047H146.485V294.215H141.993V292.25ZM161.988 311.244C161.061 311.244 160.206 311.085 159.425 310.768C158.652 310.451 157.988 310.007 157.435 309.438C156.882 308.868 156.45 308.192 156.141 307.411C155.832 306.63 155.677 305.779 155.677 304.86V304.347C155.677 303.281 155.848 302.329 156.19 301.491C156.532 300.644 156.987 299.928 157.557 299.342C158.119 298.764 158.757 298.321 159.474 298.012C160.198 297.702 160.938 297.548 161.695 297.548C162.647 297.548 163.478 297.715 164.186 298.048C164.902 298.374 165.496 298.826 165.968 299.403C166.44 299.989 166.79 300.677 167.018 301.466C167.254 302.256 167.372 303.11 167.372 304.03V305.043H157.936V305.128C157.993 305.771 158.119 306.337 158.314 306.825C158.517 307.313 158.794 307.745 159.144 308.119C159.502 308.518 159.933 308.831 160.438 309.059C160.943 309.287 161.5 309.401 162.11 309.401C162.916 309.401 163.632 309.238 164.259 308.913C164.885 308.587 165.406 308.156 165.821 307.619L167.201 308.693C166.761 309.36 166.102 309.954 165.223 310.475C164.352 310.988 163.274 311.244 161.988 311.244ZM161.695 299.403C161.24 299.403 160.808 299.489 160.401 299.66C159.994 299.822 159.628 300.062 159.303 300.38C158.977 300.705 158.701 301.104 158.473 301.576C158.253 302.04 158.098 302.577 158.009 303.188H165.113V303.078C165.113 302.671 165.036 302.235 164.881 301.771C164.727 301.299 164.511 300.893 164.234 300.551C163.958 300.209 163.608 299.932 163.185 299.721C162.77 299.509 162.273 299.403 161.695 299.403ZM176.125 302.687L179.652 297.792H182.301L177.382 304.323L182.436 311H179.823L176.173 305.971L172.523 311H169.887L174.94 304.323L170.021 297.792H172.633L176.125 302.687ZM195.058 304.152H185.72V302.296H195.058V304.152ZM200.967 311L198.159 297.792H200.161L201.699 306.215L201.968 308.107L202.297 306.215L204.409 297.792H205.862L207.961 306.215L208.315 308.29L208.645 306.215L210.11 297.792H212.112L209.304 311H207.522L205.459 302.907L205.117 300.856L204.788 302.907L202.749 311H200.967ZM222.867 297.548C223.282 297.548 223.713 297.576 224.161 297.633C224.616 297.69 224.958 297.768 225.186 297.865L224.881 300.075C224.441 299.977 224.022 299.908 223.624 299.867C223.233 299.818 222.822 299.794 222.391 299.794C221.837 299.794 221.337 299.863 220.889 300.001C220.442 300.132 220.051 300.327 219.717 300.587C219.416 300.815 219.152 301.096 218.924 301.43C218.704 301.755 218.521 302.121 218.375 302.528V311H216.104V297.792H218.252L218.35 299.562L218.362 299.892C218.899 299.167 219.542 298.598 220.291 298.183C221.048 297.759 221.906 297.548 222.867 297.548ZM237.406 311C237.316 310.829 237.243 310.618 237.186 310.365C237.137 310.105 237.101 309.836 237.076 309.56C236.848 309.787 236.592 310.003 236.307 310.207C236.03 310.41 235.725 310.589 235.392 310.744C235.05 310.898 234.688 311.02 234.305 311.11C233.923 311.199 233.516 311.244 233.084 311.244C232.385 311.244 231.75 311.142 231.18 310.939C230.619 310.736 230.143 310.459 229.752 310.109C229.353 309.767 229.044 309.36 228.824 308.888C228.613 308.408 228.507 307.891 228.507 307.338C228.507 306.614 228.649 305.979 228.934 305.434C229.227 304.888 229.638 304.433 230.167 304.066C230.696 303.708 231.331 303.44 232.071 303.261C232.82 303.082 233.654 302.992 234.574 302.992H237.04V301.955C237.04 301.556 236.966 301.198 236.82 300.88C236.673 300.563 236.466 300.29 236.197 300.062C235.929 299.843 235.599 299.672 235.208 299.55C234.826 299.428 234.395 299.367 233.915 299.367C233.467 299.367 233.064 299.424 232.706 299.538C232.356 299.652 232.059 299.802 231.815 299.989C231.571 300.176 231.38 300.4 231.241 300.661C231.111 300.913 231.046 301.177 231.046 301.454H228.775C228.784 300.974 228.906 300.502 229.142 300.038C229.386 299.574 229.736 299.155 230.191 298.781C230.639 298.415 231.184 298.118 231.827 297.89C232.478 297.662 233.215 297.548 234.037 297.548C234.785 297.548 235.481 297.641 236.124 297.829C236.767 298.008 237.324 298.28 237.796 298.646C238.26 299.021 238.626 299.485 238.895 300.038C239.164 300.591 239.298 301.238 239.298 301.979V308.119C239.298 308.559 239.339 309.027 239.42 309.523C239.501 310.011 239.615 310.438 239.762 310.805V311H237.406ZM233.414 309.279C233.854 309.279 234.264 309.222 234.647 309.108C235.029 308.994 235.379 308.843 235.697 308.656C236.006 308.469 236.275 308.257 236.502 308.021C236.73 307.777 236.909 307.525 237.04 307.265V304.591H234.94C234.159 304.591 233.475 304.66 232.889 304.799C232.311 304.929 231.852 305.132 231.51 305.409C231.266 305.604 231.078 305.836 230.948 306.105C230.826 306.374 230.765 306.679 230.765 307.021C230.765 307.346 230.818 307.647 230.924 307.924C231.038 308.201 231.205 308.437 231.424 308.632C231.644 308.835 231.921 308.994 232.254 309.108C232.588 309.222 232.975 309.279 233.414 309.279ZM243.229 316.078V297.792H245.292L245.402 299.232C245.581 299.005 245.776 298.801 245.988 298.622C246.199 298.435 246.427 298.276 246.671 298.146C247.013 297.951 247.392 297.804 247.807 297.707C248.23 297.601 248.681 297.548 249.162 297.548C250.008 297.548 250.757 297.715 251.408 298.048C252.059 298.382 252.604 298.846 253.043 299.44C253.483 300.034 253.817 300.746 254.044 301.576C254.272 302.398 254.386 303.301 254.386 304.286V304.542C254.386 305.486 254.272 306.369 254.044 307.191C253.817 308.005 253.483 308.713 253.043 309.315C252.604 309.918 252.059 310.39 251.408 310.731C250.765 311.073 250.028 311.244 249.198 311.244C248.694 311.244 248.222 311.191 247.782 311.085C247.351 310.98 246.96 310.829 246.61 310.634C246.399 310.512 246.199 310.377 246.012 310.231C245.825 310.076 245.65 309.91 245.487 309.73V316.078H243.229ZM252.128 304.286C252.128 303.643 252.055 303.033 251.908 302.455C251.77 301.869 251.554 301.352 251.261 300.905C250.96 300.465 250.582 300.115 250.126 299.855C249.67 299.595 249.125 299.464 248.49 299.464C248.14 299.464 247.815 299.505 247.514 299.586C247.221 299.668 246.956 299.786 246.72 299.94C246.46 300.095 246.228 300.286 246.024 300.514C245.821 300.742 245.642 300.994 245.487 301.271V307.631C245.626 307.875 245.784 308.103 245.963 308.314C246.142 308.526 246.346 308.705 246.574 308.852C246.834 309.022 247.123 309.157 247.44 309.254C247.766 309.352 248.124 309.401 248.515 309.401C249.141 309.401 249.682 309.271 250.138 309.01C250.594 308.742 250.968 308.384 251.261 307.936C251.554 307.488 251.77 306.972 251.908 306.386C252.055 305.8 252.128 305.185 252.128 304.542V304.286ZM262.297 309.535C262.297 309.055 262.443 308.644 262.736 308.302C263.029 307.96 263.473 307.79 264.067 307.79C264.653 307.79 265.096 307.96 265.397 308.302C265.707 308.636 265.861 309.047 265.861 309.535C265.861 310.015 265.707 310.418 265.397 310.744C265.088 311.069 264.645 311.232 264.067 311.232C263.481 311.232 263.037 311.069 262.736 310.744C262.443 310.41 262.297 310.007 262.297 309.535ZM262.297 298.842C262.297 298.362 262.443 297.951 262.736 297.609C263.029 297.267 263.473 297.096 264.067 297.096C264.653 297.096 265.096 297.267 265.397 297.609C265.707 297.943 265.861 298.354 265.861 298.842C265.861 299.322 265.707 299.725 265.397 300.05C265.088 300.376 264.645 300.539 264.067 300.539C263.481 300.539 263.037 300.376 262.736 300.05C262.443 299.717 262.297 299.314 262.297 298.842ZM288.055 311L285.247 297.792H287.249L288.787 306.215L289.056 308.107L289.385 306.215L291.497 297.792H292.95L295.049 306.215L295.403 308.29L295.733 306.215L297.198 297.792H299.2L296.392 311H294.61L292.547 302.907L292.205 300.856L291.875 302.907L289.837 311H288.055ZM309.955 297.548C310.37 297.548 310.801 297.576 311.249 297.633C311.704 297.69 312.046 297.768 312.274 297.865L311.969 300.075C311.529 299.977 311.11 299.908 310.711 299.867C310.321 299.818 309.91 299.794 309.479 299.794C308.925 299.794 308.425 299.863 307.977 300.001C307.529 300.132 307.139 300.327 306.805 300.587C306.504 300.815 306.24 301.096 306.012 301.43C305.792 301.755 305.609 302.121 305.462 302.528V311H303.192V297.792H305.34L305.438 299.562L305.45 299.892C305.987 299.167 306.63 298.598 307.379 298.183C308.136 297.759 308.994 297.548 309.955 297.548ZM324.494 311C324.404 310.829 324.331 310.618 324.274 310.365C324.225 310.105 324.188 309.836 324.164 309.56C323.936 309.787 323.68 310.003 323.395 310.207C323.118 310.41 322.813 310.589 322.479 310.744C322.138 310.898 321.776 311.02 321.393 311.11C321.011 311.199 320.604 311.244 320.172 311.244C319.472 311.244 318.838 311.142 318.268 310.939C317.707 310.736 317.23 310.459 316.84 310.109C316.441 309.767 316.132 309.36 315.912 308.888C315.701 308.408 315.595 307.891 315.595 307.338C315.595 306.614 315.737 305.979 316.022 305.434C316.315 304.888 316.726 304.433 317.255 304.066C317.784 303.708 318.419 303.44 319.159 303.261C319.908 303.082 320.742 302.992 321.662 302.992H324.127V301.955C324.127 301.556 324.054 301.198 323.908 300.88C323.761 300.563 323.554 300.29 323.285 300.062C323.017 299.843 322.687 299.672 322.296 299.55C321.914 299.428 321.483 299.367 321.002 299.367C320.555 299.367 320.152 299.424 319.794 299.538C319.444 299.652 319.147 299.802 318.903 299.989C318.659 300.176 318.467 300.4 318.329 300.661C318.199 300.913 318.134 301.177 318.134 301.454H315.863C315.871 300.974 315.993 300.502 316.229 300.038C316.474 299.574 316.824 299.155 317.279 298.781C317.727 298.415 318.272 298.118 318.915 297.89C319.566 297.662 320.303 297.548 321.125 297.548C321.873 297.548 322.569 297.641 323.212 297.829C323.855 298.008 324.412 298.28 324.884 298.646C325.348 299.021 325.714 299.485 325.983 300.038C326.251 300.591 326.386 301.238 326.386 301.979V308.119C326.386 308.559 326.426 309.027 326.508 309.523C326.589 310.011 326.703 310.438 326.85 310.805V311H324.494ZM320.502 309.279C320.941 309.279 321.352 309.222 321.735 309.108C322.117 308.994 322.467 308.843 322.785 308.656C323.094 308.469 323.362 308.257 323.59 308.021C323.818 307.777 323.997 307.525 324.127 307.265V304.591H322.028C321.247 304.591 320.563 304.66 319.977 304.799C319.399 304.929 318.939 305.132 318.598 305.409C318.354 305.604 318.166 305.836 318.036 306.105C317.914 306.374 317.853 306.679 317.853 307.021C317.853 307.346 317.906 307.647 318.012 307.924C318.126 308.201 318.292 308.437 318.512 308.632C318.732 308.835 319.009 308.994 319.342 309.108C319.676 309.222 320.062 309.279 320.502 309.279ZM330.317 316.078V297.792H332.38L332.49 299.232C332.669 299.005 332.864 298.801 333.076 298.622C333.287 298.435 333.515 298.276 333.759 298.146C334.101 297.951 334.479 297.804 334.895 297.707C335.318 297.601 335.769 297.548 336.25 297.548C337.096 297.548 337.845 297.715 338.496 298.048C339.147 298.382 339.692 298.846 340.131 299.44C340.571 300.034 340.904 300.746 341.132 301.576C341.36 302.398 341.474 303.301 341.474 304.286V304.542C341.474 305.486 341.36 306.369 341.132 307.191C340.904 308.005 340.571 308.713 340.131 309.315C339.692 309.918 339.147 310.39 338.496 310.731C337.853 311.073 337.116 311.244 336.286 311.244C335.782 311.244 335.31 311.191 334.87 311.085C334.439 310.98 334.048 310.829 333.698 310.634C333.487 310.512 333.287 310.377 333.1 310.231C332.913 310.076 332.738 309.91 332.575 309.73V316.078H330.317ZM339.216 304.286C339.216 303.643 339.143 303.033 338.996 302.455C338.858 301.869 338.642 301.352 338.349 300.905C338.048 300.465 337.67 300.115 337.214 299.855C336.758 299.595 336.213 299.464 335.578 299.464C335.228 299.464 334.903 299.505 334.602 299.586C334.309 299.668 334.044 299.786 333.808 299.94C333.548 300.095 333.316 300.286 333.112 300.514C332.909 300.742 332.73 300.994 332.575 301.271V307.631C332.714 307.875 332.872 308.103 333.051 308.314C333.23 308.526 333.434 308.705 333.662 308.852C333.922 309.022 334.211 309.157 334.528 309.254C334.854 309.352 335.212 309.401 335.603 309.401C336.229 309.401 336.77 309.271 337.226 309.01C337.682 308.742 338.056 308.384 338.349 307.936C338.642 307.488 338.858 306.972 338.996 306.386C339.143 305.8 339.216 305.185 339.216 304.542V304.286Z" fill="white"/>
<rect x="122.5" y="329.5" width="511" height="334" rx="18.5" stroke="white" stroke-width="3"/>
<rect x="139" y="345" width="121.5" height="135" rx="10" fill="#0066FF"/>
<path d="M204.034 422H200.604V408.365L196.112 409.976V407.022L203.851 404.227H204.034V422Z" fill="white"/>
<rect x="139" y="505" width="121.5" height="135" rx="10" fill="#0066FF"/>
<path d="M205.633 575.396H207.696V578.143H205.633V582H202.24V578.143H194.854L194.72 576.019L202.191 564.227H205.633V575.396ZM198.053 575.396H202.24V568.792L201.91 569.378L198.053 575.396Z" fill="white"/>
<rect x="280.75" y="346" width="121.5" height="135" rx="10" fill="#0066FF"/>
<path d="M348.342 423H336.221V420.681L341.97 414.504C342.418 414.016 342.796 413.572 343.105 413.173C343.415 412.775 343.667 412.408 343.862 412.075C344.049 411.749 344.184 411.444 344.265 411.159C344.355 410.874 344.399 410.598 344.399 410.329C344.399 409.93 344.342 409.576 344.229 409.267C344.115 408.958 343.956 408.693 343.752 408.474C343.541 408.262 343.289 408.099 342.996 407.985C342.711 407.871 342.393 407.814 342.043 407.814C341.588 407.814 341.185 407.88 340.835 408.01C340.493 408.132 340.208 408.315 339.98 408.559C339.744 408.811 339.565 409.125 339.443 409.499C339.321 409.873 339.26 410.301 339.26 410.781H335.854C335.854 409.991 336.005 409.247 336.306 408.547C336.607 407.839 337.035 407.22 337.588 406.691C338.133 406.162 338.792 405.747 339.565 405.446C340.347 405.137 341.209 404.982 342.153 404.982C343.057 404.982 343.854 405.109 344.546 405.361C345.246 405.613 345.832 405.967 346.304 406.423C346.768 406.879 347.122 407.428 347.366 408.071C347.61 408.706 347.732 409.41 347.732 410.183C347.732 410.769 347.638 411.33 347.451 411.867C347.272 412.396 347.016 412.921 346.682 413.442C346.34 413.963 345.933 414.496 345.461 415.041C344.989 415.578 344.465 416.144 343.887 416.738L340.542 420.278H348.342V423Z" fill="white"/>
<rect x="280.75" y="505" width="121.5" height="135" rx="10" fill="#0066FF"/>
<path d="M336.892 573.248L337.905 564.227H347.769V567.107H340.701L340.273 571.014C340.526 570.867 340.884 570.717 341.348 570.562C341.812 570.407 342.345 570.33 342.947 570.33C343.801 570.33 344.562 570.468 345.229 570.745C345.905 571.014 346.475 571.404 346.938 571.917C347.394 572.43 347.744 573.056 347.988 573.797C348.232 574.537 348.354 575.376 348.354 576.312C348.354 577.109 348.236 577.866 348 578.582C347.764 579.298 347.402 579.929 346.914 580.474C346.426 581.019 345.811 581.451 345.071 581.768C344.33 582.085 343.455 582.244 342.446 582.244C341.681 582.244 340.941 582.13 340.225 581.902C339.517 581.674 338.886 581.341 338.333 580.901C337.779 580.462 337.327 579.925 336.978 579.29C336.636 578.647 336.453 577.915 336.428 577.093H339.773C339.854 577.866 340.131 578.464 340.603 578.887C341.083 579.31 341.694 579.522 342.434 579.522C342.89 579.522 343.276 579.437 343.594 579.266C343.919 579.095 344.184 578.859 344.387 578.558C344.583 578.257 344.725 577.898 344.814 577.483C344.912 577.068 344.961 576.621 344.961 576.141C344.961 575.669 344.9 575.237 344.778 574.847C344.664 574.448 344.485 574.106 344.241 573.821C343.997 573.536 343.691 573.317 343.325 573.162C342.959 573.007 342.528 572.93 342.031 572.93C341.698 572.93 341.409 572.959 341.165 573.016C340.92 573.073 340.705 573.146 340.518 573.235C340.33 573.325 340.164 573.431 340.017 573.553C339.871 573.667 339.732 573.789 339.602 573.919L336.892 573.248Z" fill="white"/>
<rect x="422.5" y="346" width="121.5" height="135" rx="10" fill="#0066FF"/>
<path d="M481.139 413.624H482.982C483.471 413.624 483.89 413.559 484.24 413.429C484.598 413.29 484.887 413.099 485.106 412.855C485.31 412.643 485.46 412.387 485.558 412.086C485.664 411.777 485.717 411.443 485.717 411.085C485.717 410.735 485.664 410.418 485.558 410.133C485.46 409.84 485.31 409.588 485.106 409.376C484.903 409.173 484.643 409.014 484.325 408.9C484.016 408.786 483.654 408.729 483.239 408.729C482.897 408.729 482.576 408.778 482.274 408.875C481.981 408.973 481.725 409.111 481.505 409.291C481.278 409.478 481.098 409.701 480.968 409.962C480.838 410.222 480.773 410.515 480.773 410.841H477.379C477.379 410.117 477.526 409.457 477.819 408.863C478.12 408.269 478.531 407.757 479.052 407.325C479.573 406.902 480.183 406.572 480.883 406.336C481.591 406.1 482.352 405.982 483.166 405.982C484.044 405.982 484.85 406.092 485.583 406.312C486.315 406.524 486.942 406.841 487.462 407.264C487.983 407.695 488.386 408.229 488.671 408.863C488.964 409.49 489.11 410.218 489.11 411.048C489.11 411.431 489.053 411.809 488.939 412.184C488.826 412.55 488.659 412.9 488.439 413.233C488.219 413.567 487.947 413.876 487.621 414.161C487.296 414.438 486.921 414.678 486.498 414.881C486.994 415.06 487.422 415.288 487.78 415.565C488.146 415.842 488.447 416.155 488.683 416.505C488.919 416.863 489.094 417.254 489.208 417.677C489.322 418.1 489.379 418.548 489.379 419.02C489.379 419.85 489.22 420.59 488.903 421.241C488.585 421.892 488.15 422.438 487.597 422.877C487.043 423.325 486.384 423.666 485.619 423.902C484.862 424.13 484.044 424.244 483.166 424.244C482.409 424.244 481.668 424.142 480.944 423.939C480.228 423.727 479.589 423.41 479.027 422.987C478.466 422.572 478.014 422.047 477.672 421.412C477.339 420.777 477.172 420.029 477.172 419.166H480.565C480.565 419.508 480.631 419.825 480.761 420.118C480.891 420.403 481.078 420.647 481.322 420.851C481.558 421.062 481.839 421.229 482.165 421.351C482.49 421.465 482.848 421.522 483.239 421.522C483.678 421.522 484.073 421.461 484.423 421.339C484.773 421.217 485.066 421.038 485.302 420.802C485.53 420.59 485.701 420.33 485.814 420.021C485.937 419.711 485.998 419.365 485.998 418.983C485.998 418.503 485.928 418.092 485.79 417.75C485.652 417.408 485.452 417.127 485.192 416.908C484.923 416.688 484.602 416.525 484.228 416.419C483.861 416.314 483.446 416.261 482.982 416.261H481.139V413.624Z" fill="white"/>
<path d="M790.493 311V299.538H786.855V297.792H790.493V296.864C790.493 296.018 790.615 295.277 790.859 294.643C791.112 294 791.466 293.463 791.921 293.031C792.369 292.6 792.91 292.274 793.545 292.055C794.18 291.835 794.888 291.725 795.669 291.725C795.994 291.725 796.316 291.745 796.633 291.786C796.951 291.819 797.264 291.863 797.573 291.92C797.777 291.961 797.98 292.006 798.184 292.055C798.387 292.095 798.595 292.144 798.806 292.201L798.538 294.069C798.204 293.955 797.813 293.857 797.366 293.776C796.926 293.686 796.454 293.642 795.95 293.642C795.437 293.642 794.981 293.707 794.583 293.837C794.192 293.959 793.866 294.146 793.606 294.398C793.329 294.659 793.118 294.997 792.971 295.412C792.833 295.827 792.764 296.311 792.764 296.864V297.792H797.854V299.538H792.764V311H790.493ZM801.993 292.25H808.743V309.047H813.052V311H801.993V309.047H806.485V294.215H801.993V292.25ZM821.988 311.244C821.061 311.244 820.206 311.085 819.425 310.768C818.652 310.451 817.988 310.007 817.435 309.438C816.882 308.868 816.45 308.192 816.141 307.411C815.832 306.63 815.677 305.779 815.677 304.86V304.347C815.677 303.281 815.848 302.329 816.19 301.491C816.532 300.644 816.987 299.928 817.557 299.342C818.119 298.764 818.757 298.321 819.474 298.012C820.198 297.702 820.938 297.548 821.695 297.548C822.647 297.548 823.478 297.715 824.186 298.048C824.902 298.374 825.496 298.826 825.968 299.403C826.44 299.989 826.79 300.677 827.018 301.466C827.254 302.256 827.372 303.11 827.372 304.03V305.043H817.936V305.128C817.993 305.771 818.119 306.337 818.314 306.825C818.517 307.313 818.794 307.745 819.144 308.119C819.502 308.518 819.933 308.831 820.438 309.059C820.943 309.287 821.5 309.401 822.11 309.401C822.916 309.401 823.632 309.238 824.259 308.913C824.885 308.587 825.406 308.156 825.821 307.619L827.201 308.693C826.761 309.36 826.102 309.954 825.223 310.475C824.352 310.988 823.274 311.244 821.988 311.244ZM821.695 299.403C821.24 299.403 820.808 299.489 820.401 299.66C819.994 299.822 819.628 300.062 819.303 300.38C818.977 300.705 818.701 301.104 818.473 301.576C818.253 302.04 818.098 302.577 818.009 303.188H825.113V303.078C825.113 302.671 825.036 302.235 824.881 301.771C824.727 301.299 824.511 300.893 824.234 300.551C823.958 300.209 823.608 299.932 823.185 299.721C822.77 299.509 822.273 299.403 821.695 299.403ZM836.125 302.687L839.652 297.792H842.301L837.382 304.323L842.436 311H839.823L836.173 305.971L832.523 311H829.887L834.94 304.323L830.021 297.792H832.633L836.125 302.687ZM855.058 304.152H845.72V302.296H855.058V304.152ZM860.967 311L858.159 297.792H860.161L861.699 306.215L861.968 308.107L862.297 306.215L864.409 297.792H865.862L867.961 306.215L868.315 308.29L868.645 306.215L870.11 297.792H872.112L869.304 311H867.522L865.459 302.907L865.117 300.856L864.788 302.907L862.749 311H860.967ZM882.867 297.548C883.282 297.548 883.713 297.576 884.161 297.633C884.616 297.69 884.958 297.768 885.186 297.865L884.881 300.075C884.441 299.977 884.022 299.908 883.624 299.867C883.233 299.818 882.822 299.794 882.391 299.794C881.837 299.794 881.337 299.863 880.889 300.001C880.442 300.132 880.051 300.327 879.717 300.587C879.416 300.815 879.152 301.096 878.924 301.43C878.704 301.755 878.521 302.121 878.375 302.528V311H876.104V297.792H878.252L878.35 299.562L878.362 299.892C878.899 299.167 879.542 298.598 880.291 298.183C881.048 297.759 881.906 297.548 882.867 297.548ZM897.406 311C897.316 310.829 897.243 310.618 897.186 310.365C897.137 310.105 897.101 309.836 897.076 309.56C896.848 309.787 896.592 310.003 896.307 310.207C896.03 310.41 895.725 310.589 895.392 310.744C895.05 310.898 894.688 311.02 894.305 311.11C893.923 311.199 893.516 311.244 893.084 311.244C892.385 311.244 891.75 311.142 891.18 310.939C890.619 310.736 890.143 310.459 889.752 310.109C889.353 309.767 889.044 309.36 888.824 308.888C888.613 308.408 888.507 307.891 888.507 307.338C888.507 306.614 888.649 305.979 888.934 305.434C889.227 304.888 889.638 304.433 890.167 304.066C890.696 303.708 891.331 303.44 892.071 303.261C892.82 303.082 893.654 302.992 894.574 302.992H897.04V301.955C897.04 301.556 896.966 301.198 896.82 300.88C896.673 300.563 896.466 300.29 896.197 300.062C895.929 299.843 895.599 299.672 895.208 299.55C894.826 299.428 894.395 299.367 893.915 299.367C893.467 299.367 893.064 299.424 892.706 299.538C892.356 299.652 892.059 299.802 891.815 299.989C891.571 300.176 891.38 300.4 891.241 300.661C891.111 300.913 891.046 301.177 891.046 301.454H888.775C888.784 300.974 888.906 300.502 889.142 300.038C889.386 299.574 889.736 299.155 890.191 298.781C890.639 298.415 891.184 298.118 891.827 297.89C892.478 297.662 893.215 297.548 894.037 297.548C894.785 297.548 895.481 297.641 896.124 297.829C896.767 298.008 897.324 298.28 897.796 298.646C898.26 299.021 898.626 299.485 898.895 300.038C899.164 300.591 899.298 301.238 899.298 301.979V308.119C899.298 308.559 899.339 309.027 899.42 309.523C899.501 310.011 899.615 310.438 899.762 310.805V311H897.406ZM893.414 309.279C893.854 309.279 894.264 309.222 894.647 309.108C895.029 308.994 895.379 308.843 895.697 308.656C896.006 308.469 896.275 308.257 896.502 308.021C896.73 307.777 896.909 307.525 897.04 307.265V304.591H894.94C894.159 304.591 893.475 304.66 892.889 304.799C892.311 304.929 891.852 305.132 891.51 305.409C891.266 305.604 891.078 305.836 890.948 306.105C890.826 306.374 890.765 306.679 890.765 307.021C890.765 307.346 890.818 307.647 890.924 307.924C891.038 308.201 891.205 308.437 891.424 308.632C891.644 308.835 891.921 308.994 892.254 309.108C892.588 309.222 892.975 309.279 893.414 309.279ZM903.229 316.078V297.792H905.292L905.402 299.232C905.581 299.005 905.776 298.801 905.988 298.622C906.199 298.435 906.427 298.276 906.671 298.146C907.013 297.951 907.392 297.804 907.807 297.707C908.23 297.601 908.681 297.548 909.162 297.548C910.008 297.548 910.757 297.715 911.408 298.048C912.059 298.382 912.604 298.846 913.043 299.44C913.483 300.034 913.817 300.746 914.044 301.576C914.272 302.398 914.386 303.301 914.386 304.286V304.542C914.386 305.486 914.272 306.369 914.044 307.191C913.817 308.005 913.483 308.713 913.043 309.315C912.604 309.918 912.059 310.39 911.408 310.731C910.765 311.073 910.028 311.244 909.198 311.244C908.694 311.244 908.222 311.191 907.782 311.085C907.351 310.98 906.96 310.829 906.61 310.634C906.399 310.512 906.199 310.377 906.012 310.231C905.825 310.076 905.65 309.91 905.487 309.73V316.078H903.229ZM912.128 304.286C912.128 303.643 912.055 303.033 911.908 302.455C911.77 301.869 911.554 301.352 911.261 300.905C910.96 300.465 910.582 300.115 910.126 299.855C909.67 299.595 909.125 299.464 908.49 299.464C908.14 299.464 907.815 299.505 907.514 299.586C907.221 299.668 906.956 299.786 906.72 299.94C906.46 300.095 906.228 300.286 906.024 300.514C905.821 300.742 905.642 300.994 905.487 301.271V307.631C905.626 307.875 905.784 308.103 905.963 308.314C906.142 308.526 906.346 308.705 906.574 308.852C906.834 309.022 907.123 309.157 907.44 309.254C907.766 309.352 908.124 309.401 908.515 309.401C909.141 309.401 909.682 309.271 910.138 309.01C910.594 308.742 910.968 308.384 911.261 307.936C911.554 307.488 911.77 306.972 911.908 306.386C912.055 305.8 912.128 305.185 912.128 304.542V304.286ZM922.297 309.535C922.297 309.055 922.443 308.644 922.736 308.302C923.029 307.96 923.473 307.79 924.067 307.79C924.653 307.79 925.096 307.96 925.397 308.302C925.707 308.636 925.861 309.047 925.861 309.535C925.861 310.015 925.707 310.418 925.397 310.744C925.088 311.069 924.645 311.232 924.067 311.232C923.481 311.232 923.037 311.069 922.736 310.744C922.443 310.41 922.297 310.007 922.297 309.535ZM922.297 298.842C922.297 298.362 922.443 297.951 922.736 297.609C923.029 297.267 923.473 297.096 924.067 297.096C924.653 297.096 925.096 297.267 925.397 297.609C925.707 297.943 925.861 298.354 925.861 298.842C925.861 299.322 925.707 299.725 925.397 300.05C925.088 300.376 924.645 300.539 924.067 300.539C923.481 300.539 923.037 300.376 922.736 300.05C922.443 299.717 922.297 299.314 922.297 298.842ZM948.055 311L945.247 297.792H947.249L948.787 306.215L949.056 308.107L949.385 306.215L951.497 297.792H952.95L955.049 306.215L955.403 308.29L955.733 306.215L957.198 297.792H959.2L956.392 311H954.61L952.547 302.907L952.205 300.856L951.875 302.907L949.837 311H948.055ZM969.955 297.548C970.37 297.548 970.801 297.576 971.249 297.633C971.704 297.69 972.046 297.768 972.274 297.865L971.969 300.075C971.529 299.977 971.11 299.908 970.711 299.867C970.321 299.818 969.91 299.794 969.479 299.794C968.925 299.794 968.425 299.863 967.977 300.001C967.529 300.132 967.139 300.327 966.805 300.587C966.504 300.815 966.24 301.096 966.012 301.43C965.792 301.755 965.609 302.121 965.462 302.528V311H963.192V297.792H965.34L965.438 299.562L965.45 299.892C965.987 299.167 966.63 298.598 967.379 298.183C968.136 297.759 968.994 297.548 969.955 297.548ZM984.494 311C984.404 310.829 984.331 310.618 984.274 310.365C984.225 310.105 984.188 309.836 984.164 309.56C983.936 309.787 983.68 310.003 983.395 310.207C983.118 310.41 982.813 310.589 982.479 310.744C982.138 310.898 981.776 311.02 981.393 311.11C981.011 311.199 980.604 311.244 980.172 311.244C979.472 311.244 978.838 311.142 978.268 310.939C977.707 310.736 977.23 310.459 976.84 310.109C976.441 309.767 976.132 309.36 975.912 308.888C975.701 308.408 975.595 307.891 975.595 307.338C975.595 306.614 975.737 305.979 976.022 305.434C976.315 304.888 976.726 304.433 977.255 304.066C977.784 303.708 978.419 303.44 979.159 303.261C979.908 303.082 980.742 302.992 981.662 302.992H984.127V301.955C984.127 301.556 984.054 301.198 983.908 300.88C983.761 300.563 983.554 300.29 983.285 300.062C983.017 299.843 982.687 299.672 982.296 299.55C981.914 299.428 981.483 299.367 981.002 299.367C980.555 299.367 980.152 299.424 979.794 299.538C979.444 299.652 979.147 299.802 978.903 299.989C978.659 300.176 978.467 300.4 978.329 300.661C978.199 300.913 978.134 301.177 978.134 301.454H975.863C975.871 300.974 975.993 300.502 976.229 300.038C976.474 299.574 976.824 299.155 977.279 298.781C977.727 298.415 978.272 298.118 978.915 297.89C979.566 297.662 980.303 297.548 981.125 297.548C981.873 297.548 982.569 297.641 983.212 297.829C983.855 298.008 984.412 298.28 984.884 298.646C985.348 299.021 985.714 299.485 985.983 300.038C986.251 300.591 986.386 301.238 986.386 301.979V308.119C986.386 308.559 986.426 309.027 986.508 309.523C986.589 310.011 986.703 310.438 986.85 310.805V311H984.494ZM980.502 309.279C980.941 309.279 981.352 309.222 981.735 309.108C982.117 308.994 982.467 308.843 982.785 308.656C983.094 308.469 983.362 308.257 983.59 308.021C983.818 307.777 983.997 307.525 984.127 307.265V304.591H982.028C981.247 304.591 980.563 304.66 979.977 304.799C979.399 304.929 978.939 305.132 978.598 305.409C978.354 305.604 978.166 305.836 978.036 306.105C977.914 306.374 977.853 306.679 977.853 307.021C977.853 307.346 977.906 307.647 978.012 307.924C978.126 308.201 978.292 308.437 978.512 308.632C978.732 308.835 979.009 308.994 979.342 309.108C979.676 309.222 980.062 309.279 980.502 309.279ZM990.317 316.078V297.792H992.38L992.49 299.232C992.669 299.005 992.864 298.801 993.076 298.622C993.287 298.435 993.515 298.276 993.759 298.146C994.101 297.951 994.479 297.804 994.895 297.707C995.318 297.601 995.769 297.548 996.25 297.548C997.096 297.548 997.845 297.715 998.496 298.048C999.147 298.382 999.692 298.846 1000.13 299.44C1000.57 300.034 1000.9 300.746 1001.13 301.576C1001.36 302.398 1001.47 303.301 1001.47 304.286V304.542C1001.47 305.486 1001.36 306.369 1001.13 307.191C1000.9 308.005 1000.57 308.713 1000.13 309.315C999.692 309.918 999.147 310.39 998.496 310.731C997.853 311.073 997.116 311.244 996.286 311.244C995.782 311.244 995.31 311.191 994.87 311.085C994.439 310.98 994.048 310.829 993.698 310.634C993.487 310.512 993.287 310.377 993.1 310.231C992.913 310.076 992.738 309.91 992.575 309.73V316.078H990.317ZM999.216 304.286C999.216 303.643 999.143 303.033 998.996 302.455C998.858 301.869 998.642 301.352 998.349 300.905C998.048 300.465 997.67 300.115 997.214 299.855C996.758 299.595 996.213 299.464 995.578 299.464C995.228 299.464 994.903 299.505 994.602 299.586C994.309 299.668 994.044 299.786 993.808 299.94C993.548 300.095 993.316 300.286 993.112 300.514C992.909 300.742 992.73 300.994 992.575 301.271V307.631C992.714 307.875 992.872 308.103 993.051 308.314C993.23 308.526 993.434 308.705 993.662 308.852C993.922 309.022 994.211 309.157 994.528 309.254C994.854 309.352 995.212 309.401 995.603 309.401C996.229 309.401 996.77 309.271 997.226 309.01C997.682 308.742 998.056 308.384 998.349 307.936C998.642 307.488 998.858 306.972 998.996 306.386C999.143 305.8 999.216 305.185 999.216 304.542V304.286ZM1014.72 304.152H1005.38V302.296H1014.72V304.152ZM1028.01 297.548C1028.43 297.548 1028.86 297.576 1029.31 297.633C1029.76 297.69 1030.1 297.768 1030.33 297.865L1030.03 300.075C1029.59 299.977 1029.17 299.908 1028.77 299.867C1028.38 299.818 1027.97 299.794 1027.54 299.794C1026.98 299.794 1026.48 299.863 1026.04 300.001C1025.59 300.132 1025.2 300.327 1024.86 300.587C1024.56 300.815 1024.3 301.096 1024.07 301.43C1023.85 301.755 1023.67 302.121 1023.52 302.528V311H1021.25V297.792H1023.4L1023.5 299.562L1023.51 299.892C1024.05 299.167 1024.69 298.598 1025.44 298.183C1026.19 297.759 1027.05 297.548 1028.01 297.548ZM1039.71 311.244C1038.78 311.244 1037.93 311.085 1037.14 310.768C1036.37 310.451 1035.71 310.007 1035.15 309.438C1034.6 308.868 1034.17 308.192 1033.86 307.411C1033.55 306.63 1033.4 305.779 1033.4 304.86V304.347C1033.4 303.281 1033.57 302.329 1033.91 301.491C1034.25 300.644 1034.71 299.928 1035.28 299.342C1035.84 298.764 1036.48 298.321 1037.19 298.012C1037.92 297.702 1038.66 297.548 1039.42 297.548C1040.37 297.548 1041.2 297.715 1041.91 298.048C1042.62 298.374 1043.22 298.826 1043.69 299.403C1044.16 299.989 1044.51 300.677 1044.74 301.466C1044.97 302.256 1045.09 303.11 1045.09 304.03V305.043H1035.66V305.128C1035.71 305.771 1035.84 306.337 1036.03 306.825C1036.24 307.313 1036.51 307.745 1036.86 308.119C1037.22 308.518 1037.65 308.831 1038.16 309.059C1038.66 309.287 1039.22 309.401 1039.83 309.401C1040.64 309.401 1041.35 309.238 1041.98 308.913C1042.61 308.587 1043.13 308.156 1043.54 307.619L1044.92 308.693C1044.48 309.36 1043.82 309.954 1042.94 310.475C1042.07 310.988 1040.99 311.244 1039.71 311.244ZM1039.42 299.403C1038.96 299.403 1038.53 299.489 1038.12 299.66C1037.71 299.822 1037.35 300.062 1037.02 300.38C1036.7 300.705 1036.42 301.104 1036.19 301.576C1035.97 302.04 1035.82 302.577 1035.73 303.188H1042.83V303.078C1042.83 302.671 1042.76 302.235 1042.6 301.771C1042.45 301.299 1042.23 300.893 1041.95 300.551C1041.68 300.209 1041.33 299.932 1040.9 299.721C1040.49 299.509 1039.99 299.403 1039.42 299.403ZM1052.89 311L1047.46 297.792H1049.78L1053.56 307.753L1053.77 308.571L1053.99 307.753L1057.69 297.792H1060L1054.61 311H1052.89ZM1068.74 311.244C1067.81 311.244 1066.96 311.085 1066.17 310.768C1065.4 310.451 1064.74 310.007 1064.18 309.438C1063.63 308.868 1063.2 308.192 1062.89 307.411C1062.58 306.63 1062.43 305.779 1062.43 304.86V304.347C1062.43 303.281 1062.6 302.329 1062.94 301.491C1063.28 300.644 1063.74 299.928 1064.31 299.342C1064.87 298.764 1065.51 298.321 1066.22 298.012C1066.95 297.702 1067.69 297.548 1068.44 297.548C1069.4 297.548 1070.23 297.715 1070.93 298.048C1071.65 298.374 1072.24 298.826 1072.72 299.403C1073.19 299.989 1073.54 300.677 1073.77 301.466C1074 302.256 1074.12 303.11 1074.12 304.03V305.043H1064.68V305.128C1064.74 305.771 1064.87 306.337 1065.06 306.825C1065.27 307.313 1065.54 307.745 1065.89 308.119C1066.25 308.518 1066.68 308.831 1067.19 309.059C1067.69 309.287 1068.25 309.401 1068.86 309.401C1069.67 309.401 1070.38 309.238 1071.01 308.913C1071.63 308.587 1072.16 308.156 1072.57 307.619L1073.95 308.693C1073.51 309.36 1072.85 309.954 1071.97 310.475C1071.1 310.988 1070.02 311.244 1068.74 311.244ZM1068.44 299.403C1067.99 299.403 1067.56 299.489 1067.15 299.66C1066.74 299.822 1066.38 300.062 1066.05 300.38C1065.73 300.705 1065.45 301.104 1065.22 301.576C1065 302.04 1064.85 302.577 1064.76 303.188H1071.86V303.078C1071.86 302.671 1071.78 302.235 1071.63 301.771C1071.48 301.299 1071.26 300.893 1070.98 300.551C1070.71 300.209 1070.36 299.932 1069.93 299.721C1069.52 299.509 1069.02 299.403 1068.44 299.403ZM1086.07 297.548C1086.49 297.548 1086.92 297.576 1087.37 297.633C1087.82 297.69 1088.16 297.768 1088.39 297.865L1088.09 300.075C1087.65 299.977 1087.23 299.908 1086.83 299.867C1086.44 299.818 1086.03 299.794 1085.6 299.794C1085.04 299.794 1084.54 299.863 1084.09 300.001C1083.65 300.132 1083.26 300.327 1082.92 300.587C1082.62 300.815 1082.36 301.096 1082.13 301.43C1081.91 301.755 1081.73 302.121 1081.58 302.528V311H1079.31V297.792H1081.46L1081.56 299.562L1081.57 299.892C1082.1 299.167 1082.75 298.598 1083.5 298.183C1084.25 297.759 1085.11 297.548 1086.07 297.548ZM1100.71 307.497C1100.71 307.228 1100.66 306.988 1100.55 306.776C1100.44 306.557 1100.26 306.357 1100.01 306.178C1099.76 305.999 1099.43 305.836 1099.01 305.69C1098.6 305.535 1098.08 305.397 1097.46 305.275C1096.7 305.12 1096.01 304.933 1095.39 304.713C1094.77 304.494 1094.24 304.229 1093.8 303.92C1093.35 303.619 1093.01 303.265 1092.76 302.858C1092.52 302.443 1092.4 301.963 1092.4 301.417C1092.4 300.88 1092.52 300.38 1092.77 299.916C1093.03 299.444 1093.38 299.033 1093.84 298.683C1094.29 298.333 1094.83 298.056 1095.46 297.853C1096.09 297.65 1096.79 297.548 1097.55 297.548C1098.36 297.548 1099.09 297.654 1099.74 297.865C1100.4 298.077 1100.95 298.37 1101.4 298.744C1101.86 299.118 1102.21 299.558 1102.45 300.062C1102.71 300.559 1102.83 301.096 1102.83 301.674H1100.57C1100.57 301.389 1100.5 301.112 1100.35 300.844C1100.21 300.567 1100 300.323 1099.74 300.111C1099.48 299.9 1099.17 299.729 1098.79 299.599C1098.43 299.468 1098.01 299.403 1097.55 299.403C1097.07 299.403 1096.64 299.456 1096.28 299.562C1095.92 299.668 1095.62 299.81 1095.39 299.989C1095.14 300.168 1094.96 300.376 1094.84 300.612C1094.71 300.848 1094.65 301.092 1094.65 301.344C1094.65 301.605 1094.7 301.837 1094.8 302.04C1094.9 302.243 1095.07 302.427 1095.31 302.589C1095.55 302.752 1095.87 302.899 1096.27 303.029C1096.67 303.159 1097.18 303.285 1097.8 303.407C1098.62 303.578 1099.35 303.778 1099.99 304.005C1100.63 304.225 1101.17 304.49 1101.61 304.799C1102.05 305.116 1102.38 305.482 1102.61 305.897C1102.85 306.312 1102.97 306.793 1102.97 307.338C1102.97 307.924 1102.83 308.457 1102.56 308.937C1102.3 309.417 1101.94 309.828 1101.47 310.17C1100.99 310.512 1100.43 310.776 1099.77 310.963C1099.11 311.151 1098.39 311.244 1097.61 311.244C1096.71 311.244 1095.92 311.126 1095.22 310.89C1094.52 310.646 1093.93 310.325 1093.45 309.926C1092.96 309.535 1092.58 309.079 1092.32 308.559C1092.07 308.038 1091.94 307.497 1091.94 306.935H1094.2C1094.23 307.399 1094.36 307.79 1094.57 308.107C1094.79 308.424 1095.06 308.681 1095.39 308.876C1095.7 309.071 1096.06 309.21 1096.45 309.291C1096.84 309.372 1097.23 309.413 1097.61 309.413C1098.21 309.413 1098.74 309.344 1099.18 309.206C1099.63 309.059 1099.98 308.86 1100.23 308.607C1100.39 308.453 1100.51 308.282 1100.59 308.095C1100.67 307.908 1100.71 307.708 1100.71 307.497ZM1112.28 311.244C1111.35 311.244 1110.5 311.085 1109.72 310.768C1108.94 310.451 1108.28 310.007 1107.73 309.438C1107.17 308.868 1106.74 308.192 1106.43 307.411C1106.12 306.63 1105.97 305.779 1105.97 304.86V304.347C1105.97 303.281 1106.14 302.329 1106.48 301.491C1106.82 300.644 1107.28 299.928 1107.85 299.342C1108.41 298.764 1109.05 298.321 1109.77 298.012C1110.49 297.702 1111.23 297.548 1111.99 297.548C1112.94 297.548 1113.77 297.715 1114.48 298.048C1115.19 298.374 1115.79 298.826 1116.26 299.403C1116.73 299.989 1117.08 300.677 1117.31 301.466C1117.55 302.256 1117.66 303.11 1117.66 304.03V305.043H1108.23V305.128C1108.29 305.771 1108.41 306.337 1108.61 306.825C1108.81 307.313 1109.09 307.745 1109.44 308.119C1109.8 308.518 1110.23 308.831 1110.73 309.059C1111.24 309.287 1111.79 309.401 1112.4 309.401C1113.21 309.401 1113.93 309.238 1114.55 308.913C1115.18 308.587 1115.7 308.156 1116.11 307.619L1117.49 308.693C1117.05 309.36 1116.4 309.954 1115.52 310.475C1114.65 310.988 1113.57 311.244 1112.28 311.244ZM1111.99 299.403C1111.53 299.403 1111.1 299.489 1110.69 299.66C1110.29 299.822 1109.92 300.062 1109.6 300.38C1109.27 300.705 1108.99 301.104 1108.77 301.576C1108.55 302.04 1108.39 302.577 1108.3 303.188H1115.41V303.078C1115.41 302.671 1115.33 302.235 1115.17 301.771C1115.02 301.299 1114.8 300.893 1114.53 300.551C1114.25 300.209 1113.9 299.932 1113.48 299.721C1113.06 299.509 1112.57 299.403 1111.99 299.403Z" fill="white"/>
<rect x="782.5" y="329.5" width="511" height="334" rx="18.5" stroke="white" stroke-width="3"/>
<rect x="799" y="345" width="121.5" height="135" rx="10" fill="#0066FF"/>
<path d="M865.633 415.396H867.696V418.143H865.633V422H862.24V418.143H854.854L854.72 416.019L862.191 404.227H865.633V415.396ZM858.053 415.396H862.24V408.792L861.91 409.378L858.053 415.396Z" fill="white"/>
<rect x="799" y="505" width="121.5" height="135" rx="10" fill="#0066FF"/>
<path d="M864.034 582H860.604V568.365L856.112 569.976V567.022L863.851 564.227H864.034V582Z" fill="white"/>
<rect x="940.75" y="346" width="121.5" height="135" rx="10" fill="#0066FF"/>
<path d="M996.892 414.248L997.905 405.227H1007.77V408.107H1000.7L1000.27 412.014C1000.53 411.867 1000.88 411.717 1001.35 411.562C1001.81 411.407 1002.34 411.33 1002.95 411.33C1003.8 411.33 1004.56 411.468 1005.23 411.745C1005.9 412.014 1006.47 412.404 1006.94 412.917C1007.39 413.43 1007.74 414.056 1007.99 414.797C1008.23 415.537 1008.35 416.376 1008.35 417.312C1008.35 418.109 1008.24 418.866 1008 419.582C1007.76 420.298 1007.4 420.929 1006.91 421.474C1006.43 422.019 1005.81 422.451 1005.07 422.768C1004.33 423.085 1003.46 423.244 1002.45 423.244C1001.68 423.244 1000.94 423.13 1000.22 422.902C999.517 422.674 998.886 422.341 998.333 421.901C997.779 421.462 997.327 420.925 996.978 420.29C996.636 419.647 996.453 418.915 996.428 418.093H999.773C999.854 418.866 1000.13 419.464 1000.6 419.887C1001.08 420.31 1001.69 420.522 1002.43 420.522C1002.89 420.522 1003.28 420.437 1003.59 420.266C1003.92 420.095 1004.18 419.859 1004.39 419.558C1004.58 419.257 1004.72 418.898 1004.81 418.483C1004.91 418.068 1004.96 417.621 1004.96 417.141C1004.96 416.669 1004.9 416.237 1004.78 415.847C1004.66 415.448 1004.48 415.106 1004.24 414.821C1004 414.536 1003.69 414.317 1003.33 414.162C1002.96 414.007 1002.53 413.93 1002.03 413.93C1001.7 413.93 1001.41 413.959 1001.16 414.016C1000.92 414.073 1000.7 414.146 1000.52 414.235C1000.33 414.325 1000.16 414.431 1000.02 414.553C999.871 414.667 999.732 414.789 999.602 414.919L996.892 414.248Z" fill="white"/>
<rect x="940.75" y="505" width="121.5" height="135" rx="10" fill="#0066FF"/>
<path d="M1008.34 582H996.221V579.681L1001.97 573.504C1002.42 573.016 1002.8 572.572 1003.11 572.173C1003.41 571.775 1003.67 571.408 1003.86 571.075C1004.05 570.749 1004.18 570.444 1004.27 570.159C1004.35 569.874 1004.4 569.598 1004.4 569.329C1004.4 568.93 1004.34 568.576 1004.23 568.267C1004.11 567.958 1003.96 567.693 1003.75 567.474C1003.54 567.262 1003.29 567.099 1003 566.985C1002.71 566.871 1002.39 566.814 1002.04 566.814C1001.59 566.814 1001.18 566.88 1000.83 567.01C1000.49 567.132 1000.21 567.315 999.98 567.559C999.744 567.811 999.565 568.125 999.443 568.499C999.321 568.873 999.26 569.301 999.26 569.781H995.854C995.854 568.991 996.005 568.247 996.306 567.547C996.607 566.839 997.035 566.22 997.588 565.691C998.133 565.162 998.792 564.747 999.565 564.446C1000.35 564.137 1001.21 563.982 1002.15 563.982C1003.06 563.982 1003.85 564.109 1004.55 564.361C1005.25 564.613 1005.83 564.967 1006.3 565.423C1006.77 565.879 1007.12 566.428 1007.37 567.071C1007.61 567.706 1007.73 568.41 1007.73 569.183C1007.73 569.769 1007.64 570.33 1007.45 570.867C1007.27 571.396 1007.02 571.921 1006.68 572.442C1006.34 572.963 1005.93 573.496 1005.46 574.041C1004.99 574.578 1004.46 575.144 1003.89 575.738L1000.54 579.278H1008.34V582Z" fill="white"/>
<rect x="1083" y="504" width="121.5" height="135" rx="10" fill="#0066FF"/>
<path d="M1141.64 571.624H1143.48C1143.97 571.624 1144.39 571.559 1144.74 571.429C1145.1 571.29 1145.39 571.099 1145.61 570.855C1145.81 570.643 1145.96 570.387 1146.06 570.086C1146.16 569.777 1146.22 569.443 1146.22 569.085C1146.22 568.735 1146.16 568.418 1146.06 568.133C1145.96 567.84 1145.81 567.588 1145.61 567.376C1145.4 567.173 1145.14 567.014 1144.83 566.9C1144.52 566.786 1144.15 566.729 1143.74 566.729C1143.4 566.729 1143.08 566.778 1142.77 566.875C1142.48 566.973 1142.23 567.111 1142.01 567.291C1141.78 567.478 1141.6 567.701 1141.47 567.962C1141.34 568.222 1141.27 568.515 1141.27 568.841H1137.88C1137.88 568.117 1138.03 567.457 1138.32 566.863C1138.62 566.269 1139.03 565.757 1139.55 565.325C1140.07 564.902 1140.68 564.572 1141.38 564.336C1142.09 564.1 1142.85 563.982 1143.67 563.982C1144.54 563.982 1145.35 564.092 1146.08 564.312C1146.81 564.524 1147.44 564.841 1147.96 565.264C1148.48 565.695 1148.89 566.229 1149.17 566.863C1149.46 567.49 1149.61 568.218 1149.61 569.048C1149.61 569.431 1149.55 569.809 1149.44 570.184C1149.33 570.55 1149.16 570.9 1148.94 571.233C1148.72 571.567 1148.45 571.876 1148.12 572.161C1147.8 572.438 1147.42 572.678 1147 572.881C1147.49 573.06 1147.92 573.288 1148.28 573.565C1148.65 573.842 1148.95 574.155 1149.18 574.505C1149.42 574.863 1149.59 575.254 1149.71 575.677C1149.82 576.1 1149.88 576.548 1149.88 577.02C1149.88 577.85 1149.72 578.59 1149.4 579.241C1149.09 579.892 1148.65 580.438 1148.1 580.877C1147.54 581.325 1146.88 581.666 1146.12 581.902C1145.36 582.13 1144.54 582.244 1143.67 582.244C1142.91 582.244 1142.17 582.142 1141.44 581.939C1140.73 581.727 1140.09 581.41 1139.53 580.987C1138.97 580.572 1138.51 580.047 1138.17 579.412C1137.84 578.777 1137.67 578.029 1137.67 577.166H1141.07C1141.07 577.508 1141.13 577.825 1141.26 578.118C1141.39 578.403 1141.58 578.647 1141.82 578.851C1142.06 579.062 1142.34 579.229 1142.66 579.351C1142.99 579.465 1143.35 579.522 1143.74 579.522C1144.18 579.522 1144.57 579.461 1144.92 579.339C1145.27 579.217 1145.57 579.038 1145.8 578.802C1146.03 578.59 1146.2 578.33 1146.31 578.021C1146.44 577.711 1146.5 577.365 1146.5 576.983C1146.5 576.503 1146.43 576.092 1146.29 575.75C1146.15 575.408 1145.95 575.127 1145.69 574.908C1145.42 574.688 1145.1 574.525 1144.73 574.419C1144.36 574.314 1143.95 574.261 1143.48 574.261H1141.64V571.624Z" fill="white"/>
</svg>
