<svg width="1400" height="573" viewBox="0 0 1400 573" fill="none" xmlns="http://www.w3.org/2000/svg">
<rect width="1400" height="573" rx="20" fill="#0066FF" fill-opacity="0.2"/>
<rect x="1.5" y="1.5" width="1397" height="570" rx="18.5" stroke="#0066FF" stroke-opacity="0.5" stroke-width="3"/>
<rect x="135.5" y="94.5" width="1129" height="429" rx="17.5" stroke="white" stroke-width="5" stroke-dasharray="10 10"/>
<path d="M134.013 66.2739C134.013 65.4438 134.123 64.6626 134.343 63.9302C134.571 63.1978 134.9 62.5386 135.332 61.9526C135.755 61.383 136.276 60.9028 136.894 60.5122C137.513 60.1216 138.216 59.8449 139.006 59.6821V54.25H141.948V59.6821C142.745 59.8368 143.453 60.1094 144.072 60.5C144.698 60.8906 145.227 61.3748 145.659 61.9526C146.09 62.5304 146.416 63.1896 146.635 63.9302C146.863 64.6626 146.977 65.4438 146.977 66.2739V66.5303C146.977 67.3685 146.863 68.1538 146.635 68.8862C146.407 69.6187 146.082 70.2738 145.659 70.8516C145.227 71.4294 144.698 71.9136 144.072 72.3042C143.445 72.6948 142.737 72.9634 141.948 73.1099V78.0781H139.006V73.0977C138.216 72.943 137.513 72.6704 136.894 72.2798C136.276 71.8892 135.755 71.409 135.332 70.8394C134.9 70.2616 134.571 69.6105 134.343 68.8862C134.123 68.1538 134.013 67.3685 134.013 66.5303V66.2739ZM136.845 66.5303C136.845 66.986 136.886 67.4255 136.967 67.8486C137.049 68.2718 137.183 68.6624 137.37 69.0205C137.541 69.3786 137.761 69.696 138.029 69.9727C138.306 70.2412 138.632 70.4528 139.006 70.6074V62.2212C138.64 62.3758 138.318 62.5915 138.042 62.8682C137.773 63.1367 137.553 63.446 137.382 63.7959C137.195 64.154 137.057 64.5446 136.967 64.9678C136.886 65.3828 136.845 65.8182 136.845 66.2739V66.5303ZM144.145 66.2739C144.145 65.8182 144.1 65.3828 144.011 64.9678C143.929 64.5446 143.795 64.154 143.608 63.7959C143.421 63.4378 143.189 63.1245 142.912 62.856C142.635 62.5793 142.31 62.3636 141.936 62.209V70.6318C142.31 70.4772 142.635 70.2656 142.912 69.9971C143.189 69.7204 143.421 69.403 143.608 69.0449C143.795 68.6868 143.929 68.2962 144.011 67.873C144.1 67.4417 144.145 66.9941 144.145 66.5303V66.2739ZM160.625 59.792V73H157.695V62.1724H153.582L153.569 65.4316C153.569 65.8792 153.557 66.3146 153.533 66.7378C153.516 67.161 153.488 67.5597 153.447 67.9341C153.366 68.5688 153.248 69.1507 153.093 69.6797C152.947 70.2005 152.756 70.6603 152.52 71.0591C152.137 71.702 151.632 72.1862 151.006 72.5117C150.379 72.8372 149.602 73 148.674 73H148.052V70.5342L148.491 70.522C148.939 70.522 149.301 70.4243 149.578 70.229C149.862 70.0337 150.086 69.7285 150.249 69.3135C150.33 69.0856 150.4 68.8211 150.457 68.52C150.514 68.2189 150.554 67.8853 150.579 67.519C150.603 67.2179 150.619 66.8965 150.627 66.5547C150.636 66.2048 150.64 65.8304 150.64 65.4316L150.652 59.792H160.625ZM170.086 73.2441C169.109 73.2441 168.214 73.0814 167.4 72.7559C166.595 72.4303 165.903 71.9787 165.325 71.4009C164.747 70.8312 164.3 70.1598 163.982 69.3867C163.673 68.6055 163.519 67.7632 163.519 66.8599V66.3594C163.519 65.3258 163.681 64.39 164.007 63.5518C164.332 62.7135 164.78 61.9974 165.35 61.4033C165.919 60.8092 166.578 60.3535 167.327 60.0361C168.084 59.7106 168.89 59.5479 169.744 59.5479C170.696 59.5479 171.539 59.7106 172.271 60.0361C173.003 60.3535 173.618 60.797 174.114 61.3667C174.611 61.9445 174.985 62.6322 175.237 63.4297C175.49 64.2272 175.616 65.098 175.616 66.042V67.2993H166.46V67.3604C166.55 67.9382 166.688 68.4224 166.875 68.813C167.063 69.2036 167.319 69.5535 167.645 69.8628C167.97 70.1883 168.353 70.4406 168.792 70.6196C169.24 70.7987 169.728 70.8882 170.257 70.8882C170.981 70.8882 171.657 70.7498 172.283 70.4731C172.91 70.1883 173.427 69.7855 173.833 69.2646L175.396 70.7783C174.957 71.4131 174.281 71.9827 173.37 72.4873C172.466 72.9919 171.372 73.2441 170.086 73.2441ZM169.732 61.916C169.317 61.916 168.93 61.9933 168.572 62.1479C168.222 62.2944 167.909 62.506 167.632 62.7827C167.356 63.0675 167.124 63.4093 166.937 63.8081C166.749 64.2069 166.611 64.6585 166.521 65.1631H172.735V64.9678C172.735 64.5853 172.666 64.2069 172.527 63.8325C172.389 63.45 172.194 63.1164 171.941 62.8315C171.697 62.5549 171.388 62.3351 171.014 62.1724C170.647 62.0015 170.22 61.916 169.732 61.916ZM183.294 67.7632H181.244V73H178.326V59.792H181.244V65.0654H183.087L187.213 59.792H190.838L185.65 66.1519L191.253 73H187.445L183.294 67.7632ZM198.7 70.9004C199.066 70.9004 199.416 70.8475 199.75 70.7417C200.092 70.6278 200.393 70.4691 200.653 70.2656C200.906 70.0622 201.105 69.8221 201.251 69.5454C201.406 69.2687 201.483 68.9635 201.483 68.6299H204.23C204.238 69.2728 204.092 69.8791 203.791 70.4487C203.498 71.0103 203.099 71.4945 202.594 71.9014C202.082 72.3245 201.492 72.6582 200.824 72.9023C200.165 73.1383 199.469 73.2563 198.737 73.2563C197.72 73.2563 196.828 73.0814 196.063 72.7314C195.307 72.3734 194.676 71.8932 194.171 71.291C193.659 70.6888 193.272 69.9889 193.012 69.1914C192.751 68.3857 192.621 67.5272 192.621 66.6157V66.1885C192.621 65.2852 192.747 64.4307 193 63.625C193.26 62.8193 193.646 62.1154 194.159 61.5132C194.672 60.911 195.307 60.4349 196.063 60.085C196.828 59.7269 197.715 59.5479 198.725 59.5479C199.522 59.5479 200.259 59.6699 200.934 59.9141C201.618 60.1582 202.204 60.5 202.692 60.9395C203.18 61.3789 203.559 61.9038 203.827 62.5142C204.104 63.1245 204.238 63.7959 204.23 64.5283H201.483C201.483 64.1702 201.414 63.8325 201.276 63.5151C201.146 63.1978 200.958 62.9211 200.714 62.6851C200.462 62.4491 200.161 62.2619 199.811 62.1235C199.469 61.9852 199.099 61.916 198.7 61.916C198.09 61.916 197.581 62.0422 197.174 62.2944C196.776 62.5386 196.458 62.86 196.222 63.2588C195.97 63.6576 195.791 64.1133 195.685 64.626C195.587 65.1387 195.539 65.6595 195.539 66.1885V66.6157C195.539 67.1528 195.587 67.6818 195.685 68.2026C195.791 68.7153 195.966 69.167 196.21 69.5576C196.446 69.9645 196.767 70.29 197.174 70.5342C197.581 70.7783 198.09 70.9004 198.7 70.9004ZM218.513 66.3716H208.686V64.0034H218.513V66.3716ZM226.838 67.7632H224.788V73H221.87V59.792H224.788V65.0654H226.631L230.757 59.792H234.382L229.194 66.1519L234.797 73H230.989L226.838 67.7632ZM235.958 66.2739C235.958 65.3136 236.096 64.4266 236.373 63.6128C236.649 62.7909 237.052 62.0788 237.581 61.4766C238.102 60.8743 238.741 60.4023 239.498 60.0605C240.254 59.7188 241.117 59.5479 242.085 59.5479C243.054 59.5479 243.917 59.7188 244.673 60.0605C245.438 60.4023 246.085 60.8743 246.614 61.4766C247.135 62.0788 247.534 62.7909 247.811 63.6128C248.087 64.4266 248.226 65.3136 248.226 66.2739V66.5303C248.226 67.4987 248.087 68.3898 247.811 69.2036C247.534 70.0174 247.135 70.7254 246.614 71.3276C246.093 71.9299 245.451 72.4019 244.686 72.7437C243.929 73.0854 243.07 73.2563 242.11 73.2563C241.141 73.2563 240.275 73.0854 239.51 72.7437C238.745 72.4019 238.102 71.9299 237.581 71.3276C237.052 70.7254 236.649 70.0174 236.373 69.2036C236.096 68.3898 235.958 67.4987 235.958 66.5303V66.2739ZM238.875 66.5303C238.875 67.1243 238.936 67.6859 239.058 68.2148C239.188 68.7438 239.388 69.2077 239.656 69.6064C239.917 70.0052 240.25 70.3226 240.657 70.5586C241.064 70.7865 241.548 70.9004 242.11 70.9004C242.655 70.9004 243.131 70.7865 243.538 70.5586C243.945 70.3226 244.279 70.0052 244.539 69.6064C244.799 69.2077 244.991 68.7438 245.113 68.2148C245.243 67.6859 245.308 67.1243 245.308 66.5303V66.2739C245.308 65.6961 245.243 65.1427 245.113 64.6138C244.983 64.0848 244.791 63.6209 244.539 63.2222C244.271 62.8234 243.933 62.506 243.526 62.27C243.127 62.034 242.647 61.916 242.085 61.916C241.532 61.916 241.052 62.034 240.645 62.27C240.246 62.506 239.917 62.8234 239.656 63.2222C239.388 63.6209 239.188 64.0848 239.058 64.6138C238.936 65.1427 238.875 65.6961 238.875 66.2739V66.5303ZM262.24 73H259.31V67.6533H253.744V73H250.814V59.792H253.744V65.2974H259.31V59.792H262.24V73ZM278.024 62.1357H272.86V73H269.931V62.1357H264.828V59.792H278.024V62.1357ZM286.203 73.2441C285.227 73.2441 284.331 73.0814 283.518 72.7559C282.712 72.4303 282.02 71.9787 281.442 71.4009C280.865 70.8312 280.417 70.1598 280.1 69.3867C279.79 68.6055 279.636 67.7632 279.636 66.8599V66.3594C279.636 65.3258 279.799 64.39 280.124 63.5518C280.45 62.7135 280.897 61.9974 281.467 61.4033C282.036 60.8092 282.696 60.3535 283.444 60.0361C284.201 59.7106 285.007 59.5479 285.861 59.5479C286.813 59.5479 287.656 59.7106 288.388 60.0361C289.121 60.3535 289.735 60.797 290.231 61.3667C290.728 61.9445 291.102 62.6322 291.354 63.4297C291.607 64.2272 291.733 65.098 291.733 66.042V67.2993H282.578V67.3604C282.667 67.9382 282.806 68.4224 282.993 68.813C283.18 69.2036 283.436 69.5535 283.762 69.8628C284.087 70.1883 284.47 70.4406 284.909 70.6196C285.357 70.7987 285.845 70.8882 286.374 70.8882C287.098 70.8882 287.774 70.7498 288.4 70.4731C289.027 70.1883 289.544 69.7855 289.951 69.2646L291.513 70.7783C291.074 71.4131 290.398 71.9827 289.487 72.4873C288.583 72.9919 287.489 73.2441 286.203 73.2441ZM285.849 61.916C285.434 61.916 285.048 61.9933 284.689 62.1479C284.34 62.2944 284.026 62.506 283.75 62.7827C283.473 63.0675 283.241 63.4093 283.054 63.8081C282.867 64.2069 282.728 64.6585 282.639 65.1631H288.852V64.9678C288.852 64.5853 288.783 64.2069 288.645 63.8325C288.506 63.45 288.311 63.1164 288.059 62.8315C287.814 62.5549 287.505 62.3351 287.131 62.1724C286.765 62.0015 286.337 61.916 285.849 61.916ZM302.866 59.792H305.784V73H302.866V64.0278L297.275 73H294.358V59.792H297.275V68.7764L302.866 59.792ZM303.892 54.3843C303.892 54.8888 303.798 55.3568 303.611 55.7881C303.432 56.2113 303.175 56.5734 302.842 56.8745C302.492 57.1756 302.073 57.4116 301.584 57.5825C301.104 57.7453 300.563 57.8267 299.961 57.8267C299.351 57.8267 298.801 57.7453 298.313 57.5825C297.833 57.4116 297.422 57.1756 297.08 56.8745C296.738 56.5734 296.474 56.2113 296.287 55.7881C296.099 55.3649 296.006 54.897 296.006 54.3843H298.191C298.191 54.6121 298.223 54.8319 298.289 55.0435C298.362 55.2469 298.468 55.43 298.606 55.5928C298.744 55.7474 298.923 55.8735 299.143 55.9712C299.371 56.0607 299.644 56.1055 299.961 56.1055C300.27 56.1055 300.535 56.0607 300.754 55.9712C300.974 55.8735 301.157 55.7433 301.304 55.5806C301.442 55.4259 301.544 55.2469 301.609 55.0435C301.674 54.8319 301.707 54.6121 301.707 54.3843H303.892ZM320.298 73H317.369V67.6533H311.802V73H308.873V59.792H311.802V65.2974H317.369V59.792H320.298V73ZM329.747 73.2441C328.771 73.2441 327.875 73.0814 327.062 72.7559C326.256 72.4303 325.564 71.9787 324.986 71.4009C324.409 70.8312 323.961 70.1598 323.644 69.3867C323.334 68.6055 323.18 67.7632 323.18 66.8599V66.3594C323.18 65.3258 323.342 64.39 323.668 63.5518C323.993 62.7135 324.441 61.9974 325.011 61.4033C325.58 60.8092 326.24 60.3535 326.988 60.0361C327.745 59.7106 328.551 59.5479 329.405 59.5479C330.357 59.5479 331.2 59.7106 331.932 60.0361C332.665 60.3535 333.279 60.797 333.775 61.3667C334.272 61.9445 334.646 62.6322 334.898 63.4297C335.151 64.2272 335.277 65.098 335.277 66.042V67.2993H326.122V67.3604C326.211 67.9382 326.349 68.4224 326.537 68.813C326.724 69.2036 326.98 69.5535 327.306 69.8628C327.631 70.1883 328.014 70.4406 328.453 70.6196C328.901 70.7987 329.389 70.8882 329.918 70.8882C330.642 70.8882 331.318 70.7498 331.944 70.4731C332.571 70.1883 333.088 69.7855 333.495 69.2646L335.057 70.7783C334.618 71.4131 333.942 71.9827 333.031 72.4873C332.127 72.9919 331.033 73.2441 329.747 73.2441ZM329.393 61.916C328.978 61.916 328.591 61.9933 328.233 62.1479C327.883 62.2944 327.57 62.506 327.293 62.7827C327.017 63.0675 326.785 63.4093 326.598 63.8081C326.41 64.2069 326.272 64.6585 326.183 65.1631H332.396V64.9678C332.396 64.5853 332.327 64.2069 332.188 63.8325C332.05 63.45 331.855 63.1164 331.603 62.8315C331.358 62.5549 331.049 62.3351 330.675 62.1724C330.309 62.0015 329.881 61.916 329.393 61.916ZM338.122 78.0781V59.792H340.807L340.917 61.147C341.096 60.9272 341.291 60.7279 341.503 60.5488C341.715 60.3698 341.942 60.2152 342.187 60.085C342.504 59.9141 342.854 59.7839 343.236 59.6943C343.619 59.5967 344.026 59.5479 344.457 59.5479C345.303 59.5479 346.048 59.7106 346.691 60.0361C347.342 60.3617 347.887 60.8215 348.327 61.4155C348.758 62.0096 349.088 62.7217 349.315 63.5518C349.543 64.3737 349.657 65.2811 349.657 66.2739V66.5303C349.657 67.4824 349.543 68.3695 349.315 69.1914C349.096 70.0133 348.766 70.7214 348.327 71.3154C347.887 71.9176 347.346 72.3896 346.703 72.7314C346.06 73.0732 345.324 73.2441 344.494 73.2441C344.022 73.2441 343.586 73.1953 343.188 73.0977C342.797 73 342.435 72.8576 342.101 72.6704C341.906 72.5565 341.719 72.4263 341.54 72.2798C341.361 72.1333 341.194 71.9746 341.039 71.8037V78.0781H338.122ZM346.74 66.2739C346.74 65.6799 346.679 65.1224 346.557 64.6016C346.443 64.0726 346.264 63.6128 346.02 63.2222C345.767 62.8315 345.446 62.5223 345.055 62.2944C344.665 62.0666 344.197 61.9526 343.651 61.9526C343.35 61.9526 343.069 61.9852 342.809 62.0503C342.549 62.1154 342.317 62.209 342.113 62.3311C341.877 62.4613 341.67 62.624 341.491 62.8193C341.32 63.0146 341.169 63.2344 341.039 63.4785V69.3501C341.153 69.578 341.291 69.7855 341.454 69.9727C341.617 70.1598 341.804 70.3226 342.016 70.4609C342.235 70.5911 342.484 70.6969 342.76 70.7783C343.037 70.8516 343.342 70.8882 343.676 70.8882C344.221 70.8882 344.685 70.7743 345.067 70.5464C345.458 70.3104 345.775 69.993 346.02 69.5942C346.272 69.1873 346.455 68.7235 346.569 68.2026C346.683 67.6737 346.74 67.1162 346.74 66.5303V66.2739Z" fill="white"/>
<rect x="178" y="131" width="409" height="356" rx="10" fill="#0066FF"/>
<rect x="617" y="131" width="605" height="356" rx="10" fill="#0066FF"/>
<path d="M289.013 312.274C289.013 311.444 289.123 310.663 289.343 309.93C289.571 309.198 289.9 308.539 290.332 307.953C290.755 307.383 291.276 306.903 291.894 306.512C292.513 306.122 293.216 305.845 294.006 305.682V300.25H296.948V305.682C297.745 305.837 298.453 306.109 299.072 306.5C299.698 306.891 300.227 307.375 300.659 307.953C301.09 308.53 301.416 309.19 301.635 309.93C301.863 310.663 301.977 311.444 301.977 312.274V312.53C301.977 313.368 301.863 314.154 301.635 314.886C301.407 315.619 301.082 316.274 300.659 316.852C300.227 317.429 299.698 317.914 299.072 318.304C298.445 318.695 297.737 318.963 296.948 319.11V324.078H294.006V319.098C293.216 318.943 292.513 318.67 291.894 318.28C291.276 317.889 290.755 317.409 290.332 316.839C289.9 316.262 289.571 315.611 289.343 314.886C289.123 314.154 289.013 313.368 289.013 312.53V312.274ZM291.845 312.53C291.845 312.986 291.886 313.425 291.967 313.849C292.049 314.272 292.183 314.662 292.37 315.021C292.541 315.379 292.761 315.696 293.029 315.973C293.306 316.241 293.632 316.453 294.006 316.607V308.221C293.64 308.376 293.318 308.591 293.042 308.868C292.773 309.137 292.553 309.446 292.382 309.796C292.195 310.154 292.057 310.545 291.967 310.968C291.886 311.383 291.845 311.818 291.845 312.274V312.53ZM299.145 312.274C299.145 311.818 299.1 311.383 299.011 310.968C298.929 310.545 298.795 310.154 298.608 309.796C298.421 309.438 298.189 309.125 297.912 308.856C297.635 308.579 297.31 308.364 296.936 308.209V316.632C297.31 316.477 297.635 316.266 297.912 315.997C298.189 315.72 298.421 315.403 298.608 315.045C298.795 314.687 298.929 314.296 299.011 313.873C299.1 313.442 299.145 312.994 299.145 312.53V312.274ZM315.625 305.792V319H312.695V308.172H308.582L308.569 311.432C308.569 311.879 308.557 312.315 308.533 312.738C308.516 313.161 308.488 313.56 308.447 313.934C308.366 314.569 308.248 315.151 308.093 315.68C307.947 316.201 307.756 316.66 307.52 317.059C307.137 317.702 306.632 318.186 306.006 318.512C305.379 318.837 304.602 319 303.674 319H303.052V316.534L303.491 316.522C303.939 316.522 304.301 316.424 304.578 316.229C304.862 316.034 305.086 315.729 305.249 315.313C305.33 315.086 305.4 314.821 305.457 314.52C305.514 314.219 305.554 313.885 305.579 313.519C305.603 313.218 305.619 312.896 305.627 312.555C305.636 312.205 305.64 311.83 305.64 311.432L305.652 305.792H315.625ZM325.086 319.244C324.109 319.244 323.214 319.081 322.4 318.756C321.595 318.43 320.903 317.979 320.325 317.401C319.747 316.831 319.3 316.16 318.982 315.387C318.673 314.605 318.519 313.763 318.519 312.86V312.359C318.519 311.326 318.681 310.39 319.007 309.552C319.332 308.714 319.78 307.997 320.35 307.403C320.919 306.809 321.578 306.354 322.327 306.036C323.084 305.711 323.89 305.548 324.744 305.548C325.696 305.548 326.539 305.711 327.271 306.036C328.003 306.354 328.618 306.797 329.114 307.367C329.611 307.944 329.985 308.632 330.237 309.43C330.49 310.227 330.616 311.098 330.616 312.042V313.299H321.46V313.36C321.55 313.938 321.688 314.422 321.875 314.813C322.063 315.204 322.319 315.554 322.645 315.863C322.97 316.188 323.353 316.441 323.792 316.62C324.24 316.799 324.728 316.888 325.257 316.888C325.981 316.888 326.657 316.75 327.283 316.473C327.91 316.188 328.427 315.785 328.833 315.265L330.396 316.778C329.957 317.413 329.281 317.983 328.37 318.487C327.466 318.992 326.372 319.244 325.086 319.244ZM324.732 307.916C324.317 307.916 323.93 307.993 323.572 308.148C323.222 308.294 322.909 308.506 322.632 308.783C322.356 309.068 322.124 309.409 321.937 309.808C321.749 310.207 321.611 310.659 321.521 311.163H327.735V310.968C327.735 310.585 327.666 310.207 327.527 309.833C327.389 309.45 327.194 309.116 326.941 308.832C326.697 308.555 326.388 308.335 326.014 308.172C325.647 308.001 325.22 307.916 324.732 307.916ZM338.294 313.763H336.244V319H333.326V305.792H336.244V311.065H338.087L342.213 305.792H345.838L340.65 312.152L346.253 319H342.445L338.294 313.763ZM353.7 316.9C354.066 316.9 354.416 316.847 354.75 316.742C355.092 316.628 355.393 316.469 355.653 316.266C355.906 316.062 356.105 315.822 356.251 315.545C356.406 315.269 356.483 314.964 356.483 314.63H359.23C359.238 315.273 359.092 315.879 358.791 316.449C358.498 317.01 358.099 317.494 357.594 317.901C357.082 318.325 356.492 318.658 355.824 318.902C355.165 319.138 354.469 319.256 353.737 319.256C352.72 319.256 351.828 319.081 351.063 318.731C350.307 318.373 349.676 317.893 349.171 317.291C348.659 316.689 348.272 315.989 348.012 315.191C347.751 314.386 347.621 313.527 347.621 312.616V312.188C347.621 311.285 347.747 310.431 348 309.625C348.26 308.819 348.646 308.115 349.159 307.513C349.672 306.911 350.307 306.435 351.063 306.085C351.828 305.727 352.715 305.548 353.725 305.548C354.522 305.548 355.259 305.67 355.934 305.914C356.618 306.158 357.204 306.5 357.692 306.939C358.18 307.379 358.559 307.904 358.827 308.514C359.104 309.125 359.238 309.796 359.23 310.528H356.483C356.483 310.17 356.414 309.833 356.276 309.515C356.146 309.198 355.958 308.921 355.714 308.685C355.462 308.449 355.161 308.262 354.811 308.124C354.469 307.985 354.099 307.916 353.7 307.916C353.09 307.916 352.581 308.042 352.174 308.294C351.776 308.539 351.458 308.86 351.222 309.259C350.97 309.658 350.791 310.113 350.685 310.626C350.587 311.139 350.539 311.66 350.539 312.188V312.616C350.539 313.153 350.587 313.682 350.685 314.203C350.791 314.715 350.966 315.167 351.21 315.558C351.446 315.965 351.767 316.29 352.174 316.534C352.581 316.778 353.09 316.9 353.7 316.9ZM373.513 312.372H363.686V310.003H373.513V312.372ZM382.18 307.916C381.79 307.916 381.419 307.973 381.069 308.087C380.719 308.201 380.414 308.355 380.154 308.551C379.885 308.754 379.674 308.994 379.519 309.271C379.364 309.548 379.287 309.853 379.287 310.187H376.541C376.541 309.535 376.691 308.929 376.992 308.368C377.293 307.806 377.704 307.314 378.225 306.891C378.738 306.476 379.336 306.15 380.02 305.914C380.703 305.67 381.423 305.548 382.18 305.548C383.238 305.548 384.162 305.727 384.951 306.085C385.741 306.435 386.4 306.911 386.929 307.513C387.441 308.115 387.828 308.819 388.088 309.625C388.349 310.431 388.479 311.285 388.479 312.188V312.616C388.479 313.527 388.349 314.386 388.088 315.191C387.828 315.989 387.437 316.689 386.917 317.291C386.396 317.893 385.741 318.369 384.951 318.719C384.162 319.069 383.238 319.244 382.18 319.244C381.35 319.244 380.589 319.126 379.897 318.89C379.214 318.646 378.624 318.3 378.127 317.853C377.623 317.421 377.232 316.904 376.956 316.302C376.679 315.692 376.541 315.016 376.541 314.276H379.287C379.287 314.642 379.356 314.984 379.495 315.301C379.641 315.619 379.84 315.895 380.093 316.131C380.353 316.367 380.658 316.555 381.008 316.693C381.366 316.831 381.757 316.9 382.18 316.9C382.766 316.9 383.263 316.803 383.669 316.607C384.076 316.404 384.414 316.135 384.683 315.802C384.935 315.476 385.126 315.098 385.256 314.667C385.395 314.235 385.484 313.788 385.525 313.324H381.045V311.31H385.513C385.464 310.854 385.37 310.423 385.232 310.016C385.094 309.609 384.894 309.251 384.634 308.941C384.373 308.632 384.04 308.384 383.633 308.197C383.234 308.01 382.75 307.916 382.18 307.916ZM402.713 305.792V319H399.783V308.172H395.669L395.657 311.432C395.657 311.879 395.645 312.315 395.621 312.738C395.604 313.161 395.576 313.56 395.535 313.934C395.454 314.569 395.336 315.151 395.181 315.68C395.035 316.201 394.843 316.66 394.607 317.059C394.225 317.702 393.72 318.186 393.094 318.512C392.467 318.837 391.69 319 390.762 319H390.14V316.534L390.579 316.522C391.027 316.522 391.389 316.424 391.666 316.229C391.95 316.034 392.174 315.729 392.337 315.313C392.418 315.086 392.487 314.821 392.544 314.52C392.601 314.219 392.642 313.885 392.667 313.519C392.691 313.218 392.707 312.896 392.715 312.555C392.723 312.205 392.728 311.83 392.728 311.432L392.74 305.792H402.713ZM412.174 319.244C411.197 319.244 410.302 319.081 409.488 318.756C408.683 318.43 407.991 317.979 407.413 317.401C406.835 316.831 406.388 316.16 406.07 315.387C405.761 314.605 405.606 313.763 405.606 312.86V312.359C405.606 311.326 405.769 310.39 406.095 309.552C406.42 308.714 406.868 307.997 407.438 307.403C408.007 306.809 408.666 306.354 409.415 306.036C410.172 305.711 410.978 305.548 411.832 305.548C412.784 305.548 413.626 305.711 414.359 306.036C415.091 306.354 415.706 306.797 416.202 307.367C416.699 307.944 417.073 308.632 417.325 309.43C417.577 310.227 417.704 311.098 417.704 312.042V313.299H408.548V313.36C408.638 313.938 408.776 314.422 408.963 314.813C409.151 315.204 409.407 315.554 409.732 315.863C410.058 316.188 410.44 316.441 410.88 316.62C411.327 316.799 411.816 316.888 412.345 316.888C413.069 316.888 413.744 316.75 414.371 316.473C414.998 316.188 415.514 315.785 415.921 315.265L417.484 316.778C417.044 317.413 416.369 317.983 415.458 318.487C414.554 318.992 413.46 319.244 412.174 319.244ZM411.82 307.916C411.405 307.916 411.018 307.993 410.66 308.148C410.31 308.294 409.997 308.506 409.72 308.783C409.444 309.068 409.212 309.409 409.024 309.808C408.837 310.207 408.699 310.659 408.609 311.163H414.823V310.968C414.823 310.585 414.754 310.207 414.615 309.833C414.477 309.45 414.282 309.116 414.029 308.832C413.785 308.555 413.476 308.335 413.102 308.172C412.735 308.001 412.308 307.916 411.82 307.916ZM426.042 315.399L428.3 305.792H431.95V319H429.252V311.31L427.03 319H425.041L422.819 311.297V319H420.133V305.792H423.808L426.042 315.399ZM441.203 319.244C440.227 319.244 439.331 319.081 438.518 318.756C437.712 318.43 437.02 317.979 436.442 317.401C435.865 316.831 435.417 316.16 435.1 315.387C434.79 314.605 434.636 313.763 434.636 312.86V312.359C434.636 311.326 434.799 310.39 435.124 309.552C435.45 308.714 435.897 307.997 436.467 307.403C437.036 306.809 437.696 306.354 438.444 306.036C439.201 305.711 440.007 305.548 440.861 305.548C441.813 305.548 442.656 305.711 443.388 306.036C444.121 306.354 444.735 306.797 445.231 307.367C445.728 307.944 446.102 308.632 446.354 309.43C446.607 310.227 446.733 311.098 446.733 312.042V313.299H437.578V313.36C437.667 313.938 437.806 314.422 437.993 314.813C438.18 315.204 438.436 315.554 438.762 315.863C439.087 316.188 439.47 316.441 439.909 316.62C440.357 316.799 440.845 316.888 441.374 316.888C442.098 316.888 442.774 316.75 443.4 316.473C444.027 316.188 444.544 315.785 444.951 315.265L446.513 316.778C446.074 317.413 445.398 317.983 444.487 318.487C443.583 318.992 442.489 319.244 441.203 319.244ZM440.849 307.916C440.434 307.916 440.048 307.993 439.689 308.148C439.34 308.294 439.026 308.506 438.75 308.783C438.473 309.068 438.241 309.409 438.054 309.808C437.867 310.207 437.728 310.659 437.639 311.163H443.852V310.968C443.852 310.585 443.783 310.207 443.645 309.833C443.506 309.45 443.311 309.116 443.059 308.832C442.814 308.555 442.505 308.335 442.131 308.172C441.765 308.001 441.337 307.916 440.849 307.916ZM460.784 319H457.854V313.653H452.288V319H449.358V305.792H452.288V311.297H457.854V305.792H460.784V319ZM476.568 308.136H471.404V319H468.475V308.136H463.372V305.792H476.568V308.136Z" fill="white"/>
<path d="M826.013 312.274C826.013 311.444 826.123 310.663 826.343 309.93C826.571 309.198 826.9 308.539 827.332 307.953C827.755 307.383 828.276 306.903 828.894 306.512C829.513 306.122 830.216 305.845 831.006 305.682V300.25H833.948V305.682C834.745 305.837 835.453 306.109 836.072 306.5C836.698 306.891 837.227 307.375 837.659 307.953C838.09 308.53 838.416 309.19 838.635 309.93C838.863 310.663 838.977 311.444 838.977 312.274V312.53C838.977 313.368 838.863 314.154 838.635 314.886C838.407 315.619 838.082 316.274 837.659 316.852C837.227 317.429 836.698 317.914 836.072 318.304C835.445 318.695 834.737 318.963 833.948 319.11V324.078H831.006V319.098C830.216 318.943 829.513 318.67 828.894 318.28C828.276 317.889 827.755 317.409 827.332 316.839C826.9 316.262 826.571 315.611 826.343 314.886C826.123 314.154 826.013 313.368 826.013 312.53V312.274ZM828.845 312.53C828.845 312.986 828.886 313.425 828.967 313.849C829.049 314.272 829.183 314.662 829.37 315.021C829.541 315.379 829.761 315.696 830.029 315.973C830.306 316.241 830.632 316.453 831.006 316.607V308.221C830.64 308.376 830.318 308.591 830.042 308.868C829.773 309.137 829.553 309.446 829.382 309.796C829.195 310.154 829.057 310.545 828.967 310.968C828.886 311.383 828.845 311.818 828.845 312.274V312.53ZM836.145 312.274C836.145 311.818 836.1 311.383 836.011 310.968C835.929 310.545 835.795 310.154 835.608 309.796C835.421 309.438 835.189 309.125 834.912 308.856C834.635 308.579 834.31 308.364 833.936 308.209V316.632C834.31 316.477 834.635 316.266 834.912 315.997C835.189 315.72 835.421 315.403 835.608 315.045C835.795 314.687 835.929 314.296 836.011 313.873C836.1 313.442 836.145 312.994 836.145 312.53V312.274ZM852.625 305.792V319H849.695V308.172H845.582L845.569 311.432C845.569 311.879 845.557 312.315 845.533 312.738C845.516 313.161 845.488 313.56 845.447 313.934C845.366 314.569 845.248 315.151 845.093 315.68C844.947 316.201 844.756 316.66 844.52 317.059C844.137 317.702 843.632 318.186 843.006 318.512C842.379 318.837 841.602 319 840.674 319H840.052V316.534L840.491 316.522C840.939 316.522 841.301 316.424 841.578 316.229C841.862 316.034 842.086 315.729 842.249 315.313C842.33 315.086 842.4 314.821 842.457 314.52C842.514 314.219 842.554 313.885 842.579 313.519C842.603 313.218 842.619 312.896 842.627 312.555C842.636 312.205 842.64 311.83 842.64 311.432L842.652 305.792H852.625ZM862.086 319.244C861.109 319.244 860.214 319.081 859.4 318.756C858.595 318.43 857.903 317.979 857.325 317.401C856.747 316.831 856.3 316.16 855.982 315.387C855.673 314.605 855.519 313.763 855.519 312.86V312.359C855.519 311.326 855.681 310.39 856.007 309.552C856.332 308.714 856.78 307.997 857.35 307.403C857.919 306.809 858.578 306.354 859.327 306.036C860.084 305.711 860.89 305.548 861.744 305.548C862.696 305.548 863.539 305.711 864.271 306.036C865.003 306.354 865.618 306.797 866.114 307.367C866.611 307.944 866.985 308.632 867.237 309.43C867.49 310.227 867.616 311.098 867.616 312.042V313.299H858.46V313.36C858.55 313.938 858.688 314.422 858.875 314.813C859.063 315.204 859.319 315.554 859.645 315.863C859.97 316.188 860.353 316.441 860.792 316.62C861.24 316.799 861.728 316.888 862.257 316.888C862.981 316.888 863.657 316.75 864.283 316.473C864.91 316.188 865.427 315.785 865.833 315.265L867.396 316.778C866.957 317.413 866.281 317.983 865.37 318.487C864.466 318.992 863.372 319.244 862.086 319.244ZM861.732 307.916C861.317 307.916 860.93 307.993 860.572 308.148C860.222 308.294 859.909 308.506 859.632 308.783C859.356 309.068 859.124 309.409 858.937 309.808C858.749 310.207 858.611 310.659 858.521 311.163H864.735V310.968C864.735 310.585 864.666 310.207 864.527 309.833C864.389 309.45 864.194 309.116 863.941 308.832C863.697 308.555 863.388 308.335 863.014 308.172C862.647 308.001 862.22 307.916 861.732 307.916ZM875.294 313.763H873.244V319H870.326V305.792H873.244V311.065H875.087L879.213 305.792H882.838L877.65 312.152L883.253 319H879.445L875.294 313.763ZM890.7 316.9C891.066 316.9 891.416 316.847 891.75 316.742C892.092 316.628 892.393 316.469 892.653 316.266C892.906 316.062 893.105 315.822 893.251 315.545C893.406 315.269 893.483 314.964 893.483 314.63H896.23C896.238 315.273 896.092 315.879 895.791 316.449C895.498 317.01 895.099 317.494 894.594 317.901C894.082 318.325 893.492 318.658 892.824 318.902C892.165 319.138 891.469 319.256 890.737 319.256C889.72 319.256 888.828 319.081 888.063 318.731C887.307 318.373 886.676 317.893 886.171 317.291C885.659 316.689 885.272 315.989 885.012 315.191C884.751 314.386 884.621 313.527 884.621 312.616V312.188C884.621 311.285 884.747 310.431 885 309.625C885.26 308.819 885.646 308.115 886.159 307.513C886.672 306.911 887.307 306.435 888.063 306.085C888.828 305.727 889.715 305.548 890.725 305.548C891.522 305.548 892.259 305.67 892.934 305.914C893.618 306.158 894.204 306.5 894.692 306.939C895.18 307.379 895.559 307.904 895.827 308.514C896.104 309.125 896.238 309.796 896.23 310.528H893.483C893.483 310.17 893.414 309.833 893.276 309.515C893.146 309.198 892.958 308.921 892.714 308.685C892.462 308.449 892.161 308.262 891.811 308.124C891.469 307.985 891.099 307.916 890.7 307.916C890.09 307.916 889.581 308.042 889.174 308.294C888.776 308.539 888.458 308.86 888.222 309.259C887.97 309.658 887.791 310.113 887.685 310.626C887.587 311.139 887.539 311.66 887.539 312.188V312.616C887.539 313.153 887.587 313.682 887.685 314.203C887.791 314.715 887.966 315.167 888.21 315.558C888.446 315.965 888.767 316.29 889.174 316.534C889.581 316.778 890.09 316.9 890.7 316.9ZM910.513 312.372H900.686V310.003H910.513V312.372ZM919.18 307.916C918.79 307.916 918.419 307.973 918.069 308.087C917.719 308.201 917.414 308.355 917.154 308.551C916.885 308.754 916.674 308.994 916.519 309.271C916.364 309.548 916.287 309.853 916.287 310.187H913.541C913.541 309.535 913.691 308.929 913.992 308.368C914.293 307.806 914.704 307.314 915.225 306.891C915.738 306.476 916.336 306.15 917.02 305.914C917.703 305.67 918.423 305.548 919.18 305.548C920.238 305.548 921.162 305.727 921.951 306.085C922.741 306.435 923.4 306.911 923.929 307.513C924.441 308.115 924.828 308.819 925.088 309.625C925.349 310.431 925.479 311.285 925.479 312.188V312.616C925.479 313.527 925.349 314.386 925.088 315.191C924.828 315.989 924.437 316.689 923.917 317.291C923.396 317.893 922.741 318.369 921.951 318.719C921.162 319.069 920.238 319.244 919.18 319.244C918.35 319.244 917.589 319.126 916.897 318.89C916.214 318.646 915.624 318.3 915.127 317.853C914.623 317.421 914.232 316.904 913.956 316.302C913.679 315.692 913.541 315.016 913.541 314.276H916.287C916.287 314.642 916.356 314.984 916.495 315.301C916.641 315.619 916.84 315.895 917.093 316.131C917.353 316.367 917.658 316.555 918.008 316.693C918.366 316.831 918.757 316.9 919.18 316.9C919.766 316.9 920.263 316.803 920.669 316.607C921.076 316.404 921.414 316.135 921.683 315.802C921.935 315.476 922.126 315.098 922.256 314.667C922.395 314.235 922.484 313.788 922.525 313.324H918.045V311.31H922.513C922.464 310.854 922.37 310.423 922.232 310.016C922.094 309.609 921.894 309.251 921.634 308.941C921.373 308.632 921.04 308.384 920.633 308.197C920.234 308.01 919.75 307.916 919.18 307.916ZM939.713 305.792V319H936.783V308.172H932.669L932.657 311.432C932.657 311.879 932.645 312.315 932.621 312.738C932.604 313.161 932.576 313.56 932.535 313.934C932.454 314.569 932.336 315.151 932.181 315.68C932.035 316.201 931.843 316.66 931.607 317.059C931.225 317.702 930.72 318.186 930.094 318.512C929.467 318.837 928.69 319 927.762 319H927.14V316.534L927.579 316.522C928.027 316.522 928.389 316.424 928.666 316.229C928.95 316.034 929.174 315.729 929.337 315.313C929.418 315.086 929.487 314.821 929.544 314.52C929.601 314.219 929.642 313.885 929.667 313.519C929.691 313.218 929.707 312.896 929.715 312.555C929.723 312.205 929.728 311.83 929.728 311.432L929.74 305.792H939.713ZM949.174 319.244C948.197 319.244 947.302 319.081 946.488 318.756C945.683 318.43 944.991 317.979 944.413 317.401C943.835 316.831 943.388 316.16 943.07 315.387C942.761 314.605 942.606 313.763 942.606 312.86V312.359C942.606 311.326 942.769 310.39 943.095 309.552C943.42 308.714 943.868 307.997 944.438 307.403C945.007 306.809 945.666 306.354 946.415 306.036C947.172 305.711 947.978 305.548 948.832 305.548C949.784 305.548 950.626 305.711 951.359 306.036C952.091 306.354 952.706 306.797 953.202 307.367C953.699 307.944 954.073 308.632 954.325 309.43C954.577 310.227 954.704 311.098 954.704 312.042V313.299H945.548V313.36C945.638 313.938 945.776 314.422 945.963 314.813C946.151 315.204 946.407 315.554 946.732 315.863C947.058 316.188 947.44 316.441 947.88 316.62C948.327 316.799 948.816 316.888 949.345 316.888C950.069 316.888 950.744 316.75 951.371 316.473C951.998 316.188 952.514 315.785 952.921 315.265L954.484 316.778C954.044 317.413 953.369 317.983 952.458 318.487C951.554 318.992 950.46 319.244 949.174 319.244ZM948.82 307.916C948.405 307.916 948.018 307.993 947.66 308.148C947.31 308.294 946.997 308.506 946.72 308.783C946.444 309.068 946.212 309.409 946.024 309.808C945.837 310.207 945.699 310.659 945.609 311.163H951.823V310.968C951.823 310.585 951.754 310.207 951.615 309.833C951.477 309.45 951.282 309.116 951.029 308.832C950.785 308.555 950.476 308.335 950.102 308.172C949.735 308.001 949.308 307.916 948.82 307.916ZM963.042 315.399L965.3 305.792H968.95V319H966.252V311.31L964.03 319H962.041L959.819 311.297V319H957.133V305.792H960.808L963.042 315.399ZM978.203 319.244C977.227 319.244 976.331 319.081 975.518 318.756C974.712 318.43 974.02 317.979 973.442 317.401C972.865 316.831 972.417 316.16 972.1 315.387C971.79 314.605 971.636 313.763 971.636 312.86V312.359C971.636 311.326 971.799 310.39 972.124 309.552C972.45 308.714 972.897 307.997 973.467 307.403C974.036 306.809 974.696 306.354 975.444 306.036C976.201 305.711 977.007 305.548 977.861 305.548C978.813 305.548 979.656 305.711 980.388 306.036C981.121 306.354 981.735 306.797 982.231 307.367C982.728 307.944 983.102 308.632 983.354 309.43C983.607 310.227 983.733 311.098 983.733 312.042V313.299H974.578V313.36C974.667 313.938 974.806 314.422 974.993 314.813C975.18 315.204 975.436 315.554 975.762 315.863C976.087 316.188 976.47 316.441 976.909 316.62C977.357 316.799 977.845 316.888 978.374 316.888C979.098 316.888 979.774 316.75 980.4 316.473C981.027 316.188 981.544 315.785 981.951 315.265L983.513 316.778C983.074 317.413 982.398 317.983 981.487 318.487C980.583 318.992 979.489 319.244 978.203 319.244ZM977.849 307.916C977.434 307.916 977.048 307.993 976.689 308.148C976.34 308.294 976.026 308.506 975.75 308.783C975.473 309.068 975.241 309.409 975.054 309.808C974.867 310.207 974.728 310.659 974.639 311.163H980.852V310.968C980.852 310.585 980.783 310.207 980.645 309.833C980.506 309.45 980.311 309.116 980.059 308.832C979.814 308.555 979.505 308.335 979.131 308.172C978.765 308.001 978.337 307.916 977.849 307.916ZM997.784 319H994.854V313.653H989.288V319H986.358V305.792H989.288V311.297H994.854V305.792H997.784V319ZM1013.57 308.136H1008.4V319H1005.47V308.136H1000.37V305.792H1013.57V308.136Z" fill="white"/>
</svg>
