<svg width="1399" height="886" viewBox="0 0 1399 886" fill="none" xmlns="http://www.w3.org/2000/svg">
<rect width="1399" height="886" rx="20" fill="#0066FF" fill-opacity="0.2"/>
<rect x="1.5" y="1.5" width="1396" height="883" rx="18.5" stroke="#0066FF" stroke-opacity="0.5" stroke-width="3"/>
<path d="M172.493 81V69.5376H168.855V67.792H172.493V66.8643C172.493 66.0179 172.615 65.2773 172.859 64.6426C173.112 63.9997 173.466 63.4626 173.921 63.0312C174.369 62.5999 174.91 62.2744 175.545 62.0547C176.18 61.835 176.888 61.7251 177.669 61.7251C177.994 61.7251 178.316 61.7454 178.633 61.7861C178.951 61.8187 179.264 61.8634 179.573 61.9204C179.777 61.9611 179.98 62.0059 180.184 62.0547C180.387 62.0954 180.595 62.1442 180.806 62.2012L180.538 64.0688C180.204 63.9549 179.813 63.8573 179.366 63.7759C178.926 63.6864 178.454 63.6416 177.95 63.6416C177.437 63.6416 176.981 63.7067 176.583 63.8369C176.192 63.959 175.866 64.1462 175.606 64.3984C175.329 64.6589 175.118 64.9966 174.971 65.4116C174.833 65.8267 174.764 66.3109 174.764 66.8643V67.792H179.854V69.5376H174.764V81H172.493ZM183.993 62.25H190.743V79.0469H195.052V81H183.993V79.0469H188.485V64.2153H183.993V62.25ZM203.988 81.2441C203.061 81.2441 202.206 81.0854 201.425 80.7681C200.652 80.4507 199.988 80.0072 199.435 79.4375C198.882 78.8678 198.45 78.1924 198.141 77.4111C197.832 76.6299 197.677 75.7795 197.677 74.8599V74.3472C197.677 73.2811 197.848 72.3289 198.19 71.4907C198.532 70.6444 198.987 69.9282 199.557 69.3423C200.119 68.7645 200.757 68.321 201.474 68.0117C202.198 67.7025 202.938 67.5479 203.695 67.5479C204.647 67.5479 205.478 67.7147 206.186 68.0483C206.902 68.3739 207.496 68.8255 207.968 69.4033C208.44 69.9893 208.79 70.6769 209.018 71.4663C209.254 72.2557 209.372 73.1102 209.372 74.0298V75.043H199.936V75.1284C199.993 75.7713 200.119 76.3369 200.314 76.8252C200.517 77.3135 200.794 77.7448 201.144 78.1191C201.502 78.5179 201.933 78.8312 202.438 79.0591C202.943 79.2869 203.5 79.4009 204.11 79.4009C204.916 79.4009 205.632 79.2381 206.259 78.9126C206.885 78.5871 207.406 78.1558 207.821 77.6187L209.201 78.6929C208.761 79.3602 208.102 79.9543 207.223 80.4751C206.352 80.9878 205.274 81.2441 203.988 81.2441ZM203.695 69.4033C203.24 69.4033 202.808 69.4888 202.401 69.6597C201.994 69.8224 201.628 70.0625 201.303 70.3799C200.977 70.7054 200.701 71.1042 200.473 71.5762C200.253 72.04 200.098 72.5771 200.009 73.1875H207.113V73.0776C207.113 72.6707 207.036 72.2354 206.881 71.7715C206.727 71.2995 206.511 70.8926 206.234 70.5508C205.958 70.209 205.608 69.9323 205.185 69.7207C204.77 69.5091 204.273 69.4033 203.695 69.4033ZM218.125 72.687L221.652 67.792H224.301L219.382 74.3228L224.436 81H221.823L218.173 75.9707L214.523 81H211.887L216.94 74.3228L212.021 67.792H214.633L218.125 72.687ZM237.058 74.1519H227.72V72.2964H237.058V74.1519ZM245.066 81V69.5376H241.429V67.792H245.066V66.8643C245.066 66.0179 245.188 65.2773 245.433 64.6426C245.685 63.9997 246.039 63.4626 246.495 63.0312C246.942 62.5999 247.483 62.2744 248.118 62.0547C248.753 61.835 249.461 61.7251 250.242 61.7251C250.568 61.7251 250.889 61.7454 251.207 61.7861C251.524 61.8187 251.837 61.8634 252.146 61.9204C252.35 61.9611 252.553 62.0059 252.757 62.0547C252.96 62.0954 253.168 62.1442 253.379 62.2012L253.111 64.0688C252.777 63.9549 252.387 63.8573 251.939 63.7759C251.5 63.6864 251.028 63.6416 250.523 63.6416C250.01 63.6416 249.555 63.7067 249.156 63.8369C248.765 63.959 248.44 64.1462 248.179 64.3984C247.903 64.6589 247.691 64.9966 247.544 65.4116C247.406 65.8267 247.337 66.3109 247.337 66.8643V67.792H252.427V69.5376H247.337V81H245.066ZM256.566 62.25H263.316V79.0469H267.625V81H256.566V79.0469H261.058V64.2153H256.566V62.25ZM270.092 74.2739C270.092 73.3218 270.23 72.4388 270.507 71.625C270.784 70.8031 271.182 70.091 271.703 69.4888C272.216 68.8866 272.842 68.4146 273.583 68.0728C274.324 67.7228 275.158 67.5479 276.085 67.5479C277.021 67.5479 277.86 67.7228 278.6 68.0728C279.349 68.4146 279.984 68.8866 280.504 69.4888C281.017 70.091 281.412 70.8031 281.688 71.625C281.965 72.4388 282.104 73.3218 282.104 74.2739V74.5425C282.104 75.4946 281.965 76.3776 281.688 77.1914C281.412 78.0052 281.017 78.7132 280.504 79.3154C279.984 79.9176 279.353 80.3896 278.612 80.7314C277.872 81.0732 277.038 81.2441 276.11 81.2441C275.174 81.2441 274.332 81.0732 273.583 80.7314C272.842 80.3896 272.216 79.9176 271.703 79.3154C271.182 78.7132 270.784 78.0052 270.507 77.1914C270.23 76.3776 270.092 75.4946 270.092 74.5425V74.2739ZM272.35 74.5425C272.35 75.1935 272.427 75.8161 272.582 76.4102C272.737 76.9961 272.973 77.5129 273.29 77.9604C273.599 78.408 273.99 78.762 274.462 79.0225C274.934 79.2829 275.483 79.4131 276.11 79.4131C276.728 79.4131 277.27 79.2829 277.733 79.0225C278.205 78.762 278.6 78.408 278.917 77.9604C279.227 77.5129 279.459 76.9961 279.613 76.4102C279.768 75.8161 279.845 75.1935 279.845 74.5425V74.2739C279.845 73.631 279.764 73.0166 279.601 72.4307C279.446 71.8366 279.215 71.3158 278.905 70.8682C278.588 70.4206 278.193 70.0666 277.721 69.8062C277.257 69.5376 276.712 69.4033 276.085 69.4033C275.459 69.4033 274.914 69.5376 274.45 69.8062C273.986 70.0666 273.599 70.4206 273.29 70.8682C272.973 71.3158 272.737 71.8366 272.582 72.4307C272.427 73.0166 272.35 73.631 272.35 74.2739V74.5425ZM286.511 81L283.703 67.792H285.705L287.243 76.2148L287.512 78.1069L287.841 76.2148L289.953 67.792H291.406L293.505 76.2148L293.859 78.29L294.189 76.2148L295.654 67.792H297.656L294.848 81H293.066L291.003 72.9067L290.661 70.856L290.332 72.9067L288.293 81H286.511ZM304.297 79.5352C304.297 79.055 304.443 78.644 304.736 78.3022C305.029 77.9604 305.473 77.7896 306.067 77.7896C306.653 77.7896 307.096 77.9604 307.397 78.3022C307.707 78.6359 307.861 79.0469 307.861 79.5352C307.861 80.0153 307.707 80.4181 307.397 80.7437C307.088 81.0692 306.645 81.2319 306.067 81.2319C305.481 81.2319 305.037 81.0692 304.736 80.7437C304.443 80.41 304.297 80.0072 304.297 79.5352ZM304.297 68.8418C304.297 68.3617 304.443 67.9507 304.736 67.6089C305.029 67.2671 305.473 67.0962 306.067 67.0962C306.653 67.0962 307.096 67.2671 307.397 67.6089C307.707 67.9425 307.861 68.3535 307.861 68.8418C307.861 69.3219 307.707 69.7248 307.397 70.0503C307.088 70.3758 306.645 70.5386 306.067 70.5386C305.481 70.5386 305.037 70.3758 304.736 70.0503C304.443 69.7166 304.297 69.3138 304.297 68.8418ZM337.44 67.5479C337.855 67.5479 338.286 67.5763 338.734 67.6333C339.19 67.6903 339.531 67.7676 339.759 67.8652L339.454 70.0747C339.015 69.9771 338.596 69.9079 338.197 69.8672C337.806 69.8184 337.395 69.7939 336.964 69.7939C336.41 69.7939 335.91 69.8631 335.462 70.0015C335.015 70.1317 334.624 70.327 334.291 70.5874C333.989 70.8153 333.725 71.096 333.497 71.4297C333.277 71.7552 333.094 72.1214 332.948 72.5283V81H330.677V67.792H332.826L332.923 69.562L332.936 69.8916C333.473 69.1673 334.116 68.5977 334.864 68.1826C335.621 67.7594 336.48 67.5479 337.44 67.5479ZM342.665 74.2739C342.665 73.3218 342.803 72.4388 343.08 71.625C343.357 70.8031 343.756 70.091 344.276 69.4888C344.789 68.8866 345.416 68.4146 346.156 68.0728C346.897 67.7228 347.731 67.5479 348.659 67.5479C349.595 67.5479 350.433 67.7228 351.173 68.0728C351.922 68.4146 352.557 68.8866 353.078 69.4888C353.59 70.091 353.985 70.8031 354.262 71.625C354.538 72.4388 354.677 73.3218 354.677 74.2739V74.5425C354.677 75.4946 354.538 76.3776 354.262 77.1914C353.985 78.0052 353.59 78.7132 353.078 79.3154C352.557 79.9176 351.926 80.3896 351.186 80.7314C350.445 81.0732 349.611 81.2441 348.683 81.2441C347.747 81.2441 346.905 81.0732 346.156 80.7314C345.416 80.3896 344.789 79.9176 344.276 79.3154C343.756 78.7132 343.357 78.0052 343.08 77.1914C342.803 76.3776 342.665 75.4946 342.665 74.5425V74.2739ZM344.923 74.5425C344.923 75.1935 345.001 75.8161 345.155 76.4102C345.31 76.9961 345.546 77.5129 345.863 77.9604C346.173 78.408 346.563 78.762 347.035 79.0225C347.507 79.2829 348.056 79.4131 348.683 79.4131C349.302 79.4131 349.843 79.2829 350.307 79.0225C350.779 78.762 351.173 78.408 351.491 77.9604C351.8 77.5129 352.032 76.9961 352.187 76.4102C352.341 75.8161 352.418 75.1935 352.418 74.5425V74.2739C352.418 73.631 352.337 73.0166 352.174 72.4307C352.02 71.8366 351.788 71.3158 351.479 70.8682C351.161 70.4206 350.766 70.0666 350.294 69.8062C349.831 69.5376 349.285 69.4033 348.659 69.4033C348.032 69.4033 347.487 69.5376 347.023 69.8062C346.559 70.0666 346.173 70.4206 345.863 70.8682C345.546 71.3158 345.31 71.8366 345.155 72.4307C345.001 73.0166 344.923 73.631 344.923 74.2739V74.5425ZM359.084 81L356.276 67.792H358.278L359.816 76.2148L360.085 78.1069L360.415 76.2148L362.526 67.792H363.979L366.079 76.2148L366.433 78.29L366.762 76.2148L368.227 67.792H370.229L367.421 81H365.639L363.576 72.9067L363.234 70.856L362.905 72.9067L360.866 81H359.084ZM386.844 81V67.792H388.87L389.029 69.7451C389.224 69.4684 389.436 69.2161 389.664 68.9883C389.9 68.7523 390.148 68.5488 390.408 68.3779C390.799 68.1175 391.222 67.9181 391.678 67.7798C392.142 67.6333 392.63 67.556 393.143 67.5479C393.834 67.5479 394.461 67.6455 395.022 67.8408C395.592 68.0361 396.076 68.3413 396.475 68.7563C396.874 69.1714 397.179 69.7004 397.391 70.3433C397.61 70.978 397.72 71.7349 397.72 72.6138V81H395.462V72.6626C395.462 72.0767 395.397 71.5802 395.267 71.1733C395.136 70.7664 394.945 70.4368 394.693 70.1846C394.432 69.9323 394.115 69.7492 393.741 69.6353C393.375 69.5213 392.951 69.4644 392.471 69.4644C392.056 69.4644 391.67 69.5254 391.312 69.6475C390.953 69.7614 390.624 69.9201 390.323 70.1235C390.079 70.3026 389.851 70.5101 389.639 70.7461C389.436 70.9821 389.257 71.2425 389.102 71.5273V81H386.844ZM400.724 74.2739C400.724 73.3218 400.862 72.4388 401.139 71.625C401.415 70.8031 401.814 70.091 402.335 69.4888C402.848 68.8866 403.474 68.4146 404.215 68.0728C404.955 67.7228 405.79 67.5479 406.717 67.5479C407.653 67.5479 408.491 67.7228 409.232 68.0728C409.981 68.4146 410.615 68.8866 411.136 69.4888C411.649 70.091 412.044 70.8031 412.32 71.625C412.597 72.4388 412.735 73.3218 412.735 74.2739V74.5425C412.735 75.4946 412.597 76.3776 412.32 77.1914C412.044 78.0052 411.649 78.7132 411.136 79.3154C410.615 79.9176 409.985 80.3896 409.244 80.7314C408.504 81.0732 407.669 81.2441 406.742 81.2441C405.806 81.2441 404.964 81.0732 404.215 80.7314C403.474 80.3896 402.848 79.9176 402.335 79.3154C401.814 78.7132 401.415 78.0052 401.139 77.1914C400.862 76.3776 400.724 75.4946 400.724 74.5425V74.2739ZM402.982 74.5425C402.982 75.1935 403.059 75.8161 403.214 76.4102C403.368 76.9961 403.604 77.5129 403.922 77.9604C404.231 78.408 404.622 78.762 405.094 79.0225C405.566 79.2829 406.115 79.4131 406.742 79.4131C407.36 79.4131 407.901 79.2829 408.365 79.0225C408.837 78.762 409.232 78.408 409.549 77.9604C409.859 77.5129 410.09 76.9961 410.245 76.4102C410.4 75.8161 410.477 75.1935 410.477 74.5425V74.2739C410.477 73.631 410.396 73.0166 410.233 72.4307C410.078 71.8366 409.846 71.3158 409.537 70.8682C409.22 70.4206 408.825 70.0666 408.353 69.8062C407.889 69.5376 407.344 69.4033 406.717 69.4033C406.091 69.4033 405.545 69.5376 405.082 69.8062C404.618 70.0666 404.231 70.4206 403.922 70.8682C403.604 71.3158 403.368 71.8366 403.214 72.4307C403.059 73.0166 402.982 73.631 402.982 74.2739V74.5425ZM417.143 81L414.335 67.792H416.337L417.875 76.2148L418.144 78.1069L418.473 76.2148L420.585 67.792H422.038L424.137 76.2148L424.491 78.29L424.821 76.2148L426.286 67.792H428.288L425.48 81H423.698L421.635 72.9067L421.293 70.856L420.963 72.9067L418.925 81H417.143ZM439.042 67.5479C439.458 67.5479 439.889 67.5763 440.336 67.6333C440.792 67.6903 441.134 67.7676 441.362 67.8652L441.057 70.0747C440.617 69.9771 440.198 69.9079 439.799 69.8672C439.409 69.8184 438.998 69.7939 438.566 69.7939C438.013 69.7939 437.513 69.8631 437.065 70.0015C436.617 70.1317 436.227 70.327 435.893 70.5874C435.592 70.8153 435.327 71.096 435.1 71.4297C434.88 71.7552 434.697 72.1214 434.55 72.5283V81H432.28V67.792H434.428L434.526 69.562L434.538 69.8916C435.075 69.1673 435.718 68.5977 436.467 68.1826C437.224 67.7594 438.082 67.5479 439.042 67.5479ZM453.582 81C453.492 80.8291 453.419 80.6175 453.362 80.3652C453.313 80.1048 453.276 79.8363 453.252 79.5596C453.024 79.7874 452.768 80.0031 452.483 80.2065C452.206 80.41 451.901 80.589 451.567 80.7437C451.226 80.8983 450.863 81.0203 450.481 81.1099C450.098 81.1994 449.692 81.2441 449.26 81.2441C448.56 81.2441 447.926 81.1424 447.356 80.939C446.794 80.7355 446.318 80.4588 445.928 80.1089C445.529 79.7671 445.22 79.3602 445 78.8882C444.788 78.408 444.683 77.8913 444.683 77.3379C444.683 76.6136 444.825 75.9788 445.11 75.4336C445.403 74.8883 445.814 74.4326 446.343 74.0664C446.872 73.7083 447.507 73.4398 448.247 73.2607C448.996 73.0817 449.83 72.9922 450.75 72.9922H453.215V71.9546C453.215 71.5558 453.142 71.1978 452.996 70.8804C452.849 70.563 452.642 70.2904 452.373 70.0625C452.104 69.8428 451.775 69.6719 451.384 69.5498C451.002 69.4277 450.57 69.3667 450.09 69.3667C449.643 69.3667 449.24 69.4237 448.882 69.5376C448.532 69.6515 448.235 69.8021 447.991 69.9893C447.747 70.1764 447.555 70.4002 447.417 70.6606C447.287 70.9129 447.222 71.1774 447.222 71.4541H444.951C444.959 70.974 445.081 70.502 445.317 70.0381C445.562 69.5742 445.911 69.1551 446.367 68.7808C446.815 68.4146 447.36 68.1175 448.003 67.8896C448.654 67.6618 449.39 67.5479 450.212 67.5479C450.961 67.5479 451.657 67.6414 452.3 67.8286C452.943 68.0076 453.5 68.2803 453.972 68.6465C454.436 69.0208 454.802 69.4847 455.071 70.0381C455.339 70.5915 455.474 71.2384 455.474 71.979V78.1191C455.474 78.5586 455.514 79.0265 455.596 79.5229C455.677 80.0112 455.791 80.4385 455.938 80.8047V81H453.582ZM449.59 79.2788C450.029 79.2788 450.44 79.2218 450.823 79.1079C451.205 78.994 451.555 78.8434 451.873 78.6562C452.182 78.4691 452.45 78.2575 452.678 78.0215C452.906 77.7773 453.085 77.5251 453.215 77.2646V74.5913H451.116C450.334 74.5913 449.651 74.6605 449.065 74.7988C448.487 74.929 448.027 75.1325 447.686 75.4092C447.441 75.6045 447.254 75.8364 447.124 76.105C447.002 76.3735 446.941 76.6787 446.941 77.0205C446.941 77.346 446.994 77.6471 447.1 77.9238C447.214 78.2005 447.38 78.4365 447.6 78.6318C447.82 78.8353 448.097 78.994 448.43 79.1079C448.764 79.2218 449.15 79.2788 449.59 79.2788ZM459.405 86.0781V67.792H461.468L461.578 69.2324C461.757 69.0046 461.952 68.8011 462.164 68.6221C462.375 68.4349 462.603 68.2762 462.847 68.146C463.189 67.9507 463.567 67.8042 463.982 67.7065C464.406 67.6007 464.857 67.5479 465.337 67.5479C466.184 67.5479 466.932 67.7147 467.583 68.0483C468.235 68.382 468.78 68.8459 469.219 69.4399C469.659 70.034 469.992 70.7461 470.22 71.5762C470.448 72.3981 470.562 73.3014 470.562 74.2861V74.5425C470.562 75.4865 470.448 76.3695 470.22 77.1914C469.992 78.0052 469.659 78.7132 469.219 79.3154C468.78 79.9176 468.235 80.3896 467.583 80.7314C466.941 81.0732 466.204 81.2441 465.374 81.2441C464.869 81.2441 464.397 81.1912 463.958 81.0854C463.527 80.9797 463.136 80.8291 462.786 80.6338C462.575 80.5117 462.375 80.3774 462.188 80.231C462.001 80.0763 461.826 79.9095 461.663 79.7305V86.0781H459.405ZM468.304 74.2861C468.304 73.6432 468.23 73.0329 468.084 72.4551C467.946 71.8691 467.73 71.3524 467.437 70.9048C467.136 70.4653 466.757 70.1154 466.302 69.855C465.846 69.5946 465.301 69.4644 464.666 69.4644C464.316 69.4644 463.991 69.505 463.689 69.5864C463.396 69.6678 463.132 69.7858 462.896 69.9404C462.636 70.0951 462.404 70.2863 462.2 70.5142C461.997 70.742 461.818 70.9943 461.663 71.271V77.6309C461.801 77.875 461.96 78.1029 462.139 78.3145C462.318 78.526 462.522 78.7051 462.75 78.8516C463.01 79.0225 463.299 79.1567 463.616 79.2544C463.942 79.3521 464.3 79.4009 464.69 79.4009C465.317 79.4009 465.858 79.2707 466.314 79.0103C466.77 78.7417 467.144 78.3836 467.437 77.936C467.73 77.4884 467.946 76.9717 468.084 76.3857C468.23 75.7998 468.304 75.1854 468.304 74.5425V74.2861Z" fill="white"/>
<rect x="164.5" y="99.5" width="436" height="167" rx="18.5" stroke="white" stroke-width="3"/>
<rect x="181" y="117" width="90" height="78" rx="10" fill="#0066FF"/>
<path d="M228.034 165H224.604V151.365L220.112 152.976V150.022L227.851 147.227H228.034V165Z" fill="white"/>
<rect x="286" y="117" width="90" height="78" rx="10" fill="#0066FF"/>
<path d="M336.342 165.467H324.221V163.147L329.97 156.971C330.418 156.482 330.796 156.039 331.105 155.64C331.415 155.241 331.667 154.875 331.862 154.542C332.049 154.216 332.184 153.911 332.265 153.626C332.355 153.341 332.399 153.064 332.399 152.796C332.399 152.397 332.342 152.043 332.229 151.734C332.115 151.425 331.956 151.16 331.752 150.94C331.541 150.729 331.289 150.566 330.996 150.452C330.711 150.338 330.393 150.281 330.043 150.281C329.588 150.281 329.185 150.346 328.835 150.477C328.493 150.599 328.208 150.782 327.98 151.026C327.744 151.278 327.565 151.591 327.443 151.966C327.321 152.34 327.26 152.767 327.26 153.248H323.854C323.854 152.458 324.005 151.714 324.306 151.014C324.607 150.306 325.035 149.687 325.588 149.158C326.133 148.629 326.792 148.214 327.565 147.913C328.347 147.604 329.209 147.449 330.153 147.449C331.057 147.449 331.854 147.575 332.546 147.828C333.246 148.08 333.832 148.434 334.304 148.89C334.768 149.345 335.122 149.895 335.366 150.538C335.61 151.172 335.732 151.876 335.732 152.649C335.732 153.235 335.638 153.797 335.451 154.334C335.272 154.863 335.016 155.388 334.682 155.909C334.34 156.43 333.933 156.963 333.461 157.508C332.989 158.045 332.465 158.611 331.887 159.205L328.542 162.745H336.342V165.467Z" fill="white"/>
<rect x="391" y="117" width="90" height="78" rx="10" fill="#0066FF"/>
<path d="M433.139 155.091H434.982C435.471 155.091 435.89 155.026 436.24 154.896C436.598 154.757 436.887 154.566 437.106 154.322C437.31 154.11 437.46 153.854 437.558 153.553C437.664 153.243 437.717 152.91 437.717 152.552C437.717 152.202 437.664 151.884 437.558 151.6C437.46 151.307 437.31 151.054 437.106 150.843C436.903 150.639 436.643 150.481 436.325 150.367C436.016 150.253 435.654 150.196 435.239 150.196C434.897 150.196 434.576 150.245 434.274 150.342C433.981 150.44 433.725 150.578 433.505 150.757C433.278 150.944 433.098 151.168 432.968 151.429C432.838 151.689 432.773 151.982 432.773 152.308H429.379C429.379 151.583 429.526 150.924 429.819 150.33C430.12 149.736 430.531 149.223 431.052 148.792C431.573 148.369 432.183 148.039 432.883 147.803C433.591 147.567 434.352 147.449 435.166 147.449C436.044 147.449 436.85 147.559 437.583 147.779C438.315 147.99 438.942 148.308 439.462 148.731C439.983 149.162 440.386 149.695 440.671 150.33C440.964 150.957 441.11 151.685 441.11 152.515C441.11 152.898 441.053 153.276 440.939 153.65C440.826 154.017 440.659 154.367 440.439 154.7C440.219 155.034 439.947 155.343 439.621 155.628C439.296 155.905 438.921 156.145 438.498 156.348C438.994 156.527 439.422 156.755 439.78 157.032C440.146 157.308 440.447 157.622 440.683 157.972C440.919 158.33 441.094 158.72 441.208 159.144C441.322 159.567 441.379 160.014 441.379 160.486C441.379 161.316 441.22 162.057 440.903 162.708C440.585 163.359 440.15 163.904 439.597 164.344C439.043 164.791 438.384 165.133 437.619 165.369C436.862 165.597 436.044 165.711 435.166 165.711C434.409 165.711 433.668 165.609 432.944 165.406C432.228 165.194 431.589 164.877 431.027 164.454C430.466 164.039 430.014 163.514 429.672 162.879C429.339 162.244 429.172 161.495 429.172 160.633H432.565C432.565 160.975 432.631 161.292 432.761 161.585C432.891 161.87 433.078 162.114 433.322 162.317C433.558 162.529 433.839 162.696 434.165 162.818C434.49 162.932 434.848 162.989 435.239 162.989C435.678 162.989 436.073 162.928 436.423 162.806C436.773 162.684 437.066 162.505 437.302 162.269C437.53 162.057 437.701 161.797 437.814 161.487C437.937 161.178 437.998 160.832 437.998 160.45C437.998 159.97 437.928 159.559 437.79 159.217C437.652 158.875 437.452 158.594 437.192 158.375C436.923 158.155 436.602 157.992 436.228 157.886C435.861 157.78 435.446 157.728 434.982 157.728H433.139V155.091Z" fill="white"/>
<rect x="496" y="117" width="90" height="78" rx="10" fill="#0066FF"/>
<path d="M544.633 158.863H546.696V161.609H544.633V165.467H541.24V161.609H533.854L533.72 159.485L541.191 147.693H544.633V158.863ZM537.053 158.863H541.24V152.259L540.91 152.845L537.053 158.863Z" fill="white"/>
<path d="M732.493 81V69.5376H728.855V67.792H732.493V66.8643C732.493 66.0179 732.615 65.2773 732.859 64.6426C733.112 63.9997 733.466 63.4626 733.921 63.0312C734.369 62.5999 734.91 62.2744 735.545 62.0547C736.18 61.835 736.888 61.7251 737.669 61.7251C737.994 61.7251 738.316 61.7454 738.633 61.7861C738.951 61.8187 739.264 61.8634 739.573 61.9204C739.777 61.9611 739.98 62.0059 740.184 62.0547C740.387 62.0954 740.595 62.1442 740.806 62.2012L740.538 64.0688C740.204 63.9549 739.813 63.8573 739.366 63.7759C738.926 63.6864 738.454 63.6416 737.95 63.6416C737.437 63.6416 736.981 63.7067 736.583 63.8369C736.192 63.959 735.866 64.1462 735.606 64.3984C735.329 64.6589 735.118 64.9966 734.971 65.4116C734.833 65.8267 734.764 66.3109 734.764 66.8643V67.792H739.854V69.5376H734.764V81H732.493ZM743.993 62.25H750.743V79.0469H755.052V81H743.993V79.0469H748.485V64.2153H743.993V62.25ZM763.988 81.2441C763.061 81.2441 762.206 81.0854 761.425 80.7681C760.652 80.4507 759.988 80.0072 759.435 79.4375C758.882 78.8678 758.45 78.1924 758.141 77.4111C757.832 76.6299 757.677 75.7795 757.677 74.8599V74.3472C757.677 73.2811 757.848 72.3289 758.19 71.4907C758.532 70.6444 758.987 69.9282 759.557 69.3423C760.119 68.7645 760.757 68.321 761.474 68.0117C762.198 67.7025 762.938 67.5479 763.695 67.5479C764.647 67.5479 765.478 67.7147 766.186 68.0483C766.902 68.3739 767.496 68.8255 767.968 69.4033C768.44 69.9893 768.79 70.6769 769.018 71.4663C769.254 72.2557 769.372 73.1102 769.372 74.0298V75.043H759.936V75.1284C759.993 75.7713 760.119 76.3369 760.314 76.8252C760.517 77.3135 760.794 77.7448 761.144 78.1191C761.502 78.5179 761.933 78.8312 762.438 79.0591C762.943 79.2869 763.5 79.4009 764.11 79.4009C764.916 79.4009 765.632 79.2381 766.259 78.9126C766.885 78.5871 767.406 78.1558 767.821 77.6187L769.201 78.6929C768.761 79.3602 768.102 79.9543 767.223 80.4751C766.352 80.9878 765.274 81.2441 763.988 81.2441ZM763.695 69.4033C763.24 69.4033 762.808 69.4888 762.401 69.6597C761.994 69.8224 761.628 70.0625 761.303 70.3799C760.977 70.7054 760.701 71.1042 760.473 71.5762C760.253 72.04 760.098 72.5771 760.009 73.1875H767.113V73.0776C767.113 72.6707 767.036 72.2354 766.881 71.7715C766.727 71.2995 766.511 70.8926 766.234 70.5508C765.958 70.209 765.608 69.9323 765.185 69.7207C764.77 69.5091 764.273 69.4033 763.695 69.4033ZM778.125 72.687L781.652 67.792H784.301L779.382 74.3228L784.436 81H781.823L778.173 75.9707L774.523 81H771.887L776.94 74.3228L772.021 67.792H774.633L778.125 72.687ZM797.058 74.1519H787.72V72.2964H797.058V74.1519ZM805.066 81V69.5376H801.429V67.792H805.066V66.8643C805.066 66.0179 805.188 65.2773 805.433 64.6426C805.685 63.9997 806.039 63.4626 806.495 63.0312C806.942 62.5999 807.483 62.2744 808.118 62.0547C808.753 61.835 809.461 61.7251 810.242 61.7251C810.568 61.7251 810.889 61.7454 811.207 61.7861C811.524 61.8187 811.837 61.8634 812.146 61.9204C812.35 61.9611 812.553 62.0059 812.757 62.0547C812.96 62.0954 813.168 62.1442 813.379 62.2012L813.111 64.0688C812.777 63.9549 812.387 63.8573 811.939 63.7759C811.5 63.6864 811.028 63.6416 810.523 63.6416C810.01 63.6416 809.555 63.7067 809.156 63.8369C808.765 63.959 808.44 64.1462 808.179 64.3984C807.903 64.6589 807.691 64.9966 807.544 65.4116C807.406 65.8267 807.337 66.3109 807.337 66.8643V67.792H812.427V69.5376H807.337V81H805.066ZM816.566 62.25H823.316V79.0469H827.625V81H816.566V79.0469H821.058V64.2153H816.566V62.25ZM830.092 74.2739C830.092 73.3218 830.23 72.4388 830.507 71.625C830.784 70.8031 831.182 70.091 831.703 69.4888C832.216 68.8866 832.842 68.4146 833.583 68.0728C834.324 67.7228 835.158 67.5479 836.085 67.5479C837.021 67.5479 837.86 67.7228 838.6 68.0728C839.349 68.4146 839.984 68.8866 840.504 69.4888C841.017 70.091 841.412 70.8031 841.688 71.625C841.965 72.4388 842.104 73.3218 842.104 74.2739V74.5425C842.104 75.4946 841.965 76.3776 841.688 77.1914C841.412 78.0052 841.017 78.7132 840.504 79.3154C839.984 79.9176 839.353 80.3896 838.612 80.7314C837.872 81.0732 837.038 81.2441 836.11 81.2441C835.174 81.2441 834.332 81.0732 833.583 80.7314C832.842 80.3896 832.216 79.9176 831.703 79.3154C831.182 78.7132 830.784 78.0052 830.507 77.1914C830.23 76.3776 830.092 75.4946 830.092 74.5425V74.2739ZM832.35 74.5425C832.35 75.1935 832.427 75.8161 832.582 76.4102C832.737 76.9961 832.973 77.5129 833.29 77.9604C833.599 78.408 833.99 78.762 834.462 79.0225C834.934 79.2829 835.483 79.4131 836.11 79.4131C836.728 79.4131 837.27 79.2829 837.733 79.0225C838.205 78.762 838.6 78.408 838.917 77.9604C839.227 77.5129 839.459 76.9961 839.613 76.4102C839.768 75.8161 839.845 75.1935 839.845 74.5425V74.2739C839.845 73.631 839.764 73.0166 839.601 72.4307C839.446 71.8366 839.215 71.3158 838.905 70.8682C838.588 70.4206 838.193 70.0666 837.721 69.8062C837.257 69.5376 836.712 69.4033 836.085 69.4033C835.459 69.4033 834.914 69.5376 834.45 69.8062C833.986 70.0666 833.599 70.4206 833.29 70.8682C832.973 71.3158 832.737 71.8366 832.582 72.4307C832.427 73.0166 832.35 73.631 832.35 74.2739V74.5425ZM846.511 81L843.703 67.792H845.705L847.243 76.2148L847.512 78.1069L847.841 76.2148L849.953 67.792H851.406L853.505 76.2148L853.859 78.29L854.189 76.2148L855.654 67.792H857.656L854.848 81H853.066L851.003 72.9067L850.661 70.856L850.332 72.9067L848.293 81H846.511ZM864.297 79.5352C864.297 79.055 864.443 78.644 864.736 78.3022C865.029 77.9604 865.473 77.7896 866.067 77.7896C866.653 77.7896 867.096 77.9604 867.397 78.3022C867.707 78.6359 867.861 79.0469 867.861 79.5352C867.861 80.0153 867.707 80.4181 867.397 80.7437C867.088 81.0692 866.645 81.2319 866.067 81.2319C865.481 81.2319 865.037 81.0692 864.736 80.7437C864.443 80.41 864.297 80.0072 864.297 79.5352ZM864.297 68.8418C864.297 68.3617 864.443 67.9507 864.736 67.6089C865.029 67.2671 865.473 67.0962 866.067 67.0962C866.653 67.0962 867.096 67.2671 867.397 67.6089C867.707 67.9425 867.861 68.3535 867.861 68.8418C867.861 69.3219 867.707 69.7248 867.397 70.0503C867.088 70.3758 866.645 70.5386 866.067 70.5386C865.481 70.5386 865.037 70.3758 864.736 70.0503C864.443 69.7166 864.297 69.3138 864.297 68.8418ZM894.413 79.4131C894.819 79.4131 895.214 79.348 895.597 79.2178C895.987 79.0876 896.333 78.9045 896.634 78.6685C896.935 78.4406 897.175 78.172 897.354 77.8628C897.542 77.5454 897.639 77.2036 897.647 76.8374H899.784C899.776 77.4233 899.621 77.9849 899.32 78.522C899.027 79.0509 898.632 79.5148 898.136 79.9136C897.639 80.3205 897.07 80.646 896.427 80.8901C895.784 81.1261 895.112 81.2441 894.413 81.2441C893.412 81.2441 892.537 81.0651 891.788 80.707C891.039 80.349 890.417 79.8647 889.92 79.2544C889.416 78.6522 889.037 77.9564 888.785 77.167C888.533 76.3695 888.407 75.5312 888.407 74.6523V74.1396C888.407 73.2689 888.533 72.4347 888.785 71.6372C889.037 70.8397 889.416 70.1357 889.92 69.5254C890.417 68.9232 891.039 68.443 891.788 68.085C892.537 67.7269 893.412 67.5479 894.413 67.5479C895.194 67.5479 895.91 67.674 896.561 67.9263C897.22 68.1704 897.79 68.5041 898.27 68.9272C898.742 69.3586 899.112 69.8672 899.381 70.4531C899.649 71.0391 899.784 71.6657 899.784 72.333H897.647C897.639 71.9342 897.55 71.5599 897.379 71.21C897.216 70.8519 896.992 70.5386 896.708 70.27C896.423 70.0015 896.081 69.7899 895.682 69.6353C895.292 69.4806 894.868 69.4033 894.413 69.4033C893.713 69.4033 893.123 69.5457 892.643 69.8306C892.171 70.1073 891.788 70.4694 891.495 70.917C891.202 71.3727 890.991 71.8813 890.86 72.4429C890.738 73.0044 890.677 73.57 890.677 74.1396V74.6523C890.677 75.2301 890.738 75.8039 890.86 76.3735C890.991 76.9351 891.202 77.4396 891.495 77.8872C891.78 78.3429 892.158 78.7132 892.63 78.998C893.111 79.2747 893.705 79.4131 894.413 79.4131ZM902.665 74.2739C902.665 73.3218 902.803 72.4388 903.08 71.625C903.357 70.8031 903.756 70.091 904.276 69.4888C904.789 68.8866 905.416 68.4146 906.156 68.0728C906.897 67.7228 907.731 67.5479 908.659 67.5479C909.595 67.5479 910.433 67.7228 911.173 68.0728C911.922 68.4146 912.557 68.8866 913.078 69.4888C913.59 70.091 913.985 70.8031 914.262 71.625C914.538 72.4388 914.677 73.3218 914.677 74.2739V74.5425C914.677 75.4946 914.538 76.3776 914.262 77.1914C913.985 78.0052 913.59 78.7132 913.078 79.3154C912.557 79.9176 911.926 80.3896 911.186 80.7314C910.445 81.0732 909.611 81.2441 908.683 81.2441C907.747 81.2441 906.905 81.0732 906.156 80.7314C905.416 80.3896 904.789 79.9176 904.276 79.3154C903.756 78.7132 903.357 78.0052 903.08 77.1914C902.803 76.3776 902.665 75.4946 902.665 74.5425V74.2739ZM904.923 74.5425C904.923 75.1935 905.001 75.8161 905.155 76.4102C905.31 76.9961 905.546 77.5129 905.863 77.9604C906.173 78.408 906.563 78.762 907.035 79.0225C907.507 79.2829 908.056 79.4131 908.683 79.4131C909.302 79.4131 909.843 79.2829 910.307 79.0225C910.779 78.762 911.173 78.408 911.491 77.9604C911.8 77.5129 912.032 76.9961 912.187 76.4102C912.341 75.8161 912.418 75.1935 912.418 74.5425V74.2739C912.418 73.631 912.337 73.0166 912.174 72.4307C912.02 71.8366 911.788 71.3158 911.479 70.8682C911.161 70.4206 910.766 70.0666 910.294 69.8062C909.831 69.5376 909.285 69.4033 908.659 69.4033C908.032 69.4033 907.487 69.5376 907.023 69.8062C906.559 70.0666 906.173 70.4206 905.863 70.8682C905.546 71.3158 905.31 71.8366 905.155 72.4307C905.001 73.0166 904.923 73.631 904.923 74.2739V74.5425ZM918.168 62.25H924.919V79.0469H929.228V81H918.168V79.0469H922.661V64.2153H918.168V62.25ZM941.033 81L940.898 79.1812C940.459 79.8322 939.91 80.3408 939.25 80.707C938.591 81.0651 937.83 81.2441 936.968 81.2441C936.276 81.2441 935.649 81.1383 935.088 80.9268C934.526 80.707 934.046 80.3693 933.647 79.9136C933.249 79.4578 932.939 78.88 932.72 78.1802C932.508 77.4722 932.402 76.6258 932.402 75.6411V67.792H934.661V75.6655C934.661 76.3817 934.718 76.9757 934.832 77.4478C934.945 77.9198 935.116 78.2941 935.344 78.5708C935.572 78.8556 935.849 79.055 936.174 79.1689C936.508 79.2829 936.89 79.3398 937.322 79.3398C937.826 79.3398 938.278 79.2829 938.677 79.1689C939.076 79.0469 939.421 78.88 939.714 78.6685C939.958 78.4976 940.17 78.2941 940.349 78.0581C940.536 77.814 940.691 77.5495 940.813 77.2646V67.792H943.083V81H941.033ZM947.881 67.792L947.942 69.0371C948.211 68.5732 948.561 68.2111 948.992 67.9507C949.432 67.6903 949.961 67.556 950.579 67.5479C950.929 67.5479 951.242 67.5885 951.519 67.6699C951.804 67.7432 952.052 67.853 952.264 67.9995C952.418 68.1134 952.557 68.2518 952.679 68.4146C952.809 68.5773 952.919 68.7604 953.008 68.9639C953.122 68.7767 953.257 68.6017 953.411 68.439C953.566 68.2762 953.733 68.1338 953.912 68.0117C954.139 67.8734 954.392 67.7635 954.668 67.6821C954.953 67.6007 955.263 67.556 955.596 67.5479C956.052 67.5479 956.463 67.617 956.829 67.7554C957.195 67.8856 957.505 68.0809 957.757 68.3413C958.034 68.6343 958.245 69.0168 958.392 69.4888C958.538 69.9526 958.611 70.502 958.611 71.1367V81H956.463V71.1123C956.463 70.8356 956.43 70.5915 956.365 70.3799C956.3 70.1683 956.207 69.9933 956.084 69.855C955.954 69.7248 955.792 69.6271 955.596 69.562C955.409 69.4969 955.189 69.4644 954.937 69.4644C954.668 69.4644 954.437 69.501 954.241 69.5742C954.046 69.6475 953.883 69.7451 953.753 69.8672C953.623 69.9974 953.521 70.1479 953.448 70.3188C953.375 70.4816 953.326 70.6647 953.301 70.8682C953.301 70.9089 953.301 70.9495 953.301 70.9902C953.301 71.0228 953.301 71.0635 953.301 71.1123V81H951.153V71.1001C951.153 70.8234 951.12 70.5793 951.055 70.3677C950.998 70.1561 950.905 69.9811 950.774 69.8428C950.652 69.7126 950.498 69.619 950.311 69.562C950.132 69.4969 949.92 69.4644 949.676 69.4644C949.407 69.4644 949.171 69.4969 948.968 69.562C948.772 69.619 948.606 69.7044 948.467 69.8184C948.361 69.9079 948.268 70.0096 948.187 70.1235C948.113 70.2375 948.052 70.3595 948.003 70.4897V81H945.855V67.792H947.881ZM961.358 81V67.792H963.385L963.543 69.7451C963.739 69.4684 963.95 69.2161 964.178 68.9883C964.414 68.7523 964.662 68.5488 964.923 68.3779C965.313 68.1175 965.737 67.9181 966.192 67.7798C966.656 67.6333 967.145 67.556 967.657 67.5479C968.349 67.5479 968.976 67.6455 969.537 67.8408C970.107 68.0361 970.591 68.3413 970.99 68.7563C971.389 69.1714 971.694 69.7004 971.905 70.3433C972.125 70.978 972.235 71.7349 972.235 72.6138V81H969.977V72.6626C969.977 72.0767 969.911 71.5802 969.781 71.1733C969.651 70.7664 969.46 70.4368 969.208 70.1846C968.947 69.9323 968.63 69.7492 968.255 69.6353C967.889 69.5213 967.466 69.4644 966.986 69.4644C966.571 69.4644 966.184 69.5254 965.826 69.6475C965.468 69.7614 965.139 69.9201 964.837 70.1235C964.593 70.3026 964.365 70.5101 964.154 70.7461C963.95 70.9821 963.771 71.2425 963.617 71.5273V81H961.358ZM991.657 81L988.85 67.792H990.852L992.39 76.2148L992.658 78.1069L992.988 76.2148L995.1 67.792H996.552L998.652 76.2148L999.006 78.29L999.335 76.2148L1000.8 67.792H1002.8L999.995 81H998.212L996.149 72.9067L995.808 70.856L995.478 72.9067L993.439 81H991.657ZM1013.56 67.5479C1013.97 67.5479 1014.4 67.5763 1014.85 67.6333C1015.31 67.6903 1015.65 67.7676 1015.88 67.8652L1015.57 70.0747C1015.13 69.9771 1014.71 69.9079 1014.31 69.8672C1013.92 69.8184 1013.51 69.7939 1013.08 69.7939C1012.53 69.7939 1012.03 69.8631 1011.58 70.0015C1011.13 70.1317 1010.74 70.327 1010.41 70.5874C1010.11 70.8153 1009.84 71.096 1009.61 71.4297C1009.39 71.7552 1009.21 72.1214 1009.06 72.5283V81H1006.79V67.792H1008.94L1009.04 69.562L1009.05 69.8916C1009.59 69.1673 1010.23 68.5977 1010.98 68.1826C1011.74 67.7594 1012.6 67.5479 1013.56 67.5479ZM1028.1 81C1028.01 80.8291 1027.93 80.6175 1027.88 80.3652C1027.83 80.1048 1027.79 79.8363 1027.77 79.5596C1027.54 79.7874 1027.28 80.0031 1027 80.2065C1026.72 80.41 1026.42 80.589 1026.08 80.7437C1025.74 80.8983 1025.38 81.0203 1025 81.1099C1024.61 81.1994 1024.21 81.2441 1023.77 81.2441C1023.08 81.2441 1022.44 81.1424 1021.87 80.939C1021.31 80.7355 1020.83 80.4588 1020.44 80.1089C1020.04 79.7671 1019.73 79.3602 1019.51 78.8882C1019.3 78.408 1019.2 77.8913 1019.2 77.3379C1019.2 76.6136 1019.34 75.9788 1019.62 75.4336C1019.92 74.8883 1020.33 74.4326 1020.86 74.0664C1021.39 73.7083 1022.02 73.4398 1022.76 73.2607C1023.51 73.0817 1024.34 72.9922 1025.26 72.9922H1027.73V71.9546C1027.73 71.5558 1027.66 71.1978 1027.51 70.8804C1027.36 70.563 1027.16 70.2904 1026.89 70.0625C1026.62 69.8428 1026.29 69.6719 1025.9 69.5498C1025.52 69.4277 1025.09 69.3667 1024.6 69.3667C1024.16 69.3667 1023.75 69.4237 1023.4 69.5376C1023.05 69.6515 1022.75 69.8021 1022.51 69.9893C1022.26 70.1764 1022.07 70.4002 1021.93 70.6606C1021.8 70.9129 1021.74 71.1774 1021.74 71.4541H1019.47C1019.47 70.974 1019.6 70.502 1019.83 70.0381C1020.08 69.5742 1020.43 69.1551 1020.88 68.7808C1021.33 68.4146 1021.87 68.1175 1022.52 67.8896C1023.17 67.6618 1023.91 67.5479 1024.73 67.5479C1025.48 67.5479 1026.17 67.6414 1026.81 67.8286C1027.46 68.0076 1028.01 68.2803 1028.49 68.6465C1028.95 69.0208 1029.32 69.4847 1029.59 70.0381C1029.85 70.5915 1029.99 71.2384 1029.99 71.979V78.1191C1029.99 78.5586 1030.03 79.0265 1030.11 79.5229C1030.19 80.0112 1030.31 80.4385 1030.45 80.8047V81H1028.1ZM1024.1 79.2788C1024.54 79.2788 1024.95 79.2218 1025.34 79.1079C1025.72 78.994 1026.07 78.8434 1026.39 78.6562C1026.7 78.4691 1026.97 78.2575 1027.19 78.0215C1027.42 77.7773 1027.6 77.5251 1027.73 77.2646V74.5913H1025.63C1024.85 74.5913 1024.17 74.6605 1023.58 74.7988C1023 74.929 1022.54 75.1325 1022.2 75.4092C1021.96 75.6045 1021.77 75.8364 1021.64 76.105C1021.52 76.3735 1021.46 76.6787 1021.46 77.0205C1021.46 77.346 1021.51 77.6471 1021.61 77.9238C1021.73 78.2005 1021.9 78.4365 1022.11 78.6318C1022.33 78.8353 1022.61 78.994 1022.94 79.1079C1023.28 79.2218 1023.67 79.2788 1024.1 79.2788ZM1033.92 86.0781V67.792H1035.98L1036.09 69.2324C1036.27 69.0046 1036.47 68.8011 1036.68 68.6221C1036.89 68.4349 1037.12 68.2762 1037.36 68.146C1037.7 67.9507 1038.08 67.8042 1038.5 67.7065C1038.92 67.6007 1039.37 67.5479 1039.85 67.5479C1040.7 67.5479 1041.45 67.7147 1042.1 68.0483C1042.75 68.382 1043.29 68.8459 1043.73 69.4399C1044.17 70.034 1044.51 70.7461 1044.73 71.5762C1044.96 72.3981 1045.08 73.3014 1045.08 74.2861V74.5425C1045.08 75.4865 1044.96 76.3695 1044.73 77.1914C1044.51 78.0052 1044.17 78.7132 1043.73 79.3154C1043.29 79.9176 1042.75 80.3896 1042.1 80.7314C1041.46 81.0732 1040.72 81.2441 1039.89 81.2441C1039.38 81.2441 1038.91 81.1912 1038.47 81.0854C1038.04 80.9797 1037.65 80.8291 1037.3 80.6338C1037.09 80.5117 1036.89 80.3774 1036.7 80.231C1036.52 80.0763 1036.34 79.9095 1036.18 79.7305V86.0781H1033.92ZM1042.82 74.2861C1042.82 73.6432 1042.75 73.0329 1042.6 72.4551C1042.46 71.8691 1042.24 71.3524 1041.95 70.9048C1041.65 70.4653 1041.27 70.1154 1040.82 69.855C1040.36 69.5946 1039.82 69.4644 1039.18 69.4644C1038.83 69.4644 1038.51 69.505 1038.2 69.5864C1037.91 69.6678 1037.65 69.7858 1037.41 69.9404C1037.15 70.0951 1036.92 70.2863 1036.71 70.5142C1036.51 70.742 1036.33 70.9943 1036.18 71.271V77.6309C1036.32 77.875 1036.47 78.1029 1036.65 78.3145C1036.83 78.526 1037.04 78.7051 1037.26 78.8516C1037.52 79.0225 1037.81 79.1567 1038.13 79.2544C1038.46 79.3521 1038.81 79.4009 1039.21 79.4009C1039.83 79.4009 1040.37 79.2707 1040.83 79.0103C1041.28 78.7417 1041.66 78.3836 1041.95 77.936C1042.24 77.4884 1042.46 76.9717 1042.6 76.3857C1042.75 75.7998 1042.82 75.1854 1042.82 74.5425V74.2861Z" fill="white"/>
<rect x="724.5" y="99.5" width="400" height="217" rx="18.5" stroke="white" stroke-width="3"/>
<rect x="741" y="117" width="90" height="78" rx="10" fill="#0066FF"/>
<path d="M788.034 165H784.604V151.365L780.112 152.976V150.022L787.851 147.227H788.034V165Z" fill="white"/>
<rect x="741" y="205" width="90" height="78" rx="10" fill="#0066FF"/>
<path d="M791.342 253.467H779.221V251.147L784.97 244.971C785.418 244.482 785.796 244.039 786.105 243.64C786.415 243.241 786.667 242.875 786.862 242.542C787.049 242.216 787.184 241.911 787.265 241.626C787.355 241.341 787.399 241.064 787.399 240.796C787.399 240.397 787.342 240.043 787.229 239.734C787.115 239.425 786.956 239.16 786.752 238.94C786.541 238.729 786.289 238.566 785.996 238.452C785.711 238.338 785.393 238.281 785.043 238.281C784.588 238.281 784.185 238.346 783.835 238.477C783.493 238.599 783.208 238.782 782.98 239.026C782.744 239.278 782.565 239.591 782.443 239.966C782.321 240.34 782.26 240.767 782.26 241.248H778.854C778.854 240.458 779.005 239.714 779.306 239.014C779.607 238.306 780.035 237.687 780.588 237.158C781.133 236.629 781.792 236.214 782.565 235.913C783.347 235.604 784.209 235.449 785.153 235.449C786.057 235.449 786.854 235.575 787.546 235.828C788.246 236.08 788.832 236.434 789.304 236.89C789.768 237.345 790.122 237.895 790.366 238.538C790.61 239.172 790.732 239.876 790.732 240.649C790.732 241.235 790.638 241.797 790.451 242.334C790.272 242.863 790.016 243.388 789.682 243.909C789.34 244.43 788.933 244.963 788.461 245.508C787.989 246.045 787.465 246.611 786.887 247.205L783.542 250.745H791.342V253.467Z" fill="white"/>
<rect x="856" y="117" width="90" height="78" rx="10" fill="#0066FF"/>
<path d="M898.139 155.091H899.982C900.471 155.091 900.89 155.026 901.24 154.896C901.598 154.757 901.887 154.566 902.106 154.322C902.31 154.11 902.46 153.854 902.558 153.553C902.664 153.243 902.717 152.91 902.717 152.552C902.717 152.202 902.664 151.884 902.558 151.6C902.46 151.307 902.31 151.054 902.106 150.843C901.903 150.639 901.643 150.481 901.325 150.367C901.016 150.253 900.654 150.196 900.239 150.196C899.897 150.196 899.576 150.245 899.274 150.342C898.981 150.44 898.725 150.578 898.505 150.757C898.278 150.944 898.098 151.168 897.968 151.429C897.838 151.689 897.773 151.982 897.773 152.308H894.379C894.379 151.583 894.526 150.924 894.819 150.33C895.12 149.736 895.531 149.223 896.052 148.792C896.573 148.369 897.183 148.039 897.883 147.803C898.591 147.567 899.352 147.449 900.166 147.449C901.044 147.449 901.85 147.559 902.583 147.779C903.315 147.99 903.942 148.308 904.462 148.731C904.983 149.162 905.386 149.695 905.671 150.33C905.964 150.957 906.11 151.685 906.11 152.515C906.11 152.898 906.053 153.276 905.939 153.65C905.826 154.017 905.659 154.367 905.439 154.7C905.219 155.034 904.947 155.343 904.621 155.628C904.296 155.905 903.921 156.145 903.498 156.348C903.994 156.527 904.422 156.755 904.78 157.032C905.146 157.308 905.447 157.622 905.683 157.972C905.919 158.33 906.094 158.72 906.208 159.144C906.322 159.567 906.379 160.014 906.379 160.486C906.379 161.316 906.22 162.057 905.903 162.708C905.585 163.359 905.15 163.904 904.597 164.344C904.043 164.791 903.384 165.133 902.619 165.369C901.862 165.597 901.044 165.711 900.166 165.711C899.409 165.711 898.668 165.609 897.944 165.406C897.228 165.194 896.589 164.877 896.027 164.454C895.466 164.039 895.014 163.514 894.672 162.879C894.339 162.244 894.172 161.495 894.172 160.633H897.565C897.565 160.975 897.631 161.292 897.761 161.585C897.891 161.87 898.078 162.114 898.322 162.317C898.558 162.529 898.839 162.696 899.165 162.818C899.49 162.932 899.848 162.989 900.239 162.989C900.678 162.989 901.073 162.928 901.423 162.806C901.773 162.684 902.066 162.505 902.302 162.269C902.53 162.057 902.701 161.797 902.814 161.487C902.937 161.178 902.998 160.832 902.998 160.45C902.998 159.97 902.928 159.559 902.79 159.217C902.652 158.875 902.452 158.594 902.192 158.375C901.923 158.155 901.602 157.992 901.228 157.886C900.861 157.78 900.446 157.728 899.982 157.728H898.139V155.091Z" fill="white"/>
<rect x="856" y="205" width="90" height="78" rx="10" fill="#0066FF"/>
<path d="M904.633 246.863H906.696V249.609H904.633V253.467H901.24V249.609H893.854L893.72 247.485L901.191 235.693H904.633V246.863ZM897.053 246.863H901.24V240.259L900.91 240.845L897.053 246.863Z" fill="white"/>
<path d="M728.493 434V422.538H724.855V420.792H728.493V419.864C728.493 419.018 728.615 418.277 728.859 417.643C729.112 417 729.466 416.463 729.921 416.031C730.369 415.6 730.91 415.274 731.545 415.055C732.18 414.835 732.888 414.725 733.669 414.725C733.994 414.725 734.316 414.745 734.633 414.786C734.951 414.819 735.264 414.863 735.573 414.92C735.777 414.961 735.98 415.006 736.184 415.055C736.387 415.095 736.595 415.144 736.806 415.201L736.538 417.069C736.204 416.955 735.813 416.857 735.366 416.776C734.926 416.686 734.454 416.642 733.95 416.642C733.437 416.642 732.981 416.707 732.583 416.837C732.192 416.959 731.866 417.146 731.606 417.398C731.329 417.659 731.118 417.997 730.971 418.412C730.833 418.827 730.764 419.311 730.764 419.864V420.792H735.854V422.538H730.764V434H728.493ZM739.993 415.25H746.743V432.047H751.052V434H739.993V432.047H744.485V417.215H739.993V415.25ZM759.988 434.244C759.061 434.244 758.206 434.085 757.425 433.768C756.652 433.451 755.988 433.007 755.435 432.438C754.882 431.868 754.45 431.192 754.141 430.411C753.832 429.63 753.677 428.779 753.677 427.86V427.347C753.677 426.281 753.848 425.329 754.19 424.491C754.532 423.644 754.987 422.928 755.557 422.342C756.119 421.764 756.757 421.321 757.474 421.012C758.198 420.702 758.938 420.548 759.695 420.548C760.647 420.548 761.478 420.715 762.186 421.048C762.902 421.374 763.496 421.826 763.968 422.403C764.44 422.989 764.79 423.677 765.018 424.466C765.254 425.256 765.372 426.11 765.372 427.03V428.043H755.936V428.128C755.993 428.771 756.119 429.337 756.314 429.825C756.517 430.313 756.794 430.745 757.144 431.119C757.502 431.518 757.933 431.831 758.438 432.059C758.943 432.287 759.5 432.401 760.11 432.401C760.916 432.401 761.632 432.238 762.259 431.913C762.885 431.587 763.406 431.156 763.821 430.619L765.201 431.693C764.761 432.36 764.102 432.954 763.223 433.475C762.352 433.988 761.274 434.244 759.988 434.244ZM759.695 422.403C759.24 422.403 758.808 422.489 758.401 422.66C757.994 422.822 757.628 423.062 757.303 423.38C756.977 423.705 756.701 424.104 756.473 424.576C756.253 425.04 756.098 425.577 756.009 426.188H763.113V426.078C763.113 425.671 763.036 425.235 762.881 424.771C762.727 424.299 762.511 423.893 762.234 423.551C761.958 423.209 761.608 422.932 761.185 422.721C760.77 422.509 760.273 422.403 759.695 422.403ZM774.125 425.687L777.652 420.792H780.301L775.382 427.323L780.436 434H777.823L774.173 428.971L770.523 434H767.887L772.94 427.323L768.021 420.792H770.633L774.125 425.687ZM793.058 427.152H783.72V425.296H793.058V427.152ZM801.066 434V422.538H797.429V420.792H801.066V419.864C801.066 419.018 801.188 418.277 801.433 417.643C801.685 417 802.039 416.463 802.495 416.031C802.942 415.6 803.483 415.274 804.118 415.055C804.753 414.835 805.461 414.725 806.242 414.725C806.568 414.725 806.889 414.745 807.207 414.786C807.524 414.819 807.837 414.863 808.146 414.92C808.35 414.961 808.553 415.006 808.757 415.055C808.96 415.095 809.168 415.144 809.379 415.201L809.111 417.069C808.777 416.955 808.387 416.857 807.939 416.776C807.5 416.686 807.028 416.642 806.523 416.642C806.01 416.642 805.555 416.707 805.156 416.837C804.765 416.959 804.44 417.146 804.179 417.398C803.903 417.659 803.691 417.997 803.544 418.412C803.406 418.827 803.337 419.311 803.337 419.864V420.792H808.427V422.538H803.337V434H801.066ZM812.566 415.25H819.316V432.047H823.625V434H812.566V432.047H817.058V417.215H812.566V415.25ZM826.092 427.274C826.092 426.322 826.23 425.439 826.507 424.625C826.784 423.803 827.182 423.091 827.703 422.489C828.216 421.887 828.842 421.415 829.583 421.073C830.324 420.723 831.158 420.548 832.085 420.548C833.021 420.548 833.86 420.723 834.6 421.073C835.349 421.415 835.984 421.887 836.504 422.489C837.017 423.091 837.412 423.803 837.688 424.625C837.965 425.439 838.104 426.322 838.104 427.274V427.542C838.104 428.495 837.965 429.378 837.688 430.191C837.412 431.005 837.017 431.713 836.504 432.315C835.984 432.918 835.353 433.39 834.612 433.731C833.872 434.073 833.038 434.244 832.11 434.244C831.174 434.244 830.332 434.073 829.583 433.731C828.842 433.39 828.216 432.918 827.703 432.315C827.182 431.713 826.784 431.005 826.507 430.191C826.23 429.378 826.092 428.495 826.092 427.542V427.274ZM828.35 427.542C828.35 428.194 828.427 428.816 828.582 429.41C828.737 429.996 828.973 430.513 829.29 430.96C829.599 431.408 829.99 431.762 830.462 432.022C830.934 432.283 831.483 432.413 832.11 432.413C832.728 432.413 833.27 432.283 833.733 432.022C834.205 431.762 834.6 431.408 834.917 430.96C835.227 430.513 835.459 429.996 835.613 429.41C835.768 428.816 835.845 428.194 835.845 427.542V427.274C835.845 426.631 835.764 426.017 835.601 425.431C835.446 424.837 835.215 424.316 834.905 423.868C834.588 423.421 834.193 423.067 833.721 422.806C833.257 422.538 832.712 422.403 832.085 422.403C831.459 422.403 830.914 422.538 830.45 422.806C829.986 423.067 829.599 423.421 829.29 423.868C828.973 424.316 828.737 424.837 828.582 425.431C828.427 426.017 828.35 426.631 828.35 427.274V427.542ZM842.511 434L839.703 420.792H841.705L843.243 429.215L843.512 431.107L843.841 429.215L845.953 420.792H847.406L849.505 429.215L849.859 431.29L850.189 429.215L851.654 420.792H853.656L850.848 434H849.066L847.003 425.907L846.661 423.856L846.332 425.907L844.293 434H842.511ZM860.297 432.535C860.297 432.055 860.443 431.644 860.736 431.302C861.029 430.96 861.473 430.79 862.067 430.79C862.653 430.79 863.096 430.96 863.397 431.302C863.707 431.636 863.861 432.047 863.861 432.535C863.861 433.015 863.707 433.418 863.397 433.744C863.088 434.069 862.645 434.232 862.067 434.232C861.481 434.232 861.037 434.069 860.736 433.744C860.443 433.41 860.297 433.007 860.297 432.535ZM860.297 421.842C860.297 421.362 860.443 420.951 860.736 420.609C861.029 420.267 861.473 420.096 862.067 420.096C862.653 420.096 863.096 420.267 863.397 420.609C863.707 420.943 863.861 421.354 863.861 421.842C863.861 422.322 863.707 422.725 863.397 423.05C863.088 423.376 862.645 423.539 862.067 423.539C861.481 423.539 861.037 423.376 860.736 423.05C860.443 422.717 860.297 422.314 860.297 421.842ZM893.44 420.548C893.855 420.548 894.286 420.576 894.734 420.633C895.19 420.69 895.531 420.768 895.759 420.865L895.454 423.075C895.015 422.977 894.596 422.908 894.197 422.867C893.806 422.818 893.395 422.794 892.964 422.794C892.41 422.794 891.91 422.863 891.462 423.001C891.015 423.132 890.624 423.327 890.291 423.587C889.989 423.815 889.725 424.096 889.497 424.43C889.277 424.755 889.094 425.121 888.948 425.528V434H886.677V420.792H888.826L888.923 422.562L888.936 422.892C889.473 422.167 890.116 421.598 890.864 421.183C891.621 420.759 892.48 420.548 893.44 420.548ZM898.665 427.274C898.665 426.322 898.803 425.439 899.08 424.625C899.357 423.803 899.756 423.091 900.276 422.489C900.789 421.887 901.416 421.415 902.156 421.073C902.897 420.723 903.731 420.548 904.659 420.548C905.595 420.548 906.433 420.723 907.173 421.073C907.922 421.415 908.557 421.887 909.078 422.489C909.59 423.091 909.985 423.803 910.262 424.625C910.538 425.439 910.677 426.322 910.677 427.274V427.542C910.677 428.495 910.538 429.378 910.262 430.191C909.985 431.005 909.59 431.713 909.078 432.315C908.557 432.918 907.926 433.39 907.186 433.731C906.445 434.073 905.611 434.244 904.683 434.244C903.747 434.244 902.905 434.073 902.156 433.731C901.416 433.39 900.789 432.918 900.276 432.315C899.756 431.713 899.357 431.005 899.08 430.191C898.803 429.378 898.665 428.495 898.665 427.542V427.274ZM900.923 427.542C900.923 428.194 901.001 428.816 901.155 429.41C901.31 429.996 901.546 430.513 901.863 430.96C902.173 431.408 902.563 431.762 903.035 432.022C903.507 432.283 904.056 432.413 904.683 432.413C905.302 432.413 905.843 432.283 906.307 432.022C906.779 431.762 907.173 431.408 907.491 430.96C907.8 430.513 908.032 429.996 908.187 429.41C908.341 428.816 908.418 428.194 908.418 427.542V427.274C908.418 426.631 908.337 426.017 908.174 425.431C908.02 424.837 907.788 424.316 907.479 423.868C907.161 423.421 906.766 423.067 906.294 422.806C905.831 422.538 905.285 422.403 904.659 422.403C904.032 422.403 903.487 422.538 903.023 422.806C902.559 423.067 902.173 423.421 901.863 423.868C901.546 424.316 901.31 424.837 901.155 425.431C901.001 426.017 900.923 426.631 900.923 427.274V427.542ZM915.084 434L912.276 420.792H914.278L915.816 429.215L916.085 431.107L916.415 429.215L918.526 420.792H919.979L922.079 429.215L922.433 431.29L922.762 429.215L924.227 420.792H926.229L923.421 434H921.639L919.576 425.907L919.234 423.856L918.905 425.907L916.866 434H915.084ZM938.205 427.152H928.866V425.296H938.205V427.152ZM951.499 420.548C951.914 420.548 952.345 420.576 952.792 420.633C953.248 420.69 953.59 420.768 953.818 420.865L953.513 423.075C953.073 422.977 952.654 422.908 952.255 422.867C951.865 422.818 951.454 422.794 951.022 422.794C950.469 422.794 949.969 422.863 949.521 423.001C949.073 423.132 948.683 423.327 948.349 423.587C948.048 423.815 947.784 424.096 947.556 424.43C947.336 424.755 947.153 425.121 947.006 425.528V434H944.736V420.792H946.884L946.982 422.562L946.994 422.892C947.531 422.167 948.174 421.598 948.923 421.183C949.68 420.759 950.538 420.548 951.499 420.548ZM963.193 434.244C962.266 434.244 961.411 434.085 960.63 433.768C959.857 433.451 959.194 433.007 958.64 432.438C958.087 431.868 957.655 431.192 957.346 430.411C957.037 429.63 956.882 428.779 956.882 427.86V427.347C956.882 426.281 957.053 425.329 957.395 424.491C957.737 423.644 958.193 422.928 958.762 422.342C959.324 421.764 959.963 421.321 960.679 421.012C961.403 420.702 962.144 420.548 962.9 420.548C963.853 420.548 964.683 420.715 965.391 421.048C966.107 421.374 966.701 421.826 967.173 422.403C967.645 422.989 967.995 423.677 968.223 424.466C968.459 425.256 968.577 426.11 968.577 427.03V428.043H959.141V428.128C959.198 428.771 959.324 429.337 959.519 429.825C959.722 430.313 959.999 430.745 960.349 431.119C960.707 431.518 961.139 431.831 961.643 432.059C962.148 432.287 962.705 432.401 963.315 432.401C964.121 432.401 964.837 432.238 965.464 431.913C966.09 431.587 966.611 431.156 967.026 430.619L968.406 431.693C967.966 432.36 967.307 432.954 966.428 433.475C965.557 433.988 964.479 434.244 963.193 434.244ZM962.9 422.403C962.445 422.403 962.013 422.489 961.606 422.66C961.2 422.822 960.833 423.062 960.508 423.38C960.182 423.705 959.906 424.104 959.678 424.576C959.458 425.04 959.303 425.577 959.214 426.188H966.318V426.078C966.318 425.671 966.241 425.235 966.086 424.771C965.932 424.299 965.716 423.893 965.439 423.551C965.163 423.209 964.813 422.932 964.39 422.721C963.975 422.509 963.478 422.403 962.9 422.403ZM976.377 434L970.945 420.792H973.265L977.049 430.753L977.256 431.571L977.476 430.753L981.175 420.792H983.482L978.099 434H976.377ZM992.223 434.244C991.295 434.244 990.44 434.085 989.659 433.768C988.886 433.451 988.223 433.007 987.669 432.438C987.116 431.868 986.685 431.192 986.375 430.411C986.066 429.63 985.912 428.779 985.912 427.86V427.347C985.912 426.281 986.083 425.329 986.424 424.491C986.766 423.644 987.222 422.928 987.792 422.342C988.353 421.764 988.992 421.321 989.708 421.012C990.432 420.702 991.173 420.548 991.93 420.548C992.882 420.548 993.712 420.715 994.42 421.048C995.136 421.374 995.73 421.826 996.202 422.403C996.674 422.989 997.024 423.677 997.252 424.466C997.488 425.256 997.606 426.11 997.606 427.03V428.043H988.17V428.128C988.227 428.771 988.353 429.337 988.548 429.825C988.752 430.313 989.028 430.745 989.378 431.119C989.736 431.518 990.168 431.831 990.672 432.059C991.177 432.287 991.734 432.401 992.345 432.401C993.15 432.401 993.867 432.238 994.493 431.913C995.12 431.587 995.641 431.156 996.056 430.619L997.435 431.693C996.996 432.36 996.336 432.954 995.458 433.475C994.587 433.988 993.508 434.244 992.223 434.244ZM991.93 422.403C991.474 422.403 991.043 422.489 990.636 422.66C990.229 422.822 989.863 423.062 989.537 423.38C989.212 423.705 988.935 424.104 988.707 424.576C988.487 425.04 988.333 425.577 988.243 426.188H995.348V426.078C995.348 425.671 995.27 425.235 995.116 424.771C994.961 424.299 994.745 423.893 994.469 423.551C994.192 423.209 993.842 422.932 993.419 422.721C993.004 422.509 992.507 422.403 991.93 422.403ZM1009.56 420.548C1009.97 420.548 1010.4 420.576 1010.85 420.633C1011.31 420.69 1011.65 420.768 1011.88 420.865L1011.57 423.075C1011.13 422.977 1010.71 422.908 1010.31 422.867C1009.92 422.818 1009.51 422.794 1009.08 422.794C1008.53 422.794 1008.03 422.863 1007.58 423.001C1007.13 423.132 1006.74 423.327 1006.41 423.587C1006.11 423.815 1005.84 424.096 1005.61 424.43C1005.39 424.755 1005.21 425.121 1005.06 425.528V434H1002.79V420.792H1004.94L1005.04 422.562L1005.05 422.892C1005.59 422.167 1006.23 421.598 1006.98 421.183C1007.74 420.759 1008.6 420.548 1009.56 420.548ZM1024.19 430.497C1024.19 430.228 1024.14 429.988 1024.04 429.776C1023.93 429.557 1023.75 429.357 1023.5 429.178C1023.25 428.999 1022.91 428.836 1022.5 428.69C1022.08 428.535 1021.57 428.397 1020.95 428.275C1020.19 428.12 1019.5 427.933 1018.87 427.713C1018.25 427.494 1017.72 427.229 1017.28 426.92C1016.84 426.619 1016.49 426.265 1016.25 425.858C1016 425.443 1015.88 424.963 1015.88 424.417C1015.88 423.88 1016.01 423.38 1016.26 422.916C1016.51 422.444 1016.87 422.033 1017.32 421.683C1017.78 421.333 1018.32 421.056 1018.94 420.853C1019.58 420.65 1020.28 420.548 1021.03 420.548C1021.85 420.548 1022.58 420.654 1023.23 420.865C1023.88 421.077 1024.43 421.37 1024.89 421.744C1025.35 422.118 1025.7 422.558 1025.94 423.062C1026.19 423.559 1026.32 424.096 1026.32 424.674H1024.06C1024.06 424.389 1023.99 424.112 1023.84 423.844C1023.69 423.567 1023.49 423.323 1023.23 423.111C1022.97 422.9 1022.65 422.729 1022.28 422.599C1021.91 422.468 1021.5 422.403 1021.03 422.403C1020.55 422.403 1020.13 422.456 1019.76 422.562C1019.4 422.668 1019.11 422.81 1018.87 422.989C1018.63 423.168 1018.44 423.376 1018.32 423.612C1018.2 423.848 1018.14 424.092 1018.14 424.344C1018.14 424.605 1018.19 424.837 1018.29 425.04C1018.38 425.243 1018.55 425.427 1018.8 425.589C1019.03 425.752 1019.35 425.899 1019.75 426.029C1020.16 426.159 1020.67 426.285 1021.29 426.407C1022.1 426.578 1022.83 426.778 1023.47 427.005C1024.12 427.225 1024.66 427.49 1025.1 427.799C1025.54 428.116 1025.87 428.482 1026.1 428.897C1026.33 429.312 1026.45 429.793 1026.45 430.338C1026.45 430.924 1026.32 431.457 1026.05 431.937C1025.79 432.417 1025.42 432.828 1024.95 433.17C1024.48 433.512 1023.91 433.776 1023.25 433.963C1022.59 434.151 1021.87 434.244 1021.09 434.244C1020.2 434.244 1019.4 434.126 1018.7 433.89C1018 433.646 1017.41 433.325 1016.93 432.926C1016.44 432.535 1016.07 432.079 1015.81 431.559C1015.56 431.038 1015.43 430.497 1015.43 429.935H1017.69C1017.72 430.399 1017.84 430.79 1018.05 431.107C1018.27 431.424 1018.55 431.681 1018.87 431.876C1019.19 432.071 1019.54 432.21 1019.93 432.291C1020.32 432.372 1020.71 432.413 1021.09 432.413C1021.7 432.413 1022.22 432.344 1022.67 432.206C1023.12 432.059 1023.47 431.86 1023.72 431.607C1023.87 431.453 1023.99 431.282 1024.07 431.095C1024.15 430.908 1024.19 430.708 1024.19 430.497ZM1035.77 434.244C1034.84 434.244 1033.98 434.085 1033.2 433.768C1032.43 433.451 1031.77 433.007 1031.21 432.438C1030.66 431.868 1030.23 431.192 1029.92 430.411C1029.61 429.63 1029.46 428.779 1029.46 427.86V427.347C1029.46 426.281 1029.63 425.329 1029.97 424.491C1030.31 423.644 1030.77 422.928 1031.34 422.342C1031.9 421.764 1032.54 421.321 1033.25 421.012C1033.98 420.702 1034.72 420.548 1035.47 420.548C1036.43 420.548 1037.26 420.715 1037.96 421.048C1038.68 421.374 1039.27 421.826 1039.75 422.403C1040.22 422.989 1040.57 423.677 1040.8 424.466C1041.03 425.256 1041.15 426.11 1041.15 427.03V428.043H1031.71V428.128C1031.77 428.771 1031.9 429.337 1032.09 429.825C1032.3 430.313 1032.57 430.745 1032.92 431.119C1033.28 431.518 1033.71 431.831 1034.22 432.059C1034.72 432.287 1035.28 432.401 1035.89 432.401C1036.69 432.401 1037.41 432.238 1038.04 431.913C1038.66 431.587 1039.18 431.156 1039.6 430.619L1040.98 431.693C1040.54 432.36 1039.88 432.954 1039 433.475C1038.13 433.988 1037.05 434.244 1035.77 434.244ZM1035.47 422.403C1035.02 422.403 1034.59 422.489 1034.18 422.66C1033.77 422.822 1033.41 423.062 1033.08 423.38C1032.76 423.705 1032.48 424.104 1032.25 424.576C1032.03 425.04 1031.88 425.577 1031.79 426.188H1038.89V426.078C1038.89 425.671 1038.81 425.235 1038.66 424.771C1038.51 424.299 1038.29 423.893 1038.01 423.551C1037.74 423.209 1037.39 422.932 1036.96 422.721C1036.55 422.509 1036.05 422.403 1035.47 422.403ZM1060.23 434L1057.42 420.792H1059.42L1060.96 429.215L1061.23 431.107L1061.56 429.215L1063.67 420.792H1065.13L1067.23 429.215L1067.58 431.29L1067.91 429.215L1069.37 420.792H1071.38L1068.57 434H1066.79L1064.72 425.907L1064.38 423.856L1064.05 425.907L1062.01 434H1060.23ZM1082.13 420.548C1082.55 420.548 1082.98 420.576 1083.42 420.633C1083.88 420.69 1084.22 420.768 1084.45 420.865L1084.14 423.075C1083.71 422.977 1083.29 422.908 1082.89 422.867C1082.5 422.818 1082.09 422.794 1081.65 422.794C1081.1 422.794 1080.6 422.863 1080.15 423.001C1079.71 423.132 1079.31 423.327 1078.98 423.587C1078.68 423.815 1078.42 424.096 1078.19 424.43C1077.97 424.755 1077.78 425.121 1077.64 425.528V434H1075.37V420.792H1077.52L1077.61 422.562L1077.63 422.892C1078.16 422.167 1078.81 421.598 1079.55 421.183C1080.31 420.759 1081.17 420.548 1082.13 420.548ZM1096.67 434C1096.58 433.829 1096.51 433.618 1096.45 433.365C1096.4 433.105 1096.36 432.836 1096.34 432.56C1096.11 432.787 1095.86 433.003 1095.57 433.207C1095.29 433.41 1094.99 433.589 1094.66 433.744C1094.31 433.898 1093.95 434.02 1093.57 434.11C1093.19 434.199 1092.78 434.244 1092.35 434.244C1091.65 434.244 1091.01 434.142 1090.44 433.939C1089.88 433.736 1089.41 433.459 1089.02 433.109C1088.62 432.767 1088.31 432.36 1088.09 431.888C1087.88 431.408 1087.77 430.891 1087.77 430.338C1087.77 429.614 1087.91 428.979 1088.2 428.434C1088.49 427.888 1088.9 427.433 1089.43 427.066C1089.96 426.708 1090.59 426.44 1091.33 426.261C1092.08 426.082 1092.92 425.992 1093.84 425.992H1096.3V424.955C1096.3 424.556 1096.23 424.198 1096.08 423.88C1095.94 423.563 1095.73 423.29 1095.46 423.062C1095.19 422.843 1094.86 422.672 1094.47 422.55C1094.09 422.428 1093.66 422.367 1093.18 422.367C1092.73 422.367 1092.33 422.424 1091.97 422.538C1091.62 422.652 1091.32 422.802 1091.08 422.989C1090.83 423.176 1090.64 423.4 1090.5 423.661C1090.37 423.913 1090.31 424.177 1090.31 424.454H1088.04C1088.05 423.974 1088.17 423.502 1088.41 423.038C1088.65 422.574 1089 422.155 1089.46 421.781C1089.9 421.415 1090.45 421.118 1091.09 420.89C1091.74 420.662 1092.48 420.548 1093.3 420.548C1094.05 420.548 1094.74 420.641 1095.39 420.829C1096.03 421.008 1096.59 421.28 1097.06 421.646C1097.52 422.021 1097.89 422.485 1098.16 423.038C1098.43 423.591 1098.56 424.238 1098.56 424.979V431.119C1098.56 431.559 1098.6 432.027 1098.68 432.523C1098.76 433.011 1098.88 433.438 1099.03 433.805V434H1096.67ZM1092.68 432.279C1093.12 432.279 1093.53 432.222 1093.91 432.108C1094.29 431.994 1094.64 431.843 1094.96 431.656C1095.27 431.469 1095.54 431.257 1095.77 431.021C1095.99 430.777 1096.17 430.525 1096.3 430.265V427.591H1094.2C1093.42 427.591 1092.74 427.66 1092.15 427.799C1091.58 427.929 1091.12 428.132 1090.77 428.409C1090.53 428.604 1090.34 428.836 1090.21 429.105C1090.09 429.374 1090.03 429.679 1090.03 430.021C1090.03 430.346 1090.08 430.647 1090.19 430.924C1090.3 431.201 1090.47 431.437 1090.69 431.632C1090.91 431.835 1091.18 431.994 1091.52 432.108C1091.85 432.222 1092.24 432.279 1092.68 432.279ZM1102.49 439.078V420.792H1104.56L1104.67 422.232C1104.84 422.005 1105.04 421.801 1105.25 421.622C1105.46 421.435 1105.69 421.276 1105.94 421.146C1106.28 420.951 1106.66 420.804 1107.07 420.707C1107.49 420.601 1107.95 420.548 1108.43 420.548C1109.27 420.548 1110.02 420.715 1110.67 421.048C1111.32 421.382 1111.87 421.846 1112.31 422.44C1112.75 423.034 1113.08 423.746 1113.31 424.576C1113.54 425.398 1113.65 426.301 1113.65 427.286V427.542C1113.65 428.486 1113.54 429.369 1113.31 430.191C1113.08 431.005 1112.75 431.713 1112.31 432.315C1111.87 432.918 1111.32 433.39 1110.67 433.731C1110.03 434.073 1109.29 434.244 1108.46 434.244C1107.96 434.244 1107.49 434.191 1107.05 434.085C1106.61 433.98 1106.22 433.829 1105.87 433.634C1105.66 433.512 1105.46 433.377 1105.28 433.231C1105.09 433.076 1104.91 432.91 1104.75 432.73V439.078H1102.49ZM1111.39 427.286C1111.39 426.643 1111.32 426.033 1111.17 425.455C1111.03 424.869 1110.82 424.352 1110.52 423.905C1110.22 423.465 1109.85 423.115 1109.39 422.855C1108.93 422.595 1108.39 422.464 1107.75 422.464C1107.4 422.464 1107.08 422.505 1106.78 422.586C1106.48 422.668 1106.22 422.786 1105.98 422.94C1105.72 423.095 1105.49 423.286 1105.29 423.514C1105.08 423.742 1104.91 423.994 1104.75 424.271V430.631C1104.89 430.875 1105.05 431.103 1105.23 431.314C1105.41 431.526 1105.61 431.705 1105.84 431.852C1106.1 432.022 1106.39 432.157 1106.7 432.254C1107.03 432.352 1107.39 432.401 1107.78 432.401C1108.4 432.401 1108.95 432.271 1109.4 432.01C1109.86 431.742 1110.23 431.384 1110.52 430.936C1110.82 430.488 1111.03 429.972 1111.17 429.386C1111.32 428.8 1111.39 428.185 1111.39 427.542V427.286ZM1126.9 427.152H1117.56V425.296H1126.9V427.152ZM1140.19 420.548C1140.6 420.548 1141.04 420.576 1141.48 420.633C1141.94 420.69 1142.28 420.768 1142.51 420.865L1142.2 423.075C1141.76 422.977 1141.34 422.908 1140.95 422.867C1140.56 422.818 1140.14 422.794 1139.71 422.794C1139.16 422.794 1138.66 422.863 1138.21 423.001C1137.76 423.132 1137.37 423.327 1137.04 423.587C1136.74 423.815 1136.47 424.096 1136.25 424.43C1136.03 424.755 1135.84 425.121 1135.7 425.528V434H1133.43V420.792H1135.57L1135.67 422.562L1135.68 422.892C1136.22 422.167 1136.86 421.598 1137.61 421.183C1138.37 420.759 1139.23 420.548 1140.19 420.548ZM1151.88 434.244C1150.96 434.244 1150.1 434.085 1149.32 433.768C1148.55 433.451 1147.88 433.007 1147.33 432.438C1146.78 431.868 1146.35 431.192 1146.04 430.411C1145.73 429.63 1145.57 428.779 1145.57 427.86V427.347C1145.57 426.281 1145.74 425.329 1146.09 424.491C1146.43 423.644 1146.88 422.928 1147.45 422.342C1148.01 421.764 1148.65 421.321 1149.37 421.012C1150.09 420.702 1150.83 420.548 1151.59 420.548C1152.54 420.548 1153.37 420.715 1154.08 421.048C1154.8 421.374 1155.39 421.826 1155.86 422.403C1156.34 422.989 1156.69 423.677 1156.91 424.466C1157.15 425.256 1157.27 426.11 1157.27 427.03V428.043H1147.83V428.128C1147.89 428.771 1148.01 429.337 1148.21 429.825C1148.41 430.313 1148.69 430.745 1149.04 431.119C1149.4 431.518 1149.83 431.831 1150.33 432.059C1150.84 432.287 1151.4 432.401 1152.01 432.401C1152.81 432.401 1153.53 432.238 1154.15 431.913C1154.78 431.587 1155.3 431.156 1155.72 430.619L1157.1 431.693C1156.66 432.36 1156 432.954 1155.12 433.475C1154.25 433.988 1153.17 434.244 1151.88 434.244ZM1151.59 422.403C1151.14 422.403 1150.7 422.489 1150.3 422.66C1149.89 422.822 1149.52 423.062 1149.2 423.38C1148.87 423.705 1148.6 424.104 1148.37 424.576C1148.15 425.04 1147.99 425.577 1147.9 426.188H1155.01V426.078C1155.01 425.671 1154.93 425.235 1154.78 424.771C1154.62 424.299 1154.41 423.893 1154.13 423.551C1153.85 423.209 1153.5 422.932 1153.08 422.721C1152.67 422.509 1152.17 422.403 1151.59 422.403ZM1165.07 434L1159.64 420.792H1161.96L1165.74 430.753L1165.95 431.571L1166.17 430.753L1169.87 420.792H1172.17L1166.79 434H1165.07ZM1180.91 434.244C1179.99 434.244 1179.13 434.085 1178.35 433.768C1177.58 433.451 1176.91 433.007 1176.36 432.438C1175.81 431.868 1175.38 431.192 1175.07 430.411C1174.76 429.63 1174.6 428.779 1174.6 427.86V427.347C1174.6 426.281 1174.77 425.329 1175.11 424.491C1175.46 423.644 1175.91 422.928 1176.48 422.342C1177.04 421.764 1177.68 421.321 1178.4 421.012C1179.12 420.702 1179.86 420.548 1180.62 420.548C1181.57 420.548 1182.4 420.715 1183.11 421.048C1183.83 421.374 1184.42 421.826 1184.89 422.403C1185.36 422.989 1185.71 423.677 1185.94 424.466C1186.18 425.256 1186.3 426.11 1186.3 427.03V428.043H1176.86V428.128C1176.92 428.771 1177.04 429.337 1177.24 429.825C1177.44 430.313 1177.72 430.745 1178.07 431.119C1178.43 431.518 1178.86 431.831 1179.36 432.059C1179.87 432.287 1180.42 432.401 1181.04 432.401C1181.84 432.401 1182.56 432.238 1183.18 431.913C1183.81 431.587 1184.33 431.156 1184.75 430.619L1186.13 431.693C1185.69 432.36 1185.03 432.954 1184.15 433.475C1183.28 433.988 1182.2 434.244 1180.91 434.244ZM1180.62 422.403C1180.16 422.403 1179.73 422.489 1179.33 422.66C1178.92 422.822 1178.55 423.062 1178.23 423.38C1177.9 423.705 1177.63 424.104 1177.4 424.576C1177.18 425.04 1177.02 425.577 1176.93 426.188H1184.04V426.078C1184.04 425.671 1183.96 425.235 1183.81 424.771C1183.65 424.299 1183.44 423.893 1183.16 423.551C1182.88 423.209 1182.53 422.932 1182.11 422.721C1181.69 422.509 1181.2 422.403 1180.62 422.403ZM1198.25 420.548C1198.66 420.548 1199.09 420.576 1199.54 420.633C1200 420.69 1200.34 420.768 1200.57 420.865L1200.26 423.075C1199.82 422.977 1199.4 422.908 1199 422.867C1198.61 422.818 1198.2 422.794 1197.77 422.794C1197.22 422.794 1196.72 422.863 1196.27 423.001C1195.82 423.132 1195.43 423.327 1195.1 423.587C1194.8 423.815 1194.53 424.096 1194.3 424.43C1194.08 424.755 1193.9 425.121 1193.76 425.528V434H1191.48V420.792H1193.63L1193.73 422.562L1193.74 422.892C1194.28 422.167 1194.92 421.598 1195.67 421.183C1196.43 420.759 1197.29 420.548 1198.25 420.548ZM1212.88 430.497C1212.88 430.228 1212.83 429.988 1212.73 429.776C1212.62 429.557 1212.44 429.357 1212.19 429.178C1211.94 428.999 1211.6 428.836 1211.19 428.69C1210.77 428.535 1210.26 428.397 1209.64 428.275C1208.88 428.12 1208.19 427.933 1207.56 427.713C1206.94 427.494 1206.41 427.229 1205.98 426.92C1205.53 426.619 1205.18 426.265 1204.94 425.858C1204.69 425.443 1204.57 424.963 1204.57 424.417C1204.57 423.88 1204.7 423.38 1204.95 422.916C1205.2 422.444 1205.56 422.033 1206.01 421.683C1206.47 421.333 1207.01 421.056 1207.64 420.853C1208.27 420.65 1208.97 420.548 1209.72 420.548C1210.54 420.548 1211.27 420.654 1211.92 420.865C1212.57 421.077 1213.12 421.37 1213.58 421.744C1214.04 422.118 1214.39 422.558 1214.63 423.062C1214.88 423.559 1215.01 424.096 1215.01 424.674H1212.75C1212.75 424.389 1212.68 424.112 1212.53 423.844C1212.38 423.567 1212.18 423.323 1211.92 423.111C1211.66 422.9 1211.34 422.729 1210.97 422.599C1210.6 422.468 1210.19 422.403 1209.72 422.403C1209.24 422.403 1208.82 422.456 1208.45 422.562C1208.1 422.668 1207.8 422.81 1207.56 422.989C1207.32 423.168 1207.13 423.376 1207.01 423.612C1206.89 423.848 1206.83 424.092 1206.83 424.344C1206.83 424.605 1206.88 424.837 1206.98 425.04C1207.07 425.243 1207.24 425.427 1207.49 425.589C1207.72 425.752 1208.04 425.899 1208.44 426.029C1208.85 426.159 1209.36 426.285 1209.98 426.407C1210.79 426.578 1211.52 426.778 1212.16 427.005C1212.81 427.225 1213.35 427.49 1213.79 427.799C1214.23 428.116 1214.56 428.482 1214.79 428.897C1215.02 429.312 1215.14 429.793 1215.14 430.338C1215.14 430.924 1215.01 431.457 1214.74 431.937C1214.48 432.417 1214.11 432.828 1213.64 433.17C1213.17 433.512 1212.6 433.776 1211.94 433.963C1211.29 434.151 1210.56 434.244 1209.78 434.244C1208.89 434.244 1208.09 434.126 1207.39 433.89C1206.69 433.646 1206.1 433.325 1205.62 432.926C1205.13 432.535 1204.76 432.079 1204.5 431.559C1204.25 431.038 1204.12 430.497 1204.12 429.935H1206.38C1206.41 430.399 1206.53 430.79 1206.74 431.107C1206.96 431.424 1207.24 431.681 1207.56 431.876C1207.88 432.071 1208.23 432.21 1208.62 432.291C1209.01 432.372 1209.4 432.413 1209.78 432.413C1210.39 432.413 1210.91 432.344 1211.36 432.206C1211.81 432.059 1212.16 431.86 1212.41 431.607C1212.56 431.453 1212.68 431.282 1212.76 431.095C1212.84 430.908 1212.88 430.708 1212.88 430.497ZM1224.46 434.244C1223.53 434.244 1222.67 434.085 1221.89 433.768C1221.12 433.451 1220.46 433.007 1219.9 432.438C1219.35 431.868 1218.92 431.192 1218.61 430.411C1218.3 429.63 1218.15 428.779 1218.15 427.86V427.347C1218.15 426.281 1218.32 425.329 1218.66 424.491C1219 423.644 1219.46 422.928 1220.03 422.342C1220.59 421.764 1221.23 421.321 1221.94 421.012C1222.67 420.702 1223.41 420.548 1224.16 420.548C1225.12 420.548 1225.95 420.715 1226.65 421.048C1227.37 421.374 1227.96 421.826 1228.44 422.403C1228.91 422.989 1229.26 423.677 1229.49 424.466C1229.72 425.256 1229.84 426.11 1229.84 427.03V428.043H1220.4V428.128C1220.46 428.771 1220.59 429.337 1220.78 429.825C1220.99 430.313 1221.26 430.745 1221.61 431.119C1221.97 431.518 1222.4 431.831 1222.91 432.059C1223.41 432.287 1223.97 432.401 1224.58 432.401C1225.38 432.401 1226.1 432.238 1226.73 431.913C1227.35 431.587 1227.88 431.156 1228.29 430.619L1229.67 431.693C1229.23 432.36 1228.57 432.954 1227.69 433.475C1226.82 433.988 1225.74 434.244 1224.46 434.244ZM1224.16 422.403C1223.71 422.403 1223.28 422.489 1222.87 422.66C1222.46 422.822 1222.1 423.062 1221.77 423.38C1221.45 423.705 1221.17 424.104 1220.94 424.576C1220.72 425.04 1220.57 425.577 1220.48 426.188H1227.58V426.078C1227.58 425.671 1227.5 425.235 1227.35 424.771C1227.2 424.299 1226.98 423.893 1226.7 423.551C1226.43 423.209 1226.08 422.932 1225.65 422.721C1225.24 422.509 1224.74 422.403 1224.16 422.403Z" fill="white"/>
<rect x="720.5" y="452.5" width="400" height="217" rx="18.5" stroke="white" stroke-width="3"/>
<rect x="899" y="491" width="90" height="78" rx="10" fill="#0066FF"/>
<path d="M947.633 532.396H949.696V535.143H947.633V539H944.24V535.143H936.854L936.72 533.019L944.191 521.227H947.633V532.396ZM940.053 532.396H944.24V525.792L943.91 526.378L940.053 532.396Z" fill="white"/>
<rect x="899" y="579" width="90" height="78" rx="10" fill="#0066FF"/>
<path d="M949.342 627.467H937.221V625.147L942.97 618.971C943.418 618.482 943.796 618.039 944.105 617.64C944.415 617.241 944.667 616.875 944.862 616.542C945.049 616.216 945.184 615.911 945.265 615.626C945.355 615.341 945.399 615.064 945.399 614.796C945.399 614.397 945.342 614.043 945.229 613.734C945.115 613.425 944.956 613.16 944.752 612.94C944.541 612.729 944.289 612.566 943.996 612.452C943.711 612.338 943.393 612.281 943.043 612.281C942.588 612.281 942.185 612.346 941.835 612.477C941.493 612.599 941.208 612.782 940.98 613.026C940.744 613.278 940.565 613.591 940.443 613.966C940.321 614.34 940.26 614.767 940.26 615.248H936.854C936.854 614.458 937.005 613.714 937.306 613.014C937.607 612.306 938.035 611.687 938.588 611.158C939.133 610.629 939.792 610.214 940.565 609.913C941.347 609.604 942.209 609.449 943.153 609.449C944.057 609.449 944.854 609.575 945.546 609.828C946.246 610.08 946.832 610.434 947.304 610.89C947.768 611.345 948.122 611.895 948.366 612.538C948.61 613.172 948.732 613.876 948.732 614.649C948.732 615.235 948.638 615.797 948.451 616.334C948.272 616.863 948.016 617.388 947.682 617.909C947.34 618.43 946.933 618.963 946.461 619.508C945.989 620.045 945.465 620.611 944.887 621.205L941.542 624.745H949.342V627.467Z" fill="white"/>
<rect x="1014" y="491" width="90" height="78" rx="10" fill="#0066FF"/>
<path d="M1056.14 529.091H1057.98C1058.47 529.091 1058.89 529.026 1059.24 528.896C1059.6 528.757 1059.89 528.566 1060.11 528.322C1060.31 528.11 1060.46 527.854 1060.56 527.553C1060.66 527.243 1060.72 526.91 1060.72 526.552C1060.72 526.202 1060.66 525.884 1060.56 525.6C1060.46 525.307 1060.31 525.054 1060.11 524.843C1059.9 524.639 1059.64 524.481 1059.33 524.367C1059.02 524.253 1058.65 524.196 1058.24 524.196C1057.9 524.196 1057.58 524.245 1057.27 524.342C1056.98 524.44 1056.73 524.578 1056.51 524.757C1056.28 524.944 1056.1 525.168 1055.97 525.429C1055.84 525.689 1055.77 525.982 1055.77 526.308H1052.38C1052.38 525.583 1052.53 524.924 1052.82 524.33C1053.12 523.736 1053.53 523.223 1054.05 522.792C1054.57 522.369 1055.18 522.039 1055.88 521.803C1056.59 521.567 1057.35 521.449 1058.17 521.449C1059.04 521.449 1059.85 521.559 1060.58 521.779C1061.31 521.99 1061.94 522.308 1062.46 522.731C1062.98 523.162 1063.39 523.695 1063.67 524.33C1063.96 524.957 1064.11 525.685 1064.11 526.515C1064.11 526.898 1064.05 527.276 1063.94 527.65C1063.83 528.017 1063.66 528.367 1063.44 528.7C1063.22 529.034 1062.95 529.343 1062.62 529.628C1062.3 529.905 1061.92 530.145 1061.5 530.348C1061.99 530.527 1062.42 530.755 1062.78 531.032C1063.15 531.308 1063.45 531.622 1063.68 531.972C1063.92 532.33 1064.09 532.72 1064.21 533.144C1064.32 533.567 1064.38 534.014 1064.38 534.486C1064.38 535.316 1064.22 536.057 1063.9 536.708C1063.59 537.359 1063.15 537.904 1062.6 538.344C1062.04 538.791 1061.38 539.133 1060.62 539.369C1059.86 539.597 1059.04 539.711 1058.17 539.711C1057.41 539.711 1056.67 539.609 1055.94 539.406C1055.23 539.194 1054.59 538.877 1054.03 538.454C1053.47 538.039 1053.01 537.514 1052.67 536.879C1052.34 536.244 1052.17 535.495 1052.17 534.633H1055.57C1055.57 534.975 1055.63 535.292 1055.76 535.585C1055.89 535.87 1056.08 536.114 1056.32 536.317C1056.56 536.529 1056.84 536.696 1057.16 536.818C1057.49 536.932 1057.85 536.989 1058.24 536.989C1058.68 536.989 1059.07 536.928 1059.42 536.806C1059.77 536.684 1060.07 536.505 1060.3 536.269C1060.53 536.057 1060.7 535.797 1060.81 535.487C1060.94 535.178 1061 534.832 1061 534.45C1061 533.97 1060.93 533.559 1060.79 533.217C1060.65 532.875 1060.45 532.594 1060.19 532.375C1059.92 532.155 1059.6 531.992 1059.23 531.886C1058.86 531.78 1058.45 531.728 1057.98 531.728H1056.14V529.091Z" fill="white"/>
<rect x="1014" y="579" width="90" height="78" rx="10" fill="#0066FF"/>
<path d="M1061.03 627.467H1057.6V613.832L1053.11 615.443V612.489L1060.85 609.693H1061.03V627.467Z" fill="white"/>
<path d="M180.493 434V422.538H176.855V420.792H180.493V419.864C180.493 419.018 180.615 418.277 180.859 417.643C181.112 417 181.466 416.463 181.921 416.031C182.369 415.6 182.91 415.274 183.545 415.055C184.18 414.835 184.888 414.725 185.669 414.725C185.994 414.725 186.316 414.745 186.633 414.786C186.951 414.819 187.264 414.863 187.573 414.92C187.777 414.961 187.98 415.006 188.184 415.055C188.387 415.095 188.595 415.144 188.806 415.201L188.538 417.069C188.204 416.955 187.813 416.857 187.366 416.776C186.926 416.686 186.454 416.642 185.95 416.642C185.437 416.642 184.981 416.707 184.583 416.837C184.192 416.959 183.866 417.146 183.606 417.398C183.329 417.659 183.118 417.997 182.971 418.412C182.833 418.827 182.764 419.311 182.764 419.864V420.792H187.854V422.538H182.764V434H180.493ZM191.993 415.25H198.743V432.047H203.052V434H191.993V432.047H196.485V417.215H191.993V415.25ZM211.988 434.244C211.061 434.244 210.206 434.085 209.425 433.768C208.652 433.451 207.988 433.007 207.435 432.438C206.882 431.868 206.45 431.192 206.141 430.411C205.832 429.63 205.677 428.779 205.677 427.86V427.347C205.677 426.281 205.848 425.329 206.19 424.491C206.532 423.644 206.987 422.928 207.557 422.342C208.119 421.764 208.757 421.321 209.474 421.012C210.198 420.702 210.938 420.548 211.695 420.548C212.647 420.548 213.478 420.715 214.186 421.048C214.902 421.374 215.496 421.826 215.968 422.403C216.44 422.989 216.79 423.677 217.018 424.466C217.254 425.256 217.372 426.11 217.372 427.03V428.043H207.936V428.128C207.993 428.771 208.119 429.337 208.314 429.825C208.517 430.313 208.794 430.745 209.144 431.119C209.502 431.518 209.933 431.831 210.438 432.059C210.943 432.287 211.5 432.401 212.11 432.401C212.916 432.401 213.632 432.238 214.259 431.913C214.885 431.587 215.406 431.156 215.821 430.619L217.201 431.693C216.761 432.36 216.102 432.954 215.223 433.475C214.352 433.988 213.274 434.244 211.988 434.244ZM211.695 422.403C211.24 422.403 210.808 422.489 210.401 422.66C209.994 422.822 209.628 423.062 209.303 423.38C208.977 423.705 208.701 424.104 208.473 424.576C208.253 425.04 208.098 425.577 208.009 426.188H215.113V426.078C215.113 425.671 215.036 425.235 214.881 424.771C214.727 424.299 214.511 423.893 214.234 423.551C213.958 423.209 213.608 422.932 213.185 422.721C212.77 422.509 212.273 422.403 211.695 422.403ZM226.125 425.687L229.652 420.792H232.301L227.382 427.323L232.436 434H229.823L226.173 428.971L222.523 434H219.887L224.94 427.323L220.021 420.792H222.633L226.125 425.687ZM245.058 427.152H235.72V425.296H245.058V427.152ZM253.066 434V422.538H249.429V420.792H253.066V419.864C253.066 419.018 253.188 418.277 253.433 417.643C253.685 417 254.039 416.463 254.495 416.031C254.942 415.6 255.483 415.274 256.118 415.055C256.753 414.835 257.461 414.725 258.242 414.725C258.568 414.725 258.889 414.745 259.207 414.786C259.524 414.819 259.837 414.863 260.146 414.92C260.35 414.961 260.553 415.006 260.757 415.055C260.96 415.095 261.168 415.144 261.379 415.201L261.111 417.069C260.777 416.955 260.387 416.857 259.939 416.776C259.5 416.686 259.028 416.642 258.523 416.642C258.01 416.642 257.555 416.707 257.156 416.837C256.765 416.959 256.44 417.146 256.179 417.398C255.903 417.659 255.691 417.997 255.544 418.412C255.406 418.827 255.337 419.311 255.337 419.864V420.792H260.427V422.538H255.337V434H253.066ZM264.566 415.25H271.316V432.047H275.625V434H264.566V432.047H269.058V417.215H264.566V415.25ZM278.092 427.274C278.092 426.322 278.23 425.439 278.507 424.625C278.784 423.803 279.182 423.091 279.703 422.489C280.216 421.887 280.842 421.415 281.583 421.073C282.324 420.723 283.158 420.548 284.085 420.548C285.021 420.548 285.86 420.723 286.6 421.073C287.349 421.415 287.984 421.887 288.504 422.489C289.017 423.091 289.412 423.803 289.688 424.625C289.965 425.439 290.104 426.322 290.104 427.274V427.542C290.104 428.495 289.965 429.378 289.688 430.191C289.412 431.005 289.017 431.713 288.504 432.315C287.984 432.918 287.353 433.39 286.612 433.731C285.872 434.073 285.038 434.244 284.11 434.244C283.174 434.244 282.332 434.073 281.583 433.731C280.842 433.39 280.216 432.918 279.703 432.315C279.182 431.713 278.784 431.005 278.507 430.191C278.23 429.378 278.092 428.495 278.092 427.542V427.274ZM280.35 427.542C280.35 428.194 280.427 428.816 280.582 429.41C280.737 429.996 280.973 430.513 281.29 430.96C281.599 431.408 281.99 431.762 282.462 432.022C282.934 432.283 283.483 432.413 284.11 432.413C284.728 432.413 285.27 432.283 285.733 432.022C286.205 431.762 286.6 431.408 286.917 430.96C287.227 430.513 287.459 429.996 287.613 429.41C287.768 428.816 287.845 428.194 287.845 427.542V427.274C287.845 426.631 287.764 426.017 287.601 425.431C287.446 424.837 287.215 424.316 286.905 423.868C286.588 423.421 286.193 423.067 285.721 422.806C285.257 422.538 284.712 422.403 284.085 422.403C283.459 422.403 282.914 422.538 282.45 422.806C281.986 423.067 281.599 423.421 281.29 423.868C280.973 424.316 280.737 424.837 280.582 425.431C280.427 426.017 280.35 426.631 280.35 427.274V427.542ZM294.511 434L291.703 420.792H293.705L295.243 429.215L295.512 431.107L295.841 429.215L297.953 420.792H299.406L301.505 429.215L301.859 431.29L302.189 429.215L303.654 420.792H305.656L302.848 434H301.066L299.003 425.907L298.661 423.856L298.332 425.907L296.293 434H294.511ZM312.297 432.535C312.297 432.055 312.443 431.644 312.736 431.302C313.029 430.96 313.473 430.79 314.067 430.79C314.653 430.79 315.096 430.96 315.397 431.302C315.707 431.636 315.861 432.047 315.861 432.535C315.861 433.015 315.707 433.418 315.397 433.744C315.088 434.069 314.645 434.232 314.067 434.232C313.481 434.232 313.037 434.069 312.736 433.744C312.443 433.41 312.297 433.007 312.297 432.535ZM312.297 421.842C312.297 421.362 312.443 420.951 312.736 420.609C313.029 420.267 313.473 420.096 314.067 420.096C314.653 420.096 315.096 420.267 315.397 420.609C315.707 420.943 315.861 421.354 315.861 421.842C315.861 422.322 315.707 422.725 315.397 423.05C315.088 423.376 314.645 423.539 314.067 423.539C313.481 423.539 313.037 423.376 312.736 423.05C312.443 422.717 312.297 422.314 312.297 421.842ZM342.413 432.413C342.819 432.413 343.214 432.348 343.597 432.218C343.987 432.088 344.333 431.904 344.634 431.668C344.935 431.441 345.175 431.172 345.354 430.863C345.542 430.545 345.639 430.204 345.647 429.837H347.784C347.776 430.423 347.621 430.985 347.32 431.522C347.027 432.051 346.632 432.515 346.136 432.914C345.639 433.32 345.07 433.646 344.427 433.89C343.784 434.126 343.112 434.244 342.413 434.244C341.412 434.244 340.537 434.065 339.788 433.707C339.039 433.349 338.417 432.865 337.92 432.254C337.416 431.652 337.037 430.956 336.785 430.167C336.533 429.369 336.407 428.531 336.407 427.652V427.14C336.407 426.269 336.533 425.435 336.785 424.637C337.037 423.84 337.416 423.136 337.92 422.525C338.417 421.923 339.039 421.443 339.788 421.085C340.537 420.727 341.412 420.548 342.413 420.548C343.194 420.548 343.91 420.674 344.561 420.926C345.22 421.17 345.79 421.504 346.27 421.927C346.742 422.359 347.112 422.867 347.381 423.453C347.649 424.039 347.784 424.666 347.784 425.333H345.647C345.639 424.934 345.55 424.56 345.379 424.21C345.216 423.852 344.992 423.539 344.708 423.27C344.423 423.001 344.081 422.79 343.682 422.635C343.292 422.481 342.868 422.403 342.413 422.403C341.713 422.403 341.123 422.546 340.643 422.831C340.171 423.107 339.788 423.469 339.495 423.917C339.202 424.373 338.991 424.881 338.86 425.443C338.738 426.004 338.677 426.57 338.677 427.14V427.652C338.677 428.23 338.738 428.804 338.86 429.374C338.991 429.935 339.202 430.44 339.495 430.887C339.78 431.343 340.158 431.713 340.63 431.998C341.111 432.275 341.705 432.413 342.413 432.413ZM350.665 427.274C350.665 426.322 350.803 425.439 351.08 424.625C351.357 423.803 351.756 423.091 352.276 422.489C352.789 421.887 353.416 421.415 354.156 421.073C354.897 420.723 355.731 420.548 356.659 420.548C357.595 420.548 358.433 420.723 359.173 421.073C359.922 421.415 360.557 421.887 361.078 422.489C361.59 423.091 361.985 423.803 362.262 424.625C362.538 425.439 362.677 426.322 362.677 427.274V427.542C362.677 428.495 362.538 429.378 362.262 430.191C361.985 431.005 361.59 431.713 361.078 432.315C360.557 432.918 359.926 433.39 359.186 433.731C358.445 434.073 357.611 434.244 356.683 434.244C355.747 434.244 354.905 434.073 354.156 433.731C353.416 433.39 352.789 432.918 352.276 432.315C351.756 431.713 351.357 431.005 351.08 430.191C350.803 429.378 350.665 428.495 350.665 427.542V427.274ZM352.923 427.542C352.923 428.194 353.001 428.816 353.155 429.41C353.31 429.996 353.546 430.513 353.863 430.96C354.173 431.408 354.563 431.762 355.035 432.022C355.507 432.283 356.056 432.413 356.683 432.413C357.302 432.413 357.843 432.283 358.307 432.022C358.779 431.762 359.173 431.408 359.491 430.96C359.8 430.513 360.032 429.996 360.187 429.41C360.341 428.816 360.418 428.194 360.418 427.542V427.274C360.418 426.631 360.337 426.017 360.174 425.431C360.02 424.837 359.788 424.316 359.479 423.868C359.161 423.421 358.766 423.067 358.294 422.806C357.831 422.538 357.285 422.403 356.659 422.403C356.032 422.403 355.487 422.538 355.023 422.806C354.559 423.067 354.173 423.421 353.863 423.868C353.546 424.316 353.31 424.837 353.155 425.431C353.001 426.017 352.923 426.631 352.923 427.274V427.542ZM366.168 415.25H372.919V432.047H377.228V434H366.168V432.047H370.661V417.215H366.168V415.25ZM389.033 434L388.898 432.181C388.459 432.832 387.91 433.341 387.25 433.707C386.591 434.065 385.83 434.244 384.968 434.244C384.276 434.244 383.649 434.138 383.088 433.927C382.526 433.707 382.046 433.369 381.647 432.914C381.249 432.458 380.939 431.88 380.72 431.18C380.508 430.472 380.402 429.626 380.402 428.641V420.792H382.661V428.666C382.661 429.382 382.718 429.976 382.832 430.448C382.945 430.92 383.116 431.294 383.344 431.571C383.572 431.856 383.849 432.055 384.174 432.169C384.508 432.283 384.89 432.34 385.322 432.34C385.826 432.34 386.278 432.283 386.677 432.169C387.076 432.047 387.421 431.88 387.714 431.668C387.958 431.498 388.17 431.294 388.349 431.058C388.536 430.814 388.691 430.549 388.813 430.265V420.792H391.083V434H389.033ZM395.881 420.792L395.942 422.037C396.211 421.573 396.561 421.211 396.992 420.951C397.432 420.69 397.961 420.556 398.579 420.548C398.929 420.548 399.242 420.589 399.519 420.67C399.804 420.743 400.052 420.853 400.264 421C400.418 421.113 400.557 421.252 400.679 421.415C400.809 421.577 400.919 421.76 401.008 421.964C401.122 421.777 401.257 421.602 401.411 421.439C401.566 421.276 401.733 421.134 401.912 421.012C402.139 420.873 402.392 420.764 402.668 420.682C402.953 420.601 403.263 420.556 403.596 420.548C404.052 420.548 404.463 420.617 404.829 420.755C405.195 420.886 405.505 421.081 405.757 421.341C406.034 421.634 406.245 422.017 406.392 422.489C406.538 422.953 406.611 423.502 406.611 424.137V434H404.463V424.112C404.463 423.836 404.43 423.591 404.365 423.38C404.3 423.168 404.207 422.993 404.084 422.855C403.954 422.725 403.792 422.627 403.596 422.562C403.409 422.497 403.189 422.464 402.937 422.464C402.668 422.464 402.437 422.501 402.241 422.574C402.046 422.647 401.883 422.745 401.753 422.867C401.623 422.997 401.521 423.148 401.448 423.319C401.375 423.482 401.326 423.665 401.301 423.868C401.301 423.909 401.301 423.95 401.301 423.99C401.301 424.023 401.301 424.063 401.301 424.112V434H399.153V424.1C399.153 423.823 399.12 423.579 399.055 423.368C398.998 423.156 398.905 422.981 398.774 422.843C398.652 422.713 398.498 422.619 398.311 422.562C398.132 422.497 397.92 422.464 397.676 422.464C397.407 422.464 397.171 422.497 396.968 422.562C396.772 422.619 396.606 422.704 396.467 422.818C396.361 422.908 396.268 423.01 396.187 423.124C396.113 423.237 396.052 423.36 396.003 423.49V434H393.855V420.792H395.881ZM409.358 434V420.792H411.385L411.543 422.745C411.739 422.468 411.95 422.216 412.178 421.988C412.414 421.752 412.662 421.549 412.923 421.378C413.313 421.118 413.737 420.918 414.192 420.78C414.656 420.633 415.145 420.556 415.657 420.548C416.349 420.548 416.976 420.646 417.537 420.841C418.107 421.036 418.591 421.341 418.99 421.756C419.389 422.171 419.694 422.7 419.905 423.343C420.125 423.978 420.235 424.735 420.235 425.614V434H417.977V425.663C417.977 425.077 417.911 424.58 417.781 424.173C417.651 423.766 417.46 423.437 417.208 423.185C416.947 422.932 416.63 422.749 416.255 422.635C415.889 422.521 415.466 422.464 414.986 422.464C414.571 422.464 414.184 422.525 413.826 422.647C413.468 422.761 413.139 422.92 412.837 423.124C412.593 423.303 412.365 423.51 412.154 423.746C411.95 423.982 411.771 424.243 411.617 424.527V434H409.358ZM433.749 427.152H424.41V425.296H433.749V427.152ZM447.042 420.548C447.458 420.548 447.889 420.576 448.336 420.633C448.792 420.69 449.134 420.768 449.362 420.865L449.057 423.075C448.617 422.977 448.198 422.908 447.799 422.867C447.409 422.818 446.998 422.794 446.566 422.794C446.013 422.794 445.513 422.863 445.065 423.001C444.617 423.132 444.227 423.327 443.893 423.587C443.592 423.815 443.327 424.096 443.1 424.43C442.88 424.755 442.697 425.121 442.55 425.528V434H440.28V420.792H442.428L442.526 422.562L442.538 422.892C443.075 422.167 443.718 421.598 444.467 421.183C445.224 420.759 446.082 420.548 447.042 420.548ZM458.737 434.244C457.81 434.244 456.955 434.085 456.174 433.768C455.401 433.451 454.737 433.007 454.184 432.438C453.631 431.868 453.199 431.192 452.89 430.411C452.581 429.63 452.426 428.779 452.426 427.86V427.347C452.426 426.281 452.597 425.329 452.939 424.491C453.281 423.644 453.736 422.928 454.306 422.342C454.868 421.764 455.507 421.321 456.223 421.012C456.947 420.702 457.688 420.548 458.444 420.548C459.396 420.548 460.227 420.715 460.935 421.048C461.651 421.374 462.245 421.826 462.717 422.403C463.189 422.989 463.539 423.677 463.767 424.466C464.003 425.256 464.121 426.11 464.121 427.03V428.043H454.685V428.128C454.742 428.771 454.868 429.337 455.063 429.825C455.266 430.313 455.543 430.745 455.893 431.119C456.251 431.518 456.682 431.831 457.187 432.059C457.692 432.287 458.249 432.401 458.859 432.401C459.665 432.401 460.381 432.238 461.008 431.913C461.634 431.587 462.155 431.156 462.57 430.619L463.95 431.693C463.51 432.36 462.851 432.954 461.972 433.475C461.101 433.988 460.023 434.244 458.737 434.244ZM458.444 422.403C457.989 422.403 457.557 422.489 457.15 422.66C456.743 422.822 456.377 423.062 456.052 423.38C455.726 423.705 455.45 424.104 455.222 424.576C455.002 425.04 454.847 425.577 454.758 426.188H461.862V426.078C461.862 425.671 461.785 425.235 461.63 424.771C461.476 424.299 461.26 423.893 460.983 423.551C460.707 423.209 460.357 422.932 459.934 422.721C459.519 422.509 459.022 422.403 458.444 422.403ZM471.921 434L466.489 420.792H468.809L472.593 430.753L472.8 431.571L473.02 430.753L476.719 420.792H479.026L473.643 434H471.921ZM487.767 434.244C486.839 434.244 485.984 434.085 485.203 433.768C484.43 433.451 483.767 433.007 483.213 432.438C482.66 431.868 482.229 431.192 481.919 430.411C481.61 429.63 481.456 428.779 481.456 427.86V427.347C481.456 426.281 481.626 425.329 481.968 424.491C482.31 423.644 482.766 422.928 483.335 422.342C483.897 421.764 484.536 421.321 485.252 421.012C485.976 420.702 486.717 420.548 487.474 420.548C488.426 420.548 489.256 420.715 489.964 421.048C490.68 421.374 491.274 421.826 491.746 422.403C492.218 422.989 492.568 423.677 492.796 424.466C493.032 425.256 493.15 426.11 493.15 427.03V428.043H483.714V428.128C483.771 428.771 483.897 429.337 484.092 429.825C484.296 430.313 484.572 430.745 484.922 431.119C485.28 431.518 485.712 431.831 486.216 432.059C486.721 432.287 487.278 432.401 487.889 432.401C488.694 432.401 489.41 432.238 490.037 431.913C490.664 431.587 491.185 431.156 491.6 430.619L492.979 431.693C492.54 432.36 491.88 432.954 491.001 433.475C490.131 433.988 489.052 434.244 487.767 434.244ZM487.474 422.403C487.018 422.403 486.587 422.489 486.18 422.66C485.773 422.822 485.407 423.062 485.081 423.38C484.756 423.705 484.479 424.104 484.251 424.576C484.031 425.04 483.877 425.577 483.787 426.188H490.892V426.078C490.892 425.671 490.814 425.235 490.66 424.771C490.505 424.299 490.289 423.893 490.013 423.551C489.736 423.209 489.386 422.932 488.963 422.721C488.548 422.509 488.051 422.403 487.474 422.403ZM505.101 420.548C505.516 420.548 505.947 420.576 506.395 420.633C506.851 420.69 507.193 420.768 507.42 420.865L507.115 423.075C506.676 422.977 506.257 422.908 505.858 422.867C505.467 422.818 505.056 422.794 504.625 422.794C504.072 422.794 503.571 422.863 503.124 423.001C502.676 423.132 502.285 423.327 501.952 423.587C501.651 423.815 501.386 424.096 501.158 424.43C500.938 424.755 500.755 425.121 500.609 425.528V434H498.338V420.792H500.487L500.584 422.562L500.597 422.892C501.134 422.167 501.777 421.598 502.525 421.183C503.282 420.759 504.141 420.548 505.101 420.548ZM519.738 430.497C519.738 430.228 519.685 429.988 519.579 429.776C519.473 429.557 519.294 429.357 519.042 429.178C518.79 428.999 518.456 428.836 518.041 428.69C517.626 428.535 517.109 428.397 516.491 428.275C515.734 428.12 515.042 427.933 514.416 427.713C513.797 427.494 513.268 427.229 512.829 426.92C512.381 426.619 512.035 426.265 511.791 425.858C511.547 425.443 511.425 424.963 511.425 424.417C511.425 423.88 511.551 423.38 511.803 422.916C512.056 422.444 512.41 422.033 512.865 421.683C513.321 421.333 513.862 421.056 514.489 420.853C515.124 420.65 515.819 420.548 516.576 420.548C517.39 420.548 518.122 420.654 518.773 420.865C519.424 421.077 519.978 421.37 520.434 421.744C520.889 422.118 521.239 422.558 521.483 423.062C521.736 423.559 521.862 424.096 521.862 424.674H519.604C519.604 424.389 519.53 424.112 519.384 423.844C519.237 423.567 519.034 423.323 518.773 423.111C518.513 422.9 518.196 422.729 517.821 422.599C517.455 422.468 517.04 422.403 516.576 422.403C516.096 422.403 515.673 422.456 515.307 422.562C514.949 422.668 514.652 422.81 514.416 422.989C514.171 423.168 513.988 423.376 513.866 423.612C513.744 423.848 513.683 424.092 513.683 424.344C513.683 424.605 513.732 424.837 513.83 425.04C513.927 425.243 514.098 425.427 514.342 425.589C514.578 425.752 514.896 425.899 515.294 426.029C515.701 426.159 516.214 426.285 516.833 426.407C517.646 426.578 518.375 426.778 519.018 427.005C519.66 427.225 520.202 427.49 520.641 427.799C521.081 428.116 521.414 428.482 521.642 428.897C521.878 429.312 521.996 429.793 521.996 430.338C521.996 430.924 521.862 431.457 521.593 431.937C521.333 432.417 520.967 432.828 520.495 433.17C520.023 433.512 519.457 433.776 518.798 433.963C518.139 434.151 517.418 434.244 516.637 434.244C515.742 434.244 514.944 434.126 514.245 433.89C513.545 433.646 512.955 433.325 512.475 432.926C511.986 432.535 511.612 432.079 511.352 431.559C511.099 431.038 510.973 430.497 510.973 429.935H513.231C513.264 430.399 513.386 430.79 513.598 431.107C513.817 431.424 514.09 431.681 514.416 431.876C514.733 432.071 515.087 432.21 515.478 432.291C515.868 432.372 516.255 432.413 516.637 432.413C517.239 432.413 517.764 432.344 518.212 432.206C518.66 432.059 519.009 431.86 519.262 431.607C519.416 431.453 519.534 431.282 519.616 431.095C519.697 430.908 519.738 430.708 519.738 430.497ZM531.311 434.244C530.383 434.244 529.528 434.085 528.747 433.768C527.974 433.451 527.311 433.007 526.757 432.438C526.204 431.868 525.773 431.192 525.463 430.411C525.154 429.63 525 428.779 525 427.86V427.347C525 426.281 525.17 425.329 525.512 424.491C525.854 423.644 526.31 422.928 526.879 422.342C527.441 421.764 528.08 421.321 528.796 421.012C529.52 420.702 530.261 420.548 531.018 420.548C531.97 420.548 532.8 420.715 533.508 421.048C534.224 421.374 534.818 421.826 535.29 422.403C535.762 422.989 536.112 423.677 536.34 424.466C536.576 425.256 536.694 426.11 536.694 427.03V428.043H527.258V428.128C527.315 428.771 527.441 429.337 527.636 429.825C527.84 430.313 528.116 430.745 528.466 431.119C528.824 431.518 529.256 431.831 529.76 432.059C530.265 432.287 530.822 432.401 531.433 432.401C532.238 432.401 532.954 432.238 533.581 431.913C534.208 431.587 534.729 431.156 535.144 430.619L536.523 431.693C536.083 432.36 535.424 432.954 534.545 433.475C533.675 433.988 532.596 434.244 531.311 434.244ZM531.018 422.403C530.562 422.403 530.131 422.489 529.724 422.66C529.317 422.822 528.951 423.062 528.625 423.38C528.299 423.705 528.023 424.104 527.795 424.576C527.575 425.04 527.421 425.577 527.331 426.188H534.436V426.078C534.436 425.671 534.358 425.235 534.204 424.771C534.049 424.299 533.833 423.893 533.557 423.551C533.28 423.209 532.93 422.932 532.507 422.721C532.092 422.509 531.595 422.403 531.018 422.403Z" fill="white"/>
<rect x="172.5" y="452.5" width="436" height="376" rx="18.5" stroke="white" stroke-width="3"/>
<rect x="189" y="470" width="90" height="78" rx="10" fill="#0066FF"/>
<path d="M236.034 518H232.604V504.365L228.112 505.976V503.022L235.851 500.227H236.034V518Z" fill="white"/>
<rect x="189" y="558" width="90" height="78" rx="10" fill="#0066FF"/>
<path d="M239.342 606.467H227.221V604.147L232.97 597.971C233.418 597.482 233.796 597.039 234.105 596.64C234.415 596.241 234.667 595.875 234.862 595.542C235.049 595.216 235.184 594.911 235.265 594.626C235.355 594.341 235.399 594.064 235.399 593.796C235.399 593.397 235.342 593.043 235.229 592.734C235.115 592.425 234.956 592.16 234.752 591.94C234.541 591.729 234.289 591.566 233.996 591.452C233.711 591.338 233.393 591.281 233.043 591.281C232.588 591.281 232.185 591.346 231.835 591.477C231.493 591.599 231.208 591.782 230.98 592.026C230.744 592.278 230.565 592.591 230.443 592.966C230.321 593.34 230.26 593.767 230.26 594.248H226.854C226.854 593.458 227.005 592.714 227.306 592.014C227.607 591.306 228.035 590.687 228.588 590.158C229.133 589.629 229.792 589.214 230.565 588.913C231.347 588.604 232.209 588.449 233.153 588.449C234.057 588.449 234.854 588.575 235.546 588.828C236.246 589.08 236.832 589.434 237.304 589.89C237.768 590.345 238.122 590.895 238.366 591.538C238.61 592.172 238.732 592.876 238.732 593.649C238.732 594.235 238.638 594.797 238.451 595.334C238.272 595.863 238.016 596.388 237.682 596.909C237.34 597.43 236.933 597.963 236.461 598.508C235.989 599.045 235.465 599.611 234.887 600.205L231.542 603.745H239.342V606.467Z" fill="white"/>
<rect x="189" y="646" width="90" height="78" rx="10" fill="#0066FF"/>
<path d="M231.139 684.091H232.982C233.471 684.091 233.89 684.026 234.24 683.896C234.598 683.757 234.887 683.566 235.106 683.322C235.31 683.11 235.46 682.854 235.558 682.553C235.664 682.243 235.717 681.91 235.717 681.552C235.717 681.202 235.664 680.884 235.558 680.6C235.46 680.307 235.31 680.054 235.106 679.843C234.903 679.639 234.643 679.481 234.325 679.367C234.016 679.253 233.654 679.196 233.239 679.196C232.897 679.196 232.576 679.245 232.274 679.342C231.981 679.44 231.725 679.578 231.505 679.757C231.278 679.944 231.098 680.168 230.968 680.429C230.838 680.689 230.773 680.982 230.773 681.308H227.379C227.379 680.583 227.526 679.924 227.819 679.33C228.12 678.736 228.531 678.223 229.052 677.792C229.573 677.369 230.183 677.039 230.883 676.803C231.591 676.567 232.352 676.449 233.166 676.449C234.044 676.449 234.85 676.559 235.583 676.779C236.315 676.99 236.942 677.308 237.462 677.731C237.983 678.162 238.386 678.695 238.671 679.33C238.964 679.957 239.11 680.685 239.11 681.515C239.11 681.898 239.053 682.276 238.939 682.65C238.826 683.017 238.659 683.367 238.439 683.7C238.219 684.034 237.947 684.343 237.621 684.628C237.296 684.905 236.921 685.145 236.498 685.348C236.994 685.527 237.422 685.755 237.78 686.032C238.146 686.308 238.447 686.622 238.683 686.972C238.919 687.33 239.094 687.72 239.208 688.144C239.322 688.567 239.379 689.014 239.379 689.486C239.379 690.316 239.22 691.057 238.903 691.708C238.585 692.359 238.15 692.904 237.597 693.344C237.043 693.791 236.384 694.133 235.619 694.369C234.862 694.597 234.044 694.711 233.166 694.711C232.409 694.711 231.668 694.609 230.944 694.406C230.228 694.194 229.589 693.877 229.027 693.454C228.466 693.039 228.014 692.514 227.672 691.879C227.339 691.244 227.172 690.495 227.172 689.633H230.565C230.565 689.975 230.631 690.292 230.761 690.585C230.891 690.87 231.078 691.114 231.322 691.317C231.558 691.529 231.839 691.696 232.165 691.818C232.49 691.932 232.848 691.989 233.239 691.989C233.678 691.989 234.073 691.928 234.423 691.806C234.773 691.684 235.066 691.505 235.302 691.269C235.53 691.057 235.701 690.797 235.814 690.487C235.937 690.178 235.998 689.832 235.998 689.45C235.998 688.97 235.928 688.559 235.79 688.217C235.652 687.875 235.452 687.594 235.192 687.375C234.923 687.155 234.602 686.992 234.228 686.886C233.861 686.78 233.446 686.728 232.982 686.728H231.139V684.091Z" fill="white"/>
<rect x="189" y="734" width="90" height="78" rx="10" fill="#0066FF"/>
<path d="M237.633 775.863H239.696V778.609H237.633V782.467H234.24V778.609H226.854L226.72 776.485L234.191 764.693H237.633V775.863ZM230.053 775.863H234.24V769.259L233.91 769.845L230.053 775.863Z" fill="white"/>
</svg>
