<svg width="251" height="53" viewBox="0 0 251 53" fill="none" xmlns="http://www.w3.org/2000/svg">
<path fill-rule="evenodd" clip-rule="evenodd" d="M30.2539 10.3372C32.0874 9.65331 34.072 9.27946 36.1438 9.27946C45.4524 9.27946 52.9984 16.8255 52.9984 26.134V27.0809C52.9984 29.3915 52.5335 31.5934 51.6921 33.5983C58.096 31.2095 62.6567 25.0381 62.6567 17.8015V16.8546C62.6567 7.54605 55.1107 0 45.8022 0C38.8042 0 32.8023 4.26487 30.2539 10.3372Z" fill="white"/>
<path fill-rule="evenodd" clip-rule="evenodd" d="M42.2492 42.1988C40.4166 42.8847 38.4325 43.2607 36.3607 43.263C27.0522 43.2734 19.4977 35.7357 19.4874 26.4272L19.4863 25.4803C19.4837 23.1698 19.9462 20.9673 20.7854 18.9615C14.384 21.3573 9.83002 27.5339 9.83809 34.7706L9.83914 35.7175C9.84952 45.026 17.404 52.5637 26.7125 52.5533C33.7105 52.5455 39.7076 48.2739 42.2492 42.1988Z" fill="white"/>
<path fill-rule="evenodd" clip-rule="evenodd" d="M61.3368 10.4068C62.0526 12.2281 62.461 14.2058 62.4972 16.2774C62.6596 25.5845 55.2464 33.2611 45.9393 33.4236L44.9926 33.4401C42.6824 33.4804 40.4726 33.054 38.4533 32.2477C40.9535 38.609 47.2036 43.0613 54.4391 42.935L55.3859 42.9184C64.693 42.756 72.1062 35.0794 71.9437 25.7723C71.8216 18.7754 67.4527 12.8488 61.3368 10.4068Z" fill="#0066FF"/>
<path fill-rule="evenodd" clip-rule="evenodd" d="M11.462 42.6733C10.7145 40.8648 10.2716 38.8945 10.1993 36.8238C9.8744 27.5209 17.1525 19.7161 26.4554 19.3913L27.4017 19.3582C29.7107 19.2776 31.9275 19.6654 33.9605 20.4362C31.3496 14.1196 25.0228 9.77709 17.7906 10.0296L16.8443 10.0627C7.54147 10.3876 0.263367 18.1924 0.58823 27.4952C0.832459 34.489 5.30428 40.3385 11.462 42.6733Z" fill="#0066FF"/>
<path d="M36.6448 18.559C36.9141 20.867 37.0488 22.0211 37.5197 22.9526C38.0847 24.0704 38.9925 24.9782 40.1103 25.5433C41.0418 26.0142 42.1959 26.1488 44.504 26.4181C42.1959 26.6874 41.0418 26.8221 40.1103 27.293C38.9925 27.8581 38.0847 28.7658 37.5197 29.8837C37.0488 30.8152 36.9141 31.9692 36.6448 34.2773L36.6146 34.0669C36.2901 31.8069 36.1278 30.6768 35.6421 29.7671C35.0724 28.7 34.187 27.835 33.107 27.2903C32.1862 26.8259 31.0527 26.6899 28.7856 26.4181C31.0527 26.1463 32.1862 26.0104 33.107 25.546C34.187 25.0013 35.0724 24.1362 35.6421 23.0692C36.1278 22.1594 36.2901 21.0294 36.6146 18.7693L36.6448 18.559Z" fill="white"/>
<path d="M88.7735 25.7455C88.7735 22.6912 89.7267 20.172 91.6332 18.1877C93.5591 16.1839 96.127 15.1821 99.3369 15.1821C102.197 15.1821 104.521 15.9213 106.311 17.3998C108.12 18.8588 109.181 20.8626 109.492 23.411H104.823C104.589 22.0882 103.986 21.0668 103.014 20.3471C102.041 19.6273 100.835 19.2674 99.3953 19.2674C97.5666 19.2674 96.1173 19.8315 95.0474 20.9598C93.9774 22.0687 93.4424 23.6639 93.4424 25.7455C93.4424 27.8271 93.9774 29.432 95.0474 30.5603C96.1173 31.6886 97.5666 32.2528 99.3953 32.2528C100.835 32.2528 102.041 31.8929 103.014 31.1731C103.986 30.4339 104.589 29.4028 104.823 28.08H109.492C109.181 30.6479 108.12 32.6711 106.311 34.1495C104.521 35.6086 102.197 36.3381 99.3369 36.3381C96.127 36.3381 93.5591 35.346 91.6332 33.3617C89.7267 31.3579 88.7735 28.8192 88.7735 25.7455ZM110.354 28.6636C110.354 26.1929 111.132 24.3059 112.688 23.0025C114.244 21.6796 116.238 21.0182 118.67 21.0182C121.102 21.0182 123.086 21.6796 124.623 23.0025C126.179 24.3059 126.957 26.1929 126.957 28.6636C126.957 31.1342 126.179 33.031 124.623 34.3538C123.086 35.6767 121.102 36.3381 118.67 36.3381C116.238 36.3381 114.244 35.6864 112.688 34.383C111.132 33.0601 110.354 31.1537 110.354 28.6636ZM115.022 28.6636C115.022 29.8697 115.343 30.7743 115.985 31.3774C116.627 31.961 117.522 32.2528 118.67 32.2528C119.798 32.2528 120.684 31.961 121.326 31.3774C121.967 30.7743 122.288 29.8697 122.288 28.6636C122.288 27.4769 121.967 26.5917 121.326 26.0081C120.684 25.405 119.798 25.1035 118.67 25.1035C117.522 25.1035 116.627 25.405 115.985 26.0081C115.343 26.5917 115.022 27.4769 115.022 28.6636ZM144.995 36.0463H140.326V35.1417L141.202 32.5154H140.034C139.587 33.6827 138.916 34.6164 138.021 35.3168C137.146 35.9977 135.881 36.3381 134.228 36.3381C132.185 36.3381 130.609 35.6086 129.5 34.1495C128.391 32.6905 127.837 30.8618 127.837 28.6636C127.837 26.4653 128.391 24.6464 129.5 23.2068C130.609 21.7477 132.185 21.0182 134.228 21.0182C135.881 21.0182 137.146 21.3684 138.021 22.0687C138.916 22.7496 139.587 23.6737 140.034 24.8409H141.202L140.326 22.2146V14.5984H144.995V36.0463ZM140.326 28.6636C140.326 26.2902 139.023 25.1035 136.416 25.1035C133.809 25.1035 132.506 26.2902 132.506 28.6636C132.506 31.0564 133.809 32.2528 136.416 32.2528C139.023 32.2528 140.326 31.0564 140.326 28.6636ZM146.175 28.4885C146.175 26.1929 146.885 24.374 148.305 23.0317C149.745 21.6894 151.622 21.0182 153.937 21.0182C156.252 21.0182 158.13 21.6699 159.569 22.9733C161.009 24.2573 161.729 25.9984 161.729 28.1967V29.6557H150.552C150.552 30.5311 150.873 31.2315 151.515 31.7567C152.177 32.282 153.149 32.5446 154.433 32.5446C155.27 32.5446 155.97 32.3987 156.534 32.1069C157.099 31.8151 157.449 31.3968 157.585 30.8521H162.254C162.176 31.4163 161.962 32.0096 161.612 32.6321C161.262 33.2352 160.775 33.8188 160.153 34.383C159.55 34.9472 158.742 35.414 157.731 35.7837C156.739 36.1533 155.639 36.3381 154.433 36.3381C151.749 36.3381 149.696 35.5891 148.276 34.0912C146.876 32.5932 146.175 30.7257 146.175 28.4885ZM150.552 27.0294H157.351C157.351 26.4069 157.079 25.8817 156.534 25.4537C156.009 25.0257 155.143 24.8117 153.937 24.8117C152.731 24.8117 151.865 25.0257 151.34 25.4537C150.815 25.8622 150.552 26.3875 150.552 27.0294Z" fill="white"/>
<path d="M182.705 30.3852C182.705 32.2528 181.995 33.7118 180.575 34.7623C179.155 35.8128 176.928 36.3381 173.893 36.3381C170.313 36.3381 167.716 35.6475 166.102 34.2663C164.506 32.8656 163.709 30.8132 163.709 28.1091H168.378C168.378 29.6654 168.796 30.7451 169.632 31.3482C170.488 31.9513 171.957 32.2528 174.039 32.2528C176.704 32.2528 178.036 31.6497 178.036 30.4436C178.036 30.0156 177.803 29.6265 177.336 29.2764C176.869 28.9067 176.373 28.6247 175.848 28.4301C175.323 28.2161 174.506 27.9243 173.397 27.5547C173.28 27.5158 173.183 27.4866 173.105 27.4672C173.027 27.4477 172.93 27.4185 172.813 27.3796C172.716 27.3407 172.619 27.3018 172.521 27.2629C171.549 26.9322 170.839 26.689 170.391 26.5334C169.944 26.3583 169.341 26.1151 168.582 25.8039C167.823 25.4731 167.259 25.1716 166.889 24.8993C166.539 24.6074 166.16 24.2475 165.751 23.8196C165.343 23.3916 165.051 22.915 164.876 22.3897C164.72 21.8645 164.643 21.2711 164.643 20.6097C164.643 18.8588 165.323 17.5165 166.685 16.5827C168.066 15.649 170.08 15.1821 172.726 15.1821C175.741 15.1821 178.017 15.8629 179.554 17.2247C181.091 18.567 181.859 20.3179 181.859 22.4772H177.19C177.19 20.3373 175.702 19.2674 172.726 19.2674C170.449 19.2674 169.311 19.7732 169.311 20.7848C169.311 21.2517 169.535 21.631 169.983 21.9228C170.43 22.2146 171.471 22.6329 173.105 23.1776C175.828 24.1114 177.657 24.802 178.591 25.2494C181.334 26.6306 182.705 28.3426 182.705 30.3852ZM194.711 21.0182C196.617 21.0182 198.095 21.631 199.146 22.8566C200.216 24.0822 200.751 25.8233 200.751 28.08V36.0463H196.082V28.8095C196.082 27.4672 195.849 26.5139 195.382 25.9498C194.934 25.3856 194.156 25.1035 193.047 25.1035C191.685 25.1035 190.645 25.5315 189.925 26.3875C189.205 27.224 188.845 28.6247 188.845 30.5895V36.0463H184.176V14.5984H188.845V23.09L187.97 25.7163H189.137C189.448 24.3156 190.081 23.1873 191.034 22.3313C191.987 21.4559 193.213 21.0182 194.711 21.0182ZM209.986 19.2382C209.499 19.6467 208.818 19.851 207.943 19.851C207.067 19.851 206.387 19.6564 205.9 19.2674C205.433 18.8588 205.2 18.2752 205.2 17.5165C205.2 16.7773 205.443 16.2034 205.929 15.7949C206.416 15.3863 207.087 15.1821 207.943 15.1821C208.818 15.1821 209.499 15.3863 209.986 15.7949C210.491 16.2034 210.744 16.7773 210.744 17.5165C210.744 18.2558 210.491 18.8297 209.986 19.2382ZM201.902 36.0463V31.961H206.075V25.2202L202.486 25.3953V21.31L208.03 21.0182C208.847 20.9793 209.47 21.1738 209.898 21.6018C210.345 22.0298 210.569 22.6523 210.569 23.4694V31.961H214.742V36.0463H201.902ZM224.794 25.1035C223.432 25.1035 222.391 25.5315 221.671 26.3875C220.952 27.224 220.592 28.6247 220.592 30.5895V36.0463H215.923V21.31H220.592V23.09L219.716 25.7163H220.884C221.195 24.3156 221.827 23.1873 222.78 22.3313C223.734 21.4559 224.959 21.0182 226.457 21.0182C228.364 21.0182 229.842 21.631 230.893 22.8566C231.963 24.0822 232.498 25.8233 232.498 28.08V36.0463H227.829V28.8095C227.829 27.4672 227.595 26.5139 227.128 25.9498C226.681 25.3856 225.903 25.1035 224.794 25.1035ZM233.649 28.4885C233.649 26.1929 234.359 24.374 235.779 23.0317C237.219 21.6894 239.096 21.0182 241.411 21.0182C243.726 21.0182 245.603 21.6699 247.043 22.9733C248.483 24.2573 249.202 25.9984 249.202 28.1967V29.6557H238.026C238.026 30.5311 238.347 31.2315 238.989 31.7567C239.651 32.282 240.623 32.5446 241.907 32.5446C242.744 32.5446 243.444 32.3987 244.008 32.1069C244.572 31.8151 244.923 31.3968 245.059 30.8521H249.728C249.65 31.4163 249.436 32.0096 249.086 32.6321C248.735 33.2352 248.249 33.8188 247.627 34.383C247.024 34.9472 246.216 35.414 245.205 35.7837C244.212 36.1533 243.113 36.3381 241.907 36.3381C239.223 36.3381 237.17 35.5891 235.75 34.0912C234.349 32.5932 233.649 30.7257 233.649 28.4885ZM238.026 27.0294H244.825C244.825 26.4069 244.553 25.8817 244.008 25.4537C243.483 25.0257 242.617 24.8117 241.411 24.8117C240.205 24.8117 239.339 25.0257 238.814 25.4537C238.289 25.8622 238.026 26.3875 238.026 27.0294Z" fill="#0066FF"/>
</svg>
