<svg width="110" height="110" viewBox="0 0 110 110" fill="none" xmlns="http://www.w3.org/2000/svg">
<g filter="url(#filter0_d_115_344)">
<path d="M55 30V30C55.2386 32.0446 55.3579 33.067 55.5289 33.969C57.5009 44.3666 65.6334 52.4991 76.031 54.4711C76.9331 54.6422 77.9554 54.7614 80 55V55V55C77.9554 55.2386 76.9331 55.3579 76.031 55.5289C65.6334 57.5009 57.5009 65.6334 55.5289 76.031C55.3579 76.9331 55.2386 77.9554 55 80V80L54.9039 79.3309C54.6086 77.2741 54.4609 76.2457 54.2621 75.3351C52.0681 65.2871 44.106 57.5082 34.0097 55.5487C33.0946 55.3711 32.0631 55.2474 30 55V55V55C32.0631 54.7526 33.0946 54.6289 34.0097 54.4513C44.106 52.4918 52.0681 44.7129 54.2621 34.665C54.4609 33.7543 54.6086 32.7259 54.9039 30.6691L55 30Z" fill="white"/>
</g>
<defs>
<filter id="filter0_d_115_344" x="0" y="0" width="110" height="110" filterUnits="userSpaceOnUse" color-interpolation-filters="sRGB">
<feFlood flood-opacity="0" result="BackgroundImageFix"/>
<feColorMatrix in="SourceAlpha" type="matrix" values="0 0 0 0 0 0 0 0 0 0 0 0 0 0 0 0 0 0 127 0" result="hardAlpha"/>
<feOffset/>
<feGaussianBlur stdDeviation="15"/>
<feComposite in2="hardAlpha" operator="out"/>
<feColorMatrix type="matrix" values="0 0 0 0 0 0 0 0 0 0.4 0 0 0 0 1 0 0 0 0.5 0"/>
<feBlend mode="normal" in2="BackgroundImageFix" result="effect1_dropShadow_115_344"/>
<feBlend mode="normal" in="SourceGraphic" in2="effect1_dropShadow_115_344" result="shape"/>
</filter>
</defs>
</svg>
