<svg width="699" height="458" viewBox="0 0 699 458" fill="none" xmlns="http://www.w3.org/2000/svg">
<rect x="253" width="446" height="60" rx="24" fill="#0066FF"/>
<path d="M330.799 33.7C329.233 31.9833 328.449 29.8083 328.449 27.175C328.449 24.5417 329.233 22.375 330.799 20.675C332.383 18.975 334.499 18.125 337.149 18.125C339.799 18.125 341.908 18.9833 343.474 20.7C345.041 22.4 345.824 24.5583 345.824 27.175C345.824 29.8083 345.041 31.9833 343.474 33.7C341.908 35.4 339.799 36.25 337.149 36.25C334.499 36.25 332.383 35.4 330.799 33.7ZM333.074 22.625C332.141 23.7417 331.674 25.2583 331.674 27.175C331.674 29.0917 332.141 30.6167 333.074 31.75C334.008 32.8833 335.366 33.45 337.149 33.45C338.933 33.45 340.283 32.8833 341.199 31.75C342.133 30.6167 342.599 29.0917 342.599 27.175C342.599 25.2583 342.133 23.7417 341.199 22.625C340.266 21.4917 338.916 20.925 337.149 20.925C335.366 20.925 334.008 21.4917 333.074 22.625ZM346.236 29.725C346.236 27.7583 346.845 26.1833 348.061 25C349.278 23.8 350.895 23.2 352.911 23.2C354.578 23.2 356.028 23.6583 357.261 24.575C358.511 25.475 359.195 26.775 359.311 28.475H356.086C355.97 27.675 355.628 27.0667 355.061 26.65C354.495 26.2167 353.778 26 352.911 26C351.795 26 350.936 26.3417 350.336 27.025C349.753 27.6917 349.461 28.5917 349.461 29.725C349.461 30.8583 349.753 31.7667 350.336 32.45C350.936 33.1167 351.795 33.45 352.911 33.45C353.778 33.45 354.495 33.2417 355.061 32.825C355.628 32.3917 355.97 31.775 356.086 30.975H359.311C359.195 32.675 358.511 33.9833 357.261 34.9C356.028 35.8 354.578 36.25 352.911 36.25C350.895 36.25 349.278 35.6583 348.061 34.475C346.845 33.2917 346.236 31.7083 346.236 29.725ZM369.832 23.45H373.032V36H369.832V31.125H363.457V36H360.232V23.45H363.457V28.325H369.832V23.45ZM376.228 34.5C374.944 33.3333 374.303 31.7417 374.303 29.725C374.303 27.7083 374.944 26.1167 376.228 24.95C377.511 23.7833 379.169 23.2 381.203 23.2C383.219 23.2 384.869 23.7833 386.153 24.95C387.436 26.1167 388.078 27.7083 388.078 29.725C388.078 31.7417 387.436 33.3333 386.153 34.5C384.869 35.6667 383.219 36.25 381.203 36.25C379.169 36.25 377.511 35.6667 376.228 34.5ZM378.503 27C377.853 27.6667 377.528 28.575 377.528 29.725C377.528 30.875 377.853 31.7833 378.503 32.45C379.153 33.1167 380.053 33.45 381.203 33.45C382.353 33.45 383.253 33.1167 383.903 32.45C384.553 31.7833 384.878 30.875 384.878 29.725C384.878 28.575 384.553 27.6667 383.903 27C383.253 26.3333 382.353 26 381.203 26C380.053 26 379.153 26.3333 378.503 27ZM389.007 36V23.45H394.332C396.032 23.45 397.324 23.6667 398.207 24.1C399.09 24.5333 399.532 25.3083 399.532 26.425C399.532 28.0417 398.657 28.9167 396.907 29.05V29.9C399.274 29.9333 400.457 30.875 400.457 32.725C400.457 34.9083 398.724 36 395.257 36H389.007ZM392.057 28.4H394.332C395.165 28.4 395.732 28.325 396.032 28.175C396.332 28.0083 396.482 27.6333 396.482 27.05C396.482 26.5167 396.324 26.1667 396.007 26C395.69 25.8333 395.132 25.75 394.332 25.75H392.057V28.4ZM392.057 33.7H395.257C396.04 33.7 396.59 33.6 396.907 33.4C397.24 33.2 397.407 32.8083 397.407 32.225C397.407 31.625 397.24 31.225 396.907 31.025C396.59 30.8083 396.04 30.7 395.257 30.7H392.057V33.7ZM407.047 26.525C410.913 26.525 412.847 28.1 412.847 31.25C412.847 34.4167 410.913 36 407.047 36H401.722V23.45H404.947V26.525H407.047ZM414.697 36V23.45H417.922V36H414.697ZM404.947 33.2H406.797C407.83 33.2 408.555 33.0833 408.972 32.85C409.405 32.6 409.622 32.0667 409.622 31.25C409.622 30.45 409.405 29.9333 408.972 29.7C408.555 29.45 407.83 29.325 406.797 29.325H404.947V33.2ZM426.199 36V23.45H431.524C433.224 23.45 434.516 23.6667 435.399 24.1C436.283 24.5333 436.724 25.3083 436.724 26.425C436.724 28.0417 435.849 28.9167 434.099 29.05V29.9C436.466 29.9333 437.649 30.875 437.649 32.725C437.649 34.9083 435.916 36 432.449 36H426.199ZM429.249 28.4H431.524C432.358 28.4 432.924 28.325 433.224 28.175C433.524 28.0083 433.674 27.6333 433.674 27.05C433.674 26.5167 433.516 26.1667 433.199 26C432.883 25.8333 432.324 25.75 431.524 25.75H429.249V28.4ZM429.249 33.7H432.449C433.233 33.7 433.783 33.6 434.099 33.4C434.433 33.2 434.599 32.8083 434.599 32.225C434.599 31.625 434.433 31.225 434.099 31.025C433.783 30.8083 433.233 30.7 432.449 30.7H429.249V33.7ZM438.414 29.575C438.414 27.6083 439.006 26.0583 440.189 24.925C441.372 23.775 442.914 23.2 444.814 23.2C446.714 23.2 448.239 23.75 449.389 24.85C450.556 25.95 451.139 27.4417 451.139 29.325V30.375H441.464C441.497 31.3583 441.814 32.15 442.414 32.75C443.031 33.3333 443.956 33.625 445.189 33.625C446.972 33.625 448.031 32.95 448.364 31.6H451.589C451.372 32.75 450.722 33.8167 449.639 34.8C448.556 35.7667 447.072 36.25 445.189 36.25C442.972 36.25 441.289 35.6167 440.139 34.35C438.989 33.0833 438.414 31.4917 438.414 29.575ZM441.464 28.425H448.089C448.089 27.675 447.814 27.0583 447.264 26.575C446.731 26.0917 445.914 25.85 444.814 25.85C443.714 25.85 442.881 26.1 442.314 26.6C441.747 27.0833 441.464 27.6917 441.464 28.425ZM452.844 27.825C452.844 25.3583 453.369 23.4833 454.419 22.2C455.485 20.9 457.127 19.9083 459.344 19.225C460.86 18.7583 461.869 18.3833 462.369 18.1C462.885 17.8 463.202 17.4167 463.319 16.95H466.994C466.91 17.55 466.719 18.0833 466.419 18.55C466.119 19.0167 465.794 19.3917 465.444 19.675C465.11 19.9583 464.619 20.225 463.969 20.475C463.319 20.725 462.76 20.9167 462.294 21.05C461.844 21.1667 461.194 21.325 460.344 21.525C458.644 21.9083 457.385 22.475 456.569 23.225C455.752 23.9583 455.244 24.9917 455.044 26.325L454.194 28.25H455.044C455.327 26.6833 455.985 25.45 457.019 24.55C458.052 23.65 459.344 23.2 460.894 23.2C462.794 23.2 464.31 23.8 465.444 25C466.577 26.1833 467.144 27.7083 467.144 29.575C467.144 31.575 466.544 33.1917 465.344 34.425C464.144 35.6417 462.369 36.25 460.019 36.25C457.719 36.25 455.944 35.525 454.694 34.075C453.46 32.625 452.844 30.5417 452.844 27.825ZM456.069 29.775C456.069 30.8917 456.41 31.7833 457.094 32.45C457.777 33.1167 458.752 33.45 460.019 33.45C461.302 33.45 462.269 33.125 462.919 32.475C463.585 31.825 463.919 30.8917 463.919 29.675C463.919 28.4917 463.602 27.5833 462.969 26.95C462.335 26.3167 461.41 26 460.194 26C458.91 26 457.902 26.3333 457.169 27C456.435 27.65 456.069 28.575 456.069 29.775ZM468.939 28.2H481.814V30.675H468.939V28.2ZM484.065 23.45H487.29V24.65L486.715 26.575H487.54C488.29 24.325 489.957 23.2 492.54 23.2C494.29 23.2 495.665 23.825 496.665 25.075C497.682 26.3083 498.19 27.8667 498.19 29.75C498.19 31.6167 497.682 33.1667 496.665 34.4C495.665 35.6333 494.29 36.25 492.54 36.25C489.957 36.25 488.29 35.1333 487.54 32.9H486.715L487.29 34.8V40.675H484.065V23.45ZM487.29 29.75C487.29 31 487.632 31.9333 488.315 32.55C489.015 33.15 489.965 33.45 491.165 33.45C492.365 33.45 493.299 33.15 493.965 32.55C494.632 31.9333 494.965 31 494.965 29.75C494.965 28.4833 494.632 27.5417 493.965 26.925C493.299 26.3083 492.365 26 491.165 26C489.965 26 489.015 26.3083 488.315 26.925C487.632 27.5417 487.29 28.4833 487.29 29.75ZM499.186 32.55C499.186 31.4667 499.544 30.6083 500.261 29.975C500.994 29.3417 502.194 28.925 503.861 28.725L508.211 28.2C508.161 26.6333 507.194 25.85 505.311 25.85C504.427 25.85 503.719 26.05 503.186 26.45C502.669 26.8333 502.411 27.4167 502.411 28.2H499.361C499.361 26.7167 499.911 25.5167 501.011 24.6C502.111 23.6667 503.544 23.2 505.311 23.2C507.127 23.2 508.602 23.7 509.736 24.7C510.869 25.6833 511.436 27.1 511.436 28.95V33.2H513.261V36H510.711C510.161 36 509.736 35.85 509.436 35.55C509.152 35.25 509.011 34.8333 509.011 34.3V33.875L509.511 32.45H508.661C508.061 34.9833 506.377 36.25 503.611 36.25C502.711 36.25 501.944 36.125 501.311 35.875C500.694 35.625 500.244 35.2917 499.961 34.875C499.677 34.4583 499.477 34.0667 499.361 33.7C499.244 33.3167 499.186 32.9333 499.186 32.55ZM502.411 32C502.411 32.4833 502.569 32.85 502.886 33.1C503.219 33.3333 503.652 33.45 504.186 33.45C505.402 33.45 506.377 33.15 507.111 32.55C507.844 31.9333 508.211 31.1333 508.211 30.15L504.436 30.625C503.719 30.7083 503.202 30.85 502.886 31.05C502.569 31.2333 502.411 31.55 502.411 32ZM513.762 31.15H516.812C516.812 32.2333 517.028 32.975 517.462 33.375C517.895 33.7583 518.637 33.95 519.687 33.95C521.287 33.95 522.087 33.3667 522.087 32.2C522.087 31.6333 521.92 31.2333 521.587 31C521.253 30.7667 520.745 30.65 520.062 30.65H518.662V28.325H520.062C521.245 28.325 521.837 27.8583 521.837 26.925C521.837 26.425 521.662 26.0667 521.312 25.85C520.978 25.6167 520.403 25.5 519.587 25.5C518.603 25.5 517.937 25.6417 517.587 25.925C517.237 26.2083 517.062 26.7167 517.062 27.45H514.012C514.012 26.0667 514.478 25.0167 515.412 24.3C516.345 23.5667 517.737 23.2 519.587 23.2C521.287 23.2 522.595 23.5083 523.512 24.125C524.428 24.7417 524.887 25.5583 524.887 26.575C524.887 28.125 524.02 28.9583 522.287 29.075V29.9C523.103 29.95 523.778 30.1917 524.312 30.625C524.862 31.0583 525.137 31.7083 525.137 32.575C525.137 33.7083 524.662 34.6083 523.712 35.275C522.762 35.925 521.42 36.25 519.687 36.25C515.737 36.25 513.762 34.55 513.762 31.15ZM526.141 23.45H529.366V24.65L528.791 26.575H529.616C530.366 24.325 532.032 23.2 534.616 23.2C536.366 23.2 537.741 23.825 538.741 25.075C539.757 26.3083 540.266 27.8667 540.266 29.75C540.266 31.6167 539.757 33.1667 538.741 34.4C537.741 35.6333 536.366 36.25 534.616 36.25C532.032 36.25 530.366 35.1333 529.616 32.9H528.791L529.366 34.8V40.675H526.141V23.45ZM529.366 29.75C529.366 31 529.707 31.9333 530.391 32.55C531.091 33.15 532.041 33.45 533.241 33.45C534.441 33.45 535.374 33.15 536.041 32.55C536.707 31.9333 537.041 31 537.041 29.75C537.041 28.4833 536.707 27.5417 536.041 26.925C535.374 26.3083 534.441 26 533.241 26C532.041 26 531.091 26.3083 530.391 26.925C529.707 27.5417 529.366 28.4833 529.366 29.75ZM541.261 32.55C541.261 31.4667 541.619 30.6083 542.336 29.975C543.069 29.3417 544.269 28.925 545.936 28.725L550.286 28.2C550.236 26.6333 549.269 25.85 547.386 25.85C546.502 25.85 545.794 26.05 545.261 26.45C544.744 26.8333 544.486 27.4167 544.486 28.2H541.436C541.436 26.7167 541.986 25.5167 543.086 24.6C544.186 23.6667 545.619 23.2 547.386 23.2C549.202 23.2 550.677 23.7 551.811 24.7C552.944 25.6833 553.511 27.1 553.511 28.95V33.2H555.336V36H552.786C552.236 36 551.811 35.85 551.511 35.55C551.227 35.25 551.086 34.8333 551.086 34.3V33.875L551.586 32.45H550.736C550.136 34.9833 548.452 36.25 545.686 36.25C544.786 36.25 544.019 36.125 543.386 35.875C542.769 35.625 542.319 35.2917 542.036 34.875C541.752 34.4583 541.552 34.0667 541.436 33.7C541.319 33.3167 541.261 32.9333 541.261 32.55ZM544.486 32C544.486 32.4833 544.644 32.85 544.961 33.1C545.294 33.3333 545.727 33.45 546.261 33.45C547.477 33.45 548.452 33.15 549.186 32.55C549.919 31.9333 550.286 31.1333 550.286 30.15L546.511 30.625C545.794 30.7083 545.277 30.85 544.961 31.05C544.644 31.2333 544.486 31.55 544.486 32ZM555.08 27.825C555.08 25.3583 555.605 23.4833 556.655 22.2C557.722 20.9 559.363 19.9083 561.58 19.225C563.097 18.7583 564.105 18.3833 564.605 18.1C565.122 17.8 565.438 17.4167 565.555 16.95H569.23C569.147 17.55 568.955 18.0833 568.655 18.55C568.355 19.0167 568.03 19.3917 567.68 19.675C567.347 19.9583 566.855 20.225 566.205 20.475C565.555 20.725 564.997 20.9167 564.53 21.05C564.08 21.1667 563.43 21.325 562.58 21.525C560.88 21.9083 559.622 22.475 558.805 23.225C557.988 23.9583 557.48 24.9917 557.28 26.325L556.43 28.25H557.28C557.563 26.6833 558.222 25.45 559.255 24.55C560.288 23.65 561.58 23.2 563.13 23.2C565.03 23.2 566.547 23.8 567.68 25C568.813 26.1833 569.38 27.7083 569.38 29.575C569.38 31.575 568.78 33.1917 567.58 34.425C566.38 35.6417 564.605 36.25 562.255 36.25C559.955 36.25 558.18 35.525 556.93 34.075C555.697 32.625 555.08 30.5417 555.08 27.825ZM558.305 29.775C558.305 30.8917 558.647 31.7833 559.33 32.45C560.013 33.1167 560.988 33.45 562.255 33.45C563.538 33.45 564.505 33.125 565.155 32.475C565.822 31.825 566.155 30.8917 566.155 29.675C566.155 28.4917 565.838 27.5833 565.205 26.95C564.572 26.3167 563.647 26 562.43 26C561.147 26 560.138 26.3333 559.405 27C558.672 27.65 558.305 28.575 558.305 29.775ZM572.351 34.5C571.067 33.3333 570.426 31.7417 570.426 29.725C570.426 27.7083 571.067 26.1167 572.351 24.95C573.634 23.7833 575.292 23.2 577.326 23.2C579.342 23.2 580.992 23.7833 582.276 24.95C583.559 26.1167 584.201 27.7083 584.201 29.725C584.201 31.7417 583.559 33.3333 582.276 34.5C580.992 35.6667 579.342 36.25 577.326 36.25C575.292 36.25 573.634 35.6667 572.351 34.5ZM574.626 27C573.976 27.6667 573.651 28.575 573.651 29.725C573.651 30.875 573.976 31.7833 574.626 32.45C575.276 33.1167 576.176 33.45 577.326 33.45C578.476 33.45 579.376 33.1167 580.026 32.45C580.676 31.7833 581.001 30.875 581.001 29.725C581.001 28.575 580.676 27.6667 580.026 27C579.376 26.3333 578.476 26 577.326 26C576.176 26 575.276 26.3333 574.626 27ZM596.396 23.45V26.25H591.671V36H588.446V26.25H583.721V23.45H596.396ZM609.111 36H605.561L602.186 31C601.919 31.0333 601.694 31.05 601.511 31.05H600.386V36H597.161V23.45H600.386V28.225H601.436L604.236 24.45C604.753 23.7833 605.528 23.45 606.561 23.45H608.686V26.25H606.661L604.536 29.1L609.111 36ZM623.77 36H620.57V26.05L621.145 24.3H620.32L616.47 36H610.12V23.45H613.345V33.325L612.77 35.175H613.595L617.445 23.45H623.77V36Z" fill="white"/>
<rect x="220" y="138" width="247" height="60" rx="24" fill="#0066FF"/>
<path d="M323.36 156.375H326.56V174H323.36V166.775H313.885V174H310.66V156.375H313.885V163.975H323.36V156.375ZM342.361 156.375V159.175H336.486V174H333.261V159.175H327.336V156.375H342.361ZM343.145 174V156.375H349.52L353.07 173.175H353.895L357.445 156.375H363.82V174H360.595V159.3L361.195 157.2H360.345L356.645 174H350.345L346.62 157.2H345.795L346.37 159.3V174H343.145ZM367.306 174.25C366.706 174.267 366.239 174.117 365.906 173.8C365.572 173.467 365.406 173 365.406 172.4V156.375H368.631V171.45L377.331 171.2V174L367.306 174.25Z" fill="white"/>
<path d="M478 66C478 64.8954 477.105 64 476 64C474.895 64 474 64.8954 474 66H478ZM342.086 132.914C342.867 133.695 344.133 133.695 344.914 132.914L357.642 120.186C358.423 119.405 358.423 118.139 357.642 117.358C356.861 116.577 355.595 116.577 354.814 117.358L343.5 128.672L332.186 117.358C331.405 116.577 330.139 116.577 329.358 117.358C328.577 118.139 328.577 119.405 329.358 120.186L342.086 132.914ZM474 66V75H478V66H474ZM452 97H367.5V101H452V97ZM341.5 123V131.5H345.5V123H341.5ZM367.5 97C353.141 97 341.5 108.641 341.5 123H345.5C345.5 110.85 355.35 101 367.5 101V97ZM474 75C474 87.1503 464.15 97 452 97V101C466.359 101 478 89.3594 478 75H474Z" fill="#0066FF"/>
<rect y="267" width="254" height="60" rx="24" fill="#0066FF"/>
<path d="M102.538 294.175C102.538 291.558 103.329 289.4 104.913 287.7C106.496 285.983 108.613 285.125 111.263 285.125C113.646 285.125 115.579 285.758 117.063 287.025C118.546 288.275 119.421 289.992 119.688 292.175H116.463C116.263 290.808 115.704 289.758 114.788 289.025C113.888 288.292 112.729 287.925 111.313 287.925C109.563 287.925 108.196 288.483 107.213 289.6C106.246 290.7 105.763 292.225 105.763 294.175C105.763 296.125 106.246 297.658 107.213 298.775C108.196 299.892 109.563 300.45 111.313 300.45C112.729 300.45 113.888 300.083 114.788 299.35C115.704 298.6 116.263 297.542 116.463 296.175H119.688C119.421 298.375 118.546 300.108 117.063 301.375C115.579 302.625 113.646 303.25 111.263 303.25C108.613 303.25 106.496 302.4 104.913 300.7C103.329 298.983 102.538 296.808 102.538 294.175ZM135.774 298.3C135.774 301.6 133.357 303.25 128.524 303.25C125.507 303.25 123.349 302.658 122.049 301.475C120.749 300.292 120.099 298.558 120.099 296.275H123.324C123.324 297.858 123.732 298.95 124.549 299.55C125.382 300.15 126.732 300.45 128.599 300.45C129.966 300.45 130.966 300.283 131.599 299.95C132.232 299.617 132.549 299.092 132.549 298.375C132.549 298.175 132.524 297.992 132.474 297.825C132.424 297.642 132.332 297.475 132.199 297.325C132.066 297.175 131.932 297.042 131.799 296.925C131.682 296.792 131.499 296.667 131.249 296.55C130.999 296.417 130.791 296.308 130.624 296.225C130.457 296.142 130.207 296.042 129.874 295.925C129.541 295.808 129.282 295.725 129.099 295.675C128.916 295.608 128.624 295.517 128.224 295.4C127.824 295.267 127.532 295.175 127.349 295.125C126.599 294.875 126.016 294.675 125.599 294.525C125.182 294.375 124.674 294.175 124.074 293.925C123.491 293.675 123.041 293.433 122.724 293.2C122.424 292.95 122.107 292.65 121.774 292.3C121.457 291.95 121.232 291.558 121.099 291.125C120.966 290.675 120.899 290.183 120.899 289.65C120.899 288.2 121.457 287.083 122.574 286.3C123.691 285.517 125.349 285.125 127.549 285.125C130.049 285.125 131.924 285.717 133.174 286.9C134.424 288.067 135.049 289.533 135.049 291.3H131.824C131.824 289.05 130.399 287.925 127.549 287.925C125.266 287.925 124.124 288.525 124.124 289.725C124.124 290.308 124.374 290.767 124.874 291.1C125.374 291.433 126.366 291.842 127.849 292.325C130.116 293.075 131.591 293.617 132.274 293.95C134.591 295.067 135.757 296.517 135.774 298.3ZM151.956 298.3C151.956 301.6 149.539 303.25 144.706 303.25C141.689 303.25 139.531 302.658 138.231 301.475C136.931 300.292 136.281 298.558 136.281 296.275H139.506C139.506 297.858 139.914 298.95 140.731 299.55C141.564 300.15 142.914 300.45 144.781 300.45C146.147 300.45 147.147 300.283 147.781 299.95C148.414 299.617 148.731 299.092 148.731 298.375C148.731 298.175 148.706 297.992 148.656 297.825C148.606 297.642 148.514 297.475 148.381 297.325C148.247 297.175 148.114 297.042 147.981 296.925C147.864 296.792 147.681 296.667 147.431 296.55C147.181 296.417 146.972 296.308 146.806 296.225C146.639 296.142 146.389 296.042 146.056 295.925C145.722 295.808 145.464 295.725 145.281 295.675C145.097 295.608 144.806 295.517 144.406 295.4C144.006 295.267 143.714 295.175 143.531 295.125C142.781 294.875 142.197 294.675 141.781 294.525C141.364 294.375 140.856 294.175 140.256 293.925C139.672 293.675 139.222 293.433 138.906 293.2C138.606 292.95 138.289 292.65 137.956 292.3C137.639 291.95 137.414 291.558 137.281 291.125C137.147 290.675 137.081 290.183 137.081 289.65C137.081 288.2 137.639 287.083 138.756 286.3C139.872 285.517 141.531 285.125 143.731 285.125C146.231 285.125 148.106 285.717 149.356 286.9C150.606 288.067 151.231 289.533 151.231 291.3H148.006C148.006 289.05 146.581 287.925 143.731 287.925C141.447 287.925 140.306 288.525 140.306 289.725C140.306 290.308 140.556 290.767 141.056 291.1C141.556 291.433 142.547 291.842 144.031 292.325C146.297 293.075 147.772 293.617 148.456 293.95C150.772 295.067 151.939 296.517 151.956 298.3Z" fill="white"/>
<path d="M345.5 204C345.5 202.895 344.605 202 343.5 202C342.395 202 341.5 202.895 341.5 204H345.5ZM125.586 261.914C126.367 262.695 127.633 262.695 128.414 261.914L141.142 249.186C141.923 248.405 141.923 247.139 141.142 246.358C140.361 245.577 139.095 245.577 138.314 246.358L127 257.672L115.686 246.358C114.905 245.577 113.639 245.577 112.858 246.358C112.077 247.139 112.077 248.405 112.858 249.186L125.586 261.914ZM341.5 204V208.5H345.5V204H341.5ZM319.5 230.5H151V234.5H319.5V230.5ZM125 256.5V260.5H129V256.5H125ZM151 230.5C136.641 230.5 125 242.141 125 256.5H129C129 244.35 138.85 234.5 151 234.5V230.5ZM341.5 208.5C341.5 220.65 331.65 230.5 319.5 230.5V234.5C333.859 234.5 345.5 222.859 345.5 208.5H341.5Z" fill="#0066FF"/>
<rect x="310" y="398" width="389" height="60" rx="24" fill="#0066FF"/>
<path d="M397.073 434L395.248 427.85H388.098L386.273 434H383.023L388.348 416.375H394.973L400.323 434H397.073ZM388.923 425.05H394.398L392.073 417.2H391.248L388.923 425.05ZM415.653 431.2V437.425H412.428V434H404.053V437.425H400.828V431.2H402.478C403.144 430.117 403.619 428.833 403.903 427.35C404.186 425.867 404.328 423.9 404.328 421.45H414.003V431.2H415.653ZM405.703 431.2H410.778V424.25H407.478C407.311 427.25 406.719 429.567 405.703 431.2ZM416.155 430.55C416.155 429.467 416.513 428.608 417.23 427.975C417.963 427.342 419.163 426.925 420.83 426.725L425.18 426.2C425.13 424.633 424.163 423.85 422.28 423.85C421.396 423.85 420.688 424.05 420.155 424.45C419.638 424.833 419.38 425.417 419.38 426.2H416.33C416.33 424.717 416.88 423.517 417.98 422.6C419.08 421.667 420.513 421.2 422.28 421.2C424.096 421.2 425.571 421.7 426.705 422.7C427.838 423.683 428.405 425.1 428.405 426.95V431.2H430.23V434H427.68C427.13 434 426.705 433.85 426.405 433.55C426.121 433.25 425.98 432.833 425.98 432.3V431.875L426.48 430.45H425.63C425.03 432.983 423.346 434.25 420.58 434.25C419.68 434.25 418.913 434.125 418.28 433.875C417.663 433.625 417.213 433.292 416.93 432.875C416.646 432.458 416.446 432.067 416.33 431.7C416.213 431.317 416.155 430.933 416.155 430.55ZM419.38 430C419.38 430.483 419.538 430.85 419.855 431.1C420.188 431.333 420.621 431.45 421.155 431.45C422.371 431.45 423.346 431.15 424.08 430.55C424.813 429.933 425.18 429.133 425.18 428.15L421.405 428.625C420.688 428.708 420.171 428.85 419.855 429.05C419.538 429.233 419.38 429.55 419.38 430ZM442.635 421.45V434H439.41V424.25H434.035V434H430.81V421.45H442.635ZM456.549 421.45V424.25H451.824V434H448.599V424.25H443.874V421.45H456.549ZM470.964 434H467.764V424.05L468.339 422.3H467.514L463.664 434H457.314V421.45H460.539V431.325L459.964 433.175H460.789L464.639 421.45H470.964V434ZM472.495 434V421.45H477.82C479.52 421.45 480.811 421.667 481.695 422.1C482.578 422.533 483.02 423.308 483.02 424.425C483.02 426.042 482.145 426.917 480.395 427.05V427.9C482.761 427.933 483.945 428.875 483.945 430.725C483.945 432.908 482.211 434 478.745 434H472.495ZM475.545 426.4H477.82C478.653 426.4 479.22 426.325 479.52 426.175C479.82 426.008 479.97 425.633 479.97 425.05C479.97 424.517 479.811 424.167 479.495 424C479.178 423.833 478.62 423.75 477.82 423.75H475.545V426.4ZM475.545 431.7H478.745C479.528 431.7 480.078 431.6 480.395 431.4C480.728 431.2 480.895 430.808 480.895 430.225C480.895 429.625 480.728 429.225 480.395 429.025C480.078 428.808 479.528 428.7 478.745 428.7H475.545V431.7ZM494.809 421.45H498.009V434H494.809V429.125H488.434V434H485.209V421.45H488.434V426.325H494.809V421.45ZM499.524 430.55C499.524 429.467 499.882 428.608 500.599 427.975C501.332 427.342 502.532 426.925 504.199 426.725L508.549 426.2C508.499 424.633 507.532 423.85 505.649 423.85C504.766 423.85 504.057 424.05 503.524 424.45C503.007 424.833 502.749 425.417 502.749 426.2H499.699C499.699 424.717 500.249 423.517 501.349 422.6C502.449 421.667 503.882 421.2 505.649 421.2C507.466 421.2 508.941 421.7 510.074 422.7C511.207 423.683 511.774 425.1 511.774 426.95V431.2H513.599V434H511.049C510.499 434 510.074 433.85 509.774 433.55C509.491 433.25 509.349 432.833 509.349 432.3V431.875L509.849 430.45H508.999C508.399 432.983 506.716 434.25 503.949 434.25C503.049 434.25 502.282 434.125 501.649 433.875C501.032 433.625 500.582 433.292 500.299 432.875C500.016 432.458 499.816 432.067 499.699 431.7C499.582 431.317 499.524 430.933 499.524 430.55ZM502.749 430C502.749 430.483 502.907 430.85 503.224 431.1C503.557 431.333 503.991 431.45 504.524 431.45C505.741 431.45 506.716 431.15 507.449 430.55C508.182 429.933 508.549 429.133 508.549 428.15L504.774 428.625C504.057 428.708 503.541 428.85 503.224 429.05C502.907 429.233 502.749 429.55 502.749 430ZM524.2 421.45V434H520.975V428.825H519.775L517.2 432.8C516.667 433.6 515.917 434 514.95 434H513.1V431.375H515.075L516.725 428.725C515.742 428.575 514.983 428.233 514.45 427.7C513.917 427.15 513.65 426.292 513.65 425.125C513.65 423.858 514.092 422.933 514.975 422.35C515.875 421.75 517.058 421.45 518.525 421.45H524.2ZM520.975 426.525V423.75H519.2C518.367 423.75 517.767 423.85 517.4 424.05C517.05 424.25 516.875 424.608 516.875 425.125C516.875 425.658 517.05 426.025 517.4 426.225C517.767 426.425 518.367 426.525 519.2 426.525H520.975ZM532.48 434V421.45H537.805C539.505 421.45 540.797 421.667 541.68 422.1C542.563 422.533 543.005 423.308 543.005 424.425C543.005 426.042 542.13 426.917 540.38 427.05V427.9C542.747 427.933 543.93 428.875 543.93 430.725C543.93 432.908 542.197 434 538.73 434H532.48ZM535.53 426.4H537.805C538.638 426.4 539.205 426.325 539.505 426.175C539.805 426.008 539.955 425.633 539.955 425.05C539.955 424.517 539.797 424.167 539.48 424C539.163 423.833 538.605 423.75 537.805 423.75H535.53V426.4ZM535.53 431.7H538.73C539.513 431.7 540.063 431.6 540.38 431.4C540.713 431.2 540.88 430.808 540.88 430.225C540.88 429.625 540.713 429.225 540.38 429.025C540.063 428.808 539.513 428.7 538.73 428.7H535.53V431.7ZM549.92 419.425C549.52 419.758 548.978 419.925 548.295 419.925C547.611 419.925 547.07 419.758 546.67 419.425C546.27 419.075 546.07 418.608 546.07 418.025C546.07 417.442 546.27 416.983 546.67 416.65C547.07 416.3 547.611 416.125 548.295 416.125C548.978 416.125 549.52 416.3 549.92 416.65C550.336 416.983 550.545 417.442 550.545 418.025C550.545 418.608 550.336 419.075 549.92 419.425ZM555.87 419.425C555.47 419.758 554.928 419.925 554.245 419.925C553.561 419.925 553.02 419.758 552.62 419.425C552.236 419.075 552.045 418.608 552.045 418.025C552.045 417.442 552.236 416.983 552.62 416.65C553.02 416.3 553.561 416.125 554.245 416.125C554.928 416.125 555.47 416.3 555.87 416.65C556.286 416.983 556.495 417.442 556.495 418.025C556.495 418.608 556.286 419.075 555.87 419.425ZM544.695 427.575C544.695 425.608 545.286 424.058 546.47 422.925C547.653 421.775 549.195 421.2 551.095 421.2C552.995 421.2 554.52 421.75 555.67 422.85C556.836 423.95 557.42 425.442 557.42 427.325V428.375H547.745C547.778 429.358 548.095 430.15 548.695 430.75C549.311 431.333 550.236 431.625 551.47 431.625C553.253 431.625 554.311 430.95 554.645 429.6H557.87C557.653 430.75 557.003 431.817 555.92 432.8C554.836 433.767 553.353 434.25 551.47 434.25C549.253 434.25 547.57 433.617 546.42 432.35C545.27 431.083 544.695 429.492 544.695 427.575ZM547.745 426.425H554.37C554.37 425.675 554.095 425.058 553.545 424.575C553.011 424.092 552.195 423.85 551.095 423.85C549.995 423.85 549.161 424.1 548.595 424.6C548.028 425.083 547.745 425.692 547.745 426.425ZM558.789 421.45H562.014V422.65L561.439 424.575H562.264C563.014 422.325 564.68 421.2 567.264 421.2C569.014 421.2 570.389 421.825 571.389 423.075C572.405 424.308 572.914 425.867 572.914 427.75C572.914 429.617 572.405 431.167 571.389 432.4C570.389 433.633 569.014 434.25 567.264 434.25C564.68 434.25 563.014 433.133 562.264 430.9H561.439L562.014 432.8V438.675H558.789V421.45ZM562.014 427.75C562.014 429 562.355 429.933 563.039 430.55C563.739 431.15 564.689 431.45 565.889 431.45C567.089 431.45 568.022 431.15 568.689 430.55C569.355 429.933 569.689 429 569.689 427.75C569.689 426.483 569.355 425.542 568.689 424.925C568.022 424.308 567.089 424 565.889 424C564.689 424 563.739 424.308 563.039 424.925C562.355 425.542 562.014 426.483 562.014 427.75ZM573.909 427.725C573.909 425.758 574.517 424.183 575.734 423C576.95 421.8 578.567 421.2 580.584 421.2C582.25 421.2 583.7 421.658 584.934 422.575C586.184 423.475 586.867 424.775 586.984 426.475H583.759C583.642 425.675 583.3 425.067 582.734 424.65C582.167 424.217 581.45 424 580.584 424C579.467 424 578.609 424.342 578.009 425.025C577.425 425.692 577.134 426.592 577.134 427.725C577.134 428.858 577.425 429.767 578.009 430.45C578.609 431.117 579.467 431.45 580.584 431.45C581.45 431.45 582.167 431.242 582.734 430.825C583.3 430.392 583.642 429.775 583.759 428.975H586.984C586.867 430.675 586.184 431.983 584.934 432.9C583.7 433.8 582.25 434.25 580.584 434.25C578.567 434.25 576.95 433.658 575.734 432.475C574.517 431.292 573.909 429.708 573.909 427.725ZM599.171 421.45V424.25H594.446V434H591.221V424.25H586.496V421.45H599.171ZM611.886 434H608.336L604.961 429C604.694 429.033 604.469 429.05 604.286 429.05H603.161V434H599.936V421.45H603.161V426.225H604.211L607.011 422.45C607.528 421.783 608.303 421.45 609.336 421.45H611.461V424.25H609.436L607.311 427.1L611.886 434ZM612.151 430.55C612.151 429.467 612.509 428.608 613.226 427.975C613.959 427.342 615.159 426.925 616.826 426.725L621.176 426.2C621.126 424.633 620.159 423.85 618.276 423.85C617.393 423.85 616.684 424.05 616.151 424.45C615.634 424.833 615.376 425.417 615.376 426.2H612.326C612.326 424.717 612.876 423.517 613.976 422.6C615.076 421.667 616.509 421.2 618.276 421.2C620.093 421.2 621.568 421.7 622.701 422.7C623.834 423.683 624.401 425.1 624.401 426.95V431.2H626.226V434H623.676C623.126 434 622.701 433.85 622.401 433.55C622.118 433.25 621.976 432.833 621.976 432.3V431.875L622.476 430.45H621.626C621.026 432.983 619.343 434.25 616.576 434.25C615.676 434.25 614.909 434.125 614.276 433.875C613.659 433.625 613.209 433.292 612.926 432.875C612.643 432.458 612.443 432.067 612.326 431.7C612.209 431.317 612.151 430.933 612.151 430.55ZM615.376 430C615.376 430.483 615.534 430.85 615.851 431.1C616.184 431.333 616.618 431.45 617.151 431.45C618.368 431.45 619.343 431.15 620.076 430.55C620.809 429.933 621.176 429.133 621.176 428.15L617.401 428.625C616.684 428.708 616.168 428.85 615.851 429.05C615.534 429.233 615.376 429.55 615.376 430Z" fill="white"/>
<path d="M129 333C129 331.895 128.105 331 127 331C125.895 331 125 331.895 125 333H129ZM503.086 392.914C503.867 393.695 505.133 393.695 505.914 392.914L518.642 380.186C519.423 379.405 519.423 378.139 518.642 377.358C517.861 376.577 516.595 376.577 515.814 377.358L504.5 388.672L493.186 377.358C492.405 376.577 491.139 376.577 490.358 377.358C489.577 378.139 489.577 379.405 490.358 380.186L503.086 392.914ZM125 333V338.5H129V333H125ZM151 364.5H480.5V360.5H151V364.5ZM502.5 386.5V391.5H506.5V386.5H502.5ZM480.5 364.5C492.65 364.5 502.5 374.35 502.5 386.5H506.5C506.5 372.141 494.859 360.5 480.5 360.5V364.5ZM125 338.5C125 352.859 136.641 364.5 151 364.5V360.5C138.85 360.5 129 350.65 129 338.5H125Z" fill="#0066FF"/>
</svg>
